<?xml version="1.0" encoding="UTF-8" standalone="no"?>
<!DOCTYPE svg PUBLIC "-//W3C//DTD SVG 1.1//EN"
 "http://www.w3.org/Graphics/SVG/1.1/DTD/svg11.dtd">
<!-- Generated by graphviz version 2.47.3 (20210619.1520)
 -->
<!-- Title: G Pages: 1 -->
<svg width="1078pt" height="141pt"
 viewBox="0.00 0.00 1078.02 140.80" xmlns="http://www.w3.org/2000/svg" xmlns:xlink="http://www.w3.org/1999/xlink">
<g id="graph0" class="graph" transform="scale(1 1) rotate(0) translate(4 136.8)">
<title>G</title>
<polygon fill="white" stroke="transparent" points="-4,4 -4,-136.8 1074.02,-136.8 1074.02,4 -4,4"/>
<text text-anchor="middle" x="119.38" y="-116.2" font-family="Times,serif" font-size="14.00">Where used, expression/SimpleSource1</text>
<!-- expression/SimpleSource1 -->
<g id="node1" class="node">
<title>expression/SimpleSource1</title>
<g id="a_node1"><a xlink:href="https://syntax.abaplint.org/#/expression/SimpleSource1" xlink:title="expression/SimpleSource1">
<polygon fill="none" stroke="black" points="636.79,-36 471.19,-36 471.19,0 636.79,0 636.79,-36"/>
<text text-anchor="middle" x="553.99" y="-13.8" font-family="Times,serif" font-size="14.00">expression/SimpleSource1</text>
</a>
</g>
</g>
<!-- statement/InsertInternal -->
<g id="node2" class="node">
<title>statement/InsertInternal</title>
<g id="a_node2"><a xlink:href="https://syntax.abaplint.org/#/statement/InsertInternal" xlink:title="statement/InsertInternal">
<polygon fill="none" stroke="black" points="253.98,-95.56 126.99,-108 0.01,-95.56 0.13,-75.44 253.86,-75.44 253.98,-95.56"/>
<text text-anchor="middle" x="126.99" y="-85.8" font-family="Times,serif" font-size="14.00">statement/InsertInternal</text>
</a>
</g>
</g>
<!-- statement/InsertInternal&#45;&gt;expression/SimpleSource1 -->
<g id="edge1" class="edge">
<title>statement/InsertInternal&#45;&gt;expression/SimpleSource1</title>
<path fill="none" stroke="black" d="M209.83,-75.42C281.9,-63.61 386.24,-46.5 461.12,-34.22"/>
<polygon fill="black" stroke="black" points="461.72,-37.67 471.02,-32.6 460.59,-30.77 461.72,-37.67"/>
</g>
<!-- statement/InsertFieldGroup -->
<g id="node3" class="node">
<title>statement/InsertFieldGroup</title>
<g id="a_node3"><a xlink:href="https://syntax.abaplint.org/#/statement/InsertFieldGroup" xlink:title="statement/InsertFieldGroup">
<polygon fill="none" stroke="black" points="561.81,-95.56 416.99,-108 272.17,-95.56 272.31,-75.44 561.68,-75.44 561.81,-95.56"/>
<text text-anchor="middle" x="416.99" y="-85.8" font-family="Times,serif" font-size="14.00">statement/InsertFieldGroup</text>
</a>
</g>
</g>
<!-- statement/InsertFieldGroup&#45;&gt;expression/SimpleSource1 -->
<g id="edge2" class="edge">
<title>statement/InsertFieldGroup&#45;&gt;expression/SimpleSource1</title>
<path fill="none" stroke="black" d="M443.73,-75.34C462.95,-65.52 489.25,-52.08 511.35,-40.79"/>
<polygon fill="black" stroke="black" points="513.21,-43.77 520.53,-36.1 510.03,-37.53 513.21,-43.77"/>
</g>
<!-- statement/Parameter -->
<g id="node4" class="node">
<title>statement/Parameter</title>
<g id="a_node4"><a xlink:href="https://syntax.abaplint.org/#/statement/Parameter" xlink:title="statement/Parameter">
<polygon fill="none" stroke="black" points="802.16,-95.56 690.99,-108 579.83,-95.56 579.93,-75.44 802.05,-75.44 802.16,-95.56"/>
<text text-anchor="middle" x="690.99" y="-85.8" font-family="Times,serif" font-size="14.00">statement/Parameter</text>
</a>
</g>
</g>
<!-- statement/Parameter&#45;&gt;expression/SimpleSource1 -->
<g id="edge3" class="edge">
<title>statement/Parameter&#45;&gt;expression/SimpleSource1</title>
<path fill="none" stroke="black" d="M664.25,-75.34C645.04,-65.52 618.73,-52.08 596.64,-40.79"/>
<polygon fill="black" stroke="black" points="597.96,-37.53 587.46,-36.1 594.77,-43.77 597.96,-37.53"/>
</g>
<!-- statement/SelectOption -->
<g id="node5" class="node">
<title>statement/SelectOption</title>
<g id="a_node5"><a xlink:href="https://syntax.abaplint.org/#/statement/SelectOption" xlink:title="statement/SelectOption">
<polygon fill="none" stroke="black" points="1070.04,-95.56 944.99,-108 819.94,-95.56 820.06,-75.44 1069.93,-75.44 1070.04,-95.56"/>
<text text-anchor="middle" x="944.99" y="-85.8" font-family="Times,serif" font-size="14.00">statement/SelectOption</text>
</a>
</g>
</g>
<!-- statement/SelectOption&#45;&gt;expression/SimpleSource1 -->
<g id="edge4" class="edge">
<title>statement/SelectOption&#45;&gt;expression/SimpleSource1</title>
<path fill="none" stroke="black" d="M869.14,-75.42C805.66,-64.06 714.84,-47.8 646.99,-35.65"/>
<polygon fill="black" stroke="black" points="647.19,-32.13 636.73,-33.81 645.96,-39.02 647.19,-32.13"/>
</g>
</g>
</svg>
