<svg xmlns="http://www.w3.org/2000/svg" xmlns:xlink="http://www.w3.org/1999/xlink" class="railroad-diagram" width="1235.5" height="169" viewBox="0 0 1235.5 169">
<defs>
<style type="text/css"><![CDATA[
path {
stroke-width: 3;
stroke: black;
fill: rgba(0,0,0,0);
}
text {
font: bold 14px monospace;
text-anchor: middle;
}
text.diagram-text {
font-size: 12px;
}
a {
fill: blue;
}
text.diagram-arrow {
font-size: 16px;
}
text.label {
text-anchor: start;
}
text.comment {
font: italic 12px monospace;
}
rect {
stroke-width: 3;
stroke: black;
fill: #BCBCBC;
}
path.diagram-text {
stroke-width: 3;
stroke: black;
fill: #BCBCBC;
cursor: help;
}
]]></style>
</defs>
<g transform="translate(.5 .5)">
<g>
<path d="M20 21v20m0 -10h20"></path>
</g>
<path d="M40 31h10"></path>
<g>
<path d="M50 31h0"></path>
<path d="M1185.5 31h0"></path>
<g>
<path d="M50 31h0"></path>
<path d="M116 31h0"></path>
<text x="83" y="36" class="comment">v740sp02</text>
</g>
<path d="M116 31h10"></path>
<path d="M126 31h10"></path>
<g>
<path d="M136 31h0"></path>
<path d="M1185.5 31h0"></path>
<g class="terminal">
<path d="M136 31h0"></path>
<path d="M198.5 31h0"></path>
<rect x="136" y="20" width="62.5" height="22" rx="10" ry="10"></rect>
<text x="167.25" y="35">!"&#91; "</text>
</g>
<path d="M198.5 31h10"></path>
<g>
<path d="M208.5 31h0"></path>
<path d="M1074.5 31h0"></path>
<path d="M208.5 31h20"></path>
<g class="non-terminal">
<path d="M228.5 31h0"></path>
<path d="M299.5 31h755"></path>
<rect x="228.5" y="20" width="71" height="22"></rect>
<a xlink:href="#/expression/Source"><text x="264" y="35">Source</text>
</a>
</g>
<path d="M1054.5 31h20"></path>
<path d="M208.5 31a10 10 0 0 1 10 10v19a10 10 0 0 0 10 10"></path>
<g>
<path d="M228.5 70h0"></path>
<path d="M1054.5 70h0"></path>
<g>
<path d="M228.5 70h0"></path>
<path d="M456 70h0"></path>
<path d="M228.5 70a10 10 0 0 0 10 -10v0a10 10 0 0 1 10 -10"></path>
<g>
<path d="M248.5 50h187.5"></path>
</g>
<path d="M436 50a10 10 0 0 1 10 10v0a10 10 0 0 0 10 10"></path>
<path d="M228.5 70h20"></path>
<g>
<path d="M248.5 70h0"></path>
<path d="M436 70h0"></path>
<g class="terminal">
<path d="M248.5 70h0"></path>
<path d="M311 70h0"></path>
<rect x="248.5" y="59" width="62.5" height="22" rx="10" ry="10"></rect>
<text x="279.75" y="74">"KEY"</text>
</g>
<path d="M311 70h10"></path>
<path d="M321 70h10"></path>
<g class="non-terminal">
<path d="M331 70h0"></path>
<path d="M436 70h0"></path>
<rect x="331" y="59" width="105" height="22"></rect>
<a xlink:href="#/expression/SimpleName"><text x="383.5" y="74">SimpleName</text>
</a>
</g>
</g>
<path d="M436 70h20"></path>
</g>
<g>
<path d="M456 70h0"></path>
<path d="M618 70h0"></path>
<path d="M456 70a10 10 0 0 0 10 -10v0a10 10 0 0 1 10 -10"></path>
<g>
<path d="M476 50h122"></path>
</g>
<path d="M598 50a10 10 0 0 1 10 10v0a10 10 0 0 0 10 10"></path>
<path d="M456 70h20"></path>
<g class="terminal">
<path d="M476 70h0"></path>
<path d="M598 70h0"></path>
<rect x="476" y="59" width="122" height="22" rx="10" ry="10"></rect>
<text x="537" y="74">"COMPONENTS"</text>
</g>
<path d="M598 70h20"></path>
</g>
<g>
<path d="M618 70h0"></path>
<path d="M1054.5 70h0"></path>
<path d="M618 70h20"></path>
<g>
<path d="M638 70h0"></path>
<path d="M1034.5 70h0"></path>
<path d="M638 70h10"></path>
<g>
<path d="M648 70h0"></path>
<path d="M1024.5 70h0"></path>
<g>
<path d="M648 70h0"></path>
<path d="M878 70h0"></path>
<path d="M648 70h20"></path>
<g class="non-terminal">
<path d="M668 70h0"></path>
<path d="M858 70h0"></path>
<rect x="668" y="59" width="190" height="22"></rect>
<a xlink:href="#/expression/ComponentChainSimple"><text x="763" y="74">ComponentChainSimple</text>
</a>
</g>
<path d="M858 70h20"></path>
<path d="M648 70a10 10 0 0 1 10 10v10a10 10 0 0 0 10 10"></path>
<g class="non-terminal">
<path d="M668 100h0"></path>
<path d="M747.5 100h110.5"></path>
<rect x="668" y="89" width="79.5" height="22"></rect>
<a xlink:href="#/expression/Dynamic"><text x="707.75" y="104">Dynamic</text>
</a>
</g>
<path d="M858 100a10 10 0 0 0 10 -10v-10a10 10 0 0 1 10 -10"></path>
</g>
<path d="M878 70h10"></path>
<g class="terminal">
<path d="M888 70h0"></path>
<path d="M933.5 70h0"></path>
<rect x="888" y="59" width="45.5" height="22" rx="10" ry="10"></rect>
<text x="910.75" y="74">"="</text>
</g>
<path d="M933.5 70h10"></path>
<path d="M943.5 70h10"></path>
<g class="non-terminal">
<path d="M953.5 70h0"></path>
<path d="M1024.5 70h0"></path>
<rect x="953.5" y="59" width="71" height="22"></rect>
<a xlink:href="#/expression/Source"><text x="989" y="74">Source</text>
</a>
</g>
</g>
<path d="M1024.5 70h10"></path>
<path d="M648 70a10 10 0 0 0 -10 10v29a10 10 0 0 0 10 10"></path>
<g>
<path d="M648 119h376.5"></path>
</g>
<path d="M1024.5 119a10 10 0 0 0 10 -10v-29a10 10 0 0 0 -10 -10"></path>
</g>
<path d="M1034.5 70h20"></path>
<path d="M618 70a10 10 0 0 1 10 10v48a10 10 0 0 0 10 10"></path>
<g>
<path d="M638 138h0"></path>
<path d="M808.5 138h226"></path>
<g class="terminal">
<path d="M638 138h0"></path>
<path d="M717.5 138h0"></path>
<rect x="638" y="127" width="79.5" height="22" rx="10" ry="10"></rect>
<text x="677.75" y="142">"INDEX"</text>
</g>
<path d="M717.5 138h10"></path>
<path d="M727.5 138h10"></path>
<g class="non-terminal">
<path d="M737.5 138h0"></path>
<path d="M808.5 138h0"></path>
<rect x="737.5" y="127" width="71" height="22"></rect>
<a xlink:href="#/expression/Source"><text x="773" y="142">Source</text>
</a>
</g>
</g>
<path d="M1034.5 138a10 10 0 0 0 10 -10v-48a10 10 0 0 1 10 -10"></path>
</g>
</g>
<path d="M1054.5 70a10 10 0 0 0 10 -10v-19a10 10 0 0 1 10 -10"></path>
</g>
<g>
<path d="M1074.5 31h0"></path>
<path d="M1185.5 31h0"></path>
<path d="M1074.5 31h20"></path>
<g class="terminal">
<path d="M1094.5 31h0"></path>
<path d="M1157 31h8.5"></path>
<rect x="1094.5" y="20" width="62.5" height="22" rx="10" ry="10"></rect>
<text x="1125.75" y="35">!" &#93;"</text>
</g>
<path d="M1165.5 31h20"></path>
<path d="M1074.5 31a10 10 0 0 1 10 10v10a10 10 0 0 0 10 10"></path>
<g class="terminal">
<path d="M1094.5 61h0"></path>
<path d="M1165.5 61h0"></path>
<rect x="1094.5" y="50" width="71" height="22" rx="10" ry="10"></rect>
<text x="1130" y="65">!" &#93; "</text>
</g>
<path d="M1165.5 61a10 10 0 0 0 10 -10v-10a10 10 0 0 1 10 -10"></path>
</g>
</g>
</g>
<path d="M1185.5 31h10"></path>
<path d="M 1195.5 31 h 20 m 0 -10 v 20"></path>
</g>
</svg>
