<svg xmlns="http://www.w3.org/2000/svg" xmlns:xlink="http://www.w3.org/1999/xlink" class="railroad-diagram" width="753.5" height="62" viewBox="0 0 753.5 62">
<defs>
<style type="text/css"><![CDATA[
path {
stroke-width: 3;
stroke: black;
fill: rgba(0,0,0,0);
}
text {
font: bold 14px monospace;
text-anchor: middle;
}
text.diagram-text {
font-size: 12px;
}
a {
fill: blue;
}
text.diagram-arrow {
font-size: 16px;
}
text.label {
text-anchor: start;
}
text.comment {
font: italic 12px monospace;
}
rect {
stroke-width: 3;
stroke: black;
fill: #BCBCBC;
}
path.diagram-text {
stroke-width: 3;
stroke: black;
fill: #BCBCBC;
cursor: help;
}
]]></style>
</defs>
<g transform="translate(.5 .5)">
<g>
<path d="M20 21v20m0 -10h20"></path>
</g>
<path d="M40 31h10"></path>
<g>
<path d="M50 31h0"></path>
<path d="M703.5 31h0"></path>
<g class="terminal">
<path d="M50 31h0"></path>
<path d="M163.5 31h0"></path>
<rect x="50" y="20" width="113.5" height="22" rx="10" ry="10"></rect>
<text x="106.75" y="35">"RETURNING"</text>
</g>
<path d="M163.5 31h10"></path>
<path d="M173.5 31h10"></path>
<g>
<path d="M183.5 31h0"></path>
<path d="M587 31h0"></path>
<g class="terminal">
<path d="M183.5 31h0"></path>
<path d="M263 31h0"></path>
<rect x="183.5" y="20" width="79.5" height="22" rx="10" ry="10"></rect>
<text x="223.25" y="35">"VALUE"</text>
</g>
<path d="M263 31h10"></path>
<path d="M273 31h10"></path>
<g class="terminal">
<path d="M283 31h0"></path>
<path d="M337 31h0"></path>
<rect x="283" y="20" width="54" height="22" rx="10" ry="10"></rect>
<text x="310" y="35">!"("</text>
</g>
<path d="M337 31h10"></path>
<path d="M347 31h10"></path>
<g class="non-terminal">
<path d="M357 31h0"></path>
<path d="M504.5 31h0"></path>
<rect x="357" y="20" width="147.5" height="22"></rect>
<a xlink:href="#/expression/MethodParamName"><text x="430.75" y="35">MethodParamName</text>
</a>
</g>
<path d="M504.5 31h10"></path>
<path d="M514.5 31h10"></path>
<g class="terminal">
<path d="M524.5 31h0"></path>
<path d="M587 31h0"></path>
<rect x="524.5" y="20" width="62.5" height="22" rx="10" ry="10"></rect>
<text x="555.75" y="35">!") "</text>
</g>
</g>
<path d="M587 31h10"></path>
<path d="M597 31h10"></path>
<g class="non-terminal">
<path d="M607 31h0"></path>
<path d="M703.5 31h0"></path>
<rect x="607" y="20" width="96.5" height="22"></rect>
<a xlink:href="#/expression/TypeParam"><text x="655.25" y="35">TypeParam</text>
</a>
</g>
</g>
<path d="M703.5 31h10"></path>
<path d="M 713.5 31 h 20 m 0 -10 v 20"></path>
</g>
</svg>
