<svg xmlns="http://www.w3.org/2000/svg" xmlns:xlink="http://www.w3.org/1999/xlink" class="railroad-diagram" width="1240.5" height="1091" viewBox="0 0 1240.5 1091">
<defs>
<style type="text/css"><![CDATA[
path {
stroke-width: 3;
stroke: black;
fill: rgba(0,0,0,0);
}
text {
font: bold 14px monospace;
text-anchor: middle;
}
text.diagram-text {
font-size: 12px;
}
a {
fill: blue;
}
text.diagram-arrow {
font-size: 16px;
}
text.label {
text-anchor: start;
}
text.comment {
font: italic 12px monospace;
}
rect {
stroke-width: 3;
stroke: black;
fill: #BCBCBC;
}
path.diagram-text {
stroke-width: 3;
stroke: black;
fill: #BCBCBC;
cursor: help;
}
]]></style>
</defs>
<g transform="translate(.5 .5)">
<g>
<path d="M20 21v20m0 -10h20"></path>
</g>
<g>
<path d="M40 31h0"></path>
<path d="M1200.5 31h0"></path>
<path d="M40 31h20"></path>
<g>
<path d="M60 31h0"></path>
<path d="M700 31h480.5"></path>
<g>
<path d="M60 31h0"></path>
<path d="M126 31h0"></path>
<text x="93" y="36" class="comment">v740sp08</text>
</g>
<path d="M126 31h10"></path>
<path d="M136 31h10"></path>
<g>
<path d="M146 31h0"></path>
<path d="M700 31h0"></path>
<g class="terminal">
<path d="M146 31h0"></path>
<path d="M234 31h0"></path>
<rect x="146" y="20" width="88" height="22" rx="10" ry="10"></rect>
<text x="190" y="35">"FILTER"</text>
</g>
<path d="M234 31h10"></path>
<path d="M244 31h10"></path>
<g class="non-terminal">
<path d="M254 31h0"></path>
<path d="M401.5 31h0"></path>
<rect x="254" y="20" width="147.5" height="22"></rect>
<a xlink:href="#/expression/TypeNameOrInfer"><text x="327.75" y="35">TypeNameOrInfer</text>
</a>
</g>
<path d="M401.5 31h10"></path>
<path d="M411.5 31h10"></path>
<g class="terminal">
<path d="M421.5 31h0"></path>
<path d="M484 31h0"></path>
<rect x="421.5" y="20" width="62.5" height="22" rx="10" ry="10"></rect>
<text x="452.75" y="35">!"( "</text>
</g>
<path d="M484 31h10"></path>
<path d="M494 31h10"></path>
<g class="non-terminal">
<path d="M504 31h0"></path>
<path d="M609 31h0"></path>
<rect x="504" y="20" width="105" height="22"></rect>
<a xlink:href="#/expression/FilterBody"><text x="556.5" y="35">FilterBody</text>
</a>
</g>
<path d="M609 31h10"></path>
<path d="M619 31h10"></path>
<g class="terminal">
<path d="M629 31h0"></path>
<path d="M700 31h0"></path>
<rect x="629" y="20" width="71" height="22" rx="10" ry="10"></rect>
<text x="664.5" y="35">!" ) "</text>
</g>
</g>
</g>
<path d="M1180.5 31h20"></path>
<path d="M40 31a10 10 0 0 1 10 10v19a10 10 0 0 0 10 10"></path>
<g>
<path d="M60 70h0"></path>
<path d="M785.5 70h395"></path>
<g>
<path d="M60 70h0"></path>
<path d="M126 70h0"></path>
<text x="93" y="75" class="comment">v740sp02</text>
</g>
<path d="M126 70h10"></path>
<path d="M136 70h10"></path>
<g>
<path d="M146 70h0"></path>
<path d="M785.5 70h0"></path>
<g class="terminal">
<path d="M146 70h0"></path>
<path d="M208.5 70h0"></path>
<rect x="146" y="59" width="62.5" height="22" rx="10" ry="10"></rect>
<text x="177.25" y="74">"REF"</text>
</g>
<path d="M208.5 70h10"></path>
<path d="M218.5 70h10"></path>
<g class="non-terminal">
<path d="M228.5 70h0"></path>
<path d="M376 70h0"></path>
<rect x="228.5" y="59" width="147.5" height="22"></rect>
<a xlink:href="#/expression/TypeNameOrInfer"><text x="302.25" y="74">TypeNameOrInfer</text>
</a>
</g>
<path d="M376 70h10"></path>
<path d="M386 70h10"></path>
<g class="terminal">
<path d="M396 70h0"></path>
<path d="M458.5 70h0"></path>
<rect x="396" y="59" width="62.5" height="22" rx="10" ry="10"></rect>
<text x="427.25" y="74">!"( "</text>
</g>
<path d="M458.5 70h10"></path>
<path d="M468.5 70h10"></path>
<g class="non-terminal">
<path d="M478.5 70h0"></path>
<path d="M549.5 70h0"></path>
<rect x="478.5" y="59" width="71" height="22"></rect>
<a xlink:href="#/expression/Source"><text x="514" y="74">Source</text>
</a>
</g>
<path d="M549.5 70h10"></path>
<g>
<path d="M559.5 70h0"></path>
<path d="M704.5 70h0"></path>
<path d="M559.5 70a10 10 0 0 0 10 -10v0a10 10 0 0 1 10 -10"></path>
<g>
<path d="M579.5 50h105"></path>
</g>
<path d="M684.5 50a10 10 0 0 1 10 10v0a10 10 0 0 0 10 10"></path>
<path d="M559.5 70h20"></path>
<g class="terminal">
<path d="M579.5 70h0"></path>
<path d="M684.5 70h0"></path>
<rect x="579.5" y="59" width="105" height="22" rx="10" ry="10"></rect>
<text x="632" y="74">"OPTIONAL"</text>
</g>
<path d="M684.5 70h20"></path>
</g>
<path d="M704.5 70h10"></path>
<g class="terminal">
<path d="M714.5 70h0"></path>
<path d="M785.5 70h0"></path>
<rect x="714.5" y="59" width="71" height="22" rx="10" ry="10"></rect>
<text x="750" y="74">!" ) "</text>
</g>
</g>
</g>
<path d="M1180.5 70a10 10 0 0 0 10 -10v-19a10 10 0 0 1 10 -10"></path>
<path d="M40 31a10 10 0 0 1 10 10v58a10 10 0 0 0 10 10"></path>
<g>
<path d="M60 109h0"></path>
<path d="M1120.5 109h60"></path>
<g>
<path d="M60 109h0"></path>
<path d="M126 109h0"></path>
<text x="93" y="114" class="comment">v740sp05</text>
</g>
<path d="M126 109h10"></path>
<path d="M136 109h10"></path>
<g>
<path d="M146 109h0"></path>
<path d="M1120.5 109h0"></path>
<g class="terminal">
<path d="M146 109h0"></path>
<path d="M293.5 109h0"></path>
<rect x="146" y="98" width="147.5" height="22" rx="10" ry="10"></rect>
<text x="219.75" y="113">"CORRESPONDING"</text>
</g>
<path d="M293.5 109h10"></path>
<path d="M303.5 109h10"></path>
<g class="non-terminal">
<path d="M313.5 109h0"></path>
<path d="M461 109h0"></path>
<rect x="313.5" y="98" width="147.5" height="22"></rect>
<a xlink:href="#/expression/TypeNameOrInfer"><text x="387.25" y="113">TypeNameOrInfer</text>
</a>
</g>
<path d="M461 109h10"></path>
<path d="M471 109h10"></path>
<g class="terminal">
<path d="M481 109h0"></path>
<path d="M543.5 109h0"></path>
<rect x="481" y="98" width="62.5" height="22" rx="10" ry="10"></rect>
<text x="512.25" y="113">!"( "</text>
</g>
<path d="M543.5 109h10"></path>
<path d="M553.5 109h10"></path>
<g class="non-terminal">
<path d="M563.5 109h0"></path>
<path d="M728 109h0"></path>
<rect x="563.5" y="98" width="164.5" height="22"></rect>
<a xlink:href="#/expression/CorrespondingBody"><text x="645.75" y="113">CorrespondingBody</text>
</a>
</g>
<path d="M728 109h10"></path>
<path d="M738 109h10"></path>
<g class="terminal">
<path d="M748 109h0"></path>
<path d="M819 109h0"></path>
<rect x="748" y="98" width="71" height="22" rx="10" ry="10"></rect>
<text x="783.5" y="113">!" ) "</text>
</g>
<path d="M819 109h10"></path>
<g>
<path d="M829 109h0"></path>
<path d="M1120.5 109h0"></path>
<path d="M829 109a10 10 0 0 0 10 -10v0a10 10 0 0 1 10 -10"></path>
<g>
<path d="M849 89h251.5"></path>
</g>
<path d="M1100.5 89a10 10 0 0 1 10 10v0a10 10 0 0 0 10 10"></path>
<path d="M829 109h20"></path>
<g>
<path d="M849 109h0"></path>
<path d="M1100.5 109h0"></path>
<g>
<path d="M849 109h0"></path>
<path d="M1019.5 109h0"></path>
<path d="M849 109h20"></path>
<g class="terminal">
<path d="M869 109h0"></path>
<path d="M914.5 109h85"></path>
<rect x="869" y="98" width="45.5" height="22" rx="10" ry="10"></rect>
<text x="891.75" y="113">"&#38;"</text>
</g>
<path d="M999.5 109h20"></path>
<path d="M849 109a10 10 0 0 1 10 10v10a10 10 0 0 0 10 10"></path>
<g class="terminal">
<path d="M869 139h0"></path>
<path d="M923 139h76.5"></path>
<rect x="869" y="128" width="54" height="22" rx="10" ry="10"></rect>
<text x="896" y="143">"&#38;&#38;"</text>
</g>
<path d="M999.5 139a10 10 0 0 0 10 -10v-10a10 10 0 0 1 10 -10"></path>
<path d="M849 109a10 10 0 0 1 10 10v40a10 10 0 0 0 10 10"></path>
<g class="non-terminal">
<path d="M869 169h0"></path>
<path d="M999.5 169h0"></path>
<rect x="869" y="158" width="130.5" height="22"></rect>
<a xlink:href="#/expression/ArithOperator"><text x="934.25" y="173">ArithOperator</text>
</a>
</g>
<path d="M999.5 169a10 10 0 0 0 10 -10v-40a10 10 0 0 1 10 -10"></path>
</g>
<path d="M1019.5 109h10"></path>
<g class="non-terminal">
<path d="M1029.5 109h0"></path>
<path d="M1100.5 109h0"></path>
<rect x="1029.5" y="98" width="71" height="22"></rect>
<a xlink:href="#/expression/Source"><text x="1065" y="113">Source</text>
</a>
</g>
</g>
<path d="M1100.5 109h20"></path>
</g>
</g>
</g>
<path d="M1180.5 109a10 10 0 0 0 10 -10v-58a10 10 0 0 1 10 -10"></path>
<path d="M40 31a10 10 0 0 1 10 10v157a10 10 0 0 0 10 10"></path>
<g>
<path d="M60 208h0"></path>
<path d="M987.5 208h193"></path>
<g>
<path d="M60 208h0"></path>
<path d="M126 208h0"></path>
<text x="93" y="213" class="comment">v740sp02</text>
</g>
<path d="M126 208h10"></path>
<path d="M136 208h10"></path>
<g>
<path d="M146 208h0"></path>
<path d="M987.5 208h0"></path>
<g class="terminal">
<path d="M146 208h0"></path>
<path d="M217 208h0"></path>
<rect x="146" y="197" width="71" height="22" rx="10" ry="10"></rect>
<text x="181.5" y="212">"CONV"</text>
</g>
<path d="M217 208h10"></path>
<path d="M227 208h10"></path>
<g class="non-terminal">
<path d="M237 208h0"></path>
<path d="M384.5 208h0"></path>
<rect x="237" y="197" width="147.5" height="22"></rect>
<a xlink:href="#/expression/TypeNameOrInfer"><text x="310.75" y="212">TypeNameOrInfer</text>
</a>
</g>
<path d="M384.5 208h10"></path>
<path d="M394.5 208h10"></path>
<g class="terminal">
<path d="M404.5 208h0"></path>
<path d="M467 208h0"></path>
<rect x="404.5" y="197" width="62.5" height="22" rx="10" ry="10"></rect>
<text x="435.75" y="212">!"( "</text>
</g>
<path d="M467 208h10"></path>
<path d="M477 208h10"></path>
<g class="non-terminal">
<path d="M487 208h0"></path>
<path d="M575 208h0"></path>
<rect x="487" y="197" width="88" height="22"></rect>
<a xlink:href="#/expression/ConvBody"><text x="531" y="212">ConvBody</text>
</a>
</g>
<path d="M575 208h10"></path>
<g>
<path d="M585 208h0"></path>
<path d="M696 208h0"></path>
<path d="M585 208h20"></path>
<g class="terminal">
<path d="M605 208h0"></path>
<path d="M667.5 208h8.5"></path>
<rect x="605" y="197" width="62.5" height="22" rx="10" ry="10"></rect>
<text x="636.25" y="212">!") "</text>
</g>
<path d="M676 208h20"></path>
<path d="M585 208a10 10 0 0 1 10 10v10a10 10 0 0 0 10 10"></path>
<g class="terminal">
<path d="M605 238h0"></path>
<path d="M676 238h0"></path>
<rect x="605" y="227" width="71" height="22" rx="10" ry="10"></rect>
<text x="640.5" y="242">!" ) "</text>
</g>
<path d="M676 238a10 10 0 0 0 10 -10v-10a10 10 0 0 1 10 -10"></path>
</g>
<g>
<path d="M696 208h0"></path>
<path d="M987.5 208h0"></path>
<path d="M696 208a10 10 0 0 0 10 -10v0a10 10 0 0 1 10 -10"></path>
<g>
<path d="M716 188h251.5"></path>
</g>
<path d="M967.5 188a10 10 0 0 1 10 10v0a10 10 0 0 0 10 10"></path>
<path d="M696 208h20"></path>
<g>
<path d="M716 208h0"></path>
<path d="M967.5 208h0"></path>
<g>
<path d="M716 208h0"></path>
<path d="M886.5 208h0"></path>
<path d="M716 208h20"></path>
<g class="terminal">
<path d="M736 208h0"></path>
<path d="M781.5 208h85"></path>
<rect x="736" y="197" width="45.5" height="22" rx="10" ry="10"></rect>
<text x="758.75" y="212">"&#38;"</text>
</g>
<path d="M866.5 208h20"></path>
<path d="M716 208a10 10 0 0 1 10 10v10a10 10 0 0 0 10 10"></path>
<g class="terminal">
<path d="M736 238h0"></path>
<path d="M790 238h76.5"></path>
<rect x="736" y="227" width="54" height="22" rx="10" ry="10"></rect>
<text x="763" y="242">"&#38;&#38;"</text>
</g>
<path d="M866.5 238a10 10 0 0 0 10 -10v-10a10 10 0 0 1 10 -10"></path>
<path d="M716 208a10 10 0 0 1 10 10v40a10 10 0 0 0 10 10"></path>
<g class="non-terminal">
<path d="M736 268h0"></path>
<path d="M866.5 268h0"></path>
<rect x="736" y="257" width="130.5" height="22"></rect>
<a xlink:href="#/expression/ArithOperator"><text x="801.25" y="272">ArithOperator</text>
</a>
</g>
<path d="M866.5 268a10 10 0 0 0 10 -10v-40a10 10 0 0 1 10 -10"></path>
</g>
<path d="M886.5 208h10"></path>
<g class="non-terminal">
<path d="M896.5 208h0"></path>
<path d="M967.5 208h0"></path>
<rect x="896.5" y="197" width="71" height="22"></rect>
<a xlink:href="#/expression/Source"><text x="932" y="212">Source</text>
</a>
</g>
</g>
<path d="M967.5 208h20"></path>
</g>
</g>
</g>
<path d="M1180.5 208a10 10 0 0 0 10 -10v-157a10 10 0 0 1 10 -10"></path>
<path d="M40 31a10 10 0 0 1 10 10v256a10 10 0 0 0 10 10"></path>
<g>
<path d="M60 307h0"></path>
<path d="M1004.5 307h176"></path>
<g>
<path d="M60 307h0"></path>
<path d="M126 307h0"></path>
<text x="93" y="312" class="comment">v740sp02</text>
</g>
<path d="M126 307h10"></path>
<path d="M136 307h10"></path>
<g>
<path d="M146 307h0"></path>
<path d="M1004.5 307h0"></path>
<g class="terminal">
<path d="M146 307h0"></path>
<path d="M225.5 307h0"></path>
<rect x="146" y="296" width="79.5" height="22" rx="10" ry="10"></rect>
<text x="185.75" y="311">"VALUE"</text>
</g>
<path d="M225.5 307h10"></path>
<path d="M235.5 307h10"></path>
<g class="non-terminal">
<path d="M245.5 307h0"></path>
<path d="M393 307h0"></path>
<rect x="245.5" y="296" width="147.5" height="22"></rect>
<a xlink:href="#/expression/TypeNameOrInfer"><text x="319.25" y="311">TypeNameOrInfer</text>
</a>
</g>
<path d="M393 307h10"></path>
<path d="M403 307h10"></path>
<g class="terminal">
<path d="M413 307h0"></path>
<path d="M475.5 307h0"></path>
<rect x="413" y="296" width="62.5" height="22" rx="10" ry="10"></rect>
<text x="444.25" y="311">!"( "</text>
</g>
<path d="M475.5 307h10"></path>
<path d="M485.5 307h10"></path>
<g class="non-terminal">
<path d="M495.5 307h0"></path>
<path d="M592 307h0"></path>
<rect x="495.5" y="296" width="96.5" height="22"></rect>
<a xlink:href="#/expression/ValueBody"><text x="543.75" y="311">ValueBody</text>
</a>
</g>
<path d="M592 307h10"></path>
<g>
<path d="M602 307h0"></path>
<path d="M713 307h0"></path>
<path d="M602 307h20"></path>
<g class="terminal">
<path d="M622 307h0"></path>
<path d="M684.5 307h8.5"></path>
<rect x="622" y="296" width="62.5" height="22" rx="10" ry="10"></rect>
<text x="653.25" y="311">!") "</text>
</g>
<path d="M693 307h20"></path>
<path d="M602 307a10 10 0 0 1 10 10v10a10 10 0 0 0 10 10"></path>
<g class="terminal">
<path d="M622 337h0"></path>
<path d="M693 337h0"></path>
<rect x="622" y="326" width="71" height="22" rx="10" ry="10"></rect>
<text x="657.5" y="341">!" ) "</text>
</g>
<path d="M693 337a10 10 0 0 0 10 -10v-10a10 10 0 0 1 10 -10"></path>
</g>
<g>
<path d="M713 307h0"></path>
<path d="M1004.5 307h0"></path>
<path d="M713 307a10 10 0 0 0 10 -10v0a10 10 0 0 1 10 -10"></path>
<g>
<path d="M733 287h251.5"></path>
</g>
<path d="M984.5 287a10 10 0 0 1 10 10v0a10 10 0 0 0 10 10"></path>
<path d="M713 307h20"></path>
<g>
<path d="M733 307h0"></path>
<path d="M984.5 307h0"></path>
<g>
<path d="M733 307h0"></path>
<path d="M903.5 307h0"></path>
<path d="M733 307h20"></path>
<g class="terminal">
<path d="M753 307h0"></path>
<path d="M798.5 307h85"></path>
<rect x="753" y="296" width="45.5" height="22" rx="10" ry="10"></rect>
<text x="775.75" y="311">"&#38;"</text>
</g>
<path d="M883.5 307h20"></path>
<path d="M733 307a10 10 0 0 1 10 10v10a10 10 0 0 0 10 10"></path>
<g class="terminal">
<path d="M753 337h0"></path>
<path d="M807 337h76.5"></path>
<rect x="753" y="326" width="54" height="22" rx="10" ry="10"></rect>
<text x="780" y="341">"&#38;&#38;"</text>
</g>
<path d="M883.5 337a10 10 0 0 0 10 -10v-10a10 10 0 0 1 10 -10"></path>
<path d="M733 307a10 10 0 0 1 10 10v40a10 10 0 0 0 10 10"></path>
<g class="non-terminal">
<path d="M753 367h0"></path>
<path d="M883.5 367h0"></path>
<rect x="753" y="356" width="130.5" height="22"></rect>
<a xlink:href="#/expression/ArithOperator"><text x="818.25" y="371">ArithOperator</text>
</a>
</g>
<path d="M883.5 367a10 10 0 0 0 10 -10v-40a10 10 0 0 1 10 -10"></path>
</g>
<path d="M903.5 307h10"></path>
<g class="non-terminal">
<path d="M913.5 307h0"></path>
<path d="M984.5 307h0"></path>
<rect x="913.5" y="296" width="71" height="22"></rect>
<a xlink:href="#/expression/Source"><text x="949" y="311">Source</text>
</a>
</g>
</g>
<path d="M984.5 307h20"></path>
</g>
</g>
</g>
<path d="M1180.5 307a10 10 0 0 0 10 -10v-256a10 10 0 0 1 10 -10"></path>
<path d="M40 31a10 10 0 0 1 10 10v355a10 10 0 0 0 10 10"></path>
<g>
<path d="M60 406h0"></path>
<path d="M987.5 406h193"></path>
<g>
<path d="M60 406h0"></path>
<path d="M126 406h0"></path>
<text x="93" y="411" class="comment">v740sp02</text>
</g>
<path d="M126 406h10"></path>
<path d="M136 406h10"></path>
<g>
<path d="M146 406h0"></path>
<path d="M987.5 406h0"></path>
<g class="terminal">
<path d="M146 406h0"></path>
<path d="M217 406h0"></path>
<rect x="146" y="395" width="71" height="22" rx="10" ry="10"></rect>
<text x="181.5" y="410">"COND"</text>
</g>
<path d="M217 406h10"></path>
<path d="M227 406h10"></path>
<g class="non-terminal">
<path d="M237 406h0"></path>
<path d="M384.5 406h0"></path>
<rect x="237" y="395" width="147.5" height="22"></rect>
<a xlink:href="#/expression/TypeNameOrInfer"><text x="310.75" y="410">TypeNameOrInfer</text>
</a>
</g>
<path d="M384.5 406h10"></path>
<path d="M394.5 406h10"></path>
<g class="terminal">
<path d="M404.5 406h0"></path>
<path d="M467 406h0"></path>
<rect x="404.5" y="395" width="62.5" height="22" rx="10" ry="10"></rect>
<text x="435.75" y="410">!"( "</text>
</g>
<path d="M467 406h10"></path>
<path d="M477 406h10"></path>
<g class="non-terminal">
<path d="M487 406h0"></path>
<path d="M575 406h0"></path>
<rect x="487" y="395" width="88" height="22"></rect>
<a xlink:href="#/expression/CondBody"><text x="531" y="410">CondBody</text>
</a>
</g>
<path d="M575 406h10"></path>
<g>
<path d="M585 406h0"></path>
<path d="M696 406h0"></path>
<path d="M585 406h20"></path>
<g class="terminal">
<path d="M605 406h0"></path>
<path d="M667.5 406h8.5"></path>
<rect x="605" y="395" width="62.5" height="22" rx="10" ry="10"></rect>
<text x="636.25" y="410">!") "</text>
</g>
<path d="M676 406h20"></path>
<path d="M585 406a10 10 0 0 1 10 10v10a10 10 0 0 0 10 10"></path>
<g class="terminal">
<path d="M605 436h0"></path>
<path d="M676 436h0"></path>
<rect x="605" y="425" width="71" height="22" rx="10" ry="10"></rect>
<text x="640.5" y="440">!" ) "</text>
</g>
<path d="M676 436a10 10 0 0 0 10 -10v-10a10 10 0 0 1 10 -10"></path>
</g>
<g>
<path d="M696 406h0"></path>
<path d="M987.5 406h0"></path>
<path d="M696 406a10 10 0 0 0 10 -10v0a10 10 0 0 1 10 -10"></path>
<g>
<path d="M716 386h251.5"></path>
</g>
<path d="M967.5 386a10 10 0 0 1 10 10v0a10 10 0 0 0 10 10"></path>
<path d="M696 406h20"></path>
<g>
<path d="M716 406h0"></path>
<path d="M967.5 406h0"></path>
<g>
<path d="M716 406h0"></path>
<path d="M886.5 406h0"></path>
<path d="M716 406h20"></path>
<g class="terminal">
<path d="M736 406h0"></path>
<path d="M781.5 406h85"></path>
<rect x="736" y="395" width="45.5" height="22" rx="10" ry="10"></rect>
<text x="758.75" y="410">"&#38;"</text>
</g>
<path d="M866.5 406h20"></path>
<path d="M716 406a10 10 0 0 1 10 10v10a10 10 0 0 0 10 10"></path>
<g class="terminal">
<path d="M736 436h0"></path>
<path d="M790 436h76.5"></path>
<rect x="736" y="425" width="54" height="22" rx="10" ry="10"></rect>
<text x="763" y="440">"&#38;&#38;"</text>
</g>
<path d="M866.5 436a10 10 0 0 0 10 -10v-10a10 10 0 0 1 10 -10"></path>
<path d="M716 406a10 10 0 0 1 10 10v40a10 10 0 0 0 10 10"></path>
<g class="non-terminal">
<path d="M736 466h0"></path>
<path d="M866.5 466h0"></path>
<rect x="736" y="455" width="130.5" height="22"></rect>
<a xlink:href="#/expression/ArithOperator"><text x="801.25" y="470">ArithOperator</text>
</a>
</g>
<path d="M866.5 466a10 10 0 0 0 10 -10v-40a10 10 0 0 1 10 -10"></path>
</g>
<path d="M886.5 406h10"></path>
<g class="non-terminal">
<path d="M896.5 406h0"></path>
<path d="M967.5 406h0"></path>
<rect x="896.5" y="395" width="71" height="22"></rect>
<a xlink:href="#/expression/Source"><text x="932" y="410">Source</text>
</a>
</g>
</g>
<path d="M967.5 406h20"></path>
</g>
</g>
</g>
<path d="M1180.5 406a10 10 0 0 0 10 -10v-355a10 10 0 0 1 10 -10"></path>
<path d="M40 31a10 10 0 0 1 10 10v454a10 10 0 0 0 10 10"></path>
<g>
<path d="M60 505h0"></path>
<path d="M959 505h221.5"></path>
<g>
<path d="M60 505h0"></path>
<path d="M126 505h0"></path>
<text x="93" y="510" class="comment">v740sp02</text>
</g>
<path d="M126 505h10"></path>
<path d="M136 505h10"></path>
<g>
<path d="M146 505h0"></path>
<path d="M959 505h0"></path>
<g class="terminal">
<path d="M146 505h0"></path>
<path d="M225.5 505h0"></path>
<rect x="146" y="494" width="79.5" height="22" rx="10" ry="10"></rect>
<text x="185.75" y="509">"EXACT"</text>
</g>
<path d="M225.5 505h10"></path>
<path d="M235.5 505h10"></path>
<g class="non-terminal">
<path d="M245.5 505h0"></path>
<path d="M393 505h0"></path>
<rect x="245.5" y="494" width="147.5" height="22"></rect>
<a xlink:href="#/expression/TypeNameOrInfer"><text x="319.25" y="509">TypeNameOrInfer</text>
</a>
</g>
<path d="M393 505h10"></path>
<path d="M403 505h10"></path>
<g class="terminal">
<path d="M413 505h0"></path>
<path d="M475.5 505h0"></path>
<rect x="413" y="494" width="62.5" height="22" rx="10" ry="10"></rect>
<text x="444.25" y="509">!"( "</text>
</g>
<path d="M475.5 505h10"></path>
<path d="M485.5 505h10"></path>
<g class="non-terminal">
<path d="M495.5 505h0"></path>
<path d="M566.5 505h0"></path>
<rect x="495.5" y="494" width="71" height="22"></rect>
<a xlink:href="#/expression/Source"><text x="531" y="509">Source</text>
</a>
</g>
<path d="M566.5 505h10"></path>
<path d="M576.5 505h10"></path>
<g class="terminal">
<path d="M586.5 505h0"></path>
<path d="M657.5 505h0"></path>
<rect x="586.5" y="494" width="71" height="22" rx="10" ry="10"></rect>
<text x="622" y="509">!" ) "</text>
</g>
<path d="M657.5 505h10"></path>
<g>
<path d="M667.5 505h0"></path>
<path d="M959 505h0"></path>
<path d="M667.5 505a10 10 0 0 0 10 -10v0a10 10 0 0 1 10 -10"></path>
<g>
<path d="M687.5 485h251.5"></path>
</g>
<path d="M939 485a10 10 0 0 1 10 10v0a10 10 0 0 0 10 10"></path>
<path d="M667.5 505h20"></path>
<g>
<path d="M687.5 505h0"></path>
<path d="M939 505h0"></path>
<g>
<path d="M687.5 505h0"></path>
<path d="M858 505h0"></path>
<path d="M687.5 505h20"></path>
<g class="terminal">
<path d="M707.5 505h0"></path>
<path d="M753 505h85"></path>
<rect x="707.5" y="494" width="45.5" height="22" rx="10" ry="10"></rect>
<text x="730.25" y="509">"&#38;"</text>
</g>
<path d="M838 505h20"></path>
<path d="M687.5 505a10 10 0 0 1 10 10v10a10 10 0 0 0 10 10"></path>
<g class="terminal">
<path d="M707.5 535h0"></path>
<path d="M761.5 535h76.5"></path>
<rect x="707.5" y="524" width="54" height="22" rx="10" ry="10"></rect>
<text x="734.5" y="539">"&#38;&#38;"</text>
</g>
<path d="M838 535a10 10 0 0 0 10 -10v-10a10 10 0 0 1 10 -10"></path>
<path d="M687.5 505a10 10 0 0 1 10 10v40a10 10 0 0 0 10 10"></path>
<g class="non-terminal">
<path d="M707.5 565h0"></path>
<path d="M838 565h0"></path>
<rect x="707.5" y="554" width="130.5" height="22"></rect>
<a xlink:href="#/expression/ArithOperator"><text x="772.75" y="569">ArithOperator</text>
</a>
</g>
<path d="M838 565a10 10 0 0 0 10 -10v-40a10 10 0 0 1 10 -10"></path>
</g>
<path d="M858 505h10"></path>
<g class="non-terminal">
<path d="M868 505h0"></path>
<path d="M939 505h0"></path>
<rect x="868" y="494" width="71" height="22"></rect>
<a xlink:href="#/expression/Source"><text x="903.5" y="509">Source</text>
</a>
</g>
</g>
<path d="M939 505h20"></path>
</g>
</g>
</g>
<path d="M1180.5 505a10 10 0 0 0 10 -10v-454a10 10 0 0 1 10 -10"></path>
<path d="M40 31a10 10 0 0 1 10 10v553a10 10 0 0 0 10 10"></path>
<g>
<path d="M60 604h0"></path>
<path d="M1021.5 604h159"></path>
<g>
<path d="M60 604h0"></path>
<path d="M126 604h0"></path>
<text x="93" y="609" class="comment">v740sp02</text>
</g>
<path d="M126 604h10"></path>
<path d="M136 604h10"></path>
<g>
<path d="M146 604h0"></path>
<path d="M1021.5 604h0"></path>
<g class="terminal">
<path d="M146 604h0"></path>
<path d="M234 604h0"></path>
<rect x="146" y="593" width="88" height="22" rx="10" ry="10"></rect>
<text x="190" y="608">"SWITCH"</text>
</g>
<path d="M234 604h10"></path>
<path d="M244 604h10"></path>
<g class="non-terminal">
<path d="M254 604h0"></path>
<path d="M401.5 604h0"></path>
<rect x="254" y="593" width="147.5" height="22"></rect>
<a xlink:href="#/expression/TypeNameOrInfer"><text x="327.75" y="608">TypeNameOrInfer</text>
</a>
</g>
<path d="M401.5 604h10"></path>
<path d="M411.5 604h10"></path>
<g class="terminal">
<path d="M421.5 604h0"></path>
<path d="M484 604h0"></path>
<rect x="421.5" y="593" width="62.5" height="22" rx="10" ry="10"></rect>
<text x="452.75" y="608">!"( "</text>
</g>
<path d="M484 604h10"></path>
<path d="M494 604h10"></path>
<g class="non-terminal">
<path d="M504 604h0"></path>
<path d="M609 604h0"></path>
<rect x="504" y="593" width="105" height="22"></rect>
<a xlink:href="#/expression/SwitchBody"><text x="556.5" y="608">SwitchBody</text>
</a>
</g>
<path d="M609 604h10"></path>
<g>
<path d="M619 604h0"></path>
<path d="M730 604h0"></path>
<path d="M619 604h20"></path>
<g class="terminal">
<path d="M639 604h0"></path>
<path d="M701.5 604h8.5"></path>
<rect x="639" y="593" width="62.5" height="22" rx="10" ry="10"></rect>
<text x="670.25" y="608">!") "</text>
</g>
<path d="M710 604h20"></path>
<path d="M619 604a10 10 0 0 1 10 10v10a10 10 0 0 0 10 10"></path>
<g class="terminal">
<path d="M639 634h0"></path>
<path d="M710 634h0"></path>
<rect x="639" y="623" width="71" height="22" rx="10" ry="10"></rect>
<text x="674.5" y="638">!" ) "</text>
</g>
<path d="M710 634a10 10 0 0 0 10 -10v-10a10 10 0 0 1 10 -10"></path>
</g>
<g>
<path d="M730 604h0"></path>
<path d="M1021.5 604h0"></path>
<path d="M730 604a10 10 0 0 0 10 -10v0a10 10 0 0 1 10 -10"></path>
<g>
<path d="M750 584h251.5"></path>
</g>
<path d="M1001.5 584a10 10 0 0 1 10 10v0a10 10 0 0 0 10 10"></path>
<path d="M730 604h20"></path>
<g>
<path d="M750 604h0"></path>
<path d="M1001.5 604h0"></path>
<g>
<path d="M750 604h0"></path>
<path d="M920.5 604h0"></path>
<path d="M750 604h20"></path>
<g class="terminal">
<path d="M770 604h0"></path>
<path d="M815.5 604h85"></path>
<rect x="770" y="593" width="45.5" height="22" rx="10" ry="10"></rect>
<text x="792.75" y="608">"&#38;"</text>
</g>
<path d="M900.5 604h20"></path>
<path d="M750 604a10 10 0 0 1 10 10v10a10 10 0 0 0 10 10"></path>
<g class="terminal">
<path d="M770 634h0"></path>
<path d="M824 634h76.5"></path>
<rect x="770" y="623" width="54" height="22" rx="10" ry="10"></rect>
<text x="797" y="638">"&#38;&#38;"</text>
</g>
<path d="M900.5 634a10 10 0 0 0 10 -10v-10a10 10 0 0 1 10 -10"></path>
<path d="M750 604a10 10 0 0 1 10 10v40a10 10 0 0 0 10 10"></path>
<g class="non-terminal">
<path d="M770 664h0"></path>
<path d="M900.5 664h0"></path>
<rect x="770" y="653" width="130.5" height="22"></rect>
<a xlink:href="#/expression/ArithOperator"><text x="835.25" y="668">ArithOperator</text>
</a>
</g>
<path d="M900.5 664a10 10 0 0 0 10 -10v-40a10 10 0 0 1 10 -10"></path>
</g>
<path d="M920.5 604h10"></path>
<g class="non-terminal">
<path d="M930.5 604h0"></path>
<path d="M1001.5 604h0"></path>
<rect x="930.5" y="593" width="71" height="22"></rect>
<a xlink:href="#/expression/Source"><text x="966" y="608">Source</text>
</a>
</g>
</g>
<path d="M1001.5 604h20"></path>
</g>
</g>
</g>
<path d="M1180.5 604a10 10 0 0 0 10 -10v-553a10 10 0 0 1 10 -10"></path>
<path d="M40 31a10 10 0 0 1 10 10v652a10 10 0 0 0 10 10"></path>
<g>
<path d="M60 703h0"></path>
<path d="M1001.5 703h179"></path>
<g>
<path d="M60 703h0"></path>
<path d="M126 703h0"></path>
<text x="93" y="708" class="comment">v740sp08</text>
</g>
<path d="M126 703h10"></path>
<path d="M136 703h10"></path>
<g>
<path d="M146 703h0"></path>
<path d="M1001.5 703h0"></path>
<g class="terminal">
<path d="M146 703h0"></path>
<path d="M234 703h0"></path>
<rect x="146" y="692" width="88" height="22" rx="10" ry="10"></rect>
<text x="190" y="707">"REDUCE"</text>
</g>
<path d="M234 703h10"></path>
<path d="M244 703h10"></path>
<g class="non-terminal">
<path d="M254 703h0"></path>
<path d="M401.5 703h0"></path>
<rect x="254" y="692" width="147.5" height="22"></rect>
<a xlink:href="#/expression/TypeNameOrInfer"><text x="327.75" y="707">TypeNameOrInfer</text>
</a>
</g>
<path d="M401.5 703h10"></path>
<path d="M411.5 703h10"></path>
<g class="terminal">
<path d="M421.5 703h0"></path>
<path d="M484 703h0"></path>
<rect x="421.5" y="692" width="62.5" height="22" rx="10" ry="10"></rect>
<text x="452.75" y="707">!"( "</text>
</g>
<path d="M484 703h10"></path>
<path d="M494 703h10"></path>
<g class="non-terminal">
<path d="M504 703h0"></path>
<path d="M609 703h0"></path>
<rect x="504" y="692" width="105" height="22"></rect>
<a xlink:href="#/expression/ReduceBody"><text x="556.5" y="707">ReduceBody</text>
</a>
</g>
<path d="M609 703h10"></path>
<path d="M619 703h10"></path>
<g class="terminal">
<path d="M629 703h0"></path>
<path d="M700 703h0"></path>
<rect x="629" y="692" width="71" height="22" rx="10" ry="10"></rect>
<text x="664.5" y="707">!" ) "</text>
</g>
<path d="M700 703h10"></path>
<g>
<path d="M710 703h0"></path>
<path d="M1001.5 703h0"></path>
<path d="M710 703a10 10 0 0 0 10 -10v0a10 10 0 0 1 10 -10"></path>
<g>
<path d="M730 683h251.5"></path>
</g>
<path d="M981.5 683a10 10 0 0 1 10 10v0a10 10 0 0 0 10 10"></path>
<path d="M710 703h20"></path>
<g>
<path d="M730 703h0"></path>
<path d="M981.5 703h0"></path>
<g>
<path d="M730 703h0"></path>
<path d="M900.5 703h0"></path>
<path d="M730 703h20"></path>
<g class="terminal">
<path d="M750 703h0"></path>
<path d="M795.5 703h85"></path>
<rect x="750" y="692" width="45.5" height="22" rx="10" ry="10"></rect>
<text x="772.75" y="707">"&#38;"</text>
</g>
<path d="M880.5 703h20"></path>
<path d="M730 703a10 10 0 0 1 10 10v10a10 10 0 0 0 10 10"></path>
<g class="terminal">
<path d="M750 733h0"></path>
<path d="M804 733h76.5"></path>
<rect x="750" y="722" width="54" height="22" rx="10" ry="10"></rect>
<text x="777" y="737">"&#38;&#38;"</text>
</g>
<path d="M880.5 733a10 10 0 0 0 10 -10v-10a10 10 0 0 1 10 -10"></path>
<path d="M730 703a10 10 0 0 1 10 10v40a10 10 0 0 0 10 10"></path>
<g class="non-terminal">
<path d="M750 763h0"></path>
<path d="M880.5 763h0"></path>
<rect x="750" y="752" width="130.5" height="22"></rect>
<a xlink:href="#/expression/ArithOperator"><text x="815.25" y="767">ArithOperator</text>
</a>
</g>
<path d="M880.5 763a10 10 0 0 0 10 -10v-40a10 10 0 0 1 10 -10"></path>
</g>
<path d="M900.5 703h10"></path>
<g class="non-terminal">
<path d="M910.5 703h0"></path>
<path d="M981.5 703h0"></path>
<rect x="910.5" y="692" width="71" height="22"></rect>
<a xlink:href="#/expression/Source"><text x="946" y="707">Source</text>
</a>
</g>
</g>
<path d="M981.5 703h20"></path>
</g>
</g>
</g>
<path d="M1180.5 703a10 10 0 0 0 10 -10v-652a10 10 0 0 1 10 -10"></path>
<path d="M40 31a10 10 0 0 1 10 10v751a10 10 0 0 0 10 10"></path>
<g>
<path d="M60 802h0"></path>
<path d="M1180.5 802h0"></path>
<g>
<path d="M60 802h0"></path>
<path d="M236.5 802h0"></path>
<path d="M60 802a10 10 0 0 0 10 -10v0a10 10 0 0 1 10 -10"></path>
<g>
<path d="M80 782h136.5"></path>
</g>
<path d="M216.5 782a10 10 0 0 1 10 10v0a10 10 0 0 0 10 10"></path>
<path d="M60 802h20"></path>
<g>
<path d="M80 802h0"></path>
<path d="M216.5 802h0"></path>
<path d="M80 802h20"></path>
<g class="terminal">
<path d="M100 802h0"></path>
<path d="M171 802h25.5"></path>
<rect x="100" y="791" width="71" height="22" rx="10" ry="10"></rect>
<text x="135.5" y="806">!" - "</text>
</g>
<path d="M196.5 802h20"></path>
<path d="M80 802a10 10 0 0 1 10 10v10a10 10 0 0 0 10 10"></path>
<g class="terminal">
<path d="M100 832h0"></path>
<path d="M162.5 832h34"></path>
<rect x="100" y="821" width="62.5" height="22" rx="10" ry="10"></rect>
<text x="131.25" y="836">!" +"</text>
</g>
<path d="M196.5 832a10 10 0 0 0 10 -10v-10a10 10 0 0 1 10 -10"></path>
<path d="M80 802a10 10 0 0 1 10 10v40a10 10 0 0 0 10 10"></path>
<g class="terminal">
<path d="M100 862h0"></path>
<path d="M171 862h25.5"></path>
<rect x="100" y="851" width="71" height="22" rx="10" ry="10"></rect>
<text x="135.5" y="866">!" + "</text>
</g>
<path d="M196.5 862a10 10 0 0 0 10 -10v-40a10 10 0 0 1 10 -10"></path>
<path d="M80 802a10 10 0 0 1 10 10v70a10 10 0 0 0 10 10"></path>
<g class="terminal">
<path d="M100 892h0"></path>
<path d="M196.5 892h0"></path>
<rect x="100" y="881" width="96.5" height="22" rx="10" ry="10"></rect>
<text x="148.25" y="896">"BIT-NOT"</text>
</g>
<path d="M196.5 892a10 10 0 0 0 10 -10v-70a10 10 0 0 1 10 -10"></path>
</g>
<path d="M216.5 802h20"></path>
</g>
<g>
<path d="M236.5 802h0"></path>
<path d="M889 802h0"></path>
<path d="M236.5 802h20"></path>
<g class="non-terminal">
<path d="M256.5 802h0"></path>
<path d="M344.5 802h524.5"></path>
<rect x="256.5" y="791" width="88" height="22"></rect>
<a xlink:href="#/expression/Constant"><text x="300.5" y="806">Constant</text>
</a>
</g>
<path d="M869 802h20"></path>
<path d="M236.5 802a10 10 0 0 1 10 10v10a10 10 0 0 0 10 10"></path>
<g class="non-terminal">
<path d="M256.5 832h0"></path>
<path d="M395.5 832h473.5"></path>
<rect x="256.5" y="821" width="139" height="22"></rect>
<a xlink:href="#/expression/StringTemplate"><text x="326" y="836">StringTemplate</text>
</a>
</g>
<path d="M869 832a10 10 0 0 0 10 -10v-10a10 10 0 0 1 10 -10"></path>
<path d="M236.5 802a10 10 0 0 1 10 10v40a10 10 0 0 0 10 10"></path>
<g class="non-terminal">
<path d="M256.5 862h0"></path>
<path d="M370 862h499"></path>
<rect x="256.5" y="851" width="113.5" height="22"></rect>
<a xlink:href="#/expression/TextElement"><text x="313.25" y="866">TextElement</text>
</a>
</g>
<path d="M869 862a10 10 0 0 0 10 -10v-40a10 10 0 0 1 10 -10"></path>
<path d="M236.5 802a10 10 0 0 1 10 10v70a10 10 0 0 0 10 10"></path>
<g>
<path d="M256.5 892h0"></path>
<path d="M691 892h178"></path>
<g>
<path d="M256.5 892h0"></path>
<path d="M479 892h0"></path>
<path d="M256.5 892h20"></path>
<g>
<path d="M276.5 892h0"></path>
<path d="M414 892h45"></path>
<g>
<path d="M276.5 892h0"></path>
<path d="M314.5 892h0"></path>
<text x="295.5" y="897" class="comment">v702</text>
</g>
<path d="M314.5 892h10"></path>
<path d="M324.5 892h10"></path>
<g class="terminal">
<path d="M334.5 892h0"></path>
<path d="M414 892h0"></path>
<rect x="334.5" y="881" width="79.5" height="22" rx="10" ry="10"></rect>
<text x="374.25" y="896">^BOOLC$</text>
</g>
</g>
<path d="M459 892h20"></path>
<path d="M256.5 892a10 10 0 0 1 10 10v10a10 10 0 0 0 10 10"></path>
<g>
<path d="M276.5 922h0"></path>
<path d="M459 922h0"></path>
<g>
<path d="M276.5 922h0"></path>
<path d="M342.5 922h0"></path>
<text x="309.5" y="927" class="comment">v740sp08</text>
</g>
<path d="M342.5 922h10"></path>
<path d="M352.5 922h10"></path>
<g class="terminal">
<path d="M362.5 922h0"></path>
<path d="M459 922h0"></path>
<rect x="362.5" y="911" width="96.5" height="22" rx="10" ry="10"></rect>
<text x="410.75" y="926">^XSDBOOL$</text>
</g>
</g>
<path d="M459 922a10 10 0 0 0 10 -10v-10a10 10 0 0 1 10 -10"></path>
</g>
<path d="M479 892h10"></path>
<g class="terminal">
<path d="M489 892h0"></path>
<path d="M551.5 892h0"></path>
<rect x="489" y="881" width="62.5" height="22" rx="10" ry="10"></rect>
<text x="520.25" y="896">!"( "</text>
</g>
<path d="M551.5 892h10"></path>
<path d="M561.5 892h10"></path>
<g class="non-terminal">
<path d="M571.5 892h0"></path>
<path d="M625.5 892h0"></path>
<rect x="571.5" y="881" width="54" height="22"></rect>
<a xlink:href="#/expression/Cond"><text x="598.5" y="896">Cond</text>
</a>
</g>
<path d="M625.5 892h10"></path>
<path d="M635.5 892h10"></path>
<g class="terminal">
<path d="M645.5 892h0"></path>
<path d="M691 892h0"></path>
<rect x="645.5" y="881" width="45.5" height="22" rx="10" ry="10"></rect>
<text x="668.25" y="896">")"</text>
</g>
</g>
<path d="M869 892a10 10 0 0 0 10 -10v-70a10 10 0 0 1 10 -10"></path>
<path d="M236.5 802a10 10 0 0 1 10 10v139a10 10 0 0 0 10 10"></path>
<g>
<path d="M256.5 961h0"></path>
<path d="M869 961h0"></path>
<g class="non-terminal">
<path d="M256.5 961h0"></path>
<path d="M404 961h0"></path>
<rect x="256.5" y="950" width="147.5" height="22"></rect>
<a xlink:href="#/expression/MethodCallChain"><text x="330.25" y="965">MethodCallChain</text>
</a>
</g>
<path d="M404 961h10"></path>
<g>
<path d="M414 961h0"></path>
<path d="M715.5 961h0"></path>
<path d="M414 961a10 10 0 0 0 10 -10v0a10 10 0 0 1 10 -10"></path>
<g>
<path d="M434 941h261.5"></path>
</g>
<path d="M695.5 941a10 10 0 0 1 10 10v0a10 10 0 0 0 10 10"></path>
<path d="M414 961h20"></path>
<g>
<path d="M434 961h0"></path>
<path d="M695.5 961h0"></path>
<path d="M434 961h20"></path>
<g>
<path d="M454 961h0"></path>
<path d="M675.5 961h0"></path>
<g class="non-terminal">
<path d="M454 961h0"></path>
<path d="M516.5 961h0"></path>
<rect x="454" y="950" width="62.5" height="22"></rect>
<a xlink:href="#/expression/Arrow"><text x="485.25" y="965">Arrow</text>
</a>
</g>
<path d="M516.5 961h10"></path>
<path d="M526.5 961h10"></path>
<g class="non-terminal">
<path d="M536.5 961h0"></path>
<path d="M675.5 961h0"></path>
<rect x="536.5" y="950" width="139" height="22"></rect>
<a xlink:href="#/expression/AttributeChain"><text x="606" y="965">AttributeChain</text>
</a>
</g>
</g>
<path d="M675.5 961h20"></path>
<path d="M434 961a10 10 0 0 1 10 10v10a10 10 0 0 0 10 10"></path>
<g>
<path d="M454 991h0"></path>
<path d="M667 991h8.5"></path>
<g class="terminal">
<path d="M454 991h0"></path>
<path d="M508 991h0"></path>
<rect x="454" y="980" width="54" height="22" rx="10" ry="10"></rect>
<text x="481" y="995">!"-"</text>
</g>
<path d="M508 991h10"></path>
<path d="M518 991h10"></path>
<g class="non-terminal">
<path d="M528 991h0"></path>
<path d="M667 991h0"></path>
<rect x="528" y="980" width="139" height="22"></rect>
<a xlink:href="#/expression/ComponentChain"><text x="597.5" y="995">ComponentChain</text>
</a>
</g>
</g>
<path d="M675.5 991a10 10 0 0 0 10 -10v-10a10 10 0 0 1 10 -10"></path>
</g>
<path d="M695.5 961h20"></path>
</g>
<g>
<path d="M715.5 961h0"></path>
<path d="M869 961h0"></path>
<path d="M715.5 961a10 10 0 0 0 10 -10v0a10 10 0 0 1 10 -10"></path>
<g>
<path d="M735.5 941h113.5"></path>
</g>
<path d="M849 941a10 10 0 0 1 10 10v0a10 10 0 0 0 10 10"></path>
<path d="M715.5 961h20"></path>
<g class="non-terminal">
<path d="M735.5 961h0"></path>
<path d="M849 961h0"></path>
<rect x="735.5" y="950" width="113.5" height="22"></rect>
<a xlink:href="#/expression/Dereference"><text x="792.25" y="965">Dereference</text>
</a>
</g>
<path d="M849 961h20"></path>
</g>
</g>
<path d="M869 961a10 10 0 0 0 10 -10v-139a10 10 0 0 1 10 -10"></path>
<path d="M236.5 802a10 10 0 0 1 10 10v208a10 10 0 0 0 10 10"></path>
<g>
<path d="M256.5 1030h0"></path>
<path d="M525 1030h344"></path>
<g class="non-terminal">
<path d="M256.5 1030h0"></path>
<path d="M361.5 1030h0"></path>
<rect x="256.5" y="1019" width="105" height="22"></rect>
<a xlink:href="#/expression/FieldChain"><text x="309" y="1034">FieldChain</text>
</a>
</g>
<path d="M361.5 1030h10"></path>
<g>
<path d="M371.5 1030h0"></path>
<path d="M525 1030h0"></path>
<path d="M371.5 1030a10 10 0 0 0 10 -10v0a10 10 0 0 1 10 -10"></path>
<g>
<path d="M391.5 1010h113.5"></path>
</g>
<path d="M505 1010a10 10 0 0 1 10 10v0a10 10 0 0 0 10 10"></path>
<path d="M371.5 1030h20"></path>
<g class="non-terminal">
<path d="M391.5 1030h0"></path>
<path d="M505 1030h0"></path>
<rect x="391.5" y="1019" width="113.5" height="22"></rect>
<a xlink:href="#/expression/Dereference"><text x="448.25" y="1034">Dereference</text>
</a>
</g>
<path d="M505 1030h20"></path>
</g>
</g>
<path d="M869 1030a10 10 0 0 0 10 -10v-208a10 10 0 0 1 10 -10"></path>
<path d="M236.5 802a10 10 0 0 1 10 10v238a10 10 0 0 0 10 10"></path>
<g>
<path d="M256.5 1060h0"></path>
<path d="M509.5 1060h359.5"></path>
<g class="terminal">
<path d="M256.5 1060h0"></path>
<path d="M327.5 1060h0"></path>
<rect x="256.5" y="1049" width="71" height="22" rx="10" ry="10"></rect>
<text x="292" y="1064">!" ( "</text>
</g>
<path d="M327.5 1060h10"></path>
<path d="M337.5 1060h10"></path>
<g class="non-terminal">
<path d="M347.5 1060h0"></path>
<path d="M418.5 1060h0"></path>
<rect x="347.5" y="1049" width="71" height="22"></rect>
<a xlink:href="#/expression/Source"><text x="383" y="1064">Source</text>
</a>
</g>
<path d="M418.5 1060h10"></path>
<path d="M428.5 1060h10"></path>
<g class="terminal">
<path d="M438.5 1060h0"></path>
<path d="M509.5 1060h0"></path>
<rect x="438.5" y="1049" width="71" height="22" rx="10" ry="10"></rect>
<text x="474" y="1064">!" ) "</text>
</g>
</g>
<path d="M869 1060a10 10 0 0 0 10 -10v-238a10 10 0 0 1 10 -10"></path>
</g>
<g>
<path d="M889 802h0"></path>
<path d="M1180.5 802h0"></path>
<path d="M889 802a10 10 0 0 0 10 -10v0a10 10 0 0 1 10 -10"></path>
<g>
<path d="M909 782h251.5"></path>
</g>
<path d="M1160.5 782a10 10 0 0 1 10 10v0a10 10 0 0 0 10 10"></path>
<path d="M889 802h20"></path>
<g>
<path d="M909 802h0"></path>
<path d="M1160.5 802h0"></path>
<g>
<path d="M909 802h0"></path>
<path d="M1079.5 802h0"></path>
<path d="M909 802h20"></path>
<g class="terminal">
<path d="M929 802h0"></path>
<path d="M974.5 802h85"></path>
<rect x="929" y="791" width="45.5" height="22" rx="10" ry="10"></rect>
<text x="951.75" y="806">"&#38;"</text>
</g>
<path d="M1059.5 802h20"></path>
<path d="M909 802a10 10 0 0 1 10 10v10a10 10 0 0 0 10 10"></path>
<g class="terminal">
<path d="M929 832h0"></path>
<path d="M983 832h76.5"></path>
<rect x="929" y="821" width="54" height="22" rx="10" ry="10"></rect>
<text x="956" y="836">"&#38;&#38;"</text>
</g>
<path d="M1059.5 832a10 10 0 0 0 10 -10v-10a10 10 0 0 1 10 -10"></path>
<path d="M909 802a10 10 0 0 1 10 10v40a10 10 0 0 0 10 10"></path>
<g class="non-terminal">
<path d="M929 862h0"></path>
<path d="M1059.5 862h0"></path>
<rect x="929" y="851" width="130.5" height="22"></rect>
<a xlink:href="#/expression/ArithOperator"><text x="994.25" y="866">ArithOperator</text>
</a>
</g>
<path d="M1059.5 862a10 10 0 0 0 10 -10v-40a10 10 0 0 1 10 -10"></path>
</g>
<path d="M1079.5 802h10"></path>
<g class="non-terminal">
<path d="M1089.5 802h0"></path>
<path d="M1160.5 802h0"></path>
<rect x="1089.5" y="791" width="71" height="22"></rect>
<a xlink:href="#/expression/Source"><text x="1125" y="806">Source</text>
</a>
</g>
</g>
<path d="M1160.5 802h20"></path>
</g>
</g>
<path d="M1180.5 802a10 10 0 0 0 10 -10v-751a10 10 0 0 1 10 -10"></path>
</g>
<path d="M 1200.5 31 h 20 m 0 -10 v 20"></path>
</g>
</svg>
