<?xml version="1.0" encoding="UTF-8" standalone="no"?>
<!DOCTYPE svg PUBLIC "-//W3C//DTD SVG 1.1//EN"
 "http://www.w3.org/Graphics/SVG/1.1/DTD/svg11.dtd">
<!-- Generated by graphviz version 2.47.3 (20210619.1520)
 -->
<!-- Title: G Pages: 1 -->
<svg width="1680pt" height="501pt"
 viewBox="0.00 0.00 1679.98 500.80" xmlns="http://www.w3.org/2000/svg" xmlns:xlink="http://www.w3.org/1999/xlink">
<g id="graph0" class="graph" transform="scale(1 1) rotate(0) translate(4 496.8)">
<title>G</title>
<polygon fill="white" stroke="transparent" points="-4,4 -4,-496.8 1675.98,-496.8 1675.98,4 -4,4"/>
<text text-anchor="middle" x="110.44" y="-476.2" font-family="Times,serif" font-size="14.00">Where used, expression/SQLHaving</text>
<!-- expression/SQLHaving -->
<g id="node1" class="node">
<title>expression/SQLHaving</title>
<g id="a_node1"><a xlink:href="https://syntax.abaplint.org/#/expression/SQLHaving" xlink:title="expression/SQLHaving">
<polygon fill="none" stroke="black" points="1194.82,-108 1047,-108 1047,-72 1194.82,-72 1194.82,-108"/>
<text text-anchor="middle" x="1120.91" y="-85.8" font-family="Times,serif" font-size="14.00">expression/SQLHaving</text>
</a>
</g>
</g>
<!-- expression/SelectLoop -->
<g id="node2" class="node">
<title>expression/SelectLoop</title>
<g id="a_node2"><a xlink:href="https://syntax.abaplint.org/#/expression/SelectLoop" xlink:title="expression/SelectLoop">
<polygon fill="none" stroke="black" points="1502.43,-396 1359.39,-396 1359.39,-360 1502.43,-360 1502.43,-396"/>
<text text-anchor="middle" x="1430.91" y="-373.8" font-family="Times,serif" font-size="14.00">expression/SelectLoop</text>
</a>
</g>
</g>
<!-- expression/SelectLoop&#45;&gt;expression/SQLHaving -->
<g id="edge1" class="edge">
<title>expression/SelectLoop&#45;&gt;expression/SQLHaving</title>
<path fill="none" stroke="black" d="M1437.04,-359.81C1450.95,-317.38 1479.72,-206.59 1425.91,-144 1411.52,-127.27 1290.05,-110.19 1204.82,-100.1"/>
<polygon fill="black" stroke="black" points="1205.22,-96.62 1194.88,-98.93 1204.4,-103.57 1205.22,-96.62"/>
</g>
<!-- expression/SQLCond -->
<g id="node8" class="node">
<title>expression/SQLCond</title>
<g id="a_node8"><a xlink:href="https://syntax.abaplint.org/#/expression/SQLCond" xlink:title="expression/SQLCond">
<polygon fill="none" stroke="black" points="480.95,-324 344.87,-324 344.87,-288 480.95,-288 480.95,-324"/>
<text text-anchor="middle" x="412.91" y="-301.8" font-family="Times,serif" font-size="14.00">expression/SQLCond</text>
</a>
</g>
</g>
<!-- expression/SelectLoop&#45;&gt;expression/SQLCond -->
<g id="edge8" class="edge">
<title>expression/SelectLoop&#45;&gt;expression/SQLCond</title>
<path fill="none" stroke="black" d="M1359.33,-372.08C1174.59,-359.37 682.86,-325.56 491.06,-312.37"/>
<polygon fill="black" stroke="black" points="491.27,-308.88 481.06,-311.69 490.79,-315.86 491.27,-308.88"/>
</g>
<!-- expression/SQLCase -->
<g id="node9" class="node">
<title>expression/SQLCase</title>
<g id="a_node9"><a xlink:href="https://syntax.abaplint.org/#/expression/SQLCase" xlink:title="expression/SQLCase">
<polygon fill="none" stroke="black" points="1443.82,-36 1310,-36 1310,0 1443.82,0 1443.82,-36"/>
<text text-anchor="middle" x="1376.91" y="-13.8" font-family="Times,serif" font-size="14.00">expression/SQLCase</text>
</a>
</g>
</g>
<!-- expression/SelectLoop&#45;&gt;expression/SQLCase -->
<g id="edge11" class="edge">
<title>expression/SelectLoop&#45;&gt;expression/SQLCase</title>
<path fill="none" stroke="black" d="M1452.47,-359.78C1480.5,-335.28 1525.91,-287.5 1525.91,-235 1525.91,-235 1525.91,-235 1525.91,-161 1525.91,-104.62 1469.31,-63.8 1425.88,-40.77"/>
<polygon fill="black" stroke="black" points="1427.33,-37.58 1416.84,-36.13 1424.14,-43.81 1427.33,-37.58"/>
</g>
<!-- expression/SQLFieldList -->
<g id="node10" class="node">
<title>expression/SQLFieldList</title>
<g id="a_node10"><a xlink:href="https://syntax.abaplint.org/#/expression/SQLFieldList" xlink:title="expression/SQLFieldList">
<polygon fill="none" stroke="black" points="1455.17,-108 1298.65,-108 1298.65,-72 1455.17,-72 1455.17,-108"/>
<text text-anchor="middle" x="1376.91" y="-85.8" font-family="Times,serif" font-size="14.00">expression/SQLFieldList</text>
</a>
</g>
</g>
<!-- expression/SelectLoop&#45;&gt;expression/SQLFieldList -->
<g id="edge13" class="edge">
<title>expression/SelectLoop&#45;&gt;expression/SQLFieldList</title>
<path fill="none" stroke="black" d="M1445.24,-359.57C1452.36,-349.76 1460.22,-336.92 1463.91,-324 1485.9,-247.08 1503.09,-213.75 1463.91,-144 1456.66,-131.1 1444.85,-120.96 1432.24,-113.17"/>
<polygon fill="black" stroke="black" points="1433.85,-110.06 1423.43,-108.15 1430.38,-116.14 1433.85,-110.06"/>
</g>
<!-- expression/SQLFrom -->
<g id="node12" class="node">
<title>expression/SQLFrom</title>
<g id="a_node12"><a xlink:href="https://syntax.abaplint.org/#/expression/SQLFrom" xlink:title="expression/SQLFrom">
<polygon fill="none" stroke="black" points="857.95,-108 721.87,-108 721.87,-72 857.95,-72 857.95,-108"/>
<text text-anchor="middle" x="789.91" y="-85.8" font-family="Times,serif" font-size="14.00">expression/SQLFrom</text>
</a>
</g>
</g>
<!-- expression/SelectLoop&#45;&gt;expression/SQLFrom -->
<g id="edge18" class="edge">
<title>expression/SelectLoop&#45;&gt;expression/SQLFrom</title>
<path fill="none" stroke="black" d="M1432.34,-359.83C1434.07,-326.91 1432.74,-254.75 1392.91,-216 1319.01,-144.1 1014.19,-109.59 868.35,-96.94"/>
<polygon fill="black" stroke="black" points="868.39,-93.43 858.13,-96.07 867.8,-100.4 868.39,-93.43"/>
</g>
<!-- statement/SelectLoop -->
<g id="node3" class="node">
<title>statement/SelectLoop</title>
<g id="a_node3"><a xlink:href="https://syntax.abaplint.org/#/statement/SelectLoop" xlink:title="statement/SelectLoop">
<polygon fill="none" stroke="black" points="1672.04,-455.56 1554.91,-468 1437.78,-455.56 1437.89,-435.44 1671.93,-435.44 1672.04,-455.56"/>
<text text-anchor="middle" x="1554.91" y="-445.8" font-family="Times,serif" font-size="14.00">statement/SelectLoop</text>
</a>
</g>
</g>
<!-- statement/SelectLoop&#45;&gt;expression/SelectLoop -->
<g id="edge2" class="edge">
<title>statement/SelectLoop&#45;&gt;expression/SelectLoop</title>
<path fill="none" stroke="black" d="M1530.71,-435.34C1513.47,-425.61 1489.93,-412.32 1470.05,-401.09"/>
<polygon fill="black" stroke="black" points="1471.63,-397.97 1461.2,-396.1 1468.19,-404.06 1471.63,-397.97"/>
</g>
<!-- statement/WithLoop -->
<g id="node4" class="node">
<title>statement/WithLoop</title>
<g id="a_node4"><a xlink:href="https://syntax.abaplint.org/#/statement/WithLoop" xlink:title="statement/WithLoop">
<polygon fill="none" stroke="black" points="1419.45,-455.56 1307.91,-468 1196.37,-455.56 1196.48,-435.44 1419.35,-435.44 1419.45,-455.56"/>
<text text-anchor="middle" x="1307.91" y="-445.8" font-family="Times,serif" font-size="14.00">statement/WithLoop</text>
</a>
</g>
</g>
<!-- statement/WithLoop&#45;&gt;expression/SelectLoop -->
<g id="edge3" class="edge">
<title>statement/WithLoop&#45;&gt;expression/SelectLoop</title>
<path fill="none" stroke="black" d="M1331.92,-435.34C1349.01,-425.61 1372.36,-412.32 1392.09,-401.09"/>
<polygon fill="black" stroke="black" points="1393.9,-404.09 1400.86,-396.1 1390.44,-398 1393.9,-404.09"/>
</g>
<!-- statement/With -->
<g id="node5" class="node">
<title>statement/With</title>
<g id="a_node5"><a xlink:href="https://syntax.abaplint.org/#/statement/With" xlink:title="statement/With">
<polygon fill="none" stroke="black" points="875.56,-455.56 788.91,-468 702.27,-455.56 702.35,-435.44 875.47,-435.44 875.56,-455.56"/>
<text text-anchor="middle" x="788.91" y="-445.8" font-family="Times,serif" font-size="14.00">statement/With</text>
</a>
</g>
</g>
<!-- statement/With&#45;&gt;expression/SelectLoop -->
<g id="edge4" class="edge">
<title>statement/With&#45;&gt;expression/SelectLoop</title>
<path fill="none" stroke="black" d="M875.49,-439.56C999.83,-426 1227.35,-401.19 1349.03,-387.93"/>
<polygon fill="black" stroke="black" points="1349.47,-391.4 1359.03,-386.84 1348.71,-384.44 1349.47,-391.4"/>
</g>
<!-- expression/Select -->
<g id="node6" class="node">
<title>expression/Select</title>
<g id="a_node6"><a xlink:href="https://syntax.abaplint.org/#/expression/Select" xlink:title="expression/Select">
<polygon fill="none" stroke="black" points="846.88,-180 732.94,-180 732.94,-144 846.88,-144 846.88,-180"/>
<text text-anchor="middle" x="789.91" y="-157.8" font-family="Times,serif" font-size="14.00">expression/Select</text>
</a>
</g>
</g>
<!-- statement/With&#45;&gt;expression/Select -->
<g id="edge23" class="edge">
<title>statement/With&#45;&gt;expression/Select</title>
<path fill="none" stroke="black" d="M768.65,-435.25C717.27,-398.69 589.84,-296.39 645.91,-216 663.43,-190.88 694.25,-177.64 722.89,-170.67"/>
<polygon fill="black" stroke="black" points="723.9,-174.03 732.91,-168.45 722.39,-167.19 723.9,-174.03"/>
</g>
<!-- expression/Select&#45;&gt;expression/SQLHaving -->
<g id="edge5" class="edge">
<title>expression/Select&#45;&gt;expression/SQLHaving</title>
<path fill="none" stroke="black" d="M847.19,-148.89C899.49,-137.83 977.46,-121.34 1036.83,-108.78"/>
<polygon fill="black" stroke="black" points="1037.87,-112.14 1046.93,-106.64 1036.42,-105.29 1037.87,-112.14"/>
</g>
<!-- expression/Select&#45;&gt;expression/SQLCond -->
<g id="edge9" class="edge">
<title>expression/Select&#45;&gt;expression/SQLCond</title>
<path fill="none" stroke="black" d="M732.72,-163.78C642.83,-166.23 474.34,-176.17 431.91,-216 415.31,-231.58 411.38,-257.82 411.11,-277.78"/>
<polygon fill="black" stroke="black" points="407.61,-277.9 411.27,-287.84 414.61,-277.79 407.61,-277.9"/>
</g>
<!-- expression/Select&#45;&gt;expression/SQLFieldList -->
<g id="edge14" class="edge">
<title>expression/Select&#45;&gt;expression/SQLFieldList</title>
<path fill="none" stroke="black" d="M847,-154.19C949.7,-141.95 1166.27,-116.12 1288.36,-101.56"/>
<polygon fill="black" stroke="black" points="1288.92,-105.02 1298.43,-100.36 1288.09,-98.07 1288.92,-105.02"/>
</g>
<!-- expression/Select&#45;&gt;expression/SQLFrom -->
<g id="edge19" class="edge">
<title>expression/Select&#45;&gt;expression/SQLFrom</title>
<path fill="none" stroke="black" d="M789.91,-143.7C789.91,-135.98 789.91,-126.71 789.91,-118.11"/>
<polygon fill="black" stroke="black" points="793.41,-118.1 789.91,-108.1 786.41,-118.1 793.41,-118.1"/>
</g>
<!-- expression/SQLCompare -->
<g id="node7" class="node">
<title>expression/SQLCompare</title>
<g id="a_node7"><a xlink:href="https://syntax.abaplint.org/#/expression/SQLCompare" xlink:title="expression/SQLCompare">
<polygon fill="none" stroke="black" points="598.43,-252 441.39,-252 441.39,-216 598.43,-216 598.43,-252"/>
<text text-anchor="middle" x="519.91" y="-229.8" font-family="Times,serif" font-size="14.00">expression/SQLCompare</text>
</a>
</g>
</g>
<!-- expression/SQLCompare&#45;&gt;expression/Select -->
<g id="edge6" class="edge">
<title>expression/SQLCompare&#45;&gt;expression/Select</title>
<path fill="none" stroke="black" d="M585.61,-215.97C627.23,-205.18 680.91,-191.26 722.79,-180.4"/>
<polygon fill="black" stroke="black" points="723.83,-183.75 732.63,-177.85 722.07,-176.97 723.83,-183.75"/>
</g>
<!-- expression/SQLCond&#45;&gt;expression/SQLCompare -->
<g id="edge7" class="edge">
<title>expression/SQLCond&#45;&gt;expression/SQLCompare</title>
<path fill="none" stroke="black" d="M439.09,-287.88C452.95,-278.81 470.15,-267.55 485.12,-257.76"/>
<polygon fill="black" stroke="black" points="487.18,-260.59 493.63,-252.19 483.35,-254.74 487.18,-260.59"/>
</g>
<!-- expression/SQLCond&#45;&gt;expression/SQLCond -->
<g id="edge15" class="edge">
<title>expression/SQLCond&#45;&gt;expression/SQLCond</title>
<path fill="none" stroke="black" d="M481.25,-318.37C491.91,-316.52 499.18,-312.4 499.18,-306 499.18,-301.8 496.05,-298.58 490.89,-296.34"/>
<polygon fill="black" stroke="black" points="491.83,-292.97 481.25,-293.63 489.93,-299.71 491.83,-292.97"/>
</g>
<!-- expression/SQLCase&#45;&gt;expression/SQLCond -->
<g id="edge10" class="edge">
<title>expression/SQLCase&#45;&gt;expression/SQLCond</title>
<path fill="none" stroke="black" d="M1310.16,-21.24C1164.91,-26.63 824.25,-42.11 712.91,-72 569.3,-110.56 490.27,-90.25 410.91,-216 399.36,-234.31 401.05,-259.22 404.94,-278.04"/>
<polygon fill="black" stroke="black" points="401.54,-278.86 407.27,-287.78 408.35,-277.24 401.54,-278.86"/>
</g>
<!-- expression/SQLFieldList&#45;&gt;expression/SQLCase -->
<g id="edge12" class="edge">
<title>expression/SQLFieldList&#45;&gt;expression/SQLCase</title>
<path fill="none" stroke="black" d="M1376.91,-71.7C1376.91,-63.98 1376.91,-54.71 1376.91,-46.11"/>
<polygon fill="black" stroke="black" points="1380.41,-46.1 1376.91,-36.1 1373.41,-46.1 1380.41,-46.1"/>
</g>
<!-- expression/SQLJoin -->
<g id="node11" class="node">
<title>expression/SQLJoin</title>
<g id="a_node11"><a xlink:href="https://syntax.abaplint.org/#/expression/SQLJoin" xlink:title="expression/SQLJoin">
<polygon fill="none" stroke="black" points="649.45,-36 520.37,-36 520.37,0 649.45,0 649.45,-36"/>
<text text-anchor="middle" x="584.91" y="-13.8" font-family="Times,serif" font-size="14.00">expression/SQLJoin</text>
</a>
</g>
</g>
<!-- expression/SQLJoin&#45;&gt;expression/SQLCond -->
<g id="edge16" class="edge">
<title>expression/SQLJoin&#45;&gt;expression/SQLCond</title>
<path fill="none" stroke="black" d="M520.17,-25.47C461.23,-32.85 380.5,-47.24 360.91,-72 311.28,-134.74 330.65,-177.94 360.91,-252 365.4,-262.98 373.38,-272.92 381.76,-281.14"/>
<polygon fill="black" stroke="black" points="379.42,-283.74 389.16,-287.91 384.15,-278.58 379.42,-283.74"/>
</g>
<!-- expression/SQLFrom&#45;&gt;expression/SQLJoin -->
<g id="edge17" class="edge">
<title>expression/SQLFrom&#45;&gt;expression/SQLJoin</title>
<path fill="none" stroke="black" d="M740.02,-71.97C711.26,-62.14 674.9,-49.73 644.62,-39.39"/>
<polygon fill="black" stroke="black" points="645.62,-36.03 635.02,-36.11 643.35,-42.65 645.62,-36.03"/>
</g>
<!-- statement/DeleteDatabase -->
<g id="node13" class="node">
<title>statement/DeleteDatabase</title>
<g id="a_node13"><a xlink:href="https://syntax.abaplint.org/#/statement/DeleteDatabase" xlink:title="statement/DeleteDatabase">
<polygon fill="none" stroke="black" points="574.59,-383.56 436.91,-396 299.23,-383.56 299.36,-363.44 574.46,-363.44 574.59,-383.56"/>
<text text-anchor="middle" x="436.91" y="-373.8" font-family="Times,serif" font-size="14.00">statement/DeleteDatabase</text>
</a>
</g>
</g>
<!-- statement/DeleteDatabase&#45;&gt;expression/SQLCond -->
<g id="edge20" class="edge">
<title>statement/DeleteDatabase&#45;&gt;expression/SQLCond</title>
<path fill="none" stroke="black" d="M432.17,-363.17C429.28,-354.74 425.49,-343.69 422.04,-333.63"/>
<polygon fill="black" stroke="black" points="425.3,-332.34 418.75,-324.02 418.68,-334.61 425.3,-332.34"/>
</g>
<!-- statement/UpdateDatabase -->
<g id="node14" class="node">
<title>statement/UpdateDatabase</title>
<g id="a_node14"><a xlink:href="https://syntax.abaplint.org/#/statement/UpdateDatabase" xlink:title="statement/UpdateDatabase">
<polygon fill="none" stroke="black" points="281.73,-383.56 140.91,-396 0.09,-383.56 0.22,-363.44 281.6,-363.44 281.73,-383.56"/>
<text text-anchor="middle" x="140.91" y="-373.8" font-family="Times,serif" font-size="14.00">statement/UpdateDatabase</text>
</a>
</g>
</g>
<!-- statement/UpdateDatabase&#45;&gt;expression/SQLCond -->
<g id="edge21" class="edge">
<title>statement/UpdateDatabase&#45;&gt;expression/SQLCond</title>
<path fill="none" stroke="black" d="M193.68,-363.42C234.41,-352.94 291.33,-338.29 336.96,-326.55"/>
<polygon fill="black" stroke="black" points="338,-329.89 346.81,-324.01 336.25,-323.11 338,-329.89"/>
</g>
<!-- statement/Select -->
<g id="node15" class="node">
<title>statement/Select</title>
<g id="a_node15"><a xlink:href="https://syntax.abaplint.org/#/statement/Select" xlink:title="statement/Select">
<polygon fill="none" stroke="black" points="838.65,-239.56 746.91,-252 655.17,-239.56 655.26,-219.44 838.56,-219.44 838.65,-239.56"/>
<text text-anchor="middle" x="746.91" y="-229.8" font-family="Times,serif" font-size="14.00">statement/Select</text>
</a>
</g>
</g>
<!-- statement/Select&#45;&gt;expression/Select -->
<g id="edge22" class="edge">
<title>statement/Select&#45;&gt;expression/Select</title>
<path fill="none" stroke="black" d="M755.41,-219.17C760.74,-210.48 767.8,-199 774.13,-188.68"/>
<polygon fill="black" stroke="black" points="777.2,-190.37 779.46,-180.02 771.24,-186.71 777.2,-190.37"/>
</g>
<!-- statement/InsertDatabase -->
<g id="node16" class="node">
<title>statement/InsertDatabase</title>
<g id="a_node16"><a xlink:href="https://syntax.abaplint.org/#/statement/InsertDatabase" xlink:title="statement/InsertDatabase">
<polygon fill="none" stroke="black" points="1123.64,-239.56 989.91,-252 856.18,-239.56 856.3,-219.44 1123.52,-219.44 1123.64,-239.56"/>
<text text-anchor="middle" x="989.91" y="-229.8" font-family="Times,serif" font-size="14.00">statement/InsertDatabase</text>
</a>
</g>
</g>
<!-- statement/InsertDatabase&#45;&gt;expression/Select -->
<g id="edge24" class="edge">
<title>statement/InsertDatabase&#45;&gt;expression/Select</title>
<path fill="none" stroke="black" d="M950.87,-219.34C921.7,-209.13 881.32,-194.99 848.31,-183.44"/>
<polygon fill="black" stroke="black" points="849.36,-180.1 838.77,-180.1 847.05,-186.71 849.36,-180.1"/>
</g>
<!-- statement/OpenCursor -->
<g id="node17" class="node">
<title>statement/OpenCursor</title>
<g id="a_node17"><a xlink:href="https://syntax.abaplint.org/#/statement/OpenCursor" xlink:title="statement/OpenCursor">
<polygon fill="none" stroke="black" points="1383.99,-239.56 1262.91,-252 1141.83,-239.56 1141.94,-219.44 1383.88,-219.44 1383.99,-239.56"/>
<text text-anchor="middle" x="1262.91" y="-229.8" font-family="Times,serif" font-size="14.00">statement/OpenCursor</text>
</a>
</g>
</g>
<!-- statement/OpenCursor&#45;&gt;expression/Select -->
<g id="edge25" class="edge">
<title>statement/OpenCursor&#45;&gt;expression/Select</title>
<path fill="none" stroke="black" d="M1171.15,-219.42C1079.08,-205.79 939.46,-185.13 857.19,-172.96"/>
<polygon fill="black" stroke="black" points="857.61,-169.48 847.21,-171.48 856.59,-176.41 857.61,-169.48"/>
</g>
</g>
</svg>
