<svg xmlns="http://www.w3.org/2000/svg" xmlns:xlink="http://www.w3.org/1999/xlink" class="railroad-diagram" width="299" height="71" viewBox="0 0 299 71">
<defs>
<style type="text/css"><![CDATA[
path {
stroke-width: 3;
stroke: black;
fill: rgba(0,0,0,0);
}
text {
font: bold 14px monospace;
text-anchor: middle;
}
text.diagram-text {
font-size: 12px;
}
a {
fill: blue;
}
text.diagram-arrow {
font-size: 16px;
}
text.label {
text-anchor: start;
}
text.comment {
font: italic 12px monospace;
}
rect {
stroke-width: 3;
stroke: black;
fill: #BCBCBC;
}
path.diagram-text {
stroke-width: 3;
stroke: black;
fill: #BCBCBC;
cursor: help;
}
]]></style>
</defs>
<g transform="translate(.5 .5)">
<g>
<path d="M20 21v20m0 -10h20"></path>
</g>
<path d="M40 31h10"></path>
<g>
<path d="M50 31h0"></path>
<path d="M249 31h0"></path>
<g class="terminal">
<path d="M50 31h0"></path>
<path d="M138 31h0"></path>
<rect x="50" y="20" width="88" height="22" rx="10" ry="10"></rect>
<text x="94" y="35">"TABLES"</text>
</g>
<path d="M138 31h10"></path>
<path d="M148 31h10"></path>
<g>
<path d="M158 31h0"></path>
<path d="M249 31h0"></path>
<path d="M158 31h10"></path>
<g class="non-terminal">
<path d="M168 31h0"></path>
<path d="M239 31h0"></path>
<rect x="168" y="20" width="71" height="22"></rect>
<a xlink:href="#/expression/Source"><text x="203.5" y="35">Source</text>
</a>
</g>
<path d="M239 31h10"></path>
<path d="M168 31a10 10 0 0 0 -10 10v0a10 10 0 0 0 10 10"></path>
<g>
<path d="M168 51h71"></path>
</g>
<path d="M239 51a10 10 0 0 0 10 -10v0a10 10 0 0 0 -10 -10"></path>
</g>
</g>
<path d="M249 31h10"></path>
<path d="M 259 31 h 20 m 0 -10 v 20"></path>
</g>
</svg>
