<?xml version="1.0" encoding="UTF-8" standalone="no"?>
<!DOCTYPE svg PUBLIC "-//W3C//DTD SVG 1.1//EN"
 "http://www.w3.org/Graphics/SVG/1.1/DTD/svg11.dtd">
<!-- Generated by graphviz version 2.47.3 (20210619.1520)
 -->
<!-- Title: G Pages: 1 -->
<svg width="675pt" height="141pt"
 viewBox="0.00 0.00 674.64 140.80" xmlns="http://www.w3.org/2000/svg" xmlns:xlink="http://www.w3.org/1999/xlink">
<g id="graph0" class="graph" transform="scale(1 1) rotate(0) translate(4 136.8)">
<title>G</title>
<polygon fill="white" stroke="transparent" points="-4,4 -4,-136.8 670.64,-136.8 670.64,4 -4,4"/>
<text text-anchor="middle" x="108.49" y="-116.2" font-family="Times,serif" font-size="14.00">Where used, expression/SelectLoop</text>
<!-- expression/SelectLoop -->
<g id="node1" class="node">
<title>expression/SelectLoop</title>
<g id="a_node1"><a xlink:href="https://syntax.abaplint.org/#/expression/SelectLoop" xlink:title="expression/SelectLoop">
<polygon fill="none" stroke="black" points="435.59,-36 292.54,-36 292.54,0 435.59,0 435.59,-36"/>
<text text-anchor="middle" x="364.07" y="-13.8" font-family="Times,serif" font-size="14.00">expression/SelectLoop</text>
</a>
</g>
</g>
<!-- statement/SelectLoop -->
<g id="node2" class="node">
<title>statement/SelectLoop</title>
<g id="a_node2"><a xlink:href="https://syntax.abaplint.org/#/statement/SelectLoop" xlink:title="statement/SelectLoop">
<polygon fill="none" stroke="black" points="234.2,-95.56 117.07,-108 -0.07,-95.56 0.04,-75.44 234.09,-75.44 234.2,-95.56"/>
<text text-anchor="middle" x="117.07" y="-85.8" font-family="Times,serif" font-size="14.00">statement/SelectLoop</text>
</a>
</g>
</g>
<!-- statement/SelectLoop&#45;&gt;expression/SelectLoop -->
<g id="edge1" class="edge">
<title>statement/SelectLoop&#45;&gt;expression/SelectLoop</title>
<path fill="none" stroke="black" d="M164.98,-75.42C201.74,-65 253.01,-50.47 294.31,-38.77"/>
<polygon fill="black" stroke="black" points="295.37,-42.11 304.04,-36.01 293.47,-35.37 295.37,-42.11"/>
</g>
<!-- statement/WithLoop -->
<g id="node3" class="node">
<title>statement/WithLoop</title>
<g id="a_node3"><a xlink:href="https://syntax.abaplint.org/#/statement/WithLoop" xlink:title="statement/WithLoop">
<polygon fill="none" stroke="black" points="475.6,-95.56 364.07,-108 252.53,-95.56 252.63,-75.44 475.5,-75.44 475.6,-95.56"/>
<text text-anchor="middle" x="364.07" y="-85.8" font-family="Times,serif" font-size="14.00">statement/WithLoop</text>
</a>
</g>
</g>
<!-- statement/WithLoop&#45;&gt;expression/SelectLoop -->
<g id="edge2" class="edge">
<title>statement/WithLoop&#45;&gt;expression/SelectLoop</title>
<path fill="none" stroke="black" d="M364.07,-75.17C364.07,-66.92 364.07,-56.15 364.07,-46.26"/>
<polygon fill="black" stroke="black" points="367.57,-46.02 364.07,-36.02 360.57,-46.02 367.57,-46.02"/>
</g>
<!-- statement/With -->
<g id="node4" class="node">
<title>statement/With</title>
<g id="a_node4"><a xlink:href="https://syntax.abaplint.org/#/statement/With" xlink:title="statement/With">
<polygon fill="none" stroke="black" points="666.71,-95.56 580.07,-108 493.42,-95.56 493.5,-75.44 666.63,-75.44 666.71,-95.56"/>
<text text-anchor="middle" x="580.07" y="-85.8" font-family="Times,serif" font-size="14.00">statement/With</text>
</a>
</g>
</g>
<!-- statement/With&#45;&gt;expression/SelectLoop -->
<g id="edge3" class="edge">
<title>statement/With&#45;&gt;expression/SelectLoop</title>
<path fill="none" stroke="black" d="M538.16,-75.42C506.43,-65.14 462.32,-50.84 426.44,-39.21"/>
<polygon fill="black" stroke="black" points="427.15,-35.76 416.56,-36.01 424.99,-42.42 427.15,-35.76"/>
</g>
</g>
</svg>
