<svg xmlns="http://www.w3.org/2000/svg" xmlns:xlink="http://www.w3.org/1999/xlink" class="railroad-diagram" width="404" height="62" viewBox="0 0 404 62">
<defs>
<style type="text/css"><![CDATA[
path {
stroke-width: 3;
stroke: black;
fill: rgba(0,0,0,0);
}
text {
font: bold 14px monospace;
text-anchor: middle;
}
text.diagram-text {
font-size: 12px;
}
a {
fill: blue;
}
text.diagram-arrow {
font-size: 16px;
}
text.label {
text-anchor: start;
}
text.comment {
font: italic 12px monospace;
}
rect {
stroke-width: 3;
stroke: black;
fill: #BCBCBC;
}
path.diagram-text {
stroke-width: 3;
stroke: black;
fill: #BCBCBC;
cursor: help;
}
]]></style>
</defs>
<g transform="translate(.5 .5)">
<g>
<path d="M20 21v20m0 -10h20"></path>
</g>
<path d="M40 31h10"></path>
<g>
<path d="M50 31h0"></path>
<path d="M354 31h0"></path>
<g class="terminal">
<path d="M50 31h0"></path>
<path d="M121 31h0"></path>
<rect x="50" y="20" width="71" height="22" rx="10" ry="10"></rect>
<text x="85.5" y="35">"TEXT"</text>
</g>
<path d="M121 31h10"></path>
<path d="M131 31h10"></path>
<g class="terminal">
<path d="M141 31h0"></path>
<path d="M195 31h0"></path>
<rect x="141" y="20" width="54" height="22" rx="10" ry="10"></rect>
<text x="168" y="35">!"-"</text>
</g>
<path d="M195 31h10"></path>
<path d="M205 31h10"></path>
<g class="non-terminal">
<path d="M215 31h0"></path>
<path d="M354 31h0"></path>
<rect x="215" y="20" width="139" height="22"></rect>
<a xlink:href="#/expression/TextElementKey"><text x="284.5" y="35">TextElementKey</text>
</a>
</g>
</g>
<path d="M354 31h10"></path>
<path d="M 364 31 h 20 m 0 -10 v 20"></path>
</g>
</svg>
