<svg xmlns="http://www.w3.org/2000/svg" xmlns:xlink="http://www.w3.org/1999/xlink" class="railroad-diagram" width="381.5" height="92" viewBox="0 0 381.5 92">
<defs>
<style type="text/css"><![CDATA[
path {
stroke-width: 3;
stroke: black;
fill: rgba(0,0,0,0);
}
text {
font: bold 14px monospace;
text-anchor: middle;
}
text.diagram-text {
font-size: 12px;
}
a {
fill: blue;
}
text.diagram-arrow {
font-size: 16px;
}
text.label {
text-anchor: start;
}
text.comment {
font: italic 12px monospace;
}
rect {
stroke-width: 3;
stroke: black;
fill: #BCBCBC;
}
path.diagram-text {
stroke-width: 3;
stroke: black;
fill: #BCBCBC;
cursor: help;
}
]]></style>
</defs>
<g transform="translate(.5 .5)">
<g>
<path d="M20 21v20m0 -10h20"></path>
</g>
<g>
<path d="M40 31h0"></path>
<path d="M341.5 31h0"></path>
<path d="M40 31h20"></path>
<g>
<path d="M60 31h0"></path>
<path d="M279 31h42.5"></path>
<g class="non-terminal">
<path d="M60 31h0"></path>
<path d="M122.5 31h0"></path>
<rect x="60" y="20" width="62.5" height="22"></rect>
<a xlink:href="#/expression/Field"><text x="91.25" y="35">Field</text>
</a>
</g>
<path d="M122.5 31h10"></path>
<path d="M132.5 31h10"></path>
<g class="terminal">
<path d="M142.5 31h0"></path>
<path d="M188 31h0"></path>
<rect x="142.5" y="20" width="45.5" height="22" rx="10" ry="10"></rect>
<text x="165.25" y="35">"="</text>
</g>
<path d="M188 31h10"></path>
<path d="M198 31h10"></path>
<g class="non-terminal">
<path d="M208 31h0"></path>
<path d="M279 31h0"></path>
<rect x="208" y="20" width="71" height="22"></rect>
<a xlink:href="#/expression/Source"><text x="243.5" y="35">Source</text>
</a>
</g>
</g>
<path d="M321.5 31h20"></path>
<path d="M40 31a10 10 0 0 1 10 10v10a10 10 0 0 0 10 10"></path>
<g>
<path d="M60 61h0"></path>
<path d="M321.5 61h0"></path>
<g class="non-terminal">
<path d="M60 61h0"></path>
<path d="M122.5 61h0"></path>
<rect x="60" y="50" width="62.5" height="22"></rect>
<a xlink:href="#/expression/Field"><text x="91.25" y="65">Field</text>
</a>
</g>
<path d="M122.5 61h10"></path>
<path d="M132.5 61h10"></path>
<g class="terminal">
<path d="M142.5 61h0"></path>
<path d="M213.5 61h0"></path>
<rect x="142.5" y="50" width="71" height="22" rx="10" ry="10"></rect>
<text x="178" y="65">"TYPE"</text>
</g>
<path d="M213.5 61h10"></path>
<path d="M223.5 61h10"></path>
<g class="non-terminal">
<path d="M233.5 61h0"></path>
<path d="M321.5 61h0"></path>
<rect x="233.5" y="50" width="88" height="22"></rect>
<a xlink:href="#/expression/TypeName"><text x="277.5" y="65">TypeName</text>
</a>
</g>
</g>
<path d="M321.5 61a10 10 0 0 0 10 -10v-10a10 10 0 0 1 10 -10"></path>
</g>
<path d="M 341.5 31 h 20 m 0 -10 v 20"></path>
</g>
</svg>
