<?xml version="1.0" encoding="UTF-8" standalone="no"?>
<!DOCTYPE svg PUBLIC "-//W3C//DTD SVG 1.1//EN"
 "http://www.w3.org/Graphics/SVG/1.1/DTD/svg11.dtd">
<!-- Generated by graphviz version 2.47.3 (20210619.1520)
 -->
<!-- Title: G Pages: 1 -->
<svg width="231pt" height="141pt"
 viewBox="0.00 0.00 231.18 140.80" xmlns="http://www.w3.org/2000/svg" xmlns:xlink="http://www.w3.org/1999/xlink">
<g id="graph0" class="graph" transform="scale(1 1) rotate(0) translate(4 136.8)">
<title>G</title>
<polygon fill="white" stroke="transparent" points="-4,4 -4,-136.8 227.18,-136.8 227.18,4 -4,4"/>
<text text-anchor="middle" x="111.59" y="-116.2" font-family="Times,serif" font-size="14.00">Where used, expression/MacroName</text>
<!-- expression/MacroName -->
<g id="node1" class="node">
<title>expression/MacroName</title>
<g id="a_node1"><a xlink:href="https://syntax.abaplint.org/#/expression/MacroName" xlink:title="expression/MacroName">
<polygon fill="none" stroke="black" points="186.31,-36 36.87,-36 36.87,0 186.31,0 186.31,-36"/>
<text text-anchor="middle" x="111.59" y="-13.8" font-family="Times,serif" font-size="14.00">expression/MacroName</text>
</a>
</g>
</g>
<!-- statement/Define -->
<g id="node2" class="node">
<title>statement/Define</title>
<g id="a_node2"><a xlink:href="https://syntax.abaplint.org/#/statement/Define" xlink:title="statement/Define">
<polygon fill="none" stroke="black" points="206.95,-95.56 111.59,-108 16.24,-95.56 16.33,-75.44 206.86,-75.44 206.95,-95.56"/>
<text text-anchor="middle" x="111.59" y="-85.8" font-family="Times,serif" font-size="14.00">statement/Define</text>
</a>
</g>
</g>
<!-- statement/Define&#45;&gt;expression/MacroName -->
<g id="edge1" class="edge">
<title>statement/Define&#45;&gt;expression/MacroName</title>
<path fill="none" stroke="black" d="M111.59,-75.17C111.59,-66.92 111.59,-56.15 111.59,-46.26"/>
<polygon fill="black" stroke="black" points="115.09,-46.02 111.59,-36.02 108.09,-46.02 115.09,-46.02"/>
</g>
</g>
</svg>
