<?xml version="1.0" encoding="UTF-8" standalone="no"?>
<!DOCTYPE svg PUBLIC "-//W3C//DTD SVG 1.1//EN"
 "http://www.w3.org/Graphics/SVG/1.1/DTD/svg11.dtd">
<!-- Generated by graphviz version 2.47.3 (20210619.1520)
 -->
<!-- Title: G Pages: 1 -->
<svg width="424pt" height="141pt"
 viewBox="0.00 0.00 424.00 140.80" xmlns="http://www.w3.org/2000/svg" xmlns:xlink="http://www.w3.org/1999/xlink">
<g id="graph0" class="graph" transform="scale(1 1) rotate(0) translate(4 136.8)">
<title>G</title>
<polygon fill="white" stroke="transparent" points="-4,4 -4,-136.8 420,-136.8 420,4 -4,4"/>
<text text-anchor="middle" x="112.38" y="-116.2" font-family="Times,serif" font-size="14.00">Where used, expression/ReportName</text>
<!-- expression/ReportName -->
<g id="node1" class="node">
<title>expression/ReportName</title>
<g id="a_node1"><a xlink:href="https://syntax.abaplint.org/#/expression/ReportName" xlink:title="expression/ReportName">
<polygon fill="none" stroke="black" points="278.98,-36 127.4,-36 127.4,0 278.98,0 278.98,-36"/>
<text text-anchor="middle" x="203.19" y="-13.8" font-family="Times,serif" font-size="14.00">expression/ReportName</text>
</a>
</g>
</g>
<!-- statement/Report -->
<g id="node2" class="node">
<title>statement/Report</title>
<g id="a_node2"><a xlink:href="https://syntax.abaplint.org/#/statement/Report" xlink:title="statement/Report">
<polygon fill="none" stroke="black" points="190.57,-95.56 95.19,-108 -0.19,-95.56 -0.1,-75.44 190.48,-75.44 190.57,-95.56"/>
<text text-anchor="middle" x="95.19" y="-85.8" font-family="Times,serif" font-size="14.00">statement/Report</text>
</a>
</g>
</g>
<!-- statement/Report&#45;&gt;expression/ReportName -->
<g id="edge1" class="edge">
<title>statement/Report&#45;&gt;expression/ReportName</title>
<path fill="none" stroke="black" d="M116.27,-75.34C131.01,-65.78 151.05,-52.8 168.16,-41.7"/>
<polygon fill="black" stroke="black" points="170.32,-44.48 176.81,-36.1 166.51,-38.6 170.32,-44.48"/>
</g>
<!-- statement/Program -->
<g id="node3" class="node">
<title>statement/Program</title>
<g id="a_node3"><a xlink:href="https://syntax.abaplint.org/#/statement/Program" xlink:title="statement/Program">
<polygon fill="none" stroke="black" points="415.8,-95.56 312.19,-108 208.58,-95.56 208.67,-75.44 415.71,-75.44 415.8,-95.56"/>
<text text-anchor="middle" x="312.19" y="-85.8" font-family="Times,serif" font-size="14.00">statement/Program</text>
</a>
</g>
</g>
<!-- statement/Program&#45;&gt;expression/ReportName -->
<g id="edge2" class="edge">
<title>statement/Program&#45;&gt;expression/ReportName</title>
<path fill="none" stroke="black" d="M290.91,-75.34C276.04,-65.78 255.82,-52.8 238.54,-41.7"/>
<polygon fill="black" stroke="black" points="240.12,-38.56 229.82,-36.1 236.34,-44.45 240.12,-38.56"/>
</g>
</g>
</svg>
