<?xml version="1.0" encoding="UTF-8" standalone="no"?>
<!DOCTYPE svg PUBLIC "-//W3C//DTD SVG 1.1//EN"
 "http://www.w3.org/Graphics/SVG/1.1/DTD/svg11.dtd">
<!-- Generated by graphviz version 2.47.3 (20210619.1520)
 -->
<!-- Title: G Pages: 1 -->
<svg width="254pt" height="141pt"
 viewBox="0.00 0.00 253.99 140.80" xmlns="http://www.w3.org/2000/svg" xmlns:xlink="http://www.w3.org/1999/xlink">
<g id="graph0" class="graph" transform="scale(1 1) rotate(0) translate(4 136.8)">
<title>G</title>
<polygon fill="white" stroke="transparent" points="-4,4 -4,-136.8 249.99,-136.8 249.99,4 -4,4"/>
<text text-anchor="middle" x="115.5" y="-116.2" font-family="Times,serif" font-size="14.00">Where used, expression/FinalMethods</text>
<!-- expression/FinalMethods -->
<g id="node1" class="node">
<title>expression/FinalMethods</title>
<g id="a_node1"><a xlink:href="https://syntax.abaplint.org/#/expression/FinalMethods" xlink:title="expression/FinalMethods">
<polygon fill="none" stroke="black" points="201.53,-36 44.46,-36 44.46,0 201.53,0 201.53,-36"/>
<text text-anchor="middle" x="122.99" y="-13.8" font-family="Times,serif" font-size="14.00">expression/FinalMethods</text>
</a>
</g>
</g>
<!-- statement/InterfaceDef -->
<g id="node2" class="node">
<title>statement/InterfaceDef</title>
<g id="a_node2"><a xlink:href="https://syntax.abaplint.org/#/statement/InterfaceDef" xlink:title="statement/InterfaceDef">
<polygon fill="none" stroke="black" points="245.98,-95.56 122.99,-108 0.01,-95.56 0.12,-75.44 245.87,-75.44 245.98,-95.56"/>
<text text-anchor="middle" x="122.99" y="-85.8" font-family="Times,serif" font-size="14.00">statement/InterfaceDef</text>
</a>
</g>
</g>
<!-- statement/InterfaceDef&#45;&gt;expression/FinalMethods -->
<g id="edge1" class="edge">
<title>statement/InterfaceDef&#45;&gt;expression/FinalMethods</title>
<path fill="none" stroke="black" d="M122.99,-75.17C122.99,-66.92 122.99,-56.15 122.99,-46.26"/>
<polygon fill="black" stroke="black" points="126.49,-46.02 122.99,-36.02 119.49,-46.02 126.49,-46.02"/>
</g>
</g>
</svg>
