<?xml version="1.0" encoding="UTF-8" standalone="no"?>
<!DOCTYPE svg PUBLIC "-//W3C//DTD SVG 1.1//EN"
 "http://www.w3.org/Graphics/SVG/1.1/DTD/svg11.dtd">
<!-- Generated by graphviz version 2.47.3 (20210619.1520)
 -->
<!-- Title: G Pages: 1 -->
<svg width="939pt" height="213pt"
 viewBox="0.00 0.00 939.12 212.80" xmlns="http://www.w3.org/2000/svg" xmlns:xlink="http://www.w3.org/1999/xlink">
<g id="graph0" class="graph" transform="scale(1 1) rotate(0) translate(4 208.8)">
<title>G</title>
<polygon fill="white" stroke="transparent" points="-4,4 -4,-208.8 935.12,-208.8 935.12,4 -4,4"/>
<text text-anchor="middle" x="106.93" y="-188.2" font-family="Times,serif" font-size="14.00">Where used, expression/TypeTable</text>
<!-- expression/TypeTable -->
<g id="node1" class="node">
<title>expression/TypeTable</title>
<g id="a_node1"><a xlink:href="https://syntax.abaplint.org/#/expression/TypeTable" xlink:title="expression/TypeTable">
<polygon fill="none" stroke="black" points="601.63,-36 460.83,-36 460.83,0 601.63,0 601.63,-36"/>
<text text-anchor="middle" x="531.23" y="-13.8" font-family="Times,serif" font-size="14.00">expression/TypeTable</text>
</a>
</g>
</g>
<!-- expression/DataDefinition -->
<g id="node2" class="node">
<title>expression/DataDefinition</title>
<g id="a_node2"><a xlink:href="https://syntax.abaplint.org/#/expression/DataDefinition" xlink:title="expression/DataDefinition">
<polygon fill="none" stroke="black" points="273.97,-108 110.5,-108 110.5,-72 273.97,-72 273.97,-108"/>
<text text-anchor="middle" x="192.23" y="-85.8" font-family="Times,serif" font-size="14.00">expression/DataDefinition</text>
</a>
</g>
</g>
<!-- expression/DataDefinition&#45;&gt;expression/TypeTable -->
<g id="edge1" class="edge">
<title>expression/DataDefinition&#45;&gt;expression/TypeTable</title>
<path fill="none" stroke="black" d="M274.3,-72.05C327.87,-60.99 397.48,-46.62 450.74,-35.62"/>
<polygon fill="black" stroke="black" points="451.73,-38.99 460.82,-33.54 450.32,-32.13 451.73,-38.99"/>
</g>
<!-- statement/Data -->
<g id="node3" class="node">
<title>statement/Data</title>
<g id="a_node3"><a xlink:href="https://syntax.abaplint.org/#/statement/Data" xlink:title="statement/Data">
<polygon fill="none" stroke="black" points="170.7,-167.56 85.23,-180 -0.23,-167.56 -0.16,-147.44 170.62,-147.44 170.7,-167.56"/>
<text text-anchor="middle" x="85.23" y="-157.8" font-family="Times,serif" font-size="14.00">statement/Data</text>
</a>
</g>
</g>
<!-- statement/Data&#45;&gt;expression/DataDefinition -->
<g id="edge2" class="edge">
<title>statement/Data&#45;&gt;expression/DataDefinition</title>
<path fill="none" stroke="black" d="M106.12,-147.34C120.72,-137.78 140.57,-124.8 157.53,-113.7"/>
<polygon fill="black" stroke="black" points="159.64,-116.5 166.1,-108.1 155.81,-110.65 159.64,-116.5"/>
</g>
<!-- statement/ClassData -->
<g id="node4" class="node">
<title>statement/ClassData</title>
<g id="a_node4"><a xlink:href="https://syntax.abaplint.org/#/statement/ClassData" xlink:title="statement/ClassData">
<polygon fill="none" stroke="black" points="410.42,-167.56 299.23,-180 188.04,-167.56 188.15,-147.44 410.32,-147.44 410.42,-167.56"/>
<text text-anchor="middle" x="299.23" y="-157.8" font-family="Times,serif" font-size="14.00">statement/ClassData</text>
</a>
</g>
</g>
<!-- statement/ClassData&#45;&gt;expression/DataDefinition -->
<g id="edge3" class="edge">
<title>statement/ClassData&#45;&gt;expression/DataDefinition</title>
<path fill="none" stroke="black" d="M278.35,-147.34C263.74,-137.78 243.9,-124.8 226.94,-113.7"/>
<polygon fill="black" stroke="black" points="228.66,-110.65 218.37,-108.1 224.82,-116.5 228.66,-110.65"/>
</g>
<!-- statement/FieldSymbol -->
<g id="node5" class="node">
<title>statement/FieldSymbol</title>
<g id="a_node5"><a xlink:href="https://syntax.abaplint.org/#/statement/FieldSymbol" xlink:title="statement/FieldSymbol">
<polygon fill="none" stroke="black" points="540.5,-95.56 416.23,-108 291.97,-95.56 292.08,-75.44 540.38,-75.44 540.5,-95.56"/>
<text text-anchor="middle" x="416.23" y="-85.8" font-family="Times,serif" font-size="14.00">statement/FieldSymbol</text>
</a>
</g>
</g>
<!-- statement/FieldSymbol&#45;&gt;expression/TypeTable -->
<g id="edge4" class="edge">
<title>statement/FieldSymbol&#45;&gt;expression/TypeTable</title>
<path fill="none" stroke="black" d="M438.68,-75.34C454.52,-65.69 476.1,-52.56 494.44,-41.4"/>
<polygon fill="black" stroke="black" points="496.42,-44.29 503.14,-36.1 492.78,-38.31 496.42,-44.29"/>
</g>
<!-- statement/Type -->
<g id="node6" class="node">
<title>statement/Type</title>
<g id="a_node6"><a xlink:href="https://syntax.abaplint.org/#/statement/Type" xlink:title="statement/Type">
<polygon fill="none" stroke="black" points="733.7,-95.56 646.23,-108 558.77,-95.56 558.86,-75.44 733.61,-75.44 733.7,-95.56"/>
<text text-anchor="middle" x="646.23" y="-85.8" font-family="Times,serif" font-size="14.00">statement/Type</text>
</a>
</g>
</g>
<!-- statement/Type&#45;&gt;expression/TypeTable -->
<g id="edge5" class="edge">
<title>statement/Type&#45;&gt;expression/TypeTable</title>
<path fill="none" stroke="black" d="M623.79,-75.34C607.95,-65.69 586.37,-52.56 568.03,-41.4"/>
<polygon fill="black" stroke="black" points="569.69,-38.31 559.33,-36.1 566.05,-44.29 569.69,-38.31"/>
</g>
<!-- statement/Static -->
<g id="node7" class="node">
<title>statement/Static</title>
<g id="a_node7"><a xlink:href="https://syntax.abaplint.org/#/statement/Static" xlink:title="statement/Static">
<polygon fill="none" stroke="black" points="931.01,-95.56 841.23,-108 751.46,-95.56 751.54,-75.44 930.92,-75.44 931.01,-95.56"/>
<text text-anchor="middle" x="841.23" y="-85.8" font-family="Times,serif" font-size="14.00">statement/Static</text>
</a>
</g>
</g>
<!-- statement/Static&#45;&gt;expression/TypeTable -->
<g id="edge6" class="edge">
<title>statement/Static&#45;&gt;expression/TypeTable</title>
<path fill="none" stroke="black" d="M781.1,-75.42C732.79,-64.51 664.53,-49.1 611.55,-37.14"/>
<polygon fill="black" stroke="black" points="612.03,-33.66 601.51,-34.87 610.49,-40.49 612.03,-33.66"/>
</g>
</g>
</svg>
