<svg xmlns="http://www.w3.org/2000/svg" xmlns:xlink="http://www.w3.org/1999/xlink" class="railroad-diagram" width="1069" height="187" viewBox="0 0 1069 187">
<defs>
<style type="text/css"><![CDATA[
path {
stroke-width: 3;
stroke: black;
fill: rgba(0,0,0,0);
}
text {
font: bold 14px monospace;
text-anchor: middle;
}
text.diagram-text {
font-size: 12px;
}
a {
fill: blue;
}
text.diagram-arrow {
font-size: 16px;
}
text.label {
text-anchor: start;
}
text.comment {
font: italic 12px monospace;
}
rect {
stroke-width: 3;
stroke: black;
fill: #BCBCBC;
}
path.diagram-text {
stroke-width: 3;
stroke: black;
fill: #BCBCBC;
cursor: help;
}
]]></style>
</defs>
<g transform="translate(.5 .5)">
<g>
<path d="M20 30v20m0 -10h20"></path>
</g>
<path d="M40 40h10"></path>
<g>
<path d="M50 40h0"></path>
<path d="M1019 40h0"></path>
<g>
<path d="M50 40h0"></path>
<path d="M116 40h0"></path>
<text x="83" y="45" class="comment">v740sp02</text>
</g>
<path d="M116 40h10"></path>
<path d="M126 40h10"></path>
<g>
<path d="M136 40h0"></path>
<path d="M1019 40h0"></path>
<g class="terminal">
<path d="M136 40h0"></path>
<path d="M198.5 40h0"></path>
<rect x="136" y="29" width="62.5" height="22" rx="10" ry="10"></rect>
<text x="167.25" y="44">"NEW"</text>
</g>
<path d="M198.5 40h10"></path>
<path d="M208.5 40h10"></path>
<g class="non-terminal">
<path d="M218.5 40h0"></path>
<path d="M366 40h0"></path>
<rect x="218.5" y="29" width="147.5" height="22"></rect>
<a xlink:href="#/expression/TypeNameOrInfer"><text x="292.25" y="44">TypeNameOrInfer</text>
</a>
</g>
<path d="M366 40h10"></path>
<path d="M376 40h10"></path>
<g class="terminal">
<path d="M386 40h0"></path>
<path d="M448.5 40h0"></path>
<rect x="386" y="29" width="62.5" height="22" rx="10" ry="10"></rect>
<text x="417.25" y="44">!"( "</text>
</g>
<path d="M448.5 40h10"></path>
<g>
<path d="M458.5 40h0"></path>
<path d="M908 40h0"></path>
<path d="M458.5 40a10 10 0 0 0 10 -10v0a10 10 0 0 1 10 -10"></path>
<g>
<path d="M478.5 20h409.5"></path>
</g>
<path d="M888 20a10 10 0 0 1 10 10v0a10 10 0 0 0 10 10"></path>
<path d="M458.5 40h20"></path>
<g>
<path d="M478.5 40h0"></path>
<path d="M888 40h0"></path>
<path d="M478.5 40h20"></path>
<g class="non-terminal">
<path d="M498.5 40h0"></path>
<path d="M569.5 40h298.5"></path>
<rect x="498.5" y="29" width="71" height="22"></rect>
<a xlink:href="#/expression/Source"><text x="534" y="44">Source</text>
</a>
</g>
<path d="M868 40h20"></path>
<path d="M478.5 40a10 10 0 0 1 10 10v10a10 10 0 0 0 10 10"></path>
<g class="non-terminal">
<path d="M498.5 70h0"></path>
<path d="M637.5 70h230.5"></path>
<rect x="498.5" y="59" width="139" height="22"></rect>
<a xlink:href="#/expression/ParameterListS"><text x="568" y="74">ParameterListS</text>
</a>
</g>
<path d="M868 70a10 10 0 0 0 10 -10v-10a10 10 0 0 1 10 -10"></path>
<path d="M478.5 40a10 10 0 0 1 10 10v40a10 10 0 0 0 10 10"></path>
<g>
<path d="M498.5 100h0"></path>
<path d="M771.5 100h96.5"></path>
<path d="M498.5 100h10"></path>
<g>
<path d="M508.5 100h0"></path>
<path d="M761.5 100h0"></path>
<g class="terminal">
<path d="M508.5 100h0"></path>
<path d="M579.5 100h0"></path>
<rect x="508.5" y="89" width="71" height="22" rx="10" ry="10"></rect>
<text x="544" y="104">!" ( "</text>
</g>
<path d="M579.5 100h10"></path>
<path d="M589.5 100h10"></path>
<g class="non-terminal">
<path d="M599.5 100h0"></path>
<path d="M670.5 100h0"></path>
<rect x="599.5" y="89" width="71" height="22"></rect>
<a xlink:href="#/expression/Source"><text x="635" y="104">Source</text>
</a>
</g>
<path d="M670.5 100h10"></path>
<path d="M680.5 100h10"></path>
<g class="terminal">
<path d="M690.5 100h0"></path>
<path d="M761.5 100h0"></path>
<rect x="690.5" y="89" width="71" height="22" rx="10" ry="10"></rect>
<text x="726" y="104">!" ) "</text>
</g>
</g>
<path d="M761.5 100h10"></path>
<path d="M508.5 100a10 10 0 0 0 -10 10v0a10 10 0 0 0 10 10"></path>
<g>
<path d="M508.5 120h253"></path>
</g>
<path d="M761.5 120a10 10 0 0 0 10 -10v0a10 10 0 0 0 -10 -10"></path>
</g>
<path d="M868 100a10 10 0 0 0 10 -10v-40a10 10 0 0 1 10 -10"></path>
<path d="M478.5 40a10 10 0 0 1 10 10v79a10 10 0 0 0 10 10"></path>
<g>
<path d="M498.5 139h0"></path>
<path d="M868 139h0"></path>
<path d="M498.5 139h10"></path>
<g>
<path d="M508.5 139h0"></path>
<path d="M858 139h0"></path>
<g class="terminal">
<path d="M508.5 139h0"></path>
<path d="M579.5 139h0"></path>
<rect x="508.5" y="128" width="71" height="22" rx="10" ry="10"></rect>
<text x="544" y="143">!" ( "</text>
</g>
<path d="M579.5 139h10"></path>
<path d="M589.5 139h10"></path>
<g>
<path d="M599.5 139h0"></path>
<path d="M767 139h0"></path>
<path d="M599.5 139h10"></path>
<g class="non-terminal">
<path d="M609.5 139h0"></path>
<path d="M757 139h0"></path>
<rect x="609.5" y="128" width="147.5" height="22"></rect>
<a xlink:href="#/expression/FieldAssignment"><text x="683.25" y="143">FieldAssignment</text>
</a>
</g>
<path d="M757 139h10"></path>
<path d="M609.5 139a10 10 0 0 0 -10 10v0a10 10 0 0 0 10 10"></path>
<g>
<path d="M609.5 159h147.5"></path>
</g>
<path d="M757 159a10 10 0 0 0 10 -10v0a10 10 0 0 0 -10 -10"></path>
</g>
<path d="M767 139h10"></path>
<path d="M777 139h10"></path>
<g class="terminal">
<path d="M787 139h0"></path>
<path d="M858 139h0"></path>
<rect x="787" y="128" width="71" height="22" rx="10" ry="10"></rect>
<text x="822.5" y="143">!" ) "</text>
</g>
</g>
<path d="M858 139h10"></path>
<path d="M508.5 139a10 10 0 0 0 -10 10v8a10 10 0 0 0 10 10"></path>
<g>
<path d="M508.5 167h349.5"></path>
</g>
<path d="M858 167a10 10 0 0 0 10 -10v-8a10 10 0 0 0 -10 -10"></path>
</g>
<path d="M868 139a10 10 0 0 0 10 -10v-79a10 10 0 0 1 10 -10"></path>
</g>
<path d="M888 40h20"></path>
</g>
<g>
<path d="M908 40h0"></path>
<path d="M1019 40h0"></path>
<path d="M908 40h20"></path>
<g class="terminal">
<path d="M928 40h0"></path>
<path d="M999 40h0"></path>
<rect x="928" y="29" width="71" height="22" rx="10" ry="10"></rect>
<text x="963.5" y="44">!" ) "</text>
</g>
<path d="M999 40h20"></path>
<path d="M908 40a10 10 0 0 1 10 10v10a10 10 0 0 0 10 10"></path>
<g class="terminal">
<path d="M928 70h0"></path>
<path d="M990.5 70h8.5"></path>
<rect x="928" y="59" width="62.5" height="22" rx="10" ry="10"></rect>
<text x="959.25" y="74">!" )"</text>
</g>
<path d="M999 70a10 10 0 0 0 10 -10v-10a10 10 0 0 1 10 -10"></path>
</g>
</g>
</g>
<path d="M1019 40h10"></path>
<path d="M 1029 40 h 20 m 0 -10 v 20"></path>
</g>
</svg>
