<svg xmlns="http://www.w3.org/2000/svg" xmlns:xlink="http://www.w3.org/1999/xlink" class="railroad-diagram" width="310" height="152" viewBox="0 0 310 152">
<defs>
<style type="text/css"><![CDATA[
path {
stroke-width: 3;
stroke: black;
fill: rgba(0,0,0,0);
}
text {
font: bold 14px monospace;
text-anchor: middle;
}
text.diagram-text {
font-size: 12px;
}
a {
fill: blue;
}
text.diagram-arrow {
font-size: 16px;
}
text.label {
text-anchor: start;
}
text.comment {
font: italic 12px monospace;
}
rect {
stroke-width: 3;
stroke: black;
fill: #BCBCBC;
}
path.diagram-text {
stroke-width: 3;
stroke: black;
fill: #BCBCBC;
cursor: help;
}
]]></style>
</defs>
<g transform="translate(.5 .5)">
<g>
<path d="M20 21v20m0 -10h20"></path>
</g>
<g>
<path d="M40 31h0"></path>
<path d="M270 31h0"></path>
<path d="M40 31h20"></path>
<g class="non-terminal">
<path d="M60 31h0"></path>
<path d="M224.5 31h25.5"></path>
<rect x="60" y="20" width="164.5" height="22"></rect>
<a xlink:href="#/expression/TextElementString"><text x="142.25" y="35">TextElementString</text>
</a>
</g>
<path d="M250 31h20"></path>
<path d="M40 31a10 10 0 0 1 10 10v10a10 10 0 0 0 10 10"></path>
<g class="non-terminal">
<path d="M60 61h0"></path>
<path d="M250 61h0"></path>
<rect x="60" y="50" width="190" height="22"></rect>
<a xlink:href="#/expression/ConcatenatedConstant"><text x="155" y="65">ConcatenatedConstant</text>
</a>
</g>
<path d="M250 61a10 10 0 0 0 10 -10v-10a10 10 0 0 1 10 -10"></path>
<path d="M40 31a10 10 0 0 1 10 10v40a10 10 0 0 0 10 10"></path>
<g class="non-terminal">
<path d="M60 91h0"></path>
<path d="M199 91h51"></path>
<rect x="60" y="80" width="139" height="22"></rect>
<a xlink:href="#/expression/ConstantString"><text x="129.5" y="95">ConstantString</text>
</a>
</g>
<path d="M250 91a10 10 0 0 0 10 -10v-40a10 10 0 0 1 10 -10"></path>
<path d="M40 31a10 10 0 0 1 10 10v70a10 10 0 0 0 10 10"></path>
<g class="non-terminal">
<path d="M60 121h0"></path>
<path d="M139.5 121h110.5"></path>
<rect x="60" y="110" width="79.5" height="22"></rect>
<a xlink:href="#/expression/Integer"><text x="99.75" y="125">Integer</text>
</a>
</g>
<path d="M250 121a10 10 0 0 0 10 -10v-70a10 10 0 0 1 10 -10"></path>
</g>
<path d="M 270 31 h 20 m 0 -10 v 20"></path>
</g>
</svg>
