<svg xmlns="http://www.w3.org/2000/svg" xmlns:xlink="http://www.w3.org/1999/xlink" class="railroad-diagram" width="688.5" height="101" viewBox="0 0 688.5 101">
<defs>
<style type="text/css"><![CDATA[
path {
stroke-width: 3;
stroke: black;
fill: rgba(0,0,0,0);
}
text {
font: bold 14px monospace;
text-anchor: middle;
}
text.diagram-text {
font-size: 12px;
}
a {
fill: blue;
}
text.diagram-arrow {
font-size: 16px;
}
text.label {
text-anchor: start;
}
text.comment {
font: italic 12px monospace;
}
rect {
stroke-width: 3;
stroke: black;
fill: #BCBCBC;
}
path.diagram-text {
stroke-width: 3;
stroke: black;
fill: #BCBCBC;
cursor: help;
}
]]></style>
</defs>
<g transform="translate(.5 .5)">
<g>
<path d="M20 30v20m0 -10h20"></path>
</g>
<path d="M40 40h10"></path>
<g>
<path d="M50 40h0"></path>
<path d="M638.5 40h0"></path>
<g>
<path d="M50 40h0"></path>
<path d="M220.5 40h0"></path>
<path d="M50 40h20"></path>
<g class="terminal">
<path d="M70 40h0"></path>
<path d="M158 40h42.5"></path>
<rect x="70" y="29" width="88" height="22" rx="10" ry="10"></rect>
<text x="114" y="44">"OTHERS"</text>
</g>
<path d="M200.5 40h20"></path>
<path d="M50 40a10 10 0 0 1 10 10v10a10 10 0 0 0 10 10"></path>
<g class="non-terminal">
<path d="M70 70h0"></path>
<path d="M200.5 70h0"></path>
<rect x="70" y="59" width="130.5" height="22"></rect>
<a xlink:href="#/expression/ParameterName"><text x="135.25" y="74">ParameterName</text>
</a>
</g>
<path d="M200.5 70a10 10 0 0 0 10 -10v-10a10 10 0 0 1 10 -10"></path>
</g>
<path d="M220.5 40h10"></path>
<g class="terminal">
<path d="M230.5 40h0"></path>
<path d="M276 40h0"></path>
<rect x="230.5" y="29" width="45.5" height="22" rx="10" ry="10"></rect>
<text x="253.25" y="44">"="</text>
</g>
<path d="M276 40h10"></path>
<path d="M286 40h10"></path>
<g class="non-terminal">
<path d="M296 40h0"></path>
<path d="M401 40h0"></path>
<rect x="296" y="29" width="105" height="22"></rect>
<a xlink:href="#/expression/SimpleName"><text x="348.5" y="44">SimpleName</text>
</a>
</g>
<path d="M401 40h10"></path>
<g>
<path d="M411 40h0"></path>
<path d="M638.5 40h0"></path>
<path d="M411 40a10 10 0 0 0 10 -10v0a10 10 0 0 1 10 -10"></path>
<g>
<path d="M431 20h187.5"></path>
</g>
<path d="M618.5 20a10 10 0 0 1 10 10v0a10 10 0 0 0 10 10"></path>
<path d="M411 40h20"></path>
<g>
<path d="M431 40h0"></path>
<path d="M618.5 40h0"></path>
<g class="terminal">
<path d="M431 40h0"></path>
<path d="M527.5 40h0"></path>
<rect x="431" y="29" width="96.5" height="22" rx="10" ry="10"></rect>
<text x="479.25" y="44">"MESSAGE"</text>
</g>
<path d="M527.5 40h10"></path>
<path d="M537.5 40h10"></path>
<g class="non-terminal">
<path d="M547.5 40h0"></path>
<path d="M618.5 40h0"></path>
<rect x="547.5" y="29" width="71" height="22"></rect>
<a xlink:href="#/expression/Target"><text x="583" y="44">Target</text>
</a>
</g>
</g>
<path d="M618.5 40h20"></path>
</g>
</g>
<path d="M638.5 40h10"></path>
<path d="M 648.5 40 h 20 m 0 -10 v 20"></path>
</g>
</svg>
