<?xml version="1.0" encoding="UTF-8" standalone="no"?>
<!DOCTYPE svg PUBLIC "-//W3C//DTD SVG 1.1//EN"
 "http://www.w3.org/Graphics/SVG/1.1/DTD/svg11.dtd">
<!-- Generated by graphviz version 2.47.3 (20210619.1520)
 -->
<!-- Title: G Pages: 1 -->
<svg width="434pt" height="141pt"
 viewBox="0.00 0.00 434.29 140.80" xmlns="http://www.w3.org/2000/svg" xmlns:xlink="http://www.w3.org/1999/xlink">
<g id="graph0" class="graph" transform="scale(1 1) rotate(0) translate(4 136.8)">
<title>G</title>
<polygon fill="white" stroke="transparent" points="-4,4 -4,-136.8 430.29,-136.8 430.29,4 -4,4"/>
<text text-anchor="middle" x="119.38" y="-116.2" font-family="Times,serif" font-size="14.00">Where used, expression/SimpleSource3</text>
<!-- expression/SimpleSource3 -->
<g id="node1" class="node">
<title>expression/SimpleSource3</title>
<g id="a_node1"><a xlink:href="https://syntax.abaplint.org/#/expression/SimpleSource3" xlink:title="expression/SimpleSource3">
<polygon fill="none" stroke="black" points="298.26,-36 132.66,-36 132.66,0 298.26,0 298.26,-36"/>
<text text-anchor="middle" x="215.46" y="-13.8" font-family="Times,serif" font-size="14.00">expression/SimpleSource3</text>
</a>
</g>
</g>
<!-- statement/Message -->
<g id="node2" class="node">
<title>statement/Message</title>
<g id="a_node2"><a xlink:href="https://syntax.abaplint.org/#/statement/Message" xlink:title="statement/Message">
<polygon fill="none" stroke="black" points="208.89,-95.56 104.46,-108 0.04,-95.56 0.14,-75.44 208.79,-75.44 208.89,-95.56"/>
<text text-anchor="middle" x="104.46" y="-85.8" font-family="Times,serif" font-size="14.00">statement/Message</text>
</a>
</g>
</g>
<!-- statement/Message&#45;&gt;expression/SimpleSource3 -->
<g id="edge1" class="edge">
<title>statement/Message&#45;&gt;expression/SimpleSource3</title>
<path fill="none" stroke="black" d="M126.13,-75.34C141.28,-65.78 161.87,-52.8 179.46,-41.7"/>
<polygon fill="black" stroke="black" points="181.76,-44.39 188.35,-36.1 178.02,-38.47 181.76,-44.39"/>
</g>
<!-- statement/Provide -->
<g id="node3" class="node">
<title>statement/Provide</title>
<g id="a_node3"><a xlink:href="https://syntax.abaplint.org/#/statement/Provide" xlink:title="statement/Provide">
<polygon fill="none" stroke="black" points="426.13,-95.56 326.46,-108 226.8,-95.56 226.89,-75.44 426.03,-75.44 426.13,-95.56"/>
<text text-anchor="middle" x="326.46" y="-85.8" font-family="Times,serif" font-size="14.00">statement/Provide</text>
</a>
</g>
</g>
<!-- statement/Provide&#45;&gt;expression/SimpleSource3 -->
<g id="edge2" class="edge">
<title>statement/Provide&#45;&gt;expression/SimpleSource3</title>
<path fill="none" stroke="black" d="M304.8,-75.34C289.65,-65.78 269.05,-52.8 251.46,-41.7"/>
<polygon fill="black" stroke="black" points="252.9,-38.47 242.58,-36.1 249.17,-44.39 252.9,-38.47"/>
</g>
</g>
</svg>
