<?xml version="1.0" encoding="UTF-8" standalone="no"?>
<!DOCTYPE svg PUBLIC "-//W3C//DTD SVG 1.1//EN"
 "http://www.w3.org/Graphics/SVG/1.1/DTD/svg11.dtd">
<!-- Generated by graphviz version 2.47.3 (20210619.1520)
 -->
<!-- Title: G Pages: 1 -->
<svg width="958pt" height="213pt"
 viewBox="0.00 0.00 958.12 212.80" xmlns="http://www.w3.org/2000/svg" xmlns:xlink="http://www.w3.org/1999/xlink">
<g id="graph0" class="graph" transform="scale(1 1) rotate(0) translate(4 208.8)">
<title>G</title>
<polygon fill="white" stroke="transparent" points="-4,4 -4,-208.8 954.12,-208.8 954.12,4 -4,4"/>
<text text-anchor="middle" x="93.33" y="-188.2" font-family="Times,serif" font-size="14.00">Where used, expression/Value</text>
<!-- expression/Value -->
<g id="node1" class="node">
<title>expression/Value</title>
<g id="a_node1"><a xlink:href="https://syntax.abaplint.org/#/expression/Value" xlink:title="expression/Value">
<polygon fill="none" stroke="black" points="583.92,-36 470.55,-36 470.55,0 583.92,0 583.92,-36"/>
<text text-anchor="middle" x="527.23" y="-13.8" font-family="Times,serif" font-size="14.00">expression/Value</text>
</a>
</g>
</g>
<!-- expression/DataDefinition -->
<g id="node2" class="node">
<title>expression/DataDefinition</title>
<g id="a_node2"><a xlink:href="https://syntax.abaplint.org/#/expression/DataDefinition" xlink:title="expression/DataDefinition">
<polygon fill="none" stroke="black" points="273.97,-108 110.5,-108 110.5,-72 273.97,-72 273.97,-108"/>
<text text-anchor="middle" x="192.23" y="-85.8" font-family="Times,serif" font-size="14.00">expression/DataDefinition</text>
</a>
</g>
</g>
<!-- expression/DataDefinition&#45;&gt;expression/Value -->
<g id="edge1" class="edge">
<title>expression/DataDefinition&#45;&gt;expression/Value</title>
<path fill="none" stroke="black" d="M273.76,-71.97C331.07,-59.99 406.81,-44.16 460.53,-32.94"/>
<polygon fill="black" stroke="black" points="461.56,-36.3 470.63,-30.83 460.12,-29.45 461.56,-36.3"/>
</g>
<!-- statement/Data -->
<g id="node3" class="node">
<title>statement/Data</title>
<g id="a_node3"><a xlink:href="https://syntax.abaplint.org/#/statement/Data" xlink:title="statement/Data">
<polygon fill="none" stroke="black" points="170.7,-167.56 85.23,-180 -0.23,-167.56 -0.16,-147.44 170.62,-147.44 170.7,-167.56"/>
<text text-anchor="middle" x="85.23" y="-157.8" font-family="Times,serif" font-size="14.00">statement/Data</text>
</a>
</g>
</g>
<!-- statement/Data&#45;&gt;expression/DataDefinition -->
<g id="edge2" class="edge">
<title>statement/Data&#45;&gt;expression/DataDefinition</title>
<path fill="none" stroke="black" d="M106.12,-147.34C120.72,-137.78 140.57,-124.8 157.53,-113.7"/>
<polygon fill="black" stroke="black" points="159.64,-116.5 166.1,-108.1 155.81,-110.65 159.64,-116.5"/>
</g>
<!-- statement/ClassData -->
<g id="node4" class="node">
<title>statement/ClassData</title>
<g id="a_node4"><a xlink:href="https://syntax.abaplint.org/#/statement/ClassData" xlink:title="statement/ClassData">
<polygon fill="none" stroke="black" points="410.42,-167.56 299.23,-180 188.04,-167.56 188.15,-147.44 410.32,-147.44 410.42,-167.56"/>
<text text-anchor="middle" x="299.23" y="-157.8" font-family="Times,serif" font-size="14.00">statement/ClassData</text>
</a>
</g>
</g>
<!-- statement/ClassData&#45;&gt;expression/DataDefinition -->
<g id="edge3" class="edge">
<title>statement/ClassData&#45;&gt;expression/DataDefinition</title>
<path fill="none" stroke="black" d="M278.35,-147.34C263.74,-137.78 243.9,-124.8 226.94,-113.7"/>
<polygon fill="black" stroke="black" points="228.66,-110.65 218.37,-108.1 224.82,-116.5 228.66,-110.65"/>
</g>
<!-- statement/TypeEnum -->
<g id="node5" class="node">
<title>statement/TypeEnum</title>
<g id="a_node5"><a xlink:href="https://syntax.abaplint.org/#/statement/TypeEnum" xlink:title="statement/TypeEnum">
<polygon fill="none" stroke="black" points="524.22,-95.56 408.23,-108 292.25,-95.56 292.35,-75.44 524.12,-75.44 524.22,-95.56"/>
<text text-anchor="middle" x="408.23" y="-85.8" font-family="Times,serif" font-size="14.00">statement/TypeEnum</text>
</a>
</g>
</g>
<!-- statement/TypeEnum&#45;&gt;expression/Value -->
<g id="edge4" class="edge">
<title>statement/TypeEnum&#45;&gt;expression/Value</title>
<path fill="none" stroke="black" d="M431.46,-75.34C447.93,-65.65 470.39,-52.44 489.42,-41.24"/>
<polygon fill="black" stroke="black" points="491.32,-44.19 498.17,-36.1 487.77,-38.15 491.32,-44.19"/>
</g>
<!-- statement/Constant -->
<g id="node6" class="node">
<title>statement/Constant</title>
<g id="a_node6"><a xlink:href="https://syntax.abaplint.org/#/statement/Constant" xlink:title="statement/Constant">
<polygon fill="none" stroke="black" points="752.52,-95.56 647.23,-108 541.95,-95.56 542.05,-75.44 752.42,-75.44 752.52,-95.56"/>
<text text-anchor="middle" x="647.23" y="-85.8" font-family="Times,serif" font-size="14.00">statement/Constant</text>
</a>
</g>
</g>
<!-- statement/Constant&#45;&gt;expression/Value -->
<g id="edge5" class="edge">
<title>statement/Constant&#45;&gt;expression/Value</title>
<path fill="none" stroke="black" d="M623.81,-75.34C607.21,-65.65 584.56,-52.44 565.37,-41.24"/>
<polygon fill="black" stroke="black" points="566.95,-38.11 556.55,-36.1 563.42,-44.16 566.95,-38.11"/>
</g>
<!-- statement/Static -->
<g id="node7" class="node">
<title>statement/Static</title>
<g id="a_node7"><a xlink:href="https://syntax.abaplint.org/#/statement/Static" xlink:title="statement/Static">
<polygon fill="none" stroke="black" points="950.01,-95.56 860.23,-108 770.46,-95.56 770.54,-75.44 949.92,-75.44 950.01,-95.56"/>
<text text-anchor="middle" x="860.23" y="-85.8" font-family="Times,serif" font-size="14.00">statement/Static</text>
</a>
</g>
</g>
<!-- statement/Static&#45;&gt;expression/Value -->
<g id="edge6" class="edge">
<title>statement/Static&#45;&gt;expression/Value</title>
<path fill="none" stroke="black" d="M795.63,-75.42C737.53,-63.21 652.51,-45.33 593.81,-32.99"/>
<polygon fill="black" stroke="black" points="594.4,-29.54 583.89,-30.91 592.96,-36.39 594.4,-29.54"/>
</g>
</g>
</svg>
