<svg xmlns="http://www.w3.org/2000/svg" xmlns:xlink="http://www.w3.org/1999/xlink" class="railroad-diagram" width="726" height="140" viewBox="0 0 726 140">
<defs>
<style type="text/css"><![CDATA[
path {
stroke-width: 3;
stroke: black;
fill: rgba(0,0,0,0);
}
text {
font: bold 14px monospace;
text-anchor: middle;
}
text.diagram-text {
font-size: 12px;
}
a {
fill: blue;
}
text.diagram-arrow {
font-size: 16px;
}
text.label {
text-anchor: start;
}
text.comment {
font: italic 12px monospace;
}
rect {
stroke-width: 3;
stroke: black;
fill: #BCBCBC;
}
path.diagram-text {
stroke-width: 3;
stroke: black;
fill: #BCBCBC;
cursor: help;
}
]]></style>
</defs>
<g transform="translate(.5 .5)">
<g>
<path d="M20 30v20m0 -10h20"></path>
</g>
<path d="M40 40h10"></path>
<g>
<path d="M50 40h0"></path>
<path d="M676 40h0"></path>
<g class="terminal">
<path d="M50 40h0"></path>
<path d="M121 40h0"></path>
<rect x="50" y="29" width="71" height="22" rx="10" ry="10"></rect>
<text x="85.5" y="44">"INTO"</text>
</g>
<path d="M121 40h10"></path>
<g>
<path d="M131 40h0"></path>
<path d="M676 40h0"></path>
<path d="M131 40h20"></path>
<g>
<path d="M151 40h0"></path>
<path d="M656 40h0"></path>
<g>
<path d="M151 40h0"></path>
<path d="M262 40h0"></path>
<path d="M151 40h20"></path>
<g class="terminal">
<path d="M171 40h0"></path>
<path d="M233.5 40h8.5"></path>
<rect x="171" y="29" width="62.5" height="22" rx="10" ry="10"></rect>
<text x="202.25" y="44">!" ("</text>
</g>
<path d="M242 40h20"></path>
<path d="M151 40a10 10 0 0 1 10 10v10a10 10 0 0 0 10 10"></path>
<g class="terminal">
<path d="M171 70h0"></path>
<path d="M242 70h0"></path>
<rect x="171" y="59" width="71" height="22" rx="10" ry="10"></rect>
<text x="206.5" y="74">!" ( "</text>
</g>
<path d="M242 70a10 10 0 0 0 10 -10v-10a10 10 0 0 1 10 -10"></path>
</g>
<g>
<path d="M262 40h0"></path>
<path d="M484 40h0"></path>
<path d="M262 40a10 10 0 0 0 10 -10v0a10 10 0 0 1 10 -10"></path>
<g>
<path d="M282 20h182"></path>
</g>
<path d="M464 20a10 10 0 0 1 10 10v0a10 10 0 0 0 10 10"></path>
<path d="M262 40h20"></path>
<g>
<path d="M282 40h0"></path>
<path d="M464 40h0"></path>
<path d="M282 40h10"></path>
<g>
<path d="M292 40h0"></path>
<path d="M454 40h0"></path>
<g class="non-terminal">
<path d="M292 40h0"></path>
<path d="M388.5 40h0"></path>
<rect x="292" y="29" width="96.5" height="22"></rect>
<a xlink:href="#/expression/SQLTarget"><text x="340.25" y="44">SQLTarget</text>
</a>
</g>
<path d="M388.5 40h10"></path>
<path d="M398.5 40h10"></path>
<g class="terminal">
<path d="M408.5 40h0"></path>
<path d="M454 40h0"></path>
<rect x="408.5" y="29" width="45.5" height="22" rx="10" ry="10"></rect>
<text x="431.25" y="44">","</text>
</g>
</g>
<path d="M454 40h10"></path>
<path d="M292 40a10 10 0 0 0 -10 10v0a10 10 0 0 0 10 10"></path>
<g>
<path d="M292 60h162"></path>
</g>
<path d="M454 60a10 10 0 0 0 10 -10v0a10 10 0 0 0 -10 -10"></path>
</g>
<path d="M464 40h20"></path>
</g>
<path d="M484 40h10"></path>
<g class="non-terminal">
<path d="M494 40h0"></path>
<path d="M590.5 40h0"></path>
<rect x="494" y="29" width="96.5" height="22"></rect>
<a xlink:href="#/expression/SQLTarget"><text x="542.25" y="44">SQLTarget</text>
</a>
</g>
<path d="M590.5 40h10"></path>
<path d="M600.5 40h10"></path>
<g class="terminal">
<path d="M610.5 40h0"></path>
<path d="M656 40h0"></path>
<rect x="610.5" y="29" width="45.5" height="22" rx="10" ry="10"></rect>
<text x="633.25" y="44">")"</text>
</g>
</g>
<path d="M656 40h20"></path>
<path d="M131 40a10 10 0 0 1 10 10v49a10 10 0 0 0 10 10"></path>
<g>
<path d="M151 109h0"></path>
<path d="M530 109h126"></path>
<g>
<path d="M151 109h0"></path>
<path d="M423.5 109h0"></path>
<path d="M151 109a10 10 0 0 0 10 -10v0a10 10 0 0 1 10 -10"></path>
<g>
<path d="M171 89h232.5"></path>
</g>
<path d="M403.5 89a10 10 0 0 1 10 10v0a10 10 0 0 0 10 10"></path>
<path d="M151 109h20"></path>
<g class="terminal">
<path d="M171 109h0"></path>
<path d="M403.5 109h0"></path>
<rect x="171" y="98" width="232.5" height="22" rx="10" ry="10"></rect>
<text x="287.25" y="113">"CORRESPONDING FIELDS OF"</text>
</g>
<path d="M403.5 109h20"></path>
</g>
<path d="M423.5 109h10"></path>
<g class="non-terminal">
<path d="M433.5 109h0"></path>
<path d="M530 109h0"></path>
<rect x="433.5" y="98" width="96.5" height="22"></rect>
<a xlink:href="#/expression/SQLTarget"><text x="481.75" y="113">SQLTarget</text>
</a>
</g>
</g>
<path d="M656 109a10 10 0 0 0 10 -10v-49a10 10 0 0 1 10 -10"></path>
</g>
</g>
<path d="M676 40h10"></path>
<path d="M 686 40 h 20 m 0 -10 v 20"></path>
</g>
</svg>
