<svg xmlns="http://www.w3.org/2000/svg" xmlns:xlink="http://www.w3.org/1999/xlink" class="railroad-diagram" width="1088" height="139" viewBox="0 0 1088 139">
<defs>
<style type="text/css"><![CDATA[
path {
stroke-width: 3;
stroke: black;
fill: rgba(0,0,0,0);
}
text {
font: bold 14px monospace;
text-anchor: middle;
}
text.diagram-text {
font-size: 12px;
}
a {
fill: blue;
}
text.diagram-arrow {
font-size: 16px;
}
text.label {
text-anchor: start;
}
text.comment {
font: italic 12px monospace;
}
rect {
stroke-width: 3;
stroke: black;
fill: #BCBCBC;
}
path.diagram-text {
stroke-width: 3;
stroke: black;
fill: #BCBCBC;
cursor: help;
}
]]></style>
</defs>
<g transform="translate(.5 .5)">
<g>
<path d="M20 30v20m0 -10h20"></path>
</g>
<path d="M40 40h10"></path>
<g>
<path d="M50 40h0"></path>
<path d="M1038 40h0"></path>
<g>
<path d="M50 40h0"></path>
<path d="M584.5 40h0"></path>
<g class="non-terminal">
<path d="M50 40h0"></path>
<path d="M180.5 40h0"></path>
<rect x="50" y="29" width="130.5" height="22"></rect>
<a xlink:href="#/expression/AttributeName"><text x="115.25" y="44">AttributeName</text>
</a>
</g>
<path d="M180.5 40h10"></path>
<g>
<path d="M190.5 40h0"></path>
<path d="M584.5 40h0"></path>
<path d="M190.5 40a10 10 0 0 0 10 -10v0a10 10 0 0 1 10 -10"></path>
<g>
<path d="M210.5 20h354"></path>
</g>
<path d="M564.5 20a10 10 0 0 1 10 10v0a10 10 0 0 0 10 10"></path>
<path d="M190.5 40h20"></path>
<g>
<path d="M210.5 40h0"></path>
<path d="M564.5 40h0"></path>
<path d="M210.5 40h10"></path>
<g>
<path d="M220.5 40h0"></path>
<path d="M554.5 40h0"></path>
<path d="M220.5 40h20"></path>
<g>
<path d="M240.5 40h0"></path>
<path d="M534.5 40h0"></path>
<g class="non-terminal">
<path d="M240.5 40h0"></path>
<path d="M354 40h0"></path>
<rect x="240.5" y="29" width="113.5" height="22"></rect>
<a xlink:href="#/expression/ArrowOrDash"><text x="297.25" y="44">ArrowOrDash</text>
</a>
</g>
<path d="M354 40h10"></path>
<g>
<path d="M364 40h0"></path>
<path d="M534.5 40h0"></path>
<path d="M364 40h20"></path>
<g class="terminal">
<path d="M384 40h0"></path>
<path d="M429.5 40h85"></path>
<rect x="384" y="29" width="45.5" height="22" rx="10" ry="10"></rect>
<text x="406.75" y="44">"&#42;"</text>
</g>
<path d="M514.5 40h20"></path>
<path d="M364 40a10 10 0 0 1 10 10v10a10 10 0 0 0 10 10"></path>
<g class="non-terminal">
<path d="M384 70h0"></path>
<path d="M514.5 70h0"></path>
<rect x="384" y="59" width="130.5" height="22"></rect>
<a xlink:href="#/expression/ComponentName"><text x="449.25" y="74">ComponentName</text>
</a>
</g>
<path d="M514.5 70a10 10 0 0 0 10 -10v-10a10 10 0 0 1 10 -10"></path>
</g>
</g>
<path d="M534.5 40h20"></path>
<path d="M220.5 40a10 10 0 0 1 10 10v40a10 10 0 0 0 10 10"></path>
<g class="non-terminal">
<path d="M240.5 100h0"></path>
<path d="M388 100h146.5"></path>
<rect x="240.5" y="89" width="147.5" height="22"></rect>
<a xlink:href="#/expression/TableExpression"><text x="314.25" y="104">TableExpression</text>
</a>
</g>
<path d="M534.5 100a10 10 0 0 0 10 -10v-40a10 10 0 0 1 10 -10"></path>
</g>
<path d="M554.5 40h10"></path>
<path d="M220.5 40a10 10 0 0 0 -10 10v59a10 10 0 0 0 10 10"></path>
<g>
<path d="M220.5 119h334"></path>
</g>
<path d="M554.5 119a10 10 0 0 0 10 -10v-59a10 10 0 0 0 -10 -10"></path>
</g>
<path d="M564.5 40h20"></path>
</g>
</g>
<path d="M584.5 40h10"></path>
<g>
<path d="M594.5 40h0"></path>
<path d="M731 40h0"></path>
<path d="M594.5 40a10 10 0 0 0 10 -10v0a10 10 0 0 1 10 -10"></path>
<g>
<path d="M614.5 20h96.5"></path>
</g>
<path d="M711 20a10 10 0 0 1 10 10v0a10 10 0 0 0 10 10"></path>
<path d="M594.5 40h20"></path>
<g class="non-terminal">
<path d="M614.5 40h0"></path>
<path d="M711 40h0"></path>
<rect x="614.5" y="29" width="96.5" height="22"></rect>
<a xlink:href="#/expression/TableBody"><text x="662.75" y="44">TableBody</text>
</a>
</g>
<path d="M711 40h20"></path>
</g>
<g>
<path d="M731 40h0"></path>
<path d="M884.5 40h0"></path>
<path d="M731 40a10 10 0 0 0 10 -10v0a10 10 0 0 1 10 -10"></path>
<g>
<path d="M751 20h113.5"></path>
</g>
<path d="M864.5 20a10 10 0 0 1 10 10v0a10 10 0 0 0 10 10"></path>
<path d="M731 40h20"></path>
<g class="non-terminal">
<path d="M751 40h0"></path>
<path d="M864.5 40h0"></path>
<rect x="751" y="29" width="113.5" height="22"></rect>
<a xlink:href="#/expression/FieldOffset"><text x="807.75" y="44">FieldOffset</text>
</a>
</g>
<path d="M864.5 40h20"></path>
</g>
<g>
<path d="M884.5 40h0"></path>
<path d="M1038 40h0"></path>
<path d="M884.5 40a10 10 0 0 0 10 -10v0a10 10 0 0 1 10 -10"></path>
<g>
<path d="M904.5 20h113.5"></path>
</g>
<path d="M1018 20a10 10 0 0 1 10 10v0a10 10 0 0 0 10 10"></path>
<path d="M884.5 40h20"></path>
<g class="non-terminal">
<path d="M904.5 40h0"></path>
<path d="M1018 40h0"></path>
<rect x="904.5" y="29" width="113.5" height="22"></rect>
<a xlink:href="#/expression/FieldLength"><text x="961.25" y="44">FieldLength</text>
</a>
</g>
<path d="M1018 40h20"></path>
</g>
</g>
<path d="M1038 40h10"></path>
<path d="M 1048 40 h 20 m 0 -10 v 20"></path>
</g>
</svg>
