<?xml version="1.0" encoding="UTF-8" standalone="no"?>
<!DOCTYPE svg PUBLIC "-//W3C//DTD SVG 1.1//EN"
 "http://www.w3.org/Graphics/SVG/1.1/DTD/svg11.dtd">
<!-- Generated by graphviz version 2.47.3 (20210619.1520)
 -->
<!-- Title: G Pages: 1 -->
<svg width="273pt" height="141pt"
 viewBox="0.00 0.00 273.19 140.80" xmlns="http://www.w3.org/2000/svg" xmlns:xlink="http://www.w3.org/1999/xlink">
<g id="graph0" class="graph" transform="scale(1 1) rotate(0) translate(4 136.8)">
<title>G</title>
<polygon fill="white" stroke="transparent" points="-4,4 -4,-136.8 269.19,-136.8 269.19,4 -4,4"/>
<text text-anchor="middle" x="132.6" y="-116.2" font-family="Times,serif" font-size="14.00">Where used, expression/FunctionParameters</text>
<!-- expression/FunctionParameters -->
<g id="node1" class="node">
<title>expression/FunctionParameters</title>
<g id="a_node1"><a xlink:href="https://syntax.abaplint.org/#/expression/FunctionParameters" xlink:title="expression/FunctionParameters">
<polygon fill="none" stroke="black" points="228.32,-36 36.87,-36 36.87,0 228.32,0 228.32,-36"/>
<text text-anchor="middle" x="132.6" y="-13.8" font-family="Times,serif" font-size="14.00">expression/FunctionParameters</text>
</a>
</g>
</g>
<!-- statement/CallFunction -->
<g id="node2" class="node">
<title>statement/CallFunction</title>
<g id="a_node2"><a xlink:href="https://syntax.abaplint.org/#/statement/CallFunction" xlink:title="statement/CallFunction">
<polygon fill="none" stroke="black" points="257.67,-95.56 132.6,-108 7.52,-95.56 7.64,-75.44 257.55,-75.44 257.67,-95.56"/>
<text text-anchor="middle" x="132.6" y="-85.8" font-family="Times,serif" font-size="14.00">statement/CallFunction</text>
</a>
</g>
</g>
<!-- statement/CallFunction&#45;&gt;expression/FunctionParameters -->
<g id="edge1" class="edge">
<title>statement/CallFunction&#45;&gt;expression/FunctionParameters</title>
<path fill="none" stroke="black" d="M132.6,-75.17C132.6,-66.92 132.6,-56.15 132.6,-46.26"/>
<polygon fill="black" stroke="black" points="136.1,-46.02 132.6,-36.02 129.1,-46.02 136.1,-46.02"/>
</g>
</g>
</svg>
