<?xml version="1.0" encoding="UTF-8" standalone="no"?>
<!DOCTYPE svg PUBLIC "-//W3C//DTD SVG 1.1//EN"
 "http://www.w3.org/Graphics/SVG/1.1/DTD/svg11.dtd">
<!-- Generated by graphviz version 2.47.3 (20210619.1520)
 -->
<!-- Title: G Pages: 1 -->
<svg width="280pt" height="141pt"
 viewBox="0.00 0.00 280.20 140.80" xmlns="http://www.w3.org/2000/svg" xmlns:xlink="http://www.w3.org/1999/xlink">
<g id="graph0" class="graph" transform="scale(1 1) rotate(0) translate(4 136.8)">
<title>G</title>
<polygon fill="white" stroke="transparent" points="-4,4 -4,-136.8 276.2,-136.8 276.2,4 -4,4"/>
<text text-anchor="middle" x="136.1" y="-116.2" font-family="Times,serif" font-size="14.00">Where used, expression/MethodDefChanging</text>
<!-- expression/MethodDefChanging -->
<g id="node1" class="node">
<title>expression/MethodDefChanging</title>
<g id="a_node1"><a xlink:href="https://syntax.abaplint.org/#/expression/MethodDefChanging" xlink:title="expression/MethodDefChanging">
<polygon fill="none" stroke="black" points="235.33,-36 36.86,-36 36.86,0 235.33,0 235.33,-36"/>
<text text-anchor="middle" x="136.1" y="-13.8" font-family="Times,serif" font-size="14.00">expression/MethodDefChanging</text>
</a>
</g>
</g>
<!-- statement/MethodDef -->
<g id="node2" class="node">
<title>statement/MethodDef</title>
<g id="a_node2"><a xlink:href="https://syntax.abaplint.org/#/statement/MethodDef" xlink:title="statement/MethodDef">
<polygon fill="none" stroke="black" points="254.05,-95.56 136.1,-108 18.15,-95.56 18.26,-75.44 253.94,-75.44 254.05,-95.56"/>
<text text-anchor="middle" x="136.1" y="-85.8" font-family="Times,serif" font-size="14.00">statement/MethodDef</text>
</a>
</g>
</g>
<!-- statement/MethodDef&#45;&gt;expression/MethodDefChanging -->
<g id="edge1" class="edge">
<title>statement/MethodDef&#45;&gt;expression/MethodDefChanging</title>
<path fill="none" stroke="black" d="M136.1,-75.17C136.1,-66.92 136.1,-56.15 136.1,-46.26"/>
<polygon fill="black" stroke="black" points="139.6,-46.02 136.1,-36.02 132.6,-46.02 139.6,-46.02"/>
</g>
</g>
</svg>
