<svg xmlns="http://www.w3.org/2000/svg" xmlns:xlink="http://www.w3.org/1999/xlink" class="railroad-diagram" width="406.5" height="62" viewBox="0 0 406.5 62">
<defs>
<style type="text/css"><![CDATA[
path {
stroke-width: 3;
stroke: black;
fill: rgba(0,0,0,0);
}
text {
font: bold 14px monospace;
text-anchor: middle;
}
text.diagram-text {
font-size: 12px;
}
a {
fill: blue;
}
text.diagram-arrow {
font-size: 16px;
}
text.label {
text-anchor: start;
}
text.comment {
font: italic 12px monospace;
}
rect {
stroke-width: 3;
stroke: black;
fill: #BCBCBC;
}
path.diagram-text {
stroke-width: 3;
stroke: black;
fill: #BCBCBC;
cursor: help;
}
]]></style>
</defs>
<g transform="translate(.5 .5)">
<g>
<path d="M20 21v20m0 -10h20"></path>
</g>
<path d="M40 31h10"></path>
<g>
<path d="M50 31h0"></path>
<path d="M356.5 31h0"></path>
<g class="terminal">
<path d="M50 31h0"></path>
<path d="M240 31h0"></path>
<rect x="50" y="20" width="190" height="22" rx="10" ry="10"></rect>
<text x="145" y="35">"FOR ALL ENTRIES IN"</text>
</g>
<path d="M240 31h10"></path>
<path d="M250 31h10"></path>
<g class="non-terminal">
<path d="M260 31h0"></path>
<path d="M356.5 31h0"></path>
<rect x="260" y="20" width="96.5" height="22"></rect>
<a xlink:href="#/expression/SQLSource"><text x="308.25" y="35">SQLSource</text>
</a>
</g>
</g>
<path d="M356.5 31h10"></path>
<path d="M 366.5 31 h 20 m 0 -10 v 20"></path>
</g>
</svg>
