<?xml version="1.0" encoding="UTF-8" standalone="no"?>
<!DOCTYPE svg PUBLIC "-//W3C//DTD SVG 1.1//EN"
 "http://www.w3.org/Graphics/SVG/1.1/DTD/svg11.dtd">
<!-- Generated by graphviz version 2.47.3 (20210619.1520)
 -->
<!-- Title: G Pages: 1 -->
<svg width="359pt" height="141pt"
 viewBox="0.00 0.00 358.83 140.80" xmlns="http://www.w3.org/2000/svg" xmlns:xlink="http://www.w3.org/1999/xlink">
<g id="graph0" class="graph" transform="scale(1 1) rotate(0) translate(4 136.8)">
<title>G</title>
<polygon fill="white" stroke="transparent" points="-4,4 -4,-136.8 354.83,-136.8 354.83,4 -4,4"/>
<text text-anchor="middle" x="104.21" y="-116.2" font-family="Times,serif" font-size="14.00">Where used, expression/Language</text>
<!-- expression/Language -->
<g id="node1" class="node">
<title>expression/Language</title>
<g id="a_node1"><a xlink:href="https://syntax.abaplint.org/#/expression/Language" xlink:title="expression/Language">
<polygon fill="none" stroke="black" points="242.87,-36 107.96,-36 107.96,0 242.87,0 242.87,-36"/>
<text text-anchor="middle" x="175.42" y="-13.8" font-family="Times,serif" font-size="14.00">expression/Language</text>
</a>
</g>
</g>
<!-- statement/MethodImplementation -->
<g id="node2" class="node">
<title>statement/MethodImplementation</title>
<g id="a_node2"><a xlink:href="https://syntax.abaplint.org/#/statement/MethodImplementation" xlink:title="statement/MethodImplementation">
<polygon fill="none" stroke="black" points="350.75,-95.56 175.42,-108 0.08,-95.56 0.25,-75.44 350.59,-75.44 350.75,-95.56"/>
<text text-anchor="middle" x="175.42" y="-85.8" font-family="Times,serif" font-size="14.00">statement/MethodImplementation</text>
</a>
</g>
</g>
<!-- statement/MethodImplementation&#45;&gt;expression/Language -->
<g id="edge1" class="edge">
<title>statement/MethodImplementation&#45;&gt;expression/Language</title>
<path fill="none" stroke="black" d="M175.42,-75.17C175.42,-66.92 175.42,-56.15 175.42,-46.26"/>
<polygon fill="black" stroke="black" points="178.92,-46.02 175.42,-36.02 171.92,-46.02 178.92,-46.02"/>
</g>
</g>
</svg>
