<?xml version="1.0" encoding="UTF-8" standalone="no"?>
<!DOCTYPE svg PUBLIC "-//W3C//DTD SVG 1.1//EN"
 "http://www.w3.org/Graphics/SVG/1.1/DTD/svg11.dtd">
<!-- Generated by graphviz version 2.47.3 (20210619.1520)
 -->
<!-- Title: G Pages: 1 -->
<svg width="478pt" height="141pt"
 viewBox="0.00 0.00 478.18 140.80" xmlns="http://www.w3.org/2000/svg" xmlns:xlink="http://www.w3.org/1999/xlink">
<g id="graph0" class="graph" transform="scale(1 1) rotate(0) translate(4 136.8)">
<title>G</title>
<polygon fill="white" stroke="transparent" points="-4,4 -4,-136.8 474.18,-136.8 474.18,4 -4,4"/>
<text text-anchor="middle" x="118.21" y="-116.2" font-family="Times,serif" font-size="14.00">Where used, expression/FunctionName</text>
<!-- expression/FunctionName -->
<g id="node1" class="node">
<title>expression/FunctionName</title>
<g id="a_node1"><a xlink:href="https://syntax.abaplint.org/#/expression/FunctionName" xlink:title="expression/FunctionName">
<polygon fill="none" stroke="black" points="304.61,-36 141.68,-36 141.68,0 304.61,0 304.61,-36"/>
<text text-anchor="middle" x="223.14" y="-13.8" font-family="Times,serif" font-size="14.00">expression/FunctionName</text>
</a>
</g>
</g>
<!-- statement/Receive -->
<g id="node2" class="node">
<title>statement/Receive</title>
<g id="a_node2"><a xlink:href="https://syntax.abaplint.org/#/statement/Receive" xlink:title="statement/Receive">
<polygon fill="none" stroke="black" points="202.43,-95.56 101.14,-108 -0.14,-95.56 -0.05,-75.44 202.34,-75.44 202.43,-95.56"/>
<text text-anchor="middle" x="101.14" y="-85.8" font-family="Times,serif" font-size="14.00">statement/Receive</text>
</a>
</g>
</g>
<!-- statement/Receive&#45;&gt;expression/FunctionName -->
<g id="edge1" class="edge">
<title>statement/Receive&#45;&gt;expression/FunctionName</title>
<path fill="none" stroke="black" d="M124.96,-75.34C141.91,-65.61 165.07,-52.32 184.64,-41.09"/>
<polygon fill="black" stroke="black" points="186.41,-44.11 193.34,-36.1 182.93,-38.04 186.41,-44.11"/>
</g>
<!-- statement/CallFunction -->
<g id="node3" class="node">
<title>statement/CallFunction</title>
<g id="a_node3"><a xlink:href="https://syntax.abaplint.org/#/statement/CallFunction" xlink:title="statement/CallFunction">
<polygon fill="none" stroke="black" points="470.22,-95.56 345.14,-108 220.07,-95.56 220.18,-75.44 470.1,-75.44 470.22,-95.56"/>
<text text-anchor="middle" x="345.14" y="-85.8" font-family="Times,serif" font-size="14.00">statement/CallFunction</text>
</a>
</g>
</g>
<!-- statement/CallFunction&#45;&gt;expression/FunctionName -->
<g id="edge2" class="edge">
<title>statement/CallFunction&#45;&gt;expression/FunctionName</title>
<path fill="none" stroke="black" d="M321.33,-75.34C304.37,-65.61 281.21,-52.32 261.65,-41.09"/>
<polygon fill="black" stroke="black" points="263.36,-38.04 252.95,-36.1 259.88,-44.11 263.36,-38.04"/>
</g>
</g>
</svg>
