<?xml version="1.0" encoding="UTF-8" standalone="no"?>
<!DOCTYPE svg PUBLIC "-//W3C//DTD SVG 1.1//EN"
 "http://www.w3.org/Graphics/SVG/1.1/DTD/svg11.dtd">
<!-- Generated by graphviz version 2.47.3 (20210619.1520)
 -->
<!-- Title: G Pages: 1 -->
<svg width="268pt" height="141pt"
 viewBox="0.00 0.00 268.50 140.80" xmlns="http://www.w3.org/2000/svg" xmlns:xlink="http://www.w3.org/1999/xlink">
<g id="graph0" class="graph" transform="scale(1 1) rotate(0) translate(4 136.8)">
<title>G</title>
<polygon fill="white" stroke="transparent" points="-4,4 -4,-136.8 264.5,-136.8 264.5,4 -4,4"/>
<text text-anchor="middle" x="130.25" y="-116.2" font-family="Times,serif" font-size="14.00">Where used, expression/ReceiveParameters</text>
<!-- expression/ReceiveParameters -->
<g id="node1" class="node">
<title>expression/ReceiveParameters</title>
<g id="a_node1"><a xlink:href="https://syntax.abaplint.org/#/expression/ReceiveParameters" xlink:title="expression/ReceiveParameters">
<polygon fill="none" stroke="black" points="223.78,-36 36.71,-36 36.71,0 223.78,0 223.78,-36"/>
<text text-anchor="middle" x="130.25" y="-13.8" font-family="Times,serif" font-size="14.00">expression/ReceiveParameters</text>
</a>
</g>
</g>
<!-- statement/Receive -->
<g id="node2" class="node">
<title>statement/Receive</title>
<g id="a_node2"><a xlink:href="https://syntax.abaplint.org/#/statement/Receive" xlink:title="statement/Receive">
<polygon fill="none" stroke="black" points="231.54,-95.56 130.25,-108 28.96,-95.56 29.06,-75.44 231.44,-75.44 231.54,-95.56"/>
<text text-anchor="middle" x="130.25" y="-85.8" font-family="Times,serif" font-size="14.00">statement/Receive</text>
</a>
</g>
</g>
<!-- statement/Receive&#45;&gt;expression/ReceiveParameters -->
<g id="edge1" class="edge">
<title>statement/Receive&#45;&gt;expression/ReceiveParameters</title>
<path fill="none" stroke="black" d="M130.25,-75.17C130.25,-66.92 130.25,-56.15 130.25,-46.26"/>
<polygon fill="black" stroke="black" points="133.75,-46.02 130.25,-36.02 126.75,-46.02 133.75,-46.02"/>
</g>
</g>
</svg>
