<?xml version="1.0" encoding="UTF-8" standalone="no"?>
<!DOCTYPE svg PUBLIC "-//W3C//DTD SVG 1.1//EN"
 "http://www.w3.org/Graphics/SVG/1.1/DTD/svg11.dtd">
<!-- Generated by graphviz version 2.47.3 (20210619.1520)
 -->
<!-- Title: G Pages: 1 -->
<svg width="4854pt" height="285pt"
 viewBox="0.00 0.00 4853.93 284.80" xmlns="http://www.w3.org/2000/svg" xmlns:xlink="http://www.w3.org/1999/xlink">
<g id="graph0" class="graph" transform="scale(1 1) rotate(0) translate(4 280.8)">
<title>G</title>
<polygon fill="white" stroke="transparent" points="-4,4 -4,-280.8 4849.93,-280.8 4849.93,4 -4,4"/>
<text text-anchor="middle" x="145.42" y="-260.2" font-family="Times,serif" font-size="14.00">Where used, expression/NamespaceSimpleName</text>
<!-- expression/NamespaceSimpleName -->
<g id="node1" class="node">
<title>expression/NamespaceSimpleName</title>
<g id="a_node1"><a xlink:href="https://syntax.abaplint.org/#/expression/NamespaceSimpleName" xlink:title="expression/NamespaceSimpleName">
<polygon fill="none" stroke="black" points="2608.14,-36 2390.4,-36 2390.4,0 2608.14,0 2608.14,-36"/>
<text text-anchor="middle" x="2499.27" y="-13.8" font-family="Times,serif" font-size="14.00">expression/NamespaceSimpleName</text>
</a>
</g>
</g>
<!-- expression/FormParam -->
<g id="node2" class="node">
<title>expression/FormParam</title>
<g id="a_node2"><a xlink:href="https://syntax.abaplint.org/#/expression/FormParam" xlink:title="expression/FormParam">
<polygon fill="none" stroke="black" points="329.12,-108 183.41,-108 183.41,-72 329.12,-72 329.12,-108"/>
<text text-anchor="middle" x="256.27" y="-85.8" font-family="Times,serif" font-size="14.00">expression/FormParam</text>
</a>
</g>
</g>
<!-- expression/FormParam&#45;&gt;expression/NamespaceSimpleName -->
<g id="edge1" class="edge">
<title>expression/FormParam&#45;&gt;expression/NamespaceSimpleName</title>
<path fill="none" stroke="black" d="M329.48,-73.14C332.44,-72.72 335.38,-72.33 338.27,-72 738.54,-25.98 1987.63,-19.87 2380.05,-19.1"/>
<polygon fill="black" stroke="black" points="2380.29,-22.6 2390.29,-19.08 2380.28,-15.6 2380.29,-22.6"/>
</g>
<!-- expression/FormChanging -->
<g id="node3" class="node">
<title>expression/FormChanging</title>
<g id="a_node3"><a xlink:href="https://syntax.abaplint.org/#/expression/FormChanging" xlink:title="expression/FormChanging">
<polygon fill="none" stroke="black" points="164.3,-180 0.23,-180 0.23,-144 164.3,-144 164.3,-180"/>
<text text-anchor="middle" x="82.27" y="-157.8" font-family="Times,serif" font-size="14.00">expression/FormChanging</text>
</a>
</g>
</g>
<!-- expression/FormChanging&#45;&gt;expression/FormParam -->
<g id="edge2" class="edge">
<title>expression/FormChanging&#45;&gt;expression/FormParam</title>
<path fill="none" stroke="black" d="M124.83,-143.88C148.83,-134.22 179,-122.09 204.37,-111.88"/>
<polygon fill="black" stroke="black" points="205.87,-115.05 213.84,-108.07 203.26,-108.55 205.87,-115.05"/>
</g>
<!-- statement/Form -->
<g id="node4" class="node">
<title>statement/Form</title>
<g id="a_node4"><a xlink:href="https://syntax.abaplint.org/#/statement/Form" xlink:title="statement/Form">
<polygon fill="none" stroke="black" points="344.9,-239.56 256.27,-252 167.64,-239.56 167.72,-219.44 344.82,-219.44 344.9,-239.56"/>
<text text-anchor="middle" x="256.27" y="-229.8" font-family="Times,serif" font-size="14.00">statement/Form</text>
</a>
</g>
</g>
<!-- statement/Form&#45;&gt;expression/FormChanging -->
<g id="edge3" class="edge">
<title>statement/Form&#45;&gt;expression/FormChanging</title>
<path fill="none" stroke="black" d="M222.31,-219.34C197.25,-209.26 162.7,-195.36 134.19,-183.89"/>
<polygon fill="black" stroke="black" points="135.36,-180.58 124.77,-180.1 132.74,-187.08 135.36,-180.58"/>
</g>
<!-- expression/FormTables -->
<g id="node5" class="node">
<title>expression/FormTables</title>
<g id="a_node5"><a xlink:href="https://syntax.abaplint.org/#/expression/FormTables" xlink:title="expression/FormTables">
<polygon fill="none" stroke="black" points="330.18,-180 182.36,-180 182.36,-144 330.18,-144 330.18,-180"/>
<text text-anchor="middle" x="256.27" y="-157.8" font-family="Times,serif" font-size="14.00">expression/FormTables</text>
</a>
</g>
</g>
<!-- statement/Form&#45;&gt;expression/FormTables -->
<g id="edge5" class="edge">
<title>statement/Form&#45;&gt;expression/FormTables</title>
<path fill="none" stroke="black" d="M256.27,-219.17C256.27,-210.92 256.27,-200.15 256.27,-190.26"/>
<polygon fill="black" stroke="black" points="259.77,-190.02 256.27,-180.02 252.77,-190.02 259.77,-190.02"/>
</g>
<!-- expression/FormUsing -->
<g id="node6" class="node">
<title>expression/FormUsing</title>
<g id="a_node6"><a xlink:href="https://syntax.abaplint.org/#/expression/FormUsing" xlink:title="expression/FormUsing">
<polygon fill="none" stroke="black" points="490.8,-180 347.73,-180 347.73,-144 490.8,-144 490.8,-180"/>
<text text-anchor="middle" x="419.27" y="-157.8" font-family="Times,serif" font-size="14.00">expression/FormUsing</text>
</a>
</g>
</g>
<!-- statement/Form&#45;&gt;expression/FormUsing -->
<g id="edge7" class="edge">
<title>statement/Form&#45;&gt;expression/FormUsing</title>
<path fill="none" stroke="black" d="M288.08,-219.34C311.35,-209.34 343.36,-195.6 369.93,-184.19"/>
<polygon fill="black" stroke="black" points="371.64,-187.26 379.45,-180.1 368.88,-180.83 371.64,-187.26"/>
</g>
<!-- expression/FormTables&#45;&gt;expression/FormParam -->
<g id="edge4" class="edge">
<title>expression/FormTables&#45;&gt;expression/FormParam</title>
<path fill="none" stroke="black" d="M256.27,-143.7C256.27,-135.98 256.27,-126.71 256.27,-118.11"/>
<polygon fill="black" stroke="black" points="259.77,-118.1 256.27,-108.1 252.77,-118.1 259.77,-118.1"/>
</g>
<!-- expression/FormUsing&#45;&gt;expression/FormParam -->
<g id="edge6" class="edge">
<title>expression/FormUsing&#45;&gt;expression/FormParam</title>
<path fill="none" stroke="black" d="M379.39,-143.88C357.11,-134.31 329.15,-122.3 305.51,-112.15"/>
<polygon fill="black" stroke="black" points="306.58,-108.8 296.01,-108.07 303.82,-115.23 306.58,-108.8"/>
</g>
<!-- statement/ClassDataBegin -->
<g id="node7" class="node">
<title>statement/ClassDataBegin</title>
<g id="a_node7"><a xlink:href="https://syntax.abaplint.org/#/statement/ClassDataBegin" xlink:title="statement/ClassDataBegin">
<polygon fill="none" stroke="black" points="626.98,-95.56 487.27,-108 347.55,-95.56 347.68,-75.44 626.85,-75.44 626.98,-95.56"/>
<text text-anchor="middle" x="487.27" y="-85.8" font-family="Times,serif" font-size="14.00">statement/ClassDataBegin</text>
</a>
</g>
</g>
<!-- statement/ClassDataBegin&#45;&gt;expression/NamespaceSimpleName -->
<g id="edge8" class="edge">
<title>statement/ClassDataBegin&#45;&gt;expression/NamespaceSimpleName</title>
<path fill="none" stroke="black" d="M597.02,-75.41C610.23,-74.09 623.54,-72.91 636.27,-72 1293.75,-25.23 2084.52,-19.33 2380.13,-18.88"/>
<polygon fill="black" stroke="black" points="2380.44,-22.38 2390.44,-18.86 2380.43,-15.38 2380.44,-22.38"/>
</g>
<!-- statement/ClassDataEnd -->
<g id="node8" class="node">
<title>statement/ClassDataEnd</title>
<g id="a_node8"><a xlink:href="https://syntax.abaplint.org/#/statement/ClassDataEnd" xlink:title="statement/ClassDataEnd">
<polygon fill="none" stroke="black" points="905.42,-95.56 775.27,-108 645.12,-95.56 645.24,-75.44 905.29,-75.44 905.42,-95.56"/>
<text text-anchor="middle" x="775.27" y="-85.8" font-family="Times,serif" font-size="14.00">statement/ClassDataEnd</text>
</a>
</g>
</g>
<!-- statement/ClassDataEnd&#45;&gt;expression/NamespaceSimpleName -->
<g id="edge9" class="edge">
<title>statement/ClassDataEnd&#45;&gt;expression/NamespaceSimpleName</title>
<path fill="none" stroke="black" d="M878.02,-75.4C890.22,-74.09 902.51,-72.91 914.27,-72 1460.77,-29.53 2115.87,-21.06 2380.13,-19.4"/>
<polygon fill="black" stroke="black" points="2380.53,-22.89 2390.51,-19.33 2380.49,-15.89 2380.53,-22.89"/>
</g>
<!-- statement/LogPoint -->
<g id="node9" class="node">
<title>statement/LogPoint</title>
<g id="a_node9"><a xlink:href="https://syntax.abaplint.org/#/statement/LogPoint" xlink:title="statement/LogPoint">
<polygon fill="none" stroke="black" points="1137.54,-95.56 1030.27,-108 922.99,-95.56 923.09,-75.44 1137.44,-75.44 1137.54,-95.56"/>
<text text-anchor="middle" x="1030.27" y="-85.8" font-family="Times,serif" font-size="14.00">statement/LogPoint</text>
</a>
</g>
</g>
<!-- statement/LogPoint&#45;&gt;expression/NamespaceSimpleName -->
<g id="edge10" class="edge">
<title>statement/LogPoint&#45;&gt;expression/NamespaceSimpleName</title>
<path fill="none" stroke="black" d="M1115.67,-75.43C1125.96,-74.11 1136.34,-72.92 1146.27,-72 1600.64,-29.93 2143.86,-21.19 2379.95,-19.42"/>
<polygon fill="black" stroke="black" points="2380.3,-22.92 2390.28,-19.34 2380.25,-15.92 2380.3,-22.92"/>
</g>
<!-- statement/TypeEnum -->
<g id="node10" class="node">
<title>statement/TypeEnum</title>
<g id="a_node10"><a xlink:href="https://syntax.abaplint.org/#/statement/TypeEnum" xlink:title="statement/TypeEnum">
<polygon fill="none" stroke="black" points="1387.26,-95.56 1271.27,-108 1155.28,-95.56 1155.39,-75.44 1387.15,-75.44 1387.26,-95.56"/>
<text text-anchor="middle" x="1271.27" y="-85.8" font-family="Times,serif" font-size="14.00">statement/TypeEnum</text>
</a>
</g>
</g>
<!-- statement/TypeEnum&#45;&gt;expression/NamespaceSimpleName -->
<g id="edge11" class="edge">
<title>statement/TypeEnum&#45;&gt;expression/NamespaceSimpleName</title>
<path fill="none" stroke="black" d="M1364.34,-75.43C1375.09,-74.14 1385.91,-72.95 1396.27,-72 1753.45,-39.19 2177.67,-26.03 2380.18,-21.32"/>
<polygon fill="black" stroke="black" points="2380.32,-24.82 2390.24,-21.09 2380.16,-17.82 2380.32,-24.82"/>
</g>
<!-- statement/TypeEnumBegin -->
<g id="node11" class="node">
<title>statement/TypeEnumBegin</title>
<g id="a_node11"><a xlink:href="https://syntax.abaplint.org/#/statement/TypeEnumBegin" xlink:title="statement/TypeEnumBegin">
<polygon fill="none" stroke="black" points="1693.28,-95.56 1549.27,-108 1405.25,-95.56 1405.39,-75.44 1693.15,-75.44 1693.28,-95.56"/>
<text text-anchor="middle" x="1549.27" y="-85.8" font-family="Times,serif" font-size="14.00">statement/TypeEnumBegin</text>
</a>
</g>
</g>
<!-- statement/TypeEnumBegin&#45;&gt;expression/NamespaceSimpleName -->
<g id="edge12" class="edge">
<title>statement/TypeEnumBegin&#45;&gt;expression/NamespaceSimpleName</title>
<path fill="none" stroke="black" d="M1666.58,-75.43C1678.63,-74.2 1690.69,-73.03 1702.27,-72 1942.69,-50.66 2224.61,-33.84 2380.46,-25.26"/>
<polygon fill="black" stroke="black" points="2380.75,-28.74 2390.54,-24.7 2380.36,-21.76 2380.75,-28.74"/>
</g>
<!-- statement/TypeEnumEnd -->
<g id="node12" class="node">
<title>statement/TypeEnumEnd</title>
<g id="a_node12"><a xlink:href="https://syntax.abaplint.org/#/statement/TypeEnumEnd" xlink:title="statement/TypeEnumEnd">
<polygon fill="none" stroke="black" points="1981.21,-95.56 1846.27,-108 1711.32,-95.56 1711.45,-75.44 1981.09,-75.44 1981.21,-95.56"/>
<text text-anchor="middle" x="1846.27" y="-85.8" font-family="Times,serif" font-size="14.00">statement/TypeEnumEnd</text>
</a>
</g>
</g>
<!-- statement/TypeEnumEnd&#45;&gt;expression/NamespaceSimpleName -->
<g id="edge13" class="edge">
<title>statement/TypeEnumEnd&#45;&gt;expression/NamespaceSimpleName</title>
<path fill="none" stroke="black" d="M1960.23,-75.4C1970.38,-74.23 1980.51,-73.08 1990.27,-72 2123.79,-57.17 2277.17,-41.37 2380.36,-30.91"/>
<polygon fill="black" stroke="black" points="2380.9,-34.38 2390.5,-29.89 2380.2,-27.41 2380.9,-34.38"/>
</g>
<!-- statement/Assert -->
<g id="node13" class="node">
<title>statement/Assert</title>
<g id="a_node13"><a xlink:href="https://syntax.abaplint.org/#/statement/Assert" xlink:title="statement/Assert">
<polygon fill="none" stroke="black" points="2185.66,-95.56 2092.27,-108 1998.88,-95.56 1998.97,-75.44 2185.57,-75.44 2185.66,-95.56"/>
<text text-anchor="middle" x="2092.27" y="-85.8" font-family="Times,serif" font-size="14.00">statement/Assert</text>
</a>
</g>
</g>
<!-- statement/Assert&#45;&gt;expression/NamespaceSimpleName -->
<g id="edge14" class="edge">
<title>statement/Assert&#45;&gt;expression/NamespaceSimpleName</title>
<path fill="none" stroke="black" d="M2171.22,-75.42C2233.58,-64.7 2321.28,-49.61 2390.32,-37.74"/>
<polygon fill="black" stroke="black" points="2391.1,-41.16 2400.36,-36.01 2389.91,-34.26 2391.1,-41.16"/>
</g>
<!-- statement/Type -->
<g id="node14" class="node">
<title>statement/Type</title>
<g id="a_node14"><a xlink:href="https://syntax.abaplint.org/#/statement/Type" xlink:title="statement/Type">
<polygon fill="none" stroke="black" points="2377.73,-95.56 2290.27,-108 2202.81,-95.56 2202.89,-75.44 2377.65,-75.44 2377.73,-95.56"/>
<text text-anchor="middle" x="2290.27" y="-85.8" font-family="Times,serif" font-size="14.00">statement/Type</text>
</a>
</g>
</g>
<!-- statement/Type&#45;&gt;expression/NamespaceSimpleName -->
<g id="edge15" class="edge">
<title>statement/Type&#45;&gt;expression/NamespaceSimpleName</title>
<path fill="none" stroke="black" d="M2331.06,-75.34C2361.68,-65.08 2404.11,-50.87 2438.68,-39.29"/>
<polygon fill="black" stroke="black" points="2439.84,-42.59 2448.21,-36.1 2437.62,-35.96 2439.84,-42.59"/>
</g>
<!-- statement/Controls -->
<g id="node15" class="node">
<title>statement/Controls</title>
<g id="a_node15"><a xlink:href="https://syntax.abaplint.org/#/statement/Controls" xlink:title="statement/Controls">
<polygon fill="none" stroke="black" points="2602.91,-95.56 2499.27,-108 2395.63,-95.56 2395.73,-75.44 2602.81,-75.44 2602.91,-95.56"/>
<text text-anchor="middle" x="2499.27" y="-85.8" font-family="Times,serif" font-size="14.00">statement/Controls</text>
</a>
</g>
</g>
<!-- statement/Controls&#45;&gt;expression/NamespaceSimpleName -->
<g id="edge16" class="edge">
<title>statement/Controls&#45;&gt;expression/NamespaceSimpleName</title>
<path fill="none" stroke="black" d="M2499.27,-75.17C2499.27,-66.92 2499.27,-56.15 2499.27,-46.26"/>
<polygon fill="black" stroke="black" points="2502.77,-46.02 2499.27,-36.02 2495.77,-46.02 2502.77,-46.02"/>
</g>
<!-- statement/DeleteCluster -->
<g id="node16" class="node">
<title>statement/DeleteCluster</title>
<g id="a_node16"><a xlink:href="https://syntax.abaplint.org/#/statement/DeleteCluster" xlink:title="statement/DeleteCluster">
<polygon fill="none" stroke="black" points="2877.42,-95.56 2749.27,-108 2621.11,-95.56 2621.23,-75.44 2877.3,-75.44 2877.42,-95.56"/>
<text text-anchor="middle" x="2749.27" y="-85.8" font-family="Times,serif" font-size="14.00">statement/DeleteCluster</text>
</a>
</g>
</g>
<!-- statement/DeleteCluster&#45;&gt;expression/NamespaceSimpleName -->
<g id="edge17" class="edge">
<title>statement/DeleteCluster&#45;&gt;expression/NamespaceSimpleName</title>
<path fill="none" stroke="black" d="M2700.77,-75.42C2663.57,-65 2611.68,-50.47 2569.87,-38.77"/>
<polygon fill="black" stroke="black" points="2570.6,-35.34 2560.02,-36.01 2568.71,-42.08 2570.6,-35.34"/>
</g>
<!-- statement/Submit -->
<g id="node17" class="node">
<title>statement/Submit</title>
<g id="a_node17"><a xlink:href="https://syntax.abaplint.org/#/statement/Submit" xlink:title="statement/Submit">
<polygon fill="none" stroke="black" points="3090.66,-95.56 2993.27,-108 2895.88,-95.56 2895.97,-75.44 3090.57,-75.44 3090.66,-95.56"/>
<text text-anchor="middle" x="2993.27" y="-85.8" font-family="Times,serif" font-size="14.00">statement/Submit</text>
</a>
</g>
</g>
<!-- statement/Submit&#45;&gt;expression/NamespaceSimpleName -->
<g id="edge18" class="edge">
<title>statement/Submit&#45;&gt;expression/NamespaceSimpleName</title>
<path fill="none" stroke="black" d="M2908.89,-75.42C2901.25,-74.24 2893.62,-73.09 2886.27,-72 2796.55,-58.73 2694.94,-44.86 2618.36,-34.64"/>
<polygon fill="black" stroke="black" points="2618.58,-31.14 2608.2,-33.28 2617.65,-38.07 2618.58,-31.14"/>
</g>
<!-- statement/Export -->
<g id="node18" class="node">
<title>statement/Export</title>
<g id="a_node18"><a xlink:href="https://syntax.abaplint.org/#/statement/Export" xlink:title="statement/Export">
<polygon fill="none" stroke="black" points="3298.65,-95.56 3203.27,-108 3107.89,-95.56 3107.98,-75.44 3298.56,-75.44 3298.65,-95.56"/>
<text text-anchor="middle" x="3203.27" y="-85.8" font-family="Times,serif" font-size="14.00">statement/Export</text>
</a>
</g>
</g>
<!-- statement/Export&#45;&gt;expression/NamespaceSimpleName -->
<g id="edge19" class="edge">
<title>statement/Export&#45;&gt;expression/NamespaceSimpleName</title>
<path fill="none" stroke="black" d="M3123.86,-75.4C3115.57,-74.17 3107.25,-73 3099.27,-72 2932.88,-51.08 2739.5,-35.57 2618.24,-26.9"/>
<polygon fill="black" stroke="black" points="2618.41,-23.41 2608.19,-26.19 2617.92,-30.39 2618.41,-23.41"/>
</g>
<!-- statement/Import -->
<g id="node19" class="node">
<title>statement/Import</title>
<g id="a_node19"><a xlink:href="https://syntax.abaplint.org/#/statement/Import" xlink:title="statement/Import">
<polygon fill="none" stroke="black" points="3506.65,-95.56 3411.27,-108 3315.89,-95.56 3315.98,-75.44 3506.56,-75.44 3506.65,-95.56"/>
<text text-anchor="middle" x="3411.27" y="-85.8" font-family="Times,serif" font-size="14.00">statement/Import</text>
</a>
</g>
</g>
<!-- statement/Import&#45;&gt;expression/NamespaceSimpleName -->
<g id="edge20" class="edge">
<title>statement/Import&#45;&gt;expression/NamespaceSimpleName</title>
<path fill="none" stroke="black" d="M3333.3,-75.42C3324.53,-74.14 3315.72,-72.97 3307.27,-72 3063.31,-44.13 2776.12,-29.62 2618.25,-23.21"/>
<polygon fill="black" stroke="black" points="2618.17,-19.7 2608.04,-22.8 2617.89,-26.7 2618.17,-19.7"/>
</g>
<!-- statement/MethodDef -->
<g id="node20" class="node">
<title>statement/MethodDef</title>
<g id="a_node20"><a xlink:href="https://syntax.abaplint.org/#/statement/MethodDef" xlink:title="statement/MethodDef">
<polygon fill="none" stroke="black" points="3760.22,-95.56 3642.27,-108 3524.32,-95.56 3524.43,-75.44 3760.11,-75.44 3760.22,-95.56"/>
<text text-anchor="middle" x="3642.27" y="-85.8" font-family="Times,serif" font-size="14.00">statement/MethodDef</text>
</a>
</g>
</g>
<!-- statement/MethodDef&#45;&gt;expression/NamespaceSimpleName -->
<g id="edge21" class="edge">
<title>statement/MethodDef&#45;&gt;expression/NamespaceSimpleName</title>
<path fill="none" stroke="black" d="M3547.01,-75.4C3536.32,-74.13 3525.57,-72.96 3515.27,-72 3191.52,-41.94 2808.03,-27.7 2618.12,-22.08"/>
<polygon fill="black" stroke="black" points="2618.21,-18.58 2608.11,-21.79 2618,-25.58 2618.21,-18.58"/>
</g>
<!-- statement/CallTransformation -->
<g id="node21" class="node">
<title>statement/CallTransformation</title>
<g id="a_node21"><a xlink:href="https://syntax.abaplint.org/#/statement/CallTransformation" xlink:title="statement/CallTransformation">
<polygon fill="none" stroke="black" points="4091.95,-95.56 3935.27,-108 3778.58,-95.56 3778.73,-75.44 4091.81,-75.44 4091.95,-95.56"/>
<text text-anchor="middle" x="3935.27" y="-85.8" font-family="Times,serif" font-size="14.00">statement/CallTransformation</text>
</a>
</g>
</g>
<!-- statement/CallTransformation&#45;&gt;expression/NamespaceSimpleName -->
<g id="edge22" class="edge">
<title>statement/CallTransformation&#45;&gt;expression/NamespaceSimpleName</title>
<path fill="none" stroke="black" d="M3810.7,-75.42C3796.74,-74.14 3782.7,-72.97 3769.27,-72 3346.55,-41.56 2843.34,-26.97 2618.3,-21.57"/>
<polygon fill="black" stroke="black" points="2618.2,-18.07 2608.12,-21.33 2618.03,-25.07 2618.2,-18.07"/>
</g>
<!-- statement/TypeBegin -->
<g id="node22" class="node">
<title>statement/TypeBegin</title>
<g id="a_node22"><a xlink:href="https://syntax.abaplint.org/#/statement/TypeBegin" xlink:title="statement/TypeBegin">
<polygon fill="none" stroke="black" points="4342.25,-95.56 4226.27,-108 4110.28,-95.56 4110.39,-75.44 4342.15,-75.44 4342.25,-95.56"/>
<text text-anchor="middle" x="4226.27" y="-85.8" font-family="Times,serif" font-size="14.00">statement/TypeBegin</text>
</a>
</g>
</g>
<!-- statement/TypeBegin&#45;&gt;expression/NamespaceSimpleName -->
<g id="edge23" class="edge">
<title>statement/TypeBegin&#45;&gt;expression/NamespaceSimpleName</title>
<path fill="none" stroke="black" d="M4134.23,-75.4C4123.14,-74.08 4111.96,-72.9 4101.27,-72 3548.25,-25.37 2884.61,-19.23 2618.34,-18.79"/>
<polygon fill="black" stroke="black" points="2618.27,-15.29 2608.27,-18.78 2618.26,-22.29 2618.27,-15.29"/>
</g>
<!-- statement/TypeEnd -->
<g id="node23" class="node">
<title>statement/TypeEnd</title>
<g id="a_node23"><a xlink:href="https://syntax.abaplint.org/#/statement/TypeEnd" xlink:title="statement/TypeEnd">
<polygon fill="none" stroke="black" points="4572.69,-95.56 4466.27,-108 4359.85,-95.56 4359.95,-75.44 4572.59,-75.44 4572.69,-95.56"/>
<text text-anchor="middle" x="4466.27" y="-85.8" font-family="Times,serif" font-size="14.00">statement/TypeEnd</text>
</a>
</g>
</g>
<!-- statement/TypeEnd&#45;&gt;expression/NamespaceSimpleName -->
<g id="edge24" class="edge">
<title>statement/TypeEnd&#45;&gt;expression/NamespaceSimpleName</title>
<path fill="none" stroke="black" d="M4382.24,-75.41C4371.83,-74.07 4361.32,-72.88 4351.27,-72 4012.77,-42.24 2971.52,-25.5 2618.07,-20.56"/>
<polygon fill="black" stroke="black" points="2618.12,-17.06 2608.07,-20.42 2618.02,-24.06 2618.12,-17.06"/>
</g>
<!-- statement/Enhancement -->
<g id="node24" class="node">
<title>statement/Enhancement</title>
<g id="a_node24"><a xlink:href="https://syntax.abaplint.org/#/statement/Enhancement" xlink:title="statement/Enhancement">
<polygon fill="none" stroke="black" points="4846.1,-95.56 4718.27,-108 4590.44,-95.56 4590.56,-75.44 4845.98,-75.44 4846.1,-95.56"/>
<text text-anchor="middle" x="4718.27" y="-85.8" font-family="Times,serif" font-size="14.00">statement/Enhancement</text>
</a>
</g>
</g>
<!-- statement/Enhancement&#45;&gt;expression/NamespaceSimpleName -->
<g id="edge25" class="edge">
<title>statement/Enhancement&#45;&gt;expression/NamespaceSimpleName</title>
<path fill="none" stroke="black" d="M4618.12,-75.42C4605.73,-74.08 4593.22,-72.89 4581.27,-72 4195.59,-43.23 3000.63,-25.53 2618.25,-20.49"/>
<polygon fill="black" stroke="black" points="2618.04,-16.99 2608,-20.36 2617.95,-23.99 2618.04,-16.99"/>
</g>
</g>
</svg>
