<?xml version="1.0" encoding="UTF-8" standalone="no"?>
<!DOCTYPE svg PUBLIC "-//W3C//DTD SVG 1.1//EN"
 "http://www.w3.org/Graphics/SVG/1.1/DTD/svg11.dtd">
<!-- Generated by graphviz version 2.47.3 (20210619.1520)
 -->
<!-- Title: G Pages: 1 -->
<svg width="1801pt" height="501pt"
 viewBox="0.00 0.00 1800.73 500.80" xmlns="http://www.w3.org/2000/svg" xmlns:xlink="http://www.w3.org/1999/xlink">
<g id="graph0" class="graph" transform="scale(1 1) rotate(0) translate(4 496.8)">
<title>G</title>
<polygon fill="white" stroke="transparent" points="-4,4 -4,-496.8 1796.73,-496.8 1796.73,4 -4,4"/>
<text text-anchor="middle" x="117.04" y="-476.2" font-family="Times,serif" font-size="14.00">Where used, expression/SQLIntoTable</text>
<!-- expression/SQLIntoTable -->
<g id="node1" class="node">
<title>expression/SQLIntoTable</title>
<g id="a_node1"><a xlink:href="https://syntax.abaplint.org/#/expression/SQLIntoTable" xlink:title="expression/SQLIntoTable">
<polygon fill="none" stroke="black" points="1512.72,-108 1352.46,-108 1352.46,-72 1512.72,-72 1512.72,-108"/>
<text text-anchor="middle" x="1432.59" y="-85.8" font-family="Times,serif" font-size="14.00">expression/SQLIntoTable</text>
</a>
</g>
</g>
<!-- expression/SelectLoop -->
<g id="node2" class="node">
<title>expression/SelectLoop</title>
<g id="a_node2"><a xlink:href="https://syntax.abaplint.org/#/expression/SelectLoop" xlink:title="expression/SelectLoop">
<polygon fill="none" stroke="black" points="1325.11,-396 1182.07,-396 1182.07,-360 1325.11,-360 1325.11,-396"/>
<text text-anchor="middle" x="1253.59" y="-373.8" font-family="Times,serif" font-size="14.00">expression/SelectLoop</text>
</a>
</g>
</g>
<!-- expression/SelectLoop&#45;&gt;expression/SQLIntoTable -->
<g id="edge1" class="edge">
<title>expression/SelectLoop&#45;&gt;expression/SQLIntoTable</title>
<path fill="none" stroke="black" d="M1325.12,-369.59C1355.46,-362.66 1388.41,-349.37 1408.59,-324 1456.38,-263.92 1446.74,-165.73 1438.38,-118.32"/>
<polygon fill="black" stroke="black" points="1441.76,-117.39 1436.48,-108.21 1434.88,-118.68 1441.76,-117.39"/>
</g>
<!-- expression/SQLCond -->
<g id="node8" class="node">
<title>expression/SQLCond</title>
<g id="a_node8"><a xlink:href="https://syntax.abaplint.org/#/expression/SQLCond" xlink:title="expression/SQLCond">
<polygon fill="none" stroke="black" points="494.63,-324 358.55,-324 358.55,-288 494.63,-288 494.63,-324"/>
<text text-anchor="middle" x="426.59" y="-301.8" font-family="Times,serif" font-size="14.00">expression/SQLCond</text>
</a>
</g>
</g>
<!-- expression/SelectLoop&#45;&gt;expression/SQLCond -->
<g id="edge8" class="edge">
<title>expression/SelectLoop&#45;&gt;expression/SQLCond</title>
<path fill="none" stroke="black" d="M1182.01,-370.94C1027.75,-357.88 665.03,-327.18 504.91,-313.63"/>
<polygon fill="black" stroke="black" points="504.92,-310.12 494.66,-312.76 504.33,-317.09 504.92,-310.12"/>
</g>
<!-- expression/SQLCase -->
<g id="node9" class="node">
<title>expression/SQLCase</title>
<g id="a_node9"><a xlink:href="https://syntax.abaplint.org/#/expression/SQLCase" xlink:title="expression/SQLCase">
<polygon fill="none" stroke="black" points="1073.5,-36 939.68,-36 939.68,0 1073.5,0 1073.5,-36"/>
<text text-anchor="middle" x="1006.59" y="-13.8" font-family="Times,serif" font-size="14.00">expression/SQLCase</text>
</a>
</g>
</g>
<!-- expression/SelectLoop&#45;&gt;expression/SQLCase -->
<g id="edge11" class="edge">
<title>expression/SelectLoop&#45;&gt;expression/SQLCase</title>
<path fill="none" stroke="black" d="M1325.21,-372.61C1468.88,-361.83 1778.59,-327.83 1778.59,-235 1778.59,-235 1778.59,-235 1778.59,-161 1778.59,-125.35 1882.66,-144.5 1521.59,-72 1368.02,-41.16 1184.89,-27.75 1083.6,-22.33"/>
<polygon fill="black" stroke="black" points="1083.63,-18.82 1073.46,-21.8 1083.26,-25.82 1083.63,-18.82"/>
</g>
<!-- expression/SQLFieldList -->
<g id="node10" class="node">
<title>expression/SQLFieldList</title>
<g id="a_node10"><a xlink:href="https://syntax.abaplint.org/#/expression/SQLFieldList" xlink:title="expression/SQLFieldList">
<polygon fill="none" stroke="black" points="1084.85,-108 928.33,-108 928.33,-72 1084.85,-72 1084.85,-108"/>
<text text-anchor="middle" x="1006.59" y="-85.8" font-family="Times,serif" font-size="14.00">expression/SQLFieldList</text>
</a>
</g>
</g>
<!-- expression/SelectLoop&#45;&gt;expression/SQLFieldList -->
<g id="edge13" class="edge">
<title>expression/SelectLoop&#45;&gt;expression/SQLFieldList</title>
<path fill="none" stroke="black" d="M1283.73,-359.83C1331.09,-330.64 1413.81,-269.3 1375.59,-216 1312.18,-127.57 1182.74,-100.92 1095.3,-93.32"/>
<polygon fill="black" stroke="black" points="1095.37,-89.82 1085.12,-92.51 1094.81,-96.79 1095.37,-89.82"/>
</g>
<!-- expression/SQLFrom -->
<g id="node12" class="node">
<title>expression/SQLFrom</title>
<g id="a_node12"><a xlink:href="https://syntax.abaplint.org/#/expression/SQLFrom" xlink:title="expression/SQLFrom">
<polygon fill="none" stroke="black" points="639.63,-108 503.55,-108 503.55,-72 639.63,-72 639.63,-108"/>
<text text-anchor="middle" x="571.59" y="-85.8" font-family="Times,serif" font-size="14.00">expression/SQLFrom</text>
</a>
</g>
</g>
<!-- expression/SelectLoop&#45;&gt;expression/SQLFrom -->
<g id="edge18" class="edge">
<title>expression/SelectLoop&#45;&gt;expression/SQLFrom</title>
<path fill="none" stroke="black" d="M1181.87,-371.47C1035.85,-358.83 710.86,-323.28 628.59,-252 589.19,-217.86 577.02,-154.68 573.27,-118.45"/>
<polygon fill="black" stroke="black" points="576.72,-117.78 572.35,-108.13 569.75,-118.4 576.72,-117.78"/>
</g>
<!-- statement/SelectLoop -->
<g id="node3" class="node">
<title>statement/SelectLoop</title>
<g id="a_node3"><a xlink:href="https://syntax.abaplint.org/#/statement/SelectLoop" xlink:title="statement/SelectLoop">
<polygon fill="none" stroke="black" points="1300.72,-455.56 1183.59,-468 1066.46,-455.56 1066.57,-435.44 1300.61,-435.44 1300.72,-455.56"/>
<text text-anchor="middle" x="1183.59" y="-445.8" font-family="Times,serif" font-size="14.00">statement/SelectLoop</text>
</a>
</g>
</g>
<!-- statement/SelectLoop&#45;&gt;expression/SelectLoop -->
<g id="edge2" class="edge">
<title>statement/SelectLoop&#45;&gt;expression/SelectLoop</title>
<path fill="none" stroke="black" d="M1197.42,-435.17C1206.55,-426.04 1218.76,-413.83 1229.46,-403.13"/>
<polygon fill="black" stroke="black" points="1231.97,-405.57 1236.57,-396.02 1227.02,-400.62 1231.97,-405.57"/>
</g>
<!-- statement/WithLoop -->
<g id="node4" class="node">
<title>statement/WithLoop</title>
<g id="a_node4"><a xlink:href="https://syntax.abaplint.org/#/statement/WithLoop" xlink:title="statement/WithLoop">
<polygon fill="none" stroke="black" points="1542.13,-455.56 1430.59,-468 1319.05,-455.56 1319.15,-435.44 1542.02,-435.44 1542.13,-455.56"/>
<text text-anchor="middle" x="1430.59" y="-445.8" font-family="Times,serif" font-size="14.00">statement/WithLoop</text>
</a>
</g>
</g>
<!-- statement/WithLoop&#45;&gt;expression/SelectLoop -->
<g id="edge3" class="edge">
<title>statement/WithLoop&#45;&gt;expression/SelectLoop</title>
<path fill="none" stroke="black" d="M1396.04,-435.34C1370.55,-425.26 1335.41,-411.36 1306.4,-399.89"/>
<polygon fill="black" stroke="black" points="1307.41,-396.52 1296.83,-396.1 1304.84,-403.03 1307.41,-396.52"/>
</g>
<!-- statement/With -->
<g id="node5" class="node">
<title>statement/With</title>
<g id="a_node5"><a xlink:href="https://syntax.abaplint.org/#/statement/With" xlink:title="statement/With">
<polygon fill="none" stroke="black" points="767.23,-455.56 680.59,-468 593.94,-455.56 594.03,-435.44 767.15,-435.44 767.23,-455.56"/>
<text text-anchor="middle" x="680.59" y="-445.8" font-family="Times,serif" font-size="14.00">statement/With</text>
</a>
</g>
</g>
<!-- statement/With&#45;&gt;expression/SelectLoop -->
<g id="edge4" class="edge">
<title>statement/With&#45;&gt;expression/SelectLoop</title>
<path fill="none" stroke="black" d="M767.3,-438.41C877.02,-425 1064.57,-402.09 1171.87,-388.98"/>
<polygon fill="black" stroke="black" points="1172.49,-392.43 1181.99,-387.75 1171.64,-385.49 1172.49,-392.43"/>
</g>
<!-- expression/Select -->
<g id="node6" class="node">
<title>expression/Select</title>
<g id="a_node6"><a xlink:href="https://syntax.abaplint.org/#/expression/Select" xlink:title="expression/Select">
<polygon fill="none" stroke="black" points="815.56,-180 701.62,-180 701.62,-144 815.56,-144 815.56,-180"/>
<text text-anchor="middle" x="758.59" y="-157.8" font-family="Times,serif" font-size="14.00">expression/Select</text>
</a>
</g>
</g>
<!-- statement/With&#45;&gt;expression/Select -->
<g id="edge23" class="edge">
<title>statement/With&#45;&gt;expression/Select</title>
<path fill="none" stroke="black" d="M670.9,-435.32C645.19,-397.17 580.38,-287.72 628.59,-216 642.93,-194.67 667.52,-181.92 691.48,-174.3"/>
<polygon fill="black" stroke="black" points="692.7,-177.59 701.32,-171.43 690.74,-170.87 692.7,-177.59"/>
</g>
<!-- expression/Select&#45;&gt;expression/SQLIntoTable -->
<g id="edge5" class="edge">
<title>expression/Select&#45;&gt;expression/SQLIntoTable</title>
<path fill="none" stroke="black" d="M815.76,-155.06C932.9,-142.9 1200.98,-115.05 1342.02,-100.41"/>
<polygon fill="black" stroke="black" points="1342.78,-103.85 1352.37,-99.33 1342.06,-96.88 1342.78,-103.85"/>
</g>
<!-- expression/Select&#45;&gt;expression/SQLCond -->
<g id="edge9" class="edge">
<title>expression/Select&#45;&gt;expression/SQLCond</title>
<path fill="none" stroke="black" d="M701.52,-178.95C669.84,-188.45 629.99,-201.47 595.59,-216 549.1,-235.63 498.16,-263.38 464.49,-282.65"/>
<polygon fill="black" stroke="black" points="462.38,-279.82 455.46,-287.85 465.88,-285.89 462.38,-279.82"/>
</g>
<!-- expression/Select&#45;&gt;expression/SQLFieldList -->
<g id="edge14" class="edge">
<title>expression/Select&#45;&gt;expression/SQLFieldList</title>
<path fill="none" stroke="black" d="M815.8,-144.85C851.65,-134.73 898.11,-121.62 936.21,-110.87"/>
<polygon fill="black" stroke="black" points="937.54,-114.13 946.21,-108.04 935.64,-107.39 937.54,-114.13"/>
</g>
<!-- expression/Select&#45;&gt;expression/SQLFrom -->
<g id="edge19" class="edge">
<title>expression/Select&#45;&gt;expression/SQLFrom</title>
<path fill="none" stroke="black" d="M712.84,-143.88C686.83,-134.14 654.06,-121.87 626.64,-111.61"/>
<polygon fill="black" stroke="black" points="627.78,-108.3 617.19,-108.07 625.32,-114.85 627.78,-108.3"/>
</g>
<!-- expression/SQLCompare -->
<g id="node7" class="node">
<title>expression/SQLCompare</title>
<g id="a_node7"><a xlink:href="https://syntax.abaplint.org/#/expression/SQLCompare" xlink:title="expression/SQLCompare">
<polygon fill="none" stroke="black" points="505.11,-252 348.07,-252 348.07,-216 505.11,-216 505.11,-252"/>
<text text-anchor="middle" x="426.59" y="-229.8" font-family="Times,serif" font-size="14.00">expression/SQLCompare</text>
</a>
</g>
</g>
<!-- expression/SQLCompare&#45;&gt;expression/Select -->
<g id="edge6" class="edge">
<title>expression/SQLCompare&#45;&gt;expression/Select</title>
<path fill="none" stroke="black" d="M505.27,-216.41C562.04,-204.44 637.86,-188.45 691.72,-177.1"/>
<polygon fill="black" stroke="black" points="692.45,-180.52 701.51,-175.03 691,-173.67 692.45,-180.52"/>
</g>
<!-- expression/SQLCond&#45;&gt;expression/SQLCompare -->
<g id="edge7" class="edge">
<title>expression/SQLCond&#45;&gt;expression/SQLCompare</title>
<path fill="none" stroke="black" d="M426.59,-287.7C426.59,-279.98 426.59,-270.71 426.59,-262.11"/>
<polygon fill="black" stroke="black" points="430.09,-262.1 426.59,-252.1 423.09,-262.1 430.09,-262.1"/>
</g>
<!-- expression/SQLCond&#45;&gt;expression/SQLCond -->
<g id="edge15" class="edge">
<title>expression/SQLCond&#45;&gt;expression/SQLCond</title>
<path fill="none" stroke="black" d="M494.93,-318.37C505.59,-316.52 512.86,-312.4 512.86,-306 512.86,-301.8 509.73,-298.58 504.56,-296.34"/>
<polygon fill="black" stroke="black" points="505.51,-292.97 494.93,-293.63 503.61,-299.71 505.51,-292.97"/>
</g>
<!-- expression/SQLCase&#45;&gt;expression/SQLCond -->
<g id="edge10" class="edge">
<title>expression/SQLCase&#45;&gt;expression/SQLCond</title>
<path fill="none" stroke="black" d="M939.84,-20.71C819.74,-24.62 572.47,-36.82 494.59,-72 408.6,-110.84 376.43,-129.57 338.59,-216 332.17,-230.66 330.72,-238.07 338.59,-252 345.93,-264.99 357.88,-275.16 370.63,-282.95"/>
<polygon fill="black" stroke="black" points="369.12,-286.11 379.55,-287.97 372.55,-280.01 369.12,-286.11"/>
</g>
<!-- expression/SQLFieldList&#45;&gt;expression/SQLCase -->
<g id="edge12" class="edge">
<title>expression/SQLFieldList&#45;&gt;expression/SQLCase</title>
<path fill="none" stroke="black" d="M1006.59,-71.7C1006.59,-63.98 1006.59,-54.71 1006.59,-46.11"/>
<polygon fill="black" stroke="black" points="1010.09,-46.1 1006.59,-36.1 1003.09,-46.1 1010.09,-46.1"/>
</g>
<!-- expression/SQLJoin -->
<g id="node11" class="node">
<title>expression/SQLJoin</title>
<g id="a_node11"><a xlink:href="https://syntax.abaplint.org/#/expression/SQLJoin" xlink:title="expression/SQLJoin">
<polygon fill="none" stroke="black" points="491.13,-36 362.05,-36 362.05,0 491.13,0 491.13,-36"/>
<text text-anchor="middle" x="426.59" y="-13.8" font-family="Times,serif" font-size="14.00">expression/SQLJoin</text>
</a>
</g>
</g>
<!-- expression/SQLJoin&#45;&gt;expression/SQLCond -->
<g id="edge16" class="edge">
<title>expression/SQLJoin&#45;&gt;expression/SQLCond</title>
<path fill="none" stroke="black" d="M361.81,-32.21C340.2,-40.03 318.39,-52.42 305.59,-72 261.82,-138.96 261.82,-185.04 305.59,-252 315.81,-267.63 331.77,-278.68 348.78,-286.48"/>
<polygon fill="black" stroke="black" points="347.73,-289.84 358.31,-290.49 350.45,-283.38 347.73,-289.84"/>
</g>
<!-- expression/SQLFrom&#45;&gt;expression/SQLJoin -->
<g id="edge17" class="edge">
<title>expression/SQLFrom&#45;&gt;expression/SQLJoin</title>
<path fill="none" stroke="black" d="M536.12,-71.88C516.47,-62.39 491.87,-50.51 470.96,-40.42"/>
<polygon fill="black" stroke="black" points="472.47,-37.26 461.95,-36.07 469.43,-43.57 472.47,-37.26"/>
</g>
<!-- statement/DeleteDatabase -->
<g id="node13" class="node">
<title>statement/DeleteDatabase</title>
<g id="a_node13"><a xlink:href="https://syntax.abaplint.org/#/statement/DeleteDatabase" xlink:title="statement/DeleteDatabase">
<polygon fill="none" stroke="black" points="275.27,-383.56 137.59,-396 -0.09,-383.56 0.04,-363.44 275.14,-363.44 275.27,-383.56"/>
<text text-anchor="middle" x="137.59" y="-373.8" font-family="Times,serif" font-size="14.00">statement/DeleteDatabase</text>
</a>
</g>
</g>
<!-- statement/DeleteDatabase&#45;&gt;expression/SQLCond -->
<g id="edge20" class="edge">
<title>statement/DeleteDatabase&#45;&gt;expression/SQLCond</title>
<path fill="none" stroke="black" d="M193.65,-363.42C237.73,-352.75 299.64,-337.75 348.55,-325.9"/>
<polygon fill="black" stroke="black" points="349.57,-329.26 358.47,-323.5 347.92,-322.45 349.57,-329.26"/>
</g>
<!-- statement/UpdateDatabase -->
<g id="node14" class="node">
<title>statement/UpdateDatabase</title>
<g id="a_node14"><a xlink:href="https://syntax.abaplint.org/#/statement/UpdateDatabase" xlink:title="statement/UpdateDatabase">
<polygon fill="none" stroke="black" points="574.41,-383.56 433.59,-396 292.77,-383.56 292.9,-363.44 574.28,-363.44 574.41,-383.56"/>
<text text-anchor="middle" x="433.59" y="-373.8" font-family="Times,serif" font-size="14.00">statement/UpdateDatabase</text>
</a>
</g>
</g>
<!-- statement/UpdateDatabase&#45;&gt;expression/SQLCond -->
<g id="edge21" class="edge">
<title>statement/UpdateDatabase&#45;&gt;expression/SQLCond</title>
<path fill="none" stroke="black" d="M432.21,-363.17C431.38,-354.92 430.3,-344.15 429.32,-334.26"/>
<polygon fill="black" stroke="black" points="432.77,-333.62 428.29,-324.02 425.8,-334.32 432.77,-333.62"/>
</g>
<!-- statement/Select -->
<g id="node15" class="node">
<title>statement/Select</title>
<g id="a_node15"><a xlink:href="https://syntax.abaplint.org/#/statement/Select" xlink:title="statement/Select">
<polygon fill="none" stroke="black" points="1081.33,-239.56 989.59,-252 897.85,-239.56 897.94,-219.44 1081.24,-219.44 1081.33,-239.56"/>
<text text-anchor="middle" x="989.59" y="-229.8" font-family="Times,serif" font-size="14.00">statement/Select</text>
</a>
</g>
</g>
<!-- statement/Select&#45;&gt;expression/Select -->
<g id="edge22" class="edge">
<title>statement/Select&#45;&gt;expression/Select</title>
<path fill="none" stroke="black" d="M944.78,-219.42C910.55,-209.05 862.86,-194.6 824.31,-182.92"/>
<polygon fill="black" stroke="black" points="825.31,-179.56 814.73,-180.01 823.28,-186.26 825.31,-179.56"/>
</g>
<!-- statement/InsertDatabase -->
<g id="node16" class="node">
<title>statement/InsertDatabase</title>
<g id="a_node16"><a xlink:href="https://syntax.abaplint.org/#/statement/InsertDatabase" xlink:title="statement/InsertDatabase">
<polygon fill="none" stroke="black" points="1366.32,-239.56 1232.59,-252 1098.86,-239.56 1098.98,-219.44 1366.2,-219.44 1366.32,-239.56"/>
<text text-anchor="middle" x="1232.59" y="-229.8" font-family="Times,serif" font-size="14.00">statement/InsertDatabase</text>
</a>
</g>
</g>
<!-- statement/InsertDatabase&#45;&gt;expression/Select -->
<g id="edge24" class="edge">
<title>statement/InsertDatabase&#45;&gt;expression/Select</title>
<path fill="none" stroke="black" d="M1140.64,-219.42C1048.24,-205.78 908.06,-185.07 825.67,-172.91"/>
<polygon fill="black" stroke="black" points="826.07,-169.43 815.67,-171.43 825.05,-176.35 826.07,-169.43"/>
</g>
<!-- statement/OpenCursor -->
<g id="node17" class="node">
<title>statement/OpenCursor</title>
<g id="a_node17"><a xlink:href="https://syntax.abaplint.org/#/statement/OpenCursor" xlink:title="statement/OpenCursor">
<polygon fill="none" stroke="black" points="879.67,-239.56 758.59,-252 637.51,-239.56 637.62,-219.44 879.56,-219.44 879.67,-239.56"/>
<text text-anchor="middle" x="758.59" y="-229.8" font-family="Times,serif" font-size="14.00">statement/OpenCursor</text>
</a>
</g>
</g>
<!-- statement/OpenCursor&#45;&gt;expression/Select -->
<g id="edge25" class="edge">
<title>statement/OpenCursor&#45;&gt;expression/Select</title>
<path fill="none" stroke="black" d="M758.59,-219.17C758.59,-210.92 758.59,-200.15 758.59,-190.26"/>
<polygon fill="black" stroke="black" points="762.09,-190.02 758.59,-180.02 755.09,-190.02 762.09,-190.02"/>
</g>
<!-- statement/FetchNextCursor -->
<g id="node18" class="node">
<title>statement/FetchNextCursor</title>
<g id="a_node18"><a xlink:href="https://syntax.abaplint.org/#/statement/FetchNextCursor" xlink:title="statement/FetchNextCursor">
<polygon fill="none" stroke="black" points="1750.41,-167.56 1605.59,-180 1460.77,-167.56 1460.91,-147.44 1750.27,-147.44 1750.41,-167.56"/>
<text text-anchor="middle" x="1605.59" y="-157.8" font-family="Times,serif" font-size="14.00">statement/FetchNextCursor</text>
</a>
</g>
</g>
<!-- statement/FetchNextCursor&#45;&gt;expression/SQLIntoTable -->
<g id="edge26" class="edge">
<title>statement/FetchNextCursor&#45;&gt;expression/SQLIntoTable</title>
<path fill="none" stroke="black" d="M1571.82,-147.34C1546.91,-137.26 1512.56,-123.36 1484.21,-111.89"/>
<polygon fill="black" stroke="black" points="1485.43,-108.61 1474.85,-108.1 1482.81,-115.09 1485.43,-108.61"/>
</g>
</g>
</svg>
