<svg xmlns="http://www.w3.org/2000/svg" xmlns:xlink="http://www.w3.org/1999/xlink" class="railroad-diagram" width="367" height="71" viewBox="0 0 367 71">
<defs>
<style type="text/css"><![CDATA[
path {
stroke-width: 3;
stroke: black;
fill: rgba(0,0,0,0);
}
text {
font: bold 14px monospace;
text-anchor: middle;
}
text.diagram-text {
font-size: 12px;
}
a {
fill: blue;
}
text.diagram-arrow {
font-size: 16px;
}
text.label {
text-anchor: start;
}
text.comment {
font: italic 12px monospace;
}
rect {
stroke-width: 3;
stroke: black;
fill: #BCBCBC;
}
path.diagram-text {
stroke-width: 3;
stroke: black;
fill: #BCBCBC;
cursor: help;
}
]]></style>
</defs>
<g transform="translate(.5 .5)">
<g>
<path d="M20 21v20m0 -10h20"></path>
</g>
<path d="M40 31h10"></path>
<g>
<path d="M50 31h0"></path>
<path d="M317 31h0"></path>
<g class="terminal">
<path d="M50 31h0"></path>
<path d="M163.5 31h0"></path>
<rect x="50" y="20" width="113.5" height="22" rx="10" ry="10"></rect>
<text x="106.75" y="35">"EXPORTING"</text>
</g>
<path d="M163.5 31h10"></path>
<path d="M173.5 31h10"></path>
<g>
<path d="M183.5 31h0"></path>
<path d="M317 31h0"></path>
<path d="M183.5 31h10"></path>
<g class="non-terminal">
<path d="M193.5 31h0"></path>
<path d="M307 31h0"></path>
<rect x="193.5" y="20" width="113.5" height="22"></rect>
<a xlink:href="#/expression/MethodParam"><text x="250.25" y="35">MethodParam</text>
</a>
</g>
<path d="M307 31h10"></path>
<path d="M193.5 31a10 10 0 0 0 -10 10v0a10 10 0 0 0 10 10"></path>
<g>
<path d="M193.5 51h113.5"></path>
</g>
<path d="M307 51a10 10 0 0 0 10 -10v0a10 10 0 0 0 -10 -10"></path>
</g>
</g>
<path d="M317 31h10"></path>
<path d="M 327 31 h 20 m 0 -10 v 20"></path>
</g>
</svg>
