<svg xmlns="http://www.w3.org/2000/svg" xmlns:xlink="http://www.w3.org/1999/xlink" class="railroad-diagram" width="499.5" height="302" viewBox="0 0 499.5 302">
<defs>
<style type="text/css"><![CDATA[
path {
stroke-width: 3;
stroke: black;
fill: rgba(0,0,0,0);
}
text {
font: bold 14px monospace;
text-anchor: middle;
}
text.diagram-text {
font-size: 12px;
}
a {
fill: blue;
}
text.diagram-arrow {
font-size: 16px;
}
text.label {
text-anchor: start;
}
text.comment {
font: italic 12px monospace;
}
rect {
stroke-width: 3;
stroke: black;
fill: #BCBCBC;
}
path.diagram-text {
stroke-width: 3;
stroke: black;
fill: #BCBCBC;
cursor: help;
}
]]></style>
</defs>
<g transform="translate(.5 .5)">
<g>
<path d="M20 21v20m0 -10h20"></path>
</g>
<g>
<path d="M40 31h0"></path>
<path d="M459.5 31h0"></path>
<path d="M40 31h20"></path>
<g>
<path d="M60 31h0"></path>
<path d="M439.5 31h0"></path>
<g class="terminal">
<path d="M60 31h0"></path>
<path d="M122.5 31h0"></path>
<rect x="60" y="20" width="62.5" height="22" rx="10" ry="10"></rect>
<text x="91.25" y="35">!"( "</text>
</g>
<path d="M122.5 31h10"></path>
<g>
<path d="M132.5 31h0"></path>
<path d="M328.5 31h0"></path>
<path d="M132.5 31h20"></path>
<g class="non-terminal">
<path d="M152.5 31h0"></path>
<path d="M223.5 31h85"></path>
<rect x="152.5" y="20" width="71" height="22"></rect>
<a xlink:href="#/expression/Source"><text x="188" y="35">Source</text>
</a>
</g>
<path d="M308.5 31h20"></path>
<path d="M132.5 31a10 10 0 0 1 10 10v10a10 10 0 0 0 10 10"></path>
<g class="non-terminal">
<path d="M152.5 61h0"></path>
<path d="M291.5 61h17"></path>
<rect x="152.5" y="50" width="139" height="22"></rect>
<a xlink:href="#/expression/ParameterListS"><text x="222" y="65">ParameterListS</text>
</a>
</g>
<path d="M308.5 61a10 10 0 0 0 10 -10v-10a10 10 0 0 1 10 -10"></path>
<path d="M132.5 31a10 10 0 0 1 10 10v40a10 10 0 0 0 10 10"></path>
<g class="non-terminal">
<path d="M152.5 91h0"></path>
<path d="M308.5 91h0"></path>
<rect x="152.5" y="80" width="156" height="22"></rect>
<a xlink:href="#/expression/MethodParameters"><text x="230.5" y="95">MethodParameters</text>
</a>
</g>
<path d="M308.5 91a10 10 0 0 0 10 -10v-40a10 10 0 0 1 10 -10"></path>
</g>
<g>
<path d="M328.5 31h0"></path>
<path d="M439.5 31h0"></path>
<path d="M328.5 31h20"></path>
<g class="terminal">
<path d="M348.5 31h0"></path>
<path d="M411 31h8.5"></path>
<rect x="348.5" y="20" width="62.5" height="22" rx="10" ry="10"></rect>
<text x="379.75" y="35">!" )"</text>
</g>
<path d="M419.5 31h20"></path>
<path d="M328.5 31a10 10 0 0 1 10 10v10a10 10 0 0 0 10 10"></path>
<g class="terminal">
<path d="M348.5 61h0"></path>
<path d="M419.5 61h0"></path>
<rect x="348.5" y="50" width="71" height="22" rx="10" ry="10"></rect>
<text x="384" y="65">!" ) "</text>
</g>
<path d="M419.5 61a10 10 0 0 0 10 -10v-10a10 10 0 0 1 10 -10"></path>
<path d="M328.5 31a10 10 0 0 1 10 10v40a10 10 0 0 0 10 10"></path>
<g class="terminal">
<path d="M348.5 91h0"></path>
<path d="M402.5 91h17"></path>
<rect x="348.5" y="80" width="54" height="22" rx="10" ry="10"></rect>
<text x="375.5" y="95">!")"</text>
</g>
<path d="M419.5 91a10 10 0 0 0 10 -10v-40a10 10 0 0 1 10 -10"></path>
<path d="M328.5 31a10 10 0 0 1 10 10v70a10 10 0 0 0 10 10"></path>
<g class="terminal">
<path d="M348.5 121h0"></path>
<path d="M411 121h8.5"></path>
<rect x="348.5" y="110" width="62.5" height="22" rx="10" ry="10"></rect>
<text x="379.75" y="125">!") "</text>
</g>
<path d="M419.5 121a10 10 0 0 0 10 -10v-70a10 10 0 0 1 10 -10"></path>
</g>
</g>
<path d="M439.5 31h20"></path>
<path d="M40 31a10 10 0 0 1 10 10v100a10 10 0 0 0 10 10"></path>
<g>
<path d="M60 151h0"></path>
<path d="M431 151h8.5"></path>
<g class="terminal">
<path d="M60 151h0"></path>
<path d="M114 151h0"></path>
<rect x="60" y="140" width="54" height="22" rx="10" ry="10"></rect>
<text x="87" y="155">!"("</text>
</g>
<path d="M114 151h10"></path>
<g>
<path d="M124 151h0"></path>
<path d="M320 151h0"></path>
<path d="M124 151h20"></path>
<g class="non-terminal">
<path d="M144 151h0"></path>
<path d="M215 151h85"></path>
<rect x="144" y="140" width="71" height="22"></rect>
<a xlink:href="#/expression/Source"><text x="179.5" y="155">Source</text>
</a>
</g>
<path d="M300 151h20"></path>
<path d="M124 151a10 10 0 0 1 10 10v10a10 10 0 0 0 10 10"></path>
<g class="non-terminal">
<path d="M144 181h0"></path>
<path d="M283 181h17"></path>
<rect x="144" y="170" width="139" height="22"></rect>
<a xlink:href="#/expression/ParameterListS"><text x="213.5" y="185">ParameterListS</text>
</a>
</g>
<path d="M300 181a10 10 0 0 0 10 -10v-10a10 10 0 0 1 10 -10"></path>
<path d="M124 151a10 10 0 0 1 10 10v40a10 10 0 0 0 10 10"></path>
<g class="non-terminal">
<path d="M144 211h0"></path>
<path d="M300 211h0"></path>
<rect x="144" y="200" width="156" height="22"></rect>
<a xlink:href="#/expression/MethodParameters"><text x="222" y="215">MethodParameters</text>
</a>
</g>
<path d="M300 211a10 10 0 0 0 10 -10v-40a10 10 0 0 1 10 -10"></path>
</g>
<g>
<path d="M320 151h0"></path>
<path d="M431 151h0"></path>
<path d="M320 151h20"></path>
<g class="terminal">
<path d="M340 151h0"></path>
<path d="M402.5 151h8.5"></path>
<rect x="340" y="140" width="62.5" height="22" rx="10" ry="10"></rect>
<text x="371.25" y="155">!" )"</text>
</g>
<path d="M411 151h20"></path>
<path d="M320 151a10 10 0 0 1 10 10v10a10 10 0 0 0 10 10"></path>
<g class="terminal">
<path d="M340 181h0"></path>
<path d="M411 181h0"></path>
<rect x="340" y="170" width="71" height="22" rx="10" ry="10"></rect>
<text x="375.5" y="185">!" ) "</text>
</g>
<path d="M411 181a10 10 0 0 0 10 -10v-10a10 10 0 0 1 10 -10"></path>
</g>
</g>
<path d="M439.5 151a10 10 0 0 0 10 -10v-100a10 10 0 0 1 10 -10"></path>
<path d="M40 31a10 10 0 0 1 10 10v190a10 10 0 0 0 10 10"></path>
<g>
<path d="M60 241h0"></path>
<path d="M385.5 241h54"></path>
<g class="terminal">
<path d="M60 241h0"></path>
<path d="M114 241h0"></path>
<rect x="60" y="230" width="54" height="22" rx="10" ry="10"></rect>
<text x="87" y="245">!"("</text>
</g>
<path d="M114 241h10"></path>
<path d="M124 241h10"></path>
<g class="non-terminal">
<path d="M134 241h0"></path>
<path d="M273 241h0"></path>
<rect x="134" y="230" width="139" height="22"></rect>
<a xlink:href="#/expression/ConstantString"><text x="203.5" y="245">ConstantString</text>
</a>
</g>
<path d="M273 241h10"></path>
<g>
<path d="M283 241h0"></path>
<path d="M385.5 241h0"></path>
<path d="M283 241h20"></path>
<g class="terminal">
<path d="M303 241h0"></path>
<path d="M357 241h8.5"></path>
<rect x="303" y="230" width="54" height="22" rx="10" ry="10"></rect>
<text x="330" y="245">!")"</text>
</g>
<path d="M365.5 241h20"></path>
<path d="M283 241a10 10 0 0 1 10 10v10a10 10 0 0 0 10 10"></path>
<g class="terminal">
<path d="M303 271h0"></path>
<path d="M365.5 271h0"></path>
<rect x="303" y="260" width="62.5" height="22" rx="10" ry="10"></rect>
<text x="334.25" y="275">!") "</text>
</g>
<path d="M365.5 271a10 10 0 0 0 10 -10v-10a10 10 0 0 1 10 -10"></path>
</g>
</g>
<path d="M439.5 241a10 10 0 0 0 10 -10v-190a10 10 0 0 1 10 -10"></path>
</g>
<path d="M 459.5 31 h 20 m 0 -10 v 20"></path>
</g>
</svg>
