<svg xmlns="http://www.w3.org/2000/svg" xmlns:xlink="http://www.w3.org/1999/xlink" class="railroad-diagram" width="385.5" height="122" viewBox="0 0 385.5 122">
<defs>
<style type="text/css"><![CDATA[
path {
stroke-width: 3;
stroke: black;
fill: rgba(0,0,0,0);
}
text {
font: bold 14px monospace;
text-anchor: middle;
}
text.diagram-text {
font-size: 12px;
}
a {
fill: blue;
}
text.diagram-arrow {
font-size: 16px;
}
text.label {
text-anchor: start;
}
text.comment {
font: italic 12px monospace;
}
rect {
stroke-width: 3;
stroke: black;
fill: #BCBCBC;
}
path.diagram-text {
stroke-width: 3;
stroke: black;
fill: #BCBCBC;
cursor: help;
}
]]></style>
</defs>
<g transform="translate(.5 .5)">
<g>
<path d="M20 21v20m0 -10h20"></path>
</g>
<path d="M40 31h10"></path>
<g>
<path d="M50 31h0"></path>
<path d="M335.5 31h0"></path>
<g class="terminal">
<path d="M50 31h0"></path>
<path d="M129.5 31h0"></path>
<rect x="50" y="20" width="79.5" height="22" rx="10" ry="10"></rect>
<text x="89.75" y="35">"VALUE"</text>
</g>
<path d="M129.5 31h10"></path>
<g>
<path d="M139.5 31h0"></path>
<path d="M335.5 31h0"></path>
<path d="M139.5 31h20"></path>
<g class="non-terminal">
<path d="M159.5 31h0"></path>
<path d="M247.5 31h68"></path>
<rect x="159.5" y="20" width="88" height="22"></rect>
<a xlink:href="#/expression/Constant"><text x="203.5" y="35">Constant</text>
</a>
</g>
<path d="M315.5 31h20"></path>
<path d="M139.5 31a10 10 0 0 1 10 10v10a10 10 0 0 0 10 10"></path>
<g class="non-terminal">
<path d="M159.5 61h0"></path>
<path d="M315.5 61h0"></path>
<rect x="159.5" y="50" width="156" height="22"></rect>
<a xlink:href="#/expression/SimpleFieldChain"><text x="237.5" y="65">SimpleFieldChain</text>
</a>
</g>
<path d="M315.5 61a10 10 0 0 0 10 -10v-10a10 10 0 0 1 10 -10"></path>
<path d="M139.5 31a10 10 0 0 1 10 10v40a10 10 0 0 0 10 10"></path>
<g class="terminal">
<path d="M159.5 91h0"></path>
<path d="M281.5 91h34"></path>
<rect x="159.5" y="80" width="122" height="22" rx="10" ry="10"></rect>
<text x="220.5" y="95">"IS INITIAL"</text>
</g>
<path d="M315.5 91a10 10 0 0 0 10 -10v-40a10 10 0 0 1 10 -10"></path>
</g>
</g>
<path d="M335.5 31h10"></path>
<path d="M 345.5 31 h 20 m 0 -10 v 20"></path>
</g>
</svg>
