<svg xmlns="http://www.w3.org/2000/svg" xmlns:xlink="http://www.w3.org/1999/xlink" class="railroad-diagram" width="651" height="71" viewBox="0 0 651 71">
<defs>
<style type="text/css"><![CDATA[
path {
stroke-width: 3;
stroke: black;
fill: rgba(0,0,0,0);
}
text {
font: bold 14px monospace;
text-anchor: middle;
}
text.diagram-text {
font-size: 12px;
}
a {
fill: blue;
}
text.diagram-arrow {
font-size: 16px;
}
text.label {
text-anchor: start;
}
text.comment {
font: italic 12px monospace;
}
rect {
stroke-width: 3;
stroke: black;
fill: #BCBCBC;
}
path.diagram-text {
stroke-width: 3;
stroke: black;
fill: #BCBCBC;
cursor: help;
}
]]></style>
</defs>
<g transform="translate(.5 .5)">
<g>
<path d="M20 21v20m0 -10h20"></path>
</g>
<path d="M40 31h10"></path>
<g>
<path d="M50 31h0"></path>
<path d="M601 31h0"></path>
<g class="terminal">
<path d="M50 31h0"></path>
<path d="M163.5 31h0"></path>
<rect x="50" y="20" width="113.5" height="22" rx="10" ry="10"></rect>
<text x="106.75" y="35">"EXPORTING"</text>
</g>
<path d="M163.5 31h10"></path>
<path d="M173.5 31h10"></path>
<g>
<path d="M183.5 31h0"></path>
<path d="M601 31h0"></path>
<path d="M183.5 31h10"></path>
<g>
<path d="M193.5 31h0"></path>
<path d="M591 31h0"></path>
<g class="terminal">
<path d="M193.5 31h0"></path>
<path d="M434.5 31h0"></path>
<rect x="193.5" y="20" width="241" height="22" rx="10" ry="10"></rect>
<text x="314" y="35">^&#91;&#38;&#95;!#\&#42;&#93;?&#91;\w\d\&#42;%\$\?#&#93;+$</text>
</g>
<path d="M434.5 31h10"></path>
<path d="M444.5 31h10"></path>
<g class="terminal">
<path d="M454.5 31h0"></path>
<path d="M500 31h0"></path>
<rect x="454.5" y="20" width="45.5" height="22" rx="10" ry="10"></rect>
<text x="477.25" y="35">"="</text>
</g>
<path d="M500 31h10"></path>
<path d="M510 31h10"></path>
<g class="non-terminal">
<path d="M520 31h0"></path>
<path d="M591 31h0"></path>
<rect x="520" y="20" width="71" height="22"></rect>
<a xlink:href="#/expression/Source"><text x="555.5" y="35">Source</text>
</a>
</g>
</g>
<path d="M591 31h10"></path>
<path d="M193.5 31a10 10 0 0 0 -10 10v0a10 10 0 0 0 10 10"></path>
<g>
<path d="M193.5 51h397.5"></path>
</g>
<path d="M591 51a10 10 0 0 0 10 -10v0a10 10 0 0 0 -10 -10"></path>
</g>
</g>
<path d="M601 31h10"></path>
<path d="M 611 31 h 20 m 0 -10 v 20"></path>
</g>
</svg>
