<svg xmlns="http://www.w3.org/2000/svg" xmlns:xlink="http://www.w3.org/1999/xlink" class="railroad-diagram" width="868" height="80" viewBox="0 0 868 80">
<defs>
<style type="text/css"><![CDATA[
path {
stroke-width: 3;
stroke: black;
fill: rgba(0,0,0,0);
}
text {
font: bold 14px monospace;
text-anchor: middle;
}
text.diagram-text {
font-size: 12px;
}
a {
fill: blue;
}
text.diagram-arrow {
font-size: 16px;
}
text.label {
text-anchor: start;
}
text.comment {
font: italic 12px monospace;
}
rect {
stroke-width: 3;
stroke: black;
fill: #BCBCBC;
}
path.diagram-text {
stroke-width: 3;
stroke: black;
fill: #BCBCBC;
cursor: help;
}
]]></style>
</defs>
<g transform="translate(.5 .5)">
<g>
<path d="M20 30v20m0 -10h20"></path>
</g>
<path d="M40 40h10"></path>
<g>
<path d="M50 40h0"></path>
<path d="M818 40h0"></path>
<g class="terminal">
<path d="M50 40h0"></path>
<path d="M163.5 40h0"></path>
<rect x="50" y="29" width="113.5" height="22" rx="10" ry="10"></rect>
<text x="106.75" y="44">"IMPORTING"</text>
</g>
<path d="M163.5 40h10"></path>
<path d="M173.5 40h10"></path>
<g>
<path d="M183.5 40h0"></path>
<path d="M385 40h0"></path>
<path d="M183.5 40h10"></path>
<g class="non-terminal">
<path d="M193.5 40h0"></path>
<path d="M375 40h0"></path>
<rect x="193.5" y="29" width="181.5" height="22"></rect>
<a xlink:href="#/expression/MethodParamOptional"><text x="284.25" y="44">MethodParamOptional</text>
</a>
</g>
<path d="M375 40h10"></path>
<path d="M193.5 40a10 10 0 0 0 -10 10v0a10 10 0 0 0 10 10"></path>
<g>
<path d="M193.5 60h181.5"></path>
</g>
<path d="M375 60a10 10 0 0 0 10 -10v0a10 10 0 0 0 -10 -10"></path>
</g>
<path d="M385 40h10"></path>
<g>
<path d="M395 40h0"></path>
<path d="M818 40h0"></path>
<path d="M395 40a10 10 0 0 0 10 -10v0a10 10 0 0 1 10 -10"></path>
<g>
<path d="M415 20h383"></path>
</g>
<path d="M798 20a10 10 0 0 1 10 10v0a10 10 0 0 0 10 10"></path>
<path d="M395 40h20"></path>
<g>
<path d="M415 40h0"></path>
<path d="M798 40h0"></path>
<g class="terminal">
<path d="M415 40h0"></path>
<path d="M613.5 40h0"></path>
<rect x="415" y="29" width="198.5" height="22" rx="10" ry="10"></rect>
<text x="514.25" y="44">"PREFERRED PARAMETER"</text>
</g>
<path d="M613.5 40h10"></path>
<path d="M623.5 40h10"></path>
<g class="terminal">
<path d="M633.5 40h0"></path>
<path d="M798 40h0"></path>
<rect x="633.5" y="29" width="164.5" height="22" rx="10" ry="10"></rect>
<text x="715.75" y="44">^!?(\/\w+\/)?\w+$</text>
</g>
</g>
<path d="M798 40h20"></path>
</g>
</g>
<path d="M818 40h10"></path>
<path d="M 828 40 h 20 m 0 -10 v 20"></path>
</g>
</svg>
