<?xml version="1.0" encoding="UTF-8" standalone="no"?>
<!DOCTYPE svg PUBLIC "-//W3C//DTD SVG 1.1//EN"
 "http://www.w3.org/Graphics/SVG/1.1/DTD/svg11.dtd">
<!-- Generated by graphviz version 2.47.3 (20210619.1520)
 -->
<!-- Title: G Pages: 1 -->
<svg width="782pt" height="213pt"
 viewBox="0.00 0.00 782.50 212.80" xmlns="http://www.w3.org/2000/svg" xmlns:xlink="http://www.w3.org/1999/xlink">
<g id="graph0" class="graph" transform="scale(1 1) rotate(0) translate(4 208.8)">
<title>G</title>
<polygon fill="white" stroke="transparent" points="-4,4 -4,-208.8 778.5,-208.8 778.5,4 -4,4"/>
<text text-anchor="middle" x="116.27" y="-188.2" font-family="Times,serif" font-size="14.00">Where used, expression/MessageClass</text>
<!-- expression/MessageClass -->
<g id="node1" class="node">
<title>expression/MessageClass</title>
<g id="a_node1"><a xlink:href="https://syntax.abaplint.org/#/expression/MessageClass" xlink:title="expression/MessageClass">
<polygon fill="none" stroke="black" points="487.03,-36 327.89,-36 327.89,0 487.03,0 487.03,-36"/>
<text text-anchor="middle" x="407.46" y="-13.8" font-family="Times,serif" font-size="14.00">expression/MessageClass</text>
</a>
</g>
</g>
<!-- expression/MessageSource -->
<g id="node2" class="node">
<title>expression/MessageSource</title>
<g id="a_node2"><a xlink:href="https://syntax.abaplint.org/#/expression/MessageSource" xlink:title="expression/MessageSource">
<polygon fill="none" stroke="black" points="294.07,-108 126.85,-108 126.85,-72 294.07,-72 294.07,-108"/>
<text text-anchor="middle" x="210.46" y="-85.8" font-family="Times,serif" font-size="14.00">expression/MessageSource</text>
</a>
</g>
</g>
<!-- expression/MessageSource&#45;&gt;expression/MessageClass -->
<g id="edge1" class="edge">
<title>expression/MessageSource&#45;&gt;expression/MessageClass</title>
<path fill="none" stroke="black" d="M258.4,-71.97C285.93,-62.19 320.68,-49.84 349.7,-39.52"/>
<polygon fill="black" stroke="black" points="351.06,-42.76 359.31,-36.11 348.71,-36.16 351.06,-42.76"/>
</g>
<!-- statement/Message -->
<g id="node3" class="node">
<title>statement/Message</title>
<g id="a_node3"><a xlink:href="https://syntax.abaplint.org/#/statement/Message" xlink:title="statement/Message">
<polygon fill="none" stroke="black" points="208.89,-167.56 104.46,-180 0.04,-167.56 0.14,-147.44 208.79,-147.44 208.89,-167.56"/>
<text text-anchor="middle" x="104.46" y="-157.8" font-family="Times,serif" font-size="14.00">statement/Message</text>
</a>
</g>
</g>
<!-- statement/Message&#45;&gt;expression/MessageSource -->
<g id="edge2" class="edge">
<title>statement/Message&#45;&gt;expression/MessageSource</title>
<path fill="none" stroke="black" d="M125.15,-147.34C139.62,-137.78 159.28,-124.8 176.09,-113.7"/>
<polygon fill="black" stroke="black" points="178.15,-116.53 184.57,-108.1 174.29,-110.69 178.15,-116.53"/>
</g>
<!-- statement/Raise -->
<g id="node4" class="node">
<title>statement/Raise</title>
<g id="a_node4"><a xlink:href="https://syntax.abaplint.org/#/statement/Raise" xlink:title="statement/Raise">
<polygon fill="none" stroke="black" points="405.9,-167.56 316.46,-180 227.02,-167.56 227.1,-147.44 405.82,-147.44 405.9,-167.56"/>
<text text-anchor="middle" x="316.46" y="-157.8" font-family="Times,serif" font-size="14.00">statement/Raise</text>
</a>
</g>
</g>
<!-- statement/Raise&#45;&gt;expression/MessageSource -->
<g id="edge3" class="edge">
<title>statement/Raise&#45;&gt;expression/MessageSource</title>
<path fill="none" stroke="black" d="M295.77,-147.34C281.3,-137.78 261.64,-124.8 244.84,-113.7"/>
<polygon fill="black" stroke="black" points="246.63,-110.69 236.36,-108.1 242.77,-116.53 246.63,-110.69"/>
</g>
<!-- statement/Report -->
<g id="node5" class="node">
<title>statement/Report</title>
<g id="a_node5"><a xlink:href="https://syntax.abaplint.org/#/statement/Report" xlink:title="statement/Report">
<polygon fill="none" stroke="black" points="502.84,-95.56 407.46,-108 312.08,-95.56 312.17,-75.44 502.75,-75.44 502.84,-95.56"/>
<text text-anchor="middle" x="407.46" y="-85.8" font-family="Times,serif" font-size="14.00">statement/Report</text>
</a>
</g>
</g>
<!-- statement/Report&#45;&gt;expression/MessageClass -->
<g id="edge4" class="edge">
<title>statement/Report&#45;&gt;expression/MessageClass</title>
<path fill="none" stroke="black" d="M407.46,-75.17C407.46,-66.92 407.46,-56.15 407.46,-46.26"/>
<polygon fill="black" stroke="black" points="410.96,-46.02 407.46,-36.02 403.96,-46.02 410.96,-46.02"/>
</g>
<!-- statement/FunctionPool -->
<g id="node6" class="node">
<title>statement/FunctionPool</title>
<g id="a_node6"><a xlink:href="https://syntax.abaplint.org/#/statement/FunctionPool" xlink:title="statement/FunctionPool">
<polygon fill="none" stroke="black" points="774.53,-95.56 647.46,-108 520.39,-95.56 520.51,-75.44 774.41,-75.44 774.53,-95.56"/>
<text text-anchor="middle" x="647.46" y="-85.8" font-family="Times,serif" font-size="14.00">statement/FunctionPool</text>
</a>
</g>
</g>
<!-- statement/FunctionPool&#45;&gt;expression/MessageClass -->
<g id="edge5" class="edge">
<title>statement/FunctionPool&#45;&gt;expression/MessageClass</title>
<path fill="none" stroke="black" d="M600.9,-75.42C565.26,-65.03 515.58,-50.54 475.49,-38.84"/>
<polygon fill="black" stroke="black" points="476.37,-35.45 465.79,-36.01 474.41,-42.17 476.37,-35.45"/>
</g>
</g>
</svg>
