<svg xmlns="http://www.w3.org/2000/svg" xmlns:xlink="http://www.w3.org/1999/xlink" class="railroad-diagram" width="542" height="170" viewBox="0 0 542 170">
<defs>
<style type="text/css"><![CDATA[
path {
stroke-width: 3;
stroke: black;
fill: rgba(0,0,0,0);
}
text {
font: bold 14px monospace;
text-anchor: middle;
}
text.diagram-text {
font-size: 12px;
}
a {
fill: blue;
}
text.diagram-arrow {
font-size: 16px;
}
text.label {
text-anchor: start;
}
text.comment {
font: italic 12px monospace;
}
rect {
stroke-width: 3;
stroke: black;
fill: #BCBCBC;
}
path.diagram-text {
stroke-width: 3;
stroke: black;
fill: #BCBCBC;
cursor: help;
}
]]></style>
</defs>
<g transform="translate(.5 .5)">
<g>
<path d="M20 21v20m0 -10h20"></path>
</g>
<g>
<path d="M40 31h0"></path>
<path d="M502 31h0"></path>
<path d="M40 31h20"></path>
<g class="non-terminal">
<path d="M60 31h0"></path>
<path d="M148 31h334"></path>
<rect x="60" y="20" width="88" height="22"></rect>
<a xlink:href="#/expression/Constant"><text x="104" y="35">Constant</text>
</a>
</g>
<path d="M482 31h20"></path>
<path d="M40 31a10 10 0 0 1 10 10v10a10 10 0 0 0 10 10"></path>
<g class="non-terminal">
<path d="M60 61h0"></path>
<path d="M173.5 61h308.5"></path>
<rect x="60" y="50" width="113.5" height="22"></rect>
<a xlink:href="#/expression/TextElement"><text x="116.75" y="65">TextElement</text>
</a>
</g>
<path d="M482 61a10 10 0 0 0 10 -10v-10a10 10 0 0 1 10 -10"></path>
<path d="M40 31a10 10 0 0 1 10 10v49a10 10 0 0 0 10 10"></path>
<g>
<path d="M60 100h0"></path>
<path d="M482 100h0"></path>
<g class="non-terminal">
<path d="M60 100h0"></path>
<path d="M199 100h0"></path>
<rect x="60" y="89" width="139" height="22"></rect>
<a xlink:href="#/expression/StringTemplate"><text x="129.5" y="104">StringTemplate</text>
</a>
</g>
<path d="M199 100h10"></path>
<g>
<path d="M209 100h0"></path>
<path d="M482 100h0"></path>
<path d="M209 100a10 10 0 0 0 10 -10v0a10 10 0 0 1 10 -10"></path>
<g>
<path d="M229 80h233"></path>
</g>
<path d="M462 80a10 10 0 0 1 10 10v0a10 10 0 0 0 10 10"></path>
<path d="M209 100h20"></path>
<g>
<path d="M229 100h0"></path>
<path d="M462 100h0"></path>
<path d="M229 100h10"></path>
<g>
<path d="M239 100h0"></path>
<path d="M452 100h0"></path>
<g class="terminal">
<path d="M239 100h0"></path>
<path d="M293 100h0"></path>
<rect x="239" y="89" width="54" height="22" rx="10" ry="10"></rect>
<text x="266" y="104">"&#38;&#38;"</text>
</g>
<path d="M293 100h10"></path>
<path d="M303 100h10"></path>
<g class="non-terminal">
<path d="M313 100h0"></path>
<path d="M452 100h0"></path>
<rect x="313" y="89" width="139" height="22"></rect>
<a xlink:href="#/expression/StringTemplate"><text x="382.5" y="104">StringTemplate</text>
</a>
</g>
</g>
<path d="M452 100h10"></path>
<path d="M239 100a10 10 0 0 0 -10 10v0a10 10 0 0 0 10 10"></path>
<g>
<path d="M239 120h213"></path>
</g>
<path d="M452 120a10 10 0 0 0 10 -10v0a10 10 0 0 0 -10 -10"></path>
</g>
<path d="M462 100h20"></path>
</g>
</g>
<path d="M482 100a10 10 0 0 0 10 -10v-49a10 10 0 0 1 10 -10"></path>
<path d="M40 31a10 10 0 0 1 10 10v88a10 10 0 0 0 10 10"></path>
<g class="non-terminal">
<path d="M60 139h0"></path>
<path d="M165 139h317"></path>
<rect x="60" y="128" width="105" height="22"></rect>
<a xlink:href="#/expression/FieldChain"><text x="112.5" y="143">FieldChain</text>
</a>
</g>
<path d="M482 139a10 10 0 0 0 10 -10v-88a10 10 0 0 1 10 -10"></path>
</g>
<path d="M 502 31 h 20 m 0 -10 v 20"></path>
</g>
</svg>
