<svg xmlns="http://www.w3.org/2000/svg" xmlns:xlink="http://www.w3.org/1999/xlink" class="railroad-diagram" width="563" height="152" viewBox="0 0 563 152">
<defs>
<style type="text/css"><![CDATA[
path {
stroke-width: 3;
stroke: black;
fill: rgba(0,0,0,0);
}
text {
font: bold 14px monospace;
text-anchor: middle;
}
text.diagram-text {
font-size: 12px;
}
a {
fill: blue;
}
text.diagram-arrow {
font-size: 16px;
}
text.label {
text-anchor: start;
}
text.comment {
font: italic 12px monospace;
}
rect {
stroke-width: 3;
stroke: black;
fill: #BCBCBC;
}
path.diagram-text {
stroke-width: 3;
stroke: black;
fill: #BCBCBC;
cursor: help;
}
]]></style>
</defs>
<g transform="translate(.5 .5)">
<g>
<path d="M20 21v20m0 -10h20"></path>
</g>
<g>
<path d="M40 31h0"></path>
<path d="M523 31h0"></path>
<path d="M40 31h20"></path>
<g class="non-terminal">
<path d="M60 31h0"></path>
<path d="M190.5 31h312.5"></path>
<rect x="60" y="20" width="130.5" height="22"></rect>
<a xlink:href="#/expression/SQLAliasField"><text x="125.25" y="35">SQLAliasField</text>
</a>
</g>
<path d="M503 31h20"></path>
<path d="M40 31a10 10 0 0 1 10 10v10a10 10 0 0 0 10 10"></path>
<g class="non-terminal">
<path d="M60 61h0"></path>
<path d="M131 61h372"></path>
<rect x="60" y="50" width="71" height="22"></rect>
<a xlink:href="#/expression/Source"><text x="95.5" y="65">Source</text>
</a>
</g>
<path d="M503 61a10 10 0 0 0 10 -10v-10a10 10 0 0 1 10 -10"></path>
<path d="M40 31a10 10 0 0 1 10 10v40a10 10 0 0 0 10 10"></path>
<g>
<path d="M60 91h0"></path>
<path d="M503 91h0"></path>
<g>
<path d="M60 91h0"></path>
<path d="M126 91h0"></path>
<text x="93" y="96" class="comment">v740sp05</text>
</g>
<path d="M126 91h10"></path>
<path d="M136 91h10"></path>
<g>
<path d="M146 91h0"></path>
<path d="M503 91h0"></path>
<g class="terminal">
<path d="M146 91h0"></path>
<path d="M208.5 91h0"></path>
<rect x="146" y="80" width="62.5" height="22" rx="10" ry="10"></rect>
<text x="177.25" y="95">!" @"</text>
</g>
<path d="M208.5 91h10"></path>
<g>
<path d="M218.5 91h0"></path>
<path d="M503 91h0"></path>
<path d="M218.5 91h20"></path>
<g class="non-terminal">
<path d="M238.5 91h0"></path>
<path d="M309.5 91h173.5"></path>
<rect x="238.5" y="80" width="71" height="22"></rect>
<a xlink:href="#/expression/Source"><text x="274" y="95">Source</text>
</a>
</g>
<path d="M483 91h20"></path>
<path d="M218.5 91a10 10 0 0 1 10 10v10a10 10 0 0 0 10 10"></path>
<g>
<path d="M238.5 121h0"></path>
<path d="M483 121h0"></path>
<g class="terminal">
<path d="M238.5 121h0"></path>
<path d="M301 121h0"></path>
<rect x="238.5" y="110" width="62.5" height="22" rx="10" ry="10"></rect>
<text x="269.75" y="125">!"( "</text>
</g>
<path d="M301 121h10"></path>
<path d="M311 121h10"></path>
<g class="non-terminal">
<path d="M321 121h0"></path>
<path d="M392 121h0"></path>
<rect x="321" y="110" width="71" height="22"></rect>
<a xlink:href="#/expression/Source"><text x="356.5" y="125">Source</text>
</a>
</g>
<path d="M392 121h10"></path>
<path d="M402 121h10"></path>
<g class="terminal">
<path d="M412 121h0"></path>
<path d="M483 121h0"></path>
<rect x="412" y="110" width="71" height="22" rx="10" ry="10"></rect>
<text x="447.5" y="125">!" ) "</text>
</g>
</g>
<path d="M483 121a10 10 0 0 0 10 -10v-10a10 10 0 0 1 10 -10"></path>
</g>
</g>
</g>
<path d="M503 91a10 10 0 0 0 10 -10v-40a10 10 0 0 1 10 -10"></path>
</g>
<path d="M 523 31 h 20 m 0 -10 v 20"></path>
</g>
</svg>
