<?xml version="1.0" encoding="UTF-8" standalone="no"?>
<!DOCTYPE svg PUBLIC "-//W3C//DTD SVG 1.1//EN"
 "http://www.w3.org/Graphics/SVG/1.1/DTD/svg11.dtd">
<!-- Generated by graphviz version 2.47.3 (20210619.1520)
 -->
<!-- Title: G Pages: 1 -->
<svg width="906pt" height="213pt"
 viewBox="0.00 0.00 906.11 212.80" xmlns="http://www.w3.org/2000/svg" xmlns:xlink="http://www.w3.org/1999/xlink">
<g id="graph0" class="graph" transform="scale(1 1) rotate(0) translate(4 208.8)">
<title>G</title>
<polygon fill="white" stroke="transparent" points="-4,4 -4,-208.8 902.11,-208.8 902.11,4 -4,4"/>
<text text-anchor="middle" x="105" y="-188.2" font-family="Times,serif" font-size="14.00">Where used, expression/SQLHints</text>
<!-- expression/SQLHints -->
<g id="node1" class="node">
<title>expression/SQLHints</title>
<g id="a_node1"><a xlink:href="https://syntax.abaplint.org/#/expression/SQLHints" xlink:title="expression/SQLHints">
<polygon fill="none" stroke="black" points="614.1,-36 478.03,-36 478.03,0 614.1,0 614.1,-36"/>
<text text-anchor="middle" x="546.07" y="-13.8" font-family="Times,serif" font-size="14.00">expression/SQLHints</text>
</a>
</g>
</g>
<!-- expression/SelectLoop -->
<g id="node2" class="node">
<title>expression/SelectLoop</title>
<g id="a_node2"><a xlink:href="https://syntax.abaplint.org/#/expression/SelectLoop" xlink:title="expression/SelectLoop">
<polygon fill="none" stroke="black" points="435.59,-108 292.54,-108 292.54,-72 435.59,-72 435.59,-108"/>
<text text-anchor="middle" x="364.07" y="-85.8" font-family="Times,serif" font-size="14.00">expression/SelectLoop</text>
</a>
</g>
</g>
<!-- expression/SelectLoop&#45;&gt;expression/SQLHints -->
<g id="edge1" class="edge">
<title>expression/SelectLoop&#45;&gt;expression/SQLHints</title>
<path fill="none" stroke="black" d="M408.59,-71.88C433.8,-62.18 465.52,-49.98 492.13,-39.74"/>
<polygon fill="black" stroke="black" points="493.61,-42.92 501.69,-36.07 491.1,-36.39 493.61,-42.92"/>
</g>
<!-- statement/SelectLoop -->
<g id="node3" class="node">
<title>statement/SelectLoop</title>
<g id="a_node3"><a xlink:href="https://syntax.abaplint.org/#/statement/SelectLoop" xlink:title="statement/SelectLoop">
<polygon fill="none" stroke="black" points="234.2,-167.56 117.07,-180 -0.07,-167.56 0.04,-147.44 234.09,-147.44 234.2,-167.56"/>
<text text-anchor="middle" x="117.07" y="-157.8" font-family="Times,serif" font-size="14.00">statement/SelectLoop</text>
</a>
</g>
</g>
<!-- statement/SelectLoop&#45;&gt;expression/SelectLoop -->
<g id="edge2" class="edge">
<title>statement/SelectLoop&#45;&gt;expression/SelectLoop</title>
<path fill="none" stroke="black" d="M164.98,-147.42C201.74,-137 253.01,-122.47 294.31,-110.77"/>
<polygon fill="black" stroke="black" points="295.37,-114.11 304.04,-108.01 293.47,-107.37 295.37,-114.11"/>
</g>
<!-- statement/WithLoop -->
<g id="node4" class="node">
<title>statement/WithLoop</title>
<g id="a_node4"><a xlink:href="https://syntax.abaplint.org/#/statement/WithLoop" xlink:title="statement/WithLoop">
<polygon fill="none" stroke="black" points="475.6,-167.56 364.07,-180 252.53,-167.56 252.63,-147.44 475.5,-147.44 475.6,-167.56"/>
<text text-anchor="middle" x="364.07" y="-157.8" font-family="Times,serif" font-size="14.00">statement/WithLoop</text>
</a>
</g>
</g>
<!-- statement/WithLoop&#45;&gt;expression/SelectLoop -->
<g id="edge3" class="edge">
<title>statement/WithLoop&#45;&gt;expression/SelectLoop</title>
<path fill="none" stroke="black" d="M364.07,-147.17C364.07,-138.92 364.07,-128.15 364.07,-118.26"/>
<polygon fill="black" stroke="black" points="367.57,-118.02 364.07,-108.02 360.57,-118.02 367.57,-118.02"/>
</g>
<!-- statement/With -->
<g id="node5" class="node">
<title>statement/With</title>
<g id="a_node5"><a xlink:href="https://syntax.abaplint.org/#/statement/With" xlink:title="statement/With">
<polygon fill="none" stroke="black" points="666.71,-167.56 580.07,-180 493.42,-167.56 493.5,-147.44 666.63,-147.44 666.71,-167.56"/>
<text text-anchor="middle" x="580.07" y="-157.8" font-family="Times,serif" font-size="14.00">statement/With</text>
</a>
</g>
</g>
<!-- statement/With&#45;&gt;expression/SelectLoop -->
<g id="edge4" class="edge">
<title>statement/With&#45;&gt;expression/SelectLoop</title>
<path fill="none" stroke="black" d="M538.16,-147.42C506.43,-137.14 462.32,-122.84 426.44,-111.21"/>
<polygon fill="black" stroke="black" points="427.15,-107.76 416.56,-108.01 424.99,-114.42 427.15,-107.76"/>
</g>
<!-- statement/Select -->
<g id="node6" class="node">
<title>statement/Select</title>
<g id="a_node6"><a xlink:href="https://syntax.abaplint.org/#/statement/Select" xlink:title="statement/Select">
<polygon fill="none" stroke="black" points="637.8,-95.56 546.07,-108 454.33,-95.56 454.41,-75.44 637.72,-75.44 637.8,-95.56"/>
<text text-anchor="middle" x="546.07" y="-85.8" font-family="Times,serif" font-size="14.00">statement/Select</text>
</a>
</g>
</g>
<!-- statement/Select&#45;&gt;expression/SQLHints -->
<g id="edge5" class="edge">
<title>statement/Select&#45;&gt;expression/SQLHints</title>
<path fill="none" stroke="black" d="M546.07,-75.17C546.07,-66.92 546.07,-56.15 546.07,-46.26"/>
<polygon fill="black" stroke="black" points="549.57,-46.02 546.07,-36.02 542.57,-46.02 549.57,-46.02"/>
</g>
<!-- statement/OpenCursor -->
<g id="node7" class="node">
<title>statement/OpenCursor</title>
<g id="a_node7"><a xlink:href="https://syntax.abaplint.org/#/statement/OpenCursor" xlink:title="statement/OpenCursor">
<polygon fill="none" stroke="black" points="898.15,-95.56 777.07,-108 655.98,-95.56 656.1,-75.44 898.04,-75.44 898.15,-95.56"/>
<text text-anchor="middle" x="777.07" y="-85.8" font-family="Times,serif" font-size="14.00">statement/OpenCursor</text>
</a>
</g>
</g>
<!-- statement/OpenCursor&#45;&gt;expression/SQLHints -->
<g id="edge6" class="edge">
<title>statement/OpenCursor&#45;&gt;expression/SQLHints</title>
<path fill="none" stroke="black" d="M732.25,-75.42C698.02,-65.05 650.33,-50.6 611.79,-38.92"/>
<polygon fill="black" stroke="black" points="612.79,-35.56 602.2,-36.01 610.76,-42.26 612.79,-35.56"/>
</g>
</g>
</svg>
