<svg xmlns="http://www.w3.org/2000/svg" xmlns:xlink="http://www.w3.org/1999/xlink" class="railroad-diagram" width="344.5" height="62" viewBox="0 0 344.5 62">
<defs>
<style type="text/css"><![CDATA[
path {
stroke-width: 3;
stroke: black;
fill: rgba(0,0,0,0);
}
text {
font: bold 14px monospace;
text-anchor: middle;
}
text.diagram-text {
font-size: 12px;
}
a {
fill: blue;
}
text.diagram-arrow {
font-size: 16px;
}
text.label {
text-anchor: start;
}
text.comment {
font: italic 12px monospace;
}
rect {
stroke-width: 3;
stroke: black;
fill: #BCBCBC;
}
path.diagram-text {
stroke-width: 3;
stroke: black;
fill: #BCBCBC;
cursor: help;
}
]]></style>
</defs>
<g transform="translate(.5 .5)">
<g>
<path d="M20 21v20m0 -10h20"></path>
</g>
<path d="M40 31h10"></path>
<g>
<path d="M50 31h0"></path>
<path d="M294.5 31h0"></path>
<g class="non-terminal">
<path d="M50 31h0"></path>
<path d="M138 31h0"></path>
<rect x="50" y="20" width="88" height="22"></rect>
<a xlink:href="#/expression/FieldSub"><text x="94" y="35">FieldSub</text>
</a>
</g>
<path d="M138 31h10"></path>
<path d="M148 31h10"></path>
<g class="terminal">
<path d="M158 31h0"></path>
<path d="M203.5 31h0"></path>
<rect x="158" y="20" width="45.5" height="22" rx="10" ry="10"></rect>
<text x="180.75" y="35">"="</text>
</g>
<path d="M203.5 31h10"></path>
<path d="M213.5 31h10"></path>
<g class="non-terminal">
<path d="M223.5 31h0"></path>
<path d="M294.5 31h0"></path>
<rect x="223.5" y="20" width="71" height="22"></rect>
<a xlink:href="#/expression/Source"><text x="259" y="35">Source</text>
</a>
</g>
</g>
<path d="M294.5 31h10"></path>
<path d="M 304.5 31 h 20 m 0 -10 v 20"></path>
</g>
</svg>
