<svg xmlns="http://www.w3.org/2000/svg" xmlns:xlink="http://www.w3.org/1999/xlink" class="railroad-diagram" width="757.5" height="230" viewBox="0 0 757.5 230">
<defs>
<style type="text/css"><![CDATA[
path {
stroke-width: 3;
stroke: black;
fill: rgba(0,0,0,0);
}
text {
font: bold 14px monospace;
text-anchor: middle;
}
text.diagram-text {
font-size: 12px;
}
a {
fill: blue;
}
text.diagram-arrow {
font-size: 16px;
}
text.label {
text-anchor: start;
}
text.comment {
font: italic 12px monospace;
}
rect {
stroke-width: 3;
stroke: black;
fill: #BCBCBC;
}
path.diagram-text {
stroke-width: 3;
stroke: black;
fill: #BCBCBC;
cursor: help;
}
]]></style>
</defs>
<g transform="translate(.5 .5)">
<g>
<path d="M20 30v20m0 -10h20"></path>
</g>
<path d="M40 40h10"></path>
<g>
<path d="M50 40h0"></path>
<path d="M707.5 40h0"></path>
<g>
<path d="M50 40h0"></path>
<path d="M144 40h0"></path>
<path d="M50 40a10 10 0 0 0 10 -10v0a10 10 0 0 1 10 -10"></path>
<g>
<path d="M70 20h54"></path>
</g>
<path d="M124 20a10 10 0 0 1 10 10v0a10 10 0 0 0 10 10"></path>
<path d="M50 40h20"></path>
<g class="terminal">
<path d="M70 40h0"></path>
<path d="M124 40h0"></path>
<rect x="70" y="29" width="54" height="22" rx="10" ry="10"></rect>
<text x="97" y="44">"AT"</text>
</g>
<path d="M124 40h20"></path>
</g>
<g>
<path d="M144 40h0"></path>
<path d="M707.5 40h0"></path>
<path d="M144 40h20"></path>
<g>
<path d="M164 40h0"></path>
<path d="M494 40h193.5"></path>
<g class="terminal">
<path d="M164 40h0"></path>
<path d="M226.5 40h0"></path>
<rect x="164" y="29" width="62.5" height="22" rx="10" ry="10"></rect>
<text x="195.25" y="44">!" ("</text>
</g>
<path d="M226.5 40h10"></path>
<path d="M236.5 40h10"></path>
<g>
<path d="M246.5 40h0"></path>
<path d="M494 40h0"></path>
<g>
<path d="M246.5 40h0"></path>
<path d="M391.5 40h0"></path>
<path d="M246.5 40h20"></path>
<g class="non-terminal">
<path d="M266.5 40h0"></path>
<path d="M371.5 40h0"></path>
<rect x="266.5" y="29" width="105" height="22"></rect>
<a xlink:href="#/expression/FieldChain"><text x="319" y="44">FieldChain</text>
</a>
</g>
<path d="M371.5 40h20"></path>
<path d="M246.5 40a10 10 0 0 1 10 10v10a10 10 0 0 0 10 10"></path>
<g class="terminal">
<path d="M266.5 70h0"></path>
<path d="M346 70h25.5"></path>
<rect x="266.5" y="59" width="79.5" height="22" rx="10" ry="10"></rect>
<text x="306.25" y="74">^&#91;\d&#93;+$</text>
</g>
<path d="M371.5 70a10 10 0 0 0 10 -10v-10a10 10 0 0 1 10 -10"></path>
<path d="M246.5 40a10 10 0 0 1 10 10v40a10 10 0 0 0 10 10"></path>
<g class="terminal">
<path d="M266.5 100h0"></path>
<path d="M320.5 100h51"></path>
<rect x="266.5" y="89" width="54" height="22" rx="10" ry="10"></rect>
<text x="293.5" y="104">^\&#42;$</text>
</g>
<path d="M371.5 100a10 10 0 0 0 10 -10v-40a10 10 0 0 1 10 -10"></path>
</g>
<g>
<path d="M391.5 40h0"></path>
<path d="M494 40h0"></path>
<path d="M391.5 40h20"></path>
<g class="terminal">
<path d="M411.5 40h0"></path>
<path d="M474 40h0"></path>
<rect x="411.5" y="29" width="62.5" height="22" rx="10" ry="10"></rect>
<text x="442.75" y="44">!") "</text>
</g>
<path d="M474 40h20"></path>
<path d="M391.5 40a10 10 0 0 1 10 10v10a10 10 0 0 0 10 10"></path>
<g class="terminal">
<path d="M411.5 70h0"></path>
<path d="M465.5 70h8.5"></path>
<rect x="411.5" y="59" width="54" height="22" rx="10" ry="10"></rect>
<text x="438.5" y="74">!")"</text>
</g>
<path d="M474 70a10 10 0 0 0 10 -10v-10a10 10 0 0 1 10 -10"></path>
</g>
</g>
</g>
<path d="M687.5 40h20"></path>
<path d="M144 40a10 10 0 0 1 10 10v79a10 10 0 0 0 10 10"></path>
<g>
<path d="M164 139h0"></path>
<path d="M687.5 139h0"></path>
<g>
<path d="M164 139h0"></path>
<path d="M326 139h0"></path>
<path d="M164 139h20"></path>
<g class="non-terminal">
<path d="M184 139h0"></path>
<path d="M289 139h17"></path>
<rect x="184" y="128" width="105" height="22"></rect>
<a xlink:href="#/expression/FieldChain"><text x="236.5" y="143">FieldChain</text>
</a>
</g>
<path d="M306 139h20"></path>
<path d="M164 139a10 10 0 0 1 10 10v10a10 10 0 0 0 10 10"></path>
<g class="terminal">
<path d="M184 169h0"></path>
<path d="M306 169h0"></path>
<rect x="184" y="158" width="122" height="22" rx="10" ry="10"></rect>
<text x="245" y="173">^\/?&#91;\w\d&#93;+$</text>
</g>
<path d="M306 169a10 10 0 0 0 10 -10v-10a10 10 0 0 1 10 -10"></path>
<path d="M164 139a10 10 0 0 1 10 10v40a10 10 0 0 0 10 10"></path>
<g class="terminal">
<path d="M184 199h0"></path>
<path d="M229.5 199h76.5"></path>
<rect x="184" y="188" width="45.5" height="22" rx="10" ry="10"></rect>
<text x="206.75" y="203">"/"</text>
</g>
<path d="M306 199a10 10 0 0 0 10 -10v-40a10 10 0 0 1 10 -10"></path>
</g>
<g>
<path d="M326 139h0"></path>
<path d="M687.5 139h0"></path>
<path d="M326 139a10 10 0 0 0 10 -10v0a10 10 0 0 1 10 -10"></path>
<g>
<path d="M346 119h321.5"></path>
</g>
<path d="M667.5 119a10 10 0 0 1 10 10v0a10 10 0 0 0 10 10"></path>
<path d="M326 139h20"></path>
<g>
<path d="M346 139h0"></path>
<path d="M667.5 139h0"></path>
<g class="terminal">
<path d="M346 139h0"></path>
<path d="M400 139h0"></path>
<rect x="346" y="128" width="54" height="22" rx="10" ry="10"></rect>
<text x="373" y="143">!"("</text>
</g>
<path d="M400 139h10"></path>
<path d="M410 139h10"></path>
<g>
<path d="M420 139h0"></path>
<path d="M667.5 139h0"></path>
<g>
<path d="M420 139h0"></path>
<path d="M565 139h0"></path>
<path d="M420 139h20"></path>
<g class="non-terminal">
<path d="M440 139h0"></path>
<path d="M545 139h0"></path>
<rect x="440" y="128" width="105" height="22"></rect>
<a xlink:href="#/expression/FieldChain"><text x="492.5" y="143">FieldChain</text>
</a>
</g>
<path d="M545 139h20"></path>
<path d="M420 139a10 10 0 0 1 10 10v10a10 10 0 0 0 10 10"></path>
<g class="terminal">
<path d="M440 169h0"></path>
<path d="M519.5 169h25.5"></path>
<rect x="440" y="158" width="79.5" height="22" rx="10" ry="10"></rect>
<text x="479.75" y="173">^&#91;\d&#93;+$</text>
</g>
<path d="M545 169a10 10 0 0 0 10 -10v-10a10 10 0 0 1 10 -10"></path>
<path d="M420 139a10 10 0 0 1 10 10v40a10 10 0 0 0 10 10"></path>
<g class="terminal">
<path d="M440 199h0"></path>
<path d="M494 199h51"></path>
<rect x="440" y="188" width="54" height="22" rx="10" ry="10"></rect>
<text x="467" y="203">^\&#42;$</text>
</g>
<path d="M545 199a10 10 0 0 0 10 -10v-40a10 10 0 0 1 10 -10"></path>
</g>
<g>
<path d="M565 139h0"></path>
<path d="M667.5 139h0"></path>
<path d="M565 139h20"></path>
<g class="terminal">
<path d="M585 139h0"></path>
<path d="M647.5 139h0"></path>
<rect x="585" y="128" width="62.5" height="22" rx="10" ry="10"></rect>
<text x="616.25" y="143">!") "</text>
</g>
<path d="M647.5 139h20"></path>
<path d="M565 139a10 10 0 0 1 10 10v10a10 10 0 0 0 10 10"></path>
<g class="terminal">
<path d="M585 169h0"></path>
<path d="M639 169h8.5"></path>
<rect x="585" y="158" width="54" height="22" rx="10" ry="10"></rect>
<text x="612" y="173">!")"</text>
</g>
<path d="M647.5 169a10 10 0 0 0 10 -10v-10a10 10 0 0 1 10 -10"></path>
</g>
</g>
</g>
<path d="M667.5 139h20"></path>
</g>
</g>
<path d="M687.5 139a10 10 0 0 0 10 -10v-79a10 10 0 0 1 10 -10"></path>
</g>
</g>
<path d="M707.5 40h10"></path>
<path d="M 717.5 40 h 20 m 0 -10 v 20"></path>
</g>
</svg>
