<?xml version="1.0" encoding="UTF-8" standalone="no"?>
<!DOCTYPE svg PUBLIC "-//W3C//DTD SVG 1.1//EN"
 "http://www.w3.org/Graphics/SVG/1.1/DTD/svg11.dtd">
<!-- Generated by graphviz version 2.47.3 (20210619.1520)
 -->
<!-- Title: G Pages: 1 -->
<svg width="1423pt" height="429pt"
 viewBox="0.00 0.00 1422.64 428.80" xmlns="http://www.w3.org/2000/svg" xmlns:xlink="http://www.w3.org/1999/xlink">
<g id="graph0" class="graph" transform="scale(1 1) rotate(0) translate(4 424.8)">
<title>G</title>
<polygon fill="white" stroke="transparent" points="-4,4 -4,-424.8 1418.64,-424.8 1418.64,4 -4,4"/>
<text text-anchor="middle" x="93.72" y="-404.2" font-family="Times,serif" font-size="14.00">Where used, expression/Select</text>
<!-- expression/Select -->
<g id="node1" class="node">
<title>expression/Select</title>
<g id="a_node1"><a xlink:href="https://syntax.abaplint.org/#/expression/Select" xlink:title="expression/Select">
<polygon fill="none" stroke="black" points="527.84,-324 413.9,-324 413.9,-288 527.84,-288 527.84,-324"/>
<text text-anchor="middle" x="470.87" y="-301.8" font-family="Times,serif" font-size="14.00">expression/Select</text>
</a>
</g>
</g>
<!-- expression/SQLCond -->
<g id="node3" class="node">
<title>expression/SQLCond</title>
<g id="a_node3"><a xlink:href="https://syntax.abaplint.org/#/expression/SQLCond" xlink:title="expression/SQLCond">
<polygon fill="none" stroke="black" points="775.91,-108 639.83,-108 639.83,-72 775.91,-72 775.91,-108"/>
<text text-anchor="middle" x="707.87" y="-85.8" font-family="Times,serif" font-size="14.00">expression/SQLCond</text>
</a>
</g>
</g>
<!-- expression/Select&#45;&gt;expression/SQLCond -->
<g id="edge7" class="edge">
<title>expression/Select&#45;&gt;expression/SQLCond</title>
<path fill="none" stroke="black" d="M415.44,-287.91C337.29,-261.1 210.03,-205.79 264.87,-144 288.6,-117.26 508.5,-101.52 629.28,-94.83"/>
<polygon fill="black" stroke="black" points="629.79,-98.3 639.59,-94.26 629.41,-91.32 629.79,-98.3"/>
</g>
<!-- expression/SQLFieldList -->
<g id="node9" class="node">
<title>expression/SQLFieldList</title>
<g id="a_node9"><a xlink:href="https://syntax.abaplint.org/#/expression/SQLFieldList" xlink:title="expression/SQLFieldList">
<polygon fill="none" stroke="black" points="1081.13,-252 924.61,-252 924.61,-216 1081.13,-216 1081.13,-252"/>
<text text-anchor="middle" x="1002.87" y="-229.8" font-family="Times,serif" font-size="14.00">expression/SQLFieldList</text>
</a>
</g>
</g>
<!-- expression/Select&#45;&gt;expression/SQLFieldList -->
<g id="edge12" class="edge">
<title>expression/Select&#45;&gt;expression/SQLFieldList</title>
<path fill="none" stroke="black" d="M528.17,-299.49C611.03,-291.23 769.3,-274.36 914.27,-252.03"/>
<polygon fill="black" stroke="black" points="914.89,-255.47 924.24,-250.48 913.82,-248.56 914.89,-255.47"/>
</g>
<!-- expression/SQLFrom -->
<g id="node11" class="node">
<title>expression/SQLFrom</title>
<g id="a_node11"><a xlink:href="https://syntax.abaplint.org/#/expression/SQLFrom" xlink:title="expression/SQLFrom">
<polygon fill="none" stroke="black" points="905.91,-252 769.83,-252 769.83,-216 905.91,-216 905.91,-252"/>
<text text-anchor="middle" x="837.87" y="-229.8" font-family="Times,serif" font-size="14.00">expression/SQLFrom</text>
</a>
</g>
</g>
<!-- expression/Select&#45;&gt;expression/SQLFrom -->
<g id="edge17" class="edge">
<title>expression/Select&#45;&gt;expression/SQLFrom</title>
<path fill="none" stroke="black" d="M528.21,-294.06C590.47,-282.19 690.27,-263.15 759.69,-249.91"/>
<polygon fill="black" stroke="black" points="760.53,-253.31 769.7,-248 759.22,-246.44 760.53,-253.31"/>
</g>
<!-- expression/SQLCompare -->
<g id="node2" class="node">
<title>expression/SQLCompare</title>
<g id="a_node2"><a xlink:href="https://syntax.abaplint.org/#/expression/SQLCompare" xlink:title="expression/SQLCompare">
<polygon fill="none" stroke="black" points="536.39,-36 379.35,-36 379.35,0 536.39,0 536.39,-36"/>
<text text-anchor="middle" x="457.87" y="-13.8" font-family="Times,serif" font-size="14.00">expression/SQLCompare</text>
</a>
</g>
</g>
<!-- expression/SQLCompare&#45;&gt;expression/Select -->
<g id="edge1" class="edge">
<title>expression/SQLCompare&#45;&gt;expression/Select</title>
<path fill="none" stroke="black" d="M398.82,-36.02C348.7,-53.94 279.95,-87.57 247.87,-144 239.96,-157.91 245.31,-164.21 247.87,-180 253.27,-213.3 247.3,-228.89 271.87,-252 307.19,-285.22 360.94,-298.12 403.68,-302.9"/>
<polygon fill="black" stroke="black" points="403.44,-306.39 413.73,-303.9 404.13,-299.43 403.44,-306.39"/>
</g>
<!-- expression/SQLCond&#45;&gt;expression/SQLCompare -->
<g id="edge2" class="edge">
<title>expression/SQLCond&#45;&gt;expression/SQLCompare</title>
<path fill="none" stroke="black" d="M647.03,-71.97C611.34,-61.97 566.08,-49.3 528.78,-38.85"/>
<polygon fill="black" stroke="black" points="529.55,-35.44 518.98,-36.11 527.66,-42.18 529.55,-35.44"/>
</g>
<!-- expression/SQLCond&#45;&gt;expression/SQLCond -->
<g id="edge13" class="edge">
<title>expression/SQLCond&#45;&gt;expression/SQLCond</title>
<path fill="none" stroke="black" d="M776.21,-102.37C786.87,-100.52 794.14,-96.4 794.14,-90 794.14,-85.8 791.01,-82.58 785.84,-80.34"/>
<polygon fill="black" stroke="black" points="786.79,-76.97 776.21,-77.63 784.89,-83.71 786.79,-76.97"/>
</g>
<!-- expression/SelectLoop -->
<g id="node4" class="node">
<title>expression/SelectLoop</title>
<g id="a_node4"><a xlink:href="https://syntax.abaplint.org/#/expression/SelectLoop" xlink:title="expression/SelectLoop">
<polygon fill="none" stroke="black" points="1127.39,-324 984.35,-324 984.35,-288 1127.39,-288 1127.39,-324"/>
<text text-anchor="middle" x="1055.87" y="-301.8" font-family="Times,serif" font-size="14.00">expression/SelectLoop</text>
</a>
</g>
</g>
<!-- expression/SelectLoop&#45;&gt;expression/SQLCond -->
<g id="edge3" class="edge">
<title>expression/SelectLoop&#45;&gt;expression/SQLCond</title>
<path fill="none" stroke="black" d="M1080.85,-287.76C1122.71,-256.85 1198.52,-190.86 1156.87,-144 1132.71,-116.82 908.3,-101.22 786.18,-94.68"/>
<polygon fill="black" stroke="black" points="786.3,-91.18 776.13,-94.15 785.93,-98.17 786.3,-91.18"/>
</g>
<!-- expression/SQLCase -->
<g id="node8" class="node">
<title>expression/SQLCase</title>
<g id="a_node8"><a xlink:href="https://syntax.abaplint.org/#/expression/SQLCase" xlink:title="expression/SQLCase">
<polygon fill="none" stroke="black" points="1147.78,-180 1013.96,-180 1013.96,-144 1147.78,-144 1147.78,-180"/>
<text text-anchor="middle" x="1080.87" y="-157.8" font-family="Times,serif" font-size="14.00">expression/SQLCase</text>
</a>
</g>
</g>
<!-- expression/SelectLoop&#45;&gt;expression/SQLCase -->
<g id="edge9" class="edge">
<title>expression/SelectLoop&#45;&gt;expression/SQLCase</title>
<path fill="none" stroke="black" d="M1070.62,-287.63C1077.96,-277.85 1086.05,-265.01 1089.87,-252 1095.82,-231.69 1092.89,-207.79 1088.84,-189.87"/>
<polygon fill="black" stroke="black" points="1092.21,-188.93 1086.39,-180.09 1085.42,-190.64 1092.21,-188.93"/>
</g>
<!-- expression/SelectLoop&#45;&gt;expression/SQLFieldList -->
<g id="edge11" class="edge">
<title>expression/SelectLoop&#45;&gt;expression/SQLFieldList</title>
<path fill="none" stroke="black" d="M1042.77,-287.7C1036.48,-279.39 1028.82,-269.28 1021.9,-260.14"/>
<polygon fill="black" stroke="black" points="1024.65,-257.96 1015.82,-252.1 1019.07,-262.19 1024.65,-257.96"/>
</g>
<!-- expression/SelectLoop&#45;&gt;expression/SQLFrom -->
<g id="edge16" class="edge">
<title>expression/SelectLoop&#45;&gt;expression/SQLFrom</title>
<path fill="none" stroke="black" d="M1002.82,-287.97C972.09,-278.1 933.23,-265.62 900.95,-255.25"/>
<polygon fill="black" stroke="black" points="901.75,-251.84 891.16,-252.11 899.61,-258.5 901.75,-251.84"/>
</g>
<!-- statement/SelectLoop -->
<g id="node5" class="node">
<title>statement/SelectLoop</title>
<g id="a_node5"><a xlink:href="https://syntax.abaplint.org/#/statement/SelectLoop" xlink:title="statement/SelectLoop">
<polygon fill="none" stroke="black" points="1173,-383.56 1055.87,-396 938.74,-383.56 938.85,-363.44 1172.89,-363.44 1173,-383.56"/>
<text text-anchor="middle" x="1055.87" y="-373.8" font-family="Times,serif" font-size="14.00">statement/SelectLoop</text>
</a>
</g>
</g>
<!-- statement/SelectLoop&#45;&gt;expression/SelectLoop -->
<g id="edge4" class="edge">
<title>statement/SelectLoop&#45;&gt;expression/SelectLoop</title>
<path fill="none" stroke="black" d="M1055.87,-363.17C1055.87,-354.92 1055.87,-344.15 1055.87,-334.26"/>
<polygon fill="black" stroke="black" points="1059.37,-334.02 1055.87,-324.02 1052.37,-334.02 1059.37,-334.02"/>
</g>
<!-- statement/WithLoop -->
<g id="node6" class="node">
<title>statement/WithLoop</title>
<g id="a_node6"><a xlink:href="https://syntax.abaplint.org/#/statement/WithLoop" xlink:title="statement/WithLoop">
<polygon fill="none" stroke="black" points="1414.41,-383.56 1302.87,-396 1191.33,-383.56 1191.43,-363.44 1414.3,-363.44 1414.41,-383.56"/>
<text text-anchor="middle" x="1302.87" y="-373.8" font-family="Times,serif" font-size="14.00">statement/WithLoop</text>
</a>
</g>
</g>
<!-- statement/WithLoop&#45;&gt;expression/SelectLoop -->
<g id="edge5" class="edge">
<title>statement/WithLoop&#45;&gt;expression/SelectLoop</title>
<path fill="none" stroke="black" d="M1254.95,-363.42C1218.2,-353 1166.93,-338.47 1125.62,-326.77"/>
<polygon fill="black" stroke="black" points="1126.47,-323.37 1115.89,-324.01 1124.56,-330.11 1126.47,-323.37"/>
</g>
<!-- statement/With -->
<g id="node7" class="node">
<title>statement/With</title>
<g id="a_node7"><a xlink:href="https://syntax.abaplint.org/#/statement/With" xlink:title="statement/With">
<polygon fill="none" stroke="black" points="920.51,-383.56 833.87,-396 747.22,-383.56 747.3,-363.44 920.43,-363.44 920.51,-383.56"/>
<text text-anchor="middle" x="833.87" y="-373.8" font-family="Times,serif" font-size="14.00">statement/With</text>
</a>
</g>
</g>
<!-- statement/With&#45;&gt;expression/Select -->
<g id="edge21" class="edge">
<title>statement/With&#45;&gt;expression/Select</title>
<path fill="none" stroke="black" d="M763.45,-363.42C698.28,-350.85 602.06,-332.3 537.97,-319.94"/>
<polygon fill="black" stroke="black" points="538.45,-316.47 527.97,-318.01 537.13,-323.34 538.45,-316.47"/>
</g>
<!-- statement/With&#45;&gt;expression/SelectLoop -->
<g id="edge6" class="edge">
<title>statement/With&#45;&gt;expression/SelectLoop</title>
<path fill="none" stroke="black" d="M876.94,-363.42C909.69,-353.09 955.27,-338.72 992.23,-327.07"/>
<polygon fill="black" stroke="black" points="993.43,-330.36 1001.92,-324.01 991.33,-323.68 993.43,-330.36"/>
</g>
<!-- expression/SQLCase&#45;&gt;expression/SQLCond -->
<g id="edge8" class="edge">
<title>expression/SQLCase&#45;&gt;expression/SQLCond</title>
<path fill="none" stroke="black" d="M1013.84,-145.64C1011.15,-145.08 1008.49,-144.53 1005.87,-144 931.62,-128.99 846.49,-114.08 786.29,-103.91"/>
<polygon fill="black" stroke="black" points="786.54,-100.41 776.09,-102.2 785.38,-107.31 786.54,-100.41"/>
</g>
<!-- expression/SQLFieldList&#45;&gt;expression/SQLCase -->
<g id="edge10" class="edge">
<title>expression/SQLFieldList&#45;&gt;expression/SQLCase</title>
<path fill="none" stroke="black" d="M1022.15,-215.7C1031.78,-207.05 1043.6,-196.45 1054.1,-187.03"/>
<polygon fill="black" stroke="black" points="1056.7,-189.39 1061.81,-180.1 1052.03,-184.18 1056.7,-189.39"/>
</g>
<!-- expression/SQLJoin -->
<g id="node10" class="node">
<title>expression/SQLJoin</title>
<g id="a_node10"><a xlink:href="https://syntax.abaplint.org/#/expression/SQLJoin" xlink:title="expression/SQLJoin">
<polygon fill="none" stroke="black" points="996.41,-180 867.33,-180 867.33,-144 996.41,-144 996.41,-180"/>
<text text-anchor="middle" x="931.87" y="-157.8" font-family="Times,serif" font-size="14.00">expression/SQLJoin</text>
</a>
</g>
</g>
<!-- expression/SQLJoin&#45;&gt;expression/SQLCond -->
<g id="edge14" class="edge">
<title>expression/SQLJoin&#45;&gt;expression/SQLCond</title>
<path fill="none" stroke="black" d="M877.36,-143.97C845.65,-134.06 805.51,-121.51 772.26,-111.12"/>
<polygon fill="black" stroke="black" points="773.21,-107.75 762.62,-108.11 771.12,-114.43 773.21,-107.75"/>
</g>
<!-- expression/SQLFrom&#45;&gt;expression/SQLJoin -->
<g id="edge15" class="edge">
<title>expression/SQLFrom&#45;&gt;expression/SQLJoin</title>
<path fill="none" stroke="black" d="M861.1,-215.7C873.06,-206.8 887.79,-195.82 900.72,-186.2"/>
<polygon fill="black" stroke="black" points="902.97,-188.88 908.9,-180.1 898.79,-183.27 902.97,-188.88"/>
</g>
<!-- statement/DeleteDatabase -->
<g id="node12" class="node">
<title>statement/DeleteDatabase</title>
<g id="a_node12"><a xlink:href="https://syntax.abaplint.org/#/statement/DeleteDatabase" xlink:title="statement/DeleteDatabase">
<polygon fill="none" stroke="black" points="549.55,-167.56 411.87,-180 274.19,-167.56 274.32,-147.44 549.42,-147.44 549.55,-167.56"/>
<text text-anchor="middle" x="411.87" y="-157.8" font-family="Times,serif" font-size="14.00">statement/DeleteDatabase</text>
</a>
</g>
</g>
<!-- statement/DeleteDatabase&#45;&gt;expression/SQLCond -->
<g id="edge18" class="edge">
<title>statement/DeleteDatabase&#45;&gt;expression/SQLCond</title>
<path fill="none" stroke="black" d="M469.29,-147.42C515,-136.61 579.44,-121.37 629.82,-109.46"/>
<polygon fill="black" stroke="black" points="630.78,-112.83 639.7,-107.12 629.17,-106.02 630.78,-112.83"/>
</g>
<!-- statement/UpdateDatabase -->
<g id="node13" class="node">
<title>statement/UpdateDatabase</title>
<g id="a_node13"><a xlink:href="https://syntax.abaplint.org/#/statement/UpdateDatabase" xlink:title="statement/UpdateDatabase">
<polygon fill="none" stroke="black" points="848.69,-167.56 707.87,-180 567.05,-167.56 567.18,-147.44 848.56,-147.44 848.69,-167.56"/>
<text text-anchor="middle" x="707.87" y="-157.8" font-family="Times,serif" font-size="14.00">statement/UpdateDatabase</text>
</a>
</g>
</g>
<!-- statement/UpdateDatabase&#45;&gt;expression/SQLCond -->
<g id="edge19" class="edge">
<title>statement/UpdateDatabase&#45;&gt;expression/SQLCond</title>
<path fill="none" stroke="black" d="M707.87,-147.17C707.87,-138.92 707.87,-128.15 707.87,-118.26"/>
<polygon fill="black" stroke="black" points="711.37,-118.02 707.87,-108.02 704.37,-118.02 711.37,-118.02"/>
</g>
<!-- statement/Select -->
<g id="node14" class="node">
<title>statement/Select</title>
<g id="a_node14"><a xlink:href="https://syntax.abaplint.org/#/statement/Select" xlink:title="statement/Select">
<polygon fill="none" stroke="black" points="183.61,-383.56 91.87,-396 0.13,-383.56 0.22,-363.44 183.52,-363.44 183.61,-383.56"/>
<text text-anchor="middle" x="91.87" y="-373.8" font-family="Times,serif" font-size="14.00">statement/Select</text>
</a>
</g>
</g>
<!-- statement/Select&#45;&gt;expression/Select -->
<g id="edge20" class="edge">
<title>statement/Select&#45;&gt;expression/Select</title>
<path fill="none" stroke="black" d="M165.39,-363.42C234.39,-350.68 336.73,-331.77 403.62,-319.42"/>
<polygon fill="black" stroke="black" points="404.43,-322.83 413.63,-317.57 403.16,-315.95 404.43,-322.83"/>
</g>
<!-- statement/InsertDatabase -->
<g id="node15" class="node">
<title>statement/InsertDatabase</title>
<g id="a_node15"><a xlink:href="https://syntax.abaplint.org/#/statement/InsertDatabase" xlink:title="statement/InsertDatabase">
<polygon fill="none" stroke="black" points="468.6,-383.56 334.87,-396 201.14,-383.56 201.26,-363.44 468.48,-363.44 468.6,-383.56"/>
<text text-anchor="middle" x="334.87" y="-373.8" font-family="Times,serif" font-size="14.00">statement/InsertDatabase</text>
</a>
</g>
</g>
<!-- statement/InsertDatabase&#45;&gt;expression/Select -->
<g id="edge22" class="edge">
<title>statement/InsertDatabase&#45;&gt;expression/Select</title>
<path fill="none" stroke="black" d="M361.41,-363.34C380.49,-353.52 406.6,-340.08 428.53,-328.79"/>
<polygon fill="black" stroke="black" points="430.36,-331.79 437.65,-324.1 427.15,-325.56 430.36,-331.79"/>
</g>
<!-- statement/OpenCursor -->
<g id="node16" class="node">
<title>statement/OpenCursor</title>
<g id="a_node16"><a xlink:href="https://syntax.abaplint.org/#/statement/OpenCursor" xlink:title="statement/OpenCursor">
<polygon fill="none" stroke="black" points="728.95,-383.56 607.87,-396 486.79,-383.56 486.9,-363.44 728.84,-363.44 728.95,-383.56"/>
<text text-anchor="middle" x="607.87" y="-373.8" font-family="Times,serif" font-size="14.00">statement/OpenCursor</text>
</a>
</g>
</g>
<!-- statement/OpenCursor&#45;&gt;expression/Select -->
<g id="edge23" class="edge">
<title>statement/OpenCursor&#45;&gt;expression/Select</title>
<path fill="none" stroke="black" d="M581.13,-363.34C561.91,-353.52 535.61,-340.08 513.51,-328.79"/>
<polygon fill="black" stroke="black" points="514.83,-325.53 504.33,-324.1 511.65,-331.77 514.83,-325.53"/>
</g>
</g>
</svg>
