<svg xmlns="http://www.w3.org/2000/svg" xmlns:xlink="http://www.w3.org/1999/xlink" class="railroad-diagram" width="734" height="101" viewBox="0 0 734 101">
<defs>
<style type="text/css"><![CDATA[
path {
stroke-width: 3;
stroke: black;
fill: rgba(0,0,0,0);
}
text {
font: bold 14px monospace;
text-anchor: middle;
}
text.diagram-text {
font-size: 12px;
}
a {
fill: blue;
}
text.diagram-arrow {
font-size: 16px;
}
text.label {
text-anchor: start;
}
text.comment {
font: italic 12px monospace;
}
rect {
stroke-width: 3;
stroke: black;
fill: #BCBCBC;
}
path.diagram-text {
stroke-width: 3;
stroke: black;
fill: #BCBCBC;
cursor: help;
}
]]></style>
</defs>
<g transform="translate(.5 .5)">
<g>
<path d="M20 30v20m0 -10h20"></path>
</g>
<path d="M40 40h10"></path>
<g>
<path d="M50 40h0"></path>
<path d="M684 40h0"></path>
<g>
<path d="M50 40h0"></path>
<path d="M419.5 40h0"></path>
<path d="M50 40h20"></path>
<g>
<path d="M70 40h0"></path>
<path d="M399.5 40h0"></path>
<g class="non-terminal">
<path d="M70 40h0"></path>
<path d="M166.5 40h0"></path>
<rect x="70" y="29" width="96.5" height="22"></rect>
<a xlink:href="#/expression/ClassName"><text x="118.25" y="44">ClassName</text>
</a>
</g>
<path d="M166.5 40h10"></path>
<path d="M176.5 40h10"></path>
<g class="terminal">
<path d="M186.5 40h0"></path>
<path d="M249 40h0"></path>
<rect x="186.5" y="29" width="62.5" height="22" rx="10" ry="10"></rect>
<text x="217.75" y="44">!"=>"</text>
</g>
<path d="M249 40h10"></path>
<path d="M259 40h10"></path>
<g class="non-terminal">
<path d="M269 40h0"></path>
<path d="M399.5 40h0"></path>
<rect x="269" y="29" width="130.5" height="22"></rect>
<a xlink:href="#/expression/AttributeName"><text x="334.25" y="44">AttributeName</text>
</a>
</g>
</g>
<path d="M399.5 40h20"></path>
<path d="M50 40a10 10 0 0 1 10 10v10a10 10 0 0 0 10 10"></path>
<g class="non-terminal">
<path d="M70 70h0"></path>
<path d="M132.5 70h267"></path>
<rect x="70" y="59" width="62.5" height="22"></rect>
<a xlink:href="#/expression/Field"><text x="101.25" y="74">Field</text>
</a>
</g>
<path d="M399.5 70a10 10 0 0 0 10 -10v-10a10 10 0 0 1 10 -10"></path>
</g>
<g>
<path d="M419.5 40h0"></path>
<path d="M684 40h0"></path>
<path d="M419.5 40a10 10 0 0 0 10 -10v0a10 10 0 0 1 10 -10"></path>
<g>
<path d="M439.5 20h224.5"></path>
</g>
<path d="M664 20a10 10 0 0 1 10 10v0a10 10 0 0 0 10 10"></path>
<path d="M419.5 40h20"></path>
<g>
<path d="M439.5 40h0"></path>
<path d="M664 40h0"></path>
<path d="M439.5 40h10"></path>
<g>
<path d="M449.5 40h0"></path>
<path d="M654 40h0"></path>
<g class="terminal">
<path d="M449.5 40h0"></path>
<path d="M503.5 40h0"></path>
<rect x="449.5" y="29" width="54" height="22" rx="10" ry="10"></rect>
<text x="476.5" y="44">!"-"</text>
</g>
<path d="M503.5 40h10"></path>
<path d="M513.5 40h10"></path>
<g class="non-terminal">
<path d="M523.5 40h0"></path>
<path d="M654 40h0"></path>
<rect x="523.5" y="29" width="130.5" height="22"></rect>
<a xlink:href="#/expression/ComponentName"><text x="588.75" y="44">ComponentName</text>
</a>
</g>
</g>
<path d="M654 40h10"></path>
<path d="M449.5 40a10 10 0 0 0 -10 10v0a10 10 0 0 0 10 10"></path>
<g>
<path d="M449.5 60h204.5"></path>
</g>
<path d="M654 60a10 10 0 0 0 10 -10v0a10 10 0 0 0 -10 -10"></path>
</g>
<path d="M664 40h20"></path>
</g>
</g>
<path d="M684 40h10"></path>
<path d="M 694 40 h 20 m 0 -10 v 20"></path>
</g>
</svg>
