<?xml version="1.0" encoding="UTF-8" standalone="no"?>
<!DOCTYPE svg PUBLIC "-//W3C//DTD SVG 1.1//EN"
 "http://www.w3.org/Graphics/SVG/1.1/DTD/svg11.dtd">
<!-- Generated by graphviz version 2.47.3 (20210619.1520)
 -->
<!-- Title: G Pages: 1 -->
<svg width="499pt" height="357pt"
 viewBox="0.00 0.00 499.04 356.80" xmlns="http://www.w3.org/2000/svg" xmlns:xlink="http://www.w3.org/1999/xlink">
<g id="graph0" class="graph" transform="scale(1 1) rotate(0) translate(4 352.8)">
<title>G</title>
<polygon fill="white" stroke="transparent" points="-4,4 -4,-352.8 495.04,-352.8 495.04,4 -4,4"/>
<text text-anchor="middle" x="126.37" y="-332.2" font-family="Times,serif" font-size="14.00">Where used, expression/FormParamName</text>
<!-- expression/FormParamName -->
<g id="node1" class="node">
<title>expression/FormParamName</title>
<g id="a_node1"><a xlink:href="https://syntax.abaplint.org/#/expression/FormParamName" xlink:title="expression/FormParamName">
<polygon fill="none" stroke="black" points="346.05,-36 166.48,-36 166.48,0 346.05,0 346.05,-36"/>
<text text-anchor="middle" x="256.27" y="-13.8" font-family="Times,serif" font-size="14.00">expression/FormParamName</text>
</a>
</g>
</g>
<!-- expression/FormParam -->
<g id="node2" class="node">
<title>expression/FormParam</title>
<g id="a_node2"><a xlink:href="https://syntax.abaplint.org/#/expression/FormParam" xlink:title="expression/FormParam">
<polygon fill="none" stroke="black" points="329.12,-180 183.41,-180 183.41,-144 329.12,-144 329.12,-180"/>
<text text-anchor="middle" x="256.27" y="-157.8" font-family="Times,serif" font-size="14.00">expression/FormParam</text>
</a>
</g>
</g>
<!-- expression/FormParam&#45;&gt;expression/FormParamName -->
<g id="edge1" class="edge">
<title>expression/FormParam&#45;&gt;expression/FormParamName</title>
<path fill="none" stroke="black" d="M241.94,-143.57C234.82,-133.76 226.96,-120.92 223.27,-108 218.87,-92.62 218.87,-87.38 223.27,-72 225.98,-62.51 230.94,-53.06 236.2,-44.83"/>
<polygon fill="black" stroke="black" points="239.19,-46.67 241.94,-36.43 233.41,-42.72 239.19,-46.67"/>
</g>
<!-- expression/PassByValue -->
<g id="node7" class="node">
<title>expression/PassByValue</title>
<g id="a_node7"><a xlink:href="https://syntax.abaplint.org/#/expression/PassByValue" xlink:title="expression/PassByValue">
<polygon fill="none" stroke="black" points="386.68,-108 231.86,-108 231.86,-72 386.68,-72 386.68,-108"/>
<text text-anchor="middle" x="309.27" y="-85.8" font-family="Times,serif" font-size="14.00">expression/PassByValue</text>
</a>
</g>
</g>
<!-- expression/FormParam&#45;&gt;expression/PassByValue -->
<g id="edge9" class="edge">
<title>expression/FormParam&#45;&gt;expression/PassByValue</title>
<path fill="none" stroke="black" d="M269.37,-143.7C275.66,-135.39 283.32,-125.28 290.23,-116.14"/>
<polygon fill="black" stroke="black" points="293.07,-118.19 296.32,-108.1 287.49,-113.96 293.07,-118.19"/>
</g>
<!-- expression/FormChanging -->
<g id="node3" class="node">
<title>expression/FormChanging</title>
<g id="a_node3"><a xlink:href="https://syntax.abaplint.org/#/expression/FormChanging" xlink:title="expression/FormChanging">
<polygon fill="none" stroke="black" points="164.3,-252 0.23,-252 0.23,-216 164.3,-216 164.3,-252"/>
<text text-anchor="middle" x="82.27" y="-229.8" font-family="Times,serif" font-size="14.00">expression/FormChanging</text>
</a>
</g>
</g>
<!-- expression/FormChanging&#45;&gt;expression/FormParam -->
<g id="edge2" class="edge">
<title>expression/FormChanging&#45;&gt;expression/FormParam</title>
<path fill="none" stroke="black" d="M124.83,-215.88C148.83,-206.22 179,-194.09 204.37,-183.88"/>
<polygon fill="black" stroke="black" points="205.87,-187.05 213.84,-180.07 203.26,-180.55 205.87,-187.05"/>
</g>
<!-- statement/Form -->
<g id="node4" class="node">
<title>statement/Form</title>
<g id="a_node4"><a xlink:href="https://syntax.abaplint.org/#/statement/Form" xlink:title="statement/Form">
<polygon fill="none" stroke="black" points="344.9,-311.56 256.27,-324 167.64,-311.56 167.72,-291.44 344.82,-291.44 344.9,-311.56"/>
<text text-anchor="middle" x="256.27" y="-301.8" font-family="Times,serif" font-size="14.00">statement/Form</text>
</a>
</g>
</g>
<!-- statement/Form&#45;&gt;expression/FormChanging -->
<g id="edge3" class="edge">
<title>statement/Form&#45;&gt;expression/FormChanging</title>
<path fill="none" stroke="black" d="M222.31,-291.34C197.25,-281.26 162.7,-267.36 134.19,-255.89"/>
<polygon fill="black" stroke="black" points="135.36,-252.58 124.77,-252.1 132.74,-259.08 135.36,-252.58"/>
</g>
<!-- expression/FormTables -->
<g id="node5" class="node">
<title>expression/FormTables</title>
<g id="a_node5"><a xlink:href="https://syntax.abaplint.org/#/expression/FormTables" xlink:title="expression/FormTables">
<polygon fill="none" stroke="black" points="330.18,-252 182.36,-252 182.36,-216 330.18,-216 330.18,-252"/>
<text text-anchor="middle" x="256.27" y="-229.8" font-family="Times,serif" font-size="14.00">expression/FormTables</text>
</a>
</g>
</g>
<!-- statement/Form&#45;&gt;expression/FormTables -->
<g id="edge5" class="edge">
<title>statement/Form&#45;&gt;expression/FormTables</title>
<path fill="none" stroke="black" d="M256.27,-291.17C256.27,-282.92 256.27,-272.15 256.27,-262.26"/>
<polygon fill="black" stroke="black" points="259.77,-262.02 256.27,-252.02 252.77,-262.02 259.77,-262.02"/>
</g>
<!-- expression/FormUsing -->
<g id="node6" class="node">
<title>expression/FormUsing</title>
<g id="a_node6"><a xlink:href="https://syntax.abaplint.org/#/expression/FormUsing" xlink:title="expression/FormUsing">
<polygon fill="none" stroke="black" points="490.8,-252 347.73,-252 347.73,-216 490.8,-216 490.8,-252"/>
<text text-anchor="middle" x="419.27" y="-229.8" font-family="Times,serif" font-size="14.00">expression/FormUsing</text>
</a>
</g>
</g>
<!-- statement/Form&#45;&gt;expression/FormUsing -->
<g id="edge7" class="edge">
<title>statement/Form&#45;&gt;expression/FormUsing</title>
<path fill="none" stroke="black" d="M288.08,-291.34C311.35,-281.34 343.36,-267.6 369.93,-256.19"/>
<polygon fill="black" stroke="black" points="371.64,-259.26 379.45,-252.1 368.88,-252.83 371.64,-259.26"/>
</g>
<!-- expression/FormTables&#45;&gt;expression/FormParam -->
<g id="edge4" class="edge">
<title>expression/FormTables&#45;&gt;expression/FormParam</title>
<path fill="none" stroke="black" d="M256.27,-215.7C256.27,-207.98 256.27,-198.71 256.27,-190.11"/>
<polygon fill="black" stroke="black" points="259.77,-190.1 256.27,-180.1 252.77,-190.1 259.77,-190.1"/>
</g>
<!-- expression/FormUsing&#45;&gt;expression/FormParam -->
<g id="edge6" class="edge">
<title>expression/FormUsing&#45;&gt;expression/FormParam</title>
<path fill="none" stroke="black" d="M379.39,-215.88C357.11,-206.31 329.15,-194.3 305.51,-184.15"/>
<polygon fill="black" stroke="black" points="306.58,-180.8 296.01,-180.07 303.82,-187.23 306.58,-180.8"/>
</g>
<!-- expression/PassByValue&#45;&gt;expression/FormParamName -->
<g id="edge8" class="edge">
<title>expression/PassByValue&#45;&gt;expression/FormParamName</title>
<path fill="none" stroke="black" d="M296.17,-71.7C289.88,-63.39 282.22,-53.28 275.3,-44.14"/>
<polygon fill="black" stroke="black" points="278.05,-41.96 269.22,-36.1 272.46,-46.19 278.05,-41.96"/>
</g>
</g>
</svg>
