<?xml version="1.0" encoding="UTF-8" standalone="no"?>
<!DOCTYPE svg PUBLIC "-//W3C//DTD SVG 1.1//EN"
 "http://www.w3.org/Graphics/SVG/1.1/DTD/svg11.dtd">
<!-- Generated by graphviz version 2.47.3 (20210619.1520)
 -->
<!-- Title: G Pages: 1 -->
<svg width="499pt" height="213pt"
 viewBox="0.00 0.00 499.04 212.80" xmlns="http://www.w3.org/2000/svg" xmlns:xlink="http://www.w3.org/1999/xlink">
<g id="graph0" class="graph" transform="scale(1 1) rotate(0) translate(4 208.8)">
<title>G</title>
<polygon fill="white" stroke="transparent" points="-4,4 -4,-208.8 495.04,-208.8 495.04,4 -4,4"/>
<text text-anchor="middle" x="109.66" y="-188.2" font-family="Times,serif" font-size="14.00">Where used, expression/FormParam</text>
<!-- expression/FormParam -->
<g id="node1" class="node">
<title>expression/FormParam</title>
<g id="a_node1"><a xlink:href="https://syntax.abaplint.org/#/expression/FormParam" xlink:title="expression/FormParam">
<polygon fill="none" stroke="black" points="329.12,-36 183.41,-36 183.41,0 329.12,0 329.12,-36"/>
<text text-anchor="middle" x="256.27" y="-13.8" font-family="Times,serif" font-size="14.00">expression/FormParam</text>
</a>
</g>
</g>
<!-- expression/FormChanging -->
<g id="node2" class="node">
<title>expression/FormChanging</title>
<g id="a_node2"><a xlink:href="https://syntax.abaplint.org/#/expression/FormChanging" xlink:title="expression/FormChanging">
<polygon fill="none" stroke="black" points="164.3,-108 0.23,-108 0.23,-72 164.3,-72 164.3,-108"/>
<text text-anchor="middle" x="82.27" y="-85.8" font-family="Times,serif" font-size="14.00">expression/FormChanging</text>
</a>
</g>
</g>
<!-- expression/FormChanging&#45;&gt;expression/FormParam -->
<g id="edge1" class="edge">
<title>expression/FormChanging&#45;&gt;expression/FormParam</title>
<path fill="none" stroke="black" d="M124.83,-71.88C148.83,-62.22 179,-50.09 204.37,-39.88"/>
<polygon fill="black" stroke="black" points="205.87,-43.05 213.84,-36.07 203.26,-36.55 205.87,-43.05"/>
</g>
<!-- statement/Form -->
<g id="node3" class="node">
<title>statement/Form</title>
<g id="a_node3"><a xlink:href="https://syntax.abaplint.org/#/statement/Form" xlink:title="statement/Form">
<polygon fill="none" stroke="black" points="344.9,-167.56 256.27,-180 167.64,-167.56 167.72,-147.44 344.82,-147.44 344.9,-167.56"/>
<text text-anchor="middle" x="256.27" y="-157.8" font-family="Times,serif" font-size="14.00">statement/Form</text>
</a>
</g>
</g>
<!-- statement/Form&#45;&gt;expression/FormChanging -->
<g id="edge2" class="edge">
<title>statement/Form&#45;&gt;expression/FormChanging</title>
<path fill="none" stroke="black" d="M222.31,-147.34C197.25,-137.26 162.7,-123.36 134.19,-111.89"/>
<polygon fill="black" stroke="black" points="135.36,-108.58 124.77,-108.1 132.74,-115.08 135.36,-108.58"/>
</g>
<!-- expression/FormTables -->
<g id="node4" class="node">
<title>expression/FormTables</title>
<g id="a_node4"><a xlink:href="https://syntax.abaplint.org/#/expression/FormTables" xlink:title="expression/FormTables">
<polygon fill="none" stroke="black" points="330.18,-108 182.36,-108 182.36,-72 330.18,-72 330.18,-108"/>
<text text-anchor="middle" x="256.27" y="-85.8" font-family="Times,serif" font-size="14.00">expression/FormTables</text>
</a>
</g>
</g>
<!-- statement/Form&#45;&gt;expression/FormTables -->
<g id="edge4" class="edge">
<title>statement/Form&#45;&gt;expression/FormTables</title>
<path fill="none" stroke="black" d="M256.27,-147.17C256.27,-138.92 256.27,-128.15 256.27,-118.26"/>
<polygon fill="black" stroke="black" points="259.77,-118.02 256.27,-108.02 252.77,-118.02 259.77,-118.02"/>
</g>
<!-- expression/FormUsing -->
<g id="node5" class="node">
<title>expression/FormUsing</title>
<g id="a_node5"><a xlink:href="https://syntax.abaplint.org/#/expression/FormUsing" xlink:title="expression/FormUsing">
<polygon fill="none" stroke="black" points="490.8,-108 347.73,-108 347.73,-72 490.8,-72 490.8,-108"/>
<text text-anchor="middle" x="419.27" y="-85.8" font-family="Times,serif" font-size="14.00">expression/FormUsing</text>
</a>
</g>
</g>
<!-- statement/Form&#45;&gt;expression/FormUsing -->
<g id="edge6" class="edge">
<title>statement/Form&#45;&gt;expression/FormUsing</title>
<path fill="none" stroke="black" d="M288.08,-147.34C311.35,-137.34 343.36,-123.6 369.93,-112.19"/>
<polygon fill="black" stroke="black" points="371.64,-115.26 379.45,-108.1 368.88,-108.83 371.64,-115.26"/>
</g>
<!-- expression/FormTables&#45;&gt;expression/FormParam -->
<g id="edge3" class="edge">
<title>expression/FormTables&#45;&gt;expression/FormParam</title>
<path fill="none" stroke="black" d="M256.27,-71.7C256.27,-63.98 256.27,-54.71 256.27,-46.11"/>
<polygon fill="black" stroke="black" points="259.77,-46.1 256.27,-36.1 252.77,-46.1 259.77,-46.1"/>
</g>
<!-- expression/FormUsing&#45;&gt;expression/FormParam -->
<g id="edge5" class="edge">
<title>expression/FormUsing&#45;&gt;expression/FormParam</title>
<path fill="none" stroke="black" d="M379.39,-71.88C357.11,-62.31 329.15,-50.3 305.51,-40.15"/>
<polygon fill="black" stroke="black" points="306.58,-36.8 296.01,-36.07 303.82,-43.23 306.58,-36.8"/>
</g>
</g>
</svg>
