<?xml version="1.0" encoding="UTF-8" standalone="no"?>
<!DOCTYPE svg PUBLIC "-//W3C//DTD SVG 1.1//EN"
 "http://www.w3.org/Graphics/SVG/1.1/DTD/svg11.dtd">
<!-- Generated by graphviz version 2.47.3 (20210619.1520)
 -->
<!-- Title: G Pages: 1 -->
<svg width="582pt" height="213pt"
 viewBox="0.00 0.00 582.50 212.80" xmlns="http://www.w3.org/2000/svg" xmlns:xlink="http://www.w3.org/1999/xlink">
<g id="graph0" class="graph" transform="scale(1 1) rotate(0) translate(4 208.8)">
<title>G</title>
<polygon fill="white" stroke="transparent" points="-4,4 -4,-208.8 578.5,-208.8 578.5,4 -4,4"/>
<text text-anchor="middle" x="129.1" y="-188.2" font-family="Times,serif" font-size="14.00">Where used, expression/SQLSourceSimple</text>
<!-- expression/SQLSourceSimple -->
<g id="node1" class="node">
<title>expression/SQLSourceSimple</title>
<g id="a_node1"><a xlink:href="https://syntax.abaplint.org/#/expression/SQLSourceSimple" xlink:title="expression/SQLSourceSimple">
<polygon fill="none" stroke="black" points="278.83,-36 94.35,-36 94.35,0 278.83,0 278.83,-36"/>
<text text-anchor="middle" x="186.59" y="-13.8" font-family="Times,serif" font-size="14.00">expression/SQLSourceSimple</text>
</a>
</g>
</g>
<!-- expression/SQLClient -->
<g id="node2" class="node">
<title>expression/SQLClient</title>
<g id="a_node2"><a xlink:href="https://syntax.abaplint.org/#/expression/SQLClient" xlink:title="expression/SQLClient">
<polygon fill="none" stroke="black" points="306.02,-108 165.16,-108 165.16,-72 306.02,-72 306.02,-108"/>
<text text-anchor="middle" x="235.59" y="-85.8" font-family="Times,serif" font-size="14.00">expression/SQLClient</text>
</a>
</g>
</g>
<!-- expression/SQLClient&#45;&gt;expression/SQLSourceSimple -->
<g id="edge1" class="edge">
<title>expression/SQLClient&#45;&gt;expression/SQLSourceSimple</title>
<path fill="none" stroke="black" d="M223.48,-71.7C217.72,-63.47 210.73,-53.48 204.38,-44.42"/>
<polygon fill="black" stroke="black" points="207.16,-42.29 198.56,-36.1 201.43,-46.3 207.16,-42.29"/>
</g>
<!-- statement/DeleteDatabase -->
<g id="node3" class="node">
<title>statement/DeleteDatabase</title>
<g id="a_node3"><a xlink:href="https://syntax.abaplint.org/#/statement/DeleteDatabase" xlink:title="statement/DeleteDatabase">
<polygon fill="none" stroke="black" points="275.27,-167.56 137.59,-180 -0.09,-167.56 0.04,-147.44 275.14,-147.44 275.27,-167.56"/>
<text text-anchor="middle" x="137.59" y="-157.8" font-family="Times,serif" font-size="14.00">statement/DeleteDatabase</text>
</a>
</g>
</g>
<!-- statement/DeleteDatabase&#45;&gt;expression/SQLSourceSimple -->
<g id="edge4" class="edge">
<title>statement/DeleteDatabase&#45;&gt;expression/SQLSourceSimple</title>
<path fill="none" stroke="black" d="M139.19,-147.37C141.56,-129.58 146.84,-97.7 156.59,-72 160.12,-62.71 165.1,-53.09 169.99,-44.65"/>
<polygon fill="black" stroke="black" points="173.03,-46.38 175.19,-36.01 167.03,-42.77 173.03,-46.38"/>
</g>
<!-- statement/DeleteDatabase&#45;&gt;expression/SQLClient -->
<g id="edge2" class="edge">
<title>statement/DeleteDatabase&#45;&gt;expression/SQLClient</title>
<path fill="none" stroke="black" d="M156.95,-147.17C170.22,-137.69 188.14,-124.89 203.52,-113.9"/>
<polygon fill="black" stroke="black" points="205.66,-116.68 211.76,-108.02 201.59,-110.98 205.66,-116.68"/>
</g>
<!-- statement/UpdateDatabase -->
<g id="node4" class="node">
<title>statement/UpdateDatabase</title>
<g id="a_node4"><a xlink:href="https://syntax.abaplint.org/#/statement/UpdateDatabase" xlink:title="statement/UpdateDatabase">
<polygon fill="none" stroke="black" points="574.41,-167.56 433.59,-180 292.77,-167.56 292.9,-147.44 574.28,-147.44 574.41,-167.56"/>
<text text-anchor="middle" x="433.59" y="-157.8" font-family="Times,serif" font-size="14.00">statement/UpdateDatabase</text>
</a>
</g>
</g>
<!-- statement/UpdateDatabase&#45;&gt;expression/SQLClient -->
<g id="edge3" class="edge">
<title>statement/UpdateDatabase&#45;&gt;expression/SQLClient</title>
<path fill="none" stroke="black" d="M394.94,-147.34C366.06,-137.13 326.09,-122.99 293.4,-111.44"/>
<polygon fill="black" stroke="black" points="294.55,-108.13 283.96,-108.1 292.22,-114.73 294.55,-108.13"/>
</g>
</g>
</svg>
