<?xml version="1.0" encoding="UTF-8" standalone="no"?>
<!DOCTYPE svg PUBLIC "-//W3C//DTD SVG 1.1//EN"
 "http://www.w3.org/Graphics/SVG/1.1/DTD/svg11.dtd">
<!-- Generated by graphviz version 2.47.3 (20210619.1520)
 -->
<!-- Title: G Pages: 1 -->
<svg width="1191pt" height="645pt"
 viewBox="0.00 0.00 1190.52 644.80" xmlns="http://www.w3.org/2000/svg" xmlns:xlink="http://www.w3.org/1999/xlink">
<g id="graph0" class="graph" transform="scale(1 1) rotate(0) translate(4 640.8)">
<title>G</title>
<polygon fill="white" stroke="transparent" points="-4,4 -4,-640.8 1186.52,-640.8 1186.52,4 -4,4"/>
<text text-anchor="middle" x="114.72" y="-620.2" font-family="Times,serif" font-size="14.00">Where used, expression/SQLFunction</text>
<!-- expression/SQLFunction -->
<g id="node1" class="node">
<title>expression/SQLFunction</title>
<g id="a_node1"><a xlink:href="https://syntax.abaplint.org/#/expression/SQLFunction" xlink:title="expression/SQLFunction">
<polygon fill="none" stroke="black" points="294.55,-396 138.59,-396 138.59,-360 294.55,-360 294.55,-396"/>
<text text-anchor="middle" x="216.57" y="-373.8" font-family="Times,serif" font-size="14.00">expression/SQLFunction</text>
</a>
</g>
</g>
<!-- expression/SelectLoop -->
<g id="node2" class="node">
<title>expression/SelectLoop</title>
<g id="a_node2"><a xlink:href="https://syntax.abaplint.org/#/expression/SelectLoop" xlink:title="expression/SelectLoop">
<polygon fill="none" stroke="black" points="390.09,-540 247.05,-540 247.05,-504 390.09,-504 390.09,-540"/>
<text text-anchor="middle" x="318.57" y="-517.8" font-family="Times,serif" font-size="14.00">expression/SelectLoop</text>
</a>
</g>
</g>
<!-- expression/SelectLoop&#45;&gt;expression/SQLFunction -->
<g id="edge1" class="edge">
<title>expression/SelectLoop&#45;&gt;expression/SQLFunction</title>
<path fill="none" stroke="black" d="M278.41,-503.79C262.82,-495.19 246.19,-483.31 235.57,-468 223.02,-449.9 218.5,-425.12 216.99,-406.3"/>
<polygon fill="black" stroke="black" points="220.49,-406.06 216.42,-396.27 213.5,-406.46 220.49,-406.06"/>
</g>
<!-- expression/SQLFieldList -->
<g id="node6" class="node">
<title>expression/SQLFieldList</title>
<g id="a_node6"><a xlink:href="https://syntax.abaplint.org/#/expression/SQLFieldList" xlink:title="expression/SQLFieldList">
<polygon fill="none" stroke="black" points="400.83,-468 244.31,-468 244.31,-432 400.83,-432 400.83,-468"/>
<text text-anchor="middle" x="322.57" y="-445.8" font-family="Times,serif" font-size="14.00">expression/SQLFieldList</text>
</a>
</g>
</g>
<!-- expression/SelectLoop&#45;&gt;expression/SQLFieldList -->
<g id="edge6" class="edge">
<title>expression/SelectLoop&#45;&gt;expression/SQLFieldList</title>
<path fill="none" stroke="black" d="M319.56,-503.7C320,-495.98 320.53,-486.71 321.02,-478.11"/>
<polygon fill="black" stroke="black" points="324.52,-478.29 321.59,-468.1 317.53,-477.89 324.52,-478.29"/>
</g>
<!-- expression/SQLCond -->
<g id="node9" class="node">
<title>expression/SQLCond</title>
<g id="a_node9"><a xlink:href="https://syntax.abaplint.org/#/expression/SQLCond" xlink:title="expression/SQLCond">
<polygon fill="none" stroke="black" points="1049.61,-324 913.53,-324 913.53,-288 1049.61,-288 1049.61,-324"/>
<text text-anchor="middle" x="981.57" y="-301.8" font-family="Times,serif" font-size="14.00">expression/SQLCond</text>
</a>
</g>
</g>
<!-- expression/SelectLoop&#45;&gt;expression/SQLCond -->
<g id="edge10" class="edge">
<title>expression/SelectLoop&#45;&gt;expression/SQLCond</title>
<path fill="none" stroke="black" d="M390.35,-520.61C563.69,-517.98 997.42,-500.84 1086.57,-396 1096.94,-383.81 1094.96,-373.63 1086.57,-360 1078.28,-346.52 1065.38,-336.34 1051.42,-328.71"/>
<polygon fill="black" stroke="black" points="1052.64,-325.4 1042.14,-324.04 1049.5,-331.66 1052.64,-325.4"/>
</g>
<!-- expression/SQLCase -->
<g id="node10" class="node">
<title>expression/SQLCase</title>
<g id="a_node10"><a xlink:href="https://syntax.abaplint.org/#/expression/SQLCase" xlink:title="expression/SQLCase">
<polygon fill="none" stroke="black" points="784.49,-396 650.66,-396 650.66,-360 784.49,-360 784.49,-396"/>
<text text-anchor="middle" x="717.57" y="-373.8" font-family="Times,serif" font-size="14.00">expression/SQLCase</text>
</a>
</g>
</g>
<!-- expression/SelectLoop&#45;&gt;expression/SQLCase -->
<g id="edge13" class="edge">
<title>expression/SelectLoop&#45;&gt;expression/SQLCase</title>
<path fill="none" stroke="black" d="M366.7,-503.87C440.34,-477.66 580.75,-427.69 659.79,-399.56"/>
<polygon fill="black" stroke="black" points="661.34,-402.73 669.58,-396.08 658.99,-396.13 661.34,-402.73"/>
</g>
<!-- expression/SQLFrom -->
<g id="node12" class="node">
<title>expression/SQLFrom</title>
<g id="a_node12"><a xlink:href="https://syntax.abaplint.org/#/expression/SQLFrom" xlink:title="expression/SQLFrom">
<polygon fill="none" stroke="black" points="627.61,-108 491.54,-108 491.54,-72 627.61,-72 627.61,-108"/>
<text text-anchor="middle" x="559.57" y="-85.8" font-family="Times,serif" font-size="14.00">expression/SQLFrom</text>
</a>
</g>
</g>
<!-- expression/SelectLoop&#45;&gt;expression/SQLFrom -->
<g id="edge18" class="edge">
<title>expression/SelectLoop&#45;&gt;expression/SQLFrom</title>
<path fill="none" stroke="black" d="M247.57,-503.96C187.32,-484.78 110.57,-446.99 110.57,-379 110.57,-379 110.57,-379 110.57,-233 110.57,-156.18 352.49,-115.63 481.18,-99.49"/>
<polygon fill="black" stroke="black" points="481.88,-102.93 491.38,-98.23 481.03,-95.98 481.88,-102.93"/>
</g>
<!-- statement/SelectLoop -->
<g id="node3" class="node">
<title>statement/SelectLoop</title>
<g id="a_node3"><a xlink:href="https://syntax.abaplint.org/#/statement/SelectLoop" xlink:title="statement/SelectLoop">
<polygon fill="none" stroke="black" points="432.7,-599.56 315.57,-612 198.44,-599.56 198.55,-579.44 432.59,-579.44 432.7,-599.56"/>
<text text-anchor="middle" x="315.57" y="-589.8" font-family="Times,serif" font-size="14.00">statement/SelectLoop</text>
</a>
</g>
</g>
<!-- statement/SelectLoop&#45;&gt;expression/SelectLoop -->
<g id="edge2" class="edge">
<title>statement/SelectLoop&#45;&gt;expression/SelectLoop</title>
<path fill="none" stroke="black" d="M316.17,-579.17C316.52,-570.92 316.98,-560.15 317.4,-550.26"/>
<polygon fill="black" stroke="black" points="320.91,-550.16 317.84,-540.02 313.92,-549.86 320.91,-550.16"/>
</g>
<!-- statement/WithLoop -->
<g id="node4" class="node">
<title>statement/WithLoop</title>
<g id="a_node4"><a xlink:href="https://syntax.abaplint.org/#/statement/WithLoop" xlink:title="statement/WithLoop">
<polygon fill="none" stroke="black" points="674.11,-599.56 562.57,-612 451.03,-599.56 451.14,-579.44 674.01,-579.44 674.11,-599.56"/>
<text text-anchor="middle" x="562.57" y="-589.8" font-family="Times,serif" font-size="14.00">statement/WithLoop</text>
</a>
</g>
</g>
<!-- statement/WithLoop&#45;&gt;expression/SelectLoop -->
<g id="edge3" class="edge">
<title>statement/WithLoop&#45;&gt;expression/SelectLoop</title>
<path fill="none" stroke="black" d="M515.24,-579.42C479,-569.03 428.5,-554.54 387.74,-542.84"/>
<polygon fill="black" stroke="black" points="388.45,-539.4 377.87,-540.01 386.52,-546.13 388.45,-539.4"/>
</g>
<!-- statement/With -->
<g id="node5" class="node">
<title>statement/With</title>
<g id="a_node5"><a xlink:href="https://syntax.abaplint.org/#/statement/With" xlink:title="statement/With">
<polygon fill="none" stroke="black" points="173.22,-599.56 86.57,-612 -0.07,-599.56 0.01,-579.44 173.14,-579.44 173.22,-599.56"/>
<text text-anchor="middle" x="86.57" y="-589.8" font-family="Times,serif" font-size="14.00">statement/With</text>
</a>
</g>
</g>
<!-- statement/With&#45;&gt;expression/SelectLoop -->
<g id="edge4" class="edge">
<title>statement/With&#45;&gt;expression/SelectLoop</title>
<path fill="none" stroke="black" d="M131.58,-579.42C165.96,-569.05 213.85,-554.6 252.56,-542.92"/>
<polygon fill="black" stroke="black" points="253.63,-546.25 262.19,-540.01 251.61,-539.55 253.63,-546.25"/>
</g>
<!-- expression/Select -->
<g id="node7" class="node">
<title>expression/Select</title>
<g id="a_node7"><a xlink:href="https://syntax.abaplint.org/#/expression/Select" xlink:title="expression/Select">
<polygon fill="none" stroke="black" points="616.54,-180 502.6,-180 502.6,-144 616.54,-144 616.54,-180"/>
<text text-anchor="middle" x="559.57" y="-157.8" font-family="Times,serif" font-size="14.00">expression/Select</text>
</a>
</g>
</g>
<!-- statement/With&#45;&gt;expression/Select -->
<g id="edge23" class="edge">
<title>statement/With&#45;&gt;expression/Select</title>
<path fill="none" stroke="black" d="M84.32,-579.34C80.37,-554.07 72.57,-498.32 72.57,-451 72.57,-451 72.57,-451 72.57,-305 72.57,-236.08 135.53,-241.48 199.57,-216 296.42,-177.46 417.96,-166.59 492.15,-163.72"/>
<polygon fill="black" stroke="black" points="492.42,-167.21 502.29,-163.37 492.17,-160.22 492.42,-167.21"/>
</g>
<!-- expression/SQLFieldList&#45;&gt;expression/SQLFunction -->
<g id="edge5" class="edge">
<title>expression/SQLFieldList&#45;&gt;expression/SQLFunction</title>
<path fill="none" stroke="black" d="M296.64,-431.88C282.91,-422.81 265.87,-411.55 251.04,-401.76"/>
<polygon fill="black" stroke="black" points="252.88,-398.78 242.6,-396.19 249.02,-404.62 252.88,-398.78"/>
</g>
<!-- expression/SQLFieldList&#45;&gt;expression/SQLCase -->
<g id="edge14" class="edge">
<title>expression/SQLFieldList&#45;&gt;expression/SQLCase</title>
<path fill="none" stroke="black" d="M401.12,-437.19C463.49,-427.53 553.12,-413.01 640.65,-396.13"/>
<polygon fill="black" stroke="black" points="641.33,-399.56 650.48,-394.22 639.99,-392.69 641.33,-399.56"/>
</g>
<!-- expression/Select&#45;&gt;expression/SQLFieldList -->
<g id="edge7" class="edge">
<title>expression/Select&#45;&gt;expression/SQLFieldList</title>
<path fill="none" stroke="black" d="M502.55,-163.19C414.52,-164.84 251.86,-173.69 215.57,-216 166.74,-272.93 271.15,-292.37 303.57,-360 312.94,-379.53 317.72,-403.67 320.14,-421.88"/>
<polygon fill="black" stroke="black" points="316.67,-422.31 321.31,-431.83 323.62,-421.49 316.67,-422.31"/>
</g>
<!-- expression/Select&#45;&gt;expression/SQLCond -->
<g id="edge11" class="edge">
<title>expression/Select&#45;&gt;expression/SQLCond</title>
<path fill="none" stroke="black" d="M616.69,-162.69C715.71,-163.37 913.39,-170.58 962.57,-216 979.3,-231.45 983.22,-257.7 983.44,-277.71"/>
<polygon fill="black" stroke="black" points="979.94,-277.72 983.26,-287.79 986.94,-277.85 979.94,-277.72"/>
</g>
<!-- expression/Select&#45;&gt;expression/SQLFrom -->
<g id="edge19" class="edge">
<title>expression/Select&#45;&gt;expression/SQLFrom</title>
<path fill="none" stroke="black" d="M559.57,-143.7C559.57,-135.98 559.57,-126.71 559.57,-118.11"/>
<polygon fill="black" stroke="black" points="563.07,-118.1 559.57,-108.1 556.07,-118.1 563.07,-118.1"/>
</g>
<!-- expression/SQLCompare -->
<g id="node8" class="node">
<title>expression/SQLCompare</title>
<g id="a_node8"><a xlink:href="https://syntax.abaplint.org/#/expression/SQLCompare" xlink:title="expression/SQLCompare">
<polygon fill="none" stroke="black" points="1167.09,-252 1010.05,-252 1010.05,-216 1167.09,-216 1167.09,-252"/>
<text text-anchor="middle" x="1088.57" y="-229.8" font-family="Times,serif" font-size="14.00">expression/SQLCompare</text>
</a>
</g>
</g>
<!-- expression/SQLCompare&#45;&gt;expression/Select -->
<g id="edge8" class="edge">
<title>expression/SQLCompare&#45;&gt;expression/Select</title>
<path fill="none" stroke="black" d="M1009.98,-218.29C1005.11,-217.49 1000.28,-216.72 995.57,-216 865.54,-196.23 712.8,-179.04 626.98,-169.93"/>
<polygon fill="black" stroke="black" points="627.17,-166.43 616.85,-168.86 626.43,-173.39 627.17,-166.43"/>
</g>
<!-- expression/SQLCond&#45;&gt;expression/SQLCompare -->
<g id="edge9" class="edge">
<title>expression/SQLCond&#45;&gt;expression/SQLCompare</title>
<path fill="none" stroke="black" d="M1007.75,-287.88C1021.61,-278.81 1038.81,-267.55 1053.78,-257.76"/>
<polygon fill="black" stroke="black" points="1055.84,-260.59 1062.3,-252.19 1052.01,-254.74 1055.84,-260.59"/>
</g>
<!-- expression/SQLCond&#45;&gt;expression/SQLCond -->
<g id="edge15" class="edge">
<title>expression/SQLCond&#45;&gt;expression/SQLCond</title>
<path fill="none" stroke="black" d="M1049.91,-318.37C1060.57,-316.52 1067.84,-312.4 1067.84,-306 1067.84,-301.8 1064.71,-298.58 1059.55,-296.34"/>
<polygon fill="black" stroke="black" points="1060.49,-292.97 1049.91,-293.63 1058.59,-299.71 1060.49,-292.97"/>
</g>
<!-- expression/SQLCase&#45;&gt;expression/SQLCond -->
<g id="edge12" class="edge">
<title>expression/SQLCase&#45;&gt;expression/SQLCond</title>
<path fill="none" stroke="black" d="M781.82,-359.97C819.67,-349.93 867.71,-337.19 907.2,-326.72"/>
<polygon fill="black" stroke="black" points="908.27,-330.06 917.04,-324.11 906.48,-323.29 908.27,-330.06"/>
</g>
<!-- expression/SQLJoin -->
<g id="node11" class="node">
<title>expression/SQLJoin</title>
<g id="a_node11"><a xlink:href="https://syntax.abaplint.org/#/expression/SQLJoin" xlink:title="expression/SQLJoin">
<polygon fill="none" stroke="black" points="942.11,-36 813.03,-36 813.03,0 942.11,0 942.11,-36"/>
<text text-anchor="middle" x="877.57" y="-13.8" font-family="Times,serif" font-size="14.00">expression/SQLJoin</text>
</a>
</g>
</g>
<!-- expression/SQLJoin&#45;&gt;expression/SQLCond -->
<g id="edge16" class="edge">
<title>expression/SQLJoin&#45;&gt;expression/SQLCond</title>
<path fill="none" stroke="black" d="M930.51,-36.03C1001.43,-62.04 1124.39,-119.13 1176.57,-216 1204.19,-267.26 1125.2,-289.11 1059.6,-298.35"/>
<polygon fill="black" stroke="black" points="1059.08,-294.89 1049.63,-299.67 1060,-301.83 1059.08,-294.89"/>
</g>
<!-- expression/SQLFrom&#45;&gt;expression/SQLJoin -->
<g id="edge17" class="edge">
<title>expression/SQLFrom&#45;&gt;expression/SQLJoin</title>
<path fill="none" stroke="black" d="M627.79,-73.98C679.31,-62.64 749.96,-47.09 802.97,-35.42"/>
<polygon fill="black" stroke="black" points="803.98,-38.78 812.99,-33.22 802.47,-31.95 803.98,-38.78"/>
</g>
<!-- statement/DeleteDatabase -->
<g id="node13" class="node">
<title>statement/DeleteDatabase</title>
<g id="a_node13"><a xlink:href="https://syntax.abaplint.org/#/statement/DeleteDatabase" xlink:title="statement/DeleteDatabase">
<polygon fill="none" stroke="black" points="1077.25,-383.56 939.57,-396 801.89,-383.56 802.02,-363.44 1077.12,-363.44 1077.25,-383.56"/>
<text text-anchor="middle" x="939.57" y="-373.8" font-family="Times,serif" font-size="14.00">statement/DeleteDatabase</text>
</a>
</g>
</g>
<!-- statement/DeleteDatabase&#45;&gt;expression/SQLCond -->
<g id="edge20" class="edge">
<title>statement/DeleteDatabase&#45;&gt;expression/SQLCond</title>
<path fill="none" stroke="black" d="M947.87,-363.17C953.08,-354.48 959.97,-343 966.16,-332.68"/>
<polygon fill="black" stroke="black" points="969.22,-334.39 971.36,-324.02 963.21,-330.79 969.22,-334.39"/>
</g>
<!-- statement/UpdateDatabase -->
<g id="node14" class="node">
<title>statement/UpdateDatabase</title>
<g id="a_node14"><a xlink:href="https://syntax.abaplint.org/#/statement/UpdateDatabase" xlink:title="statement/UpdateDatabase">
<polygon fill="none" stroke="black" points="632.39,-383.56 491.57,-396 350.75,-383.56 350.88,-363.44 632.26,-363.44 632.39,-383.56"/>
<text text-anchor="middle" x="491.57" y="-373.8" font-family="Times,serif" font-size="14.00">statement/UpdateDatabase</text>
</a>
</g>
</g>
<!-- statement/UpdateDatabase&#45;&gt;expression/SQLCond -->
<g id="edge21" class="edge">
<title>statement/UpdateDatabase&#45;&gt;expression/SQLCond</title>
<path fill="none" stroke="black" d="M586.63,-363.42C678.86,-350.25 817.14,-330.49 903.23,-318.19"/>
<polygon fill="black" stroke="black" points="903.8,-321.65 913.21,-316.77 902.81,-314.72 903.8,-321.65"/>
</g>
<!-- statement/Select -->
<g id="node15" class="node">
<title>statement/Select</title>
<g id="a_node15"><a xlink:href="https://syntax.abaplint.org/#/statement/Select" xlink:title="statement/Select">
<polygon fill="none" stroke="black" points="408.31,-239.56 316.57,-252 224.83,-239.56 224.92,-219.44 408.22,-219.44 408.31,-239.56"/>
<text text-anchor="middle" x="316.57" y="-229.8" font-family="Times,serif" font-size="14.00">statement/Select</text>
</a>
</g>
</g>
<!-- statement/Select&#45;&gt;expression/Select -->
<g id="edge22" class="edge">
<title>statement/Select&#45;&gt;expression/Select</title>
<path fill="none" stroke="black" d="M363.71,-219.42C400.38,-208.86 451.74,-194.06 492.66,-182.27"/>
<polygon fill="black" stroke="black" points="493.65,-185.63 502.29,-179.5 491.71,-178.91 493.65,-185.63"/>
</g>
<!-- statement/InsertDatabase -->
<g id="node16" class="node">
<title>statement/InsertDatabase</title>
<g id="a_node16"><a xlink:href="https://syntax.abaplint.org/#/statement/InsertDatabase" xlink:title="statement/InsertDatabase">
<polygon fill="none" stroke="black" points="693.3,-239.56 559.57,-252 425.84,-239.56 425.97,-219.44 693.18,-219.44 693.3,-239.56"/>
<text text-anchor="middle" x="559.57" y="-229.8" font-family="Times,serif" font-size="14.00">statement/InsertDatabase</text>
</a>
</g>
</g>
<!-- statement/InsertDatabase&#45;&gt;expression/Select -->
<g id="edge24" class="edge">
<title>statement/InsertDatabase&#45;&gt;expression/Select</title>
<path fill="none" stroke="black" d="M559.57,-219.17C559.57,-210.92 559.57,-200.15 559.57,-190.26"/>
<polygon fill="black" stroke="black" points="563.07,-190.02 559.57,-180.02 556.07,-190.02 563.07,-190.02"/>
</g>
<!-- statement/OpenCursor -->
<g id="node17" class="node">
<title>statement/OpenCursor</title>
<g id="a_node17"><a xlink:href="https://syntax.abaplint.org/#/statement/OpenCursor" xlink:title="statement/OpenCursor">
<polygon fill="none" stroke="black" points="953.66,-239.56 832.57,-252 711.49,-239.56 711.6,-219.44 953.54,-219.44 953.66,-239.56"/>
<text text-anchor="middle" x="832.57" y="-229.8" font-family="Times,serif" font-size="14.00">statement/OpenCursor</text>
</a>
</g>
</g>
<!-- statement/OpenCursor&#45;&gt;expression/Select -->
<g id="edge25" class="edge">
<title>statement/OpenCursor&#45;&gt;expression/Select</title>
<path fill="none" stroke="black" d="M779.61,-219.42C735.89,-208.21 673.6,-192.24 626.44,-180.15"/>
<polygon fill="black" stroke="black" points="627.18,-176.72 616.62,-177.63 625.44,-183.5 627.18,-176.72"/>
</g>
</g>
</svg>
