<svg xmlns="http://www.w3.org/2000/svg" xmlns:xlink="http://www.w3.org/1999/xlink" class="railroad-diagram" width="694.5" height="169" viewBox="0 0 694.5 169">
<defs>
<style type="text/css"><![CDATA[
path {
stroke-width: 3;
stroke: black;
fill: rgba(0,0,0,0);
}
text {
font: bold 14px monospace;
text-anchor: middle;
}
text.diagram-text {
font-size: 12px;
}
a {
fill: blue;
}
text.diagram-arrow {
font-size: 16px;
}
text.label {
text-anchor: start;
}
text.comment {
font: italic 12px monospace;
}
rect {
stroke-width: 3;
stroke: black;
fill: #BCBCBC;
}
path.diagram-text {
stroke-width: 3;
stroke: black;
fill: #BCBCBC;
cursor: help;
}
]]></style>
</defs>
<g transform="translate(.5 .5)">
<g>
<path d="M20 21v20m0 -10h20"></path>
</g>
<path d="M40 31h10"></path>
<g>
<path d="M50 31h0"></path>
<path d="M644.5 31h0"></path>
<g class="terminal">
<path d="M50 31h0"></path>
<path d="M155 31h0"></path>
<rect x="50" y="20" width="105" height="22" rx="10" ry="10"></rect>
<text x="102.5" y="35">"ORDER BY"</text>
</g>
<path d="M155 31h10"></path>
<g>
<path d="M165 31h0"></path>
<path d="M644.5 31h0"></path>
<path d="M165 31h20"></path>
<g class="terminal">
<path d="M185 31h0"></path>
<path d="M315.5 31h309"></path>
<rect x="185" y="20" width="130.5" height="22" rx="10" ry="10"></rect>
<text x="250.25" y="35">"PRIMARY KEY"</text>
</g>
<path d="M624.5 31h20"></path>
<path d="M165 31a10 10 0 0 1 10 10v10a10 10 0 0 0 10 10"></path>
<g class="non-terminal">
<path d="M185 61h0"></path>
<path d="M264.5 61h360"></path>
<rect x="185" y="50" width="79.5" height="22"></rect>
<a xlink:href="#/expression/Dynamic"><text x="224.75" y="65">Dynamic</text>
</a>
</g>
<path d="M624.5 61a10 10 0 0 0 10 -10v-10a10 10 0 0 1 10 -10"></path>
<path d="M165 31a10 10 0 0 1 10 10v49a10 10 0 0 0 10 10"></path>
<g>
<path d="M185 100h0"></path>
<path d="M624.5 100h0"></path>
<path d="M185 100h10"></path>
<g>
<path d="M195 100h0"></path>
<path d="M614.5 100h0"></path>
<g class="non-terminal">
<path d="M195 100h0"></path>
<path d="M317 100h0"></path>
<rect x="195" y="89" width="122" height="22"></rect>
<a xlink:href="#/expression/SQLFieldName"><text x="256" y="104">SQLFieldName</text>
</a>
</g>
<path d="M317 100h10"></path>
<g>
<path d="M327 100h0"></path>
<path d="M529 100h0"></path>
<path d="M327 100a10 10 0 0 0 10 -10v0a10 10 0 0 1 10 -10"></path>
<g>
<path d="M347 80h162"></path>
</g>
<path d="M509 80a10 10 0 0 1 10 10v0a10 10 0 0 0 10 10"></path>
<path d="M327 100h20"></path>
<g>
<path d="M347 100h0"></path>
<path d="M509 100h0"></path>
<path d="M347 100h20"></path>
<g class="terminal">
<path d="M367 100h0"></path>
<path d="M480.5 100h8.5"></path>
<rect x="367" y="89" width="113.5" height="22" rx="10" ry="10"></rect>
<text x="423.75" y="104">"ASCENDING"</text>
</g>
<path d="M489 100h20"></path>
<path d="M347 100a10 10 0 0 1 10 10v10a10 10 0 0 0 10 10"></path>
<g class="terminal">
<path d="M367 130h0"></path>
<path d="M489 130h0"></path>
<rect x="367" y="119" width="122" height="22" rx="10" ry="10"></rect>
<text x="428" y="134">"DESCENDING"</text>
</g>
<path d="M489 130a10 10 0 0 0 10 -10v-10a10 10 0 0 1 10 -10"></path>
</g>
<path d="M509 100h20"></path>
</g>
<g>
<path d="M529 100h0"></path>
<path d="M614.5 100h0"></path>
<path d="M529 100a10 10 0 0 0 10 -10v0a10 10 0 0 1 10 -10"></path>
<g>
<path d="M549 80h45.5"></path>
</g>
<path d="M594.5 80a10 10 0 0 1 10 10v0a10 10 0 0 0 10 10"></path>
<path d="M529 100h20"></path>
<g class="terminal">
<path d="M549 100h0"></path>
<path d="M594.5 100h0"></path>
<rect x="549" y="89" width="45.5" height="22" rx="10" ry="10"></rect>
<text x="571.75" y="104">","</text>
</g>
<path d="M594.5 100h20"></path>
</g>
</g>
<path d="M614.5 100h10"></path>
<path d="M195 100a10 10 0 0 0 -10 10v29a10 10 0 0 0 10 10"></path>
<g>
<path d="M195 149h419.5"></path>
</g>
<path d="M614.5 149a10 10 0 0 0 10 -10v-29a10 10 0 0 0 -10 -10"></path>
</g>
<path d="M624.5 100a10 10 0 0 0 10 -10v-49a10 10 0 0 1 10 -10"></path>
</g>
</g>
<path d="M644.5 31h10"></path>
<path d="M 654.5 31 h 20 m 0 -10 v 20"></path>
</g>
</svg>
