<?xml version="1.0" encoding="UTF-8" standalone="no"?>
<!DOCTYPE svg PUBLIC "-//W3C//DTD SVG 1.1//EN"
 "http://www.w3.org/Graphics/SVG/1.1/DTD/svg11.dtd">
<!-- Generated by graphviz version 2.47.3 (20210619.1520)
 -->
<!-- Title: G Pages: 1 -->
<svg width="890pt" height="357pt"
 viewBox="0.00 0.00 889.94 356.80" xmlns="http://www.w3.org/2000/svg" xmlns:xlink="http://www.w3.org/1999/xlink">
<g id="graph0" class="graph" transform="scale(1 1) rotate(0) translate(4 352.8)">
<title>G</title>
<polygon fill="white" stroke="transparent" points="-4,4 -4,-352.8 885.94,-352.8 885.94,4 -4,4"/>
<text text-anchor="middle" x="132.98" y="-332.2" font-family="Times,serif" font-size="14.00">Where used, expression/MethodParamName</text>
<!-- expression/MethodParamName -->
<g id="node1" class="node">
<title>expression/MethodParamName</title>
<g id="a_node1"><a xlink:href="https://syntax.abaplint.org/#/expression/MethodParamName" xlink:title="expression/MethodParamName">
<polygon fill="none" stroke="black" points="293.25,-36 100.25,-36 100.25,0 293.25,0 293.25,-36"/>
<text text-anchor="middle" x="196.75" y="-13.8" font-family="Times,serif" font-size="14.00">expression/MethodParamName</text>
</a>
</g>
</g>
<!-- expression/EventHandler -->
<g id="node2" class="node">
<title>expression/EventHandler</title>
<g id="a_node2"><a xlink:href="https://syntax.abaplint.org/#/expression/EventHandler" xlink:title="expression/EventHandler">
<polygon fill="none" stroke="black" points="157.26,-180 0.25,-180 0.25,-144 157.26,-144 157.26,-180"/>
<text text-anchor="middle" x="78.75" y="-157.8" font-family="Times,serif" font-size="14.00">expression/EventHandler</text>
</a>
</g>
</g>
<!-- expression/EventHandler&#45;&gt;expression/MethodParamName -->
<g id="edge1" class="edge">
<title>expression/EventHandler&#45;&gt;expression/MethodParamName</title>
<path fill="none" stroke="black" d="M75.88,-143.92C73.6,-124.66 72.91,-93.27 87.75,-72 97.23,-58.43 111.18,-48.19 125.95,-40.52"/>
<polygon fill="black" stroke="black" points="127.72,-43.55 135.22,-36.07 124.69,-37.24 127.72,-43.55"/>
</g>
<!-- statement/MethodDef -->
<g id="node3" class="node">
<title>statement/MethodDef</title>
<g id="a_node3"><a xlink:href="https://syntax.abaplint.org/#/statement/MethodDef" xlink:title="statement/MethodDef">
<polygon fill="none" stroke="black" points="346.7,-311.56 228.75,-324 110.81,-311.56 110.92,-291.44 346.59,-291.44 346.7,-311.56"/>
<text text-anchor="middle" x="228.75" y="-301.8" font-family="Times,serif" font-size="14.00">statement/MethodDef</text>
</a>
</g>
</g>
<!-- statement/MethodDef&#45;&gt;expression/EventHandler -->
<g id="edge2" class="edge">
<title>statement/MethodDef&#45;&gt;expression/EventHandler</title>
<path fill="none" stroke="black" d="M214.37,-291.38C189.09,-267.45 136.36,-217.53 104.61,-187.48"/>
<polygon fill="black" stroke="black" points="106.69,-184.63 97.02,-180.29 101.88,-189.71 106.69,-184.63"/>
</g>
<!-- expression/MethodDefReturning -->
<g id="node4" class="node">
<title>expression/MethodDefReturning</title>
<g id="a_node4"><a xlink:href="https://syntax.abaplint.org/#/expression/MethodDefReturning" xlink:title="expression/MethodDefReturning">
<polygon fill="none" stroke="black" points="297.04,-108 96.47,-108 96.47,-72 297.04,-72 297.04,-108"/>
<text text-anchor="middle" x="196.75" y="-85.8" font-family="Times,serif" font-size="14.00">expression/MethodDefReturning</text>
</a>
</g>
</g>
<!-- statement/MethodDef&#45;&gt;expression/MethodDefReturning -->
<g id="edge4" class="edge">
<title>statement/MethodDef&#45;&gt;expression/MethodDefReturning</title>
<path fill="none" stroke="black" d="M226.7,-291.29C221.5,-256.53 207.74,-164.46 200.83,-118.25"/>
<polygon fill="black" stroke="black" points="204.25,-117.45 199.31,-108.08 197.32,-118.49 204.25,-117.45"/>
</g>
<!-- expression/MethodDefExporting -->
<g id="node6" class="node">
<title>expression/MethodDefExporting</title>
<g id="a_node6"><a xlink:href="https://syntax.abaplint.org/#/expression/MethodDefExporting" xlink:title="expression/MethodDefExporting">
<polygon fill="none" stroke="black" points="428.04,-180 227.47,-180 227.47,-144 428.04,-144 428.04,-180"/>
<text text-anchor="middle" x="327.75" y="-157.8" font-family="Times,serif" font-size="14.00">expression/MethodDefExporting</text>
</a>
</g>
</g>
<!-- statement/MethodDef&#45;&gt;expression/MethodDefExporting -->
<g id="edge7" class="edge">
<title>statement/MethodDef&#45;&gt;expression/MethodDefExporting</title>
<path fill="none" stroke="black" d="M228.57,-291.41C228.95,-272.81 232.01,-239.11 247.75,-216 256.21,-203.58 268.64,-193.34 281.19,-185.27"/>
<polygon fill="black" stroke="black" points="283.1,-188.21 289.85,-180.04 279.48,-182.21 283.1,-188.21"/>
</g>
<!-- expression/MethodDefChanging -->
<g id="node8" class="node">
<title>expression/MethodDefChanging</title>
<g id="a_node8"><a xlink:href="https://syntax.abaplint.org/#/expression/MethodDefChanging" xlink:title="expression/MethodDefChanging">
<polygon fill="none" stroke="black" points="454.99,-252 256.52,-252 256.52,-216 454.99,-216 454.99,-252"/>
<text text-anchor="middle" x="355.75" y="-229.8" font-family="Times,serif" font-size="14.00">expression/MethodDefChanging</text>
</a>
</g>
</g>
<!-- statement/MethodDef&#45;&gt;expression/MethodDefChanging -->
<g id="edge10" class="edge">
<title>statement/MethodDef&#45;&gt;expression/MethodDefChanging</title>
<path fill="none" stroke="black" d="M253.54,-291.34C271.27,-281.56 295.52,-268.2 315.95,-256.94"/>
<polygon fill="black" stroke="black" points="317.66,-259.99 324.73,-252.1 314.28,-253.86 317.66,-259.99"/>
</g>
<!-- expression/MethodDefImporting -->
<g id="node9" class="node">
<title>expression/MethodDefImporting</title>
<g id="a_node9"><a xlink:href="https://syntax.abaplint.org/#/expression/MethodDefImporting" xlink:title="expression/MethodDefImporting">
<polygon fill="none" stroke="black" points="674.04,-252 473.47,-252 473.47,-216 674.04,-216 674.04,-252"/>
<text text-anchor="middle" x="573.75" y="-229.8" font-family="Times,serif" font-size="14.00">expression/MethodDefImporting</text>
</a>
</g>
</g>
<!-- statement/MethodDef&#45;&gt;expression/MethodDefImporting -->
<g id="edge12" class="edge">
<title>statement/MethodDef&#45;&gt;expression/MethodDefImporting</title>
<path fill="none" stroke="black" d="M295.68,-291.42C348.1,-280.78 421.66,-265.86 479.95,-254.03"/>
<polygon fill="black" stroke="black" points="480.81,-257.43 489.91,-252.01 479.42,-250.57 480.81,-257.43"/>
</g>
<!-- expression/MethodDefReturning&#45;&gt;expression/MethodParamName -->
<g id="edge3" class="edge">
<title>expression/MethodDefReturning&#45;&gt;expression/MethodParamName</title>
<path fill="none" stroke="black" d="M196.75,-71.7C196.75,-63.98 196.75,-54.71 196.75,-46.11"/>
<polygon fill="black" stroke="black" points="200.25,-46.1 196.75,-36.1 193.25,-46.1 200.25,-46.1"/>
</g>
<!-- expression/MethodParam -->
<g id="node5" class="node">
<title>expression/MethodParam</title>
<g id="a_node5"><a xlink:href="https://syntax.abaplint.org/#/expression/MethodParam" xlink:title="expression/MethodParam">
<polygon fill="none" stroke="black" points="474.33,-108 315.18,-108 315.18,-72 474.33,-72 474.33,-108"/>
<text text-anchor="middle" x="394.75" y="-85.8" font-family="Times,serif" font-size="14.00">expression/MethodParam</text>
</a>
</g>
</g>
<!-- expression/MethodParam&#45;&gt;expression/MethodParamName -->
<g id="edge5" class="edge">
<title>expression/MethodParam&#45;&gt;expression/MethodParamName</title>
<path fill="none" stroke="black" d="M346.57,-71.97C318.9,-62.19 283.98,-49.84 254.8,-39.52"/>
<polygon fill="black" stroke="black" points="255.75,-36.14 245.15,-36.11 253.41,-42.74 255.75,-36.14"/>
</g>
<!-- expression/MethodDefExporting&#45;&gt;expression/MethodParam -->
<g id="edge6" class="edge">
<title>expression/MethodDefExporting&#45;&gt;expression/MethodParam</title>
<path fill="none" stroke="black" d="M344.31,-143.7C352.43,-135.22 362.34,-124.86 371.22,-115.58"/>
<polygon fill="black" stroke="black" points="374,-117.75 378.38,-108.1 368.94,-112.91 374,-117.75"/>
</g>
<!-- expression/MethodParamOptional -->
<g id="node7" class="node">
<title>expression/MethodParamOptional</title>
<g id="a_node7"><a xlink:href="https://syntax.abaplint.org/#/expression/MethodParamOptional" xlink:title="expression/MethodParamOptional">
<polygon fill="none" stroke="black" points="669.82,-180 461.69,-180 461.69,-144 669.82,-144 669.82,-180"/>
<text text-anchor="middle" x="565.75" y="-157.8" font-family="Times,serif" font-size="14.00">expression/MethodParamOptional</text>
</a>
</g>
</g>
<!-- expression/MethodParamOptional&#45;&gt;expression/MethodParam -->
<g id="edge8" class="edge">
<title>expression/MethodParamOptional&#45;&gt;expression/MethodParam</title>
<path fill="none" stroke="black" d="M523.92,-143.88C500.34,-134.22 470.69,-122.09 445.75,-111.88"/>
<polygon fill="black" stroke="black" points="447.03,-108.62 436.45,-108.07 444.38,-115.1 447.03,-108.62"/>
</g>
<!-- expression/MethodDefChanging&#45;&gt;expression/MethodParamOptional -->
<g id="edge9" class="edge">
<title>expression/MethodDefChanging&#45;&gt;expression/MethodParamOptional</title>
<path fill="none" stroke="black" d="M406.86,-215.97C436.33,-206.14 473.57,-193.73 504.59,-183.39"/>
<polygon fill="black" stroke="black" points="506.04,-186.59 514.42,-180.11 503.83,-179.95 506.04,-186.59"/>
</g>
<!-- expression/MethodDefImporting&#45;&gt;expression/MethodParamOptional -->
<g id="edge11" class="edge">
<title>expression/MethodDefImporting&#45;&gt;expression/MethodParamOptional</title>
<path fill="none" stroke="black" d="M571.77,-215.7C570.89,-207.98 569.83,-198.71 568.85,-190.11"/>
<polygon fill="black" stroke="black" points="572.32,-189.64 567.71,-180.1 565.37,-190.44 572.32,-189.64"/>
</g>
<!-- statement/Events -->
<g id="node10" class="node">
<title>statement/Events</title>
<g id="a_node10"><a xlink:href="https://syntax.abaplint.org/#/statement/Events" xlink:title="statement/Events">
<polygon fill="none" stroke="black" points="882.13,-239.56 786.75,-252 691.37,-239.56 691.46,-219.44 882.04,-219.44 882.13,-239.56"/>
<text text-anchor="middle" x="786.75" y="-229.8" font-family="Times,serif" font-size="14.00">statement/Events</text>
</a>
</g>
</g>
<!-- statement/Events&#45;&gt;expression/MethodParamOptional -->
<g id="edge13" class="edge">
<title>statement/Events&#45;&gt;expression/MethodParamOptional</title>
<path fill="none" stroke="black" d="M743.88,-219.42C711.27,-209.09 665.89,-194.72 629.1,-183.07"/>
<polygon fill="black" stroke="black" points="630.05,-179.69 619.46,-180.01 627.94,-186.37 630.05,-179.69"/>
</g>
</g>
</svg>
