<?xml version="1.0" encoding="UTF-8" standalone="no"?>
<!DOCTYPE svg PUBLIC "-//W3C//DTD SVG 1.1//EN"
 "http://www.w3.org/Graphics/SVG/1.1/DTD/svg11.dtd">
<!-- Generated by graphviz version 2.47.3 (20210619.1520)
 -->
<!-- Title: G Pages: 1 -->
<svg width="247pt" height="141pt"
 viewBox="0.00 0.00 246.77 140.80" xmlns="http://www.w3.org/2000/svg" xmlns:xlink="http://www.w3.org/1999/xlink">
<g id="graph0" class="graph" transform="scale(1 1) rotate(0) translate(4 136.8)">
<title>G</title>
<polygon fill="white" stroke="transparent" points="-4,4 -4,-136.8 242.77,-136.8 242.77,4 -4,4"/>
<text text-anchor="middle" x="119.38" y="-116.2" font-family="Times,serif" font-size="14.00">Where used, expression/SimpleSource4</text>
<!-- expression/SimpleSource4 -->
<g id="node1" class="node">
<title>expression/SimpleSource4</title>
<g id="a_node1"><a xlink:href="https://syntax.abaplint.org/#/expression/SimpleSource4" xlink:title="expression/SimpleSource4">
<polygon fill="none" stroke="black" points="202.18,-36 36.58,-36 36.58,0 202.18,0 202.18,-36"/>
<text text-anchor="middle" x="119.38" y="-13.8" font-family="Times,serif" font-size="14.00">expression/SimpleSource4</text>
</a>
</g>
</g>
<!-- statement/Append -->
<g id="node2" class="node">
<title>statement/Append</title>
<g id="a_node2"><a xlink:href="https://syntax.abaplint.org/#/statement/Append" xlink:title="statement/Append">
<polygon fill="none" stroke="black" points="219.87,-95.56 119.38,-108 18.9,-95.56 18.99,-75.44 219.77,-75.44 219.87,-95.56"/>
<text text-anchor="middle" x="119.38" y="-85.8" font-family="Times,serif" font-size="14.00">statement/Append</text>
</a>
</g>
</g>
<!-- statement/Append&#45;&gt;expression/SimpleSource4 -->
<g id="edge1" class="edge">
<title>statement/Append&#45;&gt;expression/SimpleSource4</title>
<path fill="none" stroke="black" d="M119.38,-75.17C119.38,-66.92 119.38,-56.15 119.38,-46.26"/>
<polygon fill="black" stroke="black" points="122.88,-46.02 119.38,-36.02 115.88,-46.02 122.88,-46.02"/>
</g>
</g>
</svg>
