<svg xmlns="http://www.w3.org/2000/svg" xmlns:xlink="http://www.w3.org/1999/xlink" class="railroad-diagram" width="862.5" height="80" viewBox="0 0 862.5 80">
<defs>
<style type="text/css"><![CDATA[
path {
stroke-width: 3;
stroke: black;
fill: rgba(0,0,0,0);
}
text {
font: bold 14px monospace;
text-anchor: middle;
}
text.diagram-text {
font-size: 12px;
}
a {
fill: blue;
}
text.diagram-arrow {
font-size: 16px;
}
text.label {
text-anchor: start;
}
text.comment {
font: italic 12px monospace;
}
rect {
stroke-width: 3;
stroke: black;
fill: #BCBCBC;
}
path.diagram-text {
stroke-width: 3;
stroke: black;
fill: #BCBCBC;
cursor: help;
}
]]></style>
</defs>
<g transform="translate(.5 .5)">
<g>
<path d="M20 30v20m0 -10h20"></path>
</g>
<path d="M40 40h10"></path>
<g>
<path d="M50 40h0"></path>
<path d="M812.5 40h0"></path>
<g class="terminal">
<path d="M50 40h0"></path>
<path d="M401.5 40h0"></path>
<rect x="50" y="29" width="351.5" height="22" rx="10" ry="10"></rect>
<text x="225.75" y="44">^\&#42;?!?(\/\w+\/)?&#91;a-zA-Z&#95;%$&#93;&#91;\w%$\$\&#42;&#93;&#42;$</text>
</g>
<path d="M401.5 40h10"></path>
<g>
<path d="M411.5 40h0"></path>
<path d="M676 40h0"></path>
<path d="M411.5 40a10 10 0 0 0 10 -10v0a10 10 0 0 1 10 -10"></path>
<g>
<path d="M431.5 20h224.5"></path>
</g>
<path d="M656 20a10 10 0 0 1 10 10v0a10 10 0 0 0 10 10"></path>
<path d="M411.5 40h20"></path>
<g>
<path d="M431.5 40h0"></path>
<path d="M656 40h0"></path>
<path d="M431.5 40h10"></path>
<g>
<path d="M441.5 40h0"></path>
<path d="M646 40h0"></path>
<g class="terminal">
<path d="M441.5 40h0"></path>
<path d="M495.5 40h0"></path>
<rect x="441.5" y="29" width="54" height="22" rx="10" ry="10"></rect>
<text x="468.5" y="44">!"-"</text>
</g>
<path d="M495.5 40h10"></path>
<path d="M505.5 40h10"></path>
<g class="terminal">
<path d="M515.5 40h0"></path>
<path d="M646 40h0"></path>
<rect x="515.5" y="29" width="130.5" height="22" rx="10" ry="10"></rect>
<text x="580.75" y="44">^&#91;\w%$\$\&#42;&#93;+$</text>
</g>
</g>
<path d="M646 40h10"></path>
<path d="M441.5 40a10 10 0 0 0 -10 10v0a10 10 0 0 0 10 10"></path>
<g>
<path d="M441.5 60h204.5"></path>
</g>
<path d="M646 60a10 10 0 0 0 10 -10v0a10 10 0 0 0 -10 -10"></path>
</g>
<path d="M656 40h20"></path>
</g>
<g>
<path d="M676 40h0"></path>
<path d="M812.5 40h0"></path>
<path d="M676 40a10 10 0 0 0 10 -10v0a10 10 0 0 1 10 -10"></path>
<g>
<path d="M696 20h96.5"></path>
</g>
<path d="M792.5 20a10 10 0 0 1 10 10v0a10 10 0 0 0 10 10"></path>
<path d="M676 40h20"></path>
<g class="non-terminal">
<path d="M696 40h0"></path>
<path d="M792.5 40h0"></path>
<rect x="696" y="29" width="96.5" height="22"></rect>
<a xlink:href="#/expression/TableBody"><text x="744.25" y="44">TableBody</text>
</a>
</g>
<path d="M792.5 40h20"></path>
</g>
</g>
<path d="M812.5 40h10"></path>
<path d="M 822.5 40 h 20 m 0 -10 v 20"></path>
</g>
</svg>
