<?xml version="1.0" encoding="UTF-8" standalone="no"?>
<!DOCTYPE svg PUBLIC "-//W3C//DTD SVG 1.1//EN"
 "http://www.w3.org/Graphics/SVG/1.1/DTD/svg11.dtd">
<!-- Generated by graphviz version 2.47.3 (20210619.1520)
 -->
<!-- Title: G Pages: 1 -->
<svg width="318pt" height="141pt"
 viewBox="0.00 0.00 317.54 140.80" xmlns="http://www.w3.org/2000/svg" xmlns:xlink="http://www.w3.org/1999/xlink">
<g id="graph0" class="graph" transform="scale(1 1) rotate(0) translate(4 136.8)">
<title>G</title>
<polygon fill="white" stroke="transparent" points="-4,4 -4,-136.8 313.54,-136.8 313.54,4 -4,4"/>
<text text-anchor="middle" x="154.77" y="-116.2" font-family="Times,serif" font-size="14.00">Where used, expression/ComponentCompareSimple</text>
<!-- expression/ComponentCompareSimple -->
<g id="node1" class="node">
<title>expression/ComponentCompareSimple</title>
<g id="a_node1"><a xlink:href="https://syntax.abaplint.org/#/expression/ComponentCompareSimple" xlink:title="expression/ComponentCompareSimple">
<polygon fill="none" stroke="black" points="272.85,-36 36.69,-36 36.69,0 272.85,0 272.85,-36"/>
<text text-anchor="middle" x="154.77" y="-13.8" font-family="Times,serif" font-size="14.00">expression/ComponentCompareSimple</text>
</a>
</g>
</g>
<!-- statement/ReadTable -->
<g id="node2" class="node">
<title>statement/ReadTable</title>
<g id="a_node2"><a xlink:href="https://syntax.abaplint.org/#/statement/ReadTable" xlink:title="statement/ReadTable">
<polygon fill="none" stroke="black" points="269.08,-95.56 154.77,-108 40.46,-95.56 40.57,-75.44 268.97,-75.44 269.08,-95.56"/>
<text text-anchor="middle" x="154.77" y="-85.8" font-family="Times,serif" font-size="14.00">statement/ReadTable</text>
</a>
</g>
</g>
<!-- statement/ReadTable&#45;&gt;expression/ComponentCompareSimple -->
<g id="edge1" class="edge">
<title>statement/ReadTable&#45;&gt;expression/ComponentCompareSimple</title>
<path fill="none" stroke="black" d="M154.77,-75.17C154.77,-66.92 154.77,-56.15 154.77,-46.26"/>
<polygon fill="black" stroke="black" points="158.27,-46.02 154.77,-36.02 151.27,-46.02 158.27,-46.02"/>
</g>
</g>
</svg>
