<?xml version="1.0" encoding="UTF-8" standalone="no"?>
<!DOCTYPE svg PUBLIC "-//W3C//DTD SVG 1.1//EN"
 "http://www.w3.org/Graphics/SVG/1.1/DTD/svg11.dtd">
<!-- Generated by graphviz version 2.47.3 (20210619.1520)
 -->
<!-- Title: G Pages: 1 -->
<svg width="229pt" height="141pt"
 viewBox="0.00 0.00 228.87 140.80" xmlns="http://www.w3.org/2000/svg" xmlns:xlink="http://www.w3.org/1999/xlink">
<g id="graph0" class="graph" transform="scale(1 1) rotate(0) translate(4 136.8)">
<title>G</title>
<polygon fill="white" stroke="transparent" points="-4,4 -4,-136.8 224.87,-136.8 224.87,4 -4,4"/>
<text text-anchor="middle" x="110.44" y="-116.2" font-family="Times,serif" font-size="14.00">Where used, expression/FormTables</text>
<!-- expression/FormTables -->
<g id="node1" class="node">
<title>expression/FormTables</title>
<g id="a_node1"><a xlink:href="https://syntax.abaplint.org/#/expression/FormTables" xlink:title="expression/FormTables">
<polygon fill="none" stroke="black" points="184.35,-36 36.53,-36 36.53,0 184.35,0 184.35,-36"/>
<text text-anchor="middle" x="110.44" y="-13.8" font-family="Times,serif" font-size="14.00">expression/FormTables</text>
</a>
</g>
</g>
<!-- statement/Form -->
<g id="node2" class="node">
<title>statement/Form</title>
<g id="a_node2"><a xlink:href="https://syntax.abaplint.org/#/statement/Form" xlink:title="statement/Form">
<polygon fill="none" stroke="black" points="199.07,-95.56 110.44,-108 21.81,-95.56 21.89,-75.44 198.99,-75.44 199.07,-95.56"/>
<text text-anchor="middle" x="110.44" y="-85.8" font-family="Times,serif" font-size="14.00">statement/Form</text>
</a>
</g>
</g>
<!-- statement/Form&#45;&gt;expression/FormTables -->
<g id="edge1" class="edge">
<title>statement/Form&#45;&gt;expression/FormTables</title>
<path fill="none" stroke="black" d="M110.44,-75.17C110.44,-66.92 110.44,-56.15 110.44,-46.26"/>
<polygon fill="black" stroke="black" points="113.94,-46.02 110.44,-36.02 106.94,-46.02 113.94,-46.02"/>
</g>
</g>
</svg>
