<svg xmlns="http://www.w3.org/2000/svg" xmlns:xlink="http://www.w3.org/1999/xlink" class="railroad-diagram" width="426.5" height="92" viewBox="0 0 426.5 92">
<defs>
<style type="text/css"><![CDATA[
path {
stroke-width: 3;
stroke: black;
fill: rgba(0,0,0,0);
}
text {
font: bold 14px monospace;
text-anchor: middle;
}
text.diagram-text {
font-size: 12px;
}
a {
fill: blue;
}
text.diagram-arrow {
font-size: 16px;
}
text.label {
text-anchor: start;
}
text.comment {
font: italic 12px monospace;
}
rect {
stroke-width: 3;
stroke: black;
fill: #BCBCBC;
}
path.diagram-text {
stroke-width: 3;
stroke: black;
fill: #BCBCBC;
cursor: help;
}
]]></style>
</defs>
<g transform="translate(.5 .5)">
<g>
<path d="M20 21v20m0 -10h20"></path>
</g>
<g>
<path d="M40 31h0"></path>
<path d="M386.5 31h0"></path>
<path d="M40 31h20"></path>
<g class="terminal">
<path d="M60 31h0"></path>
<path d="M233 31h133.5"></path>
<rect x="60" y="20" width="173" height="22" rx="10" ry="10"></rect>
<text x="146.5" y="35">"CLIENT SPECIFIED"</text>
</g>
<path d="M366.5 31h20"></path>
<path d="M40 31a10 10 0 0 1 10 10v10a10 10 0 0 0 10 10"></path>
<g>
<path d="M60 61h0"></path>
<path d="M366.5 61h0"></path>
<g class="terminal">
<path d="M60 61h0"></path>
<path d="M199 61h0"></path>
<rect x="60" y="50" width="139" height="22" rx="10" ry="10"></rect>
<text x="129.5" y="65">"USING CLIENT"</text>
</g>
<path d="M199 61h10"></path>
<path d="M209 61h10"></path>
<g class="non-terminal">
<path d="M219 61h0"></path>
<path d="M366.5 61h0"></path>
<rect x="219" y="50" width="147.5" height="22"></rect>
<a xlink:href="#/expression/SQLSourceSimple"><text x="292.75" y="65">SQLSourceSimple</text>
</a>
</g>
</g>
<path d="M366.5 61a10 10 0 0 0 10 -10v-10a10 10 0 0 1 10 -10"></path>
</g>
<path d="M 386.5 31 h 20 m 0 -10 v 20"></path>
</g>
</svg>
