<?xml version="1.0" encoding="UTF-8" standalone="no"?>
<!DOCTYPE svg PUBLIC "-//W3C//DTD SVG 1.1//EN"
 "http://www.w3.org/Graphics/SVG/1.1/DTD/svg11.dtd">
<!-- Generated by graphviz version 2.47.3 (20210619.1520)
 -->
<!-- Title: G Pages: 1 -->
<svg width="243pt" height="141pt"
 viewBox="0.00 0.00 243.45 140.80" xmlns="http://www.w3.org/2000/svg" xmlns:xlink="http://www.w3.org/1999/xlink">
<g id="graph0" class="graph" transform="scale(1 1) rotate(0) translate(4 136.8)">
<title>G</title>
<polygon fill="white" stroke="transparent" points="-4,4 -4,-136.8 239.45,-136.8 239.45,4 -4,4"/>
<text text-anchor="middle" x="111.61" y="-116.2" font-family="Times,serif" font-size="14.00">Where used, expression/Redefinition</text>
<!-- expression/Redefinition -->
<g id="node1" class="node">
<title>expression/Redefinition</title>
<g id="a_node1"><a xlink:href="https://syntax.abaplint.org/#/expression/Redefinition" xlink:title="expression/Redefinition">
<polygon fill="none" stroke="black" points="192.47,-36 42.97,-36 42.97,0 192.47,0 192.47,-36"/>
<text text-anchor="middle" x="117.72" y="-13.8" font-family="Times,serif" font-size="14.00">expression/Redefinition</text>
</a>
</g>
</g>
<!-- statement/MethodDef -->
<g id="node2" class="node">
<title>statement/MethodDef</title>
<g id="a_node2"><a xlink:href="https://syntax.abaplint.org/#/statement/MethodDef" xlink:title="statement/MethodDef">
<polygon fill="none" stroke="black" points="235.67,-95.56 117.72,-108 -0.22,-95.56 -0.11,-75.44 235.56,-75.44 235.67,-95.56"/>
<text text-anchor="middle" x="117.72" y="-85.8" font-family="Times,serif" font-size="14.00">statement/MethodDef</text>
</a>
</g>
</g>
<!-- statement/MethodDef&#45;&gt;expression/Redefinition -->
<g id="edge1" class="edge">
<title>statement/MethodDef&#45;&gt;expression/Redefinition</title>
<path fill="none" stroke="black" d="M117.72,-75.17C117.72,-66.92 117.72,-56.15 117.72,-46.26"/>
<polygon fill="black" stroke="black" points="121.22,-46.02 117.72,-36.02 114.22,-46.02 121.22,-46.02"/>
</g>
</g>
</svg>
