<svg xmlns="http://www.w3.org/2000/svg" xmlns:xlink="http://www.w3.org/1999/xlink" class="railroad-diagram" width="664.5" height="168" viewBox="0 0 664.5 168">
<defs>
<style type="text/css"><![CDATA[
path {
stroke-width: 3;
stroke: black;
fill: rgba(0,0,0,0);
}
text {
font: bold 14px monospace;
text-anchor: middle;
}
text.diagram-text {
font-size: 12px;
}
a {
fill: blue;
}
text.diagram-arrow {
font-size: 16px;
}
text.label {
text-anchor: start;
}
text.comment {
font: italic 12px monospace;
}
rect {
stroke-width: 3;
stroke: black;
fill: #BCBCBC;
}
path.diagram-text {
stroke-width: 3;
stroke: black;
fill: #BCBCBC;
cursor: help;
}
]]></style>
</defs>
<g transform="translate(.5 .5)">
<g>
<path d="M20 21v20m0 -10h20"></path>
</g>
<path d="M40 31h10"></path>
<g>
<path d="M50 31h0"></path>
<path d="M614.5 31h0"></path>
<g class="terminal">
<path d="M50 31h0"></path>
<path d="M155 31h0"></path>
<rect x="50" y="20" width="105" height="22" rx="10" ry="10"></rect>
<text x="102.5" y="35">"GROUP BY"</text>
</g>
<path d="M155 31h10"></path>
<g>
<path d="M165 31h0"></path>
<path d="M614.5 31h0"></path>
<path d="M165 31h20"></path>
<g>
<path d="M185 31h0"></path>
<path d="M594.5 31h0"></path>
<g>
<path d="M185 31h0"></path>
<path d="M422.5 31h0"></path>
<path d="M185 31h10"></path>
<g>
<path d="M195 31h0"></path>
<path d="M412.5 31h0"></path>
<g>
<path d="M195 31h0"></path>
<path d="M357 31h0"></path>
<path d="M195 31h20"></path>
<g class="non-terminal">
<path d="M215 31h0"></path>
<path d="M337 31h0"></path>
<rect x="215" y="20" width="122" height="22"></rect>
<a xlink:href="#/expression/SQLFieldName"><text x="276" y="35">SQLFieldName</text>
</a>
</g>
<path d="M337 31h20"></path>
<path d="M195 31a10 10 0 0 1 10 10v10a10 10 0 0 0 10 10"></path>
<g class="non-terminal">
<path d="M215 61h0"></path>
<path d="M294.5 61h42.5"></path>
<rect x="215" y="50" width="79.5" height="22"></rect>
<a xlink:href="#/expression/Dynamic"><text x="254.75" y="65">Dynamic</text>
</a>
</g>
<path d="M337 61a10 10 0 0 0 10 -10v-10a10 10 0 0 1 10 -10"></path>
</g>
<path d="M357 31h10"></path>
<g class="terminal">
<path d="M367 31h0"></path>
<path d="M412.5 31h0"></path>
<rect x="367" y="20" width="45.5" height="22" rx="10" ry="10"></rect>
<text x="389.75" y="35">","</text>
</g>
</g>
<path d="M412.5 31h10"></path>
<path d="M195 31a10 10 0 0 0 -10 10v29a10 10 0 0 0 10 10"></path>
<g>
<path d="M195 80h217.5"></path>
</g>
<path d="M412.5 80a10 10 0 0 0 10 -10v-29a10 10 0 0 0 -10 -10"></path>
</g>
<path d="M422.5 31h10"></path>
<g>
<path d="M432.5 31h0"></path>
<path d="M594.5 31h0"></path>
<path d="M432.5 31h20"></path>
<g class="non-terminal">
<path d="M452.5 31h0"></path>
<path d="M574.5 31h0"></path>
<rect x="452.5" y="20" width="122" height="22"></rect>
<a xlink:href="#/expression/SQLFieldName"><text x="513.5" y="35">SQLFieldName</text>
</a>
</g>
<path d="M574.5 31h20"></path>
<path d="M432.5 31a10 10 0 0 1 10 10v10a10 10 0 0 0 10 10"></path>
<g class="non-terminal">
<path d="M452.5 61h0"></path>
<path d="M532 61h42.5"></path>
<rect x="452.5" y="50" width="79.5" height="22"></rect>
<a xlink:href="#/expression/Dynamic"><text x="492.25" y="65">Dynamic</text>
</a>
</g>
<path d="M574.5 61a10 10 0 0 0 10 -10v-10a10 10 0 0 1 10 -10"></path>
</g>
</g>
<path d="M594.5 31h20"></path>
<path d="M165 31a10 10 0 0 1 10 10v48a10 10 0 0 0 10 10"></path>
<g>
<path d="M185 99h0"></path>
<path d="M367 99h227.5"></path>
<path d="M185 99h10"></path>
<g>
<path d="M195 99h0"></path>
<path d="M357 99h0"></path>
<path d="M195 99h20"></path>
<g class="non-terminal">
<path d="M215 99h0"></path>
<path d="M337 99h0"></path>
<rect x="215" y="88" width="122" height="22"></rect>
<a xlink:href="#/expression/SQLFieldName"><text x="276" y="103">SQLFieldName</text>
</a>
</g>
<path d="M337 99h20"></path>
<path d="M195 99a10 10 0 0 1 10 10v10a10 10 0 0 0 10 10"></path>
<g class="non-terminal">
<path d="M215 129h0"></path>
<path d="M294.5 129h42.5"></path>
<rect x="215" y="118" width="79.5" height="22"></rect>
<a xlink:href="#/expression/Dynamic"><text x="254.75" y="133">Dynamic</text>
</a>
</g>
<path d="M337 129a10 10 0 0 0 10 -10v-10a10 10 0 0 1 10 -10"></path>
</g>
<path d="M357 99h10"></path>
<path d="M195 99a10 10 0 0 0 -10 10v29a10 10 0 0 0 10 10"></path>
<g>
<path d="M195 148h162"></path>
</g>
<path d="M357 148a10 10 0 0 0 10 -10v-29a10 10 0 0 0 -10 -10"></path>
</g>
<path d="M594.5 99a10 10 0 0 0 10 -10v-48a10 10 0 0 1 10 -10"></path>
</g>
</g>
<path d="M614.5 31h10"></path>
<path d="M 624.5 31 h 20 m 0 -10 v 20"></path>
</g>
</svg>
