<svg xmlns="http://www.w3.org/2000/svg" xmlns:xlink="http://www.w3.org/1999/xlink" class="railroad-diagram" width="646" height="101" viewBox="0 0 646 101">
<defs>
<style type="text/css"><![CDATA[
path {
stroke-width: 3;
stroke: black;
fill: rgba(0,0,0,0);
}
text {
font: bold 14px monospace;
text-anchor: middle;
}
text.diagram-text {
font-size: 12px;
}
a {
fill: blue;
}
text.diagram-arrow {
font-size: 16px;
}
text.label {
text-anchor: start;
}
text.comment {
font: italic 12px monospace;
}
rect {
stroke-width: 3;
stroke: black;
fill: #BCBCBC;
}
path.diagram-text {
stroke-width: 3;
stroke: black;
fill: #BCBCBC;
cursor: help;
}
]]></style>
</defs>
<g transform="translate(.5 .5)">
<g>
<path d="M20 30v20m0 -10h20"></path>
</g>
<g>
<path d="M40 40h0"></path>
<path d="M606 40h0"></path>
<path d="M40 40h20"></path>
<g>
<path d="M60 40h0"></path>
<path d="M578.5 40h7.5"></path>
<g class="non-terminal">
<path d="M60 40h0"></path>
<path d="M250 40h0"></path>
<rect x="60" y="29" width="190" height="22"></rect>
<a xlink:href="#/expression/MessageTypeAndNumber"><text x="155" y="44">MessageTypeAndNumber</text>
</a>
</g>
<path d="M250 40h10"></path>
<g>
<path d="M260 40h0"></path>
<path d="M578.5 40h0"></path>
<path d="M260 40a10 10 0 0 0 10 -10v0a10 10 0 0 1 10 -10"></path>
<g>
<path d="M280 20h278.5"></path>
</g>
<path d="M558.5 20a10 10 0 0 1 10 10v0a10 10 0 0 0 10 10"></path>
<path d="M260 40h20"></path>
<g>
<path d="M280 40h0"></path>
<path d="M558.5 40h0"></path>
<g class="terminal">
<path d="M280 40h0"></path>
<path d="M334 40h0"></path>
<rect x="280" y="29" width="54" height="22" rx="10" ry="10"></rect>
<text x="307" y="44">!"("</text>
</g>
<path d="M334 40h10"></path>
<path d="M344 40h10"></path>
<g class="non-terminal">
<path d="M354 40h0"></path>
<path d="M476 40h0"></path>
<rect x="354" y="29" width="122" height="22"></rect>
<a xlink:href="#/expression/MessageClass"><text x="415" y="44">MessageClass</text>
</a>
</g>
<path d="M476 40h10"></path>
<path d="M486 40h10"></path>
<g class="terminal">
<path d="M496 40h0"></path>
<path d="M558.5 40h0"></path>
<rect x="496" y="29" width="62.5" height="22" rx="10" ry="10"></rect>
<text x="527.25" y="44">!") "</text>
</g>
</g>
<path d="M558.5 40h20"></path>
</g>
</g>
<path d="M586 40h20"></path>
<path d="M40 40a10 10 0 0 1 10 10v10a10 10 0 0 0 10 10"></path>
<g>
<path d="M60 70h0"></path>
<path d="M586 70h0"></path>
<g class="terminal">
<path d="M60 70h0"></path>
<path d="M114 70h0"></path>
<rect x="60" y="59" width="54" height="22" rx="10" ry="10"></rect>
<text x="87" y="74">"ID"</text>
</g>
<path d="M114 70h10"></path>
<path d="M124 70h10"></path>
<g class="non-terminal">
<path d="M134 70h0"></path>
<path d="M205 70h0"></path>
<rect x="134" y="59" width="71" height="22"></rect>
<a xlink:href="#/expression/Source"><text x="169.5" y="74">Source</text>
</a>
</g>
<path d="M205 70h10"></path>
<path d="M215 70h10"></path>
<g class="terminal">
<path d="M225 70h0"></path>
<path d="M296 70h0"></path>
<rect x="225" y="59" width="71" height="22" rx="10" ry="10"></rect>
<text x="260.5" y="74">"TYPE"</text>
</g>
<path d="M296 70h10"></path>
<path d="M306 70h10"></path>
<g class="non-terminal">
<path d="M316 70h0"></path>
<path d="M387 70h0"></path>
<rect x="316" y="59" width="71" height="22"></rect>
<a xlink:href="#/expression/Source"><text x="351.5" y="74">Source</text>
</a>
</g>
<path d="M387 70h10"></path>
<path d="M397 70h10"></path>
<g class="terminal">
<path d="M407 70h0"></path>
<path d="M495 70h0"></path>
<rect x="407" y="59" width="88" height="22" rx="10" ry="10"></rect>
<text x="451" y="74">"NUMBER"</text>
</g>
<path d="M495 70h10"></path>
<path d="M505 70h10"></path>
<g class="non-terminal">
<path d="M515 70h0"></path>
<path d="M586 70h0"></path>
<rect x="515" y="59" width="71" height="22"></rect>
<a xlink:href="#/expression/Source"><text x="550.5" y="74">Source</text>
</a>
</g>
</g>
<path d="M586 70a10 10 0 0 0 10 -10v-10a10 10 0 0 1 10 -10"></path>
</g>
<path d="M 606 40 h 20 m 0 -10 v 20"></path>
</g>
</svg>
