<svg xmlns="http://www.w3.org/2000/svg" xmlns:xlink="http://www.w3.org/1999/xlink" class="railroad-diagram" width="684" height="122" viewBox="0 0 684 122">
<defs>
<style type="text/css"><![CDATA[
path {
stroke-width: 3;
stroke: black;
fill: rgba(0,0,0,0);
}
text {
font: bold 14px monospace;
text-anchor: middle;
}
text.diagram-text {
font-size: 12px;
}
a {
fill: blue;
}
text.diagram-arrow {
font-size: 16px;
}
text.label {
text-anchor: start;
}
text.comment {
font: italic 12px monospace;
}
rect {
stroke-width: 3;
stroke: black;
fill: #BCBCBC;
}
path.diagram-text {
stroke-width: 3;
stroke: black;
fill: #BCBCBC;
cursor: help;
}
]]></style>
</defs>
<g transform="translate(.5 .5)">
<g>
<path d="M20 21v20m0 -10h20"></path>
</g>
<path d="M40 31h10"></path>
<g>
<path d="M50 31h0"></path>
<path d="M634 31h0"></path>
<g>
<path d="M50 31h0"></path>
<path d="M527.5 31h0"></path>
<path d="M50 31h20"></path>
<g>
<path d="M70 31h0"></path>
<path d="M473.5 31h34"></path>
<g class="terminal">
<path d="M70 31h0"></path>
<path d="M149.5 31h0"></path>
<rect x="70" y="20" width="79.5" height="22" rx="10" ry="10"></rect>
<text x="109.75" y="35">"VALUE"</text>
</g>
<path d="M149.5 31h10"></path>
<path d="M159.5 31h10"></path>
<g class="terminal">
<path d="M169.5 31h0"></path>
<path d="M223.5 31h0"></path>
<rect x="169.5" y="20" width="54" height="22" rx="10" ry="10"></rect>
<text x="196.5" y="35">!"("</text>
</g>
<path d="M223.5 31h10"></path>
<path d="M233.5 31h10"></path>
<g class="non-terminal">
<path d="M243.5 31h0"></path>
<path d="M391 31h0"></path>
<rect x="243.5" y="20" width="147.5" height="22"></rect>
<a xlink:href="#/expression/MethodParamName"><text x="317.25" y="35">MethodParamName</text>
</a>
</g>
<path d="M391 31h10"></path>
<path d="M401 31h10"></path>
<g class="terminal">
<path d="M411 31h0"></path>
<path d="M473.5 31h0"></path>
<rect x="411" y="20" width="62.5" height="22" rx="10" ry="10"></rect>
<text x="442.25" y="35">!") "</text>
</g>
</g>
<path d="M507.5 31h20"></path>
<path d="M50 31a10 10 0 0 1 10 10v10a10 10 0 0 0 10 10"></path>
<g>
<path d="M70 61h0"></path>
<path d="M507.5 61h0"></path>
<g class="terminal">
<path d="M70 61h0"></path>
<path d="M183.5 61h0"></path>
<rect x="70" y="50" width="113.5" height="22" rx="10" ry="10"></rect>
<text x="126.75" y="65">"REFERENCE"</text>
</g>
<path d="M183.5 61h10"></path>
<path d="M193.5 61h10"></path>
<g class="terminal">
<path d="M203.5 61h0"></path>
<path d="M257.5 61h0"></path>
<rect x="203.5" y="50" width="54" height="22" rx="10" ry="10"></rect>
<text x="230.5" y="65">!"("</text>
</g>
<path d="M257.5 61h10"></path>
<path d="M267.5 61h10"></path>
<g class="non-terminal">
<path d="M277.5 61h0"></path>
<path d="M425 61h0"></path>
<rect x="277.5" y="50" width="147.5" height="22"></rect>
<a xlink:href="#/expression/MethodParamName"><text x="351.25" y="65">MethodParamName</text>
</a>
</g>
<path d="M425 61h10"></path>
<path d="M435 61h10"></path>
<g class="terminal">
<path d="M445 61h0"></path>
<path d="M507.5 61h0"></path>
<rect x="445" y="50" width="62.5" height="22" rx="10" ry="10"></rect>
<text x="476.25" y="65">!") "</text>
</g>
</g>
<path d="M507.5 61a10 10 0 0 0 10 -10v-10a10 10 0 0 1 10 -10"></path>
<path d="M50 31a10 10 0 0 1 10 10v40a10 10 0 0 0 10 10"></path>
<g class="non-terminal">
<path d="M70 91h0"></path>
<path d="M217.5 91h290"></path>
<rect x="70" y="80" width="147.5" height="22"></rect>
<a xlink:href="#/expression/MethodParamName"><text x="143.75" y="95">MethodParamName</text>
</a>
</g>
<path d="M507.5 91a10 10 0 0 0 10 -10v-40a10 10 0 0 1 10 -10"></path>
</g>
<path d="M527.5 31h10"></path>
<g class="non-terminal">
<path d="M537.5 31h0"></path>
<path d="M634 31h0"></path>
<rect x="537.5" y="20" width="96.5" height="22"></rect>
<a xlink:href="#/expression/TypeParam"><text x="585.75" y="35">TypeParam</text>
</a>
</g>
</g>
<path d="M634 31h10"></path>
<path d="M 644 31 h 20 m 0 -10 v 20"></path>
</g>
</svg>
