<?xml version="1.0" encoding="UTF-8" standalone="no"?>
<!DOCTYPE svg PUBLIC "-//W3C//DTD SVG 1.1//EN"
 "http://www.w3.org/Graphics/SVG/1.1/DTD/svg11.dtd">
<!-- Generated by graphviz version 2.47.3 (20210619.1520)
 -->
<!-- Title: G Pages: 1 -->
<svg width="499pt" height="285pt"
 viewBox="0.00 0.00 499.04 284.80" xmlns="http://www.w3.org/2000/svg" xmlns:xlink="http://www.w3.org/1999/xlink">
<g id="graph0" class="graph" transform="scale(1 1) rotate(0) translate(4 280.8)">
<title>G</title>
<polygon fill="white" stroke="transparent" points="-4,4 -4,-280.8 495.04,-280.8 495.04,4 -4,4"/>
<text text-anchor="middle" x="113.94" y="-260.2" font-family="Times,serif" font-size="14.00">Where used, expression/PassByValue</text>
<!-- expression/PassByValue -->
<g id="node1" class="node">
<title>expression/PassByValue</title>
<g id="a_node1"><a xlink:href="https://syntax.abaplint.org/#/expression/PassByValue" xlink:title="expression/PassByValue">
<polygon fill="none" stroke="black" points="333.68,-36 178.86,-36 178.86,0 333.68,0 333.68,-36"/>
<text text-anchor="middle" x="256.27" y="-13.8" font-family="Times,serif" font-size="14.00">expression/PassByValue</text>
</a>
</g>
</g>
<!-- expression/FormParam -->
<g id="node2" class="node">
<title>expression/FormParam</title>
<g id="a_node2"><a xlink:href="https://syntax.abaplint.org/#/expression/FormParam" xlink:title="expression/FormParam">
<polygon fill="none" stroke="black" points="329.12,-108 183.41,-108 183.41,-72 329.12,-72 329.12,-108"/>
<text text-anchor="middle" x="256.27" y="-85.8" font-family="Times,serif" font-size="14.00">expression/FormParam</text>
</a>
</g>
</g>
<!-- expression/FormParam&#45;&gt;expression/PassByValue -->
<g id="edge1" class="edge">
<title>expression/FormParam&#45;&gt;expression/PassByValue</title>
<path fill="none" stroke="black" d="M256.27,-71.7C256.27,-63.98 256.27,-54.71 256.27,-46.11"/>
<polygon fill="black" stroke="black" points="259.77,-46.1 256.27,-36.1 252.77,-46.1 259.77,-46.1"/>
</g>
<!-- expression/FormChanging -->
<g id="node3" class="node">
<title>expression/FormChanging</title>
<g id="a_node3"><a xlink:href="https://syntax.abaplint.org/#/expression/FormChanging" xlink:title="expression/FormChanging">
<polygon fill="none" stroke="black" points="164.3,-180 0.23,-180 0.23,-144 164.3,-144 164.3,-180"/>
<text text-anchor="middle" x="82.27" y="-157.8" font-family="Times,serif" font-size="14.00">expression/FormChanging</text>
</a>
</g>
</g>
<!-- expression/FormChanging&#45;&gt;expression/FormParam -->
<g id="edge2" class="edge">
<title>expression/FormChanging&#45;&gt;expression/FormParam</title>
<path fill="none" stroke="black" d="M124.83,-143.88C148.83,-134.22 179,-122.09 204.37,-111.88"/>
<polygon fill="black" stroke="black" points="205.87,-115.05 213.84,-108.07 203.26,-108.55 205.87,-115.05"/>
</g>
<!-- statement/Form -->
<g id="node4" class="node">
<title>statement/Form</title>
<g id="a_node4"><a xlink:href="https://syntax.abaplint.org/#/statement/Form" xlink:title="statement/Form">
<polygon fill="none" stroke="black" points="344.9,-239.56 256.27,-252 167.64,-239.56 167.72,-219.44 344.82,-219.44 344.9,-239.56"/>
<text text-anchor="middle" x="256.27" y="-229.8" font-family="Times,serif" font-size="14.00">statement/Form</text>
</a>
</g>
</g>
<!-- statement/Form&#45;&gt;expression/FormChanging -->
<g id="edge3" class="edge">
<title>statement/Form&#45;&gt;expression/FormChanging</title>
<path fill="none" stroke="black" d="M222.31,-219.34C197.25,-209.26 162.7,-195.36 134.19,-183.89"/>
<polygon fill="black" stroke="black" points="135.36,-180.58 124.77,-180.1 132.74,-187.08 135.36,-180.58"/>
</g>
<!-- expression/FormTables -->
<g id="node5" class="node">
<title>expression/FormTables</title>
<g id="a_node5"><a xlink:href="https://syntax.abaplint.org/#/expression/FormTables" xlink:title="expression/FormTables">
<polygon fill="none" stroke="black" points="330.18,-180 182.36,-180 182.36,-144 330.18,-144 330.18,-180"/>
<text text-anchor="middle" x="256.27" y="-157.8" font-family="Times,serif" font-size="14.00">expression/FormTables</text>
</a>
</g>
</g>
<!-- statement/Form&#45;&gt;expression/FormTables -->
<g id="edge5" class="edge">
<title>statement/Form&#45;&gt;expression/FormTables</title>
<path fill="none" stroke="black" d="M256.27,-219.17C256.27,-210.92 256.27,-200.15 256.27,-190.26"/>
<polygon fill="black" stroke="black" points="259.77,-190.02 256.27,-180.02 252.77,-190.02 259.77,-190.02"/>
</g>
<!-- expression/FormUsing -->
<g id="node6" class="node">
<title>expression/FormUsing</title>
<g id="a_node6"><a xlink:href="https://syntax.abaplint.org/#/expression/FormUsing" xlink:title="expression/FormUsing">
<polygon fill="none" stroke="black" points="490.8,-180 347.73,-180 347.73,-144 490.8,-144 490.8,-180"/>
<text text-anchor="middle" x="419.27" y="-157.8" font-family="Times,serif" font-size="14.00">expression/FormUsing</text>
</a>
</g>
</g>
<!-- statement/Form&#45;&gt;expression/FormUsing -->
<g id="edge7" class="edge">
<title>statement/Form&#45;&gt;expression/FormUsing</title>
<path fill="none" stroke="black" d="M288.08,-219.34C311.35,-209.34 343.36,-195.6 369.93,-184.19"/>
<polygon fill="black" stroke="black" points="371.64,-187.26 379.45,-180.1 368.88,-180.83 371.64,-187.26"/>
</g>
<!-- expression/FormTables&#45;&gt;expression/FormParam -->
<g id="edge4" class="edge">
<title>expression/FormTables&#45;&gt;expression/FormParam</title>
<path fill="none" stroke="black" d="M256.27,-143.7C256.27,-135.98 256.27,-126.71 256.27,-118.11"/>
<polygon fill="black" stroke="black" points="259.77,-118.1 256.27,-108.1 252.77,-118.1 259.77,-118.1"/>
</g>
<!-- expression/FormUsing&#45;&gt;expression/FormParam -->
<g id="edge6" class="edge">
<title>expression/FormUsing&#45;&gt;expression/FormParam</title>
<path fill="none" stroke="black" d="M379.39,-143.88C357.11,-134.31 329.15,-122.3 305.51,-112.15"/>
<polygon fill="black" stroke="black" points="306.58,-108.8 296.01,-108.07 303.82,-115.23 306.58,-108.8"/>
</g>
</g>
</svg>
