<?xml version="1.0" encoding="UTF-8" standalone="no"?>
<!DOCTYPE svg PUBLIC "-//W3C//DTD SVG 1.1//EN"
 "http://www.w3.org/Graphics/SVG/1.1/DTD/svg11.dtd">
<!-- Generated by graphviz version 2.47.3 (20210619.1520)
 -->
<!-- Title: G Pages: 1 -->
<svg width="283pt" height="141pt"
 viewBox="0.00 0.00 283.25 140.80" xmlns="http://www.w3.org/2000/svg" xmlns:xlink="http://www.w3.org/1999/xlink">
<g id="graph0" class="graph" transform="scale(1 1) rotate(0) translate(4 136.8)">
<title>G</title>
<polygon fill="white" stroke="transparent" points="-4,4 -4,-136.8 279.25,-136.8 279.25,4 -4,4"/>
<text text-anchor="middle" x="106.17" y="-116.2" font-family="Times,serif" font-size="14.00">Where used, expression/ClassFinal</text>
<!-- expression/ClassFinal -->
<g id="node1" class="node">
<title>expression/ClassFinal</title>
<g id="a_node1"><a xlink:href="https://syntax.abaplint.org/#/expression/ClassFinal" xlink:title="expression/ClassFinal">
<polygon fill="none" stroke="black" points="207,-36 68.26,-36 68.26,0 207,0 207,-36"/>
<text text-anchor="middle" x="137.63" y="-13.8" font-family="Times,serif" font-size="14.00">expression/ClassFinal</text>
</a>
</g>
</g>
<!-- statement/ClassDefinition -->
<g id="node2" class="node">
<title>statement/ClassDefinition</title>
<g id="a_node2"><a xlink:href="https://syntax.abaplint.org/#/statement/ClassDefinition" xlink:title="statement/ClassDefinition">
<polygon fill="none" stroke="black" points="275.38,-95.56 137.63,-108 -0.13,-95.56 0,-75.44 275.25,-75.44 275.38,-95.56"/>
<text text-anchor="middle" x="137.63" y="-85.8" font-family="Times,serif" font-size="14.00">statement/ClassDefinition</text>
</a>
</g>
</g>
<!-- statement/ClassDefinition&#45;&gt;expression/ClassFinal -->
<g id="edge1" class="edge">
<title>statement/ClassDefinition&#45;&gt;expression/ClassFinal</title>
<path fill="none" stroke="black" d="M137.63,-75.17C137.63,-66.92 137.63,-56.15 137.63,-46.26"/>
<polygon fill="black" stroke="black" points="141.13,-46.02 137.63,-36.02 134.13,-46.02 141.13,-46.02"/>
</g>
</g>
</svg>
