<svg xmlns="http://www.w3.org/2000/svg" xmlns:xlink="http://www.w3.org/1999/xlink" class="railroad-diagram" width="394" height="122" viewBox="0 0 394 122">
<defs>
<style type="text/css"><![CDATA[
path {
stroke-width: 3;
stroke: black;
fill: rgba(0,0,0,0);
}
text {
font: bold 14px monospace;
text-anchor: middle;
}
text.diagram-text {
font-size: 12px;
}
a {
fill: blue;
}
text.diagram-arrow {
font-size: 16px;
}
text.label {
text-anchor: start;
}
text.comment {
font: italic 12px monospace;
}
rect {
stroke-width: 3;
stroke: black;
fill: #BCBCBC;
}
path.diagram-text {
stroke-width: 3;
stroke: black;
fill: #BCBCBC;
cursor: help;
}
]]></style>
</defs>
<g transform="translate(.5 .5)">
<g>
<path d="M20 21v20m0 -10h20"></path>
</g>
<path d="M40 31h10"></path>
<g>
<path d="M50 31h0"></path>
<path d="M344 31h0"></path>
<g class="terminal">
<path d="M50 31h0"></path>
<path d="M138 31h0"></path>
<rect x="50" y="20" width="88" height="22" rx="10" ry="10"></rect>
<text x="94" y="35">"LENGTH"</text>
</g>
<path d="M138 31h10"></path>
<g>
<path d="M148 31h0"></path>
<path d="M344 31h0"></path>
<path d="M148 31h20"></path>
<g class="non-terminal">
<path d="M168 31h0"></path>
<path d="M247.5 31h76.5"></path>
<rect x="168" y="20" width="79.5" height="22"></rect>
<a xlink:href="#/expression/Integer"><text x="207.75" y="35">Integer</text>
</a>
</g>
<path d="M324 31h20"></path>
<path d="M148 31a10 10 0 0 1 10 10v10a10 10 0 0 0 10 10"></path>
<g class="non-terminal">
<path d="M168 61h0"></path>
<path d="M307 61h17"></path>
<rect x="168" y="50" width="139" height="22"></rect>
<a xlink:href="#/expression/ConstantString"><text x="237.5" y="65">ConstantString</text>
</a>
</g>
<path d="M324 61a10 10 0 0 0 10 -10v-10a10 10 0 0 1 10 -10"></path>
<path d="M148 31a10 10 0 0 1 10 10v40a10 10 0 0 0 10 10"></path>
<g class="non-terminal">
<path d="M168 91h0"></path>
<path d="M324 91h0"></path>
<rect x="168" y="80" width="156" height="22"></rect>
<a xlink:href="#/expression/SimpleFieldChain"><text x="246" y="95">SimpleFieldChain</text>
</a>
</g>
<path d="M324 91a10 10 0 0 0 10 -10v-40a10 10 0 0 1 10 -10"></path>
</g>
</g>
<path d="M344 31h10"></path>
<path d="M 354 31 h 20 m 0 -10 v 20"></path>
</g>
</svg>
