<?xml version="1.0" encoding="UTF-8" standalone="no"?>
<!DOCTYPE svg PUBLIC "-//W3C//DTD SVG 1.1//EN"
 "http://www.w3.org/Graphics/SVG/1.1/DTD/svg11.dtd">
<!-- Generated by graphviz version 2.47.3 (20210619.1520)
 -->
<!-- Title: G Pages: 1 -->
<svg width="700pt" height="285pt"
 viewBox="0.00 0.00 700.33 284.80" xmlns="http://www.w3.org/2000/svg" xmlns:xlink="http://www.w3.org/1999/xlink">
<g id="graph0" class="graph" transform="scale(1 1) rotate(0) translate(4 280.8)">
<title>G</title>
<polygon fill="white" stroke="transparent" points="-4,4 -4,-280.8 696.33,-280.8 696.33,4 -4,4"/>
<text text-anchor="middle" x="116.27" y="-260.2" font-family="Times,serif" font-size="14.00">Where used, expression/MethodParam</text>
<!-- expression/MethodParam -->
<g id="node1" class="node">
<title>expression/MethodParam</title>
<g id="a_node1"><a xlink:href="https://syntax.abaplint.org/#/expression/MethodParam" xlink:title="expression/MethodParam">
<polygon fill="none" stroke="black" points="290.72,-36 131.57,-36 131.57,0 290.72,0 290.72,-36"/>
<text text-anchor="middle" x="211.14" y="-13.8" font-family="Times,serif" font-size="14.00">expression/MethodParam</text>
</a>
</g>
</g>
<!-- expression/MethodDefExporting -->
<g id="node2" class="node">
<title>expression/MethodDefExporting</title>
<g id="a_node2"><a xlink:href="https://syntax.abaplint.org/#/expression/MethodDefExporting" xlink:title="expression/MethodDefExporting">
<polygon fill="none" stroke="black" points="200.43,-108 -0.14,-108 -0.14,-72 200.43,-72 200.43,-108"/>
<text text-anchor="middle" x="100.14" y="-85.8" font-family="Times,serif" font-size="14.00">expression/MethodDefExporting</text>
</a>
</g>
</g>
<!-- expression/MethodDefExporting&#45;&gt;expression/MethodParam -->
<g id="edge1" class="edge">
<title>expression/MethodDefExporting&#45;&gt;expression/MethodParam</title>
<path fill="none" stroke="black" d="M127.3,-71.88C141.68,-62.81 159.52,-51.55 175.05,-41.76"/>
<polygon fill="black" stroke="black" points="177.29,-44.48 183.89,-36.19 173.56,-38.56 177.29,-44.48"/>
</g>
<!-- statement/MethodDef -->
<g id="node3" class="node">
<title>statement/MethodDef</title>
<g id="a_node3"><a xlink:href="https://syntax.abaplint.org/#/statement/MethodDef" xlink:title="statement/MethodDef">
<polygon fill="none" stroke="black" points="284.09,-239.56 166.14,-252 48.2,-239.56 48.31,-219.44 283.98,-219.44 284.09,-239.56"/>
<text text-anchor="middle" x="166.14" y="-229.8" font-family="Times,serif" font-size="14.00">statement/MethodDef</text>
</a>
</g>
</g>
<!-- statement/MethodDef&#45;&gt;expression/MethodDefExporting -->
<g id="edge2" class="edge">
<title>statement/MethodDef&#45;&gt;expression/MethodDefExporting</title>
<path fill="none" stroke="black" d="M111.27,-219.42C90.96,-211.45 70.02,-199.06 58.14,-180 45.29,-159.38 59.68,-134.2 75.01,-115.89"/>
<polygon fill="black" stroke="black" points="78,-117.81 82.03,-108.01 72.77,-113.15 78,-117.81"/>
</g>
<!-- expression/MethodDefChanging -->
<g id="node5" class="node">
<title>expression/MethodDefChanging</title>
<g id="a_node5"><a xlink:href="https://syntax.abaplint.org/#/expression/MethodDefChanging" xlink:title="expression/MethodDefChanging">
<polygon fill="none" stroke="black" points="265.38,-180 66.91,-180 66.91,-144 265.38,-144 265.38,-180"/>
<text text-anchor="middle" x="166.14" y="-157.8" font-family="Times,serif" font-size="14.00">expression/MethodDefChanging</text>
</a>
</g>
</g>
<!-- statement/MethodDef&#45;&gt;expression/MethodDefChanging -->
<g id="edge5" class="edge">
<title>statement/MethodDef&#45;&gt;expression/MethodDefChanging</title>
<path fill="none" stroke="black" d="M166.14,-219.17C166.14,-210.92 166.14,-200.15 166.14,-190.26"/>
<polygon fill="black" stroke="black" points="169.64,-190.02 166.14,-180.02 162.64,-190.02 169.64,-190.02"/>
</g>
<!-- expression/MethodDefImporting -->
<g id="node6" class="node">
<title>expression/MethodDefImporting</title>
<g id="a_node6"><a xlink:href="https://syntax.abaplint.org/#/expression/MethodDefImporting" xlink:title="expression/MethodDefImporting">
<polygon fill="none" stroke="black" points="484.43,-180 283.86,-180 283.86,-144 484.43,-144 484.43,-180"/>
<text text-anchor="middle" x="384.14" y="-157.8" font-family="Times,serif" font-size="14.00">expression/MethodDefImporting</text>
</a>
</g>
</g>
<!-- statement/MethodDef&#45;&gt;expression/MethodDefImporting -->
<g id="edge7" class="edge">
<title>statement/MethodDef&#45;&gt;expression/MethodDefImporting</title>
<path fill="none" stroke="black" d="M208.43,-219.42C240.46,-209.14 284.98,-194.84 321.19,-183.21"/>
<polygon fill="black" stroke="black" points="322.71,-186.4 331.17,-180.01 320.57,-179.74 322.71,-186.4"/>
</g>
<!-- expression/MethodParamOptional -->
<g id="node4" class="node">
<title>expression/MethodParamOptional</title>
<g id="a_node4"><a xlink:href="https://syntax.abaplint.org/#/expression/MethodParamOptional" xlink:title="expression/MethodParamOptional">
<polygon fill="none" stroke="black" points="457.21,-108 249.08,-108 249.08,-72 457.21,-72 457.21,-108"/>
<text text-anchor="middle" x="353.14" y="-85.8" font-family="Times,serif" font-size="14.00">expression/MethodParamOptional</text>
</a>
</g>
</g>
<!-- expression/MethodParamOptional&#45;&gt;expression/MethodParam -->
<g id="edge3" class="edge">
<title>expression/MethodParamOptional&#45;&gt;expression/MethodParam</title>
<path fill="none" stroke="black" d="M318.41,-71.88C299.32,-62.47 275.46,-50.71 255.1,-40.67"/>
<polygon fill="black" stroke="black" points="256.53,-37.47 246.01,-36.19 253.44,-43.75 256.53,-37.47"/>
</g>
<!-- expression/MethodDefChanging&#45;&gt;expression/MethodParamOptional -->
<g id="edge4" class="edge">
<title>expression/MethodDefChanging&#45;&gt;expression/MethodParamOptional</title>
<path fill="none" stroke="black" d="M211.89,-143.88C237.91,-134.14 270.67,-121.87 298.09,-111.61"/>
<polygon fill="black" stroke="black" points="299.41,-114.85 307.55,-108.07 296.95,-108.3 299.41,-114.85"/>
</g>
<!-- expression/MethodDefImporting&#45;&gt;expression/MethodParamOptional -->
<g id="edge6" class="edge">
<title>expression/MethodDefImporting&#45;&gt;expression/MethodParamOptional</title>
<path fill="none" stroke="black" d="M376.48,-143.7C372.95,-135.73 368.69,-126.1 364.77,-117.26"/>
<polygon fill="black" stroke="black" points="367.97,-115.83 360.72,-108.1 361.57,-118.67 367.97,-115.83"/>
</g>
<!-- statement/Events -->
<g id="node7" class="node">
<title>statement/Events</title>
<g id="a_node7"><a xlink:href="https://syntax.abaplint.org/#/statement/Events" xlink:title="statement/Events">
<polygon fill="none" stroke="black" points="692.52,-167.56 597.14,-180 501.76,-167.56 501.85,-147.44 692.43,-147.44 692.52,-167.56"/>
<text text-anchor="middle" x="597.14" y="-157.8" font-family="Times,serif" font-size="14.00">statement/Events</text>
</a>
</g>
</g>
<!-- statement/Events&#45;&gt;expression/MethodParamOptional -->
<g id="edge8" class="edge">
<title>statement/Events&#45;&gt;expression/MethodParamOptional</title>
<path fill="none" stroke="black" d="M549.81,-147.42C513.58,-137.03 463.07,-122.54 422.31,-110.84"/>
<polygon fill="black" stroke="black" points="423.02,-107.4 412.44,-108.01 421.09,-114.13 423.02,-107.4"/>
</g>
</g>
</svg>
