<?xml version="1.0" encoding="UTF-8" standalone="no"?>
<!DOCTYPE svg PUBLIC "-//W3C//DTD SVG 1.1//EN"
 "http://www.w3.org/Graphics/SVG/1.1/DTD/svg11.dtd">
<!-- Generated by graphviz version 2.47.3 (20210619.1520)
 -->
<!-- Title: G Pages: 1 -->
<svg width="264pt" height="141pt"
 viewBox="0.00 0.00 263.86 140.80" xmlns="http://www.w3.org/2000/svg" xmlns:xlink="http://www.w3.org/1999/xlink">
<g id="graph0" class="graph" transform="scale(1 1) rotate(0) translate(4 136.8)">
<title>G</title>
<polygon fill="white" stroke="transparent" points="-4,4 -4,-136.8 259.86,-136.8 259.86,4 -4,4"/>
<text text-anchor="middle" x="127.93" y="-116.2" font-family="Times,serif" font-size="14.00">Where used, expression/RadioGroupName</text>
<!-- expression/RadioGroupName -->
<g id="node1" class="node">
<title>expression/RadioGroupName</title>
<g id="a_node1"><a xlink:href="https://syntax.abaplint.org/#/expression/RadioGroupName" xlink:title="expression/RadioGroupName">
<polygon fill="none" stroke="black" points="219.33,-36 36.53,-36 36.53,0 219.33,0 219.33,-36"/>
<text text-anchor="middle" x="127.93" y="-13.8" font-family="Times,serif" font-size="14.00">expression/RadioGroupName</text>
</a>
</g>
</g>
<!-- statement/Parameter -->
<g id="node2" class="node">
<title>statement/Parameter</title>
<g id="a_node2"><a xlink:href="https://syntax.abaplint.org/#/statement/Parameter" xlink:title="statement/Parameter">
<polygon fill="none" stroke="black" points="239.1,-95.56 127.93,-108 16.76,-95.56 16.87,-75.44 238.99,-75.44 239.1,-95.56"/>
<text text-anchor="middle" x="127.93" y="-85.8" font-family="Times,serif" font-size="14.00">statement/Parameter</text>
</a>
</g>
</g>
<!-- statement/Parameter&#45;&gt;expression/RadioGroupName -->
<g id="edge1" class="edge">
<title>statement/Parameter&#45;&gt;expression/RadioGroupName</title>
<path fill="none" stroke="black" d="M127.93,-75.17C127.93,-66.92 127.93,-56.15 127.93,-46.26"/>
<polygon fill="black" stroke="black" points="131.43,-46.02 127.93,-36.02 124.43,-46.02 131.43,-46.02"/>
</g>
</g>
</svg>
