<svg xmlns="http://www.w3.org/2000/svg" xmlns:xlink="http://www.w3.org/1999/xlink" class="railroad-diagram" width="1404.5" height="506" viewBox="0 0 1404.5 506">
<defs>
<style type="text/css"><![CDATA[
path {
stroke-width: 3;
stroke: black;
fill: rgba(0,0,0,0);
}
text {
font: bold 14px monospace;
text-anchor: middle;
}
text.diagram-text {
font-size: 12px;
}
a {
fill: blue;
}
text.diagram-arrow {
font-size: 16px;
}
text.label {
text-anchor: start;
}
text.comment {
font: italic 12px monospace;
}
rect {
stroke-width: 3;
stroke: black;
fill: #BCBCBC;
}
path.diagram-text {
stroke-width: 3;
stroke: black;
fill: #BCBCBC;
cursor: help;
}
]]></style>
</defs>
<g transform="translate(.5 .5)">
<g>
<path d="M20 21v20m0 -10h20"></path>
</g>
<g>
<path d="M40 31h0"></path>
<path d="M1364.5 31h0"></path>
<path d="M40 31h20"></path>
<g>
<path d="M60 31h0"></path>
<path d="M370 31h974.5"></path>
<g class="terminal">
<path d="M60 31h0"></path>
<path d="M148 31h0"></path>
<rect x="60" y="20" width="88" height="22" rx="10" ry="10"></rect>
<text x="104" y="35">"EXISTS"</text>
</g>
<path d="M148 31h10"></path>
<path d="M158 31h10"></path>
<g>
<path d="M168 31h0"></path>
<path d="M370 31h0"></path>
<g class="terminal">
<path d="M168 31h0"></path>
<path d="M213.5 31h0"></path>
<rect x="168" y="20" width="45.5" height="22" rx="10" ry="10"></rect>
<text x="190.75" y="35">"("</text>
</g>
<path d="M213.5 31h10"></path>
<path d="M223.5 31h10"></path>
<g class="non-terminal">
<path d="M233.5 31h0"></path>
<path d="M304.5 31h0"></path>
<rect x="233.5" y="20" width="71" height="22"></rect>
<a xlink:href="#/expression/Select"><text x="269" y="35">Select</text>
</a>
</g>
<path d="M304.5 31h10"></path>
<path d="M314.5 31h10"></path>
<g class="terminal">
<path d="M324.5 31h0"></path>
<path d="M370 31h0"></path>
<rect x="324.5" y="20" width="45.5" height="22" rx="10" ry="10"></rect>
<text x="347.25" y="35">")"</text>
</g>
</g>
</g>
<path d="M1344.5 31h20"></path>
<path d="M40 31a10 10 0 0 1 10 10v10a10 10 0 0 0 10 10"></path>
<g class="non-terminal">
<path d="M60 61h0"></path>
<path d="M139.5 61h1205"></path>
<rect x="60" y="50" width="79.5" height="22"></rect>
<a xlink:href="#/expression/Dynamic"><text x="99.75" y="65">Dynamic</text>
</a>
</g>
<path d="M1344.5 61a10 10 0 0 0 10 -10v-10a10 10 0 0 1 10 -10"></path>
<path d="M40 31a10 10 0 0 1 10 10v49a10 10 0 0 0 10 10"></path>
<g>
<path d="M60 100h0"></path>
<path d="M1344.5 100h0"></path>
<g>
<path d="M60 100h0"></path>
<path d="M583 100h0"></path>
<path d="M60 100h20"></path>
<g>
<path d="M80 100h0"></path>
<path d="M563 100h0"></path>
<g>
<path d="M80 100h0"></path>
<path d="M118 100h0"></path>
<text x="99" y="105" class="comment">v751</text>
</g>
<path d="M118 100h10"></path>
<path d="M128 100h10"></path>
<g>
<path d="M138 100h0"></path>
<path d="M563 100h0"></path>
<g>
<path d="M138 100h0"></path>
<path d="M257.5 100h0"></path>
<path d="M138 100h20"></path>
<g class="terminal">
<path d="M158 100h0"></path>
<path d="M237.5 100h0"></path>
<rect x="158" y="89" width="79.5" height="22" rx="10" ry="10"></rect>
<text x="197.75" y="104">"LOWER"</text>
</g>
<path d="M237.5 100h20"></path>
<path d="M138 100a10 10 0 0 1 10 10v10a10 10 0 0 0 10 10"></path>
<g class="terminal">
<path d="M158 130h0"></path>
<path d="M237.5 130h0"></path>
<rect x="158" y="119" width="79.5" height="22" rx="10" ry="10"></rect>
<text x="197.75" y="134">"UPPER"</text>
</g>
<path d="M237.5 130a10 10 0 0 0 10 -10v-10a10 10 0 0 1 10 -10"></path>
</g>
<path d="M257.5 100h10"></path>
<g class="terminal">
<path d="M267.5 100h0"></path>
<path d="M330 100h0"></path>
<rect x="267.5" y="89" width="62.5" height="22" rx="10" ry="10"></rect>
<text x="298.75" y="104">!"( "</text>
</g>
<path d="M330 100h10"></path>
<path d="M340 100h10"></path>
<g class="non-terminal">
<path d="M350 100h0"></path>
<path d="M472 100h0"></path>
<rect x="350" y="89" width="122" height="22"></rect>
<a xlink:href="#/expression/SQLFieldName"><text x="411" y="104">SQLFieldName</text>
</a>
</g>
<path d="M472 100h10"></path>
<path d="M482 100h10"></path>
<g class="terminal">
<path d="M492 100h0"></path>
<path d="M563 100h0"></path>
<rect x="492" y="89" width="71" height="22" rx="10" ry="10"></rect>
<text x="527.5" y="104">!" ) "</text>
</g>
</g>
</g>
<path d="M563 100h20"></path>
<path d="M60 100a10 10 0 0 1 10 10v40a10 10 0 0 0 10 10"></path>
<g class="non-terminal">
<path d="M80 160h0"></path>
<path d="M202 160h361"></path>
<rect x="80" y="149" width="122" height="22"></rect>
<a xlink:href="#/expression/SQLFieldName"><text x="141" y="164">SQLFieldName</text>
</a>
</g>
<path d="M563 160a10 10 0 0 0 10 -10v-40a10 10 0 0 1 10 -10"></path>
</g>
<g>
<path d="M583 100h0"></path>
<path d="M1344.5 100h0"></path>
<path d="M583 100h20"></path>
<g>
<path d="M603 100h0"></path>
<path d="M1189 100h135.5"></path>
<g class="non-terminal">
<path d="M603 100h0"></path>
<path d="M776 100h0"></path>
<rect x="603" y="89" width="173" height="22"></rect>
<a xlink:href="#/expression/SQLCompareOperator"><text x="689.5" y="104">SQLCompareOperator</text>
</a>
</g>
<path d="M776 100h10"></path>
<g>
<path d="M786 100h0"></path>
<path d="M1189 100h0"></path>
<path d="M786 100h20"></path>
<g>
<path d="M806 100h0"></path>
<path d="M1169 100h0"></path>
<g>
<path d="M806 100h0"></path>
<path d="M957 100h0"></path>
<path d="M806 100a10 10 0 0 0 10 -10v0a10 10 0 0 1 10 -10"></path>
<g>
<path d="M826 80h111"></path>
</g>
<path d="M937 80a10 10 0 0 1 10 10v0a10 10 0 0 0 10 10"></path>
<path d="M806 100h20"></path>
<g>
<path d="M826 100h0"></path>
<path d="M937 100h0"></path>
<path d="M826 100h20"></path>
<g class="terminal">
<path d="M846 100h0"></path>
<path d="M908.5 100h8.5"></path>
<rect x="846" y="89" width="62.5" height="22" rx="10" ry="10"></rect>
<text x="877.25" y="104">"ALL"</text>
</g>
<path d="M917 100h20"></path>
<path d="M826 100a10 10 0 0 1 10 10v10a10 10 0 0 0 10 10"></path>
<g class="terminal">
<path d="M846 130h0"></path>
<path d="M908.5 130h8.5"></path>
<rect x="846" y="119" width="62.5" height="22" rx="10" ry="10"></rect>
<text x="877.25" y="134">"ANY"</text>
</g>
<path d="M917 130a10 10 0 0 0 10 -10v-10a10 10 0 0 1 10 -10"></path>
<path d="M826 100a10 10 0 0 1 10 10v40a10 10 0 0 0 10 10"></path>
<g class="terminal">
<path d="M846 160h0"></path>
<path d="M917 160h0"></path>
<rect x="846" y="149" width="71" height="22" rx="10" ry="10"></rect>
<text x="881.5" y="164">"SOME"</text>
</g>
<path d="M917 160a10 10 0 0 0 10 -10v-40a10 10 0 0 1 10 -10"></path>
</g>
<path d="M937 100h20"></path>
</g>
<path d="M957 100h10"></path>
<g>
<path d="M967 100h0"></path>
<path d="M1169 100h0"></path>
<g class="terminal">
<path d="M967 100h0"></path>
<path d="M1012.5 100h0"></path>
<rect x="967" y="89" width="45.5" height="22" rx="10" ry="10"></rect>
<text x="989.75" y="104">"("</text>
</g>
<path d="M1012.5 100h10"></path>
<path d="M1022.5 100h10"></path>
<g class="non-terminal">
<path d="M1032.5 100h0"></path>
<path d="M1103.5 100h0"></path>
<rect x="1032.5" y="89" width="71" height="22"></rect>
<a xlink:href="#/expression/Select"><text x="1068" y="104">Select</text>
</a>
</g>
<path d="M1103.5 100h10"></path>
<path d="M1113.5 100h10"></path>
<g class="terminal">
<path d="M1123.5 100h0"></path>
<path d="M1169 100h0"></path>
<rect x="1123.5" y="89" width="45.5" height="22" rx="10" ry="10"></rect>
<text x="1146.25" y="104">")"</text>
</g>
</g>
</g>
<path d="M1169 100h20"></path>
<path d="M786 100a10 10 0 0 1 10 10v70a10 10 0 0 0 10 10"></path>
<g class="non-terminal">
<path d="M806 190h0"></path>
<path d="M902.5 190h266.5"></path>
<rect x="806" y="179" width="96.5" height="22"></rect>
<a xlink:href="#/expression/SQLSource"><text x="854.25" y="194">SQLSource</text>
</a>
</g>
<path d="M1169 190a10 10 0 0 0 10 -10v-70a10 10 0 0 1 10 -10"></path>
</g>
</g>
<path d="M1324.5 100h20"></path>
<path d="M583 100a10 10 0 0 1 10 10v109a10 10 0 0 0 10 10"></path>
<g>
<path d="M603 229h0"></path>
<path d="M1324.5 229h0"></path>
<g>
<path d="M603 229h0"></path>
<path d="M705.5 229h0"></path>
<path d="M603 229a10 10 0 0 0 10 -10v0a10 10 0 0 1 10 -10"></path>
<g>
<path d="M623 209h62.5"></path>
</g>
<path d="M685.5 209a10 10 0 0 1 10 10v0a10 10 0 0 0 10 10"></path>
<path d="M603 229h20"></path>
<g class="terminal">
<path d="M623 229h0"></path>
<path d="M685.5 229h0"></path>
<rect x="623" y="218" width="62.5" height="22" rx="10" ry="10"></rect>
<text x="654.25" y="233">"NOT"</text>
</g>
<path d="M685.5 229h20"></path>
</g>
<path d="M705.5 229h10"></path>
<g class="terminal">
<path d="M715.5 229h0"></path>
<path d="M769.5 229h0"></path>
<rect x="715.5" y="218" width="54" height="22" rx="10" ry="10"></rect>
<text x="742.5" y="233">"IN"</text>
</g>
<path d="M769.5 229h10"></path>
<g>
<path d="M779.5 229h0"></path>
<path d="M1324.5 229h0"></path>
<path d="M779.5 229h20"></path>
<g class="non-terminal">
<path d="M799.5 229h0"></path>
<path d="M896 229h408.5"></path>
<rect x="799.5" y="218" width="96.5" height="22"></rect>
<a xlink:href="#/expression/SQLSource"><text x="847.75" y="233">SQLSource</text>
</a>
</g>
<path d="M1304.5 229h20"></path>
<path d="M779.5 229a10 10 0 0 1 10 10v19a10 10 0 0 0 10 10"></path>
<g>
<path d="M799.5 268h0"></path>
<path d="M1304.5 268h0"></path>
<g>
<path d="M799.5 268h0"></path>
<path d="M910.5 268h0"></path>
<path d="M799.5 268h20"></path>
<g class="terminal">
<path d="M819.5 268h0"></path>
<path d="M882 268h8.5"></path>
<rect x="819.5" y="257" width="62.5" height="22" rx="10" ry="10"></rect>
<text x="850.75" y="272">!" ("</text>
</g>
<path d="M890.5 268h20"></path>
<path d="M799.5 268a10 10 0 0 1 10 10v10a10 10 0 0 0 10 10"></path>
<g class="terminal">
<path d="M819.5 298h0"></path>
<path d="M890.5 298h0"></path>
<rect x="819.5" y="287" width="71" height="22" rx="10" ry="10"></rect>
<text x="855" y="302">!" ( "</text>
</g>
<path d="M890.5 298a10 10 0 0 0 10 -10v-10a10 10 0 0 1 10 -10"></path>
</g>
<path d="M910.5 268h10"></path>
<g class="non-terminal">
<path d="M920.5 268h0"></path>
<path d="M1017 268h0"></path>
<rect x="920.5" y="257" width="96.5" height="22"></rect>
<a xlink:href="#/expression/SQLSource"><text x="968.75" y="272">SQLSource</text>
</a>
</g>
<path d="M1017 268h10"></path>
<g>
<path d="M1027 268h0"></path>
<path d="M1249 268h0"></path>
<path d="M1027 268a10 10 0 0 0 10 -10v0a10 10 0 0 1 10 -10"></path>
<g>
<path d="M1047 248h182"></path>
</g>
<path d="M1229 248a10 10 0 0 1 10 10v0a10 10 0 0 0 10 10"></path>
<path d="M1027 268h20"></path>
<g>
<path d="M1047 268h0"></path>
<path d="M1229 268h0"></path>
<path d="M1047 268h10"></path>
<g>
<path d="M1057 268h0"></path>
<path d="M1219 268h0"></path>
<g class="terminal">
<path d="M1057 268h0"></path>
<path d="M1102.5 268h0"></path>
<rect x="1057" y="257" width="45.5" height="22" rx="10" ry="10"></rect>
<text x="1079.75" y="272">","</text>
</g>
<path d="M1102.5 268h10"></path>
<path d="M1112.5 268h10"></path>
<g class="non-terminal">
<path d="M1122.5 268h0"></path>
<path d="M1219 268h0"></path>
<rect x="1122.5" y="257" width="96.5" height="22"></rect>
<a xlink:href="#/expression/SQLSource"><text x="1170.75" y="272">SQLSource</text>
</a>
</g>
</g>
<path d="M1219 268h10"></path>
<path d="M1057 268a10 10 0 0 0 -10 10v0a10 10 0 0 0 10 10"></path>
<g>
<path d="M1057 288h162"></path>
</g>
<path d="M1219 288a10 10 0 0 0 10 -10v0a10 10 0 0 0 -10 -10"></path>
</g>
<path d="M1229 268h20"></path>
</g>
<path d="M1249 268h10"></path>
<g class="terminal">
<path d="M1259 268h0"></path>
<path d="M1304.5 268h0"></path>
<rect x="1259" y="257" width="45.5" height="22" rx="10" ry="10"></rect>
<text x="1281.75" y="272">")"</text>
</g>
</g>
<path d="M1304.5 268a10 10 0 0 0 10 -10v-19a10 10 0 0 1 10 -10"></path>
<path d="M779.5 229a10 10 0 0 1 10 10v79a10 10 0 0 0 10 10"></path>
<g>
<path d="M799.5 328h0"></path>
<path d="M1001.5 328h303"></path>
<g class="terminal">
<path d="M799.5 328h0"></path>
<path d="M845 328h0"></path>
<rect x="799.5" y="317" width="45.5" height="22" rx="10" ry="10"></rect>
<text x="822.25" y="332">"("</text>
</g>
<path d="M845 328h10"></path>
<path d="M855 328h10"></path>
<g class="non-terminal">
<path d="M865 328h0"></path>
<path d="M936 328h0"></path>
<rect x="865" y="317" width="71" height="22"></rect>
<a xlink:href="#/expression/Select"><text x="900.5" y="332">Select</text>
</a>
</g>
<path d="M936 328h10"></path>
<path d="M946 328h10"></path>
<g class="terminal">
<path d="M956 328h0"></path>
<path d="M1001.5 328h0"></path>
<rect x="956" y="317" width="45.5" height="22" rx="10" ry="10"></rect>
<text x="978.75" y="332">")"</text>
</g>
</g>
<path d="M1304.5 328a10 10 0 0 0 10 -10v-79a10 10 0 0 1 10 -10"></path>
</g>
</g>
<path d="M1324.5 229a10 10 0 0 0 10 -10v-109a10 10 0 0 1 10 -10"></path>
<path d="M583 100a10 10 0 0 1 10 10v247a10 10 0 0 0 10 10"></path>
<g>
<path d="M603 367h0"></path>
<path d="M1157.5 367h167"></path>
<g>
<path d="M603 367h0"></path>
<path d="M705.5 367h0"></path>
<path d="M603 367a10 10 0 0 0 10 -10v0a10 10 0 0 1 10 -10"></path>
<g>
<path d="M623 347h62.5"></path>
</g>
<path d="M685.5 347a10 10 0 0 1 10 10v0a10 10 0 0 0 10 10"></path>
<path d="M603 367h20"></path>
<g class="terminal">
<path d="M623 367h0"></path>
<path d="M685.5 367h0"></path>
<rect x="623" y="356" width="62.5" height="22" rx="10" ry="10"></rect>
<text x="654.25" y="371">"NOT"</text>
</g>
<path d="M685.5 367h20"></path>
</g>
<path d="M705.5 367h10"></path>
<g class="terminal">
<path d="M715.5 367h0"></path>
<path d="M786.5 367h0"></path>
<rect x="715.5" y="356" width="71" height="22" rx="10" ry="10"></rect>
<text x="751" y="371">"LIKE"</text>
</g>
<path d="M786.5 367h10"></path>
<path d="M796.5 367h10"></path>
<g class="non-terminal">
<path d="M806.5 367h0"></path>
<path d="M903 367h0"></path>
<rect x="806.5" y="356" width="96.5" height="22"></rect>
<a xlink:href="#/expression/SQLSource"><text x="854.75" y="371">SQLSource</text>
</a>
</g>
<path d="M903 367h10"></path>
<g>
<path d="M913 367h0"></path>
<path d="M1157.5 367h0"></path>
<path d="M913 367a10 10 0 0 0 10 -10v0a10 10 0 0 1 10 -10"></path>
<g>
<path d="M933 347h204.5"></path>
</g>
<path d="M1137.5 347a10 10 0 0 1 10 10v0a10 10 0 0 0 10 10"></path>
<path d="M913 367h20"></path>
<g>
<path d="M933 367h0"></path>
<path d="M1137.5 367h0"></path>
<g class="terminal">
<path d="M933 367h0"></path>
<path d="M1021 367h0"></path>
<rect x="933" y="356" width="88" height="22" rx="10" ry="10"></rect>
<text x="977" y="371">"ESCAPE"</text>
</g>
<path d="M1021 367h10"></path>
<path d="M1031 367h10"></path>
<g class="non-terminal">
<path d="M1041 367h0"></path>
<path d="M1137.5 367h0"></path>
<rect x="1041" y="356" width="96.5" height="22"></rect>
<a xlink:href="#/expression/SQLSource"><text x="1089.25" y="371">SQLSource</text>
</a>
</g>
</g>
<path d="M1137.5 367h20"></path>
</g>
</g>
<path d="M1324.5 367a10 10 0 0 0 10 -10v-247a10 10 0 0 1 10 -10"></path>
<path d="M583 100a10 10 0 0 1 10 10v286a10 10 0 0 0 10 10"></path>
<g>
<path d="M603 406h0"></path>
<path d="M1127.5 406h197"></path>
<g>
<path d="M603 406h0"></path>
<path d="M705.5 406h0"></path>
<path d="M603 406a10 10 0 0 0 10 -10v0a10 10 0 0 1 10 -10"></path>
<g>
<path d="M623 386h62.5"></path>
</g>
<path d="M685.5 386a10 10 0 0 1 10 10v0a10 10 0 0 0 10 10"></path>
<path d="M603 406h20"></path>
<g class="terminal">
<path d="M623 406h0"></path>
<path d="M685.5 406h0"></path>
<rect x="623" y="395" width="62.5" height="22" rx="10" ry="10"></rect>
<text x="654.25" y="410">"NOT"</text>
</g>
<path d="M685.5 406h20"></path>
</g>
<path d="M705.5 406h10"></path>
<g class="terminal">
<path d="M715.5 406h0"></path>
<path d="M812 406h0"></path>
<rect x="715.5" y="395" width="96.5" height="22" rx="10" ry="10"></rect>
<text x="763.75" y="410">"BETWEEN"</text>
</g>
<path d="M812 406h10"></path>
<path d="M822 406h10"></path>
<g class="non-terminal">
<path d="M832 406h0"></path>
<path d="M928.5 406h0"></path>
<rect x="832" y="395" width="96.5" height="22"></rect>
<a xlink:href="#/expression/SQLSource"><text x="880.25" y="410">SQLSource</text>
</a>
</g>
<path d="M928.5 406h10"></path>
<path d="M938.5 406h10"></path>
<g class="terminal">
<path d="M948.5 406h0"></path>
<path d="M1011 406h0"></path>
<rect x="948.5" y="395" width="62.5" height="22" rx="10" ry="10"></rect>
<text x="979.75" y="410">"AND"</text>
</g>
<path d="M1011 406h10"></path>
<path d="M1021 406h10"></path>
<g class="non-terminal">
<path d="M1031 406h0"></path>
<path d="M1127.5 406h0"></path>
<rect x="1031" y="395" width="96.5" height="22"></rect>
<a xlink:href="#/expression/SQLSource"><text x="1079.25" y="410">SQLSource</text>
</a>
</g>
</g>
<path d="M1324.5 406a10 10 0 0 0 10 -10v-286a10 10 0 0 1 10 -10"></path>
<path d="M583 100a10 10 0 0 1 10 10v325a10 10 0 0 0 10 10"></path>
<g>
<path d="M603 445h0"></path>
<path d="M964 445h360.5"></path>
<g class="terminal">
<path d="M603 445h0"></path>
<path d="M657 445h0"></path>
<rect x="603" y="434" width="54" height="22" rx="10" ry="10"></rect>
<text x="630" y="449">"IS"</text>
</g>
<path d="M657 445h10"></path>
<g>
<path d="M667 445h0"></path>
<path d="M769.5 445h0"></path>
<path d="M667 445a10 10 0 0 0 10 -10v0a10 10 0 0 1 10 -10"></path>
<g>
<path d="M687 425h62.5"></path>
</g>
<path d="M749.5 425a10 10 0 0 1 10 10v0a10 10 0 0 0 10 10"></path>
<path d="M667 445h20"></path>
<g class="terminal">
<path d="M687 445h0"></path>
<path d="M749.5 445h0"></path>
<rect x="687" y="434" width="62.5" height="22" rx="10" ry="10"></rect>
<text x="718.25" y="449">"NOT"</text>
</g>
<path d="M749.5 445h20"></path>
</g>
<g>
<path d="M769.5 445h0"></path>
<path d="M964 445h0"></path>
<path d="M769.5 445h20"></path>
<g class="terminal">
<path d="M789.5 445h0"></path>
<path d="M860.5 445h83.5"></path>
<rect x="789.5" y="434" width="71" height="22" rx="10" ry="10"></rect>
<text x="825" y="449">"NULL"</text>
</g>
<path d="M944 445h20"></path>
<path d="M769.5 445a10 10 0 0 1 10 10v10a10 10 0 0 0 10 10"></path>
<g>
<path d="M789.5 475h0"></path>
<path d="M944 475h0"></path>
<g>
<path d="M789.5 475h0"></path>
<path d="M827.5 475h0"></path>
<text x="808.5" y="480" class="comment">v753</text>
</g>
<path d="M827.5 475h10"></path>
<path d="M837.5 475h10"></path>
<g class="terminal">
<path d="M847.5 475h0"></path>
<path d="M944 475h0"></path>
<rect x="847.5" y="464" width="96.5" height="22" rx="10" ry="10"></rect>
<text x="895.75" y="479">"INITIAL"</text>
</g>
</g>
<path d="M944 475a10 10 0 0 0 10 -10v-10a10 10 0 0 1 10 -10"></path>
</g>
</g>
<path d="M1324.5 445a10 10 0 0 0 10 -10v-325a10 10 0 0 1 10 -10"></path>
</g>
</g>
<path d="M1344.5 100a10 10 0 0 0 10 -10v-49a10 10 0 0 1 10 -10"></path>
</g>
<path d="M 1364.5 31 h 20 m 0 -10 v 20"></path>
</g>
</svg>
