<?xml version="1.0" encoding="UTF-8" standalone="no"?>
<!DOCTYPE svg PUBLIC "-//W3C//DTD SVG 1.1//EN"
 "http://www.w3.org/Graphics/SVG/1.1/DTD/svg11.dtd">
<!-- Generated by graphviz version 2.47.3 (20210619.1520)
 -->
<!-- Title: G Pages: 1 -->
<svg width="282pt" height="141pt"
 viewBox="0.00 0.00 281.75 140.80" xmlns="http://www.w3.org/2000/svg" xmlns:xlink="http://www.w3.org/1999/xlink">
<g id="graph0" class="graph" transform="scale(1 1) rotate(0) translate(4 136.8)">
<title>G</title>
<polygon fill="white" stroke="transparent" points="-4,4 -4,-136.8 277.75,-136.8 277.75,4 -4,4"/>
<text text-anchor="middle" x="136.87" y="-116.2" font-family="Times,serif" font-size="14.00">Where used, expression/MethodDefImporting</text>
<!-- expression/MethodDefImporting -->
<g id="node1" class="node">
<title>expression/MethodDefImporting</title>
<g id="a_node1"><a xlink:href="https://syntax.abaplint.org/#/expression/MethodDefImporting" xlink:title="expression/MethodDefImporting">
<polygon fill="none" stroke="black" points="237.16,-36 36.59,-36 36.59,0 237.16,0 237.16,-36"/>
<text text-anchor="middle" x="136.87" y="-13.8" font-family="Times,serif" font-size="14.00">expression/MethodDefImporting</text>
</a>
</g>
</g>
<!-- statement/MethodDef -->
<g id="node2" class="node">
<title>statement/MethodDef</title>
<g id="a_node2"><a xlink:href="https://syntax.abaplint.org/#/statement/MethodDef" xlink:title="statement/MethodDef">
<polygon fill="none" stroke="black" points="254.82,-95.56 136.87,-108 18.93,-95.56 19.04,-75.44 254.71,-75.44 254.82,-95.56"/>
<text text-anchor="middle" x="136.87" y="-85.8" font-family="Times,serif" font-size="14.00">statement/MethodDef</text>
</a>
</g>
</g>
<!-- statement/MethodDef&#45;&gt;expression/MethodDefImporting -->
<g id="edge1" class="edge">
<title>statement/MethodDef&#45;&gt;expression/MethodDefImporting</title>
<path fill="none" stroke="black" d="M136.87,-75.17C136.87,-66.92 136.87,-56.15 136.87,-46.26"/>
<polygon fill="black" stroke="black" points="140.37,-46.02 136.87,-36.02 133.37,-46.02 140.37,-46.02"/>
</g>
</g>
</svg>
