<svg xmlns="http://www.w3.org/2000/svg" xmlns:xlink="http://www.w3.org/1999/xlink" class="railroad-diagram" width="852.5" height="319" viewBox="0 0 852.5 319">
<defs>
<style type="text/css"><![CDATA[
path {
stroke-width: 3;
stroke: black;
fill: rgba(0,0,0,0);
}
text {
font: bold 14px monospace;
text-anchor: middle;
}
text.diagram-text {
font-size: 12px;
}
a {
fill: blue;
}
text.diagram-arrow {
font-size: 16px;
}
text.label {
text-anchor: start;
}
text.comment {
font: italic 12px monospace;
}
rect {
stroke-width: 3;
stroke: black;
fill: #BCBCBC;
}
path.diagram-text {
stroke-width: 3;
stroke: black;
fill: #BCBCBC;
cursor: help;
}
]]></style>
</defs>
<g transform="translate(.5 .5)">
<g>
<path d="M20 21v20m0 -10h20"></path>
</g>
<g>
<path d="M40 31h0"></path>
<path d="M812.5 31h0"></path>
<path d="M40 31h20"></path>
<g class="terminal">
<path d="M60 31h0"></path>
<path d="M105.5 31h687"></path>
<rect x="60" y="20" width="45.5" height="22" rx="10" ry="10"></rect>
<text x="82.75" y="35">"&#42;"</text>
</g>
<path d="M792.5 31h20"></path>
<path d="M40 31a10 10 0 0 1 10 10v10a10 10 0 0 0 10 10"></path>
<g class="non-terminal">
<path d="M60 61h0"></path>
<path d="M139.5 61h653"></path>
<rect x="60" y="50" width="79.5" height="22"></rect>
<a xlink:href="#/expression/Dynamic"><text x="99.75" y="65">Dynamic</text>
</a>
</g>
<path d="M792.5 61a10 10 0 0 0 10 -10v-10a10 10 0 0 1 10 -10"></path>
<path d="M40 31a10 10 0 0 1 10 10v49a10 10 0 0 0 10 10"></path>
<g>
<path d="M60 100h0"></path>
<path d="M792.5 100h0"></path>
<path d="M60 100h10"></path>
<g>
<path d="M70 100h0"></path>
<path d="M782.5 100h0"></path>
<g>
<path d="M70 100h0"></path>
<path d="M434.5 100h0"></path>
<path d="M70 100h20"></path>
<g class="non-terminal">
<path d="M90 100h0"></path>
<path d="M229 100h185.5"></path>
<rect x="90" y="89" width="139" height="22"></rect>
<a xlink:href="#/expression/SQLAggregation"><text x="159.5" y="104">SQLAggregation</text>
</a>
</g>
<path d="M414.5 100h20"></path>
<path d="M70 100a10 10 0 0 1 10 10v10a10 10 0 0 0 10 10"></path>
<g class="non-terminal">
<path d="M90 130h0"></path>
<path d="M169.5 130h245"></path>
<rect x="90" y="119" width="79.5" height="22"></rect>
<a xlink:href="#/expression/SQLCase"><text x="129.75" y="134">SQLCase</text>
</a>
</g>
<path d="M414.5 130a10 10 0 0 0 10 -10v-10a10 10 0 0 1 10 -10"></path>
<path d="M70 100a10 10 0 0 1 10 10v40a10 10 0 0 0 10 10"></path>
<g class="non-terminal">
<path d="M90 160h0"></path>
<path d="M203.5 160h211"></path>
<rect x="90" y="149" width="113.5" height="22"></rect>
<a xlink:href="#/expression/SQLFunction"><text x="146.75" y="164">SQLFunction</text>
</a>
</g>
<path d="M414.5 160a10 10 0 0 0 10 -10v-40a10 10 0 0 1 10 -10"></path>
<path d="M70 100a10 10 0 0 1 10 10v70a10 10 0 0 0 10 10"></path>
<g class="non-terminal">
<path d="M90 190h0"></path>
<path d="M169.5 190h245"></path>
<rect x="90" y="179" width="79.5" height="22"></rect>
<a xlink:href="#/expression/SQLPath"><text x="129.75" y="194">SQLPath</text>
</a>
</g>
<path d="M414.5 190a10 10 0 0 0 10 -10v-70a10 10 0 0 1 10 -10"></path>
<path d="M70 100a10 10 0 0 1 10 10v100a10 10 0 0 0 10 10"></path>
<g class="non-terminal">
<path d="M90 220h0"></path>
<path d="M212 220h202.5"></path>
<rect x="90" y="209" width="122" height="22"></rect>
<a xlink:href="#/expression/SQLFieldName"><text x="151" y="224">SQLFieldName</text>
</a>
</g>
<path d="M414.5 220a10 10 0 0 0 10 -10v-100a10 10 0 0 1 10 -10"></path>
<path d="M70 100a10 10 0 0 1 10 10v130a10 10 0 0 0 10 10"></path>
<g>
<path d="M90 250h0"></path>
<path d="M414.5 250h0"></path>
<g>
<path d="M90 250h0"></path>
<path d="M156 250h0"></path>
<text x="123" y="255" class="comment">v740sp05</text>
</g>
<path d="M156 250h10"></path>
<path d="M166 250h10"></path>
<g>
<path d="M176 250h0"></path>
<path d="M414.5 250h0"></path>
<g class="terminal">
<path d="M176 250h0"></path>
<path d="M238.5 250h0"></path>
<rect x="176" y="239" width="62.5" height="22" rx="10" ry="10"></rect>
<text x="207.25" y="254">!" @"</text>
</g>
<path d="M238.5 250h10"></path>
<path d="M248.5 250h10"></path>
<g class="non-terminal">
<path d="M258.5 250h0"></path>
<path d="M414.5 250h0"></path>
<rect x="258.5" y="239" width="156" height="22"></rect>
<a xlink:href="#/expression/SimpleFieldChain"><text x="336.5" y="254">SimpleFieldChain</text>
</a>
</g>
</g>
</g>
<path d="M414.5 250a10 10 0 0 0 10 -10v-130a10 10 0 0 1 10 -10"></path>
<path d="M70 100a10 10 0 0 1 10 10v160a10 10 0 0 0 10 10"></path>
<g class="non-terminal">
<path d="M90 280h0"></path>
<path d="M178 280h236.5"></path>
<rect x="90" y="269" width="88" height="22"></rect>
<a xlink:href="#/expression/Constant"><text x="134" y="284">Constant</text>
</a>
</g>
<path d="M414.5 280a10 10 0 0 0 10 -10v-160a10 10 0 0 1 10 -10"></path>
</g>
<g>
<path d="M434.5 100h0"></path>
<path d="M611 100h0"></path>
<path d="M434.5 100a10 10 0 0 0 10 -10v0a10 10 0 0 1 10 -10"></path>
<g>
<path d="M454.5 80h136.5"></path>
</g>
<path d="M591 80a10 10 0 0 1 10 10v0a10 10 0 0 0 10 10"></path>
<path d="M434.5 100h20"></path>
<g>
<path d="M454.5 100h0"></path>
<path d="M591 100h0"></path>
<g class="terminal">
<path d="M454.5 100h0"></path>
<path d="M508.5 100h0"></path>
<rect x="454.5" y="89" width="54" height="22" rx="10" ry="10"></rect>
<text x="481.5" y="104">"AS"</text>
</g>
<path d="M508.5 100h10"></path>
<path d="M518.5 100h10"></path>
<g class="non-terminal">
<path d="M528.5 100h0"></path>
<path d="M591 100h0"></path>
<rect x="528.5" y="89" width="62.5" height="22"></rect>
<a xlink:href="#/expression/Field"><text x="559.75" y="104">Field</text>
</a>
</g>
</g>
<path d="M591 100h20"></path>
</g>
<g>
<path d="M611 100h0"></path>
<path d="M782.5 100h0"></path>
<path d="M611 100a10 10 0 0 0 10 -10v0a10 10 0 0 1 10 -10"></path>
<g>
<path d="M631 80h131.5"></path>
</g>
<path d="M762.5 80a10 10 0 0 1 10 10v0a10 10 0 0 0 10 10"></path>
<path d="M611 100h20"></path>
<g>
<path d="M631 100h0"></path>
<path d="M762.5 100h0"></path>
<g>
<path d="M631 100h0"></path>
<path d="M697 100h0"></path>
<text x="664" y="105" class="comment">v740sp05</text>
</g>
<path d="M697 100h10"></path>
<path d="M707 100h10"></path>
<g class="terminal">
<path d="M717 100h0"></path>
<path d="M762.5 100h0"></path>
<rect x="717" y="89" width="45.5" height="22" rx="10" ry="10"></rect>
<text x="739.75" y="104">","</text>
</g>
</g>
<path d="M762.5 100h20"></path>
</g>
</g>
<path d="M782.5 100h10"></path>
<path d="M70 100a10 10 0 0 0 -10 10v179a10 10 0 0 0 10 10"></path>
<g>
<path d="M70 299h712.5"></path>
</g>
<path d="M782.5 299a10 10 0 0 0 10 -10v-179a10 10 0 0 0 -10 -10"></path>
</g>
<path d="M792.5 100a10 10 0 0 0 10 -10v-49a10 10 0 0 1 10 -10"></path>
</g>
<path d="M 812.5 31 h 20 m 0 -10 v 20"></path>
</g>
</svg>
