<svg xmlns="http://www.w3.org/2000/svg" xmlns:xlink="http://www.w3.org/1999/xlink" class="railroad-diagram" width="266.5" height="71" viewBox="0 0 266.5 71">
<defs>
<style type="text/css"><![CDATA[
path {
stroke-width: 3;
stroke: black;
fill: rgba(0,0,0,0);
}
text {
font: bold 14px monospace;
text-anchor: middle;
}
text.diagram-text {
font-size: 12px;
}
a {
fill: blue;
}
text.diagram-arrow {
font-size: 16px;
}
text.label {
text-anchor: start;
}
text.comment {
font: italic 12px monospace;
}
rect {
stroke-width: 3;
stroke: black;
fill: #BCBCBC;
}
path.diagram-text {
stroke-width: 3;
stroke: black;
fill: #BCBCBC;
cursor: help;
}
]]></style>
</defs>
<g transform="translate(.5 .5)">
<g>
<path d="M20 30v20m0 -10h20"></path>
</g>
<path d="M40 40h10"></path>
<g>
<path d="M50 40h0"></path>
<path d="M216.5 40h0"></path>
<g>
<path d="M50 40h0"></path>
<path d="M135.5 40h0"></path>
<path d="M50 40a10 10 0 0 0 10 -10v0a10 10 0 0 1 10 -10"></path>
<g>
<path d="M70 20h45.5"></path>
</g>
<path d="M115.5 20a10 10 0 0 1 10 10v0a10 10 0 0 0 10 10"></path>
<path d="M50 40h20"></path>
<g class="non-terminal">
<path d="M70 40h0"></path>
<path d="M115.5 40h0"></path>
<rect x="70" y="29" width="45.5" height="22"></rect>
<a xlink:href="#/expression/Let"><text x="92.75" y="44">Let</text>
</a>
</g>
<path d="M115.5 40h20"></path>
</g>
<path d="M135.5 40h10"></path>
<g class="non-terminal">
<path d="M145.5 40h0"></path>
<path d="M216.5 40h0"></path>
<rect x="145.5" y="29" width="71" height="22"></rect>
<a xlink:href="#/expression/Source"><text x="181" y="44">Source</text>
</a>
</g>
</g>
<path d="M216.5 40h10"></path>
<path d="M 226.5 40 h 20 m 0 -10 v 20"></path>
</g>
</svg>
