<svg xmlns="http://www.w3.org/2000/svg" xmlns:xlink="http://www.w3.org/1999/xlink" class="railroad-diagram" width="1705" height="71" viewBox="0 0 1705 71">
<defs>
<style type="text/css"><![CDATA[
path {
stroke-width: 3;
stroke: black;
fill: rgba(0,0,0,0);
}
text {
font: bold 14px monospace;
text-anchor: middle;
}
text.diagram-text {
font-size: 12px;
}
a {
fill: blue;
}
text.diagram-arrow {
font-size: 16px;
}
text.label {
text-anchor: start;
}
text.comment {
font: italic 12px monospace;
}
rect {
stroke-width: 3;
stroke: black;
fill: #BCBCBC;
}
path.diagram-text {
stroke-width: 3;
stroke: black;
fill: #BCBCBC;
cursor: help;
}
]]></style>
</defs>
<g transform="translate(.5 .5)">
<g>
<path d="M20 30v20m0 -10h20"></path>
</g>
<path d="M40 40h10"></path>
<g>
<path d="M50 40h0"></path>
<path d="M1655 40h0"></path>
<g>
<path d="M50 40h0"></path>
<path d="M362.5 40h0"></path>
<path d="M50 40a10 10 0 0 0 10 -10v0a10 10 0 0 1 10 -10"></path>
<g>
<path d="M70 20h272.5"></path>
</g>
<path d="M342.5 20a10 10 0 0 1 10 10v0a10 10 0 0 0 10 10"></path>
<path d="M50 40h20"></path>
<g>
<path d="M70 40h0"></path>
<path d="M342.5 40h0"></path>
<g class="terminal">
<path d="M70 40h0"></path>
<path d="M183.5 40h0"></path>
<rect x="70" y="29" width="113.5" height="22" rx="10" ry="10"></rect>
<text x="126.75" y="44">"EXPORTING"</text>
</g>
<path d="M183.5 40h10"></path>
<path d="M193.5 40h10"></path>
<g class="non-terminal">
<path d="M203.5 40h0"></path>
<path d="M342.5 40h0"></path>
<rect x="203.5" y="29" width="139" height="22"></rect>
<a xlink:href="#/expression/ParameterListS"><text x="273" y="44">ParameterListS</text>
</a>
</g>
</g>
<path d="M342.5 40h20"></path>
</g>
<g>
<path d="M362.5 40h0"></path>
<path d="M675 40h0"></path>
<path d="M362.5 40a10 10 0 0 0 10 -10v0a10 10 0 0 1 10 -10"></path>
<g>
<path d="M382.5 20h272.5"></path>
</g>
<path d="M655 20a10 10 0 0 1 10 10v0a10 10 0 0 0 10 10"></path>
<path d="M362.5 40h20"></path>
<g>
<path d="M382.5 40h0"></path>
<path d="M655 40h0"></path>
<g class="terminal">
<path d="M382.5 40h0"></path>
<path d="M496 40h0"></path>
<rect x="382.5" y="29" width="113.5" height="22" rx="10" ry="10"></rect>
<text x="439.25" y="44">"IMPORTING"</text>
</g>
<path d="M496 40h10"></path>
<path d="M506 40h10"></path>
<g class="non-terminal">
<path d="M516 40h0"></path>
<path d="M655 40h0"></path>
<rect x="516" y="29" width="139" height="22"></rect>
<a xlink:href="#/expression/ParameterListT"><text x="585.5" y="44">ParameterListT</text>
</a>
</g>
</g>
<path d="M655 40h20"></path>
</g>
<g>
<path d="M675 40h0"></path>
<path d="M979 40h0"></path>
<path d="M675 40a10 10 0 0 0 10 -10v0a10 10 0 0 1 10 -10"></path>
<g>
<path d="M695 20h264"></path>
</g>
<path d="M959 20a10 10 0 0 1 10 10v0a10 10 0 0 0 10 10"></path>
<path d="M675 40h20"></path>
<g>
<path d="M695 40h0"></path>
<path d="M959 40h0"></path>
<g class="terminal">
<path d="M695 40h0"></path>
<path d="M800 40h0"></path>
<rect x="695" y="29" width="105" height="22" rx="10" ry="10"></rect>
<text x="747.5" y="44">"CHANGING"</text>
</g>
<path d="M800 40h10"></path>
<path d="M810 40h10"></path>
<g class="non-terminal">
<path d="M820 40h0"></path>
<path d="M959 40h0"></path>
<rect x="820" y="29" width="139" height="22"></rect>
<a xlink:href="#/expression/ParameterListT"><text x="889.5" y="44">ParameterListT</text>
</a>
</g>
</g>
<path d="M959 40h20"></path>
</g>
<g>
<path d="M979 40h0"></path>
<path d="M1257.5 40h0"></path>
<path d="M979 40a10 10 0 0 0 10 -10v0a10 10 0 0 1 10 -10"></path>
<g>
<path d="M999 20h238.5"></path>
</g>
<path d="M1237.5 20a10 10 0 0 1 10 10v0a10 10 0 0 0 10 10"></path>
<path d="M979 40h20"></path>
<g>
<path d="M999 40h0"></path>
<path d="M1237.5 40h0"></path>
<g class="terminal">
<path d="M999 40h0"></path>
<path d="M1112.5 40h0"></path>
<rect x="999" y="29" width="113.5" height="22" rx="10" ry="10"></rect>
<text x="1055.75" y="44">"RECEIVING"</text>
</g>
<path d="M1112.5 40h10"></path>
<path d="M1122.5 40h10"></path>
<g class="non-terminal">
<path d="M1132.5 40h0"></path>
<path d="M1237.5 40h0"></path>
<rect x="1132.5" y="29" width="105" height="22"></rect>
<a xlink:href="#/expression/ParameterT"><text x="1185" y="44">ParameterT</text>
</a>
</g>
</g>
<path d="M1237.5 40h20"></path>
</g>
<g>
<path d="M1257.5 40h0"></path>
<path d="M1655 40h0"></path>
<path d="M1257.5 40a10 10 0 0 0 10 -10v0a10 10 0 0 1 10 -10"></path>
<g>
<path d="M1277.5 20h357.5"></path>
</g>
<path d="M1635 20a10 10 0 0 1 10 10v0a10 10 0 0 0 10 10"></path>
<path d="M1257.5 40h20"></path>
<g>
<path d="M1277.5 40h0"></path>
<path d="M1635 40h0"></path>
<g class="terminal">
<path d="M1277.5 40h0"></path>
<path d="M1399.5 40h0"></path>
<rect x="1277.5" y="29" width="122" height="22" rx="10" ry="10"></rect>
<text x="1338.5" y="44">"EXCEPTIONS"</text>
</g>
<path d="M1399.5 40h10"></path>
<path d="M1409.5 40h10"></path>
<g class="non-terminal">
<path d="M1419.5 40h0"></path>
<path d="M1635 40h0"></path>
<rect x="1419.5" y="29" width="215.5" height="22"></rect>
<a xlink:href="#/expression/ParameterListExceptions"><text x="1527.25" y="44">ParameterListExceptions</text>
</a>
</g>
</g>
<path d="M1635 40h20"></path>
</g>
</g>
<path d="M1655 40h10"></path>
<path d="M 1665 40 h 20 m 0 -10 v 20"></path>
</g>
</svg>
