<?xml version="1.0" encoding="UTF-8" standalone="no"?>
<!DOCTYPE svg PUBLIC "-//W3C//DTD SVG 1.1//EN"
 "http://www.w3.org/Graphics/SVG/1.1/DTD/svg11.dtd">
<!-- Generated by graphviz version 2.47.3 (20210619.1520)
 -->
<!-- Title: G Pages: 1 -->
<svg width="258pt" height="141pt"
 viewBox="0.00 0.00 258.39 140.80" xmlns="http://www.w3.org/2000/svg" xmlns:xlink="http://www.w3.org/1999/xlink">
<g id="graph0" class="graph" transform="scale(1 1) rotate(0) translate(4 136.8)">
<title>G</title>
<polygon fill="white" stroke="transparent" points="-4,4 -4,-136.8 254.39,-136.8 254.39,4 -4,4"/>
<text text-anchor="middle" x="125.2" y="-116.2" font-family="Times,serif" font-size="14.00">Where used, expression/ReadTableTarget</text>
<!-- expression/ReadTableTarget -->
<g id="node1" class="node">
<title>expression/ReadTableTarget</title>
<g id="a_node1"><a xlink:href="https://syntax.abaplint.org/#/expression/ReadTableTarget" xlink:title="expression/ReadTableTarget">
<polygon fill="none" stroke="black" points="213.63,-36 36.77,-36 36.77,0 213.63,0 213.63,-36"/>
<text text-anchor="middle" x="125.2" y="-13.8" font-family="Times,serif" font-size="14.00">expression/ReadTableTarget</text>
</a>
</g>
</g>
<!-- statement/ReadTable -->
<g id="node2" class="node">
<title>statement/ReadTable</title>
<g id="a_node2"><a xlink:href="https://syntax.abaplint.org/#/statement/ReadTable" xlink:title="statement/ReadTable">
<polygon fill="none" stroke="black" points="239.51,-95.56 125.2,-108 10.89,-95.56 11,-75.44 239.4,-75.44 239.51,-95.56"/>
<text text-anchor="middle" x="125.2" y="-85.8" font-family="Times,serif" font-size="14.00">statement/ReadTable</text>
</a>
</g>
</g>
<!-- statement/ReadTable&#45;&gt;expression/ReadTableTarget -->
<g id="edge1" class="edge">
<title>statement/ReadTable&#45;&gt;expression/ReadTableTarget</title>
<path fill="none" stroke="black" d="M125.2,-75.17C125.2,-66.92 125.2,-56.15 125.2,-46.26"/>
<polygon fill="black" stroke="black" points="128.7,-46.02 125.2,-36.02 121.7,-46.02 128.7,-46.02"/>
</g>
</g>
</svg>
