<svg xmlns="http://www.w3.org/2000/svg" xmlns:xlink="http://www.w3.org/1999/xlink" class="railroad-diagram" width="884.5" height="101" viewBox="0 0 884.5 101">
<defs>
<style type="text/css"><![CDATA[
path {
stroke-width: 3;
stroke: black;
fill: rgba(0,0,0,0);
}
text {
font: bold 14px monospace;
text-anchor: middle;
}
text.diagram-text {
font-size: 12px;
}
a {
fill: blue;
}
text.diagram-arrow {
font-size: 16px;
}
text.label {
text-anchor: start;
}
text.comment {
font: italic 12px monospace;
}
rect {
stroke-width: 3;
stroke: black;
fill: #BCBCBC;
}
path.diagram-text {
stroke-width: 3;
stroke: black;
fill: #BCBCBC;
cursor: help;
}
]]></style>
</defs>
<g transform="translate(.5 .5)">
<g>
<path d="M20 30v20m0 -10h20"></path>
</g>
<path d="M40 40h10"></path>
<g>
<path d="M50 40h0"></path>
<path d="M834.5 40h0"></path>
<g>
<path d="M50 40h0"></path>
<path d="M254.5 40h0"></path>
<path d="M50 40h20"></path>
<g class="non-terminal">
<path d="M70 40h0"></path>
<path d="M234.5 40h0"></path>
<rect x="70" y="29" width="164.5" height="22"></rect>
<a xlink:href="#/expression/TargetFieldSymbol"><text x="152.25" y="44">TargetFieldSymbol</text>
</a>
</g>
<path d="M234.5 40h20"></path>
<path d="M50 40a10 10 0 0 1 10 10v10a10 10 0 0 0 10 10"></path>
<g class="non-terminal">
<path d="M70 70h0"></path>
<path d="M183.5 70h51"></path>
<rect x="70" y="59" width="113.5" height="22"></rect>
<a xlink:href="#/expression/TargetField"><text x="126.75" y="74">TargetField</text>
</a>
</g>
<path d="M234.5 70a10 10 0 0 0 10 -10v-10a10 10 0 0 1 10 -10"></path>
</g>
<path d="M254.5 40h10"></path>
<g class="terminal">
<path d="M264.5 40h0"></path>
<path d="M318.5 40h0"></path>
<rect x="264.5" y="29" width="54" height="22" rx="10" ry="10"></rect>
<text x="291.5" y="44">"IN"</text>
</g>
<path d="M318.5 40h10"></path>
<g>
<path d="M328.5 40h0"></path>
<path d="M448 40h0"></path>
<path d="M328.5 40a10 10 0 0 0 10 -10v0a10 10 0 0 1 10 -10"></path>
<g>
<path d="M348.5 20h79.5"></path>
</g>
<path d="M428 20a10 10 0 0 1 10 10v0a10 10 0 0 0 10 10"></path>
<path d="M328.5 40h20"></path>
<g class="terminal">
<path d="M348.5 40h0"></path>
<path d="M428 40h0"></path>
<rect x="348.5" y="29" width="79.5" height="22" rx="10" ry="10"></rect>
<text x="388.25" y="44">"GROUP"</text>
</g>
<path d="M428 40h20"></path>
</g>
<path d="M448 40h10"></path>
<g class="non-terminal">
<path d="M458 40h0"></path>
<path d="M529 40h0"></path>
<rect x="458" y="29" width="71" height="22"></rect>
<a xlink:href="#/expression/Source"><text x="493.5" y="44">Source</text>
</a>
</g>
<path d="M529 40h10"></path>
<g>
<path d="M539 40h0"></path>
<path d="M834.5 40h0"></path>
<path d="M539 40a10 10 0 0 0 10 -10v0a10 10 0 0 1 10 -10"></path>
<g>
<path d="M559 20h255.5"></path>
</g>
<path d="M814.5 20a10 10 0 0 1 10 10v0a10 10 0 0 0 10 10"></path>
<path d="M539 40h20"></path>
<g>
<path d="M559 40h0"></path>
<path d="M814.5 40h0"></path>
<g class="terminal">
<path d="M559 40h0"></path>
<path d="M681 40h0"></path>
<rect x="559" y="29" width="122" height="22" rx="10" ry="10"></rect>
<text x="620" y="44">"INDEX INTO"</text>
</g>
<path d="M681 40h10"></path>
<path d="M691 40h10"></path>
<g class="non-terminal">
<path d="M701 40h0"></path>
<path d="M814.5 40h0"></path>
<rect x="701" y="29" width="113.5" height="22"></rect>
<a xlink:href="#/expression/TargetField"><text x="757.75" y="44">TargetField</text>
</a>
</g>
</g>
<path d="M814.5 40h20"></path>
</g>
</g>
<path d="M834.5 40h10"></path>
<path d="M 844.5 40 h 20 m 0 -10 v 20"></path>
</g>
</svg>
