<?xml version="1.0" encoding="UTF-8" standalone="no"?>
<!DOCTYPE svg PUBLIC "-//W3C//DTD SVG 1.1//EN"
 "http://www.w3.org/Graphics/SVG/1.1/DTD/svg11.dtd">
<!-- Generated by graphviz version 2.47.3 (20210619.1520)
 -->
<!-- Title: G Pages: 1 -->
<svg width="2242pt" height="645pt"
 viewBox="0.00 0.00 2242.32 644.80" xmlns="http://www.w3.org/2000/svg" xmlns:xlink="http://www.w3.org/1999/xlink">
<g id="graph0" class="graph" transform="scale(1 1) rotate(0) translate(4 640.8)">
<title>G</title>
<polygon fill="white" stroke="transparent" points="-4,4 -4,-640.8 2238.32,-640.8 2238.32,4 -4,4"/>
<text text-anchor="middle" x="127.56" y="-620.2" font-family="Times,serif" font-size="14.00">Where used, expression/SimpleFieldChain</text>
<!-- expression/SimpleFieldChain -->
<g id="node1" class="node">
<title>expression/SimpleFieldChain</title>
<g id="a_node1"><a xlink:href="https://syntax.abaplint.org/#/expression/SimpleFieldChain" xlink:title="expression/SimpleFieldChain">
<polygon fill="none" stroke="black" points="867.39,-396 686.09,-396 686.09,-360 867.39,-360 867.39,-396"/>
<text text-anchor="middle" x="776.74" y="-373.8" font-family="Times,serif" font-size="14.00">expression/SimpleFieldChain</text>
</a>
</g>
</g>
<!-- expression/ConstantFieldLength -->
<g id="node2" class="node">
<title>expression/ConstantFieldLength</title>
<g id="a_node2"><a xlink:href="https://syntax.abaplint.org/#/expression/ConstantFieldLength" xlink:title="expression/ConstantFieldLength">
<polygon fill="none" stroke="black" points="583.72,-468 385.77,-468 385.77,-432 583.72,-432 583.72,-468"/>
<text text-anchor="middle" x="484.74" y="-445.8" font-family="Times,serif" font-size="14.00">expression/ConstantFieldLength</text>
</a>
</g>
</g>
<!-- expression/ConstantFieldLength&#45;&gt;expression/SimpleFieldChain -->
<g id="edge1" class="edge">
<title>expression/ConstantFieldLength&#45;&gt;expression/SimpleFieldChain</title>
<path fill="none" stroke="black" d="M555.8,-431.97C598.1,-421.83 651.91,-408.93 695.83,-398.4"/>
<polygon fill="black" stroke="black" points="696.71,-401.78 705.62,-396.05 695.08,-394.98 696.71,-401.78"/>
</g>
<!-- expression/DataDefinition -->
<g id="node3" class="node">
<title>expression/DataDefinition</title>
<g id="a_node3"><a xlink:href="https://syntax.abaplint.org/#/expression/DataDefinition" xlink:title="expression/DataDefinition">
<polygon fill="none" stroke="black" points="611.48,-540 448.01,-540 448.01,-504 611.48,-504 611.48,-540"/>
<text text-anchor="middle" x="529.74" y="-517.8" font-family="Times,serif" font-size="14.00">expression/DataDefinition</text>
</a>
</g>
</g>
<!-- expression/DataDefinition&#45;&gt;expression/ConstantFieldLength -->
<g id="edge2" class="edge">
<title>expression/DataDefinition&#45;&gt;expression/ConstantFieldLength</title>
<path fill="none" stroke="black" d="M518.62,-503.7C513.39,-495.56 507.04,-485.69 501.27,-476.7"/>
<polygon fill="black" stroke="black" points="504.09,-474.62 495.74,-468.1 498.2,-478.41 504.09,-474.62"/>
</g>
<!-- expression/Length -->
<g id="node9" class="node">
<title>expression/Length</title>
<g id="a_node9"><a xlink:href="https://syntax.abaplint.org/#/expression/Length" xlink:title="expression/Length">
<polygon fill="none" stroke="black" points="1089.66,-468 969.83,-468 969.83,-432 1089.66,-432 1089.66,-468"/>
<text text-anchor="middle" x="1029.74" y="-445.8" font-family="Times,serif" font-size="14.00">expression/Length</text>
</a>
</g>
</g>
<!-- expression/DataDefinition&#45;&gt;expression/Length -->
<g id="edge9" class="edge">
<title>expression/DataDefinition&#45;&gt;expression/Length</title>
<path fill="none" stroke="black" d="M611.55,-505.4C614.65,-504.91 617.72,-504.44 620.74,-504 767.87,-482.5 809.3,-493.73 959.93,-467.99"/>
<polygon fill="black" stroke="black" points="960.76,-471.4 970.01,-466.24 959.56,-464.51 960.76,-471.4"/>
</g>
<!-- expression/Value -->
<g id="node26" class="node">
<title>expression/Value</title>
<g id="a_node26"><a xlink:href="https://syntax.abaplint.org/#/expression/Value" xlink:title="expression/Value">
<polygon fill="none" stroke="black" points="367.43,-468 254.06,-468 254.06,-432 367.43,-432 367.43,-468"/>
<text text-anchor="middle" x="310.74" y="-445.8" font-family="Times,serif" font-size="14.00">expression/Value</text>
</a>
</g>
</g>
<!-- expression/DataDefinition&#45;&gt;expression/Value -->
<g id="edge38" class="edge">
<title>expression/DataDefinition&#45;&gt;expression/Value</title>
<path fill="none" stroke="black" d="M476.45,-503.97C445.59,-494.1 406.55,-481.62 374.11,-471.25"/>
<polygon fill="black" stroke="black" points="374.87,-467.82 364.28,-468.11 372.74,-474.49 374.87,-467.82"/>
</g>
<!-- statement/Data -->
<g id="node4" class="node">
<title>statement/Data</title>
<g id="a_node4"><a xlink:href="https://syntax.abaplint.org/#/statement/Data" xlink:title="statement/Data">
<polygon fill="none" stroke="black" points="722.21,-599.56 636.74,-612 551.28,-599.56 551.35,-579.44 722.13,-579.44 722.21,-599.56"/>
<text text-anchor="middle" x="636.74" y="-589.8" font-family="Times,serif" font-size="14.00">statement/Data</text>
</a>
</g>
</g>
<!-- statement/Data&#45;&gt;expression/DataDefinition -->
<g id="edge3" class="edge">
<title>statement/Data&#45;&gt;expression/DataDefinition</title>
<path fill="none" stroke="black" d="M615.86,-579.34C601.25,-569.78 581.41,-556.8 564.45,-545.7"/>
<polygon fill="black" stroke="black" points="566.17,-542.65 555.88,-540.1 562.33,-548.5 566.17,-542.65"/>
</g>
<!-- statement/ClassData -->
<g id="node5" class="node">
<title>statement/ClassData</title>
<g id="a_node5"><a xlink:href="https://syntax.abaplint.org/#/statement/ClassData" xlink:title="statement/ClassData">
<polygon fill="none" stroke="black" points="533.93,-599.56 422.74,-612 311.55,-599.56 311.66,-579.44 533.83,-579.44 533.93,-599.56"/>
<text text-anchor="middle" x="422.74" y="-589.8" font-family="Times,serif" font-size="14.00">statement/ClassData</text>
</a>
</g>
</g>
<!-- statement/ClassData&#45;&gt;expression/DataDefinition -->
<g id="edge4" class="edge">
<title>statement/ClassData&#45;&gt;expression/DataDefinition</title>
<path fill="none" stroke="black" d="M443.63,-579.34C458.23,-569.78 478.08,-556.8 495.04,-545.7"/>
<polygon fill="black" stroke="black" points="497.15,-548.5 503.61,-540.1 493.32,-542.65 497.15,-548.5"/>
</g>
<!-- statement/Constant -->
<g id="node6" class="node">
<title>statement/Constant</title>
<g id="a_node6"><a xlink:href="https://syntax.abaplint.org/#/statement/Constant" xlink:title="statement/Constant">
<polygon fill="none" stroke="black" points="840.03,-527.56 734.74,-540 629.46,-527.56 629.56,-507.44 839.93,-507.44 840.03,-527.56"/>
<text text-anchor="middle" x="734.74" y="-517.8" font-family="Times,serif" font-size="14.00">statement/Constant</text>
</a>
</g>
</g>
<!-- statement/Constant&#45;&gt;expression/ConstantFieldLength -->
<g id="edge5" class="edge">
<title>statement/Constant&#45;&gt;expression/ConstantFieldLength</title>
<path fill="none" stroke="black" d="M686.25,-507.42C649.04,-497 597.15,-482.47 555.35,-470.77"/>
<polygon fill="black" stroke="black" points="556.07,-467.34 545.5,-468.01 554.18,-474.08 556.07,-467.34"/>
</g>
<!-- statement/Constant&#45;&gt;expression/Length -->
<g id="edge10" class="edge">
<title>statement/Constant&#45;&gt;expression/Length</title>
<path fill="none" stroke="black" d="M793.79,-507.34C837.1,-497.28 897.6,-483.14 959.9,-468.19"/>
<polygon fill="black" stroke="black" points="961.01,-471.52 969.92,-465.78 959.37,-464.72 961.01,-471.52"/>
</g>
<!-- statement/Constant&#45;&gt;expression/Value -->
<g id="edge40" class="edge">
<title>statement/Constant&#45;&gt;expression/Value</title>
<path fill="none" stroke="black" d="M643.59,-507.39C635.86,-506.24 628.17,-505.1 620.74,-504 515.49,-488.39 485.91,-489.61 377.57,-468.05"/>
<polygon fill="black" stroke="black" points="378.03,-464.57 367.54,-466.03 376.65,-471.44 378.03,-464.57"/>
</g>
<!-- statement/Type -->
<g id="node7" class="node">
<title>statement/Type</title>
<g id="a_node7"><a xlink:href="https://syntax.abaplint.org/#/statement/Type" xlink:title="statement/Type">
<polygon fill="none" stroke="black" points="1089.21,-527.56 1001.74,-540 914.28,-527.56 914.37,-507.44 1089.12,-507.44 1089.21,-527.56"/>
<text text-anchor="middle" x="1001.74" y="-517.8" font-family="Times,serif" font-size="14.00">statement/Type</text>
</a>
</g>
</g>
<!-- statement/Type&#45;&gt;expression/ConstantFieldLength -->
<g id="edge6" class="edge">
<title>statement/Type&#45;&gt;expression/ConstantFieldLength</title>
<path fill="none" stroke="black" d="M914.29,-510.37C833.76,-500.42 710.7,-484.8 594.07,-468.17"/>
<polygon fill="black" stroke="black" points="594.29,-464.67 583.89,-466.71 593.3,-471.6 594.29,-464.67"/>
</g>
<!-- statement/Type&#45;&gt;expression/Length -->
<g id="edge11" class="edge">
<title>statement/Type&#45;&gt;expression/Length</title>
<path fill="none" stroke="black" d="M1007.28,-507.17C1010.68,-498.66 1015.16,-487.46 1019.22,-477.31"/>
<polygon fill="black" stroke="black" points="1022.47,-478.6 1022.94,-468.02 1015.97,-476 1022.47,-478.6"/>
</g>
<!-- statement/Static -->
<g id="node8" class="node">
<title>statement/Static</title>
<g id="a_node8"><a xlink:href="https://syntax.abaplint.org/#/statement/Static" xlink:title="statement/Static">
<polygon fill="none" stroke="black" points="429.52,-527.56 339.74,-540 249.97,-527.56 250.05,-507.44 429.43,-507.44 429.52,-527.56"/>
<text text-anchor="middle" x="339.74" y="-517.8" font-family="Times,serif" font-size="14.00">statement/Static</text>
</a>
</g>
</g>
<!-- statement/Static&#45;&gt;expression/ConstantFieldLength -->
<g id="edge7" class="edge">
<title>statement/Static&#45;&gt;expression/ConstantFieldLength</title>
<path fill="none" stroke="black" d="M368.05,-507.34C388.56,-497.43 416.72,-483.84 440.23,-472.49"/>
<polygon fill="black" stroke="black" points="441.84,-475.6 449.32,-468.1 438.8,-469.3 441.84,-475.6"/>
</g>
<!-- statement/Static&#45;&gt;expression/Length -->
<g id="edge12" class="edge">
<title>statement/Static&#45;&gt;expression/Length</title>
<path fill="none" stroke="black" d="M413.96,-507.42C422.3,-506.14 430.69,-504.97 438.74,-504 666.37,-476.68 729.22,-503.18 959.98,-467.94"/>
<polygon fill="black" stroke="black" points="960.69,-471.37 970.03,-466.38 959.62,-464.45 960.69,-471.37"/>
</g>
<!-- statement/Static&#45;&gt;expression/Value -->
<g id="edge41" class="edge">
<title>statement/Static&#45;&gt;expression/Value</title>
<path fill="none" stroke="black" d="M334.01,-507.17C330.49,-498.66 325.85,-487.46 321.64,-477.31"/>
<polygon fill="black" stroke="black" points="324.86,-475.92 317.8,-468.02 318.39,-478.6 324.86,-475.92"/>
</g>
<!-- expression/Length&#45;&gt;expression/SimpleFieldChain -->
<g id="edge8" class="edge">
<title>expression/Length&#45;&gt;expression/SimpleFieldChain</title>
<path fill="none" stroke="black" d="M969.79,-432.41C933.44,-422.35 886.84,-409.46 848.53,-398.86"/>
<polygon fill="black" stroke="black" points="849.04,-395.37 838.47,-396.08 847.18,-402.12 849.04,-395.37"/>
</g>
<!-- expression/SQLFieldList -->
<g id="node10" class="node">
<title>expression/SQLFieldList</title>
<g id="a_node10"><a xlink:href="https://syntax.abaplint.org/#/expression/SQLFieldList" xlink:title="expression/SQLFieldList">
<polygon fill="none" stroke="black" points="1264,-468 1107.49,-468 1107.49,-432 1264,-432 1264,-468"/>
<text text-anchor="middle" x="1185.74" y="-445.8" font-family="Times,serif" font-size="14.00">expression/SQLFieldList</text>
</a>
</g>
</g>
<!-- expression/SQLFieldList&#45;&gt;expression/SimpleFieldChain -->
<g id="edge13" class="edge">
<title>expression/SQLFieldList&#45;&gt;expression/SimpleFieldChain</title>
<path fill="none" stroke="black" d="M1107.04,-433.51C1104.24,-433 1101.47,-432.49 1098.74,-432 1024.78,-418.69 941.01,-404.94 877.45,-394.79"/>
<polygon fill="black" stroke="black" points="877.86,-391.31 867.43,-393.19 876.76,-398.22 877.86,-391.31"/>
</g>
<!-- expression/SQLCase -->
<g id="node18" class="node">
<title>expression/SQLCase</title>
<g id="a_node18"><a xlink:href="https://syntax.abaplint.org/#/expression/SQLCase" xlink:title="expression/SQLCase">
<polygon fill="none" stroke="black" points="1252.66,-396 1118.83,-396 1118.83,-360 1252.66,-360 1252.66,-396"/>
<text text-anchor="middle" x="1185.74" y="-373.8" font-family="Times,serif" font-size="14.00">expression/SQLCase</text>
</a>
</g>
</g>
<!-- expression/SQLFieldList&#45;&gt;expression/SQLCase -->
<g id="edge25" class="edge">
<title>expression/SQLFieldList&#45;&gt;expression/SQLCase</title>
<path fill="none" stroke="black" d="M1185.74,-431.7C1185.74,-423.98 1185.74,-414.71 1185.74,-406.11"/>
<polygon fill="black" stroke="black" points="1189.24,-406.1 1185.74,-396.1 1182.24,-406.1 1189.24,-406.1"/>
</g>
<!-- expression/SelectLoop -->
<g id="node11" class="node">
<title>expression/SelectLoop</title>
<g id="a_node11"><a xlink:href="https://syntax.abaplint.org/#/expression/SelectLoop" xlink:title="expression/SelectLoop">
<polygon fill="none" stroke="black" points="1944.27,-540 1801.22,-540 1801.22,-504 1944.27,-504 1944.27,-540"/>
<text text-anchor="middle" x="1872.74" y="-517.8" font-family="Times,serif" font-size="14.00">expression/SelectLoop</text>
</a>
</g>
</g>
<!-- expression/SelectLoop&#45;&gt;expression/SQLFieldList -->
<g id="edge14" class="edge">
<title>expression/SelectLoop&#45;&gt;expression/SQLFieldList</title>
<path fill="none" stroke="black" d="M1801.17,-513.71C1674.68,-500.82 1412.04,-474.06 1274.35,-460.03"/>
<polygon fill="black" stroke="black" points="1274.55,-456.53 1264.25,-459 1273.84,-463.49 1274.55,-456.53"/>
</g>
<!-- expression/SQLCond -->
<g id="node17" class="node">
<title>expression/SQLCond</title>
<g id="a_node17"><a xlink:href="https://syntax.abaplint.org/#/expression/SQLCond" xlink:title="expression/SQLCond">
<polygon fill="none" stroke="black" points="1341.78,-324 1205.7,-324 1205.7,-288 1341.78,-288 1341.78,-324"/>
<text text-anchor="middle" x="1273.74" y="-301.8" font-family="Times,serif" font-size="14.00">expression/SQLCond</text>
</a>
</g>
</g>
<!-- expression/SelectLoop&#45;&gt;expression/SQLCond -->
<g id="edge21" class="edge">
<title>expression/SelectLoop&#45;&gt;expression/SQLCond</title>
<path fill="none" stroke="black" d="M1876.82,-503.95C1883.6,-470.91 1892.86,-398.1 1853.74,-360 1818.52,-325.69 1501.92,-312.92 1351.91,-308.77"/>
<polygon fill="black" stroke="black" points="1351.93,-305.26 1341.84,-308.49 1351.74,-312.26 1351.93,-305.26"/>
</g>
<!-- expression/SelectLoop&#45;&gt;expression/SQLCase -->
<g id="edge24" class="edge">
<title>expression/SelectLoop&#45;&gt;expression/SQLCase</title>
<path fill="none" stroke="black" d="M1801.03,-506.87C1688.47,-484.58 1463.21,-439.5 1262.62,-396.39"/>
<polygon fill="black" stroke="black" points="1263.3,-392.95 1252.79,-394.27 1261.83,-399.8 1263.3,-392.95"/>
</g>
<!-- expression/SQLFrom -->
<g id="node20" class="node">
<title>expression/SQLFrom</title>
<g id="a_node20"><a xlink:href="https://syntax.abaplint.org/#/expression/SQLFrom" xlink:title="expression/SQLFrom">
<polygon fill="none" stroke="black" points="1530.78,-108 1394.71,-108 1394.71,-72 1530.78,-72 1530.78,-108"/>
<text text-anchor="middle" x="1462.74" y="-85.8" font-family="Times,serif" font-size="14.00">expression/SQLFrom</text>
</a>
</g>
</g>
<!-- expression/SelectLoop&#45;&gt;expression/SQLFrom -->
<g id="edge29" class="edge">
<title>expression/SelectLoop&#45;&gt;expression/SQLFrom</title>
<path fill="none" stroke="black" d="M1944.45,-512C2019.88,-498.06 2127.74,-463.37 2127.74,-379 2127.74,-379 2127.74,-379 2127.74,-233 2127.74,-114.21 1716.81,-94.43 1541.01,-91.41"/>
<polygon fill="black" stroke="black" points="1540.84,-87.9 1530.79,-91.25 1540.73,-94.9 1540.84,-87.9"/>
</g>
<!-- statement/SelectLoop -->
<g id="node12" class="node">
<title>statement/SelectLoop</title>
<g id="a_node12"><a xlink:href="https://syntax.abaplint.org/#/statement/SelectLoop" xlink:title="statement/SelectLoop">
<polygon fill="none" stroke="black" points="2007.88,-599.56 1890.74,-612 1773.61,-599.56 1773.72,-579.44 2007.77,-579.44 2007.88,-599.56"/>
<text text-anchor="middle" x="1890.74" y="-589.8" font-family="Times,serif" font-size="14.00">statement/SelectLoop</text>
</a>
</g>
</g>
<!-- statement/SelectLoop&#45;&gt;expression/SelectLoop -->
<g id="edge15" class="edge">
<title>statement/SelectLoop&#45;&gt;expression/SelectLoop</title>
<path fill="none" stroke="black" d="M1887.19,-579.17C1885.04,-570.83 1882.24,-559.92 1879.67,-549.94"/>
<polygon fill="black" stroke="black" points="1883,-548.83 1877.12,-540.02 1876.22,-550.58 1883,-548.83"/>
</g>
<!-- statement/WithLoop -->
<g id="node13" class="node">
<title>statement/WithLoop</title>
<g id="a_node13"><a xlink:href="https://syntax.abaplint.org/#/statement/WithLoop" xlink:title="statement/WithLoop">
<polygon fill="none" stroke="black" points="1755.28,-599.56 1643.74,-612 1532.21,-599.56 1532.31,-579.44 1755.18,-579.44 1755.28,-599.56"/>
<text text-anchor="middle" x="1643.74" y="-589.8" font-family="Times,serif" font-size="14.00">statement/WithLoop</text>
</a>
</g>
</g>
<!-- statement/WithLoop&#45;&gt;expression/SelectLoop -->
<g id="edge16" class="edge">
<title>statement/WithLoop&#45;&gt;expression/SelectLoop</title>
<path fill="none" stroke="black" d="M1688.17,-579.42C1721.96,-569.09 1768.98,-554.72 1807.1,-543.07"/>
<polygon fill="black" stroke="black" points="1808.55,-546.28 1817.09,-540.01 1806.51,-539.59 1808.55,-546.28"/>
</g>
<!-- statement/With -->
<g id="node14" class="node">
<title>statement/With</title>
<g id="a_node14"><a xlink:href="https://syntax.abaplint.org/#/statement/With" xlink:title="statement/With">
<polygon fill="none" stroke="black" points="2234.39,-599.56 2147.74,-612 2061.1,-599.56 2061.18,-579.44 2234.31,-579.44 2234.39,-599.56"/>
<text text-anchor="middle" x="2147.74" y="-589.8" font-family="Times,serif" font-size="14.00">statement/With</text>
</a>
</g>
</g>
<!-- statement/With&#45;&gt;expression/SelectLoop -->
<g id="edge17" class="edge">
<title>statement/With&#45;&gt;expression/SelectLoop</title>
<path fill="none" stroke="black" d="M2094.4,-579.42C2053.21,-568.94 1995.67,-554.29 1949.53,-542.55"/>
<polygon fill="black" stroke="black" points="1950.13,-539.09 1939.57,-540.01 1948.4,-545.87 1950.13,-539.09"/>
</g>
<!-- expression/Select -->
<g id="node15" class="node">
<title>expression/Select</title>
<g id="a_node15"><a xlink:href="https://syntax.abaplint.org/#/expression/Select" xlink:title="expression/Select">
<polygon fill="none" stroke="black" points="1519.71,-180 1405.78,-180 1405.78,-144 1519.71,-144 1519.71,-180"/>
<text text-anchor="middle" x="1462.74" y="-157.8" font-family="Times,serif" font-size="14.00">expression/Select</text>
</a>
</g>
</g>
<!-- statement/With&#45;&gt;expression/Select -->
<g id="edge34" class="edge">
<title>statement/With&#45;&gt;expression/Select</title>
<path fill="none" stroke="black" d="M2150.64,-579.36C2155.72,-554.15 2165.74,-498.46 2165.74,-451 2165.74,-451 2165.74,-451 2165.74,-305 2165.74,-258.03 2149,-240.21 2108.74,-216 2060.02,-186.69 1685.59,-170.63 1530.1,-165.16"/>
<polygon fill="black" stroke="black" points="1529.85,-161.65 1519.74,-164.8 1529.61,-168.65 1529.85,-161.65"/>
</g>
<!-- expression/Select&#45;&gt;expression/SQLFieldList -->
<g id="edge18" class="edge">
<title>expression/Select&#45;&gt;expression/SQLFieldList</title>
<path fill="none" stroke="black" d="M1405.64,-167.27C1332.19,-173.79 1209.87,-188.49 1174.74,-216 1125.29,-254.73 1077.23,-333.68 1109.74,-396 1116.21,-408.39 1127.05,-418.48 1138.54,-426.4"/>
<polygon fill="black" stroke="black" points="1136.66,-429.35 1146.97,-431.78 1140.42,-423.45 1136.66,-429.35"/>
</g>
<!-- expression/Select&#45;&gt;expression/SQLCond -->
<g id="edge22" class="edge">
<title>expression/Select&#45;&gt;expression/SQLCond</title>
<path fill="none" stroke="black" d="M1405.61,-165.62C1332.8,-170.3 1213.08,-182.93 1185.74,-216 1175.55,-228.33 1177.87,-238.07 1185.74,-252 1193.09,-264.99 1205.03,-275.16 1217.79,-282.95"/>
<polygon fill="black" stroke="black" points="1216.27,-286.11 1226.7,-287.97 1219.71,-280.01 1216.27,-286.11"/>
</g>
<!-- expression/Select&#45;&gt;expression/SQLFrom -->
<g id="edge30" class="edge">
<title>expression/Select&#45;&gt;expression/SQLFrom</title>
<path fill="none" stroke="black" d="M1462.74,-143.7C1462.74,-135.98 1462.74,-126.71 1462.74,-118.11"/>
<polygon fill="black" stroke="black" points="1466.24,-118.1 1462.74,-108.1 1459.24,-118.1 1466.24,-118.1"/>
</g>
<!-- expression/SQLCompare -->
<g id="node16" class="node">
<title>expression/SQLCompare</title>
<g id="a_node16"><a xlink:href="https://syntax.abaplint.org/#/expression/SQLCompare" xlink:title="expression/SQLCompare">
<polygon fill="none" stroke="black" points="1352.26,-252 1195.22,-252 1195.22,-216 1352.26,-216 1352.26,-252"/>
<text text-anchor="middle" x="1273.74" y="-229.8" font-family="Times,serif" font-size="14.00">expression/SQLCompare</text>
</a>
</g>
</g>
<!-- expression/SQLCompare&#45;&gt;expression/Select -->
<g id="edge19" class="edge">
<title>expression/SQLCompare&#45;&gt;expression/Select</title>
<path fill="none" stroke="black" d="M1319.98,-215.88C1346.28,-206.14 1379.39,-193.87 1407.1,-183.61"/>
<polygon fill="black" stroke="black" points="1408.5,-186.82 1416.66,-180.07 1406.07,-180.26 1408.5,-186.82"/>
</g>
<!-- expression/SQLCond&#45;&gt;expression/SQLCompare -->
<g id="edge20" class="edge">
<title>expression/SQLCond&#45;&gt;expression/SQLCompare</title>
<path fill="none" stroke="black" d="M1273.74,-287.7C1273.74,-279.98 1273.74,-270.71 1273.74,-262.11"/>
<polygon fill="black" stroke="black" points="1277.24,-262.1 1273.74,-252.1 1270.24,-262.1 1277.24,-262.1"/>
</g>
<!-- expression/SQLCond&#45;&gt;expression/SQLCond -->
<g id="edge26" class="edge">
<title>expression/SQLCond&#45;&gt;expression/SQLCond</title>
<path fill="none" stroke="black" d="M1342.09,-318.37C1352.75,-316.52 1360.01,-312.4 1360.01,-306 1360.01,-301.8 1356.88,-298.58 1351.72,-296.34"/>
<polygon fill="black" stroke="black" points="1352.66,-292.97 1342.09,-293.63 1350.76,-299.71 1352.66,-292.97"/>
</g>
<!-- expression/SQLCase&#45;&gt;expression/SQLCond -->
<g id="edge23" class="edge">
<title>expression/SQLCase&#45;&gt;expression/SQLCond</title>
<path fill="none" stroke="black" d="M1207.5,-359.7C1218.58,-350.88 1232.22,-340.03 1244.23,-330.47"/>
<polygon fill="black" stroke="black" points="1246.59,-333.07 1252.24,-324.1 1242.24,-327.59 1246.59,-333.07"/>
</g>
<!-- expression/SQLJoin -->
<g id="node19" class="node">
<title>expression/SQLJoin</title>
<g id="a_node19"><a xlink:href="https://syntax.abaplint.org/#/expression/SQLJoin" xlink:title="expression/SQLJoin">
<polygon fill="none" stroke="black" points="1360.28,-36 1231.21,-36 1231.21,0 1360.28,0 1360.28,-36"/>
<text text-anchor="middle" x="1295.74" y="-13.8" font-family="Times,serif" font-size="14.00">expression/SQLJoin</text>
</a>
</g>
</g>
<!-- expression/SQLJoin&#45;&gt;expression/SQLCond -->
<g id="edge27" class="edge">
<title>expression/SQLJoin&#45;&gt;expression/SQLCond</title>
<path fill="none" stroke="black" d="M1280.55,-36.13C1252.99,-68.49 1195.65,-142.03 1174.74,-216 1170.39,-231.4 1166.52,-238.27 1174.74,-252 1182.76,-265.38 1195.43,-275.57 1209.06,-283.26"/>
<polygon fill="black" stroke="black" points="1207.63,-286.46 1218.12,-287.96 1210.85,-280.25 1207.63,-286.46"/>
</g>
<!-- expression/SQLFrom&#45;&gt;expression/SQLJoin -->
<g id="edge28" class="edge">
<title>expression/SQLFrom&#45;&gt;expression/SQLJoin</title>
<path fill="none" stroke="black" d="M1421.89,-71.88C1398.96,-62.26 1370.16,-50.19 1345.87,-40.01"/>
<polygon fill="black" stroke="black" points="1347.04,-36.71 1336.46,-36.07 1344.33,-43.16 1347.04,-36.71"/>
</g>
<!-- statement/DeleteDatabase -->
<g id="node21" class="node">
<title>statement/DeleteDatabase</title>
<g id="a_node21"><a xlink:href="https://syntax.abaplint.org/#/statement/DeleteDatabase" xlink:title="statement/DeleteDatabase">
<polygon fill="none" stroke="black" points="1545.42,-383.56 1407.74,-396 1270.07,-383.56 1270.19,-363.44 1545.29,-363.44 1545.42,-383.56"/>
<text text-anchor="middle" x="1407.74" y="-373.8" font-family="Times,serif" font-size="14.00">statement/DeleteDatabase</text>
</a>
</g>
</g>
<!-- statement/DeleteDatabase&#45;&gt;expression/SQLCond -->
<g id="edge31" class="edge">
<title>statement/DeleteDatabase&#45;&gt;expression/SQLCond</title>
<path fill="none" stroke="black" d="M1381.59,-363.34C1362.8,-353.52 1337.07,-340.08 1315.46,-328.79"/>
<polygon fill="black" stroke="black" points="1316.96,-325.63 1306.48,-324.1 1313.72,-331.83 1316.96,-325.63"/>
</g>
<!-- statement/UpdateDatabase -->
<g id="node22" class="node">
<title>statement/UpdateDatabase</title>
<g id="a_node22"><a xlink:href="https://syntax.abaplint.org/#/statement/UpdateDatabase" xlink:title="statement/UpdateDatabase">
<polygon fill="none" stroke="black" points="1844.57,-383.56 1703.74,-396 1562.92,-383.56 1563.06,-363.44 1844.43,-363.44 1844.57,-383.56"/>
<text text-anchor="middle" x="1703.74" y="-373.8" font-family="Times,serif" font-size="14.00">statement/UpdateDatabase</text>
</a>
</g>
</g>
<!-- statement/UpdateDatabase&#45;&gt;expression/SQLCond -->
<g id="edge32" class="edge">
<title>statement/UpdateDatabase&#45;&gt;expression/SQLCond</title>
<path fill="none" stroke="black" d="M1620.33,-363.42C1542.73,-350.79 1427.97,-332.11 1352.05,-319.75"/>
<polygon fill="black" stroke="black" points="1352.5,-316.27 1342.07,-318.12 1351.38,-323.18 1352.5,-316.27"/>
</g>
<!-- statement/Select -->
<g id="node23" class="node">
<title>statement/Select</title>
<g id="a_node23"><a xlink:href="https://syntax.abaplint.org/#/statement/Select" xlink:title="statement/Select">
<polygon fill="none" stroke="black" points="1554.48,-239.56 1462.74,-252 1371.01,-239.56 1371.09,-219.44 1554.4,-219.44 1554.48,-239.56"/>
<text text-anchor="middle" x="1462.74" y="-229.8" font-family="Times,serif" font-size="14.00">statement/Select</text>
</a>
</g>
</g>
<!-- statement/Select&#45;&gt;expression/Select -->
<g id="edge33" class="edge">
<title>statement/Select&#45;&gt;expression/Select</title>
<path fill="none" stroke="black" d="M1462.74,-219.17C1462.74,-210.92 1462.74,-200.15 1462.74,-190.26"/>
<polygon fill="black" stroke="black" points="1466.24,-190.02 1462.74,-180.02 1459.24,-190.02 1466.24,-190.02"/>
</g>
<!-- statement/InsertDatabase -->
<g id="node24" class="node">
<title>statement/InsertDatabase</title>
<g id="a_node24"><a xlink:href="https://syntax.abaplint.org/#/statement/InsertDatabase" xlink:title="statement/InsertDatabase">
<polygon fill="none" stroke="black" points="1839.48,-239.56 1705.74,-252 1572.01,-239.56 1572.14,-219.44 1839.35,-219.44 1839.48,-239.56"/>
<text text-anchor="middle" x="1705.74" y="-229.8" font-family="Times,serif" font-size="14.00">statement/InsertDatabase</text>
</a>
</g>
</g>
<!-- statement/InsertDatabase&#45;&gt;expression/Select -->
<g id="edge35" class="edge">
<title>statement/InsertDatabase&#45;&gt;expression/Select</title>
<path fill="none" stroke="black" d="M1658.6,-219.42C1621.93,-208.86 1570.58,-194.06 1529.65,-182.27"/>
<polygon fill="black" stroke="black" points="1530.6,-178.91 1520.02,-179.5 1528.66,-185.63 1530.6,-178.91"/>
</g>
<!-- statement/OpenCursor -->
<g id="node25" class="node">
<title>statement/OpenCursor</title>
<g id="a_node25"><a xlink:href="https://syntax.abaplint.org/#/statement/OpenCursor" xlink:title="statement/OpenCursor">
<polygon fill="none" stroke="black" points="2099.83,-239.56 1978.74,-252 1857.66,-239.56 1857.77,-219.44 2099.71,-219.44 2099.83,-239.56"/>
<text text-anchor="middle" x="1978.74" y="-229.8" font-family="Times,serif" font-size="14.00">statement/OpenCursor</text>
</a>
</g>
</g>
<!-- statement/OpenCursor&#45;&gt;expression/Select -->
<g id="edge36" class="edge">
<title>statement/OpenCursor&#45;&gt;expression/Select</title>
<path fill="none" stroke="black" d="M1878.64,-219.42C1775.78,-205.47 1618.51,-184.13 1529.76,-172.09"/>
<polygon fill="black" stroke="black" points="1530.19,-168.62 1519.81,-170.74 1529.25,-175.55 1530.19,-168.62"/>
</g>
<!-- expression/Value&#45;&gt;expression/SimpleFieldChain -->
<g id="edge37" class="edge">
<title>expression/Value&#45;&gt;expression/SimpleFieldChain</title>
<path fill="none" stroke="black" d="M367.53,-433.91C370.64,-433.23 373.72,-432.59 376.74,-432 477.8,-412.36 594.66,-397.81 675.87,-388.97"/>
<polygon fill="black" stroke="black" points="676.52,-392.42 686.09,-387.86 675.77,-385.46 676.52,-392.42"/>
</g>
<!-- statement/TypeEnum -->
<g id="node27" class="node">
<title>statement/TypeEnum</title>
<g id="a_node27"><a xlink:href="https://syntax.abaplint.org/#/statement/TypeEnum" xlink:title="statement/TypeEnum">
<polygon fill="none" stroke="black" points="231.73,-527.56 115.74,-540 -0.24,-527.56 -0.14,-507.44 231.63,-507.44 231.73,-527.56"/>
<text text-anchor="middle" x="115.74" y="-517.8" font-family="Times,serif" font-size="14.00">statement/TypeEnum</text>
</a>
</g>
</g>
<!-- statement/TypeEnum&#45;&gt;expression/Value -->
<g id="edge39" class="edge">
<title>statement/TypeEnum&#45;&gt;expression/Value</title>
<path fill="none" stroke="black" d="M153.81,-507.34C182.13,-497.17 221.28,-483.12 253.39,-471.59"/>
<polygon fill="black" stroke="black" points="254.88,-474.77 263.11,-468.1 252.52,-468.18 254.88,-474.77"/>
</g>
<!-- statement/MethodImplementation -->
<g id="node28" class="node">
<title>statement/MethodImplementation</title>
<g id="a_node28"><a xlink:href="https://syntax.abaplint.org/#/statement/MethodImplementation" xlink:title="statement/MethodImplementation">
<polygon fill="none" stroke="black" points="952.08,-455.56 776.74,-468 601.41,-455.56 601.57,-435.44 951.91,-435.44 952.08,-455.56"/>
<text text-anchor="middle" x="776.74" y="-445.8" font-family="Times,serif" font-size="14.00">statement/MethodImplementation</text>
</a>
</g>
</g>
<!-- statement/MethodImplementation&#45;&gt;expression/SimpleFieldChain -->
<g id="edge42" class="edge">
<title>statement/MethodImplementation&#45;&gt;expression/SimpleFieldChain</title>
<path fill="none" stroke="black" d="M776.74,-435.17C776.74,-426.92 776.74,-416.15 776.74,-406.26"/>
<polygon fill="black" stroke="black" points="780.24,-406.02 776.74,-396.02 773.24,-406.02 780.24,-406.02"/>
</g>
</g>
</svg>
