<?xml version="1.0" encoding="UTF-8" standalone="no"?>
<!DOCTYPE svg PUBLIC "-//W3C//DTD SVG 1.1//EN"
 "http://www.w3.org/Graphics/SVG/1.1/DTD/svg11.dtd">
<!-- Generated by graphviz version 2.47.3 (20210619.1520)
 -->
<!-- Title: G Pages: 1 -->
<svg width="1624pt" height="645pt"
 viewBox="0.00 0.00 1623.59 644.80" xmlns="http://www.w3.org/2000/svg" xmlns:xlink="http://www.w3.org/1999/xlink">
<g id="graph0" class="graph" transform="scale(1 1) rotate(0) translate(4 640.8)">
<title>G</title>
<polygon fill="white" stroke="transparent" points="-4,4 -4,-640.8 1619.59,-640.8 1619.59,4 -4,4"/>
<text text-anchor="middle" x="115.11" y="-620.2" font-family="Times,serif" font-size="14.00">Where used, expression/SQLFieldList</text>
<!-- expression/SQLFieldList -->
<g id="node1" class="node">
<title>expression/SQLFieldList</title>
<g id="a_node1"><a xlink:href="https://syntax.abaplint.org/#/expression/SQLFieldList" xlink:title="expression/SQLFieldList">
<polygon fill="none" stroke="black" points="876.85,-468 720.33,-468 720.33,-432 876.85,-432 876.85,-468"/>
<text text-anchor="middle" x="798.59" y="-445.8" font-family="Times,serif" font-size="14.00">expression/SQLFieldList</text>
</a>
</g>
</g>
<!-- expression/SQLCase -->
<g id="node9" class="node">
<title>expression/SQLCase</title>
<g id="a_node9"><a xlink:href="https://syntax.abaplint.org/#/expression/SQLCase" xlink:title="expression/SQLCase">
<polygon fill="none" stroke="black" points="764.5,-396 630.68,-396 630.68,-360 764.5,-360 764.5,-396"/>
<text text-anchor="middle" x="697.59" y="-373.8" font-family="Times,serif" font-size="14.00">expression/SQLCase</text>
</a>
</g>
</g>
<!-- expression/SQLFieldList&#45;&gt;expression/SQLCase -->
<g id="edge12" class="edge">
<title>expression/SQLFieldList&#45;&gt;expression/SQLCase</title>
<path fill="none" stroke="black" d="M773.88,-431.88C760.92,-422.89 744.86,-411.76 730.82,-402.03"/>
<polygon fill="black" stroke="black" points="732.6,-399.01 722.39,-396.19 728.62,-404.76 732.6,-399.01"/>
</g>
<!-- expression/SelectLoop -->
<g id="node2" class="node">
<title>expression/SelectLoop</title>
<g id="a_node2"><a xlink:href="https://syntax.abaplint.org/#/expression/SelectLoop" xlink:title="expression/SelectLoop">
<polygon fill="none" stroke="black" points="870.11,-540 727.07,-540 727.07,-504 870.11,-504 870.11,-540"/>
<text text-anchor="middle" x="798.59" y="-517.8" font-family="Times,serif" font-size="14.00">expression/SelectLoop</text>
</a>
</g>
</g>
<!-- expression/SelectLoop&#45;&gt;expression/SQLFieldList -->
<g id="edge1" class="edge">
<title>expression/SelectLoop&#45;&gt;expression/SQLFieldList</title>
<path fill="none" stroke="black" d="M798.59,-503.7C798.59,-495.98 798.59,-486.71 798.59,-478.11"/>
<polygon fill="black" stroke="black" points="802.09,-478.1 798.59,-468.1 795.09,-478.1 802.09,-478.1"/>
</g>
<!-- expression/SQLCond -->
<g id="node8" class="node">
<title>expression/SQLCond</title>
<g id="a_node8"><a xlink:href="https://syntax.abaplint.org/#/expression/SQLCond" xlink:title="expression/SQLCond">
<polygon fill="none" stroke="black" points="670.63,-324 534.55,-324 534.55,-288 670.63,-288 670.63,-324"/>
<text text-anchor="middle" x="602.59" y="-301.8" font-family="Times,serif" font-size="14.00">expression/SQLCond</text>
</a>
</g>
</g>
<!-- expression/SelectLoop&#45;&gt;expression/SQLCond -->
<g id="edge8" class="edge">
<title>expression/SelectLoop&#45;&gt;expression/SQLCond</title>
<path fill="none" stroke="black" d="M755.19,-503.9C712.81,-484.64 650.61,-448.95 621.59,-396 611.12,-376.89 606.41,-352.54 604.3,-334.14"/>
<polygon fill="black" stroke="black" points="607.78,-333.7 603.34,-324.08 600.81,-334.37 607.78,-333.7"/>
</g>
<!-- expression/SelectLoop&#45;&gt;expression/SQLCase -->
<g id="edge11" class="edge">
<title>expression/SelectLoop&#45;&gt;expression/SQLCase</title>
<path fill="none" stroke="black" d="M754.73,-503.78C738.73,-495.34 722.02,-483.58 711.59,-468 699.46,-449.88 696.39,-425.1 696.11,-406.29"/>
<polygon fill="black" stroke="black" points="699.61,-406.3 696.21,-396.27 692.61,-406.23 699.61,-406.3"/>
</g>
<!-- expression/SQLFrom -->
<g id="node11" class="node">
<title>expression/SQLFrom</title>
<g id="a_node11"><a xlink:href="https://syntax.abaplint.org/#/expression/SQLFrom" xlink:title="expression/SQLFrom">
<polygon fill="none" stroke="black" points="980.63,-108 844.55,-108 844.55,-72 980.63,-72 980.63,-108"/>
<text text-anchor="middle" x="912.59" y="-85.8" font-family="Times,serif" font-size="14.00">expression/SQLFrom</text>
</a>
</g>
</g>
<!-- expression/SelectLoop&#45;&gt;expression/SQLFrom -->
<g id="edge16" class="edge">
<title>expression/SelectLoop&#45;&gt;expression/SQLFrom</title>
<path fill="none" stroke="black" d="M870.13,-515.46C1062.71,-499.61 1577.59,-450.53 1577.59,-379 1577.59,-379 1577.59,-379 1577.59,-233 1577.59,-114.21 1166.65,-94.43 990.85,-91.41"/>
<polygon fill="black" stroke="black" points="990.69,-87.9 980.63,-91.25 990.57,-94.9 990.69,-87.9"/>
</g>
<!-- statement/SelectLoop -->
<g id="node3" class="node">
<title>statement/SelectLoop</title>
<g id="a_node3"><a xlink:href="https://syntax.abaplint.org/#/statement/SelectLoop" xlink:title="statement/SelectLoop">
<polygon fill="none" stroke="black" points="1039.72,-599.56 922.59,-612 805.46,-599.56 805.57,-579.44 1039.61,-579.44 1039.72,-599.56"/>
<text text-anchor="middle" x="922.59" y="-589.8" font-family="Times,serif" font-size="14.00">statement/SelectLoop</text>
</a>
</g>
</g>
<!-- statement/SelectLoop&#45;&gt;expression/SelectLoop -->
<g id="edge2" class="edge">
<title>statement/SelectLoop&#45;&gt;expression/SelectLoop</title>
<path fill="none" stroke="black" d="M898.39,-579.34C881.15,-569.61 857.61,-556.32 837.73,-545.09"/>
<polygon fill="black" stroke="black" points="839.31,-541.97 828.88,-540.1 835.87,-548.06 839.31,-541.97"/>
</g>
<!-- statement/WithLoop -->
<g id="node4" class="node">
<title>statement/WithLoop</title>
<g id="a_node4"><a xlink:href="https://syntax.abaplint.org/#/statement/WithLoop" xlink:title="statement/WithLoop">
<polygon fill="none" stroke="black" points="787.13,-599.56 675.59,-612 564.05,-599.56 564.15,-579.44 787.02,-579.44 787.13,-599.56"/>
<text text-anchor="middle" x="675.59" y="-589.8" font-family="Times,serif" font-size="14.00">statement/WithLoop</text>
</a>
</g>
</g>
<!-- statement/WithLoop&#45;&gt;expression/SelectLoop -->
<g id="edge3" class="edge">
<title>statement/WithLoop&#45;&gt;expression/SelectLoop</title>
<path fill="none" stroke="black" d="M699.6,-579.34C716.69,-569.61 740.04,-556.32 759.77,-545.09"/>
<polygon fill="black" stroke="black" points="761.58,-548.09 768.54,-540.1 758.12,-542 761.58,-548.09"/>
</g>
<!-- statement/With -->
<g id="node5" class="node">
<title>statement/With</title>
<g id="a_node5"><a xlink:href="https://syntax.abaplint.org/#/statement/With" xlink:title="statement/With">
<polygon fill="none" stroke="black" points="1467.23,-599.56 1380.59,-612 1293.94,-599.56 1294.03,-579.44 1467.15,-579.44 1467.23,-599.56"/>
<text text-anchor="middle" x="1380.59" y="-589.8" font-family="Times,serif" font-size="14.00">statement/With</text>
</a>
</g>
</g>
<!-- statement/With&#45;&gt;expression/SelectLoop -->
<g id="edge4" class="edge">
<title>statement/With&#45;&gt;expression/SelectLoop</title>
<path fill="none" stroke="black" d="M1293.77,-582.56C1182.07,-569.12 989.47,-545.96 880.3,-532.83"/>
<polygon fill="black" stroke="black" points="880.67,-529.35 870.32,-531.63 879.84,-536.3 880.67,-529.35"/>
</g>
<!-- expression/Select -->
<g id="node6" class="node">
<title>expression/Select</title>
<g id="a_node6"><a xlink:href="https://syntax.abaplint.org/#/expression/Select" xlink:title="expression/Select">
<polygon fill="none" stroke="black" points="969.56,-180 855.62,-180 855.62,-144 969.56,-144 969.56,-180"/>
<text text-anchor="middle" x="912.59" y="-157.8" font-family="Times,serif" font-size="14.00">expression/Select</text>
</a>
</g>
</g>
<!-- statement/With&#45;&gt;expression/Select -->
<g id="edge21" class="edge">
<title>statement/With&#45;&gt;expression/Select</title>
<path fill="none" stroke="black" d="M1458.51,-579.37C1526.92,-562.41 1615.59,-525.96 1615.59,-451 1615.59,-451 1615.59,-451 1615.59,-305 1615.59,-258.03 1598.84,-240.21 1558.59,-216 1509.87,-186.69 1135.44,-170.63 979.95,-165.16"/>
<polygon fill="black" stroke="black" points="979.7,-161.65 969.58,-164.8 979.46,-168.65 979.7,-161.65"/>
</g>
<!-- expression/Select&#45;&gt;expression/SQLFieldList -->
<g id="edge5" class="edge">
<title>expression/Select&#45;&gt;expression/SQLFieldList</title>
<path fill="none" stroke="black" d="M856.39,-180.12C839.17,-188.21 822.04,-199.76 811.59,-216 770.41,-280.01 782.67,-375.55 792.11,-421.87"/>
<polygon fill="black" stroke="black" points="788.71,-422.73 794.24,-431.77 795.56,-421.25 788.71,-422.73"/>
</g>
<!-- expression/Select&#45;&gt;expression/SQLCond -->
<g id="edge9" class="edge">
<title>expression/Select&#45;&gt;expression/SQLCond</title>
<path fill="none" stroke="black" d="M858.24,-180.02C833.12,-188.99 803.42,-201.22 778.59,-216 757.17,-228.75 756.99,-239.23 735.59,-252 714.02,-264.87 688.75,-275.84 666.07,-284.41"/>
<polygon fill="black" stroke="black" points="664.69,-281.18 656.52,-287.93 667.12,-287.75 664.69,-281.18"/>
</g>
<!-- expression/Select&#45;&gt;expression/SQLFrom -->
<g id="edge17" class="edge">
<title>expression/Select&#45;&gt;expression/SQLFrom</title>
<path fill="none" stroke="black" d="M912.59,-143.7C912.59,-135.98 912.59,-126.71 912.59,-118.11"/>
<polygon fill="black" stroke="black" points="916.09,-118.1 912.59,-108.1 909.09,-118.1 916.09,-118.1"/>
</g>
<!-- expression/SQLCompare -->
<g id="node7" class="node">
<title>expression/SQLCompare</title>
<g id="a_node7"><a xlink:href="https://syntax.abaplint.org/#/expression/SQLCompare" xlink:title="expression/SQLCompare">
<polygon fill="none" stroke="black" points="726.11,-252 569.07,-252 569.07,-216 726.11,-216 726.11,-252"/>
<text text-anchor="middle" x="647.59" y="-229.8" font-family="Times,serif" font-size="14.00">expression/SQLCompare</text>
</a>
</g>
</g>
<!-- expression/SQLCompare&#45;&gt;expression/Select -->
<g id="edge6" class="edge">
<title>expression/SQLCompare&#45;&gt;expression/Select</title>
<path fill="none" stroke="black" d="M712.08,-215.97C752.56,-205.27 804.65,-191.51 845.6,-180.7"/>
<polygon fill="black" stroke="black" points="846.71,-184.02 855.49,-178.08 844.93,-177.25 846.71,-184.02"/>
</g>
<!-- expression/SQLCond&#45;&gt;expression/SQLCompare -->
<g id="edge7" class="edge">
<title>expression/SQLCond&#45;&gt;expression/SQLCompare</title>
<path fill="none" stroke="black" d="M613.71,-287.7C618.94,-279.56 625.29,-269.69 631.07,-260.7"/>
<polygon fill="black" stroke="black" points="634.13,-262.41 636.59,-252.1 628.24,-258.62 634.13,-262.41"/>
</g>
<!-- expression/SQLCond&#45;&gt;expression/SQLCond -->
<g id="edge13" class="edge">
<title>expression/SQLCond&#45;&gt;expression/SQLCond</title>
<path fill="none" stroke="black" d="M670.93,-318.37C681.59,-316.52 688.86,-312.4 688.86,-306 688.86,-301.8 685.73,-298.58 680.56,-296.34"/>
<polygon fill="black" stroke="black" points="681.51,-292.97 670.93,-293.63 679.61,-299.71 681.51,-292.97"/>
</g>
<!-- expression/SQLCase&#45;&gt;expression/SQLCond -->
<g id="edge10" class="edge">
<title>expression/SQLCase&#45;&gt;expression/SQLCond</title>
<path fill="none" stroke="black" d="M674.11,-359.7C662.03,-350.8 647.14,-339.82 634.07,-330.2"/>
<polygon fill="black" stroke="black" points="635.93,-327.22 625.8,-324.1 631.78,-332.85 635.93,-327.22"/>
</g>
<!-- expression/SQLJoin -->
<g id="node10" class="node">
<title>expression/SQLJoin</title>
<g id="a_node10"><a xlink:href="https://syntax.abaplint.org/#/expression/SQLJoin" xlink:title="expression/SQLJoin">
<polygon fill="none" stroke="black" points="791.13,-36 662.05,-36 662.05,0 791.13,0 791.13,-36"/>
<text text-anchor="middle" x="726.59" y="-13.8" font-family="Times,serif" font-size="14.00">expression/SQLJoin</text>
</a>
</g>
</g>
<!-- expression/SQLJoin&#45;&gt;expression/SQLCond -->
<g id="edge14" class="edge">
<title>expression/SQLJoin&#45;&gt;expression/SQLCond</title>
<path fill="none" stroke="black" d="M704.26,-36.07C665.89,-66.98 588.77,-136.44 559.59,-216 554.08,-231.02 554.24,-236.92 559.59,-252 563.25,-262.32 569.88,-272.1 576.85,-280.39"/>
<polygon fill="black" stroke="black" points="574.26,-282.74 583.55,-287.84 579.46,-278.06 574.26,-282.74"/>
</g>
<!-- expression/SQLFrom&#45;&gt;expression/SQLJoin -->
<g id="edge15" class="edge">
<title>expression/SQLFrom&#45;&gt;expression/SQLJoin</title>
<path fill="none" stroke="black" d="M867.09,-71.88C841.21,-62.14 808.62,-49.87 781.35,-39.61"/>
<polygon fill="black" stroke="black" points="782.53,-36.31 771.94,-36.07 780.07,-42.87 782.53,-36.31"/>
</g>
<!-- statement/DeleteDatabase -->
<g id="node12" class="node">
<title>statement/DeleteDatabase</title>
<g id="a_node12"><a xlink:href="https://syntax.abaplint.org/#/statement/DeleteDatabase" xlink:title="statement/DeleteDatabase">
<polygon fill="none" stroke="black" points="275.27,-383.56 137.59,-396 -0.09,-383.56 0.04,-363.44 275.14,-363.44 275.27,-383.56"/>
<text text-anchor="middle" x="137.59" y="-373.8" font-family="Times,serif" font-size="14.00">statement/DeleteDatabase</text>
</a>
</g>
</g>
<!-- statement/DeleteDatabase&#45;&gt;expression/SQLCond -->
<g id="edge18" class="edge">
<title>statement/DeleteDatabase&#45;&gt;expression/SQLCond</title>
<path fill="none" stroke="black" d="M227.8,-363.42C314,-350.44 442.6,-331.08 524.52,-318.75"/>
<polygon fill="black" stroke="black" points="525.15,-322.2 534.52,-317.25 524.11,-315.27 525.15,-322.2"/>
</g>
<!-- statement/UpdateDatabase -->
<g id="node13" class="node">
<title>statement/UpdateDatabase</title>
<g id="a_node13"><a xlink:href="https://syntax.abaplint.org/#/statement/UpdateDatabase" xlink:title="statement/UpdateDatabase">
<polygon fill="none" stroke="black" points="574.41,-383.56 433.59,-396 292.77,-383.56 292.9,-363.44 574.28,-363.44 574.41,-383.56"/>
<text text-anchor="middle" x="433.59" y="-373.8" font-family="Times,serif" font-size="14.00">statement/UpdateDatabase</text>
</a>
</g>
</g>
<!-- statement/UpdateDatabase&#45;&gt;expression/SQLCond -->
<g id="edge19" class="edge">
<title>statement/UpdateDatabase&#45;&gt;expression/SQLCond</title>
<path fill="none" stroke="black" d="M466.58,-363.34C490.81,-353.3 524.18,-339.48 551.8,-328.04"/>
<polygon fill="black" stroke="black" points="553.41,-331.16 561.31,-324.1 550.73,-324.69 553.41,-331.16"/>
</g>
<!-- statement/Select -->
<g id="node14" class="node">
<title>statement/Select</title>
<g id="a_node14"><a xlink:href="https://syntax.abaplint.org/#/statement/Select" xlink:title="statement/Select">
<polygon fill="none" stroke="black" points="1004.33,-239.56 912.59,-252 820.85,-239.56 820.94,-219.44 1004.24,-219.44 1004.33,-239.56"/>
<text text-anchor="middle" x="912.59" y="-229.8" font-family="Times,serif" font-size="14.00">statement/Select</text>
</a>
</g>
</g>
<!-- statement/Select&#45;&gt;expression/Select -->
<g id="edge20" class="edge">
<title>statement/Select&#45;&gt;expression/Select</title>
<path fill="none" stroke="black" d="M912.59,-219.17C912.59,-210.92 912.59,-200.15 912.59,-190.26"/>
<polygon fill="black" stroke="black" points="916.09,-190.02 912.59,-180.02 909.09,-190.02 916.09,-190.02"/>
</g>
<!-- statement/InsertDatabase -->
<g id="node15" class="node">
<title>statement/InsertDatabase</title>
<g id="a_node15"><a xlink:href="https://syntax.abaplint.org/#/statement/InsertDatabase" xlink:title="statement/InsertDatabase">
<polygon fill="none" stroke="black" points="1289.32,-239.56 1155.59,-252 1021.86,-239.56 1021.98,-219.44 1289.2,-219.44 1289.32,-239.56"/>
<text text-anchor="middle" x="1155.59" y="-229.8" font-family="Times,serif" font-size="14.00">statement/InsertDatabase</text>
</a>
</g>
</g>
<!-- statement/InsertDatabase&#45;&gt;expression/Select -->
<g id="edge22" class="edge">
<title>statement/InsertDatabase&#45;&gt;expression/Select</title>
<path fill="none" stroke="black" d="M1108.45,-219.42C1071.78,-208.86 1020.42,-194.06 979.5,-182.27"/>
<polygon fill="black" stroke="black" points="980.45,-178.91 969.87,-179.5 978.51,-185.63 980.45,-178.91"/>
</g>
<!-- statement/OpenCursor -->
<g id="node16" class="node">
<title>statement/OpenCursor</title>
<g id="a_node16"><a xlink:href="https://syntax.abaplint.org/#/statement/OpenCursor" xlink:title="statement/OpenCursor">
<polygon fill="none" stroke="black" points="1549.67,-239.56 1428.59,-252 1307.51,-239.56 1307.62,-219.44 1549.56,-219.44 1549.67,-239.56"/>
<text text-anchor="middle" x="1428.59" y="-229.8" font-family="Times,serif" font-size="14.00">statement/OpenCursor</text>
</a>
</g>
</g>
<!-- statement/OpenCursor&#45;&gt;expression/Select -->
<g id="edge23" class="edge">
<title>statement/OpenCursor&#45;&gt;expression/Select</title>
<path fill="none" stroke="black" d="M1328.49,-219.42C1225.63,-205.47 1068.35,-184.13 979.6,-172.09"/>
<polygon fill="black" stroke="black" points="980.03,-168.62 969.65,-170.74 979.09,-175.55 980.03,-168.62"/>
</g>
</g>
</svg>
