<svg xmlns="http://www.w3.org/2000/svg" xmlns:xlink="http://www.w3.org/1999/xlink" class="railroad-diagram" width="351.5" height="92" viewBox="0 0 351.5 92">
<defs>
<style type="text/css"><![CDATA[
path {
stroke-width: 3;
stroke: black;
fill: rgba(0,0,0,0);
}
text {
font: bold 14px monospace;
text-anchor: middle;
}
text.diagram-text {
font-size: 12px;
}
a {
fill: blue;
}
text.diagram-arrow {
font-size: 16px;
}
text.label {
text-anchor: start;
}
text.comment {
font: italic 12px monospace;
}
rect {
stroke-width: 3;
stroke: black;
fill: #BCBCBC;
}
path.diagram-text {
stroke-width: 3;
stroke: black;
fill: #BCBCBC;
cursor: help;
}
]]></style>
</defs>
<g transform="translate(.5 .5)">
<g>
<path d="M20 21v20m0 -10h20"></path>
</g>
<path d="M40 31h10"></path>
<g>
<path d="M50 31h0"></path>
<path d="M301.5 31h0"></path>
<g class="terminal">
<path d="M50 31h0"></path>
<path d="M146.5 31h0"></path>
<rect x="50" y="20" width="96.5" height="22" rx="10" ry="10"></rect>
<text x="98.25" y="35">"DEFAULT"</text>
</g>
<path d="M146.5 31h10"></path>
<g>
<path d="M156.5 31h0"></path>
<path d="M301.5 31h0"></path>
<path d="M156.5 31h20"></path>
<g class="non-terminal">
<path d="M176.5 31h0"></path>
<path d="M264.5 31h17"></path>
<rect x="176.5" y="20" width="88" height="22"></rect>
<a xlink:href="#/expression/Constant"><text x="220.5" y="35">Constant</text>
</a>
</g>
<path d="M281.5 31h20"></path>
<path d="M156.5 31a10 10 0 0 1 10 10v10a10 10 0 0 0 10 10"></path>
<g class="non-terminal">
<path d="M176.5 61h0"></path>
<path d="M281.5 61h0"></path>
<rect x="176.5" y="50" width="105" height="22"></rect>
<a xlink:href="#/expression/FieldChain"><text x="229" y="65">FieldChain</text>
</a>
</g>
<path d="M281.5 61a10 10 0 0 0 10 -10v-10a10 10 0 0 1 10 -10"></path>
</g>
</g>
<path d="M301.5 31h10"></path>
<path d="M 311.5 31 h 20 m 0 -10 v 20"></path>
</g>
</svg>
