<?xml version="1.0" encoding="UTF-8" standalone="no"?>
<!DOCTYPE svg PUBLIC "-//W3C//DTD SVG 1.1//EN"
 "http://www.w3.org/Graphics/SVG/1.1/DTD/svg11.dtd">
<!-- Generated by graphviz version 2.47.3 (20210619.1520)
 -->
<!-- Title: G Pages: 1 -->
<svg width="258pt" height="141pt"
 viewBox="0.00 0.00 258.08 140.80" xmlns="http://www.w3.org/2000/svg" xmlns:xlink="http://www.w3.org/1999/xlink">
<g id="graph0" class="graph" transform="scale(1 1) rotate(0) translate(4 136.8)">
<title>G</title>
<polygon fill="white" stroke="transparent" points="-4,4 -4,-136.8 254.08,-136.8 254.08,4 -4,4"/>
<text text-anchor="middle" x="108.88" y="-116.2" font-family="Times,serif" font-size="14.00">Where used, expression/Destination</text>
<!-- expression/Destination -->
<g id="node1" class="node">
<title>expression/Destination</title>
<g id="a_node1"><a xlink:href="https://syntax.abaplint.org/#/expression/Destination" xlink:title="expression/Destination">
<polygon fill="none" stroke="black" points="197.34,-36 52.73,-36 52.73,0 197.34,0 197.34,-36"/>
<text text-anchor="middle" x="125.04" y="-13.8" font-family="Times,serif" font-size="14.00">expression/Destination</text>
</a>
</g>
</g>
<!-- statement/CallFunction -->
<g id="node2" class="node">
<title>statement/CallFunction</title>
<g id="a_node2"><a xlink:href="https://syntax.abaplint.org/#/statement/CallFunction" xlink:title="statement/CallFunction">
<polygon fill="none" stroke="black" points="250.11,-95.56 125.04,-108 -0.04,-95.56 0.08,-75.44 250,-75.44 250.11,-95.56"/>
<text text-anchor="middle" x="125.04" y="-85.8" font-family="Times,serif" font-size="14.00">statement/CallFunction</text>
</a>
</g>
</g>
<!-- statement/CallFunction&#45;&gt;expression/Destination -->
<g id="edge1" class="edge">
<title>statement/CallFunction&#45;&gt;expression/Destination</title>
<path fill="none" stroke="black" d="M125.04,-75.17C125.04,-66.92 125.04,-56.15 125.04,-46.26"/>
<polygon fill="black" stroke="black" points="128.54,-46.02 125.04,-36.02 121.54,-46.02 128.54,-46.02"/>
</g>
</g>
</svg>
