<?xml version="1.0" encoding="UTF-8" standalone="no"?>
<!DOCTYPE svg PUBLIC "-//W3C//DTD SVG 1.1//EN"
 "http://www.w3.org/Graphics/SVG/1.1/DTD/svg11.dtd">
<!-- Generated by graphviz version 2.47.3 (20210619.1520)
 -->
<!-- Title: G Pages: 1 -->
<svg width="404pt" height="141pt"
 viewBox="0.00 0.00 404.05 140.80" xmlns="http://www.w3.org/2000/svg" xmlns:xlink="http://www.w3.org/1999/xlink">
<g id="graph0" class="graph" transform="scale(1 1) rotate(0) translate(4 136.8)">
<title>G</title>
<polygon fill="white" stroke="transparent" points="-4,4 -4,-136.8 400.05,-136.8 400.05,4 -4,4"/>
<text text-anchor="middle" x="107.72" y="-116.2" font-family="Times,serif" font-size="14.00">Where used, expression/AndReturn</text>
<!-- expression/AndReturn -->
<g id="node1" class="node">
<title>expression/AndReturn</title>
<g id="a_node1"><a xlink:href="https://syntax.abaplint.org/#/expression/AndReturn" xlink:title="expression/AndReturn">
<polygon fill="none" stroke="black" points="271.16,-36 129.23,-36 129.23,0 271.16,0 271.16,-36"/>
<text text-anchor="middle" x="200.19" y="-13.8" font-family="Times,serif" font-size="14.00">expression/AndReturn</text>
</a>
</g>
</g>
<!-- statement/Submit -->
<g id="node2" class="node">
<title>statement/Submit</title>
<g id="a_node2"><a xlink:href="https://syntax.abaplint.org/#/statement/Submit" xlink:title="statement/Submit">
<polygon fill="none" stroke="black" points="194.58,-95.56 97.19,-108 -0.2,-95.56 -0.1,-75.44 194.49,-75.44 194.58,-95.56"/>
<text text-anchor="middle" x="97.19" y="-85.8" font-family="Times,serif" font-size="14.00">statement/Submit</text>
</a>
</g>
</g>
<!-- statement/Submit&#45;&gt;expression/AndReturn -->
<g id="edge1" class="edge">
<title>statement/Submit&#45;&gt;expression/AndReturn</title>
<path fill="none" stroke="black" d="M117.54,-75.17C131.49,-65.69 150.33,-52.89 166.49,-41.9"/>
<polygon fill="black" stroke="black" points="168.85,-44.53 175.15,-36.02 164.91,-38.75 168.85,-44.53"/>
</g>
<!-- statement/Leave -->
<g id="node3" class="node">
<title>statement/Leave</title>
<g id="a_node3"><a xlink:href="https://syntax.abaplint.org/#/statement/Leave" xlink:title="statement/Leave">
<polygon fill="none" stroke="black" points="395.91,-95.56 304.19,-108 212.48,-95.56 212.56,-75.44 395.83,-75.44 395.91,-95.56"/>
<text text-anchor="middle" x="304.19" y="-85.8" font-family="Times,serif" font-size="14.00">statement/Leave</text>
</a>
</g>
</g>
<!-- statement/Leave&#45;&gt;expression/AndReturn -->
<g id="edge2" class="edge">
<title>statement/Leave&#45;&gt;expression/AndReturn</title>
<path fill="none" stroke="black" d="M283.65,-75.17C269.56,-65.69 250.55,-52.89 234.22,-41.9"/>
<polygon fill="black" stroke="black" points="235.73,-38.7 225.48,-36.02 231.82,-44.51 235.73,-38.7"/>
</g>
</g>
</svg>
