<svg xmlns="http://www.w3.org/2000/svg" xmlns:xlink="http://www.w3.org/1999/xlink" class="railroad-diagram" width="418" height="71" viewBox="0 0 418 71">
<defs>
<style type="text/css"><![CDATA[
path {
stroke-width: 3;
stroke: black;
fill: rgba(0,0,0,0);
}
text {
font: bold 14px monospace;
text-anchor: middle;
}
text.diagram-text {
font-size: 12px;
}
a {
fill: blue;
}
text.diagram-arrow {
font-size: 16px;
}
text.label {
text-anchor: start;
}
text.comment {
font: italic 12px monospace;
}
rect {
stroke-width: 3;
stroke: black;
fill: #BCBCBC;
}
path.diagram-text {
stroke-width: 3;
stroke: black;
fill: #BCBCBC;
cursor: help;
}
]]></style>
</defs>
<g transform="translate(.5 .5)">
<g>
<path d="M20 21v20m0 -10h20"></path>
</g>
<path d="M40 31h10"></path>
<g>
<path d="M50 31h0"></path>
<path d="M368 31h0"></path>
<g class="terminal">
<path d="M50 31h0"></path>
<path d="M223 31h0"></path>
<rect x="50" y="20" width="173" height="22" rx="10" ry="10"></rect>
<text x="136.5" y="35">"ABSTRACT METHODS"</text>
</g>
<path d="M223 31h10"></path>
<path d="M233 31h10"></path>
<g>
<path d="M243 31h0"></path>
<path d="M368 31h0"></path>
<path d="M243 31h10"></path>
<g class="non-terminal">
<path d="M253 31h0"></path>
<path d="M358 31h0"></path>
<rect x="253" y="20" width="105" height="22"></rect>
<a xlink:href="#/expression/MethodName"><text x="305.5" y="35">MethodName</text>
</a>
</g>
<path d="M358 31h10"></path>
<path d="M253 31a10 10 0 0 0 -10 10v0a10 10 0 0 0 10 10"></path>
<g>
<path d="M253 51h105"></path>
</g>
<path d="M358 51a10 10 0 0 0 10 -10v0a10 10 0 0 0 -10 -10"></path>
</g>
</g>
<path d="M368 31h10"></path>
<path d="M 378 31 h 20 m 0 -10 v 20"></path>
</g>
</svg>
