<?xml version="1.0" encoding="UTF-8" standalone="no"?>
<!DOCTYPE svg PUBLIC "-//W3C//DTD SVG 1.1//EN"
 "http://www.w3.org/Graphics/SVG/1.1/DTD/svg11.dtd">
<!-- Generated by graphviz version 2.47.3 (20210619.1520)
 -->
<!-- Title: G Pages: 1 -->
<svg width="1232pt" height="645pt"
 viewBox="0.00 0.00 1232.28 644.80" xmlns="http://www.w3.org/2000/svg" xmlns:xlink="http://www.w3.org/1999/xlink">
<g id="graph0" class="graph" transform="scale(1 1) rotate(0) translate(4 640.8)">
<title>G</title>
<polygon fill="white" stroke="transparent" points="-4,4 -4,-640.8 1228.28,-640.8 1228.28,4 -4,4"/>
<text text-anchor="middle" x="124.44" y="-620.2" font-family="Times,serif" font-size="14.00">Where used, expression/SQLFromSource</text>
<!-- expression/SQLFromSource -->
<g id="node1" class="node">
<title>expression/SQLFromSource</title>
<g id="a_node1"><a xlink:href="https://syntax.abaplint.org/#/expression/SQLFromSource" xlink:title="expression/SQLFromSource">
<polygon fill="none" stroke="black" points="915.61,-324 739.8,-324 739.8,-288 915.61,-288 915.61,-324"/>
<text text-anchor="middle" x="827.71" y="-301.8" font-family="Times,serif" font-size="14.00">expression/SQLFromSource</text>
</a>
</g>
</g>
<!-- expression/SQLFrom -->
<g id="node2" class="node">
<title>expression/SQLFrom</title>
<g id="a_node2"><a xlink:href="https://syntax.abaplint.org/#/expression/SQLFrom" xlink:title="expression/SQLFrom">
<polygon fill="none" stroke="black" points="942.74,-468 806.67,-468 806.67,-432 942.74,-432 942.74,-468"/>
<text text-anchor="middle" x="874.71" y="-445.8" font-family="Times,serif" font-size="14.00">expression/SQLFrom</text>
</a>
</g>
</g>
<!-- expression/SQLFrom&#45;&gt;expression/SQLFromSource -->
<g id="edge1" class="edge">
<title>expression/SQLFrom&#45;&gt;expression/SQLFromSource</title>
<path fill="none" stroke="black" d="M872.48,-431.88C869.79,-413.67 864.49,-384.21 855.71,-360 852.4,-350.9 847.81,-341.42 843.29,-333.03"/>
<polygon fill="black" stroke="black" points="846.23,-331.13 838.3,-324.11 840.12,-334.55 846.23,-331.13"/>
</g>
<!-- expression/SQLJoin -->
<g id="node12" class="node">
<title>expression/SQLJoin</title>
<g id="a_node12"><a xlink:href="https://syntax.abaplint.org/#/expression/SQLJoin" xlink:title="expression/SQLJoin">
<polygon fill="none" stroke="black" points="846.24,-396 717.17,-396 717.17,-360 846.24,-360 846.24,-396"/>
<text text-anchor="middle" x="781.71" y="-373.8" font-family="Times,serif" font-size="14.00">expression/SQLJoin</text>
</a>
</g>
</g>
<!-- expression/SQLFrom&#45;&gt;expression/SQLJoin -->
<g id="edge18" class="edge">
<title>expression/SQLFrom&#45;&gt;expression/SQLJoin</title>
<path fill="none" stroke="black" d="M851.72,-431.7C839.89,-422.8 825.31,-411.82 812.53,-402.2"/>
<polygon fill="black" stroke="black" points="814.53,-399.32 804.43,-396.1 810.32,-404.91 814.53,-399.32"/>
</g>
<!-- expression/SelectLoop -->
<g id="node3" class="node">
<title>expression/SelectLoop</title>
<g id="a_node3"><a xlink:href="https://syntax.abaplint.org/#/expression/SelectLoop" xlink:title="expression/SelectLoop">
<polygon fill="none" stroke="black" points="946.23,-540 803.19,-540 803.19,-504 946.23,-504 946.23,-540"/>
<text text-anchor="middle" x="874.71" y="-517.8" font-family="Times,serif" font-size="14.00">expression/SelectLoop</text>
</a>
</g>
</g>
<!-- expression/SelectLoop&#45;&gt;expression/SQLFrom -->
<g id="edge2" class="edge">
<title>expression/SelectLoop&#45;&gt;expression/SQLFrom</title>
<path fill="none" stroke="black" d="M874.71,-503.7C874.71,-495.98 874.71,-486.71 874.71,-478.11"/>
<polygon fill="black" stroke="black" points="878.21,-478.1 874.71,-468.1 871.21,-478.1 878.21,-478.1"/>
</g>
<!-- expression/SQLCond -->
<g id="node9" class="node">
<title>expression/SQLCond</title>
<g id="a_node9"><a xlink:href="https://syntax.abaplint.org/#/expression/SQLCond" xlink:title="expression/SQLCond">
<polygon fill="none" stroke="black" points="279.75,-324 143.67,-324 143.67,-288 279.75,-288 279.75,-324"/>
<text text-anchor="middle" x="211.71" y="-301.8" font-family="Times,serif" font-size="14.00">expression/SQLCond</text>
</a>
</g>
</g>
<!-- expression/SelectLoop&#45;&gt;expression/SQLCond -->
<g id="edge9" class="edge">
<title>expression/SelectLoop&#45;&gt;expression/SQLCond</title>
<path fill="none" stroke="black" d="M849.63,-503.97C834.52,-493.65 814.94,-480.17 797.71,-468 764.31,-444.41 686.77,-374.94 648.71,-360 585.21,-335.09 397.82,-319.15 290.16,-311.78"/>
<polygon fill="black" stroke="black" points="290.22,-308.28 280,-311.1 289.74,-315.26 290.22,-308.28"/>
</g>
<!-- expression/SQLCase -->
<g id="node10" class="node">
<title>expression/SQLCase</title>
<g id="a_node10"><a xlink:href="https://syntax.abaplint.org/#/expression/SQLCase" xlink:title="expression/SQLCase">
<polygon fill="none" stroke="black" points="133.62,-36 -0.21,-36 -0.21,0 133.62,0 133.62,-36"/>
<text text-anchor="middle" x="66.71" y="-13.8" font-family="Times,serif" font-size="14.00">expression/SQLCase</text>
</a>
</g>
</g>
<!-- expression/SelectLoop&#45;&gt;expression/SQLCase -->
<g id="edge12" class="edge">
<title>expression/SelectLoop&#45;&gt;expression/SQLCase</title>
<path fill="none" stroke="black" d="M802.94,-516.49C598.67,-502.71 28.71,-457.23 28.71,-379 28.71,-379 28.71,-379 28.71,-161 28.71,-119.63 43.94,-73.72 55.12,-45.61"/>
<polygon fill="black" stroke="black" points="58.46,-46.67 59.02,-36.09 51.99,-44.02 58.46,-46.67"/>
</g>
<!-- expression/SQLFieldList -->
<g id="node11" class="node">
<title>expression/SQLFieldList</title>
<g id="a_node11"><a xlink:href="https://syntax.abaplint.org/#/expression/SQLFieldList" xlink:title="expression/SQLFieldList">
<polygon fill="none" stroke="black" points="721.97,-108 565.45,-108 565.45,-72 721.97,-72 721.97,-108"/>
<text text-anchor="middle" x="643.71" y="-85.8" font-family="Times,serif" font-size="14.00">expression/SQLFieldList</text>
</a>
</g>
</g>
<!-- expression/SelectLoop&#45;&gt;expression/SQLFieldList -->
<g id="edge14" class="edge">
<title>expression/SelectLoop&#45;&gt;expression/SQLFieldList</title>
<path fill="none" stroke="black" d="M946.53,-507.81C1013.69,-490.83 1103.71,-454.08 1103.71,-379 1103.71,-379 1103.71,-379 1103.71,-233 1103.71,-156.07 865.86,-116.36 732.23,-100.11"/>
<polygon fill="black" stroke="black" points="732.34,-96.6 722,-98.89 731.51,-103.55 732.34,-96.6"/>
</g>
<!-- statement/SelectLoop -->
<g id="node4" class="node">
<title>statement/SelectLoop</title>
<g id="a_node4"><a xlink:href="https://syntax.abaplint.org/#/statement/SelectLoop" xlink:title="statement/SelectLoop">
<polygon fill="none" stroke="black" points="995.84,-599.56 878.71,-612 761.57,-599.56 761.68,-579.44 995.73,-579.44 995.84,-599.56"/>
<text text-anchor="middle" x="878.71" y="-589.8" font-family="Times,serif" font-size="14.00">statement/SelectLoop</text>
</a>
</g>
</g>
<!-- statement/SelectLoop&#45;&gt;expression/SelectLoop -->
<g id="edge3" class="edge">
<title>statement/SelectLoop&#45;&gt;expression/SelectLoop</title>
<path fill="none" stroke="black" d="M877.92,-579.17C877.44,-570.92 876.83,-560.15 876.26,-550.26"/>
<polygon fill="black" stroke="black" points="879.74,-549.8 875.68,-540.02 872.76,-550.2 879.74,-549.8"/>
</g>
<!-- statement/WithLoop -->
<g id="node5" class="node">
<title>statement/WithLoop</title>
<g id="a_node5"><a xlink:href="https://syntax.abaplint.org/#/statement/WithLoop" xlink:title="statement/WithLoop">
<polygon fill="none" stroke="black" points="743.25,-599.56 631.71,-612 520.17,-599.56 520.27,-579.44 743.14,-579.44 743.25,-599.56"/>
<text text-anchor="middle" x="631.71" y="-589.8" font-family="Times,serif" font-size="14.00">statement/WithLoop</text>
</a>
</g>
</g>
<!-- statement/WithLoop&#45;&gt;expression/SelectLoop -->
<g id="edge4" class="edge">
<title>statement/WithLoop&#45;&gt;expression/SelectLoop</title>
<path fill="none" stroke="black" d="M678.85,-579.42C714.93,-569.03 765.23,-554.54 805.82,-542.84"/>
<polygon fill="black" stroke="black" points="807.01,-546.14 815.65,-540.01 805.07,-539.42 807.01,-546.14"/>
</g>
<!-- statement/With -->
<g id="node6" class="node">
<title>statement/With</title>
<g id="a_node6"><a xlink:href="https://syntax.abaplint.org/#/statement/With" xlink:title="statement/With">
<polygon fill="none" stroke="black" points="1224.35,-599.56 1137.71,-612 1051.06,-599.56 1051.14,-579.44 1224.27,-579.44 1224.35,-599.56"/>
<text text-anchor="middle" x="1137.71" y="-589.8" font-family="Times,serif" font-size="14.00">statement/With</text>
</a>
</g>
</g>
<!-- statement/With&#45;&gt;expression/SelectLoop -->
<g id="edge5" class="edge">
<title>statement/With&#45;&gt;expression/SelectLoop</title>
<path fill="none" stroke="black" d="M1086.69,-579.42C1047.38,-568.96 992.5,-554.35 948.42,-542.62"/>
<polygon fill="black" stroke="black" points="949.18,-539.2 938.62,-540.01 947.38,-545.97 949.18,-539.2"/>
</g>
<!-- expression/Select -->
<g id="node7" class="node">
<title>expression/Select</title>
<g id="a_node7"><a xlink:href="https://syntax.abaplint.org/#/expression/Select" xlink:title="expression/Select">
<polygon fill="none" stroke="black" points="700.67,-180 586.74,-180 586.74,-144 700.67,-144 700.67,-180"/>
<text text-anchor="middle" x="643.71" y="-157.8" font-family="Times,serif" font-size="14.00">expression/Select</text>
</a>
</g>
</g>
<!-- statement/With&#45;&gt;expression/Select -->
<g id="edge22" class="edge">
<title>statement/With&#45;&gt;expression/Select</title>
<path fill="none" stroke="black" d="M1138.35,-579.3C1139.48,-553.97 1141.71,-498.11 1141.71,-451 1141.71,-451 1141.71,-451 1141.71,-305 1141.71,-253.84 1113.51,-240.7 1068.71,-216 1008.69,-182.9 814.7,-169.99 710.82,-165.35"/>
<polygon fill="black" stroke="black" points="710.9,-161.85 700.76,-164.92 710.59,-168.85 710.9,-161.85"/>
</g>
<!-- expression/Select&#45;&gt;expression/SQLFrom -->
<g id="edge6" class="edge">
<title>expression/Select&#45;&gt;expression/SQLFrom</title>
<path fill="none" stroke="black" d="M700.83,-166.4C806.6,-173.28 1024.25,-190.4 1046.71,-216 1110.48,-288.71 981.3,-383.71 913.13,-426.44"/>
<polygon fill="black" stroke="black" points="911.01,-423.64 904.34,-431.88 914.69,-429.6 911.01,-423.64"/>
</g>
<!-- expression/Select&#45;&gt;expression/SQLCond -->
<g id="edge10" class="edge">
<title>expression/Select&#45;&gt;expression/SQLCond</title>
<path fill="none" stroke="black" d="M586.73,-164.59C458.16,-168.75 154.31,-182.12 123.71,-216 112.98,-227.87 115.83,-238.07 123.71,-252 131.05,-264.99 143,-275.16 155.75,-282.95"/>
<polygon fill="black" stroke="black" points="154.23,-286.11 164.66,-287.97 157.67,-280.01 154.23,-286.11"/>
</g>
<!-- expression/Select&#45;&gt;expression/SQLFieldList -->
<g id="edge15" class="edge">
<title>expression/Select&#45;&gt;expression/SQLFieldList</title>
<path fill="none" stroke="black" d="M643.71,-143.7C643.71,-135.98 643.71,-126.71 643.71,-118.11"/>
<polygon fill="black" stroke="black" points="647.21,-118.1 643.71,-108.1 640.21,-118.1 647.21,-118.1"/>
</g>
<!-- expression/SQLCompare -->
<g id="node8" class="node">
<title>expression/SQLCompare</title>
<g id="a_node8"><a xlink:href="https://syntax.abaplint.org/#/expression/SQLCompare" xlink:title="expression/SQLCompare">
<polygon fill="none" stroke="black" points="290.23,-252 133.19,-252 133.19,-216 290.23,-216 290.23,-252"/>
<text text-anchor="middle" x="211.71" y="-229.8" font-family="Times,serif" font-size="14.00">expression/SQLCompare</text>
</a>
</g>
</g>
<!-- expression/SQLCompare&#45;&gt;expression/Select -->
<g id="edge7" class="edge">
<title>expression/SQLCompare&#45;&gt;expression/Select</title>
<path fill="none" stroke="black" d="M290.36,-217.65C293.52,-217.08 296.64,-216.53 299.71,-216 395.75,-199.33 507.35,-182.62 576.76,-172.55"/>
<polygon fill="black" stroke="black" points="577.29,-176.01 586.69,-171.11 576.29,-169.08 577.29,-176.01"/>
</g>
<!-- expression/SQLCond&#45;&gt;expression/SQLCompare -->
<g id="edge8" class="edge">
<title>expression/SQLCond&#45;&gt;expression/SQLCompare</title>
<path fill="none" stroke="black" d="M211.71,-287.7C211.71,-279.98 211.71,-270.71 211.71,-262.11"/>
<polygon fill="black" stroke="black" points="215.21,-262.1 211.71,-252.1 208.21,-262.1 215.21,-262.1"/>
</g>
<!-- expression/SQLCond&#45;&gt;expression/SQLCond -->
<g id="edge16" class="edge">
<title>expression/SQLCond&#45;&gt;expression/SQLCond</title>
<path fill="none" stroke="black" d="M280.05,-318.37C290.71,-316.52 297.98,-312.4 297.98,-306 297.98,-301.8 294.85,-298.58 289.68,-296.34"/>
<polygon fill="black" stroke="black" points="290.62,-292.97 280.05,-293.63 288.73,-299.71 290.62,-292.97"/>
</g>
<!-- expression/SQLCase&#45;&gt;expression/SQLCond -->
<g id="edge11" class="edge">
<title>expression/SQLCase&#45;&gt;expression/SQLCond</title>
<path fill="none" stroke="black" d="M65.4,-36.17C63.16,-77.63 62.92,-184.72 112.71,-252 122.5,-265.24 136.61,-275.51 151.12,-283.33"/>
<polygon fill="black" stroke="black" points="149.67,-286.52 160.17,-287.89 152.82,-280.27 149.67,-286.52"/>
</g>
<!-- expression/SQLFieldList&#45;&gt;expression/SQLCase -->
<g id="edge13" class="edge">
<title>expression/SQLFieldList&#45;&gt;expression/SQLCase</title>
<path fill="none" stroke="black" d="M565.29,-79.49C454.58,-66.06 253.74,-41.69 143.77,-28.35"/>
<polygon fill="black" stroke="black" points="144.09,-24.86 133.74,-27.13 143.25,-31.81 144.09,-24.86"/>
</g>
<!-- expression/SQLJoin&#45;&gt;expression/SQLFromSource -->
<g id="edge25" class="edge">
<title>expression/SQLJoin&#45;&gt;expression/SQLFromSource</title>
<path fill="none" stroke="black" d="M793.08,-359.7C798.42,-351.56 804.91,-341.69 810.82,-332.7"/>
<polygon fill="black" stroke="black" points="813.9,-334.38 816.47,-324.1 808.05,-330.54 813.9,-334.38"/>
</g>
<!-- expression/SQLJoin&#45;&gt;expression/SQLCond -->
<g id="edge17" class="edge">
<title>expression/SQLJoin&#45;&gt;expression/SQLCond</title>
<path fill="none" stroke="black" d="M717.01,-363.59C709.84,-362.29 702.63,-361.06 695.71,-360 553.42,-338.19 386.26,-321.94 290.28,-313.51"/>
<polygon fill="black" stroke="black" points="290.35,-310 280.08,-312.62 289.74,-316.97 290.35,-310"/>
</g>
<!-- statement/DeleteDatabase -->
<g id="node13" class="node">
<title>statement/DeleteDatabase</title>
<g id="a_node13"><a xlink:href="https://syntax.abaplint.org/#/statement/DeleteDatabase" xlink:title="statement/DeleteDatabase">
<polygon fill="none" stroke="black" points="340.39,-383.56 202.71,-396 65.03,-383.56 65.16,-363.44 340.26,-363.44 340.39,-383.56"/>
<text text-anchor="middle" x="202.71" y="-373.8" font-family="Times,serif" font-size="14.00">statement/DeleteDatabase</text>
</a>
</g>
</g>
<!-- statement/DeleteDatabase&#45;&gt;expression/SQLCond -->
<g id="edge19" class="edge">
<title>statement/DeleteDatabase&#45;&gt;expression/SQLCond</title>
<path fill="none" stroke="black" d="M204.48,-363.17C205.56,-354.83 206.96,-343.92 208.24,-333.94"/>
<polygon fill="black" stroke="black" points="211.71,-334.38 209.52,-324.02 204.77,-333.49 211.71,-334.38"/>
</g>
<!-- statement/UpdateDatabase -->
<g id="node14" class="node">
<title>statement/UpdateDatabase</title>
<g id="a_node14"><a xlink:href="https://syntax.abaplint.org/#/statement/UpdateDatabase" xlink:title="statement/UpdateDatabase">
<polygon fill="none" stroke="black" points="639.53,-383.56 498.71,-396 357.89,-383.56 358.02,-363.44 639.4,-363.44 639.53,-383.56"/>
<text text-anchor="middle" x="498.71" y="-373.8" font-family="Times,serif" font-size="14.00">statement/UpdateDatabase</text>
</a>
</g>
</g>
<!-- statement/UpdateDatabase&#45;&gt;expression/SQLCond -->
<g id="edge20" class="edge">
<title>statement/UpdateDatabase&#45;&gt;expression/SQLCond</title>
<path fill="none" stroke="black" d="M443.03,-363.42C399.41,-352.78 338.21,-337.85 289.71,-326.03"/>
<polygon fill="black" stroke="black" points="290.42,-322.6 279.88,-323.63 288.76,-329.4 290.42,-322.6"/>
</g>
<!-- statement/Select -->
<g id="node15" class="node">
<title>statement/Select</title>
<g id="a_node15"><a xlink:href="https://syntax.abaplint.org/#/statement/Select" xlink:title="statement/Select">
<polygon fill="none" stroke="black" points="492.44,-239.56 400.71,-252 308.97,-239.56 309.05,-219.44 492.36,-219.44 492.44,-239.56"/>
<text text-anchor="middle" x="400.71" y="-229.8" font-family="Times,serif" font-size="14.00">statement/Select</text>
</a>
</g>
</g>
<!-- statement/Select&#45;&gt;expression/Select -->
<g id="edge21" class="edge">
<title>statement/Select&#45;&gt;expression/Select</title>
<path fill="none" stroke="black" d="M447.85,-219.42C484.52,-208.86 535.87,-194.06 576.8,-182.27"/>
<polygon fill="black" stroke="black" points="577.79,-185.63 586.43,-179.5 575.85,-178.91 577.79,-185.63"/>
</g>
<!-- statement/InsertDatabase -->
<g id="node16" class="node">
<title>statement/InsertDatabase</title>
<g id="a_node16"><a xlink:href="https://syntax.abaplint.org/#/statement/InsertDatabase" xlink:title="statement/InsertDatabase">
<polygon fill="none" stroke="black" points="777.44,-239.56 643.71,-252 509.97,-239.56 510.1,-219.44 777.31,-219.44 777.44,-239.56"/>
<text text-anchor="middle" x="643.71" y="-229.8" font-family="Times,serif" font-size="14.00">statement/InsertDatabase</text>
</a>
</g>
</g>
<!-- statement/InsertDatabase&#45;&gt;expression/Select -->
<g id="edge23" class="edge">
<title>statement/InsertDatabase&#45;&gt;expression/Select</title>
<path fill="none" stroke="black" d="M643.71,-219.17C643.71,-210.92 643.71,-200.15 643.71,-190.26"/>
<polygon fill="black" stroke="black" points="647.21,-190.02 643.71,-180.02 640.21,-190.02 647.21,-190.02"/>
</g>
<!-- statement/OpenCursor -->
<g id="node17" class="node">
<title>statement/OpenCursor</title>
<g id="a_node17"><a xlink:href="https://syntax.abaplint.org/#/statement/OpenCursor" xlink:title="statement/OpenCursor">
<polygon fill="none" stroke="black" points="1037.79,-239.56 916.71,-252 795.62,-239.56 795.74,-219.44 1037.68,-219.44 1037.79,-239.56"/>
<text text-anchor="middle" x="916.71" y="-229.8" font-family="Times,serif" font-size="14.00">statement/OpenCursor</text>
</a>
</g>
</g>
<!-- statement/OpenCursor&#45;&gt;expression/Select -->
<g id="edge24" class="edge">
<title>statement/OpenCursor&#45;&gt;expression/Select</title>
<path fill="none" stroke="black" d="M863.75,-219.42C820.03,-208.21 757.73,-192.24 710.58,-180.15"/>
<polygon fill="black" stroke="black" points="711.31,-176.72 700.76,-177.63 709.58,-183.5 711.31,-176.72"/>
</g>
</g>
</svg>
