<?xml version="1.0" encoding="UTF-8" standalone="no"?>
<!DOCTYPE svg PUBLIC "-//W3C//DTD SVG 1.1//EN"
 "http://www.w3.org/Graphics/SVG/1.1/DTD/svg11.dtd">
<!-- Generated by graphviz version 2.47.3 (20210619.1520)
 -->
<!-- Title: G Pages: 1 -->
<svg width="384pt" height="141pt"
 viewBox="0.00 0.00 384.10 140.80" xmlns="http://www.w3.org/2000/svg" xmlns:xlink="http://www.w3.org/1999/xlink">
<g id="graph0" class="graph" transform="scale(1 1) rotate(0) translate(4 136.8)">
<title>G</title>
<polygon fill="white" stroke="transparent" points="-4,4 -4,-136.8 380.1,-136.8 380.1,4 -4,4"/>
<text text-anchor="middle" x="129.87" y="-116.2" font-family="Times,serif" font-size="14.00">Where used, expression/WriteOffsetLength</text>
<!-- expression/WriteOffsetLength -->
<g id="node1" class="node">
<title>expression/WriteOffsetLength</title>
<g id="a_node1"><a xlink:href="https://syntax.abaplint.org/#/expression/WriteOffsetLength" xlink:title="expression/WriteOffsetLength">
<polygon fill="none" stroke="black" points="281.14,-36 94.61,-36 94.61,0 281.14,0 281.14,-36"/>
<text text-anchor="middle" x="187.88" y="-13.8" font-family="Times,serif" font-size="14.00">expression/WriteOffsetLength</text>
</a>
</g>
</g>
<!-- statement/Write -->
<g id="node2" class="node">
<title>statement/Write</title>
<g id="a_node2"><a xlink:href="https://syntax.abaplint.org/#/statement/Write" xlink:title="statement/Write">
<polygon fill="none" stroke="black" points="179.63,-95.56 89.88,-108 0.12,-95.56 0.21,-75.44 179.55,-75.44 179.63,-95.56"/>
<text text-anchor="middle" x="89.88" y="-85.8" font-family="Times,serif" font-size="14.00">statement/Write</text>
</a>
</g>
</g>
<!-- statement/Write&#45;&gt;expression/WriteOffsetLength -->
<g id="edge1" class="edge">
<title>statement/Write&#45;&gt;expression/WriteOffsetLength</title>
<path fill="none" stroke="black" d="M109.24,-75.17C122.51,-65.69 140.43,-52.89 155.81,-41.9"/>
<polygon fill="black" stroke="black" points="157.95,-44.68 164.05,-36.02 153.88,-38.98 157.95,-44.68"/>
</g>
<!-- statement/Uline -->
<g id="node3" class="node">
<title>statement/Uline</title>
<g id="a_node3"><a xlink:href="https://syntax.abaplint.org/#/statement/Uline" xlink:title="statement/Uline">
<polygon fill="none" stroke="black" points="376.32,-95.56 286.88,-108 197.43,-95.56 197.52,-75.44 376.24,-75.44 376.32,-95.56"/>
<text text-anchor="middle" x="286.88" y="-85.8" font-family="Times,serif" font-size="14.00">statement/Uline</text>
</a>
</g>
</g>
<!-- statement/Uline&#45;&gt;expression/WriteOffsetLength -->
<g id="edge2" class="edge">
<title>statement/Uline&#45;&gt;expression/WriteOffsetLength</title>
<path fill="none" stroke="black" d="M267.32,-75.17C253.91,-65.69 235.81,-52.89 220.27,-41.9"/>
<polygon fill="black" stroke="black" points="222.13,-38.93 211.95,-36.02 218.09,-44.65 222.13,-38.93"/>
</g>
</g>
</svg>
