<svg xmlns="http://www.w3.org/2000/svg" xmlns:xlink="http://www.w3.org/1999/xlink" class="railroad-diagram" width="1095.5" height="170" viewBox="0 0 1095.5 170">
<defs>
<style type="text/css"><![CDATA[
path {
stroke-width: 3;
stroke: black;
fill: rgba(0,0,0,0);
}
text {
font: bold 14px monospace;
text-anchor: middle;
}
text.diagram-text {
font-size: 12px;
}
a {
fill: blue;
}
text.diagram-arrow {
font-size: 16px;
}
text.label {
text-anchor: start;
}
text.comment {
font: italic 12px monospace;
}
rect {
stroke-width: 3;
stroke: black;
fill: #BCBCBC;
}
path.diagram-text {
stroke-width: 3;
stroke: black;
fill: #BCBCBC;
cursor: help;
}
]]></style>
</defs>
<g transform="translate(.5 .5)">
<g>
<path d="M20 30v20m10 -20v20m-10 -10h20"></path>
</g>
<path d="M40 40h10"></path>
<g>
<path d="M50 40h0"></path>
<path d="M1045.5 40h0"></path>
<g class="terminal">
<path d="M50 40h0"></path>
<path d="M129.5 40h0"></path>
<rect x="50" y="29" width="79.5" height="22" rx="10" ry="10"></rect>
<text x="89.75" y="44">"SPLIT"</text>
</g>
<path d="M129.5 40h10"></path>
<path d="M139.5 40h10"></path>
<g class="non-terminal">
<path d="M149.5 40h0"></path>
<path d="M220.5 40h0"></path>
<rect x="149.5" y="29" width="71" height="22"></rect>
<a xlink:href="#/expression/Source"><text x="185" y="44">Source</text>
</a>
</g>
<path d="M220.5 40h10"></path>
<path d="M230.5 40h10"></path>
<g class="terminal">
<path d="M240.5 40h0"></path>
<path d="M294.5 40h0"></path>
<rect x="240.5" y="29" width="54" height="22" rx="10" ry="10"></rect>
<text x="267.5" y="44">"AT"</text>
</g>
<path d="M294.5 40h10"></path>
<path d="M304.5 40h10"></path>
<g class="non-terminal">
<path d="M314.5 40h0"></path>
<path d="M385.5 40h0"></path>
<rect x="314.5" y="29" width="71" height="22"></rect>
<a xlink:href="#/expression/Source"><text x="350" y="44">Source</text>
</a>
</g>
<path d="M385.5 40h10"></path>
<path d="M395.5 40h10"></path>
<g class="terminal">
<path d="M405.5 40h0"></path>
<path d="M476.5 40h0"></path>
<rect x="405.5" y="29" width="71" height="22" rx="10" ry="10"></rect>
<text x="441" y="44">"INTO"</text>
</g>
<path d="M476.5 40h10"></path>
<g>
<path d="M486.5 40h0"></path>
<path d="M1045.5 40h0"></path>
<path d="M486.5 40h20"></path>
<g>
<path d="M506.5 40h0"></path>
<path d="M1025.5 40h0"></path>
<g class="terminal">
<path d="M506.5 40h0"></path>
<path d="M586 40h0"></path>
<rect x="506.5" y="29" width="79.5" height="22" rx="10" ry="10"></rect>
<text x="546.25" y="44">"TABLE"</text>
</g>
<path d="M586 40h10"></path>
<path d="M596 40h10"></path>
<g class="non-terminal">
<path d="M606 40h0"></path>
<path d="M677 40h0"></path>
<rect x="606" y="29" width="71" height="22"></rect>
<a xlink:href="#/expression/Target"><text x="641.5" y="44">Target</text>
</a>
</g>
<path d="M677 40h10"></path>
<g>
<path d="M687 40h0"></path>
<path d="M1025.5 40h0"></path>
<path d="M687 40a10 10 0 0 0 10 -10v0a10 10 0 0 1 10 -10"></path>
<g>
<path d="M707 20h298.5"></path>
</g>
<path d="M1005.5 20a10 10 0 0 1 10 10v0a10 10 0 0 0 10 10"></path>
<path d="M687 40h20"></path>
<g>
<path d="M707 40h0"></path>
<path d="M1005.5 40h0"></path>
<g class="terminal">
<path d="M707 40h0"></path>
<path d="M761 40h0"></path>
<rect x="707" y="29" width="54" height="22" rx="10" ry="10"></rect>
<text x="734" y="44">"IN"</text>
</g>
<path d="M761 40h10"></path>
<g>
<path d="M771 40h0"></path>
<path d="M924.5 40h0"></path>
<path d="M771 40h20"></path>
<g class="terminal">
<path d="M791 40h0"></path>
<path d="M904.5 40h0"></path>
<rect x="791" y="29" width="113.5" height="22" rx="10" ry="10"></rect>
<text x="847.75" y="44">"CHARACTER"</text>
</g>
<path d="M904.5 40h20"></path>
<path d="M771 40a10 10 0 0 1 10 10v10a10 10 0 0 0 10 10"></path>
<g class="terminal">
<path d="M791 70h0"></path>
<path d="M862 70h42.5"></path>
<rect x="791" y="59" width="71" height="22" rx="10" ry="10"></rect>
<text x="826.5" y="74">"BYTE"</text>
</g>
<path d="M904.5 70a10 10 0 0 0 10 -10v-10a10 10 0 0 1 10 -10"></path>
</g>
<path d="M924.5 40h10"></path>
<g class="terminal">
<path d="M934.5 40h0"></path>
<path d="M1005.5 40h0"></path>
<rect x="934.5" y="29" width="71" height="22" rx="10" ry="10"></rect>
<text x="970" y="44">"MODE"</text>
</g>
</g>
<path d="M1005.5 40h20"></path>
</g>
</g>
<path d="M1025.5 40h20"></path>
<path d="M486.5 40a10 10 0 0 1 10 10v49a10 10 0 0 0 10 10"></path>
<g>
<path d="M506.5 109h0"></path>
<path d="M946 109h79.5"></path>
<g>
<path d="M506.5 109h0"></path>
<path d="M597.5 109h0"></path>
<path d="M506.5 109h10"></path>
<g class="non-terminal">
<path d="M516.5 109h0"></path>
<path d="M587.5 109h0"></path>
<rect x="516.5" y="98" width="71" height="22"></rect>
<a xlink:href="#/expression/Target"><text x="552" y="113">Target</text>
</a>
</g>
<path d="M587.5 109h10"></path>
<path d="M516.5 109a10 10 0 0 0 -10 10v0a10 10 0 0 0 10 10"></path>
<g>
<path d="M516.5 129h71"></path>
</g>
<path d="M587.5 129a10 10 0 0 0 10 -10v0a10 10 0 0 0 -10 -10"></path>
</g>
<path d="M597.5 109h10"></path>
<g>
<path d="M607.5 109h0"></path>
<path d="M946 109h0"></path>
<path d="M607.5 109a10 10 0 0 0 10 -10v0a10 10 0 0 1 10 -10"></path>
<g>
<path d="M627.5 89h298.5"></path>
</g>
<path d="M926 89a10 10 0 0 1 10 10v0a10 10 0 0 0 10 10"></path>
<path d="M607.5 109h20"></path>
<g>
<path d="M627.5 109h0"></path>
<path d="M926 109h0"></path>
<g class="terminal">
<path d="M627.5 109h0"></path>
<path d="M681.5 109h0"></path>
<rect x="627.5" y="98" width="54" height="22" rx="10" ry="10"></rect>
<text x="654.5" y="113">"IN"</text>
</g>
<path d="M681.5 109h10"></path>
<g>
<path d="M691.5 109h0"></path>
<path d="M845 109h0"></path>
<path d="M691.5 109h20"></path>
<g class="terminal">
<path d="M711.5 109h0"></path>
<path d="M825 109h0"></path>
<rect x="711.5" y="98" width="113.5" height="22" rx="10" ry="10"></rect>
<text x="768.25" y="113">"CHARACTER"</text>
</g>
<path d="M825 109h20"></path>
<path d="M691.5 109a10 10 0 0 1 10 10v10a10 10 0 0 0 10 10"></path>
<g class="terminal">
<path d="M711.5 139h0"></path>
<path d="M782.5 139h42.5"></path>
<rect x="711.5" y="128" width="71" height="22" rx="10" ry="10"></rect>
<text x="747" y="143">"BYTE"</text>
</g>
<path d="M825 139a10 10 0 0 0 10 -10v-10a10 10 0 0 1 10 -10"></path>
</g>
<path d="M845 109h10"></path>
<g class="terminal">
<path d="M855 109h0"></path>
<path d="M926 109h0"></path>
<rect x="855" y="98" width="71" height="22" rx="10" ry="10"></rect>
<text x="890.5" y="113">"MODE"</text>
</g>
</g>
<path d="M926 109h20"></path>
</g>
</g>
<path d="M1025.5 109a10 10 0 0 0 10 -10v-49a10 10 0 0 1 10 -10"></path>
</g>
</g>
<path d="M1045.5 40h10"></path>
<path d="M 1055.5 40 h 20 m -10 -10 v 20 m 10 -20 v 20"></path>
</g>
</svg>
