<svg xmlns="http://www.w3.org/2000/svg" xmlns:xlink="http://www.w3.org/1999/xlink" class="railroad-diagram" width="1169" height="80" viewBox="0 0 1169 80">
<defs>
<style type="text/css"><![CDATA[
path {
stroke-width: 3;
stroke: black;
fill: rgba(0,0,0,0);
}
text {
font: bold 14px monospace;
text-anchor: middle;
}
text.diagram-text {
font-size: 12px;
}
a {
fill: blue;
}
text.diagram-arrow {
font-size: 16px;
}
text.label {
text-anchor: start;
}
text.comment {
font: italic 12px monospace;
}
rect {
stroke-width: 3;
stroke: black;
fill: #BCBCBC;
}
path.diagram-text {
stroke-width: 3;
stroke: black;
fill: #BCBCBC;
cursor: help;
}
]]></style>
</defs>
<g transform="translate(.5 .5)">
<g>
<path d="M20 30v20m10 -20v20m-10 -10h20"></path>
</g>
<path d="M40 40h10"></path>
<g>
<path d="M50 40h0"></path>
<path d="M1119 40h0"></path>
<g class="terminal">
<path d="M50 40h0"></path>
<path d="M138 40h0"></path>
<rect x="50" y="29" width="88" height="22" rx="10" ry="10"></rect>
<text x="94" y="44">"ASSERT"</text>
</g>
<path d="M138 40h10"></path>
<g>
<path d="M148 40h0"></path>
<path d="M443.5 40h0"></path>
<path d="M148 40a10 10 0 0 0 10 -10v0a10 10 0 0 1 10 -10"></path>
<g>
<path d="M168 20h255.5"></path>
</g>
<path d="M423.5 20a10 10 0 0 1 10 10v0a10 10 0 0 0 10 10"></path>
<path d="M148 40h20"></path>
<g>
<path d="M168 40h0"></path>
<path d="M423.5 40h0"></path>
<g class="terminal">
<path d="M168 40h0"></path>
<path d="M222 40h0"></path>
<rect x="168" y="29" width="54" height="22" rx="10" ry="10"></rect>
<text x="195" y="44">"ID"</text>
</g>
<path d="M222 40h10"></path>
<path d="M232 40h10"></path>
<g class="non-terminal">
<path d="M242 40h0"></path>
<path d="M423.5 40h0"></path>
<rect x="242" y="29" width="181.5" height="22"></rect>
<a xlink:href="#/expression/NamespaceSimpleName"><text x="332.75" y="44">NamespaceSimpleName</text>
</a>
</g>
</g>
<path d="M423.5 40h20"></path>
</g>
<g>
<path d="M443.5 40h0"></path>
<path d="M662.5 40h0"></path>
<path d="M443.5 40a10 10 0 0 0 10 -10v0a10 10 0 0 1 10 -10"></path>
<g>
<path d="M463.5 20h179"></path>
</g>
<path d="M642.5 20a10 10 0 0 1 10 10v0a10 10 0 0 0 10 10"></path>
<path d="M443.5 40h20"></path>
<g>
<path d="M463.5 40h0"></path>
<path d="M642.5 40h0"></path>
<g class="terminal">
<path d="M463.5 40h0"></path>
<path d="M551.5 40h0"></path>
<rect x="463.5" y="29" width="88" height="22" rx="10" ry="10"></rect>
<text x="507.5" y="44">"SUBKEY"</text>
</g>
<path d="M551.5 40h10"></path>
<path d="M561.5 40h10"></path>
<g class="non-terminal">
<path d="M571.5 40h0"></path>
<path d="M642.5 40h0"></path>
<rect x="571.5" y="29" width="71" height="22"></rect>
<a xlink:href="#/expression/Source"><text x="607" y="44">Source</text>
</a>
</g>
</g>
<path d="M642.5 40h20"></path>
</g>
<g>
<path d="M662.5 40h0"></path>
<path d="M901.5 40h0"></path>
<path d="M662.5 40a10 10 0 0 0 10 -10v0a10 10 0 0 1 10 -10"></path>
<g>
<path d="M682.5 20h199"></path>
</g>
<path d="M881.5 20a10 10 0 0 1 10 10v0a10 10 0 0 0 10 10"></path>
<path d="M662.5 40h20"></path>
<g>
<path d="M682.5 40h0"></path>
<path d="M881.5 40h0"></path>
<g class="terminal">
<path d="M682.5 40h0"></path>
<path d="M770.5 40h0"></path>
<rect x="682.5" y="29" width="88" height="22" rx="10" ry="10"></rect>
<text x="726.5" y="44">"FIELDS"</text>
</g>
<path d="M770.5 40h10"></path>
<path d="M780.5 40h10"></path>
<g>
<path d="M790.5 40h0"></path>
<path d="M881.5 40h0"></path>
<path d="M790.5 40h10"></path>
<g class="non-terminal">
<path d="M800.5 40h0"></path>
<path d="M871.5 40h0"></path>
<rect x="800.5" y="29" width="71" height="22"></rect>
<a xlink:href="#/expression/Source"><text x="836" y="44">Source</text>
</a>
</g>
<path d="M871.5 40h10"></path>
<path d="M800.5 40a10 10 0 0 0 -10 10v0a10 10 0 0 0 10 10"></path>
<g>
<path d="M800.5 60h71"></path>
</g>
<path d="M871.5 60a10 10 0 0 0 10 -10v0a10 10 0 0 0 -10 -10"></path>
</g>
</g>
<path d="M881.5 40h20"></path>
</g>
<g>
<path d="M901.5 40h0"></path>
<path d="M1055 40h0"></path>
<path d="M901.5 40a10 10 0 0 0 10 -10v0a10 10 0 0 1 10 -10"></path>
<g>
<path d="M921.5 20h113.5"></path>
</g>
<path d="M1035 20a10 10 0 0 1 10 10v0a10 10 0 0 0 10 10"></path>
<path d="M901.5 40h20"></path>
<g class="terminal">
<path d="M921.5 40h0"></path>
<path d="M1035 40h0"></path>
<rect x="921.5" y="29" width="113.5" height="22" rx="10" ry="10"></rect>
<text x="978.25" y="44">"CONDITION"</text>
</g>
<path d="M1035 40h20"></path>
</g>
<path d="M1055 40h10"></path>
<g class="non-terminal">
<path d="M1065 40h0"></path>
<path d="M1119 40h0"></path>
<rect x="1065" y="29" width="54" height="22"></rect>
<a xlink:href="#/expression/Cond"><text x="1092" y="44">Cond</text>
</a>
</g>
</g>
<path d="M1119 40h10"></path>
<path d="M 1129 40 h 20 m -10 -10 v 20 m 10 -20 v 20"></path>
</g>
</svg>
