<svg xmlns="http://www.w3.org/2000/svg" xmlns:xlink="http://www.w3.org/1999/xlink" class="railroad-diagram" width="764.5" height="71" viewBox="0 0 764.5 71">
<defs>
<style type="text/css"><![CDATA[
path {
stroke-width: 3;
stroke: black;
fill: rgba(0,0,0,0);
}
text {
font: bold 14px monospace;
text-anchor: middle;
}
text.diagram-text {
font-size: 12px;
}
a {
fill: blue;
}
text.diagram-arrow {
font-size: 16px;
}
text.label {
text-anchor: start;
}
text.comment {
font: italic 12px monospace;
}
rect {
stroke-width: 3;
stroke: black;
fill: #BCBCBC;
}
path.diagram-text {
stroke-width: 3;
stroke: black;
fill: #BCBCBC;
cursor: help;
}
]]></style>
</defs>
<g transform="translate(.5 .5)">
<g>
<path d="M20 21v20m10 -20v20m-10 -10h20"></path>
</g>
<path d="M40 31h10"></path>
<g>
<path d="M50 31h0"></path>
<path d="M714.5 31h0"></path>
<g>
<path d="M50 31h0"></path>
<path d="M123 31h0"></path>
<text x="86.5" y="36" class="comment">not Cloud</text>
</g>
<path d="M123 31h10"></path>
<path d="M133 31h10"></path>
<g>
<path d="M143 31h0"></path>
<path d="M714.5 31h0"></path>
<g class="terminal">
<path d="M143 31h0"></path>
<path d="M231 31h0"></path>
<rect x="143" y="20" width="88" height="22" rx="10" ry="10"></rect>
<text x="187" y="35">"SUPPLY"</text>
</g>
<path d="M231 31h10"></path>
<path d="M241 31h10"></path>
<g>
<path d="M251 31h0"></path>
<path d="M490 31h0"></path>
<path d="M251 31h10"></path>
<g>
<path d="M261 31h0"></path>
<path d="M480 31h0"></path>
<g class="non-terminal">
<path d="M261 31h0"></path>
<path d="M323.5 31h0"></path>
<rect x="261" y="20" width="62.5" height="22"></rect>
<a xlink:href="#/expression/Field"><text x="292.25" y="35">Field</text>
</a>
</g>
<path d="M323.5 31h10"></path>
<path d="M333.5 31h10"></path>
<g class="terminal">
<path d="M343.5 31h0"></path>
<path d="M389 31h0"></path>
<rect x="343.5" y="20" width="45.5" height="22" rx="10" ry="10"></rect>
<text x="366.25" y="35">"="</text>
</g>
<path d="M389 31h10"></path>
<path d="M399 31h10"></path>
<g class="non-terminal">
<path d="M409 31h0"></path>
<path d="M480 31h0"></path>
<rect x="409" y="20" width="71" height="22"></rect>
<a xlink:href="#/expression/Source"><text x="444.5" y="35">Source</text>
</a>
</g>
</g>
<path d="M480 31h10"></path>
<path d="M261 31a10 10 0 0 0 -10 10v0a10 10 0 0 0 10 10"></path>
<g>
<path d="M261 51h219"></path>
</g>
<path d="M480 51a10 10 0 0 0 10 -10v0a10 10 0 0 0 -10 -10"></path>
</g>
<path d="M490 31h10"></path>
<path d="M500 31h10"></path>
<g class="terminal">
<path d="M510 31h0"></path>
<path d="M632 31h0"></path>
<rect x="510" y="20" width="122" height="22" rx="10" ry="10"></rect>
<text x="571" y="35">"TO CONTEXT"</text>
</g>
<path d="M632 31h10"></path>
<path d="M642 31h10"></path>
<g class="non-terminal">
<path d="M652 31h0"></path>
<path d="M714.5 31h0"></path>
<rect x="652" y="20" width="62.5" height="22"></rect>
<a xlink:href="#/expression/Field"><text x="683.25" y="35">Field</text>
</a>
</g>
</g>
</g>
<path d="M714.5 31h10"></path>
<path d="M 724.5 31 h 20 m -10 -10 v 20 m 10 -20 v 20"></path>
</g>
</svg>
