<svg xmlns="http://www.w3.org/2000/svg" xmlns:xlink="http://www.w3.org/1999/xlink" class="railroad-diagram" width="875.5" height="701" viewBox="0 0 875.5 701">
<defs>
<style type="text/css"><![CDATA[
path {
stroke-width: 3;
stroke: black;
fill: rgba(0,0,0,0);
}
text {
font: bold 14px monospace;
text-anchor: middle;
}
text.diagram-text {
font-size: 12px;
}
a {
fill: blue;
}
text.diagram-arrow {
font-size: 16px;
}
text.label {
text-anchor: start;
}
text.comment {
font: italic 12px monospace;
}
rect {
stroke-width: 3;
stroke: black;
fill: #BCBCBC;
}
path.diagram-text {
stroke-width: 3;
stroke: black;
fill: #BCBCBC;
cursor: help;
}
]]></style>
</defs>
<g transform="translate(.5 .5)">
<g>
<path d="M20 21v20m10 -20v20m-10 -10h20"></path>
</g>
<path d="M40 31h10"></path>
<g>
<path d="M50 31h0"></path>
<path d="M825.5 31h0"></path>
<g>
<path d="M50 31h0"></path>
<path d="M123 31h0"></path>
<text x="86.5" y="36" class="comment">not Cloud</text>
</g>
<path d="M123 31h10"></path>
<path d="M133 31h10"></path>
<g>
<path d="M143 31h0"></path>
<path d="M825.5 31h0"></path>
<g class="terminal">
<path d="M143 31h0"></path>
<path d="M282 31h0"></path>
<rect x="143" y="20" width="139" height="22" rx="10" ry="10"></rect>
<text x="212.5" y="35">"OPEN DATASET"</text>
</g>
<path d="M282 31h10"></path>
<path d="M292 31h10"></path>
<g class="non-terminal">
<path d="M302 31h0"></path>
<path d="M373 31h0"></path>
<rect x="302" y="20" width="71" height="22"></rect>
<a xlink:href="#/expression/Source"><text x="337.5" y="35">Source</text>
</a>
</g>
<path d="M373 31h10"></path>
<path d="M383 31h10"></path>
<g>
<path d="M393 31h0"></path>
<path d="M825.5 31h0"></path>
<path d="M423 31h10"></path>
<g>
<path d="M433 31h0"></path>
<path d="M659 31h136.5"></path>
<g class="terminal">
<path d="M433 31h0"></path>
<path d="M495.5 31h0"></path>
<rect x="433" y="20" width="62.5" height="22" rx="10" ry="10"></rect>
<text x="464.25" y="35">"FOR"</text>
</g>
<path d="M495.5 31h10"></path>
<g>
<path d="M505.5 31h0"></path>
<path d="M659 31h0"></path>
<path d="M505.5 31h20"></path>
<g class="terminal">
<path d="M525.5 31h0"></path>
<path d="M613.5 31h25.5"></path>
<rect x="525.5" y="20" width="88" height="22" rx="10" ry="10"></rect>
<text x="569.5" y="35">"OUTPUT"</text>
</g>
<path d="M639 31h20"></path>
<path d="M505.5 31a10 10 0 0 1 10 10v10a10 10 0 0 0 10 10"></path>
<g class="terminal">
<path d="M525.5 61h0"></path>
<path d="M605 61h34"></path>
<rect x="525.5" y="50" width="79.5" height="22" rx="10" ry="10"></rect>
<text x="565.25" y="65">"INPUT"</text>
</g>
<path d="M639 61a10 10 0 0 0 10 -10v-10a10 10 0 0 1 10 -10"></path>
<path d="M505.5 31a10 10 0 0 1 10 10v40a10 10 0 0 0 10 10"></path>
<g class="terminal">
<path d="M525.5 91h0"></path>
<path d="M613.5 91h25.5"></path>
<rect x="525.5" y="80" width="88" height="22" rx="10" ry="10"></rect>
<text x="569.5" y="95">"UPDATE"</text>
</g>
<path d="M639 91a10 10 0 0 0 10 -10v-40a10 10 0 0 1 10 -10"></path>
<path d="M505.5 31a10 10 0 0 1 10 10v70a10 10 0 0 0 10 10"></path>
<g class="terminal">
<path d="M525.5 121h0"></path>
<path d="M639 121h0"></path>
<rect x="525.5" y="110" width="113.5" height="22" rx="10" ry="10"></rect>
<text x="582.25" y="125">"APPENDING"</text>
</g>
<path d="M639 121a10 10 0 0 0 10 -10v-70a10 10 0 0 1 10 -10"></path>
</g>
</g>
<path d="M795.5 31h10"></path>
<path d="M423 31v110a10 10 0 0 0 10 10"></path>
<g>
<path d="M433 151h0"></path>
<path d="M595 151h200.5"></path>
<g class="terminal">
<path d="M433 151h0"></path>
<path d="M504 151h0"></path>
<rect x="433" y="140" width="71" height="22" rx="10" ry="10"></rect>
<text x="468.5" y="155">"TYPE"</text>
</g>
<path d="M504 151h10"></path>
<path d="M514 151h10"></path>
<g class="non-terminal">
<path d="M524 151h0"></path>
<path d="M595 151h0"></path>
<rect x="524" y="140" width="71" height="22"></rect>
<a xlink:href="#/expression/Source"><text x="559.5" y="155">Source</text>
</a>
</g>
</g>
<path d="M795.5 151a10 10 0 0 0 10 -10v-110"></path>
<path d="M423 31v149a10 10 0 0 0 10 10"></path>
<g>
<path d="M433 190h0"></path>
<path d="M795.5 190h0"></path>
<g class="terminal">
<path d="M433 190h0"></path>
<path d="M487 190h0"></path>
<rect x="433" y="179" width="54" height="22" rx="10" ry="10"></rect>
<text x="460" y="194">"IN"</text>
</g>
<path d="M487 190h10"></path>
<g>
<path d="M497 190h0"></path>
<path d="M625 190h0"></path>
<path d="M497 190a10 10 0 0 0 10 -10v0a10 10 0 0 1 10 -10"></path>
<g>
<path d="M517 170h88"></path>
</g>
<path d="M605 170a10 10 0 0 1 10 10v0a10 10 0 0 0 10 10"></path>
<path d="M497 190h20"></path>
<g class="terminal">
<path d="M517 190h0"></path>
<path d="M605 190h0"></path>
<rect x="517" y="179" width="88" height="22" rx="10" ry="10"></rect>
<text x="561" y="194">"LEGACY"</text>
</g>
<path d="M605 190h20"></path>
</g>
<g>
<path d="M625 190h0"></path>
<path d="M795.5 190h0"></path>
<path d="M625 190h20"></path>
<g class="terminal">
<path d="M645 190h0"></path>
<path d="M775.5 190h0"></path>
<rect x="645" y="179" width="130.5" height="22" rx="10" ry="10"></rect>
<text x="710.25" y="194">"BINARY MODE"</text>
</g>
<path d="M775.5 190h20"></path>
<path d="M625 190a10 10 0 0 1 10 10v10a10 10 0 0 0 10 10"></path>
<g class="terminal">
<path d="M645 220h0"></path>
<path d="M758.5 220h17"></path>
<rect x="645" y="209" width="113.5" height="22" rx="10" ry="10"></rect>
<text x="701.75" y="224">"TEXT MODE"</text>
</g>
<path d="M775.5 220a10 10 0 0 0 10 -10v-10a10 10 0 0 1 10 -10"></path>
</g>
</g>
<path d="M795.5 190a10 10 0 0 0 10 -10v-149"></path>
<path d="M423 31v209a10 10 0 0 0 10 10"></path>
<g class="terminal">
<path d="M433 250h0"></path>
<path d="M640 250h155.5"></path>
<rect x="433" y="239" width="207" height="22" rx="10" ry="10"></rect>
<text x="536.5" y="254">"WITH BYTE-ORDER MARK"</text>
</g>
<path d="M795.5 250a10 10 0 0 0 10 -10v-209"></path>
<path d="M423 31v239a10 10 0 0 0 10 10"></path>
<g>
<path d="M433 280h0"></path>
<path d="M739.5 280h56"></path>
<g class="terminal">
<path d="M433 280h0"></path>
<path d="M648.5 280h0"></path>
<rect x="433" y="269" width="215.5" height="22" rx="10" ry="10"></rect>
<text x="540.75" y="284">"REPLACEMENT CHARACTER"</text>
</g>
<path d="M648.5 280h10"></path>
<path d="M658.5 280h10"></path>
<g class="non-terminal">
<path d="M668.5 280h0"></path>
<path d="M739.5 280h0"></path>
<rect x="668.5" y="269" width="71" height="22"></rect>
<a xlink:href="#/expression/Source"><text x="704" y="284">Source</text>
</a>
</g>
</g>
<path d="M795.5 280a10 10 0 0 0 10 -10v-239"></path>
<path d="M423 31v269a10 10 0 0 0 10 10"></path>
<g>
<path d="M433 310h0"></path>
<path d="M612 310h183.5"></path>
<g class="terminal">
<path d="M433 310h0"></path>
<path d="M521 310h0"></path>
<rect x="433" y="299" width="88" height="22" rx="10" ry="10"></rect>
<text x="477" y="314">"FILTER"</text>
</g>
<path d="M521 310h10"></path>
<path d="M531 310h10"></path>
<g class="non-terminal">
<path d="M541 310h0"></path>
<path d="M612 310h0"></path>
<rect x="541" y="299" width="71" height="22"></rect>
<a xlink:href="#/expression/Source"><text x="576.5" y="314">Source</text>
</a>
</g>
</g>
<path d="M795.5 310a10 10 0 0 0 10 -10v-269"></path>
<path d="M423 31v299a10 10 0 0 0 10 10"></path>
<g>
<path d="M433 340h0"></path>
<path d="M718.5 340h77"></path>
<g class="terminal">
<path d="M433 340h0"></path>
<path d="M538 340h0"></path>
<rect x="433" y="329" width="105" height="22" rx="10" ry="10"></rect>
<text x="485.5" y="344">"ENCODING"</text>
</g>
<path d="M538 340h10"></path>
<g>
<path d="M548 340h0"></path>
<path d="M718.5 340h0"></path>
<path d="M548 340h20"></path>
<g class="terminal">
<path d="M568 340h0"></path>
<path d="M664.5 340h34"></path>
<rect x="568" y="329" width="96.5" height="22" rx="10" ry="10"></rect>
<text x="616.25" y="344">"DEFAULT"</text>
</g>
<path d="M698.5 340h20"></path>
<path d="M548 340a10 10 0 0 1 10 10v10a10 10 0 0 0 10 10"></path>
<g class="terminal">
<path d="M568 370h0"></path>
<path d="M647.5 370h51"></path>
<rect x="568" y="359" width="79.5" height="22" rx="10" ry="10"></rect>
<text x="607.75" y="374">"UTF-8"</text>
</g>
<path d="M698.5 370a10 10 0 0 0 10 -10v-10a10 10 0 0 1 10 -10"></path>
<path d="M548 340a10 10 0 0 1 10 10v40a10 10 0 0 0 10 10"></path>
<g class="terminal">
<path d="M568 400h0"></path>
<path d="M698.5 400h0"></path>
<rect x="568" y="389" width="130.5" height="22" rx="10" ry="10"></rect>
<text x="633.25" y="404">"NON-UNICODE"</text>
</g>
<path d="M698.5 400a10 10 0 0 0 10 -10v-40a10 10 0 0 1 10 -10"></path>
</g>
</g>
<path d="M795.5 340a10 10 0 0 0 10 -10v-299"></path>
<path d="M423 31v389a10 10 0 0 0 10 10"></path>
<g>
<path d="M433 430h0"></path>
<path d="M654.5 430h141"></path>
<g class="terminal">
<path d="M433 430h0"></path>
<path d="M563.5 430h0"></path>
<rect x="433" y="419" width="130.5" height="22" rx="10" ry="10"></rect>
<text x="498.25" y="434">"AT POSITION"</text>
</g>
<path d="M563.5 430h10"></path>
<path d="M573.5 430h10"></path>
<g class="non-terminal">
<path d="M583.5 430h0"></path>
<path d="M654.5 430h0"></path>
<rect x="583.5" y="419" width="71" height="22"></rect>
<a xlink:href="#/expression/Source"><text x="619" y="434">Source</text>
</a>
</g>
</g>
<path d="M795.5 430a10 10 0 0 0 10 -10v-389"></path>
<path d="M423 31v419a10 10 0 0 0 10 10"></path>
<g>
<path d="M433 460h0"></path>
<path d="M620.5 460h175"></path>
<g class="terminal">
<path d="M433 460h0"></path>
<path d="M529.5 460h0"></path>
<rect x="433" y="449" width="96.5" height="22" rx="10" ry="10"></rect>
<text x="481.25" y="464">"MESSAGE"</text>
</g>
<path d="M529.5 460h10"></path>
<path d="M539.5 460h10"></path>
<g class="non-terminal">
<path d="M549.5 460h0"></path>
<path d="M620.5 460h0"></path>
<rect x="549.5" y="449" width="71" height="22"></rect>
<a xlink:href="#/expression/Target"><text x="585" y="464">Target</text>
</a>
</g>
</g>
<path d="M795.5 460a10 10 0 0 0 10 -10v-419"></path>
<path d="M423 31v449a10 10 0 0 0 10 10"></path>
<g class="terminal">
<path d="M433 490h0"></path>
<path d="M691 490h104.5"></path>
<rect x="433" y="479" width="258" height="22" rx="10" ry="10"></rect>
<text x="562" y="494">"IGNORING CONVERSION ERRORS"</text>
</g>
<path d="M795.5 490a10 10 0 0 0 10 -10v-449"></path>
<path d="M423 31v479a10 10 0 0 0 10 10"></path>
<g class="terminal">
<path d="M433 520h0"></path>
<path d="M674 520h121.5"></path>
<rect x="433" y="509" width="241" height="22" rx="10" ry="10"></rect>
<text x="553.5" y="524">"SKIPPING BYTE-ORDER MARK"</text>
</g>
<path d="M795.5 520a10 10 0 0 0 10 -10v-479"></path>
<path d="M423 31v509a10 10 0 0 0 10 10"></path>
<g>
<path d="M433 550h0"></path>
<path d="M637.5 550h158"></path>
<g class="terminal">
<path d="M433 550h0"></path>
<path d="M546.5 550h0"></path>
<rect x="433" y="539" width="113.5" height="22" rx="10" ry="10"></rect>
<text x="489.75" y="554">"CODE PAGE"</text>
</g>
<path d="M546.5 550h10"></path>
<path d="M556.5 550h10"></path>
<g class="non-terminal">
<path d="M566.5 550h0"></path>
<path d="M637.5 550h0"></path>
<rect x="566.5" y="539" width="71" height="22"></rect>
<a xlink:href="#/expression/Source"><text x="602" y="554">Source</text>
</a>
</g>
</g>
<path d="M795.5 550a10 10 0 0 0 10 -10v-509"></path>
<path d="M423 31v539a10 10 0 0 0 10 10"></path>
<g>
<path d="M433 580h0"></path>
<path d="M757 580h38.5"></path>
<g class="terminal">
<path d="M433 580h0"></path>
<path d="M504 580h0"></path>
<rect x="433" y="569" width="71" height="22" rx="10" ry="10"></rect>
<text x="468.5" y="584">"WITH"</text>
</g>
<path d="M504 580h10"></path>
<g>
<path d="M514 580h0"></path>
<path d="M642 580h0"></path>
<path d="M514 580h20"></path>
<g class="terminal">
<path d="M534 580h0"></path>
<path d="M613.5 580h8.5"></path>
<rect x="534" y="569" width="79.5" height="22" rx="10" ry="10"></rect>
<text x="573.75" y="584">"SMART"</text>
</g>
<path d="M622 580h20"></path>
<path d="M514 580a10 10 0 0 1 10 10v10a10 10 0 0 0 10 10"></path>
<g class="terminal">
<path d="M534 610h0"></path>
<path d="M622 610h0"></path>
<rect x="534" y="599" width="88" height="22" rx="10" ry="10"></rect>
<text x="578" y="614">"NATIVE"</text>
</g>
<path d="M622 610a10 10 0 0 0 10 -10v-10a10 10 0 0 1 10 -10"></path>
<path d="M514 580a10 10 0 0 1 10 10v40a10 10 0 0 0 10 10"></path>
<g class="terminal">
<path d="M534 640h0"></path>
<path d="M605 640h17"></path>
<rect x="534" y="629" width="71" height="22" rx="10" ry="10"></rect>
<text x="569.5" y="644">"UNIX"</text>
</g>
<path d="M622 640a10 10 0 0 0 10 -10v-40a10 10 0 0 1 10 -10"></path>
</g>
<path d="M642 580h10"></path>
<g class="terminal">
<path d="M652 580h0"></path>
<path d="M757 580h0"></path>
<rect x="652" y="569" width="105" height="22" rx="10" ry="10"></rect>
<text x="704.5" y="584">"LINEFEED"</text>
</g>
</g>
<path d="M795.5 580a10 10 0 0 0 10 -10v-539"></path>
<path d="M423 31v629a10 10 0 0 0 10 10"></path>
<g class="terminal">
<path d="M433 670h0"></path>
<path d="M648.5 670h147"></path>
<rect x="433" y="659" width="215.5" height="22" rx="10" ry="10"></rect>
<text x="540.75" y="674">"WITH WINDOWS LINEFEED"</text>
</g>
<path d="M795.5 670a10 10 0 0 0 10 -10v-629"></path>
<g class="diagram-text">
<title>take one or more branches, once each, in any order</title>
<path d="M 423 21 h -26 a 4 4 0 0 0 -4 4 v 12 a 4 4 0 0 0 4 4 h 26 z" class="diagram-text"></path>
<text x="408" y="35" class="diagram-text">1+</text>
<path d="M 805.5 21 h 16 a 4 4 0 0 1 4 4 v 12 a 4 4 0 0 1 -4 4 h -16 z" class="diagram-text"></path>
<path d="M 812.5 29 a 4 4 0 1 0 6 -1 m 2.75 -1 h -4 v 4 m 0 -3 h 2" style="stroke-width: 1.75"></path>
</g>
</g>
</g>
</g>
<path d="M825.5 31h10"></path>
<path d="M 835.5 31 h 20 m -10 -10 v 20 m 10 -20 v 20"></path>
</g>
</svg>
