<svg xmlns="http://www.w3.org/2000/svg" xmlns:xlink="http://www.w3.org/1999/xlink" class="railroad-diagram" width="1110" height="71" viewBox="0 0 1110 71">
<defs>
<style type="text/css"><![CDATA[
path {
stroke-width: 3;
stroke: black;
fill: rgba(0,0,0,0);
}
text {
font: bold 14px monospace;
text-anchor: middle;
}
text.diagram-text {
font-size: 12px;
}
a {
fill: blue;
}
text.diagram-arrow {
font-size: 16px;
}
text.label {
text-anchor: start;
}
text.comment {
font: italic 12px monospace;
}
rect {
stroke-width: 3;
stroke: black;
fill: #BCBCBC;
}
path.diagram-text {
stroke-width: 3;
stroke: black;
fill: #BCBCBC;
cursor: help;
}
]]></style>
</defs>
<g transform="translate(.5 .5)">
<g>
<path d="M20 30v20m10 -20v20m-10 -10h20"></path>
</g>
<path d="M40 40h10"></path>
<g>
<path d="M50 40h0"></path>
<path d="M1060 40h0"></path>
<g class="terminal">
<path d="M50 40h0"></path>
<path d="M172 40h0"></path>
<rect x="50" y="29" width="122" height="22" rx="10" ry="10"></rect>
<text x="111" y="44">"CLASS-DATA"</text>
</g>
<path d="M172 40h10"></path>
<path d="M182 40h10"></path>
<g>
<path d="M192 40h0"></path>
<path d="M1060 40h0"></path>
<g class="terminal">
<path d="M192 40h0"></path>
<path d="M297 40h0"></path>
<rect x="192" y="29" width="105" height="22" rx="10" ry="10"></rect>
<text x="244.5" y="44">"BEGIN OF"</text>
</g>
<path d="M297 40h10"></path>
<g>
<path d="M307 40h0"></path>
<path d="M477.5 40h0"></path>
<path d="M307 40a10 10 0 0 0 10 -10v0a10 10 0 0 1 10 -10"></path>
<g>
<path d="M327 20h130.5"></path>
</g>
<path d="M457.5 20a10 10 0 0 1 10 10v0a10 10 0 0 0 10 10"></path>
<path d="M307 40h20"></path>
<g class="terminal">
<path d="M327 40h0"></path>
<path d="M457.5 40h0"></path>
<rect x="327" y="29" width="130.5" height="22" rx="10" ry="10"></rect>
<text x="392.25" y="44">"COMMON PART"</text>
</g>
<path d="M457.5 40h20"></path>
</g>
<path d="M477.5 40h10"></path>
<g class="non-terminal">
<path d="M487.5 40h0"></path>
<path d="M669 40h0"></path>
<rect x="487.5" y="29" width="181.5" height="22"></rect>
<a xlink:href="#/expression/NamespaceSimpleName"><text x="578.25" y="44">NamespaceSimpleName</text>
</a>
</g>
<path d="M669 40h10"></path>
<g>
<path d="M679 40h0"></path>
<path d="M832.5 40h0"></path>
<path d="M679 40a10 10 0 0 0 10 -10v0a10 10 0 0 1 10 -10"></path>
<g>
<path d="M699 20h113.5"></path>
</g>
<path d="M812.5 20a10 10 0 0 1 10 10v0a10 10 0 0 0 10 10"></path>
<path d="M679 40h20"></path>
<g class="terminal">
<path d="M699 40h0"></path>
<path d="M812.5 40h0"></path>
<rect x="699" y="29" width="113.5" height="22" rx="10" ry="10"></rect>
<text x="755.75" y="44">"READ-ONLY"</text>
</g>
<path d="M812.5 40h20"></path>
</g>
<g>
<path d="M832.5 40h0"></path>
<path d="M1060 40h0"></path>
<path d="M832.5 40a10 10 0 0 0 10 -10v0a10 10 0 0 1 10 -10"></path>
<g>
<path d="M852.5 20h187.5"></path>
</g>
<path d="M1040 20a10 10 0 0 1 10 10v0a10 10 0 0 0 10 10"></path>
<path d="M832.5 40h20"></path>
<g>
<path d="M852.5 40h0"></path>
<path d="M1040 40h0"></path>
<g class="terminal">
<path d="M852.5 40h0"></path>
<path d="M940.5 40h0"></path>
<rect x="852.5" y="29" width="88" height="22" rx="10" ry="10"></rect>
<text x="896.5" y="44">"OCCURS"</text>
</g>
<path d="M940.5 40h10"></path>
<path d="M950.5 40h10"></path>
<g class="non-terminal">
<path d="M960.5 40h0"></path>
<path d="M1040 40h0"></path>
<rect x="960.5" y="29" width="79.5" height="22"></rect>
<a xlink:href="#/expression/Integer"><text x="1000.25" y="44">Integer</text>
</a>
</g>
</g>
<path d="M1040 40h20"></path>
</g>
</g>
</g>
<path d="M1060 40h10"></path>
<path d="M 1070 40 h 20 m -10 -10 v 20 m 10 -20 v 20"></path>
</g>
</svg>
