<svg xmlns="http://www.w3.org/2000/svg" xmlns:xlink="http://www.w3.org/1999/xlink" class="railroad-diagram" width="1068" height="552" viewBox="0 0 1068 552">
<defs>
<style type="text/css"><![CDATA[
path {
stroke-width: 3;
stroke: black;
fill: rgba(0,0,0,0);
}
text {
font: bold 14px monospace;
text-anchor: middle;
}
text.diagram-text {
font-size: 12px;
}
a {
fill: blue;
}
text.diagram-arrow {
font-size: 16px;
}
text.label {
text-anchor: start;
}
text.comment {
font: italic 12px monospace;
}
rect {
stroke-width: 3;
stroke: black;
fill: #BCBCBC;
}
path.diagram-text {
stroke-width: 3;
stroke: black;
fill: #BCBCBC;
cursor: help;
}
]]></style>
</defs>
<g transform="translate(.5 .5)">
<g>
<path d="M20 21v20m10 -20v20m-10 -10h20"></path>
</g>
<path d="M40 31h10"></path>
<g>
<path d="M50 31h0"></path>
<path d="M1018 31h0"></path>
<g class="terminal">
<path d="M50 31h0"></path>
<path d="M248.5 31h0"></path>
<rect x="50" y="20" width="198.5" height="22" rx="10" ry="10"></rect>
<text x="149.25" y="35">"CALL TRANSFORMATION"</text>
</g>
<path d="M248.5 31h10"></path>
<g>
<path d="M258.5 31h0"></path>
<path d="M480 31h0"></path>
<path d="M258.5 31h20"></path>
<g class="non-terminal">
<path d="M278.5 31h0"></path>
<path d="M460 31h0"></path>
<rect x="278.5" y="20" width="181.5" height="22"></rect>
<a xlink:href="#/expression/NamespaceSimpleName"><text x="369.25" y="35">NamespaceSimpleName</text>
</a>
</g>
<path d="M460 31h20"></path>
<path d="M258.5 31a10 10 0 0 1 10 10v10a10 10 0 0 0 10 10"></path>
<g class="non-terminal">
<path d="M278.5 61h0"></path>
<path d="M358 61h102"></path>
<rect x="278.5" y="50" width="79.5" height="22"></rect>
<a xlink:href="#/expression/Dynamic"><text x="318.25" y="65">Dynamic</text>
</a>
</g>
<path d="M460 61a10 10 0 0 0 10 -10v-10a10 10 0 0 1 10 -10"></path>
</g>
<path d="M480 31h10"></path>
<g>
<path d="M490 31h0"></path>
<path d="M1018 31h0"></path>
<path d="M520 31h10"></path>
<g>
<path d="M530 31h0"></path>
<path d="M932.5 31h55.5"></path>
<g class="terminal">
<path d="M530 31h0"></path>
<path d="M626.5 31h0"></path>
<rect x="530" y="20" width="96.5" height="22" rx="10" ry="10"></rect>
<text x="578.25" y="35">"OPTIONS"</text>
</g>
<path d="M626.5 31h10"></path>
<path d="M636.5 31h10"></path>
<g>
<path d="M646.5 31h0"></path>
<path d="M932.5 31h0"></path>
<path d="M646.5 31h10"></path>
<g>
<path d="M656.5 31h0"></path>
<path d="M922.5 31h0"></path>
<g>
<path d="M656.5 31h0"></path>
<path d="M776 31h0"></path>
<path d="M656.5 31h20"></path>
<g class="non-terminal">
<path d="M676.5 31h0"></path>
<path d="M739 31h17"></path>
<rect x="676.5" y="20" width="62.5" height="22"></rect>
<a xlink:href="#/expression/Field"><text x="707.75" y="35">Field</text>
</a>
</g>
<path d="M756 31h20"></path>
<path d="M656.5 31a10 10 0 0 1 10 10v10a10 10 0 0 0 10 10"></path>
<g class="non-terminal">
<path d="M676.5 61h0"></path>
<path d="M756 61h0"></path>
<rect x="676.5" y="50" width="79.5" height="22"></rect>
<a xlink:href="#/expression/Integer"><text x="716.25" y="65">Integer</text>
</a>
</g>
<path d="M756 61a10 10 0 0 0 10 -10v-10a10 10 0 0 1 10 -10"></path>
</g>
<path d="M776 31h10"></path>
<g class="terminal">
<path d="M786 31h0"></path>
<path d="M831.5 31h0"></path>
<rect x="786" y="20" width="45.5" height="22" rx="10" ry="10"></rect>
<text x="808.75" y="35">"="</text>
</g>
<path d="M831.5 31h10"></path>
<path d="M841.5 31h10"></path>
<g class="non-terminal">
<path d="M851.5 31h0"></path>
<path d="M922.5 31h0"></path>
<rect x="851.5" y="20" width="71" height="22"></rect>
<a xlink:href="#/expression/Source"><text x="887" y="35">Source</text>
</a>
</g>
</g>
<path d="M922.5 31h10"></path>
<path d="M656.5 31a10 10 0 0 0 -10 10v29a10 10 0 0 0 10 10"></path>
<g>
<path d="M656.5 80h266"></path>
</g>
<path d="M922.5 80a10 10 0 0 0 10 -10v-29a10 10 0 0 0 -10 -10"></path>
</g>
</g>
<path d="M988 31h10"></path>
<path d="M520 31v58a10 10 0 0 0 10 10"></path>
<g>
<path d="M530 99h0"></path>
<path d="M988 99h0"></path>
<g class="terminal">
<path d="M530 99h0"></path>
<path d="M652 99h0"></path>
<rect x="530" y="88" width="122" height="22" rx="10" ry="10"></rect>
<text x="591" y="103">"PARAMETERS"</text>
</g>
<path d="M652 99h10"></path>
<g>
<path d="M662 99h0"></path>
<path d="M988 99h0"></path>
<path d="M662 99h20"></path>
<g>
<path d="M682 99h0"></path>
<path d="M968 99h0"></path>
<path d="M682 99h10"></path>
<g>
<path d="M692 99h0"></path>
<path d="M958 99h0"></path>
<g>
<path d="M692 99h0"></path>
<path d="M811.5 99h0"></path>
<path d="M692 99h20"></path>
<g class="non-terminal">
<path d="M712 99h0"></path>
<path d="M774.5 99h17"></path>
<rect x="712" y="88" width="62.5" height="22"></rect>
<a xlink:href="#/expression/Field"><text x="743.25" y="103">Field</text>
</a>
</g>
<path d="M791.5 99h20"></path>
<path d="M692 99a10 10 0 0 1 10 10v10a10 10 0 0 0 10 10"></path>
<g class="non-terminal">
<path d="M712 129h0"></path>
<path d="M791.5 129h0"></path>
<rect x="712" y="118" width="79.5" height="22"></rect>
<a xlink:href="#/expression/Integer"><text x="751.75" y="133">Integer</text>
</a>
</g>
<path d="M791.5 129a10 10 0 0 0 10 -10v-10a10 10 0 0 1 10 -10"></path>
</g>
<path d="M811.5 99h10"></path>
<g class="terminal">
<path d="M821.5 99h0"></path>
<path d="M867 99h0"></path>
<rect x="821.5" y="88" width="45.5" height="22" rx="10" ry="10"></rect>
<text x="844.25" y="103">"="</text>
</g>
<path d="M867 99h10"></path>
<path d="M877 99h10"></path>
<g class="non-terminal">
<path d="M887 99h0"></path>
<path d="M958 99h0"></path>
<rect x="887" y="88" width="71" height="22"></rect>
<a xlink:href="#/expression/Source"><text x="922.5" y="103">Source</text>
</a>
</g>
</g>
<path d="M958 99h10"></path>
<path d="M692 99a10 10 0 0 0 -10 10v29a10 10 0 0 0 10 10"></path>
<g>
<path d="M692 148h266"></path>
</g>
<path d="M958 148a10 10 0 0 0 10 -10v-29a10 10 0 0 0 -10 -10"></path>
</g>
<path d="M968 99h20"></path>
<path d="M662 99a10 10 0 0 1 10 10v48a10 10 0 0 0 10 10"></path>
<g class="non-terminal">
<path d="M682 167h0"></path>
<path d="M761.5 167h206.5"></path>
<rect x="682" y="156" width="79.5" height="22"></rect>
<a xlink:href="#/expression/Dynamic"><text x="721.75" y="171">Dynamic</text>
</a>
</g>
<path d="M968 167a10 10 0 0 0 10 -10v-48a10 10 0 0 1 10 -10"></path>
</g>
</g>
<path d="M988 99a10 10 0 0 0 10 -10v-58"></path>
<path d="M520 31v156a10 10 0 0 0 10 10"></path>
<g>
<path d="M530 197h0"></path>
<path d="M962.5 197h25.5"></path>
<g class="terminal">
<path d="M530 197h0"></path>
<path d="M626.5 197h0"></path>
<rect x="530" y="186" width="96.5" height="22" rx="10" ry="10"></rect>
<text x="578.25" y="201">"OBJECTS"</text>
</g>
<path d="M626.5 197h10"></path>
<g>
<path d="M636.5 197h0"></path>
<path d="M962.5 197h0"></path>
<path d="M636.5 197h20"></path>
<g>
<path d="M656.5 197h0"></path>
<path d="M942.5 197h0"></path>
<path d="M656.5 197h10"></path>
<g>
<path d="M666.5 197h0"></path>
<path d="M932.5 197h0"></path>
<g>
<path d="M666.5 197h0"></path>
<path d="M786 197h0"></path>
<path d="M666.5 197h20"></path>
<g class="non-terminal">
<path d="M686.5 197h0"></path>
<path d="M749 197h17"></path>
<rect x="686.5" y="186" width="62.5" height="22"></rect>
<a xlink:href="#/expression/Field"><text x="717.75" y="201">Field</text>
</a>
</g>
<path d="M766 197h20"></path>
<path d="M666.5 197a10 10 0 0 1 10 10v10a10 10 0 0 0 10 10"></path>
<g class="non-terminal">
<path d="M686.5 227h0"></path>
<path d="M766 227h0"></path>
<rect x="686.5" y="216" width="79.5" height="22"></rect>
<a xlink:href="#/expression/Integer"><text x="726.25" y="231">Integer</text>
</a>
</g>
<path d="M766 227a10 10 0 0 0 10 -10v-10a10 10 0 0 1 10 -10"></path>
</g>
<path d="M786 197h10"></path>
<g class="terminal">
<path d="M796 197h0"></path>
<path d="M841.5 197h0"></path>
<rect x="796" y="186" width="45.5" height="22" rx="10" ry="10"></rect>
<text x="818.75" y="201">"="</text>
</g>
<path d="M841.5 197h10"></path>
<path d="M851.5 197h10"></path>
<g class="non-terminal">
<path d="M861.5 197h0"></path>
<path d="M932.5 197h0"></path>
<rect x="861.5" y="186" width="71" height="22"></rect>
<a xlink:href="#/expression/Source"><text x="897" y="201">Source</text>
</a>
</g>
</g>
<path d="M932.5 197h10"></path>
<path d="M666.5 197a10 10 0 0 0 -10 10v29a10 10 0 0 0 10 10"></path>
<g>
<path d="M666.5 246h266"></path>
</g>
<path d="M932.5 246a10 10 0 0 0 10 -10v-29a10 10 0 0 0 -10 -10"></path>
</g>
<path d="M942.5 197h20"></path>
<path d="M636.5 197a10 10 0 0 1 10 10v48a10 10 0 0 0 10 10"></path>
<g class="non-terminal">
<path d="M656.5 265h0"></path>
<path d="M736 265h206.5"></path>
<rect x="656.5" y="254" width="79.5" height="22"></rect>
<a xlink:href="#/expression/Dynamic"><text x="696.25" y="269">Dynamic</text>
</a>
</g>
<path d="M942.5 265a10 10 0 0 0 10 -10v-48a10 10 0 0 1 10 -10"></path>
</g>
</g>
<path d="M988 197a10 10 0 0 0 10 -10v-156"></path>
<path d="M520 31v254a10 10 0 0 0 10 10"></path>
<g>
<path d="M530 295h0"></path>
<path d="M954 295h34"></path>
<g class="terminal">
<path d="M530 295h0"></path>
<path d="M618 295h0"></path>
<rect x="530" y="284" width="88" height="22" rx="10" ry="10"></rect>
<text x="574" y="299">"SOURCE"</text>
</g>
<path d="M618 295h10"></path>
<g>
<path d="M628 295h0"></path>
<path d="M954 295h0"></path>
<path d="M628 295h20"></path>
<g>
<path d="M648 295h0"></path>
<path d="M934 295h0"></path>
<path d="M648 295h10"></path>
<g>
<path d="M658 295h0"></path>
<path d="M924 295h0"></path>
<g>
<path d="M658 295h0"></path>
<path d="M777.5 295h0"></path>
<path d="M658 295h20"></path>
<g class="non-terminal">
<path d="M678 295h0"></path>
<path d="M740.5 295h17"></path>
<rect x="678" y="284" width="62.5" height="22"></rect>
<a xlink:href="#/expression/Field"><text x="709.25" y="299">Field</text>
</a>
</g>
<path d="M757.5 295h20"></path>
<path d="M658 295a10 10 0 0 1 10 10v10a10 10 0 0 0 10 10"></path>
<g class="non-terminal">
<path d="M678 325h0"></path>
<path d="M757.5 325h0"></path>
<rect x="678" y="314" width="79.5" height="22"></rect>
<a xlink:href="#/expression/Integer"><text x="717.75" y="329">Integer</text>
</a>
</g>
<path d="M757.5 325a10 10 0 0 0 10 -10v-10a10 10 0 0 1 10 -10"></path>
</g>
<path d="M777.5 295h10"></path>
<g class="terminal">
<path d="M787.5 295h0"></path>
<path d="M833 295h0"></path>
<rect x="787.5" y="284" width="45.5" height="22" rx="10" ry="10"></rect>
<text x="810.25" y="299">"="</text>
</g>
<path d="M833 295h10"></path>
<path d="M843 295h10"></path>
<g class="non-terminal">
<path d="M853 295h0"></path>
<path d="M924 295h0"></path>
<rect x="853" y="284" width="71" height="22"></rect>
<a xlink:href="#/expression/Source"><text x="888.5" y="299">Source</text>
</a>
</g>
</g>
<path d="M924 295h10"></path>
<path d="M658 295a10 10 0 0 0 -10 10v29a10 10 0 0 0 10 10"></path>
<g>
<path d="M658 344h266"></path>
</g>
<path d="M924 344a10 10 0 0 0 10 -10v-29a10 10 0 0 0 -10 -10"></path>
</g>
<path d="M934 295h20"></path>
<path d="M628 295a10 10 0 0 1 10 10v48a10 10 0 0 0 10 10"></path>
<g>
<path d="M648 363h0"></path>
<path d="M801.5 363h132.5"></path>
<g class="terminal">
<path d="M648 363h0"></path>
<path d="M710.5 363h0"></path>
<rect x="648" y="352" width="62.5" height="22" rx="10" ry="10"></rect>
<text x="679.25" y="367">"XML"</text>
</g>
<path d="M710.5 363h10"></path>
<path d="M720.5 363h10"></path>
<g class="non-terminal">
<path d="M730.5 363h0"></path>
<path d="M801.5 363h0"></path>
<rect x="730.5" y="352" width="71" height="22"></rect>
<a xlink:href="#/expression/Source"><text x="766" y="367">Source</text>
</a>
</g>
</g>
<path d="M934 363a10 10 0 0 0 10 -10v-48a10 10 0 0 1 10 -10"></path>
<path d="M628 295a10 10 0 0 1 10 10v78a10 10 0 0 0 10 10"></path>
<g class="non-terminal">
<path d="M648 393h0"></path>
<path d="M727.5 393h206.5"></path>
<rect x="648" y="382" width="79.5" height="22"></rect>
<a xlink:href="#/expression/Dynamic"><text x="687.75" y="397">Dynamic</text>
</a>
</g>
<path d="M934 393a10 10 0 0 0 10 -10v-78a10 10 0 0 1 10 -10"></path>
</g>
</g>
<path d="M988 295a10 10 0 0 0 10 -10v-254"></path>
<path d="M520 31v382a10 10 0 0 0 10 10"></path>
<g>
<path d="M530 423h0"></path>
<path d="M954 423h34"></path>
<g class="terminal">
<path d="M530 423h0"></path>
<path d="M618 423h0"></path>
<rect x="530" y="412" width="88" height="22" rx="10" ry="10"></rect>
<text x="574" y="427">"RESULT"</text>
</g>
<path d="M618 423h10"></path>
<g>
<path d="M628 423h0"></path>
<path d="M954 423h0"></path>
<path d="M628 423h20"></path>
<g>
<path d="M648 423h0"></path>
<path d="M934 423h0"></path>
<path d="M648 423h10"></path>
<g>
<path d="M658 423h0"></path>
<path d="M924 423h0"></path>
<g>
<path d="M658 423h0"></path>
<path d="M777.5 423h0"></path>
<path d="M658 423h20"></path>
<g class="non-terminal">
<path d="M678 423h0"></path>
<path d="M740.5 423h17"></path>
<rect x="678" y="412" width="62.5" height="22"></rect>
<a xlink:href="#/expression/Field"><text x="709.25" y="427">Field</text>
</a>
</g>
<path d="M757.5 423h20"></path>
<path d="M658 423a10 10 0 0 1 10 10v10a10 10 0 0 0 10 10"></path>
<g class="non-terminal">
<path d="M678 453h0"></path>
<path d="M757.5 453h0"></path>
<rect x="678" y="442" width="79.5" height="22"></rect>
<a xlink:href="#/expression/Integer"><text x="717.75" y="457">Integer</text>
</a>
</g>
<path d="M757.5 453a10 10 0 0 0 10 -10v-10a10 10 0 0 1 10 -10"></path>
</g>
<path d="M777.5 423h10"></path>
<g class="terminal">
<path d="M787.5 423h0"></path>
<path d="M833 423h0"></path>
<rect x="787.5" y="412" width="45.5" height="22" rx="10" ry="10"></rect>
<text x="810.25" y="427">"="</text>
</g>
<path d="M833 423h10"></path>
<path d="M843 423h10"></path>
<g class="non-terminal">
<path d="M853 423h0"></path>
<path d="M924 423h0"></path>
<rect x="853" y="412" width="71" height="22"></rect>
<a xlink:href="#/expression/Source"><text x="888.5" y="427">Source</text>
</a>
</g>
</g>
<path d="M924 423h10"></path>
<path d="M658 423a10 10 0 0 0 -10 10v29a10 10 0 0 0 10 10"></path>
<g>
<path d="M658 472h266"></path>
</g>
<path d="M924 472a10 10 0 0 0 10 -10v-29a10 10 0 0 0 -10 -10"></path>
</g>
<path d="M934 423h20"></path>
<path d="M628 423a10 10 0 0 1 10 10v48a10 10 0 0 0 10 10"></path>
<g>
<path d="M648 491h0"></path>
<path d="M801.5 491h132.5"></path>
<g class="terminal">
<path d="M648 491h0"></path>
<path d="M710.5 491h0"></path>
<rect x="648" y="480" width="62.5" height="22" rx="10" ry="10"></rect>
<text x="679.25" y="495">"XML"</text>
</g>
<path d="M710.5 491h10"></path>
<path d="M720.5 491h10"></path>
<g class="non-terminal">
<path d="M730.5 491h0"></path>
<path d="M801.5 491h0"></path>
<rect x="730.5" y="480" width="71" height="22"></rect>
<a xlink:href="#/expression/Target"><text x="766" y="495">Target</text>
</a>
</g>
</g>
<path d="M934 491a10 10 0 0 0 10 -10v-48a10 10 0 0 1 10 -10"></path>
<path d="M628 423a10 10 0 0 1 10 10v78a10 10 0 0 0 10 10"></path>
<g class="non-terminal">
<path d="M648 521h0"></path>
<path d="M727.5 521h206.5"></path>
<rect x="648" y="510" width="79.5" height="22"></rect>
<a xlink:href="#/expression/Dynamic"><text x="687.75" y="525">Dynamic</text>
</a>
</g>
<path d="M934 521a10 10 0 0 0 10 -10v-78a10 10 0 0 1 10 -10"></path>
</g>
</g>
<path d="M988 423a10 10 0 0 0 10 -10v-382"></path>
<g class="diagram-text">
<title>take one or more branches, once each, in any order</title>
<path d="M 520 21 h -26 a 4 4 0 0 0 -4 4 v 12 a 4 4 0 0 0 4 4 h 26 z" class="diagram-text"></path>
<text x="505" y="35" class="diagram-text">1+</text>
<path d="M 998 21 h 16 a 4 4 0 0 1 4 4 v 12 a 4 4 0 0 1 -4 4 h -16 z" class="diagram-text"></path>
<path d="M 1005 29 a 4 4 0 1 0 6 -1 m 2.75 -1 h -4 v 4 m 0 -3 h 2" style="stroke-width: 1.75"></path>
</g>
</g>
</g>
<path d="M1018 31h10"></path>
<path d="M 1028 31 h 20 m -10 -10 v 20 m 10 -20 v 20"></path>
</g>
</svg>
