<svg xmlns="http://www.w3.org/2000/svg" xmlns:xlink="http://www.w3.org/1999/xlink" class="railroad-diagram" width="634.5" height="62" viewBox="0 0 634.5 62">
<defs>
<style type="text/css"><![CDATA[
path {
stroke-width: 3;
stroke: black;
fill: rgba(0,0,0,0);
}
text {
font: bold 14px monospace;
text-anchor: middle;
}
text.diagram-text {
font-size: 12px;
}
a {
fill: blue;
}
text.diagram-arrow {
font-size: 16px;
}
text.label {
text-anchor: start;
}
text.comment {
font: italic 12px monospace;
}
rect {
stroke-width: 3;
stroke: black;
fill: #BCBCBC;
}
path.diagram-text {
stroke-width: 3;
stroke: black;
fill: #BCBCBC;
cursor: help;
}
]]></style>
</defs>
<g transform="translate(.5 .5)">
<g>
<path d="M20 21v20m10 -20v20m-10 -10h20"></path>
</g>
<path d="M40 31h10"></path>
<g>
<path d="M50 31h0"></path>
<path d="M584.5 31h0"></path>
<g class="terminal">
<path d="M50 31h0"></path>
<path d="M146.5 31h0"></path>
<rect x="50" y="20" width="96.5" height="22" rx="10" ry="10"></rect>
<text x="98.25" y="35">"GET BIT"</text>
</g>
<path d="M146.5 31h10"></path>
<path d="M156.5 31h10"></path>
<g class="non-terminal">
<path d="M166.5 31h0"></path>
<path d="M237.5 31h0"></path>
<rect x="166.5" y="20" width="71" height="22"></rect>
<a xlink:href="#/expression/Source"><text x="202" y="35">Source</text>
</a>
</g>
<path d="M237.5 31h10"></path>
<path d="M247.5 31h10"></path>
<g class="terminal">
<path d="M257.5 31h0"></path>
<path d="M311.5 31h0"></path>
<rect x="257.5" y="20" width="54" height="22" rx="10" ry="10"></rect>
<text x="284.5" y="35">"OF"</text>
</g>
<path d="M311.5 31h10"></path>
<path d="M321.5 31h10"></path>
<g class="non-terminal">
<path d="M331.5 31h0"></path>
<path d="M402.5 31h0"></path>
<rect x="331.5" y="20" width="71" height="22"></rect>
<a xlink:href="#/expression/Source"><text x="367" y="35">Source</text>
</a>
</g>
<path d="M402.5 31h10"></path>
<path d="M412.5 31h10"></path>
<g class="terminal">
<path d="M422.5 31h0"></path>
<path d="M493.5 31h0"></path>
<rect x="422.5" y="20" width="71" height="22" rx="10" ry="10"></rect>
<text x="458" y="35">"INTO"</text>
</g>
<path d="M493.5 31h10"></path>
<path d="M503.5 31h10"></path>
<g class="non-terminal">
<path d="M513.5 31h0"></path>
<path d="M584.5 31h0"></path>
<rect x="513.5" y="20" width="71" height="22"></rect>
<a xlink:href="#/expression/Target"><text x="549" y="35">Target</text>
</a>
</g>
</g>
<path d="M584.5 31h10"></path>
<path d="M 594.5 31 h 20 m -10 -10 v 20 m 10 -20 v 20"></path>
</g>
</svg>
