<svg xmlns="http://www.w3.org/2000/svg" xmlns:xlink="http://www.w3.org/1999/xlink" class="railroad-diagram" width="506.5" height="101" viewBox="0 0 506.5 101">
<defs>
<style type="text/css"><![CDATA[
path {
stroke-width: 3;
stroke: black;
fill: rgba(0,0,0,0);
}
text {
font: bold 14px monospace;
text-anchor: middle;
}
text.diagram-text {
font-size: 12px;
}
a {
fill: blue;
}
text.diagram-arrow {
font-size: 16px;
}
text.label {
text-anchor: start;
}
text.comment {
font: italic 12px monospace;
}
rect {
stroke-width: 3;
stroke: black;
fill: #BCBCBC;
}
path.diagram-text {
stroke-width: 3;
stroke: black;
fill: #BCBCBC;
cursor: help;
}
]]></style>
</defs>
<g transform="translate(.5 .5)">
<g>
<path d="M20 30v20m10 -20v20m-10 -10h20"></path>
</g>
<path d="M40 40h10"></path>
<g>
<path d="M50 40h0"></path>
<path d="M456.5 40h0"></path>
<g class="terminal">
<path d="M50 40h0"></path>
<path d="M155 40h0"></path>
<rect x="50" y="29" width="105" height="22" rx="10" ry="10"></rect>
<text x="102.5" y="44">"GET TIME"</text>
</g>
<path d="M155 40h10"></path>
<g>
<path d="M165 40h0"></path>
<path d="M456.5 40h0"></path>
<path d="M165 40a10 10 0 0 0 10 -10v0a10 10 0 0 1 10 -10"></path>
<g>
<path d="M185 20h251.5"></path>
</g>
<path d="M436.5 20a10 10 0 0 1 10 10v0a10 10 0 0 0 10 10"></path>
<path d="M165 40h20"></path>
<g>
<path d="M185 40h0"></path>
<path d="M436.5 40h0"></path>
<g>
<path d="M185 40h0"></path>
<path d="M355.5 40h0"></path>
<path d="M185 40h20"></path>
<g class="terminal">
<path d="M205 40h0"></path>
<path d="M335.5 40h0"></path>
<rect x="205" y="29" width="130.5" height="22" rx="10" ry="10"></rect>
<text x="270.25" y="44">"STAMP FIELD"</text>
</g>
<path d="M335.5 40h20"></path>
<path d="M185 40a10 10 0 0 1 10 10v10a10 10 0 0 0 10 10"></path>
<g class="terminal">
<path d="M205 70h0"></path>
<path d="M284.5 70h51"></path>
<rect x="205" y="59" width="79.5" height="22" rx="10" ry="10"></rect>
<text x="244.75" y="74">"FIELD"</text>
</g>
<path d="M335.5 70a10 10 0 0 0 10 -10v-10a10 10 0 0 1 10 -10"></path>
</g>
<path d="M355.5 40h10"></path>
<g class="non-terminal">
<path d="M365.5 40h0"></path>
<path d="M436.5 40h0"></path>
<rect x="365.5" y="29" width="71" height="22"></rect>
<a xlink:href="#/expression/Target"><text x="401" y="44">Target</text>
</a>
</g>
</g>
<path d="M436.5 40h20"></path>
</g>
</g>
<path d="M456.5 40h10"></path>
<path d="M 466.5 40 h 20 m -10 -10 v 20 m 10 -20 v 20"></path>
</g>
</svg>
