<svg xmlns="http://www.w3.org/2000/svg" xmlns:xlink="http://www.w3.org/1999/xlink" class="railroad-diagram" width="696" height="62" viewBox="0 0 696 62">
<defs>
<style type="text/css"><![CDATA[
path {
stroke-width: 3;
stroke: black;
fill: rgba(0,0,0,0);
}
text {
font: bold 14px monospace;
text-anchor: middle;
}
text.diagram-text {
font-size: 12px;
}
a {
fill: blue;
}
text.diagram-arrow {
font-size: 16px;
}
text.label {
text-anchor: start;
}
text.comment {
font: italic 12px monospace;
}
rect {
stroke-width: 3;
stroke: black;
fill: #BCBCBC;
}
path.diagram-text {
stroke-width: 3;
stroke: black;
fill: #BCBCBC;
cursor: help;
}
]]></style>
</defs>
<g transform="translate(.5 .5)">
<g>
<path d="M20 21v20m10 -20v20m-10 -10h20"></path>
</g>
<path d="M40 31h10"></path>
<g>
<path d="M50 31h0"></path>
<path d="M646 31h0"></path>
<g>
<path d="M50 31h0"></path>
<path d="M123 31h0"></path>
<text x="86.5" y="36" class="comment">not Cloud</text>
</g>
<path d="M123 31h10"></path>
<path d="M133 31h10"></path>
<g>
<path d="M143 31h0"></path>
<path d="M646 31h0"></path>
<g class="terminal">
<path d="M143 31h0"></path>
<path d="M299 31h0"></path>
<rect x="143" y="20" width="156" height="22" rx="10" ry="10"></rect>
<text x="221" y="35">"IMPORT NAMETAB"</text>
</g>
<path d="M299 31h10"></path>
<path d="M309 31h10"></path>
<g class="non-terminal">
<path d="M319 31h0"></path>
<path d="M390 31h0"></path>
<rect x="319" y="20" width="71" height="22"></rect>
<a xlink:href="#/expression/Target"><text x="354.5" y="35">Target</text>
</a>
</g>
<path d="M390 31h10"></path>
<path d="M400 31h10"></path>
<g class="non-terminal">
<path d="M410 31h0"></path>
<path d="M481 31h0"></path>
<rect x="410" y="20" width="71" height="22"></rect>
<a xlink:href="#/expression/Target"><text x="445.5" y="35">Target</text>
</a>
</g>
<path d="M481 31h10"></path>
<path d="M491 31h10"></path>
<g class="terminal">
<path d="M501 31h0"></path>
<path d="M555 31h0"></path>
<rect x="501" y="20" width="54" height="22" rx="10" ry="10"></rect>
<text x="528" y="35">"ID"</text>
</g>
<path d="M555 31h10"></path>
<path d="M565 31h10"></path>
<g class="non-terminal">
<path d="M575 31h0"></path>
<path d="M646 31h0"></path>
<rect x="575" y="20" width="71" height="22"></rect>
<a xlink:href="#/expression/Source"><text x="610.5" y="35">Source</text>
</a>
</g>
</g>
</g>
<path d="M646 31h10"></path>
<path d="M 656 31 h 20 m -10 -10 v 20 m 10 -20 v 20"></path>
</g>
</svg>
