<svg xmlns="http://www.w3.org/2000/svg" xmlns:xlink="http://www.w3.org/1999/xlink" class="railroad-diagram" width="906" height="92" viewBox="0 0 906 92">
<defs>
<style type="text/css"><![CDATA[
path {
stroke-width: 3;
stroke: black;
fill: rgba(0,0,0,0);
}
text {
font: bold 14px monospace;
text-anchor: middle;
}
text.diagram-text {
font-size: 12px;
}
a {
fill: blue;
}
text.diagram-arrow {
font-size: 16px;
}
text.label {
text-anchor: start;
}
text.comment {
font: italic 12px monospace;
}
rect {
stroke-width: 3;
stroke: black;
fill: #BCBCBC;
}
path.diagram-text {
stroke-width: 3;
stroke: black;
fill: #BCBCBC;
cursor: help;
}
]]></style>
</defs>
<g transform="translate(.5 .5)">
<g>
<path d="M20 21v20m10 -20v20m-10 -10h20"></path>
</g>
<path d="M40 31h10"></path>
<g>
<path d="M50 31h0"></path>
<path d="M856 31h0"></path>
<g class="terminal">
<path d="M50 31h0"></path>
<path d="M112.5 31h0"></path>
<rect x="50" y="20" width="62.5" height="22" rx="10" ry="10"></rect>
<text x="81.25" y="35">"ADD"</text>
</g>
<path d="M112.5 31h10"></path>
<path d="M122.5 31h10"></path>
<g class="non-terminal">
<path d="M132.5 31h0"></path>
<path d="M203.5 31h0"></path>
<rect x="132.5" y="20" width="71" height="22"></rect>
<a xlink:href="#/expression/Source"><text x="168" y="35">Source</text>
</a>
</g>
<path d="M203.5 31h10"></path>
<g>
<path d="M213.5 31h0"></path>
<path d="M856 31h0"></path>
<path d="M213.5 31h20"></path>
<g>
<path d="M233.5 31h0"></path>
<path d="M378.5 31h457.5"></path>
<g class="terminal">
<path d="M233.5 31h0"></path>
<path d="M287.5 31h0"></path>
<rect x="233.5" y="20" width="54" height="22" rx="10" ry="10"></rect>
<text x="260.5" y="35">"TO"</text>
</g>
<path d="M287.5 31h10"></path>
<path d="M297.5 31h10"></path>
<g class="non-terminal">
<path d="M307.5 31h0"></path>
<path d="M378.5 31h0"></path>
<rect x="307.5" y="20" width="71" height="22"></rect>
<a xlink:href="#/expression/Target"><text x="343" y="35">Target</text>
</a>
</g>
</g>
<path d="M836 31h20"></path>
<path d="M213.5 31a10 10 0 0 1 10 10v10a10 10 0 0 0 10 10"></path>
<g>
<path d="M233.5 61h0"></path>
<path d="M836 61h0"></path>
<g class="terminal">
<path d="M233.5 61h0"></path>
<path d="M304.5 61h0"></path>
<rect x="233.5" y="50" width="71" height="22" rx="10" ry="10"></rect>
<text x="269" y="65">"THEN"</text>
</g>
<path d="M304.5 61h10"></path>
<path d="M314.5 61h10"></path>
<g class="non-terminal">
<path d="M324.5 61h0"></path>
<path d="M412.5 61h0"></path>
<rect x="324.5" y="50" width="88" height="22"></rect>
<a xlink:href="#/expression/FieldSub"><text x="368.5" y="65">FieldSub</text>
</a>
</g>
<path d="M412.5 61h10"></path>
<path d="M422.5 61h10"></path>
<g class="terminal">
<path d="M432.5 61h0"></path>
<path d="M512 61h0"></path>
<rect x="432.5" y="50" width="79.5" height="22" rx="10" ry="10"></rect>
<text x="472.25" y="65">"UNTIL"</text>
</g>
<path d="M512 61h10"></path>
<path d="M522 61h10"></path>
<g class="non-terminal">
<path d="M532 61h0"></path>
<path d="M620 61h0"></path>
<rect x="532" y="50" width="88" height="22"></rect>
<a xlink:href="#/expression/FieldSub"><text x="576" y="65">FieldSub</text>
</a>
</g>
<path d="M620 61h10"></path>
<path d="M630 61h10"></path>
<g class="terminal">
<path d="M640 61h0"></path>
<path d="M728 61h0"></path>
<rect x="640" y="50" width="88" height="22" rx="10" ry="10"></rect>
<text x="684" y="65">"GIVING"</text>
</g>
<path d="M728 61h10"></path>
<path d="M738 61h10"></path>
<g class="non-terminal">
<path d="M748 61h0"></path>
<path d="M836 61h0"></path>
<rect x="748" y="50" width="88" height="22"></rect>
<a xlink:href="#/expression/FieldSub"><text x="792" y="65">FieldSub</text>
</a>
</g>
</g>
<path d="M836 61a10 10 0 0 0 10 -10v-10a10 10 0 0 1 10 -10"></path>
</g>
</g>
<path d="M856 31h10"></path>
<path d="M 866 31 h 20 m -10 -10 v 20 m 10 -20 v 20"></path>
</g>
</svg>
