<svg xmlns="http://www.w3.org/2000/svg" xmlns:xlink="http://www.w3.org/1999/xlink" class="railroad-diagram" width="518.5" height="71" viewBox="0 0 518.5 71">
<defs>
<style type="text/css"><![CDATA[
path {
stroke-width: 3;
stroke: black;
fill: rgba(0,0,0,0);
}
text {
font: bold 14px monospace;
text-anchor: middle;
}
text.diagram-text {
font-size: 12px;
}
a {
fill: blue;
}
text.diagram-arrow {
font-size: 16px;
}
text.label {
text-anchor: start;
}
text.comment {
font: italic 12px monospace;
}
rect {
stroke-width: 3;
stroke: black;
fill: #BCBCBC;
}
path.diagram-text {
stroke-width: 3;
stroke: black;
fill: #BCBCBC;
cursor: help;
}
]]></style>
</defs>
<g transform="translate(.5 .5)">
<g>
<path d="M20 30v20m10 -20v20m-10 -10h20"></path>
</g>
<path d="M40 40h10"></path>
<g>
<path d="M50 40h0"></path>
<path d="M468.5 40h0"></path>
<g>
<path d="M50 40h0"></path>
<path d="M123 40h0"></path>
<text x="86.5" y="45" class="comment">not Cloud</text>
</g>
<path d="M123 40h10"></path>
<path d="M133 40h10"></path>
<g>
<path d="M143 40h0"></path>
<path d="M468.5 40h0"></path>
<g class="terminal">
<path d="M143 40h0"></path>
<path d="M273.5 40h0"></path>
<rect x="143" y="29" width="130.5" height="22" rx="10" ry="10"></rect>
<text x="208.25" y="44">"FREE MEMORY"</text>
</g>
<path d="M273.5 40h10"></path>
<g>
<path d="M283.5 40h0"></path>
<path d="M468.5 40h0"></path>
<path d="M283.5 40a10 10 0 0 0 10 -10v0a10 10 0 0 1 10 -10"></path>
<g>
<path d="M303.5 20h145"></path>
</g>
<path d="M448.5 20a10 10 0 0 1 10 10v0a10 10 0 0 0 10 10"></path>
<path d="M283.5 40h20"></path>
<g>
<path d="M303.5 40h0"></path>
<path d="M448.5 40h0"></path>
<g class="terminal">
<path d="M303.5 40h0"></path>
<path d="M357.5 40h0"></path>
<rect x="303.5" y="29" width="54" height="22" rx="10" ry="10"></rect>
<text x="330.5" y="44">"ID"</text>
</g>
<path d="M357.5 40h10"></path>
<path d="M367.5 40h10"></path>
<g class="non-terminal">
<path d="M377.5 40h0"></path>
<path d="M448.5 40h0"></path>
<rect x="377.5" y="29" width="71" height="22"></rect>
<a xlink:href="#/expression/Source"><text x="413" y="44">Source</text>
</a>
</g>
</g>
<path d="M448.5 40h20"></path>
</g>
</g>
</g>
<path d="M468.5 40h10"></path>
<path d="M 478.5 40 h 20 m -10 -10 v 20 m 10 -20 v 20"></path>
</g>
</svg>
