<svg xmlns="http://www.w3.org/2000/svg" xmlns:xlink="http://www.w3.org/1999/xlink" class="railroad-diagram" width="1981.5" height="252" viewBox="0 0 1981.5 252">
<defs>
<style type="text/css"><![CDATA[
path {
stroke-width: 3;
stroke: black;
fill: rgba(0,0,0,0);
}
text {
font: bold 14px monospace;
text-anchor: middle;
}
text.diagram-text {
font-size: 12px;
}
a {
fill: blue;
}
text.diagram-arrow {
font-size: 16px;
}
text.label {
text-anchor: start;
}
text.comment {
font: italic 12px monospace;
}
rect {
stroke-width: 3;
stroke: black;
fill: #BCBCBC;
}
path.diagram-text {
stroke-width: 3;
stroke: black;
fill: #BCBCBC;
cursor: help;
}
]]></style>
</defs>
<g transform="translate(.5 .5)">
<g>
<path d="M20 21v20m10 -20v20m-10 -10h20"></path>
</g>
<path d="M40 31h10"></path>
<g>
<path d="M50 31h0"></path>
<path d="M1931.5 31h0"></path>
<g>
<path d="M50 31h0"></path>
<path d="M123 31h0"></path>
<text x="86.5" y="36" class="comment">not Cloud</text>
</g>
<path d="M123 31h10"></path>
<path d="M133 31h10"></path>
<g>
<path d="M143 31h0"></path>
<path d="M1931.5 31h0"></path>
<g class="terminal">
<path d="M143 31h0"></path>
<path d="M239.5 31h0"></path>
<rect x="143" y="20" width="96.5" height="22" rx="10" ry="10"></rect>
<text x="191.25" y="35">"PROVIDE"</text>
</g>
<path d="M239.5 31h10"></path>
<g>
<path d="M249.5 31h0"></path>
<path d="M1441.5 31h0"></path>
<path d="M249.5 31h20"></path>
<g>
<path d="M269.5 31h0"></path>
<path d="M1421.5 31h0"></path>
<path d="M269.5 31h10"></path>
<g>
<path d="M279.5 31h0"></path>
<path d="M1411.5 31h0"></path>
<g class="terminal">
<path d="M279.5 31h0"></path>
<path d="M367.5 31h0"></path>
<rect x="279.5" y="20" width="88" height="22" rx="10" ry="10"></rect>
<text x="323.5" y="35">"FIELDS"</text>
</g>
<path d="M367.5 31h10"></path>
<path d="M377.5 31h10"></path>
<g>
<path d="M387.5 31h0"></path>
<path d="M510 31h0"></path>
<path d="M387.5 31h10"></path>
<g>
<path d="M397.5 31h0"></path>
<path d="M500 31h0"></path>
<path d="M397.5 31h20"></path>
<g class="terminal">
<path d="M417.5 31h0"></path>
<path d="M463 31h17"></path>
<rect x="417.5" y="20" width="45.5" height="22" rx="10" ry="10"></rect>
<text x="440.25" y="35">"&#42;"</text>
</g>
<path d="M480 31h20"></path>
<path d="M397.5 31a10 10 0 0 1 10 10v10a10 10 0 0 0 10 10"></path>
<g class="non-terminal">
<path d="M417.5 61h0"></path>
<path d="M480 61h0"></path>
<rect x="417.5" y="50" width="62.5" height="22"></rect>
<a xlink:href="#/expression/Field"><text x="448.75" y="65">Field</text>
</a>
</g>
<path d="M480 61a10 10 0 0 0 10 -10v-10a10 10 0 0 1 10 -10"></path>
</g>
<path d="M500 31h10"></path>
<path d="M397.5 31a10 10 0 0 0 -10 10v29a10 10 0 0 0 10 10"></path>
<g>
<path d="M397.5 80h102.5"></path>
</g>
<path d="M500 80a10 10 0 0 0 10 -10v-29a10 10 0 0 0 -10 -10"></path>
</g>
<path d="M510 31h10"></path>
<path d="M520 31h10"></path>
<g class="terminal">
<path d="M530 31h0"></path>
<path d="M601 31h0"></path>
<rect x="530" y="20" width="71" height="22" rx="10" ry="10"></rect>
<text x="565.5" y="35">"FROM"</text>
</g>
<path d="M601 31h10"></path>
<path d="M611 31h10"></path>
<g class="non-terminal">
<path d="M621 31h0"></path>
<path d="M692 31h0"></path>
<rect x="621" y="20" width="71" height="22"></rect>
<a xlink:href="#/expression/Source"><text x="656.5" y="35">Source</text>
</a>
</g>
<path d="M692 31h10"></path>
<path d="M702 31h10"></path>
<g class="terminal">
<path d="M712 31h0"></path>
<path d="M783 31h0"></path>
<rect x="712" y="20" width="71" height="22" rx="10" ry="10"></rect>
<text x="747.5" y="35">"INTO"</text>
</g>
<path d="M783 31h10"></path>
<path d="M793 31h10"></path>
<g class="non-terminal">
<path d="M803 31h0"></path>
<path d="M874 31h0"></path>
<rect x="803" y="20" width="71" height="22"></rect>
<a xlink:href="#/expression/Target"><text x="838.5" y="35">Target</text>
</a>
</g>
<path d="M874 31h10"></path>
<path d="M884 31h10"></path>
<g class="terminal">
<path d="M894 31h0"></path>
<path d="M973.5 31h0"></path>
<rect x="894" y="20" width="79.5" height="22" rx="10" ry="10"></rect>
<text x="933.75" y="35">"VALID"</text>
</g>
<path d="M973.5 31h10"></path>
<path d="M983.5 31h10"></path>
<g class="non-terminal">
<path d="M993.5 31h0"></path>
<path d="M1056 31h0"></path>
<rect x="993.5" y="20" width="62.5" height="22"></rect>
<a xlink:href="#/expression/Field"><text x="1024.75" y="35">Field</text>
</a>
</g>
<path d="M1056 31h10"></path>
<path d="M1066 31h10"></path>
<g class="terminal">
<path d="M1076 31h0"></path>
<path d="M1164 31h0"></path>
<rect x="1076" y="20" width="88" height="22" rx="10" ry="10"></rect>
<text x="1120" y="35">"BOUNDS"</text>
</g>
<path d="M1164 31h10"></path>
<path d="M1174 31h10"></path>
<g class="non-terminal">
<path d="M1184 31h0"></path>
<path d="M1246.5 31h0"></path>
<rect x="1184" y="20" width="62.5" height="22"></rect>
<a xlink:href="#/expression/Field"><text x="1215.25" y="35">Field</text>
</a>
</g>
<path d="M1246.5 31h10"></path>
<path d="M1256.5 31h10"></path>
<g class="terminal">
<path d="M1266.5 31h0"></path>
<path d="M1329 31h0"></path>
<rect x="1266.5" y="20" width="62.5" height="22" rx="10" ry="10"></rect>
<text x="1297.75" y="35">"AND"</text>
</g>
<path d="M1329 31h10"></path>
<path d="M1339 31h10"></path>
<g class="non-terminal">
<path d="M1349 31h0"></path>
<path d="M1411.5 31h0"></path>
<rect x="1349" y="20" width="62.5" height="22"></rect>
<a xlink:href="#/expression/Field"><text x="1380.25" y="35">Field</text>
</a>
</g>
</g>
<path d="M1411.5 31h10"></path>
<path d="M279.5 31a10 10 0 0 0 -10 10v37a10 10 0 0 0 10 10"></path>
<g>
<path d="M279.5 88h1132"></path>
</g>
<path d="M1411.5 88a10 10 0 0 0 10 -10v-37a10 10 0 0 0 -10 -10"></path>
</g>
<path d="M1421.5 31h20"></path>
<path d="M249.5 31a10 10 0 0 1 10 10v56a10 10 0 0 0 10 10"></path>
<g>
<path d="M269.5 107h0"></path>
<path d="M634 107h787.5"></path>
<path d="M269.5 107h10"></path>
<g>
<path d="M279.5 107h0"></path>
<path d="M624 107h0"></path>
<path d="M279.5 107h20"></path>
<g>
<path d="M299.5 107h0"></path>
<path d="M604 107h0"></path>
<g>
<path d="M299.5 107h0"></path>
<path d="M422 107h0"></path>
<path d="M299.5 107h10"></path>
<g>
<path d="M309.5 107h0"></path>
<path d="M412 107h0"></path>
<path d="M309.5 107h20"></path>
<g class="terminal">
<path d="M329.5 107h0"></path>
<path d="M375 107h17"></path>
<rect x="329.5" y="96" width="45.5" height="22" rx="10" ry="10"></rect>
<text x="352.25" y="111">"&#42;"</text>
</g>
<path d="M392 107h20"></path>
<path d="M309.5 107a10 10 0 0 1 10 10v10a10 10 0 0 0 10 10"></path>
<g class="non-terminal">
<path d="M329.5 137h0"></path>
<path d="M392 137h0"></path>
<rect x="329.5" y="126" width="62.5" height="22"></rect>
<a xlink:href="#/expression/Field"><text x="360.75" y="141">Field</text>
</a>
</g>
<path d="M392 137a10 10 0 0 0 10 -10v-10a10 10 0 0 1 10 -10"></path>
</g>
<path d="M412 107h10"></path>
<path d="M309.5 107a10 10 0 0 0 -10 10v29a10 10 0 0 0 10 10"></path>
<g>
<path d="M309.5 156h102.5"></path>
</g>
<path d="M412 156a10 10 0 0 0 10 -10v-29a10 10 0 0 0 -10 -10"></path>
</g>
<path d="M422 107h10"></path>
<path d="M432 107h10"></path>
<g class="terminal">
<path d="M442 107h0"></path>
<path d="M513 107h0"></path>
<rect x="442" y="96" width="71" height="22" rx="10" ry="10"></rect>
<text x="477.5" y="111">"FROM"</text>
</g>
<path d="M513 107h10"></path>
<path d="M523 107h10"></path>
<g class="non-terminal">
<path d="M533 107h0"></path>
<path d="M604 107h0"></path>
<rect x="533" y="96" width="71" height="22"></rect>
<a xlink:href="#/expression/Source"><text x="568.5" y="111">Source</text>
</a>
</g>
</g>
<path d="M604 107h20"></path>
<path d="M279.5 107a10 10 0 0 1 10 10v48a10 10 0 0 0 10 10"></path>
<g>
<path d="M299.5 175h0"></path>
<path d="M422 175h182"></path>
<path d="M299.5 175h10"></path>
<g>
<path d="M309.5 175h0"></path>
<path d="M412 175h0"></path>
<path d="M309.5 175h20"></path>
<g class="terminal">
<path d="M329.5 175h0"></path>
<path d="M375 175h17"></path>
<rect x="329.5" y="164" width="45.5" height="22" rx="10" ry="10"></rect>
<text x="352.25" y="179">"&#42;"</text>
</g>
<path d="M392 175h20"></path>
<path d="M309.5 175a10 10 0 0 1 10 10v10a10 10 0 0 0 10 10"></path>
<g class="non-terminal">
<path d="M329.5 205h0"></path>
<path d="M392 205h0"></path>
<rect x="329.5" y="194" width="62.5" height="22"></rect>
<a xlink:href="#/expression/Field"><text x="360.75" y="209">Field</text>
</a>
</g>
<path d="M392 205a10 10 0 0 0 10 -10v-10a10 10 0 0 1 10 -10"></path>
</g>
<path d="M412 175h10"></path>
<path d="M309.5 175a10 10 0 0 0 -10 10v29a10 10 0 0 0 10 10"></path>
<g>
<path d="M309.5 224h102.5"></path>
</g>
<path d="M412 224a10 10 0 0 0 10 -10v-29a10 10 0 0 0 -10 -10"></path>
</g>
<path d="M604 175a10 10 0 0 0 10 -10v-48a10 10 0 0 1 10 -10"></path>
</g>
<path d="M624 107h10"></path>
<path d="M279.5 107a10 10 0 0 0 -10 10v105a10 10 0 0 0 10 10"></path>
<g>
<path d="M279.5 232h344.5"></path>
</g>
<path d="M624 232a10 10 0 0 0 10 -10v-105a10 10 0 0 0 -10 -10"></path>
</g>
<path d="M1421.5 107a10 10 0 0 0 10 -10v-56a10 10 0 0 1 10 -10"></path>
</g>
<path d="M1441.5 31h10"></path>
<g class="terminal">
<path d="M1451.5 31h0"></path>
<path d="M1548 31h0"></path>
<rect x="1451.5" y="20" width="96.5" height="22" rx="10" ry="10"></rect>
<text x="1499.75" y="35">"BETWEEN"</text>
</g>
<path d="M1548 31h10"></path>
<path d="M1558 31h10"></path>
<g class="non-terminal">
<path d="M1568 31h0"></path>
<path d="M1698.5 31h0"></path>
<rect x="1568" y="20" width="130.5" height="22"></rect>
<a xlink:href="#/expression/SimpleSource3"><text x="1633.25" y="35">SimpleSource3</text>
</a>
</g>
<path d="M1698.5 31h10"></path>
<path d="M1708.5 31h10"></path>
<g class="terminal">
<path d="M1718.5 31h0"></path>
<path d="M1781 31h0"></path>
<rect x="1718.5" y="20" width="62.5" height="22" rx="10" ry="10"></rect>
<text x="1749.75" y="35">"AND"</text>
</g>
<path d="M1781 31h10"></path>
<path d="M1791 31h10"></path>
<g class="non-terminal">
<path d="M1801 31h0"></path>
<path d="M1931.5 31h0"></path>
<rect x="1801" y="20" width="130.5" height="22"></rect>
<a xlink:href="#/expression/SimpleSource3"><text x="1866.25" y="35">SimpleSource3</text>
</a>
</g>
</g>
</g>
<path d="M1931.5 31h10"></path>
<path d="M 1941.5 31 h 20 m -10 -10 v 20 m 10 -20 v 20"></path>
</g>
</svg>
