<svg xmlns="http://www.w3.org/2000/svg" xmlns:xlink="http://www.w3.org/1999/xlink" class="railroad-diagram" width="1053.5" height="200" viewBox="0 0 1053.5 200">
<defs>
<style type="text/css"><![CDATA[
path {
stroke-width: 3;
stroke: black;
fill: rgba(0,0,0,0);
}
text {
font: bold 14px monospace;
text-anchor: middle;
}
text.diagram-text {
font-size: 12px;
}
a {
fill: blue;
}
text.diagram-arrow {
font-size: 16px;
}
text.label {
text-anchor: start;
}
text.comment {
font: italic 12px monospace;
}
rect {
stroke-width: 3;
stroke: black;
fill: #BCBCBC;
}
path.diagram-text {
stroke-width: 3;
stroke: black;
fill: #BCBCBC;
cursor: help;
}
]]></style>
</defs>
<g transform="translate(.5 .5)">
<g>
<path d="M20 30v20m10 -20v20m-10 -10h20"></path>
</g>
<path d="M40 40h10"></path>
<g>
<path d="M50 40h0"></path>
<path d="M1003.5 40h0"></path>
<g>
<path d="M50 40h0"></path>
<path d="M123 40h0"></path>
<text x="86.5" y="45" class="comment">not Cloud</text>
</g>
<path d="M123 40h10"></path>
<path d="M133 40h10"></path>
<g>
<path d="M143 40h0"></path>
<path d="M1003.5 40h0"></path>
<g class="terminal">
<path d="M143 40h0"></path>
<path d="M231 40h0"></path>
<rect x="143" y="29" width="88" height="22" rx="10" ry="10"></rect>
<text x="187" y="44">"REPORT"</text>
</g>
<path d="M231 40h10"></path>
<g>
<path d="M241 40h0"></path>
<path d="M386 40h0"></path>
<path d="M241 40a10 10 0 0 0 10 -10v0a10 10 0 0 1 10 -10"></path>
<g>
<path d="M261 20h105"></path>
</g>
<path d="M366 20a10 10 0 0 1 10 10v0a10 10 0 0 0 10 10"></path>
<path d="M241 40h20"></path>
<g class="non-terminal">
<path d="M261 40h0"></path>
<path d="M366 40h0"></path>
<rect x="261" y="29" width="105" height="22"></rect>
<a xlink:href="#/expression/ReportName"><text x="313.5" y="44">ReportName</text>
</a>
</g>
<path d="M366 40h20"></path>
</g>
<g>
<path d="M386 40h0"></path>
<path d="M1003.5 40h0"></path>
<path d="M386 40a10 10 0 0 0 10 -10v0a10 10 0 0 1 10 -10"></path>
<g>
<path d="M406 20h577.5"></path>
</g>
<path d="M983.5 20a10 10 0 0 1 10 10v0a10 10 0 0 0 10 10"></path>
<path d="M386 40h20"></path>
<g>
<path d="M406 40h0"></path>
<path d="M983.5 40h0"></path>
<path d="M436 40h10"></path>
<g class="terminal">
<path d="M446 40h0"></path>
<path d="M687 40h266.5"></path>
<rect x="446" y="29" width="241" height="22" rx="10" ry="10"></rect>
<text x="566.5" y="44">"NO STANDARD PAGE HEADING"</text>
</g>
<path d="M953.5 40h10"></path>
<path d="M436 40v20a10 10 0 0 0 10 10"></path>
<g>
<path d="M446 70h0"></path>
<path d="M659 70h294.5"></path>
<g class="terminal">
<path d="M446 70h0"></path>
<path d="M559.5 70h0"></path>
<rect x="446" y="59" width="113.5" height="22" rx="10" ry="10"></rect>
<text x="502.75" y="74">"LINE-SIZE"</text>
</g>
<path d="M559.5 70h10"></path>
<path d="M569.5 70h10"></path>
<g class="non-terminal">
<path d="M579.5 70h0"></path>
<path d="M659 70h0"></path>
<rect x="579.5" y="59" width="79.5" height="22"></rect>
<a xlink:href="#/expression/Integer"><text x="619.25" y="74">Integer</text>
</a>
</g>
</g>
<path d="M953.5 70a10 10 0 0 0 10 -10v-20"></path>
<path d="M436 40v59a10 10 0 0 0 10 10"></path>
<g>
<path d="M446 109h0"></path>
<path d="M953.5 109h0"></path>
<g class="terminal">
<path d="M446 109h0"></path>
<path d="M568 109h0"></path>
<rect x="446" y="98" width="122" height="22" rx="10" ry="10"></rect>
<text x="507" y="113">"LINE-COUNT"</text>
</g>
<path d="M568 109h10"></path>
<path d="M578 109h10"></path>
<g class="non-terminal">
<path d="M588 109h0"></path>
<path d="M667.5 109h0"></path>
<rect x="588" y="98" width="79.5" height="22"></rect>
<a xlink:href="#/expression/Integer"><text x="627.75" y="113">Integer</text>
</a>
</g>
<path d="M667.5 109h10"></path>
<g>
<path d="M677.5 109h0"></path>
<path d="M953.5 109h0"></path>
<path d="M677.5 109a10 10 0 0 0 10 -10v0a10 10 0 0 1 10 -10"></path>
<g>
<path d="M697.5 89h236"></path>
</g>
<path d="M933.5 89a10 10 0 0 1 10 10v0a10 10 0 0 0 10 10"></path>
<path d="M677.5 109h20"></path>
<g>
<path d="M697.5 109h0"></path>
<path d="M933.5 109h0"></path>
<g class="terminal">
<path d="M697.5 109h0"></path>
<path d="M751.5 109h0"></path>
<rect x="697.5" y="98" width="54" height="22" rx="10" ry="10"></rect>
<text x="724.5" y="113">!"("</text>
</g>
<path d="M751.5 109h10"></path>
<path d="M761.5 109h10"></path>
<g class="non-terminal">
<path d="M771.5 109h0"></path>
<path d="M851 109h0"></path>
<rect x="771.5" y="98" width="79.5" height="22"></rect>
<a xlink:href="#/expression/Integer"><text x="811.25" y="113">Integer</text>
</a>
</g>
<path d="M851 109h10"></path>
<path d="M861 109h10"></path>
<g class="terminal">
<path d="M871 109h0"></path>
<path d="M933.5 109h0"></path>
<rect x="871" y="98" width="62.5" height="22" rx="10" ry="10"></rect>
<text x="902.25" y="113">!") "</text>
</g>
</g>
<path d="M933.5 109h20"></path>
</g>
</g>
<path d="M953.5 109a10 10 0 0 0 10 -10v-59"></path>
<path d="M436 40v89a10 10 0 0 0 10 10"></path>
<g>
<path d="M446 139h0"></path>
<path d="M684.5 139h269"></path>
<g class="terminal">
<path d="M446 139h0"></path>
<path d="M602 139h0"></path>
<rect x="446" y="128" width="156" height="22" rx="10" ry="10"></rect>
<text x="524" y="143">"USING DATABASE"</text>
</g>
<path d="M602 139h10"></path>
<path d="M612 139h10"></path>
<g class="non-terminal">
<path d="M622 139h0"></path>
<path d="M684.5 139h0"></path>
<rect x="622" y="128" width="62.5" height="22"></rect>
<a xlink:href="#/expression/Field"><text x="653.25" y="143">Field</text>
</a>
</g>
</g>
<path d="M953.5 139a10 10 0 0 0 10 -10v-89"></path>
<path d="M436 40v119a10 10 0 0 0 10 10"></path>
<g>
<path d="M446 169h0"></path>
<path d="M710 169h243.5"></path>
<g class="terminal">
<path d="M446 169h0"></path>
<path d="M568 169h0"></path>
<rect x="446" y="158" width="122" height="22" rx="10" ry="10"></rect>
<text x="507" y="173">"MESSAGE-ID"</text>
</g>
<path d="M568 169h10"></path>
<path d="M578 169h10"></path>
<g class="non-terminal">
<path d="M588 169h0"></path>
<path d="M710 169h0"></path>
<rect x="588" y="158" width="122" height="22"></rect>
<a xlink:href="#/expression/MessageClass"><text x="649" y="173">MessageClass</text>
</a>
</g>
</g>
<path d="M953.5 169a10 10 0 0 0 10 -10v-119"></path>
<g class="diagram-text">
<title>take one or more branches, once each, in any order</title>
<path d="M 436 30 h -26 a 4 4 0 0 0 -4 4 v 12 a 4 4 0 0 0 4 4 h 26 z" class="diagram-text"></path>
<text x="421" y="44" class="diagram-text">1+</text>
<path d="M 963.5 30 h 16 a 4 4 0 0 1 4 4 v 12 a 4 4 0 0 1 -4 4 h -16 z" class="diagram-text"></path>
<path d="M 970.5 38 a 4 4 0 1 0 6 -1 m 2.75 -1 h -4 v 4 m 0 -3 h 2" style="stroke-width: 1.75"></path>
</g>
</g>
<path d="M983.5 40h20"></path>
</g>
</g>
</g>
<path d="M1003.5 40h10"></path>
<path d="M 1013.5 40 h 20 m -10 -10 v 20 m 10 -20 v 20"></path>
</g>
</svg>
