<svg xmlns="http://www.w3.org/2000/svg" xmlns:xlink="http://www.w3.org/1999/xlink" class="railroad-diagram" width="1994" height="1020" viewBox="0 0 1994 1020">
<defs>
<style type="text/css"><![CDATA[
path {
stroke-width: 3;
stroke: black;
fill: rgba(0,0,0,0);
}
text {
font: bold 14px monospace;
text-anchor: middle;
}
text.diagram-text {
font-size: 12px;
}
a {
fill: blue;
}
text.diagram-arrow {
font-size: 16px;
}
text.label {
text-anchor: start;
}
text.comment {
font: italic 12px monospace;
}
rect {
stroke-width: 3;
stroke: black;
fill: #BCBCBC;
}
path.diagram-text {
stroke-width: 3;
stroke: black;
fill: #BCBCBC;
cursor: help;
}
]]></style>
</defs>
<g transform="translate(.5 .5)">
<g>
<path d="M20 30v20m10 -20v20m-10 -10h20"></path>
</g>
<path d="M40 40h10"></path>
<g>
<path d="M50 40h0"></path>
<path d="M1944 40h0"></path>
<g>
<path d="M50 40h0"></path>
<path d="M123 40h0"></path>
<text x="86.5" y="45" class="comment">not Cloud</text>
</g>
<path d="M123 40h10"></path>
<path d="M133 40h10"></path>
<g>
<path d="M143 40h0"></path>
<path d="M1944 40h0"></path>
<g class="terminal">
<path d="M143 40h0"></path>
<path d="M316 40h0"></path>
<rect x="143" y="29" width="173" height="22" rx="10" ry="10"></rect>
<text x="229.5" y="44">"SELECTION-SCREEN"</text>
</g>
<path d="M316 40h10"></path>
<g>
<path d="M326 40h0"></path>
<path d="M1944 40h0"></path>
<path d="M326 40h20"></path>
<g>
<path d="M346 40h0"></path>
<path d="M1481 40h443"></path>
<g class="terminal">
<path d="M346 40h0"></path>
<path d="M442.5 40h0"></path>
<rect x="346" y="29" width="96.5" height="22" rx="10" ry="10"></rect>
<text x="394.25" y="44">"COMMENT"</text>
</g>
<path d="M442.5 40h10"></path>
<path d="M452.5 40h10"></path>
<g>
<path d="M462.5 40h0"></path>
<path d="M929 40h0"></path>
<g>
<path d="M462.5 40h0"></path>
<path d="M624.5 40h0"></path>
<path d="M462.5 40a10 10 0 0 0 10 -10v0a10 10 0 0 1 10 -10"></path>
<g>
<path d="M482.5 20h122"></path>
</g>
<path d="M604.5 20a10 10 0 0 1 10 10v0a10 10 0 0 0 10 10"></path>
<path d="M462.5 40h20"></path>
<g class="terminal">
<path d="M482.5 40h0"></path>
<path d="M604.5 40h0"></path>
<rect x="482.5" y="29" width="122" height="22" rx="10" ry="10"></rect>
<text x="543.5" y="44">^\/?&#91;\d\w&#93;+$</text>
</g>
<path d="M604.5 40h20"></path>
</g>
<g>
<path d="M624.5 40h0"></path>
<path d="M727 40h0"></path>
<path d="M624.5 40h20"></path>
<g class="terminal">
<path d="M644.5 40h0"></path>
<path d="M698.5 40h8.5"></path>
<rect x="644.5" y="29" width="54" height="22" rx="10" ry="10"></rect>
<text x="671.5" y="44">!"("</text>
</g>
<path d="M707 40h20"></path>
<path d="M624.5 40a10 10 0 0 1 10 10v10a10 10 0 0 0 10 10"></path>
<g class="terminal">
<path d="M644.5 70h0"></path>
<path d="M707 70h0"></path>
<rect x="644.5" y="59" width="62.5" height="22" rx="10" ry="10"></rect>
<text x="675.75" y="74">!" ("</text>
</g>
<path d="M707 70a10 10 0 0 0 10 -10v-10a10 10 0 0 1 10 -10"></path>
</g>
<path d="M727 40h10"></path>
<g class="non-terminal">
<path d="M737 40h0"></path>
<path d="M816.5 40h0"></path>
<rect x="737" y="29" width="79.5" height="22"></rect>
<a xlink:href="#/expression/Integer"><text x="776.75" y="44">Integer</text>
</a>
</g>
<path d="M816.5 40h10"></path>
<g>
<path d="M826.5 40h0"></path>
<path d="M929 40h0"></path>
<path d="M826.5 40h20"></path>
<g class="terminal">
<path d="M846.5 40h0"></path>
<path d="M909 40h0"></path>
<rect x="846.5" y="29" width="62.5" height="22" rx="10" ry="10"></rect>
<text x="877.75" y="44">!") "</text>
</g>
<path d="M909 40h20"></path>
<path d="M826.5 40a10 10 0 0 1 10 10v10a10 10 0 0 0 10 10"></path>
<g class="terminal">
<path d="M846.5 70h0"></path>
<path d="M900.5 70h8.5"></path>
<rect x="846.5" y="59" width="54" height="22" rx="10" ry="10"></rect>
<text x="873.5" y="74">!")"</text>
</g>
<path d="M909 70a10 10 0 0 0 10 -10v-10a10 10 0 0 1 10 -10"></path>
</g>
</g>
<path d="M929 40h10"></path>
<g>
<path d="M939 40h0"></path>
<path d="M1132.5 40h0"></path>
<path d="M939 40a10 10 0 0 0 10 -10v0a10 10 0 0 1 10 -10"></path>
<g>
<path d="M959 20h153.5"></path>
</g>
<path d="M1112.5 20a10 10 0 0 1 10 10v0a10 10 0 0 0 10 10"></path>
<path d="M939 40h20"></path>
<g>
<path d="M959 40h0"></path>
<path d="M1112.5 40h0"></path>
<path d="M959 40h20"></path>
<g class="non-terminal">
<path d="M979 40h0"></path>
<path d="M1092.5 40h0"></path>
<rect x="979" y="29" width="113.5" height="22"></rect>
<a xlink:href="#/expression/InlineField"><text x="1035.75" y="44">InlineField</text>
</a>
</g>
<path d="M1092.5 40h20"></path>
<path d="M959 40a10 10 0 0 1 10 10v10a10 10 0 0 0 10 10"></path>
<g class="non-terminal">
<path d="M979 70h0"></path>
<path d="M1092.5 70h0"></path>
<rect x="979" y="59" width="113.5" height="22"></rect>
<a xlink:href="#/expression/TextElement"><text x="1035.75" y="74">TextElement</text>
</a>
</g>
<path d="M1092.5 70a10 10 0 0 0 10 -10v-10a10 10 0 0 1 10 -10"></path>
</g>
<path d="M1112.5 40h20"></path>
</g>
<g>
<path d="M1132.5 40h0"></path>
<path d="M1481 40h0"></path>
<path d="M1132.5 40a10 10 0 0 0 10 -10v0a10 10 0 0 1 10 -10"></path>
<g>
<path d="M1152.5 20h308.5"></path>
</g>
<path d="M1461 20a10 10 0 0 1 10 10v0a10 10 0 0 0 10 10"></path>
<path d="M1132.5 40h20"></path>
<g>
<path d="M1152.5 40h0"></path>
<path d="M1461 40h0"></path>
<path d="M1182.5 40h10"></path>
<g>
<path d="M1192.5 40h0"></path>
<path d="M1388.5 40h42.5"></path>
<g class="terminal">
<path d="M1192.5 40h0"></path>
<path d="M1306 40h0"></path>
<rect x="1192.5" y="29" width="113.5" height="22" rx="10" ry="10"></rect>
<text x="1249.25" y="44">"FOR FIELD"</text>
</g>
<path d="M1306 40h10"></path>
<path d="M1316 40h10"></path>
<g class="non-terminal">
<path d="M1326 40h0"></path>
<path d="M1388.5 40h0"></path>
<rect x="1326" y="29" width="62.5" height="22"></rect>
<a xlink:href="#/expression/Field"><text x="1357.25" y="44">Field</text>
</a>
</g>
</g>
<path d="M1431 40h10"></path>
<path d="M1182.5 40v20a10 10 0 0 0 10 10"></path>
<g>
<path d="M1192.5 70h0"></path>
<path d="M1380 70h51"></path>
<g class="terminal">
<path d="M1192.5 70h0"></path>
<path d="M1297.5 70h0"></path>
<rect x="1192.5" y="59" width="105" height="22" rx="10" ry="10"></rect>
<text x="1245" y="74">"MODIF ID"</text>
</g>
<path d="M1297.5 70h10"></path>
<path d="M1307.5 70h10"></path>
<g class="non-terminal">
<path d="M1317.5 70h0"></path>
<path d="M1380 70h0"></path>
<rect x="1317.5" y="59" width="62.5" height="22"></rect>
<a xlink:href="#/expression/Modif"><text x="1348.75" y="74">Modif</text>
</a>
</g>
</g>
<path d="M1431 70a10 10 0 0 0 10 -10v-20"></path>
<path d="M1182.5 40v50a10 10 0 0 0 10 10"></path>
<g>
<path d="M1192.5 100h0"></path>
<path d="M1431 100h0"></path>
<g class="terminal">
<path d="M1192.5 100h0"></path>
<path d="M1348.5 100h0"></path>
<rect x="1192.5" y="89" width="156" height="22" rx="10" ry="10"></rect>
<text x="1270.5" y="104">"VISIBLE LENGTH"</text>
</g>
<path d="M1348.5 100h10"></path>
<path d="M1358.5 100h10"></path>
<g class="terminal">
<path d="M1368.5 100h0"></path>
<path d="M1431 100h0"></path>
<rect x="1368.5" y="89" width="62.5" height="22" rx="10" ry="10"></rect>
<text x="1399.75" y="104">^\d+$</text>
</g>
</g>
<path d="M1431 100a10 10 0 0 0 10 -10v-50"></path>
<g class="diagram-text">
<title>take one or more branches, once each, in any order</title>
<path d="M 1182.5 30 h -26 a 4 4 0 0 0 -4 4 v 12 a 4 4 0 0 0 4 4 h 26 z" class="diagram-text"></path>
<text x="1167.5" y="44" class="diagram-text">1+</text>
<path d="M 1441 30 h 16 a 4 4 0 0 1 4 4 v 12 a 4 4 0 0 1 -4 4 h -16 z" class="diagram-text"></path>
<path d="M 1448 38 a 4 4 0 1 0 6 -1 m 2.75 -1 h -4 v 4 m 0 -3 h 2" style="stroke-width: 1.75"></path>
</g>
</g>
<path d="M1461 40h20"></path>
</g>
</g>
<path d="M1924 40h20"></path>
<path d="M326 40a10 10 0 0 1 10 10v70a10 10 0 0 0 10 10"></path>
<g>
<path d="M346 130h0"></path>
<path d="M584.5 130h1339.5"></path>
<g class="terminal">
<path d="M346 130h0"></path>
<path d="M485 130h0"></path>
<rect x="346" y="119" width="139" height="22" rx="10" ry="10"></rect>
<text x="415.5" y="134">"FUNCTION KEY"</text>
</g>
<path d="M485 130h10"></path>
<path d="M495 130h10"></path>
<g class="non-terminal">
<path d="M505 130h0"></path>
<path d="M584.5 130h0"></path>
<rect x="505" y="119" width="79.5" height="22"></rect>
<a xlink:href="#/expression/Integer"><text x="544.75" y="134">Integer</text>
</a>
</g>
</g>
<path d="M1924 130a10 10 0 0 0 10 -10v-70a10 10 0 0 1 10 -10"></path>
<path d="M326 40a10 10 0 0 1 10 10v109a10 10 0 0 0 10 10"></path>
<g>
<path d="M346 169h0"></path>
<path d="M546.5 169h1377.5"></path>
<g class="terminal">
<path d="M346 169h0"></path>
<path d="M417 169h0"></path>
<rect x="346" y="158" width="71" height="22" rx="10" ry="10"></rect>
<text x="381.5" y="173">"SKIP"</text>
</g>
<path d="M417 169h10"></path>
<g>
<path d="M427 169h0"></path>
<path d="M546.5 169h0"></path>
<path d="M427 169a10 10 0 0 0 10 -10v0a10 10 0 0 1 10 -10"></path>
<g>
<path d="M447 149h79.5"></path>
</g>
<path d="M526.5 149a10 10 0 0 1 10 10v0a10 10 0 0 0 10 10"></path>
<path d="M427 169h20"></path>
<g class="non-terminal">
<path d="M447 169h0"></path>
<path d="M526.5 169h0"></path>
<rect x="447" y="158" width="79.5" height="22"></rect>
<a xlink:href="#/expression/Integer"><text x="486.75" y="173">Integer</text>
</a>
</g>
<path d="M526.5 169h20"></path>
</g>
</g>
<path d="M1924 169a10 10 0 0 0 10 -10v-109a10 10 0 0 1 10 -10"></path>
<path d="M326 40a10 10 0 0 1 10 10v139a10 10 0 0 0 10 10"></path>
<g>
<path d="M346 199h0"></path>
<path d="M801.5 199h1122.5"></path>
<g class="terminal">
<path d="M346 199h0"></path>
<path d="M451 199h0"></path>
<rect x="346" y="188" width="105" height="22" rx="10" ry="10"></rect>
<text x="398.5" y="203">"POSITION"</text>
</g>
<path d="M451 199h10"></path>
<g>
<path d="M461 199h0"></path>
<path d="M801.5 199h0"></path>
<path d="M461 199h20"></path>
<g class="terminal">
<path d="M481 199h0"></path>
<path d="M781.5 199h0"></path>
<rect x="481" y="188" width="300.5" height="22" rx="10" ry="10"></rect>
<text x="631.25" y="203">^(0?&#91;1-9&#93;|&#91;1234567&#93;&#91;0-9&#93;|8&#91;0-3&#93;)$</text>
</g>
<path d="M781.5 199h20"></path>
<path d="M461 199a10 10 0 0 1 10 10v10a10 10 0 0 0 10 10"></path>
<g>
<path d="M481 229h0"></path>
<path d="M626 229h155.5"></path>
<path d="M481 229h20"></path>
<g class="terminal">
<path d="M501 229h0"></path>
<path d="M597.5 229h8.5"></path>
<rect x="501" y="218" width="96.5" height="22" rx="10" ry="10"></rect>
<text x="549.25" y="233">"POS&#95;LOW"</text>
</g>
<path d="M606 229h20"></path>
<path d="M481 229a10 10 0 0 1 10 10v10a10 10 0 0 0 10 10"></path>
<g class="terminal">
<path d="M501 259h0"></path>
<path d="M606 259h0"></path>
<rect x="501" y="248" width="105" height="22" rx="10" ry="10"></rect>
<text x="553.5" y="263">"POS&#95;HIGH"</text>
</g>
<path d="M606 259a10 10 0 0 0 10 -10v-10a10 10 0 0 1 10 -10"></path>
</g>
<path d="M781.5 229a10 10 0 0 0 10 -10v-10a10 10 0 0 1 10 -10"></path>
</g>
</g>
<path d="M1924 199a10 10 0 0 0 10 -10v-139a10 10 0 0 1 10 -10"></path>
<path d="M326 40a10 10 0 0 1 10 10v229a10 10 0 0 0 10 10"></path>
<g>
<path d="M346 289h0"></path>
<path d="M618.5 289h1305.5"></path>
<g class="terminal">
<path d="M346 289h0"></path>
<path d="M502 289h0"></path>
<rect x="346" y="278" width="156" height="22" rx="10" ry="10"></rect>
<text x="424" y="293">"INCLUDE BLOCKS"</text>
</g>
<path d="M502 289h10"></path>
<path d="M512 289h10"></path>
<g class="non-terminal">
<path d="M522 289h0"></path>
<path d="M618.5 289h0"></path>
<rect x="522" y="278" width="96.5" height="22"></rect>
<a xlink:href="#/expression/BlockName"><text x="570.25" y="293">BlockName</text>
</a>
</g>
</g>
<path d="M1924 289a10 10 0 0 0 10 -10v-229a10 10 0 0 1 10 -10"></path>
<path d="M326 40a10 10 0 0 1 10 10v259a10 10 0 0 0 10 10"></path>
<g>
<path d="M346 319h0"></path>
<path d="M652.5 319h1271.5"></path>
<g class="terminal">
<path d="M346 319h0"></path>
<path d="M570 319h0"></path>
<rect x="346" y="308" width="224" height="22" rx="10" ry="10"></rect>
<text x="458" y="323">"INCLUDE SELECT-OPTIONS"</text>
</g>
<path d="M570 319h10"></path>
<path d="M580 319h10"></path>
<g class="non-terminal">
<path d="M590 319h0"></path>
<path d="M652.5 319h0"></path>
<rect x="590" y="308" width="62.5" height="22"></rect>
<a xlink:href="#/expression/Field"><text x="621.25" y="323">Field</text>
</a>
</g>
</g>
<path d="M1924 319a10 10 0 0 0 10 -10v-259a10 10 0 0 1 10 -10"></path>
<path d="M326 40a10 10 0 0 1 10 10v298a10 10 0 0 0 10 10"></path>
<g>
<path d="M346 358h0"></path>
<path d="M1921 358h3"></path>
<g class="terminal">
<path d="M346 358h0"></path>
<path d="M468 358h0"></path>
<rect x="346" y="347" width="122" height="22" rx="10" ry="10"></rect>
<text x="407" y="362">"PUSHBUTTON"</text>
</g>
<path d="M468 358h10"></path>
<path d="M478 358h10"></path>
<g>
<path d="M488 358h0"></path>
<path d="M954.5 358h0"></path>
<g>
<path d="M488 358h0"></path>
<path d="M650 358h0"></path>
<path d="M488 358a10 10 0 0 0 10 -10v0a10 10 0 0 1 10 -10"></path>
<g>
<path d="M508 338h122"></path>
</g>
<path d="M630 338a10 10 0 0 1 10 10v0a10 10 0 0 0 10 10"></path>
<path d="M488 358h20"></path>
<g class="terminal">
<path d="M508 358h0"></path>
<path d="M630 358h0"></path>
<rect x="508" y="347" width="122" height="22" rx="10" ry="10"></rect>
<text x="569" y="362">^\/?&#91;\d\w&#93;+$</text>
</g>
<path d="M630 358h20"></path>
</g>
<g>
<path d="M650 358h0"></path>
<path d="M752.5 358h0"></path>
<path d="M650 358h20"></path>
<g class="terminal">
<path d="M670 358h0"></path>
<path d="M724 358h8.5"></path>
<rect x="670" y="347" width="54" height="22" rx="10" ry="10"></rect>
<text x="697" y="362">!"("</text>
</g>
<path d="M732.5 358h20"></path>
<path d="M650 358a10 10 0 0 1 10 10v10a10 10 0 0 0 10 10"></path>
<g class="terminal">
<path d="M670 388h0"></path>
<path d="M732.5 388h0"></path>
<rect x="670" y="377" width="62.5" height="22" rx="10" ry="10"></rect>
<text x="701.25" y="392">!" ("</text>
</g>
<path d="M732.5 388a10 10 0 0 0 10 -10v-10a10 10 0 0 1 10 -10"></path>
</g>
<path d="M752.5 358h10"></path>
<g class="non-terminal">
<path d="M762.5 358h0"></path>
<path d="M842 358h0"></path>
<rect x="762.5" y="347" width="79.5" height="22"></rect>
<a xlink:href="#/expression/Integer"><text x="802.25" y="362">Integer</text>
</a>
</g>
<path d="M842 358h10"></path>
<g>
<path d="M852 358h0"></path>
<path d="M954.5 358h0"></path>
<path d="M852 358h20"></path>
<g class="terminal">
<path d="M872 358h0"></path>
<path d="M934.5 358h0"></path>
<rect x="872" y="347" width="62.5" height="22" rx="10" ry="10"></rect>
<text x="903.25" y="362">!") "</text>
</g>
<path d="M934.5 358h20"></path>
<path d="M852 358a10 10 0 0 1 10 10v10a10 10 0 0 0 10 10"></path>
<g class="terminal">
<path d="M872 388h0"></path>
<path d="M926 388h8.5"></path>
<rect x="872" y="377" width="54" height="22" rx="10" ry="10"></rect>
<text x="899" y="392">!")"</text>
</g>
<path d="M934.5 388a10 10 0 0 0 10 -10v-10a10 10 0 0 1 10 -10"></path>
</g>
</g>
<path d="M954.5 358h10"></path>
<g>
<path d="M964.5 358h0"></path>
<path d="M1118 358h0"></path>
<path d="M964.5 358h20"></path>
<g class="non-terminal">
<path d="M984.5 358h0"></path>
<path d="M1098 358h0"></path>
<rect x="984.5" y="347" width="113.5" height="22"></rect>
<a xlink:href="#/expression/InlineField"><text x="1041.25" y="362">InlineField</text>
</a>
</g>
<path d="M1098 358h20"></path>
<path d="M964.5 358a10 10 0 0 1 10 10v10a10 10 0 0 0 10 10"></path>
<g class="non-terminal">
<path d="M984.5 388h0"></path>
<path d="M1098 388h0"></path>
<rect x="984.5" y="377" width="113.5" height="22"></rect>
<a xlink:href="#/expression/TextElement"><text x="1041.25" y="392">TextElement</text>
</a>
</g>
<path d="M1098 388a10 10 0 0 0 10 -10v-10a10 10 0 0 1 10 -10"></path>
</g>
<path d="M1118 358h10"></path>
<g>
<path d="M1128 358h0"></path>
<path d="M1405 358h0"></path>
<g class="terminal">
<path d="M1128 358h0"></path>
<path d="M1267 358h0"></path>
<rect x="1128" y="347" width="139" height="22" rx="10" ry="10"></rect>
<text x="1197.5" y="362">"USER-COMMAND"</text>
</g>
<path d="M1267 358h10"></path>
<g>
<path d="M1277 358h0"></path>
<path d="M1405 358h0"></path>
<path d="M1277 358h20"></path>
<g class="non-terminal">
<path d="M1297 358h0"></path>
<path d="M1359.5 358h25.5"></path>
<rect x="1297" y="347" width="62.5" height="22"></rect>
<a xlink:href="#/expression/Field"><text x="1328.25" y="362">Field</text>
</a>
</g>
<path d="M1385 358h20"></path>
<path d="M1277 358a10 10 0 0 1 10 10v10a10 10 0 0 0 10 10"></path>
<g class="non-terminal">
<path d="M1297 388h0"></path>
<path d="M1385 388h0"></path>
<rect x="1297" y="377" width="88" height="22"></rect>
<a xlink:href="#/expression/Constant"><text x="1341" y="392">Constant</text>
</a>
</g>
<path d="M1385 388a10 10 0 0 0 10 -10v-10a10 10 0 0 1 10 -10"></path>
</g>
</g>
<path d="M1405 358h10"></path>
<g>
<path d="M1415 358h0"></path>
<path d="M1642.5 358h0"></path>
<path d="M1415 358a10 10 0 0 0 10 -10v0a10 10 0 0 1 10 -10"></path>
<g>
<path d="M1435 338h187.5"></path>
</g>
<path d="M1622.5 338a10 10 0 0 1 10 10v0a10 10 0 0 0 10 10"></path>
<path d="M1415 358h20"></path>
<g>
<path d="M1435 358h0"></path>
<path d="M1622.5 358h0"></path>
<g class="terminal">
<path d="M1435 358h0"></path>
<path d="M1540 358h0"></path>
<rect x="1435" y="347" width="105" height="22" rx="10" ry="10"></rect>
<text x="1487.5" y="362">"MODIF ID"</text>
</g>
<path d="M1540 358h10"></path>
<path d="M1550 358h10"></path>
<g class="non-terminal">
<path d="M1560 358h0"></path>
<path d="M1622.5 358h0"></path>
<rect x="1560" y="347" width="62.5" height="22"></rect>
<a xlink:href="#/expression/Modif"><text x="1591.25" y="362">Modif</text>
</a>
</g>
</g>
<path d="M1622.5 358h20"></path>
</g>
<g>
<path d="M1642.5 358h0"></path>
<path d="M1921 358h0"></path>
<path d="M1642.5 358a10 10 0 0 0 10 -10v0a10 10 0 0 1 10 -10"></path>
<g>
<path d="M1662.5 338h238.5"></path>
</g>
<path d="M1901 338a10 10 0 0 1 10 10v0a10 10 0 0 0 10 10"></path>
<path d="M1642.5 358h20"></path>
<g>
<path d="M1662.5 358h0"></path>
<path d="M1901 358h0"></path>
<g class="terminal">
<path d="M1662.5 358h0"></path>
<path d="M1818.5 358h0"></path>
<rect x="1662.5" y="347" width="156" height="22" rx="10" ry="10"></rect>
<text x="1740.5" y="362">"VISIBLE LENGTH"</text>
</g>
<path d="M1818.5 358h10"></path>
<path d="M1828.5 358h10"></path>
<g class="terminal">
<path d="M1838.5 358h0"></path>
<path d="M1901 358h0"></path>
<rect x="1838.5" y="347" width="62.5" height="22" rx="10" ry="10"></rect>
<text x="1869.75" y="362">^\d+$</text>
</g>
</g>
<path d="M1901 358h20"></path>
</g>
</g>
<path d="M1924 358a10 10 0 0 0 10 -10v-298a10 10 0 0 1 10 -10"></path>
<path d="M326 40a10 10 0 0 1 10 10v375a10 10 0 0 0 10 10"></path>
<g>
<path d="M346 435h0"></path>
<path d="M1924 435h0"></path>
<g class="terminal">
<path d="M346 435h0"></path>
<path d="M408.5 435h0"></path>
<rect x="346" y="424" width="62.5" height="22" rx="10" ry="10"></rect>
<text x="377.25" y="439">"TAB"</text>
</g>
<path d="M408.5 435h10"></path>
<path d="M418.5 435h10"></path>
<g class="terminal">
<path d="M428.5 435h0"></path>
<path d="M491 435h0"></path>
<rect x="428.5" y="424" width="62.5" height="22" rx="10" ry="10"></rect>
<text x="459.75" y="439">!" ("</text>
</g>
<path d="M491 435h10"></path>
<path d="M501 435h10"></path>
<g class="non-terminal">
<path d="M511 435h0"></path>
<path d="M590.5 435h0"></path>
<rect x="511" y="424" width="79.5" height="22"></rect>
<a xlink:href="#/expression/Integer"><text x="550.75" y="439">Integer</text>
</a>
</g>
<path d="M590.5 435h10"></path>
<path d="M600.5 435h10"></path>
<g class="terminal">
<path d="M610.5 435h0"></path>
<path d="M673 435h0"></path>
<rect x="610.5" y="424" width="62.5" height="22" rx="10" ry="10"></rect>
<text x="641.75" y="439">!") "</text>
</g>
<path d="M673 435h10"></path>
<g>
<path d="M683 435h0"></path>
<path d="M836.5 435h0"></path>
<path d="M683 435h20"></path>
<g class="non-terminal">
<path d="M703 435h0"></path>
<path d="M816.5 435h0"></path>
<rect x="703" y="424" width="113.5" height="22"></rect>
<a xlink:href="#/expression/InlineField"><text x="759.75" y="439">InlineField</text>
</a>
</g>
<path d="M816.5 435h20"></path>
<path d="M683 435a10 10 0 0 1 10 10v10a10 10 0 0 0 10 10"></path>
<g class="non-terminal">
<path d="M703 465h0"></path>
<path d="M816.5 465h0"></path>
<rect x="703" y="454" width="113.5" height="22"></rect>
<a xlink:href="#/expression/TextElement"><text x="759.75" y="469">TextElement</text>
</a>
</g>
<path d="M816.5 465a10 10 0 0 0 10 -10v-10a10 10 0 0 1 10 -10"></path>
</g>
<path d="M836.5 435h10"></path>
<g>
<path d="M846.5 435h0"></path>
<path d="M1123.5 435h0"></path>
<g class="terminal">
<path d="M846.5 435h0"></path>
<path d="M985.5 435h0"></path>
<rect x="846.5" y="424" width="139" height="22" rx="10" ry="10"></rect>
<text x="916" y="439">"USER-COMMAND"</text>
</g>
<path d="M985.5 435h10"></path>
<g>
<path d="M995.5 435h0"></path>
<path d="M1123.5 435h0"></path>
<path d="M995.5 435h20"></path>
<g class="non-terminal">
<path d="M1015.5 435h0"></path>
<path d="M1078 435h25.5"></path>
<rect x="1015.5" y="424" width="62.5" height="22"></rect>
<a xlink:href="#/expression/Field"><text x="1046.75" y="439">Field</text>
</a>
</g>
<path d="M1103.5 435h20"></path>
<path d="M995.5 435a10 10 0 0 1 10 10v10a10 10 0 0 0 10 10"></path>
<g class="non-terminal">
<path d="M1015.5 465h0"></path>
<path d="M1103.5 465h0"></path>
<rect x="1015.5" y="454" width="88" height="22"></rect>
<a xlink:href="#/expression/Constant"><text x="1059.5" y="469">Constant</text>
</a>
</g>
<path d="M1103.5 465a10 10 0 0 0 10 -10v-10a10 10 0 0 1 10 -10"></path>
</g>
</g>
<path d="M1123.5 435h10"></path>
<g>
<path d="M1133.5 435h0"></path>
<path d="M1696.5 435h0"></path>
<path d="M1133.5 435a10 10 0 0 0 10 -10v-8a10 10 0 0 1 10 -10"></path>
<g>
<path d="M1153.5 407h523"></path>
</g>
<path d="M1676.5 407a10 10 0 0 1 10 10v8a10 10 0 0 0 10 10"></path>
<path d="M1133.5 435h20"></path>
<g>
<path d="M1153.5 435h0"></path>
<path d="M1676.5 435h0"></path>
<g class="terminal">
<path d="M1153.5 435h0"></path>
<path d="M1250 435h0"></path>
<rect x="1153.5" y="424" width="96.5" height="22" rx="10" ry="10"></rect>
<text x="1201.75" y="439">"DEFAULT"</text>
</g>
<path d="M1250 435h10"></path>
<g>
<path d="M1260 435h0"></path>
<path d="M1479 435h0"></path>
<path d="M1260 435a10 10 0 0 0 10 -10v0a10 10 0 0 1 10 -10"></path>
<g>
<path d="M1280 415h179"></path>
</g>
<path d="M1459 415a10 10 0 0 1 10 10v0a10 10 0 0 0 10 10"></path>
<path d="M1260 435h20"></path>
<g>
<path d="M1280 435h0"></path>
<path d="M1459 435h0"></path>
<g class="terminal">
<path d="M1280 435h0"></path>
<path d="M1376.5 435h0"></path>
<rect x="1280" y="424" width="96.5" height="22" rx="10" ry="10"></rect>
<text x="1328.25" y="439">"PROGRAM"</text>
</g>
<path d="M1376.5 435h10"></path>
<path d="M1386.5 435h10"></path>
<g class="non-terminal">
<path d="M1396.5 435h0"></path>
<path d="M1459 435h0"></path>
<rect x="1396.5" y="424" width="62.5" height="22"></rect>
<a xlink:href="#/expression/Field"><text x="1427.75" y="439">Field</text>
</a>
</g>
</g>
<path d="M1459 435h20"></path>
</g>
<path d="M1479 435h10"></path>
<g class="terminal">
<path d="M1489 435h0"></path>
<path d="M1577 435h0"></path>
<rect x="1489" y="424" width="88" height="22" rx="10" ry="10"></rect>
<text x="1533" y="439">"SCREEN"</text>
</g>
<path d="M1577 435h10"></path>
<path d="M1587 435h10"></path>
<g class="non-terminal">
<path d="M1597 435h0"></path>
<path d="M1676.5 435h0"></path>
<rect x="1597" y="424" width="79.5" height="22"></rect>
<a xlink:href="#/expression/Integer"><text x="1636.75" y="439">Integer</text>
</a>
</g>
</g>
<path d="M1676.5 435h20"></path>
</g>
<g>
<path d="M1696.5 435h0"></path>
<path d="M1924 435h0"></path>
<path d="M1696.5 435a10 10 0 0 0 10 -10v0a10 10 0 0 1 10 -10"></path>
<g>
<path d="M1716.5 415h187.5"></path>
</g>
<path d="M1904 415a10 10 0 0 1 10 10v0a10 10 0 0 0 10 10"></path>
<path d="M1696.5 435h20"></path>
<g>
<path d="M1716.5 435h0"></path>
<path d="M1904 435h0"></path>
<g class="terminal">
<path d="M1716.5 435h0"></path>
<path d="M1821.5 435h0"></path>
<rect x="1716.5" y="424" width="105" height="22" rx="10" ry="10"></rect>
<text x="1769" y="439">"MODIF ID"</text>
</g>
<path d="M1821.5 435h10"></path>
<path d="M1831.5 435h10"></path>
<g class="non-terminal">
<path d="M1841.5 435h0"></path>
<path d="M1904 435h0"></path>
<rect x="1841.5" y="424" width="62.5" height="22"></rect>
<a xlink:href="#/expression/Modif"><text x="1872.75" y="439">Modif</text>
</a>
</g>
</g>
<path d="M1904 435h20"></path>
</g>
</g>
<path d="M1924 435a10 10 0 0 0 10 -10v-375a10 10 0 0 1 10 -10"></path>
<path d="M326 40a10 10 0 0 1 10 10v452a10 10 0 0 0 10 10"></path>
<g>
<path d="M346 512h0"></path>
<path d="M942 512h982"></path>
<g class="terminal">
<path d="M346 512h0"></path>
<path d="M425.5 512h0"></path>
<rect x="346" y="501" width="79.5" height="22" rx="10" ry="10"></rect>
<text x="385.75" y="516">"ULINE"</text>
</g>
<path d="M425.5 512h10"></path>
<g>
<path d="M435.5 512h0"></path>
<path d="M942 512h0"></path>
<path d="M435.5 512a10 10 0 0 0 10 -10v-8a10 10 0 0 1 10 -10"></path>
<g>
<path d="M455.5 484h466.5"></path>
</g>
<path d="M922 484a10 10 0 0 1 10 10v8a10 10 0 0 0 10 10"></path>
<path d="M435.5 512h20"></path>
<g>
<path d="M455.5 512h0"></path>
<path d="M922 512h0"></path>
<g>
<path d="M455.5 512h0"></path>
<path d="M617.5 512h0"></path>
<path d="M455.5 512a10 10 0 0 0 10 -10v0a10 10 0 0 1 10 -10"></path>
<g>
<path d="M475.5 492h122"></path>
</g>
<path d="M597.5 492a10 10 0 0 1 10 10v0a10 10 0 0 0 10 10"></path>
<path d="M455.5 512h20"></path>
<g class="terminal">
<path d="M475.5 512h0"></path>
<path d="M597.5 512h0"></path>
<rect x="475.5" y="501" width="122" height="22" rx="10" ry="10"></rect>
<text x="536.5" y="516">^\/?&#91;\d\w&#93;+$</text>
</g>
<path d="M597.5 512h20"></path>
</g>
<g>
<path d="M617.5 512h0"></path>
<path d="M720 512h0"></path>
<path d="M617.5 512h20"></path>
<g class="terminal">
<path d="M637.5 512h0"></path>
<path d="M691.5 512h8.5"></path>
<rect x="637.5" y="501" width="54" height="22" rx="10" ry="10"></rect>
<text x="664.5" y="516">!"("</text>
</g>
<path d="M700 512h20"></path>
<path d="M617.5 512a10 10 0 0 1 10 10v10a10 10 0 0 0 10 10"></path>
<g class="terminal">
<path d="M637.5 542h0"></path>
<path d="M700 542h0"></path>
<rect x="637.5" y="531" width="62.5" height="22" rx="10" ry="10"></rect>
<text x="668.75" y="546">!" ("</text>
</g>
<path d="M700 542a10 10 0 0 0 10 -10v-10a10 10 0 0 1 10 -10"></path>
</g>
<path d="M720 512h10"></path>
<g class="non-terminal">
<path d="M730 512h0"></path>
<path d="M809.5 512h0"></path>
<rect x="730" y="501" width="79.5" height="22"></rect>
<a xlink:href="#/expression/Integer"><text x="769.75" y="516">Integer</text>
</a>
</g>
<path d="M809.5 512h10"></path>
<g>
<path d="M819.5 512h0"></path>
<path d="M922 512h0"></path>
<path d="M819.5 512h20"></path>
<g class="terminal">
<path d="M839.5 512h0"></path>
<path d="M902 512h0"></path>
<rect x="839.5" y="501" width="62.5" height="22" rx="10" ry="10"></rect>
<text x="870.75" y="516">!") "</text>
</g>
<path d="M902 512h20"></path>
<path d="M819.5 512a10 10 0 0 1 10 10v10a10 10 0 0 0 10 10"></path>
<g class="terminal">
<path d="M839.5 542h0"></path>
<path d="M893.5 542h8.5"></path>
<rect x="839.5" y="531" width="54" height="22" rx="10" ry="10"></rect>
<text x="866.5" y="546">!")"</text>
</g>
<path d="M902 542a10 10 0 0 0 10 -10v-10a10 10 0 0 1 10 -10"></path>
</g>
</g>
<path d="M922 512h20"></path>
</g>
</g>
<path d="M1924 512a10 10 0 0 0 10 -10v-452a10 10 0 0 1 10 -10"></path>
<path d="M326 40a10 10 0 0 1 10 10v521a10 10 0 0 0 10 10"></path>
<g>
<path d="M346 581h0"></path>
<path d="M1252.5 581h671.5"></path>
<g class="terminal">
<path d="M346 581h0"></path>
<path d="M502 581h0"></path>
<rect x="346" y="570" width="156" height="22" rx="10" ry="10"></rect>
<text x="424" y="585">"BEGIN OF BLOCK"</text>
</g>
<path d="M502 581h10"></path>
<path d="M512 581h10"></path>
<g class="non-terminal">
<path d="M522 581h0"></path>
<path d="M618.5 581h0"></path>
<rect x="522" y="570" width="96.5" height="22"></rect>
<a xlink:href="#/expression/BlockName"><text x="570.25" y="585">BlockName</text>
</a>
</g>
<path d="M618.5 581h10"></path>
<g>
<path d="M628.5 581h0"></path>
<path d="M790.5 581h0"></path>
<path d="M628.5 581a10 10 0 0 0 10 -10v0a10 10 0 0 1 10 -10"></path>
<g>
<path d="M648.5 561h122"></path>
</g>
<path d="M770.5 561a10 10 0 0 1 10 10v0a10 10 0 0 0 10 10"></path>
<path d="M628.5 581h20"></path>
<g class="terminal">
<path d="M648.5 581h0"></path>
<path d="M770.5 581h0"></path>
<rect x="648.5" y="570" width="122" height="22" rx="10" ry="10"></rect>
<text x="709.5" y="585">"WITH FRAME"</text>
</g>
<path d="M770.5 581h20"></path>
</g>
<g>
<path d="M790.5 581h0"></path>
<path d="M1073.5 581h0"></path>
<path d="M790.5 581a10 10 0 0 0 10 -10v0a10 10 0 0 1 10 -10"></path>
<g>
<path d="M810.5 561h243"></path>
</g>
<path d="M1053.5 561a10 10 0 0 1 10 10v0a10 10 0 0 0 10 10"></path>
<path d="M790.5 581h20"></path>
<g>
<path d="M810.5 581h0"></path>
<path d="M1053.5 581h0"></path>
<g class="terminal">
<path d="M810.5 581h0"></path>
<path d="M890 581h0"></path>
<rect x="810.5" y="570" width="79.5" height="22" rx="10" ry="10"></rect>
<text x="850.25" y="585">"TITLE"</text>
</g>
<path d="M890 581h10"></path>
<g>
<path d="M900 581h0"></path>
<path d="M1053.5 581h0"></path>
<path d="M900 581h20"></path>
<g class="non-terminal">
<path d="M920 581h0"></path>
<path d="M1033.5 581h0"></path>
<rect x="920" y="570" width="113.5" height="22"></rect>
<a xlink:href="#/expression/InlineField"><text x="976.75" y="585">InlineField</text>
</a>
</g>
<path d="M1033.5 581h20"></path>
<path d="M900 581a10 10 0 0 1 10 10v10a10 10 0 0 0 10 10"></path>
<g class="non-terminal">
<path d="M920 611h0"></path>
<path d="M1033.5 611h0"></path>
<rect x="920" y="600" width="113.5" height="22"></rect>
<a xlink:href="#/expression/TextElement"><text x="976.75" y="615">TextElement</text>
</a>
</g>
<path d="M1033.5 611a10 10 0 0 0 10 -10v-10a10 10 0 0 1 10 -10"></path>
</g>
</g>
<path d="M1053.5 581h20"></path>
</g>
<g>
<path d="M1073.5 581h0"></path>
<path d="M1252.5 581h0"></path>
<path d="M1073.5 581a10 10 0 0 0 10 -10v0a10 10 0 0 1 10 -10"></path>
<g>
<path d="M1093.5 561h139"></path>
</g>
<path d="M1232.5 561a10 10 0 0 1 10 10v0a10 10 0 0 0 10 10"></path>
<path d="M1073.5 581h20"></path>
<g class="terminal">
<path d="M1093.5 581h0"></path>
<path d="M1232.5 581h0"></path>
<rect x="1093.5" y="570" width="139" height="22" rx="10" ry="10"></rect>
<text x="1163" y="585">"NO INTERVALS"</text>
</g>
<path d="M1232.5 581h20"></path>
</g>
</g>
<path d="M1924 581a10 10 0 0 0 10 -10v-521a10 10 0 0 1 10 -10"></path>
<path d="M326 40a10 10 0 0 1 10 10v590a10 10 0 0 0 10 10"></path>
<g>
<path d="M346 650h0"></path>
<path d="M1165.5 650h758.5"></path>
<g class="terminal">
<path d="M346 650h0"></path>
<path d="M561.5 650h0"></path>
<rect x="346" y="639" width="215.5" height="22" rx="10" ry="10"></rect>
<text x="453.75" y="654">"BEGIN OF TABBED BLOCK"</text>
</g>
<path d="M561.5 650h10"></path>
<path d="M571.5 650h10"></path>
<g class="non-terminal">
<path d="M581.5 650h0"></path>
<path d="M695 650h0"></path>
<rect x="581.5" y="639" width="113.5" height="22"></rect>
<a xlink:href="#/expression/InlineField"><text x="638.25" y="654">InlineField</text>
</a>
</g>
<path d="M695 650h10"></path>
<path d="M705 650h10"></path>
<g class="terminal">
<path d="M715 650h0"></path>
<path d="M777.5 650h0"></path>
<rect x="715" y="639" width="62.5" height="22" rx="10" ry="10"></rect>
<text x="746.25" y="654">"FOR"</text>
</g>
<path d="M777.5 650h10"></path>
<path d="M787.5 650h10"></path>
<g class="non-terminal">
<path d="M797.5 650h0"></path>
<path d="M877 650h0"></path>
<rect x="797.5" y="639" width="79.5" height="22"></rect>
<a xlink:href="#/expression/Integer"><text x="837.25" y="654">Integer</text>
</a>
</g>
<path d="M877 650h10"></path>
<path d="M887 650h10"></path>
<g class="terminal">
<path d="M897 650h0"></path>
<path d="M976.5 650h0"></path>
<rect x="897" y="639" width="79.5" height="22" rx="10" ry="10"></rect>
<text x="936.75" y="654">"LINES"</text>
</g>
<path d="M976.5 650h10"></path>
<g>
<path d="M986.5 650h0"></path>
<path d="M1165.5 650h0"></path>
<path d="M986.5 650a10 10 0 0 0 10 -10v0a10 10 0 0 1 10 -10"></path>
<g>
<path d="M1006.5 630h139"></path>
</g>
<path d="M1145.5 630a10 10 0 0 1 10 10v0a10 10 0 0 0 10 10"></path>
<path d="M986.5 650h20"></path>
<g class="terminal">
<path d="M1006.5 650h0"></path>
<path d="M1145.5 650h0"></path>
<rect x="1006.5" y="639" width="139" height="22" rx="10" ry="10"></rect>
<text x="1076" y="654">"NO INTERVALS"</text>
</g>
<path d="M1145.5 650h20"></path>
</g>
</g>
<path d="M1924 650a10 10 0 0 0 10 -10v-590a10 10 0 0 1 10 -10"></path>
<path d="M326 40a10 10 0 0 1 10 10v620a10 10 0 0 0 10 10"></path>
<g>
<path d="M346 680h0"></path>
<path d="M601.5 680h1322.5"></path>
<g class="terminal">
<path d="M346 680h0"></path>
<path d="M485 680h0"></path>
<rect x="346" y="669" width="139" height="22" rx="10" ry="10"></rect>
<text x="415.5" y="684">"END OF BLOCK"</text>
</g>
<path d="M485 680h10"></path>
<path d="M495 680h10"></path>
<g class="non-terminal">
<path d="M505 680h0"></path>
<path d="M601.5 680h0"></path>
<rect x="505" y="669" width="96.5" height="22"></rect>
<a xlink:href="#/expression/BlockName"><text x="553.25" y="684">BlockName</text>
</a>
</g>
</g>
<path d="M1924 680a10 10 0 0 0 10 -10v-620a10 10 0 0 1 10 -10"></path>
<path d="M326 40a10 10 0 0 1 10 10v650a10 10 0 0 0 10 10"></path>
<g class="terminal">
<path d="M346 710h0"></path>
<path d="M493.5 710h1430.5"></path>
<rect x="346" y="699" width="147.5" height="22" rx="10" ry="10"></rect>
<text x="419.75" y="714">"BEGIN OF LINE"</text>
</g>
<path d="M1924 710a10 10 0 0 0 10 -10v-650a10 10 0 0 1 10 -10"></path>
<path d="M326 40a10 10 0 0 1 10 10v680a10 10 0 0 0 10 10"></path>
<g class="terminal">
<path d="M346 740h0"></path>
<path d="M476.5 740h1447.5"></path>
<rect x="346" y="729" width="130.5" height="22" rx="10" ry="10"></rect>
<text x="411.25" y="744">"END OF LINE"</text>
</g>
<path d="M1924 740a10 10 0 0 0 10 -10v-680a10 10 0 0 1 10 -10"></path>
<path d="M326 40a10 10 0 0 1 10 10v710a10 10 0 0 0 10 10"></path>
<g>
<path d="M346 770h0"></path>
<path d="M618.5 770h1305.5"></path>
<g class="terminal">
<path d="M346 770h0"></path>
<path d="M536 770h0"></path>
<rect x="346" y="759" width="190" height="22" rx="10" ry="10"></rect>
<text x="441" y="774">"INCLUDE PARAMETERS"</text>
</g>
<path d="M536 770h10"></path>
<path d="M546 770h10"></path>
<g class="non-terminal">
<path d="M556 770h0"></path>
<path d="M618.5 770h0"></path>
<rect x="556" y="759" width="62.5" height="22"></rect>
<a xlink:href="#/expression/Field"><text x="587.25" y="774">Field</text>
</a>
</g>
</g>
<path d="M1924 770a10 10 0 0 0 10 -10v-710a10 10 0 0 1 10 -10"></path>
<path d="M326 40a10 10 0 0 1 10 10v749a10 10 0 0 0 10 10"></path>
<g>
<path d="M346 809h0"></path>
<path d="M973 809h951"></path>
<g class="terminal">
<path d="M346 809h0"></path>
<path d="M510.5 809h0"></path>
<rect x="346" y="798" width="164.5" height="22" rx="10" ry="10"></rect>
<text x="428.25" y="813">"BEGIN OF SCREEN"</text>
</g>
<path d="M510.5 809h10"></path>
<path d="M520.5 809h10"></path>
<g class="non-terminal">
<path d="M530.5 809h0"></path>
<path d="M610 809h0"></path>
<rect x="530.5" y="798" width="79.5" height="22"></rect>
<a xlink:href="#/expression/Integer"><text x="570.25" y="813">Integer</text>
</a>
</g>
<path d="M610 809h10"></path>
<g>
<path d="M620 809h0"></path>
<path d="M973 809h0"></path>
<path d="M620 809a10 10 0 0 0 10 -10v0a10 10 0 0 1 10 -10"></path>
<g>
<path d="M640 789h313"></path>
</g>
<path d="M953 789a10 10 0 0 1 10 10v0a10 10 0 0 0 10 10"></path>
<path d="M620 809h20"></path>
<g>
<path d="M640 809h0"></path>
<path d="M953 809h0"></path>
<path d="M670 809h10"></path>
<g>
<path d="M680 809h0"></path>
<path d="M897.5 809h25.5"></path>
<g class="terminal">
<path d="M680 809h0"></path>
<path d="M734 809h0"></path>
<rect x="680" y="798" width="54" height="22" rx="10" ry="10"></rect>
<text x="707" y="813">"AS"</text>
</g>
<path d="M734 809h10"></path>
<g>
<path d="M744 809h0"></path>
<path d="M897.5 809h0"></path>
<path d="M744 809h20"></path>
<g class="terminal">
<path d="M764 809h0"></path>
<path d="M852 809h25.5"></path>
<rect x="764" y="798" width="88" height="22" rx="10" ry="10"></rect>
<text x="808" y="813">"WINDOW"</text>
</g>
<path d="M877.5 809h20"></path>
<path d="M744 809a10 10 0 0 1 10 10v10a10 10 0 0 0 10 10"></path>
<g class="terminal">
<path d="M764 839h0"></path>
<path d="M877.5 839h0"></path>
<rect x="764" y="828" width="113.5" height="22" rx="10" ry="10"></rect>
<text x="820.75" y="843">"SUBSCREEN"</text>
</g>
<path d="M877.5 839a10 10 0 0 0 10 -10v-10a10 10 0 0 1 10 -10"></path>
</g>
</g>
<path d="M923 809h10"></path>
<path d="M670 809v50a10 10 0 0 0 10 10"></path>
<g>
<path d="M680 869h0"></path>
<path d="M923 869h0"></path>
<g class="terminal">
<path d="M680 869h0"></path>
<path d="M759.5 869h0"></path>
<rect x="680" y="858" width="79.5" height="22" rx="10" ry="10"></rect>
<text x="719.75" y="873">"TITLE"</text>
</g>
<path d="M759.5 869h10"></path>
<g>
<path d="M769.5 869h0"></path>
<path d="M923 869h0"></path>
<path d="M769.5 869h20"></path>
<g class="non-terminal">
<path d="M789.5 869h0"></path>
<path d="M903 869h0"></path>
<rect x="789.5" y="858" width="113.5" height="22"></rect>
<a xlink:href="#/expression/InlineField"><text x="846.25" y="873">InlineField</text>
</a>
</g>
<path d="M903 869h20"></path>
<path d="M769.5 869a10 10 0 0 1 10 10v10a10 10 0 0 0 10 10"></path>
<g class="non-terminal">
<path d="M789.5 899h0"></path>
<path d="M903 899h0"></path>
<rect x="789.5" y="888" width="113.5" height="22"></rect>
<a xlink:href="#/expression/TextElement"><text x="846.25" y="903">TextElement</text>
</a>
</g>
<path d="M903 899a10 10 0 0 0 10 -10v-10a10 10 0 0 1 10 -10"></path>
</g>
</g>
<path d="M923 869a10 10 0 0 0 10 -10v-50"></path>
<path d="M670 809v110a10 10 0 0 0 10 10"></path>
<g class="terminal">
<path d="M680 929h0"></path>
<path d="M819 929h104"></path>
<rect x="680" y="918" width="139" height="22" rx="10" ry="10"></rect>
<text x="749.5" y="933">"NO INTERVALS"</text>
</g>
<path d="M923 929a10 10 0 0 0 10 -10v-110"></path>
<path d="M670 809v140a10 10 0 0 0 10 10"></path>
<g>
<path d="M680 959h0"></path>
<path d="M918.5 959h4.5"></path>
<g class="terminal">
<path d="M680 959h0"></path>
<path d="M827.5 959h0"></path>
<rect x="680" y="948" width="147.5" height="22" rx="10" ry="10"></rect>
<text x="753.75" y="963">"NESTING LEVEL"</text>
</g>
<path d="M827.5 959h10"></path>
<path d="M837.5 959h10"></path>
<g class="non-terminal">
<path d="M847.5 959h0"></path>
<path d="M918.5 959h0"></path>
<rect x="847.5" y="948" width="71" height="22"></rect>
<a xlink:href="#/expression/Source"><text x="883" y="963">Source</text>
</a>
</g>
</g>
<path d="M923 959a10 10 0 0 0 10 -10v-140"></path>
<g class="diagram-text">
<title>take one or more branches, once each, in any order</title>
<path d="M 670 799 h -26 a 4 4 0 0 0 -4 4 v 12 a 4 4 0 0 0 4 4 h 26 z" class="diagram-text"></path>
<text x="655" y="813" class="diagram-text">1+</text>
<path d="M 933 799 h 16 a 4 4 0 0 1 4 4 v 12 a 4 4 0 0 1 -4 4 h -16 z" class="diagram-text"></path>
<path d="M 940 807 a 4 4 0 1 0 6 -1 m 2.75 -1 h -4 v 4 m 0 -3 h 2" style="stroke-width: 1.75"></path>
</g>
</g>
<path d="M953 809h20"></path>
</g>
</g>
<path d="M1924 809a10 10 0 0 0 10 -10v-749a10 10 0 0 1 10 -10"></path>
<path d="M326 40a10 10 0 0 1 10 10v929a10 10 0 0 0 10 10"></path>
<g>
<path d="M346 989h0"></path>
<path d="M593 989h1331"></path>
<g class="terminal">
<path d="M346 989h0"></path>
<path d="M493.5 989h0"></path>
<rect x="346" y="978" width="147.5" height="22" rx="10" ry="10"></rect>
<text x="419.75" y="993">"END OF SCREEN"</text>
</g>
<path d="M493.5 989h10"></path>
<path d="M503.5 989h10"></path>
<g class="non-terminal">
<path d="M513.5 989h0"></path>
<path d="M593 989h0"></path>
<rect x="513.5" y="978" width="79.5" height="22"></rect>
<a xlink:href="#/expression/Integer"><text x="553.25" y="993">Integer</text>
</a>
</g>
</g>
<path d="M1924 989a10 10 0 0 0 10 -10v-929a10 10 0 0 1 10 -10"></path>
</g>
</g>
</g>
<path d="M1944 40h10"></path>
<path d="M 1954 40 h 20 m -10 -10 v 20 m 10 -20 v 20"></path>
</g>
</svg>
