<svg xmlns="http://www.w3.org/2000/svg" xmlns:xlink="http://www.w3.org/1999/xlink" class="railroad-diagram" width="381" height="62" viewBox="0 0 381 62">
<defs>
<style type="text/css"><![CDATA[
path {
stroke-width: 3;
stroke: black;
fill: rgba(0,0,0,0);
}
text {
font: bold 14px monospace;
text-anchor: middle;
}
text.diagram-text {
font-size: 12px;
}
a {
fill: blue;
}
text.diagram-arrow {
font-size: 16px;
}
text.label {
text-anchor: start;
}
text.comment {
font: italic 12px monospace;
}
rect {
stroke-width: 3;
stroke: black;
fill: #BCBCBC;
}
path.diagram-text {
stroke-width: 3;
stroke: black;
fill: #BCBCBC;
cursor: help;
}
]]></style>
</defs>
<g transform="translate(.5 .5)">
<g>
<path d="M20 21v20m10 -20v20m-10 -10h20"></path>
</g>
<path d="M40 31h10"></path>
<g>
<path d="M50 31h0"></path>
<path d="M331 31h0"></path>
<g class="terminal">
<path d="M50 31h0"></path>
<path d="M172 31h0"></path>
<rect x="50" y="20" width="122" height="22" rx="10" ry="10"></rect>
<text x="111" y="35">"CLASS-DATA"</text>
</g>
<path d="M172 31h10"></path>
<path d="M182 31h10"></path>
<g class="non-terminal">
<path d="M192 31h0"></path>
<path d="M331 31h0"></path>
<rect x="192" y="20" width="139" height="22"></rect>
<a xlink:href="#/expression/DataDefinition"><text x="261.5" y="35">DataDefinition</text>
</a>
</g>
</g>
<path d="M331 31h10"></path>
<path d="M 341 31 h 20 m -10 -10 v 20 m 10 -20 v 20"></path>
</g>
</svg>
