<svg xmlns="http://www.w3.org/2000/svg" xmlns:xlink="http://www.w3.org/1999/xlink" class="railroad-diagram" width="1261.5" height="191" viewBox="0 0 1261.5 191">
<defs>
<style type="text/css"><![CDATA[
path {
stroke-width: 3;
stroke: black;
fill: rgba(0,0,0,0);
}
text {
font: bold 14px monospace;
text-anchor: middle;
}
text.diagram-text {
font-size: 12px;
}
a {
fill: blue;
}
text.diagram-arrow {
font-size: 16px;
}
text.label {
text-anchor: start;
}
text.comment {
font: italic 12px monospace;
}
rect {
stroke-width: 3;
stroke: black;
fill: #BCBCBC;
}
path.diagram-text {
stroke-width: 3;
stroke: black;
fill: #BCBCBC;
cursor: help;
}
]]></style>
</defs>
<g transform="translate(.5 .5)">
<g>
<path d="M20 30v20m10 -20v20m-10 -10h20"></path>
</g>
<path d="M40 40h10"></path>
<g>
<path d="M50 40h0"></path>
<path d="M1211.5 40h0"></path>
<g class="terminal">
<path d="M50 40h0"></path>
<path d="M172 40h0"></path>
<rect x="50" y="29" width="122" height="22" rx="10" ry="10"></rect>
<text x="111" y="44">"INTERFACES"</text>
</g>
<path d="M172 40h10"></path>
<path d="M182 40h10"></path>
<g class="non-terminal">
<path d="M192 40h0"></path>
<path d="M322.5 40h0"></path>
<rect x="192" y="29" width="130.5" height="22"></rect>
<a xlink:href="#/expression/InterfaceName"><text x="257.25" y="44">InterfaceName</text>
</a>
</g>
<path d="M322.5 40h10"></path>
<g>
<path d="M332.5 40h0"></path>
<path d="M714 40h0"></path>
<path d="M332.5 40a10 10 0 0 0 10 -10v0a10 10 0 0 1 10 -10"></path>
<g>
<path d="M352.5 20h341.5"></path>
</g>
<path d="M694 20a10 10 0 0 1 10 10v0a10 10 0 0 0 10 10"></path>
<path d="M332.5 40h20"></path>
<g>
<path d="M352.5 40h0"></path>
<path d="M694 40h0"></path>
<path d="M352.5 40h20"></path>
<g class="non-terminal">
<path d="M372.5 40h0"></path>
<path d="M520 40h154"></path>
<rect x="372.5" y="29" width="147.5" height="22"></rect>
<a xlink:href="#/expression/AbstractMethods"><text x="446.25" y="44">AbstractMethods</text>
</a>
</g>
<path d="M674 40h20"></path>
<path d="M352.5 40a10 10 0 0 1 10 10v10a10 10 0 0 0 10 10"></path>
<g class="non-terminal">
<path d="M372.5 70h0"></path>
<path d="M494.5 70h179.5"></path>
<rect x="372.5" y="59" width="122" height="22"></rect>
<a xlink:href="#/expression/FinalMethods"><text x="433.5" y="74">FinalMethods</text>
</a>
</g>
<path d="M674 70a10 10 0 0 0 10 -10v-10a10 10 0 0 1 10 -10"></path>
<path d="M352.5 40a10 10 0 0 1 10 10v40a10 10 0 0 0 10 10"></path>
<g class="terminal">
<path d="M372.5 100h0"></path>
<path d="M579.5 100h94.5"></path>
<rect x="372.5" y="89" width="207" height="22" rx="10" ry="10"></rect>
<text x="476" y="104">"ALL METHODS ABSTRACT"</text>
</g>
<path d="M674 100a10 10 0 0 0 10 -10v-40a10 10 0 0 1 10 -10"></path>
<path d="M352.5 40a10 10 0 0 1 10 10v70a10 10 0 0 0 10 10"></path>
<g class="terminal">
<path d="M372.5 130h0"></path>
<path d="M554 130h120"></path>
<rect x="372.5" y="119" width="181.5" height="22" rx="10" ry="10"></rect>
<text x="463.25" y="134">"ALL METHODS FINAL"</text>
</g>
<path d="M674 130a10 10 0 0 0 10 -10v-70a10 10 0 0 1 10 -10"></path>
<path d="M352.5 40a10 10 0 0 1 10 10v100a10 10 0 0 0 10 10"></path>
<g>
<path d="M372.5 160h0"></path>
<path d="M674 160h0"></path>
<g>
<path d="M372.5 160h0"></path>
<path d="M438.5 160h0"></path>
<text x="405.5" y="165" class="comment">v740sp02</text>
</g>
<path d="M438.5 160h10"></path>
<path d="M448.5 160h10"></path>
<g class="terminal">
<path d="M458.5 160h0"></path>
<path d="M674 160h0"></path>
<rect x="458.5" y="149" width="215.5" height="22" rx="10" ry="10"></rect>
<text x="566.25" y="164">"PARTIALLY IMPLEMENTED"</text>
</g>
</g>
<path d="M674 160a10 10 0 0 0 10 -10v-100a10 10 0 0 1 10 -10"></path>
</g>
<path d="M694 40h20"></path>
</g>
<g>
<path d="M714 40h0"></path>
<path d="M1211.5 40h0"></path>
<path d="M714 40a10 10 0 0 0 10 -10v0a10 10 0 0 1 10 -10"></path>
<g>
<path d="M734 20h457.5"></path>
</g>
<path d="M1191.5 20a10 10 0 0 1 10 10v0a10 10 0 0 0 10 10"></path>
<path d="M714 40h20"></path>
<g>
<path d="M734 40h0"></path>
<path d="M1191.5 40h0"></path>
<g class="terminal">
<path d="M734 40h0"></path>
<path d="M864.5 40h0"></path>
<rect x="734" y="29" width="130.5" height="22" rx="10" ry="10"></rect>
<text x="799.25" y="44">"DATA VALUES"</text>
</g>
<path d="M864.5 40h10"></path>
<path d="M874.5 40h10"></path>
<g>
<path d="M884.5 40h0"></path>
<path d="M1191.5 40h0"></path>
<path d="M884.5 40h10"></path>
<g>
<path d="M894.5 40h0"></path>
<path d="M1181.5 40h0"></path>
<g class="non-terminal">
<path d="M894.5 40h0"></path>
<path d="M1025 40h0"></path>
<rect x="894.5" y="29" width="130.5" height="22"></rect>
<a xlink:href="#/expression/AttributeName"><text x="959.75" y="44">AttributeName</text>
</a>
</g>
<path d="M1025 40h10"></path>
<path d="M1035 40h10"></path>
<g class="terminal">
<path d="M1045 40h0"></path>
<path d="M1090.5 40h0"></path>
<rect x="1045" y="29" width="45.5" height="22" rx="10" ry="10"></rect>
<text x="1067.75" y="44">"="</text>
</g>
<path d="M1090.5 40h10"></path>
<path d="M1100.5 40h10"></path>
<g class="non-terminal">
<path d="M1110.5 40h0"></path>
<path d="M1181.5 40h0"></path>
<rect x="1110.5" y="29" width="71" height="22"></rect>
<a xlink:href="#/expression/Source"><text x="1146" y="44">Source</text>
</a>
</g>
</g>
<path d="M1181.5 40h10"></path>
<path d="M894.5 40a10 10 0 0 0 -10 10v0a10 10 0 0 0 10 10"></path>
<g>
<path d="M894.5 60h287"></path>
</g>
<path d="M1181.5 60a10 10 0 0 0 10 -10v0a10 10 0 0 0 -10 -10"></path>
</g>
</g>
<path d="M1191.5 40h20"></path>
</g>
</g>
<path d="M1211.5 40h10"></path>
<path d="M 1221.5 40 h 20 m -10 -10 v 20 m 10 -20 v 20"></path>
</g>
</svg>
