<svg xmlns="http://www.w3.org/2000/svg" xmlns:xlink="http://www.w3.org/1999/xlink" class="railroad-diagram" width="2201.5" height="254" viewBox="0 0 2201.5 254">
<defs>
<style type="text/css"><![CDATA[
path {
stroke-width: 3;
stroke: black;
fill: rgba(0,0,0,0);
}
text {
font: bold 14px monospace;
text-anchor: middle;
}
text.diagram-text {
font-size: 12px;
}
a {
fill: blue;
}
text.diagram-arrow {
font-size: 16px;
}
text.label {
text-anchor: start;
}
text.comment {
font: italic 12px monospace;
}
rect {
stroke-width: 3;
stroke: black;
fill: #BCBCBC;
}
path.diagram-text {
stroke-width: 3;
stroke: black;
fill: #BCBCBC;
cursor: help;
}
]]></style>
</defs>
<g transform="translate(.5 .5)">
<g>
<path d="M20 46v20m10 -20v20m-10 -10h20"></path>
</g>
<path d="M40 56h10"></path>
<g>
<path d="M50 56h0"></path>
<path d="M2151.5 56h0"></path>
<g class="terminal">
<path d="M50 56h0"></path>
<path d="M129.5 56h0"></path>
<rect x="50" y="45" width="79.5" height="22" rx="10" ry="10"></rect>
<text x="89.75" y="60">"RAISE"</text>
</g>
<path d="M129.5 56h10"></path>
<g>
<path d="M139.5 56h0"></path>
<path d="M2151.5 56h0"></path>
<path d="M139.5 56h20"></path>
<g>
<path d="M159.5 56h0"></path>
<path d="M2131.5 56h0"></path>
<g>
<path d="M159.5 56h0"></path>
<path d="M313 56h0"></path>
<path d="M159.5 56a10 10 0 0 0 10 -10v0a10 10 0 0 1 10 -10"></path>
<g>
<path d="M179.5 36h113.5"></path>
</g>
<path d="M293 36a10 10 0 0 1 10 10v0a10 10 0 0 0 10 10"></path>
<path d="M159.5 56h20"></path>
<g class="terminal">
<path d="M179.5 56h0"></path>
<path d="M293 56h0"></path>
<rect x="179.5" y="45" width="113.5" height="22" rx="10" ry="10"></rect>
<text x="236.25" y="60">"RESUMABLE"</text>
</g>
<path d="M293 56h20"></path>
</g>
<path d="M313 56h10"></path>
<g class="terminal">
<path d="M323 56h0"></path>
<path d="M436.5 56h0"></path>
<rect x="323" y="45" width="113.5" height="22" rx="10" ry="10"></rect>
<text x="379.75" y="60">"EXCEPTION"</text>
</g>
<path d="M436.5 56h10"></path>
<g>
<path d="M446.5 56h0"></path>
<path d="M2131.5 56h0"></path>
<path d="M446.5 56h20"></path>
<g>
<path d="M466.5 56h0"></path>
<path d="M2111.5 56h0"></path>
<g class="terminal">
<path d="M466.5 56h0"></path>
<path d="M537.5 56h0"></path>
<rect x="466.5" y="45" width="71" height="22" rx="10" ry="10"></rect>
<text x="502" y="60">"TYPE"</text>
</g>
<path d="M537.5 56h10"></path>
<path d="M547.5 56h10"></path>
<g class="non-terminal">
<path d="M557.5 56h0"></path>
<path d="M654 56h0"></path>
<rect x="557.5" y="45" width="96.5" height="22"></rect>
<a xlink:href="#/expression/ClassName"><text x="605.75" y="60">ClassName</text>
</a>
</g>
<path d="M654 56h10"></path>
<g>
<path d="M664 56h0"></path>
<path d="M1799 56h0"></path>
<path d="M664 56a10 10 0 0 0 10 -10v-16a10 10 0 0 1 10 -10"></path>
<g>
<path d="M684 20h1095"></path>
</g>
<path d="M1779 20a10 10 0 0 1 10 10v16a10 10 0 0 0 10 10"></path>
<path d="M664 56h20"></path>
<g>
<path d="M684 56h0"></path>
<path d="M1779 56h0"></path>
<path d="M684 56h20"></path>
<g>
<path d="M704 56h0"></path>
<path d="M1759 56h0"></path>
<g>
<path d="M704 56h0"></path>
<path d="M742 56h0"></path>
<text x="723" y="61" class="comment">v750</text>
</g>
<path d="M742 56h10"></path>
<g>
<path d="M752 56h0"></path>
<path d="M1759 56h0"></path>
<path d="M752 56h20"></path>
<g>
<path d="M772 56h0"></path>
<path d="M1574 56h165"></path>
<g class="terminal">
<path d="M772 56h0"></path>
<path d="M868.5 56h0"></path>
<rect x="772" y="45" width="96.5" height="22" rx="10" ry="10"></rect>
<text x="820.25" y="60">"MESSAGE"</text>
</g>
<path d="M868.5 56h10"></path>
<path d="M878.5 56h10"></path>
<g class="non-terminal">
<path d="M888.5 56h0"></path>
<path d="M1019 56h0"></path>
<rect x="888.5" y="45" width="130.5" height="22"></rect>
<a xlink:href="#/expression/MessageSource"><text x="953.75" y="60">MessageSource</text>
</a>
</g>
<path d="M1019 56h10"></path>
<g>
<path d="M1029 56h0"></path>
<path d="M1574 56h0"></path>
<path d="M1029 56a10 10 0 0 0 10 -10v-8a10 10 0 0 1 10 -10"></path>
<g>
<path d="M1049 28h505"></path>
</g>
<path d="M1554 28a10 10 0 0 1 10 10v8a10 10 0 0 0 10 10"></path>
<path d="M1029 56h20"></path>
<g>
<path d="M1049 56h0"></path>
<path d="M1554 56h0"></path>
<g class="terminal">
<path d="M1049 56h0"></path>
<path d="M1120 56h0"></path>
<rect x="1049" y="45" width="71" height="22" rx="10" ry="10"></rect>
<text x="1084.5" y="60">"WITH"</text>
</g>
<path d="M1120 56h10"></path>
<path d="M1130 56h10"></path>
<g class="non-terminal">
<path d="M1140 56h0"></path>
<path d="M1211 56h0"></path>
<rect x="1140" y="45" width="71" height="22"></rect>
<a xlink:href="#/expression/Source"><text x="1175.5" y="60">Source</text>
</a>
</g>
<path d="M1211 56h10"></path>
<g>
<path d="M1221 56h0"></path>
<path d="M1332 56h0"></path>
<path d="M1221 56a10 10 0 0 0 10 -10v0a10 10 0 0 1 10 -10"></path>
<g>
<path d="M1241 36h71"></path>
</g>
<path d="M1312 36a10 10 0 0 1 10 10v0a10 10 0 0 0 10 10"></path>
<path d="M1221 56h20"></path>
<g class="non-terminal">
<path d="M1241 56h0"></path>
<path d="M1312 56h0"></path>
<rect x="1241" y="45" width="71" height="22"></rect>
<a xlink:href="#/expression/Source"><text x="1276.5" y="60">Source</text>
</a>
</g>
<path d="M1312 56h20"></path>
</g>
<g>
<path d="M1332 56h0"></path>
<path d="M1443 56h0"></path>
<path d="M1332 56a10 10 0 0 0 10 -10v0a10 10 0 0 1 10 -10"></path>
<g>
<path d="M1352 36h71"></path>
</g>
<path d="M1423 36a10 10 0 0 1 10 10v0a10 10 0 0 0 10 10"></path>
<path d="M1332 56h20"></path>
<g class="non-terminal">
<path d="M1352 56h0"></path>
<path d="M1423 56h0"></path>
<rect x="1352" y="45" width="71" height="22"></rect>
<a xlink:href="#/expression/Source"><text x="1387.5" y="60">Source</text>
</a>
</g>
<path d="M1423 56h20"></path>
</g>
<g>
<path d="M1443 56h0"></path>
<path d="M1554 56h0"></path>
<path d="M1443 56a10 10 0 0 0 10 -10v0a10 10 0 0 1 10 -10"></path>
<g>
<path d="M1463 36h71"></path>
</g>
<path d="M1534 36a10 10 0 0 1 10 10v0a10 10 0 0 0 10 10"></path>
<path d="M1443 56h20"></path>
<g class="non-terminal">
<path d="M1463 56h0"></path>
<path d="M1534 56h0"></path>
<rect x="1463" y="45" width="71" height="22"></rect>
<a xlink:href="#/expression/Source"><text x="1498.5" y="60">Source</text>
</a>
</g>
<path d="M1534 56h20"></path>
</g>
</g>
<path d="M1554 56h20"></path>
</g>
</g>
<path d="M1739 56h20"></path>
<path d="M752 56a10 10 0 0 1 10 10v27a10 10 0 0 0 10 10"></path>
<g>
<path d="M772 103h0"></path>
<path d="M1739 103h0"></path>
<g class="terminal">
<path d="M772 103h0"></path>
<path d="M894 103h0"></path>
<rect x="772" y="92" width="122" height="22" rx="10" ry="10"></rect>
<text x="833" y="107">"MESSAGE ID"</text>
</g>
<path d="M894 103h10"></path>
<path d="M904 103h10"></path>
<g class="non-terminal">
<path d="M914 103h0"></path>
<path d="M985 103h0"></path>
<rect x="914" y="92" width="71" height="22"></rect>
<a xlink:href="#/expression/Source"><text x="949.5" y="107">Source</text>
</a>
</g>
<path d="M985 103h10"></path>
<path d="M995 103h10"></path>
<g class="terminal">
<path d="M1005 103h0"></path>
<path d="M1093 103h0"></path>
<rect x="1005" y="92" width="88" height="22" rx="10" ry="10"></rect>
<text x="1049" y="107">"NUMBER"</text>
</g>
<path d="M1093 103h10"></path>
<path d="M1103 103h10"></path>
<g class="non-terminal">
<path d="M1113 103h0"></path>
<path d="M1184 103h0"></path>
<rect x="1113" y="92" width="71" height="22"></rect>
<a xlink:href="#/expression/Source"><text x="1148.5" y="107">Source</text>
</a>
</g>
<path d="M1184 103h10"></path>
<g>
<path d="M1194 103h0"></path>
<path d="M1739 103h0"></path>
<path d="M1194 103a10 10 0 0 0 10 -10v-8a10 10 0 0 1 10 -10"></path>
<g>
<path d="M1214 75h505"></path>
</g>
<path d="M1719 75a10 10 0 0 1 10 10v8a10 10 0 0 0 10 10"></path>
<path d="M1194 103h20"></path>
<g>
<path d="M1214 103h0"></path>
<path d="M1719 103h0"></path>
<g class="terminal">
<path d="M1214 103h0"></path>
<path d="M1285 103h0"></path>
<rect x="1214" y="92" width="71" height="22" rx="10" ry="10"></rect>
<text x="1249.5" y="107">"WITH"</text>
</g>
<path d="M1285 103h10"></path>
<path d="M1295 103h10"></path>
<g class="non-terminal">
<path d="M1305 103h0"></path>
<path d="M1376 103h0"></path>
<rect x="1305" y="92" width="71" height="22"></rect>
<a xlink:href="#/expression/Source"><text x="1340.5" y="107">Source</text>
</a>
</g>
<path d="M1376 103h10"></path>
<g>
<path d="M1386 103h0"></path>
<path d="M1497 103h0"></path>
<path d="M1386 103a10 10 0 0 0 10 -10v0a10 10 0 0 1 10 -10"></path>
<g>
<path d="M1406 83h71"></path>
</g>
<path d="M1477 83a10 10 0 0 1 10 10v0a10 10 0 0 0 10 10"></path>
<path d="M1386 103h20"></path>
<g class="non-terminal">
<path d="M1406 103h0"></path>
<path d="M1477 103h0"></path>
<rect x="1406" y="92" width="71" height="22"></rect>
<a xlink:href="#/expression/Source"><text x="1441.5" y="107">Source</text>
</a>
</g>
<path d="M1477 103h20"></path>
</g>
<g>
<path d="M1497 103h0"></path>
<path d="M1608 103h0"></path>
<path d="M1497 103a10 10 0 0 0 10 -10v0a10 10 0 0 1 10 -10"></path>
<g>
<path d="M1517 83h71"></path>
</g>
<path d="M1588 83a10 10 0 0 1 10 10v0a10 10 0 0 0 10 10"></path>
<path d="M1497 103h20"></path>
<g class="non-terminal">
<path d="M1517 103h0"></path>
<path d="M1588 103h0"></path>
<rect x="1517" y="92" width="71" height="22"></rect>
<a xlink:href="#/expression/Source"><text x="1552.5" y="107">Source</text>
</a>
</g>
<path d="M1588 103h20"></path>
</g>
<g>
<path d="M1608 103h0"></path>
<path d="M1719 103h0"></path>
<path d="M1608 103a10 10 0 0 0 10 -10v0a10 10 0 0 1 10 -10"></path>
<g>
<path d="M1628 83h71"></path>
</g>
<path d="M1699 83a10 10 0 0 1 10 10v0a10 10 0 0 0 10 10"></path>
<path d="M1608 103h20"></path>
<g class="non-terminal">
<path d="M1628 103h0"></path>
<path d="M1699 103h0"></path>
<rect x="1628" y="92" width="71" height="22"></rect>
<a xlink:href="#/expression/Source"><text x="1663.5" y="107">Source</text>
</a>
</g>
<path d="M1699 103h20"></path>
</g>
</g>
<path d="M1719 103h20"></path>
</g>
</g>
<path d="M1739 103a10 10 0 0 0 10 -10v-27a10 10 0 0 1 10 -10"></path>
</g>
</g>
<path d="M1759 56h20"></path>
<path d="M684 56a10 10 0 0 1 10 10v57a10 10 0 0 0 10 10"></path>
<g>
<path d="M704 133h0"></path>
<path d="M909.5 133h849.5"></path>
<g>
<path d="M704 133h0"></path>
<path d="M742 133h0"></path>
<text x="723" y="138" class="comment">v752</text>
</g>
<path d="M742 133h10"></path>
<path d="M752 133h10"></path>
<g class="terminal">
<path d="M762 133h0"></path>
<path d="M909.5 133h0"></path>
<rect x="762" y="122" width="147.5" height="22" rx="10" ry="10"></rect>
<text x="835.75" y="137">"USING MESSAGE"</text>
</g>
</g>
<path d="M1759 133a10 10 0 0 0 10 -10v-57a10 10 0 0 1 10 -10"></path>
</g>
<path d="M1779 56h20"></path>
</g>
<g>
<path d="M1799 56h0"></path>
<path d="M2111.5 56h0"></path>
<path d="M1799 56a10 10 0 0 0 10 -10v0a10 10 0 0 1 10 -10"></path>
<g>
<path d="M1819 36h272.5"></path>
</g>
<path d="M2091.5 36a10 10 0 0 1 10 10v0a10 10 0 0 0 10 10"></path>
<path d="M1799 56h20"></path>
<g>
<path d="M1819 56h0"></path>
<path d="M2091.5 56h0"></path>
<g class="terminal">
<path d="M1819 56h0"></path>
<path d="M1932.5 56h0"></path>
<rect x="1819" y="45" width="113.5" height="22" rx="10" ry="10"></rect>
<text x="1875.75" y="60">"EXPORTING"</text>
</g>
<path d="M1932.5 56h10"></path>
<path d="M1942.5 56h10"></path>
<g class="non-terminal">
<path d="M1952.5 56h0"></path>
<path d="M2091.5 56h0"></path>
<rect x="1952.5" y="45" width="139" height="22"></rect>
<a xlink:href="#/expression/ParameterListS"><text x="2022" y="60">ParameterListS</text>
</a>
</g>
</g>
<path d="M2091.5 56h20"></path>
</g>
</g>
<path d="M2111.5 56h20"></path>
<path d="M446.5 56a10 10 0 0 1 10 10v87a10 10 0 0 0 10 10"></path>
<g>
<path d="M466.5 163h0"></path>
<path d="M595.5 163h1516"></path>
<g>
<path d="M466.5 163h0"></path>
<path d="M504.5 163h0"></path>
<text x="485.5" y="168" class="comment">v752</text>
</g>
<path d="M504.5 163h10"></path>
<path d="M514.5 163h10"></path>
<g class="non-terminal">
<path d="M524.5 163h0"></path>
<path d="M595.5 163h0"></path>
<rect x="524.5" y="152" width="71" height="22"></rect>
<a xlink:href="#/expression/Source"><text x="560" y="167">Source</text>
</a>
</g>
</g>
<path d="M2111.5 163a10 10 0 0 0 10 -10v-87a10 10 0 0 1 10 -10"></path>
<path d="M446.5 56a10 10 0 0 1 10 10v117a10 10 0 0 0 10 10"></path>
<g class="non-terminal">
<path d="M466.5 193h0"></path>
<path d="M597 193h1514.5"></path>
<rect x="466.5" y="182" width="130.5" height="22"></rect>
<a xlink:href="#/expression/SimpleSource2"><text x="531.75" y="197">SimpleSource2</text>
</a>
</g>
<path d="M2111.5 193a10 10 0 0 0 10 -10v-117a10 10 0 0 1 10 -10"></path>
</g>
</g>
<path d="M2131.5 56h20"></path>
<path d="M139.5 56a10 10 0 0 1 10 10v147a10 10 0 0 0 10 10"></path>
<g class="non-terminal">
<path d="M159.5 223h0"></path>
<path d="M222 223h1909.5"></path>
<rect x="159.5" y="212" width="62.5" height="22"></rect>
<a xlink:href="#/expression/Field"><text x="190.75" y="227">Field</text>
</a>
</g>
<path d="M2131.5 223a10 10 0 0 0 10 -10v-147a10 10 0 0 1 10 -10"></path>
</g>
</g>
<path d="M2151.5 56h10"></path>
<path d="M 2161.5 56 h 20 m -10 -10 v 20 m 10 -20 v 20"></path>
</g>
</svg>
