<svg xmlns="http://www.w3.org/2000/svg" xmlns:xlink="http://www.w3.org/1999/xlink" class="railroad-diagram" width="1016" height="131" viewBox="0 0 1016 131">
<defs>
<style type="text/css"><![CDATA[
path {
stroke-width: 3;
stroke: black;
fill: rgba(0,0,0,0);
}
text {
font: bold 14px monospace;
text-anchor: middle;
}
text.diagram-text {
font-size: 12px;
}
a {
fill: blue;
}
text.diagram-arrow {
font-size: 16px;
}
text.label {
text-anchor: start;
}
text.comment {
font: italic 12px monospace;
}
rect {
stroke-width: 3;
stroke: black;
fill: #BCBCBC;
}
path.diagram-text {
stroke-width: 3;
stroke: black;
fill: #BCBCBC;
cursor: help;
}
]]></style>
</defs>
<g transform="translate(.5 .5)">
<g>
<path d="M20 21v20m10 -20v20m-10 -10h20"></path>
</g>
<path d="M40 31h10"></path>
<g>
<path d="M50 31h0"></path>
<path d="M966 31h0"></path>
<g>
<path d="M50 31h0"></path>
<path d="M123 31h0"></path>
<text x="86.5" y="36" class="comment">not Cloud</text>
</g>
<path d="M123 31h10"></path>
<path d="M133 31h10"></path>
<g>
<path d="M143 31h0"></path>
<path d="M966 31h0"></path>
<g class="terminal">
<path d="M143 31h0"></path>
<path d="M273.5 31h0"></path>
<rect x="143" y="20" width="130.5" height="22" rx="10" ry="10"></rect>
<text x="208.25" y="35">"SYSTEM-CALL"</text>
</g>
<path d="M273.5 31h10"></path>
<g>
<path d="M283.5 31h0"></path>
<path d="M966 31h0"></path>
<path d="M283.5 31h20"></path>
<g>
<path d="M303.5 31h0"></path>
<path d="M698.5 31h247.5"></path>
<g class="terminal">
<path d="M303.5 31h0"></path>
<path d="M442.5 31h0"></path>
<rect x="303.5" y="20" width="139" height="22" rx="10" ry="10"></rect>
<text x="373" y="35">"OBJMGR CLONE"</text>
</g>
<path d="M442.5 31h10"></path>
<path d="M452.5 31h10"></path>
<g class="non-terminal">
<path d="M462.5 31h0"></path>
<path d="M533.5 31h0"></path>
<rect x="462.5" y="20" width="71" height="22"></rect>
<a xlink:href="#/expression/Source"><text x="498" y="35">Source</text>
</a>
</g>
<path d="M533.5 31h10"></path>
<path d="M543.5 31h10"></path>
<g class="terminal">
<path d="M553.5 31h0"></path>
<path d="M607.5 31h0"></path>
<rect x="553.5" y="20" width="54" height="22" rx="10" ry="10"></rect>
<text x="580.5" y="35">"TO"</text>
</g>
<path d="M607.5 31h10"></path>
<path d="M617.5 31h10"></path>
<g class="non-terminal">
<path d="M627.5 31h0"></path>
<path d="M698.5 31h0"></path>
<rect x="627.5" y="20" width="71" height="22"></rect>
<a xlink:href="#/expression/Target"><text x="663" y="35">Target</text>
</a>
</g>
</g>
<path d="M946 31h20"></path>
<path d="M283.5 31a10 10 0 0 1 10 10v10a10 10 0 0 0 10 10"></path>
<g>
<path d="M303.5 61h0"></path>
<path d="M946 61h0"></path>
<g class="terminal">
<path d="M303.5 61h0"></path>
<path d="M357.5 61h0"></path>
<rect x="303.5" y="50" width="54" height="22" rx="10" ry="10"></rect>
<text x="330.5" y="65">^.+$</text>
</g>
<path d="M357.5 61h10"></path>
<path d="M367.5 61h10"></path>
<g class="terminal">
<path d="M377.5 61h0"></path>
<path d="M440 61h0"></path>
<rect x="377.5" y="50" width="62.5" height="22" rx="10" ry="10"></rect>
<text x="408.75" y="65">"DID"</text>
</g>
<path d="M440 61h10"></path>
<path d="M450 61h10"></path>
<g class="non-terminal">
<path d="M460 61h0"></path>
<path d="M531 61h0"></path>
<rect x="460" y="50" width="71" height="22"></rect>
<a xlink:href="#/expression/Source"><text x="495.5" y="65">Source</text>
</a>
</g>
<path d="M531 61h10"></path>
<path d="M541 61h10"></path>
<g class="terminal">
<path d="M551 61h0"></path>
<path d="M673 61h0"></path>
<rect x="551" y="50" width="122" height="22" rx="10" ry="10"></rect>
<text x="612" y="65">"PARAMETERS"</text>
</g>
<path d="M673 61h10"></path>
<path d="M683 61h10"></path>
<g class="non-terminal">
<path d="M693 61h0"></path>
<path d="M764 61h0"></path>
<rect x="693" y="50" width="71" height="22"></rect>
<a xlink:href="#/expression/Source"><text x="728.5" y="65">Source</text>
</a>
</g>
<path d="M764 61h10"></path>
<path d="M774 61h10"></path>
<g class="non-terminal">
<path d="M784 61h0"></path>
<path d="M855 61h0"></path>
<rect x="784" y="50" width="71" height="22"></rect>
<a xlink:href="#/expression/Source"><text x="819.5" y="65">Source</text>
</a>
</g>
<path d="M855 61h10"></path>
<path d="M865 61h10"></path>
<g class="non-terminal">
<path d="M875 61h0"></path>
<path d="M946 61h0"></path>
<rect x="875" y="50" width="71" height="22"></rect>
<a xlink:href="#/expression/Source"><text x="910.5" y="65">Source</text>
</a>
</g>
</g>
<path d="M946 61a10 10 0 0 0 10 -10v-10a10 10 0 0 1 10 -10"></path>
<path d="M283.5 31a10 10 0 0 1 10 10v40a10 10 0 0 0 10 10"></path>
<g>
<path d="M303.5 91h0"></path>
<path d="M377.5 91h568.5"></path>
<path d="M303.5 91h10"></path>
<g class="terminal">
<path d="M313.5 91h0"></path>
<path d="M367.5 91h0"></path>
<rect x="313.5" y="80" width="54" height="22" rx="10" ry="10"></rect>
<text x="340.5" y="95">^.+$</text>
</g>
<path d="M367.5 91h10"></path>
<path d="M313.5 91a10 10 0 0 0 -10 10v0a10 10 0 0 0 10 10"></path>
<g>
<path d="M313.5 111h54"></path>
</g>
<path d="M367.5 111a10 10 0 0 0 10 -10v0a10 10 0 0 0 -10 -10"></path>
</g>
<path d="M946 91a10 10 0 0 0 10 -10v-40a10 10 0 0 1 10 -10"></path>
</g>
</g>
</g>
<path d="M966 31h10"></path>
<path d="M 976 31 h 20 m -10 -10 v 20 m 10 -20 v 20"></path>
</g>
</svg>
