<svg xmlns="http://www.w3.org/2000/svg" xmlns:xlink="http://www.w3.org/1999/xlink" class="railroad-diagram" width="913.5" height="71" viewBox="0 0 913.5 71">
<defs>
<style type="text/css"><![CDATA[
path {
stroke-width: 3;
stroke: black;
fill: rgba(0,0,0,0);
}
text {
font: bold 14px monospace;
text-anchor: middle;
}
text.diagram-text {
font-size: 12px;
}
a {
fill: blue;
}
text.diagram-arrow {
font-size: 16px;
}
text.label {
text-anchor: start;
}
text.comment {
font: italic 12px monospace;
}
rect {
stroke-width: 3;
stroke: black;
fill: #BCBCBC;
}
path.diagram-text {
stroke-width: 3;
stroke: black;
fill: #BCBCBC;
cursor: help;
}
]]></style>
</defs>
<g transform="translate(.5 .5)">
<g>
<path d="M20 30v20m10 -20v20m-10 -10h20"></path>
</g>
<path d="M40 40h10"></path>
<g>
<path d="M50 40h0"></path>
<path d="M863.5 40h0"></path>
<g>
<path d="M50 40h0"></path>
<path d="M123 40h0"></path>
<text x="86.5" y="45" class="comment">not Cloud</text>
</g>
<path d="M123 40h10"></path>
<path d="M133 40h10"></path>
<g>
<path d="M143 40h0"></path>
<path d="M863.5 40h0"></path>
<g class="terminal">
<path d="M143 40h0"></path>
<path d="M290.5 40h0"></path>
<rect x="143" y="29" width="147.5" height="22" rx="10" ry="10"></rect>
<text x="216.75" y="44">"GET PF-STATUS"</text>
</g>
<path d="M290.5 40h10"></path>
<path d="M300.5 40h10"></path>
<g class="non-terminal">
<path d="M310.5 40h0"></path>
<path d="M381.5 40h0"></path>
<rect x="310.5" y="29" width="71" height="22"></rect>
<a xlink:href="#/expression/Target"><text x="346" y="44">Target</text>
</a>
</g>
<path d="M381.5 40h10"></path>
<g>
<path d="M391.5 40h0"></path>
<path d="M619 40h0"></path>
<path d="M391.5 40a10 10 0 0 0 10 -10v0a10 10 0 0 1 10 -10"></path>
<g>
<path d="M411.5 20h187.5"></path>
</g>
<path d="M599 20a10 10 0 0 1 10 10v0a10 10 0 0 0 10 10"></path>
<path d="M391.5 40h20"></path>
<g>
<path d="M411.5 40h0"></path>
<path d="M599 40h0"></path>
<g class="terminal">
<path d="M411.5 40h0"></path>
<path d="M508 40h0"></path>
<rect x="411.5" y="29" width="96.5" height="22" rx="10" ry="10"></rect>
<text x="459.75" y="44">"PROGRAM"</text>
</g>
<path d="M508 40h10"></path>
<path d="M518 40h10"></path>
<g class="non-terminal">
<path d="M528 40h0"></path>
<path d="M599 40h0"></path>
<rect x="528" y="29" width="71" height="22"></rect>
<a xlink:href="#/expression/Source"><text x="563.5" y="44">Source</text>
</a>
</g>
</g>
<path d="M599 40h20"></path>
</g>
<g>
<path d="M619 40h0"></path>
<path d="M863.5 40h0"></path>
<path d="M619 40a10 10 0 0 0 10 -10v0a10 10 0 0 1 10 -10"></path>
<g>
<path d="M639 20h204.5"></path>
</g>
<path d="M843.5 20a10 10 0 0 1 10 10v0a10 10 0 0 0 10 10"></path>
<path d="M619 40h20"></path>
<g>
<path d="M639 40h0"></path>
<path d="M843.5 40h0"></path>
<g class="terminal">
<path d="M639 40h0"></path>
<path d="M752.5 40h0"></path>
<rect x="639" y="29" width="113.5" height="22" rx="10" ry="10"></rect>
<text x="695.75" y="44">"EXCLUDING"</text>
</g>
<path d="M752.5 40h10"></path>
<path d="M762.5 40h10"></path>
<g class="non-terminal">
<path d="M772.5 40h0"></path>
<path d="M843.5 40h0"></path>
<rect x="772.5" y="29" width="71" height="22"></rect>
<a xlink:href="#/expression/Source"><text x="808" y="44">Source</text>
</a>
</g>
</g>
<path d="M843.5 40h20"></path>
</g>
</g>
</g>
<path d="M863.5 40h10"></path>
<path d="M 873.5 40 h 20 m -10 -10 v 20 m 10 -20 v 20"></path>
</g>
</svg>
