<svg xmlns="http://www.w3.org/2000/svg" xmlns:xlink="http://www.w3.org/1999/xlink" class="railroad-diagram" width="630.5" height="62" viewBox="0 0 630.5 62">
<defs>
<style type="text/css"><![CDATA[
path {
stroke-width: 3;
stroke: black;
fill: rgba(0,0,0,0);
}
text {
font: bold 14px monospace;
text-anchor: middle;
}
text.diagram-text {
font-size: 12px;
}
a {
fill: blue;
}
text.diagram-arrow {
font-size: 16px;
}
text.label {
text-anchor: start;
}
text.comment {
font: italic 12px monospace;
}
rect {
stroke-width: 3;
stroke: black;
fill: #BCBCBC;
}
path.diagram-text {
stroke-width: 3;
stroke: black;
fill: #BCBCBC;
cursor: help;
}
]]></style>
</defs>
<g transform="translate(.5 .5)">
<g>
<path d="M20 21v20m10 -20v20m-10 -10h20"></path>
</g>
<path d="M40 31h10"></path>
<g>
<path d="M50 31h0"></path>
<path d="M580.5 31h0"></path>
<g>
<path d="M50 31h0"></path>
<path d="M123 31h0"></path>
<text x="86.5" y="36" class="comment">not Cloud</text>
</g>
<path d="M123 31h10"></path>
<path d="M133 31h10"></path>
<g>
<path d="M143 31h0"></path>
<path d="M580.5 31h0"></path>
<g class="terminal">
<path d="M143 31h0"></path>
<path d="M324.5 31h0"></path>
<rect x="143" y="20" width="181.5" height="22" rx="10" ry="10"></rect>
<text x="233.75" y="35">"ADD-CORRESPONDING"</text>
</g>
<path d="M324.5 31h10"></path>
<path d="M334.5 31h10"></path>
<g class="non-terminal">
<path d="M344.5 31h0"></path>
<path d="M415.5 31h0"></path>
<rect x="344.5" y="20" width="71" height="22"></rect>
<a xlink:href="#/expression/Source"><text x="380" y="35">Source</text>
</a>
</g>
<path d="M415.5 31h10"></path>
<path d="M425.5 31h10"></path>
<g class="terminal">
<path d="M435.5 31h0"></path>
<path d="M489.5 31h0"></path>
<rect x="435.5" y="20" width="54" height="22" rx="10" ry="10"></rect>
<text x="462.5" y="35">"TO"</text>
</g>
<path d="M489.5 31h10"></path>
<path d="M499.5 31h10"></path>
<g class="non-terminal">
<path d="M509.5 31h0"></path>
<path d="M580.5 31h0"></path>
<rect x="509.5" y="20" width="71" height="22"></rect>
<a xlink:href="#/expression/Target"><text x="545" y="35">Target</text>
</a>
</g>
</g>
</g>
<path d="M580.5 31h10"></path>
<path d="M 590.5 31 h 20 m -10 -10 v 20 m 10 -20 v 20"></path>
</g>
</svg>
