<svg xmlns="http://www.w3.org/2000/svg" xmlns:xlink="http://www.w3.org/1999/xlink" class="railroad-diagram" width="647.5" height="71" viewBox="0 0 647.5 71">
<defs>
<style type="text/css"><![CDATA[
path {
stroke-width: 3;
stroke: black;
fill: rgba(0,0,0,0);
}
text {
font: bold 14px monospace;
text-anchor: middle;
}
text.diagram-text {
font-size: 12px;
}
a {
fill: blue;
}
text.diagram-arrow {
font-size: 16px;
}
text.label {
text-anchor: start;
}
text.comment {
font: italic 12px monospace;
}
rect {
stroke-width: 3;
stroke: black;
fill: #BCBCBC;
}
path.diagram-text {
stroke-width: 3;
stroke: black;
fill: #BCBCBC;
cursor: help;
}
]]></style>
</defs>
<g transform="translate(.5 .5)">
<g>
<path d="M20 30v20m10 -20v20m-10 -10h20"></path>
</g>
<path d="M40 40h10"></path>
<g>
<path d="M50 40h0"></path>
<path d="M597.5 40h0"></path>
<g class="terminal">
<path d="M50 40h0"></path>
<path d="M146.5 40h0"></path>
<rect x="50" y="29" width="96.5" height="22" rx="10" ry="10"></rect>
<text x="98.25" y="44">"SET BIT"</text>
</g>
<path d="M146.5 40h10"></path>
<path d="M156.5 40h10"></path>
<g class="non-terminal">
<path d="M166.5 40h0"></path>
<path d="M237.5 40h0"></path>
<rect x="166.5" y="29" width="71" height="22"></rect>
<a xlink:href="#/expression/Source"><text x="202" y="44">Source</text>
</a>
</g>
<path d="M237.5 40h10"></path>
<path d="M247.5 40h10"></path>
<g class="terminal">
<path d="M257.5 40h0"></path>
<path d="M311.5 40h0"></path>
<rect x="257.5" y="29" width="54" height="22" rx="10" ry="10"></rect>
<text x="284.5" y="44">"OF"</text>
</g>
<path d="M311.5 40h10"></path>
<path d="M321.5 40h10"></path>
<g class="non-terminal">
<path d="M331.5 40h0"></path>
<path d="M402.5 40h0"></path>
<rect x="331.5" y="29" width="71" height="22"></rect>
<a xlink:href="#/expression/Target"><text x="367" y="44">Target</text>
</a>
</g>
<path d="M402.5 40h10"></path>
<g>
<path d="M412.5 40h0"></path>
<path d="M597.5 40h0"></path>
<path d="M412.5 40a10 10 0 0 0 10 -10v0a10 10 0 0 1 10 -10"></path>
<g>
<path d="M432.5 20h145"></path>
</g>
<path d="M577.5 20a10 10 0 0 1 10 10v0a10 10 0 0 0 10 10"></path>
<path d="M412.5 40h20"></path>
<g>
<path d="M432.5 40h0"></path>
<path d="M577.5 40h0"></path>
<g class="terminal">
<path d="M432.5 40h0"></path>
<path d="M486.5 40h0"></path>
<rect x="432.5" y="29" width="54" height="22" rx="10" ry="10"></rect>
<text x="459.5" y="44">"TO"</text>
</g>
<path d="M486.5 40h10"></path>
<path d="M496.5 40h10"></path>
<g class="non-terminal">
<path d="M506.5 40h0"></path>
<path d="M577.5 40h0"></path>
<rect x="506.5" y="29" width="71" height="22"></rect>
<a xlink:href="#/expression/Source"><text x="542" y="44">Source</text>
</a>
</g>
</g>
<path d="M577.5 40h20"></path>
</g>
</g>
<path d="M597.5 40h10"></path>
<path d="M 607.5 40 h 20 m -10 -10 v 20 m 10 -20 v 20"></path>
</g>
</svg>
