<svg xmlns="http://www.w3.org/2000/svg" xmlns:xlink="http://www.w3.org/1999/xlink" class="railroad-diagram" width="521.5" height="62" viewBox="0 0 521.5 62">
<defs>
<style type="text/css"><![CDATA[
path {
stroke-width: 3;
stroke: black;
fill: rgba(0,0,0,0);
}
text {
font: bold 14px monospace;
text-anchor: middle;
}
text.diagram-text {
font-size: 12px;
}
a {
fill: blue;
}
text.diagram-arrow {
font-size: 16px;
}
text.label {
text-anchor: start;
}
text.comment {
font: italic 12px monospace;
}
rect {
stroke-width: 3;
stroke: black;
fill: #BCBCBC;
}
path.diagram-text {
stroke-width: 3;
stroke: black;
fill: #BCBCBC;
cursor: help;
}
]]></style>
</defs>
<g transform="translate(.5 .5)">
<g>
<path d="M20 21v20m10 -20v20m-10 -10h20"></path>
</g>
<path d="M40 31h10"></path>
<g>
<path d="M50 31h0"></path>
<path d="M471.5 31h0"></path>
<g>
<path d="M50 31h0"></path>
<path d="M88 31h0"></path>
<text x="69" y="36" class="comment">v751</text>
</g>
<path d="M88 31h10"></path>
<path d="M98 31h10"></path>
<g>
<path d="M108 31h0"></path>
<path d="M471.5 31h0"></path>
<g class="terminal">
<path d="M108 31h0"></path>
<path d="M187.5 31h0"></path>
<rect x="108" y="20" width="79.5" height="22" rx="10" ry="10"></rect>
<text x="147.75" y="35">"TYPES"</text>
</g>
<path d="M187.5 31h10"></path>
<path d="M197.5 31h10"></path>
<g class="non-terminal">
<path d="M207.5 31h0"></path>
<path d="M389 31h0"></path>
<rect x="207.5" y="20" width="181.5" height="22"></rect>
<a xlink:href="#/expression/NamespaceSimpleName"><text x="298.25" y="35">NamespaceSimpleName</text>
</a>
</g>
<path d="M389 31h10"></path>
<path d="M399 31h10"></path>
<g class="non-terminal">
<path d="M409 31h0"></path>
<path d="M471.5 31h0"></path>
<rect x="409" y="20" width="62.5" height="22"></rect>
<a xlink:href="#/expression/Value"><text x="440.25" y="35">Value</text>
</a>
</g>
</g>
</g>
<path d="M471.5 31h10"></path>
<path d="M 481.5 31 h 20 m -10 -10 v 20 m 10 -20 v 20"></path>
</g>
</svg>
