<svg xmlns="http://www.w3.org/2000/svg" xmlns:xlink="http://www.w3.org/1999/xlink" class="railroad-diagram" width="2057" height="156" viewBox="0 0 2057 156">
<defs>
<style type="text/css"><![CDATA[
path {
stroke-width: 3;
stroke: black;
fill: rgba(0,0,0,0);
}
text {
font: bold 14px monospace;
text-anchor: middle;
}
text.diagram-text {
font-size: 12px;
}
a {
fill: blue;
}
text.diagram-arrow {
font-size: 16px;
}
text.label {
text-anchor: start;
}
text.comment {
font: italic 12px monospace;
}
rect {
stroke-width: 3;
stroke: black;
fill: #BCBCBC;
}
path.diagram-text {
stroke-width: 3;
stroke: black;
fill: #BCBCBC;
cursor: help;
}
]]></style>
</defs>
<g transform="translate(.5 .5)">
<g>
<path d="M20 38v20m10 -20v20m-10 -10h20"></path>
</g>
<path d="M40 48h10"></path>
<g>
<path d="M50 48h0"></path>
<path d="M2007 48h0"></path>
<g class="terminal">
<path d="M50 48h0"></path>
<path d="M146.5 48h0"></path>
<rect x="50" y="37" width="96.5" height="22" rx="10" ry="10"></rect>
<text x="98.25" y="52">"PERFORM"</text>
</g>
<path d="M146.5 48h10"></path>
<g>
<path d="M156.5 48h0"></path>
<path d="M783 48h0"></path>
<path d="M156.5 48h20"></path>
<g>
<path d="M176.5 48h0"></path>
<path d="M647.5 48h115.5"></path>
<g>
<path d="M176.5 48h0"></path>
<path d="M249.5 48h0"></path>
<text x="213" y="53" class="comment">not Cloud</text>
</g>
<path d="M249.5 48h10"></path>
<path d="M259.5 48h10"></path>
<g>
<path d="M269.5 48h0"></path>
<path d="M647.5 48h0"></path>
<g class="non-terminal">
<path d="M269.5 48h0"></path>
<path d="M357.5 48h0"></path>
<rect x="269.5" y="37" width="88" height="22"></rect>
<a xlink:href="#/expression/FormName"><text x="313.5" y="52">FormName</text>
</a>
</g>
<path d="M357.5 48h10"></path>
<path d="M367.5 48h10"></path>
<g class="terminal">
<path d="M377.5 48h0"></path>
<path d="M431.5 48h0"></path>
<rect x="377.5" y="37" width="54" height="22" rx="10" ry="10"></rect>
<text x="404.5" y="52">!"("</text>
</g>
<path d="M431.5 48h10"></path>
<path d="M441.5 48h10"></path>
<g class="non-terminal">
<path d="M451.5 48h0"></path>
<path d="M565 48h0"></path>
<rect x="451.5" y="37" width="113.5" height="22"></rect>
<a xlink:href="#/expression/IncludeName"><text x="508.25" y="52">IncludeName</text>
</a>
</g>
<path d="M565 48h10"></path>
<path d="M575 48h10"></path>
<g class="terminal">
<path d="M585 48h0"></path>
<path d="M647.5 48h0"></path>
<rect x="585" y="37" width="62.5" height="22" rx="10" ry="10"></rect>
<text x="616.25" y="52">!") "</text>
</g>
</g>
</g>
<path d="M763 48h20"></path>
<path d="M156.5 48a10 10 0 0 1 10 10v27a10 10 0 0 0 10 10"></path>
<g>
<path d="M176.5 95h0"></path>
<path d="M763 95h0"></path>
<g>
<path d="M176.5 95h0"></path>
<path d="M304.5 95h0"></path>
<path d="M176.5 95h20"></path>
<g class="non-terminal">
<path d="M196.5 95h0"></path>
<path d="M284.5 95h0"></path>
<rect x="196.5" y="84" width="88" height="22"></rect>
<a xlink:href="#/expression/FormName"><text x="240.5" y="99">FormName</text>
</a>
</g>
<path d="M284.5 95h20"></path>
<path d="M176.5 95a10 10 0 0 1 10 10v10a10 10 0 0 0 10 10"></path>
<g class="non-terminal">
<path d="M196.5 125h0"></path>
<path d="M276 125h8.5"></path>
<rect x="196.5" y="114" width="79.5" height="22"></rect>
<a xlink:href="#/expression/Dynamic"><text x="236.25" y="129">Dynamic</text>
</a>
</g>
<path d="M284.5 125a10 10 0 0 0 10 -10v-10a10 10 0 0 1 10 -10"></path>
</g>
<g>
<path d="M304.5 95h0"></path>
<path d="M763 95h0"></path>
<path d="M304.5 95a10 10 0 0 0 10 -10v-8a10 10 0 0 1 10 -10"></path>
<g>
<path d="M324.5 67h418.5"></path>
</g>
<path d="M743 67a10 10 0 0 1 10 10v8a10 10 0 0 0 10 10"></path>
<path d="M304.5 95h20"></path>
<g>
<path d="M324.5 95h0"></path>
<path d="M743 95h0"></path>
<g>
<path d="M324.5 95h0"></path>
<path d="M397.5 95h0"></path>
<text x="361" y="100" class="comment">not Cloud</text>
</g>
<path d="M397.5 95h10"></path>
<path d="M407.5 95h10"></path>
<g>
<path d="M417.5 95h0"></path>
<path d="M743 95h0"></path>
<g class="terminal">
<path d="M417.5 95h0"></path>
<path d="M539.5 95h0"></path>
<rect x="417.5" y="84" width="122" height="22" rx="10" ry="10"></rect>
<text x="478.5" y="99">"IN PROGRAM"</text>
</g>
<path d="M539.5 95h10"></path>
<g>
<path d="M549.5 95h0"></path>
<path d="M743 95h0"></path>
<path d="M549.5 95a10 10 0 0 0 10 -10v0a10 10 0 0 1 10 -10"></path>
<g>
<path d="M569.5 75h153.5"></path>
</g>
<path d="M723 75a10 10 0 0 1 10 10v0a10 10 0 0 0 10 10"></path>
<path d="M549.5 95h20"></path>
<g>
<path d="M569.5 95h0"></path>
<path d="M723 95h0"></path>
<path d="M569.5 95h20"></path>
<g class="non-terminal">
<path d="M589.5 95h0"></path>
<path d="M669 95h34"></path>
<rect x="589.5" y="84" width="79.5" height="22"></rect>
<a xlink:href="#/expression/Dynamic"><text x="629.25" y="99">Dynamic</text>
</a>
</g>
<path d="M703 95h20"></path>
<path d="M569.5 95a10 10 0 0 1 10 10v10a10 10 0 0 0 10 10"></path>
<g class="non-terminal">
<path d="M589.5 125h0"></path>
<path d="M703 125h0"></path>
<rect x="589.5" y="114" width="113.5" height="22"></rect>
<a xlink:href="#/expression/IncludeName"><text x="646.25" y="129">IncludeName</text>
</a>
</g>
<path d="M703 125a10 10 0 0 0 10 -10v-10a10 10 0 0 1 10 -10"></path>
</g>
<path d="M723 95h20"></path>
</g>
</g>
</g>
<path d="M743 95h20"></path>
</g>
</g>
<path d="M763 95a10 10 0 0 0 10 -10v-27a10 10 0 0 1 10 -10"></path>
</g>
<g>
<path d="M783 48h0"></path>
<path d="M928 48h0"></path>
<path d="M783 48a10 10 0 0 0 10 -10v0a10 10 0 0 1 10 -10"></path>
<g>
<path d="M803 28h105"></path>
</g>
<path d="M908 28a10 10 0 0 1 10 10v0a10 10 0 0 0 10 10"></path>
<path d="M783 48h20"></path>
<g class="terminal">
<path d="M803 48h0"></path>
<path d="M908 48h0"></path>
<rect x="803" y="37" width="105" height="22" rx="10" ry="10"></rect>
<text x="855.5" y="52">"IF FOUND"</text>
</g>
<path d="M908 48h20"></path>
</g>
<g>
<path d="M928 48h0"></path>
<path d="M1098.5 48h0"></path>
<path d="M928 48a10 10 0 0 0 10 -10v0a10 10 0 0 1 10 -10"></path>
<g>
<path d="M948 28h130.5"></path>
</g>
<path d="M1078.5 28a10 10 0 0 1 10 10v0a10 10 0 0 0 10 10"></path>
<path d="M928 48h20"></path>
<g class="non-terminal">
<path d="M948 48h0"></path>
<path d="M1078.5 48h0"></path>
<rect x="948" y="37" width="130.5" height="22"></rect>
<a xlink:href="#/expression/PerformTables"><text x="1013.25" y="52">PerformTables</text>
</a>
</g>
<path d="M1078.5 48h20"></path>
</g>
<g>
<path d="M1098.5 48h0"></path>
<path d="M1260.5 48h0"></path>
<path d="M1098.5 48a10 10 0 0 0 10 -10v0a10 10 0 0 1 10 -10"></path>
<g>
<path d="M1118.5 28h122"></path>
</g>
<path d="M1240.5 28a10 10 0 0 1 10 10v0a10 10 0 0 0 10 10"></path>
<path d="M1098.5 48h20"></path>
<g class="non-terminal">
<path d="M1118.5 48h0"></path>
<path d="M1240.5 48h0"></path>
<rect x="1118.5" y="37" width="122" height="22"></rect>
<a xlink:href="#/expression/PerformUsing"><text x="1179.5" y="52">PerformUsing</text>
</a>
</g>
<path d="M1240.5 48h20"></path>
</g>
<g>
<path d="M1260.5 48h0"></path>
<path d="M1448 48h0"></path>
<path d="M1260.5 48a10 10 0 0 0 10 -10v0a10 10 0 0 1 10 -10"></path>
<g>
<path d="M1280.5 28h147.5"></path>
</g>
<path d="M1428 28a10 10 0 0 1 10 10v0a10 10 0 0 0 10 10"></path>
<path d="M1260.5 48h20"></path>
<g class="non-terminal">
<path d="M1280.5 48h0"></path>
<path d="M1428 48h0"></path>
<rect x="1280.5" y="37" width="147.5" height="22"></rect>
<a xlink:href="#/expression/PerformChanging"><text x="1354.25" y="52">PerformChanging</text>
</a>
</g>
<path d="M1428 48h20"></path>
</g>
<g>
<path d="M1448 48h0"></path>
<path d="M1593 48h0"></path>
<path d="M1448 48a10 10 0 0 0 10 -10v0a10 10 0 0 1 10 -10"></path>
<g>
<path d="M1468 28h105"></path>
</g>
<path d="M1573 28a10 10 0 0 1 10 10v0a10 10 0 0 0 10 10"></path>
<path d="M1448 48h20"></path>
<g class="terminal">
<path d="M1468 48h0"></path>
<path d="M1573 48h0"></path>
<rect x="1468" y="37" width="105" height="22" rx="10" ry="10"></rect>
<text x="1520.5" y="52">"IF FOUND"</text>
</g>
<path d="M1573 48h20"></path>
</g>
<g>
<path d="M1593 48h0"></path>
<path d="M2007 48h0"></path>
<path d="M1593 48a10 10 0 0 0 10 -10v-8a10 10 0 0 1 10 -10"></path>
<g>
<path d="M1613 20h374"></path>
</g>
<path d="M1987 20a10 10 0 0 1 10 10v8a10 10 0 0 0 10 10"></path>
<path d="M1593 48h20"></path>
<g>
<path d="M1613 48h0"></path>
<path d="M1987 48h0"></path>
<path d="M1613 48h20"></path>
<g>
<path d="M1633 48h0"></path>
<path d="M1967 48h0"></path>
<g class="terminal">
<path d="M1633 48h0"></path>
<path d="M1746.5 48h0"></path>
<rect x="1633" y="37" width="113.5" height="22" rx="10" ry="10"></rect>
<text x="1689.75" y="52">"ON COMMIT"</text>
</g>
<path d="M1746.5 48h10"></path>
<g>
<path d="M1756.5 48h0"></path>
<path d="M1967 48h0"></path>
<path d="M1756.5 48a10 10 0 0 0 10 -10v0a10 10 0 0 1 10 -10"></path>
<g>
<path d="M1776.5 28h170.5"></path>
</g>
<path d="M1947 28a10 10 0 0 1 10 10v0a10 10 0 0 0 10 10"></path>
<path d="M1756.5 48h20"></path>
<g>
<path d="M1776.5 48h0"></path>
<path d="M1947 48h0"></path>
<g class="terminal">
<path d="M1776.5 48h0"></path>
<path d="M1856 48h0"></path>
<rect x="1776.5" y="37" width="79.5" height="22" rx="10" ry="10"></rect>
<text x="1816.25" y="52">"LEVEL"</text>
</g>
<path d="M1856 48h10"></path>
<path d="M1866 48h10"></path>
<g class="non-terminal">
<path d="M1876 48h0"></path>
<path d="M1947 48h0"></path>
<rect x="1876" y="37" width="71" height="22"></rect>
<a xlink:href="#/expression/Source"><text x="1911.5" y="52">Source</text>
</a>
</g>
</g>
<path d="M1947 48h20"></path>
</g>
</g>
<path d="M1967 48h20"></path>
<path d="M1613 48a10 10 0 0 1 10 10v10a10 10 0 0 0 10 10"></path>
<g class="terminal">
<path d="M1633 78h0"></path>
<path d="M1763.5 78h203.5"></path>
<rect x="1633" y="67" width="130.5" height="22" rx="10" ry="10"></rect>
<text x="1698.25" y="82">"ON ROLLBACK"</text>
</g>
<path d="M1967 78a10 10 0 0 0 10 -10v-10a10 10 0 0 1 10 -10"></path>
</g>
<path d="M1987 48h20"></path>
</g>
</g>
<path d="M2007 48h10"></path>
<path d="M 2017 48 h 20 m -10 -10 v 20 m 10 -20 v 20"></path>
</g>
</svg>
