<svg xmlns="http://www.w3.org/2000/svg" xmlns:xlink="http://www.w3.org/1999/xlink" class="railroad-diagram" width="747.5" height="101" viewBox="0 0 747.5 101">
<defs>
<style type="text/css"><![CDATA[
path {
stroke-width: 3;
stroke: black;
fill: rgba(0,0,0,0);
}
text {
font: bold 14px monospace;
text-anchor: middle;
}
text.diagram-text {
font-size: 12px;
}
a {
fill: blue;
}
text.diagram-arrow {
font-size: 16px;
}
text.label {
text-anchor: start;
}
text.comment {
font: italic 12px monospace;
}
rect {
stroke-width: 3;
stroke: black;
fill: #BCBCBC;
}
path.diagram-text {
stroke-width: 3;
stroke: black;
fill: #BCBCBC;
cursor: help;
}
]]></style>
</defs>
<g transform="translate(.5 .5)">
<g>
<path d="M20 30v20m10 -20v20m-10 -10h20"></path>
</g>
<path d="M40 40h10"></path>
<g>
<path d="M50 40h0"></path>
<path d="M697.5 40h0"></path>
<g>
<path d="M50 40h0"></path>
<path d="M123 40h0"></path>
<text x="86.5" y="45" class="comment">not Cloud</text>
</g>
<path d="M123 40h10"></path>
<path d="M133 40h10"></path>
<g>
<path d="M143 40h0"></path>
<path d="M697.5 40h0"></path>
<g class="terminal">
<path d="M143 40h0"></path>
<path d="M273.5 40h0"></path>
<rect x="143" y="29" width="130.5" height="22" rx="10" ry="10"></rect>
<text x="208.25" y="44">"GET DATASET"</text>
</g>
<path d="M273.5 40h10"></path>
<path d="M283.5 40h10"></path>
<g class="non-terminal">
<path d="M293.5 40h0"></path>
<path d="M364.5 40h0"></path>
<rect x="293.5" y="29" width="71" height="22"></rect>
<a xlink:href="#/expression/Target"><text x="329" y="44">Target</text>
</a>
</g>
<path d="M364.5 40h10"></path>
<g>
<path d="M374.5 40h0"></path>
<path d="M697.5 40h0"></path>
<path d="M374.5 40a10 10 0 0 0 10 -10v0a10 10 0 0 1 10 -10"></path>
<g>
<path d="M394.5 20h283"></path>
</g>
<path d="M677.5 20a10 10 0 0 1 10 10v0a10 10 0 0 0 10 10"></path>
<path d="M374.5 40h20"></path>
<g>
<path d="M394.5 40h0"></path>
<path d="M677.5 40h0"></path>
<path d="M424.5 40h10"></path>
<g>
<path d="M434.5 40h0"></path>
<path d="M630.5 40h17"></path>
<g class="terminal">
<path d="M434.5 40h0"></path>
<path d="M539.5 40h0"></path>
<rect x="434.5" y="29" width="105" height="22" rx="10" ry="10"></rect>
<text x="487" y="44">"POSITION"</text>
</g>
<path d="M539.5 40h10"></path>
<path d="M549.5 40h10"></path>
<g class="non-terminal">
<path d="M559.5 40h0"></path>
<path d="M630.5 40h0"></path>
<rect x="559.5" y="29" width="71" height="22"></rect>
<a xlink:href="#/expression/Target"><text x="595" y="44">Target</text>
</a>
</g>
</g>
<path d="M647.5 40h10"></path>
<path d="M424.5 40v20a10 10 0 0 0 10 10"></path>
<g>
<path d="M434.5 70h0"></path>
<path d="M647.5 70h0"></path>
<g class="terminal">
<path d="M434.5 70h0"></path>
<path d="M556.5 70h0"></path>
<rect x="434.5" y="59" width="122" height="22" rx="10" ry="10"></rect>
<text x="495.5" y="74">"ATTRIBUTES"</text>
</g>
<path d="M556.5 70h10"></path>
<path d="M566.5 70h10"></path>
<g class="non-terminal">
<path d="M576.5 70h0"></path>
<path d="M647.5 70h0"></path>
<rect x="576.5" y="59" width="71" height="22"></rect>
<a xlink:href="#/expression/Target"><text x="612" y="74">Target</text>
</a>
</g>
</g>
<path d="M647.5 70a10 10 0 0 0 10 -10v-20"></path>
<g class="diagram-text">
<title>take one or more branches, once each, in any order</title>
<path d="M 424.5 30 h -26 a 4 4 0 0 0 -4 4 v 12 a 4 4 0 0 0 4 4 h 26 z" class="diagram-text"></path>
<text x="409.5" y="44" class="diagram-text">1+</text>
<path d="M 657.5 30 h 16 a 4 4 0 0 1 4 4 v 12 a 4 4 0 0 1 -4 4 h -16 z" class="diagram-text"></path>
<path d="M 664.5 38 a 4 4 0 1 0 6 -1 m 2.75 -1 h -4 v 4 m 0 -3 h 2" style="stroke-width: 1.75"></path>
</g>
</g>
<path d="M677.5 40h20"></path>
</g>
</g>
</g>
<path d="M697.5 40h10"></path>
<path d="M 707.5 40 h 20 m -10 -10 v 20 m 10 -20 v 20"></path>
</g>
</svg>
