<svg xmlns="http://www.w3.org/2000/svg" xmlns:xlink="http://www.w3.org/1999/xlink" class="railroad-diagram" width="867" height="101" viewBox="0 0 867 101">
<defs>
<style type="text/css"><![CDATA[
path {
stroke-width: 3;
stroke: black;
fill: rgba(0,0,0,0);
}
text {
font: bold 14px monospace;
text-anchor: middle;
}
text.diagram-text {
font-size: 12px;
}
a {
fill: blue;
}
text.diagram-arrow {
font-size: 16px;
}
text.label {
text-anchor: start;
}
text.comment {
font: italic 12px monospace;
}
rect {
stroke-width: 3;
stroke: black;
fill: #BCBCBC;
}
path.diagram-text {
stroke-width: 3;
stroke: black;
fill: #BCBCBC;
cursor: help;
}
]]></style>
</defs>
<g transform="translate(.5 .5)">
<g>
<path d="M20 30v20m10 -20v20m-10 -10h20"></path>
</g>
<path d="M40 40h10"></path>
<g>
<path d="M50 40h0"></path>
<path d="M817 40h0"></path>
<g>
<path d="M50 40h0"></path>
<path d="M123 40h0"></path>
<text x="86.5" y="45" class="comment">not Cloud</text>
</g>
<path d="M123 40h10"></path>
<path d="M133 40h10"></path>
<g>
<path d="M143 40h0"></path>
<path d="M817 40h0"></path>
<g class="terminal">
<path d="M143 40h0"></path>
<path d="M307.5 40h0"></path>
<rect x="143" y="29" width="164.5" height="22" rx="10" ry="10"></rect>
<text x="225.25" y="44">"EDITOR-CALL FOR"</text>
</g>
<path d="M307.5 40h10"></path>
<g>
<path d="M317.5 40h0"></path>
<path d="M445.5 40h0"></path>
<path d="M317.5 40a10 10 0 0 0 10 -10v0a10 10 0 0 1 10 -10"></path>
<g>
<path d="M337.5 20h88"></path>
</g>
<path d="M425.5 20a10 10 0 0 1 10 10v0a10 10 0 0 0 10 10"></path>
<path d="M317.5 40h20"></path>
<g class="terminal">
<path d="M337.5 40h0"></path>
<path d="M425.5 40h0"></path>
<rect x="337.5" y="29" width="88" height="22" rx="10" ry="10"></rect>
<text x="381.5" y="44">"REPORT"</text>
</g>
<path d="M425.5 40h20"></path>
</g>
<path d="M445.5 40h10"></path>
<g class="non-terminal">
<path d="M455.5 40h0"></path>
<path d="M526.5 40h0"></path>
<rect x="455.5" y="29" width="71" height="22"></rect>
<a xlink:href="#/expression/Source"><text x="491" y="44">Source</text>
</a>
</g>
<path d="M526.5 40h10"></path>
<g>
<path d="M536.5 40h0"></path>
<path d="M817 40h0"></path>
<path d="M536.5 40a10 10 0 0 0 10 -10v0a10 10 0 0 1 10 -10"></path>
<g>
<path d="M556.5 20h240.5"></path>
</g>
<path d="M797 20a10 10 0 0 1 10 10v0a10 10 0 0 0 10 10"></path>
<path d="M536.5 40h20"></path>
<g>
<path d="M556.5 40h0"></path>
<path d="M797 40h0"></path>
<path d="M586.5 40h10"></path>
<g class="terminal">
<path d="M596.5 40h0"></path>
<path d="M735.5 40h31.5"></path>
<rect x="596.5" y="29" width="139" height="22" rx="10" ry="10"></rect>
<text x="666" y="44">"DISPLAY-MODE"</text>
</g>
<path d="M767 40h10"></path>
<path d="M586.5 40v20a10 10 0 0 0 10 10"></path>
<g>
<path d="M596.5 70h0"></path>
<path d="M767 70h0"></path>
<g class="terminal">
<path d="M596.5 70h0"></path>
<path d="M676 70h0"></path>
<rect x="596.5" y="59" width="79.5" height="22" rx="10" ry="10"></rect>
<text x="636.25" y="74">"TITLE"</text>
</g>
<path d="M676 70h10"></path>
<path d="M686 70h10"></path>
<g class="non-terminal">
<path d="M696 70h0"></path>
<path d="M767 70h0"></path>
<rect x="696" y="59" width="71" height="22"></rect>
<a xlink:href="#/expression/Source"><text x="731.5" y="74">Source</text>
</a>
</g>
</g>
<path d="M767 70a10 10 0 0 0 10 -10v-20"></path>
<g class="diagram-text">
<title>take one or more branches, once each, in any order</title>
<path d="M 586.5 30 h -26 a 4 4 0 0 0 -4 4 v 12 a 4 4 0 0 0 4 4 h 26 z" class="diagram-text"></path>
<text x="571.5" y="44" class="diagram-text">1+</text>
<path d="M 777 30 h 16 a 4 4 0 0 1 4 4 v 12 a 4 4 0 0 1 -4 4 h -16 z" class="diagram-text"></path>
<path d="M 784 38 a 4 4 0 1 0 6 -1 m 2.75 -1 h -4 v 4 m 0 -3 h 2" style="stroke-width: 1.75"></path>
</g>
</g>
<path d="M797 40h20"></path>
</g>
</g>
</g>
<path d="M817 40h10"></path>
<path d="M 827 40 h 20 m -10 -10 v 20 m 10 -20 v 20"></path>
</g>
</svg>
