<svg xmlns="http://www.w3.org/2000/svg" xmlns:xlink="http://www.w3.org/1999/xlink" class="railroad-diagram" width="669.5" height="340" viewBox="0 0 669.5 340">
<defs>
<style type="text/css"><![CDATA[
path {
stroke-width: 3;
stroke: black;
fill: rgba(0,0,0,0);
}
text {
font: bold 14px monospace;
text-anchor: middle;
}
text.diagram-text {
font-size: 12px;
}
a {
fill: blue;
}
text.diagram-arrow {
font-size: 16px;
}
text.label {
text-anchor: start;
}
text.comment {
font: italic 12px monospace;
}
rect {
stroke-width: 3;
stroke: black;
fill: #BCBCBC;
}
path.diagram-text {
stroke-width: 3;
stroke: black;
fill: #BCBCBC;
cursor: help;
}
]]></style>
</defs>
<g transform="translate(.5 .5)">
<g>
<path d="M20 21v20m10 -20v20m-10 -10h20"></path>
</g>
<g>
<path d="M40 31h0"></path>
<path d="M629.5 31h0"></path>
<path d="M40 31h20"></path>
<g>
<path d="M60 31h0"></path>
<path d="M609.5 31h0"></path>
<g>
<path d="M60 31h0"></path>
<path d="M224 31h0"></path>
<g>
<path d="M60 31h0"></path>
<path d="M133 31h0"></path>
<text x="96.5" y="36" class="comment">not Cloud</text>
</g>
<path d="M133 31h10"></path>
<path d="M143 31h10"></path>
<g class="terminal">
<path d="M153 31h0"></path>
<path d="M224 31h0"></path>
<rect x="153" y="20" width="71" height="22" rx="10" ry="10"></rect>
<text x="188.5" y="35">"MOVE"</text>
</g>
</g>
<path d="M224 31h10"></path>
<g>
<path d="M234 31h0"></path>
<path d="M609.5 31h0"></path>
<path d="M234 31h20"></path>
<g>
<path d="M254 31h0"></path>
<path d="M589.5 31h0"></path>
<g class="terminal">
<path d="M254 31h0"></path>
<path d="M333.5 31h0"></path>
<rect x="254" y="20" width="79.5" height="22" rx="10" ry="10"></rect>
<text x="293.75" y="35">"EXACT"</text>
</g>
<path d="M333.5 31h10"></path>
<path d="M343.5 31h10"></path>
<g class="non-terminal">
<path d="M353.5 31h0"></path>
<path d="M424.5 31h0"></path>
<rect x="353.5" y="20" width="71" height="22"></rect>
<a xlink:href="#/expression/Source"><text x="389" y="35">Source</text>
</a>
</g>
<path d="M424.5 31h10"></path>
<path d="M434.5 31h10"></path>
<g class="terminal">
<path d="M444.5 31h0"></path>
<path d="M498.5 31h0"></path>
<rect x="444.5" y="20" width="54" height="22" rx="10" ry="10"></rect>
<text x="471.5" y="35">"TO"</text>
</g>
<path d="M498.5 31h10"></path>
<path d="M508.5 31h10"></path>
<g class="non-terminal">
<path d="M518.5 31h0"></path>
<path d="M589.5 31h0"></path>
<rect x="518.5" y="20" width="71" height="22"></rect>
<a xlink:href="#/expression/Target"><text x="554" y="35">Target</text>
</a>
</g>
</g>
<path d="M589.5 31h20"></path>
<path d="M234 31a10 10 0 0 1 10 10v10a10 10 0 0 0 10 10"></path>
<g>
<path d="M254 61h0"></path>
<path d="M518.5 61h71"></path>
<g class="non-terminal">
<path d="M254 61h0"></path>
<path d="M325 61h0"></path>
<rect x="254" y="50" width="71" height="22"></rect>
<a xlink:href="#/expression/Source"><text x="289.5" y="65">Source</text>
</a>
</g>
<path d="M325 61h10"></path>
<g>
<path d="M335 61h0"></path>
<path d="M437.5 61h0"></path>
<path d="M335 61h20"></path>
<g class="terminal">
<path d="M355 61h0"></path>
<path d="M417.5 61h0"></path>
<rect x="355" y="50" width="62.5" height="22" rx="10" ry="10"></rect>
<text x="386.25" y="65">"?TO"</text>
</g>
<path d="M417.5 61h20"></path>
<path d="M335 61a10 10 0 0 1 10 10v10a10 10 0 0 0 10 10"></path>
<g class="terminal">
<path d="M355 91h0"></path>
<path d="M409 91h8.5"></path>
<rect x="355" y="80" width="54" height="22" rx="10" ry="10"></rect>
<text x="382" y="95">"TO"</text>
</g>
<path d="M417.5 91a10 10 0 0 0 10 -10v-10a10 10 0 0 1 10 -10"></path>
</g>
<path d="M437.5 61h10"></path>
<g class="non-terminal">
<path d="M447.5 61h0"></path>
<path d="M518.5 61h0"></path>
<rect x="447.5" y="50" width="71" height="22"></rect>
<a xlink:href="#/expression/Target"><text x="483" y="65">Target</text>
</a>
</g>
</g>
<path d="M589.5 61a10 10 0 0 0 10 -10v-10a10 10 0 0 1 10 -10"></path>
</g>
</g>
<path d="M609.5 31h20"></path>
<path d="M40 31a10 10 0 0 1 10 10v70a10 10 0 0 0 10 10"></path>
<g>
<path d="M60 121h0"></path>
<path d="M508 121h101.5"></path>
<g>
<path d="M60 121h0"></path>
<path d="M417 121h0"></path>
<path d="M60 121h10"></path>
<g>
<path d="M70 121h0"></path>
<path d="M407 121h0"></path>
<g class="non-terminal">
<path d="M70 121h0"></path>
<path d="M141 121h0"></path>
<rect x="70" y="110" width="71" height="22"></rect>
<a xlink:href="#/expression/Target"><text x="105.5" y="125">Target</text>
</a>
</g>
<path d="M141 121h10"></path>
<g>
<path d="M151 121h0"></path>
<path d="M407 121h0"></path>
<path d="M151 121h20"></path>
<g>
<path d="M171 121h0"></path>
<path d="M265 121h122"></path>
<path d="M171 121h20"></path>
<g class="terminal">
<path d="M191 121h0"></path>
<path d="M236.5 121h8.5"></path>
<rect x="191" y="110" width="45.5" height="22" rx="10" ry="10"></rect>
<text x="213.75" y="125">"="</text>
</g>
<path d="M245 121h20"></path>
<path d="M171 121a10 10 0 0 1 10 10v10a10 10 0 0 0 10 10"></path>
<g class="terminal">
<path d="M191 151h0"></path>
<path d="M245 151h0"></path>
<rect x="191" y="140" width="54" height="22" rx="10" ry="10"></rect>
<text x="218" y="155">"?="</text>
</g>
<path d="M245 151a10 10 0 0 0 10 -10v-10a10 10 0 0 1 10 -10"></path>
</g>
<path d="M387 121h20"></path>
<path d="M151 121a10 10 0 0 1 10 10v40a10 10 0 0 0 10 10"></path>
<g>
<path d="M171 181h0"></path>
<path d="M387 181h0"></path>
<g>
<path d="M171 181h0"></path>
<path d="M209 181h0"></path>
<text x="190" y="186" class="comment">v754</text>
</g>
<path d="M209 181h10"></path>
<g>
<path d="M219 181h0"></path>
<path d="M387 181h0"></path>
<path d="M219 181h20"></path>
<g>
<path d="M239 181h0"></path>
<path d="M367 181h0"></path>
<g class="terminal">
<path d="M239 181h0"></path>
<path d="M301.5 181h0"></path>
<rect x="239" y="170" width="62.5" height="22" rx="10" ry="10"></rect>
<text x="270.25" y="185">!" +"</text>
</g>
<path d="M301.5 181h10"></path>
<path d="M311.5 181h10"></path>
<g class="terminal">
<path d="M321.5 181h0"></path>
<path d="M367 181h0"></path>
<rect x="321.5" y="170" width="45.5" height="22" rx="10" ry="10"></rect>
<text x="344.25" y="185">"="</text>
</g>
</g>
<path d="M367 181h20"></path>
<path d="M219 181a10 10 0 0 1 10 10v10a10 10 0 0 0 10 10"></path>
<g>
<path d="M239 211h0"></path>
<path d="M367 211h0"></path>
<g class="terminal">
<path d="M239 211h0"></path>
<path d="M301.5 211h0"></path>
<rect x="239" y="200" width="62.5" height="22" rx="10" ry="10"></rect>
<text x="270.25" y="215">!" -"</text>
</g>
<path d="M301.5 211h10"></path>
<path d="M311.5 211h10"></path>
<g class="terminal">
<path d="M321.5 211h0"></path>
<path d="M367 211h0"></path>
<rect x="321.5" y="200" width="45.5" height="22" rx="10" ry="10"></rect>
<text x="344.25" y="215">"="</text>
</g>
</g>
<path d="M367 211a10 10 0 0 0 10 -10v-10a10 10 0 0 1 10 -10"></path>
<path d="M219 181a10 10 0 0 1 10 10v40a10 10 0 0 0 10 10"></path>
<g class="terminal">
<path d="M239 241h0"></path>
<path d="M293 241h74"></path>
<rect x="239" y="230" width="54" height="22" rx="10" ry="10"></rect>
<text x="266" y="245">"/="</text>
</g>
<path d="M367 241a10 10 0 0 0 10 -10v-40a10 10 0 0 1 10 -10"></path>
<path d="M219 181a10 10 0 0 1 10 10v70a10 10 0 0 0 10 10"></path>
<g class="terminal">
<path d="M239 271h0"></path>
<path d="M293 271h74"></path>
<rect x="239" y="260" width="54" height="22" rx="10" ry="10"></rect>
<text x="266" y="275">"&#42;="</text>
</g>
<path d="M367 271a10 10 0 0 0 10 -10v-70a10 10 0 0 1 10 -10"></path>
<path d="M219 181a10 10 0 0 1 10 10v100a10 10 0 0 0 10 10"></path>
<g class="terminal">
<path d="M239 301h0"></path>
<path d="M301.5 301h65.5"></path>
<rect x="239" y="290" width="62.5" height="22" rx="10" ry="10"></rect>
<text x="270.25" y="305">"&#38;&#38;="</text>
</g>
<path d="M367 301a10 10 0 0 0 10 -10v-100a10 10 0 0 1 10 -10"></path>
</g>
</g>
<path d="M387 181a10 10 0 0 0 10 -10v-40a10 10 0 0 1 10 -10"></path>
</g>
</g>
<path d="M407 121h10"></path>
<path d="M70 121a10 10 0 0 0 -10 10v179a10 10 0 0 0 10 10"></path>
<g>
<path d="M70 320h337"></path>
</g>
<path d="M407 320a10 10 0 0 0 10 -10v-179a10 10 0 0 0 -10 -10"></path>
</g>
<path d="M417 121h10"></path>
<path d="M427 121h10"></path>
<g class="non-terminal">
<path d="M437 121h0"></path>
<path d="M508 121h0"></path>
<rect x="437" y="110" width="71" height="22"></rect>
<a xlink:href="#/expression/Source"><text x="472.5" y="125">Source</text>
</a>
</g>
</g>
<path d="M609.5 121a10 10 0 0 0 10 -10v-70a10 10 0 0 1 10 -10"></path>
</g>
<path d="M 629.5 31 h 20 m -10 -10 v 20 m 10 -20 v 20"></path>
</g>
</svg>
