<svg xmlns="http://www.w3.org/2000/svg" xmlns:xlink="http://www.w3.org/1999/xlink" class="railroad-diagram" width="728" height="569" viewBox="0 0 728 569">
<defs>
<style type="text/css"><![CDATA[
path {
stroke-width: 3;
stroke: black;
fill: rgba(0,0,0,0);
}
text {
font: bold 14px monospace;
text-anchor: middle;
}
text.diagram-text {
font-size: 12px;
}
a {
fill: blue;
}
text.diagram-arrow {
font-size: 16px;
}
text.label {
text-anchor: start;
}
text.comment {
font: italic 12px monospace;
}
rect {
stroke-width: 3;
stroke: black;
fill: #BCBCBC;
}
path.diagram-text {
stroke-width: 3;
stroke: black;
fill: #BCBCBC;
cursor: help;
}
]]></style>
</defs>
<g transform="translate(.5 .5)">
<g>
<path d="M20 21v20m10 -20v20m-10 -10h20"></path>
</g>
<path d="M40 31h10"></path>
<g>
<path d="M50 31h0"></path>
<path d="M678 31h0"></path>
<g>
<path d="M50 31h0"></path>
<path d="M123 31h0"></path>
<text x="86.5" y="36" class="comment">not Cloud</text>
</g>
<path d="M123 31h10"></path>
<path d="M133 31h10"></path>
<g>
<path d="M143 31h0"></path>
<path d="M678 31h0"></path>
<g class="terminal">
<path d="M143 31h0"></path>
<path d="M231 31h0"></path>
<rect x="143" y="20" width="88" height="22" rx="10" ry="10"></rect>
<text x="187" y="35">"FORMAT"</text>
</g>
<path d="M231 31h10"></path>
<path d="M241 31h10"></path>
<g>
<path d="M251 31h0"></path>
<path d="M678 31h0"></path>
<path d="M281 31h10"></path>
<g class="terminal">
<path d="M291 31h0"></path>
<path d="M370.5 31h277.5"></path>
<rect x="291" y="20" width="79.5" height="22" rx="10" ry="10"></rect>
<text x="330.75" y="35">"RESET"</text>
</g>
<path d="M648 31h10"></path>
<path d="M281 31v29a10 10 0 0 0 10 10"></path>
<g>
<path d="M291 70h0"></path>
<path d="M648 70h0"></path>
<g class="terminal">
<path d="M291 70h0"></path>
<path d="M421.5 70h0"></path>
<rect x="291" y="59" width="130.5" height="22" rx="10" ry="10"></rect>
<text x="356.25" y="74">"INTENSIFIED"</text>
</g>
<path d="M421.5 70h10"></path>
<g>
<path d="M431.5 70h0"></path>
<path d="M648 70h0"></path>
<path d="M431.5 70a10 10 0 0 0 10 -10v0a10 10 0 0 1 10 -10"></path>
<g>
<path d="M451.5 50h176.5"></path>
</g>
<path d="M628 50a10 10 0 0 1 10 10v0a10 10 0 0 0 10 10"></path>
<path d="M431.5 70h20"></path>
<g>
<path d="M451.5 70h0"></path>
<path d="M628 70h0"></path>
<path d="M451.5 70h20"></path>
<g>
<path d="M471.5 70h0"></path>
<path d="M608 70h0"></path>
<g class="terminal">
<path d="M471.5 70h0"></path>
<path d="M517 70h0"></path>
<rect x="471.5" y="59" width="45.5" height="22" rx="10" ry="10"></rect>
<text x="494.25" y="74">"="</text>
</g>
<path d="M517 70h10"></path>
<path d="M527 70h10"></path>
<g class="non-terminal">
<path d="M537 70h0"></path>
<path d="M608 70h0"></path>
<rect x="537" y="59" width="71" height="22"></rect>
<a xlink:href="#/expression/Source"><text x="572.5" y="74">Source</text>
</a>
</g>
</g>
<path d="M608 70h20"></path>
<path d="M451.5 70a10 10 0 0 1 10 10v10a10 10 0 0 0 10 10"></path>
<g class="terminal">
<path d="M471.5 100h0"></path>
<path d="M525.5 100h82.5"></path>
<rect x="471.5" y="89" width="54" height="22" rx="10" ry="10"></rect>
<text x="498.5" y="104">"ON"</text>
</g>
<path d="M608 100a10 10 0 0 0 10 -10v-10a10 10 0 0 1 10 -10"></path>
<path d="M451.5 70a10 10 0 0 1 10 10v40a10 10 0 0 0 10 10"></path>
<g class="terminal">
<path d="M471.5 130h0"></path>
<path d="M534 130h74"></path>
<rect x="471.5" y="119" width="62.5" height="22" rx="10" ry="10"></rect>
<text x="502.75" y="134">"OFF"</text>
</g>
<path d="M608 130a10 10 0 0 0 10 -10v-40a10 10 0 0 1 10 -10"></path>
</g>
<path d="M628 70h20"></path>
</g>
</g>
<path d="M648 70a10 10 0 0 0 10 -10v-29"></path>
<path d="M281 31v128a10 10 0 0 0 10 10"></path>
<g>
<path d="M291 169h0"></path>
<path d="M614 169h34"></path>
<g class="terminal">
<path d="M291 169h0"></path>
<path d="M387.5 169h0"></path>
<rect x="291" y="158" width="96.5" height="22" rx="10" ry="10"></rect>
<text x="339.25" y="173">"INVERSE"</text>
</g>
<path d="M387.5 169h10"></path>
<g>
<path d="M397.5 169h0"></path>
<path d="M614 169h0"></path>
<path d="M397.5 169a10 10 0 0 0 10 -10v0a10 10 0 0 1 10 -10"></path>
<g>
<path d="M417.5 149h176.5"></path>
</g>
<path d="M594 149a10 10 0 0 1 10 10v0a10 10 0 0 0 10 10"></path>
<path d="M397.5 169h20"></path>
<g>
<path d="M417.5 169h0"></path>
<path d="M594 169h0"></path>
<path d="M417.5 169h20"></path>
<g>
<path d="M437.5 169h0"></path>
<path d="M574 169h0"></path>
<g class="terminal">
<path d="M437.5 169h0"></path>
<path d="M483 169h0"></path>
<rect x="437.5" y="158" width="45.5" height="22" rx="10" ry="10"></rect>
<text x="460.25" y="173">"="</text>
</g>
<path d="M483 169h10"></path>
<path d="M493 169h10"></path>
<g class="non-terminal">
<path d="M503 169h0"></path>
<path d="M574 169h0"></path>
<rect x="503" y="158" width="71" height="22"></rect>
<a xlink:href="#/expression/Source"><text x="538.5" y="173">Source</text>
</a>
</g>
</g>
<path d="M574 169h20"></path>
<path d="M417.5 169a10 10 0 0 1 10 10v10a10 10 0 0 0 10 10"></path>
<g class="terminal">
<path d="M437.5 199h0"></path>
<path d="M491.5 199h82.5"></path>
<rect x="437.5" y="188" width="54" height="22" rx="10" ry="10"></rect>
<text x="464.5" y="203">"ON"</text>
</g>
<path d="M574 199a10 10 0 0 0 10 -10v-10a10 10 0 0 1 10 -10"></path>
<path d="M417.5 169a10 10 0 0 1 10 10v40a10 10 0 0 0 10 10"></path>
<g class="terminal">
<path d="M437.5 229h0"></path>
<path d="M500 229h74"></path>
<rect x="437.5" y="218" width="62.5" height="22" rx="10" ry="10"></rect>
<text x="468.75" y="233">"OFF"</text>
</g>
<path d="M574 229a10 10 0 0 0 10 -10v-40a10 10 0 0 1 10 -10"></path>
</g>
<path d="M594 169h20"></path>
</g>
</g>
<path d="M648 169a10 10 0 0 0 10 -10v-128"></path>
<path d="M281 31v227a10 10 0 0 0 10 10"></path>
<g>
<path d="M291 268h0"></path>
<path d="M614 268h34"></path>
<g class="terminal">
<path d="M291 268h0"></path>
<path d="M387.5 268h0"></path>
<rect x="291" y="257" width="96.5" height="22" rx="10" ry="10"></rect>
<text x="339.25" y="272">"HOTSPOT"</text>
</g>
<path d="M387.5 268h10"></path>
<g>
<path d="M397.5 268h0"></path>
<path d="M614 268h0"></path>
<path d="M397.5 268a10 10 0 0 0 10 -10v0a10 10 0 0 1 10 -10"></path>
<g>
<path d="M417.5 248h176.5"></path>
</g>
<path d="M594 248a10 10 0 0 1 10 10v0a10 10 0 0 0 10 10"></path>
<path d="M397.5 268h20"></path>
<g>
<path d="M417.5 268h0"></path>
<path d="M594 268h0"></path>
<path d="M417.5 268h20"></path>
<g>
<path d="M437.5 268h0"></path>
<path d="M574 268h0"></path>
<g class="terminal">
<path d="M437.5 268h0"></path>
<path d="M483 268h0"></path>
<rect x="437.5" y="257" width="45.5" height="22" rx="10" ry="10"></rect>
<text x="460.25" y="272">"="</text>
</g>
<path d="M483 268h10"></path>
<path d="M493 268h10"></path>
<g class="non-terminal">
<path d="M503 268h0"></path>
<path d="M574 268h0"></path>
<rect x="503" y="257" width="71" height="22"></rect>
<a xlink:href="#/expression/Source"><text x="538.5" y="272">Source</text>
</a>
</g>
</g>
<path d="M574 268h20"></path>
<path d="M417.5 268a10 10 0 0 1 10 10v10a10 10 0 0 0 10 10"></path>
<g class="terminal">
<path d="M437.5 298h0"></path>
<path d="M491.5 298h82.5"></path>
<rect x="437.5" y="287" width="54" height="22" rx="10" ry="10"></rect>
<text x="464.5" y="302">"ON"</text>
</g>
<path d="M574 298a10 10 0 0 0 10 -10v-10a10 10 0 0 1 10 -10"></path>
<path d="M417.5 268a10 10 0 0 1 10 10v40a10 10 0 0 0 10 10"></path>
<g class="terminal">
<path d="M437.5 328h0"></path>
<path d="M500 328h74"></path>
<rect x="437.5" y="317" width="62.5" height="22" rx="10" ry="10"></rect>
<text x="468.75" y="332">"OFF"</text>
</g>
<path d="M574 328a10 10 0 0 0 10 -10v-40a10 10 0 0 1 10 -10"></path>
</g>
<path d="M594 268h20"></path>
</g>
</g>
<path d="M648 268a10 10 0 0 0 10 -10v-227"></path>
<path d="M281 31v317a10 10 0 0 0 10 10"></path>
<g>
<path d="M291 358h0"></path>
<path d="M565.5 358h82.5"></path>
<g class="terminal">
<path d="M291 358h0"></path>
<path d="M379 358h0"></path>
<rect x="291" y="347" width="88" height="22" rx="10" ry="10"></rect>
<text x="335" y="362">"FRAMES"</text>
</g>
<path d="M379 358h10"></path>
<g>
<path d="M389 358h0"></path>
<path d="M565.5 358h0"></path>
<path d="M389 358h20"></path>
<g>
<path d="M409 358h0"></path>
<path d="M545.5 358h0"></path>
<g class="terminal">
<path d="M409 358h0"></path>
<path d="M454.5 358h0"></path>
<rect x="409" y="347" width="45.5" height="22" rx="10" ry="10"></rect>
<text x="431.75" y="362">"="</text>
</g>
<path d="M454.5 358h10"></path>
<path d="M464.5 358h10"></path>
<g class="non-terminal">
<path d="M474.5 358h0"></path>
<path d="M545.5 358h0"></path>
<rect x="474.5" y="347" width="71" height="22"></rect>
<a xlink:href="#/expression/Source"><text x="510" y="362">Source</text>
</a>
</g>
</g>
<path d="M545.5 358h20"></path>
<path d="M389 358a10 10 0 0 1 10 10v10a10 10 0 0 0 10 10"></path>
<g class="terminal">
<path d="M409 388h0"></path>
<path d="M463 388h82.5"></path>
<rect x="409" y="377" width="54" height="22" rx="10" ry="10"></rect>
<text x="436" y="392">"ON"</text>
</g>
<path d="M545.5 388a10 10 0 0 0 10 -10v-10a10 10 0 0 1 10 -10"></path>
<path d="M389 358a10 10 0 0 1 10 10v40a10 10 0 0 0 10 10"></path>
<g class="terminal">
<path d="M409 418h0"></path>
<path d="M471.5 418h74"></path>
<rect x="409" y="407" width="62.5" height="22" rx="10" ry="10"></rect>
<text x="440.25" y="422">"OFF"</text>
</g>
<path d="M545.5 418a10 10 0 0 0 10 -10v-40a10 10 0 0 1 10 -10"></path>
</g>
</g>
<path d="M648 358a10 10 0 0 0 10 -10v-317"></path>
<path d="M281 31v407a10 10 0 0 0 10 10"></path>
<g>
<path d="M291 448h0"></path>
<path d="M557 448h91"></path>
<g class="terminal">
<path d="M291 448h0"></path>
<path d="M370.5 448h0"></path>
<rect x="291" y="437" width="79.5" height="22" rx="10" ry="10"></rect>
<text x="330.75" y="452">"INPUT"</text>
</g>
<path d="M370.5 448h10"></path>
<g>
<path d="M380.5 448h0"></path>
<path d="M557 448h0"></path>
<path d="M380.5 448h20"></path>
<g>
<path d="M400.5 448h0"></path>
<path d="M537 448h0"></path>
<g class="terminal">
<path d="M400.5 448h0"></path>
<path d="M446 448h0"></path>
<rect x="400.5" y="437" width="45.5" height="22" rx="10" ry="10"></rect>
<text x="423.25" y="452">"="</text>
</g>
<path d="M446 448h10"></path>
<path d="M456 448h10"></path>
<g class="non-terminal">
<path d="M466 448h0"></path>
<path d="M537 448h0"></path>
<rect x="466" y="437" width="71" height="22"></rect>
<a xlink:href="#/expression/Source"><text x="501.5" y="452">Source</text>
</a>
</g>
</g>
<path d="M537 448h20"></path>
<path d="M380.5 448a10 10 0 0 1 10 10v10a10 10 0 0 0 10 10"></path>
<g class="terminal">
<path d="M400.5 478h0"></path>
<path d="M454.5 478h82.5"></path>
<rect x="400.5" y="467" width="54" height="22" rx="10" ry="10"></rect>
<text x="427.5" y="482">"ON"</text>
</g>
<path d="M537 478a10 10 0 0 0 10 -10v-10a10 10 0 0 1 10 -10"></path>
<path d="M380.5 448a10 10 0 0 1 10 10v40a10 10 0 0 0 10 10"></path>
<g class="terminal">
<path d="M400.5 508h0"></path>
<path d="M463 508h74"></path>
<rect x="400.5" y="497" width="62.5" height="22" rx="10" ry="10"></rect>
<text x="431.75" y="512">"OFF"</text>
</g>
<path d="M537 508a10 10 0 0 0 10 -10v-40a10 10 0 0 1 10 -10"></path>
</g>
</g>
<path d="M648 448a10 10 0 0 0 10 -10v-407"></path>
<path d="M281 31v497a10 10 0 0 0 10 10"></path>
<g class="non-terminal">
<path d="M291 538h0"></path>
<path d="M353.5 538h294.5"></path>
<rect x="291" y="527" width="62.5" height="22"></rect>
<a xlink:href="#/expression/Color"><text x="322.25" y="542">Color</text>
</a>
</g>
<path d="M648 538a10 10 0 0 0 10 -10v-497"></path>
<g class="diagram-text">
<title>take one or more branches, once each, in any order</title>
<path d="M 281 21 h -26 a 4 4 0 0 0 -4 4 v 12 a 4 4 0 0 0 4 4 h 26 z" class="diagram-text"></path>
<text x="266" y="35" class="diagram-text">1+</text>
<path d="M 658 21 h 16 a 4 4 0 0 1 4 4 v 12 a 4 4 0 0 1 -4 4 h -16 z" class="diagram-text"></path>
<path d="M 665 29 a 4 4 0 1 0 6 -1 m 2.75 -1 h -4 v 4 m 0 -3 h 2" style="stroke-width: 1.75"></path>
</g>
</g>
</g>
</g>
<path d="M678 31h10"></path>
<path d="M 688 31 h 20 m -10 -10 v 20 m 10 -20 v 20"></path>
</g>
</svg>
