<svg xmlns="http://www.w3.org/2000/svg" xmlns:xlink="http://www.w3.org/1999/xlink" class="railroad-diagram" width="493.5" height="92" viewBox="0 0 493.5 92">
<defs>
<style type="text/css"><![CDATA[
path {
stroke-width: 3;
stroke: black;
fill: rgba(0,0,0,0);
}
text {
font: bold 14px monospace;
text-anchor: middle;
}
text.diagram-text {
font-size: 12px;
}
a {
fill: blue;
}
text.diagram-arrow {
font-size: 16px;
}
text.label {
text-anchor: start;
}
text.comment {
font: italic 12px monospace;
}
rect {
stroke-width: 3;
stroke: black;
fill: #BCBCBC;
}
path.diagram-text {
stroke-width: 3;
stroke: black;
fill: #BCBCBC;
cursor: help;
}
]]></style>
</defs>
<g transform="translate(.5 .5)">
<g>
<path d="M20 21v20m10 -20v20m-10 -10h20"></path>
</g>
<path d="M40 31h10"></path>
<g>
<path d="M50 31h0"></path>
<path d="M443.5 31h0"></path>
<g>
<path d="M50 31h0"></path>
<path d="M186.5 31h0"></path>
<path d="M50 31h20"></path>
<g class="terminal">
<path d="M70 31h0"></path>
<path d="M158 31h8.5"></path>
<rect x="70" y="20" width="88" height="22" rx="10" ry="10"></rect>
<text x="114" y="35">"STATIC"</text>
</g>
<path d="M166.5 31h20"></path>
<path d="M50 31a10 10 0 0 1 10 10v10a10 10 0 0 0 10 10"></path>
<g class="terminal">
<path d="M70 61h0"></path>
<path d="M166.5 61h0"></path>
<rect x="70" y="50" width="96.5" height="22" rx="10" ry="10"></rect>
<text x="118.25" y="65">"STATICS"</text>
</g>
<path d="M166.5 61a10 10 0 0 0 10 -10v-10a10 10 0 0 1 10 -10"></path>
</g>
<path d="M186.5 31h10"></path>
<g class="terminal">
<path d="M196.5 31h0"></path>
<path d="M284.5 31h0"></path>
<rect x="196.5" y="20" width="88" height="22" rx="10" ry="10"></rect>
<text x="240.5" y="35">"END OF"</text>
</g>
<path d="M284.5 31h10"></path>
<path d="M294.5 31h10"></path>
<g class="non-terminal">
<path d="M304.5 31h0"></path>
<path d="M443.5 31h0"></path>
<rect x="304.5" y="20" width="139" height="22"></rect>
<a xlink:href="#/expression/DefinitionName"><text x="374" y="35">DefinitionName</text>
</a>
</g>
</g>
<path d="M443.5 31h10"></path>
<path d="M 453.5 31 h 20 m -10 -10 v 20 m 10 -20 v 20"></path>
</g>
</svg>
