<svg xmlns="http://www.w3.org/2000/svg" xmlns:xlink="http://www.w3.org/1999/xlink" class="railroad-diagram" width="2120" height="437" viewBox="0 0 2120 437">
<defs>
<style type="text/css"><![CDATA[
path {
stroke-width: 3;
stroke: black;
fill: rgba(0,0,0,0);
}
text {
font: bold 14px monospace;
text-anchor: middle;
}
text.diagram-text {
font-size: 12px;
}
a {
fill: blue;
}
text.diagram-arrow {
font-size: 16px;
}
text.label {
text-anchor: start;
}
text.comment {
font: italic 12px monospace;
}
rect {
stroke-width: 3;
stroke: black;
fill: #BCBCBC;
}
path.diagram-text {
stroke-width: 3;
stroke: black;
fill: #BCBCBC;
cursor: help;
}
]]></style>
</defs>
<g transform="translate(.5 .5)">
<g>
<path d="M20 30v20m10 -20v20m-10 -10h20"></path>
</g>
<path d="M40 40h10"></path>
<g>
<path d="M50 40h0"></path>
<path d="M2070 40h0"></path>
<g>
<path d="M50 40h0"></path>
<path d="M237.5 40h0"></path>
<path d="M50 40h20"></path>
<g class="terminal">
<path d="M70 40h0"></path>
<path d="M217.5 40h0"></path>
<rect x="70" y="29" width="147.5" height="22" rx="10" ry="10"></rect>
<text x="143.75" y="44">"CLASS-METHODS"</text>
</g>
<path d="M217.5 40h20"></path>
<path d="M50 40a10 10 0 0 1 10 10v10a10 10 0 0 0 10 10"></path>
<g class="terminal">
<path d="M70 70h0"></path>
<path d="M166.5 70h51"></path>
<rect x="70" y="59" width="96.5" height="22" rx="10" ry="10"></rect>
<text x="118.25" y="74">"METHODS"</text>
</g>
<path d="M217.5 70a10 10 0 0 0 10 -10v-10a10 10 0 0 1 10 -10"></path>
</g>
<path d="M237.5 40h10"></path>
<g class="non-terminal">
<path d="M247.5 40h0"></path>
<path d="M352.5 40h0"></path>
<rect x="247.5" y="29" width="105" height="22"></rect>
<a xlink:href="#/expression/MethodName"><text x="300" y="44">MethodName</text>
</a>
</g>
<path d="M352.5 40h10"></path>
<g>
<path d="M362.5 40h0"></path>
<path d="M2070 40h0"></path>
<path d="M362.5 40h20"></path>
<g>
<path d="M382.5 40h0"></path>
<path d="M642.5 40h1407.5"></path>
<g>
<path d="M382.5 40h0"></path>
<path d="M510.5 40h0"></path>
<path d="M382.5 40a10 10 0 0 0 10 -10v0a10 10 0 0 1 10 -10"></path>
<g>
<path d="M402.5 20h88"></path>
</g>
<path d="M490.5 20a10 10 0 0 1 10 10v0a10 10 0 0 0 10 10"></path>
<path d="M382.5 40h20"></path>
<g class="non-terminal">
<path d="M402.5 40h0"></path>
<path d="M490.5 40h0"></path>
<rect x="402.5" y="29" width="88" height="22"></rect>
<a xlink:href="#/expression/Abstract"><text x="446.5" y="44">Abstract</text>
</a>
</g>
<path d="M490.5 40h20"></path>
</g>
<path d="M510.5 40h10"></path>
<g class="non-terminal">
<path d="M520.5 40h0"></path>
<path d="M642.5 40h0"></path>
<rect x="520.5" y="29" width="122" height="22"></rect>
<a xlink:href="#/expression/EventHandler"><text x="581.5" y="44">EventHandler</text>
</a>
</g>
</g>
<path d="M2050 40h20"></path>
<path d="M362.5 40a10 10 0 0 1 10 10v19a10 10 0 0 0 10 10"></path>
<g>
<path d="M382.5 79h0"></path>
<path d="M2050 79h0"></path>
<g>
<path d="M382.5 79h0"></path>
<path d="M783 79h0"></path>
<path d="M382.5 79a10 10 0 0 0 10 -10v0a10 10 0 0 1 10 -10"></path>
<g>
<path d="M402.5 59h360.5"></path>
</g>
<path d="M763 59a10 10 0 0 1 10 10v0a10 10 0 0 0 10 10"></path>
<path d="M382.5 79h20"></path>
<g>
<path d="M402.5 79h0"></path>
<path d="M763 79h0"></path>
<path d="M402.5 79h20"></path>
<g class="terminal">
<path d="M422.5 79h0"></path>
<path d="M502 79h241"></path>
<rect x="422.5" y="68" width="79.5" height="22" rx="10" ry="10"></rect>
<text x="462.25" y="83">"FINAL"</text>
</g>
<path d="M743 79h20"></path>
<path d="M402.5 79a10 10 0 0 1 10 10v10a10 10 0 0 0 10 10"></path>
<g>
<path d="M422.5 109h0"></path>
<path d="M743 109h0"></path>
<g>
<path d="M422.5 109h0"></path>
<path d="M488.5 109h0"></path>
<text x="455.5" y="114" class="comment">v740sp08</text>
</g>
<path d="M488.5 109h10"></path>
<path d="M498.5 109h10"></path>
<g>
<path d="M508.5 109h0"></path>
<path d="M743 109h0"></path>
<g class="terminal">
<path d="M508.5 109h0"></path>
<path d="M605 109h0"></path>
<rect x="508.5" y="98" width="96.5" height="22" rx="10" ry="10"></rect>
<text x="556.75" y="113">"DEFAULT"</text>
</g>
<path d="M605 109h10"></path>
<g>
<path d="M615 109h0"></path>
<path d="M743 109h0"></path>
<path d="M615 109h20"></path>
<g class="terminal">
<path d="M635 109h0"></path>
<path d="M706 109h17"></path>
<rect x="635" y="98" width="71" height="22" rx="10" ry="10"></rect>
<text x="670.5" y="113">"FAIL"</text>
</g>
<path d="M723 109h20"></path>
<path d="M615 109a10 10 0 0 1 10 10v10a10 10 0 0 0 10 10"></path>
<g class="terminal">
<path d="M635 139h0"></path>
<path d="M723 139h0"></path>
<rect x="635" y="128" width="88" height="22" rx="10" ry="10"></rect>
<text x="679" y="143">"IGNORE"</text>
</g>
<path d="M723 139a10 10 0 0 0 10 -10v-10a10 10 0 0 1 10 -10"></path>
</g>
</g>
</g>
<path d="M743 109a10 10 0 0 0 10 -10v-10a10 10 0 0 1 10 -10"></path>
<path d="M402.5 79a10 10 0 0 1 10 10v70a10 10 0 0 0 10 10"></path>
<g class="non-terminal">
<path d="M422.5 169h0"></path>
<path d="M510.5 169h232.5"></path>
<rect x="422.5" y="158" width="88" height="22"></rect>
<a xlink:href="#/expression/Abstract"><text x="466.5" y="173">Abstract</text>
</a>
</g>
<path d="M743 169a10 10 0 0 0 10 -10v-70a10 10 0 0 1 10 -10"></path>
</g>
<path d="M763 79h20"></path>
</g>
<g>
<path d="M783 79h0"></path>
<path d="M996 79h0"></path>
<path d="M783 79a10 10 0 0 0 10 -10v0a10 10 0 0 1 10 -10"></path>
<g>
<path d="M803 59h173"></path>
</g>
<path d="M976 59a10 10 0 0 1 10 10v0a10 10 0 0 0 10 10"></path>
<path d="M783 79h20"></path>
<g class="non-terminal">
<path d="M803 79h0"></path>
<path d="M976 79h0"></path>
<rect x="803" y="68" width="173" height="22"></rect>
<a xlink:href="#/expression/MethodDefImporting"><text x="889.5" y="83">MethodDefImporting</text>
</a>
</g>
<path d="M976 79h20"></path>
</g>
<g>
<path d="M996 79h0"></path>
<path d="M1209 79h0"></path>
<path d="M996 79a10 10 0 0 0 10 -10v0a10 10 0 0 1 10 -10"></path>
<g>
<path d="M1016 59h173"></path>
</g>
<path d="M1189 59a10 10 0 0 1 10 10v0a10 10 0 0 0 10 10"></path>
<path d="M996 79h20"></path>
<g class="non-terminal">
<path d="M1016 79h0"></path>
<path d="M1189 79h0"></path>
<rect x="1016" y="68" width="173" height="22"></rect>
<a xlink:href="#/expression/MethodDefExporting"><text x="1102.5" y="83">MethodDefExporting</text>
</a>
</g>
<path d="M1189 79h20"></path>
</g>
<g>
<path d="M1209 79h0"></path>
<path d="M1413.5 79h0"></path>
<path d="M1209 79a10 10 0 0 0 10 -10v0a10 10 0 0 1 10 -10"></path>
<g>
<path d="M1229 59h164.5"></path>
</g>
<path d="M1393.5 59a10 10 0 0 1 10 10v0a10 10 0 0 0 10 10"></path>
<path d="M1209 79h20"></path>
<g class="non-terminal">
<path d="M1229 79h0"></path>
<path d="M1393.5 79h0"></path>
<rect x="1229" y="68" width="164.5" height="22"></rect>
<a xlink:href="#/expression/MethodDefChanging"><text x="1311.25" y="83">MethodDefChanging</text>
</a>
</g>
<path d="M1393.5 79h20"></path>
</g>
<g>
<path d="M1413.5 79h0"></path>
<path d="M1626.5 79h0"></path>
<path d="M1413.5 79a10 10 0 0 0 10 -10v0a10 10 0 0 1 10 -10"></path>
<g>
<path d="M1433.5 59h173"></path>
</g>
<path d="M1606.5 59a10 10 0 0 1 10 10v0a10 10 0 0 0 10 10"></path>
<path d="M1413.5 79h20"></path>
<g class="non-terminal">
<path d="M1433.5 79h0"></path>
<path d="M1606.5 79h0"></path>
<rect x="1433.5" y="68" width="173" height="22"></rect>
<a xlink:href="#/expression/MethodDefReturning"><text x="1520" y="83">MethodDefReturning</text>
</a>
</g>
<path d="M1606.5 79h20"></path>
</g>
<g>
<path d="M1626.5 79h0"></path>
<path d="M2050 79h0"></path>
<path d="M1626.5 79a10 10 0 0 0 10 -10v0a10 10 0 0 1 10 -10"></path>
<g>
<path d="M1646.5 59h383.5"></path>
</g>
<path d="M2030 59a10 10 0 0 1 10 10v0a10 10 0 0 0 10 10"></path>
<path d="M1626.5 79h20"></path>
<g>
<path d="M1646.5 79h0"></path>
<path d="M2030 79h0"></path>
<path d="M1646.5 79h20"></path>
<g class="non-terminal">
<path d="M1666.5 79h0"></path>
<path d="M1822.5 79h187.5"></path>
<rect x="1666.5" y="68" width="156" height="22"></rect>
<a xlink:href="#/expression/MethodDefRaising"><text x="1744.5" y="83">MethodDefRaising</text>
</a>
</g>
<path d="M2010 79h20"></path>
<path d="M1646.5 79a10 10 0 0 1 10 10v10a10 10 0 0 0 10 10"></path>
<g>
<path d="M1666.5 109h0"></path>
<path d="M2010 109h0"></path>
<g class="terminal">
<path d="M1666.5 109h0"></path>
<path d="M1788.5 109h0"></path>
<rect x="1666.5" y="98" width="122" height="22" rx="10" ry="10"></rect>
<text x="1727.5" y="113">"EXCEPTIONS"</text>
</g>
<path d="M1788.5 109h10"></path>
<path d="M1798.5 109h10"></path>
<g>
<path d="M1808.5 109h0"></path>
<path d="M2010 109h0"></path>
<path d="M1808.5 109h10"></path>
<g class="non-terminal">
<path d="M1818.5 109h0"></path>
<path d="M2000 109h0"></path>
<rect x="1818.5" y="98" width="181.5" height="22"></rect>
<a xlink:href="#/expression/NamespaceSimpleName"><text x="1909.25" y="113">NamespaceSimpleName</text>
</a>
</g>
<path d="M2000 109h10"></path>
<path d="M1818.5 109a10 10 0 0 0 -10 10v0a10 10 0 0 0 10 10"></path>
<g>
<path d="M1818.5 129h181.5"></path>
</g>
<path d="M2000 129a10 10 0 0 0 10 -10v0a10 10 0 0 0 -10 -10"></path>
</g>
</g>
<path d="M2010 109a10 10 0 0 0 10 -10v-10a10 10 0 0 1 10 -10"></path>
</g>
<path d="M2030 79h20"></path>
</g>
</g>
<path d="M2050 79a10 10 0 0 0 10 -10v-19a10 10 0 0 1 10 -10"></path>
<path d="M362.5 40a10 10 0 0 1 10 10v148a10 10 0 0 0 10 10"></path>
<g>
<path d="M382.5 208h0"></path>
<path d="M1084.5 208h965.5"></path>
<g>
<path d="M382.5 208h0"></path>
<path d="M510.5 208h0"></path>
<path d="M382.5 208a10 10 0 0 0 10 -10v0a10 10 0 0 1 10 -10"></path>
<g>
<path d="M402.5 188h88"></path>
</g>
<path d="M490.5 188a10 10 0 0 1 10 10v0a10 10 0 0 0 10 10"></path>
<path d="M382.5 208h20"></path>
<g class="non-terminal">
<path d="M402.5 208h0"></path>
<path d="M490.5 208h0"></path>
<rect x="402.5" y="197" width="88" height="22"></rect>
<a xlink:href="#/expression/Abstract"><text x="446.5" y="212">Abstract</text>
</a>
</g>
<path d="M490.5 208h20"></path>
</g>
<path d="M510.5 208h10"></path>
<g class="terminal">
<path d="M520.5 208h0"></path>
<path d="M651 208h0"></path>
<rect x="520.5" y="197" width="130.5" height="22" rx="10" ry="10"></rect>
<text x="585.75" y="212">"FOR TESTING"</text>
</g>
<path d="M651 208h10"></path>
<g>
<path d="M661 208h0"></path>
<path d="M1084.5 208h0"></path>
<path d="M661 208a10 10 0 0 0 10 -10v0a10 10 0 0 1 10 -10"></path>
<g>
<path d="M681 188h383.5"></path>
</g>
<path d="M1064.5 188a10 10 0 0 1 10 10v0a10 10 0 0 0 10 10"></path>
<path d="M661 208h20"></path>
<g>
<path d="M681 208h0"></path>
<path d="M1064.5 208h0"></path>
<path d="M681 208h20"></path>
<g class="non-terminal">
<path d="M701 208h0"></path>
<path d="M857 208h187.5"></path>
<rect x="701" y="197" width="156" height="22"></rect>
<a xlink:href="#/expression/MethodDefRaising"><text x="779" y="212">MethodDefRaising</text>
</a>
</g>
<path d="M1044.5 208h20"></path>
<path d="M681 208a10 10 0 0 1 10 10v10a10 10 0 0 0 10 10"></path>
<g>
<path d="M701 238h0"></path>
<path d="M1044.5 238h0"></path>
<g class="terminal">
<path d="M701 238h0"></path>
<path d="M823 238h0"></path>
<rect x="701" y="227" width="122" height="22" rx="10" ry="10"></rect>
<text x="762" y="242">"EXCEPTIONS"</text>
</g>
<path d="M823 238h10"></path>
<path d="M833 238h10"></path>
<g>
<path d="M843 238h0"></path>
<path d="M1044.5 238h0"></path>
<path d="M843 238h10"></path>
<g class="non-terminal">
<path d="M853 238h0"></path>
<path d="M1034.5 238h0"></path>
<rect x="853" y="227" width="181.5" height="22"></rect>
<a xlink:href="#/expression/NamespaceSimpleName"><text x="943.75" y="242">NamespaceSimpleName</text>
</a>
</g>
<path d="M1034.5 238h10"></path>
<path d="M853 238a10 10 0 0 0 -10 10v0a10 10 0 0 0 10 10"></path>
<g>
<path d="M853 258h181.5"></path>
</g>
<path d="M1034.5 258a10 10 0 0 0 10 -10v0a10 10 0 0 0 -10 -10"></path>
</g>
</g>
<path d="M1044.5 238a10 10 0 0 0 10 -10v-10a10 10 0 0 1 10 -10"></path>
</g>
<path d="M1064.5 208h20"></path>
</g>
</g>
<path d="M2050 208a10 10 0 0 0 10 -10v-148a10 10 0 0 1 10 -10"></path>
<path d="M362.5 40a10 10 0 0 1 10 10v217a10 10 0 0 0 10 10"></path>
<g>
<path d="M382.5 277h0"></path>
<path d="M663.5 277h1386.5"></path>
<g class="terminal">
<path d="M382.5 277h0"></path>
<path d="M572.5 277h0"></path>
<rect x="382.5" y="266" width="190" height="22" rx="10" ry="10"></rect>
<text x="477.5" y="281">"FOR TABLE FUNCTION"</text>
</g>
<path d="M572.5 277h10"></path>
<path d="M582.5 277h10"></path>
<g class="terminal">
<path d="M592.5 277h0"></path>
<path d="M663.5 277h0"></path>
<rect x="592.5" y="266" width="71" height="22" rx="10" ry="10"></rect>
<text x="628" y="281">^\w+?$</text>
</g>
</g>
<path d="M2050 277a10 10 0 0 0 10 -10v-217a10 10 0 0 1 10 -10"></path>
<path d="M362.5 40a10 10 0 0 1 10 10v247a10 10 0 0 0 10 10"></path>
<g class="terminal">
<path d="M382.5 307h0"></path>
<path d="M844.5 307h1205.5"></path>
<rect x="382.5" y="296" width="462" height="22" rx="10" ry="10"></rect>
<text x="613.5" y="311">"FOR DDL OBJECT OPTIONS CDS SESSION CLIENT REQUIRED"</text>
</g>
<path d="M2050 307a10 10 0 0 0 10 -10v-247a10 10 0 0 1 10 -10"></path>
<path d="M362.5 40a10 10 0 0 1 10 10v277a10 10 0 0 0 10 10"></path>
<g class="terminal">
<path d="M382.5 337h0"></path>
<path d="M751 337h1299"></path>
<rect x="382.5" y="326" width="368.5" height="22" rx="10" ry="10"></rect>
<text x="566.75" y="341">"AMDP OPTIONS CDS SESSION CLIENT current"</text>
</g>
<path d="M2050 337a10 10 0 0 0 10 -10v-277a10 10 0 0 1 10 -10"></path>
<path d="M362.5 40a10 10 0 0 1 10 10v307a10 10 0 0 0 10 10"></path>
<g class="terminal">
<path d="M382.5 367h0"></path>
<path d="M572.5 367h1477.5"></path>
<rect x="382.5" y="356" width="190" height="22" rx="10" ry="10"></rect>
<text x="477.5" y="371">"NOT AT END OF MODE"</text>
</g>
<path d="M2050 367a10 10 0 0 0 10 -10v-307a10 10 0 0 1 10 -10"></path>
<path d="M362.5 40a10 10 0 0 1 10 10v346a10 10 0 0 0 10 10"></path>
<g>
<path d="M382.5 406h0"></path>
<path d="M544.5 406h1505.5"></path>
<path d="M382.5 406a10 10 0 0 0 10 -10v0a10 10 0 0 1 10 -10"></path>
<g>
<path d="M402.5 386h122"></path>
</g>
<path d="M524.5 386a10 10 0 0 1 10 10v0a10 10 0 0 0 10 10"></path>
<path d="M382.5 406h20"></path>
<g class="non-terminal">
<path d="M402.5 406h0"></path>
<path d="M524.5 406h0"></path>
<rect x="402.5" y="395" width="122" height="22"></rect>
<a xlink:href="#/expression/Redefinition"><text x="463.5" y="410">Redefinition</text>
</a>
</g>
<path d="M524.5 406h20"></path>
</g>
<path d="M2050 406a10 10 0 0 0 10 -10v-346a10 10 0 0 1 10 -10"></path>
</g>
</g>
<path d="M2070 40h10"></path>
<path d="M 2080 40 h 20 m -10 -10 v 20 m 10 -20 v 20"></path>
</g>
</svg>
