<svg xmlns="http://www.w3.org/2000/svg" xmlns:xlink="http://www.w3.org/1999/xlink" class="railroad-diagram" width="1456" height="62" viewBox="0 0 1456 62">
<defs>
<style type="text/css"><![CDATA[
path {
stroke-width: 3;
stroke: black;
fill: rgba(0,0,0,0);
}
text {
font: bold 14px monospace;
text-anchor: middle;
}
text.diagram-text {
font-size: 12px;
}
a {
fill: blue;
}
text.diagram-arrow {
font-size: 16px;
}
text.label {
text-anchor: start;
}
text.comment {
font: italic 12px monospace;
}
rect {
stroke-width: 3;
stroke: black;
fill: #BCBCBC;
}
path.diagram-text {
stroke-width: 3;
stroke: black;
fill: #BCBCBC;
cursor: help;
}
]]></style>
</defs>
<g transform="translate(.5 .5)">
<g>
<path d="M20 21v20m10 -20v20m-10 -10h20"></path>
</g>
<path d="M40 31h10"></path>
<g>
<path d="M50 31h0"></path>
<path d="M1406 31h0"></path>
<g>
<path d="M50 31h0"></path>
<path d="M88 31h0"></path>
<text x="69" y="36" class="comment">v754</text>
</g>
<path d="M88 31h10"></path>
<path d="M98 31h10"></path>
<g>
<path d="M108 31h0"></path>
<path d="M1406 31h0"></path>
<g class="terminal">
<path d="M108 31h0"></path>
<path d="M298 31h0"></path>
<rect x="108" y="20" width="190" height="22" rx="10" ry="10"></rect>
<text x="203" y="35">"MODIFY ENTITIES OF"</text>
</g>
<path d="M298 31h10"></path>
<path d="M308 31h10"></path>
<g class="non-terminal">
<path d="M318 31h0"></path>
<path d="M423 31h0"></path>
<rect x="318" y="20" width="105" height="22"></rect>
<a xlink:href="#/expression/SimpleName"><text x="370.5" y="35">SimpleName</text>
</a>
</g>
<path d="M423 31h10"></path>
<path d="M433 31h10"></path>
<g class="terminal">
<path d="M443 31h0"></path>
<path d="M531 31h0"></path>
<rect x="443" y="20" width="88" height="22" rx="10" ry="10"></rect>
<text x="487" y="35">"ENTITY"</text>
</g>
<path d="M531 31h10"></path>
<path d="M541 31h10"></path>
<g class="non-terminal">
<path d="M551 31h0"></path>
<path d="M656 31h0"></path>
<rect x="551" y="20" width="105" height="22"></rect>
<a xlink:href="#/expression/SimpleName"><text x="603.5" y="35">SimpleName</text>
</a>
</g>
<path d="M656 31h10"></path>
<path d="M666 31h10"></path>
<g class="terminal">
<path d="M676 31h0"></path>
<path d="M900 31h0"></path>
<rect x="676" y="20" width="224" height="22" rx="10" ry="10"></rect>
<text x="788" y="35">"UPDATE SET FIELDS WITH"</text>
</g>
<path d="M900 31h10"></path>
<path d="M910 31h10"></path>
<g class="non-terminal">
<path d="M920 31h0"></path>
<path d="M991 31h0"></path>
<rect x="920" y="20" width="71" height="22"></rect>
<a xlink:href="#/expression/Source"><text x="955.5" y="35">Source</text>
</a>
</g>
<path d="M991 31h10"></path>
<path d="M1001 31h10"></path>
<g class="terminal">
<path d="M1011 31h0"></path>
<path d="M1099 31h0"></path>
<rect x="1011" y="20" width="88" height="22" rx="10" ry="10"></rect>
<text x="1055" y="35">"FAILED"</text>
</g>
<path d="M1099 31h10"></path>
<path d="M1109 31h10"></path>
<g class="non-terminal">
<path d="M1119 31h0"></path>
<path d="M1190 31h0"></path>
<rect x="1119" y="20" width="71" height="22"></rect>
<a xlink:href="#/expression/Target"><text x="1154.5" y="35">Target</text>
</a>
</g>
<path d="M1190 31h10"></path>
<path d="M1200 31h10"></path>
<g class="terminal">
<path d="M1210 31h0"></path>
<path d="M1315 31h0"></path>
<rect x="1210" y="20" width="105" height="22" rx="10" ry="10"></rect>
<text x="1262.5" y="35">"REPORTED"</text>
</g>
<path d="M1315 31h10"></path>
<path d="M1325 31h10"></path>
<g class="non-terminal">
<path d="M1335 31h0"></path>
<path d="M1406 31h0"></path>
<rect x="1335" y="20" width="71" height="22"></rect>
<a xlink:href="#/expression/Target"><text x="1370.5" y="35">Target</text>
</a>
</g>
</g>
</g>
<path d="M1406 31h10"></path>
<path d="M 1416 31 h 20 m -10 -10 v 20 m 10 -20 v 20"></path>
</g>
</svg>
