<svg xmlns="http://www.w3.org/2000/svg" xmlns:xlink="http://www.w3.org/1999/xlink" class="railroad-diagram" width="1865.5" height="355" viewBox="0 0 1865.5 355">
<defs>
<style type="text/css"><![CDATA[
path {
stroke-width: 3;
stroke: black;
fill: rgba(0,0,0,0);
}
text {
font: bold 14px monospace;
text-anchor: middle;
}
text.diagram-text {
font-size: 12px;
}
a {
fill: blue;
}
text.diagram-arrow {
font-size: 16px;
}
text.label {
text-anchor: start;
}
text.comment {
font: italic 12px monospace;
}
rect {
stroke-width: 3;
stroke: black;
fill: #BCBCBC;
}
path.diagram-text {
stroke-width: 3;
stroke: black;
fill: #BCBCBC;
cursor: help;
}
]]></style>
</defs>
<g transform="translate(.5 .5)">
<g>
<path d="M20 30v20m10 -20v20m-10 -10h20"></path>
</g>
<path d="M40 40h10"></path>
<g>
<path d="M50 40h0"></path>
<path d="M1815.5 40h0"></path>
<g class="terminal">
<path d="M50 40h0"></path>
<path d="M138 40h0"></path>
<rect x="50" y="29" width="88" height="22" rx="10" ry="10"></rect>
<text x="94" y="44">"DELETE"</text>
</g>
<path d="M138 40h10"></path>
<g>
<path d="M148 40h0"></path>
<path d="M1815.5 40h0"></path>
<path d="M148 40h20"></path>
<g>
<path d="M168 40h0"></path>
<path d="M1387.5 40h408"></path>
<g>
<path d="M168 40h0"></path>
<path d="M287.5 40h0"></path>
<path d="M168 40a10 10 0 0 0 10 -10v0a10 10 0 0 1 10 -10"></path>
<g>
<path d="M188 20h79.5"></path>
</g>
<path d="M267.5 20a10 10 0 0 1 10 10v0a10 10 0 0 0 10 10"></path>
<path d="M168 40h20"></path>
<g class="terminal">
<path d="M188 40h0"></path>
<path d="M267.5 40h0"></path>
<rect x="188" y="29" width="79.5" height="22" rx="10" ry="10"></rect>
<text x="227.75" y="44">"TABLE"</text>
</g>
<path d="M267.5 40h20"></path>
</g>
<path d="M287.5 40h10"></path>
<g class="non-terminal">
<path d="M297.5 40h0"></path>
<path d="M368.5 40h0"></path>
<rect x="297.5" y="29" width="71" height="22"></rect>
<a xlink:href="#/expression/Target"><text x="333" y="44">Target</text>
</a>
</g>
<path d="M368.5 40h10"></path>
<g>
<path d="M378.5 40h0"></path>
<path d="M1087.5 40h0"></path>
<path d="M378.5 40h20"></path>
<g>
<path d="M398.5 40h0"></path>
<path d="M737 40h330.5"></path>
<path d="M428.5 40h10"></path>
<g>
<path d="M438.5 40h0"></path>
<path d="M609 40h98"></path>
<g class="terminal">
<path d="M438.5 40h0"></path>
<path d="M518 40h0"></path>
<rect x="438.5" y="29" width="79.5" height="22" rx="10" ry="10"></rect>
<text x="478.25" y="44">"INDEX"</text>
</g>
<path d="M518 40h10"></path>
<path d="M528 40h10"></path>
<g class="non-terminal">
<path d="M538 40h0"></path>
<path d="M609 40h0"></path>
<rect x="538" y="29" width="71" height="22"></rect>
<a xlink:href="#/expression/Source"><text x="573.5" y="44">Source</text>
</a>
</g>
</g>
<path d="M707 40h10"></path>
<path d="M428.5 40v20a10 10 0 0 0 10 10"></path>
<g>
<path d="M438.5 70h0"></path>
<path d="M707 70h0"></path>
<g class="terminal">
<path d="M438.5 70h0"></path>
<path d="M552 70h0"></path>
<rect x="438.5" y="59" width="113.5" height="22" rx="10" ry="10"></rect>
<text x="495.25" y="74">"USING KEY"</text>
</g>
<path d="M552 70h10"></path>
<g>
<path d="M562 70h0"></path>
<path d="M707 70h0"></path>
<path d="M562 70h20"></path>
<g class="non-terminal">
<path d="M582 70h0"></path>
<path d="M687 70h0"></path>
<rect x="582" y="59" width="105" height="22"></rect>
<a xlink:href="#/expression/SimpleName"><text x="634.5" y="74">SimpleName</text>
</a>
</g>
<path d="M687 70h20"></path>
<path d="M562 70a10 10 0 0 1 10 10v10a10 10 0 0 0 10 10"></path>
<g class="non-terminal">
<path d="M582 100h0"></path>
<path d="M661.5 100h25.5"></path>
<rect x="582" y="89" width="79.5" height="22"></rect>
<a xlink:href="#/expression/Dynamic"><text x="621.75" y="104">Dynamic</text>
</a>
</g>
<path d="M687 100a10 10 0 0 0 10 -10v-10a10 10 0 0 1 10 -10"></path>
</g>
</g>
<path d="M707 70a10 10 0 0 0 10 -10v-20"></path>
<g class="diagram-text">
<title>take one or more branches, once each, in any order</title>
<path d="M 428.5 30 h -26 a 4 4 0 0 0 -4 4 v 12 a 4 4 0 0 0 4 4 h 26 z" class="diagram-text"></path>
<text x="413.5" y="44" class="diagram-text">1+</text>
<path d="M 717 30 h 16 a 4 4 0 0 1 4 4 v 12 a 4 4 0 0 1 -4 4 h -16 z" class="diagram-text"></path>
<path d="M 724 38 a 4 4 0 1 0 6 -1 m 2.75 -1 h -4 v 4 m 0 -3 h 2" style="stroke-width: 1.75"></path>
</g>
</g>
<path d="M1067.5 40h20"></path>
<path d="M378.5 40a10 10 0 0 1 10 10v79a10 10 0 0 0 10 10"></path>
<g>
<path d="M398.5 139h0"></path>
<path d="M785.5 139h282"></path>
<g>
<path d="M398.5 139h0"></path>
<path d="M600.5 139h0"></path>
<path d="M398.5 139a10 10 0 0 0 10 -10v0a10 10 0 0 1 10 -10"></path>
<g>
<path d="M418.5 119h162"></path>
</g>
<path d="M580.5 119a10 10 0 0 1 10 10v0a10 10 0 0 0 10 10"></path>
<path d="M398.5 139h20"></path>
<g>
<path d="M418.5 139h0"></path>
<path d="M580.5 139h0"></path>
<g class="terminal">
<path d="M418.5 139h0"></path>
<path d="M489.5 139h0"></path>
<rect x="418.5" y="128" width="71" height="22" rx="10" ry="10"></rect>
<text x="454" y="143">"FROM"</text>
</g>
<path d="M489.5 139h10"></path>
<path d="M499.5 139h10"></path>
<g class="non-terminal">
<path d="M509.5 139h0"></path>
<path d="M580.5 139h0"></path>
<rect x="509.5" y="128" width="71" height="22"></rect>
<a xlink:href="#/expression/Source"><text x="545" y="143">Source</text>
</a>
</g>
</g>
<path d="M580.5 139h20"></path>
</g>
<g>
<path d="M600.5 139h0"></path>
<path d="M785.5 139h0"></path>
<path d="M600.5 139a10 10 0 0 0 10 -10v0a10 10 0 0 1 10 -10"></path>
<g>
<path d="M620.5 119h145"></path>
</g>
<path d="M765.5 119a10 10 0 0 1 10 10v0a10 10 0 0 0 10 10"></path>
<path d="M600.5 139h20"></path>
<g>
<path d="M620.5 139h0"></path>
<path d="M765.5 139h0"></path>
<g class="terminal">
<path d="M620.5 139h0"></path>
<path d="M674.5 139h0"></path>
<rect x="620.5" y="128" width="54" height="22" rx="10" ry="10"></rect>
<text x="647.5" y="143">"TO"</text>
</g>
<path d="M674.5 139h10"></path>
<path d="M684.5 139h10"></path>
<g class="non-terminal">
<path d="M694.5 139h0"></path>
<path d="M765.5 139h0"></path>
<rect x="694.5" y="128" width="71" height="22"></rect>
<a xlink:href="#/expression/Source"><text x="730" y="143">Source</text>
</a>
</g>
</g>
<path d="M765.5 139h20"></path>
</g>
</g>
<path d="M1067.5 139a10 10 0 0 0 10 -10v-79a10 10 0 0 1 10 -10"></path>
<path d="M378.5 40a10 10 0 0 1 10 10v118a10 10 0 0 0 10 10"></path>
<g>
<path d="M398.5 178h0"></path>
<path d="M1067.5 178h0"></path>
<g class="terminal">
<path d="M398.5 178h0"></path>
<path d="M554.5 178h0"></path>
<rect x="398.5" y="167" width="156" height="22" rx="10" ry="10"></rect>
<text x="476.5" y="182">"WITH TABLE KEY"</text>
</g>
<path d="M554.5 178h10"></path>
<g>
<path d="M564.5 178h0"></path>
<path d="M881.5 178h0"></path>
<path d="M564.5 178a10 10 0 0 0 10 -10v0a10 10 0 0 1 10 -10"></path>
<g>
<path d="M584.5 158h277"></path>
</g>
<path d="M861.5 158a10 10 0 0 1 10 10v0a10 10 0 0 0 10 10"></path>
<path d="M564.5 178h20"></path>
<g>
<path d="M584.5 178h0"></path>
<path d="M861.5 178h0"></path>
<g>
<path d="M584.5 178h0"></path>
<path d="M729.5 178h0"></path>
<path d="M584.5 178h20"></path>
<g class="non-terminal">
<path d="M604.5 178h0"></path>
<path d="M709.5 178h0"></path>
<rect x="604.5" y="167" width="105" height="22"></rect>
<a xlink:href="#/expression/SimpleName"><text x="657" y="182">SimpleName</text>
</a>
</g>
<path d="M709.5 178h20"></path>
<path d="M584.5 178a10 10 0 0 1 10 10v10a10 10 0 0 0 10 10"></path>
<g class="non-terminal">
<path d="M604.5 208h0"></path>
<path d="M684 208h25.5"></path>
<rect x="604.5" y="197" width="79.5" height="22"></rect>
<a xlink:href="#/expression/Dynamic"><text x="644.25" y="212">Dynamic</text>
</a>
</g>
<path d="M709.5 208a10 10 0 0 0 10 -10v-10a10 10 0 0 1 10 -10"></path>
</g>
<path d="M729.5 178h10"></path>
<g class="terminal">
<path d="M739.5 178h0"></path>
<path d="M861.5 178h0"></path>
<rect x="739.5" y="167" width="122" height="22" rx="10" ry="10"></rect>
<text x="800.5" y="182">"COMPONENTS"</text>
</g>
</g>
<path d="M861.5 178h20"></path>
</g>
<path d="M881.5 178h10"></path>
<g>
<path d="M891.5 178h0"></path>
<path d="M1067.5 178h0"></path>
<path d="M891.5 178h10"></path>
<g class="non-terminal">
<path d="M901.5 178h0"></path>
<path d="M1057.5 178h0"></path>
<rect x="901.5" y="167" width="156" height="22"></rect>
<a xlink:href="#/expression/ComponentCompare"><text x="979.5" y="182">ComponentCompare</text>
</a>
</g>
<path d="M1057.5 178h10"></path>
<path d="M901.5 178a10 10 0 0 0 -10 10v0a10 10 0 0 0 10 10"></path>
<g>
<path d="M901.5 198h156"></path>
</g>
<path d="M1057.5 198a10 10 0 0 0 10 -10v0a10 10 0 0 0 -10 -10"></path>
</g>
</g>
<path d="M1067.5 178a10 10 0 0 0 10 -10v-118a10 10 0 0 1 10 -10"></path>
</g>
<g>
<path d="M1087.5 40h0"></path>
<path d="M1387.5 40h0"></path>
<path d="M1087.5 40a10 10 0 0 0 10 -10v0a10 10 0 0 1 10 -10"></path>
<g>
<path d="M1107.5 20h260"></path>
</g>
<path d="M1367.5 20a10 10 0 0 1 10 10v0a10 10 0 0 0 10 10"></path>
<path d="M1087.5 40h20"></path>
<g>
<path d="M1107.5 40h0"></path>
<path d="M1367.5 40h0"></path>
<g class="terminal">
<path d="M1107.5 40h0"></path>
<path d="M1187 40h0"></path>
<rect x="1107.5" y="29" width="79.5" height="22" rx="10" ry="10"></rect>
<text x="1147.25" y="44">"WHERE"</text>
</g>
<path d="M1187 40h10"></path>
<g>
<path d="M1197 40h0"></path>
<path d="M1367.5 40h0"></path>
<path d="M1197 40h20"></path>
<g class="non-terminal">
<path d="M1217 40h0"></path>
<path d="M1347.5 40h0"></path>
<rect x="1217" y="29" width="130.5" height="22"></rect>
<a xlink:href="#/expression/ComponentCond"><text x="1282.25" y="44">ComponentCond</text>
</a>
</g>
<path d="M1347.5 40h20"></path>
<path d="M1197 40a10 10 0 0 1 10 10v10a10 10 0 0 0 10 10"></path>
<g class="non-terminal">
<path d="M1217 70h0"></path>
<path d="M1296.5 70h51"></path>
<rect x="1217" y="59" width="79.5" height="22"></rect>
<a xlink:href="#/expression/Dynamic"><text x="1256.75" y="74">Dynamic</text>
</a>
</g>
<path d="M1347.5 70a10 10 0 0 0 10 -10v-10a10 10 0 0 1 10 -10"></path>
</g>
</g>
<path d="M1367.5 40h20"></path>
</g>
</g>
<path d="M1795.5 40h20"></path>
<path d="M148 40a10 10 0 0 1 10 10v187a10 10 0 0 0 10 10"></path>
<g>
<path d="M168 247h0"></path>
<path d="M1795.5 247h0"></path>
<g class="terminal">
<path d="M168 247h0"></path>
<path d="M409 247h0"></path>
<rect x="168" y="236" width="241" height="22" rx="10" ry="10"></rect>
<text x="288.5" y="251">"ADJACENT DUPLICATES FROM"</text>
</g>
<path d="M409 247h10"></path>
<path d="M419 247h10"></path>
<g class="non-terminal">
<path d="M429 247h0"></path>
<path d="M500 247h0"></path>
<rect x="429" y="236" width="71" height="22"></rect>
<a xlink:href="#/expression/Target"><text x="464.5" y="251">Target</text>
</a>
</g>
<path d="M500 247h10"></path>
<g>
<path d="M510 247h0"></path>
<path d="M818.5 247h0"></path>
<path d="M510 247a10 10 0 0 0 10 -10v0a10 10 0 0 1 10 -10"></path>
<g>
<path d="M530 227h268.5"></path>
</g>
<path d="M798.5 227a10 10 0 0 1 10 10v0a10 10 0 0 0 10 10"></path>
<path d="M510 247h20"></path>
<g>
<path d="M530 247h0"></path>
<path d="M798.5 247h0"></path>
<g class="terminal">
<path d="M530 247h0"></path>
<path d="M643.5 247h0"></path>
<rect x="530" y="236" width="113.5" height="22" rx="10" ry="10"></rect>
<text x="586.75" y="251">"USING KEY"</text>
</g>
<path d="M643.5 247h10"></path>
<g>
<path d="M653.5 247h0"></path>
<path d="M798.5 247h0"></path>
<path d="M653.5 247h20"></path>
<g class="non-terminal">
<path d="M673.5 247h0"></path>
<path d="M778.5 247h0"></path>
<rect x="673.5" y="236" width="105" height="22"></rect>
<a xlink:href="#/expression/SimpleName"><text x="726" y="251">SimpleName</text>
</a>
</g>
<path d="M778.5 247h20"></path>
<path d="M653.5 247a10 10 0 0 1 10 10v10a10 10 0 0 0 10 10"></path>
<g class="non-terminal">
<path d="M673.5 277h0"></path>
<path d="M753 277h25.5"></path>
<rect x="673.5" y="266" width="79.5" height="22"></rect>
<a xlink:href="#/expression/Dynamic"><text x="713.25" y="281">Dynamic</text>
</a>
</g>
<path d="M778.5 277a10 10 0 0 0 10 -10v-10a10 10 0 0 1 10 -10"></path>
</g>
</g>
<path d="M798.5 247h20"></path>
</g>
<g>
<path d="M818.5 247h0"></path>
<path d="M1487 247h0"></path>
<path d="M818.5 247a10 10 0 0 0 10 -10v0a10 10 0 0 1 10 -10"></path>
<g>
<path d="M838.5 227h628.5"></path>
</g>
<path d="M1467 227a10 10 0 0 1 10 10v0a10 10 0 0 0 10 10"></path>
<path d="M818.5 247h20"></path>
<g>
<path d="M838.5 247h0"></path>
<path d="M1467 247h0"></path>
<g class="terminal">
<path d="M838.5 247h0"></path>
<path d="M952 247h0"></path>
<rect x="838.5" y="236" width="113.5" height="22" rx="10" ry="10"></rect>
<text x="895.25" y="251">"COMPARING"</text>
</g>
<path d="M952 247h10"></path>
<g>
<path d="M962 247h0"></path>
<path d="M1467 247h0"></path>
<path d="M962 247h20"></path>
<g class="terminal">
<path d="M982 247h0"></path>
<path d="M1104 247h343"></path>
<rect x="982" y="236" width="122" height="22" rx="10" ry="10"></rect>
<text x="1043" y="251">"ALL FIELDS"</text>
</g>
<path d="M1447 247h20"></path>
<path d="M962 247a10 10 0 0 1 10 10v19a10 10 0 0 0 10 10"></path>
<g>
<path d="M982 286h0"></path>
<path d="M1447 286h0"></path>
<path d="M982 286h10"></path>
<g>
<path d="M992 286h0"></path>
<path d="M1437 286h0"></path>
<path d="M992 286h20"></path>
<g>
<path d="M1012 286h0"></path>
<path d="M1417 286h0"></path>
<g class="non-terminal">
<path d="M1012 286h0"></path>
<path d="M1100 286h0"></path>
<rect x="1012" y="275" width="88" height="22"></rect>
<a xlink:href="#/expression/FieldSub"><text x="1056" y="290">FieldSub</text>
</a>
</g>
<path d="M1100 286h10"></path>
<g>
<path d="M1110 286h0"></path>
<path d="M1263.5 286h0"></path>
<path d="M1110 286a10 10 0 0 0 10 -10v0a10 10 0 0 1 10 -10"></path>
<g>
<path d="M1130 266h113.5"></path>
</g>
<path d="M1243.5 266a10 10 0 0 1 10 10v0a10 10 0 0 0 10 10"></path>
<path d="M1110 286h20"></path>
<g class="non-terminal">
<path d="M1130 286h0"></path>
<path d="M1243.5 286h0"></path>
<rect x="1130" y="275" width="113.5" height="22"></rect>
<a xlink:href="#/expression/FieldOffset"><text x="1186.75" y="290">FieldOffset</text>
</a>
</g>
<path d="M1243.5 286h20"></path>
</g>
<g>
<path d="M1263.5 286h0"></path>
<path d="M1417 286h0"></path>
<path d="M1263.5 286a10 10 0 0 0 10 -10v0a10 10 0 0 1 10 -10"></path>
<g>
<path d="M1283.5 266h113.5"></path>
</g>
<path d="M1397 266a10 10 0 0 1 10 10v0a10 10 0 0 0 10 10"></path>
<path d="M1263.5 286h20"></path>
<g class="non-terminal">
<path d="M1283.5 286h0"></path>
<path d="M1397 286h0"></path>
<rect x="1283.5" y="275" width="113.5" height="22"></rect>
<a xlink:href="#/expression/FieldLength"><text x="1340.25" y="290">FieldLength</text>
</a>
</g>
<path d="M1397 286h20"></path>
</g>
</g>
<path d="M1417 286h20"></path>
<path d="M992 286a10 10 0 0 1 10 10v10a10 10 0 0 0 10 10"></path>
<g class="non-terminal">
<path d="M1012 316h0"></path>
<path d="M1091.5 316h325.5"></path>
<rect x="1012" y="305" width="79.5" height="22"></rect>
<a xlink:href="#/expression/Dynamic"><text x="1051.75" y="320">Dynamic</text>
</a>
</g>
<path d="M1417 316a10 10 0 0 0 10 -10v-10a10 10 0 0 1 10 -10"></path>
</g>
<path d="M1437 286h10"></path>
<path d="M992 286a10 10 0 0 0 -10 10v29a10 10 0 0 0 10 10"></path>
<g>
<path d="M992 335h445"></path>
</g>
<path d="M1437 335a10 10 0 0 0 10 -10v-29a10 10 0 0 0 -10 -10"></path>
</g>
<path d="M1447 286a10 10 0 0 0 10 -10v-19a10 10 0 0 1 10 -10"></path>
</g>
</g>
<path d="M1467 247h20"></path>
</g>
<g>
<path d="M1487 247h0"></path>
<path d="M1795.5 247h0"></path>
<path d="M1487 247a10 10 0 0 0 10 -10v0a10 10 0 0 1 10 -10"></path>
<g>
<path d="M1507 227h268.5"></path>
</g>
<path d="M1775.5 227a10 10 0 0 1 10 10v0a10 10 0 0 0 10 10"></path>
<path d="M1487 247h20"></path>
<g>
<path d="M1507 247h0"></path>
<path d="M1775.5 247h0"></path>
<g class="terminal">
<path d="M1507 247h0"></path>
<path d="M1620.5 247h0"></path>
<rect x="1507" y="236" width="113.5" height="22" rx="10" ry="10"></rect>
<text x="1563.75" y="251">"USING KEY"</text>
</g>
<path d="M1620.5 247h10"></path>
<g>
<path d="M1630.5 247h0"></path>
<path d="M1775.5 247h0"></path>
<path d="M1630.5 247h20"></path>
<g class="non-terminal">
<path d="M1650.5 247h0"></path>
<path d="M1755.5 247h0"></path>
<rect x="1650.5" y="236" width="105" height="22"></rect>
<a xlink:href="#/expression/SimpleName"><text x="1703" y="251">SimpleName</text>
</a>
</g>
<path d="M1755.5 247h20"></path>
<path d="M1630.5 247a10 10 0 0 1 10 10v10a10 10 0 0 0 10 10"></path>
<g class="non-terminal">
<path d="M1650.5 277h0"></path>
<path d="M1730 277h25.5"></path>
<rect x="1650.5" y="266" width="79.5" height="22"></rect>
<a xlink:href="#/expression/Dynamic"><text x="1690.25" y="281">Dynamic</text>
</a>
</g>
<path d="M1755.5 277a10 10 0 0 0 10 -10v-10a10 10 0 0 1 10 -10"></path>
</g>
</g>
<path d="M1775.5 247h20"></path>
</g>
</g>
<path d="M1795.5 247a10 10 0 0 0 10 -10v-187a10 10 0 0 1 10 -10"></path>
</g>
</g>
<path d="M1815.5 40h10"></path>
<path d="M 1825.5 40 h 20 m -10 -10 v 20 m 10 -20 v 20"></path>
</g>
</svg>
