<svg xmlns="http://www.w3.org/2000/svg" xmlns:xlink="http://www.w3.org/1999/xlink" class="railroad-diagram" width="634" height="71" viewBox="0 0 634 71">
<defs>
<style type="text/css"><![CDATA[
path {
stroke-width: 3;
stroke: black;
fill: rgba(0,0,0,0);
}
text {
font: bold 14px monospace;
text-anchor: middle;
}
text.diagram-text {
font-size: 12px;
}
a {
fill: blue;
}
text.diagram-arrow {
font-size: 16px;
}
text.label {
text-anchor: start;
}
text.comment {
font: italic 12px monospace;
}
rect {
stroke-width: 3;
stroke: black;
fill: #BCBCBC;
}
path.diagram-text {
stroke-width: 3;
stroke: black;
fill: #BCBCBC;
cursor: help;
}
]]></style>
</defs>
<g transform="translate(.5 .5)">
<g>
<path d="M20 30v20m10 -20v20m-10 -10h20"></path>
</g>
<path d="M40 40h10"></path>
<g>
<path d="M50 40h0"></path>
<path d="M584 40h0"></path>
<g>
<path d="M50 40h0"></path>
<path d="M88 40h0"></path>
<text x="69" y="45" class="comment">v750</text>
</g>
<path d="M88 40h10"></path>
<path d="M98 40h10"></path>
<g>
<path d="M108 40h0"></path>
<path d="M584 40h0"></path>
<g class="terminal">
<path d="M108 40h0"></path>
<path d="M221.5 40h0"></path>
<rect x="108" y="29" width="113.5" height="22" rx="10" ry="10"></rect>
<text x="164.75" y="44">"WHEN TYPE"</text>
</g>
<path d="M221.5 40h10"></path>
<path d="M231.5 40h10"></path>
<g>
<path d="M241.5 40h0"></path>
<path d="M584 40h0"></path>
<g class="non-terminal">
<path d="M241.5 40h0"></path>
<path d="M338 40h0"></path>
<rect x="241.5" y="29" width="96.5" height="22"></rect>
<a xlink:href="#/expression/ClassName"><text x="289.75" y="44">ClassName</text>
</a>
</g>
<path d="M338 40h10"></path>
<g>
<path d="M348 40h0"></path>
<path d="M584 40h0"></path>
<path d="M348 40a10 10 0 0 0 10 -10v0a10 10 0 0 1 10 -10"></path>
<g>
<path d="M368 20h196"></path>
</g>
<path d="M564 20a10 10 0 0 1 10 10v0a10 10 0 0 0 10 10"></path>
<path d="M348 40h20"></path>
<g>
<path d="M368 40h0"></path>
<path d="M564 40h0"></path>
<g class="terminal">
<path d="M368 40h0"></path>
<path d="M439 40h0"></path>
<rect x="368" y="29" width="71" height="22" rx="10" ry="10"></rect>
<text x="403.5" y="44">"INTO"</text>
</g>
<path d="M439 40h10"></path>
<path d="M449 40h10"></path>
<g class="non-terminal">
<path d="M459 40h0"></path>
<path d="M564 40h0"></path>
<rect x="459" y="29" width="105" height="22"></rect>
<a xlink:href="#/expression/InlineData"><text x="511.5" y="44">InlineData</text>
</a>
</g>
</g>
<path d="M564 40h20"></path>
</g>
</g>
</g>
</g>
<path d="M584 40h10"></path>
<path d="M 594 40 h 20 m -10 -10 v 20 m 10 -20 v 20"></path>
</g>
</svg>
