<svg xmlns="http://www.w3.org/2000/svg" xmlns:xlink="http://www.w3.org/1999/xlink" class="railroad-diagram" width="1050" height="101" viewBox="0 0 1050 101">
<defs>
<style type="text/css"><![CDATA[
path {
stroke-width: 3;
stroke: black;
fill: rgba(0,0,0,0);
}
text {
font: bold 14px monospace;
text-anchor: middle;
}
text.diagram-text {
font-size: 12px;
}
a {
fill: blue;
}
text.diagram-arrow {
font-size: 16px;
}
text.label {
text-anchor: start;
}
text.comment {
font: italic 12px monospace;
}
rect {
stroke-width: 3;
stroke: black;
fill: #BCBCBC;
}
path.diagram-text {
stroke-width: 3;
stroke: black;
fill: #BCBCBC;
cursor: help;
}
]]></style>
</defs>
<g transform="translate(.5 .5)">
<g>
<path d="M20 30v20m10 -20v20m-10 -10h20"></path>
</g>
<path d="M40 40h10"></path>
<g>
<path d="M50 40h0"></path>
<path d="M1000 40h0"></path>
<g>
<path d="M50 40h0"></path>
<path d="M123 40h0"></path>
<text x="86.5" y="45" class="comment">not Cloud</text>
</g>
<path d="M123 40h10"></path>
<path d="M133 40h10"></path>
<g>
<path d="M143 40h0"></path>
<path d="M1000 40h0"></path>
<g class="terminal">
<path d="M143 40h0"></path>
<path d="M307.5 40h0"></path>
<rect x="143" y="29" width="164.5" height="22" rx="10" ry="10"></rect>
<text x="225.25" y="44">"SET PROPERTY OF"</text>
</g>
<path d="M307.5 40h10"></path>
<path d="M317.5 40h10"></path>
<g class="non-terminal">
<path d="M327.5 40h0"></path>
<path d="M398.5 40h0"></path>
<rect x="327.5" y="29" width="71" height="22"></rect>
<a xlink:href="#/expression/Source"><text x="363" y="44">Source</text>
</a>
</g>
<path d="M398.5 40h10"></path>
<g>
<path d="M408.5 40h0"></path>
<path d="M536.5 40h0"></path>
<path d="M408.5 40h20"></path>
<g class="non-terminal">
<path d="M428.5 40h0"></path>
<path d="M516.5 40h0"></path>
<rect x="428.5" y="29" width="88" height="22"></rect>
<a xlink:href="#/expression/Constant"><text x="472.5" y="44">Constant</text>
</a>
</g>
<path d="M516.5 40h20"></path>
<path d="M408.5 40a10 10 0 0 1 10 10v10a10 10 0 0 0 10 10"></path>
<g class="non-terminal">
<path d="M428.5 70h0"></path>
<path d="M491 70h25.5"></path>
<rect x="428.5" y="59" width="62.5" height="22"></rect>
<a xlink:href="#/expression/Field"><text x="459.75" y="74">Field</text>
</a>
</g>
<path d="M516.5 70a10 10 0 0 0 10 -10v-10a10 10 0 0 1 10 -10"></path>
</g>
<path d="M536.5 40h10"></path>
<g class="terminal">
<path d="M546.5 40h0"></path>
<path d="M592 40h0"></path>
<rect x="546.5" y="29" width="45.5" height="22" rx="10" ry="10"></rect>
<text x="569.25" y="44">"="</text>
</g>
<path d="M592 40h10"></path>
<path d="M602 40h10"></path>
<g class="non-terminal">
<path d="M612 40h0"></path>
<path d="M683 40h0"></path>
<rect x="612" y="29" width="71" height="22"></rect>
<a xlink:href="#/expression/Source"><text x="647.5" y="44">Source</text>
</a>
</g>
<path d="M683 40h10"></path>
<g>
<path d="M693 40h0"></path>
<path d="M838 40h0"></path>
<path d="M693 40a10 10 0 0 0 10 -10v0a10 10 0 0 1 10 -10"></path>
<g>
<path d="M713 20h105"></path>
</g>
<path d="M818 20a10 10 0 0 1 10 10v0a10 10 0 0 0 10 10"></path>
<path d="M693 40h20"></path>
<g class="terminal">
<path d="M713 40h0"></path>
<path d="M818 40h0"></path>
<rect x="713" y="29" width="105" height="22" rx="10" ry="10"></rect>
<text x="765.5" y="44">"NO FLUSH"</text>
</g>
<path d="M818 40h20"></path>
</g>
<g>
<path d="M838 40h0"></path>
<path d="M1000 40h0"></path>
<path d="M838 40a10 10 0 0 0 10 -10v0a10 10 0 0 1 10 -10"></path>
<g>
<path d="M858 20h122"></path>
</g>
<path d="M980 20a10 10 0 0 1 10 10v0a10 10 0 0 0 10 10"></path>
<path d="M838 40h20"></path>
<g class="non-terminal">
<path d="M858 40h0"></path>
<path d="M980 40h0"></path>
<rect x="858" y="29" width="122" height="22"></rect>
<a xlink:href="#/expression/OLEExporting"><text x="919" y="44">OLEExporting</text>
</a>
</g>
<path d="M980 40h20"></path>
</g>
</g>
</g>
<path d="M1000 40h10"></path>
<path d="M 1010 40 h 20 m -10 -10 v 20 m 10 -20 v 20"></path>
</g>
</svg>
