<svg xmlns="http://www.w3.org/2000/svg" xmlns:xlink="http://www.w3.org/1999/xlink" class="railroad-diagram" width="1470" height="131" viewBox="0 0 1470 131">
<defs>
<style type="text/css"><![CDATA[
path {
stroke-width: 3;
stroke: black;
fill: rgba(0,0,0,0);
}
text {
font: bold 14px monospace;
text-anchor: middle;
}
text.diagram-text {
font-size: 12px;
}
a {
fill: blue;
}
text.diagram-arrow {
font-size: 16px;
}
text.label {
text-anchor: start;
}
text.comment {
font: italic 12px monospace;
}
rect {
stroke-width: 3;
stroke: black;
fill: #BCBCBC;
}
path.diagram-text {
stroke-width: 3;
stroke: black;
fill: #BCBCBC;
cursor: help;
}
]]></style>
</defs>
<g transform="translate(.5 .5)">
<g>
<path d="M20 30v20m10 -20v20m-10 -10h20"></path>
</g>
<path d="M40 40h10"></path>
<g>
<path d="M50 40h0"></path>
<path d="M1420 40h0"></path>
<g class="terminal">
<path d="M50 40h0"></path>
<path d="M197.5 40h0"></path>
<rect x="50" y="29" width="147.5" height="22" rx="10" ry="10"></rect>
<text x="123.75" y="44">"CREATE OBJECT"</text>
</g>
<path d="M197.5 40h10"></path>
<path d="M207.5 40h10"></path>
<g class="non-terminal">
<path d="M217.5 40h0"></path>
<path d="M288.5 40h0"></path>
<rect x="217.5" y="29" width="71" height="22"></rect>
<a xlink:href="#/expression/Target"><text x="253" y="44">Target</text>
</a>
</g>
<path d="M288.5 40h10"></path>
<g>
<path d="M298.5 40h0"></path>
<path d="M630 40h0"></path>
<path d="M298.5 40a10 10 0 0 0 10 -10v0a10 10 0 0 1 10 -10"></path>
<g>
<path d="M318.5 20h291.5"></path>
</g>
<path d="M610 20a10 10 0 0 1 10 10v0a10 10 0 0 0 10 10"></path>
<path d="M298.5 40h20"></path>
<g>
<path d="M318.5 40h0"></path>
<path d="M610 40h0"></path>
<path d="M348.5 40h10"></path>
<g>
<path d="M358.5 40h0"></path>
<path d="M576 40h4"></path>
<g class="terminal">
<path d="M358.5 40h0"></path>
<path d="M429.5 40h0"></path>
<rect x="358.5" y="29" width="71" height="22" rx="10" ry="10"></rect>
<text x="394" y="44">"TYPE"</text>
</g>
<path d="M429.5 40h10"></path>
<g>
<path d="M439.5 40h0"></path>
<path d="M576 40h0"></path>
<path d="M439.5 40h20"></path>
<g class="non-terminal">
<path d="M459.5 40h0"></path>
<path d="M556 40h0"></path>
<rect x="459.5" y="29" width="96.5" height="22"></rect>
<a xlink:href="#/expression/ClassName"><text x="507.75" y="44">ClassName</text>
</a>
</g>
<path d="M556 40h20"></path>
<path d="M439.5 40a10 10 0 0 1 10 10v10a10 10 0 0 0 10 10"></path>
<g class="non-terminal">
<path d="M459.5 70h0"></path>
<path d="M539 70h17"></path>
<rect x="459.5" y="59" width="79.5" height="22"></rect>
<a xlink:href="#/expression/Dynamic"><text x="499.25" y="74">Dynamic</text>
</a>
</g>
<path d="M556 70a10 10 0 0 0 10 -10v-10a10 10 0 0 1 10 -10"></path>
</g>
</g>
<path d="M580 40h10"></path>
<path d="M348.5 40v50a10 10 0 0 0 10 10"></path>
<g>
<path d="M358.5 100h0"></path>
<path d="M580 100h0"></path>
<g class="terminal">
<path d="M358.5 100h0"></path>
<path d="M489 100h0"></path>
<rect x="358.5" y="89" width="130.5" height="22" rx="10" ry="10"></rect>
<text x="423.75" y="104">"AREA HANDLE"</text>
</g>
<path d="M489 100h10"></path>
<path d="M499 100h10"></path>
<g class="non-terminal">
<path d="M509 100h0"></path>
<path d="M580 100h0"></path>
<rect x="509" y="89" width="71" height="22"></rect>
<a xlink:href="#/expression/Source"><text x="544.5" y="104">Source</text>
</a>
</g>
</g>
<path d="M580 100a10 10 0 0 0 10 -10v-50"></path>
<g class="diagram-text">
<title>take one or more branches, once each, in any order</title>
<path d="M 348.5 30 h -26 a 4 4 0 0 0 -4 4 v 12 a 4 4 0 0 0 4 4 h 26 z" class="diagram-text"></path>
<text x="333.5" y="44" class="diagram-text">1+</text>
<path d="M 590 30 h 16 a 4 4 0 0 1 4 4 v 12 a 4 4 0 0 1 -4 4 h -16 z" class="diagram-text"></path>
<path d="M 597 38 a 4 4 0 1 0 6 -1 m 2.75 -1 h -4 v 4 m 0 -3 h 2" style="stroke-width: 1.75"></path>
</g>
</g>
<path d="M610 40h20"></path>
</g>
<g>
<path d="M630 40h0"></path>
<path d="M982.5 40h0"></path>
<path d="M630 40a10 10 0 0 0 10 -10v0a10 10 0 0 1 10 -10"></path>
<g>
<path d="M650 20h312.5"></path>
</g>
<path d="M962.5 20a10 10 0 0 1 10 10v0a10 10 0 0 0 10 10"></path>
<path d="M630 40h20"></path>
<g>
<path d="M650 40h0"></path>
<path d="M962.5 40h0"></path>
<path d="M650 40h20"></path>
<g>
<path d="M670 40h0"></path>
<path d="M942.5 40h0"></path>
<g class="terminal">
<path d="M670 40h0"></path>
<path d="M783.5 40h0"></path>
<rect x="670" y="29" width="113.5" height="22" rx="10" ry="10"></rect>
<text x="726.75" y="44">"EXPORTING"</text>
</g>
<path d="M783.5 40h10"></path>
<path d="M793.5 40h10"></path>
<g class="non-terminal">
<path d="M803.5 40h0"></path>
<path d="M942.5 40h0"></path>
<rect x="803.5" y="29" width="139" height="22"></rect>
<a xlink:href="#/expression/ParameterListS"><text x="873" y="44">ParameterListS</text>
</a>
</g>
</g>
<path d="M942.5 40h20"></path>
<path d="M650 40a10 10 0 0 1 10 10v10a10 10 0 0 0 10 10"></path>
<g>
<path d="M670 70h0"></path>
<path d="M925.5 70h17"></path>
<g class="terminal">
<path d="M670 70h0"></path>
<path d="M834.5 70h0"></path>
<rect x="670" y="59" width="164.5" height="22" rx="10" ry="10"></rect>
<text x="752.25" y="74">"PARAMETER-TABLE"</text>
</g>
<path d="M834.5 70h10"></path>
<path d="M844.5 70h10"></path>
<g class="non-terminal">
<path d="M854.5 70h0"></path>
<path d="M925.5 70h0"></path>
<rect x="854.5" y="59" width="71" height="22"></rect>
<a xlink:href="#/expression/Source"><text x="890" y="74">Source</text>
</a>
</g>
</g>
<path d="M942.5 70a10 10 0 0 0 10 -10v-10a10 10 0 0 1 10 -10"></path>
</g>
<path d="M962.5 40h20"></path>
</g>
<g>
<path d="M982.5 40h0"></path>
<path d="M1420 40h0"></path>
<path d="M982.5 40a10 10 0 0 0 10 -10v0a10 10 0 0 1 10 -10"></path>
<g>
<path d="M1002.5 20h397.5"></path>
</g>
<path d="M1400 20a10 10 0 0 1 10 10v0a10 10 0 0 0 10 10"></path>
<path d="M982.5 40h20"></path>
<g>
<path d="M1002.5 40h0"></path>
<path d="M1400 40h0"></path>
<path d="M1002.5 40h20"></path>
<g>
<path d="M1022.5 40h0"></path>
<path d="M1380 40h0"></path>
<g class="terminal">
<path d="M1022.5 40h0"></path>
<path d="M1144.5 40h0"></path>
<rect x="1022.5" y="29" width="122" height="22" rx="10" ry="10"></rect>
<text x="1083.5" y="44">"EXCEPTIONS"</text>
</g>
<path d="M1144.5 40h10"></path>
<path d="M1154.5 40h10"></path>
<g class="non-terminal">
<path d="M1164.5 40h0"></path>
<path d="M1380 40h0"></path>
<rect x="1164.5" y="29" width="215.5" height="22"></rect>
<a xlink:href="#/expression/ParameterListExceptions"><text x="1272.25" y="44">ParameterListExceptions</text>
</a>
</g>
</g>
<path d="M1380 40h20"></path>
<path d="M1002.5 40a10 10 0 0 1 10 10v10a10 10 0 0 0 10 10"></path>
<g>
<path d="M1022.5 70h0"></path>
<path d="M1278 70h102"></path>
<g class="terminal">
<path d="M1022.5 70h0"></path>
<path d="M1187 70h0"></path>
<rect x="1022.5" y="59" width="164.5" height="22" rx="10" ry="10"></rect>
<text x="1104.75" y="74">"EXCEPTION-TABLE"</text>
</g>
<path d="M1187 70h10"></path>
<path d="M1197 70h10"></path>
<g class="non-terminal">
<path d="M1207 70h0"></path>
<path d="M1278 70h0"></path>
<rect x="1207" y="59" width="71" height="22"></rect>
<a xlink:href="#/expression/Source"><text x="1242.5" y="74">Source</text>
</a>
</g>
</g>
<path d="M1380 70a10 10 0 0 0 10 -10v-10a10 10 0 0 1 10 -10"></path>
</g>
<path d="M1400 40h20"></path>
</g>
</g>
<path d="M1420 40h10"></path>
<path d="M 1430 40 h 20 m -10 -10 v 20 m 10 -20 v 20"></path>
</g>
</svg>
