<svg xmlns="http://www.w3.org/2000/svg" xmlns:xlink="http://www.w3.org/1999/xlink" class="railroad-diagram" width="638" height="71" viewBox="0 0 638 71">
<defs>
<style type="text/css"><![CDATA[
path {
stroke-width: 3;
stroke: black;
fill: rgba(0,0,0,0);
}
text {
font: bold 14px monospace;
text-anchor: middle;
}
text.diagram-text {
font-size: 12px;
}
a {
fill: blue;
}
text.diagram-arrow {
font-size: 16px;
}
text.label {
text-anchor: start;
}
text.comment {
font: italic 12px monospace;
}
rect {
stroke-width: 3;
stroke: black;
fill: #BCBCBC;
}
path.diagram-text {
stroke-width: 3;
stroke: black;
fill: #BCBCBC;
cursor: help;
}
]]></style>
</defs>
<g transform="translate(.5 .5)">
<g>
<path d="M20 30v20m10 -20v20m-10 -10h20"></path>
</g>
<path d="M40 40h10"></path>
<g>
<path d="M50 40h0"></path>
<path d="M588 40h0"></path>
<g class="terminal">
<path d="M50 40h0"></path>
<path d="M240 40h0"></path>
<rect x="50" y="29" width="190" height="22" rx="10" ry="10"></rect>
<text x="145" y="44">"CONSTANTS BEGIN OF"</text>
</g>
<path d="M240 40h10"></path>
<path d="M250 40h10"></path>
<g class="non-terminal">
<path d="M260 40h0"></path>
<path d="M399 40h0"></path>
<rect x="260" y="29" width="139" height="22"></rect>
<a xlink:href="#/expression/DefinitionName"><text x="329.5" y="44">DefinitionName</text>
</a>
</g>
<path d="M399 40h10"></path>
<g>
<path d="M409 40h0"></path>
<path d="M588 40h0"></path>
<path d="M409 40a10 10 0 0 0 10 -10v0a10 10 0 0 1 10 -10"></path>
<g>
<path d="M429 20h139"></path>
</g>
<path d="M568 20a10 10 0 0 1 10 10v0a10 10 0 0 0 10 10"></path>
<path d="M409 40h20"></path>
<g class="terminal">
<path d="M429 40h0"></path>
<path d="M568 40h0"></path>
<rect x="429" y="29" width="139" height="22" rx="10" ry="10"></rect>
<text x="498.5" y="44">"%&#95;PREDEFINED"</text>
</g>
<path d="M568 40h20"></path>
</g>
</g>
<path d="M588 40h10"></path>
<path d="M 598 40 h 20 m -10 -10 v 20 m 10 -20 v 20"></path>
</g>
</svg>
