<svg xmlns="http://www.w3.org/2000/svg" xmlns:xlink="http://www.w3.org/1999/xlink" class="railroad-diagram" width="748" height="101" viewBox="0 0 748 101">
<defs>
<style type="text/css"><![CDATA[
path {
stroke-width: 3;
stroke: black;
fill: rgba(0,0,0,0);
}
text {
font: bold 14px monospace;
text-anchor: middle;
}
text.diagram-text {
font-size: 12px;
}
a {
fill: blue;
}
text.diagram-arrow {
font-size: 16px;
}
text.label {
text-anchor: start;
}
text.comment {
font: italic 12px monospace;
}
rect {
stroke-width: 3;
stroke: black;
fill: #BCBCBC;
}
path.diagram-text {
stroke-width: 3;
stroke: black;
fill: #BCBCBC;
cursor: help;
}
]]></style>
</defs>
<g transform="translate(.5 .5)">
<g>
<path d="M20 30v20m10 -20v20m-10 -10h20"></path>
</g>
<path d="M40 40h10"></path>
<g>
<path d="M50 40h0"></path>
<path d="M698 40h0"></path>
<g>
<path d="M50 40h0"></path>
<path d="M186.5 40h0"></path>
<path d="M50 40h20"></path>
<g class="terminal">
<path d="M70 40h0"></path>
<path d="M158 40h8.5"></path>
<rect x="70" y="29" width="88" height="22" rx="10" ry="10"></rect>
<text x="114" y="44">"STATIC"</text>
</g>
<path d="M166.5 40h20"></path>
<path d="M50 40a10 10 0 0 1 10 10v10a10 10 0 0 0 10 10"></path>
<g class="terminal">
<path d="M70 70h0"></path>
<path d="M166.5 70h0"></path>
<rect x="70" y="59" width="96.5" height="22" rx="10" ry="10"></rect>
<text x="118.25" y="74">"STATICS"</text>
</g>
<path d="M166.5 70a10 10 0 0 0 10 -10v-10a10 10 0 0 1 10 -10"></path>
</g>
<path d="M186.5 40h10"></path>
<g class="terminal">
<path d="M196.5 40h0"></path>
<path d="M301.5 40h0"></path>
<rect x="196.5" y="29" width="105" height="22" rx="10" ry="10"></rect>
<text x="249" y="44">"BEGIN OF"</text>
</g>
<path d="M301.5 40h10"></path>
<path d="M311.5 40h10"></path>
<g class="non-terminal">
<path d="M321.5 40h0"></path>
<path d="M460.5 40h0"></path>
<rect x="321.5" y="29" width="139" height="22"></rect>
<a xlink:href="#/expression/DefinitionName"><text x="391" y="44">DefinitionName</text>
</a>
</g>
<path d="M460.5 40h10"></path>
<g>
<path d="M470.5 40h0"></path>
<path d="M698 40h0"></path>
<path d="M470.5 40a10 10 0 0 0 10 -10v0a10 10 0 0 1 10 -10"></path>
<g>
<path d="M490.5 20h187.5"></path>
</g>
<path d="M678 20a10 10 0 0 1 10 10v0a10 10 0 0 0 10 10"></path>
<path d="M470.5 40h20"></path>
<g>
<path d="M490.5 40h0"></path>
<path d="M678 40h0"></path>
<g class="terminal">
<path d="M490.5 40h0"></path>
<path d="M578.5 40h0"></path>
<rect x="490.5" y="29" width="88" height="22" rx="10" ry="10"></rect>
<text x="534.5" y="44">"OCCURS"</text>
</g>
<path d="M578.5 40h10"></path>
<path d="M588.5 40h10"></path>
<g class="non-terminal">
<path d="M598.5 40h0"></path>
<path d="M678 40h0"></path>
<rect x="598.5" y="29" width="79.5" height="22"></rect>
<a xlink:href="#/expression/Integer"><text x="638.25" y="44">Integer</text>
</a>
</g>
</g>
<path d="M678 40h20"></path>
</g>
</g>
<path d="M698 40h10"></path>
<path d="M 708 40 h 20 m -10 -10 v 20 m 10 -20 v 20"></path>
</g>
</svg>
