<svg xmlns="http://www.w3.org/2000/svg" xmlns:xlink="http://www.w3.org/1999/xlink" class="railroad-diagram" width="603.5" height="92" viewBox="0 0 603.5 92">
<defs>
<style type="text/css"><![CDATA[
path {
stroke-width: 3;
stroke: black;
fill: rgba(0,0,0,0);
}
text {
font: bold 14px monospace;
text-anchor: middle;
}
text.diagram-text {
font-size: 12px;
}
a {
fill: blue;
}
text.diagram-arrow {
font-size: 16px;
}
text.label {
text-anchor: start;
}
text.comment {
font: italic 12px monospace;
}
rect {
stroke-width: 3;
stroke: black;
fill: #BCBCBC;
}
path.diagram-text {
stroke-width: 3;
stroke: black;
fill: #BCBCBC;
cursor: help;
}
]]></style>
</defs>
<g transform="translate(.5 .5)">
<g>
<path d="M20 21v20m10 -20v20m-10 -10h20"></path>
</g>
<path d="M40 31h10"></path>
<g>
<path d="M50 31h0"></path>
<path d="M553.5 31h0"></path>
<g>
<path d="M50 31h0"></path>
<path d="M123 31h0"></path>
<text x="86.5" y="36" class="comment">not Cloud</text>
</g>
<path d="M123 31h10"></path>
<path d="M133 31h10"></path>
<g>
<path d="M143 31h0"></path>
<path d="M553.5 31h0"></path>
<g class="terminal">
<path d="M143 31h0"></path>
<path d="M290.5 31h0"></path>
<rect x="143" y="20" width="147.5" height="22" rx="10" ry="10"></rect>
<text x="216.75" y="35">"PRINT-CONTROL"</text>
</g>
<path d="M290.5 31h10"></path>
<g>
<path d="M300.5 31h0"></path>
<path d="M553.5 31h0"></path>
<path d="M300.5 31h20"></path>
<g>
<path d="M320.5 31h0"></path>
<path d="M533.5 31h0"></path>
<g class="terminal">
<path d="M320.5 31h0"></path>
<path d="M442.5 31h0"></path>
<rect x="320.5" y="20" width="122" height="22" rx="10" ry="10"></rect>
<text x="381.5" y="35">"INDEX-LINE"</text>
</g>
<path d="M442.5 31h10"></path>
<path d="M452.5 31h10"></path>
<g class="non-terminal">
<path d="M462.5 31h0"></path>
<path d="M533.5 31h0"></path>
<rect x="462.5" y="20" width="71" height="22"></rect>
<a xlink:href="#/expression/Source"><text x="498" y="35">Source</text>
</a>
</g>
</g>
<path d="M533.5 31h20"></path>
<path d="M300.5 31a10 10 0 0 1 10 10v10a10 10 0 0 0 10 10"></path>
<g>
<path d="M320.5 61h0"></path>
<path d="M516.5 61h17"></path>
<g class="terminal">
<path d="M320.5 61h0"></path>
<path d="M425.5 61h0"></path>
<rect x="320.5" y="50" width="105" height="22" rx="10" ry="10"></rect>
<text x="373" y="65">"FUNCTION"</text>
</g>
<path d="M425.5 61h10"></path>
<path d="M435.5 61h10"></path>
<g class="non-terminal">
<path d="M445.5 61h0"></path>
<path d="M516.5 61h0"></path>
<rect x="445.5" y="50" width="71" height="22"></rect>
<a xlink:href="#/expression/Source"><text x="481" y="65">Source</text>
</a>
</g>
</g>
<path d="M533.5 61a10 10 0 0 0 10 -10v-10a10 10 0 0 1 10 -10"></path>
</g>
</g>
</g>
<path d="M553.5 31h10"></path>
<path d="M 563.5 31 h 20 m -10 -10 v 20 m 10 -20 v 20"></path>
</g>
</svg>
