<svg xmlns="http://www.w3.org/2000/svg" xmlns:xlink="http://www.w3.org/1999/xlink" class="railroad-diagram" width="619" height="122" viewBox="0 0 619 122">
<defs>
<style type="text/css"><![CDATA[
path {
stroke-width: 3;
stroke: black;
fill: rgba(0,0,0,0);
}
text {
font: bold 14px monospace;
text-anchor: middle;
}
text.diagram-text {
font-size: 12px;
}
a {
fill: blue;
}
text.diagram-arrow {
font-size: 16px;
}
text.label {
text-anchor: start;
}
text.comment {
font: italic 12px monospace;
}
rect {
stroke-width: 3;
stroke: black;
fill: #BCBCBC;
}
path.diagram-text {
stroke-width: 3;
stroke: black;
fill: #BCBCBC;
cursor: help;
}
]]></style>
</defs>
<g transform="translate(.5 .5)">
<g>
<path d="M20 21v20m10 -20v20m-10 -10h20"></path>
</g>
<path d="M40 31h10"></path>
<g>
<path d="M50 31h0"></path>
<path d="M569 31h0"></path>
<g class="terminal">
<path d="M50 31h0"></path>
<path d="M163.5 31h0"></path>
<rect x="50" y="20" width="113.5" height="22" rx="10" ry="10"></rect>
<text x="106.75" y="35">"TRANSLATE"</text>
</g>
<path d="M163.5 31h10"></path>
<path d="M173.5 31h10"></path>
<g class="non-terminal">
<path d="M183.5 31h0"></path>
<path d="M254.5 31h0"></path>
<rect x="183.5" y="20" width="71" height="22"></rect>
<a xlink:href="#/expression/Target"><text x="219" y="35">Target</text>
</a>
</g>
<path d="M254.5 31h10"></path>
<g>
<path d="M264.5 31h0"></path>
<path d="M569 31h0"></path>
<path d="M264.5 31h20"></path>
<g>
<path d="M284.5 31h0"></path>
<path d="M549 31h0"></path>
<g class="terminal">
<path d="M284.5 31h0"></path>
<path d="M338.5 31h0"></path>
<rect x="284.5" y="20" width="54" height="22" rx="10" ry="10"></rect>
<text x="311.5" y="35">"TO"</text>
</g>
<path d="M338.5 31h10"></path>
<g>
<path d="M348.5 31h0"></path>
<path d="M468 31h0"></path>
<path d="M348.5 31h20"></path>
<g class="terminal">
<path d="M368.5 31h0"></path>
<path d="M448 31h0"></path>
<rect x="368.5" y="20" width="79.5" height="22" rx="10" ry="10"></rect>
<text x="408.25" y="35">"UPPER"</text>
</g>
<path d="M448 31h20"></path>
<path d="M348.5 31a10 10 0 0 1 10 10v10a10 10 0 0 0 10 10"></path>
<g class="terminal">
<path d="M368.5 61h0"></path>
<path d="M448 61h0"></path>
<rect x="368.5" y="50" width="79.5" height="22" rx="10" ry="10"></rect>
<text x="408.25" y="65">"LOWER"</text>
</g>
<path d="M448 61a10 10 0 0 0 10 -10v-10a10 10 0 0 1 10 -10"></path>
</g>
<path d="M468 31h10"></path>
<g class="terminal">
<path d="M478 31h0"></path>
<path d="M549 31h0"></path>
<rect x="478" y="20" width="71" height="22" rx="10" ry="10"></rect>
<text x="513.5" y="35">"CASE"</text>
</g>
</g>
<path d="M549 31h20"></path>
<path d="M264.5 31a10 10 0 0 1 10 10v40a10 10 0 0 0 10 10"></path>
<g>
<path d="M284.5 91h0"></path>
<path d="M455 91h94"></path>
<g class="terminal">
<path d="M284.5 91h0"></path>
<path d="M364 91h0"></path>
<rect x="284.5" y="80" width="79.5" height="22" rx="10" ry="10"></rect>
<text x="324.25" y="95">"USING"</text>
</g>
<path d="M364 91h10"></path>
<path d="M374 91h10"></path>
<g class="non-terminal">
<path d="M384 91h0"></path>
<path d="M455 91h0"></path>
<rect x="384" y="80" width="71" height="22"></rect>
<a xlink:href="#/expression/Source"><text x="419.5" y="95">Source</text>
</a>
</g>
</g>
<path d="M549 91a10 10 0 0 0 10 -10v-40a10 10 0 0 1 10 -10"></path>
</g>
</g>
<path d="M569 31h10"></path>
<path d="M 579 31 h 20 m -10 -10 v 20 m 10 -20 v 20"></path>
</g>
</svg>
