<svg xmlns="http://www.w3.org/2000/svg" xmlns:xlink="http://www.w3.org/1999/xlink" class="railroad-diagram" width="1836.5" height="260" viewBox="0 0 1836.5 260">
<defs>
<style type="text/css"><![CDATA[
path {
stroke-width: 3;
stroke: black;
fill: rgba(0,0,0,0);
}
text {
font: bold 14px monospace;
text-anchor: middle;
}
text.diagram-text {
font-size: 12px;
}
a {
fill: blue;
}
text.diagram-arrow {
font-size: 16px;
}
text.label {
text-anchor: start;
}
text.comment {
font: italic 12px monospace;
}
rect {
stroke-width: 3;
stroke: black;
fill: #BCBCBC;
}
path.diagram-text {
stroke-width: 3;
stroke: black;
fill: #BCBCBC;
cursor: help;
}
]]></style>
</defs>
<g transform="translate(.5 .5)">
<g>
<path d="M20 30v20m10 -20v20m-10 -10h20"></path>
</g>
<path d="M40 40h10"></path>
<g>
<path d="M50 40h0"></path>
<path d="M1786.5 40h0"></path>
<g class="terminal">
<path d="M50 40h0"></path>
<path d="M138 40h0"></path>
<rect x="50" y="29" width="88" height="22" rx="10" ry="10"></rect>
<text x="94" y="44">"ASSIGN"</text>
</g>
<path d="M138 40h10"></path>
<g>
<path d="M148 40h0"></path>
<path d="M392.5 40h0"></path>
<path d="M148 40a10 10 0 0 0 10 -10v0a10 10 0 0 1 10 -10"></path>
<g>
<path d="M168 20h204.5"></path>
</g>
<path d="M372.5 20a10 10 0 0 1 10 10v0a10 10 0 0 0 10 10"></path>
<path d="M148 40h20"></path>
<g>
<path d="M168 40h0"></path>
<path d="M372.5 40h0"></path>
<g class="non-terminal">
<path d="M168 40h0"></path>
<path d="M239 40h0"></path>
<rect x="168" y="29" width="71" height="22"></rect>
<a xlink:href="#/expression/Target"><text x="203.5" y="44">Target</text>
</a>
</g>
<path d="M239 40h10"></path>
<path d="M249 40h10"></path>
<g class="terminal">
<path d="M259 40h0"></path>
<path d="M372.5 40h0"></path>
<rect x="259" y="29" width="113.5" height="22" rx="10" ry="10"></rect>
<text x="315.75" y="44">"INCREMENT"</text>
</g>
</g>
<path d="M372.5 40h20"></path>
</g>
<g>
<path d="M392.5 40h0"></path>
<path d="M887 40h0"></path>
<path d="M392.5 40h20"></path>
<g>
<path d="M412.5 40h0"></path>
<path d="M725.5 40h141.5"></path>
<g class="non-terminal">
<path d="M412.5 40h0"></path>
<path d="M483.5 40h0"></path>
<rect x="412.5" y="29" width="71" height="22"></rect>
<a xlink:href="#/expression/Source"><text x="448" y="44">Source</text>
</a>
</g>
<path d="M483.5 40h10"></path>
<g>
<path d="M493.5 40h0"></path>
<path d="M725.5 40h0"></path>
<path d="M493.5 40a10 10 0 0 0 10 -10v0a10 10 0 0 1 10 -10"></path>
<g>
<path d="M513.5 20h192"></path>
</g>
<path d="M705.5 20a10 10 0 0 1 10 10v0a10 10 0 0 0 10 10"></path>
<path d="M493.5 40h20"></path>
<g>
<path d="M513.5 40h0"></path>
<path d="M705.5 40h0"></path>
<g>
<path d="M513.5 40h0"></path>
<path d="M616 40h0"></path>
<path d="M513.5 40h20"></path>
<g class="terminal">
<path d="M533.5 40h0"></path>
<path d="M596 40h0"></path>
<rect x="533.5" y="29" width="62.5" height="22" rx="10" ry="10"></rect>
<text x="564.75" y="44">!"->"</text>
</g>
<path d="M596 40h20"></path>
<path d="M513.5 40a10 10 0 0 1 10 10v10a10 10 0 0 0 10 10"></path>
<g class="terminal">
<path d="M533.5 70h0"></path>
<path d="M596 70h0"></path>
<rect x="533.5" y="59" width="62.5" height="22" rx="10" ry="10"></rect>
<text x="564.75" y="74">!"=>"</text>
</g>
<path d="M596 70a10 10 0 0 0 10 -10v-10a10 10 0 0 1 10 -10"></path>
</g>
<path d="M616 40h10"></path>
<g class="non-terminal">
<path d="M626 40h0"></path>
<path d="M705.5 40h0"></path>
<rect x="626" y="29" width="79.5" height="22"></rect>
<a xlink:href="#/expression/Dynamic"><text x="665.75" y="44">Dynamic</text>
</a>
</g>
</g>
<path d="M705.5 40h20"></path>
</g>
</g>
<path d="M867 40h20"></path>
<path d="M392.5 40a10 10 0 0 1 10 10v40a10 10 0 0 0 10 10"></path>
<g>
<path d="M412.5 100h0"></path>
<path d="M867 100h0"></path>
<g class="terminal">
<path d="M412.5 100h0"></path>
<path d="M526 100h0"></path>
<rect x="412.5" y="89" width="113.5" height="22" rx="10" ry="10"></rect>
<text x="469.25" y="104">"COMPONENT"</text>
</g>
<path d="M526 100h10"></path>
<path d="M536 100h10"></path>
<g class="non-terminal">
<path d="M546 100h0"></path>
<path d="M617 100h0"></path>
<rect x="546" y="89" width="71" height="22"></rect>
<a xlink:href="#/expression/Source"><text x="581.5" y="104">Source</text>
</a>
</g>
<path d="M617 100h10"></path>
<path d="M627 100h10"></path>
<g class="terminal">
<path d="M637 100h0"></path>
<path d="M776 100h0"></path>
<rect x="637" y="89" width="139" height="22" rx="10" ry="10"></rect>
<text x="706.5" y="104">"OF STRUCTURE"</text>
</g>
<path d="M776 100h10"></path>
<path d="M786 100h10"></path>
<g class="non-terminal">
<path d="M796 100h0"></path>
<path d="M867 100h0"></path>
<rect x="796" y="89" width="71" height="22"></rect>
<a xlink:href="#/expression/Source"><text x="831.5" y="104">Source</text>
</a>
</g>
</g>
<path d="M867 100a10 10 0 0 0 10 -10v-40a10 10 0 0 1 10 -10"></path>
<path d="M392.5 40a10 10 0 0 1 10 10v70a10 10 0 0 0 10 10"></path>
<g>
<path d="M412.5 130h0"></path>
<path d="M672.5 130h194.5"></path>
<g class="terminal">
<path d="M412.5 130h0"></path>
<path d="M543 130h0"></path>
<rect x="412.5" y="119" width="130.5" height="22" rx="10" ry="10"></rect>
<text x="477.75" y="134">"TABLE FIELD"</text>
</g>
<path d="M543 130h10"></path>
<g>
<path d="M553 130h0"></path>
<path d="M672.5 130h0"></path>
<path d="M553 130h20"></path>
<g class="non-terminal">
<path d="M573 130h0"></path>
<path d="M644 130h8.5"></path>
<rect x="573" y="119" width="71" height="22"></rect>
<a xlink:href="#/expression/Source"><text x="608.5" y="134">Source</text>
</a>
</g>
<path d="M652.5 130h20"></path>
<path d="M553 130a10 10 0 0 1 10 10v10a10 10 0 0 0 10 10"></path>
<g class="non-terminal">
<path d="M573 160h0"></path>
<path d="M652.5 160h0"></path>
<rect x="573" y="149" width="79.5" height="22"></rect>
<a xlink:href="#/expression/Dynamic"><text x="612.75" y="164">Dynamic</text>
</a>
</g>
<path d="M652.5 160a10 10 0 0 0 10 -10v-10a10 10 0 0 1 10 -10"></path>
</g>
</g>
<path d="M867 130a10 10 0 0 0 10 -10v-70a10 10 0 0 1 10 -10"></path>
<path d="M392.5 40a10 10 0 0 1 10 10v139a10 10 0 0 0 10 10"></path>
<g>
<path d="M412.5 199h0"></path>
<path d="M764 199h103"></path>
<g class="non-terminal">
<path d="M412.5 199h0"></path>
<path d="M492 199h0"></path>
<rect x="412.5" y="188" width="79.5" height="22"></rect>
<a xlink:href="#/expression/Dynamic"><text x="452.25" y="203">Dynamic</text>
</a>
</g>
<path d="M492 199h10"></path>
<g>
<path d="M502 199h0"></path>
<path d="M764 199h0"></path>
<path d="M502 199a10 10 0 0 0 10 -10v0a10 10 0 0 1 10 -10"></path>
<g>
<path d="M522 179h222"></path>
</g>
<path d="M744 179a10 10 0 0 1 10 10v0a10 10 0 0 0 10 10"></path>
<path d="M502 199h20"></path>
<g>
<path d="M522 199h0"></path>
<path d="M744 199h0"></path>
<g>
<path d="M522 199h0"></path>
<path d="M624.5 199h0"></path>
<path d="M522 199h20"></path>
<g class="terminal">
<path d="M542 199h0"></path>
<path d="M604.5 199h0"></path>
<rect x="542" y="188" width="62.5" height="22" rx="10" ry="10"></rect>
<text x="573.25" y="203">!"->"</text>
</g>
<path d="M604.5 199h20"></path>
<path d="M522 199a10 10 0 0 1 10 10v10a10 10 0 0 0 10 10"></path>
<g class="terminal">
<path d="M542 229h0"></path>
<path d="M604.5 229h0"></path>
<rect x="542" y="218" width="62.5" height="22" rx="10" ry="10"></rect>
<text x="573.25" y="233">!"=>"</text>
</g>
<path d="M604.5 229a10 10 0 0 0 10 -10v-10a10 10 0 0 1 10 -10"></path>
</g>
<g>
<path d="M624.5 199h0"></path>
<path d="M744 199h0"></path>
<path d="M624.5 199h20"></path>
<g class="non-terminal">
<path d="M644.5 199h0"></path>
<path d="M707 199h17"></path>
<rect x="644.5" y="188" width="62.5" height="22"></rect>
<a xlink:href="#/expression/Field"><text x="675.75" y="203">Field</text>
</a>
</g>
<path d="M724 199h20"></path>
<path d="M624.5 199a10 10 0 0 1 10 10v10a10 10 0 0 0 10 10"></path>
<g class="non-terminal">
<path d="M644.5 229h0"></path>
<path d="M724 229h0"></path>
<rect x="644.5" y="218" width="79.5" height="22"></rect>
<a xlink:href="#/expression/Dynamic"><text x="684.25" y="233">Dynamic</text>
</a>
</g>
<path d="M724 229a10 10 0 0 0 10 -10v-10a10 10 0 0 1 10 -10"></path>
</g>
</g>
<path d="M744 199h20"></path>
</g>
</g>
<path d="M867 199a10 10 0 0 0 10 -10v-139a10 10 0 0 1 10 -10"></path>
</g>
<path d="M887 40h10"></path>
<g class="terminal">
<path d="M897 40h0"></path>
<path d="M951 40h0"></path>
<rect x="897" y="29" width="54" height="22" rx="10" ry="10"></rect>
<text x="924" y="44">"TO"</text>
</g>
<path d="M951 40h10"></path>
<path d="M961 40h10"></path>
<g class="non-terminal">
<path d="M971 40h0"></path>
<path d="M1059 40h0"></path>
<rect x="971" y="29" width="88" height="22"></rect>
<a xlink:href="#/expression/FSTarget"><text x="1015" y="44">FSTarget</text>
</a>
</g>
<path d="M1059 40h10"></path>
<path d="M1069 40h10"></path>
<g>
<path d="M1079 40h0"></path>
<path d="M1566 40h0"></path>
<g>
<path d="M1079 40h0"></path>
<path d="M1215.5 40h0"></path>
<path d="M1079 40a10 10 0 0 0 10 -10v0a10 10 0 0 1 10 -10"></path>
<g>
<path d="M1099 20h96.5"></path>
</g>
<path d="M1195.5 20a10 10 0 0 1 10 10v0a10 10 0 0 0 10 10"></path>
<path d="M1079 40h20"></path>
<g class="terminal">
<path d="M1099 40h0"></path>
<path d="M1195.5 40h0"></path>
<rect x="1099" y="29" width="96.5" height="22" rx="10" ry="10"></rect>
<text x="1147.25" y="44">"CASTING"</text>
</g>
<path d="M1195.5 40h20"></path>
</g>
<g>
<path d="M1215.5 40h0"></path>
<path d="M1566 40h0"></path>
<path d="M1215.5 40a10 10 0 0 0 10 -10v0a10 10 0 0 1 10 -10"></path>
<g>
<path d="M1235.5 20h310.5"></path>
</g>
<path d="M1546 20a10 10 0 0 1 10 10v0a10 10 0 0 0 10 10"></path>
<path d="M1215.5 40h20"></path>
<g>
<path d="M1235.5 40h0"></path>
<path d="M1546 40h0"></path>
<path d="M1235.5 40h20"></path>
<g>
<path d="M1255.5 40h0"></path>
<path d="M1456 40h70"></path>
<g class="terminal">
<path d="M1255.5 40h0"></path>
<path d="M1326.5 40h0"></path>
<rect x="1255.5" y="29" width="71" height="22" rx="10" ry="10"></rect>
<text x="1291" y="44">"LIKE"</text>
</g>
<path d="M1326.5 40h10"></path>
<g>
<path d="M1336.5 40h0"></path>
<path d="M1456 40h0"></path>
<path d="M1336.5 40h20"></path>
<g class="non-terminal">
<path d="M1356.5 40h0"></path>
<path d="M1436 40h0"></path>
<rect x="1356.5" y="29" width="79.5" height="22"></rect>
<a xlink:href="#/expression/Dynamic"><text x="1396.25" y="44">Dynamic</text>
</a>
</g>
<path d="M1436 40h20"></path>
<path d="M1336.5 40a10 10 0 0 1 10 10v10a10 10 0 0 0 10 10"></path>
<g class="non-terminal">
<path d="M1356.5 70h0"></path>
<path d="M1427.5 70h8.5"></path>
<rect x="1356.5" y="59" width="71" height="22"></rect>
<a xlink:href="#/expression/Source"><text x="1392" y="74">Source</text>
</a>
</g>
<path d="M1436 70a10 10 0 0 0 10 -10v-10a10 10 0 0 1 10 -10"></path>
</g>
</g>
<path d="M1526 40h20"></path>
<path d="M1235.5 40a10 10 0 0 1 10 10v40a10 10 0 0 0 10 10"></path>
<g>
<path d="M1255.5 100h0"></path>
<path d="M1477 100h49"></path>
<g class="terminal">
<path d="M1255.5 100h0"></path>
<path d="M1386 100h0"></path>
<rect x="1255.5" y="89" width="130.5" height="22" rx="10" ry="10"></rect>
<text x="1320.75" y="104">"TYPE HANDLE"</text>
</g>
<path d="M1386 100h10"></path>
<path d="M1396 100h10"></path>
<g class="non-terminal">
<path d="M1406 100h0"></path>
<path d="M1477 100h0"></path>
<rect x="1406" y="89" width="71" height="22"></rect>
<a xlink:href="#/expression/Source"><text x="1441.5" y="104">Source</text>
</a>
</g>
</g>
<path d="M1526 100a10 10 0 0 0 10 -10v-40a10 10 0 0 1 10 -10"></path>
<path d="M1235.5 40a10 10 0 0 1 10 10v70a10 10 0 0 0 10 10"></path>
<g>
<path d="M1255.5 130h0"></path>
<path d="M1526 130h0"></path>
<path d="M1285.5 130h10"></path>
<g>
<path d="M1295.5 130h0"></path>
<path d="M1496 130h0"></path>
<g class="terminal">
<path d="M1295.5 130h0"></path>
<path d="M1366.5 130h0"></path>
<rect x="1295.5" y="119" width="71" height="22" rx="10" ry="10"></rect>
<text x="1331" y="134">"TYPE"</text>
</g>
<path d="M1366.5 130h10"></path>
<g>
<path d="M1376.5 130h0"></path>
<path d="M1496 130h0"></path>
<path d="M1376.5 130h20"></path>
<g class="non-terminal">
<path d="M1396.5 130h0"></path>
<path d="M1476 130h0"></path>
<rect x="1396.5" y="119" width="79.5" height="22"></rect>
<a xlink:href="#/expression/Dynamic"><text x="1436.25" y="134">Dynamic</text>
</a>
</g>
<path d="M1476 130h20"></path>
<path d="M1376.5 130a10 10 0 0 1 10 10v10a10 10 0 0 0 10 10"></path>
<g class="non-terminal">
<path d="M1396.5 160h0"></path>
<path d="M1467.5 160h8.5"></path>
<rect x="1396.5" y="149" width="71" height="22"></rect>
<a xlink:href="#/expression/Source"><text x="1432" y="164">Source</text>
</a>
</g>
<path d="M1476 160a10 10 0 0 0 10 -10v-10a10 10 0 0 1 10 -10"></path>
</g>
</g>
<path d="M1496 130h10"></path>
<path d="M1285.5 130v50a10 10 0 0 0 10 10"></path>
<g>
<path d="M1295.5 190h0"></path>
<path d="M1491.5 190h4.5"></path>
<g class="terminal">
<path d="M1295.5 190h0"></path>
<path d="M1400.5 190h0"></path>
<rect x="1295.5" y="179" width="105" height="22" rx="10" ry="10"></rect>
<text x="1348" y="194">"DECIMALS"</text>
</g>
<path d="M1400.5 190h10"></path>
<path d="M1410.5 190h10"></path>
<g class="non-terminal">
<path d="M1420.5 190h0"></path>
<path d="M1491.5 190h0"></path>
<rect x="1420.5" y="179" width="71" height="22"></rect>
<a xlink:href="#/expression/Source"><text x="1456" y="194">Source</text>
</a>
</g>
</g>
<path d="M1496 190a10 10 0 0 0 10 -10v-50"></path>
<g class="diagram-text">
<title>take one or more branches, once each, in any order</title>
<path d="M 1285.5 120 h -26 a 4 4 0 0 0 -4 4 v 12 a 4 4 0 0 0 4 4 h 26 z" class="diagram-text"></path>
<text x="1270.5" y="134" class="diagram-text">1+</text>
<path d="M 1506 120 h 16 a 4 4 0 0 1 4 4 v 12 a 4 4 0 0 1 -4 4 h -16 z" class="diagram-text"></path>
<path d="M 1513 128 a 4 4 0 1 0 6 -1 m 2.75 -1 h -4 v 4 m 0 -3 h 2" style="stroke-width: 1.75"></path>
</g>
</g>
<path d="M1526 130a10 10 0 0 0 10 -10v-70a10 10 0 0 1 10 -10"></path>
</g>
<path d="M1546 40h20"></path>
</g>
</g>
<path d="M1566 40h10"></path>
<g>
<path d="M1576 40h0"></path>
<path d="M1786.5 40h0"></path>
<path d="M1576 40a10 10 0 0 0 10 -10v0a10 10 0 0 1 10 -10"></path>
<g>
<path d="M1596 20h170.5"></path>
</g>
<path d="M1766.5 20a10 10 0 0 1 10 10v0a10 10 0 0 0 10 10"></path>
<path d="M1576 40h20"></path>
<g>
<path d="M1596 40h0"></path>
<path d="M1766.5 40h0"></path>
<g class="terminal">
<path d="M1596 40h0"></path>
<path d="M1675.5 40h0"></path>
<rect x="1596" y="29" width="79.5" height="22" rx="10" ry="10"></rect>
<text x="1635.75" y="44">"RANGE"</text>
</g>
<path d="M1675.5 40h10"></path>
<path d="M1685.5 40h10"></path>
<g class="non-terminal">
<path d="M1695.5 40h0"></path>
<path d="M1766.5 40h0"></path>
<rect x="1695.5" y="29" width="71" height="22"></rect>
<a xlink:href="#/expression/Source"><text x="1731" y="44">Source</text>
</a>
</g>
</g>
<path d="M1766.5 40h20"></path>
</g>
</g>
<path d="M1786.5 40h10"></path>
<path d="M 1796.5 40 h 20 m -10 -10 v 20 m 10 -20 v 20"></path>
</g>
</svg>
