<svg xmlns="http://www.w3.org/2000/svg" xmlns:xlink="http://www.w3.org/1999/xlink" class="railroad-diagram" width="887" height="191" viewBox="0 0 887 191">
<defs>
<style type="text/css"><![CDATA[
path {
stroke-width: 3;
stroke: black;
fill: rgba(0,0,0,0);
}
text {
font: bold 14px monospace;
text-anchor: middle;
}
text.diagram-text {
font-size: 12px;
}
a {
fill: blue;
}
text.diagram-arrow {
font-size: 16px;
}
text.label {
text-anchor: start;
}
text.comment {
font: italic 12px monospace;
}
rect {
stroke-width: 3;
stroke: black;
fill: #BCBCBC;
}
path.diagram-text {
stroke-width: 3;
stroke: black;
fill: #BCBCBC;
cursor: help;
}
]]></style>
</defs>
<g transform="translate(.5 .5)">
<g>
<path d="M20 30v20m10 -20v20m-10 -10h20"></path>
</g>
<path d="M40 40h10"></path>
<g>
<path d="M50 40h0"></path>
<path d="M837 40h0"></path>
<g>
<path d="M50 40h0"></path>
<path d="M123 40h0"></path>
<text x="86.5" y="45" class="comment">not Cloud</text>
</g>
<path d="M123 40h10"></path>
<path d="M133 40h10"></path>
<g>
<path d="M143 40h0"></path>
<path d="M837 40h0"></path>
<g class="terminal">
<path d="M143 40h0"></path>
<path d="M231 40h0"></path>
<rect x="143" y="29" width="88" height="22" rx="10" ry="10"></rect>
<text x="187" y="44">"SEARCH"</text>
</g>
<path d="M231 40h10"></path>
<path d="M241 40h10"></path>
<g class="non-terminal">
<path d="M251 40h0"></path>
<path d="M322 40h0"></path>
<rect x="251" y="29" width="71" height="22"></rect>
<a xlink:href="#/expression/Source"><text x="286.5" y="44">Source</text>
</a>
</g>
<path d="M322 40h10"></path>
<path d="M332 40h10"></path>
<g class="terminal">
<path d="M342 40h0"></path>
<path d="M404.5 40h0"></path>
<rect x="342" y="29" width="62.5" height="22" rx="10" ry="10"></rect>
<text x="373.25" y="44">"FOR"</text>
</g>
<path d="M404.5 40h10"></path>
<path d="M414.5 40h10"></path>
<g class="non-terminal">
<path d="M424.5 40h0"></path>
<path d="M495.5 40h0"></path>
<rect x="424.5" y="29" width="71" height="22"></rect>
<a xlink:href="#/expression/Source"><text x="460" y="44">Source</text>
</a>
</g>
<path d="M495.5 40h10"></path>
<g>
<path d="M505.5 40h0"></path>
<path d="M837 40h0"></path>
<path d="M505.5 40a10 10 0 0 0 10 -10v0a10 10 0 0 1 10 -10"></path>
<g>
<path d="M525.5 20h291.5"></path>
</g>
<path d="M817 20a10 10 0 0 1 10 10v0a10 10 0 0 0 10 10"></path>
<path d="M505.5 40h20"></path>
<g>
<path d="M525.5 40h0"></path>
<path d="M817 40h0"></path>
<path d="M555.5 40h10"></path>
<g>
<path d="M565.5 40h0"></path>
<path d="M787 40h0"></path>
<path d="M565.5 40h20"></path>
<g class="terminal">
<path d="M585.5 40h0"></path>
<path d="M724.5 40h42.5"></path>
<rect x="585.5" y="29" width="139" height="22" rx="10" ry="10"></rect>
<text x="655" y="44">"IN BYTE MODE"</text>
</g>
<path d="M767 40h20"></path>
<path d="M565.5 40a10 10 0 0 1 10 10v10a10 10 0 0 0 10 10"></path>
<g class="terminal">
<path d="M585.5 70h0"></path>
<path d="M767 70h0"></path>
<rect x="585.5" y="59" width="181.5" height="22" rx="10" ry="10"></rect>
<text x="676.25" y="74">"IN CHARACTER MODE"</text>
</g>
<path d="M767 70a10 10 0 0 0 10 -10v-10a10 10 0 0 1 10 -10"></path>
</g>
<path d="M787 40h10"></path>
<path d="M555.5 40v50a10 10 0 0 0 10 10"></path>
<g>
<path d="M565.5 100h0"></path>
<path d="M787 100h0"></path>
<g class="terminal">
<path d="M565.5 100h0"></path>
<path d="M696 100h0"></path>
<rect x="565.5" y="89" width="130.5" height="22" rx="10" ry="10"></rect>
<text x="630.75" y="104">"STARTING AT"</text>
</g>
<path d="M696 100h10"></path>
<path d="M706 100h10"></path>
<g class="non-terminal">
<path d="M716 100h0"></path>
<path d="M787 100h0"></path>
<rect x="716" y="89" width="71" height="22"></rect>
<a xlink:href="#/expression/Source"><text x="751.5" y="104">Source</text>
</a>
</g>
</g>
<path d="M787 100a10 10 0 0 0 10 -10v-50"></path>
<path d="M555.5 40v80a10 10 0 0 0 10 10"></path>
<g>
<path d="M565.5 130h0"></path>
<path d="M770 130h17"></path>
<g class="terminal">
<path d="M565.5 130h0"></path>
<path d="M679 130h0"></path>
<rect x="565.5" y="119" width="113.5" height="22" rx="10" ry="10"></rect>
<text x="622.25" y="134">"ENDING AT"</text>
</g>
<path d="M679 130h10"></path>
<path d="M689 130h10"></path>
<g class="non-terminal">
<path d="M699 130h0"></path>
<path d="M770 130h0"></path>
<rect x="699" y="119" width="71" height="22"></rect>
<a xlink:href="#/expression/Source"><text x="734.5" y="134">Source</text>
</a>
</g>
</g>
<path d="M787 130a10 10 0 0 0 10 -10v-80"></path>
<path d="M555.5 40v110a10 10 0 0 0 10 10"></path>
<g class="terminal">
<path d="M565.5 160h0"></path>
<path d="M670.5 160h116.5"></path>
<rect x="565.5" y="149" width="105" height="22" rx="10" ry="10"></rect>
<text x="618" y="164">"AND MARK"</text>
</g>
<path d="M787 160a10 10 0 0 0 10 -10v-110"></path>
<g class="diagram-text">
<title>take one or more branches, once each, in any order</title>
<path d="M 555.5 30 h -26 a 4 4 0 0 0 -4 4 v 12 a 4 4 0 0 0 4 4 h 26 z" class="diagram-text"></path>
<text x="540.5" y="44" class="diagram-text">1+</text>
<path d="M 797 30 h 16 a 4 4 0 0 1 4 4 v 12 a 4 4 0 0 1 -4 4 h -16 z" class="diagram-text"></path>
<path d="M 804 38 a 4 4 0 1 0 6 -1 m 2.75 -1 h -4 v 4 m 0 -3 h 2" style="stroke-width: 1.75"></path>
</g>
</g>
<path d="M817 40h20"></path>
</g>
</g>
</g>
<path d="M837 40h10"></path>
<path d="M 847 40 h 20 m -10 -10 v 20 m 10 -20 v 20"></path>
</g>
</svg>
