<svg xmlns="http://www.w3.org/2000/svg" xmlns:xlink="http://www.w3.org/1999/xlink" class="railroad-diagram" width="478" height="62" viewBox="0 0 478 62">
<defs>
<style type="text/css"><![CDATA[
path {
stroke-width: 3;
stroke: black;
fill: rgba(0,0,0,0);
}
text {
font: bold 14px monospace;
text-anchor: middle;
}
text.diagram-text {
font-size: 12px;
}
a {
fill: blue;
}
text.diagram-arrow {
font-size: 16px;
}
text.label {
text-anchor: start;
}
text.comment {
font: italic 12px monospace;
}
rect {
stroke-width: 3;
stroke: black;
fill: #BCBCBC;
}
path.diagram-text {
stroke-width: 3;
stroke: black;
fill: #BCBCBC;
cursor: help;
}
]]></style>
</defs>
<g transform="translate(.5 .5)">
<g>
<path d="M20 21v20m10 -20v20m-10 -10h20"></path>
</g>
<path d="M40 31h10"></path>
<g>
<path d="M50 31h0"></path>
<path d="M428 31h0"></path>
<g class="terminal">
<path d="M50 31h0"></path>
<path d="M155 31h0"></path>
<rect x="50" y="20" width="105" height="22" rx="10" ry="10"></rect>
<text x="102.5" y="35">"SUBTRACT"</text>
</g>
<path d="M155 31h10"></path>
<path d="M165 31h10"></path>
<g class="non-terminal">
<path d="M175 31h0"></path>
<path d="M246 31h0"></path>
<rect x="175" y="20" width="71" height="22"></rect>
<a xlink:href="#/expression/Source"><text x="210.5" y="35">Source</text>
</a>
</g>
<path d="M246 31h10"></path>
<path d="M256 31h10"></path>
<g class="terminal">
<path d="M266 31h0"></path>
<path d="M337 31h0"></path>
<rect x="266" y="20" width="71" height="22" rx="10" ry="10"></rect>
<text x="301.5" y="35">"FROM"</text>
</g>
<path d="M337 31h10"></path>
<path d="M347 31h10"></path>
<g class="non-terminal">
<path d="M357 31h0"></path>
<path d="M428 31h0"></path>
<rect x="357" y="20" width="71" height="22"></rect>
<a xlink:href="#/expression/Target"><text x="392.5" y="35">Target</text>
</a>
</g>
</g>
<path d="M428 31h10"></path>
<path d="M 438 31 h 20 m -10 -10 v 20 m 10 -20 v 20"></path>
</g>
</svg>
