<svg xmlns="http://www.w3.org/2000/svg" xmlns:xlink="http://www.w3.org/1999/xlink" class="railroad-diagram" width="796.5" height="281" viewBox="0 0 796.5 281">
<defs>
<style type="text/css"><![CDATA[
path {
stroke-width: 3;
stroke: black;
fill: rgba(0,0,0,0);
}
text {
font: bold 14px monospace;
text-anchor: middle;
}
text.diagram-text {
font-size: 12px;
}
a {
fill: blue;
}
text.diagram-arrow {
font-size: 16px;
}
text.label {
text-anchor: start;
}
text.comment {
font: italic 12px monospace;
}
rect {
stroke-width: 3;
stroke: black;
fill: #BCBCBC;
}
path.diagram-text {
stroke-width: 3;
stroke: black;
fill: #BCBCBC;
cursor: help;
}
]]></style>
</defs>
<g transform="translate(.5 .5)">
<g>
<path d="M20 30v20m10 -20v20m-10 -10h20"></path>
</g>
<path d="M40 40h10"></path>
<g>
<path d="M50 40h0"></path>
<path d="M746.5 40h0"></path>
<g>
<path d="M50 40h0"></path>
<path d="M123 40h0"></path>
<text x="86.5" y="45" class="comment">not Cloud</text>
</g>
<path d="M123 40h10"></path>
<path d="M133 40h10"></path>
<g>
<path d="M143 40h0"></path>
<path d="M746.5 40h0"></path>
<g class="terminal">
<path d="M143 40h0"></path>
<path d="M341.5 40h0"></path>
<rect x="143" y="29" width="198.5" height="22" rx="10" ry="10"></rect>
<text x="242.25" y="44">"AT SELECTION-SCREEN"</text>
</g>
<path d="M341.5 40h10"></path>
<g>
<path d="M351.5 40h0"></path>
<path d="M746.5 40h0"></path>
<path d="M351.5 40a10 10 0 0 0 10 -10v0a10 10 0 0 1 10 -10"></path>
<g>
<path d="M371.5 20h355"></path>
</g>
<path d="M726.5 20a10 10 0 0 1 10 10v0a10 10 0 0 0 10 10"></path>
<path d="M351.5 40h20"></path>
<g>
<path d="M371.5 40h0"></path>
<path d="M726.5 40h0"></path>
<path d="M371.5 40h20"></path>
<g class="terminal">
<path d="M391.5 40h0"></path>
<path d="M479.5 40h227"></path>
<rect x="391.5" y="29" width="88" height="22" rx="10" ry="10"></rect>
<text x="435.5" y="44">"OUTPUT"</text>
</g>
<path d="M706.5 40h20"></path>
<path d="M371.5 40a10 10 0 0 1 10 10v10a10 10 0 0 0 10 10"></path>
<g>
<path d="M391.5 70h0"></path>
<path d="M706.5 70h0"></path>
<g class="terminal">
<path d="M391.5 70h0"></path>
<path d="M598.5 70h0"></path>
<rect x="391.5" y="59" width="207" height="22" rx="10" ry="10"></rect>
<text x="495" y="74">"ON VALUE-REQUEST FOR"</text>
</g>
<path d="M598.5 70h10"></path>
<path d="M608.5 70h10"></path>
<g class="non-terminal">
<path d="M618.5 70h0"></path>
<path d="M706.5 70h0"></path>
<rect x="618.5" y="59" width="88" height="22"></rect>
<a xlink:href="#/expression/FieldSub"><text x="662.5" y="74">FieldSub</text>
</a>
</g>
</g>
<path d="M706.5 70a10 10 0 0 0 10 -10v-10a10 10 0 0 1 10 -10"></path>
<path d="M371.5 40a10 10 0 0 1 10 10v40a10 10 0 0 0 10 10"></path>
<g>
<path d="M391.5 100h0"></path>
<path d="M681 100h25.5"></path>
<g class="terminal">
<path d="M391.5 100h0"></path>
<path d="M598.5 100h0"></path>
<rect x="391.5" y="89" width="207" height="22" rx="10" ry="10"></rect>
<text x="495" y="104">"ON RADIOBUTTON GROUP"</text>
</g>
<path d="M598.5 100h10"></path>
<path d="M608.5 100h10"></path>
<g class="non-terminal">
<path d="M618.5 100h0"></path>
<path d="M681 100h0"></path>
<rect x="618.5" y="89" width="62.5" height="22"></rect>
<a xlink:href="#/expression/Field"><text x="649.75" y="104">Field</text>
</a>
</g>
</g>
<path d="M706.5 100a10 10 0 0 0 10 -10v-40a10 10 0 0 1 10 -10"></path>
<path d="M371.5 40a10 10 0 0 1 10 10v70a10 10 0 0 0 10 10"></path>
<g class="terminal">
<path d="M391.5 130h0"></path>
<path d="M556 130h150.5"></path>
<rect x="391.5" y="119" width="164.5" height="22" rx="10" ry="10"></rect>
<text x="473.75" y="134">"ON EXIT-COMMAND"</text>
</g>
<path d="M706.5 130a10 10 0 0 0 10 -10v-70a10 10 0 0 1 10 -10"></path>
<path d="M371.5 40a10 10 0 0 1 10 10v100a10 10 0 0 0 10 10"></path>
<g>
<path d="M391.5 160h0"></path>
<path d="M553.5 160h153"></path>
<g class="terminal">
<path d="M391.5 160h0"></path>
<path d="M445.5 160h0"></path>
<rect x="391.5" y="149" width="54" height="22" rx="10" ry="10"></rect>
<text x="418.5" y="164">"ON"</text>
</g>
<path d="M445.5 160h10"></path>
<path d="M455.5 160h10"></path>
<g class="non-terminal">
<path d="M465.5 160h0"></path>
<path d="M553.5 160h0"></path>
<rect x="465.5" y="149" width="88" height="22"></rect>
<a xlink:href="#/expression/FieldSub"><text x="509.5" y="164">FieldSub</text>
</a>
</g>
</g>
<path d="M706.5 160a10 10 0 0 0 10 -10v-100a10 10 0 0 1 10 -10"></path>
<path d="M371.5 40a10 10 0 0 1 10 10v130a10 10 0 0 0 10 10"></path>
<g>
<path d="M391.5 190h0"></path>
<path d="M587.5 190h119"></path>
<g class="terminal">
<path d="M391.5 190h0"></path>
<path d="M505 190h0"></path>
<rect x="391.5" y="179" width="113.5" height="22" rx="10" ry="10"></rect>
<text x="448.25" y="194">"ON END OF"</text>
</g>
<path d="M505 190h10"></path>
<path d="M515 190h10"></path>
<g class="non-terminal">
<path d="M525 190h0"></path>
<path d="M587.5 190h0"></path>
<rect x="525" y="179" width="62.5" height="22"></rect>
<a xlink:href="#/expression/Field"><text x="556.25" y="194">Field</text>
</a>
</g>
</g>
<path d="M706.5 190a10 10 0 0 0 10 -10v-130a10 10 0 0 1 10 -10"></path>
<path d="M371.5 40a10 10 0 0 1 10 10v160a10 10 0 0 0 10 10"></path>
<g>
<path d="M391.5 220h0"></path>
<path d="M698 220h8.5"></path>
<g class="terminal">
<path d="M391.5 220h0"></path>
<path d="M590 220h0"></path>
<rect x="391.5" y="209" width="198.5" height="22" rx="10" ry="10"></rect>
<text x="490.75" y="224">"ON HELP-REQUEST FOR"</text>
</g>
<path d="M590 220h10"></path>
<path d="M600 220h10"></path>
<g class="non-terminal">
<path d="M610 220h0"></path>
<path d="M698 220h0"></path>
<rect x="610" y="209" width="88" height="22"></rect>
<a xlink:href="#/expression/FieldSub"><text x="654" y="224">FieldSub</text>
</a>
</g>
</g>
<path d="M706.5 220a10 10 0 0 0 10 -10v-160a10 10 0 0 1 10 -10"></path>
<path d="M371.5 40a10 10 0 0 1 10 10v190a10 10 0 0 0 10 10"></path>
<g>
<path d="M391.5 250h0"></path>
<path d="M579 250h127.5"></path>
<g class="terminal">
<path d="M391.5 250h0"></path>
<path d="M496.5 250h0"></path>
<rect x="391.5" y="239" width="105" height="22" rx="10" ry="10"></rect>
<text x="444" y="254">"ON BLOCK"</text>
</g>
<path d="M496.5 250h10"></path>
<path d="M506.5 250h10"></path>
<g class="terminal">
<path d="M516.5 250h0"></path>
<path d="M579 250h0"></path>
<rect x="516.5" y="239" width="62.5" height="22" rx="10" ry="10"></rect>
<text x="547.75" y="254">^\w+$</text>
</g>
</g>
<path d="M706.5 250a10 10 0 0 0 10 -10v-190a10 10 0 0 1 10 -10"></path>
</g>
<path d="M726.5 40h20"></path>
</g>
</g>
</g>
<path d="M746.5 40h10"></path>
<path d="M 756.5 40 h 20 m -10 -10 v 20 m 10 -20 v 20"></path>
</g>
</svg>
