<svg xmlns="http://www.w3.org/2000/svg" xmlns:xlink="http://www.w3.org/1999/xlink" class="railroad-diagram" width="656.5" height="71" viewBox="0 0 656.5 71">
<defs>
<style type="text/css"><![CDATA[
path {
stroke-width: 3;
stroke: black;
fill: rgba(0,0,0,0);
}
text {
font: bold 14px monospace;
text-anchor: middle;
}
text.diagram-text {
font-size: 12px;
}
a {
fill: blue;
}
text.diagram-arrow {
font-size: 16px;
}
text.label {
text-anchor: start;
}
text.comment {
font: italic 12px monospace;
}
rect {
stroke-width: 3;
stroke: black;
fill: #BCBCBC;
}
path.diagram-text {
stroke-width: 3;
stroke: black;
fill: #BCBCBC;
cursor: help;
}
]]></style>
</defs>
<g transform="translate(.5 .5)">
<g>
<path d="M20 30v20m10 -20v20m-10 -10h20"></path>
</g>
<path d="M40 40h10"></path>
<g>
<path d="M50 40h0"></path>
<path d="M606.5 40h0"></path>
<g>
<path d="M50 40h0"></path>
<path d="M123 40h0"></path>
<text x="86.5" y="45" class="comment">not Cloud</text>
</g>
<path d="M123 40h10"></path>
<path d="M133 40h10"></path>
<g>
<path d="M143 40h0"></path>
<path d="M606.5 40h0"></path>
<g class="terminal">
<path d="M143 40h0"></path>
<path d="M239.5 40h0"></path>
<rect x="143" y="29" width="96.5" height="22" rx="10" ry="10"></rect>
<text x="191.25" y="44">"COMPUTE"</text>
</g>
<path d="M239.5 40h10"></path>
<g>
<path d="M249.5 40h0"></path>
<path d="M369 40h0"></path>
<path d="M249.5 40a10 10 0 0 0 10 -10v0a10 10 0 0 1 10 -10"></path>
<g>
<path d="M269.5 20h79.5"></path>
</g>
<path d="M349 20a10 10 0 0 1 10 10v0a10 10 0 0 0 10 10"></path>
<path d="M249.5 40h20"></path>
<g class="terminal">
<path d="M269.5 40h0"></path>
<path d="M349 40h0"></path>
<rect x="269.5" y="29" width="79.5" height="22" rx="10" ry="10"></rect>
<text x="309.25" y="44">"EXACT"</text>
</g>
<path d="M349 40h20"></path>
</g>
<path d="M369 40h10"></path>
<g class="non-terminal">
<path d="M379 40h0"></path>
<path d="M450 40h0"></path>
<rect x="379" y="29" width="71" height="22"></rect>
<a xlink:href="#/expression/Target"><text x="414.5" y="44">Target</text>
</a>
</g>
<path d="M450 40h10"></path>
<path d="M460 40h10"></path>
<g class="terminal">
<path d="M470 40h0"></path>
<path d="M515.5 40h0"></path>
<rect x="470" y="29" width="45.5" height="22" rx="10" ry="10"></rect>
<text x="492.75" y="44">"="</text>
</g>
<path d="M515.5 40h10"></path>
<path d="M525.5 40h10"></path>
<g class="non-terminal">
<path d="M535.5 40h0"></path>
<path d="M606.5 40h0"></path>
<rect x="535.5" y="29" width="71" height="22"></rect>
<a xlink:href="#/expression/Source"><text x="571" y="44">Source</text>
</a>
</g>
</g>
</g>
<path d="M606.5 40h10"></path>
<path d="M 616.5 40 h 20 m -10 -10 v 20 m 10 -20 v 20"></path>
</g>
</svg>
