<svg xmlns="http://www.w3.org/2000/svg" xmlns:xlink="http://www.w3.org/1999/xlink" class="railroad-diagram" width="717.5" height="122" viewBox="0 0 717.5 122">
<defs>
<style type="text/css"><![CDATA[
path {
stroke-width: 3;
stroke: black;
fill: rgba(0,0,0,0);
}
text {
font: bold 14px monospace;
text-anchor: middle;
}
text.diagram-text {
font-size: 12px;
}
a {
fill: blue;
}
text.diagram-arrow {
font-size: 16px;
}
text.label {
text-anchor: start;
}
text.comment {
font: italic 12px monospace;
}
rect {
stroke-width: 3;
stroke: black;
fill: #BCBCBC;
}
path.diagram-text {
stroke-width: 3;
stroke: black;
fill: #BCBCBC;
cursor: help;
}
]]></style>
</defs>
<g transform="translate(.5 .5)">
<g>
<path d="M20 21v20m10 -20v20m-10 -10h20"></path>
</g>
<path d="M40 31h10"></path>
<g>
<path d="M50 31h0"></path>
<path d="M667.5 31h0"></path>
<g>
<path d="M50 31h0"></path>
<path d="M123 31h0"></path>
<text x="86.5" y="36" class="comment">not Cloud</text>
</g>
<path d="M123 31h10"></path>
<path d="M133 31h10"></path>
<g>
<path d="M143 31h0"></path>
<path d="M667.5 31h0"></path>
<g class="terminal">
<path d="M143 31h0"></path>
<path d="M290.5 31h0"></path>
<rect x="143" y="20" width="147.5" height="22" rx="10" ry="10"></rect>
<text x="216.75" y="35">"READ TEXTPOOL"</text>
</g>
<path d="M290.5 31h10"></path>
<path d="M300.5 31h10"></path>
<g class="non-terminal">
<path d="M310.5 31h0"></path>
<path d="M381.5 31h0"></path>
<rect x="310.5" y="20" width="71" height="22"></rect>
<a xlink:href="#/expression/Source"><text x="346" y="35">Source</text>
</a>
</g>
<path d="M381.5 31h10"></path>
<path d="M391.5 31h10"></path>
<g>
<path d="M401.5 31h0"></path>
<path d="M667.5 31h0"></path>
<path d="M431.5 31h10"></path>
<g>
<path d="M441.5 31h0"></path>
<path d="M603.5 31h34"></path>
<g class="terminal">
<path d="M441.5 31h0"></path>
<path d="M512.5 31h0"></path>
<rect x="441.5" y="20" width="71" height="22" rx="10" ry="10"></rect>
<text x="477" y="35">"INTO"</text>
</g>
<path d="M512.5 31h10"></path>
<path d="M522.5 31h10"></path>
<g class="non-terminal">
<path d="M532.5 31h0"></path>
<path d="M603.5 31h0"></path>
<rect x="532.5" y="20" width="71" height="22"></rect>
<a xlink:href="#/expression/Target"><text x="568" y="35">Target</text>
</a>
</g>
</g>
<path d="M637.5 31h10"></path>
<path d="M431.5 31v20a10 10 0 0 0 10 10"></path>
<g>
<path d="M441.5 61h0"></path>
<path d="M637.5 61h0"></path>
<g class="terminal">
<path d="M441.5 61h0"></path>
<path d="M546.5 61h0"></path>
<rect x="441.5" y="50" width="105" height="22" rx="10" ry="10"></rect>
<text x="494" y="65">"LANGUAGE"</text>
</g>
<path d="M546.5 61h10"></path>
<path d="M556.5 61h10"></path>
<g class="non-terminal">
<path d="M566.5 61h0"></path>
<path d="M637.5 61h0"></path>
<rect x="566.5" y="50" width="71" height="22"></rect>
<a xlink:href="#/expression/Source"><text x="602" y="65">Source</text>
</a>
</g>
</g>
<path d="M637.5 61a10 10 0 0 0 10 -10v-20"></path>
<path d="M431.5 31v50a10 10 0 0 0 10 10"></path>
<g>
<path d="M441.5 91h0"></path>
<path d="M612 91h25.5"></path>
<g class="terminal">
<path d="M441.5 91h0"></path>
<path d="M521 91h0"></path>
<rect x="441.5" y="80" width="79.5" height="22" rx="10" ry="10"></rect>
<text x="481.25" y="95">"STATE"</text>
</g>
<path d="M521 91h10"></path>
<path d="M531 91h10"></path>
<g class="non-terminal">
<path d="M541 91h0"></path>
<path d="M612 91h0"></path>
<rect x="541" y="80" width="71" height="22"></rect>
<a xlink:href="#/expression/Source"><text x="576.5" y="95">Source</text>
</a>
</g>
</g>
<path d="M637.5 91a10 10 0 0 0 10 -10v-50"></path>
<g class="diagram-text">
<title>take one or more branches, once each, in any order</title>
<path d="M 431.5 21 h -26 a 4 4 0 0 0 -4 4 v 12 a 4 4 0 0 0 4 4 h 26 z" class="diagram-text"></path>
<text x="416.5" y="35" class="diagram-text">1+</text>
<path d="M 647.5 21 h 16 a 4 4 0 0 1 4 4 v 12 a 4 4 0 0 1 -4 4 h -16 z" class="diagram-text"></path>
<path d="M 654.5 29 a 4 4 0 1 0 6 -1 m 2.75 -1 h -4 v 4 m 0 -3 h 2" style="stroke-width: 1.75"></path>
</g>
</g>
</g>
</g>
<path d="M667.5 31h10"></path>
<path d="M 677.5 31 h 20 m -10 -10 v 20 m 10 -20 v 20"></path>
</g>
</svg>
