<svg xmlns="http://www.w3.org/2000/svg" xmlns:xlink="http://www.w3.org/1999/xlink" class="railroad-diagram" width="1039.5" height="209" viewBox="0 0 1039.5 209">
<defs>
<style type="text/css"><![CDATA[
path {
stroke-width: 3;
stroke: black;
fill: rgba(0,0,0,0);
}
text {
font: bold 14px monospace;
text-anchor: middle;
}
text.diagram-text {
font-size: 12px;
}
a {
fill: blue;
}
text.diagram-arrow {
font-size: 16px;
}
text.label {
text-anchor: start;
}
text.comment {
font: italic 12px monospace;
}
rect {
stroke-width: 3;
stroke: black;
fill: #BCBCBC;
}
path.diagram-text {
stroke-width: 3;
stroke: black;
fill: #BCBCBC;
cursor: help;
}
]]></style>
</defs>
<g transform="translate(.5 .5)">
<g>
<path d="M20 30v20m10 -20v20m-10 -10h20"></path>
</g>
<path d="M40 40h10"></path>
<g>
<path d="M50 40h0"></path>
<path d="M989.5 40h0"></path>
<g>
<path d="M50 40h0"></path>
<path d="M123 40h0"></path>
<text x="86.5" y="45" class="comment">not Cloud</text>
</g>
<path d="M123 40h10"></path>
<path d="M133 40h10"></path>
<g>
<path d="M143 40h0"></path>
<path d="M989.5 40h0"></path>
<g class="terminal">
<path d="M143 40h0"></path>
<path d="M214 40h0"></path>
<rect x="143" y="29" width="71" height="22" rx="10" ry="10"></rect>
<text x="178.5" y="44">"READ"</text>
</g>
<path d="M214 40h10"></path>
<g>
<path d="M224 40h0"></path>
<path d="M426 40h0"></path>
<path d="M224 40h20"></path>
<g class="terminal">
<path d="M244 40h0"></path>
<path d="M383 40h23"></path>
<rect x="244" y="29" width="139" height="22" rx="10" ry="10"></rect>
<text x="313.5" y="44">"CURRENT LINE"</text>
</g>
<path d="M406 40h20"></path>
<path d="M224 40a10 10 0 0 1 10 10v10a10 10 0 0 0 10 10"></path>
<g>
<path d="M244 70h0"></path>
<path d="M406 70h0"></path>
<g class="terminal">
<path d="M244 70h0"></path>
<path d="M315 70h0"></path>
<rect x="244" y="59" width="71" height="22" rx="10" ry="10"></rect>
<text x="279.5" y="74">"LINE"</text>
</g>
<path d="M315 70h10"></path>
<path d="M325 70h10"></path>
<g class="non-terminal">
<path d="M335 70h0"></path>
<path d="M406 70h0"></path>
<rect x="335" y="59" width="71" height="22"></rect>
<a xlink:href="#/expression/Source"><text x="370.5" y="74">Source</text>
</a>
</g>
</g>
<path d="M406 70a10 10 0 0 0 10 -10v-10a10 10 0 0 1 10 -10"></path>
</g>
<g>
<path d="M426 40h0"></path>
<path d="M989.5 40h0"></path>
<path d="M426 40a10 10 0 0 0 10 -10v0a10 10 0 0 1 10 -10"></path>
<g>
<path d="M446 20h523.5"></path>
</g>
<path d="M969.5 20a10 10 0 0 1 10 10v0a10 10 0 0 0 10 10"></path>
<path d="M426 40h20"></path>
<g>
<path d="M446 40h0"></path>
<path d="M969.5 40h0"></path>
<path d="M476 40h10"></path>
<g>
<path d="M486 40h0"></path>
<path d="M741.5 40h198"></path>
<g class="terminal">
<path d="M486 40h0"></path>
<path d="M650.5 40h0"></path>
<rect x="486" y="29" width="164.5" height="22" rx="10" ry="10"></rect>
<text x="568.25" y="44">"LINE VALUE INTO"</text>
</g>
<path d="M650.5 40h10"></path>
<path d="M660.5 40h10"></path>
<g class="non-terminal">
<path d="M670.5 40h0"></path>
<path d="M741.5 40h0"></path>
<rect x="670.5" y="29" width="71" height="22"></rect>
<a xlink:href="#/expression/Target"><text x="706" y="44">Target</text>
</a>
</g>
</g>
<path d="M939.5 40h10"></path>
<path d="M476 40v20a10 10 0 0 0 10 10"></path>
<g>
<path d="M486 70h0"></path>
<path d="M656.5 70h283"></path>
<g class="terminal">
<path d="M486 70h0"></path>
<path d="M565.5 70h0"></path>
<rect x="486" y="59" width="79.5" height="22" rx="10" ry="10"></rect>
<text x="525.75" y="74">"INDEX"</text>
</g>
<path d="M565.5 70h10"></path>
<path d="M575.5 70h10"></path>
<g class="non-terminal">
<path d="M585.5 70h0"></path>
<path d="M656.5 70h0"></path>
<rect x="585.5" y="59" width="71" height="22"></rect>
<a xlink:href="#/expression/Source"><text x="621" y="74">Source</text>
</a>
</g>
</g>
<path d="M939.5 70a10 10 0 0 0 10 -10v-20"></path>
<path d="M476 40v59a10 10 0 0 0 10 10"></path>
<g>
<path d="M486 109h0"></path>
<path d="M939.5 109h0"></path>
<g class="terminal">
<path d="M486 109h0"></path>
<path d="M616.5 109h0"></path>
<rect x="486" y="98" width="130.5" height="22" rx="10" ry="10"></rect>
<text x="551.25" y="113">"FIELD VALUE"</text>
</g>
<path d="M616.5 109h10"></path>
<path d="M626.5 109h10"></path>
<g>
<path d="M636.5 109h0"></path>
<path d="M939.5 109h0"></path>
<path d="M636.5 109h10"></path>
<g>
<path d="M646.5 109h0"></path>
<path d="M929.5 109h0"></path>
<g class="non-terminal">
<path d="M646.5 109h0"></path>
<path d="M717.5 109h0"></path>
<rect x="646.5" y="98" width="71" height="22"></rect>
<a xlink:href="#/expression/Target"><text x="682" y="113">Target</text>
</a>
</g>
<path d="M717.5 109h10"></path>
<g>
<path d="M727.5 109h0"></path>
<path d="M929.5 109h0"></path>
<path d="M727.5 109a10 10 0 0 0 10 -10v0a10 10 0 0 1 10 -10"></path>
<g>
<path d="M747.5 89h162"></path>
</g>
<path d="M909.5 89a10 10 0 0 1 10 10v0a10 10 0 0 0 10 10"></path>
<path d="M727.5 109h20"></path>
<g>
<path d="M747.5 109h0"></path>
<path d="M909.5 109h0"></path>
<g class="terminal">
<path d="M747.5 109h0"></path>
<path d="M818.5 109h0"></path>
<rect x="747.5" y="98" width="71" height="22" rx="10" ry="10"></rect>
<text x="783" y="113">"INTO"</text>
</g>
<path d="M818.5 109h10"></path>
<path d="M828.5 109h10"></path>
<g class="non-terminal">
<path d="M838.5 109h0"></path>
<path d="M909.5 109h0"></path>
<rect x="838.5" y="98" width="71" height="22"></rect>
<a xlink:href="#/expression/Target"><text x="874" y="113">Target</text>
</a>
</g>
</g>
<path d="M909.5 109h20"></path>
</g>
</g>
<path d="M929.5 109h10"></path>
<path d="M646.5 109a10 10 0 0 0 -10 10v0a10 10 0 0 0 10 10"></path>
<g>
<path d="M646.5 129h283"></path>
</g>
<path d="M929.5 129a10 10 0 0 0 10 -10v0a10 10 0 0 0 -10 -10"></path>
</g>
</g>
<path d="M939.5 109a10 10 0 0 0 10 -10v-59"></path>
<path d="M476 40v98a10 10 0 0 0 10 10"></path>
<g>
<path d="M486 148h0"></path>
<path d="M673.5 148h266"></path>
<g class="terminal">
<path d="M486 148h0"></path>
<path d="M582.5 148h0"></path>
<rect x="486" y="137" width="96.5" height="22" rx="10" ry="10"></rect>
<text x="534.25" y="152">"OF PAGE"</text>
</g>
<path d="M582.5 148h10"></path>
<path d="M592.5 148h10"></path>
<g class="non-terminal">
<path d="M602.5 148h0"></path>
<path d="M673.5 148h0"></path>
<rect x="602.5" y="137" width="71" height="22"></rect>
<a xlink:href="#/expression/Source"><text x="638" y="152">Source</text>
</a>
</g>
</g>
<path d="M939.5 148a10 10 0 0 0 10 -10v-98"></path>
<path d="M476 40v128a10 10 0 0 0 10 10"></path>
<g class="terminal">
<path d="M486 178h0"></path>
<path d="M650.5 178h289"></path>
<rect x="486" y="167" width="164.5" height="22" rx="10" ry="10"></rect>
<text x="568.25" y="182">"OF CURRENT PAGE"</text>
</g>
<path d="M939.5 178a10 10 0 0 0 10 -10v-128"></path>
<g class="diagram-text">
<title>take one or more branches, once each, in any order</title>
<path d="M 476 30 h -26 a 4 4 0 0 0 -4 4 v 12 a 4 4 0 0 0 4 4 h 26 z" class="diagram-text"></path>
<text x="461" y="44" class="diagram-text">1+</text>
<path d="M 949.5 30 h 16 a 4 4 0 0 1 4 4 v 12 a 4 4 0 0 1 -4 4 h -16 z" class="diagram-text"></path>
<path d="M 956.5 38 a 4 4 0 1 0 6 -1 m 2.75 -1 h -4 v 4 m 0 -3 h 2" style="stroke-width: 1.75"></path>
</g>
</g>
<path d="M969.5 40h20"></path>
</g>
</g>
</g>
<path d="M989.5 40h10"></path>
<path d="M 999.5 40 h 20 m -10 -10 v 20 m 10 -20 v 20"></path>
</g>
</svg>
