<svg xmlns="http://www.w3.org/2000/svg" xmlns:xlink="http://www.w3.org/1999/xlink" class="railroad-diagram" width="546" height="62" viewBox="0 0 546 62">
<defs>
<style type="text/css"><![CDATA[
path {
stroke-width: 3;
stroke: black;
fill: rgba(0,0,0,0);
}
text {
font: bold 14px monospace;
text-anchor: middle;
}
text.diagram-text {
font-size: 12px;
}
a {
fill: blue;
}
text.diagram-arrow {
font-size: 16px;
}
text.label {
text-anchor: start;
}
text.comment {
font: italic 12px monospace;
}
rect {
stroke-width: 3;
stroke: black;
fill: #BCBCBC;
}
path.diagram-text {
stroke-width: 3;
stroke: black;
fill: #BCBCBC;
cursor: help;
}
]]></style>
</defs>
<g transform="translate(.5 .5)">
<g>
<path d="M20 21v20m10 -20v20m-10 -10h20"></path>
</g>
<path d="M40 31h10"></path>
<g>
<path d="M50 31h0"></path>
<path d="M496 31h0"></path>
<g class="terminal">
<path d="M50 31h0"></path>
<path d="M223 31h0"></path>
<rect x="50" y="20" width="173" height="22" rx="10" ry="10"></rect>
<text x="136.5" y="35">"GET REFERENCE OF"</text>
</g>
<path d="M223 31h10"></path>
<path d="M233 31h10"></path>
<g class="non-terminal">
<path d="M243 31h0"></path>
<path d="M314 31h0"></path>
<rect x="243" y="20" width="71" height="22"></rect>
<a xlink:href="#/expression/Source"><text x="278.5" y="35">Source</text>
</a>
</g>
<path d="M314 31h10"></path>
<path d="M324 31h10"></path>
<g class="terminal">
<path d="M334 31h0"></path>
<path d="M405 31h0"></path>
<rect x="334" y="20" width="71" height="22" rx="10" ry="10"></rect>
<text x="369.5" y="35">"INTO"</text>
</g>
<path d="M405 31h10"></path>
<path d="M415 31h10"></path>
<g class="non-terminal">
<path d="M425 31h0"></path>
<path d="M496 31h0"></path>
<rect x="425" y="20" width="71" height="22"></rect>
<a xlink:href="#/expression/Target"><text x="460.5" y="35">Target</text>
</a>
</g>
</g>
<path d="M496 31h10"></path>
<path d="M 506 31 h 20 m -10 -10 v 20 m 10 -20 v 20"></path>
</g>
</svg>
