<svg xmlns="http://www.w3.org/2000/svg" xmlns:xlink="http://www.w3.org/1999/xlink" class="railroad-diagram" width="1166" height="488" viewBox="0 0 1166 488">
<defs>
<style type="text/css"><![CDATA[
path {
stroke-width: 3;
stroke: black;
fill: rgba(0,0,0,0);
}
text {
font: bold 14px monospace;
text-anchor: middle;
}
text.diagram-text {
font-size: 12px;
}
a {
fill: blue;
}
text.diagram-arrow {
font-size: 16px;
}
text.label {
text-anchor: start;
}
text.comment {
font: italic 12px monospace;
}
rect {
stroke-width: 3;
stroke: black;
fill: #BCBCBC;
}
path.diagram-text {
stroke-width: 3;
stroke: black;
fill: #BCBCBC;
cursor: help;
}
]]></style>
</defs>
<g transform="translate(.5 .5)">
<g>
<path d="M20 30v20m10 -20v20m-10 -10h20"></path>
</g>
<path d="M40 40h10"></path>
<g>
<path d="M50 40h0"></path>
<path d="M1116 40h0"></path>
<g>
<path d="M50 40h0"></path>
<path d="M123 40h0"></path>
<text x="86.5" y="45" class="comment">not Cloud</text>
</g>
<path d="M123 40h10"></path>
<path d="M133 40h10"></path>
<g>
<path d="M143 40h0"></path>
<path d="M1116 40h0"></path>
<g class="terminal">
<path d="M143 40h0"></path>
<path d="M231 40h0"></path>
<rect x="143" y="29" width="88" height="22" rx="10" ry="10"></rect>
<text x="187" y="44">"MODIFY"</text>
</g>
<path d="M231 40h10"></path>
<g>
<path d="M241 40h0"></path>
<path d="M443 40h0"></path>
<path d="M241 40h20"></path>
<g class="terminal">
<path d="M261 40h0"></path>
<path d="M400 40h23"></path>
<rect x="261" y="29" width="139" height="22" rx="10" ry="10"></rect>
<text x="330.5" y="44">"CURRENT LINE"</text>
</g>
<path d="M423 40h20"></path>
<path d="M241 40a10 10 0 0 1 10 10v10a10 10 0 0 0 10 10"></path>
<g>
<path d="M261 70h0"></path>
<path d="M423 70h0"></path>
<g class="terminal">
<path d="M261 70h0"></path>
<path d="M332 70h0"></path>
<rect x="261" y="59" width="71" height="22" rx="10" ry="10"></rect>
<text x="296.5" y="74">"LINE"</text>
</g>
<path d="M332 70h10"></path>
<path d="M342 70h10"></path>
<g class="non-terminal">
<path d="M352 70h0"></path>
<path d="M423 70h0"></path>
<rect x="352" y="59" width="71" height="22"></rect>
<a xlink:href="#/expression/Source"><text x="387.5" y="74">Source</text>
</a>
</g>
</g>
<path d="M423 70a10 10 0 0 0 10 -10v-10a10 10 0 0 1 10 -10"></path>
</g>
<g>
<path d="M443 40h0"></path>
<path d="M1116 40h0"></path>
<path d="M443 40a10 10 0 0 0 10 -10v0a10 10 0 0 1 10 -10"></path>
<g>
<path d="M463 20h633"></path>
</g>
<path d="M1096 20a10 10 0 0 1 10 10v0a10 10 0 0 0 10 10"></path>
<path d="M443 40h20"></path>
<g>
<path d="M463 40h0"></path>
<path d="M1096 40h0"></path>
<path d="M493 40h10"></path>
<g>
<path d="M503 40h0"></path>
<path d="M673.5 40h392.5"></path>
<g class="terminal">
<path d="M503 40h0"></path>
<path d="M582.5 40h0"></path>
<rect x="503" y="29" width="79.5" height="22" rx="10" ry="10"></rect>
<text x="542.75" y="44">"INDEX"</text>
</g>
<path d="M582.5 40h10"></path>
<path d="M592.5 40h10"></path>
<g class="non-terminal">
<path d="M602.5 40h0"></path>
<path d="M673.5 40h0"></path>
<rect x="602.5" y="29" width="71" height="22"></rect>
<a xlink:href="#/expression/Source"><text x="638" y="44">Source</text>
</a>
</g>
</g>
<path d="M1066 40h10"></path>
<path d="M493 40v29a10 10 0 0 0 10 10"></path>
<g>
<path d="M503 79h0"></path>
<path d="M956.5 79h109.5"></path>
<g class="terminal">
<path d="M503 79h0"></path>
<path d="M633.5 79h0"></path>
<rect x="503" y="68" width="130.5" height="22" rx="10" ry="10"></rect>
<text x="568.25" y="83">"FIELD VALUE"</text>
</g>
<path d="M633.5 79h10"></path>
<path d="M643.5 79h10"></path>
<g>
<path d="M653.5 79h0"></path>
<path d="M956.5 79h0"></path>
<path d="M653.5 79h10"></path>
<g>
<path d="M663.5 79h0"></path>
<path d="M946.5 79h0"></path>
<g class="non-terminal">
<path d="M663.5 79h0"></path>
<path d="M734.5 79h0"></path>
<rect x="663.5" y="68" width="71" height="22"></rect>
<a xlink:href="#/expression/Source"><text x="699" y="83">Source</text>
</a>
</g>
<path d="M734.5 79h10"></path>
<g>
<path d="M744.5 79h0"></path>
<path d="M946.5 79h0"></path>
<path d="M744.5 79a10 10 0 0 0 10 -10v0a10 10 0 0 1 10 -10"></path>
<g>
<path d="M764.5 59h162"></path>
</g>
<path d="M926.5 59a10 10 0 0 1 10 10v0a10 10 0 0 0 10 10"></path>
<path d="M744.5 79h20"></path>
<g>
<path d="M764.5 79h0"></path>
<path d="M926.5 79h0"></path>
<g class="terminal">
<path d="M764.5 79h0"></path>
<path d="M835.5 79h0"></path>
<rect x="764.5" y="68" width="71" height="22" rx="10" ry="10"></rect>
<text x="800" y="83">"FROM"</text>
</g>
<path d="M835.5 79h10"></path>
<path d="M845.5 79h10"></path>
<g class="non-terminal">
<path d="M855.5 79h0"></path>
<path d="M926.5 79h0"></path>
<rect x="855.5" y="68" width="71" height="22"></rect>
<a xlink:href="#/expression/Source"><text x="891" y="83">Source</text>
</a>
</g>
</g>
<path d="M926.5 79h20"></path>
</g>
</g>
<path d="M946.5 79h10"></path>
<path d="M663.5 79a10 10 0 0 0 -10 10v0a10 10 0 0 0 10 10"></path>
<g>
<path d="M663.5 99h283"></path>
</g>
<path d="M946.5 99a10 10 0 0 0 10 -10v0a10 10 0 0 0 -10 -10"></path>
</g>
</g>
<path d="M1066 79a10 10 0 0 0 10 -10v-29"></path>
<path d="M493 40v77a10 10 0 0 0 10 10"></path>
<g>
<path d="M503 127h0"></path>
<path d="M1066 127h0"></path>
<g class="terminal">
<path d="M503 127h0"></path>
<path d="M642 127h0"></path>
<rect x="503" y="116" width="139" height="22" rx="10" ry="10"></rect>
<text x="572.5" y="131">"FIELD FORMAT"</text>
</g>
<path d="M642 127h10"></path>
<path d="M652 127h10"></path>
<g class="non-terminal">
<path d="M662 127h0"></path>
<path d="M733 127h0"></path>
<rect x="662" y="116" width="71" height="22"></rect>
<a xlink:href="#/expression/Source"><text x="697.5" y="131">Source</text>
</a>
</g>
<path d="M733 127h10"></path>
<g>
<path d="M743 127h0"></path>
<path d="M1066 127h0"></path>
<path d="M743 127a10 10 0 0 0 10 -10v0a10 10 0 0 1 10 -10"></path>
<g>
<path d="M763 107h283"></path>
</g>
<path d="M1046 107a10 10 0 0 1 10 10v0a10 10 0 0 0 10 10"></path>
<path d="M743 127h20"></path>
<g>
<path d="M763 127h0"></path>
<path d="M1046 127h0"></path>
<g>
<path d="M763 127h0"></path>
<path d="M899.5 127h0"></path>
<path d="M763 127h20"></path>
<g class="terminal">
<path d="M783 127h0"></path>
<path d="M879.5 127h0"></path>
<rect x="783" y="116" width="96.5" height="22" rx="10" ry="10"></rect>
<text x="831.25" y="131">"INVERSE"</text>
</g>
<path d="M879.5 127h20"></path>
<path d="M763 127a10 10 0 0 1 10 10v10a10 10 0 0 0 10 10"></path>
<g class="terminal">
<path d="M783 157h0"></path>
<path d="M862.5 157h17"></path>
<rect x="783" y="146" width="79.5" height="22" rx="10" ry="10"></rect>
<text x="822.75" y="161">"INPUT"</text>
</g>
<path d="M879.5 157a10 10 0 0 0 10 -10v-10a10 10 0 0 1 10 -10"></path>
</g>
<path d="M899.5 127h10"></path>
<g class="terminal">
<path d="M909.5 127h0"></path>
<path d="M955 127h0"></path>
<rect x="909.5" y="116" width="45.5" height="22" rx="10" ry="10"></rect>
<text x="932.25" y="131">"="</text>
</g>
<path d="M955 127h10"></path>
<path d="M965 127h10"></path>
<g class="non-terminal">
<path d="M975 127h0"></path>
<path d="M1046 127h0"></path>
<rect x="975" y="116" width="71" height="22"></rect>
<a xlink:href="#/expression/Source"><text x="1010.5" y="131">Source</text>
</a>
</g>
</g>
<path d="M1046 127h20"></path>
</g>
</g>
<path d="M1066 127a10 10 0 0 0 10 -10v-77"></path>
<path d="M493 40v137a10 10 0 0 0 10 10"></path>
<g>
<path d="M503 187h0"></path>
<path d="M690.5 187h375.5"></path>
<g class="terminal">
<path d="M503 187h0"></path>
<path d="M599.5 187h0"></path>
<rect x="503" y="176" width="96.5" height="22" rx="10" ry="10"></rect>
<text x="551.25" y="191">"OF PAGE"</text>
</g>
<path d="M599.5 187h10"></path>
<path d="M609.5 187h10"></path>
<g class="non-terminal">
<path d="M619.5 187h0"></path>
<path d="M690.5 187h0"></path>
<rect x="619.5" y="176" width="71" height="22"></rect>
<a xlink:href="#/expression/Source"><text x="655" y="191">Source</text>
</a>
</g>
</g>
<path d="M1066 187a10 10 0 0 0 10 -10v-137"></path>
<path d="M493 40v167a10 10 0 0 0 10 10"></path>
<g>
<path d="M503 217h0"></path>
<path d="M814 217h252"></path>
<g class="terminal">
<path d="M503 217h0"></path>
<path d="M633.5 217h0"></path>
<rect x="503" y="206" width="130.5" height="22" rx="10" ry="10"></rect>
<text x="568.25" y="221">"LINE FORMAT"</text>
</g>
<path d="M633.5 217h10"></path>
<g>
<path d="M643.5 217h0"></path>
<path d="M814 217h0"></path>
<path d="M643.5 217h20"></path>
<g class="terminal">
<path d="M663.5 217h0"></path>
<path d="M777 217h17"></path>
<rect x="663.5" y="206" width="113.5" height="22" rx="10" ry="10"></rect>
<text x="720.25" y="221">"INPUT OFF"</text>
</g>
<path d="M794 217h20"></path>
<path d="M643.5 217a10 10 0 0 1 10 10v10a10 10 0 0 0 10 10"></path>
<g class="terminal">
<path d="M663.5 247h0"></path>
<path d="M760 247h34"></path>
<rect x="663.5" y="236" width="96.5" height="22" rx="10" ry="10"></rect>
<text x="711.75" y="251">"INVERSE"</text>
</g>
<path d="M794 247a10 10 0 0 0 10 -10v-10a10 10 0 0 1 10 -10"></path>
<path d="M643.5 217a10 10 0 0 1 10 10v40a10 10 0 0 0 10 10"></path>
<g class="terminal">
<path d="M663.5 277h0"></path>
<path d="M743 277h51"></path>
<rect x="663.5" y="266" width="79.5" height="22" rx="10" ry="10"></rect>
<text x="703.25" y="281">"RESET"</text>
</g>
<path d="M794 277a10 10 0 0 0 10 -10v-40a10 10 0 0 1 10 -10"></path>
<path d="M643.5 217a10 10 0 0 1 10 10v70a10 10 0 0 0 10 10"></path>
<g class="terminal">
<path d="M663.5 307h0"></path>
<path d="M794 307h0"></path>
<rect x="663.5" y="296" width="130.5" height="22" rx="10" ry="10"></rect>
<text x="728.75" y="311">"INTENSIFIED"</text>
</g>
<path d="M794 307a10 10 0 0 0 10 -10v-70a10 10 0 0 1 10 -10"></path>
</g>
</g>
<path d="M1066 217a10 10 0 0 0 10 -10v-167"></path>
<path d="M493 40v287a10 10 0 0 0 10 10"></path>
<g>
<path d="M503 337h0"></path>
<path d="M758.5 337h307.5"></path>
<g class="terminal">
<path d="M503 337h0"></path>
<path d="M667.5 337h0"></path>
<rect x="503" y="326" width="164.5" height="22" rx="10" ry="10"></rect>
<text x="585.25" y="341">"LINE VALUE FROM"</text>
</g>
<path d="M667.5 337h10"></path>
<path d="M677.5 337h10"></path>
<g class="non-terminal">
<path d="M687.5 337h0"></path>
<path d="M758.5 337h0"></path>
<rect x="687.5" y="326" width="71" height="22"></rect>
<a xlink:href="#/expression/Source"><text x="723" y="341">Source</text>
</a>
</g>
</g>
<path d="M1066 337a10 10 0 0 0 10 -10v-287"></path>
<path d="M493 40v317a10 10 0 0 0 10 10"></path>
<g class="terminal">
<path d="M503 367h0"></path>
<path d="M667.5 367h398.5"></path>
<rect x="503" y="356" width="164.5" height="22" rx="10" ry="10"></rect>
<text x="585.25" y="371">"OF CURRENT PAGE"</text>
</g>
<path d="M1066 367a10 10 0 0 0 10 -10v-317"></path>
<path d="M493 40v347a10 10 0 0 0 10 10"></path>
<g>
<path d="M503 397h0"></path>
<path d="M746 397h320"></path>
<g class="terminal">
<path d="M503 397h0"></path>
<path d="M633.5 397h0"></path>
<rect x="503" y="386" width="130.5" height="22" rx="10" ry="10"></rect>
<text x="568.25" y="401">"INTENSIFIED"</text>
</g>
<path d="M633.5 397h10"></path>
<g>
<path d="M643.5 397h0"></path>
<path d="M746 397h0"></path>
<path d="M643.5 397h20"></path>
<g class="terminal">
<path d="M663.5 397h0"></path>
<path d="M717.5 397h8.5"></path>
<rect x="663.5" y="386" width="54" height="22" rx="10" ry="10"></rect>
<text x="690.5" y="401">"ON"</text>
</g>
<path d="M726 397h20"></path>
<path d="M643.5 397a10 10 0 0 1 10 10v10a10 10 0 0 0 10 10"></path>
<g class="terminal">
<path d="M663.5 427h0"></path>
<path d="M726 427h0"></path>
<rect x="663.5" y="416" width="62.5" height="22" rx="10" ry="10"></rect>
<text x="694.75" y="431">"OFF"</text>
</g>
<path d="M726 427a10 10 0 0 0 10 -10v-10a10 10 0 0 1 10 -10"></path>
</g>
</g>
<path d="M1066 397a10 10 0 0 0 10 -10v-347"></path>
<path d="M493 40v407a10 10 0 0 0 10 10"></path>
<g class="non-terminal">
<path d="M503 457h0"></path>
<path d="M565.5 457h500.5"></path>
<rect x="503" y="446" width="62.5" height="22"></rect>
<a xlink:href="#/expression/Color"><text x="534.25" y="461">Color</text>
</a>
</g>
<path d="M1066 457a10 10 0 0 0 10 -10v-407"></path>
<g class="diagram-text">
<title>take one or more branches, once each, in any order</title>
<path d="M 493 30 h -26 a 4 4 0 0 0 -4 4 v 12 a 4 4 0 0 0 4 4 h 26 z" class="diagram-text"></path>
<text x="478" y="44" class="diagram-text">1+</text>
<path d="M 1076 30 h 16 a 4 4 0 0 1 4 4 v 12 a 4 4 0 0 1 -4 4 h -16 z" class="diagram-text"></path>
<path d="M 1083 38 a 4 4 0 1 0 6 -1 m 2.75 -1 h -4 v 4 m 0 -3 h 2" style="stroke-width: 1.75"></path>
</g>
</g>
<path d="M1096 40h20"></path>
</g>
</g>
</g>
<path d="M1116 40h10"></path>
<path d="M 1126 40 h 20 m -10 -10 v 20 m 10 -20 v 20"></path>
</g>
</svg>
