<svg xmlns="http://www.w3.org/2000/svg" xmlns:xlink="http://www.w3.org/1999/xlink" class="railroad-diagram" width="1229.5" height="101" viewBox="0 0 1229.5 101">
<defs>
<style type="text/css"><![CDATA[
path {
stroke-width: 3;
stroke: black;
fill: rgba(0,0,0,0);
}
text {
font: bold 14px monospace;
text-anchor: middle;
}
text.diagram-text {
font-size: 12px;
}
a {
fill: blue;
}
text.diagram-arrow {
font-size: 16px;
}
text.label {
text-anchor: start;
}
text.comment {
font: italic 12px monospace;
}
rect {
stroke-width: 3;
stroke: black;
fill: #BCBCBC;
}
path.diagram-text {
stroke-width: 3;
stroke: black;
fill: #BCBCBC;
cursor: help;
}
]]></style>
</defs>
<g transform="translate(.5 .5)">
<g>
<path d="M20 30v20m10 -20v20m-10 -10h20"></path>
</g>
<path d="M40 40h10"></path>
<g>
<path d="M50 40h0"></path>
<path d="M1179.5 40h0"></path>
<g class="terminal">
<path d="M50 40h0"></path>
<path d="M121 40h0"></path>
<rect x="50" y="29" width="71" height="22" rx="10" ry="10"></rect>
<text x="85.5" y="44">"DATA"</text>
</g>
<path d="M121 40h10"></path>
<path d="M131 40h10"></path>
<g>
<path d="M141 40h0"></path>
<path d="M598.5 40h0"></path>
<g class="terminal">
<path d="M141 40h0"></path>
<path d="M229 40h0"></path>
<rect x="141" y="29" width="88" height="22" rx="10" ry="10"></rect>
<text x="185" y="44">"END OF"</text>
</g>
<path d="M229 40h10"></path>
<g>
<path d="M239 40h0"></path>
<path d="M598.5 40h0"></path>
<path d="M239 40h20"></path>
<g>
<path d="M259 40h0"></path>
<path d="M578.5 40h0"></path>
<g class="terminal">
<path d="M259 40h0"></path>
<path d="M389.5 40h0"></path>
<rect x="259" y="29" width="130.5" height="22" rx="10" ry="10"></rect>
<text x="324.25" y="44">"COMMON PART"</text>
</g>
<path d="M389.5 40h10"></path>
<g>
<path d="M399.5 40h0"></path>
<path d="M578.5 40h0"></path>
<path d="M399.5 40a10 10 0 0 0 10 -10v0a10 10 0 0 1 10 -10"></path>
<g>
<path d="M419.5 20h139"></path>
</g>
<path d="M558.5 20a10 10 0 0 1 10 10v0a10 10 0 0 0 10 10"></path>
<path d="M399.5 40h20"></path>
<g class="non-terminal">
<path d="M419.5 40h0"></path>
<path d="M558.5 40h0"></path>
<rect x="419.5" y="29" width="139" height="22"></rect>
<a xlink:href="#/expression/DefinitionName"><text x="489" y="44">DefinitionName</text>
</a>
</g>
<path d="M558.5 40h20"></path>
</g>
</g>
<path d="M578.5 40h20"></path>
<path d="M239 40a10 10 0 0 1 10 10v10a10 10 0 0 0 10 10"></path>
<g class="non-terminal">
<path d="M259 70h0"></path>
<path d="M398 70h180.5"></path>
<rect x="259" y="59" width="139" height="22"></rect>
<a xlink:href="#/expression/DefinitionName"><text x="328.5" y="74">DefinitionName</text>
</a>
</g>
<path d="M578.5 70a10 10 0 0 0 10 -10v-10a10 10 0 0 1 10 -10"></path>
</g>
</g>
<path d="M598.5 40h10"></path>
<g>
<path d="M608.5 40h0"></path>
<path d="M1179.5 40h0"></path>
<path d="M608.5 40a10 10 0 0 0 10 -10v0a10 10 0 0 1 10 -10"></path>
<g>
<path d="M628.5 20h531"></path>
</g>
<path d="M1159.5 20a10 10 0 0 1 10 10v0a10 10 0 0 0 10 10"></path>
<path d="M608.5 40h20"></path>
<g>
<path d="M628.5 40h0"></path>
<path d="M1159.5 40h0"></path>
<g class="terminal">
<path d="M628.5 40h0"></path>
<path d="M776 40h0"></path>
<rect x="628.5" y="29" width="147.5" height="22" rx="10" ry="10"></rect>
<text x="702.25" y="44">"VALID BETWEEN"</text>
</g>
<path d="M776 40h10"></path>
<path d="M786 40h10"></path>
<g class="non-terminal">
<path d="M796 40h0"></path>
<path d="M926.5 40h0"></path>
<rect x="796" y="29" width="130.5" height="22"></rect>
<a xlink:href="#/expression/ComponentName"><text x="861.25" y="44">ComponentName</text>
</a>
</g>
<path d="M926.5 40h10"></path>
<path d="M936.5 40h10"></path>
<g class="terminal">
<path d="M946.5 40h0"></path>
<path d="M1009 40h0"></path>
<rect x="946.5" y="29" width="62.5" height="22" rx="10" ry="10"></rect>
<text x="977.75" y="44">"AND"</text>
</g>
<path d="M1009 40h10"></path>
<path d="M1019 40h10"></path>
<g class="non-terminal">
<path d="M1029 40h0"></path>
<path d="M1159.5 40h0"></path>
<rect x="1029" y="29" width="130.5" height="22"></rect>
<a xlink:href="#/expression/ComponentName"><text x="1094.25" y="44">ComponentName</text>
</a>
</g>
</g>
<path d="M1159.5 40h20"></path>
</g>
</g>
<path d="M1179.5 40h10"></path>
<path d="M 1189.5 40 h 20 m -10 -10 v 20 m 10 -20 v 20"></path>
</g>
</svg>
