<svg xmlns="http://www.w3.org/2000/svg" xmlns:xlink="http://www.w3.org/1999/xlink" class="railroad-diagram" width="797.5" height="101" viewBox="0 0 797.5 101">
<defs>
<style type="text/css"><![CDATA[
path {
stroke-width: 3;
stroke: black;
fill: rgba(0,0,0,0);
}
text {
font: bold 14px monospace;
text-anchor: middle;
}
text.diagram-text {
font-size: 12px;
}
a {
fill: blue;
}
text.diagram-arrow {
font-size: 16px;
}
text.label {
text-anchor: start;
}
text.comment {
font: italic 12px monospace;
}
rect {
stroke-width: 3;
stroke: black;
fill: #BCBCBC;
}
path.diagram-text {
stroke-width: 3;
stroke: black;
fill: #BCBCBC;
cursor: help;
}
]]></style>
</defs>
<g transform="translate(.5 .5)">
<g>
<path d="M20 30v20m10 -20v20m-10 -10h20"></path>
</g>
<path d="M40 40h10"></path>
<g>
<path d="M50 40h0"></path>
<path d="M747.5 40h0"></path>
<g>
<path d="M50 40h0"></path>
<path d="M123 40h0"></path>
<text x="86.5" y="45" class="comment">not Cloud</text>
</g>
<path d="M123 40h10"></path>
<path d="M133 40h10"></path>
<g>
<path d="M143 40h0"></path>
<path d="M747.5 40h0"></path>
<g class="terminal">
<path d="M143 40h0"></path>
<path d="M214 40h0"></path>
<rect x="143" y="29" width="71" height="22" rx="10" ry="10"></rect>
<text x="178.5" y="44">"CALL"</text>
</g>
<path d="M214 40h10"></path>
<g>
<path d="M224 40h0"></path>
<path d="M352 40h0"></path>
<path d="M224 40h20"></path>
<g class="non-terminal">
<path d="M244 40h0"></path>
<path d="M332 40h0"></path>
<rect x="244" y="29" width="88" height="22"></rect>
<a xlink:href="#/expression/Constant"><text x="288" y="44">Constant</text>
</a>
</g>
<path d="M332 40h20"></path>
<path d="M224 40a10 10 0 0 1 10 10v10a10 10 0 0 0 10 10"></path>
<g class="non-terminal">
<path d="M244 70h0"></path>
<path d="M306.5 70h25.5"></path>
<rect x="244" y="59" width="62.5" height="22"></rect>
<a xlink:href="#/expression/Field"><text x="275.25" y="74">Field</text>
</a>
</g>
<path d="M332 70a10 10 0 0 0 10 -10v-10a10 10 0 0 1 10 -10"></path>
</g>
<g>
<path d="M352 40h0"></path>
<path d="M747.5 40h0"></path>
<path d="M352 40a10 10 0 0 0 10 -10v0a10 10 0 0 1 10 -10"></path>
<g>
<path d="M372 20h355.5"></path>
</g>
<path d="M727.5 20a10 10 0 0 1 10 10v0a10 10 0 0 0 10 10"></path>
<path d="M352 40h20"></path>
<g>
<path d="M372 40h0"></path>
<path d="M727.5 40h0"></path>
<path d="M372 40h10"></path>
<g>
<path d="M382 40h0"></path>
<path d="M717.5 40h0"></path>
<g class="terminal">
<path d="M382 40h0"></path>
<path d="M436 40h0"></path>
<rect x="382" y="29" width="54" height="22" rx="10" ry="10"></rect>
<text x="409" y="44">"ID"</text>
</g>
<path d="M436 40h10"></path>
<path d="M446 40h10"></path>
<g class="non-terminal">
<path d="M456 40h0"></path>
<path d="M527 40h0"></path>
<rect x="456" y="29" width="71" height="22"></rect>
<a xlink:href="#/expression/Source"><text x="491.5" y="44">Source</text>
</a>
</g>
<path d="M527 40h10"></path>
<path d="M537 40h10"></path>
<g class="terminal">
<path d="M547 40h0"></path>
<path d="M626.5 40h0"></path>
<rect x="547" y="29" width="79.5" height="22" rx="10" ry="10"></rect>
<text x="586.75" y="44">"FIELD"</text>
</g>
<path d="M626.5 40h10"></path>
<path d="M636.5 40h10"></path>
<g class="non-terminal">
<path d="M646.5 40h0"></path>
<path d="M717.5 40h0"></path>
<rect x="646.5" y="29" width="71" height="22"></rect>
<a xlink:href="#/expression/Source"><text x="682" y="44">Source</text>
</a>
</g>
</g>
<path d="M717.5 40h10"></path>
<path d="M382 40a10 10 0 0 0 -10 10v0a10 10 0 0 0 10 10"></path>
<g>
<path d="M382 60h335.5"></path>
</g>
<path d="M717.5 60a10 10 0 0 0 10 -10v0a10 10 0 0 0 -10 -10"></path>
</g>
<path d="M727.5 40h20"></path>
</g>
</g>
</g>
<path d="M747.5 40h10"></path>
<path d="M 757.5 40 h 20 m -10 -10 v 20 m 10 -20 v 20"></path>
</g>
</svg>
