<svg xmlns="http://www.w3.org/2000/svg" xmlns:xlink="http://www.w3.org/1999/xlink" class="railroad-diagram" width="464" height="101" viewBox="0 0 464 101">
<defs>
<style type="text/css"><![CDATA[
path {
stroke-width: 3;
stroke: black;
fill: rgba(0,0,0,0);
}
text {
font: bold 14px monospace;
text-anchor: middle;
}
text.diagram-text {
font-size: 12px;
}
a {
fill: blue;
}
text.diagram-arrow {
font-size: 16px;
}
text.label {
text-anchor: start;
}
text.comment {
font: italic 12px monospace;
}
rect {
stroke-width: 3;
stroke: black;
fill: #BCBCBC;
}
path.diagram-text {
stroke-width: 3;
stroke: black;
fill: #BCBCBC;
cursor: help;
}
]]></style>
</defs>
<g transform="translate(.5 .5)">
<g>
<path d="M20 30v20m10 -20v20m-10 -10h20"></path>
</g>
<path d="M40 40h10"></path>
<g>
<path d="M50 40h0"></path>
<path d="M414 40h0"></path>
<g class="terminal">
<path d="M50 40h0"></path>
<path d="M138 40h0"></path>
<rect x="50" y="29" width="88" height="22" rx="10" ry="10"></rect>
<text x="94" y="44">"COMMIT"</text>
</g>
<path d="M138 40h10"></path>
<g>
<path d="M148 40h0"></path>
<path d="M414 40h0"></path>
<path d="M148 40h20"></path>
<g>
<path d="M168 40h0"></path>
<path d="M394 40h0"></path>
<g class="terminal">
<path d="M168 40h0"></path>
<path d="M239 40h0"></path>
<rect x="168" y="29" width="71" height="22" rx="10" ry="10"></rect>
<text x="203.5" y="44">"WORK"</text>
</g>
<path d="M239 40h10"></path>
<g>
<path d="M249 40h0"></path>
<path d="M394 40h0"></path>
<path d="M249 40a10 10 0 0 0 10 -10v0a10 10 0 0 1 10 -10"></path>
<g>
<path d="M269 20h105"></path>
</g>
<path d="M374 20a10 10 0 0 1 10 10v0a10 10 0 0 0 10 10"></path>
<path d="M249 40h20"></path>
<g class="terminal">
<path d="M269 40h0"></path>
<path d="M374 40h0"></path>
<rect x="269" y="29" width="105" height="22" rx="10" ry="10"></rect>
<text x="321.5" y="44">"AND WAIT"</text>
</g>
<path d="M374 40h20"></path>
</g>
</g>
<path d="M394 40h20"></path>
<path d="M148 40a10 10 0 0 1 10 10v10a10 10 0 0 0 10 10"></path>
<g class="non-terminal">
<path d="M168 70h0"></path>
<path d="M341 70h53"></path>
<rect x="168" y="59" width="173" height="22"></rect>
<a xlink:href="#/expression/DatabaseConnection"><text x="254.5" y="74">DatabaseConnection</text>
</a>
</g>
<path d="M394 70a10 10 0 0 0 10 -10v-10a10 10 0 0 1 10 -10"></path>
</g>
</g>
<path d="M414 40h10"></path>
<path d="M 424 40 h 20 m -10 -10 v 20 m 10 -20 v 20"></path>
</g>
</svg>
