<svg xmlns="http://www.w3.org/2000/svg" xmlns:xlink="http://www.w3.org/1999/xlink" class="railroad-diagram" width="744" height="101" viewBox="0 0 744 101">
<defs>
<style type="text/css"><![CDATA[
path {
stroke-width: 3;
stroke: black;
fill: rgba(0,0,0,0);
}
text {
font: bold 14px monospace;
text-anchor: middle;
}
text.diagram-text {
font-size: 12px;
}
a {
fill: blue;
}
text.diagram-arrow {
font-size: 16px;
}
text.label {
text-anchor: start;
}
text.comment {
font: italic 12px monospace;
}
rect {
stroke-width: 3;
stroke: black;
fill: #BCBCBC;
}
path.diagram-text {
stroke-width: 3;
stroke: black;
fill: #BCBCBC;
cursor: help;
}
]]></style>
</defs>
<g transform="translate(.5 .5)">
<g>
<path d="M20 30v20m10 -20v20m-10 -10h20"></path>
</g>
<path d="M40 40h10"></path>
<g>
<path d="M50 40h0"></path>
<path d="M694 40h0"></path>
<g class="terminal">
<path d="M50 40h0"></path>
<path d="M129.5 40h0"></path>
<rect x="50" y="29" width="79.5" height="22" rx="10" ry="10"></rect>
<text x="89.75" y="44">"CLEAR"</text>
</g>
<path d="M129.5 40h10"></path>
<path d="M139.5 40h10"></path>
<g class="non-terminal">
<path d="M149.5 40h0"></path>
<path d="M220.5 40h0"></path>
<rect x="149.5" y="29" width="71" height="22"></rect>
<a xlink:href="#/expression/Target"><text x="185" y="44">Target</text>
</a>
</g>
<path d="M220.5 40h10"></path>
<g>
<path d="M230.5 40h0"></path>
<path d="M432.5 40h0"></path>
<path d="M230.5 40a10 10 0 0 0 10 -10v0a10 10 0 0 1 10 -10"></path>
<g>
<path d="M250.5 20h162"></path>
</g>
<path d="M412.5 20a10 10 0 0 1 10 10v0a10 10 0 0 0 10 10"></path>
<path d="M230.5 40h20"></path>
<g>
<path d="M250.5 40h0"></path>
<path d="M412.5 40h0"></path>
<g class="terminal">
<path d="M250.5 40h0"></path>
<path d="M321.5 40h0"></path>
<rect x="250.5" y="29" width="71" height="22" rx="10" ry="10"></rect>
<text x="286" y="44">"WITH"</text>
</g>
<path d="M321.5 40h10"></path>
<path d="M331.5 40h10"></path>
<g class="non-terminal">
<path d="M341.5 40h0"></path>
<path d="M412.5 40h0"></path>
<rect x="341.5" y="29" width="71" height="22"></rect>
<a xlink:href="#/expression/Source"><text x="377" y="44">Source</text>
</a>
</g>
</g>
<path d="M412.5 40h20"></path>
</g>
<g>
<path d="M432.5 40h0"></path>
<path d="M694 40h0"></path>
<path d="M432.5 40a10 10 0 0 0 10 -10v0a10 10 0 0 1 10 -10"></path>
<g>
<path d="M452.5 20h221.5"></path>
</g>
<path d="M674 20a10 10 0 0 1 10 10v0a10 10 0 0 0 10 10"></path>
<path d="M432.5 40h20"></path>
<g>
<path d="M452.5 40h0"></path>
<path d="M674 40h0"></path>
<path d="M452.5 40h20"></path>
<g class="terminal">
<path d="M472.5 40h0"></path>
<path d="M654 40h0"></path>
<rect x="472.5" y="29" width="181.5" height="22" rx="10" ry="10"></rect>
<text x="563.25" y="44">"IN CHARACTER MODE"</text>
</g>
<path d="M654 40h20"></path>
<path d="M452.5 40a10 10 0 0 1 10 10v10a10 10 0 0 0 10 10"></path>
<g class="terminal">
<path d="M472.5 70h0"></path>
<path d="M611.5 70h42.5"></path>
<rect x="472.5" y="59" width="139" height="22" rx="10" ry="10"></rect>
<text x="542" y="74">"IN BYTE MODE"</text>
</g>
<path d="M654 70a10 10 0 0 0 10 -10v-10a10 10 0 0 1 10 -10"></path>
</g>
<path d="M674 40h20"></path>
</g>
</g>
<path d="M694 40h10"></path>
<path d="M 704 40 h 20 m -10 -10 v 20 m 10 -20 v 20"></path>
</g>
</svg>
