<svg xmlns="http://www.w3.org/2000/svg" xmlns:xlink="http://www.w3.org/1999/xlink" class="railroad-diagram" width="552" height="439" viewBox="0 0 552 439">
<defs>
<style type="text/css"><![CDATA[
path {
stroke-width: 3;
stroke: black;
fill: rgba(0,0,0,0);
}
text {
font: bold 14px monospace;
text-anchor: middle;
}
text.diagram-text {
font-size: 12px;
}
a {
fill: blue;
}
text.diagram-arrow {
font-size: 16px;
}
text.label {
text-anchor: start;
}
text.comment {
font: italic 12px monospace;
}
rect {
stroke-width: 3;
stroke: black;
fill: #BCBCBC;
}
path.diagram-text {
stroke-width: 3;
stroke: black;
fill: #BCBCBC;
cursor: help;
}
]]></style>
</defs>
<g transform="translate(.5 .5)">
<g>
<path d="M20 30v20m10 -20v20m-10 -10h20"></path>
</g>
<path d="M40 40h10"></path>
<g>
<path d="M50 40h0"></path>
<path d="M502 40h0"></path>
<g class="terminal">
<path d="M50 40h0"></path>
<path d="M146.5 40h0"></path>
<rect x="50" y="29" width="96.5" height="22" rx="10" ry="10"></rect>
<a xlink:href="#/statement/DataBegin"><text x="98.25" y="44">DataBegin</text>
</a>
</g>
<path d="M146.5 40h10"></path>
<g>
<path d="M156.5 40h0"></path>
<path d="M412.5 40h0"></path>
<path d="M156.5 40a10 10 0 0 0 10 -10v0a10 10 0 0 1 10 -10"></path>
<g>
<path d="M176.5 20h216"></path>
</g>
<path d="M392.5 20a10 10 0 0 1 10 10v0a10 10 0 0 0 10 10"></path>
<path d="M156.5 40h20"></path>
<g>
<path d="M176.5 40h0"></path>
<path d="M392.5 40h0"></path>
<path d="M176.5 40h10"></path>
<g>
<path d="M186.5 40h0"></path>
<path d="M382.5 40h0"></path>
<path d="M186.5 40h20"></path>
<g class="terminal">
<path d="M206.5 40h0"></path>
<path d="M260.5 40h102"></path>
<rect x="206.5" y="29" width="54" height="22" rx="10" ry="10"></rect>
<a xlink:href="#/statement/Data"><text x="233.5" y="44">Data</text>
</a>
</g>
<path d="M362.5 40h20"></path>
<path d="M186.5 40a10 10 0 0 1 10 10v10a10 10 0 0 0 10 10"></path>
<g class="non-terminal">
<path d="M206.5 70h0"></path>
<path d="M260.5 70h102"></path>
<rect x="206.5" y="59" width="54" height="22"></rect>
<a xlink:href="#/structure/Data"><text x="233.5" y="74">Data</text>
</a>
</g>
<path d="M362.5 70a10 10 0 0 0 10 -10v-10a10 10 0 0 1 10 -10"></path>
<path d="M186.5 40a10 10 0 0 1 10 10v40a10 10 0 0 0 10 10"></path>
<g class="terminal">
<path d="M206.5 100h0"></path>
<path d="M286 100h76.5"></path>
<rect x="206.5" y="89" width="79.5" height="22" rx="10" ry="10"></rect>
<a xlink:href="#/statement/Include"><text x="246.25" y="104">Include</text>
</a>
</g>
<path d="M362.5 100a10 10 0 0 0 10 -10v-40a10 10 0 0 1 10 -10"></path>
<path d="M186.5 40a10 10 0 0 1 10 10v70a10 10 0 0 0 10 10"></path>
<g class="terminal">
<path d="M206.5 130h0"></path>
<path d="M277.5 130h85"></path>
<rect x="206.5" y="119" width="71" height="22" rx="10" ry="10"></rect>
<a xlink:href="#/statement/Ranges"><text x="242" y="134">Ranges</text>
</a>
</g>
<path d="M362.5 130a10 10 0 0 0 10 -10v-70a10 10 0 0 1 10 -10"></path>
<path d="M186.5 40a10 10 0 0 1 10 10v100a10 10 0 0 0 10 10"></path>
<g class="terminal">
<path d="M206.5 160h0"></path>
<path d="M294.5 160h68"></path>
<rect x="206.5" y="149" width="88" height="22" rx="10" ry="10"></rect>
<a xlink:href="#/statement/Constant"><text x="250.5" y="164">Constant</text>
</a>
</g>
<path d="M362.5 160a10 10 0 0 0 10 -10v-100a10 10 0 0 1 10 -10"></path>
<path d="M186.5 40a10 10 0 0 1 10 10v130a10 10 0 0 0 10 10"></path>
<g class="non-terminal">
<path d="M206.5 190h0"></path>
<path d="M303 190h59.5"></path>
<rect x="206.5" y="179" width="96.5" height="22"></rect>
<a xlink:href="#/structure/Constants"><text x="254.75" y="194">Constants</text>
</a>
</g>
<path d="M362.5 190a10 10 0 0 0 10 -10v-130a10 10 0 0 1 10 -10"></path>
<path d="M186.5 40a10 10 0 0 1 10 10v160a10 10 0 0 0 10 10"></path>
<g class="terminal">
<path d="M206.5 220h0"></path>
<path d="M260.5 220h102"></path>
<rect x="206.5" y="209" width="54" height="22" rx="10" ry="10"></rect>
<a xlink:href="#/statement/Type"><text x="233.5" y="224">Type</text>
</a>
</g>
<path d="M362.5 220a10 10 0 0 0 10 -10v-160a10 10 0 0 1 10 -10"></path>
<path d="M186.5 40a10 10 0 0 1 10 10v190a10 10 0 0 0 10 10"></path>
<g class="non-terminal">
<path d="M206.5 250h0"></path>
<path d="M269 250h93.5"></path>
<rect x="206.5" y="239" width="62.5" height="22"></rect>
<a xlink:href="#/structure/Types"><text x="237.75" y="254">Types</text>
</a>
</g>
<path d="M362.5 250a10 10 0 0 0 10 -10v-190a10 10 0 0 1 10 -10"></path>
<path d="M186.5 40a10 10 0 0 1 10 10v220a10 10 0 0 0 10 10"></path>
<g class="non-terminal">
<path d="M206.5 280h0"></path>
<path d="M320 280h42.5"></path>
<rect x="206.5" y="269" width="113.5" height="22"></rect>
<a xlink:href="#/structure/Enhancement"><text x="263.25" y="284">Enhancement</text>
</a>
</g>
<path d="M362.5 280a10 10 0 0 0 10 -10v-220a10 10 0 0 1 10 -10"></path>
<path d="M186.5 40a10 10 0 0 1 10 10v250a10 10 0 0 0 10 10"></path>
<g class="non-terminal">
<path d="M206.5 310h0"></path>
<path d="M277.5 310h85"></path>
<rect x="206.5" y="299" width="71" height="22"></rect>
<a xlink:href="#/structure/Define"><text x="242" y="314">Define</text>
</a>
</g>
<path d="M362.5 310a10 10 0 0 0 10 -10v-250a10 10 0 0 1 10 -10"></path>
<path d="M186.5 40a10 10 0 0 1 10 10v280a10 10 0 0 0 10 10"></path>
<g class="terminal">
<path d="M206.5 340h0"></path>
<path d="M320 340h42.5"></path>
<rect x="206.5" y="329" width="113.5" height="22" rx="10" ry="10"></rect>
<a xlink:href="#/statement/IncludeType"><text x="263.25" y="344">IncludeType</text>
</a>
</g>
<path d="M362.5 340a10 10 0 0 0 10 -10v-280a10 10 0 0 1 10 -10"></path>
<path d="M186.5 40a10 10 0 0 1 10 10v310a10 10 0 0 0 10 10"></path>
<g class="terminal">
<path d="M206.5 370h0"></path>
<path d="M303 370h59.5"></path>
<rect x="206.5" y="359" width="96.5" height="22" rx="10" ry="10"></rect>
<a xlink:href="#/statement/TypePools"><text x="254.75" y="374">TypePools</text>
</a>
</g>
<path d="M362.5 370a10 10 0 0 0 10 -10v-310a10 10 0 0 1 10 -10"></path>
<path d="M186.5 40a10 10 0 0 1 10 10v340a10 10 0 0 0 10 10"></path>
<g class="terminal">
<path d="M206.5 400h0"></path>
<path d="M362.5 400h0"></path>
<rect x="206.5" y="389" width="156" height="22" rx="10" ry="10"></rect>
<a xlink:href="#/statement/EnhancementPoint"><text x="284.5" y="404">EnhancementPoint</text>
</a>
</g>
<path d="M362.5 400a10 10 0 0 0 10 -10v-340a10 10 0 0 1 10 -10"></path>
</g>
<path d="M382.5 40h10"></path>
<path d="M186.5 40a10 10 0 0 0 -10 10v359a10 10 0 0 0 10 10"></path>
<g>
<path d="M186.5 419h196"></path>
</g>
<path d="M382.5 419a10 10 0 0 0 10 -10v-359a10 10 0 0 0 -10 -10"></path>
</g>
<path d="M392.5 40h20"></path>
</g>
<path d="M412.5 40h10"></path>
<g class="terminal">
<path d="M422.5 40h0"></path>
<path d="M502 40h0"></path>
<rect x="422.5" y="29" width="79.5" height="22" rx="10" ry="10"></rect>
<a xlink:href="#/statement/DataEnd"><text x="462.25" y="44">DataEnd</text>
</a>
</g>
</g>
<path d="M502 40h10"></path>
<path d="M 512 40 h 20 m -10 -10 v 20 m 10 -20 v 20"></path>
</g>
</svg>
