<svg xmlns="http://www.w3.org/2000/svg" xmlns:xlink="http://www.w3.org/1999/xlink" class="railroad-diagram" width="520.5" height="80" viewBox="0 0 520.5 80">
<defs>
<style type="text/css"><![CDATA[
path {
stroke-width: 3;
stroke: black;
fill: rgba(0,0,0,0);
}
text {
font: bold 14px monospace;
text-anchor: middle;
}
text.diagram-text {
font-size: 12px;
}
a {
fill: blue;
}
text.diagram-arrow {
font-size: 16px;
}
text.label {
text-anchor: start;
}
text.comment {
font: italic 12px monospace;
}
rect {
stroke-width: 3;
stroke: black;
fill: #BCBCBC;
}
path.diagram-text {
stroke-width: 3;
stroke: black;
fill: #BCBCBC;
cursor: help;
}
]]></style>
</defs>
<g transform="translate(.5 .5)">
<g>
<path d="M20 30v20m10 -20v20m-10 -10h20"></path>
</g>
<path d="M40 40h10"></path>
<g>
<path d="M50 40h0"></path>
<path d="M470.5 40h0"></path>
<g class="terminal">
<path d="M50 40h0"></path>
<path d="M121 40h0"></path>
<rect x="50" y="29" width="71" height="22" rx="10" ry="10"></rect>
<a xlink:href="#/statement/Define"><text x="85.5" y="44">Define</text>
</a>
</g>
<path d="M121 40h10"></path>
<g>
<path d="M131 40h0"></path>
<path d="M313 40h0"></path>
<path d="M131 40a10 10 0 0 0 10 -10v0a10 10 0 0 1 10 -10"></path>
<g>
<path d="M151 20h142"></path>
</g>
<path d="M293 20a10 10 0 0 1 10 10v0a10 10 0 0 0 10 10"></path>
<path d="M131 40h20"></path>
<g>
<path d="M151 40h0"></path>
<path d="M293 40h0"></path>
<path d="M151 40h10"></path>
<g class="terminal">
<path d="M161 40h0"></path>
<path d="M283 40h0"></path>
<rect x="161" y="29" width="122" height="22" rx="10" ry="10"></rect>
<a xlink:href="#/statement/MacroContent"><text x="222" y="44">MacroContent</text>
</a>
</g>
<path d="M283 40h10"></path>
<path d="M161 40a10 10 0 0 0 -10 10v0a10 10 0 0 0 10 10"></path>
<g>
<path d="M161 60h122"></path>
</g>
<path d="M283 60a10 10 0 0 0 10 -10v0a10 10 0 0 0 -10 -10"></path>
</g>
<path d="M293 40h20"></path>
</g>
<path d="M313 40h10"></path>
<g class="terminal">
<path d="M323 40h0"></path>
<path d="M470.5 40h0"></path>
<rect x="323" y="29" width="147.5" height="22" rx="10" ry="10"></rect>
<a xlink:href="#/statement/EndOfDefinition"><text x="396.75" y="44">EndOfDefinition</text>
</a>
</g>
</g>
<path d="M470.5 40h10"></path>
<path d="M 480.5 40 h 20 m -10 -10 v 20 m 10 -20 v 20"></path>
</g>
</svg>
