<svg xmlns="http://www.w3.org/2000/svg" xmlns:xlink="http://www.w3.org/1999/xlink" class="railroad-diagram" width="552" height="109" viewBox="0 0 552 109">
<defs>
<style type="text/css"><![CDATA[
path {
stroke-width: 3;
stroke: black;
fill: rgba(0,0,0,0);
}
text {
font: bold 14px monospace;
text-anchor: middle;
}
text.diagram-text {
font-size: 12px;
}
a {
fill: blue;
}
text.diagram-arrow {
font-size: 16px;
}
text.label {
text-anchor: start;
}
text.comment {
font: italic 12px monospace;
}
rect {
stroke-width: 3;
stroke: black;
fill: #BCBCBC;
}
path.diagram-text {
stroke-width: 3;
stroke: black;
fill: #BCBCBC;
cursor: help;
}
]]></style>
</defs>
<g transform="translate(.5 .5)">
<g>
<path d="M20 30v20m10 -20v20m-10 -10h20"></path>
</g>
<path d="M40 40h10"></path>
<g>
<path d="M50 40h0"></path>
<path d="M502 40h0"></path>
<g class="terminal">
<path d="M50 40h0"></path>
<path d="M180.5 40h0"></path>
<rect x="50" y="29" width="130.5" height="22" rx="10" ry="10"></rect>
<a xlink:href="#/statement/TypeEnumBegin"><text x="115.25" y="44">TypeEnumBegin</text>
</a>
</g>
<path d="M180.5 40h10"></path>
<g>
<path d="M190.5 40h0"></path>
<path d="M378.5 40h0"></path>
<path d="M190.5 40a10 10 0 0 0 10 -10v0a10 10 0 0 1 10 -10"></path>
<g>
<path d="M210.5 20h148"></path>
</g>
<path d="M358.5 20a10 10 0 0 1 10 10v0a10 10 0 0 0 10 10"></path>
<path d="M190.5 40h20"></path>
<g>
<path d="M210.5 40h0"></path>
<path d="M358.5 40h0"></path>
<path d="M210.5 40h10"></path>
<g>
<path d="M220.5 40h0"></path>
<path d="M348.5 40h0"></path>
<path d="M220.5 40h20"></path>
<g class="terminal">
<path d="M240.5 40h0"></path>
<path d="M328.5 40h0"></path>
<rect x="240.5" y="29" width="88" height="22" rx="10" ry="10"></rect>
<a xlink:href="#/statement/TypeEnum"><text x="284.5" y="44">TypeEnum</text>
</a>
</g>
<path d="M328.5 40h20"></path>
<path d="M220.5 40a10 10 0 0 1 10 10v10a10 10 0 0 0 10 10"></path>
<g class="terminal">
<path d="M240.5 70h0"></path>
<path d="M294.5 70h34"></path>
<rect x="240.5" y="59" width="54" height="22" rx="10" ry="10"></rect>
<a xlink:href="#/statement/Type"><text x="267.5" y="74">Type</text>
</a>
</g>
<path d="M328.5 70a10 10 0 0 0 10 -10v-10a10 10 0 0 1 10 -10"></path>
</g>
<path d="M348.5 40h10"></path>
<path d="M220.5 40a10 10 0 0 0 -10 10v29a10 10 0 0 0 10 10"></path>
<g>
<path d="M220.5 89h128"></path>
</g>
<path d="M348.5 89a10 10 0 0 0 10 -10v-29a10 10 0 0 0 -10 -10"></path>
</g>
<path d="M358.5 40h20"></path>
</g>
<path d="M378.5 40h10"></path>
<g class="terminal">
<path d="M388.5 40h0"></path>
<path d="M502 40h0"></path>
<rect x="388.5" y="29" width="113.5" height="22" rx="10" ry="10"></rect>
<a xlink:href="#/statement/TypeEnumEnd"><text x="445.25" y="44">TypeEnumEnd</text>
</a>
</g>
</g>
<path d="M502 40h10"></path>
<path d="M 512 40 h 20 m -10 -10 v 20 m 10 -20 v 20"></path>
</g>
</svg>
