<svg xmlns="http://www.w3.org/2000/svg" xmlns:xlink="http://www.w3.org/1999/xlink" class="railroad-diagram" width="361.5" height="949" viewBox="0 0 361.5 949">
<defs>
<style type="text/css"><![CDATA[
path {
stroke-width: 3;
stroke: black;
fill: rgba(0,0,0,0);
}
text {
font: bold 14px monospace;
text-anchor: middle;
}
text.diagram-text {
font-size: 12px;
}
a {
fill: blue;
}
text.diagram-arrow {
font-size: 16px;
}
text.label {
text-anchor: start;
}
text.comment {
font: italic 12px monospace;
}
rect {
stroke-width: 3;
stroke: black;
fill: #BCBCBC;
}
path.diagram-text {
stroke-width: 3;
stroke: black;
fill: #BCBCBC;
cursor: help;
}
]]></style>
</defs>
<g transform="translate(.5 .5)">
<g>
<path d="M20 30v20m10 -20v20m-10 -10h20"></path>
</g>
<g>
<path d="M40 40h0"></path>
<path d="M321.5 40h0"></path>
<path d="M40 40a10 10 0 0 0 10 -10v0a10 10 0 0 1 10 -10"></path>
<g>
<path d="M60 20h241.5"></path>
</g>
<path d="M301.5 20a10 10 0 0 1 10 10v0a10 10 0 0 0 10 10"></path>
<path d="M40 40h20"></path>
<g>
<path d="M60 40h0"></path>
<path d="M301.5 40h0"></path>
<path d="M60 40h10"></path>
<g>
<path d="M70 40h0"></path>
<path d="M291.5 40h0"></path>
<path d="M70 40h20"></path>
<g class="terminal">
<path d="M90 40h0"></path>
<path d="M254.5 40h17"></path>
<rect x="90" y="29" width="164.5" height="22" rx="10" ry="10"></rect>
<a xlink:href="#/statement/ClassLocalFriends"><text x="172.25" y="44">ClassLocalFriends</text>
</a>
</g>
<path d="M271.5 40h20"></path>
<path d="M70 40a10 10 0 0 1 10 10v10a10 10 0 0 0 10 10"></path>
<g class="terminal">
<path d="M90 70h0"></path>
<path d="M220.5 70h51"></path>
<rect x="90" y="59" width="130.5" height="22" rx="10" ry="10"></rect>
<a xlink:href="#/statement/ClassDeferred"><text x="155.25" y="74">ClassDeferred</text>
</a>
</g>
<path d="M271.5 70a10 10 0 0 0 10 -10v-10a10 10 0 0 1 10 -10"></path>
<path d="M70 40a10 10 0 0 1 10 10v40a10 10 0 0 0 10 10"></path>
<g class="terminal">
<path d="M90 100h0"></path>
<path d="M161 100h110.5"></path>
<rect x="90" y="89" width="71" height="22" rx="10" ry="10"></rect>
<a xlink:href="#/statement/Report"><text x="125.5" y="104">Report</text>
</a>
</g>
<path d="M271.5 100a10 10 0 0 0 10 -10v-40a10 10 0 0 1 10 -10"></path>
<path d="M70 40a10 10 0 0 1 10 10v70a10 10 0 0 0 10 10"></path>
<g class="terminal">
<path d="M90 130h0"></path>
<path d="M169.5 130h102"></path>
<rect x="90" y="119" width="79.5" height="22" rx="10" ry="10"></rect>
<a xlink:href="#/statement/Program"><text x="129.75" y="134">Program</text>
</a>
</g>
<path d="M271.5 130a10 10 0 0 0 10 -10v-70a10 10 0 0 1 10 -10"></path>
<path d="M70 40a10 10 0 0 1 10 10v100a10 10 0 0 0 10 10"></path>
<g class="terminal">
<path d="M90 160h0"></path>
<path d="M186.5 160h85"></path>
<rect x="90" y="149" width="96.5" height="22" rx="10" ry="10"></rect>
<a xlink:href="#/statement/Parameter"><text x="138.25" y="164">Parameter</text>
</a>
</g>
<path d="M271.5 160a10 10 0 0 0 10 -10v-100a10 10 0 0 1 10 -10"></path>
<path d="M70 40a10 10 0 0 1 10 10v130a10 10 0 0 0 10 10"></path>
<g class="terminal">
<path d="M90 190h0"></path>
<path d="M263 190h8.5"></path>
<rect x="90" y="179" width="173" height="22" rx="10" ry="10"></rect>
<a xlink:href="#/statement/CheckSelectOptions"><text x="176.5" y="194">CheckSelectOptions</text>
</a>
</g>
<path d="M271.5 190a10 10 0 0 0 10 -10v-130a10 10 0 0 1 10 -10"></path>
<path d="M70 40a10 10 0 0 1 10 10v160a10 10 0 0 0 10 10"></path>
<g class="terminal">
<path d="M90 220h0"></path>
<path d="M135.5 220h136"></path>
<rect x="90" y="209" width="45.5" height="22" rx="10" ry="10"></rect>
<a xlink:href="#/statement/Get"><text x="112.75" y="224">Get</text>
</a>
</g>
<path d="M271.5 220a10 10 0 0 0 10 -10v-160a10 10 0 0 1 10 -10"></path>
<path d="M70 40a10 10 0 0 1 10 10v190a10 10 0 0 0 10 10"></path>
<g class="terminal">
<path d="M90 250h0"></path>
<path d="M229 250h42.5"></path>
<rect x="90" y="239" width="139" height="22" rx="10" ry="10"></rect>
<a xlink:href="#/statement/Initialization"><text x="159.5" y="254">Initialization</text>
</a>
</g>
<path d="M271.5 250a10 10 0 0 0 10 -10v-190a10 10 0 0 1 10 -10"></path>
<path d="M70 40a10 10 0 0 1 10 10v220a10 10 0 0 0 10 10"></path>
<g class="terminal">
<path d="M90 280h0"></path>
<path d="M254.5 280h17"></path>
<rect x="90" y="269" width="164.5" height="22" rx="10" ry="10"></rect>
<a xlink:href="#/statement/InterfaceDeferred"><text x="172.25" y="284">InterfaceDeferred</text>
</a>
</g>
<path d="M271.5 280a10 10 0 0 0 10 -10v-220a10 10 0 0 1 10 -10"></path>
<path d="M70 40a10 10 0 0 1 10 10v250a10 10 0 0 0 10 10"></path>
<g class="terminal">
<path d="M90 310h0"></path>
<path d="M237.5 310h34"></path>
<rect x="90" y="299" width="147.5" height="22" rx="10" ry="10"></rect>
<a xlink:href="#/statement/SelectionScreen"><text x="163.75" y="314">SelectionScreen</text>
</a>
</g>
<path d="M271.5 310a10 10 0 0 0 10 -10v-250a10 10 0 0 1 10 -10"></path>
<path d="M70 40a10 10 0 0 1 10 10v280a10 10 0 0 0 10 10"></path>
<g class="terminal">
<path d="M90 340h0"></path>
<path d="M212 340h59.5"></path>
<rect x="90" y="329" width="122" height="22" rx="10" ry="10"></rect>
<a xlink:href="#/statement/SelectOption"><text x="151" y="344">SelectOption</text>
</a>
</g>
<path d="M271.5 340a10 10 0 0 0 10 -10v-280a10 10 0 0 1 10 -10"></path>
<path d="M70 40a10 10 0 0 1 10 10v310a10 10 0 0 0 10 10"></path>
<g class="terminal">
<path d="M90 370h0"></path>
<path d="M254.5 370h17"></path>
<rect x="90" y="359" width="164.5" height="22" rx="10" ry="10"></rect>
<a xlink:href="#/statement/AtSelectionScreen"><text x="172.25" y="374">AtSelectionScreen</text>
</a>
</g>
<path d="M271.5 370a10 10 0 0 0 10 -10v-310a10 10 0 0 1 10 -10"></path>
<path d="M70 40a10 10 0 0 1 10 10v340a10 10 0 0 0 10 10"></path>
<g class="terminal">
<path d="M90 400h0"></path>
<path d="M237.5 400h34"></path>
<rect x="90" y="389" width="147.5" height="22" rx="10" ry="10"></rect>
<a xlink:href="#/statement/AtLineSelection"><text x="163.75" y="404">AtLineSelection</text>
</a>
</g>
<path d="M271.5 400a10 10 0 0 0 10 -10v-340a10 10 0 0 1 10 -10"></path>
<path d="M70 40a10 10 0 0 1 10 10v370a10 10 0 0 0 10 10"></path>
<g class="terminal">
<path d="M90 430h0"></path>
<path d="M220.5 430h51"></path>
<rect x="90" y="419" width="130.5" height="22" rx="10" ry="10"></rect>
<a xlink:href="#/statement/AtUserCommand"><text x="155.25" y="434">AtUserCommand</text>
</a>
</g>
<path d="M271.5 430a10 10 0 0 0 10 -10v-370a10 10 0 0 1 10 -10"></path>
<path d="M70 40a10 10 0 0 1 10 10v400a10 10 0 0 0 10 10"></path>
<g class="terminal">
<path d="M90 460h0"></path>
<path d="M246 460h25.5"></path>
<rect x="90" y="449" width="156" height="22" rx="10" ry="10"></rect>
<a xlink:href="#/statement/StartOfSelection"><text x="168" y="464">StartOfSelection</text>
</a>
</g>
<path d="M271.5 460a10 10 0 0 0 10 -10v-400a10 10 0 0 1 10 -10"></path>
<path d="M70 40a10 10 0 0 1 10 10v430a10 10 0 0 0 10 10"></path>
<g class="terminal">
<path d="M90 490h0"></path>
<path d="M229 490h42.5"></path>
<rect x="90" y="479" width="139" height="22" rx="10" ry="10"></rect>
<a xlink:href="#/statement/EndOfSelection"><text x="159.5" y="494">EndOfSelection</text>
</a>
</g>
<path d="M271.5 490a10 10 0 0 0 10 -10v-430a10 10 0 0 1 10 -10"></path>
<path d="M70 40a10 10 0 0 1 10 10v460a10 10 0 0 0 10 10"></path>
<g class="terminal">
<path d="M90 520h0"></path>
<path d="M220.5 520h51"></path>
<rect x="90" y="509" width="130.5" height="22" rx="10" ry="10"></rect>
<a xlink:href="#/statement/LoadOfProgram"><text x="155.25" y="524">LoadOfProgram</text>
</a>
</g>
<path d="M271.5 520a10 10 0 0 0 10 -10v-460a10 10 0 0 1 10 -10"></path>
<path d="M70 40a10 10 0 0 1 10 10v490a10 10 0 0 0 10 10"></path>
<g class="terminal">
<path d="M90 550h0"></path>
<path d="M186.5 550h85"></path>
<rect x="90" y="539" width="96.5" height="22" rx="10" ry="10"></rect>
<a xlink:href="#/statement/TopOfPage"><text x="138.25" y="554">TopOfPage</text>
</a>
</g>
<path d="M271.5 550a10 10 0 0 0 10 -10v-490a10 10 0 0 1 10 -10"></path>
<path d="M70 40a10 10 0 0 1 10 10v520a10 10 0 0 0 10 10"></path>
<g class="terminal">
<path d="M90 580h0"></path>
<path d="M186.5 580h85"></path>
<rect x="90" y="569" width="96.5" height="22" rx="10" ry="10"></rect>
<a xlink:href="#/statement/EndOfPage"><text x="138.25" y="584">EndOfPage</text>
</a>
</g>
<path d="M271.5 580a10 10 0 0 0 10 -10v-520a10 10 0 0 1 10 -10"></path>
<path d="M70 40a10 10 0 0 1 10 10v550a10 10 0 0 0 10 10"></path>
<g class="terminal">
<path d="M90 610h0"></path>
<path d="M178 610h93.5"></path>
<rect x="90" y="599" width="88" height="22" rx="10" ry="10"></rect>
<a xlink:href="#/statement/Controls"><text x="134" y="614">Controls</text>
</a>
</g>
<path d="M271.5 610a10 10 0 0 0 10 -10v-550a10 10 0 0 1 10 -10"></path>
<path d="M70 40a10 10 0 0 1 10 10v580a10 10 0 0 0 10 10"></path>
<g class="terminal">
<path d="M90 640h0"></path>
<path d="M186.5 640h85"></path>
<rect x="90" y="629" width="96.5" height="22" rx="10" ry="10"></rect>
<a xlink:href="#/statement/TypePools"><text x="138.25" y="644">TypePools</text>
</a>
</g>
<path d="M271.5 640a10 10 0 0 0 10 -10v-580a10 10 0 0 1 10 -10"></path>
<path d="M70 40a10 10 0 0 1 10 10v610a10 10 0 0 0 10 10"></path>
<g class="terminal">
<path d="M90 670h0"></path>
<path d="M178 670h93.5"></path>
<rect x="90" y="659" width="88" height="22" rx="10" ry="10"></rect>
<a xlink:href="#/statement/TypePool"><text x="134" y="674">TypePool</text>
</a>
</g>
<path d="M271.5 670a10 10 0 0 0 10 -10v-610a10 10 0 0 1 10 -10"></path>
<path d="M70 40a10 10 0 0 1 10 10v640a10 10 0 0 0 10 10"></path>
<g class="terminal">
<path d="M90 700h0"></path>
<path d="M212 700h59.5"></path>
<rect x="90" y="689" width="122" height="22" rx="10" ry="10"></rect>
<a xlink:href="#/statement/FunctionPool"><text x="151" y="704">FunctionPool</text>
</a>
</g>
<path d="M271.5 700a10 10 0 0 0 10 -10v-640a10 10 0 0 1 10 -10"></path>
<path d="M70 40a10 10 0 0 1 10 10v670a10 10 0 0 0 10 10"></path>
<g class="non-terminal">
<path d="M90 730h0"></path>
<path d="M161 730h110.5"></path>
<rect x="90" y="719" width="71" height="22"></rect>
<a xlink:href="#/structure/Normal"><text x="125.5" y="734">Normal</text>
</a>
</g>
<path d="M271.5 730a10 10 0 0 0 10 -10v-670a10 10 0 0 1 10 -10"></path>
<path d="M70 40a10 10 0 0 1 10 10v700a10 10 0 0 0 10 10"></path>
<g class="non-terminal">
<path d="M90 760h0"></path>
<path d="M144 760h127.5"></path>
<rect x="90" y="749" width="54" height="22"></rect>
<a xlink:href="#/structure/Form"><text x="117" y="764">Form</text>
</a>
</g>
<path d="M271.5 760a10 10 0 0 0 10 -10v-700a10 10 0 0 1 10 -10"></path>
<path d="M70 40a10 10 0 0 1 10 10v730a10 10 0 0 0 10 10"></path>
<g class="non-terminal">
<path d="M90 790h0"></path>
<path d="M161 790h110.5"></path>
<rect x="90" y="779" width="71" height="22"></rect>
<a xlink:href="#/structure/Module"><text x="125.5" y="794">Module</text>
</a>
</g>
<path d="M271.5 790a10 10 0 0 0 10 -10v-730a10 10 0 0 1 10 -10"></path>
<path d="M70 40a10 10 0 0 1 10 10v760a10 10 0 0 0 10 10"></path>
<g class="non-terminal">
<path d="M90 820h0"></path>
<path d="M229 820h42.5"></path>
<rect x="90" y="809" width="139" height="22"></rect>
<a xlink:href="#/structure/FunctionModule"><text x="159.5" y="824">FunctionModule</text>
</a>
</g>
<path d="M271.5 820a10 10 0 0 0 10 -10v-760a10 10 0 0 1 10 -10"></path>
<path d="M70 40a10 10 0 0 1 10 10v790a10 10 0 0 0 10 10"></path>
<g class="non-terminal">
<path d="M90 850h0"></path>
<path d="M186.5 850h85"></path>
<rect x="90" y="839" width="96.5" height="22"></rect>
<a xlink:href="#/structure/Interface"><text x="138.25" y="854">Interface</text>
</a>
</g>
<path d="M271.5 850a10 10 0 0 0 10 -10v-790a10 10 0 0 1 10 -10"></path>
<path d="M70 40a10 10 0 0 1 10 10v820a10 10 0 0 0 10 10"></path>
<g class="non-terminal">
<path d="M90 880h0"></path>
<path d="M237.5 880h34"></path>
<rect x="90" y="869" width="147.5" height="22"></rect>
<a xlink:href="#/structure/ClassDefinition"><text x="163.75" y="884">ClassDefinition</text>
</a>
</g>
<path d="M271.5 880a10 10 0 0 0 10 -10v-820a10 10 0 0 1 10 -10"></path>
<path d="M70 40a10 10 0 0 1 10 10v850a10 10 0 0 0 10 10"></path>
<g class="non-terminal">
<path d="M90 910h0"></path>
<path d="M271.5 910h0"></path>
<rect x="90" y="899" width="181.5" height="22"></rect>
<a xlink:href="#/structure/ClassImplementation"><text x="180.75" y="914">ClassImplementation</text>
</a>
</g>
<path d="M271.5 910a10 10 0 0 0 10 -10v-850a10 10 0 0 1 10 -10"></path>
</g>
<path d="M291.5 40h10"></path>
<path d="M70 40a10 10 0 0 0 -10 10v869a10 10 0 0 0 10 10"></path>
<g>
<path d="M70 929h221.5"></path>
</g>
<path d="M291.5 929a10 10 0 0 0 10 -10v-869a10 10 0 0 0 -10 -10"></path>
</g>
<path d="M301.5 40h20"></path>
</g>
<path d="M 321.5 40 h 20 m -10 -10 v 20 m 10 -20 v 20"></path>
</g>
</svg>
