<svg xmlns="http://www.w3.org/2000/svg" xmlns:xlink="http://www.w3.org/1999/xlink" class="railroad-diagram" width="339" height="101" viewBox="0 0 339 101">
<defs>
<style type="text/css"><![CDATA[
path {
stroke-width: 3;
stroke: black;
fill: rgba(0,0,0,0);
}
text {
font: bold 14px monospace;
text-anchor: middle;
}
text.diagram-text {
font-size: 12px;
}
a {
fill: blue;
}
text.diagram-arrow {
font-size: 16px;
}
text.label {
text-anchor: start;
}
text.comment {
font: italic 12px monospace;
}
rect {
stroke-width: 3;
stroke: black;
fill: #BCBCBC;
}
path.diagram-text {
stroke-width: 3;
stroke: black;
fill: #BCBCBC;
cursor: help;
}
]]></style>
</defs>
<g transform="translate(.5 .5)">
<g>
<path d="M20 30v20m10 -20v20m-10 -10h20"></path>
</g>
<path d="M40 40h10"></path>
<g>
<path d="M50 40h0"></path>
<path d="M289 40h0"></path>
<g>
<path d="M50 40h0"></path>
<path d="M195 40h0"></path>
<path d="M50 40h20"></path>
<g class="terminal">
<path d="M70 40h0"></path>
<path d="M124 40h51"></path>
<rect x="70" y="29" width="54" height="22" rx="10" ry="10"></rect>
<a xlink:href="#/statement/When"><text x="97" y="44">When</text>
</a>
</g>
<path d="M175 40h20"></path>
<path d="M50 40a10 10 0 0 1 10 10v10a10 10 0 0 0 10 10"></path>
<g class="terminal">
<path d="M70 70h0"></path>
<path d="M175 70h0"></path>
<rect x="70" y="59" width="105" height="22" rx="10" ry="10"></rect>
<a xlink:href="#/statement/WhenOthers"><text x="122.5" y="74">WhenOthers</text>
</a>
</g>
<path d="M175 70a10 10 0 0 0 10 -10v-10a10 10 0 0 1 10 -10"></path>
</g>
<g>
<path d="M195 40h0"></path>
<path d="M289 40h0"></path>
<path d="M195 40a10 10 0 0 0 10 -10v0a10 10 0 0 1 10 -10"></path>
<g>
<path d="M215 20h54"></path>
</g>
<path d="M269 20a10 10 0 0 1 10 10v0a10 10 0 0 0 10 10"></path>
<path d="M195 40h20"></path>
<g class="non-terminal">
<path d="M215 40h0"></path>
<path d="M269 40h0"></path>
<rect x="215" y="29" width="54" height="22"></rect>
<a xlink:href="#/structure/Body"><text x="242" y="44">Body</text>
</a>
</g>
<path d="M269 40h20"></path>
</g>
</g>
<path d="M289 40h10"></path>
<path d="M 299 40 h 20 m -10 -10 v 20 m 10 -20 v 20"></path>
</g>
</svg>
