<svg xmlns="http://www.w3.org/2000/svg" xmlns:xlink="http://www.w3.org/1999/xlink" class="railroad-diagram" width="558.5" height="80" viewBox="0 0 558.5 80">
<defs>
<style type="text/css"><![CDATA[
path {
stroke-width: 3;
stroke: black;
fill: rgba(0,0,0,0);
}
text {
font: bold 14px monospace;
text-anchor: middle;
}
text.diagram-text {
font-size: 12px;
}
a {
fill: blue;
}
text.diagram-arrow {
font-size: 16px;
}
text.label {
text-anchor: start;
}
text.comment {
font: italic 12px monospace;
}
rect {
stroke-width: 3;
stroke: black;
fill: #BCBCBC;
}
path.diagram-text {
stroke-width: 3;
stroke: black;
fill: #BCBCBC;
cursor: help;
}
]]></style>
</defs>
<g transform="translate(.5 .5)">
<g>
<path d="M20 30v20m10 -20v20m-10 -10h20"></path>
</g>
<path d="M40 40h10"></path>
<g>
<path d="M50 40h0"></path>
<path d="M508.5 40h0"></path>
<g class="terminal">
<path d="M50 40h0"></path>
<path d="M87 40h0"></path>
<rect x="50" y="29" width="37" height="22" rx="10" ry="10"></rect>
<a xlink:href="#/statement/If"><text x="68.5" y="44">If</text>
</a>
</g>
<path d="M87 40h10"></path>
<path d="M97 40h10"></path>
<g>
<path d="M107 40h0"></path>
<path d="M426 40h0"></path>
<g>
<path d="M107 40h0"></path>
<path d="M201 40h0"></path>
<path d="M107 40a10 10 0 0 0 10 -10v0a10 10 0 0 1 10 -10"></path>
<g>
<path d="M127 20h54"></path>
</g>
<path d="M181 20a10 10 0 0 1 10 10v0a10 10 0 0 0 10 10"></path>
<path d="M107 40h20"></path>
<g class="non-terminal">
<path d="M127 40h0"></path>
<path d="M181 40h0"></path>
<rect x="127" y="29" width="54" height="22"></rect>
<a xlink:href="#/structure/Body"><text x="154" y="44">Body</text>
</a>
</g>
<path d="M181 40h20"></path>
</g>
<g>
<path d="M201 40h0"></path>
<path d="M332 40h0"></path>
<path d="M201 40a10 10 0 0 0 10 -10v0a10 10 0 0 1 10 -10"></path>
<g>
<path d="M221 20h91"></path>
</g>
<path d="M312 20a10 10 0 0 1 10 10v0a10 10 0 0 0 10 10"></path>
<path d="M201 40h20"></path>
<g>
<path d="M221 40h0"></path>
<path d="M312 40h0"></path>
<path d="M221 40h10"></path>
<g class="non-terminal">
<path d="M231 40h0"></path>
<path d="M302 40h0"></path>
<rect x="231" y="29" width="71" height="22"></rect>
<a xlink:href="#/structure/ElseIf"><text x="266.5" y="44">ElseIf</text>
</a>
</g>
<path d="M302 40h10"></path>
<path d="M231 40a10 10 0 0 0 -10 10v0a10 10 0 0 0 10 10"></path>
<g>
<path d="M231 60h71"></path>
</g>
<path d="M302 60a10 10 0 0 0 10 -10v0a10 10 0 0 0 -10 -10"></path>
</g>
<path d="M312 40h20"></path>
</g>
<g>
<path d="M332 40h0"></path>
<path d="M426 40h0"></path>
<path d="M332 40a10 10 0 0 0 10 -10v0a10 10 0 0 1 10 -10"></path>
<g>
<path d="M352 20h54"></path>
</g>
<path d="M406 20a10 10 0 0 1 10 10v0a10 10 0 0 0 10 10"></path>
<path d="M332 40h20"></path>
<g class="non-terminal">
<path d="M352 40h0"></path>
<path d="M406 40h0"></path>
<rect x="352" y="29" width="54" height="22"></rect>
<a xlink:href="#/structure/Else"><text x="379" y="44">Else</text>
</a>
</g>
<path d="M406 40h20"></path>
</g>
</g>
<path d="M426 40h10"></path>
<path d="M436 40h10"></path>
<g class="terminal">
<path d="M446 40h0"></path>
<path d="M508.5 40h0"></path>
<rect x="446" y="29" width="62.5" height="22" rx="10" ry="10"></rect>
<a xlink:href="#/statement/EndIf"><text x="477.25" y="44">EndIf</text>
</a>
</g>
</g>
<path d="M508.5 40h10"></path>
<path d="M 518.5 40 h 20 m -10 -10 v 20 m 10 -20 v 20"></path>
</g>
</svg>
