<svg xmlns="http://www.w3.org/2000/svg" xmlns:xlink="http://www.w3.org/1999/xlink" class="railroad-diagram" width="450" height="139" viewBox="0 0 450 139">
<defs>
<style type="text/css"><![CDATA[
path {
stroke-width: 3;
stroke: black;
fill: rgba(0,0,0,0);
}
text {
font: bold 14px monospace;
text-anchor: middle;
}
text.diagram-text {
font-size: 12px;
}
a {
fill: blue;
}
text.diagram-arrow {
font-size: 16px;
}
text.label {
text-anchor: start;
}
text.comment {
font: italic 12px monospace;
}
rect {
stroke-width: 3;
stroke: black;
fill: #BCBCBC;
}
path.diagram-text {
stroke-width: 3;
stroke: black;
fill: #BCBCBC;
cursor: help;
}
]]></style>
</defs>
<g transform="translate(.5 .5)">
<g>
<path d="M20 30v20m10 -20v20m-10 -10h20"></path>
</g>
<path d="M40 40h10"></path>
<g>
<path d="M50 40h0"></path>
<path d="M400 40h0"></path>
<g class="terminal">
<path d="M50 40h0"></path>
<path d="M104 40h0"></path>
<rect x="50" y="29" width="54" height="22" rx="10" ry="10"></rect>
<a xlink:href="#/statement/Case"><text x="77" y="44">Case</text>
</a>
</g>
<path d="M104 40h10"></path>
<g>
<path d="M114 40h0"></path>
<path d="M310.5 40h0"></path>
<path d="M114 40a10 10 0 0 0 10 -10v0a10 10 0 0 1 10 -10"></path>
<g>
<path d="M134 20h156.5"></path>
</g>
<path d="M290.5 20a10 10 0 0 1 10 10v0a10 10 0 0 0 10 10"></path>
<path d="M114 40h20"></path>
<g>
<path d="M134 40h0"></path>
<path d="M290.5 40h0"></path>
<path d="M134 40h10"></path>
<g>
<path d="M144 40h0"></path>
<path d="M280.5 40h0"></path>
<path d="M144 40h20"></path>
<g class="non-terminal">
<path d="M164 40h0"></path>
<path d="M218 40h42.5"></path>
<rect x="164" y="29" width="54" height="22"></rect>
<a xlink:href="#/structure/When"><text x="191" y="44">When</text>
</a>
</g>
<path d="M260.5 40h20"></path>
<path d="M144 40a10 10 0 0 1 10 10v10a10 10 0 0 0 10 10"></path>
<g class="terminal">
<path d="M164 70h0"></path>
<path d="M260.5 70h0"></path>
<rect x="164" y="59" width="96.5" height="22" rx="10" ry="10"></rect>
<a xlink:href="#/statement/MacroCall"><text x="212.25" y="74">MacroCall</text>
</a>
</g>
<path d="M260.5 70a10 10 0 0 0 10 -10v-10a10 10 0 0 1 10 -10"></path>
<path d="M144 40a10 10 0 0 1 10 10v40a10 10 0 0 0 10 10"></path>
<g class="terminal">
<path d="M164 100h0"></path>
<path d="M243.5 100h17"></path>
<rect x="164" y="89" width="79.5" height="22" rx="10" ry="10"></rect>
<a xlink:href="#/statement/Include"><text x="203.75" y="104">Include</text>
</a>
</g>
<path d="M260.5 100a10 10 0 0 0 10 -10v-40a10 10 0 0 1 10 -10"></path>
</g>
<path d="M280.5 40h10"></path>
<path d="M144 40a10 10 0 0 0 -10 10v59a10 10 0 0 0 10 10"></path>
<g>
<path d="M144 119h136.5"></path>
</g>
<path d="M280.5 119a10 10 0 0 0 10 -10v-59a10 10 0 0 0 -10 -10"></path>
</g>
<path d="M290.5 40h20"></path>
</g>
<path d="M310.5 40h10"></path>
<g class="terminal">
<path d="M320.5 40h0"></path>
<path d="M400 40h0"></path>
<rect x="320.5" y="29" width="79.5" height="22" rx="10" ry="10"></rect>
<a xlink:href="#/statement/EndCase"><text x="360.25" y="44">EndCase</text>
</a>
</g>
</g>
<path d="M400 40h10"></path>
<path d="M 410 40 h 20 m -10 -10 v 20 m 10 -20 v 20"></path>
</g>
</svg>
