<svg xmlns="http://www.w3.org/2000/svg" xmlns:xlink="http://www.w3.org/1999/xlink" class="railroad-diagram" width="546" height="80" viewBox="0 0 546 80">
<defs>
<style type="text/css"><![CDATA[
path {
stroke-width: 3;
stroke: black;
fill: rgba(0,0,0,0);
}
text {
font: bold 14px monospace;
text-anchor: middle;
}
text.diagram-text {
font-size: 12px;
}
a {
fill: blue;
}
text.diagram-arrow {
font-size: 16px;
}
text.label {
text-anchor: start;
}
text.comment {
font: italic 12px monospace;
}
rect {
stroke-width: 3;
stroke: black;
fill: #BCBCBC;
}
path.diagram-text {
stroke-width: 3;
stroke: black;
fill: #BCBCBC;
cursor: help;
}
]]></style>
</defs>
<g transform="translate(.5 .5)">
<g>
<path d="M20 30v20m10 -20v20m-10 -10h20"></path>
</g>
<path d="M40 40h10"></path>
<g>
<path d="M50 40h0"></path>
<path d="M496 40h0"></path>
<g class="terminal">
<path d="M50 40h0"></path>
<path d="M146.5 40h0"></path>
<rect x="50" y="29" width="96.5" height="22" rx="10" ry="10"></rect>
<a xlink:href="#/statement/Interface"><text x="98.25" y="44">Interface</text>
</a>
</g>
<path d="M146.5 40h10"></path>
<g>
<path d="M156.5 40h0"></path>
<path d="M364 40h0"></path>
<path d="M156.5 40a10 10 0 0 0 10 -10v0a10 10 0 0 1 10 -10"></path>
<g>
<path d="M176.5 20h167.5"></path>
</g>
<path d="M344 20a10 10 0 0 1 10 10v0a10 10 0 0 0 10 10"></path>
<path d="M156.5 40h20"></path>
<g>
<path d="M176.5 40h0"></path>
<path d="M344 40h0"></path>
<path d="M176.5 40h10"></path>
<g class="non-terminal">
<path d="M186.5 40h0"></path>
<path d="M334 40h0"></path>
<rect x="186.5" y="29" width="147.5" height="22"></rect>
<a xlink:href="#/structure/SectionContents"><text x="260.25" y="44">SectionContents</text>
</a>
</g>
<path d="M334 40h10"></path>
<path d="M186.5 40a10 10 0 0 0 -10 10v0a10 10 0 0 0 10 10"></path>
<g>
<path d="M186.5 60h147.5"></path>
</g>
<path d="M334 60a10 10 0 0 0 10 -10v0a10 10 0 0 0 -10 -10"></path>
</g>
<path d="M344 40h20"></path>
</g>
<path d="M364 40h10"></path>
<g class="terminal">
<path d="M374 40h0"></path>
<path d="M496 40h0"></path>
<rect x="374" y="29" width="122" height="22" rx="10" ry="10"></rect>
<a xlink:href="#/statement/EndInterface"><text x="435" y="44">EndInterface</text>
</a>
</g>
</g>
<path d="M496 40h10"></path>
<path d="M 506 40 h 20 m -10 -10 v 20 m 10 -20 v 20"></path>
</g>
</svg>
