<svg xmlns="http://www.w3.org/2000/svg" xmlns:xlink="http://www.w3.org/1999/xlink" class="railroad-diagram" width="318.5" height="6422" viewBox="0 0 318.5 6422">
<defs>
<style type="text/css"><![CDATA[
path {
stroke-width: 3;
stroke: black;
fill: rgba(0,0,0,0);
}
text {
font: bold 14px monospace;
text-anchor: middle;
}
text.diagram-text {
font-size: 12px;
}
a {
fill: blue;
}
text.diagram-arrow {
font-size: 16px;
}
text.label {
text-anchor: start;
}
text.comment {
font: italic 12px monospace;
}
rect {
stroke-width: 3;
stroke: black;
fill: #BCBCBC;
}
path.diagram-text {
stroke-width: 3;
stroke: black;
fill: #BCBCBC;
cursor: help;
}
]]></style>
</defs>
<g transform="translate(.5 .5)">
<g>
<path d="M20 21v20m10 -20v20m-10 -10h20"></path>
</g>
<g>
<path d="M40 31h0"></path>
<path d="M278.5 31h0"></path>
<path d="M40 31h20"></path>
<g class="terminal">
<path d="M60 31h0"></path>
<path d="M114 31h144.5"></path>
<rect x="60" y="20" width="54" height="22" rx="10" ry="10"></rect>
<a xlink:href="#/statement/Move"><text x="87" y="35">Move</text>
</a>
</g>
<path d="M258.5 31h20"></path>
<path d="M40 31a10 10 0 0 1 10 10v10a10 10 0 0 0 10 10"></path>
<g class="terminal">
<path d="M60 61h0"></path>
<path d="M114 61h144.5"></path>
<rect x="60" y="50" width="54" height="22" rx="10" ry="10"></rect>
<a xlink:href="#/statement/Call"><text x="87" y="65">Call</text>
</a>
</g>
<path d="M258.5 61a10 10 0 0 0 10 -10v-10a10 10 0 0 1 10 -10"></path>
<path d="M40 31a10 10 0 0 1 10 10v40a10 10 0 0 0 10 10"></path>
<g class="terminal">
<path d="M60 91h0"></path>
<path d="M114 91h144.5"></path>
<rect x="60" y="80" width="54" height="22" rx="10" ry="10"></rect>
<a xlink:href="#/statement/Data"><text x="87" y="95">Data</text>
</a>
</g>
<path d="M258.5 91a10 10 0 0 0 10 -10v-40a10 10 0 0 1 10 -10"></path>
<path d="M40 31a10 10 0 0 1 10 10v70a10 10 0 0 0 10 10"></path>
<g class="non-terminal">
<path d="M60 121h0"></path>
<path d="M97 121h161.5"></path>
<rect x="60" y="110" width="37" height="22"></rect>
<a xlink:href="#/structure/If"><text x="78.5" y="125">If</text>
</a>
</g>
<path d="M258.5 121a10 10 0 0 0 10 -10v-70a10 10 0 0 1 10 -10"></path>
<path d="M40 31a10 10 0 0 1 10 10v100a10 10 0 0 0 10 10"></path>
<g class="terminal">
<path d="M60 151h0"></path>
<path d="M122.5 151h136"></path>
<rect x="60" y="140" width="62.5" height="22" rx="10" ry="10"></rect>
<a xlink:href="#/statement/Clear"><text x="91.25" y="155">Clear</text>
</a>
</g>
<path d="M258.5 151a10 10 0 0 0 10 -10v-100a10 10 0 0 1 10 -10"></path>
<path d="M40 31a10 10 0 0 1 10 10v130a10 10 0 0 0 10 10"></path>
<g class="terminal">
<path d="M60 181h0"></path>
<path d="M173.5 181h85"></path>
<rect x="60" y="170" width="113.5" height="22" rx="10" ry="10"></rect>
<a xlink:href="#/statement/FieldSymbol"><text x="116.75" y="185">FieldSymbol</text>
</a>
</g>
<path d="M258.5 181a10 10 0 0 0 10 -10v-130a10 10 0 0 1 10 -10"></path>
<path d="M40 31a10 10 0 0 1 10 10v160a10 10 0 0 0 10 10"></path>
<g class="terminal">
<path d="M60 211h0"></path>
<path d="M182 211h76.5"></path>
<rect x="60" y="200" width="122" height="22" rx="10" ry="10"></rect>
<a xlink:href="#/statement/CreateObject"><text x="121" y="215">CreateObject</text>
</a>
</g>
<path d="M258.5 211a10 10 0 0 0 10 -10v-160a10 10 0 0 1 10 -10"></path>
<path d="M40 31a10 10 0 0 1 10 10v190a10 10 0 0 0 10 10"></path>
<g class="terminal">
<path d="M60 241h0"></path>
<path d="M182 241h76.5"></path>
<rect x="60" y="230" width="122" height="22" rx="10" ry="10"></rect>
<a xlink:href="#/statement/CallFunction"><text x="121" y="245">CallFunction</text>
</a>
</g>
<path d="M258.5 241a10 10 0 0 0 10 -10v-190a10 10 0 0 1 10 -10"></path>
<path d="M40 31a10 10 0 0 1 10 10v220a10 10 0 0 0 10 10"></path>
<g class="terminal">
<path d="M60 271h0"></path>
<path d="M156.5 271h102"></path>
<rect x="60" y="260" width="96.5" height="22" rx="10" ry="10"></rect>
<a xlink:href="#/statement/MacroCall"><text x="108.25" y="275">MacroCall</text>
</a>
</g>
<path d="M258.5 271a10 10 0 0 0 10 -10v-220a10 10 0 0 1 10 -10"></path>
<path d="M40 31a10 10 0 0 1 10 10v250a10 10 0 0 0 10 10"></path>
<g class="non-terminal">
<path d="M60 301h0"></path>
<path d="M114 301h144.5"></path>
<rect x="60" y="290" width="54" height="22"></rect>
<a xlink:href="#/structure/Loop"><text x="87" y="305">Loop</text>
</a>
</g>
<path d="M258.5 301a10 10 0 0 0 10 -10v-250a10 10 0 0 1 10 -10"></path>
<path d="M40 31a10 10 0 0 1 10 10v280a10 10 0 0 0 10 10"></path>
<g class="terminal">
<path d="M60 331h0"></path>
<path d="M131 331h127.5"></path>
<rect x="60" y="320" width="71" height="22" rx="10" ry="10"></rect>
<a xlink:href="#/statement/Append"><text x="95.5" y="335">Append</text>
</a>
</g>
<path d="M258.5 331a10 10 0 0 0 10 -10v-280a10 10 0 0 1 10 -10"></path>
<path d="M40 31a10 10 0 0 1 10 10v310a10 10 0 0 0 10 10"></path>
<g class="non-terminal">
<path d="M60 361h0"></path>
<path d="M105.5 361h153"></path>
<rect x="60" y="350" width="45.5" height="22"></rect>
<a xlink:href="#/structure/Try"><text x="82.75" y="365">Try</text>
</a>
</g>
<path d="M258.5 361a10 10 0 0 0 10 -10v-310a10 10 0 0 1 10 -10"></path>
<path d="M40 31a10 10 0 0 1 10 10v340a10 10 0 0 0 10 10"></path>
<g class="terminal">
<path d="M60 391h0"></path>
<path d="M156.5 391h102"></path>
<rect x="60" y="380" width="96.5" height="22" rx="10" ry="10"></rect>
<a xlink:href="#/statement/ReadTable"><text x="108.25" y="395">ReadTable</text>
</a>
</g>
<path d="M258.5 391a10 10 0 0 0 10 -10v-340a10 10 0 0 1 10 -10"></path>
<path d="M40 31a10 10 0 0 1 10 10v370a10 10 0 0 0 10 10"></path>
<g class="terminal">
<path d="M60 421h0"></path>
<path d="M131 421h127.5"></path>
<rect x="60" y="410" width="71" height="22" rx="10" ry="10"></rect>
<a xlink:href="#/statement/Assert"><text x="95.5" y="425">Assert</text>
</a>
</g>
<path d="M258.5 421a10 10 0 0 0 10 -10v-370a10 10 0 0 1 10 -10"></path>
<path d="M40 31a10 10 0 0 1 10 10v400a10 10 0 0 0 10 10"></path>
<g class="terminal">
<path d="M60 451h0"></path>
<path d="M131 451h127.5"></path>
<rect x="60" y="440" width="71" height="22" rx="10" ry="10"></rect>
<a xlink:href="#/statement/Return"><text x="95.5" y="455">Return</text>
</a>
</g>
<path d="M258.5 451a10 10 0 0 0 10 -10v-400a10 10 0 0 1 10 -10"></path>
<path d="M40 31a10 10 0 0 1 10 10v430a10 10 0 0 0 10 10"></path>
<g class="terminal">
<path d="M60 481h0"></path>
<path d="M131 481h127.5"></path>
<rect x="60" y="470" width="71" height="22" rx="10" ry="10"></rect>
<a xlink:href="#/statement/Select"><text x="95.5" y="485">Select</text>
</a>
</g>
<path d="M258.5 481a10 10 0 0 0 10 -10v-430a10 10 0 0 1 10 -10"></path>
<path d="M40 31a10 10 0 0 1 10 10v460a10 10 0 0 0 10 10"></path>
<g class="terminal">
<path d="M60 511h0"></path>
<path d="M131 511h127.5"></path>
<rect x="60" y="500" width="71" height="22" rx="10" ry="10"></rect>
<a xlink:href="#/statement/Assign"><text x="95.5" y="515">Assign</text>
</a>
</g>
<path d="M258.5 511a10 10 0 0 0 10 -10v-460a10 10 0 0 1 10 -10"></path>
<path d="M40 31a10 10 0 0 1 10 10v490a10 10 0 0 0 10 10"></path>
<g class="terminal">
<path d="M60 541h0"></path>
<path d="M199 541h59.5"></path>
<rect x="60" y="530" width="139" height="22" rx="10" ry="10"></rect>
<a xlink:href="#/statement/InsertInternal"><text x="129.5" y="545">InsertInternal</text>
</a>
</g>
<path d="M258.5 541a10 10 0 0 0 10 -10v-490a10 10 0 0 1 10 -10"></path>
<path d="M40 31a10 10 0 0 1 10 10v520a10 10 0 0 0 10 10"></path>
<g class="terminal">
<path d="M60 571h0"></path>
<path d="M199 571h59.5"></path>
<rect x="60" y="560" width="139" height="22" rx="10" ry="10"></rect>
<a xlink:href="#/statement/DeleteInternal"><text x="129.5" y="575">DeleteInternal</text>
</a>
</g>
<path d="M258.5 571a10 10 0 0 0 10 -10v-520a10 10 0 0 1 10 -10"></path>
<path d="M40 31a10 10 0 0 1 10 10v550a10 10 0 0 0 10 10"></path>
<g class="terminal">
<path d="M60 601h0"></path>
<path d="M173.5 601h85"></path>
<rect x="60" y="590" width="113.5" height="22" rx="10" ry="10"></rect>
<a xlink:href="#/statement/Concatenate"><text x="116.75" y="605">Concatenate</text>
</a>
</g>
<path d="M258.5 601a10 10 0 0 0 10 -10v-550a10 10 0 0 1 10 -10"></path>
<path d="M40 31a10 10 0 0 1 10 10v580a10 10 0 0 0 10 10"></path>
<g class="non-terminal">
<path d="M60 631h0"></path>
<path d="M114 631h144.5"></path>
<rect x="60" y="620" width="54" height="22"></rect>
<a xlink:href="#/structure/Case"><text x="87" y="635">Case</text>
</a>
</g>
<path d="M258.5 631a10 10 0 0 0 10 -10v-580a10 10 0 0 1 10 -10"></path>
<path d="M40 31a10 10 0 0 1 10 10v610a10 10 0 0 0 10 10"></path>
<g class="non-terminal">
<path d="M60 661h0"></path>
<path d="M148 661h110.5"></path>
<rect x="60" y="650" width="88" height="22"></rect>
<a xlink:href="#/structure/CaseType"><text x="104" y="665">CaseType</text>
</a>
</g>
<path d="M258.5 661a10 10 0 0 0 10 -10v-610a10 10 0 0 1 10 -10"></path>
<path d="M40 31a10 10 0 0 1 10 10v640a10 10 0 0 0 10 10"></path>
<g class="non-terminal">
<path d="M60 691h0"></path>
<path d="M173.5 691h85"></path>
<rect x="60" y="680" width="113.5" height="22"></rect>
<a xlink:href="#/structure/Enhancement"><text x="116.75" y="695">Enhancement</text>
</a>
</g>
<path d="M258.5 691a10 10 0 0 0 10 -10v-640a10 10 0 0 1 10 -10"></path>
<path d="M40 31a10 10 0 0 1 10 10v670a10 10 0 0 0 10 10"></path>
<g class="non-terminal">
<path d="M60 721h0"></path>
<path d="M233 721h25.5"></path>
<rect x="60" y="710" width="173" height="22"></rect>
<a xlink:href="#/structure/EnhancementSection"><text x="146.5" y="725">EnhancementSection</text>
</a>
</g>
<path d="M258.5 721a10 10 0 0 0 10 -10v-670a10 10 0 0 1 10 -10"></path>
<path d="M40 31a10 10 0 0 1 10 10v700a10 10 0 0 0 10 10"></path>
<g class="terminal">
<path d="M60 751h0"></path>
<path d="M216 751h42.5"></path>
<rect x="60" y="740" width="156" height="22" rx="10" ry="10"></rect>
<a xlink:href="#/statement/AddCorresponding"><text x="138" y="755">AddCorresponding</text>
</a>
</g>
<path d="M258.5 751a10 10 0 0 0 10 -10v-700a10 10 0 0 1 10 -10"></path>
<path d="M40 31a10 10 0 0 1 10 10v730a10 10 0 0 0 10 10"></path>
<g class="terminal">
<path d="M60 781h0"></path>
<path d="M105.5 781h153"></path>
<rect x="60" y="770" width="45.5" height="22" rx="10" ry="10"></rect>
<a xlink:href="#/statement/Add"><text x="82.75" y="785">Add</text>
</a>
</g>
<path d="M258.5 781a10 10 0 0 0 10 -10v-730a10 10 0 0 1 10 -10"></path>
<path d="M40 31a10 10 0 0 1 10 10v760a10 10 0 0 0 10 10"></path>
<g class="terminal">
<path d="M60 811h0"></path>
<path d="M207.5 811h51"></path>
<rect x="60" y="800" width="147.5" height="22" rx="10" ry="10"></rect>
<a xlink:href="#/statement/AssignLocalCopy"><text x="133.75" y="815">AssignLocalCopy</text>
</a>
</g>
<path d="M258.5 811a10 10 0 0 0 10 -10v-760a10 10 0 0 1 10 -10"></path>
<path d="M40 31a10 10 0 0 1 10 10v790a10 10 0 0 0 10 10"></path>
<g class="terminal">
<path d="M60 841h0"></path>
<path d="M199 841h59.5"></path>
<rect x="60" y="830" width="139" height="22" rx="10" ry="10"></rect>
<a xlink:href="#/statement/AuthorityCheck"><text x="129.5" y="845">AuthorityCheck</text>
</a>
</g>
<path d="M258.5 841a10 10 0 0 0 10 -10v-790a10 10 0 0 1 10 -10"></path>
<path d="M40 31a10 10 0 0 1 10 10v820a10 10 0 0 0 10 10"></path>
<g class="terminal">
<path d="M60 871h0"></path>
<path d="M114 871h144.5"></path>
<rect x="60" y="860" width="54" height="22" rx="10" ry="10"></rect>
<a xlink:href="#/statement/Back"><text x="87" y="875">Back</text>
</a>
</g>
<path d="M258.5 871a10 10 0 0 0 10 -10v-820a10 10 0 0 1 10 -10"></path>
<path d="M40 31a10 10 0 0 1 10 10v850a10 10 0 0 0 10 10"></path>
<g class="terminal">
<path d="M60 901h0"></path>
<path d="M122.5 901h136"></path>
<rect x="60" y="890" width="62.5" height="22" rx="10" ry="10"></rect>
<a xlink:href="#/statement/Break"><text x="91.25" y="905">Break</text>
</a>
</g>
<path d="M258.5 901a10 10 0 0 0 10 -10v-850a10 10 0 0 1 10 -10"></path>
<path d="M40 31a10 10 0 0 1 10 10v880a10 10 0 0 0 10 10"></path>
<g class="terminal">
<path d="M60 931h0"></path>
<path d="M139.5 931h119"></path>
<rect x="60" y="920" width="79.5" height="22" rx="10" ry="10"></rect>
<a xlink:href="#/statement/BreakId"><text x="99.75" y="935">BreakId</text>
</a>
</g>
<path d="M258.5 931a10 10 0 0 0 10 -10v-880a10 10 0 0 1 10 -10"></path>
<path d="M40 31a10 10 0 0 1 10 10v910a10 10 0 0 0 10 10"></path>
<g class="terminal">
<path d="M60 961h0"></path>
<path d="M182 961h76.5"></path>
<rect x="60" y="950" width="122" height="22" rx="10" ry="10"></rect>
<a xlink:href="#/statement/CallDatabase"><text x="121" y="965">CallDatabase</text>
</a>
</g>
<path d="M258.5 961a10 10 0 0 0 10 -10v-910a10 10 0 0 1 10 -10"></path>
<path d="M40 31a10 10 0 0 1 10 10v940a10 10 0 0 0 10 10"></path>
<g class="terminal">
<path d="M60 991h0"></path>
<path d="M165 991h93.5"></path>
<rect x="60" y="980" width="105" height="22" rx="10" ry="10"></rect>
<a xlink:href="#/statement/CallDialog"><text x="112.5" y="995">CallDialog</text>
</a>
</g>
<path d="M258.5 991a10 10 0 0 0 10 -10v-940a10 10 0 0 1 10 -10"></path>
<path d="M40 31a10 10 0 0 1 10 10v970a10 10 0 0 0 10 10"></path>
<g class="terminal">
<path d="M60 1021h0"></path>
<path d="M165 1021h93.5"></path>
<rect x="60" y="1010" width="105" height="22" rx="10" ry="10"></rect>
<a xlink:href="#/statement/CallKernel"><text x="112.5" y="1025">CallKernel</text>
</a>
</g>
<path d="M258.5 1021a10 10 0 0 0 10 -10v-970a10 10 0 0 1 10 -10"></path>
<path d="M40 31a10 10 0 0 1 10 10v1000a10 10 0 0 0 10 10"></path>
<g class="terminal">
<path d="M60 1051h0"></path>
<path d="M139.5 1051h119"></path>
<rect x="60" y="1040" width="79.5" height="22" rx="10" ry="10"></rect>
<a xlink:href="#/statement/CallOLE"><text x="99.75" y="1055">CallOLE</text>
</a>
</g>
<path d="M258.5 1051a10 10 0 0 0 10 -10v-1000a10 10 0 0 1 10 -10"></path>
<path d="M40 31a10 10 0 0 1 10 10v1030a10 10 0 0 0 10 10"></path>
<g class="terminal">
<path d="M60 1081h0"></path>
<path d="M165 1081h93.5"></path>
<rect x="60" y="1070" width="105" height="22" rx="10" ry="10"></rect>
<a xlink:href="#/statement/CallScreen"><text x="112.5" y="1085">CallScreen</text>
</a>
</g>
<path d="M258.5 1081a10 10 0 0 0 10 -10v-1030a10 10 0 0 1 10 -10"></path>
<path d="M40 31a10 10 0 0 1 10 10v1060a10 10 0 0 0 10 10"></path>
<g class="terminal">
<path d="M60 1111h0"></path>
<path d="M241.5 1111h17"></path>
<rect x="60" y="1100" width="181.5" height="22" rx="10" ry="10"></rect>
<a xlink:href="#/statement/CallSelectionScreen"><text x="150.75" y="1115">CallSelectionScreen</text>
</a>
</g>
<path d="M258.5 1111a10 10 0 0 0 10 -10v-1060a10 10 0 0 1 10 -10"></path>
<path d="M40 31a10 10 0 0 1 10 10v1090a10 10 0 0 0 10 10"></path>
<g class="terminal">
<path d="M60 1141h0"></path>
<path d="M207.5 1141h51"></path>
<rect x="60" y="1130" width="147.5" height="22" rx="10" ry="10"></rect>
<a xlink:href="#/statement/CallTransaction"><text x="133.75" y="1145">CallTransaction</text>
</a>
</g>
<path d="M258.5 1141a10 10 0 0 0 10 -10v-1090a10 10 0 0 1 10 -10"></path>
<path d="M40 31a10 10 0 0 1 10 10v1120a10 10 0 0 0 10 10"></path>
<g class="terminal">
<path d="M60 1171h0"></path>
<path d="M233 1171h25.5"></path>
<rect x="60" y="1160" width="173" height="22" rx="10" ry="10"></rect>
<a xlink:href="#/statement/CallTransformation"><text x="146.5" y="1175">CallTransformation</text>
</a>
</g>
<path d="M258.5 1171a10 10 0 0 0 10 -10v-1120a10 10 0 0 1 10 -10"></path>
<path d="M40 31a10 10 0 0 1 10 10v1150a10 10 0 0 0 10 10"></path>
<g class="terminal">
<path d="M60 1201h0"></path>
<path d="M122.5 1201h136"></path>
<rect x="60" y="1190" width="62.5" height="22" rx="10" ry="10"></rect>
<a xlink:href="#/statement/Check"><text x="91.25" y="1205">Check</text>
</a>
</g>
<path d="M258.5 1201a10 10 0 0 0 10 -10v-1150a10 10 0 0 1 10 -10"></path>
<path d="M40 31a10 10 0 0 1 10 10v1180a10 10 0 0 0 10 10"></path>
<g class="terminal">
<path d="M60 1231h0"></path>
<path d="M241.5 1231h17"></path>
<rect x="60" y="1220" width="181.5" height="22" rx="10" ry="10"></rect>
<a xlink:href="#/statement/ClassDefinitionLoad"><text x="150.75" y="1235">ClassDefinitionLoad</text>
</a>
</g>
<path d="M258.5 1231a10 10 0 0 0 10 -10v-1180a10 10 0 0 1 10 -10"></path>
<path d="M40 31a10 10 0 0 1 10 10v1210a10 10 0 0 0 10 10"></path>
<g class="terminal">
<path d="M60 1261h0"></path>
<path d="M173.5 1261h85"></path>
<rect x="60" y="1250" width="113.5" height="22" rx="10" ry="10"></rect>
<a xlink:href="#/statement/CloseCursor"><text x="116.75" y="1265">CloseCursor</text>
</a>
</g>
<path d="M258.5 1261a10 10 0 0 0 10 -10v-1210a10 10 0 0 1 10 -10"></path>
<path d="M40 31a10 10 0 0 1 10 10v1240a10 10 0 0 0 10 10"></path>
<g class="terminal">
<path d="M60 1291h0"></path>
<path d="M182 1291h76.5"></path>
<rect x="60" y="1280" width="122" height="22" rx="10" ry="10"></rect>
<a xlink:href="#/statement/CloseDataset"><text x="121" y="1295">CloseDataset</text>
</a>
</g>
<path d="M258.5 1291a10 10 0 0 0 10 -10v-1240a10 10 0 0 1 10 -10"></path>
<path d="M40 31a10 10 0 0 1 10 10v1270a10 10 0 0 0 10 10"></path>
<g class="terminal">
<path d="M60 1321h0"></path>
<path d="M139.5 1321h119"></path>
<rect x="60" y="1310" width="79.5" height="22" rx="10" ry="10"></rect>
<a xlink:href="#/statement/Collect"><text x="99.75" y="1325">Collect</text>
</a>
</g>
<path d="M258.5 1321a10 10 0 0 0 10 -10v-1270a10 10 0 0 1 10 -10"></path>
<path d="M40 31a10 10 0 0 1 10 10v1300a10 10 0 0 0 10 10"></path>
<g class="terminal">
<path d="M60 1351h0"></path>
<path d="M131 1351h127.5"></path>
<rect x="60" y="1340" width="71" height="22" rx="10" ry="10"></rect>
<a xlink:href="#/statement/Commit"><text x="95.5" y="1355">Commit</text>
</a>
</g>
<path d="M258.5 1351a10 10 0 0 0 10 -10v-1300a10 10 0 0 1 10 -10"></path>
<path d="M40 31a10 10 0 0 1 10 10v1330a10 10 0 0 0 10 10"></path>
<g class="terminal">
<path d="M60 1381h0"></path>
<path d="M190.5 1381h68"></path>
<rect x="60" y="1370" width="130.5" height="22" rx="10" ry="10"></rect>
<a xlink:href="#/statement/Communication"><text x="125.25" y="1385">Communication</text>
</a>
</g>
<path d="M258.5 1381a10 10 0 0 0 10 -10v-1330a10 10 0 0 1 10 -10"></path>
<path d="M40 31a10 10 0 0 1 10 10v1360a10 10 0 0 0 10 10"></path>
<g class="terminal">
<path d="M60 1411h0"></path>
<path d="M139.5 1411h119"></path>
<rect x="60" y="1400" width="79.5" height="22" rx="10" ry="10"></rect>
<a xlink:href="#/statement/Compute"><text x="99.75" y="1415">Compute</text>
</a>
</g>
<path d="M258.5 1411a10 10 0 0 0 10 -10v-1360a10 10 0 0 1 10 -10"></path>
<path d="M40 31a10 10 0 0 1 10 10v1390a10 10 0 0 0 10 10"></path>
<g class="terminal">
<path d="M60 1441h0"></path>
<path d="M148 1441h110.5"></path>
<rect x="60" y="1430" width="88" height="22" rx="10" ry="10"></rect>
<a xlink:href="#/statement/CallBadi"><text x="104" y="1445">CallBadi</text>
</a>
</g>
<path d="M258.5 1441a10 10 0 0 0 10 -10v-1390a10 10 0 0 1 10 -10"></path>
<path d="M40 31a10 10 0 0 1 10 10v1420a10 10 0 0 0 10 10"></path>
<g class="terminal">
<path d="M60 1471h0"></path>
<path d="M148 1471h110.5"></path>
<rect x="60" y="1460" width="88" height="22" rx="10" ry="10"></rect>
<a xlink:href="#/statement/Condense"><text x="104" y="1475">Condense</text>
</a>
</g>
<path d="M258.5 1471a10 10 0 0 0 10 -10v-1420a10 10 0 0 1 10 -10"></path>
<path d="M40 31a10 10 0 0 1 10 10v1450a10 10 0 0 0 10 10"></path>
<g class="terminal">
<path d="M60 1501h0"></path>
<path d="M148 1501h110.5"></path>
<rect x="60" y="1490" width="88" height="22" rx="10" ry="10"></rect>
<a xlink:href="#/statement/Constant"><text x="104" y="1505">Constant</text>
</a>
</g>
<path d="M258.5 1501a10 10 0 0 0 10 -10v-1450a10 10 0 0 1 10 -10"></path>
<path d="M40 31a10 10 0 0 1 10 10v1480a10 10 0 0 0 10 10"></path>
<g class="terminal">
<path d="M60 1531h0"></path>
<path d="M148 1531h110.5"></path>
<rect x="60" y="1520" width="88" height="22" rx="10" ry="10"></rect>
<a xlink:href="#/statement/Contexts"><text x="104" y="1535">Contexts</text>
</a>
</g>
<path d="M258.5 1531a10 10 0 0 0 10 -10v-1480a10 10 0 0 1 10 -10"></path>
<path d="M40 31a10 10 0 0 1 10 10v1510a10 10 0 0 0 10 10"></path>
<g class="terminal">
<path d="M60 1561h0"></path>
<path d="M148 1561h110.5"></path>
<rect x="60" y="1550" width="88" height="22" rx="10" ry="10"></rect>
<a xlink:href="#/statement/Continue"><text x="104" y="1565">Continue</text>
</a>
</g>
<path d="M258.5 1561a10 10 0 0 0 10 -10v-1510a10 10 0 0 1 10 -10"></path>
<path d="M40 31a10 10 0 0 1 10 10v1540a10 10 0 0 0 10 10"></path>
<g class="terminal">
<path d="M60 1591h0"></path>
<path d="M173.5 1591h85"></path>
<rect x="60" y="1580" width="113.5" height="22" rx="10" ry="10"></rect>
<a xlink:href="#/statement/ConvertText"><text x="116.75" y="1595">ConvertText</text>
</a>
</g>
<path d="M258.5 1591a10 10 0 0 0 10 -10v-1540a10 10 0 0 1 10 -10"></path>
<path d="M40 31a10 10 0 0 1 10 10v1570a10 10 0 0 0 10 10"></path>
<g class="terminal">
<path d="M60 1621h0"></path>
<path d="M139.5 1621h119"></path>
<rect x="60" y="1610" width="79.5" height="22" rx="10" ry="10"></rect>
<a xlink:href="#/statement/Convert"><text x="99.75" y="1625">Convert</text>
</a>
</g>
<path d="M258.5 1621a10 10 0 0 0 10 -10v-1570a10 10 0 0 1 10 -10"></path>
<path d="M40 31a10 10 0 0 1 10 10v1600a10 10 0 0 0 10 10"></path>
<g class="terminal">
<path d="M60 1651h0"></path>
<path d="M165 1651h93.5"></path>
<rect x="60" y="1640" width="105" height="22" rx="10" ry="10"></rect>
<a xlink:href="#/statement/CreateData"><text x="112.5" y="1655">CreateData</text>
</a>
</g>
<path d="M258.5 1651a10 10 0 0 0 10 -10v-1600a10 10 0 0 1 10 -10"></path>
<path d="M40 31a10 10 0 0 1 10 10v1630a10 10 0 0 0 10 10"></path>
<g class="terminal">
<path d="M60 1681h0"></path>
<path d="M156.5 1681h102"></path>
<rect x="60" y="1670" width="96.5" height="22" rx="10" ry="10"></rect>
<a xlink:href="#/statement/CreateOLE"><text x="108.25" y="1685">CreateOLE</text>
</a>
</g>
<path d="M258.5 1681a10 10 0 0 0 10 -10v-1630a10 10 0 0 1 10 -10"></path>
<path d="M40 31a10 10 0 0 1 10 10v1660a10 10 0 0 0 10 10"></path>
<g class="terminal">
<path d="M60 1711h0"></path>
<path d="M190.5 1711h68"></path>
<rect x="60" y="1700" width="130.5" height="22" rx="10" ry="10"></rect>
<a xlink:href="#/statement/DeleteCluster"><text x="125.25" y="1715">DeleteCluster</text>
</a>
</g>
<path d="M258.5 1711a10 10 0 0 0 10 -10v-1660a10 10 0 0 1 10 -10"></path>
<path d="M40 31a10 10 0 0 1 10 10v1690a10 10 0 0 0 10 10"></path>
<g class="terminal">
<path d="M60 1741h0"></path>
<path d="M199 1741h59.5"></path>
<rect x="60" y="1730" width="139" height="22" rx="10" ry="10"></rect>
<a xlink:href="#/statement/DeleteDatabase"><text x="129.5" y="1745">DeleteDatabase</text>
</a>
</g>
<path d="M258.5 1741a10 10 0 0 0 10 -10v-1690a10 10 0 0 1 10 -10"></path>
<path d="M40 31a10 10 0 0 1 10 10v1720a10 10 0 0 0 10 10"></path>
<g class="terminal">
<path d="M60 1771h0"></path>
<path d="M190.5 1771h68"></path>
<rect x="60" y="1760" width="130.5" height="22" rx="10" ry="10"></rect>
<a xlink:href="#/statement/DeleteDataset"><text x="125.25" y="1775">DeleteDataset</text>
</a>
</g>
<path d="M258.5 1771a10 10 0 0 0 10 -10v-1720a10 10 0 0 1 10 -10"></path>
<path d="M40 31a10 10 0 0 1 10 10v1750a10 10 0 0 0 10 10"></path>
<g class="terminal">
<path d="M60 1801h0"></path>
<path d="M182 1801h76.5"></path>
<rect x="60" y="1790" width="122" height="22" rx="10" ry="10"></rect>
<a xlink:href="#/statement/DeleteDynpro"><text x="121" y="1805">DeleteDynpro</text>
</a>
</g>
<path d="M258.5 1801a10 10 0 0 0 10 -10v-1750a10 10 0 0 1 10 -10"></path>
<path d="M40 31a10 10 0 0 1 10 10v1780a10 10 0 0 0 10 10"></path>
<g class="terminal">
<path d="M60 1831h0"></path>
<path d="M182 1831h76.5"></path>
<rect x="60" y="1820" width="122" height="22" rx="10" ry="10"></rect>
<a xlink:href="#/statement/DeleteMemory"><text x="121" y="1835">DeleteMemory</text>
</a>
</g>
<path d="M258.5 1831a10 10 0 0 0 10 -10v-1780a10 10 0 0 1 10 -10"></path>
<path d="M40 31a10 10 0 0 1 10 10v1810a10 10 0 0 0 10 10"></path>
<g class="terminal">
<path d="M60 1861h0"></path>
<path d="M182 1861h76.5"></path>
<rect x="60" y="1850" width="122" height="22" rx="10" ry="10"></rect>
<a xlink:href="#/statement/DeleteReport"><text x="121" y="1865">DeleteReport</text>
</a>
</g>
<path d="M258.5 1861a10 10 0 0 0 10 -10v-1810a10 10 0 0 1 10 -10"></path>
<path d="M40 31a10 10 0 0 1 10 10v1840a10 10 0 0 0 10 10"></path>
<g class="terminal">
<path d="M60 1891h0"></path>
<path d="M199 1891h59.5"></path>
<rect x="60" y="1880" width="139" height="22" rx="10" ry="10"></rect>
<a xlink:href="#/statement/DeleteTextpool"><text x="129.5" y="1895">DeleteTextpool</text>
</a>
</g>
<path d="M258.5 1891a10 10 0 0 0 10 -10v-1840a10 10 0 0 1 10 -10"></path>
<path d="M40 31a10 10 0 0 1 10 10v1870a10 10 0 0 0 10 10"></path>
<g class="terminal">
<path d="M60 1921h0"></path>
<path d="M131 1921h127.5"></path>
<rect x="60" y="1910" width="71" height="22" rx="10" ry="10"></rect>
<a xlink:href="#/statement/Demand"><text x="95.5" y="1925">Demand</text>
</a>
</g>
<path d="M258.5 1921a10 10 0 0 0 10 -10v-1870a10 10 0 0 1 10 -10"></path>
<path d="M40 31a10 10 0 0 1 10 10v1900a10 10 0 0 0 10 10"></path>
<g class="terminal">
<path d="M60 1951h0"></path>
<path d="M148 1951h110.5"></path>
<rect x="60" y="1940" width="88" height="22" rx="10" ry="10"></rect>
<a xlink:href="#/statement/Describe"><text x="104" y="1955">Describe</text>
</a>
</g>
<path d="M258.5 1951a10 10 0 0 0 10 -10v-1900a10 10 0 0 1 10 -10"></path>
<path d="M40 31a10 10 0 0 1 10 10v1930a10 10 0 0 0 10 10"></path>
<g class="terminal">
<path d="M60 1981h0"></path>
<path d="M131 1981h127.5"></path>
<rect x="60" y="1970" width="71" height="22" rx="10" ry="10"></rect>
<a xlink:href="#/statement/Detail"><text x="95.5" y="1985">Detail</text>
</a>
</g>
<path d="M258.5 1981a10 10 0 0 0 10 -10v-1930a10 10 0 0 1 10 -10"></path>
<path d="M40 31a10 10 0 0 1 10 10v1960a10 10 0 0 0 10 10"></path>
<g class="terminal">
<path d="M60 2011h0"></path>
<path d="M131 2011h127.5"></path>
<rect x="60" y="2000" width="71" height="22" rx="10" ry="10"></rect>
<a xlink:href="#/statement/Divide"><text x="95.5" y="2015">Divide</text>
</a>
</g>
<path d="M258.5 2011a10 10 0 0 0 10 -10v-1960a10 10 0 0 1 10 -10"></path>
<path d="M40 31a10 10 0 0 1 10 10v1990a10 10 0 0 0 10 10"></path>
<g class="terminal">
<path d="M60 2041h0"></path>
<path d="M165 2041h93.5"></path>
<rect x="60" y="2030" width="105" height="22" rx="10" ry="10"></rect>
<a xlink:href="#/statement/EditorCall"><text x="112.5" y="2045">EditorCall</text>
</a>
</g>
<path d="M258.5 2041a10 10 0 0 0 10 -10v-1990a10 10 0 0 1 10 -10"></path>
<path d="M40 31a10 10 0 0 1 10 10v2020a10 10 0 0 0 10 10"></path>
<g class="terminal">
<path d="M60 2071h0"></path>
<path d="M216 2071h42.5"></path>
<rect x="60" y="2060" width="156" height="22" rx="10" ry="10"></rect>
<a xlink:href="#/statement/EnhancementPoint"><text x="138" y="2075">EnhancementPoint</text>
</a>
</g>
<path d="M258.5 2071a10 10 0 0 0 10 -10v-2020a10 10 0 0 1 10 -10"></path>
<path d="M40 31a10 10 0 0 1 10 10v2050a10 10 0 0 0 10 10"></path>
<g class="terminal">
<path d="M60 2101h0"></path>
<path d="M114 2101h144.5"></path>
<rect x="60" y="2090" width="54" height="22" rx="10" ry="10"></rect>
<a xlink:href="#/statement/Exit"><text x="87" y="2105">Exit</text>
</a>
</g>
<path d="M258.5 2101a10 10 0 0 0 10 -10v-2050a10 10 0 0 1 10 -10"></path>
<path d="M40 31a10 10 0 0 1 10 10v2080a10 10 0 0 0 10 10"></path>
<g class="terminal">
<path d="M60 2131h0"></path>
<path d="M182 2131h76.5"></path>
<rect x="60" y="2120" width="122" height="22" rx="10" ry="10"></rect>
<a xlink:href="#/statement/ExportDynpro"><text x="121" y="2135">ExportDynpro</text>
</a>
</g>
<path d="M258.5 2131a10 10 0 0 0 10 -10v-2080a10 10 0 0 1 10 -10"></path>
<path d="M40 31a10 10 0 0 1 10 10v2110a10 10 0 0 0 10 10"></path>
<g class="terminal">
<path d="M60 2161h0"></path>
<path d="M131 2161h127.5"></path>
<rect x="60" y="2150" width="71" height="22" rx="10" ry="10"></rect>
<a xlink:href="#/statement/Export"><text x="95.5" y="2165">Export</text>
</a>
</g>
<path d="M258.5 2161a10 10 0 0 0 10 -10v-2110a10 10 0 0 1 10 -10"></path>
<path d="M40 31a10 10 0 0 1 10 10v2140a10 10 0 0 0 10 10"></path>
<g class="terminal">
<path d="M60 2191h0"></path>
<path d="M139.5 2191h119"></path>
<rect x="60" y="2180" width="79.5" height="22" rx="10" ry="10"></rect>
<a xlink:href="#/statement/Extract"><text x="99.75" y="2195">Extract</text>
</a>
</g>
<path d="M258.5 2191a10 10 0 0 0 10 -10v-2140a10 10 0 0 1 10 -10"></path>
<path d="M40 31a10 10 0 0 1 10 10v2170a10 10 0 0 0 10 10"></path>
<g class="terminal">
<path d="M60 2221h0"></path>
<path d="M207.5 2221h51"></path>
<rect x="60" y="2210" width="147.5" height="22" rx="10" ry="10"></rect>
<a xlink:href="#/statement/FetchNextCursor"><text x="133.75" y="2225">FetchNextCursor</text>
</a>
</g>
<path d="M258.5 2221a10 10 0 0 0 10 -10v-2170a10 10 0 0 1 10 -10"></path>
<path d="M40 31a10 10 0 0 1 10 10v2200a10 10 0 0 0 10 10"></path>
<g class="terminal">
<path d="M60 2251h0"></path>
<path d="M165 2251h93.5"></path>
<rect x="60" y="2240" width="105" height="22" rx="10" ry="10"></rect>
<a xlink:href="#/statement/FieldGroup"><text x="112.5" y="2255">FieldGroup</text>
</a>
</g>
<path d="M258.5 2251a10 10 0 0 0 10 -10v-2200a10 10 0 0 1 10 -10"></path>
<path d="M40 31a10 10 0 0 1 10 10v2230a10 10 0 0 0 10 10"></path>
<g class="terminal">
<path d="M60 2281h0"></path>
<path d="M131 2281h127.5"></path>
<rect x="60" y="2270" width="71" height="22" rx="10" ry="10"></rect>
<a xlink:href="#/statement/Fields"><text x="95.5" y="2285">Fields</text>
</a>
</g>
<path d="M258.5 2281a10 10 0 0 0 10 -10v-2230a10 10 0 0 1 10 -10"></path>
<path d="M40 31a10 10 0 0 1 10 10v2260a10 10 0 0 0 10 10"></path>
<g class="terminal">
<path d="M60 2311h0"></path>
<path d="M114 2311h144.5"></path>
<rect x="60" y="2300" width="54" height="22" rx="10" ry="10"></rect>
<a xlink:href="#/statement/Find"><text x="87" y="2315">Find</text>
</a>
</g>
<path d="M258.5 2311a10 10 0 0 0 10 -10v-2260a10 10 0 0 1 10 -10"></path>
<path d="M40 31a10 10 0 0 1 10 10v2290a10 10 0 0 0 10 10"></path>
<g class="terminal">
<path d="M60 2341h0"></path>
<path d="M131 2341h127.5"></path>
<rect x="60" y="2330" width="71" height="22" rx="10" ry="10"></rect>
<a xlink:href="#/statement/Format"><text x="95.5" y="2345">Format</text>
</a>
</g>
<path d="M258.5 2341a10 10 0 0 0 10 -10v-2290a10 10 0 0 1 10 -10"></path>
<path d="M40 31a10 10 0 0 1 10 10v2320a10 10 0 0 0 10 10"></path>
<g class="terminal">
<path d="M60 2371h0"></path>
<path d="M165 2371h93.5"></path>
<rect x="60" y="2360" width="105" height="22" rx="10" ry="10"></rect>
<a xlink:href="#/statement/FreeMemory"><text x="112.5" y="2375">FreeMemory</text>
</a>
</g>
<path d="M258.5 2371a10 10 0 0 0 10 -10v-2320a10 10 0 0 1 10 -10"></path>
<path d="M40 31a10 10 0 0 1 10 10v2350a10 10 0 0 0 10 10"></path>
<g class="terminal">
<path d="M60 2401h0"></path>
<path d="M165 2401h93.5"></path>
<rect x="60" y="2390" width="105" height="22" rx="10" ry="10"></rect>
<a xlink:href="#/statement/FreeObject"><text x="112.5" y="2405">FreeObject</text>
</a>
</g>
<path d="M258.5 2401a10 10 0 0 0 10 -10v-2350a10 10 0 0 1 10 -10"></path>
<path d="M40 31a10 10 0 0 1 10 10v2380a10 10 0 0 0 10 10"></path>
<g class="terminal">
<path d="M60 2431h0"></path>
<path d="M114 2431h144.5"></path>
<rect x="60" y="2420" width="54" height="22" rx="10" ry="10"></rect>
<a xlink:href="#/statement/Free"><text x="87" y="2435">Free</text>
</a>
</g>
<path d="M258.5 2431a10 10 0 0 0 10 -10v-2380a10 10 0 0 1 10 -10"></path>
<path d="M40 31a10 10 0 0 1 10 10v2410a10 10 0 0 0 10 10"></path>
<g class="terminal">
<path d="M60 2461h0"></path>
<path d="M199 2461h59.5"></path>
<rect x="60" y="2450" width="139" height="22" rx="10" ry="10"></rect>
<a xlink:href="#/statement/GenerateDynpro"><text x="129.5" y="2465">GenerateDynpro</text>
</a>
</g>
<path d="M258.5 2461a10 10 0 0 0 10 -10v-2410a10 10 0 0 1 10 -10"></path>
<path d="M40 31a10 10 0 0 1 10 10v2440a10 10 0 0 0 10 10"></path>
<g class="terminal">
<path d="M60 2491h0"></path>
<path d="M199 2491h59.5"></path>
<rect x="60" y="2480" width="139" height="22" rx="10" ry="10"></rect>
<a xlink:href="#/statement/GenerateReport"><text x="129.5" y="2495">GenerateReport</text>
</a>
</g>
<path d="M258.5 2491a10 10 0 0 0 10 -10v-2440a10 10 0 0 1 10 -10"></path>
<path d="M40 31a10 10 0 0 1 10 10v2470a10 10 0 0 0 10 10"></path>
<g class="terminal">
<path d="M60 2521h0"></path>
<path d="M233 2521h25.5"></path>
<rect x="60" y="2510" width="173" height="22" rx="10" ry="10"></rect>
<a xlink:href="#/statement/GenerateSubroutine"><text x="146.5" y="2525">GenerateSubroutine</text>
</a>
</g>
<path d="M258.5 2521a10 10 0 0 0 10 -10v-2470a10 10 0 0 1 10 -10"></path>
<path d="M40 31a10 10 0 0 1 10 10v2500a10 10 0 0 0 10 10"></path>
<g class="terminal">
<path d="M60 2551h0"></path>
<path d="M139.5 2551h119"></path>
<rect x="60" y="2540" width="79.5" height="22" rx="10" ry="10"></rect>
<a xlink:href="#/statement/GetBadi"><text x="99.75" y="2555">GetBadi</text>
</a>
</g>
<path d="M258.5 2551a10 10 0 0 0 10 -10v-2500a10 10 0 0 1 10 -10"></path>
<path d="M40 31a10 10 0 0 1 10 10v2530a10 10 0 0 0 10 10"></path>
<g class="terminal">
<path d="M60 2581h0"></path>
<path d="M131 2581h127.5"></path>
<rect x="60" y="2570" width="71" height="22" rx="10" ry="10"></rect>
<a xlink:href="#/statement/GetBit"><text x="95.5" y="2585">GetBit</text>
</a>
</g>
<path d="M258.5 2581a10 10 0 0 0 10 -10v-2530a10 10 0 0 1 10 -10"></path>
<path d="M40 31a10 10 0 0 1 10 10v2560a10 10 0 0 0 10 10"></path>
<g class="terminal">
<path d="M60 2611h0"></path>
<path d="M156.5 2611h102"></path>
<rect x="60" y="2600" width="96.5" height="22" rx="10" ry="10"></rect>
<a xlink:href="#/statement/GetCursor"><text x="108.25" y="2615">GetCursor</text>
</a>
</g>
<path d="M258.5 2611a10 10 0 0 0 10 -10v-2560a10 10 0 0 1 10 -10"></path>
<path d="M40 31a10 10 0 0 1 10 10v2590a10 10 0 0 0 10 10"></path>
<g class="terminal">
<path d="M60 2641h0"></path>
<path d="M165 2641h93.5"></path>
<rect x="60" y="2630" width="105" height="22" rx="10" ry="10"></rect>
<a xlink:href="#/statement/GetDataset"><text x="112.5" y="2645">GetDataset</text>
</a>
</g>
<path d="M258.5 2641a10 10 0 0 0 10 -10v-2590a10 10 0 0 1 10 -10"></path>
<path d="M40 31a10 10 0 0 1 10 10v2620a10 10 0 0 0 10 10"></path>
<g class="terminal">
<path d="M60 2671h0"></path>
<path d="M156.5 2671h102"></path>
<rect x="60" y="2660" width="96.5" height="22" rx="10" ry="10"></rect>
<a xlink:href="#/statement/GetLocale"><text x="108.25" y="2675">GetLocale</text>
</a>
</g>
<path d="M258.5 2671a10 10 0 0 0 10 -10v-2620a10 10 0 0 1 10 -10"></path>
<path d="M40 31a10 10 0 0 1 10 10v2650a10 10 0 0 0 10 10"></path>
<g class="terminal">
<path d="M60 2701h0"></path>
<path d="M182 2701h76.5"></path>
<rect x="60" y="2690" width="122" height="22" rx="10" ry="10"></rect>
<a xlink:href="#/statement/GetParameter"><text x="121" y="2705">GetParameter</text>
</a>
</g>
<path d="M258.5 2701a10 10 0 0 0 10 -10v-2650a10 10 0 0 1 10 -10"></path>
<path d="M40 31a10 10 0 0 1 10 10v2680a10 10 0 0 0 10 10"></path>
<g class="terminal">
<path d="M60 2731h0"></path>
<path d="M173.5 2731h85"></path>
<rect x="60" y="2720" width="113.5" height="22" rx="10" ry="10"></rect>
<a xlink:href="#/statement/GetPFStatus"><text x="116.75" y="2735">GetPFStatus</text>
</a>
</g>
<path d="M258.5 2731a10 10 0 0 0 10 -10v-2680a10 10 0 0 1 10 -10"></path>
<path d="M40 31a10 10 0 0 1 10 10v2710a10 10 0 0 0 10 10"></path>
<g class="terminal">
<path d="M60 2761h0"></path>
<path d="M173.5 2761h85"></path>
<rect x="60" y="2750" width="113.5" height="22" rx="10" ry="10"></rect>
<a xlink:href="#/statement/GetProperty"><text x="116.75" y="2765">GetProperty</text>
</a>
</g>
<path d="M258.5 2761a10 10 0 0 0 10 -10v-2710a10 10 0 0 1 10 -10"></path>
<path d="M40 31a10 10 0 0 1 10 10v2740a10 10 0 0 0 10 10"></path>
<g class="terminal">
<path d="M60 2791h0"></path>
<path d="M182 2791h76.5"></path>
<rect x="60" y="2780" width="122" height="22" rx="10" ry="10"></rect>
<a xlink:href="#/statement/GetReference"><text x="121" y="2795">GetReference</text>
</a>
</g>
<path d="M258.5 2791a10 10 0 0 0 10 -10v-2740a10 10 0 0 1 10 -10"></path>
<path d="M40 31a10 10 0 0 1 10 10v2770a10 10 0 0 0 10 10"></path>
<g class="terminal">
<path d="M60 2821h0"></path>
<path d="M165 2821h93.5"></path>
<rect x="60" y="2810" width="105" height="22" rx="10" ry="10"></rect>
<a xlink:href="#/statement/GetRunTime"><text x="112.5" y="2825">GetRunTime</text>
</a>
</g>
<path d="M258.5 2821a10 10 0 0 0 10 -10v-2770a10 10 0 0 1 10 -10"></path>
<path d="M40 31a10 10 0 0 1 10 10v2800a10 10 0 0 0 10 10"></path>
<g class="terminal">
<path d="M60 2851h0"></path>
<path d="M139.5 2851h119"></path>
<rect x="60" y="2840" width="79.5" height="22" rx="10" ry="10"></rect>
<a xlink:href="#/statement/GetTime"><text x="99.75" y="2855">GetTime</text>
</a>
</g>
<path d="M258.5 2851a10 10 0 0 0 10 -10v-2800a10 10 0 0 1 10 -10"></path>
<path d="M40 31a10 10 0 0 1 10 10v2830a10 10 0 0 0 10 10"></path>
<g class="terminal">
<path d="M60 2881h0"></path>
<path d="M114 2881h144.5"></path>
<rect x="60" y="2870" width="54" height="22" rx="10" ry="10"></rect>
<a xlink:href="#/statement/Hide"><text x="87" y="2885">Hide</text>
</a>
</g>
<path d="M258.5 2881a10 10 0 0 0 10 -10v-2830a10 10 0 0 1 10 -10"></path>
<path d="M40 31a10 10 0 0 1 10 10v2860a10 10 0 0 0 10 10"></path>
<g class="terminal">
<path d="M60 2911h0"></path>
<path d="M122.5 2911h136"></path>
<rect x="60" y="2900" width="62.5" height="22" rx="10" ry="10"></rect>
<a xlink:href="#/statement/Nodes"><text x="91.25" y="2915">Nodes</text>
</a>
</g>
<path d="M258.5 2911a10 10 0 0 0 10 -10v-2860a10 10 0 0 1 10 -10"></path>
<path d="M40 31a10 10 0 0 1 10 10v2890a10 10 0 0 0 10 10"></path>
<g class="terminal">
<path d="M60 2941h0"></path>
<path d="M182 2941h76.5"></path>
<rect x="60" y="2930" width="122" height="22" rx="10" ry="10"></rect>
<a xlink:href="#/statement/ImportDynpro"><text x="121" y="2945">ImportDynpro</text>
</a>
</g>
<path d="M258.5 2941a10 10 0 0 0 10 -10v-2890a10 10 0 0 1 10 -10"></path>
<path d="M40 31a10 10 0 0 1 10 10v2920a10 10 0 0 0 10 10"></path>
<g class="terminal">
<path d="M60 2971h0"></path>
<path d="M190.5 2971h68"></path>
<rect x="60" y="2960" width="130.5" height="22" rx="10" ry="10"></rect>
<a xlink:href="#/statement/ImportNametab"><text x="125.25" y="2975">ImportNametab</text>
</a>
</g>
<path d="M258.5 2971a10 10 0 0 0 10 -10v-2920a10 10 0 0 1 10 -10"></path>
<path d="M40 31a10 10 0 0 1 10 10v2950a10 10 0 0 0 10 10"></path>
<g class="terminal">
<path d="M60 3001h0"></path>
<path d="M224.5 3001h34"></path>
<rect x="60" y="2990" width="164.5" height="22" rx="10" ry="10"></rect>
<a xlink:href="#/statement/MoveCorresponding"><text x="142.25" y="3005">MoveCorresponding</text>
</a>
</g>
<path d="M258.5 3001a10 10 0 0 0 10 -10v-2950a10 10 0 0 1 10 -10"></path>
<path d="M40 31a10 10 0 0 1 10 10v2980a10 10 0 0 0 10 10"></path>
<g class="terminal">
<path d="M60 3031h0"></path>
<path d="M131 3031h127.5"></path>
<rect x="60" y="3020" width="71" height="22" rx="10" ry="10"></rect>
<a xlink:href="#/statement/Import"><text x="95.5" y="3035">Import</text>
</a>
</g>
<path d="M258.5 3031a10 10 0 0 0 10 -10v-2980a10 10 0 0 1 10 -10"></path>
<path d="M40 31a10 10 0 0 1 10 10v3010a10 10 0 0 0 10 10"></path>
<g class="terminal">
<path d="M60 3061h0"></path>
<path d="M156.5 3061h102"></path>
<rect x="60" y="3050" width="96.5" height="22" rx="10" ry="10"></rect>
<a xlink:href="#/statement/Infotypes"><text x="108.25" y="3065">Infotypes</text>
</a>
</g>
<path d="M258.5 3061a10 10 0 0 0 10 -10v-3010a10 10 0 0 1 10 -10"></path>
<path d="M40 31a10 10 0 0 1 10 10v3040a10 10 0 0 0 10 10"></path>
<g class="terminal">
<path d="M60 3091h0"></path>
<path d="M139.5 3091h119"></path>
<rect x="60" y="3080" width="79.5" height="22" rx="10" ry="10"></rect>
<a xlink:href="#/statement/Include"><text x="99.75" y="3095">Include</text>
</a>
</g>
<path d="M258.5 3091a10 10 0 0 0 10 -10v-3040a10 10 0 0 1 10 -10"></path>
<path d="M40 31a10 10 0 0 1 10 10v3070a10 10 0 0 0 10 10"></path>
<g class="terminal">
<path d="M60 3121h0"></path>
<path d="M199 3121h59.5"></path>
<rect x="60" y="3110" width="139" height="22" rx="10" ry="10"></rect>
<a xlink:href="#/statement/InsertDatabase"><text x="129.5" y="3125">InsertDatabase</text>
</a>
</g>
<path d="M258.5 3121a10 10 0 0 0 10 -10v-3070a10 10 0 0 1 10 -10"></path>
<path d="M40 31a10 10 0 0 1 10 10v3100a10 10 0 0 0 10 10"></path>
<g class="terminal">
<path d="M60 3151h0"></path>
<path d="M182 3151h76.5"></path>
<rect x="60" y="3140" width="122" height="22" rx="10" ry="10"></rect>
<a xlink:href="#/statement/InsertReport"><text x="121" y="3155">InsertReport</text>
</a>
</g>
<path d="M258.5 3151a10 10 0 0 0 10 -10v-3100a10 10 0 0 1 10 -10"></path>
<path d="M40 31a10 10 0 0 1 10 10v3130a10 10 0 0 0 10 10"></path>
<g class="terminal">
<path d="M60 3181h0"></path>
<path d="M199 3181h59.5"></path>
<rect x="60" y="3170" width="139" height="22" rx="10" ry="10"></rect>
<a xlink:href="#/statement/InsertTextpool"><text x="129.5" y="3185">InsertTextpool</text>
</a>
</g>
<path d="M258.5 3181a10 10 0 0 0 10 -10v-3130a10 10 0 0 1 10 -10"></path>
<path d="M40 31a10 10 0 0 1 10 10v3160a10 10 0 0 0 10 10"></path>
<g class="terminal">
<path d="M60 3211h0"></path>
<path d="M216 3211h42.5"></path>
<rect x="60" y="3200" width="156" height="22" rx="10" ry="10"></rect>
<a xlink:href="#/statement/InsertFieldGroup"><text x="138" y="3215">InsertFieldGroup</text>
</a>
</g>
<path d="M258.5 3211a10 10 0 0 0 10 -10v-3160a10 10 0 0 1 10 -10"></path>
<path d="M40 31a10 10 0 0 1 10 10v3190a10 10 0 0 0 10 10"></path>
<g class="terminal">
<path d="M60 3241h0"></path>
<path d="M190.5 3241h68"></path>
<rect x="60" y="3230" width="130.5" height="22" rx="10" ry="10"></rect>
<a xlink:href="#/statement/InterfaceLoad"><text x="125.25" y="3245">InterfaceLoad</text>
</a>
</g>
<path d="M258.5 3241a10 10 0 0 0 10 -10v-3190a10 10 0 0 1 10 -10"></path>
<path d="M40 31a10 10 0 0 1 10 10v3220a10 10 0 0 0 10 10"></path>
<g class="terminal">
<path d="M60 3271h0"></path>
<path d="M122.5 3271h136"></path>
<rect x="60" y="3260" width="62.5" height="22" rx="10" ry="10"></rect>
<a xlink:href="#/statement/Leave"><text x="91.25" y="3275">Leave</text>
</a>
</g>
<path d="M258.5 3271a10 10 0 0 0 10 -10v-3220a10 10 0 0 1 10 -10"></path>
<path d="M40 31a10 10 0 0 1 10 10v3250a10 10 0 0 0 10 10"></path>
<g class="terminal">
<path d="M60 3301h0"></path>
<path d="M165 3301h93.5"></path>
<rect x="60" y="3290" width="105" height="22" rx="10" ry="10"></rect>
<a xlink:href="#/statement/LoadReport"><text x="112.5" y="3305">LoadReport</text>
</a>
</g>
<path d="M258.5 3301a10 10 0 0 0 10 -10v-3250a10 10 0 0 1 10 -10"></path>
<path d="M40 31a10 10 0 0 1 10 10v3280a10 10 0 0 0 10 10"></path>
<g class="terminal">
<path d="M60 3331h0"></path>
<path d="M122.5 3331h136"></path>
<rect x="60" y="3320" width="62.5" height="22" rx="10" ry="10"></rect>
<a xlink:href="#/statement/Local"><text x="91.25" y="3335">Local</text>
</a>
</g>
<path d="M258.5 3331a10 10 0 0 0 10 -10v-3280a10 10 0 0 1 10 -10"></path>
<path d="M40 31a10 10 0 0 1 10 10v3310a10 10 0 0 0 10 10"></path>
<g class="terminal">
<path d="M60 3361h0"></path>
<path d="M148 3361h110.5"></path>
<rect x="60" y="3350" width="88" height="22" rx="10" ry="10"></rect>
<a xlink:href="#/statement/LogPoint"><text x="104" y="3365">LogPoint</text>
</a>
</g>
<path d="M258.5 3361a10 10 0 0 0 10 -10v-3310a10 10 0 0 1 10 -10"></path>
<path d="M40 31a10 10 0 0 1 10 10v3340a10 10 0 0 0 10 10"></path>
<g class="terminal">
<path d="M60 3391h0"></path>
<path d="M139.5 3391h119"></path>
<rect x="60" y="3380" width="79.5" height="22" rx="10" ry="10"></rect>
<a xlink:href="#/statement/Message"><text x="99.75" y="3395">Message</text>
</a>
</g>
<path d="M258.5 3391a10 10 0 0 0 10 -10v-3340a10 10 0 0 1 10 -10"></path>
<path d="M40 31a10 10 0 0 1 10 10v3370a10 10 0 0 0 10 10"></path>
<g class="terminal">
<path d="M60 3421h0"></path>
<path d="M165 3421h93.5"></path>
<rect x="60" y="3410" width="105" height="22" rx="10" ry="10"></rect>
<a xlink:href="#/statement/ModifyLine"><text x="112.5" y="3425">ModifyLine</text>
</a>
</g>
<path d="M258.5 3421a10 10 0 0 0 10 -10v-3370a10 10 0 0 1 10 -10"></path>
<path d="M40 31a10 10 0 0 1 10 10v3400a10 10 0 0 0 10 10"></path>
<g class="terminal">
<path d="M60 3451h0"></path>
<path d="M199 3451h59.5"></path>
<rect x="60" y="3440" width="139" height="22" rx="10" ry="10"></rect>
<a xlink:href="#/statement/ModifyDatabase"><text x="129.5" y="3455">ModifyDatabase</text>
</a>
</g>
<path d="M258.5 3451a10 10 0 0 0 10 -10v-3400a10 10 0 0 1 10 -10"></path>
<path d="M40 31a10 10 0 0 1 10 10v3430a10 10 0 0 0 10 10"></path>
<g class="terminal">
<path d="M60 3481h0"></path>
<path d="M199 3481h59.5"></path>
<rect x="60" y="3470" width="139" height="22" rx="10" ry="10"></rect>
<a xlink:href="#/statement/ModifyInternal"><text x="129.5" y="3485">ModifyInternal</text>
</a>
</g>
<path d="M258.5 3481a10 10 0 0 0 10 -10v-3430a10 10 0 0 1 10 -10"></path>
<path d="M40 31a10 10 0 0 1 10 10v3460a10 10 0 0 0 10 10"></path>
<g class="terminal">
<path d="M60 3511h0"></path>
<path d="M148 3511h110.5"></path>
<rect x="60" y="3500" width="88" height="22" rx="10" ry="10"></rect>
<a xlink:href="#/statement/Multiply"><text x="104" y="3515">Multiply</text>
</a>
</g>
<path d="M258.5 3511a10 10 0 0 0 10 -10v-3460a10 10 0 0 1 10 -10"></path>
<path d="M40 31a10 10 0 0 1 10 10v3490a10 10 0 0 0 10 10"></path>
<g class="terminal">
<path d="M60 3541h0"></path>
<path d="M139.5 3541h119"></path>
<rect x="60" y="3530" width="79.5" height="22" rx="10" ry="10"></rect>
<a xlink:href="#/statement/NewLine"><text x="99.75" y="3545">NewLine</text>
</a>
</g>
<path d="M258.5 3541a10 10 0 0 0 10 -10v-3490a10 10 0 0 1 10 -10"></path>
<path d="M40 31a10 10 0 0 1 10 10v3520a10 10 0 0 0 10 10"></path>
<g class="terminal">
<path d="M60 3571h0"></path>
<path d="M139.5 3571h119"></path>
<rect x="60" y="3560" width="79.5" height="22" rx="10" ry="10"></rect>
<a xlink:href="#/statement/NewPage"><text x="99.75" y="3575">NewPage</text>
</a>
</g>
<path d="M258.5 3571a10 10 0 0 0 10 -10v-3520a10 10 0 0 1 10 -10"></path>
<path d="M40 31a10 10 0 0 1 10 10v3550a10 10 0 0 0 10 10"></path>
<g class="terminal">
<path d="M60 3601h0"></path>
<path d="M165 3601h93.5"></path>
<rect x="60" y="3590" width="105" height="22" rx="10" ry="10"></rect>
<a xlink:href="#/statement/OpenCursor"><text x="112.5" y="3605">OpenCursor</text>
</a>
</g>
<path d="M258.5 3601a10 10 0 0 0 10 -10v-3550a10 10 0 0 1 10 -10"></path>
<path d="M40 31a10 10 0 0 1 10 10v3580a10 10 0 0 0 10 10"></path>
<g class="terminal">
<path d="M60 3631h0"></path>
<path d="M173.5 3631h85"></path>
<rect x="60" y="3620" width="113.5" height="22" rx="10" ry="10"></rect>
<a xlink:href="#/statement/OpenDataset"><text x="116.75" y="3635">OpenDataset</text>
</a>
</g>
<path d="M258.5 3631a10 10 0 0 0 10 -10v-3580a10 10 0 0 1 10 -10"></path>
<path d="M40 31a10 10 0 0 1 10 10v3610a10 10 0 0 0 10 10"></path>
<g class="terminal">
<path d="M60 3661h0"></path>
<path d="M139.5 3661h119"></path>
<rect x="60" y="3650" width="79.5" height="22" rx="10" ry="10"></rect>
<a xlink:href="#/statement/Overlay"><text x="99.75" y="3665">Overlay</text>
</a>
</g>
<path d="M258.5 3661a10 10 0 0 0 10 -10v-3610a10 10 0 0 1 10 -10"></path>
<path d="M40 31a10 10 0 0 1 10 10v3640a10 10 0 0 0 10 10"></path>
<g class="terminal">
<path d="M60 3691h0"></path>
<path d="M114 3691h144.5"></path>
<rect x="60" y="3680" width="54" height="22" rx="10" ry="10"></rect>
<a xlink:href="#/statement/Pack"><text x="87" y="3695">Pack</text>
</a>
</g>
<path d="M258.5 3691a10 10 0 0 0 10 -10v-3640a10 10 0 0 1 10 -10"></path>
<path d="M40 31a10 10 0 0 1 10 10v3670a10 10 0 0 0 10 10"></path>
<g class="terminal">
<path d="M60 3721h0"></path>
<path d="M139.5 3721h119"></path>
<rect x="60" y="3710" width="79.5" height="22" rx="10" ry="10"></rect>
<a xlink:href="#/statement/Perform"><text x="99.75" y="3725">Perform</text>
</a>
</g>
<path d="M258.5 3721a10 10 0 0 0 10 -10v-3670a10 10 0 0 1 10 -10"></path>
<path d="M40 31a10 10 0 0 1 10 10v3700a10 10 0 0 0 10 10"></path>
<g class="terminal">
<path d="M60 3751h0"></path>
<path d="M148 3751h110.5"></path>
<rect x="60" y="3740" width="88" height="22" rx="10" ry="10"></rect>
<a xlink:href="#/statement/Position"><text x="104" y="3755">Position</text>
</a>
</g>
<path d="M258.5 3751a10 10 0 0 0 10 -10v-3700a10 10 0 0 1 10 -10"></path>
<path d="M40 31a10 10 0 0 1 10 10v3730a10 10 0 0 0 10 10"></path>
<g class="terminal">
<path d="M60 3781h0"></path>
<path d="M105.5 3781h153"></path>
<rect x="60" y="3770" width="45.5" height="22" rx="10" ry="10"></rect>
<a xlink:href="#/statement/Put"><text x="82.75" y="3785">Put</text>
</a>
</g>
<path d="M258.5 3781a10 10 0 0 0 10 -10v-3730a10 10 0 0 1 10 -10"></path>
<path d="M40 31a10 10 0 0 1 10 10v3760a10 10 0 0 0 10 10"></path>
<g class="terminal">
<path d="M60 3811h0"></path>
<path d="M182 3811h76.5"></path>
<rect x="60" y="3800" width="122" height="22" rx="10" ry="10"></rect>
<a xlink:href="#/statement/PrintControl"><text x="121" y="3815">PrintControl</text>
</a>
</g>
<path d="M258.5 3811a10 10 0 0 0 10 -10v-3760a10 10 0 0 1 10 -10"></path>
<path d="M40 31a10 10 0 0 1 10 10v3790a10 10 0 0 0 10 10"></path>
<g class="terminal">
<path d="M60 3841h0"></path>
<path d="M165 3841h93.5"></path>
<rect x="60" y="3830" width="105" height="22" rx="10" ry="10"></rect>
<a xlink:href="#/statement/RaiseEvent"><text x="112.5" y="3845">RaiseEvent</text>
</a>
</g>
<path d="M258.5 3841a10 10 0 0 0 10 -10v-3790a10 10 0 0 1 10 -10"></path>
<path d="M40 31a10 10 0 0 1 10 10v3820a10 10 0 0 0 10 10"></path>
<g class="terminal">
<path d="M60 3871h0"></path>
<path d="M122.5 3871h136"></path>
<rect x="60" y="3860" width="62.5" height="22" rx="10" ry="10"></rect>
<a xlink:href="#/statement/Raise"><text x="91.25" y="3875">Raise</text>
</a>
</g>
<path d="M258.5 3871a10 10 0 0 0 10 -10v-3820a10 10 0 0 1 10 -10"></path>
<path d="M40 31a10 10 0 0 1 10 10v3850a10 10 0 0 0 10 10"></path>
<g class="terminal">
<path d="M60 3901h0"></path>
<path d="M131 3901h127.5"></path>
<rect x="60" y="3890" width="71" height="22" rx="10" ry="10"></rect>
<a xlink:href="#/statement/Ranges"><text x="95.5" y="3905">Ranges</text>
</a>
</g>
<path d="M258.5 3901a10 10 0 0 0 10 -10v-3850a10 10 0 0 1 10 -10"></path>
<path d="M40 31a10 10 0 0 1 10 10v3880a10 10 0 0 0 10 10"></path>
<g class="terminal">
<path d="M60 3931h0"></path>
<path d="M173.5 3931h85"></path>
<rect x="60" y="3920" width="113.5" height="22" rx="10" ry="10"></rect>
<a xlink:href="#/statement/ReadDataset"><text x="116.75" y="3935">ReadDataset</text>
</a>
</g>
<path d="M258.5 3931a10 10 0 0 0 10 -10v-3880a10 10 0 0 1 10 -10"></path>
<path d="M40 31a10 10 0 0 1 10 10v3910a10 10 0 0 0 10 10"></path>
<g class="terminal">
<path d="M60 3961h0"></path>
<path d="M148 3961h110.5"></path>
<rect x="60" y="3950" width="88" height="22" rx="10" ry="10"></rect>
<a xlink:href="#/statement/ReadLine"><text x="104" y="3965">ReadLine</text>
</a>
</g>
<path d="M258.5 3961a10 10 0 0 0 10 -10v-3910a10 10 0 0 1 10 -10"></path>
<path d="M40 31a10 10 0 0 1 10 10v3940a10 10 0 0 0 10 10"></path>
<g class="terminal">
<path d="M60 3991h0"></path>
<path d="M165 3991h93.5"></path>
<rect x="60" y="3980" width="105" height="22" rx="10" ry="10"></rect>
<a xlink:href="#/statement/ReadReport"><text x="112.5" y="3995">ReadReport</text>
</a>
</g>
<path d="M258.5 3991a10 10 0 0 0 10 -10v-3940a10 10 0 0 1 10 -10"></path>
<path d="M40 31a10 10 0 0 1 10 10v3970a10 10 0 0 0 10 10"></path>
<g class="terminal">
<path d="M60 4021h0"></path>
<path d="M182 4021h76.5"></path>
<rect x="60" y="4010" width="122" height="22" rx="10" ry="10"></rect>
<a xlink:href="#/statement/ReadTextpool"><text x="121" y="4025">ReadTextpool</text>
</a>
</g>
<path d="M258.5 4021a10 10 0 0 0 10 -10v-3970a10 10 0 0 1 10 -10"></path>
<path d="M40 31a10 10 0 0 1 10 10v4000a10 10 0 0 0 10 10"></path>
<g class="terminal">
<path d="M60 4051h0"></path>
<path d="M139.5 4051h119"></path>
<rect x="60" y="4040" width="79.5" height="22" rx="10" ry="10"></rect>
<a xlink:href="#/statement/Receive"><text x="99.75" y="4055">Receive</text>
</a>
</g>
<path d="M258.5 4051a10 10 0 0 0 10 -10v-4000a10 10 0 0 1 10 -10"></path>
<path d="M40 31a10 10 0 0 1 10 10v4030a10 10 0 0 0 10 10"></path>
<g class="terminal">
<path d="M60 4081h0"></path>
<path d="M199 4081h59.5"></path>
<rect x="60" y="4070" width="139" height="22" rx="10" ry="10"></rect>
<a xlink:href="#/statement/RefreshControl"><text x="129.5" y="4085">RefreshControl</text>
</a>
</g>
<path d="M258.5 4081a10 10 0 0 0 10 -10v-4030a10 10 0 0 1 10 -10"></path>
<path d="M40 31a10 10 0 0 1 10 10v4060a10 10 0 0 0 10 10"></path>
<g class="terminal">
<path d="M60 4111h0"></path>
<path d="M139.5 4111h119"></path>
<rect x="60" y="4100" width="79.5" height="22" rx="10" ry="10"></rect>
<a xlink:href="#/statement/Refresh"><text x="99.75" y="4115">Refresh</text>
</a>
</g>
<path d="M258.5 4111a10 10 0 0 0 10 -10v-4060a10 10 0 0 1 10 -10"></path>
<path d="M40 31a10 10 0 0 1 10 10v4090a10 10 0 0 0 10 10"></path>
<g class="terminal">
<path d="M60 4141h0"></path>
<path d="M131 4141h127.5"></path>
<rect x="60" y="4130" width="71" height="22" rx="10" ry="10"></rect>
<a xlink:href="#/statement/Reject"><text x="95.5" y="4145">Reject</text>
</a>
</g>
<path d="M258.5 4141a10 10 0 0 0 10 -10v-4090a10 10 0 0 1 10 -10"></path>
<path d="M40 31a10 10 0 0 1 10 10v4120a10 10 0 0 0 10 10"></path>
<g class="terminal">
<path d="M60 4171h0"></path>
<path d="M139.5 4171h119"></path>
<rect x="60" y="4160" width="79.5" height="22" rx="10" ry="10"></rect>
<a xlink:href="#/statement/Replace"><text x="99.75" y="4175">Replace</text>
</a>
</g>
<path d="M258.5 4171a10 10 0 0 0 10 -10v-4120a10 10 0 0 1 10 -10"></path>
<path d="M40 31a10 10 0 0 1 10 10v4150a10 10 0 0 0 10 10"></path>
<g class="terminal">
<path d="M60 4201h0"></path>
<path d="M139.5 4201h119"></path>
<rect x="60" y="4190" width="79.5" height="22" rx="10" ry="10"></rect>
<a xlink:href="#/statement/Reserve"><text x="99.75" y="4205">Reserve</text>
</a>
</g>
<path d="M258.5 4201a10 10 0 0 0 10 -10v-4150a10 10 0 0 1 10 -10"></path>
<path d="M40 31a10 10 0 0 1 10 10v4180a10 10 0 0 0 10 10"></path>
<g class="terminal">
<path d="M60 4231h0"></path>
<path d="M131 4231h127.5"></path>
<rect x="60" y="4220" width="71" height="22" rx="10" ry="10"></rect>
<a xlink:href="#/statement/Resume"><text x="95.5" y="4235">Resume</text>
</a>
</g>
<path d="M258.5 4231a10 10 0 0 0 10 -10v-4180a10 10 0 0 1 10 -10"></path>
<path d="M40 31a10 10 0 0 1 10 10v4210a10 10 0 0 0 10 10"></path>
<g class="terminal">
<path d="M60 4261h0"></path>
<path d="M122.5 4261h136"></path>
<rect x="60" y="4250" width="62.5" height="22" rx="10" ry="10"></rect>
<a xlink:href="#/statement/Retry"><text x="91.25" y="4265">Retry</text>
</a>
</g>
<path d="M258.5 4261a10 10 0 0 0 10 -10v-4210a10 10 0 0 1 10 -10"></path>
<path d="M40 31a10 10 0 0 1 10 10v4240a10 10 0 0 0 10 10"></path>
<g class="terminal">
<path d="M60 4291h0"></path>
<path d="M148 4291h110.5"></path>
<rect x="60" y="4280" width="88" height="22" rx="10" ry="10"></rect>
<a xlink:href="#/statement/Rollback"><text x="104" y="4295">Rollback</text>
</a>
</g>
<path d="M258.5 4291a10 10 0 0 0 10 -10v-4240a10 10 0 0 1 10 -10"></path>
<path d="M40 31a10 10 0 0 1 10 10v4270a10 10 0 0 0 10 10"></path>
<g class="terminal">
<path d="M60 4321h0"></path>
<path d="M114 4321h144.5"></path>
<rect x="60" y="4310" width="54" height="22" rx="10" ry="10"></rect>
<a xlink:href="#/statement/Scan"><text x="87" y="4325">Scan</text>
</a>
</g>
<path d="M258.5 4321a10 10 0 0 0 10 -10v-4270a10 10 0 0 1 10 -10"></path>
<path d="M40 31a10 10 0 0 1 10 10v4300a10 10 0 0 0 10 10"></path>
<g class="terminal">
<path d="M60 4351h0"></path>
<path d="M165 4351h93.5"></path>
<rect x="60" y="4340" width="105" height="22" rx="10" ry="10"></rect>
<a xlink:href="#/statement/ScrollList"><text x="112.5" y="4355">ScrollList</text>
</a>
</g>
<path d="M258.5 4351a10 10 0 0 0 10 -10v-4300a10 10 0 0 1 10 -10"></path>
<path d="M40 31a10 10 0 0 1 10 10v4330a10 10 0 0 0 10 10"></path>
<g class="terminal">
<path d="M60 4381h0"></path>
<path d="M131 4381h127.5"></path>
<rect x="60" y="4370" width="71" height="22" rx="10" ry="10"></rect>
<a xlink:href="#/statement/Search"><text x="95.5" y="4385">Search</text>
</a>
</g>
<path d="M258.5 4381a10 10 0 0 0 10 -10v-4330a10 10 0 0 1 10 -10"></path>
<path d="M40 31a10 10 0 0 1 10 10v4360a10 10 0 0 0 10 10"></path>
<g class="terminal">
<path d="M60 4411h0"></path>
<path d="M131 4411h127.5"></path>
<rect x="60" y="4400" width="71" height="22" rx="10" ry="10"></rect>
<a xlink:href="#/statement/SetBit"><text x="95.5" y="4415">SetBit</text>
</a>
</g>
<path d="M258.5 4411a10 10 0 0 0 10 -10v-4360a10 10 0 0 1 10 -10"></path>
<path d="M40 31a10 10 0 0 1 10 10v4390a10 10 0 0 0 10 10"></path>
<g class="terminal">
<path d="M60 4441h0"></path>
<path d="M148 4441h110.5"></path>
<rect x="60" y="4430" width="88" height="22" rx="10" ry="10"></rect>
<a xlink:href="#/statement/SetBlank"><text x="104" y="4445">SetBlank</text>
</a>
</g>
<path d="M258.5 4441a10 10 0 0 0 10 -10v-4390a10 10 0 0 1 10 -10"></path>
<path d="M40 31a10 10 0 0 1 10 10v4420a10 10 0 0 0 10 10"></path>
<g class="terminal">
<path d="M60 4471h0"></path>
<path d="M165 4471h93.5"></path>
<rect x="60" y="4460" width="105" height="22" rx="10" ry="10"></rect>
<a xlink:href="#/statement/SetCountry"><text x="112.5" y="4475">SetCountry</text>
</a>
</g>
<path d="M258.5 4471a10 10 0 0 0 10 -10v-4420a10 10 0 0 1 10 -10"></path>
<path d="M40 31a10 10 0 0 1 10 10v4450a10 10 0 0 0 10 10"></path>
<g class="terminal">
<path d="M60 4501h0"></path>
<path d="M156.5 4501h102"></path>
<rect x="60" y="4490" width="96.5" height="22" rx="10" ry="10"></rect>
<a xlink:href="#/statement/SetCursor"><text x="108.25" y="4505">SetCursor</text>
</a>
</g>
<path d="M258.5 4501a10 10 0 0 0 10 -10v-4450a10 10 0 0 1 10 -10"></path>
<path d="M40 31a10 10 0 0 1 10 10v4480a10 10 0 0 0 10 10"></path>
<g class="terminal">
<path d="M60 4531h0"></path>
<path d="M165 4531h93.5"></path>
<rect x="60" y="4520" width="105" height="22" rx="10" ry="10"></rect>
<a xlink:href="#/statement/SetDataset"><text x="112.5" y="4535">SetDataset</text>
</a>
</g>
<path d="M258.5 4531a10 10 0 0 0 10 -10v-4480a10 10 0 0 1 10 -10"></path>
<path d="M40 31a10 10 0 0 1 10 10v4510a10 10 0 0 0 10 10"></path>
<g class="terminal">
<path d="M60 4561h0"></path>
<path d="M216 4561h42.5"></path>
<rect x="60" y="4550" width="156" height="22" rx="10" ry="10"></rect>
<a xlink:href="#/statement/SetExtendedCheck"><text x="138" y="4565">SetExtendedCheck</text>
</a>
</g>
<path d="M258.5 4561a10 10 0 0 0 10 -10v-4510a10 10 0 0 1 10 -10"></path>
<path d="M40 31a10 10 0 0 1 10 10v4540a10 10 0 0 0 10 10"></path>
<g class="terminal">
<path d="M60 4591h0"></path>
<path d="M165 4591h93.5"></path>
<rect x="60" y="4580" width="105" height="22" rx="10" ry="10"></rect>
<a xlink:href="#/statement/SetHandler"><text x="112.5" y="4595">SetHandler</text>
</a>
</g>
<path d="M258.5 4591a10 10 0 0 0 10 -10v-4540a10 10 0 0 1 10 -10"></path>
<path d="M40 31a10 10 0 0 1 10 10v4570a10 10 0 0 0 10 10"></path>
<g class="terminal">
<path d="M60 4621h0"></path>
<path d="M173.5 4621h85"></path>
<rect x="60" y="4610" width="113.5" height="22" rx="10" ry="10"></rect>
<a xlink:href="#/statement/SetLanguage"><text x="116.75" y="4625">SetLanguage</text>
</a>
</g>
<path d="M258.5 4621a10 10 0 0 0 10 -10v-4570a10 10 0 0 1 10 -10"></path>
<path d="M40 31a10 10 0 0 1 10 10v4600a10 10 0 0 0 10 10"></path>
<g class="terminal">
<path d="M60 4651h0"></path>
<path d="M139.5 4651h119"></path>
<rect x="60" y="4640" width="79.5" height="22" rx="10" ry="10"></rect>
<a xlink:href="#/statement/SetLeft"><text x="99.75" y="4655">SetLeft</text>
</a>
</g>
<path d="M258.5 4651a10 10 0 0 0 10 -10v-4600a10 10 0 0 1 10 -10"></path>
<path d="M40 31a10 10 0 0 1 10 10v4630a10 10 0 0 0 10 10"></path>
<g class="terminal">
<path d="M60 4681h0"></path>
<path d="M156.5 4681h102"></path>
<rect x="60" y="4670" width="96.5" height="22" rx="10" ry="10"></rect>
<a xlink:href="#/statement/SetLocale"><text x="108.25" y="4685">SetLocale</text>
</a>
</g>
<path d="M258.5 4681a10 10 0 0 0 10 -10v-4630a10 10 0 0 1 10 -10"></path>
<path d="M40 31a10 10 0 0 1 10 10v4660a10 10 0 0 0 10 10"></path>
<g class="terminal">
<path d="M60 4711h0"></path>
<path d="M156.5 4711h102"></path>
<rect x="60" y="4700" width="96.5" height="22" rx="10" ry="10"></rect>
<a xlink:href="#/statement/SetMargin"><text x="108.25" y="4715">SetMargin</text>
</a>
</g>
<path d="M258.5 4711a10 10 0 0 0 10 -10v-4660a10 10 0 0 1 10 -10"></path>
<path d="M40 31a10 10 0 0 1 10 10v4690a10 10 0 0 0 10 10"></path>
<g class="terminal">
<path d="M60 4741h0"></path>
<path d="M182 4741h76.5"></path>
<rect x="60" y="4730" width="122" height="22" rx="10" ry="10"></rect>
<a xlink:href="#/statement/SetParameter"><text x="121" y="4745">SetParameter</text>
</a>
</g>
<path d="M258.5 4741a10 10 0 0 0 10 -10v-4690a10 10 0 0 1 10 -10"></path>
<path d="M40 31a10 10 0 0 1 10 10v4720a10 10 0 0 0 10 10"></path>
<g class="terminal">
<path d="M60 4771h0"></path>
<path d="M173.5 4771h85"></path>
<rect x="60" y="4760" width="113.5" height="22" rx="10" ry="10"></rect>
<a xlink:href="#/statement/SetPFStatus"><text x="116.75" y="4775">SetPFStatus</text>
</a>
</g>
<path d="M258.5 4771a10 10 0 0 0 10 -10v-4720a10 10 0 0 1 10 -10"></path>
<path d="M40 31a10 10 0 0 1 10 10v4750a10 10 0 0 0 10 10"></path>
<g class="terminal">
<path d="M60 4801h0"></path>
<path d="M173.5 4801h85"></path>
<rect x="60" y="4790" width="113.5" height="22" rx="10" ry="10"></rect>
<a xlink:href="#/statement/SetProperty"><text x="116.75" y="4805">SetProperty</text>
</a>
</g>
<path d="M258.5 4801a10 10 0 0 0 10 -10v-4750a10 10 0 0 1 10 -10"></path>
<path d="M40 31a10 10 0 0 1 10 10v4780a10 10 0 0 0 10 10"></path>
<g class="terminal">
<path d="M60 4831h0"></path>
<path d="M165 4831h93.5"></path>
<rect x="60" y="4820" width="105" height="22" rx="10" ry="10"></rect>
<a xlink:href="#/statement/SetRunTime"><text x="112.5" y="4835">SetRunTime</text>
</a>
</g>
<path d="M258.5 4831a10 10 0 0 0 10 -10v-4780a10 10 0 0 1 10 -10"></path>
<path d="M40 31a10 10 0 0 1 10 10v4810a10 10 0 0 0 10 10"></path>
<g class="terminal">
<path d="M60 4861h0"></path>
<path d="M156.5 4861h102"></path>
<rect x="60" y="4850" width="96.5" height="22" rx="10" ry="10"></rect>
<a xlink:href="#/statement/SetScreen"><text x="108.25" y="4865">SetScreen</text>
</a>
</g>
<path d="M258.5 4861a10 10 0 0 0 10 -10v-4810a10 10 0 0 1 10 -10"></path>
<path d="M40 31a10 10 0 0 1 10 10v4840a10 10 0 0 0 10 10"></path>
<g class="terminal">
<path d="M60 4891h0"></path>
<path d="M173.5 4891h85"></path>
<rect x="60" y="4880" width="113.5" height="22" rx="10" ry="10"></rect>
<a xlink:href="#/statement/SetTitlebar"><text x="116.75" y="4895">SetTitlebar</text>
</a>
</g>
<path d="M258.5 4891a10 10 0 0 0 10 -10v-4840a10 10 0 0 1 10 -10"></path>
<path d="M40 31a10 10 0 0 1 10 10v4870a10 10 0 0 0 10 10"></path>
<g class="terminal">
<path d="M60 4921h0"></path>
<path d="M199 4921h59.5"></path>
<rect x="60" y="4910" width="139" height="22" rx="10" ry="10"></rect>
<a xlink:href="#/statement/SetUserCommand"><text x="129.5" y="4925">SetUserCommand</text>
</a>
</g>
<path d="M258.5 4921a10 10 0 0 0 10 -10v-4870a10 10 0 0 1 10 -10"></path>
<path d="M40 31a10 10 0 0 1 10 10v4900a10 10 0 0 0 10 10"></path>
<g class="terminal">
<path d="M60 4951h0"></path>
<path d="M190.5 4951h68"></path>
<rect x="60" y="4940" width="130.5" height="22" rx="10" ry="10"></rect>
<a xlink:href="#/statement/SetUpdateTask"><text x="125.25" y="4955">SetUpdateTask</text>
</a>
</g>
<path d="M258.5 4951a10 10 0 0 0 10 -10v-4900a10 10 0 0 1 10 -10"></path>
<path d="M40 31a10 10 0 0 1 10 10v4930a10 10 0 0 0 10 10"></path>
<g class="terminal">
<path d="M60 4981h0"></path>
<path d="M122.5 4981h136"></path>
<rect x="60" y="4970" width="62.5" height="22" rx="10" ry="10"></rect>
<a xlink:href="#/statement/Shift"><text x="91.25" y="4985">Shift</text>
</a>
</g>
<path d="M258.5 4981a10 10 0 0 0 10 -10v-4930a10 10 0 0 1 10 -10"></path>
<path d="M40 31a10 10 0 0 1 10 10v4960a10 10 0 0 0 10 10"></path>
<g class="terminal">
<path d="M60 5011h0"></path>
<path d="M114 5011h144.5"></path>
<rect x="60" y="5000" width="54" height="22" rx="10" ry="10"></rect>
<a xlink:href="#/statement/Skip"><text x="87" y="5015">Skip</text>
</a>
</g>
<path d="M258.5 5011a10 10 0 0 0 10 -10v-4960a10 10 0 0 1 10 -10"></path>
<path d="M40 31a10 10 0 0 1 10 10v4990a10 10 0 0 0 10 10"></path>
<g class="terminal">
<path d="M60 5041h0"></path>
<path d="M173.5 5041h85"></path>
<rect x="60" y="5030" width="113.5" height="22" rx="10" ry="10"></rect>
<a xlink:href="#/statement/SortDataset"><text x="116.75" y="5045">SortDataset</text>
</a>
</g>
<path d="M258.5 5041a10 10 0 0 0 10 -10v-4990a10 10 0 0 1 10 -10"></path>
<path d="M40 31a10 10 0 0 1 10 10v5020a10 10 0 0 0 10 10"></path>
<g class="terminal">
<path d="M60 5071h0"></path>
<path d="M114 5071h144.5"></path>
<rect x="60" y="5060" width="54" height="22" rx="10" ry="10"></rect>
<a xlink:href="#/statement/Sort"><text x="87" y="5075">Sort</text>
</a>
</g>
<path d="M258.5 5071a10 10 0 0 0 10 -10v-5020a10 10 0 0 1 10 -10"></path>
<path d="M40 31a10 10 0 0 1 10 10v5050a10 10 0 0 0 10 10"></path>
<g class="terminal">
<path d="M60 5101h0"></path>
<path d="M131 5101h127.5"></path>
<rect x="60" y="5090" width="71" height="22" rx="10" ry="10"></rect>
<a xlink:href="#/statement/Static"><text x="95.5" y="5105">Static</text>
</a>
</g>
<path d="M258.5 5101a10 10 0 0 0 10 -10v-5050a10 10 0 0 1 10 -10"></path>
<path d="M40 31a10 10 0 0 1 10 10v5080a10 10 0 0 0 10 10"></path>
<g class="terminal">
<path d="M60 5131h0"></path>
<path d="M122.5 5131h136"></path>
<rect x="60" y="5120" width="62.5" height="22" rx="10" ry="10"></rect>
<a xlink:href="#/statement/Split"><text x="91.25" y="5135">Split</text>
</a>
</g>
<path d="M258.5 5131a10 10 0 0 0 10 -10v-5080a10 10 0 0 1 10 -10"></path>
<path d="M40 31a10 10 0 0 1 10 10v5110a10 10 0 0 0 10 10"></path>
<g class="terminal">
<path d="M60 5161h0"></path>
<path d="M114 5161h144.5"></path>
<rect x="60" y="5150" width="54" height="22" rx="10" ry="10"></rect>
<a xlink:href="#/statement/Stop"><text x="87" y="5165">Stop</text>
</a>
</g>
<path d="M258.5 5161a10 10 0 0 0 10 -10v-5110a10 10 0 0 1 10 -10"></path>
<path d="M40 31a10 10 0 0 1 10 10v5140a10 10 0 0 0 10 10"></path>
<g class="terminal">
<path d="M60 5191h0"></path>
<path d="M131 5191h127.5"></path>
<rect x="60" y="5180" width="71" height="22" rx="10" ry="10"></rect>
<a xlink:href="#/statement/Submit"><text x="95.5" y="5195">Submit</text>
</a>
</g>
<path d="M258.5 5191a10 10 0 0 0 10 -10v-5140a10 10 0 0 1 10 -10"></path>
<path d="M40 31a10 10 0 0 1 10 10v5170a10 10 0 0 0 10 10"></path>
<g class="terminal">
<path d="M60 5221h0"></path>
<path d="M139.5 5221h119"></path>
<rect x="60" y="5210" width="79.5" height="22" rx="10" ry="10"></rect>
<a xlink:href="#/statement/Summary"><text x="99.75" y="5225">Summary</text>
</a>
</g>
<path d="M258.5 5221a10 10 0 0 0 10 -10v-5170a10 10 0 0 1 10 -10"></path>
<path d="M40 31a10 10 0 0 1 10 10v5200a10 10 0 0 0 10 10"></path>
<g class="terminal">
<path d="M60 5251h0"></path>
<path d="M258.5 5251h0"></path>
<rect x="60" y="5240" width="198.5" height="22" rx="10" ry="10"></rect>
<a xlink:href="#/statement/SubtractCorresponding"><text x="159.25" y="5255">SubtractCorresponding</text>
</a>
</g>
<path d="M258.5 5251a10 10 0 0 0 10 -10v-5200a10 10 0 0 1 10 -10"></path>
<path d="M40 31a10 10 0 0 1 10 10v5230a10 10 0 0 0 10 10"></path>
<g class="terminal">
<path d="M60 5281h0"></path>
<path d="M148 5281h110.5"></path>
<rect x="60" y="5270" width="88" height="22" rx="10" ry="10"></rect>
<a xlink:href="#/statement/Subtract"><text x="104" y="5285">Subtract</text>
</a>
</g>
<path d="M258.5 5281a10 10 0 0 0 10 -10v-5230a10 10 0 0 1 10 -10"></path>
<path d="M40 31a10 10 0 0 1 10 10v5260a10 10 0 0 0 10 10"></path>
<g class="terminal">
<path d="M60 5311h0"></path>
<path d="M199 5311h59.5"></path>
<rect x="60" y="5300" width="139" height="22" rx="10" ry="10"></rect>
<a xlink:href="#/statement/SuppressDialog"><text x="129.5" y="5315">SuppressDialog</text>
</a>
</g>
<path d="M258.5 5311a10 10 0 0 0 10 -10v-5260a10 10 0 0 1 10 -10"></path>
<path d="M40 31a10 10 0 0 1 10 10v5290a10 10 0 0 0 10 10"></path>
<g class="terminal">
<path d="M60 5341h0"></path>
<path d="M131 5341h127.5"></path>
<rect x="60" y="5330" width="71" height="22" rx="10" ry="10"></rect>
<a xlink:href="#/statement/Supply"><text x="95.5" y="5345">Supply</text>
</a>
</g>
<path d="M258.5 5341a10 10 0 0 0 10 -10v-5290a10 10 0 0 1 10 -10"></path>
<path d="M40 31a10 10 0 0 1 10 10v5320a10 10 0 0 0 10 10"></path>
<g class="terminal">
<path d="M60 5371h0"></path>
<path d="M105.5 5371h153"></path>
<rect x="60" y="5360" width="45.5" height="22" rx="10" ry="10"></rect>
<a xlink:href="#/statement/Sum"><text x="82.75" y="5375">Sum</text>
</a>
</g>
<path d="M258.5 5371a10 10 0 0 0 10 -10v-5320a10 10 0 0 1 10 -10"></path>
<path d="M40 31a10 10 0 0 1 10 10v5350a10 10 0 0 0 10 10"></path>
<g class="terminal">
<path d="M60 5401h0"></path>
<path d="M173.5 5401h85"></path>
<rect x="60" y="5390" width="113.5" height="22" rx="10" ry="10"></rect>
<a xlink:href="#/statement/SyntaxCheck"><text x="116.75" y="5405">SyntaxCheck</text>
</a>
</g>
<path d="M258.5 5401a10 10 0 0 0 10 -10v-5350a10 10 0 0 1 10 -10"></path>
<path d="M40 31a10 10 0 0 1 10 10v5380a10 10 0 0 0 10 10"></path>
<g class="terminal">
<path d="M60 5431h0"></path>
<path d="M165 5431h93.5"></path>
<rect x="60" y="5420" width="105" height="22" rx="10" ry="10"></rect>
<a xlink:href="#/statement/SystemCall"><text x="112.5" y="5435">SystemCall</text>
</a>
</g>
<path d="M258.5 5431a10 10 0 0 0 10 -10v-5380a10 10 0 0 1 10 -10"></path>
<path d="M40 31a10 10 0 0 1 10 10v5410a10 10 0 0 0 10 10"></path>
<g class="terminal">
<path d="M60 5461h0"></path>
<path d="M131 5461h127.5"></path>
<rect x="60" y="5450" width="71" height="22" rx="10" ry="10"></rect>
<a xlink:href="#/statement/Tables"><text x="95.5" y="5465">Tables</text>
</a>
</g>
<path d="M258.5 5461a10 10 0 0 0 10 -10v-5410a10 10 0 0 1 10 -10"></path>
<path d="M40 31a10 10 0 0 1 10 10v5440a10 10 0 0 0 10 10"></path>
<g class="terminal">
<path d="M60 5491h0"></path>
<path d="M148 5491h110.5"></path>
<rect x="60" y="5480" width="88" height="22" rx="10" ry="10"></rect>
<a xlink:href="#/statement/Transfer"><text x="104" y="5495">Transfer</text>
</a>
</g>
<path d="M258.5 5491a10 10 0 0 0 10 -10v-5440a10 10 0 0 1 10 -10"></path>
<path d="M40 31a10 10 0 0 1 10 10v5470a10 10 0 0 0 10 10"></path>
<g class="terminal">
<path d="M60 5521h0"></path>
<path d="M156.5 5521h102"></path>
<rect x="60" y="5510" width="96.5" height="22" rx="10" ry="10"></rect>
<a xlink:href="#/statement/Translate"><text x="108.25" y="5525">Translate</text>
</a>
</g>
<path d="M258.5 5521a10 10 0 0 0 10 -10v-5470a10 10 0 0 1 10 -10"></path>
<path d="M40 31a10 10 0 0 1 10 10v5500a10 10 0 0 0 10 10"></path>
<g class="terminal">
<path d="M60 5551h0"></path>
<path d="M114 5551h144.5"></path>
<rect x="60" y="5540" width="54" height="22" rx="10" ry="10"></rect>
<a xlink:href="#/statement/Type"><text x="87" y="5555">Type</text>
</a>
</g>
<path d="M258.5 5551a10 10 0 0 0 10 -10v-5500a10 10 0 0 1 10 -10"></path>
<path d="M40 31a10 10 0 0 1 10 10v5530a10 10 0 0 0 10 10"></path>
<g class="terminal">
<path d="M60 5581h0"></path>
<path d="M156.5 5581h102"></path>
<rect x="60" y="5570" width="96.5" height="22" rx="10" ry="10"></rect>
<a xlink:href="#/statement/TypePools"><text x="108.25" y="5585">TypePools</text>
</a>
</g>
<path d="M258.5 5581a10 10 0 0 0 10 -10v-5530a10 10 0 0 1 10 -10"></path>
<path d="M40 31a10 10 0 0 1 10 10v5560a10 10 0 0 0 10 10"></path>
<g class="terminal">
<path d="M60 5611h0"></path>
<path d="M122.5 5611h136"></path>
<rect x="60" y="5600" width="62.5" height="22" rx="10" ry="10"></rect>
<a xlink:href="#/statement/Uline"><text x="91.25" y="5615">Uline</text>
</a>
</g>
<path d="M258.5 5611a10 10 0 0 0 10 -10v-5560a10 10 0 0 1 10 -10"></path>
<path d="M40 31a10 10 0 0 1 10 10v5590a10 10 0 0 0 10 10"></path>
<g class="terminal">
<path d="M60 5641h0"></path>
<path d="M148 5641h110.5"></path>
<rect x="60" y="5630" width="88" height="22" rx="10" ry="10"></rect>
<a xlink:href="#/statement/Unassign"><text x="104" y="5645">Unassign</text>
</a>
</g>
<path d="M258.5 5641a10 10 0 0 0 10 -10v-5590a10 10 0 0 1 10 -10"></path>
<path d="M40 31a10 10 0 0 1 10 10v5620a10 10 0 0 0 10 10"></path>
<g class="terminal">
<path d="M60 5671h0"></path>
<path d="M131 5671h127.5"></path>
<rect x="60" y="5660" width="71" height="22" rx="10" ry="10"></rect>
<a xlink:href="#/statement/Unpack"><text x="95.5" y="5675">Unpack</text>
</a>
</g>
<path d="M258.5 5671a10 10 0 0 0 10 -10v-5620a10 10 0 0 1 10 -10"></path>
<path d="M40 31a10 10 0 0 1 10 10v5650a10 10 0 0 0 10 10"></path>
<g class="terminal">
<path d="M60 5701h0"></path>
<path d="M199 5701h59.5"></path>
<rect x="60" y="5690" width="139" height="22" rx="10" ry="10"></rect>
<a xlink:href="#/statement/UpdateDatabase"><text x="129.5" y="5705">UpdateDatabase</text>
</a>
</g>
<path d="M258.5 5701a10 10 0 0 0 10 -10v-5650a10 10 0 0 1 10 -10"></path>
<path d="M40 31a10 10 0 0 1 10 10v5680a10 10 0 0 0 10 10"></path>
<g class="terminal">
<path d="M60 5731h0"></path>
<path d="M114 5731h144.5"></path>
<rect x="60" y="5720" width="54" height="22" rx="10" ry="10"></rect>
<a xlink:href="#/statement/Wait"><text x="87" y="5735">Wait</text>
</a>
</g>
<path d="M258.5 5731a10 10 0 0 0 10 -10v-5680a10 10 0 0 1 10 -10"></path>
<path d="M40 31a10 10 0 0 1 10 10v5710a10 10 0 0 0 10 10"></path>
<g class="terminal">
<path d="M60 5761h0"></path>
<path d="M131 5761h127.5"></path>
<rect x="60" y="5750" width="71" height="22" rx="10" ry="10"></rect>
<a xlink:href="#/statement/Window"><text x="95.5" y="5765">Window</text>
</a>
</g>
<path d="M258.5 5761a10 10 0 0 0 10 -10v-5710a10 10 0 0 1 10 -10"></path>
<path d="M40 31a10 10 0 0 1 10 10v5740a10 10 0 0 0 10 10"></path>
<g class="terminal">
<path d="M60 5791h0"></path>
<path d="M122.5 5791h136"></path>
<rect x="60" y="5780" width="62.5" height="22" rx="10" ry="10"></rect>
<a xlink:href="#/statement/Write"><text x="91.25" y="5795">Write</text>
</a>
</g>
<path d="M258.5 5791a10 10 0 0 0 10 -10v-5740a10 10 0 0 1 10 -10"></path>
<path d="M40 31a10 10 0 0 1 10 10v5770a10 10 0 0 0 10 10"></path>
<g class="terminal">
<path d="M60 5821h0"></path>
<path d="M199 5821h59.5"></path>
<rect x="60" y="5810" width="139" height="22" rx="10" ry="10"></rect>
<a xlink:href="#/statement/CommitEntities"><text x="129.5" y="5825">CommitEntities</text>
</a>
</g>
<path d="M258.5 5821a10 10 0 0 0 10 -10v-5770a10 10 0 0 1 10 -10"></path>
<path d="M40 31a10 10 0 0 1 10 10v5800a10 10 0 0 0 10 10"></path>
<g class="terminal">
<path d="M60 5851h0"></path>
<path d="M199 5851h59.5"></path>
<rect x="60" y="5840" width="139" height="22" rx="10" ry="10"></rect>
<a xlink:href="#/statement/ModifyEntities"><text x="129.5" y="5855">ModifyEntities</text>
</a>
</g>
<path d="M258.5 5851a10 10 0 0 0 10 -10v-5800a10 10 0 0 1 10 -10"></path>
<path d="M40 31a10 10 0 0 1 10 10v5830a10 10 0 0 0 10 10"></path>
<g class="terminal">
<path d="M60 5881h0"></path>
<path d="M182 5881h76.5"></path>
<rect x="60" y="5870" width="122" height="22" rx="10" ry="10"></rect>
<a xlink:href="#/statement/ReadEntities"><text x="121" y="5885">ReadEntities</text>
</a>
</g>
<path d="M258.5 5881a10 10 0 0 0 10 -10v-5830a10 10 0 0 1 10 -10"></path>
<path d="M40 31a10 10 0 0 1 10 10v5860a10 10 0 0 0 10 10"></path>
<g class="terminal">
<path d="M60 5911h0"></path>
<path d="M216 5911h42.5"></path>
<rect x="60" y="5900" width="156" height="22" rx="10" ry="10"></rect>
<a xlink:href="#/statement/RollbackEntities"><text x="138" y="5915">RollbackEntities</text>
</a>
</g>
<path d="M258.5 5911a10 10 0 0 0 10 -10v-5860a10 10 0 0 1 10 -10"></path>
<path d="M40 31a10 10 0 0 1 10 10v5890a10 10 0 0 0 10 10"></path>
<g class="non-terminal">
<path d="M60 5941h0"></path>
<path d="M131 5941h127.5"></path>
<rect x="60" y="5930" width="71" height="22"></rect>
<a xlink:href="#/structure/Define"><text x="95.5" y="5945">Define</text>
</a>
</g>
<path d="M258.5 5941a10 10 0 0 0 10 -10v-5890a10 10 0 0 1 10 -10"></path>
<path d="M40 31a10 10 0 0 1 10 10v5920a10 10 0 0 0 10 10"></path>
<g class="non-terminal">
<path d="M60 5971h0"></path>
<path d="M190.5 5971h68"></path>
<rect x="60" y="5960" width="130.5" height="22"></rect>
<a xlink:href="#/structure/TestInjection"><text x="125.25" y="5975">TestInjection</text>
</a>
</g>
<path d="M258.5 5971a10 10 0 0 0 10 -10v-5920a10 10 0 0 1 10 -10"></path>
<path d="M40 31a10 10 0 0 1 10 10v5950a10 10 0 0 0 10 10"></path>
<g class="non-terminal">
<path d="M60 6001h0"></path>
<path d="M148 6001h110.5"></path>
<rect x="60" y="5990" width="88" height="22"></rect>
<a xlink:href="#/structure/TestSeam"><text x="104" y="6005">TestSeam</text>
</a>
</g>
<path d="M258.5 6001a10 10 0 0 0 10 -10v-5950a10 10 0 0 1 10 -10"></path>
<path d="M40 31a10 10 0 0 1 10 10v5980a10 10 0 0 0 10 10"></path>
<g class="non-terminal">
<path d="M60 6031h0"></path>
<path d="M139.5 6031h119"></path>
<rect x="60" y="6020" width="79.5" height="22"></rect>
<a xlink:href="#/structure/Provide"><text x="99.75" y="6035">Provide</text>
</a>
</g>
<path d="M258.5 6031a10 10 0 0 0 10 -10v-5980a10 10 0 0 1 10 -10"></path>
<path d="M40 31a10 10 0 0 1 10 10v6010a10 10 0 0 0 10 10"></path>
<g class="non-terminal">
<path d="M60 6061h0"></path>
<path d="M258.5 6061h0"></path>
<rect x="60" y="6050" width="198.5" height="22"></rect>
<a xlink:href="#/structure/CatchSystemExceptions"><text x="159.25" y="6065">CatchSystemExceptions</text>
</a>
</g>
<path d="M258.5 6061a10 10 0 0 0 10 -10v-6010a10 10 0 0 1 10 -10"></path>
<path d="M40 31a10 10 0 0 1 10 10v6040a10 10 0 0 0 10 10"></path>
<g class="non-terminal">
<path d="M60 6091h0"></path>
<path d="M97 6091h161.5"></path>
<rect x="60" y="6080" width="37" height="22"></rect>
<a xlink:href="#/structure/At"><text x="78.5" y="6095">At</text>
</a>
</g>
<path d="M258.5 6091a10 10 0 0 0 10 -10v-6040a10 10 0 0 1 10 -10"></path>
<path d="M40 31a10 10 0 0 1 10 10v6070a10 10 0 0 0 10 10"></path>
<g class="non-terminal">
<path d="M60 6121h0"></path>
<path d="M156.5 6121h102"></path>
<rect x="60" y="6110" width="96.5" height="22"></rect>
<a xlink:href="#/structure/Constants"><text x="108.25" y="6125">Constants</text>
</a>
</g>
<path d="M258.5 6121a10 10 0 0 0 10 -10v-6070a10 10 0 0 1 10 -10"></path>
<path d="M40 31a10 10 0 0 1 10 10v6100a10 10 0 0 0 10 10"></path>
<g class="non-terminal">
<path d="M60 6151h0"></path>
<path d="M122.5 6151h136"></path>
<rect x="60" y="6140" width="62.5" height="22"></rect>
<a xlink:href="#/structure/Types"><text x="91.25" y="6155">Types</text>
</a>
</g>
<path d="M258.5 6151a10 10 0 0 0 10 -10v-6100a10 10 0 0 1 10 -10"></path>
<path d="M40 31a10 10 0 0 1 10 10v6130a10 10 0 0 0 10 10"></path>
<g class="non-terminal">
<path d="M60 6181h0"></path>
<path d="M139.5 6181h119"></path>
<rect x="60" y="6170" width="79.5" height="22"></rect>
<a xlink:href="#/structure/Statics"><text x="99.75" y="6185">Statics</text>
</a>
</g>
<path d="M258.5 6181a10 10 0 0 0 10 -10v-6130a10 10 0 0 1 10 -10"></path>
<path d="M40 31a10 10 0 0 1 10 10v6160a10 10 0 0 0 10 10"></path>
<g class="non-terminal">
<path d="M60 6211h0"></path>
<path d="M131 6211h127.5"></path>
<rect x="60" y="6200" width="71" height="22"></rect>
<a xlink:href="#/structure/Select"><text x="95.5" y="6215">Select</text>
</a>
</g>
<path d="M258.5 6211a10 10 0 0 0 10 -10v-6160a10 10 0 0 1 10 -10"></path>
<path d="M40 31a10 10 0 0 1 10 10v6190a10 10 0 0 0 10 10"></path>
<g class="non-terminal">
<path d="M60 6241h0"></path>
<path d="M114 6241h144.5"></path>
<rect x="60" y="6230" width="54" height="22"></rect>
<a xlink:href="#/structure/Data"><text x="87" y="6245">Data</text>
</a>
</g>
<path d="M258.5 6241a10 10 0 0 0 10 -10v-6190a10 10 0 0 1 10 -10"></path>
<path d="M40 31a10 10 0 0 1 10 10v6220a10 10 0 0 0 10 10"></path>
<g class="non-terminal">
<path d="M60 6271h0"></path>
<path d="M148 6271h110.5"></path>
<rect x="60" y="6260" width="88" height="22"></rect>
<a xlink:href="#/structure/TypeEnum"><text x="104" y="6275">TypeEnum</text>
</a>
</g>
<path d="M258.5 6271a10 10 0 0 0 10 -10v-6220a10 10 0 0 1 10 -10"></path>
<path d="M40 31a10 10 0 0 1 10 10v6250a10 10 0 0 0 10 10"></path>
<g class="non-terminal">
<path d="M60 6301h0"></path>
<path d="M122.5 6301h136"></path>
<rect x="60" y="6290" width="62.5" height="22"></rect>
<a xlink:href="#/structure/While"><text x="91.25" y="6305">While</text>
</a>
</g>
<path d="M258.5 6301a10 10 0 0 0 10 -10v-6250a10 10 0 0 1 10 -10"></path>
<path d="M40 31a10 10 0 0 1 10 10v6280a10 10 0 0 0 10 10"></path>
<g class="non-terminal">
<path d="M60 6331h0"></path>
<path d="M114 6331h144.5"></path>
<rect x="60" y="6320" width="54" height="22"></rect>
<a xlink:href="#/structure/With"><text x="87" y="6335">With</text>
</a>
</g>
<path d="M258.5 6331a10 10 0 0 0 10 -10v-6280a10 10 0 0 1 10 -10"></path>
<path d="M40 31a10 10 0 0 1 10 10v6310a10 10 0 0 0 10 10"></path>
<g class="non-terminal">
<path d="M60 6361h0"></path>
<path d="M97 6361h161.5"></path>
<rect x="60" y="6350" width="37" height="22"></rect>
<a xlink:href="#/structure/Do"><text x="78.5" y="6365">Do</text>
</a>
</g>
<path d="M258.5 6361a10 10 0 0 0 10 -10v-6310a10 10 0 0 1 10 -10"></path>
<path d="M40 31a10 10 0 0 1 10 10v6340a10 10 0 0 0 10 10"></path>
<g class="non-terminal">
<path d="M60 6391h0"></path>
<path d="M139.5 6391h119"></path>
<rect x="60" y="6380" width="79.5" height="22"></rect>
<a xlink:href="#/structure/ExecSQL"><text x="99.75" y="6395">ExecSQL</text>
</a>
</g>
<path d="M258.5 6391a10 10 0 0 0 10 -10v-6340a10 10 0 0 1 10 -10"></path>
</g>
<path d="M 278.5 31 h 20 m -10 -10 v 20 m 10 -20 v 20"></path>
</g>
</svg>
