<svg xmlns="http://www.w3.org/2000/svg" xmlns:xlink="http://www.w3.org/1999/xlink" class="railroad-diagram" width="1475" height="140" viewBox="0 0 1475 140">
<defs>
<style type="text/css"><![CDATA[
path {
stroke-width: 3;
stroke: black;
fill: rgba(0,0,0,0);
}
text {
font: bold 14px monospace;
text-anchor: middle;
}
text.diagram-text {
font-size: 12px;
}
a {
fill: blue;
}
text.diagram-arrow {
font-size: 16px;
}
text.label {
text-anchor: start;
}
text.comment {
font: italic 12px monospace;
}
rect {
stroke-width: 3;
stroke: black;
fill: #BCBCBC;
}
path.diagram-text {
stroke-width: 3;
stroke: black;
fill: #BCBCBC;
cursor: help;
}
]]></style>
</defs>
<g transform="translate(.5 .5)">
<g>
<path d="M20 21v20m0 -10h20"></path>
</g>
<g>
<path d="M40 31h0"></path>
<path d="M1435 31h0"></path>
<path d="M40 31h20"></path>
<g class="terminal ">
<path d="M60 31h599.5"></path>
<path d="M815.5 31h599.5"></path>
<rect x="659.5" y="20" width="156" height="22" rx="10" ry="10"></rect>
<text x="737.5" y="35">^"(?:&#91;^"&#93;|"")&#42;"$</text>
</g>
<path d="M1415 31h20"></path>
<path d="M40 31a10 10 0 0 1 10 10v19a10 10 0 0 0 10 10"></path>
<g>
<path d="M60 70h0"></path>
<path d="M1415 70h0"></path>
<g>
<path d="M60 70h0"></path>
<path d="M145.5 70h0"></path>
<path d="M60 70a10 10 0 0 0 10 -10v0a10 10 0 0 1 10 -10"></path>
<g>
<path d="M80 50h45.5"></path>
</g>
<path d="M125.5 50a10 10 0 0 1 10 10v0a10 10 0 0 0 10 10"></path>
<path d="M60 70h20"></path>
<g class="terminal ">
<path d="M80 70h0"></path>
<path d="M125.5 70h0"></path>
<rect x="80" y="59" width="45.5" height="22" rx="10" ry="10"></rect>
<text x="102.75" y="74">":"</text>
</g>
<path d="M125.5 70h20"></path>
</g>
<path d="M145.5 70h10"></path>
<g>
<path d="M155.5 70h0"></path>
<path d="M1415 70h0"></path>
<g class="terminal ">
<path d="M155.5 70h0"></path>
<path d="M201 70h0"></path>
<rect x="155.5" y="59" width="45.5" height="22" rx="10" ry="10"></rect>
<text x="178.25" y="74">"/"</text>
</g>
<path d="M201 70h10"></path>
<path d="M211 70h10"></path>
<g class="terminal ">
<path d="M221 70h0"></path>
<path d="M300.5 70h0"></path>
<rect x="221" y="59" width="79.5" height="22" rx="10" ry="10"></rect>
<text x="260.75" y="74">^&#91;\w&#93;+$</text>
</g>
<path d="M300.5 70h10"></path>
<path d="M310.5 70h10"></path>
<g class="terminal ">
<path d="M320.5 70h0"></path>
<path d="M366 70h0"></path>
<rect x="320.5" y="59" width="45.5" height="22" rx="10" ry="10"></rect>
<text x="343.25" y="74">"/"</text>
</g>
<path d="M366 70h10"></path>
<path d="M376 70h10"></path>
<g class="terminal ">
<path d="M386 70h0"></path>
<path d="M1307 70h0"></path>
<rect x="386" y="59" width="921" height="22" rx="10" ry="10"></rect>
<text x="846.5" y="74">stopBefore(AS|ON|WHERE|WITH|UNION|GROUP|HAVING|AND|OR|BETWEEN|LIKE|IN|EXISTS|WHEN|THEN|ELSE|END|CASE|CAST)</text>
</g>
<path d="M1307 70h10"></path>
<path d="M1317 70h10"></path>
<g class="terminal ">
<path d="M1327 70h0"></path>
<path d="M1415 70h0"></path>
<rect x="1327" y="59" width="88" height="22" rx="10" ry="10"></rect>
<text x="1371" y="74">^&#91;\w&#95;&#93;+$</text>
</g>
</g>
</g>
<path d="M1415 70a10 10 0 0 0 10 -10v-19a10 10 0 0 1 10 -10"></path>
<path d="M40 31a10 10 0 0 1 10 10v58a10 10 0 0 0 10 10"></path>
<g>
<path d="M60 109h564.5"></path>
<path d="M850.5 109h564.5"></path>
<g>
<path d="M624.5 109h0"></path>
<path d="M710 109h0"></path>
<path d="M624.5 109a10 10 0 0 0 10 -10v0a10 10 0 0 1 10 -10"></path>
<g>
<path d="M644.5 89h45.5"></path>
</g>
<path d="M690 89a10 10 0 0 1 10 10v0a10 10 0 0 0 10 10"></path>
<path d="M624.5 109h20"></path>
<g class="terminal ">
<path d="M644.5 109h0"></path>
<path d="M690 109h0"></path>
<rect x="644.5" y="98" width="45.5" height="22" rx="10" ry="10"></rect>
<text x="667.25" y="113">":"</text>
</g>
<path d="M690 109h20"></path>
</g>
<path d="M710 109h10"></path>
<g class="terminal ">
<path d="M720 109h0"></path>
<path d="M850.5 109h0"></path>
<rect x="720" y="98" width="130.5" height="22" rx="10" ry="10"></rect>
<text x="785.25" y="113">^\$?#?&#91;\w&#95;&#93;+$</text>
</g>
</g>
<path d="M1415 109a10 10 0 0 0 10 -10v-58a10 10 0 0 1 10 -10"></path>
</g>
<path d="M 1435 31 h 20 m 0 -10 v 20"></path>
</g>
</svg>
