<svg xmlns="http://www.w3.org/2000/svg" xmlns:xlink="http://www.w3.org/1999/xlink" class="railroad-diagram" width="1160.5" height="380" viewBox="0 0 1160.5 380">
<defs>
<style type="text/css"><![CDATA[
path {
stroke-width: 3;
stroke: black;
fill: rgba(0,0,0,0);
}
text {
font: bold 14px monospace;
text-anchor: middle;
}
text.diagram-text {
font-size: 12px;
}
a {
fill: blue;
}
text.diagram-arrow {
font-size: 16px;
}
text.label {
text-anchor: start;
}
text.comment {
font: italic 12px monospace;
}
rect {
stroke-width: 3;
stroke: black;
fill: #BCBCBC;
}
path.diagram-text {
stroke-width: 3;
stroke: black;
fill: #BCBCBC;
cursor: help;
}
]]></style>
</defs>
<g transform="translate(.5 .5)">
<g>
<path d="M20 30v20m0 -10h20"></path>
</g>
<path d="M40 40h10"></path>
<g>
<path d="M50 40h0"></path>
<path d="M1110.5 40h0"></path>
<g>
<path d="M50 40h0"></path>
<path d="M240.5 40h0"></path>
<path d="M50 40a10 10 0 0 0 10 -10v0a10 10 0 0 1 10 -10"></path>
<g>
<path d="M70 20h150.5"></path>
</g>
<path d="M220.5 20a10 10 0 0 1 10 10v0a10 10 0 0 0 10 10"></path>
<path d="M50 40h20"></path>
<g>
<path d="M70 40h0"></path>
<path d="M220.5 40h0"></path>
<path d="M70 40h10"></path>
<g class="non-terminal">
<path d="M80 40h0"></path>
<path d="M210.5 40h0"></path>
<rect x="80" y="29" width="130.5" height="22"></rect>
<a xlink:href="#/cds/expression/CDSAnnotation"><text x="145.25" y="44">CDSAnnotation</text>
</a>
</g>
<path d="M210.5 40h10"></path>
<path d="M80 40a10 10 0 0 0 -10 10v0a10 10 0 0 0 10 10"></path>
<g>
<path d="M80 60h130.5"></path>
</g>
<path d="M210.5 60a10 10 0 0 0 10 -10v0a10 10 0 0 0 -10 -10"></path>
</g>
<path d="M220.5 40h20"></path>
</g>
<g>
<path d="M240.5 40h0"></path>
<path d="M343 40h0"></path>
<path d="M240.5 40a10 10 0 0 0 10 -10v0a10 10 0 0 1 10 -10"></path>
<g>
<path d="M260.5 20h62.5"></path>
</g>
<path d="M323 20a10 10 0 0 1 10 10v0a10 10 0 0 0 10 10"></path>
<path d="M240.5 40h20"></path>
<g class="terminal">
<path d="M260.5 40h0"></path>
<path d="M323 40h0"></path>
<rect x="260.5" y="29" width="62.5" height="22" rx="10" ry="10"></rect>
<text x="291.75" y="44">"KEY"</text>
</g>
<path d="M323 40h20"></path>
</g>
<g>
<path d="M343 40h0"></path>
<path d="M1008 40h0"></path>
<path d="M343 40h20"></path>
<g class="non-terminal">
<path d="M363 40h0"></path>
<path d="M485 40h503"></path>
<rect x="363" y="29" width="122" height="22"></rect>
<a xlink:href="#/cds/expression/CDSAggregate"><text x="424" y="44">CDSAggregate</text>
</a>
</g>
<path d="M988 40h20"></path>
<path d="M343 40a10 10 0 0 1 10 10v10a10 10 0 0 0 10 10"></path>
<g class="non-terminal">
<path d="M363 70h0"></path>
<path d="M459.5 70h528.5"></path>
<rect x="363" y="59" width="96.5" height="22"></rect>
<a xlink:href="#/cds/expression/CDSString"><text x="411.25" y="74">CDSString</text>
</a>
</g>
<path d="M988 70a10 10 0 0 0 10 -10v-10a10 10 0 0 1 10 -10"></path>
<path d="M343 40a10 10 0 0 1 10 10v40a10 10 0 0 0 10 10"></path>
<g class="non-terminal">
<path d="M363 100h0"></path>
<path d="M502 100h486"></path>
<rect x="363" y="89" width="139" height="22"></rect>
<a xlink:href="#/cds/expression/CDSArithmetics"><text x="432.5" y="104">CDSArithmetics</text>
</a>
</g>
<path d="M988 100a10 10 0 0 0 10 -10v-40a10 10 0 0 1 10 -10"></path>
<path d="M343 40a10 10 0 0 1 10 10v70a10 10 0 0 0 10 10"></path>
<g class="non-terminal">
<path d="M363 130h0"></path>
<path d="M476.5 130h511.5"></path>
<rect x="363" y="119" width="113.5" height="22"></rect>
<a xlink:href="#/cds/expression/CDSFunction"><text x="419.75" y="134">CDSFunction</text>
</a>
</g>
<path d="M988 130a10 10 0 0 0 10 -10v-70a10 10 0 0 1 10 -10"></path>
<path d="M343 40a10 10 0 0 1 10 10v100a10 10 0 0 0 10 10"></path>
<g class="non-terminal">
<path d="M363 160h0"></path>
<path d="M442.5 160h545.5"></path>
<rect x="363" y="149" width="79.5" height="22"></rect>
<a xlink:href="#/cds/expression/CDSCast"><text x="402.75" y="164">CDSCast</text>
</a>
</g>
<path d="M988 160a10 10 0 0 0 10 -10v-100a10 10 0 0 1 10 -10"></path>
<path d="M343 40a10 10 0 0 1 10 10v130a10 10 0 0 0 10 10"></path>
<g class="non-terminal">
<path d="M363 190h0"></path>
<path d="M442.5 190h545.5"></path>
<rect x="363" y="179" width="79.5" height="22"></rect>
<a xlink:href="#/cds/expression/CDSCase"><text x="402.75" y="194">CDSCase</text>
</a>
</g>
<path d="M988 190a10 10 0 0 0 10 -10v-130a10 10 0 0 1 10 -10"></path>
<path d="M343 40a10 10 0 0 1 10 10v160a10 10 0 0 0 10 10"></path>
<g>
<path d="M363 220h0"></path>
<path d="M573.5 220h414.5"></path>
<g class="terminal">
<path d="M363 220h0"></path>
<path d="M408.5 220h0"></path>
<rect x="363" y="209" width="45.5" height="22" rx="10" ry="10"></rect>
<text x="385.75" y="224">"("</text>
</g>
<path d="M408.5 220h10"></path>
<path d="M418.5 220h10"></path>
<g class="non-terminal">
<path d="M428.5 220h0"></path>
<path d="M508 220h0"></path>
<rect x="428.5" y="209" width="79.5" height="22"></rect>
<a xlink:href="#/cds/expression/CDSCase"><text x="468.25" y="224">CDSCase</text>
</a>
</g>
<path d="M508 220h10"></path>
<path d="M518 220h10"></path>
<g class="terminal">
<path d="M528 220h0"></path>
<path d="M573.5 220h0"></path>
<rect x="528" y="209" width="45.5" height="22" rx="10" ry="10"></rect>
<text x="550.75" y="224">")"</text>
</g>
</g>
<path d="M988 220a10 10 0 0 0 10 -10v-160a10 10 0 0 1 10 -10"></path>
<path d="M343 40a10 10 0 0 1 10 10v199a10 10 0 0 0 10 10"></path>
<g>
<path d="M363 259h0"></path>
<path d="M988 259h0"></path>
<g class="non-terminal">
<path d="M363 259h0"></path>
<path d="M442.5 259h0"></path>
<rect x="363" y="248" width="79.5" height="22"></rect>
<a xlink:href="#/cds/expression/CDSName"><text x="402.75" y="263">CDSName</text>
</a>
</g>
<path d="M442.5 259h10"></path>
<path d="M452.5 259h10"></path>
<g class="terminal">
<path d="M462.5 259h0"></path>
<path d="M627 259h0"></path>
<rect x="462.5" y="248" width="164.5" height="22" rx="10" ry="10"></rect>
<text x="544.75" y="263">": REDIRECTED TO"</text>
</g>
<path d="M627 259h10"></path>
<g>
<path d="M637 259h0"></path>
<path d="M898.5 259h0"></path>
<path d="M637 259a10 10 0 0 0 10 -10v0a10 10 0 0 1 10 -10"></path>
<g>
<path d="M657 239h221.5"></path>
</g>
<path d="M878.5 239a10 10 0 0 1 10 10v0a10 10 0 0 0 10 10"></path>
<path d="M637 259h20"></path>
<g>
<path d="M657 259h0"></path>
<path d="M878.5 259h0"></path>
<path d="M657 259h20"></path>
<g class="terminal">
<path d="M677 259h0"></path>
<path d="M765 259h93.5"></path>
<rect x="677" y="248" width="88" height="22" rx="10" ry="10"></rect>
<text x="721" y="263">"PARENT"</text>
</g>
<path d="M858.5 259h20"></path>
<path d="M657 259a10 10 0 0 1 10 10v10a10 10 0 0 0 10 10"></path>
<g class="terminal">
<path d="M677 289h0"></path>
<path d="M858.5 289h0"></path>
<rect x="677" y="278" width="181.5" height="22" rx="10" ry="10"></rect>
<text x="767.75" y="293">"COMPOSITION CHILD"</text>
</g>
<path d="M858.5 289a10 10 0 0 0 10 -10v-10a10 10 0 0 1 10 -10"></path>
</g>
<path d="M878.5 259h20"></path>
</g>
<path d="M898.5 259h10"></path>
<g class="non-terminal">
<path d="M908.5 259h0"></path>
<path d="M988 259h0"></path>
<rect x="908.5" y="248" width="79.5" height="22"></rect>
<a xlink:href="#/cds/expression/CDSName"><text x="948.25" y="263">CDSName</text>
</a>
</g>
</g>
<path d="M988 259a10 10 0 0 0 10 -10v-199a10 10 0 0 1 10 -10"></path>
<path d="M343 40a10 10 0 0 1 10 10v259a10 10 0 0 0 10 10"></path>
<g class="non-terminal">
<path d="M363 319h0"></path>
<path d="M510.5 319h477.5"></path>
<rect x="363" y="308" width="147.5" height="22"></rect>
<a xlink:href="#/cds/expression/CDSPrefixedName"><text x="436.75" y="323">CDSPrefixedName</text>
</a>
</g>
<path d="M988 319a10 10 0 0 0 10 -10v-259a10 10 0 0 1 10 -10"></path>
<path d="M343 40a10 10 0 0 1 10 10v289a10 10 0 0 0 10 10"></path>
<g class="non-terminal">
<path d="M363 349h0"></path>
<path d="M468 349h520"></path>
<rect x="363" y="338" width="105" height="22"></rect>
<a xlink:href="#/cds/expression/CDSInteger"><text x="415.5" y="353">CDSInteger</text>
</a>
</g>
<path d="M988 349a10 10 0 0 0 10 -10v-289a10 10 0 0 1 10 -10"></path>
</g>
<g>
<path d="M1008 40h0"></path>
<path d="M1110.5 40h0"></path>
<path d="M1008 40a10 10 0 0 0 10 -10v0a10 10 0 0 1 10 -10"></path>
<g>
<path d="M1028 20h62.5"></path>
</g>
<path d="M1090.5 20a10 10 0 0 1 10 10v0a10 10 0 0 0 10 10"></path>
<path d="M1008 40h20"></path>
<g class="non-terminal">
<path d="M1028 40h0"></path>
<path d="M1090.5 40h0"></path>
<rect x="1028" y="29" width="62.5" height="22"></rect>
<a xlink:href="#/cds/expression/CDSAs"><text x="1059.25" y="44">CDSAs</text>
</a>
</g>
<path d="M1090.5 40h20"></path>
</g>
</g>
<path d="M1110.5 40h10"></path>
<path d="M 1120.5 40 h 20 m 0 -10 v 20"></path>
</g>
</svg>
