<svg xmlns="http://www.w3.org/2000/svg" xmlns:xlink="http://www.w3.org/1999/xlink" class="railroad-diagram" width="881" height="209" viewBox="0 0 881 209">
<defs>
<style type="text/css"><![CDATA[
path {
stroke-width: 3;
stroke: black;
fill: rgba(0,0,0,0);
}
text {
font: bold 14px monospace;
text-anchor: middle;
}
text.diagram-text {
font-size: 12px;
}
a {
fill: blue;
}
text.diagram-arrow {
font-size: 16px;
}
text.label {
text-anchor: start;
}
text.comment {
font: italic 12px monospace;
}
rect {
stroke-width: 3;
stroke: black;
fill: #BCBCBC;
}
path.diagram-text {
stroke-width: 3;
stroke: black;
fill: #BCBCBC;
cursor: help;
}
]]></style>
</defs>
<g transform="translate(.5 .5)">
<g>
<path d="M20 30v20m0 -10h20"></path>
</g>
<g>
<path d="M40 40h0"></path>
<path d="M841 40h0"></path>
<path d="M40 40h20"></path>
<g>
<path d="M60 40h0"></path>
<path d="M821 40h0"></path>
<g class="terminal">
<path d="M60 40h0"></path>
<path d="M105.5 40h0"></path>
<rect x="60" y="29" width="45.5" height="22" rx="10" ry="10"></rect>
<text x="82.75" y="44">"("</text>
</g>
<path d="M105.5 40h10"></path>
<g>
<path d="M115.5 40h0"></path>
<path d="M626 40h0"></path>
<path d="M115.5 40h20"></path>
<g class="non-terminal">
<path d="M135.5 40h0"></path>
<path d="M232 40h374"></path>
<rect x="135.5" y="29" width="96.5" height="22"></rect>
<a xlink:href="#/cds/expression/CDSSource"><text x="183.75" y="44">CDSSource</text>
</a>
</g>
<path d="M606 40h20"></path>
<path d="M115.5 40a10 10 0 0 1 10 10v19a10 10 0 0 0 10 10"></path>
<g>
<path d="M135.5 79h0"></path>
<path d="M606 79h0"></path>
<g class="non-terminal">
<path d="M135.5 79h0"></path>
<path d="M215 79h0"></path>
<rect x="135.5" y="68" width="79.5" height="22"></rect>
<a xlink:href="#/cds/expression/CDSName"><text x="175.25" y="83">CDSName</text>
</a>
</g>
<path d="M215 79h10"></path>
<g>
<path d="M225 79h0"></path>
<path d="M446.5 79h0"></path>
<path d="M225 79a10 10 0 0 0 10 -10v0a10 10 0 0 1 10 -10"></path>
<g>
<path d="M245 59h181.5"></path>
</g>
<path d="M426.5 59a10 10 0 0 1 10 10v0a10 10 0 0 0 10 10"></path>
<path d="M225 79h20"></path>
<g class="non-terminal">
<path d="M245 79h0"></path>
<path d="M426.5 79h0"></path>
<rect x="245" y="68" width="181.5" height="22"></rect>
<a xlink:href="#/cds/expression/CDSParametersSelect"><text x="335.75" y="83">CDSParametersSelect</text>
</a>
</g>
<path d="M426.5 79h20"></path>
</g>
<g>
<path d="M446.5 79h0"></path>
<path d="M606 79h0"></path>
<path d="M446.5 79a10 10 0 0 0 10 -10v0a10 10 0 0 1 10 -10"></path>
<g>
<path d="M466.5 59h119.5"></path>
</g>
<path d="M586 59a10 10 0 0 1 10 10v0a10 10 0 0 0 10 10"></path>
<path d="M446.5 79h20"></path>
<g>
<path d="M466.5 79h0"></path>
<path d="M586 79h0"></path>
<path d="M466.5 79h20"></path>
<g class="non-terminal">
<path d="M486.5 79h0"></path>
<path d="M549 79h17"></path>
<rect x="486.5" y="68" width="62.5" height="22"></rect>
<a xlink:href="#/cds/expression/CDSAs"><text x="517.75" y="83">CDSAs</text>
</a>
</g>
<path d="M566 79h20"></path>
<path d="M466.5 79a10 10 0 0 1 10 10v10a10 10 0 0 0 10 10"></path>
<g class="non-terminal">
<path d="M486.5 109h0"></path>
<path d="M566 109h0"></path>
<rect x="486.5" y="98" width="79.5" height="22"></rect>
<a xlink:href="#/cds/expression/CDSName"><text x="526.25" y="113">CDSName</text>
</a>
</g>
<path d="M566 109a10 10 0 0 0 10 -10v-10a10 10 0 0 1 10 -10"></path>
</g>
<path d="M586 79h20"></path>
</g>
</g>
<path d="M606 79a10 10 0 0 0 10 -10v-19a10 10 0 0 1 10 -10"></path>
</g>
<g>
<path d="M626 40h0"></path>
<path d="M765.5 40h0"></path>
<path d="M626 40a10 10 0 0 0 10 -10v0a10 10 0 0 1 10 -10"></path>
<g>
<path d="M646 20h99.5"></path>
</g>
<path d="M745.5 20a10 10 0 0 1 10 10v0a10 10 0 0 0 10 10"></path>
<path d="M626 40h20"></path>
<g>
<path d="M646 40h0"></path>
<path d="M745.5 40h0"></path>
<path d="M646 40h10"></path>
<g class="non-terminal">
<path d="M656 40h0"></path>
<path d="M735.5 40h0"></path>
<rect x="656" y="29" width="79.5" height="22"></rect>
<a xlink:href="#/cds/expression/CDSJoin"><text x="695.75" y="44">CDSJoin</text>
</a>
</g>
<path d="M735.5 40h10"></path>
<path d="M656 40a10 10 0 0 0 -10 10v0a10 10 0 0 0 10 10"></path>
<g>
<path d="M656 60h79.5"></path>
</g>
<path d="M735.5 60a10 10 0 0 0 10 -10v0a10 10 0 0 0 -10 -10"></path>
</g>
<path d="M745.5 40h20"></path>
</g>
<path d="M765.5 40h10"></path>
<g class="terminal">
<path d="M775.5 40h0"></path>
<path d="M821 40h0"></path>
<rect x="775.5" y="29" width="45.5" height="22" rx="10" ry="10"></rect>
<text x="798.25" y="44">")"</text>
</g>
</g>
<path d="M821 40h20"></path>
<path d="M40 40a10 10 0 0 1 10 10v88a10 10 0 0 0 10 10"></path>
<g>
<path d="M60 148h0"></path>
<path d="M530.5 148h290.5"></path>
<g class="non-terminal">
<path d="M60 148h0"></path>
<path d="M139.5 148h0"></path>
<rect x="60" y="137" width="79.5" height="22"></rect>
<a xlink:href="#/cds/expression/CDSName"><text x="99.75" y="152">CDSName</text>
</a>
</g>
<path d="M139.5 148h10"></path>
<g>
<path d="M149.5 148h0"></path>
<path d="M371 148h0"></path>
<path d="M149.5 148a10 10 0 0 0 10 -10v0a10 10 0 0 1 10 -10"></path>
<g>
<path d="M169.5 128h181.5"></path>
</g>
<path d="M351 128a10 10 0 0 1 10 10v0a10 10 0 0 0 10 10"></path>
<path d="M149.5 148h20"></path>
<g class="non-terminal">
<path d="M169.5 148h0"></path>
<path d="M351 148h0"></path>
<rect x="169.5" y="137" width="181.5" height="22"></rect>
<a xlink:href="#/cds/expression/CDSParametersSelect"><text x="260.25" y="152">CDSParametersSelect</text>
</a>
</g>
<path d="M351 148h20"></path>
</g>
<g>
<path d="M371 148h0"></path>
<path d="M530.5 148h0"></path>
<path d="M371 148a10 10 0 0 0 10 -10v0a10 10 0 0 1 10 -10"></path>
<g>
<path d="M391 128h119.5"></path>
</g>
<path d="M510.5 128a10 10 0 0 1 10 10v0a10 10 0 0 0 10 10"></path>
<path d="M371 148h20"></path>
<g>
<path d="M391 148h0"></path>
<path d="M510.5 148h0"></path>
<path d="M391 148h20"></path>
<g class="non-terminal">
<path d="M411 148h0"></path>
<path d="M473.5 148h17"></path>
<rect x="411" y="137" width="62.5" height="22"></rect>
<a xlink:href="#/cds/expression/CDSAs"><text x="442.25" y="152">CDSAs</text>
</a>
</g>
<path d="M490.5 148h20"></path>
<path d="M391 148a10 10 0 0 1 10 10v10a10 10 0 0 0 10 10"></path>
<g class="non-terminal">
<path d="M411 178h0"></path>
<path d="M490.5 178h0"></path>
<rect x="411" y="167" width="79.5" height="22"></rect>
<a xlink:href="#/cds/expression/CDSName"><text x="450.75" y="182">CDSName</text>
</a>
</g>
<path d="M490.5 178a10 10 0 0 0 10 -10v-10a10 10 0 0 1 10 -10"></path>
</g>
<path d="M510.5 148h20"></path>
</g>
</g>
<path d="M821 148a10 10 0 0 0 10 -10v-88a10 10 0 0 1 10 -10"></path>
</g>
<path d="M 841 40 h 20 m 0 -10 v 20"></path>
</g>
</svg>
