<svg xmlns="http://www.w3.org/2000/svg" xmlns:xlink="http://www.w3.org/1999/xlink" class="railroad-diagram" width="2250.5" height="456" viewBox="0 0 2250.5 456">
<defs>
<style type="text/css"><![CDATA[
path {
stroke-width: 3;
stroke: black;
fill: rgba(0,0,0,0);
}
text {
font: bold 14px monospace;
text-anchor: middle;
}
text.diagram-text {
font-size: 12px;
}
a {
fill: blue;
}
text.diagram-arrow {
font-size: 16px;
}
text.label {
text-anchor: start;
}
text.comment {
font: italic 12px monospace;
}
rect {
stroke-width: 3;
stroke: black;
fill: #BCBCBC;
}
path.diagram-text {
stroke-width: 3;
stroke: black;
fill: #BCBCBC;
cursor: help;
}
]]></style>
</defs>
<g transform="translate(.5 .5)">
<g>
<path d="M20 38v20m0 -10h20"></path>
</g>
<path d="M40 48h10"></path>
<g>
<path d="M50 48h0"></path>
<path d="M2200.5 48h0"></path>
<g>
<path d="M50 48h0"></path>
<path d="M1044 48h0"></path>
<path d="M50 48h20"></path>
<g>
<path d="M70 48h0"></path>
<path d="M1024 48h0"></path>
<path d="M70 48h20"></path>
<g>
<path d="M90 48h0"></path>
<path d="M1004 48h0"></path>
<g>
<path d="M90 48h0"></path>
<path d="M451.5 48h0"></path>
<path d="M90 48h20"></path>
<g>
<path d="M110 48h0"></path>
<path d="M431.5 48h0"></path>
<g class="non-terminal">
<path d="M110 48h0"></path>
<path d="M189.5 48h0"></path>
<rect x="110" y="37" width="79.5" height="22"></rect>
<a xlink:href="#/cds/expression/CDSName"><text x="149.75" y="52">CDSName</text>
</a>
</g>
<path d="M189.5 48h10"></path>
<g>
<path d="M199.5 48h0"></path>
<path d="M431.5 48h0"></path>
<path d="M199.5 48a10 10 0 0 0 10 -10v0a10 10 0 0 1 10 -10"></path>
<g>
<path d="M219.5 28h192"></path>
</g>
<path d="M411.5 28a10 10 0 0 1 10 10v0a10 10 0 0 0 10 10"></path>
<path d="M199.5 48h20"></path>
<g>
<path d="M219.5 48h0"></path>
<path d="M411.5 48h0"></path>
<g class="terminal">
<path d="M219.5 48h0"></path>
<path d="M265 48h0"></path>
<rect x="219.5" y="37" width="45.5" height="22" rx="10" ry="10"></rect>
<text x="242.25" y="52">"."</text>
</g>
<path d="M265 48h10"></path>
<g>
<path d="M275 48h0"></path>
<path d="M411.5 48h0"></path>
<path d="M275 48h20"></path>
<g class="non-terminal">
<path d="M295 48h0"></path>
<path d="M374.5 48h17"></path>
<rect x="295" y="37" width="79.5" height="22"></rect>
<a xlink:href="#/cds/expression/CDSName"><text x="334.75" y="52">CDSName</text>
</a>
</g>
<path d="M391.5 48h20"></path>
<path d="M275 48a10 10 0 0 1 10 10v10a10 10 0 0 0 10 10"></path>
<g class="non-terminal">
<path d="M295 78h0"></path>
<path d="M391.5 78h0"></path>
<rect x="295" y="67" width="96.5" height="22"></rect>
<a xlink:href="#/cds/expression/CDSString"><text x="343.25" y="82">CDSString</text>
</a>
</g>
<path d="M391.5 78a10 10 0 0 0 10 -10v-10a10 10 0 0 1 10 -10"></path>
</g>
</g>
<path d="M411.5 48h20"></path>
</g>
</g>
<path d="M431.5 48h20"></path>
<path d="M90 48a10 10 0 0 1 10 10v40a10 10 0 0 0 10 10"></path>
<g class="non-terminal">
<path d="M110 108h0"></path>
<path d="M223.5 108h208"></path>
<rect x="110" y="97" width="113.5" height="22"></rect>
<a xlink:href="#/cds/expression/CDSFunction"><text x="166.75" y="112">CDSFunction</text>
</a>
</g>
<path d="M431.5 108a10 10 0 0 0 10 -10v-40a10 10 0 0 1 10 -10"></path>
</g>
<g>
<path d="M451.5 48h0"></path>
<path d="M602.5 48h0"></path>
<path d="M451.5 48h20"></path>
<g class="terminal">
<path d="M471.5 48h0"></path>
<path d="M517 48h65.5"></path>
<rect x="471.5" y="37" width="45.5" height="22" rx="10" ry="10"></rect>
<text x="494.25" y="52">"="</text>
</g>
<path d="M582.5 48h20"></path>
<path d="M451.5 48a10 10 0 0 1 10 10v10a10 10 0 0 0 10 10"></path>
<g>
<path d="M471.5 78h0"></path>
<path d="M582.5 78h0"></path>
<g class="terminal">
<path d="M471.5 78h0"></path>
<path d="M517 78h0"></path>
<rect x="471.5" y="67" width="45.5" height="22" rx="10" ry="10"></rect>
<text x="494.25" y="82">"!"</text>
</g>
<path d="M517 78h10"></path>
<path d="M527 78h10"></path>
<g class="terminal">
<path d="M537 78h0"></path>
<path d="M582.5 78h0"></path>
<rect x="537" y="67" width="45.5" height="22" rx="10" ry="10"></rect>
<text x="559.75" y="82">"="</text>
</g>
</g>
<path d="M582.5 78a10 10 0 0 0 10 -10v-10a10 10 0 0 1 10 -10"></path>
<path d="M451.5 48a10 10 0 0 1 10 10v40a10 10 0 0 0 10 10"></path>
<g>
<path d="M471.5 108h0"></path>
<path d="M582.5 108h0"></path>
<g class="terminal">
<path d="M471.5 108h0"></path>
<path d="M517 108h0"></path>
<rect x="471.5" y="97" width="45.5" height="22" rx="10" ry="10"></rect>
<text x="494.25" y="112">"&#60;"</text>
</g>
<path d="M517 108h10"></path>
<path d="M527 108h10"></path>
<g class="terminal">
<path d="M537 108h0"></path>
<path d="M582.5 108h0"></path>
<rect x="537" y="97" width="45.5" height="22" rx="10" ry="10"></rect>
<text x="559.75" y="112">">"</text>
</g>
</g>
<path d="M582.5 108a10 10 0 0 0 10 -10v-40a10 10 0 0 1 10 -10"></path>
<path d="M451.5 48a10 10 0 0 1 10 10v70a10 10 0 0 0 10 10"></path>
<g class="terminal">
<path d="M471.5 138h0"></path>
<path d="M517 138h65.5"></path>
<rect x="471.5" y="127" width="45.5" height="22" rx="10" ry="10"></rect>
<text x="494.25" y="142">"&#60;"</text>
</g>
<path d="M582.5 138a10 10 0 0 0 10 -10v-70a10 10 0 0 1 10 -10"></path>
<path d="M451.5 48a10 10 0 0 1 10 10v100a10 10 0 0 0 10 10"></path>
<g class="terminal">
<path d="M471.5 168h0"></path>
<path d="M517 168h65.5"></path>
<rect x="471.5" y="157" width="45.5" height="22" rx="10" ry="10"></rect>
<text x="494.25" y="172">">"</text>
</g>
<path d="M582.5 168a10 10 0 0 0 10 -10v-100a10 10 0 0 1 10 -10"></path>
<path d="M451.5 48a10 10 0 0 1 10 10v130a10 10 0 0 0 10 10"></path>
<g>
<path d="M471.5 198h0"></path>
<path d="M582.5 198h0"></path>
<g class="terminal">
<path d="M471.5 198h0"></path>
<path d="M517 198h0"></path>
<rect x="471.5" y="187" width="45.5" height="22" rx="10" ry="10"></rect>
<text x="494.25" y="202">">"</text>
</g>
<path d="M517 198h10"></path>
<path d="M527 198h10"></path>
<g class="terminal">
<path d="M537 198h0"></path>
<path d="M582.5 198h0"></path>
<rect x="537" y="187" width="45.5" height="22" rx="10" ry="10"></rect>
<text x="559.75" y="202">"="</text>
</g>
</g>
<path d="M582.5 198a10 10 0 0 0 10 -10v-130a10 10 0 0 1 10 -10"></path>
<path d="M451.5 48a10 10 0 0 1 10 10v160a10 10 0 0 0 10 10"></path>
<g>
<path d="M471.5 228h0"></path>
<path d="M582.5 228h0"></path>
<g class="terminal">
<path d="M471.5 228h0"></path>
<path d="M517 228h0"></path>
<rect x="471.5" y="217" width="45.5" height="22" rx="10" ry="10"></rect>
<text x="494.25" y="232">"&#60;"</text>
</g>
<path d="M517 228h10"></path>
<path d="M527 228h10"></path>
<g class="terminal">
<path d="M537 228h0"></path>
<path d="M582.5 228h0"></path>
<rect x="537" y="217" width="45.5" height="22" rx="10" ry="10"></rect>
<text x="559.75" y="232">"="</text>
</g>
</g>
<path d="M582.5 228a10 10 0 0 0 10 -10v-160a10 10 0 0 1 10 -10"></path>
<path d="M451.5 48a10 10 0 0 1 10 10v190a10 10 0 0 0 10 10"></path>
<g class="terminal">
<path d="M471.5 258h0"></path>
<path d="M542.5 258h40"></path>
<rect x="471.5" y="247" width="71" height="22" rx="10" ry="10"></rect>
<text x="507" y="262">"LIKE"</text>
</g>
<path d="M582.5 258a10 10 0 0 0 10 -10v-190a10 10 0 0 1 10 -10"></path>
<path d="M451.5 48a10 10 0 0 1 10 10v220a10 10 0 0 0 10 10"></path>
<g class="terminal">
<path d="M471.5 288h0"></path>
<path d="M576.5 288h6"></path>
<rect x="471.5" y="277" width="105" height="22" rx="10" ry="10"></rect>
<text x="524" y="292">"NOT LIKE"</text>
</g>
<path d="M582.5 288a10 10 0 0 0 10 -10v-220a10 10 0 0 1 10 -10"></path>
</g>
<g>
<path d="M602.5 48h0"></path>
<path d="M1004 48h0"></path>
<path d="M602.5 48h20"></path>
<g>
<path d="M622.5 48h0"></path>
<path d="M984 48h0"></path>
<path d="M622.5 48h20"></path>
<g>
<path d="M642.5 48h0"></path>
<path d="M964 48h0"></path>
<g class="non-terminal">
<path d="M642.5 48h0"></path>
<path d="M722 48h0"></path>
<rect x="642.5" y="37" width="79.5" height="22"></rect>
<a xlink:href="#/cds/expression/CDSName"><text x="682.25" y="52">CDSName</text>
</a>
</g>
<path d="M722 48h10"></path>
<g>
<path d="M732 48h0"></path>
<path d="M964 48h0"></path>
<path d="M732 48a10 10 0 0 0 10 -10v0a10 10 0 0 1 10 -10"></path>
<g>
<path d="M752 28h192"></path>
</g>
<path d="M944 28a10 10 0 0 1 10 10v0a10 10 0 0 0 10 10"></path>
<path d="M732 48h20"></path>
<g>
<path d="M752 48h0"></path>
<path d="M944 48h0"></path>
<g class="terminal">
<path d="M752 48h0"></path>
<path d="M797.5 48h0"></path>
<rect x="752" y="37" width="45.5" height="22" rx="10" ry="10"></rect>
<text x="774.75" y="52">"."</text>
</g>
<path d="M797.5 48h10"></path>
<g>
<path d="M807.5 48h0"></path>
<path d="M944 48h0"></path>
<path d="M807.5 48h20"></path>
<g class="non-terminal">
<path d="M827.5 48h0"></path>
<path d="M907 48h17"></path>
<rect x="827.5" y="37" width="79.5" height="22"></rect>
<a xlink:href="#/cds/expression/CDSName"><text x="867.25" y="52">CDSName</text>
</a>
</g>
<path d="M924 48h20"></path>
<path d="M807.5 48a10 10 0 0 1 10 10v10a10 10 0 0 0 10 10"></path>
<g class="non-terminal">
<path d="M827.5 78h0"></path>
<path d="M924 78h0"></path>
<rect x="827.5" y="67" width="96.5" height="22"></rect>
<a xlink:href="#/cds/expression/CDSString"><text x="875.75" y="82">CDSString</text>
</a>
</g>
<path d="M924 78a10 10 0 0 0 10 -10v-10a10 10 0 0 1 10 -10"></path>
</g>
</g>
<path d="M944 48h20"></path>
</g>
</g>
<path d="M964 48h20"></path>
<path d="M622.5 48a10 10 0 0 1 10 10v40a10 10 0 0 0 10 10"></path>
<g class="non-terminal">
<path d="M642.5 108h0"></path>
<path d="M756 108h208"></path>
<rect x="642.5" y="97" width="113.5" height="22"></rect>
<a xlink:href="#/cds/expression/CDSFunction"><text x="699.25" y="112">CDSFunction</text>
</a>
</g>
<path d="M964 108a10 10 0 0 0 10 -10v-40a10 10 0 0 1 10 -10"></path>
</g>
<path d="M984 48h20"></path>
<path d="M602.5 48a10 10 0 0 1 10 10v70a10 10 0 0 0 10 10"></path>
<g class="non-terminal">
<path d="M622.5 138h0"></path>
<path d="M727.5 138h256.5"></path>
<rect x="622.5" y="127" width="105" height="22"></rect>
<a xlink:href="#/cds/expression/CDSInteger"><text x="675" y="142">CDSInteger</text>
</a>
</g>
<path d="M984 138a10 10 0 0 0 10 -10v-70a10 10 0 0 1 10 -10"></path>
<path d="M602.5 48a10 10 0 0 1 10 10v100a10 10 0 0 0 10 10"></path>
<g class="non-terminal">
<path d="M622.5 168h0"></path>
<path d="M736 168h248"></path>
<rect x="622.5" y="157" width="113.5" height="22"></rect>
<a xlink:href="#/cds/expression/CDSFunction"><text x="679.25" y="172">CDSFunction</text>
</a>
</g>
<path d="M984 168a10 10 0 0 0 10 -10v-100a10 10 0 0 1 10 -10"></path>
<path d="M602.5 48a10 10 0 0 1 10 10v130a10 10 0 0 0 10 10"></path>
<g class="non-terminal">
<path d="M622.5 198h0"></path>
<path d="M719 198h265"></path>
<rect x="622.5" y="187" width="96.5" height="22"></rect>
<a xlink:href="#/cds/expression/CDSString"><text x="670.75" y="202">CDSString</text>
</a>
</g>
<path d="M984 198a10 10 0 0 0 10 -10v-130a10 10 0 0 1 10 -10"></path>
</g>
</g>
<path d="M1004 48h20"></path>
<path d="M70 48a10 10 0 0 1 10 10v259a10 10 0 0 0 10 10"></path>
<g>
<path d="M90 327h0"></path>
<path d="M764.5 327h239.5"></path>
<g>
<path d="M90 327h0"></path>
<path d="M451.5 327h0"></path>
<path d="M90 327h20"></path>
<g>
<path d="M110 327h0"></path>
<path d="M431.5 327h0"></path>
<g class="non-terminal">
<path d="M110 327h0"></path>
<path d="M189.5 327h0"></path>
<rect x="110" y="316" width="79.5" height="22"></rect>
<a xlink:href="#/cds/expression/CDSName"><text x="149.75" y="331">CDSName</text>
</a>
</g>
<path d="M189.5 327h10"></path>
<g>
<path d="M199.5 327h0"></path>
<path d="M431.5 327h0"></path>
<path d="M199.5 327a10 10 0 0 0 10 -10v0a10 10 0 0 1 10 -10"></path>
<g>
<path d="M219.5 307h192"></path>
</g>
<path d="M411.5 307a10 10 0 0 1 10 10v0a10 10 0 0 0 10 10"></path>
<path d="M199.5 327h20"></path>
<g>
<path d="M219.5 327h0"></path>
<path d="M411.5 327h0"></path>
<g class="terminal">
<path d="M219.5 327h0"></path>
<path d="M265 327h0"></path>
<rect x="219.5" y="316" width="45.5" height="22" rx="10" ry="10"></rect>
<text x="242.25" y="331">"."</text>
</g>
<path d="M265 327h10"></path>
<g>
<path d="M275 327h0"></path>
<path d="M411.5 327h0"></path>
<path d="M275 327h20"></path>
<g class="non-terminal">
<path d="M295 327h0"></path>
<path d="M374.5 327h17"></path>
<rect x="295" y="316" width="79.5" height="22"></rect>
<a xlink:href="#/cds/expression/CDSName"><text x="334.75" y="331">CDSName</text>
</a>
</g>
<path d="M391.5 327h20"></path>
<path d="M275 327a10 10 0 0 1 10 10v10a10 10 0 0 0 10 10"></path>
<g class="non-terminal">
<path d="M295 357h0"></path>
<path d="M391.5 357h0"></path>
<rect x="295" y="346" width="96.5" height="22"></rect>
<a xlink:href="#/cds/expression/CDSString"><text x="343.25" y="361">CDSString</text>
</a>
</g>
<path d="M391.5 357a10 10 0 0 0 10 -10v-10a10 10 0 0 1 10 -10"></path>
</g>
</g>
<path d="M411.5 327h20"></path>
</g>
</g>
<path d="M431.5 327h20"></path>
<path d="M90 327a10 10 0 0 1 10 10v40a10 10 0 0 0 10 10"></path>
<g class="non-terminal">
<path d="M110 387h0"></path>
<path d="M223.5 387h208"></path>
<rect x="110" y="376" width="113.5" height="22"></rect>
<a xlink:href="#/cds/expression/CDSFunction"><text x="166.75" y="391">CDSFunction</text>
</a>
</g>
<path d="M431.5 387a10 10 0 0 0 10 -10v-40a10 10 0 0 1 10 -10"></path>
</g>
<path d="M451.5 327h10"></path>
<g class="terminal">
<path d="M461.5 327h0"></path>
<path d="M515.5 327h0"></path>
<rect x="461.5" y="316" width="54" height="22" rx="10" ry="10"></rect>
<text x="488.5" y="331">"IS"</text>
</g>
<path d="M515.5 327h10"></path>
<g>
<path d="M525.5 327h0"></path>
<path d="M628 327h0"></path>
<path d="M525.5 327a10 10 0 0 0 10 -10v0a10 10 0 0 1 10 -10"></path>
<g>
<path d="M545.5 307h62.5"></path>
</g>
<path d="M608 307a10 10 0 0 1 10 10v0a10 10 0 0 0 10 10"></path>
<path d="M525.5 327h20"></path>
<g class="terminal">
<path d="M545.5 327h0"></path>
<path d="M608 327h0"></path>
<rect x="545.5" y="316" width="62.5" height="22" rx="10" ry="10"></rect>
<text x="576.75" y="331">"NOT"</text>
</g>
<path d="M608 327h20"></path>
</g>
<g>
<path d="M628 327h0"></path>
<path d="M764.5 327h0"></path>
<path d="M628 327h20"></path>
<g class="terminal">
<path d="M648 327h0"></path>
<path d="M744.5 327h0"></path>
<rect x="648" y="316" width="96.5" height="22" rx="10" ry="10"></rect>
<text x="696.25" y="331">"INITIAL"</text>
</g>
<path d="M744.5 327h20"></path>
<path d="M628 327a10 10 0 0 1 10 10v10a10 10 0 0 0 10 10"></path>
<g class="terminal">
<path d="M648 357h0"></path>
<path d="M719 357h25.5"></path>
<rect x="648" y="346" width="71" height="22" rx="10" ry="10"></rect>
<text x="683.5" y="361">"NULL"</text>
</g>
<path d="M744.5 357a10 10 0 0 0 10 -10v-10a10 10 0 0 1 10 -10"></path>
</g>
</g>
<path d="M1004 327a10 10 0 0 0 10 -10v-259a10 10 0 0 1 10 -10"></path>
</g>
<path d="M1024 48h20"></path>
<path d="M50 48a10 10 0 0 1 10 10v349a10 10 0 0 0 10 10"></path>
<g>
<path d="M70 417h0"></path>
<path d="M323 417h701"></path>
<g class="terminal">
<path d="M70 417h0"></path>
<path d="M115.5 417h0"></path>
<rect x="70" y="406" width="45.5" height="22" rx="10" ry="10"></rect>
<text x="92.75" y="421">"("</text>
</g>
<path d="M115.5 417h10"></path>
<path d="M125.5 417h10"></path>
<g class="non-terminal">
<path d="M135.5 417h0"></path>
<path d="M257.5 417h0"></path>
<rect x="135.5" y="406" width="122" height="22"></rect>
<a xlink:href="#/cds/expression/CDSCondition"><text x="196.5" y="421">CDSCondition</text>
</a>
</g>
<path d="M257.5 417h10"></path>
<path d="M267.5 417h10"></path>
<g class="terminal">
<path d="M277.5 417h0"></path>
<path d="M323 417h0"></path>
<rect x="277.5" y="406" width="45.5" height="22" rx="10" ry="10"></rect>
<text x="300.25" y="421">")"</text>
</g>
</g>
<path d="M1024 417a10 10 0 0 0 10 -10v-349a10 10 0 0 1 10 -10"></path>
</g>
<g>
<path d="M1044 48h0"></path>
<path d="M2200.5 48h0"></path>
<path d="M1044 48a10 10 0 0 0 10 -10v-8a10 10 0 0 1 10 -10"></path>
<g>
<path d="M1064 20h1116.5"></path>
</g>
<path d="M2180.5 20a10 10 0 0 1 10 10v8a10 10 0 0 0 10 10"></path>
<path d="M1044 48h20"></path>
<g>
<path d="M1064 48h0"></path>
<path d="M2180.5 48h0"></path>
<path d="M1064 48h10"></path>
<g>
<path d="M1074 48h0"></path>
<path d="M2170.5 48h0"></path>
<g>
<path d="M1074 48h0"></path>
<path d="M1176.5 48h0"></path>
<path d="M1074 48h20"></path>
<g class="terminal">
<path d="M1094 48h0"></path>
<path d="M1156.5 48h0"></path>
<rect x="1094" y="37" width="62.5" height="22" rx="10" ry="10"></rect>
<text x="1125.25" y="52">"AND"</text>
</g>
<path d="M1156.5 48h20"></path>
<path d="M1074 48a10 10 0 0 1 10 10v10a10 10 0 0 0 10 10"></path>
<g class="terminal">
<path d="M1094 78h0"></path>
<path d="M1148 78h8.5"></path>
<rect x="1094" y="67" width="54" height="22" rx="10" ry="10"></rect>
<text x="1121" y="82">"OR"</text>
</g>
<path d="M1156.5 78a10 10 0 0 0 10 -10v-10a10 10 0 0 1 10 -10"></path>
</g>
<g>
<path d="M1176.5 48h0"></path>
<path d="M2170.5 48h0"></path>
<path d="M1176.5 48h20"></path>
<g>
<path d="M1196.5 48h0"></path>
<path d="M2150.5 48h0"></path>
<path d="M1196.5 48h20"></path>
<g>
<path d="M1216.5 48h0"></path>
<path d="M2130.5 48h0"></path>
<g>
<path d="M1216.5 48h0"></path>
<path d="M1578 48h0"></path>
<path d="M1216.5 48h20"></path>
<g>
<path d="M1236.5 48h0"></path>
<path d="M1558 48h0"></path>
<g class="non-terminal">
<path d="M1236.5 48h0"></path>
<path d="M1316 48h0"></path>
<rect x="1236.5" y="37" width="79.5" height="22"></rect>
<a xlink:href="#/cds/expression/CDSName"><text x="1276.25" y="52">CDSName</text>
</a>
</g>
<path d="M1316 48h10"></path>
<g>
<path d="M1326 48h0"></path>
<path d="M1558 48h0"></path>
<path d="M1326 48a10 10 0 0 0 10 -10v0a10 10 0 0 1 10 -10"></path>
<g>
<path d="M1346 28h192"></path>
</g>
<path d="M1538 28a10 10 0 0 1 10 10v0a10 10 0 0 0 10 10"></path>
<path d="M1326 48h20"></path>
<g>
<path d="M1346 48h0"></path>
<path d="M1538 48h0"></path>
<g class="terminal">
<path d="M1346 48h0"></path>
<path d="M1391.5 48h0"></path>
<rect x="1346" y="37" width="45.5" height="22" rx="10" ry="10"></rect>
<text x="1368.75" y="52">"."</text>
</g>
<path d="M1391.5 48h10"></path>
<g>
<path d="M1401.5 48h0"></path>
<path d="M1538 48h0"></path>
<path d="M1401.5 48h20"></path>
<g class="non-terminal">
<path d="M1421.5 48h0"></path>
<path d="M1501 48h17"></path>
<rect x="1421.5" y="37" width="79.5" height="22"></rect>
<a xlink:href="#/cds/expression/CDSName"><text x="1461.25" y="52">CDSName</text>
</a>
</g>
<path d="M1518 48h20"></path>
<path d="M1401.5 48a10 10 0 0 1 10 10v10a10 10 0 0 0 10 10"></path>
<g class="non-terminal">
<path d="M1421.5 78h0"></path>
<path d="M1518 78h0"></path>
<rect x="1421.5" y="67" width="96.5" height="22"></rect>
<a xlink:href="#/cds/expression/CDSString"><text x="1469.75" y="82">CDSString</text>
</a>
</g>
<path d="M1518 78a10 10 0 0 0 10 -10v-10a10 10 0 0 1 10 -10"></path>
</g>
</g>
<path d="M1538 48h20"></path>
</g>
</g>
<path d="M1558 48h20"></path>
<path d="M1216.5 48a10 10 0 0 1 10 10v40a10 10 0 0 0 10 10"></path>
<g class="non-terminal">
<path d="M1236.5 108h0"></path>
<path d="M1350 108h208"></path>
<rect x="1236.5" y="97" width="113.5" height="22"></rect>
<a xlink:href="#/cds/expression/CDSFunction"><text x="1293.25" y="112">CDSFunction</text>
</a>
</g>
<path d="M1558 108a10 10 0 0 0 10 -10v-40a10 10 0 0 1 10 -10"></path>
</g>
<g>
<path d="M1578 48h0"></path>
<path d="M1729 48h0"></path>
<path d="M1578 48h20"></path>
<g class="terminal">
<path d="M1598 48h0"></path>
<path d="M1643.5 48h65.5"></path>
<rect x="1598" y="37" width="45.5" height="22" rx="10" ry="10"></rect>
<text x="1620.75" y="52">"="</text>
</g>
<path d="M1709 48h20"></path>
<path d="M1578 48a10 10 0 0 1 10 10v10a10 10 0 0 0 10 10"></path>
<g>
<path d="M1598 78h0"></path>
<path d="M1709 78h0"></path>
<g class="terminal">
<path d="M1598 78h0"></path>
<path d="M1643.5 78h0"></path>
<rect x="1598" y="67" width="45.5" height="22" rx="10" ry="10"></rect>
<text x="1620.75" y="82">"!"</text>
</g>
<path d="M1643.5 78h10"></path>
<path d="M1653.5 78h10"></path>
<g class="terminal">
<path d="M1663.5 78h0"></path>
<path d="M1709 78h0"></path>
<rect x="1663.5" y="67" width="45.5" height="22" rx="10" ry="10"></rect>
<text x="1686.25" y="82">"="</text>
</g>
</g>
<path d="M1709 78a10 10 0 0 0 10 -10v-10a10 10 0 0 1 10 -10"></path>
<path d="M1578 48a10 10 0 0 1 10 10v40a10 10 0 0 0 10 10"></path>
<g>
<path d="M1598 108h0"></path>
<path d="M1709 108h0"></path>
<g class="terminal">
<path d="M1598 108h0"></path>
<path d="M1643.5 108h0"></path>
<rect x="1598" y="97" width="45.5" height="22" rx="10" ry="10"></rect>
<text x="1620.75" y="112">"&#60;"</text>
</g>
<path d="M1643.5 108h10"></path>
<path d="M1653.5 108h10"></path>
<g class="terminal">
<path d="M1663.5 108h0"></path>
<path d="M1709 108h0"></path>
<rect x="1663.5" y="97" width="45.5" height="22" rx="10" ry="10"></rect>
<text x="1686.25" y="112">">"</text>
</g>
</g>
<path d="M1709 108a10 10 0 0 0 10 -10v-40a10 10 0 0 1 10 -10"></path>
<path d="M1578 48a10 10 0 0 1 10 10v70a10 10 0 0 0 10 10"></path>
<g class="terminal">
<path d="M1598 138h0"></path>
<path d="M1643.5 138h65.5"></path>
<rect x="1598" y="127" width="45.5" height="22" rx="10" ry="10"></rect>
<text x="1620.75" y="142">"&#60;"</text>
</g>
<path d="M1709 138a10 10 0 0 0 10 -10v-70a10 10 0 0 1 10 -10"></path>
<path d="M1578 48a10 10 0 0 1 10 10v100a10 10 0 0 0 10 10"></path>
<g class="terminal">
<path d="M1598 168h0"></path>
<path d="M1643.5 168h65.5"></path>
<rect x="1598" y="157" width="45.5" height="22" rx="10" ry="10"></rect>
<text x="1620.75" y="172">">"</text>
</g>
<path d="M1709 168a10 10 0 0 0 10 -10v-100a10 10 0 0 1 10 -10"></path>
<path d="M1578 48a10 10 0 0 1 10 10v130a10 10 0 0 0 10 10"></path>
<g>
<path d="M1598 198h0"></path>
<path d="M1709 198h0"></path>
<g class="terminal">
<path d="M1598 198h0"></path>
<path d="M1643.5 198h0"></path>
<rect x="1598" y="187" width="45.5" height="22" rx="10" ry="10"></rect>
<text x="1620.75" y="202">">"</text>
</g>
<path d="M1643.5 198h10"></path>
<path d="M1653.5 198h10"></path>
<g class="terminal">
<path d="M1663.5 198h0"></path>
<path d="M1709 198h0"></path>
<rect x="1663.5" y="187" width="45.5" height="22" rx="10" ry="10"></rect>
<text x="1686.25" y="202">"="</text>
</g>
</g>
<path d="M1709 198a10 10 0 0 0 10 -10v-130a10 10 0 0 1 10 -10"></path>
<path d="M1578 48a10 10 0 0 1 10 10v160a10 10 0 0 0 10 10"></path>
<g>
<path d="M1598 228h0"></path>
<path d="M1709 228h0"></path>
<g class="terminal">
<path d="M1598 228h0"></path>
<path d="M1643.5 228h0"></path>
<rect x="1598" y="217" width="45.5" height="22" rx="10" ry="10"></rect>
<text x="1620.75" y="232">"&#60;"</text>
</g>
<path d="M1643.5 228h10"></path>
<path d="M1653.5 228h10"></path>
<g class="terminal">
<path d="M1663.5 228h0"></path>
<path d="M1709 228h0"></path>
<rect x="1663.5" y="217" width="45.5" height="22" rx="10" ry="10"></rect>
<text x="1686.25" y="232">"="</text>
</g>
</g>
<path d="M1709 228a10 10 0 0 0 10 -10v-160a10 10 0 0 1 10 -10"></path>
<path d="M1578 48a10 10 0 0 1 10 10v190a10 10 0 0 0 10 10"></path>
<g class="terminal">
<path d="M1598 258h0"></path>
<path d="M1669 258h40"></path>
<rect x="1598" y="247" width="71" height="22" rx="10" ry="10"></rect>
<text x="1633.5" y="262">"LIKE"</text>
</g>
<path d="M1709 258a10 10 0 0 0 10 -10v-190a10 10 0 0 1 10 -10"></path>
<path d="M1578 48a10 10 0 0 1 10 10v220a10 10 0 0 0 10 10"></path>
<g class="terminal">
<path d="M1598 288h0"></path>
<path d="M1703 288h6"></path>
<rect x="1598" y="277" width="105" height="22" rx="10" ry="10"></rect>
<text x="1650.5" y="292">"NOT LIKE"</text>
</g>
<path d="M1709 288a10 10 0 0 0 10 -10v-220a10 10 0 0 1 10 -10"></path>
</g>
<g>
<path d="M1729 48h0"></path>
<path d="M2130.5 48h0"></path>
<path d="M1729 48h20"></path>
<g>
<path d="M1749 48h0"></path>
<path d="M2110.5 48h0"></path>
<path d="M1749 48h20"></path>
<g>
<path d="M1769 48h0"></path>
<path d="M2090.5 48h0"></path>
<g class="non-terminal">
<path d="M1769 48h0"></path>
<path d="M1848.5 48h0"></path>
<rect x="1769" y="37" width="79.5" height="22"></rect>
<a xlink:href="#/cds/expression/CDSName"><text x="1808.75" y="52">CDSName</text>
</a>
</g>
<path d="M1848.5 48h10"></path>
<g>
<path d="M1858.5 48h0"></path>
<path d="M2090.5 48h0"></path>
<path d="M1858.5 48a10 10 0 0 0 10 -10v0a10 10 0 0 1 10 -10"></path>
<g>
<path d="M1878.5 28h192"></path>
</g>
<path d="M2070.5 28a10 10 0 0 1 10 10v0a10 10 0 0 0 10 10"></path>
<path d="M1858.5 48h20"></path>
<g>
<path d="M1878.5 48h0"></path>
<path d="M2070.5 48h0"></path>
<g class="terminal">
<path d="M1878.5 48h0"></path>
<path d="M1924 48h0"></path>
<rect x="1878.5" y="37" width="45.5" height="22" rx="10" ry="10"></rect>
<text x="1901.25" y="52">"."</text>
</g>
<path d="M1924 48h10"></path>
<g>
<path d="M1934 48h0"></path>
<path d="M2070.5 48h0"></path>
<path d="M1934 48h20"></path>
<g class="non-terminal">
<path d="M1954 48h0"></path>
<path d="M2033.5 48h17"></path>
<rect x="1954" y="37" width="79.5" height="22"></rect>
<a xlink:href="#/cds/expression/CDSName"><text x="1993.75" y="52">CDSName</text>
</a>
</g>
<path d="M2050.5 48h20"></path>
<path d="M1934 48a10 10 0 0 1 10 10v10a10 10 0 0 0 10 10"></path>
<g class="non-terminal">
<path d="M1954 78h0"></path>
<path d="M2050.5 78h0"></path>
<rect x="1954" y="67" width="96.5" height="22"></rect>
<a xlink:href="#/cds/expression/CDSString"><text x="2002.25" y="82">CDSString</text>
</a>
</g>
<path d="M2050.5 78a10 10 0 0 0 10 -10v-10a10 10 0 0 1 10 -10"></path>
</g>
</g>
<path d="M2070.5 48h20"></path>
</g>
</g>
<path d="M2090.5 48h20"></path>
<path d="M1749 48a10 10 0 0 1 10 10v40a10 10 0 0 0 10 10"></path>
<g class="non-terminal">
<path d="M1769 108h0"></path>
<path d="M1882.5 108h208"></path>
<rect x="1769" y="97" width="113.5" height="22"></rect>
<a xlink:href="#/cds/expression/CDSFunction"><text x="1825.75" y="112">CDSFunction</text>
</a>
</g>
<path d="M2090.5 108a10 10 0 0 0 10 -10v-40a10 10 0 0 1 10 -10"></path>
</g>
<path d="M2110.5 48h20"></path>
<path d="M1729 48a10 10 0 0 1 10 10v70a10 10 0 0 0 10 10"></path>
<g class="non-terminal">
<path d="M1749 138h0"></path>
<path d="M1854 138h256.5"></path>
<rect x="1749" y="127" width="105" height="22"></rect>
<a xlink:href="#/cds/expression/CDSInteger"><text x="1801.5" y="142">CDSInteger</text>
</a>
</g>
<path d="M2110.5 138a10 10 0 0 0 10 -10v-70a10 10 0 0 1 10 -10"></path>
<path d="M1729 48a10 10 0 0 1 10 10v100a10 10 0 0 0 10 10"></path>
<g class="non-terminal">
<path d="M1749 168h0"></path>
<path d="M1862.5 168h248"></path>
<rect x="1749" y="157" width="113.5" height="22"></rect>
<a xlink:href="#/cds/expression/CDSFunction"><text x="1805.75" y="172">CDSFunction</text>
</a>
</g>
<path d="M2110.5 168a10 10 0 0 0 10 -10v-100a10 10 0 0 1 10 -10"></path>
<path d="M1729 48a10 10 0 0 1 10 10v130a10 10 0 0 0 10 10"></path>
<g class="non-terminal">
<path d="M1749 198h0"></path>
<path d="M1845.5 198h265"></path>
<rect x="1749" y="187" width="96.5" height="22"></rect>
<a xlink:href="#/cds/expression/CDSString"><text x="1797.25" y="202">CDSString</text>
</a>
</g>
<path d="M2110.5 198a10 10 0 0 0 10 -10v-130a10 10 0 0 1 10 -10"></path>
</g>
</g>
<path d="M2130.5 48h20"></path>
<path d="M1196.5 48a10 10 0 0 1 10 10v259a10 10 0 0 0 10 10"></path>
<g>
<path d="M1216.5 327h0"></path>
<path d="M1891 327h239.5"></path>
<g>
<path d="M1216.5 327h0"></path>
<path d="M1578 327h0"></path>
<path d="M1216.5 327h20"></path>
<g>
<path d="M1236.5 327h0"></path>
<path d="M1558 327h0"></path>
<g class="non-terminal">
<path d="M1236.5 327h0"></path>
<path d="M1316 327h0"></path>
<rect x="1236.5" y="316" width="79.5" height="22"></rect>
<a xlink:href="#/cds/expression/CDSName"><text x="1276.25" y="331">CDSName</text>
</a>
</g>
<path d="M1316 327h10"></path>
<g>
<path d="M1326 327h0"></path>
<path d="M1558 327h0"></path>
<path d="M1326 327a10 10 0 0 0 10 -10v0a10 10 0 0 1 10 -10"></path>
<g>
<path d="M1346 307h192"></path>
</g>
<path d="M1538 307a10 10 0 0 1 10 10v0a10 10 0 0 0 10 10"></path>
<path d="M1326 327h20"></path>
<g>
<path d="M1346 327h0"></path>
<path d="M1538 327h0"></path>
<g class="terminal">
<path d="M1346 327h0"></path>
<path d="M1391.5 327h0"></path>
<rect x="1346" y="316" width="45.5" height="22" rx="10" ry="10"></rect>
<text x="1368.75" y="331">"."</text>
</g>
<path d="M1391.5 327h10"></path>
<g>
<path d="M1401.5 327h0"></path>
<path d="M1538 327h0"></path>
<path d="M1401.5 327h20"></path>
<g class="non-terminal">
<path d="M1421.5 327h0"></path>
<path d="M1501 327h17"></path>
<rect x="1421.5" y="316" width="79.5" height="22"></rect>
<a xlink:href="#/cds/expression/CDSName"><text x="1461.25" y="331">CDSName</text>
</a>
</g>
<path d="M1518 327h20"></path>
<path d="M1401.5 327a10 10 0 0 1 10 10v10a10 10 0 0 0 10 10"></path>
<g class="non-terminal">
<path d="M1421.5 357h0"></path>
<path d="M1518 357h0"></path>
<rect x="1421.5" y="346" width="96.5" height="22"></rect>
<a xlink:href="#/cds/expression/CDSString"><text x="1469.75" y="361">CDSString</text>
</a>
</g>
<path d="M1518 357a10 10 0 0 0 10 -10v-10a10 10 0 0 1 10 -10"></path>
</g>
</g>
<path d="M1538 327h20"></path>
</g>
</g>
<path d="M1558 327h20"></path>
<path d="M1216.5 327a10 10 0 0 1 10 10v40a10 10 0 0 0 10 10"></path>
<g class="non-terminal">
<path d="M1236.5 387h0"></path>
<path d="M1350 387h208"></path>
<rect x="1236.5" y="376" width="113.5" height="22"></rect>
<a xlink:href="#/cds/expression/CDSFunction"><text x="1293.25" y="391">CDSFunction</text>
</a>
</g>
<path d="M1558 387a10 10 0 0 0 10 -10v-40a10 10 0 0 1 10 -10"></path>
</g>
<path d="M1578 327h10"></path>
<g class="terminal">
<path d="M1588 327h0"></path>
<path d="M1642 327h0"></path>
<rect x="1588" y="316" width="54" height="22" rx="10" ry="10"></rect>
<text x="1615" y="331">"IS"</text>
</g>
<path d="M1642 327h10"></path>
<g>
<path d="M1652 327h0"></path>
<path d="M1754.5 327h0"></path>
<path d="M1652 327a10 10 0 0 0 10 -10v0a10 10 0 0 1 10 -10"></path>
<g>
<path d="M1672 307h62.5"></path>
</g>
<path d="M1734.5 307a10 10 0 0 1 10 10v0a10 10 0 0 0 10 10"></path>
<path d="M1652 327h20"></path>
<g class="terminal">
<path d="M1672 327h0"></path>
<path d="M1734.5 327h0"></path>
<rect x="1672" y="316" width="62.5" height="22" rx="10" ry="10"></rect>
<text x="1703.25" y="331">"NOT"</text>
</g>
<path d="M1734.5 327h20"></path>
</g>
<g>
<path d="M1754.5 327h0"></path>
<path d="M1891 327h0"></path>
<path d="M1754.5 327h20"></path>
<g class="terminal">
<path d="M1774.5 327h0"></path>
<path d="M1871 327h0"></path>
<rect x="1774.5" y="316" width="96.5" height="22" rx="10" ry="10"></rect>
<text x="1822.75" y="331">"INITIAL"</text>
</g>
<path d="M1871 327h20"></path>
<path d="M1754.5 327a10 10 0 0 1 10 10v10a10 10 0 0 0 10 10"></path>
<g class="terminal">
<path d="M1774.5 357h0"></path>
<path d="M1845.5 357h25.5"></path>
<rect x="1774.5" y="346" width="71" height="22" rx="10" ry="10"></rect>
<text x="1810" y="361">"NULL"</text>
</g>
<path d="M1871 357a10 10 0 0 0 10 -10v-10a10 10 0 0 1 10 -10"></path>
</g>
</g>
<path d="M2130.5 327a10 10 0 0 0 10 -10v-259a10 10 0 0 1 10 -10"></path>
</g>
<path d="M2150.5 48h20"></path>
<path d="M1176.5 48a10 10 0 0 1 10 10v349a10 10 0 0 0 10 10"></path>
<g>
<path d="M1196.5 417h0"></path>
<path d="M1449.5 417h701"></path>
<g class="terminal">
<path d="M1196.5 417h0"></path>
<path d="M1242 417h0"></path>
<rect x="1196.5" y="406" width="45.5" height="22" rx="10" ry="10"></rect>
<text x="1219.25" y="421">"("</text>
</g>
<path d="M1242 417h10"></path>
<path d="M1252 417h10"></path>
<g class="non-terminal">
<path d="M1262 417h0"></path>
<path d="M1384 417h0"></path>
<rect x="1262" y="406" width="122" height="22"></rect>
<a xlink:href="#/cds/expression/CDSCondition"><text x="1323" y="421">CDSCondition</text>
</a>
</g>
<path d="M1384 417h10"></path>
<path d="M1394 417h10"></path>
<g class="terminal">
<path d="M1404 417h0"></path>
<path d="M1449.5 417h0"></path>
<rect x="1404" y="406" width="45.5" height="22" rx="10" ry="10"></rect>
<text x="1426.75" y="421">")"</text>
</g>
</g>
<path d="M2150.5 417a10 10 0 0 0 10 -10v-349a10 10 0 0 1 10 -10"></path>
</g>
</g>
<path d="M2170.5 48h10"></path>
<path d="M1074 48a10 10 0 0 0 -10 10v368a10 10 0 0 0 10 10"></path>
<g>
<path d="M1074 436h1096.5"></path>
</g>
<path d="M2170.5 436a10 10 0 0 0 10 -10v-368a10 10 0 0 0 -10 -10"></path>
</g>
<path d="M2180.5 48h20"></path>
</g>
</g>
<path d="M2200.5 48h10"></path>
<path d="M 2210.5 48 h 20 m 0 -10 v 20"></path>
</g>
</svg>
