<svg xmlns="http://www.w3.org/2000/svg" xmlns:xlink="http://www.w3.org/1999/xlink" class="railroad-diagram" width="564" height="122" viewBox="0 0 564 122">
<defs>
<style type="text/css"><![CDATA[
path {
stroke-width: 3;
stroke: black;
fill: rgba(0,0,0,0);
}
text {
font: bold 14px monospace;
text-anchor: middle;
}
text.diagram-text {
font-size: 12px;
}
a {
fill: blue;
}
text.diagram-arrow {
font-size: 16px;
}
text.label {
text-anchor: start;
}
text.comment {
font: italic 12px monospace;
}
rect {
stroke-width: 3;
stroke: black;
fill: #BCBCBC;
}
path.diagram-text {
stroke-width: 3;
stroke: black;
fill: #BCBCBC;
cursor: help;
}
]]></style>
</defs>
<g transform="translate(.5 .5)">
<g>
<path d="M20 21v20m0 -10h20"></path>
</g>
<path d="M40 31h10"></path>
<g>
<path d="M50 31h0"></path>
<path d="M514 31h0"></path>
<g class="terminal">
<path d="M50 31h0"></path>
<path d="M231.5 31h0"></path>
<rect x="50" y="20" width="181.5" height="22" rx="10" ry="10"></rect>
<text x="140.75" y="35">"PROVIDER CONTRACT"</text>
</g>
<path d="M231.5 31h10"></path>
<g>
<path d="M241.5 31h0"></path>
<path d="M514 31h0"></path>
<path d="M241.5 31h20"></path>
<g class="terminal">
<path d="M261.5 31h0"></path>
<path d="M460 31h34"></path>
<rect x="261.5" y="20" width="198.5" height="22" rx="10" ry="10"></rect>
<text x="360.75" y="35">"TRANSACTIONAL&#95;QUERY"</text>
</g>
<path d="M494 31h20"></path>
<path d="M241.5 31a10 10 0 0 1 10 10v10a10 10 0 0 0 10 10"></path>
<g class="terminal">
<path d="M261.5 61h0"></path>
<path d="M494 61h0"></path>
<rect x="261.5" y="50" width="232.5" height="22" rx="10" ry="10"></rect>
<text x="377.75" y="65">"TRANSACTIONAL&#95;INTERFACE"</text>
</g>
<path d="M494 61a10 10 0 0 0 10 -10v-10a10 10 0 0 1 10 -10"></path>
<path d="M241.5 31a10 10 0 0 1 10 10v40a10 10 0 0 0 10 10"></path>
<g class="terminal">
<path d="M261.5 91h0"></path>
<path d="M434.5 91h59.5"></path>
<rect x="261.5" y="80" width="173" height="22" rx="10" ry="10"></rect>
<text x="348" y="95">"ANALYTICAL&#95;QUERY"</text>
</g>
<path d="M494 91a10 10 0 0 0 10 -10v-40a10 10 0 0 1 10 -10"></path>
</g>
</g>
<path d="M514 31h10"></path>
<path d="M 524 31 h 20 m 0 -10 v 20"></path>
</g>
</svg>
