<svg xmlns="http://www.w3.org/2000/svg" xmlns:xlink="http://www.w3.org/1999/xlink" class="railroad-diagram" width="1555.5" height="657" viewBox="0 0 1555.5 657">
<defs>
<style type="text/css"><![CDATA[
path {
stroke-width: 3;
stroke: black;
fill: rgba(0,0,0,0);
}
text {
font: bold 14px monospace;
text-anchor: middle;
}
text.diagram-text {
font-size: 12px;
}
a {
fill: blue;
}
text.diagram-arrow {
font-size: 16px;
}
text.label {
text-anchor: start;
}
text.comment {
font: italic 12px monospace;
}
rect {
stroke-width: 3;
stroke: black;
fill: #BCBCBC;
}
path.diagram-text {
stroke-width: 3;
stroke: black;
fill: #BCBCBC;
cursor: help;
}
]]></style>
</defs>
<g transform="translate(.5 .5)">
<g>
<path d="M20 30v20m0 -10h20"></path>
</g>
<path d="M40 40h10"></path>
<g>
<path d="M50 40h0"></path>
<path d="M1505.5 40h0"></path>
<g class="terminal">
<path d="M50 40h0"></path>
<path d="M121 40h0"></path>
<rect x="50" y="29" width="71" height="22" rx="10" ry="10"></rect>
<text x="85.5" y="44">"CASE"</text>
</g>
<path d="M121 40h10"></path>
<g>
<path d="M131 40h0"></path>
<path d="M1061.5 40h0"></path>
<path d="M131 40h20"></path>
<g>
<path d="M151 40h0"></path>
<path d="M735.5 40h306"></path>
<path d="M151 40h10"></path>
<g>
<path d="M161 40h0"></path>
<path d="M725.5 40h0"></path>
<g class="terminal">
<path d="M161 40h0"></path>
<path d="M232 40h0"></path>
<rect x="161" y="29" width="71" height="22" rx="10" ry="10"></rect>
<text x="196.5" y="44">"WHEN"</text>
</g>
<path d="M232 40h10"></path>
<path d="M242 40h10"></path>
<g class="non-terminal">
<path d="M252 40h0"></path>
<path d="M374 40h0"></path>
<rect x="252" y="29" width="122" height="22"></rect>
<a xlink:href="#/cds/expression/CDSCondition"><text x="313" y="44">CDSCondition</text>
</a>
</g>
<path d="M374 40h10"></path>
<path d="M384 40h10"></path>
<g class="terminal">
<path d="M394 40h0"></path>
<path d="M465 40h0"></path>
<rect x="394" y="29" width="71" height="22" rx="10" ry="10"></rect>
<text x="429.5" y="44">"THEN"</text>
</g>
<path d="M465 40h10"></path>
<g>
<path d="M475 40h0"></path>
<path d="M725.5 40h0"></path>
<path d="M475 40h20"></path>
<g class="non-terminal">
<path d="M495 40h0"></path>
<path d="M591.5 40h114"></path>
<rect x="495" y="29" width="96.5" height="22"></rect>
<a xlink:href="#/cds/expression/CDSString"><text x="543.25" y="44">CDSString</text>
</a>
</g>
<path d="M705.5 40h20"></path>
<path d="M475 40a10 10 0 0 1 10 10v10a10 10 0 0 0 10 10"></path>
<g class="non-terminal">
<path d="M495 70h0"></path>
<path d="M574.5 70h131"></path>
<rect x="495" y="59" width="79.5" height="22"></rect>
<a xlink:href="#/cds/expression/CDSCase"><text x="534.75" y="74">CDSCase</text>
</a>
</g>
<path d="M705.5 70a10 10 0 0 0 10 -10v-10a10 10 0 0 1 10 -10"></path>
<path d="M475 40a10 10 0 0 1 10 10v40a10 10 0 0 0 10 10"></path>
<g>
<path d="M495 100h0"></path>
<path d="M705.5 100h0"></path>
<g class="terminal">
<path d="M495 100h0"></path>
<path d="M540.5 100h0"></path>
<rect x="495" y="89" width="45.5" height="22" rx="10" ry="10"></rect>
<text x="517.75" y="104">"("</text>
</g>
<path d="M540.5 100h10"></path>
<path d="M550.5 100h10"></path>
<g class="non-terminal">
<path d="M560.5 100h0"></path>
<path d="M640 100h0"></path>
<rect x="560.5" y="89" width="79.5" height="22"></rect>
<a xlink:href="#/cds/expression/CDSCase"><text x="600.25" y="104">CDSCase</text>
</a>
</g>
<path d="M640 100h10"></path>
<path d="M650 100h10"></path>
<g class="terminal">
<path d="M660 100h0"></path>
<path d="M705.5 100h0"></path>
<rect x="660" y="89" width="45.5" height="22" rx="10" ry="10"></rect>
<text x="682.75" y="104">")"</text>
</g>
</g>
<path d="M705.5 100a10 10 0 0 0 10 -10v-40a10 10 0 0 1 10 -10"></path>
<path d="M475 40a10 10 0 0 1 10 10v70a10 10 0 0 0 10 10"></path>
<g class="non-terminal">
<path d="M495 130h0"></path>
<path d="M634 130h71.5"></path>
<rect x="495" y="119" width="139" height="22"></rect>
<a xlink:href="#/cds/expression/CDSArithmetics"><text x="564.5" y="134">CDSArithmetics</text>
</a>
</g>
<path d="M705.5 130a10 10 0 0 0 10 -10v-70a10 10 0 0 1 10 -10"></path>
<path d="M475 40a10 10 0 0 1 10 10v100a10 10 0 0 0 10 10"></path>
<g class="non-terminal">
<path d="M495 160h0"></path>
<path d="M574.5 160h131"></path>
<rect x="495" y="149" width="79.5" height="22"></rect>
<a xlink:href="#/cds/expression/CDSCast"><text x="534.75" y="164">CDSCast</text>
</a>
</g>
<path d="M705.5 160a10 10 0 0 0 10 -10v-100a10 10 0 0 1 10 -10"></path>
<path d="M475 40a10 10 0 0 1 10 10v130a10 10 0 0 0 10 10"></path>
<g class="non-terminal">
<path d="M495 190h0"></path>
<path d="M617 190h88.5"></path>
<rect x="495" y="179" width="122" height="22"></rect>
<a xlink:href="#/cds/expression/CDSAggregate"><text x="556" y="194">CDSAggregate</text>
</a>
</g>
<path d="M705.5 190a10 10 0 0 0 10 -10v-130a10 10 0 0 1 10 -10"></path>
<path d="M475 40a10 10 0 0 1 10 10v160a10 10 0 0 0 10 10"></path>
<g class="non-terminal">
<path d="M495 220h0"></path>
<path d="M625.5 220h80"></path>
<rect x="495" y="209" width="130.5" height="22"></rect>
<a xlink:href="#/cds/expression/CDSArithParen"><text x="560.25" y="224">CDSArithParen</text>
</a>
</g>
<path d="M705.5 220a10 10 0 0 0 10 -10v-160a10 10 0 0 1 10 -10"></path>
<path d="M475 40a10 10 0 0 1 10 10v190a10 10 0 0 0 10 10"></path>
<g class="non-terminal">
<path d="M495 250h0"></path>
<path d="M608.5 250h97"></path>
<rect x="495" y="239" width="113.5" height="22"></rect>
<a xlink:href="#/cds/expression/CDSFunction"><text x="551.75" y="254">CDSFunction</text>
</a>
</g>
<path d="M705.5 250a10 10 0 0 0 10 -10v-190a10 10 0 0 1 10 -10"></path>
<path d="M475 40a10 10 0 0 1 10 10v220a10 10 0 0 0 10 10"></path>
<g class="non-terminal">
<path d="M495 280h0"></path>
<path d="M600 280h105.5"></path>
<rect x="495" y="269" width="105" height="22"></rect>
<a xlink:href="#/cds/expression/CDSInteger"><text x="547.5" y="284">CDSInteger</text>
</a>
</g>
<path d="M705.5 280a10 10 0 0 0 10 -10v-220a10 10 0 0 1 10 -10"></path>
<path d="M475 40a10 10 0 0 1 10 10v250a10 10 0 0 0 10 10"></path>
<g class="non-terminal">
<path d="M495 310h0"></path>
<path d="M642.5 310h63"></path>
<rect x="495" y="299" width="147.5" height="22"></rect>
<a xlink:href="#/cds/expression/CDSPrefixedName"><text x="568.75" y="314">CDSPrefixedName</text>
</a>
</g>
<path d="M705.5 310a10 10 0 0 0 10 -10v-250a10 10 0 0 1 10 -10"></path>
</g>
</g>
<path d="M725.5 40h10"></path>
<path d="M161 40a10 10 0 0 0 -10 10v269a10 10 0 0 0 10 10"></path>
<g>
<path d="M161 329h564.5"></path>
</g>
<path d="M725.5 329a10 10 0 0 0 10 -10v-269a10 10 0 0 0 -10 -10"></path>
</g>
<path d="M1041.5 40h20"></path>
<path d="M131 40a10 10 0 0 1 10 10v288a10 10 0 0 0 10 10"></path>
<g>
<path d="M151 348h0"></path>
<path d="M1041.5 348h0"></path>
<g>
<path d="M151 348h0"></path>
<path d="M338.5 348h0"></path>
<path d="M151 348h20"></path>
<g class="non-terminal">
<path d="M171 348h0"></path>
<path d="M310 348h8.5"></path>
<rect x="171" y="337" width="139" height="22"></rect>
<a xlink:href="#/cds/expression/CDSArithmetics"><text x="240.5" y="352">CDSArithmetics</text>
</a>
</g>
<path d="M318.5 348h20"></path>
<path d="M151 348a10 10 0 0 1 10 10v10a10 10 0 0 0 10 10"></path>
<g class="non-terminal">
<path d="M171 378h0"></path>
<path d="M301.5 378h17"></path>
<rect x="171" y="367" width="130.5" height="22"></rect>
<a xlink:href="#/cds/expression/CDSArithParen"><text x="236.25" y="382">CDSArithParen</text>
</a>
</g>
<path d="M318.5 378a10 10 0 0 0 10 -10v-10a10 10 0 0 1 10 -10"></path>
<path d="M151 348a10 10 0 0 1 10 10v40a10 10 0 0 0 10 10"></path>
<g class="non-terminal">
<path d="M171 408h0"></path>
<path d="M293 408h25.5"></path>
<rect x="171" y="397" width="122" height="22"></rect>
<a xlink:href="#/cds/expression/CDSAggregate"><text x="232" y="412">CDSAggregate</text>
</a>
</g>
<path d="M318.5 408a10 10 0 0 0 10 -10v-40a10 10 0 0 1 10 -10"></path>
<path d="M151 348a10 10 0 0 1 10 10v70a10 10 0 0 0 10 10"></path>
<g class="non-terminal">
<path d="M171 438h0"></path>
<path d="M284.5 438h34"></path>
<rect x="171" y="427" width="113.5" height="22"></rect>
<a xlink:href="#/cds/expression/CDSFunction"><text x="227.75" y="442">CDSFunction</text>
</a>
</g>
<path d="M318.5 438a10 10 0 0 0 10 -10v-70a10 10 0 0 1 10 -10"></path>
<path d="M151 348a10 10 0 0 1 10 10v100a10 10 0 0 0 10 10"></path>
<g class="non-terminal">
<path d="M171 468h0"></path>
<path d="M318.5 468h0"></path>
<rect x="171" y="457" width="147.5" height="22"></rect>
<a xlink:href="#/cds/expression/CDSPrefixedName"><text x="244.75" y="472">CDSPrefixedName</text>
</a>
</g>
<path d="M318.5 468a10 10 0 0 0 10 -10v-100a10 10 0 0 1 10 -10"></path>
</g>
<path d="M338.5 348h10"></path>
<g>
<path d="M348.5 348h0"></path>
<path d="M1041.5 348h0"></path>
<path d="M348.5 348h10"></path>
<g>
<path d="M358.5 348h0"></path>
<path d="M1031.5 348h0"></path>
<g class="terminal">
<path d="M358.5 348h0"></path>
<path d="M429.5 348h0"></path>
<rect x="358.5" y="337" width="71" height="22" rx="10" ry="10"></rect>
<text x="394" y="352">"WHEN"</text>
</g>
<path d="M429.5 348h10"></path>
<g>
<path d="M439.5 348h0"></path>
<path d="M690 348h0"></path>
<path d="M439.5 348h20"></path>
<g class="non-terminal">
<path d="M459.5 348h0"></path>
<path d="M556 348h114"></path>
<rect x="459.5" y="337" width="96.5" height="22"></rect>
<a xlink:href="#/cds/expression/CDSString"><text x="507.75" y="352">CDSString</text>
</a>
</g>
<path d="M670 348h20"></path>
<path d="M439.5 348a10 10 0 0 1 10 10v10a10 10 0 0 0 10 10"></path>
<g class="non-terminal">
<path d="M459.5 378h0"></path>
<path d="M539 378h131"></path>
<rect x="459.5" y="367" width="79.5" height="22"></rect>
<a xlink:href="#/cds/expression/CDSCase"><text x="499.25" y="382">CDSCase</text>
</a>
</g>
<path d="M670 378a10 10 0 0 0 10 -10v-10a10 10 0 0 1 10 -10"></path>
<path d="M439.5 348a10 10 0 0 1 10 10v40a10 10 0 0 0 10 10"></path>
<g>
<path d="M459.5 408h0"></path>
<path d="M670 408h0"></path>
<g class="terminal">
<path d="M459.5 408h0"></path>
<path d="M505 408h0"></path>
<rect x="459.5" y="397" width="45.5" height="22" rx="10" ry="10"></rect>
<text x="482.25" y="412">"("</text>
</g>
<path d="M505 408h10"></path>
<path d="M515 408h10"></path>
<g class="non-terminal">
<path d="M525 408h0"></path>
<path d="M604.5 408h0"></path>
<rect x="525" y="397" width="79.5" height="22"></rect>
<a xlink:href="#/cds/expression/CDSCase"><text x="564.75" y="412">CDSCase</text>
</a>
</g>
<path d="M604.5 408h10"></path>
<path d="M614.5 408h10"></path>
<g class="terminal">
<path d="M624.5 408h0"></path>
<path d="M670 408h0"></path>
<rect x="624.5" y="397" width="45.5" height="22" rx="10" ry="10"></rect>
<text x="647.25" y="412">")"</text>
</g>
</g>
<path d="M670 408a10 10 0 0 0 10 -10v-40a10 10 0 0 1 10 -10"></path>
<path d="M439.5 348a10 10 0 0 1 10 10v70a10 10 0 0 0 10 10"></path>
<g class="non-terminal">
<path d="M459.5 438h0"></path>
<path d="M598.5 438h71.5"></path>
<rect x="459.5" y="427" width="139" height="22"></rect>
<a xlink:href="#/cds/expression/CDSArithmetics"><text x="529" y="442">CDSArithmetics</text>
</a>
</g>
<path d="M670 438a10 10 0 0 0 10 -10v-70a10 10 0 0 1 10 -10"></path>
<path d="M439.5 348a10 10 0 0 1 10 10v100a10 10 0 0 0 10 10"></path>
<g class="non-terminal">
<path d="M459.5 468h0"></path>
<path d="M539 468h131"></path>
<rect x="459.5" y="457" width="79.5" height="22"></rect>
<a xlink:href="#/cds/expression/CDSCast"><text x="499.25" y="472">CDSCast</text>
</a>
</g>
<path d="M670 468a10 10 0 0 0 10 -10v-100a10 10 0 0 1 10 -10"></path>
<path d="M439.5 348a10 10 0 0 1 10 10v130a10 10 0 0 0 10 10"></path>
<g class="non-terminal">
<path d="M459.5 498h0"></path>
<path d="M581.5 498h88.5"></path>
<rect x="459.5" y="487" width="122" height="22"></rect>
<a xlink:href="#/cds/expression/CDSAggregate"><text x="520.5" y="502">CDSAggregate</text>
</a>
</g>
<path d="M670 498a10 10 0 0 0 10 -10v-130a10 10 0 0 1 10 -10"></path>
<path d="M439.5 348a10 10 0 0 1 10 10v160a10 10 0 0 0 10 10"></path>
<g class="non-terminal">
<path d="M459.5 528h0"></path>
<path d="M590 528h80"></path>
<rect x="459.5" y="517" width="130.5" height="22"></rect>
<a xlink:href="#/cds/expression/CDSArithParen"><text x="524.75" y="532">CDSArithParen</text>
</a>
</g>
<path d="M670 528a10 10 0 0 0 10 -10v-160a10 10 0 0 1 10 -10"></path>
<path d="M439.5 348a10 10 0 0 1 10 10v190a10 10 0 0 0 10 10"></path>
<g class="non-terminal">
<path d="M459.5 558h0"></path>
<path d="M573 558h97"></path>
<rect x="459.5" y="547" width="113.5" height="22"></rect>
<a xlink:href="#/cds/expression/CDSFunction"><text x="516.25" y="562">CDSFunction</text>
</a>
</g>
<path d="M670 558a10 10 0 0 0 10 -10v-190a10 10 0 0 1 10 -10"></path>
<path d="M439.5 348a10 10 0 0 1 10 10v220a10 10 0 0 0 10 10"></path>
<g class="non-terminal">
<path d="M459.5 588h0"></path>
<path d="M564.5 588h105.5"></path>
<rect x="459.5" y="577" width="105" height="22"></rect>
<a xlink:href="#/cds/expression/CDSInteger"><text x="512" y="592">CDSInteger</text>
</a>
</g>
<path d="M670 588a10 10 0 0 0 10 -10v-220a10 10 0 0 1 10 -10"></path>
<path d="M439.5 348a10 10 0 0 1 10 10v250a10 10 0 0 0 10 10"></path>
<g class="non-terminal">
<path d="M459.5 618h0"></path>
<path d="M607 618h63"></path>
<rect x="459.5" y="607" width="147.5" height="22"></rect>
<a xlink:href="#/cds/expression/CDSPrefixedName"><text x="533.25" y="622">CDSPrefixedName</text>
</a>
</g>
<path d="M670 618a10 10 0 0 0 10 -10v-250a10 10 0 0 1 10 -10"></path>
</g>
<path d="M690 348h10"></path>
<g class="terminal">
<path d="M700 348h0"></path>
<path d="M771 348h0"></path>
<rect x="700" y="337" width="71" height="22" rx="10" ry="10"></rect>
<text x="735.5" y="352">"THEN"</text>
</g>
<path d="M771 348h10"></path>
<g>
<path d="M781 348h0"></path>
<path d="M1031.5 348h0"></path>
<path d="M781 348h20"></path>
<g class="non-terminal">
<path d="M801 348h0"></path>
<path d="M897.5 348h114"></path>
<rect x="801" y="337" width="96.5" height="22"></rect>
<a xlink:href="#/cds/expression/CDSString"><text x="849.25" y="352">CDSString</text>
</a>
</g>
<path d="M1011.5 348h20"></path>
<path d="M781 348a10 10 0 0 1 10 10v10a10 10 0 0 0 10 10"></path>
<g class="non-terminal">
<path d="M801 378h0"></path>
<path d="M880.5 378h131"></path>
<rect x="801" y="367" width="79.5" height="22"></rect>
<a xlink:href="#/cds/expression/CDSCase"><text x="840.75" y="382">CDSCase</text>
</a>
</g>
<path d="M1011.5 378a10 10 0 0 0 10 -10v-10a10 10 0 0 1 10 -10"></path>
<path d="M781 348a10 10 0 0 1 10 10v40a10 10 0 0 0 10 10"></path>
<g>
<path d="M801 408h0"></path>
<path d="M1011.5 408h0"></path>
<g class="terminal">
<path d="M801 408h0"></path>
<path d="M846.5 408h0"></path>
<rect x="801" y="397" width="45.5" height="22" rx="10" ry="10"></rect>
<text x="823.75" y="412">"("</text>
</g>
<path d="M846.5 408h10"></path>
<path d="M856.5 408h10"></path>
<g class="non-terminal">
<path d="M866.5 408h0"></path>
<path d="M946 408h0"></path>
<rect x="866.5" y="397" width="79.5" height="22"></rect>
<a xlink:href="#/cds/expression/CDSCase"><text x="906.25" y="412">CDSCase</text>
</a>
</g>
<path d="M946 408h10"></path>
<path d="M956 408h10"></path>
<g class="terminal">
<path d="M966 408h0"></path>
<path d="M1011.5 408h0"></path>
<rect x="966" y="397" width="45.5" height="22" rx="10" ry="10"></rect>
<text x="988.75" y="412">")"</text>
</g>
</g>
<path d="M1011.5 408a10 10 0 0 0 10 -10v-40a10 10 0 0 1 10 -10"></path>
<path d="M781 348a10 10 0 0 1 10 10v70a10 10 0 0 0 10 10"></path>
<g class="non-terminal">
<path d="M801 438h0"></path>
<path d="M940 438h71.5"></path>
<rect x="801" y="427" width="139" height="22"></rect>
<a xlink:href="#/cds/expression/CDSArithmetics"><text x="870.5" y="442">CDSArithmetics</text>
</a>
</g>
<path d="M1011.5 438a10 10 0 0 0 10 -10v-70a10 10 0 0 1 10 -10"></path>
<path d="M781 348a10 10 0 0 1 10 10v100a10 10 0 0 0 10 10"></path>
<g class="non-terminal">
<path d="M801 468h0"></path>
<path d="M880.5 468h131"></path>
<rect x="801" y="457" width="79.5" height="22"></rect>
<a xlink:href="#/cds/expression/CDSCast"><text x="840.75" y="472">CDSCast</text>
</a>
</g>
<path d="M1011.5 468a10 10 0 0 0 10 -10v-100a10 10 0 0 1 10 -10"></path>
<path d="M781 348a10 10 0 0 1 10 10v130a10 10 0 0 0 10 10"></path>
<g class="non-terminal">
<path d="M801 498h0"></path>
<path d="M923 498h88.5"></path>
<rect x="801" y="487" width="122" height="22"></rect>
<a xlink:href="#/cds/expression/CDSAggregate"><text x="862" y="502">CDSAggregate</text>
</a>
</g>
<path d="M1011.5 498a10 10 0 0 0 10 -10v-130a10 10 0 0 1 10 -10"></path>
<path d="M781 348a10 10 0 0 1 10 10v160a10 10 0 0 0 10 10"></path>
<g class="non-terminal">
<path d="M801 528h0"></path>
<path d="M931.5 528h80"></path>
<rect x="801" y="517" width="130.5" height="22"></rect>
<a xlink:href="#/cds/expression/CDSArithParen"><text x="866.25" y="532">CDSArithParen</text>
</a>
</g>
<path d="M1011.5 528a10 10 0 0 0 10 -10v-160a10 10 0 0 1 10 -10"></path>
<path d="M781 348a10 10 0 0 1 10 10v190a10 10 0 0 0 10 10"></path>
<g class="non-terminal">
<path d="M801 558h0"></path>
<path d="M914.5 558h97"></path>
<rect x="801" y="547" width="113.5" height="22"></rect>
<a xlink:href="#/cds/expression/CDSFunction"><text x="857.75" y="562">CDSFunction</text>
</a>
</g>
<path d="M1011.5 558a10 10 0 0 0 10 -10v-190a10 10 0 0 1 10 -10"></path>
<path d="M781 348a10 10 0 0 1 10 10v220a10 10 0 0 0 10 10"></path>
<g class="non-terminal">
<path d="M801 588h0"></path>
<path d="M906 588h105.5"></path>
<rect x="801" y="577" width="105" height="22"></rect>
<a xlink:href="#/cds/expression/CDSInteger"><text x="853.5" y="592">CDSInteger</text>
</a>
</g>
<path d="M1011.5 588a10 10 0 0 0 10 -10v-220a10 10 0 0 1 10 -10"></path>
<path d="M781 348a10 10 0 0 1 10 10v250a10 10 0 0 0 10 10"></path>
<g class="non-terminal">
<path d="M801 618h0"></path>
<path d="M948.5 618h63"></path>
<rect x="801" y="607" width="147.5" height="22"></rect>
<a xlink:href="#/cds/expression/CDSPrefixedName"><text x="874.75" y="622">CDSPrefixedName</text>
</a>
</g>
<path d="M1011.5 618a10 10 0 0 0 10 -10v-250a10 10 0 0 1 10 -10"></path>
</g>
</g>
<path d="M1031.5 348h10"></path>
<path d="M358.5 348a10 10 0 0 0 -10 10v269a10 10 0 0 0 10 10"></path>
<g>
<path d="M358.5 637h673"></path>
</g>
<path d="M1031.5 637a10 10 0 0 0 10 -10v-269a10 10 0 0 0 -10 -10"></path>
</g>
</g>
<path d="M1041.5 348a10 10 0 0 0 10 -10v-288a10 10 0 0 1 10 -10"></path>
</g>
<g>
<path d="M1061.5 40h0"></path>
<path d="M1433 40h0"></path>
<path d="M1061.5 40a10 10 0 0 0 10 -10v0a10 10 0 0 1 10 -10"></path>
<g>
<path d="M1081.5 20h331.5"></path>
</g>
<path d="M1413 20a10 10 0 0 1 10 10v0a10 10 0 0 0 10 10"></path>
<path d="M1061.5 40h20"></path>
<g>
<path d="M1081.5 40h0"></path>
<path d="M1413 40h0"></path>
<g class="terminal">
<path d="M1081.5 40h0"></path>
<path d="M1152.5 40h0"></path>
<rect x="1081.5" y="29" width="71" height="22" rx="10" ry="10"></rect>
<text x="1117" y="44">"ELSE"</text>
</g>
<path d="M1152.5 40h10"></path>
<g>
<path d="M1162.5 40h0"></path>
<path d="M1413 40h0"></path>
<path d="M1162.5 40h20"></path>
<g class="non-terminal">
<path d="M1182.5 40h0"></path>
<path d="M1279 40h114"></path>
<rect x="1182.5" y="29" width="96.5" height="22"></rect>
<a xlink:href="#/cds/expression/CDSString"><text x="1230.75" y="44">CDSString</text>
</a>
</g>
<path d="M1393 40h20"></path>
<path d="M1162.5 40a10 10 0 0 1 10 10v10a10 10 0 0 0 10 10"></path>
<g class="non-terminal">
<path d="M1182.5 70h0"></path>
<path d="M1262 70h131"></path>
<rect x="1182.5" y="59" width="79.5" height="22"></rect>
<a xlink:href="#/cds/expression/CDSCase"><text x="1222.25" y="74">CDSCase</text>
</a>
</g>
<path d="M1393 70a10 10 0 0 0 10 -10v-10a10 10 0 0 1 10 -10"></path>
<path d="M1162.5 40a10 10 0 0 1 10 10v40a10 10 0 0 0 10 10"></path>
<g>
<path d="M1182.5 100h0"></path>
<path d="M1393 100h0"></path>
<g class="terminal">
<path d="M1182.5 100h0"></path>
<path d="M1228 100h0"></path>
<rect x="1182.5" y="89" width="45.5" height="22" rx="10" ry="10"></rect>
<text x="1205.25" y="104">"("</text>
</g>
<path d="M1228 100h10"></path>
<path d="M1238 100h10"></path>
<g class="non-terminal">
<path d="M1248 100h0"></path>
<path d="M1327.5 100h0"></path>
<rect x="1248" y="89" width="79.5" height="22"></rect>
<a xlink:href="#/cds/expression/CDSCase"><text x="1287.75" y="104">CDSCase</text>
</a>
</g>
<path d="M1327.5 100h10"></path>
<path d="M1337.5 100h10"></path>
<g class="terminal">
<path d="M1347.5 100h0"></path>
<path d="M1393 100h0"></path>
<rect x="1347.5" y="89" width="45.5" height="22" rx="10" ry="10"></rect>
<text x="1370.25" y="104">")"</text>
</g>
</g>
<path d="M1393 100a10 10 0 0 0 10 -10v-40a10 10 0 0 1 10 -10"></path>
<path d="M1162.5 40a10 10 0 0 1 10 10v70a10 10 0 0 0 10 10"></path>
<g class="non-terminal">
<path d="M1182.5 130h0"></path>
<path d="M1321.5 130h71.5"></path>
<rect x="1182.5" y="119" width="139" height="22"></rect>
<a xlink:href="#/cds/expression/CDSArithmetics"><text x="1252" y="134">CDSArithmetics</text>
</a>
</g>
<path d="M1393 130a10 10 0 0 0 10 -10v-70a10 10 0 0 1 10 -10"></path>
<path d="M1162.5 40a10 10 0 0 1 10 10v100a10 10 0 0 0 10 10"></path>
<g class="non-terminal">
<path d="M1182.5 160h0"></path>
<path d="M1262 160h131"></path>
<rect x="1182.5" y="149" width="79.5" height="22"></rect>
<a xlink:href="#/cds/expression/CDSCast"><text x="1222.25" y="164">CDSCast</text>
</a>
</g>
<path d="M1393 160a10 10 0 0 0 10 -10v-100a10 10 0 0 1 10 -10"></path>
<path d="M1162.5 40a10 10 0 0 1 10 10v130a10 10 0 0 0 10 10"></path>
<g class="non-terminal">
<path d="M1182.5 190h0"></path>
<path d="M1304.5 190h88.5"></path>
<rect x="1182.5" y="179" width="122" height="22"></rect>
<a xlink:href="#/cds/expression/CDSAggregate"><text x="1243.5" y="194">CDSAggregate</text>
</a>
</g>
<path d="M1393 190a10 10 0 0 0 10 -10v-130a10 10 0 0 1 10 -10"></path>
<path d="M1162.5 40a10 10 0 0 1 10 10v160a10 10 0 0 0 10 10"></path>
<g class="non-terminal">
<path d="M1182.5 220h0"></path>
<path d="M1313 220h80"></path>
<rect x="1182.5" y="209" width="130.5" height="22"></rect>
<a xlink:href="#/cds/expression/CDSArithParen"><text x="1247.75" y="224">CDSArithParen</text>
</a>
</g>
<path d="M1393 220a10 10 0 0 0 10 -10v-160a10 10 0 0 1 10 -10"></path>
<path d="M1162.5 40a10 10 0 0 1 10 10v190a10 10 0 0 0 10 10"></path>
<g class="non-terminal">
<path d="M1182.5 250h0"></path>
<path d="M1296 250h97"></path>
<rect x="1182.5" y="239" width="113.5" height="22"></rect>
<a xlink:href="#/cds/expression/CDSFunction"><text x="1239.25" y="254">CDSFunction</text>
</a>
</g>
<path d="M1393 250a10 10 0 0 0 10 -10v-190a10 10 0 0 1 10 -10"></path>
<path d="M1162.5 40a10 10 0 0 1 10 10v220a10 10 0 0 0 10 10"></path>
<g class="non-terminal">
<path d="M1182.5 280h0"></path>
<path d="M1287.5 280h105.5"></path>
<rect x="1182.5" y="269" width="105" height="22"></rect>
<a xlink:href="#/cds/expression/CDSInteger"><text x="1235" y="284">CDSInteger</text>
</a>
</g>
<path d="M1393 280a10 10 0 0 0 10 -10v-220a10 10 0 0 1 10 -10"></path>
<path d="M1162.5 40a10 10 0 0 1 10 10v250a10 10 0 0 0 10 10"></path>
<g class="non-terminal">
<path d="M1182.5 310h0"></path>
<path d="M1330 310h63"></path>
<rect x="1182.5" y="299" width="147.5" height="22"></rect>
<a xlink:href="#/cds/expression/CDSPrefixedName"><text x="1256.25" y="314">CDSPrefixedName</text>
</a>
</g>
<path d="M1393 310a10 10 0 0 0 10 -10v-250a10 10 0 0 1 10 -10"></path>
</g>
</g>
<path d="M1413 40h20"></path>
</g>
<path d="M1433 40h10"></path>
<g class="terminal">
<path d="M1443 40h0"></path>
<path d="M1505.5 40h0"></path>
<rect x="1443" y="29" width="62.5" height="22" rx="10" ry="10"></rect>
<text x="1474.25" y="44">"END"</text>
</g>
</g>
<path d="M1505.5 40h10"></path>
<path d="M 1515.5 40 h 20 m 0 -10 v 20"></path>
</g>
</svg>
