<svg xmlns="http://www.w3.org/2000/svg" xmlns:xlink="http://www.w3.org/1999/xlink" class="railroad-diagram" width="742" height="79" viewBox="0 0 742 79">
<defs>
<style type="text/css"><![CDATA[
path {
stroke-width: 3;
stroke: black;
fill: rgba(0,0,0,0);
}
text {
font: bold 14px monospace;
text-anchor: middle;
}
text.diagram-text {
font-size: 12px;
}
a {
fill: blue;
}
text.diagram-arrow {
font-size: 16px;
}
text.label {
text-anchor: start;
}
text.comment {
font: italic 12px monospace;
}
rect {
stroke-width: 3;
stroke: black;
fill: #BCBCBC;
}
path.diagram-text {
stroke-width: 3;
stroke: black;
fill: #BCBCBC;
cursor: help;
}
]]></style>
</defs>
<g transform="translate(.5 .5)">
<g>
<path d="M20 38v20m0 -10h20"></path>
</g>
<path d="M40 48h10"></path>
<g>
<path d="M50 48h0"></path>
<path d="M692 48h0"></path>
<g class="non-terminal">
<path d="M50 48h0"></path>
<path d="M129.5 48h0"></path>
<rect x="50" y="37" width="79.5" height="22"></rect>
<a xlink:href="#/cds/expression/CDSName"><text x="89.75" y="52">CDSName</text>
</a>
</g>
<path d="M129.5 48h10"></path>
<g>
<path d="M139.5 48h0"></path>
<path d="M324.5 48h0"></path>
<path d="M139.5 48a10 10 0 0 0 10 -10v0a10 10 0 0 1 10 -10"></path>
<g>
<path d="M159.5 28h145"></path>
</g>
<path d="M304.5 28a10 10 0 0 1 10 10v0a10 10 0 0 0 10 10"></path>
<path d="M139.5 48h20"></path>
<g>
<path d="M159.5 48h0"></path>
<path d="M304.5 48h0"></path>
<g class="terminal">
<path d="M159.5 48h0"></path>
<path d="M205 48h0"></path>
<rect x="159.5" y="37" width="45.5" height="22" rx="10" ry="10"></rect>
<text x="182.25" y="52">"."</text>
</g>
<path d="M205 48h10"></path>
<path d="M215 48h10"></path>
<g class="non-terminal">
<path d="M225 48h0"></path>
<path d="M304.5 48h0"></path>
<rect x="225" y="37" width="79.5" height="22"></rect>
<a xlink:href="#/cds/expression/CDSName"><text x="264.75" y="52">CDSName</text>
</a>
</g>
</g>
<path d="M304.5 48h20"></path>
</g>
<g>
<path d="M324.5 48h0"></path>
<path d="M692 48h0"></path>
<path d="M324.5 48a10 10 0 0 0 10 -10v-8a10 10 0 0 1 10 -10"></path>
<g>
<path d="M344.5 20h327.5"></path>
</g>
<path d="M672 20a10 10 0 0 1 10 10v8a10 10 0 0 0 10 10"></path>
<path d="M324.5 48h20"></path>
<g>
<path d="M344.5 48h0"></path>
<path d="M672 48h0"></path>
<g class="terminal">
<path d="M344.5 48h0"></path>
<path d="M390 48h0"></path>
<rect x="344.5" y="37" width="45.5" height="22" rx="10" ry="10"></rect>
<text x="367.25" y="52">"("</text>
</g>
<path d="M390 48h10"></path>
<path d="M400 48h10"></path>
<g class="terminal">
<path d="M410 48h0"></path>
<path d="M455.5 48h0"></path>
<rect x="410" y="37" width="45.5" height="22" rx="10" ry="10"></rect>
<text x="432.75" y="52">\d+</text>
</g>
<path d="M455.5 48h10"></path>
<g>
<path d="M465.5 48h0"></path>
<path d="M616.5 48h0"></path>
<path d="M465.5 48a10 10 0 0 0 10 -10v0a10 10 0 0 1 10 -10"></path>
<g>
<path d="M485.5 28h111"></path>
</g>
<path d="M596.5 28a10 10 0 0 1 10 10v0a10 10 0 0 0 10 10"></path>
<path d="M465.5 48h20"></path>
<g>
<path d="M485.5 48h0"></path>
<path d="M596.5 48h0"></path>
<g class="terminal">
<path d="M485.5 48h0"></path>
<path d="M531 48h0"></path>
<rect x="485.5" y="37" width="45.5" height="22" rx="10" ry="10"></rect>
<text x="508.25" y="52">","</text>
</g>
<path d="M531 48h10"></path>
<path d="M541 48h10"></path>
<g class="terminal">
<path d="M551 48h0"></path>
<path d="M596.5 48h0"></path>
<rect x="551" y="37" width="45.5" height="22" rx="10" ry="10"></rect>
<text x="573.75" y="52">\d+</text>
</g>
</g>
<path d="M596.5 48h20"></path>
</g>
<path d="M616.5 48h10"></path>
<g class="terminal">
<path d="M626.5 48h0"></path>
<path d="M672 48h0"></path>
<rect x="626.5" y="37" width="45.5" height="22" rx="10" ry="10"></rect>
<text x="649.25" y="52">")"</text>
</g>
</g>
<path d="M672 48h20"></path>
</g>
</g>
<path d="M692 48h10"></path>
<path d="M 702 48 h 20 m 0 -10 v 20"></path>
</g>
</svg>
