<svg xmlns="http://www.w3.org/2000/svg" xmlns:xlink="http://www.w3.org/1999/xlink" class="railroad-diagram" width="6678.5" height="524" viewBox="0 0 6678.5 524">
<defs>
<style type="text/css"><![CDATA[
path {
stroke-width: 3;
stroke: black;
fill: rgba(0,0,0,0);
}
text {
font: bold 14px monospace;
text-anchor: middle;
}
text.diagram-text {
font-size: 12px;
}
a {
fill: blue;
}
text.diagram-arrow {
font-size: 16px;
}
text.label {
text-anchor: start;
}
text.comment {
font: italic 12px monospace;
}
rect {
stroke-width: 3;
stroke: black;
fill: #BCBCBC;
}
path.diagram-text {
stroke-width: 3;
stroke: black;
fill: #BCBCBC;
cursor: help;
}
]]></style>
</defs>
<g transform="translate(.5 .5)">
<g>
<path d="M20 38v20m0 -10h20"></path>
</g>
<path d="M40 48h10"></path>
<g>
<path d="M50 48h0"></path>
<path d="M6628.5 48h0"></path>
<g>
<path d="M50 48h0"></path>
<path d="M240.5 48h0"></path>
<path d="M50 48a10 10 0 0 0 10 -10v0a10 10 0 0 1 10 -10"></path>
<g>
<path d="M70 28h150.5"></path>
</g>
<path d="M220.5 28a10 10 0 0 1 10 10v0a10 10 0 0 0 10 10"></path>
<path d="M50 48h20"></path>
<g>
<path d="M70 48h0"></path>
<path d="M220.5 48h0"></path>
<path d="M70 48h10"></path>
<g class="non-terminal ">
<path d="M80 48h0"></path>
<path d="M210.5 48h0"></path>
<rect x="80" y="37" width="130.5" height="22"></rect>
<a xlink:href="#/cds/expression/CDSAnnotation"><text x="145.25" y="52">CDSAnnotation</text>
</a>
</g>
<path d="M210.5 48h10"></path>
<path d="M80 48a10 10 0 0 0 -10 10v0a10 10 0 0 0 10 10"></path>
<g>
<path d="M80 68h130.5"></path>
</g>
<path d="M210.5 68a10 10 0 0 0 10 -10v0a10 10 0 0 0 -10 -10"></path>
</g>
<path d="M220.5 48h20"></path>
</g>
<g>
<path d="M240.5 48h0"></path>
<path d="M368.5 48h0"></path>
<path d="M240.5 48a10 10 0 0 0 10 -10v0a10 10 0 0 1 10 -10"></path>
<g>
<path d="M260.5 28h88"></path>
</g>
<path d="M348.5 28a10 10 0 0 1 10 10v0a10 10 0 0 0 10 10"></path>
<path d="M240.5 48h20"></path>
<g class="terminal ">
<path d="M260.5 48h0"></path>
<path d="M348.5 48h0"></path>
<rect x="260.5" y="37" width="88" height="22" rx="10" ry="10"></rect>
<text x="304.5" y="52">"DEFINE"</text>
</g>
<path d="M348.5 48h20"></path>
</g>
<g>
<path d="M368.5 48h0"></path>
<path d="M522 48h0"></path>
<path d="M368.5 48a10 10 0 0 0 10 -10v0a10 10 0 0 1 10 -10"></path>
<g>
<path d="M388.5 28h113.5"></path>
</g>
<path d="M502 28a10 10 0 0 1 10 10v0a10 10 0 0 0 10 10"></path>
<path d="M368.5 48h20"></path>
<g class="terminal ">
<path d="M388.5 48h0"></path>
<path d="M502 48h0"></path>
<rect x="388.5" y="37" width="113.5" height="22" rx="10" ry="10"></rect>
<text x="445.25" y="52">"TRANSIENT"</text>
</g>
<path d="M502 48h20"></path>
</g>
<g>
<path d="M522 48h0"></path>
<path d="M633 48h0"></path>
<path d="M522 48a10 10 0 0 0 10 -10v0a10 10 0 0 1 10 -10"></path>
<g>
<path d="M542 28h71"></path>
</g>
<path d="M613 28a10 10 0 0 1 10 10v0a10 10 0 0 0 10 10"></path>
<path d="M522 48h20"></path>
<g class="terminal ">
<path d="M542 48h0"></path>
<path d="M613 48h0"></path>
<rect x="542" y="37" width="71" height="22" rx="10" ry="10"></rect>
<text x="577.5" y="52">"ROOT"</text>
</g>
<path d="M613 48h20"></path>
</g>
<path d="M633 48h10"></path>
<g class="terminal ">
<path d="M643 48h0"></path>
<path d="M714 48h0"></path>
<rect x="643" y="37" width="71" height="22" rx="10" ry="10"></rect>
<text x="678.5" y="52">"VIEW"</text>
</g>
<path d="M714 48h10"></path>
<path d="M724 48h10"></path>
<g>
<path d="M734 48h0"></path>
<path d="M910 48h0"></path>
<g class="comment ">
<path d="M734 48h0"></path>
<path d="M772 48h0"></path>
<text x="753" y="53" class="comment">7.81</text>
</g>
<path d="M772 48h10"></path>
<g>
<path d="M782 48h0"></path>
<path d="M910 48h0"></path>
<path d="M782 48a10 10 0 0 0 10 -10v0a10 10 0 0 1 10 -10"></path>
<g>
<path d="M802 28h88"></path>
</g>
<path d="M890 28a10 10 0 0 1 10 10v0a10 10 0 0 0 10 10"></path>
<path d="M782 48h20"></path>
<g class="terminal ">
<path d="M802 48h0"></path>
<path d="M890 48h0"></path>
<rect x="802" y="37" width="88" height="22" rx="10" ry="10"></rect>
<text x="846" y="52">"ENTITY"</text>
</g>
<path d="M890 48h20"></path>
</g>
</g>
<path d="M910 48h10"></path>
<path d="M920 48h10"></path>
<g class="non-terminal ">
<path d="M930 48h0"></path>
<path d="M1009.5 48h0"></path>
<rect x="930" y="37" width="79.5" height="22"></rect>
<a xlink:href="#/cds/expression/CDSName"><text x="969.75" y="52">CDSName</text>
</a>
</g>
<path d="M1009.5 48h10"></path>
<g>
<path d="M1019.5 48h0"></path>
<path d="M1241 48h0"></path>
<path d="M1019.5 48a10 10 0 0 0 10 -10v0a10 10 0 0 1 10 -10"></path>
<g>
<path d="M1039.5 28h181.5"></path>
</g>
<path d="M1221 28a10 10 0 0 1 10 10v0a10 10 0 0 0 10 10"></path>
<path d="M1019.5 48h20"></path>
<g class="non-terminal ">
<path d="M1039.5 48h0"></path>
<path d="M1221 48h0"></path>
<rect x="1039.5" y="37" width="181.5" height="22"></rect>
<a xlink:href="#/cds/expression/CDSProviderContract"><text x="1130.25" y="52">CDSProviderContract</text>
</a>
</g>
<path d="M1221 48h20"></path>
</g>
<g>
<path d="M1241 48h0"></path>
<path d="M1445.5 48h0"></path>
<path d="M1241 48a10 10 0 0 0 10 -10v0a10 10 0 0 1 10 -10"></path>
<g>
<path d="M1261 28h164.5"></path>
</g>
<path d="M1425.5 28a10 10 0 0 1 10 10v0a10 10 0 0 0 10 10"></path>
<path d="M1241 48h20"></path>
<g class="non-terminal ">
<path d="M1261 48h0"></path>
<path d="M1425.5 48h0"></path>
<rect x="1261" y="37" width="164.5" height="22"></rect>
<a xlink:href="#/cds/expression/CDSWithParameters"><text x="1343.25" y="52">CDSWithParameters</text>
</a>
</g>
<path d="M1425.5 48h20"></path>
</g>
<path d="M1445.5 48h10"></path>
<g class="terminal ">
<path d="M1455.5 48h0"></path>
<path d="M1628.5 48h0"></path>
<rect x="1455.5" y="37" width="173" height="22" rx="10" ry="10"></rect>
<text x="1542" y="52">"AS PROJECTION ON"</text>
</g>
<path d="M1628.5 48h10"></path>
<path d="M1638.5 48h10"></path>
<g class="non-terminal ">
<path d="M1648.5 48h0"></path>
<path d="M1728 48h0"></path>
<rect x="1648.5" y="37" width="79.5" height="22"></rect>
<a xlink:href="#/cds/expression/CDSName"><text x="1688.25" y="52">CDSName</text>
</a>
</g>
<path d="M1728 48h10"></path>
<g>
<path d="M1738 48h0"></path>
<path d="M1959.5 48h0"></path>
<path d="M1738 48a10 10 0 0 0 10 -10v0a10 10 0 0 1 10 -10"></path>
<g>
<path d="M1758 28h181.5"></path>
</g>
<path d="M1939.5 28a10 10 0 0 1 10 10v0a10 10 0 0 0 10 10"></path>
<path d="M1738 48h20"></path>
<g class="non-terminal ">
<path d="M1758 48h0"></path>
<path d="M1939.5 48h0"></path>
<rect x="1758" y="37" width="181.5" height="22"></rect>
<a xlink:href="#/cds/expression/CDSParametersSelect"><text x="1848.75" y="52">CDSParametersSelect</text>
</a>
</g>
<path d="M1939.5 48h20"></path>
</g>
<g>
<path d="M1959.5 48h0"></path>
<path d="M2062 48h0"></path>
<path d="M1959.5 48a10 10 0 0 0 10 -10v0a10 10 0 0 1 10 -10"></path>
<g>
<path d="M1979.5 28h62.5"></path>
</g>
<path d="M2042 28a10 10 0 0 1 10 10v0a10 10 0 0 0 10 10"></path>
<path d="M1959.5 48h20"></path>
<g class="non-terminal ">
<path d="M1979.5 48h0"></path>
<path d="M2042 48h0"></path>
<rect x="1979.5" y="37" width="62.5" height="22"></rect>
<a xlink:href="#/cds/expression/CDSAs"><text x="2010.75" y="52">CDSAs</text>
</a>
</g>
<path d="M2042 48h20"></path>
</g>
<g>
<path d="M2062 48h0"></path>
<path d="M3965.5 48h0"></path>
<path d="M2062 48a10 10 0 0 0 10 -10v0a10 10 0 0 1 10 -10"></path>
<g>
<path d="M2082 28h1863.5"></path>
</g>
<path d="M3945.5 28a10 10 0 0 1 10 10v0a10 10 0 0 0 10 10"></path>
<path d="M2062 48h20"></path>
<g>
<path d="M2082 48h0"></path>
<path d="M3945.5 48h0"></path>
<path d="M2082 48h10"></path>
<g>
<path d="M2092 48h0"></path>
<path d="M3935.5 48h0"></path>
<path d="M2092 48h20"></path>
<g class="non-terminal ">
<path d="M2112 48h832.25"></path>
<path d="M3083.25 48h832.25"></path>
<rect x="2944.25" y="37" width="139" height="22"></rect>
<a xlink:href="#/cds/expression/CDSAssociation"><text x="3013.75" y="52">CDSAssociation</text>
</a>
</g>
<path d="M3915.5 48h20"></path>
<path d="M2092 48a10 10 0 0 1 10 10v27a10 10 0 0 0 10 10"></path>
<g>
<path d="M2112 95h0"></path>
<path d="M3915.5 95h0"></path>
<g class="terminal ">
<path d="M2112 95h0"></path>
<path d="M2217 95h0"></path>
<rect x="2112" y="84" width="105" height="22" rx="10" ry="10"></rect>
<text x="2164.5" y="99">"REDEFINE"</text>
</g>
<path d="M2217 95h10"></path>
<path d="M2227 95h10"></path>
<g class="terminal ">
<path d="M2237 95h0"></path>
<path d="M2367.5 95h0"></path>
<rect x="2237" y="84" width="130.5" height="22" rx="10" ry="10"></rect>
<text x="2302.25" y="99">"ASSOCIATION"</text>
</g>
<path d="M2367.5 95h10"></path>
<path d="M2377.5 95h10"></path>
<g class="non-terminal ">
<path d="M2387.5 95h0"></path>
<path d="M2535 95h0"></path>
<rect x="2387.5" y="84" width="147.5" height="22"></rect>
<a xlink:href="#/cds/expression/CDSPrefixedName"><text x="2461.25" y="99">CDSPrefixedName</text>
</a>
</g>
<path d="M2535 95h10"></path>
<g>
<path d="M2545 95h0"></path>
<path d="M3197.5 95h0"></path>
<path d="M2545 95a10 10 0 0 0 10 -10v-8a10 10 0 0 1 10 -10"></path>
<g>
<path d="M2565 67h612.5"></path>
</g>
<path d="M3177.5 67a10 10 0 0 1 10 10v8a10 10 0 0 0 10 10"></path>
<path d="M2545 95h20"></path>
<g>
<path d="M2565 95h0"></path>
<path d="M3177.5 95h0"></path>
<g class="terminal ">
<path d="M2565 95h0"></path>
<path d="M2610.5 95h0"></path>
<rect x="2565" y="84" width="45.5" height="22" rx="10" ry="10"></rect>
<text x="2587.75" y="99">"&#91;"</text>
</g>
<path d="M2610.5 95h10"></path>
<g>
<path d="M2620.5 95h0"></path>
<path d="M2980 95h0"></path>
<path d="M2620.5 95a10 10 0 0 0 10 -10v0a10 10 0 0 1 10 -10"></path>
<g>
<path d="M2640.5 75h319.5"></path>
</g>
<path d="M2960 75a10 10 0 0 1 10 10v0a10 10 0 0 0 10 10"></path>
<path d="M2620.5 95h20"></path>
<g>
<path d="M2640.5 95h0"></path>
<path d="M2960 95h0"></path>
<g>
<path d="M2640.5 95h0"></path>
<path d="M2904.5 95h0"></path>
<path d="M2640.5 95h20"></path>
<g class="terminal ">
<path d="M2660.5 95h0"></path>
<path d="M2884.5 95h0"></path>
<rect x="2660.5" y="84" width="224" height="22" rx="10" ry="10"></rect>
<text x="2772.5" y="99">"EXACT ONE TO EXACT ONE"</text>
</g>
<path d="M2884.5 95h20"></path>
<path d="M2640.5 95a10 10 0 0 1 10 10v10a10 10 0 0 0 10 10"></path>
<g class="terminal ">
<path d="M2660.5 125h21.25"></path>
<path d="M2863.25 125h21.25"></path>
<rect x="2681.75" y="114" width="181.5" height="22" rx="10" ry="10"></rect>
<text x="2772.5" y="129">"EXACT ONE TO MANY"</text>
</g>
<path d="M2884.5 125a10 10 0 0 0 10 -10v-10a10 10 0 0 1 10 -10"></path>
<path d="M2640.5 95a10 10 0 0 1 10 10v40a10 10 0 0 0 10 10"></path>
<g class="terminal ">
<path d="M2660.5 155h25.5"></path>
<path d="M2859 155h25.5"></path>
<rect x="2686" y="144" width="173" height="22" rx="10" ry="10"></rect>
<text x="2772.5" y="159">"EXACT ONE TO ONE"</text>
</g>
<path d="M2884.5 155a10 10 0 0 0 10 -10v-40a10 10 0 0 1 10 -10"></path>
<path d="M2640.5 95a10 10 0 0 1 10 10v70a10 10 0 0 0 10 10"></path>
<g class="terminal ">
<path d="M2660.5 185h21.25"></path>
<path d="M2863.25 185h21.25"></path>
<rect x="2681.75" y="174" width="181.5" height="22" rx="10" ry="10"></rect>
<text x="2772.5" y="189">"MANY TO EXACT ONE"</text>
</g>
<path d="M2884.5 185a10 10 0 0 0 10 -10v-70a10 10 0 0 1 10 -10"></path>
<path d="M2640.5 95a10 10 0 0 1 10 10v100a10 10 0 0 0 10 10"></path>
<g class="terminal ">
<path d="M2660.5 215h42.5"></path>
<path d="M2842 215h42.5"></path>
<rect x="2703" y="204" width="139" height="22" rx="10" ry="10"></rect>
<text x="2772.5" y="219">"MANY TO MANY"</text>
</g>
<path d="M2884.5 215a10 10 0 0 0 10 -10v-100a10 10 0 0 1 10 -10"></path>
<path d="M2640.5 95a10 10 0 0 1 10 10v130a10 10 0 0 0 10 10"></path>
<g class="terminal ">
<path d="M2660.5 245h46.75"></path>
<path d="M2837.75 245h46.75"></path>
<rect x="2707.25" y="234" width="130.5" height="22" rx="10" ry="10"></rect>
<text x="2772.5" y="249">"MANY TO ONE"</text>
</g>
<path d="M2884.5 245a10 10 0 0 0 10 -10v-130a10 10 0 0 1 10 -10"></path>
<path d="M2640.5 95a10 10 0 0 1 10 10v160a10 10 0 0 0 10 10"></path>
<g class="terminal ">
<path d="M2660.5 275h25.5"></path>
<path d="M2859 275h25.5"></path>
<rect x="2686" y="264" width="173" height="22" rx="10" ry="10"></rect>
<text x="2772.5" y="279">"ONE TO EXACT ONE"</text>
</g>
<path d="M2884.5 275a10 10 0 0 0 10 -10v-160a10 10 0 0 1 10 -10"></path>
<path d="M2640.5 95a10 10 0 0 1 10 10v190a10 10 0 0 0 10 10"></path>
<g class="terminal ">
<path d="M2660.5 305h46.75"></path>
<path d="M2837.75 305h46.75"></path>
<rect x="2707.25" y="294" width="130.5" height="22" rx="10" ry="10"></rect>
<text x="2772.5" y="309">"ONE TO MANY"</text>
</g>
<path d="M2884.5 305a10 10 0 0 0 10 -10v-190a10 10 0 0 1 10 -10"></path>
<path d="M2640.5 95a10 10 0 0 1 10 10v220a10 10 0 0 0 10 10"></path>
<g class="terminal ">
<path d="M2660.5 335h51"></path>
<path d="M2833.5 335h51"></path>
<rect x="2711.5" y="324" width="122" height="22" rx="10" ry="10"></rect>
<text x="2772.5" y="339">"ONE TO ONE"</text>
</g>
<path d="M2884.5 335a10 10 0 0 0 10 -10v-220a10 10 0 0 1 10 -10"></path>
<path d="M2640.5 95a10 10 0 0 1 10 10v250a10 10 0 0 0 10 10"></path>
<g class="terminal ">
<path d="M2660.5 365h42.5"></path>
<path d="M2842 365h42.5"></path>
<rect x="2703" y="354" width="139" height="22" rx="10" ry="10"></rect>
<text x="2772.5" y="369">"TO EXACT ONE"</text>
</g>
<path d="M2884.5 365a10 10 0 0 0 10 -10v-250a10 10 0 0 1 10 -10"></path>
<path d="M2640.5 95a10 10 0 0 1 10 10v280a10 10 0 0 0 10 10"></path>
<g class="terminal ">
<path d="M2660.5 395h68"></path>
<path d="M2816.5 395h68"></path>
<rect x="2728.5" y="384" width="88" height="22" rx="10" ry="10"></rect>
<text x="2772.5" y="399">"TO ONE"</text>
</g>
<path d="M2884.5 395a10 10 0 0 0 10 -10v-280a10 10 0 0 1 10 -10"></path>
<path d="M2640.5 95a10 10 0 0 1 10 10v310a10 10 0 0 0 10 10"></path>
<g class="terminal ">
<path d="M2660.5 425h63.75"></path>
<path d="M2820.75 425h63.75"></path>
<rect x="2724.25" y="414" width="96.5" height="22" rx="10" ry="10"></rect>
<text x="2772.5" y="429">"TO MANY"</text>
</g>
<path d="M2884.5 425a10 10 0 0 0 10 -10v-310a10 10 0 0 1 10 -10"></path>
<path d="M2640.5 95a10 10 0 0 1 10 10v340a10 10 0 0 0 10 10"></path>
<g class="non-terminal ">
<path d="M2660.5 455h59.5"></path>
<path d="M2825 455h59.5"></path>
<rect x="2720" y="444" width="105" height="22"></rect>
<a xlink:href="#/cds/expression/CDSInteger"><text x="2772.5" y="459">CDSInteger</text>
</a>
</g>
<path d="M2884.5 455a10 10 0 0 0 10 -10v-340a10 10 0 0 1 10 -10"></path>
<path d="M2640.5 95a10 10 0 0 1 10 10v370a10 10 0 0 0 10 10"></path>
<g class="terminal ">
<path d="M2660.5 485h89.25"></path>
<path d="M2795.25 485h89.25"></path>
<rect x="2749.75" y="474" width="45.5" height="22" rx="10" ry="10"></rect>
<text x="2772.5" y="489">"&#42;"</text>
</g>
<path d="M2884.5 485a10 10 0 0 0 10 -10v-370a10 10 0 0 1 10 -10"></path>
</g>
<path d="M2904.5 95h10"></path>
<g class="terminal ">
<path d="M2914.5 95h0"></path>
<path d="M2960 95h0"></path>
<rect x="2914.5" y="84" width="45.5" height="22" rx="10" ry="10"></rect>
<text x="2937.25" y="99">":"</text>
</g>
</g>
<path d="M2960 95h20"></path>
</g>
<path d="M2980 95h10"></path>
<g class="non-terminal ">
<path d="M2990 95h0"></path>
<path d="M3112 95h0"></path>
<rect x="2990" y="84" width="122" height="22"></rect>
<a xlink:href="#/cds/expression/CDSCondition"><text x="3051" y="99">CDSCondition</text>
</a>
</g>
<path d="M3112 95h10"></path>
<path d="M3122 95h10"></path>
<g class="terminal ">
<path d="M3132 95h0"></path>
<path d="M3177.5 95h0"></path>
<rect x="3132" y="84" width="45.5" height="22" rx="10" ry="10"></rect>
<text x="3154.75" y="99">"&#93;"</text>
</g>
</g>
<path d="M3177.5 95h20"></path>
</g>
<g>
<path d="M3197.5 95h0"></path>
<path d="M3300 95h0"></path>
<path d="M3197.5 95a10 10 0 0 0 10 -10v0a10 10 0 0 1 10 -10"></path>
<g>
<path d="M3217.5 75h62.5"></path>
</g>
<path d="M3280 75a10 10 0 0 1 10 10v0a10 10 0 0 0 10 10"></path>
<path d="M3197.5 95h20"></path>
<g class="non-terminal ">
<path d="M3217.5 95h0"></path>
<path d="M3280 95h0"></path>
<rect x="3217.5" y="84" width="62.5" height="22"></rect>
<a xlink:href="#/cds/expression/CDSAs"><text x="3248.75" y="99">CDSAs</text>
</a>
</g>
<path d="M3280 95h20"></path>
</g>
<path d="M3300 95h10"></path>
<g class="terminal ">
<path d="M3310 95h0"></path>
<path d="M3432 95h0"></path>
<rect x="3310" y="84" width="122" height="22" rx="10" ry="10"></rect>
<text x="3371" y="99">"REDIRECTED"</text>
</g>
<path d="M3432 95h10"></path>
<path d="M3442 95h10"></path>
<g class="terminal ">
<path d="M3452 95h0"></path>
<path d="M3506 95h0"></path>
<rect x="3452" y="84" width="54" height="22" rx="10" ry="10"></rect>
<text x="3479" y="99">"TO"</text>
</g>
<path d="M3506 95h10"></path>
<g>
<path d="M3516 95h0"></path>
<path d="M3826 95h0"></path>
<path d="M3516 95a10 10 0 0 0 10 -10v0a10 10 0 0 1 10 -10"></path>
<g>
<path d="M3536 75h270"></path>
</g>
<path d="M3806 75a10 10 0 0 1 10 10v0a10 10 0 0 0 10 10"></path>
<path d="M3516 95h20"></path>
<g>
<path d="M3536 95h0"></path>
<path d="M3806 95h0"></path>
<path d="M3536 95h20"></path>
<g>
<path d="M3556 95h0"></path>
<path d="M3786 95h0"></path>
<g class="terminal ">
<path d="M3556 95h0"></path>
<path d="M3686.5 95h0"></path>
<rect x="3556" y="84" width="130.5" height="22" rx="10" ry="10"></rect>
<text x="3621.25" y="99">"COMPOSITION"</text>
</g>
<path d="M3686.5 95h10"></path>
<path d="M3696.5 95h10"></path>
<g class="terminal ">
<path d="M3706.5 95h0"></path>
<path d="M3786 95h0"></path>
<rect x="3706.5" y="84" width="79.5" height="22" rx="10" ry="10"></rect>
<text x="3746.25" y="99">"CHILD"</text>
</g>
</g>
<path d="M3786 95h20"></path>
<path d="M3536 95a10 10 0 0 1 10 10v10a10 10 0 0 0 10 10"></path>
<g class="terminal ">
<path d="M3556 125h71"></path>
<path d="M3715 125h71"></path>
<rect x="3627" y="114" width="88" height="22" rx="10" ry="10"></rect>
<text x="3671" y="129">"PARENT"</text>
</g>
<path d="M3786 125a10 10 0 0 0 10 -10v-10a10 10 0 0 1 10 -10"></path>
</g>
<path d="M3806 95h20"></path>
</g>
<path d="M3826 95h10"></path>
<g class="non-terminal ">
<path d="M3836 95h0"></path>
<path d="M3915.5 95h0"></path>
<rect x="3836" y="84" width="79.5" height="22"></rect>
<a xlink:href="#/cds/expression/CDSName"><text x="3875.75" y="99">CDSName</text>
</a>
</g>
</g>
<path d="M3915.5 95a10 10 0 0 0 10 -10v-27a10 10 0 0 1 10 -10"></path>
</g>
<path d="M3935.5 48h10"></path>
<path d="M2092 48a10 10 0 0 0 -10 10v436a10 10 0 0 0 10 10"></path>
<g>
<path d="M2092 504h1843.5"></path>
</g>
<path d="M3935.5 504a10 10 0 0 0 10 -10v-436a10 10 0 0 0 -10 -10"></path>
</g>
<path d="M3945.5 48h20"></path>
</g>
<g>
<path d="M3965.5 48h0"></path>
<path d="M5833 48h0"></path>
<path d="M3965.5 48a10 10 0 0 0 10 -10v-8a10 10 0 0 1 10 -10"></path>
<g>
<path d="M3985.5 20h1827.5"></path>
</g>
<path d="M5813 20a10 10 0 0 1 10 10v8a10 10 0 0 0 10 10"></path>
<path d="M3965.5 48h20"></path>
<g>
<path d="M3985.5 48h0"></path>
<path d="M5813 48h0"></path>
<path d="M3985.5 48h10"></path>
<g>
<path d="M3995.5 48h0"></path>
<path d="M5803 48h0"></path>
<g class="terminal ">
<path d="M3995.5 48h0"></path>
<path d="M4066.5 48h0"></path>
<rect x="3995.5" y="37" width="71" height="22" rx="10" ry="10"></rect>
<text x="4031" y="52">"BIND"</text>
</g>
<path d="M4066.5 48h10"></path>
<path d="M4076.5 48h10"></path>
<g class="terminal ">
<path d="M4086.5 48h0"></path>
<path d="M4174.5 48h0"></path>
<rect x="4086.5" y="37" width="88" height="22" rx="10" ry="10"></rect>
<text x="4130.5" y="52">"ASPECT"</text>
</g>
<path d="M4174.5 48h10"></path>
<path d="M4184.5 48h10"></path>
<g class="non-terminal ">
<path d="M4194.5 48h0"></path>
<path d="M4274 48h0"></path>
<rect x="4194.5" y="37" width="79.5" height="22"></rect>
<a xlink:href="#/cds/expression/CDSName"><text x="4234.25" y="52">CDSName</text>
</a>
</g>
<path d="M4274 48h10"></path>
<path d="M4284 48h10"></path>
<g class="terminal ">
<path d="M4294 48h0"></path>
<path d="M4339.5 48h0"></path>
<rect x="4294" y="37" width="45.5" height="22" rx="10" ry="10"></rect>
<text x="4316.75" y="52">"("</text>
</g>
<path d="M4339.5 48h10"></path>
<path d="M4349.5 48h10"></path>
<g>
<path d="M4359.5 48h0"></path>
<path d="M4884 48h0"></path>
<g class="non-terminal ">
<path d="M4359.5 48h0"></path>
<path d="M4507 48h0"></path>
<rect x="4359.5" y="37" width="147.5" height="22"></rect>
<a xlink:href="#/cds/expression/CDSPrefixedName"><text x="4433.25" y="52">CDSPrefixedName</text>
</a>
</g>
<path d="M4507 48h10"></path>
<path d="M4517 48h10"></path>
<g class="terminal ">
<path d="M4527 48h0"></path>
<path d="M4572.5 48h0"></path>
<rect x="4527" y="37" width="45.5" height="22" rx="10" ry="10"></rect>
<text x="4549.75" y="52">"="</text>
</g>
<path d="M4572.5 48h10"></path>
<path d="M4582.5 48h10"></path>
<g class="terminal ">
<path d="M4592.5 48h0"></path>
<path d="M4638 48h0"></path>
<rect x="4592.5" y="37" width="45.5" height="22" rx="10" ry="10"></rect>
<text x="4615.25" y="52">">"</text>
</g>
<path d="M4638 48h10"></path>
<g>
<path d="M4648 48h0"></path>
<path d="M4884 48h0"></path>
<path d="M4648 48h20"></path>
<g>
<path d="M4668 48h0"></path>
<path d="M4864 48h0"></path>
<g class="non-terminal ">
<path d="M4668 48h0"></path>
<path d="M4747.5 48h0"></path>
<rect x="4668" y="37" width="79.5" height="22"></rect>
<a xlink:href="#/cds/expression/CDSType"><text x="4707.75" y="52">CDSType</text>
</a>
</g>
<path d="M4747.5 48h10"></path>
<path d="M4757.5 48h10"></path>
<g class="non-terminal ">
<path d="M4767.5 48h0"></path>
<path d="M4864 48h0"></path>
<rect x="4767.5" y="37" width="96.5" height="22"></rect>
<a xlink:href="#/cds/expression/CDSString"><text x="4815.75" y="52">CDSString</text>
</a>
</g>
</g>
<path d="M4864 48h20"></path>
<path d="M4648 48a10 10 0 0 1 10 10v10a10 10 0 0 0 10 10"></path>
<g class="non-terminal ">
<path d="M4668 78h49.75"></path>
<path d="M4814.25 78h49.75"></path>
<rect x="4717.75" y="67" width="96.5" height="22"></rect>
<a xlink:href="#/cds/expression/CDSString"><text x="4766" y="82">CDSString</text>
</a>
</g>
<path d="M4864 78a10 10 0 0 0 10 -10v-10a10 10 0 0 1 10 -10"></path>
<path d="M4648 48a10 10 0 0 1 10 10v40a10 10 0 0 0 10 10"></path>
<g class="non-terminal ">
<path d="M4668 108h24.25"></path>
<path d="M4839.75 108h24.25"></path>
<rect x="4692.25" y="97" width="147.5" height="22"></rect>
<a xlink:href="#/cds/expression/CDSPrefixedName"><text x="4766" y="112">CDSPrefixedName</text>
</a>
</g>
<path d="M4864 108a10 10 0 0 0 10 -10v-40a10 10 0 0 1 10 -10"></path>
</g>
</g>
<path d="M4884 48h10"></path>
<g>
<path d="M4894 48h0"></path>
<path d="M5544 48h0"></path>
<path d="M4894 48a10 10 0 0 0 10 -10v0a10 10 0 0 1 10 -10"></path>
<g>
<path d="M4914 28h610"></path>
</g>
<path d="M5524 28a10 10 0 0 1 10 10v0a10 10 0 0 0 10 10"></path>
<path d="M4894 48h20"></path>
<g>
<path d="M4914 48h0"></path>
<path d="M5524 48h0"></path>
<path d="M4914 48h10"></path>
<g>
<path d="M4924 48h0"></path>
<path d="M5514 48h0"></path>
<g class="terminal ">
<path d="M4924 48h0"></path>
<path d="M4969.5 48h0"></path>
<rect x="4924" y="37" width="45.5" height="22" rx="10" ry="10"></rect>
<text x="4946.75" y="52">","</text>
</g>
<path d="M4969.5 48h10"></path>
<path d="M4979.5 48h10"></path>
<g>
<path d="M4989.5 48h0"></path>
<path d="M5514 48h0"></path>
<g class="non-terminal ">
<path d="M4989.5 48h0"></path>
<path d="M5137 48h0"></path>
<rect x="4989.5" y="37" width="147.5" height="22"></rect>
<a xlink:href="#/cds/expression/CDSPrefixedName"><text x="5063.25" y="52">CDSPrefixedName</text>
</a>
</g>
<path d="M5137 48h10"></path>
<path d="M5147 48h10"></path>
<g class="terminal ">
<path d="M5157 48h0"></path>
<path d="M5202.5 48h0"></path>
<rect x="5157" y="37" width="45.5" height="22" rx="10" ry="10"></rect>
<text x="5179.75" y="52">"="</text>
</g>
<path d="M5202.5 48h10"></path>
<path d="M5212.5 48h10"></path>
<g class="terminal ">
<path d="M5222.5 48h0"></path>
<path d="M5268 48h0"></path>
<rect x="5222.5" y="37" width="45.5" height="22" rx="10" ry="10"></rect>
<text x="5245.25" y="52">">"</text>
</g>
<path d="M5268 48h10"></path>
<g>
<path d="M5278 48h0"></path>
<path d="M5514 48h0"></path>
<path d="M5278 48h20"></path>
<g>
<path d="M5298 48h0"></path>
<path d="M5494 48h0"></path>
<g class="non-terminal ">
<path d="M5298 48h0"></path>
<path d="M5377.5 48h0"></path>
<rect x="5298" y="37" width="79.5" height="22"></rect>
<a xlink:href="#/cds/expression/CDSType"><text x="5337.75" y="52">CDSType</text>
</a>
</g>
<path d="M5377.5 48h10"></path>
<path d="M5387.5 48h10"></path>
<g class="non-terminal ">
<path d="M5397.5 48h0"></path>
<path d="M5494 48h0"></path>
<rect x="5397.5" y="37" width="96.5" height="22"></rect>
<a xlink:href="#/cds/expression/CDSString"><text x="5445.75" y="52">CDSString</text>
</a>
</g>
</g>
<path d="M5494 48h20"></path>
<path d="M5278 48a10 10 0 0 1 10 10v10a10 10 0 0 0 10 10"></path>
<g class="non-terminal ">
<path d="M5298 78h49.75"></path>
<path d="M5444.25 78h49.75"></path>
<rect x="5347.75" y="67" width="96.5" height="22"></rect>
<a xlink:href="#/cds/expression/CDSString"><text x="5396" y="82">CDSString</text>
</a>
</g>
<path d="M5494 78a10 10 0 0 0 10 -10v-10a10 10 0 0 1 10 -10"></path>
<path d="M5278 48a10 10 0 0 1 10 10v40a10 10 0 0 0 10 10"></path>
<g class="non-terminal ">
<path d="M5298 108h24.25"></path>
<path d="M5469.75 108h24.25"></path>
<rect x="5322.25" y="97" width="147.5" height="22"></rect>
<a xlink:href="#/cds/expression/CDSPrefixedName"><text x="5396" y="112">CDSPrefixedName</text>
</a>
</g>
<path d="M5494 108a10 10 0 0 0 10 -10v-40a10 10 0 0 1 10 -10"></path>
</g>
</g>
</g>
<path d="M5514 48h10"></path>
<path d="M4924 48a10 10 0 0 0 -10 10v59a10 10 0 0 0 10 10"></path>
<g>
<path d="M4924 127h590"></path>
</g>
<path d="M5514 127a10 10 0 0 0 10 -10v-59a10 10 0 0 0 -10 -10"></path>
</g>
<path d="M5524 48h20"></path>
</g>
<path d="M5544 48h10"></path>
<g class="terminal ">
<path d="M5554 48h0"></path>
<path d="M5599.5 48h0"></path>
<rect x="5554" y="37" width="45.5" height="22" rx="10" ry="10"></rect>
<text x="5576.75" y="52">")"</text>
</g>
<path d="M5599.5 48h10"></path>
<g>
<path d="M5609.5 48h0"></path>
<path d="M5803 48h0"></path>
<path d="M5609.5 48a10 10 0 0 0 10 -10v0a10 10 0 0 1 10 -10"></path>
<g>
<path d="M5629.5 28h153.5"></path>
</g>
<path d="M5783 28a10 10 0 0 1 10 10v0a10 10 0 0 0 10 10"></path>
<path d="M5609.5 48h20"></path>
<g>
<path d="M5629.5 48h0"></path>
<path d="M5783 48h0"></path>
<g class="terminal ">
<path d="M5629.5 48h0"></path>
<path d="M5683.5 48h0"></path>
<rect x="5629.5" y="37" width="54" height="22" rx="10" ry="10"></rect>
<text x="5656.5" y="52">"AS"</text>
</g>
<path d="M5683.5 48h10"></path>
<path d="M5693.5 48h10"></path>
<g class="non-terminal ">
<path d="M5703.5 48h0"></path>
<path d="M5783 48h0"></path>
<rect x="5703.5" y="37" width="79.5" height="22"></rect>
<a xlink:href="#/cds/expression/CDSName"><text x="5743.25" y="52">CDSName</text>
</a>
</g>
</g>
<path d="M5783 48h20"></path>
</g>
</g>
<path d="M5803 48h10"></path>
<path d="M3995.5 48a10 10 0 0 0 -10 10v67a10 10 0 0 0 10 10"></path>
<g>
<path d="M3995.5 135h1807.5"></path>
</g>
<path d="M5803 135a10 10 0 0 0 10 -10v-67a10 10 0 0 0 -10 -10"></path>
</g>
<path d="M5813 48h20"></path>
</g>
<path d="M5833 48h10"></path>
<g class="terminal ">
<path d="M5843 48h0"></path>
<path d="M5888.5 48h0"></path>
<rect x="5843" y="37" width="45.5" height="22" rx="10" ry="10"></rect>
<text x="5865.75" y="52">"{"</text>
</g>
<path d="M5888.5 48h10"></path>
<path d="M5898.5 48h10"></path>
<g>
<path d="M5908.5 48h0"></path>
<path d="M6339.5 48h0"></path>
<g class="non-terminal ">
<path d="M5908.5 48h0"></path>
<path d="M6013.5 48h0"></path>
<rect x="5908.5" y="37" width="105" height="22"></rect>
<a xlink:href="#/cds/expression/CDSElement"><text x="5961" y="52">CDSElement</text>
</a>
</g>
<path d="M6013.5 48h10"></path>
<g>
<path d="M6023.5 48h0"></path>
<path d="M6254 48h0"></path>
<path d="M6023.5 48a10 10 0 0 0 10 -10v0a10 10 0 0 1 10 -10"></path>
<g>
<path d="M6043.5 28h190.5"></path>
</g>
<path d="M6234 28a10 10 0 0 1 10 10v0a10 10 0 0 0 10 10"></path>
<path d="M6023.5 48h20"></path>
<g>
<path d="M6043.5 48h0"></path>
<path d="M6234 48h0"></path>
<path d="M6043.5 48h10"></path>
<g>
<path d="M6053.5 48h0"></path>
<path d="M6224 48h0"></path>
<g class="terminal ">
<path d="M6053.5 48h0"></path>
<path d="M6099 48h0"></path>
<rect x="6053.5" y="37" width="45.5" height="22" rx="10" ry="10"></rect>
<text x="6076.25" y="52">","</text>
</g>
<path d="M6099 48h10"></path>
<path d="M6109 48h10"></path>
<g class="non-terminal ">
<path d="M6119 48h0"></path>
<path d="M6224 48h0"></path>
<rect x="6119" y="37" width="105" height="22"></rect>
<a xlink:href="#/cds/expression/CDSElement"><text x="6171.5" y="52">CDSElement</text>
</a>
</g>
</g>
<path d="M6224 48h10"></path>
<path d="M6053.5 48a10 10 0 0 0 -10 10v0a10 10 0 0 0 10 10"></path>
<g>
<path d="M6053.5 68h170.5"></path>
</g>
<path d="M6224 68a10 10 0 0 0 10 -10v0a10 10 0 0 0 -10 -10"></path>
</g>
<path d="M6234 48h20"></path>
</g>
<g>
<path d="M6254 48h0"></path>
<path d="M6339.5 48h0"></path>
<path d="M6254 48a10 10 0 0 0 10 -10v0a10 10 0 0 1 10 -10"></path>
<g>
<path d="M6274 28h45.5"></path>
</g>
<path d="M6319.5 28a10 10 0 0 1 10 10v0a10 10 0 0 0 10 10"></path>
<path d="M6254 48h20"></path>
<g class="terminal ">
<path d="M6274 48h0"></path>
<path d="M6319.5 48h0"></path>
<rect x="6274" y="37" width="45.5" height="22" rx="10" ry="10"></rect>
<text x="6296.75" y="52">","</text>
</g>
<path d="M6319.5 48h20"></path>
</g>
</g>
<path d="M6339.5 48h10"></path>
<path d="M6349.5 48h10"></path>
<g class="terminal ">
<path d="M6359.5 48h0"></path>
<path d="M6405 48h0"></path>
<rect x="6359.5" y="37" width="45.5" height="22" rx="10" ry="10"></rect>
<text x="6382.25" y="52">"}"</text>
</g>
<path d="M6405 48h10"></path>
<g>
<path d="M6415 48h0"></path>
<path d="M6543 48h0"></path>
<path d="M6415 48a10 10 0 0 0 10 -10v0a10 10 0 0 1 10 -10"></path>
<g>
<path d="M6435 28h88"></path>
</g>
<path d="M6523 28a10 10 0 0 1 10 10v0a10 10 0 0 0 10 10"></path>
<path d="M6415 48h20"></path>
<g class="non-terminal ">
<path d="M6435 48h0"></path>
<path d="M6523 48h0"></path>
<rect x="6435" y="37" width="88" height="22"></rect>
<a xlink:href="#/cds/expression/CDSWhere"><text x="6479" y="52">CDSWhere</text>
</a>
</g>
<path d="M6523 48h20"></path>
</g>
<g>
<path d="M6543 48h0"></path>
<path d="M6628.5 48h0"></path>
<path d="M6543 48a10 10 0 0 0 10 -10v0a10 10 0 0 1 10 -10"></path>
<g>
<path d="M6563 28h45.5"></path>
</g>
<path d="M6608.5 28a10 10 0 0 1 10 10v0a10 10 0 0 0 10 10"></path>
<path d="M6543 48h20"></path>
<g class="terminal ">
<path d="M6563 48h0"></path>
<path d="M6608.5 48h0"></path>
<rect x="6563" y="37" width="45.5" height="22" rx="10" ry="10"></rect>
<text x="6585.75" y="52">";"</text>
</g>
<path d="M6608.5 48h20"></path>
</g>
</g>
<path d="M6628.5 48h10"></path>
<path d="M 6638.5 48 h 20 m 0 -10 v 20"></path>
</g>
</svg>
