<svg xmlns="http://www.w3.org/2000/svg" xmlns:xlink="http://www.w3.org/1999/xlink" class="railroad-diagram" width="404.5" height="242" viewBox="0 0 404.5 242">
<defs>
<style type="text/css"><![CDATA[
path {
stroke-width: 3;
stroke: black;
fill: rgba(0,0,0,0);
}
text {
font: bold 14px monospace;
text-anchor: middle;
}
text.diagram-text {
font-size: 12px;
}
a {
fill: blue;
}
text.diagram-arrow {
font-size: 16px;
}
text.label {
text-anchor: start;
}
text.comment {
font: italic 12px monospace;
}
rect {
stroke-width: 3;
stroke: black;
fill: #BCBCBC;
}
path.diagram-text {
stroke-width: 3;
stroke: black;
fill: #BCBCBC;
cursor: help;
}
]]></style>
</defs>
<g transform="translate(.5 .5)">
<g>
<path d="M20 21v20m0 -10h20"></path>
</g>
<g>
<path d="M40 31h0"></path>
<path d="M364.5 31h0"></path>
<path d="M40 31h20"></path>
<g class="non-terminal">
<path d="M60 31h0"></path>
<path d="M156.5 31h188"></path>
<rect x="60" y="20" width="96.5" height="22"></rect>
<a xlink:href="#/cds/expression/CDSString"><text x="108.25" y="35">CDSString</text>
</a>
</g>
<path d="M344.5 31h20"></path>
<path d="M40 31a10 10 0 0 1 10 10v10a10 10 0 0 0 10 10"></path>
<g class="terminal">
<path d="M60 61h0"></path>
<path d="M131 61h213.5"></path>
<rect x="60" y="50" width="71" height="22" rx="10" ry="10"></rect>
<text x="95.5" y="65">"TRUE"</text>
</g>
<path d="M344.5 61a10 10 0 0 0 10 -10v-10a10 10 0 0 1 10 -10"></path>
<path d="M40 31a10 10 0 0 1 10 10v40a10 10 0 0 0 10 10"></path>
<g class="terminal">
<path d="M60 91h0"></path>
<path d="M139.5 91h205"></path>
<rect x="60" y="80" width="79.5" height="22" rx="10" ry="10"></rect>
<text x="99.75" y="95">"FALSE"</text>
</g>
<path d="M344.5 91a10 10 0 0 0 10 -10v-40a10 10 0 0 1 10 -10"></path>
<path d="M40 31a10 10 0 0 1 10 10v70a10 10 0 0 0 10 10"></path>
<g class="terminal">
<path d="M60 121h0"></path>
<path d="M122.5 121h222"></path>
<rect x="60" y="110" width="62.5" height="22" rx="10" ry="10"></rect>
<text x="91.25" y="125">^\d+$</text>
</g>
<path d="M344.5 121a10 10 0 0 0 10 -10v-70a10 10 0 0 1 10 -10"></path>
<path d="M40 31a10 10 0 0 1 10 10v100a10 10 0 0 0 10 10"></path>
<g>
<path d="M60 151h0"></path>
<path d="M270.5 151h74"></path>
<g class="terminal">
<path d="M60 151h0"></path>
<path d="M122.5 151h0"></path>
<rect x="60" y="140" width="62.5" height="22" rx="10" ry="10"></rect>
<text x="91.25" y="155">^\d+$</text>
</g>
<path d="M122.5 151h10"></path>
<path d="M132.5 151h10"></path>
<g class="terminal">
<path d="M142.5 151h0"></path>
<path d="M188 151h0"></path>
<rect x="142.5" y="140" width="45.5" height="22" rx="10" ry="10"></rect>
<text x="165.25" y="155">"."</text>
</g>
<path d="M188 151h10"></path>
<path d="M198 151h10"></path>
<g class="terminal">
<path d="M208 151h0"></path>
<path d="M270.5 151h0"></path>
<rect x="208" y="140" width="62.5" height="22" rx="10" ry="10"></rect>
<text x="239.25" y="155">^\d+$</text>
</g>
</g>
<path d="M344.5 151a10 10 0 0 0 10 -10v-100a10 10 0 0 1 10 -10"></path>
<path d="M40 31a10 10 0 0 1 10 10v130a10 10 0 0 0 10 10"></path>
<g>
<path d="M60 181h0"></path>
<path d="M344.5 181h0"></path>
<g class="terminal">
<path d="M60 181h0"></path>
<path d="M105.5 181h0"></path>
<rect x="60" y="170" width="45.5" height="22" rx="10" ry="10"></rect>
<text x="82.75" y="185">"#"</text>
</g>
<path d="M105.5 181h10"></path>
<path d="M115.5 181h10"></path>
<g class="terminal">
<path d="M125.5 181h0"></path>
<path d="M171 181h0"></path>
<rect x="125.5" y="170" width="45.5" height="22" rx="10" ry="10"></rect>
<text x="148.25" y="185">"("</text>
</g>
<path d="M171 181h10"></path>
<path d="M181 181h10"></path>
<g class="terminal">
<path d="M191 181h0"></path>
<path d="M279 181h0"></path>
<rect x="191" y="170" width="88" height="22" rx="10" ry="10"></rect>
<text x="235" y="185">^&#91;\w&#95;&#93;+$</text>
</g>
<path d="M279 181h10"></path>
<path d="M289 181h10"></path>
<g class="terminal">
<path d="M299 181h0"></path>
<path d="M344.5 181h0"></path>
<rect x="299" y="170" width="45.5" height="22" rx="10" ry="10"></rect>
<text x="321.75" y="185">")"</text>
</g>
</g>
<path d="M344.5 181a10 10 0 0 0 10 -10v-130a10 10 0 0 1 10 -10"></path>
<path d="M40 31a10 10 0 0 1 10 10v160a10 10 0 0 0 10 10"></path>
<g class="terminal">
<path d="M60 211h0"></path>
<path d="M156.5 211h188"></path>
<rect x="60" y="200" width="96.5" height="22" rx="10" ry="10"></rect>
<text x="108.25" y="215">^#&#91;\w&#95;&#93;+$</text>
</g>
<path d="M344.5 211a10 10 0 0 0 10 -10v-160a10 10 0 0 1 10 -10"></path>
</g>
<path d="M 364.5 31 h 20 m 0 -10 v 20"></path>
</g>
</svg>
