<svg xmlns="http://www.w3.org/2000/svg" xmlns:xlink="http://www.w3.org/1999/xlink" class="railroad-diagram" width="807" height="409" viewBox="0 0 807 409">
<defs>
<style type="text/css"><![CDATA[
path {
stroke-width: 3;
stroke: black;
fill: rgba(0,0,0,0);
}
text {
font: bold 14px monospace;
text-anchor: middle;
}
text.diagram-text {
font-size: 12px;
}
a {
fill: blue;
}
text.diagram-arrow {
font-size: 16px;
}
text.label {
text-anchor: start;
}
text.comment {
font: italic 12px monospace;
}
rect {
stroke-width: 3;
stroke: black;
fill: #BCBCBC;
}
path.diagram-text {
stroke-width: 3;
stroke: black;
fill: #BCBCBC;
cursor: help;
}
]]></style>
</defs>
<g transform="translate(.5 .5)">
<g>
<path d="M20 21v20m0 -10h20"></path>
</g>
<g>
<path d="M40 31h0"></path>
<path d="M767 31h0"></path>
<path d="M40 31h20"></path>
<g class="non-terminal">
<path d="M60 31h0"></path>
<path d="M156.5 31h590.5"></path>
<rect x="60" y="20" width="96.5" height="22"></rect>
<a xlink:href="#/cds/expression/CDSString"><text x="108.25" y="35">CDSString</text>
</a>
</g>
<path d="M747 31h20"></path>
<path d="M40 31a10 10 0 0 1 10 10v10a10 10 0 0 0 10 10"></path>
<g class="terminal">
<path d="M60 61h0"></path>
<path d="M131 61h616"></path>
<rect x="60" y="50" width="71" height="22" rx="10" ry="10"></rect>
<text x="95.5" y="65">"TRUE"</text>
</g>
<path d="M747 61a10 10 0 0 0 10 -10v-10a10 10 0 0 1 10 -10"></path>
<path d="M40 31a10 10 0 0 1 10 10v40a10 10 0 0 0 10 10"></path>
<g class="terminal">
<path d="M60 91h0"></path>
<path d="M139.5 91h607.5"></path>
<rect x="60" y="80" width="79.5" height="22" rx="10" ry="10"></rect>
<text x="99.75" y="95">"FALSE"</text>
</g>
<path d="M747 91a10 10 0 0 0 10 -10v-40a10 10 0 0 1 10 -10"></path>
<path d="M40 31a10 10 0 0 1 10 10v70a10 10 0 0 0 10 10"></path>
<g class="terminal">
<path d="M60 121h0"></path>
<path d="M131 121h616"></path>
<rect x="60" y="110" width="71" height="22" rx="10" ry="10"></rect>
<text x="95.5" y="125">"NULL"</text>
</g>
<path d="M747 121a10 10 0 0 0 10 -10v-70a10 10 0 0 1 10 -10"></path>
<path d="M40 31a10 10 0 0 1 10 10v100a10 10 0 0 0 10 10"></path>
<g>
<path d="M60 151h0"></path>
<path d="M336 151h411"></path>
<g class="terminal">
<path d="M60 151h0"></path>
<path d="M105.5 151h0"></path>
<rect x="60" y="140" width="45.5" height="22" rx="10" ry="10"></rect>
<text x="82.75" y="155">"-"</text>
</g>
<path d="M105.5 151h10"></path>
<path d="M115.5 151h10"></path>
<g class="terminal">
<path d="M125.5 151h0"></path>
<path d="M188 151h0"></path>
<rect x="125.5" y="140" width="62.5" height="22" rx="10" ry="10"></rect>
<text x="156.75" y="155">^\d+$</text>
</g>
<path d="M188 151h10"></path>
<path d="M198 151h10"></path>
<g class="terminal">
<path d="M208 151h0"></path>
<path d="M253.5 151h0"></path>
<rect x="208" y="140" width="45.5" height="22" rx="10" ry="10"></rect>
<text x="230.75" y="155">"."</text>
</g>
<path d="M253.5 151h10"></path>
<path d="M263.5 151h10"></path>
<g class="terminal">
<path d="M273.5 151h0"></path>
<path d="M336 151h0"></path>
<rect x="273.5" y="140" width="62.5" height="22" rx="10" ry="10"></rect>
<text x="304.75" y="155">^\d+$</text>
</g>
</g>
<path d="M747 151a10 10 0 0 0 10 -10v-100a10 10 0 0 1 10 -10"></path>
<path d="M40 31a10 10 0 0 1 10 10v130a10 10 0 0 0 10 10"></path>
<g>
<path d="M60 181h0"></path>
<path d="M188 181h559"></path>
<g class="terminal">
<path d="M60 181h0"></path>
<path d="M105.5 181h0"></path>
<rect x="60" y="170" width="45.5" height="22" rx="10" ry="10"></rect>
<text x="82.75" y="185">"-"</text>
</g>
<path d="M105.5 181h10"></path>
<path d="M115.5 181h10"></path>
<g class="terminal">
<path d="M125.5 181h0"></path>
<path d="M188 181h0"></path>
<rect x="125.5" y="170" width="62.5" height="22" rx="10" ry="10"></rect>
<text x="156.75" y="185">^\d+$</text>
</g>
</g>
<path d="M747 181a10 10 0 0 0 10 -10v-130a10 10 0 0 1 10 -10"></path>
<path d="M40 31a10 10 0 0 1 10 10v160a10 10 0 0 0 10 10"></path>
<g>
<path d="M60 211h0"></path>
<path d="M270.5 211h476.5"></path>
<g class="terminal">
<path d="M60 211h0"></path>
<path d="M122.5 211h0"></path>
<rect x="60" y="200" width="62.5" height="22" rx="10" ry="10"></rect>
<text x="91.25" y="215">^\d+$</text>
</g>
<path d="M122.5 211h10"></path>
<path d="M132.5 211h10"></path>
<g class="terminal">
<path d="M142.5 211h0"></path>
<path d="M188 211h0"></path>
<rect x="142.5" y="200" width="45.5" height="22" rx="10" ry="10"></rect>
<text x="165.25" y="215">"."</text>
</g>
<path d="M188 211h10"></path>
<path d="M198 211h10"></path>
<g class="terminal">
<path d="M208 211h0"></path>
<path d="M270.5 211h0"></path>
<rect x="208" y="200" width="62.5" height="22" rx="10" ry="10"></rect>
<text x="239.25" y="215">^\d+$</text>
</g>
</g>
<path d="M747 211a10 10 0 0 0 10 -10v-160a10 10 0 0 1 10 -10"></path>
<path d="M40 31a10 10 0 0 1 10 10v190a10 10 0 0 0 10 10"></path>
<g class="terminal">
<path d="M60 241h0"></path>
<path d="M122.5 241h624.5"></path>
<rect x="60" y="230" width="62.5" height="22" rx="10" ry="10"></rect>
<text x="91.25" y="245">^\d+$</text>
</g>
<path d="M747 241a10 10 0 0 0 10 -10v-190a10 10 0 0 1 10 -10"></path>
<path d="M40 31a10 10 0 0 1 10 10v229a10 10 0 0 0 10 10"></path>
<g>
<path d="M60 280h0"></path>
<path d="M747 280h0"></path>
<g class="terminal">
<path d="M60 280h0"></path>
<path d="M105.5 280h0"></path>
<rect x="60" y="269" width="45.5" height="22" rx="10" ry="10"></rect>
<text x="82.75" y="284">"#"</text>
</g>
<path d="M105.5 280h10"></path>
<path d="M115.5 280h10"></path>
<g class="terminal">
<path d="M125.5 280h0"></path>
<path d="M171 280h0"></path>
<rect x="125.5" y="269" width="45.5" height="22" rx="10" ry="10"></rect>
<text x="148.25" y="284">"("</text>
</g>
<path d="M171 280h10"></path>
<path d="M181 280h10"></path>
<g>
<path d="M191 280h0"></path>
<path d="M681.5 280h0"></path>
<g>
<path d="M191 280h0"></path>
<path d="M378.5 280h0"></path>
<path d="M191 280h20"></path>
<g class="non-terminal">
<path d="M211 280h0"></path>
<path d="M307.5 280h51"></path>
<rect x="211" y="269" width="96.5" height="22"></rect>
<a xlink:href="#/cds/expression/CDSString"><text x="259.25" y="284">CDSString</text>
</a>
</g>
<path d="M358.5 280h20"></path>
<path d="M191 280a10 10 0 0 1 10 10v10a10 10 0 0 0 10 10"></path>
<g class="non-terminal">
<path d="M211 310h0"></path>
<path d="M358.5 310h0"></path>
<rect x="211" y="299" width="147.5" height="22"></rect>
<a xlink:href="#/cds/expression/CDSPrefixedName"><text x="284.75" y="314">CDSPrefixedName</text>
</a>
</g>
<path d="M358.5 310a10 10 0 0 0 10 -10v-10a10 10 0 0 1 10 -10"></path>
<path d="M191 280a10 10 0 0 1 10 10v40a10 10 0 0 0 10 10"></path>
<g class="terminal">
<path d="M211 340h0"></path>
<path d="M299 340h59.5"></path>
<rect x="211" y="329" width="88" height="22" rx="10" ry="10"></rect>
<text x="255" y="344">^&#91;\w&#95;&#93;+$</text>
</g>
<path d="M358.5 340a10 10 0 0 0 10 -10v-40a10 10 0 0 1 10 -10"></path>
</g>
<g>
<path d="M378.5 280h0"></path>
<path d="M681.5 280h0"></path>
<path d="M378.5 280a10 10 0 0 0 10 -10v0a10 10 0 0 1 10 -10"></path>
<g>
<path d="M398.5 260h263"></path>
</g>
<path d="M661.5 260a10 10 0 0 1 10 10v0a10 10 0 0 0 10 10"></path>
<path d="M378.5 280h20"></path>
<g>
<path d="M398.5 280h0"></path>
<path d="M661.5 280h0"></path>
<path d="M398.5 280h10"></path>
<g>
<path d="M408.5 280h0"></path>
<path d="M651.5 280h0"></path>
<g class="terminal">
<path d="M408.5 280h0"></path>
<path d="M454 280h0"></path>
<rect x="408.5" y="269" width="45.5" height="22" rx="10" ry="10"></rect>
<text x="431.25" y="284">"+"</text>
</g>
<path d="M454 280h10"></path>
<g>
<path d="M464 280h0"></path>
<path d="M651.5 280h0"></path>
<path d="M464 280h20"></path>
<g class="non-terminal">
<path d="M484 280h0"></path>
<path d="M580.5 280h51"></path>
<rect x="484" y="269" width="96.5" height="22"></rect>
<a xlink:href="#/cds/expression/CDSString"><text x="532.25" y="284">CDSString</text>
</a>
</g>
<path d="M631.5 280h20"></path>
<path d="M464 280a10 10 0 0 1 10 10v10a10 10 0 0 0 10 10"></path>
<g class="non-terminal">
<path d="M484 310h0"></path>
<path d="M631.5 310h0"></path>
<rect x="484" y="299" width="147.5" height="22"></rect>
<a xlink:href="#/cds/expression/CDSPrefixedName"><text x="557.75" y="314">CDSPrefixedName</text>
</a>
</g>
<path d="M631.5 310a10 10 0 0 0 10 -10v-10a10 10 0 0 1 10 -10"></path>
<path d="M464 280a10 10 0 0 1 10 10v40a10 10 0 0 0 10 10"></path>
<g class="terminal">
<path d="M484 340h0"></path>
<path d="M572 340h59.5"></path>
<rect x="484" y="329" width="88" height="22" rx="10" ry="10"></rect>
<text x="528" y="344">^&#91;\w&#95;&#93;+$</text>
</g>
<path d="M631.5 340a10 10 0 0 0 10 -10v-40a10 10 0 0 1 10 -10"></path>
</g>
</g>
<path d="M651.5 280h10"></path>
<path d="M408.5 280a10 10 0 0 0 -10 10v59a10 10 0 0 0 10 10"></path>
<g>
<path d="M408.5 359h243"></path>
</g>
<path d="M651.5 359a10 10 0 0 0 10 -10v-59a10 10 0 0 0 -10 -10"></path>
</g>
<path d="M661.5 280h20"></path>
</g>
</g>
<path d="M681.5 280h10"></path>
<path d="M691.5 280h10"></path>
<g class="terminal">
<path d="M701.5 280h0"></path>
<path d="M747 280h0"></path>
<rect x="701.5" y="269" width="45.5" height="22" rx="10" ry="10"></rect>
<text x="724.25" y="284">")"</text>
</g>
</g>
<path d="M747 280a10 10 0 0 0 10 -10v-229a10 10 0 0 1 10 -10"></path>
<path d="M40 31a10 10 0 0 1 10 10v327a10 10 0 0 0 10 10"></path>
<g class="terminal">
<path d="M60 378h0"></path>
<path d="M156.5 378h590.5"></path>
<rect x="60" y="367" width="96.5" height="22" rx="10" ry="10"></rect>
<text x="108.25" y="382">^#&#91;\w&#95;&#93;+$</text>
</g>
<path d="M747 378a10 10 0 0 0 10 -10v-327a10 10 0 0 1 10 -10"></path>
</g>
<path d="M 767 31 h 20 m 0 -10 v 20"></path>
</g>
</svg>
