<svg xmlns="http://www.w3.org/2000/svg" xmlns:xlink="http://www.w3.org/1999/xlink" class="railroad-diagram" width="1475" height="975" viewBox="0 0 1475 975">
<defs>
<style type="text/css"><![CDATA[
path {
stroke-width: 3;
stroke: black;
fill: rgba(0,0,0,0);
}
text {
font: bold 14px monospace;
text-anchor: middle;
}
text.diagram-text {
font-size: 12px;
}
a {
fill: blue;
}
text.diagram-arrow {
font-size: 16px;
}
text.label {
text-anchor: start;
}
text.comment {
font: italic 12px monospace;
}
rect {
stroke-width: 3;
stroke: black;
fill: #BCBCBC;
}
path.diagram-text {
stroke-width: 3;
stroke: black;
fill: #BCBCBC;
cursor: help;
}
]]></style>
</defs>
<g transform="translate(.5 .5)">
<g>
<path d="M20 30v20m0 -10h20"></path>
</g>
<path d="M40 40h10"></path>
<g>
<path d="M50 40h0"></path>
<path d="M1425 40h0"></path>
<g>
<path d="M50 40h0"></path>
<path d="M240.5 40h0"></path>
<path d="M50 40a10 10 0 0 0 10 -10v0a10 10 0 0 1 10 -10"></path>
<g>
<path d="M70 20h150.5"></path>
</g>
<path d="M220.5 20a10 10 0 0 1 10 10v0a10 10 0 0 0 10 10"></path>
<path d="M50 40h20"></path>
<g>
<path d="M70 40h0"></path>
<path d="M220.5 40h0"></path>
<path d="M70 40h10"></path>
<g class="non-terminal ">
<path d="M80 40h0"></path>
<path d="M210.5 40h0"></path>
<rect x="80" y="29" width="130.5" height="22"></rect>
<a xlink:href="#/cds/expression/CDSAnnotation"><text x="145.25" y="44">CDSAnnotation</text>
</a>
</g>
<path d="M210.5 40h10"></path>
<path d="M80 40a10 10 0 0 0 -10 10v0a10 10 0 0 0 10 10"></path>
<g>
<path d="M80 60h130.5"></path>
</g>
<path d="M210.5 60a10 10 0 0 0 10 -10v0a10 10 0 0 0 -10 -10"></path>
</g>
<path d="M220.5 40h20"></path>
</g>
<g>
<path d="M240.5 40h0"></path>
<path d="M1322.5 40h0"></path>
<path d="M240.5 40h20"></path>
<g>
<path d="M260.5 40h0"></path>
<path d="M1302.5 40h0"></path>
<g>
<path d="M260.5 40h0"></path>
<path d="M397 40h0"></path>
<path d="M260.5 40h20"></path>
<g class="terminal ">
<path d="M280.5 40h17"></path>
<path d="M360 40h17"></path>
<rect x="297.5" y="29" width="62.5" height="22" rx="10" ry="10"></rect>
<text x="328.75" y="44">"KEY"</text>
</g>
<path d="M377 40h20"></path>
<path d="M260.5 40a10 10 0 0 1 10 10v10a10 10 0 0 0 10 10"></path>
<g class="terminal ">
<path d="M280.5 70h0"></path>
<path d="M377 70h0"></path>
<rect x="280.5" y="59" width="96.5" height="22" rx="10" ry="10"></rect>
<text x="328.75" y="74">"VIRTUAL"</text>
</g>
<path d="M377 70a10 10 0 0 0 10 -10v-10a10 10 0 0 1 10 -10"></path>
</g>
<g>
<path d="M397 40h0"></path>
<path d="M1302.5 40h0"></path>
<path d="M397 40h20"></path>
<g>
<path d="M417 40h306.25"></path>
<path d="M976.25 40h306.25"></path>
<g class="terminal ">
<path d="M723.25 40h0"></path>
<path d="M845.25 40h0"></path>
<rect x="723.25" y="29" width="122" height="22" rx="10" ry="10"></rect>
<text x="784.25" y="44">"$EXTENSION"</text>
</g>
<path d="M845.25 40h10"></path>
<path d="M855.25 40h10"></path>
<g class="terminal ">
<path d="M865.25 40h0"></path>
<path d="M910.75 40h0"></path>
<rect x="865.25" y="29" width="45.5" height="22" rx="10" ry="10"></rect>
<text x="888" y="44">"."</text>
</g>
<path d="M910.75 40h10"></path>
<path d="M920.75 40h10"></path>
<g class="terminal ">
<path d="M930.75 40h0"></path>
<path d="M976.25 40h0"></path>
<rect x="930.75" y="29" width="45.5" height="22" rx="10" ry="10"></rect>
<text x="953.5" y="44">"&#42;"</text>
</g>
</g>
<path d="M1282.5 40h20"></path>
<path d="M397 40a10 10 0 0 1 10 10v10a10 10 0 0 0 10 10"></path>
<g class="non-terminal ">
<path d="M417 70h363.25"></path>
<path d="M919.25 70h363.25"></path>
<rect x="780.25" y="59" width="139" height="22"></rect>
<a xlink:href="#/cds/expression/CDSArithmetics"><text x="849.75" y="74">CDSArithmetics</text>
</a>
</g>
<path d="M1282.5 70a10 10 0 0 0 10 -10v-10a10 10 0 0 1 10 -10"></path>
<path d="M397 40a10 10 0 0 1 10 10v40a10 10 0 0 0 10 10"></path>
<g class="non-terminal ">
<path d="M417 100h371.75"></path>
<path d="M910.75 100h371.75"></path>
<rect x="788.75" y="89" width="122" height="22"></rect>
<a xlink:href="#/cds/expression/CDSAggregate"><text x="849.75" y="104">CDSAggregate</text>
</a>
</g>
<path d="M1282.5 100a10 10 0 0 0 10 -10v-40a10 10 0 0 1 10 -10"></path>
<path d="M397 40a10 10 0 0 1 10 10v70a10 10 0 0 0 10 10"></path>
<g class="non-terminal ">
<path d="M417 130h384.5"></path>
<path d="M898 130h384.5"></path>
<rect x="801.5" y="119" width="96.5" height="22"></rect>
<a xlink:href="#/cds/expression/CDSString"><text x="849.75" y="134">CDSString</text>
</a>
</g>
<path d="M1282.5 130a10 10 0 0 0 10 -10v-70a10 10 0 0 1 10 -10"></path>
<path d="M397 40a10 10 0 0 1 10 10v100a10 10 0 0 0 10 10"></path>
<g class="non-terminal ">
<path d="M417 160h367.5"></path>
<path d="M915 160h367.5"></path>
<rect x="784.5" y="149" width="130.5" height="22"></rect>
<a xlink:href="#/cds/expression/CDSArithParen"><text x="849.75" y="164">CDSArithParen</text>
</a>
</g>
<path d="M1282.5 160a10 10 0 0 0 10 -10v-100a10 10 0 0 1 10 -10"></path>
<path d="M397 40a10 10 0 0 1 10 10v130a10 10 0 0 0 10 10"></path>
<g class="non-terminal ">
<path d="M417 190h376"></path>
<path d="M906.5 190h376"></path>
<rect x="793" y="179" width="113.5" height="22"></rect>
<a xlink:href="#/cds/expression/CDSFunction"><text x="849.75" y="194">CDSFunction</text>
</a>
</g>
<path d="M1282.5 190a10 10 0 0 0 10 -10v-130a10 10 0 0 1 10 -10"></path>
<path d="M397 40a10 10 0 0 1 10 10v160a10 10 0 0 0 10 10"></path>
<g class="non-terminal ">
<path d="M417 220h393"></path>
<path d="M889.5 220h393"></path>
<rect x="810" y="209" width="79.5" height="22"></rect>
<a xlink:href="#/cds/expression/CDSCast"><text x="849.75" y="224">CDSCast</text>
</a>
</g>
<path d="M1282.5 220a10 10 0 0 0 10 -10v-160a10 10 0 0 1 10 -10"></path>
<path d="M397 40a10 10 0 0 1 10 10v190a10 10 0 0 0 10 10"></path>
<g class="non-terminal ">
<path d="M417 250h393"></path>
<path d="M889.5 250h393"></path>
<rect x="810" y="239" width="79.5" height="22"></rect>
<a xlink:href="#/cds/expression/CDSCase"><text x="849.75" y="254">CDSCase</text>
</a>
</g>
<path d="M1282.5 250a10 10 0 0 0 10 -10v-190a10 10 0 0 1 10 -10"></path>
<path d="M397 40a10 10 0 0 1 10 10v220a10 10 0 0 0 10 10"></path>
<g>
<path d="M417 280h327.5"></path>
<path d="M955 280h327.5"></path>
<g class="terminal ">
<path d="M744.5 280h0"></path>
<path d="M790 280h0"></path>
<rect x="744.5" y="269" width="45.5" height="22" rx="10" ry="10"></rect>
<text x="767.25" y="284">"("</text>
</g>
<path d="M790 280h10"></path>
<path d="M800 280h10"></path>
<g class="non-terminal ">
<path d="M810 280h0"></path>
<path d="M889.5 280h0"></path>
<rect x="810" y="269" width="79.5" height="22"></rect>
<a xlink:href="#/cds/expression/CDSCase"><text x="849.75" y="284">CDSCase</text>
</a>
</g>
<path d="M889.5 280h10"></path>
<path d="M899.5 280h10"></path>
<g class="terminal ">
<path d="M909.5 280h0"></path>
<path d="M955 280h0"></path>
<rect x="909.5" y="269" width="45.5" height="22" rx="10" ry="10"></rect>
<text x="932.25" y="284">")"</text>
</g>
</g>
<path d="M1282.5 280a10 10 0 0 0 10 -10v-220a10 10 0 0 1 10 -10"></path>
<path d="M397 40a10 10 0 0 1 10 10v267a10 10 0 0 0 10 10"></path>
<g>
<path d="M417 327h0"></path>
<path d="M1282.5 327h0"></path>
<g class="non-terminal ">
<path d="M417 327h0"></path>
<path d="M564.5 327h0"></path>
<rect x="417" y="316" width="147.5" height="22"></rect>
<a xlink:href="#/cds/expression/CDSPrefixedName"><text x="490.75" y="331">CDSPrefixedName</text>
</a>
</g>
<path d="M564.5 327h10"></path>
<g>
<path d="M574.5 327h0"></path>
<path d="M677 327h0"></path>
<path d="M574.5 327a10 10 0 0 0 10 -10v0a10 10 0 0 1 10 -10"></path>
<g>
<path d="M594.5 307h62.5"></path>
</g>
<path d="M657 307a10 10 0 0 1 10 10v0a10 10 0 0 0 10 10"></path>
<path d="M574.5 327h20"></path>
<g class="non-terminal ">
<path d="M594.5 327h0"></path>
<path d="M657 327h0"></path>
<rect x="594.5" y="316" width="62.5" height="22"></rect>
<a xlink:href="#/cds/expression/CDSAs"><text x="625.75" y="331">CDSAs</text>
</a>
</g>
<path d="M657 327h20"></path>
</g>
<g>
<path d="M677 327h0"></path>
<path d="M1282.5 327h0"></path>
<path d="M677 327a10 10 0 0 0 10 -10v-8a10 10 0 0 1 10 -10"></path>
<g>
<path d="M697 299h565.5"></path>
</g>
<path d="M1262.5 299a10 10 0 0 1 10 10v8a10 10 0 0 0 10 10"></path>
<path d="M677 327h20"></path>
<g>
<path d="M697 327h0"></path>
<path d="M1262.5 327h0"></path>
<path d="M697 327h20"></path>
<g>
<path d="M717 327h0"></path>
<path d="M1242.5 327h0"></path>
<g class="terminal ">
<path d="M717 327h0"></path>
<path d="M881.5 327h0"></path>
<rect x="717" y="316" width="164.5" height="22" rx="10" ry="10"></rect>
<text x="799.25" y="331">": REDIRECTED TO"</text>
</g>
<path d="M881.5 327h10"></path>
<g>
<path d="M891.5 327h0"></path>
<path d="M1153 327h0"></path>
<path d="M891.5 327a10 10 0 0 0 10 -10v0a10 10 0 0 1 10 -10"></path>
<g>
<path d="M911.5 307h221.5"></path>
</g>
<path d="M1133 307a10 10 0 0 1 10 10v0a10 10 0 0 0 10 10"></path>
<path d="M891.5 327h20"></path>
<g>
<path d="M911.5 327h0"></path>
<path d="M1133 327h0"></path>
<path d="M911.5 327h20"></path>
<g class="terminal ">
<path d="M931.5 327h46.75"></path>
<path d="M1066.25 327h46.75"></path>
<rect x="978.25" y="316" width="88" height="22" rx="10" ry="10"></rect>
<text x="1022.25" y="331">"PARENT"</text>
</g>
<path d="M1113 327h20"></path>
<path d="M911.5 327a10 10 0 0 1 10 10v10a10 10 0 0 0 10 10"></path>
<g class="terminal ">
<path d="M931.5 357h0"></path>
<path d="M1113 357h0"></path>
<rect x="931.5" y="346" width="181.5" height="22" rx="10" ry="10"></rect>
<text x="1022.25" y="361">"COMPOSITION CHILD"</text>
</g>
<path d="M1113 357a10 10 0 0 0 10 -10v-10a10 10 0 0 1 10 -10"></path>
</g>
<path d="M1133 327h20"></path>
</g>
<path d="M1153 327h10"></path>
<g class="non-terminal ">
<path d="M1163 327h0"></path>
<path d="M1242.5 327h0"></path>
<rect x="1163" y="316" width="79.5" height="22"></rect>
<a xlink:href="#/cds/expression/CDSName"><text x="1202.75" y="331">CDSName</text>
</a>
</g>
</g>
<path d="M1242.5 327h20"></path>
<path d="M697 327a10 10 0 0 1 10 10v40a10 10 0 0 0 10 10"></path>
<g>
<path d="M717 387h158.25"></path>
<path d="M1084.25 387h158.25"></path>
<g class="terminal ">
<path d="M875.25 387h0"></path>
<path d="M920.75 387h0"></path>
<rect x="875.25" y="376" width="45.5" height="22" rx="10" ry="10"></rect>
<text x="898" y="391">":"</text>
</g>
<path d="M920.75 387h10"></path>
<g>
<path d="M930.75 387h0"></path>
<path d="M1084.25 387h0"></path>
<path d="M930.75 387h20"></path>
<g class="non-terminal ">
<path d="M950.75 387h17"></path>
<path d="M1047.25 387h17"></path>
<rect x="967.75" y="376" width="79.5" height="22"></rect>
<a xlink:href="#/cds/expression/CDSType"><text x="1007.5" y="391">CDSType</text>
</a>
</g>
<path d="M1064.25 387h20"></path>
<path d="M930.75 387a10 10 0 0 1 10 10v10a10 10 0 0 0 10 10"></path>
<g class="non-terminal ">
<path d="M950.75 417h17"></path>
<path d="M1047.25 417h17"></path>
<rect x="967.75" y="406" width="79.5" height="22"></rect>
<a xlink:href="#/cds/expression/CDSName"><text x="1007.5" y="421">CDSName</text>
</a>
</g>
<path d="M1064.25 417a10 10 0 0 0 10 -10v-10a10 10 0 0 1 10 -10"></path>
<path d="M930.75 387a10 10 0 0 1 10 10v40a10 10 0 0 0 10 10"></path>
<g class="terminal ">
<path d="M950.75 447h0"></path>
<path d="M1064.25 447h0"></path>
<rect x="950.75" y="436" width="113.5" height="22" rx="10" ry="10"></rect>
<text x="1007.5" y="451">"LOCALIZED"</text>
</g>
<path d="M1064.25 447a10 10 0 0 0 10 -10v-40a10 10 0 0 1 10 -10"></path>
</g>
</g>
<path d="M1242.5 387a10 10 0 0 0 10 -10v-40a10 10 0 0 1 10 -10"></path>
</g>
<path d="M1262.5 327h20"></path>
</g>
</g>
<path d="M1282.5 327a10 10 0 0 0 10 -10v-267a10 10 0 0 1 10 -10"></path>
<path d="M397 40a10 10 0 0 1 10 10v417a10 10 0 0 0 10 10"></path>
<g class="non-terminal ">
<path d="M417 477h380.25"></path>
<path d="M902.25 477h380.25"></path>
<rect x="797.25" y="466" width="105" height="22"></rect>
<a xlink:href="#/cds/expression/CDSInteger"><text x="849.75" y="481">CDSInteger</text>
</a>
</g>
<path d="M1282.5 477a10 10 0 0 0 10 -10v-417a10 10 0 0 1 10 -10"></path>
</g>
</g>
<path d="M1302.5 40h20"></path>
<path d="M240.5 40a10 10 0 0 1 10 10v447a10 10 0 0 0 10 10"></path>
<g>
<path d="M260.5 507h68.25"></path>
<path d="M1234.25 507h68.25"></path>
<path d="M328.75 507h20"></path>
<g>
<path d="M348.75 507h306.25"></path>
<path d="M908 507h306.25"></path>
<g class="terminal ">
<path d="M655 507h0"></path>
<path d="M777 507h0"></path>
<rect x="655" y="496" width="122" height="22" rx="10" ry="10"></rect>
<text x="716" y="511">"$EXTENSION"</text>
</g>
<path d="M777 507h10"></path>
<path d="M787 507h10"></path>
<g class="terminal ">
<path d="M797 507h0"></path>
<path d="M842.5 507h0"></path>
<rect x="797" y="496" width="45.5" height="22" rx="10" ry="10"></rect>
<text x="819.75" y="511">"."</text>
</g>
<path d="M842.5 507h10"></path>
<path d="M852.5 507h10"></path>
<g class="terminal ">
<path d="M862.5 507h0"></path>
<path d="M908 507h0"></path>
<rect x="862.5" y="496" width="45.5" height="22" rx="10" ry="10"></rect>
<text x="885.25" y="511">"&#42;"</text>
</g>
</g>
<path d="M1214.25 507h20"></path>
<path d="M328.75 507a10 10 0 0 1 10 10v10a10 10 0 0 0 10 10"></path>
<g class="non-terminal ">
<path d="M348.75 537h363.25"></path>
<path d="M851 537h363.25"></path>
<rect x="712" y="526" width="139" height="22"></rect>
<a xlink:href="#/cds/expression/CDSArithmetics"><text x="781.5" y="541">CDSArithmetics</text>
</a>
</g>
<path d="M1214.25 537a10 10 0 0 0 10 -10v-10a10 10 0 0 1 10 -10"></path>
<path d="M328.75 507a10 10 0 0 1 10 10v40a10 10 0 0 0 10 10"></path>
<g class="non-terminal ">
<path d="M348.75 567h371.75"></path>
<path d="M842.5 567h371.75"></path>
<rect x="720.5" y="556" width="122" height="22"></rect>
<a xlink:href="#/cds/expression/CDSAggregate"><text x="781.5" y="571">CDSAggregate</text>
</a>
</g>
<path d="M1214.25 567a10 10 0 0 0 10 -10v-40a10 10 0 0 1 10 -10"></path>
<path d="M328.75 507a10 10 0 0 1 10 10v70a10 10 0 0 0 10 10"></path>
<g class="non-terminal ">
<path d="M348.75 597h384.5"></path>
<path d="M829.75 597h384.5"></path>
<rect x="733.25" y="586" width="96.5" height="22"></rect>
<a xlink:href="#/cds/expression/CDSString"><text x="781.5" y="601">CDSString</text>
</a>
</g>
<path d="M1214.25 597a10 10 0 0 0 10 -10v-70a10 10 0 0 1 10 -10"></path>
<path d="M328.75 507a10 10 0 0 1 10 10v100a10 10 0 0 0 10 10"></path>
<g class="non-terminal ">
<path d="M348.75 627h367.5"></path>
<path d="M846.75 627h367.5"></path>
<rect x="716.25" y="616" width="130.5" height="22"></rect>
<a xlink:href="#/cds/expression/CDSArithParen"><text x="781.5" y="631">CDSArithParen</text>
</a>
</g>
<path d="M1214.25 627a10 10 0 0 0 10 -10v-100a10 10 0 0 1 10 -10"></path>
<path d="M328.75 507a10 10 0 0 1 10 10v130a10 10 0 0 0 10 10"></path>
<g class="non-terminal ">
<path d="M348.75 657h376"></path>
<path d="M838.25 657h376"></path>
<rect x="724.75" y="646" width="113.5" height="22"></rect>
<a xlink:href="#/cds/expression/CDSFunction"><text x="781.5" y="661">CDSFunction</text>
</a>
</g>
<path d="M1214.25 657a10 10 0 0 0 10 -10v-130a10 10 0 0 1 10 -10"></path>
<path d="M328.75 507a10 10 0 0 1 10 10v160a10 10 0 0 0 10 10"></path>
<g class="non-terminal ">
<path d="M348.75 687h393"></path>
<path d="M821.25 687h393"></path>
<rect x="741.75" y="676" width="79.5" height="22"></rect>
<a xlink:href="#/cds/expression/CDSCast"><text x="781.5" y="691">CDSCast</text>
</a>
</g>
<path d="M1214.25 687a10 10 0 0 0 10 -10v-160a10 10 0 0 1 10 -10"></path>
<path d="M328.75 507a10 10 0 0 1 10 10v190a10 10 0 0 0 10 10"></path>
<g class="non-terminal ">
<path d="M348.75 717h393"></path>
<path d="M821.25 717h393"></path>
<rect x="741.75" y="706" width="79.5" height="22"></rect>
<a xlink:href="#/cds/expression/CDSCase"><text x="781.5" y="721">CDSCase</text>
</a>
</g>
<path d="M1214.25 717a10 10 0 0 0 10 -10v-190a10 10 0 0 1 10 -10"></path>
<path d="M328.75 507a10 10 0 0 1 10 10v220a10 10 0 0 0 10 10"></path>
<g>
<path d="M348.75 747h327.5"></path>
<path d="M886.75 747h327.5"></path>
<g class="terminal ">
<path d="M676.25 747h0"></path>
<path d="M721.75 747h0"></path>
<rect x="676.25" y="736" width="45.5" height="22" rx="10" ry="10"></rect>
<text x="699" y="751">"("</text>
</g>
<path d="M721.75 747h10"></path>
<path d="M731.75 747h10"></path>
<g class="non-terminal ">
<path d="M741.75 747h0"></path>
<path d="M821.25 747h0"></path>
<rect x="741.75" y="736" width="79.5" height="22"></rect>
<a xlink:href="#/cds/expression/CDSCase"><text x="781.5" y="751">CDSCase</text>
</a>
</g>
<path d="M821.25 747h10"></path>
<path d="M831.25 747h10"></path>
<g class="terminal ">
<path d="M841.25 747h0"></path>
<path d="M886.75 747h0"></path>
<rect x="841.25" y="736" width="45.5" height="22" rx="10" ry="10"></rect>
<text x="864" y="751">")"</text>
</g>
</g>
<path d="M1214.25 747a10 10 0 0 0 10 -10v-220a10 10 0 0 1 10 -10"></path>
<path d="M328.75 507a10 10 0 0 1 10 10v267a10 10 0 0 0 10 10"></path>
<g>
<path d="M348.75 794h0"></path>
<path d="M1214.25 794h0"></path>
<g class="non-terminal ">
<path d="M348.75 794h0"></path>
<path d="M496.25 794h0"></path>
<rect x="348.75" y="783" width="147.5" height="22"></rect>
<a xlink:href="#/cds/expression/CDSPrefixedName"><text x="422.5" y="798">CDSPrefixedName</text>
</a>
</g>
<path d="M496.25 794h10"></path>
<g>
<path d="M506.25 794h0"></path>
<path d="M608.75 794h0"></path>
<path d="M506.25 794a10 10 0 0 0 10 -10v0a10 10 0 0 1 10 -10"></path>
<g>
<path d="M526.25 774h62.5"></path>
</g>
<path d="M588.75 774a10 10 0 0 1 10 10v0a10 10 0 0 0 10 10"></path>
<path d="M506.25 794h20"></path>
<g class="non-terminal ">
<path d="M526.25 794h0"></path>
<path d="M588.75 794h0"></path>
<rect x="526.25" y="783" width="62.5" height="22"></rect>
<a xlink:href="#/cds/expression/CDSAs"><text x="557.5" y="798">CDSAs</text>
</a>
</g>
<path d="M588.75 794h20"></path>
</g>
<g>
<path d="M608.75 794h0"></path>
<path d="M1214.25 794h0"></path>
<path d="M608.75 794a10 10 0 0 0 10 -10v-8a10 10 0 0 1 10 -10"></path>
<g>
<path d="M628.75 766h565.5"></path>
</g>
<path d="M1194.25 766a10 10 0 0 1 10 10v8a10 10 0 0 0 10 10"></path>
<path d="M608.75 794h20"></path>
<g>
<path d="M628.75 794h0"></path>
<path d="M1194.25 794h0"></path>
<path d="M628.75 794h20"></path>
<g>
<path d="M648.75 794h0"></path>
<path d="M1174.25 794h0"></path>
<g class="terminal ">
<path d="M648.75 794h0"></path>
<path d="M813.25 794h0"></path>
<rect x="648.75" y="783" width="164.5" height="22" rx="10" ry="10"></rect>
<text x="731" y="798">": REDIRECTED TO"</text>
</g>
<path d="M813.25 794h10"></path>
<g>
<path d="M823.25 794h0"></path>
<path d="M1084.75 794h0"></path>
<path d="M823.25 794a10 10 0 0 0 10 -10v0a10 10 0 0 1 10 -10"></path>
<g>
<path d="M843.25 774h221.5"></path>
</g>
<path d="M1064.75 774a10 10 0 0 1 10 10v0a10 10 0 0 0 10 10"></path>
<path d="M823.25 794h20"></path>
<g>
<path d="M843.25 794h0"></path>
<path d="M1064.75 794h0"></path>
<path d="M843.25 794h20"></path>
<g class="terminal ">
<path d="M863.25 794h46.75"></path>
<path d="M998 794h46.75"></path>
<rect x="910" y="783" width="88" height="22" rx="10" ry="10"></rect>
<text x="954" y="798">"PARENT"</text>
</g>
<path d="M1044.75 794h20"></path>
<path d="M843.25 794a10 10 0 0 1 10 10v10a10 10 0 0 0 10 10"></path>
<g class="terminal ">
<path d="M863.25 824h0"></path>
<path d="M1044.75 824h0"></path>
<rect x="863.25" y="813" width="181.5" height="22" rx="10" ry="10"></rect>
<text x="954" y="828">"COMPOSITION CHILD"</text>
</g>
<path d="M1044.75 824a10 10 0 0 0 10 -10v-10a10 10 0 0 1 10 -10"></path>
</g>
<path d="M1064.75 794h20"></path>
</g>
<path d="M1084.75 794h10"></path>
<g class="non-terminal ">
<path d="M1094.75 794h0"></path>
<path d="M1174.25 794h0"></path>
<rect x="1094.75" y="783" width="79.5" height="22"></rect>
<a xlink:href="#/cds/expression/CDSName"><text x="1134.5" y="798">CDSName</text>
</a>
</g>
</g>
<path d="M1174.25 794h20"></path>
<path d="M628.75 794a10 10 0 0 1 10 10v40a10 10 0 0 0 10 10"></path>
<g>
<path d="M648.75 854h158.25"></path>
<path d="M1016 854h158.25"></path>
<g class="terminal ">
<path d="M807 854h0"></path>
<path d="M852.5 854h0"></path>
<rect x="807" y="843" width="45.5" height="22" rx="10" ry="10"></rect>
<text x="829.75" y="858">":"</text>
</g>
<path d="M852.5 854h10"></path>
<g>
<path d="M862.5 854h0"></path>
<path d="M1016 854h0"></path>
<path d="M862.5 854h20"></path>
<g class="non-terminal ">
<path d="M882.5 854h17"></path>
<path d="M979 854h17"></path>
<rect x="899.5" y="843" width="79.5" height="22"></rect>
<a xlink:href="#/cds/expression/CDSType"><text x="939.25" y="858">CDSType</text>
</a>
</g>
<path d="M996 854h20"></path>
<path d="M862.5 854a10 10 0 0 1 10 10v10a10 10 0 0 0 10 10"></path>
<g class="non-terminal ">
<path d="M882.5 884h17"></path>
<path d="M979 884h17"></path>
<rect x="899.5" y="873" width="79.5" height="22"></rect>
<a xlink:href="#/cds/expression/CDSName"><text x="939.25" y="888">CDSName</text>
</a>
</g>
<path d="M996 884a10 10 0 0 0 10 -10v-10a10 10 0 0 1 10 -10"></path>
<path d="M862.5 854a10 10 0 0 1 10 10v40a10 10 0 0 0 10 10"></path>
<g class="terminal ">
<path d="M882.5 914h0"></path>
<path d="M996 914h0"></path>
<rect x="882.5" y="903" width="113.5" height="22" rx="10" ry="10"></rect>
<text x="939.25" y="918">"LOCALIZED"</text>
</g>
<path d="M996 914a10 10 0 0 0 10 -10v-40a10 10 0 0 1 10 -10"></path>
</g>
</g>
<path d="M1174.25 854a10 10 0 0 0 10 -10v-40a10 10 0 0 1 10 -10"></path>
</g>
<path d="M1194.25 794h20"></path>
</g>
</g>
<path d="M1214.25 794a10 10 0 0 0 10 -10v-267a10 10 0 0 1 10 -10"></path>
<path d="M328.75 507a10 10 0 0 1 10 10v417a10 10 0 0 0 10 10"></path>
<g class="non-terminal ">
<path d="M348.75 944h380.25"></path>
<path d="M834 944h380.25"></path>
<rect x="729" y="933" width="105" height="22"></rect>
<a xlink:href="#/cds/expression/CDSInteger"><text x="781.5" y="948">CDSInteger</text>
</a>
</g>
<path d="M1214.25 944a10 10 0 0 0 10 -10v-417a10 10 0 0 1 10 -10"></path>
</g>
<path d="M1302.5 507a10 10 0 0 0 10 -10v-447a10 10 0 0 1 10 -10"></path>
</g>
<g>
<path d="M1322.5 40h0"></path>
<path d="M1425 40h0"></path>
<path d="M1322.5 40a10 10 0 0 0 10 -10v0a10 10 0 0 1 10 -10"></path>
<g>
<path d="M1342.5 20h62.5"></path>
</g>
<path d="M1405 20a10 10 0 0 1 10 10v0a10 10 0 0 0 10 10"></path>
<path d="M1322.5 40h20"></path>
<g class="non-terminal ">
<path d="M1342.5 40h0"></path>
<path d="M1405 40h0"></path>
<rect x="1342.5" y="29" width="62.5" height="22"></rect>
<a xlink:href="#/cds/expression/CDSAs"><text x="1373.75" y="44">CDSAs</text>
</a>
</g>
<path d="M1405 40h20"></path>
</g>
</g>
<path d="M1425 40h10"></path>
<path d="M 1435 40 h 20 m 0 -10 v 20"></path>
</g>
</svg>
