<svg xmlns="http://www.w3.org/2000/svg" xmlns:xlink="http://www.w3.org/1999/xlink" class="railroad-diagram" width="936" height="191" viewBox="0 0 936 191">
<defs>
<style type="text/css"><![CDATA[
path {
stroke-width: 3;
stroke: black;
fill: rgba(0,0,0,0);
}
text {
font: bold 14px monospace;
text-anchor: middle;
}
text.diagram-text {
font-size: 12px;
}
a {
fill: blue;
}
text.diagram-arrow {
font-size: 16px;
}
text.label {
text-anchor: start;
}
text.comment {
font: italic 12px monospace;
}
rect {
stroke-width: 3;
stroke: black;
fill: #BCBCBC;
}
path.diagram-text {
stroke-width: 3;
stroke: black;
fill: #BCBCBC;
cursor: help;
}
]]></style>
</defs>
<g transform="translate(.5 .5)">
<g>
<path d="M20 30v20m0 -10h20"></path>
</g>
<path d="M40 40h10"></path>
<g>
<path d="M50 40h0"></path>
<path d="M886 40h0"></path>
<g>
<path d="M50 40h0"></path>
<path d="M311.5 40h0"></path>
<path d="M50 40a10 10 0 0 0 10 -10v0a10 10 0 0 1 10 -10"></path>
<g>
<path d="M70 20h221.5"></path>
</g>
<path d="M291.5 20a10 10 0 0 1 10 10v0a10 10 0 0 0 10 10"></path>
<path d="M50 40h20"></path>
<g>
<path d="M70 40h0"></path>
<path d="M291.5 40h0"></path>
<path d="M70 40h20"></path>
<g class="terminal">
<path d="M90 40h0"></path>
<path d="M271.5 40h0"></path>
<rect x="90" y="29" width="181.5" height="22" rx="10" ry="10"></rect>
<text x="180.75" y="44">"LEFT OUTER TO ONE"</text>
</g>
<path d="M271.5 40h20"></path>
<path d="M70 40a10 10 0 0 1 10 10v10a10 10 0 0 0 10 10"></path>
<g class="terminal">
<path d="M90 70h0"></path>
<path d="M212 70h59.5"></path>
<rect x="90" y="59" width="122" height="22" rx="10" ry="10"></rect>
<text x="151" y="74">"LEFT OUTER"</text>
</g>
<path d="M271.5 70a10 10 0 0 0 10 -10v-10a10 10 0 0 1 10 -10"></path>
<path d="M70 40a10 10 0 0 1 10 10v40a10 10 0 0 0 10 10"></path>
<g class="terminal">
<path d="M90 100h0"></path>
<path d="M169.5 100h102"></path>
<rect x="90" y="89" width="79.5" height="22" rx="10" ry="10"></rect>
<text x="129.75" y="104">"INNER"</text>
</g>
<path d="M271.5 100a10 10 0 0 0 10 -10v-40a10 10 0 0 1 10 -10"></path>
<path d="M70 40a10 10 0 0 1 10 10v70a10 10 0 0 0 10 10"></path>
<g class="terminal">
<path d="M90 130h0"></path>
<path d="M169.5 130h102"></path>
<rect x="90" y="119" width="79.5" height="22" rx="10" ry="10"></rect>
<text x="129.75" y="134">"CROSS"</text>
</g>
<path d="M271.5 130a10 10 0 0 0 10 -10v-70a10 10 0 0 1 10 -10"></path>
<path d="M70 40a10 10 0 0 1 10 10v100a10 10 0 0 0 10 10"></path>
<g class="terminal">
<path d="M90 160h0"></path>
<path d="M220.5 160h51"></path>
<rect x="90" y="149" width="130.5" height="22" rx="10" ry="10"></rect>
<text x="155.25" y="164">"RIGHT OUTER"</text>
</g>
<path d="M271.5 160a10 10 0 0 0 10 -10v-100a10 10 0 0 1 10 -10"></path>
</g>
<path d="M291.5 40h20"></path>
</g>
<path d="M311.5 40h10"></path>
<g class="terminal">
<path d="M321.5 40h0"></path>
<path d="M392.5 40h0"></path>
<rect x="321.5" y="29" width="71" height="22" rx="10" ry="10"></rect>
<text x="357" y="44">"JOIN"</text>
</g>
<path d="M392.5 40h10"></path>
<g>
<path d="M402.5 40h0"></path>
<path d="M886 40h0"></path>
<path d="M402.5 40h20"></path>
<g>
<path d="M422.5 40h0"></path>
<path d="M866 40h0"></path>
<g class="terminal">
<path d="M422.5 40h0"></path>
<path d="M468 40h0"></path>
<rect x="422.5" y="29" width="45.5" height="22" rx="10" ry="10"></rect>
<text x="445.25" y="44">"("</text>
</g>
<path d="M468 40h10"></path>
<path d="M478 40h10"></path>
<g>
<path d="M488 40h0"></path>
<path d="M800.5 40h0"></path>
<g class="non-terminal">
<path d="M488 40h0"></path>
<path d="M584.5 40h0"></path>
<rect x="488" y="29" width="96.5" height="22"></rect>
<a xlink:href="#/cds/expression/CDSSource"><text x="536.25" y="44">CDSSource</text>
</a>
</g>
<path d="M584.5 40h10"></path>
<path d="M594.5 40h10"></path>
<g class="terminal">
<path d="M604.5 40h0"></path>
<path d="M658.5 40h0"></path>
<rect x="604.5" y="29" width="54" height="22" rx="10" ry="10"></rect>
<text x="631.5" y="44">"ON"</text>
</g>
<path d="M658.5 40h10"></path>
<path d="M668.5 40h10"></path>
<g class="non-terminal">
<path d="M678.5 40h0"></path>
<path d="M800.5 40h0"></path>
<rect x="678.5" y="29" width="122" height="22"></rect>
<a xlink:href="#/cds/expression/CDSCondition"><text x="739.5" y="44">CDSCondition</text>
</a>
</g>
</g>
<path d="M800.5 40h10"></path>
<path d="M810.5 40h10"></path>
<g class="terminal">
<path d="M820.5 40h0"></path>
<path d="M866 40h0"></path>
<rect x="820.5" y="29" width="45.5" height="22" rx="10" ry="10"></rect>
<text x="843.25" y="44">")"</text>
</g>
</g>
<path d="M866 40h20"></path>
<path d="M402.5 40a10 10 0 0 1 10 10v10a10 10 0 0 0 10 10"></path>
<g>
<path d="M422.5 70h0"></path>
<path d="M735 70h131"></path>
<g class="non-terminal">
<path d="M422.5 70h0"></path>
<path d="M519 70h0"></path>
<rect x="422.5" y="59" width="96.5" height="22"></rect>
<a xlink:href="#/cds/expression/CDSSource"><text x="470.75" y="74">CDSSource</text>
</a>
</g>
<path d="M519 70h10"></path>
<path d="M529 70h10"></path>
<g class="terminal">
<path d="M539 70h0"></path>
<path d="M593 70h0"></path>
<rect x="539" y="59" width="54" height="22" rx="10" ry="10"></rect>
<text x="566" y="74">"ON"</text>
</g>
<path d="M593 70h10"></path>
<path d="M603 70h10"></path>
<g class="non-terminal">
<path d="M613 70h0"></path>
<path d="M735 70h0"></path>
<rect x="613" y="59" width="122" height="22"></rect>
<a xlink:href="#/cds/expression/CDSCondition"><text x="674" y="74">CDSCondition</text>
</a>
</g>
</g>
<path d="M866 70a10 10 0 0 0 10 -10v-10a10 10 0 0 1 10 -10"></path>
</g>
</g>
<path d="M886 40h10"></path>
<path d="M 896 40 h 20 m 0 -10 v 20"></path>
</g>
</svg>
