<svg xmlns="http://www.w3.org/2000/svg" xmlns:xlink="http://www.w3.org/1999/xlink" class="railroad-diagram" width="1456.5" height="217" viewBox="0 0 1456.5 217">
<defs>
<style type="text/css"><![CDATA[
path {
stroke-width: 3;
stroke: black;
fill: rgba(0,0,0,0);
}
text {
font: bold 14px monospace;
text-anchor: middle;
}
text.diagram-text {
font-size: 12px;
}
a {
fill: blue;
}
text.diagram-arrow {
font-size: 16px;
}
text.label {
text-anchor: start;
}
text.comment {
font: italic 12px monospace;
}
rect {
stroke-width: 3;
stroke: black;
fill: #BCBCBC;
}
path.diagram-text {
stroke-width: 3;
stroke: black;
fill: #BCBCBC;
cursor: help;
}
]]></style>
</defs>
<g transform="translate(.5 .5)">
<g>
<path d="M20 38v20m0 -10h20"></path>
</g>
<path d="M40 48h10"></path>
<g>
<path d="M50 48h0"></path>
<path d="M1406.5 48h0"></path>
<g class="terminal">
<path d="M50 48h0"></path>
<path d="M180.5 48h0"></path>
<rect x="50" y="37" width="130.5" height="22" rx="10" ry="10"></rect>
<text x="115.25" y="52">"COMPOSITION"</text>
</g>
<path d="M180.5 48h10"></path>
<g>
<path d="M190.5 48h0"></path>
<path d="M673.5 48h0"></path>
<path d="M190.5 48a10 10 0 0 0 10 -10v-8a10 10 0 0 1 10 -10"></path>
<g>
<path d="M210.5 20h443"></path>
</g>
<path d="M653.5 20a10 10 0 0 1 10 10v8a10 10 0 0 0 10 10"></path>
<path d="M190.5 48h20"></path>
<g>
<path d="M210.5 48h0"></path>
<path d="M653.5 48h0"></path>
<g class="terminal">
<path d="M210.5 48h0"></path>
<path d="M256 48h0"></path>
<rect x="210.5" y="37" width="45.5" height="22" rx="10" ry="10"></rect>
<text x="233.25" y="52">"&#91;"</text>
</g>
<path d="M256 48h10"></path>
<g>
<path d="M266 48h0"></path>
<path d="M351.5 48h0"></path>
<path d="M266 48h20"></path>
<g class="terminal">
<path d="M286 48h0"></path>
<path d="M331.5 48h0"></path>
<rect x="286" y="37" width="45.5" height="22" rx="10" ry="10"></rect>
<text x="308.75" y="52">"0"</text>
</g>
<path d="M331.5 48h20"></path>
<path d="M266 48a10 10 0 0 1 10 10v10a10 10 0 0 0 10 10"></path>
<g class="terminal">
<path d="M286 78h0"></path>
<path d="M331.5 78h0"></path>
<rect x="286" y="67" width="45.5" height="22" rx="10" ry="10"></rect>
<text x="308.75" y="82">"1"</text>
</g>
<path d="M331.5 78a10 10 0 0 0 10 -10v-10a10 10 0 0 1 10 -10"></path>
<path d="M266 48a10 10 0 0 1 10 10v40a10 10 0 0 0 10 10"></path>
<g class="terminal">
<path d="M286 108h0"></path>
<path d="M331.5 108h0"></path>
<rect x="286" y="97" width="45.5" height="22" rx="10" ry="10"></rect>
<text x="308.75" y="112">"&#42;"</text>
</g>
<path d="M331.5 108a10 10 0 0 0 10 -10v-40a10 10 0 0 1 10 -10"></path>
</g>
<g>
<path d="M351.5 48h0"></path>
<path d="M598 48h0"></path>
<path d="M351.5 48a10 10 0 0 0 10 -10v0a10 10 0 0 1 10 -10"></path>
<g>
<path d="M371.5 28h206.5"></path>
</g>
<path d="M578 28a10 10 0 0 1 10 10v0a10 10 0 0 0 10 10"></path>
<path d="M351.5 48h20"></path>
<g>
<path d="M371.5 48h0"></path>
<path d="M578 48h0"></path>
<g class="terminal">
<path d="M371.5 48h0"></path>
<path d="M417 48h0"></path>
<rect x="371.5" y="37" width="45.5" height="22" rx="10" ry="10"></rect>
<text x="394.25" y="52">"."</text>
</g>
<path d="M417 48h10"></path>
<path d="M427 48h10"></path>
<g class="terminal">
<path d="M437 48h0"></path>
<path d="M482.5 48h0"></path>
<rect x="437" y="37" width="45.5" height="22" rx="10" ry="10"></rect>
<text x="459.75" y="52">"."</text>
</g>
<path d="M482.5 48h10"></path>
<g>
<path d="M492.5 48h0"></path>
<path d="M578 48h0"></path>
<path d="M492.5 48h20"></path>
<g class="terminal">
<path d="M512.5 48h0"></path>
<path d="M558 48h0"></path>
<rect x="512.5" y="37" width="45.5" height="22" rx="10" ry="10"></rect>
<text x="535.25" y="52">"0"</text>
</g>
<path d="M558 48h20"></path>
<path d="M492.5 48a10 10 0 0 1 10 10v10a10 10 0 0 0 10 10"></path>
<g class="terminal">
<path d="M512.5 78h0"></path>
<path d="M558 78h0"></path>
<rect x="512.5" y="67" width="45.5" height="22" rx="10" ry="10"></rect>
<text x="535.25" y="82">"1"</text>
</g>
<path d="M558 78a10 10 0 0 0 10 -10v-10a10 10 0 0 1 10 -10"></path>
<path d="M492.5 48a10 10 0 0 1 10 10v40a10 10 0 0 0 10 10"></path>
<g class="terminal">
<path d="M512.5 108h0"></path>
<path d="M558 108h0"></path>
<rect x="512.5" y="97" width="45.5" height="22" rx="10" ry="10"></rect>
<text x="535.25" y="112">"&#42;"</text>
</g>
<path d="M558 108a10 10 0 0 0 10 -10v-40a10 10 0 0 1 10 -10"></path>
</g>
</g>
<path d="M578 48h20"></path>
</g>
<path d="M598 48h10"></path>
<g class="terminal">
<path d="M608 48h0"></path>
<path d="M653.5 48h0"></path>
<rect x="608" y="37" width="45.5" height="22" rx="10" ry="10"></rect>
<text x="630.75" y="52">"&#93;"</text>
</g>
</g>
<path d="M653.5 48h20"></path>
</g>
<path d="M673.5 48h10"></path>
<g class="terminal">
<path d="M683.5 48h0"></path>
<path d="M737.5 48h0"></path>
<rect x="683.5" y="37" width="54" height="22" rx="10" ry="10"></rect>
<text x="710.5" y="52">"OF"</text>
</g>
<path d="M737.5 48h10"></path>
<g>
<path d="M747.5 48h0"></path>
<path d="M1283 48h0"></path>
<path d="M747.5 48a10 10 0 0 0 10 -10v0a10 10 0 0 1 10 -10"></path>
<g>
<path d="M767.5 28h495.5"></path>
</g>
<path d="M1263 28a10 10 0 0 1 10 10v0a10 10 0 0 0 10 10"></path>
<path d="M747.5 48h20"></path>
<g>
<path d="M767.5 48h0"></path>
<path d="M1263 48h0"></path>
<path d="M767.5 48h20"></path>
<g class="non-terminal">
<path d="M787.5 48h0"></path>
<path d="M926.5 48h316.5"></path>
<rect x="787.5" y="37" width="139" height="22"></rect>
<a xlink:href="#/cds/expression/CDSCardinality"><text x="857" y="52">CDSCardinality</text>
</a>
</g>
<path d="M1243 48h20"></path>
<path d="M767.5 48a10 10 0 0 1 10 10v19a10 10 0 0 0 10 10"></path>
<g>
<path d="M787.5 87h0"></path>
<path d="M1243 87h0"></path>
<path d="M787.5 87h20"></path>
<g>
<path d="M807.5 87h0"></path>
<path d="M1223 87h0"></path>
<g>
<path d="M807.5 87h0"></path>
<path d="M927 87h0"></path>
<path d="M807.5 87a10 10 0 0 0 10 -10v0a10 10 0 0 1 10 -10"></path>
<g>
<path d="M827.5 67h79.5"></path>
</g>
<path d="M907 67a10 10 0 0 1 10 10v0a10 10 0 0 0 10 10"></path>
<path d="M807.5 87h20"></path>
<g class="terminal">
<path d="M827.5 87h0"></path>
<path d="M907 87h0"></path>
<rect x="827.5" y="76" width="79.5" height="22" rx="10" ry="10"></rect>
<text x="867.25" y="91">"EXACT"</text>
</g>
<path d="M907 87h20"></path>
</g>
<g>
<path d="M927 87h0"></path>
<path d="M1038 87h0"></path>
<path d="M927 87h20"></path>
<g class="terminal">
<path d="M947 87h0"></path>
<path d="M1009.5 87h8.5"></path>
<rect x="947" y="76" width="62.5" height="22" rx="10" ry="10"></rect>
<text x="978.25" y="91">"ONE"</text>
</g>
<path d="M1018 87h20"></path>
<path d="M927 87a10 10 0 0 1 10 10v10a10 10 0 0 0 10 10"></path>
<g class="terminal">
<path d="M947 117h0"></path>
<path d="M1018 117h0"></path>
<rect x="947" y="106" width="71" height="22" rx="10" ry="10"></rect>
<text x="982.5" y="121">"MANY"</text>
</g>
<path d="M1018 117a10 10 0 0 0 10 -10v-10a10 10 0 0 1 10 -10"></path>
</g>
<path d="M1038 87h10"></path>
<g class="terminal">
<path d="M1048 87h0"></path>
<path d="M1102 87h0"></path>
<rect x="1048" y="76" width="54" height="22" rx="10" ry="10"></rect>
<text x="1075" y="91">"TO"</text>
</g>
<path d="M1102 87h10"></path>
<g>
<path d="M1112 87h0"></path>
<path d="M1223 87h0"></path>
<path d="M1112 87h20"></path>
<g class="terminal">
<path d="M1132 87h0"></path>
<path d="M1194.5 87h8.5"></path>
<rect x="1132" y="76" width="62.5" height="22" rx="10" ry="10"></rect>
<text x="1163.25" y="91">"ONE"</text>
</g>
<path d="M1203 87h20"></path>
<path d="M1112 87a10 10 0 0 1 10 10v10a10 10 0 0 0 10 10"></path>
<g class="terminal">
<path d="M1132 117h0"></path>
<path d="M1203 117h0"></path>
<rect x="1132" y="106" width="71" height="22" rx="10" ry="10"></rect>
<text x="1167.5" y="121">"MANY"</text>
</g>
<path d="M1203 117a10 10 0 0 0 10 -10v-10a10 10 0 0 1 10 -10"></path>
</g>
</g>
<path d="M1223 87h20"></path>
<path d="M787.5 87a10 10 0 0 1 10 10v49a10 10 0 0 0 10 10"></path>
<g>
<path d="M807.5 156h0"></path>
<path d="M1038 156h185"></path>
<g>
<path d="M807.5 156h0"></path>
<path d="M927 156h0"></path>
<path d="M807.5 156a10 10 0 0 0 10 -10v0a10 10 0 0 1 10 -10"></path>
<g>
<path d="M827.5 136h79.5"></path>
</g>
<path d="M907 136a10 10 0 0 1 10 10v0a10 10 0 0 0 10 10"></path>
<path d="M807.5 156h20"></path>
<g class="terminal">
<path d="M827.5 156h0"></path>
<path d="M907 156h0"></path>
<rect x="827.5" y="145" width="79.5" height="22" rx="10" ry="10"></rect>
<text x="867.25" y="160">"EXACT"</text>
</g>
<path d="M907 156h20"></path>
</g>
<g>
<path d="M927 156h0"></path>
<path d="M1038 156h0"></path>
<path d="M927 156h20"></path>
<g class="terminal">
<path d="M947 156h0"></path>
<path d="M1009.5 156h8.5"></path>
<rect x="947" y="145" width="62.5" height="22" rx="10" ry="10"></rect>
<text x="978.25" y="160">"ONE"</text>
</g>
<path d="M1018 156h20"></path>
<path d="M927 156a10 10 0 0 1 10 10v10a10 10 0 0 0 10 10"></path>
<g class="terminal">
<path d="M947 186h0"></path>
<path d="M1018 186h0"></path>
<rect x="947" y="175" width="71" height="22" rx="10" ry="10"></rect>
<text x="982.5" y="190">"MANY"</text>
</g>
<path d="M1018 186a10 10 0 0 0 10 -10v-10a10 10 0 0 1 10 -10"></path>
</g>
</g>
<path d="M1223 156a10 10 0 0 0 10 -10v-49a10 10 0 0 1 10 -10"></path>
</g>
<path d="M1243 87a10 10 0 0 0 10 -10v-19a10 10 0 0 1 10 -10"></path>
</g>
<path d="M1263 48h20"></path>
</g>
<path d="M1283 48h10"></path>
<g class="non-terminal">
<path d="M1293 48h0"></path>
<path d="M1406.5 48h0"></path>
<rect x="1293" y="37" width="113.5" height="22"></rect>
<a xlink:href="#/cds/expression/CDSRelation"><text x="1349.75" y="52">CDSRelation</text>
</a>
</g>
</g>
<path d="M1406.5 48h10"></path>
<path d="M 1416.5 48 h 20 m 0 -10 v 20"></path>
</g>
</svg>
