<svg xmlns="http://www.w3.org/2000/svg" xmlns:xlink="http://www.w3.org/1999/xlink" class="railroad-diagram" width="1242" height="278" viewBox="0 0 1242 278">
<defs>
<style type="text/css"><![CDATA[
path {
stroke-width: 3;
stroke: black;
fill: rgba(0,0,0,0);
}
text {
font: bold 14px monospace;
text-anchor: middle;
}
text.diagram-text {
font-size: 12px;
}
a {
fill: blue;
}
text.diagram-arrow {
font-size: 16px;
}
text.label {
text-anchor: start;
}
text.comment {
font: italic 12px monospace;
}
rect {
stroke-width: 3;
stroke: black;
fill: #BCBCBC;
}
path.diagram-text {
stroke-width: 3;
stroke: black;
fill: #BCBCBC;
cursor: help;
}
]]></style>
</defs>
<g transform="translate(.5 .5)">
<g>
<path d="M20 30v20m0 -10h20"></path>
</g>
<g>
<path d="M40 40h0"></path>
<path d="M1202 40h0"></path>
<path d="M40 40h20"></path>
<g>
<path d="M60 40h0"></path>
<path d="M1182 40h0"></path>
<g class="terminal ">
<path d="M60 40h0"></path>
<path d="M105.5 40h0"></path>
<rect x="60" y="29" width="45.5" height="22" rx="10" ry="10"></rect>
<text x="82.75" y="44">"("</text>
</g>
<path d="M105.5 40h10"></path>
<g>
<path d="M115.5 40h0"></path>
<path d="M987 40h0"></path>
<path d="M115.5 40h20"></path>
<g class="non-terminal ">
<path d="M135.5 40h367.5"></path>
<path d="M599.5 40h367.5"></path>
<rect x="503" y="29" width="96.5" height="22"></rect>
<a xlink:href="#/cds/expression/CDSSource"><text x="551.25" y="44">CDSSource</text>
</a>
</g>
<path d="M967 40h20"></path>
<path d="M115.5 40a10 10 0 0 1 10 10v19a10 10 0 0 0 10 10"></path>
<g>
<path d="M135.5 79h0"></path>
<path d="M967 79h0"></path>
<g class="non-terminal ">
<path d="M135.5 79h0"></path>
<path d="M283 79h0"></path>
<rect x="135.5" y="68" width="147.5" height="22"></rect>
<a xlink:href="#/cds/expression/CDSPrefixedName"><text x="209.25" y="83">CDSPrefixedName</text>
</a>
</g>
<path d="M283 79h10"></path>
<g>
<path d="M293 79h0"></path>
<path d="M514.5 79h0"></path>
<path d="M293 79a10 10 0 0 0 10 -10v0a10 10 0 0 1 10 -10"></path>
<g>
<path d="M313 59h181.5"></path>
</g>
<path d="M494.5 59a10 10 0 0 1 10 10v0a10 10 0 0 0 10 10"></path>
<path d="M293 79h20"></path>
<g class="non-terminal ">
<path d="M313 79h0"></path>
<path d="M494.5 79h0"></path>
<rect x="313" y="68" width="181.5" height="22"></rect>
<a xlink:href="#/cds/expression/CDSParametersSelect"><text x="403.75" y="83">CDSParametersSelect</text>
</a>
</g>
<path d="M494.5 79h20"></path>
</g>
<g>
<path d="M514.5 79h0"></path>
<path d="M807.5 79h0"></path>
<path d="M514.5 79a10 10 0 0 0 10 -10v0a10 10 0 0 1 10 -10"></path>
<g>
<path d="M534.5 59h253"></path>
</g>
<path d="M787.5 59a10 10 0 0 1 10 10v0a10 10 0 0 0 10 10"></path>
<path d="M514.5 79h20"></path>
<g>
<path d="M534.5 79h0"></path>
<path d="M787.5 79h0"></path>
<g class="terminal ">
<path d="M534.5 79h0"></path>
<path d="M580 79h0"></path>
<rect x="534.5" y="68" width="45.5" height="22" rx="10" ry="10"></rect>
<text x="557.25" y="83">"&#91;"</text>
</g>
<path d="M580 79h10"></path>
<path d="M590 79h10"></path>
<g class="non-terminal ">
<path d="M600 79h0"></path>
<path d="M722 79h0"></path>
<rect x="600" y="68" width="122" height="22"></rect>
<a xlink:href="#/cds/expression/CDSCondition"><text x="661" y="83">CDSCondition</text>
</a>
</g>
<path d="M722 79h10"></path>
<path d="M732 79h10"></path>
<g class="terminal ">
<path d="M742 79h0"></path>
<path d="M787.5 79h0"></path>
<rect x="742" y="68" width="45.5" height="22" rx="10" ry="10"></rect>
<text x="764.75" y="83">"&#93;"</text>
</g>
</g>
<path d="M787.5 79h20"></path>
</g>
<g>
<path d="M807.5 79h0"></path>
<path d="M967 79h0"></path>
<path d="M807.5 79a10 10 0 0 0 10 -10v0a10 10 0 0 1 10 -10"></path>
<g>
<path d="M827.5 59h119.5"></path>
</g>
<path d="M947 59a10 10 0 0 1 10 10v0a10 10 0 0 0 10 10"></path>
<path d="M807.5 79h20"></path>
<g>
<path d="M827.5 79h0"></path>
<path d="M947 79h0"></path>
<path d="M827.5 79h20"></path>
<g class="non-terminal ">
<path d="M847.5 79h8.5"></path>
<path d="M918.5 79h8.5"></path>
<rect x="856" y="68" width="62.5" height="22"></rect>
<a xlink:href="#/cds/expression/CDSAs"><text x="887.25" y="83">CDSAs</text>
</a>
</g>
<path d="M927 79h20"></path>
<path d="M827.5 79a10 10 0 0 1 10 10v10a10 10 0 0 0 10 10"></path>
<g class="non-terminal ">
<path d="M847.5 109h0"></path>
<path d="M927 109h0"></path>
<rect x="847.5" y="98" width="79.5" height="22"></rect>
<a xlink:href="#/cds/expression/CDSName"><text x="887.25" y="113">CDSName</text>
</a>
</g>
<path d="M927 109a10 10 0 0 0 10 -10v-10a10 10 0 0 1 10 -10"></path>
</g>
<path d="M947 79h20"></path>
</g>
</g>
<path d="M967 79a10 10 0 0 0 10 -10v-19a10 10 0 0 1 10 -10"></path>
</g>
<g>
<path d="M987 40h0"></path>
<path d="M1126.5 40h0"></path>
<path d="M987 40a10 10 0 0 0 10 -10v0a10 10 0 0 1 10 -10"></path>
<g>
<path d="M1007 20h99.5"></path>
</g>
<path d="M1106.5 20a10 10 0 0 1 10 10v0a10 10 0 0 0 10 10"></path>
<path d="M987 40h20"></path>
<g>
<path d="M1007 40h0"></path>
<path d="M1106.5 40h0"></path>
<path d="M1007 40h10"></path>
<g class="non-terminal ">
<path d="M1017 40h0"></path>
<path d="M1096.5 40h0"></path>
<rect x="1017" y="29" width="79.5" height="22"></rect>
<a xlink:href="#/cds/expression/CDSJoin"><text x="1056.75" y="44">CDSJoin</text>
</a>
</g>
<path d="M1096.5 40h10"></path>
<path d="M1017 40a10 10 0 0 0 -10 10v0a10 10 0 0 0 10 10"></path>
<g>
<path d="M1017 60h79.5"></path>
</g>
<path d="M1096.5 60a10 10 0 0 0 10 -10v0a10 10 0 0 0 -10 -10"></path>
</g>
<path d="M1106.5 40h20"></path>
</g>
<path d="M1126.5 40h10"></path>
<g class="terminal ">
<path d="M1136.5 40h0"></path>
<path d="M1182 40h0"></path>
<rect x="1136.5" y="29" width="45.5" height="22" rx="10" ry="10"></rect>
<text x="1159.25" y="44">")"</text>
</g>
</g>
<path d="M1182 40h20"></path>
<path d="M40 40a10 10 0 0 1 10 10v88a10 10 0 0 0 10 10"></path>
<g>
<path d="M60 148h419.5"></path>
<path d="M762.5 148h419.5"></path>
<g class="non-terminal ">
<path d="M479.5 148h0"></path>
<path d="M593 148h0"></path>
<rect x="479.5" y="137" width="113.5" height="22"></rect>
<a xlink:href="#/cds/expression/CDSFunction"><text x="536.25" y="152">CDSFunction</text>
</a>
</g>
<path d="M593 148h10"></path>
<g>
<path d="M603 148h0"></path>
<path d="M762.5 148h0"></path>
<path d="M603 148a10 10 0 0 0 10 -10v0a10 10 0 0 1 10 -10"></path>
<g>
<path d="M623 128h119.5"></path>
</g>
<path d="M742.5 128a10 10 0 0 1 10 10v0a10 10 0 0 0 10 10"></path>
<path d="M603 148h20"></path>
<g>
<path d="M623 148h0"></path>
<path d="M742.5 148h0"></path>
<path d="M623 148h20"></path>
<g class="non-terminal ">
<path d="M643 148h8.5"></path>
<path d="M714 148h8.5"></path>
<rect x="651.5" y="137" width="62.5" height="22"></rect>
<a xlink:href="#/cds/expression/CDSAs"><text x="682.75" y="152">CDSAs</text>
</a>
</g>
<path d="M722.5 148h20"></path>
<path d="M623 148a10 10 0 0 1 10 10v10a10 10 0 0 0 10 10"></path>
<g class="non-terminal ">
<path d="M643 178h0"></path>
<path d="M722.5 178h0"></path>
<rect x="643" y="167" width="79.5" height="22"></rect>
<a xlink:href="#/cds/expression/CDSName"><text x="682.75" y="182">CDSName</text>
</a>
</g>
<path d="M722.5 178a10 10 0 0 0 10 -10v-10a10 10 0 0 1 10 -10"></path>
</g>
<path d="M742.5 148h20"></path>
</g>
</g>
<path d="M1182 148a10 10 0 0 0 10 -10v-88a10 10 0 0 1 10 -10"></path>
<path d="M40 40a10 10 0 0 1 10 10v157a10 10 0 0 0 10 10"></path>
<g>
<path d="M60 217h145.25"></path>
<path d="M1036.75 217h145.25"></path>
<g class="non-terminal ">
<path d="M205.25 217h0"></path>
<path d="M352.75 217h0"></path>
<rect x="205.25" y="206" width="147.5" height="22"></rect>
<a xlink:href="#/cds/expression/CDSPrefixedName"><text x="279" y="221">CDSPrefixedName</text>
</a>
</g>
<path d="M352.75 217h10"></path>
<g>
<path d="M362.75 217h0"></path>
<path d="M584.25 217h0"></path>
<path d="M362.75 217a10 10 0 0 0 10 -10v0a10 10 0 0 1 10 -10"></path>
<g>
<path d="M382.75 197h181.5"></path>
</g>
<path d="M564.25 197a10 10 0 0 1 10 10v0a10 10 0 0 0 10 10"></path>
<path d="M362.75 217h20"></path>
<g class="non-terminal ">
<path d="M382.75 217h0"></path>
<path d="M564.25 217h0"></path>
<rect x="382.75" y="206" width="181.5" height="22"></rect>
<a xlink:href="#/cds/expression/CDSParametersSelect"><text x="473.5" y="221">CDSParametersSelect</text>
</a>
</g>
<path d="M564.25 217h20"></path>
</g>
<g>
<path d="M584.25 217h0"></path>
<path d="M877.25 217h0"></path>
<path d="M584.25 217a10 10 0 0 0 10 -10v0a10 10 0 0 1 10 -10"></path>
<g>
<path d="M604.25 197h253"></path>
</g>
<path d="M857.25 197a10 10 0 0 1 10 10v0a10 10 0 0 0 10 10"></path>
<path d="M584.25 217h20"></path>
<g>
<path d="M604.25 217h0"></path>
<path d="M857.25 217h0"></path>
<g class="terminal ">
<path d="M604.25 217h0"></path>
<path d="M649.75 217h0"></path>
<rect x="604.25" y="206" width="45.5" height="22" rx="10" ry="10"></rect>
<text x="627" y="221">"&#91;"</text>
</g>
<path d="M649.75 217h10"></path>
<path d="M659.75 217h10"></path>
<g class="non-terminal ">
<path d="M669.75 217h0"></path>
<path d="M791.75 217h0"></path>
<rect x="669.75" y="206" width="122" height="22"></rect>
<a xlink:href="#/cds/expression/CDSCondition"><text x="730.75" y="221">CDSCondition</text>
</a>
</g>
<path d="M791.75 217h10"></path>
<path d="M801.75 217h10"></path>
<g class="terminal ">
<path d="M811.75 217h0"></path>
<path d="M857.25 217h0"></path>
<rect x="811.75" y="206" width="45.5" height="22" rx="10" ry="10"></rect>
<text x="834.5" y="221">"&#93;"</text>
</g>
</g>
<path d="M857.25 217h20"></path>
</g>
<g>
<path d="M877.25 217h0"></path>
<path d="M1036.75 217h0"></path>
<path d="M877.25 217a10 10 0 0 0 10 -10v0a10 10 0 0 1 10 -10"></path>
<g>
<path d="M897.25 197h119.5"></path>
</g>
<path d="M1016.75 197a10 10 0 0 1 10 10v0a10 10 0 0 0 10 10"></path>
<path d="M877.25 217h20"></path>
<g>
<path d="M897.25 217h0"></path>
<path d="M1016.75 217h0"></path>
<path d="M897.25 217h20"></path>
<g class="non-terminal ">
<path d="M917.25 217h8.5"></path>
<path d="M988.25 217h8.5"></path>
<rect x="925.75" y="206" width="62.5" height="22"></rect>
<a xlink:href="#/cds/expression/CDSAs"><text x="957" y="221">CDSAs</text>
</a>
</g>
<path d="M996.75 217h20"></path>
<path d="M897.25 217a10 10 0 0 1 10 10v10a10 10 0 0 0 10 10"></path>
<g class="non-terminal ">
<path d="M917.25 247h0"></path>
<path d="M996.75 247h0"></path>
<rect x="917.25" y="236" width="79.5" height="22"></rect>
<a xlink:href="#/cds/expression/CDSName"><text x="957" y="251">CDSName</text>
</a>
</g>
<path d="M996.75 247a10 10 0 0 0 10 -10v-10a10 10 0 0 1 10 -10"></path>
</g>
<path d="M1016.75 217h20"></path>
</g>
</g>
<path d="M1182 217a10 10 0 0 0 10 -10v-157a10 10 0 0 1 10 -10"></path>
</g>
<path d="M 1202 40 h 20 m 0 -10 v 20"></path>
</g>
</svg>
