<svg xmlns="http://www.w3.org/2000/svg" xmlns:xlink="http://www.w3.org/1999/xlink" class="railroad-diagram" width="820" height="200" viewBox="0 0 820 200">
<defs>
<style type="text/css"><![CDATA[
path {
stroke-width: 3;
stroke: black;
fill: rgba(0,0,0,0);
}
text {
font: bold 14px monospace;
text-anchor: middle;
}
text.diagram-text {
font-size: 12px;
}
a {
fill: blue;
}
text.diagram-arrow {
font-size: 16px;
}
text.label {
text-anchor: start;
}
text.comment {
font: italic 12px monospace;
}
rect {
stroke-width: 3;
stroke: black;
fill: #BCBCBC;
}
path.diagram-text {
stroke-width: 3;
stroke: black;
fill: #BCBCBC;
cursor: help;
}
]]></style>
</defs>
<g transform="translate(.5 .5)">
<g>
<path d="M20 30v20m0 -10h20"></path>
</g>
<path d="M40 40h10"></path>
<g>
<path d="M50 40h0"></path>
<path d="M770 40h0"></path>
<g>
<path d="M50 40h0"></path>
<path d="M169.5 40h0"></path>
<path d="M50 40h20"></path>
<g class="terminal">
<path d="M70 40h0"></path>
<path d="M132.5 40h17"></path>
<rect x="70" y="29" width="62.5" height="22" rx="10" ry="10"></rect>
<text x="101.25" y="44">"MAX"</text>
</g>
<path d="M149.5 40h20"></path>
<path d="M50 40a10 10 0 0 1 10 10v10a10 10 0 0 0 10 10"></path>
<g class="terminal">
<path d="M70 70h0"></path>
<path d="M132.5 70h17"></path>
<rect x="70" y="59" width="62.5" height="22" rx="10" ry="10"></rect>
<text x="101.25" y="74">"MIN"</text>
</g>
<path d="M149.5 70a10 10 0 0 0 10 -10v-10a10 10 0 0 1 10 -10"></path>
<path d="M50 40a10 10 0 0 1 10 10v40a10 10 0 0 0 10 10"></path>
<g class="terminal">
<path d="M70 100h0"></path>
<path d="M132.5 100h17"></path>
<rect x="70" y="89" width="62.5" height="22" rx="10" ry="10"></rect>
<text x="101.25" y="104">"SUM"</text>
</g>
<path d="M149.5 100a10 10 0 0 0 10 -10v-40a10 10 0 0 1 10 -10"></path>
<path d="M50 40a10 10 0 0 1 10 10v70a10 10 0 0 0 10 10"></path>
<g class="terminal">
<path d="M70 130h0"></path>
<path d="M132.5 130h17"></path>
<rect x="70" y="119" width="62.5" height="22" rx="10" ry="10"></rect>
<text x="101.25" y="134">"AVG"</text>
</g>
<path d="M149.5 130a10 10 0 0 0 10 -10v-70a10 10 0 0 1 10 -10"></path>
<path d="M50 40a10 10 0 0 1 10 10v100a10 10 0 0 0 10 10"></path>
<g class="terminal">
<path d="M70 160h0"></path>
<path d="M149.5 160h0"></path>
<rect x="70" y="149" width="79.5" height="22" rx="10" ry="10"></rect>
<text x="109.75" y="164">"COUNT"</text>
</g>
<path d="M149.5 160a10 10 0 0 0 10 -10v-100a10 10 0 0 1 10 -10"></path>
</g>
<path d="M169.5 40h10"></path>
<g class="terminal">
<path d="M179.5 40h0"></path>
<path d="M225 40h0"></path>
<rect x="179.5" y="29" width="45.5" height="22" rx="10" ry="10"></rect>
<text x="202.25" y="44">"("</text>
</g>
<path d="M225 40h10"></path>
<g>
<path d="M235 40h0"></path>
<path d="M380 40h0"></path>
<path d="M235 40a10 10 0 0 0 10 -10v0a10 10 0 0 1 10 -10"></path>
<g>
<path d="M255 20h105"></path>
</g>
<path d="M360 20a10 10 0 0 1 10 10v0a10 10 0 0 0 10 10"></path>
<path d="M235 40h20"></path>
<g class="terminal">
<path d="M255 40h0"></path>
<path d="M360 40h0"></path>
<rect x="255" y="29" width="105" height="22" rx="10" ry="10"></rect>
<text x="307.5" y="44">"DISTINCT"</text>
</g>
<path d="M360 40h20"></path>
</g>
<g>
<path d="M380 40h0"></path>
<path d="M714.5 40h0"></path>
<path d="M380 40h20"></path>
<g>
<path d="M400 40h0"></path>
<path d="M694.5 40h0"></path>
<g class="non-terminal">
<path d="M400 40h0"></path>
<path d="M479.5 40h0"></path>
<rect x="400" y="29" width="79.5" height="22"></rect>
<a xlink:href="#/cds/expression/CDSName"><text x="439.75" y="44">CDSName</text>
</a>
</g>
<path d="M479.5 40h10"></path>
<g>
<path d="M489.5 40h0"></path>
<path d="M694.5 40h0"></path>
<path d="M489.5 40a10 10 0 0 0 10 -10v0a10 10 0 0 1 10 -10"></path>
<g>
<path d="M509.5 20h165"></path>
</g>
<path d="M674.5 20a10 10 0 0 1 10 10v0a10 10 0 0 0 10 10"></path>
<path d="M489.5 40h20"></path>
<g>
<path d="M509.5 40h0"></path>
<path d="M674.5 40h0"></path>
<path d="M509.5 40h10"></path>
<g>
<path d="M519.5 40h0"></path>
<path d="M664.5 40h0"></path>
<g class="terminal">
<path d="M519.5 40h0"></path>
<path d="M565 40h0"></path>
<rect x="519.5" y="29" width="45.5" height="22" rx="10" ry="10"></rect>
<text x="542.25" y="44">"."</text>
</g>
<path d="M565 40h10"></path>
<path d="M575 40h10"></path>
<g class="non-terminal">
<path d="M585 40h0"></path>
<path d="M664.5 40h0"></path>
<rect x="585" y="29" width="79.5" height="22"></rect>
<a xlink:href="#/cds/expression/CDSName"><text x="624.75" y="44">CDSName</text>
</a>
</g>
</g>
<path d="M664.5 40h10"></path>
<path d="M519.5 40a10 10 0 0 0 -10 10v0a10 10 0 0 0 10 10"></path>
<g>
<path d="M519.5 60h145"></path>
</g>
<path d="M664.5 60a10 10 0 0 0 10 -10v0a10 10 0 0 0 -10 -10"></path>
</g>
<path d="M674.5 40h20"></path>
</g>
</g>
<path d="M694.5 40h20"></path>
<path d="M380 40a10 10 0 0 1 10 10v19a10 10 0 0 0 10 10"></path>
<g class="terminal">
<path d="M400 79h0"></path>
<path d="M445.5 79h249"></path>
<rect x="400" y="68" width="45.5" height="22" rx="10" ry="10"></rect>
<text x="422.75" y="83">"&#42;"</text>
</g>
<path d="M694.5 79a10 10 0 0 0 10 -10v-19a10 10 0 0 1 10 -10"></path>
<path d="M380 40a10 10 0 0 1 10 10v49a10 10 0 0 0 10 10"></path>
<g class="non-terminal">
<path d="M400 109h0"></path>
<path d="M479.5 109h215"></path>
<rect x="400" y="98" width="79.5" height="22"></rect>
<a xlink:href="#/cds/expression/CDSCast"><text x="439.75" y="113">CDSCast</text>
</a>
</g>
<path d="M694.5 109a10 10 0 0 0 10 -10v-49a10 10 0 0 1 10 -10"></path>
<path d="M380 40a10 10 0 0 1 10 10v79a10 10 0 0 0 10 10"></path>
<g class="non-terminal">
<path d="M400 139h0"></path>
<path d="M479.5 139h215"></path>
<rect x="400" y="128" width="79.5" height="22"></rect>
<a xlink:href="#/cds/expression/CDSCase"><text x="439.75" y="143">CDSCase</text>
</a>
</g>
<path d="M694.5 139a10 10 0 0 0 10 -10v-79a10 10 0 0 1 10 -10"></path>
<path d="M380 40a10 10 0 0 1 10 10v109a10 10 0 0 0 10 10"></path>
<g class="non-terminal">
<path d="M400 169h0"></path>
<path d="M513.5 169h181"></path>
<rect x="400" y="158" width="113.5" height="22"></rect>
<a xlink:href="#/cds/expression/CDSFunction"><text x="456.75" y="173">CDSFunction</text>
</a>
</g>
<path d="M694.5 169a10 10 0 0 0 10 -10v-109a10 10 0 0 1 10 -10"></path>
</g>
<path d="M714.5 40h10"></path>
<g class="terminal">
<path d="M724.5 40h0"></path>
<path d="M770 40h0"></path>
<rect x="724.5" y="29" width="45.5" height="22" rx="10" ry="10"></rect>
<text x="747.25" y="44">")"</text>
</g>
</g>
<path d="M770 40h10"></path>
<path d="M 780 40 h 20 m 0 -10 v 20"></path>
</g>
</svg>
