<svg xmlns="http://www.w3.org/2000/svg" xmlns:xlink="http://www.w3.org/1999/xlink" class="railroad-diagram" width="765.5" height="268" viewBox="0 0 765.5 268">
<defs>
<style type="text/css"><![CDATA[
path {
stroke-width: 3;
stroke: black;
fill: rgba(0,0,0,0);
}
text {
font: bold 14px monospace;
text-anchor: middle;
}
text.diagram-text {
font-size: 12px;
}
a {
fill: blue;
}
text.diagram-arrow {
font-size: 16px;
}
text.label {
text-anchor: start;
}
text.comment {
font: italic 12px monospace;
}
rect {
stroke-width: 3;
stroke: black;
fill: #BCBCBC;
}
path.diagram-text {
stroke-width: 3;
stroke: black;
fill: #BCBCBC;
cursor: help;
}
]]></style>
</defs>
<g transform="translate(.5 .5)">
<g>
<path d="M20 21v20m0 -10h20"></path>
</g>
<g>
<path d="M40 31h0"></path>
<path d="M725.5 31h0"></path>
<path d="M40 31h20"></path>
<g class="non-terminal">
<path d="M60 31h0"></path>
<path d="M139.5 31h566"></path>
<rect x="60" y="20" width="79.5" height="22"></rect>
<a xlink:href="#/cds/expression/CDSCast"><text x="99.75" y="35">CDSCast</text>
</a>
</g>
<path d="M705.5 31h20"></path>
<path d="M40 31a10 10 0 0 1 10 10v10a10 10 0 0 0 10 10"></path>
<g class="non-terminal">
<path d="M60 61h0"></path>
<path d="M173.5 61h532"></path>
<rect x="60" y="50" width="113.5" height="22"></rect>
<a xlink:href="#/cds/expression/CDSFunction"><text x="116.75" y="65">CDSFunction</text>
</a>
</g>
<path d="M705.5 61a10 10 0 0 0 10 -10v-10a10 10 0 0 1 10 -10"></path>
<path d="M40 31a10 10 0 0 1 10 10v40a10 10 0 0 0 10 10"></path>
<g class="non-terminal">
<path d="M60 91h0"></path>
<path d="M199 91h506.5"></path>
<rect x="60" y="80" width="139" height="22"></rect>
<a xlink:href="#/cds/expression/CDSArithmetics"><text x="129.5" y="95">CDSArithmetics</text>
</a>
</g>
<path d="M705.5 91a10 10 0 0 0 10 -10v-40a10 10 0 0 1 10 -10"></path>
<path d="M40 31a10 10 0 0 1 10 10v70a10 10 0 0 0 10 10"></path>
<g class="non-terminal">
<path d="M60 121h0"></path>
<path d="M139.5 121h566"></path>
<rect x="60" y="110" width="79.5" height="22"></rect>
<a xlink:href="#/cds/expression/CDSCase"><text x="99.75" y="125">CDSCase</text>
</a>
</g>
<path d="M705.5 121a10 10 0 0 0 10 -10v-70a10 10 0 0 1 10 -10"></path>
<path d="M40 31a10 10 0 0 1 10 10v100a10 10 0 0 0 10 10"></path>
<g class="non-terminal">
<path d="M60 151h0"></path>
<path d="M156.5 151h549"></path>
<rect x="60" y="140" width="96.5" height="22"></rect>
<a xlink:href="#/cds/expression/CDSString"><text x="108.25" y="155">CDSString</text>
</a>
</g>
<path d="M705.5 151a10 10 0 0 0 10 -10v-100a10 10 0 0 1 10 -10"></path>
<path d="M40 31a10 10 0 0 1 10 10v147a10 10 0 0 0 10 10"></path>
<g>
<path d="M60 198h0"></path>
<path d="M705.5 198h0"></path>
<g class="non-terminal">
<path d="M60 198h0"></path>
<path d="M139.5 198h0"></path>
<rect x="60" y="187" width="79.5" height="22"></rect>
<a xlink:href="#/cds/expression/CDSName"><text x="99.75" y="202">CDSName</text>
</a>
</g>
<path d="M139.5 198h10"></path>
<g>
<path d="M149.5 198h0"></path>
<path d="M320 198h0"></path>
<path d="M149.5 198a10 10 0 0 0 10 -10v0a10 10 0 0 1 10 -10"></path>
<g>
<path d="M169.5 178h130.5"></path>
</g>
<path d="M300 178a10 10 0 0 1 10 10v0a10 10 0 0 0 10 10"></path>
<path d="M149.5 198h20"></path>
<g class="non-terminal">
<path d="M169.5 198h0"></path>
<path d="M300 198h0"></path>
<rect x="169.5" y="187" width="130.5" height="22"></rect>
<a xlink:href="#/cds/expression/CDSParameters"><text x="234.75" y="202">CDSParameters</text>
</a>
</g>
<path d="M300 198h20"></path>
</g>
<g>
<path d="M320 198h0"></path>
<path d="M705.5 198h0"></path>
<path d="M320 198a10 10 0 0 0 10 -10v-8a10 10 0 0 1 10 -10"></path>
<g>
<path d="M340 170h345.5"></path>
</g>
<path d="M685.5 170a10 10 0 0 1 10 10v8a10 10 0 0 0 10 10"></path>
<path d="M320 198h20"></path>
<g>
<path d="M340 198h0"></path>
<path d="M685.5 198h0"></path>
<path d="M340 198h10"></path>
<g>
<path d="M350 198h0"></path>
<path d="M675.5 198h0"></path>
<g class="terminal">
<path d="M350 198h0"></path>
<path d="M395.5 198h0"></path>
<rect x="350" y="187" width="45.5" height="22" rx="10" ry="10"></rect>
<text x="372.75" y="202">"."</text>
</g>
<path d="M395.5 198h10"></path>
<path d="M405.5 198h10"></path>
<g class="non-terminal">
<path d="M415.5 198h0"></path>
<path d="M495 198h0"></path>
<rect x="415.5" y="187" width="79.5" height="22"></rect>
<a xlink:href="#/cds/expression/CDSName"><text x="455.25" y="202">CDSName</text>
</a>
</g>
<path d="M495 198h10"></path>
<g>
<path d="M505 198h0"></path>
<path d="M675.5 198h0"></path>
<path d="M505 198a10 10 0 0 0 10 -10v0a10 10 0 0 1 10 -10"></path>
<g>
<path d="M525 178h130.5"></path>
</g>
<path d="M655.5 178a10 10 0 0 1 10 10v0a10 10 0 0 0 10 10"></path>
<path d="M505 198h20"></path>
<g class="non-terminal">
<path d="M525 198h0"></path>
<path d="M655.5 198h0"></path>
<rect x="525" y="187" width="130.5" height="22"></rect>
<a xlink:href="#/cds/expression/CDSParameters"><text x="590.25" y="202">CDSParameters</text>
</a>
</g>
<path d="M655.5 198h20"></path>
</g>
</g>
<path d="M675.5 198h10"></path>
<path d="M350 198a10 10 0 0 0 -10 10v0a10 10 0 0 0 10 10"></path>
<g>
<path d="M350 218h325.5"></path>
</g>
<path d="M675.5 218a10 10 0 0 0 10 -10v0a10 10 0 0 0 -10 -10"></path>
</g>
<path d="M685.5 198h20"></path>
</g>
</g>
<path d="M705.5 198a10 10 0 0 0 10 -10v-147a10 10 0 0 1 10 -10"></path>
<path d="M40 31a10 10 0 0 1 10 10v186a10 10 0 0 0 10 10"></path>
<g class="terminal">
<path d="M60 237h0"></path>
<path d="M122.5 237h583"></path>
<rect x="60" y="226" width="62.5" height="22" rx="10" ry="10"></rect>
<text x="91.25" y="241">^\d+$</text>
</g>
<path d="M705.5 237a10 10 0 0 0 10 -10v-186a10 10 0 0 1 10 -10"></path>
</g>
<path d="M 725.5 31 h 20 m 0 -10 v 20"></path>
</g>
</svg>
