<svg xmlns="http://www.w3.org/2000/svg" xmlns:xlink="http://www.w3.org/1999/xlink" class="railroad-diagram" width="506.5" height="92" viewBox="0 0 506.5 92">
<defs>
<style type="text/css"><![CDATA[
path {
stroke-width: 3;
stroke: black;
fill: rgba(0,0,0,0);
}
text {
font: bold 14px monospace;
text-anchor: middle;
}
text.diagram-text {
font-size: 12px;
}
a {
fill: blue;
}
text.diagram-arrow {
font-size: 16px;
}
text.label {
text-anchor: start;
}
text.comment {
font: italic 12px monospace;
}
rect {
stroke-width: 3;
stroke: black;
fill: #BCBCBC;
}
path.diagram-text {
stroke-width: 3;
stroke: black;
fill: #BCBCBC;
cursor: help;
}
]]></style>
</defs>
<g transform="translate(.5 .5)">
<g>
<path d="M20 21v20m0 -10h20"></path>
</g>
<g>
<path d="M40 31h0"></path>
<path d="M466.5 31h0"></path>
<path d="M40 31h20"></path>
<g>
<path d="M60 31h0"></path>
<path d="M446.5 31h0"></path>
<g class="terminal">
<path d="M60 31h0"></path>
<path d="M131 31h0"></path>
<rect x="60" y="20" width="71" height="22" rx="10" ry="10"></rect>
<text x="95.5" y="35">"ABAP"</text>
</g>
<path d="M131 31h10"></path>
<path d="M141 31h10"></path>
<g class="terminal">
<path d="M151 31h0"></path>
<path d="M196.5 31h0"></path>
<rect x="151" y="20" width="45.5" height="22" rx="10" ry="10"></rect>
<text x="173.75" y="35">"."</text>
</g>
<path d="M196.5 31h10"></path>
<path d="M206.5 31h10"></path>
<g class="terminal">
<path d="M216.5 31h0"></path>
<path d="M287.5 31h0"></path>
<rect x="216.5" y="20" width="71" height="22" rx="10" ry="10"></rect>
<text x="252" y="35">^char$</text>
</g>
<path d="M287.5 31h10"></path>
<path d="M297.5 31h10"></path>
<g class="terminal">
<path d="M307.5 31h0"></path>
<path d="M446.5 31h0"></path>
<rect x="307.5" y="20" width="139" height="22" rx="10" ry="10"></rect>
<text x="377" y="35">^'(&#91;^'&#93;|'')&#42;'$</text>
</g>
</g>
<path d="M446.5 31h20"></path>
<path d="M40 31a10 10 0 0 1 10 10v10a10 10 0 0 0 10 10"></path>
<g class="terminal">
<path d="M60 61h0"></path>
<path d="M199 61h247.5"></path>
<rect x="60" y="50" width="139" height="22" rx="10" ry="10"></rect>
<text x="129.5" y="65">^'(&#91;^'&#93;|'')&#42;'$</text>
</g>
<path d="M446.5 61a10 10 0 0 0 10 -10v-10a10 10 0 0 1 10 -10"></path>
</g>
<path d="M 466.5 31 h 20 m 0 -10 v 20"></path>
</g>
</svg>
