<svg xmlns="http://www.w3.org/2000/svg" xmlns:xlink="http://www.w3.org/1999/xlink" class="railroad-diagram" width="528" height="572" viewBox="0 0 528 572">
<defs>
<style type="text/css"><![CDATA[
path {
stroke-width: 3;
stroke: black;
fill: rgba(0,0,0,0);
}
text {
font: bold 14px monospace;
text-anchor: middle;
}
text.diagram-text {
font-size: 12px;
}
a {
fill: blue;
}
text.diagram-arrow {
font-size: 16px;
}
text.label {
text-anchor: start;
}
text.comment {
font: italic 12px monospace;
}
rect {
stroke-width: 3;
stroke: black;
fill: #BCBCBC;
}
path.diagram-text {
stroke-width: 3;
stroke: black;
fill: #BCBCBC;
cursor: help;
}
]]></style>
</defs>
<g transform="translate(.5 .5)">
<g>
<path d="M20 21v20m0 -10h20"></path>
</g>
<g>
<path d="M40 31h0"></path>
<path d="M488 31h0"></path>
<path d="M40 31h20"></path>
<g>
<path d="M60 31h0"></path>
<path d="M468 31h0"></path>
<g class="non-terminal ">
<path d="M60 31h0"></path>
<path d="M139.5 31h0"></path>
<rect x="60" y="20" width="79.5" height="22"></rect>
<a xlink:href="#/cds/expression/CDSName"><text x="99.75" y="35">CDSName</text>
</a>
</g>
<path d="M139.5 31h10"></path>
<path d="M149.5 31h10"></path>
<g class="terminal ">
<path d="M159.5 31h0"></path>
<path d="M205 31h0"></path>
<rect x="159.5" y="20" width="45.5" height="22" rx="10" ry="10"></rect>
<text x="182.25" y="35">"="</text>
</g>
<path d="M205 31h10"></path>
<path d="M215 31h10"></path>
<g class="terminal ">
<path d="M225 31h0"></path>
<path d="M270.5 31h0"></path>
<rect x="225" y="20" width="45.5" height="22" rx="10" ry="10"></rect>
<text x="247.75" y="35">">"</text>
</g>
<path d="M270.5 31h10"></path>
<g>
<path d="M280.5 31h0"></path>
<path d="M468 31h0"></path>
<path d="M280.5 31h20"></path>
<g class="non-terminal ">
<path d="M300.5 31h4.25"></path>
<path d="M443.75 31h4.25"></path>
<rect x="304.75" y="20" width="139" height="22"></rect>
<a xlink:href="#/cds/expression/CDSArithmetics"><text x="374.25" y="35">CDSArithmetics</text>
</a>
</g>
<path d="M448 31h20"></path>
<path d="M280.5 31a10 10 0 0 1 10 10v10a10 10 0 0 0 10 10"></path>
<g class="non-terminal ">
<path d="M300.5 61h8.5"></path>
<path d="M439.5 61h8.5"></path>
<rect x="309" y="50" width="130.5" height="22"></rect>
<a xlink:href="#/cds/expression/CDSArithParen"><text x="374.25" y="65">CDSArithParen</text>
</a>
</g>
<path d="M448 61a10 10 0 0 0 10 -10v-10a10 10 0 0 1 10 -10"></path>
<path d="M280.5 31a10 10 0 0 1 10 10v40a10 10 0 0 0 10 10"></path>
<g class="non-terminal ">
<path d="M300.5 91h12.75"></path>
<path d="M435.25 91h12.75"></path>
<rect x="313.25" y="80" width="122" height="22"></rect>
<a xlink:href="#/cds/expression/CDSAggregate"><text x="374.25" y="95">CDSAggregate</text>
</a>
</g>
<path d="M448 91a10 10 0 0 0 10 -10v-40a10 10 0 0 1 10 -10"></path>
<path d="M280.5 31a10 10 0 0 1 10 10v70a10 10 0 0 0 10 10"></path>
<g class="non-terminal ">
<path d="M300.5 121h34"></path>
<path d="M414 121h34"></path>
<rect x="334.5" y="110" width="79.5" height="22"></rect>
<a xlink:href="#/cds/expression/CDSCast"><text x="374.25" y="125">CDSCast</text>
</a>
</g>
<path d="M448 121a10 10 0 0 0 10 -10v-70a10 10 0 0 1 10 -10"></path>
<path d="M280.5 31a10 10 0 0 1 10 10v100a10 10 0 0 0 10 10"></path>
<g class="non-terminal ">
<path d="M300.5 151h17"></path>
<path d="M431 151h17"></path>
<rect x="317.5" y="140" width="113.5" height="22"></rect>
<a xlink:href="#/cds/expression/CDSFunction"><text x="374.25" y="155">CDSFunction</text>
</a>
</g>
<path d="M448 151a10 10 0 0 0 10 -10v-100a10 10 0 0 1 10 -10"></path>
<path d="M280.5 31a10 10 0 0 1 10 10v130a10 10 0 0 0 10 10"></path>
<g class="non-terminal ">
<path d="M300.5 181h34"></path>
<path d="M414 181h34"></path>
<rect x="334.5" y="170" width="79.5" height="22"></rect>
<a xlink:href="#/cds/expression/CDSCase"><text x="374.25" y="185">CDSCase</text>
</a>
</g>
<path d="M448 181a10 10 0 0 0 10 -10v-130a10 10 0 0 1 10 -10"></path>
<path d="M280.5 31a10 10 0 0 1 10 10v160a10 10 0 0 0 10 10"></path>
<g class="non-terminal ">
<path d="M300.5 211h25.5"></path>
<path d="M422.5 211h25.5"></path>
<rect x="326" y="200" width="96.5" height="22"></rect>
<a xlink:href="#/cds/expression/CDSString"><text x="374.25" y="215">CDSString</text>
</a>
</g>
<path d="M448 211a10 10 0 0 0 10 -10v-160a10 10 0 0 1 10 -10"></path>
<path d="M280.5 31a10 10 0 0 1 10 10v190a10 10 0 0 0 10 10"></path>
<g class="non-terminal ">
<path d="M300.5 241h0"></path>
<path d="M448 241h0"></path>
<rect x="300.5" y="230" width="147.5" height="22"></rect>
<a xlink:href="#/cds/expression/CDSPrefixedName"><text x="374.25" y="245">CDSPrefixedName</text>
</a>
</g>
<path d="M448 241a10 10 0 0 0 10 -10v-190a10 10 0 0 1 10 -10"></path>
<path d="M280.5 31a10 10 0 0 1 10 10v220a10 10 0 0 0 10 10"></path>
<g class="non-terminal ">
<path d="M300.5 271h21.25"></path>
<path d="M426.75 271h21.25"></path>
<rect x="321.75" y="260" width="105" height="22"></rect>
<a xlink:href="#/cds/expression/CDSInteger"><text x="374.25" y="275">CDSInteger</text>
</a>
</g>
<path d="M448 271a10 10 0 0 0 10 -10v-220a10 10 0 0 1 10 -10"></path>
</g>
</g>
<path d="M468 31h20"></path>
<path d="M40 31a10 10 0 0 1 10 10v250a10 10 0 0 0 10 10"></path>
<g>
<path d="M60 301h110.25"></path>
<path d="M357.75 301h110.25"></path>
<path d="M170.25 301h20"></path>
<g class="non-terminal ">
<path d="M190.25 301h4.25"></path>
<path d="M333.5 301h4.25"></path>
<rect x="194.5" y="290" width="139" height="22"></rect>
<a xlink:href="#/cds/expression/CDSArithmetics"><text x="264" y="305">CDSArithmetics</text>
</a>
</g>
<path d="M337.75 301h20"></path>
<path d="M170.25 301a10 10 0 0 1 10 10v10a10 10 0 0 0 10 10"></path>
<g class="non-terminal ">
<path d="M190.25 331h8.5"></path>
<path d="M329.25 331h8.5"></path>
<rect x="198.75" y="320" width="130.5" height="22"></rect>
<a xlink:href="#/cds/expression/CDSArithParen"><text x="264" y="335">CDSArithParen</text>
</a>
</g>
<path d="M337.75 331a10 10 0 0 0 10 -10v-10a10 10 0 0 1 10 -10"></path>
<path d="M170.25 301a10 10 0 0 1 10 10v40a10 10 0 0 0 10 10"></path>
<g class="non-terminal ">
<path d="M190.25 361h12.75"></path>
<path d="M325 361h12.75"></path>
<rect x="203" y="350" width="122" height="22"></rect>
<a xlink:href="#/cds/expression/CDSAggregate"><text x="264" y="365">CDSAggregate</text>
</a>
</g>
<path d="M337.75 361a10 10 0 0 0 10 -10v-40a10 10 0 0 1 10 -10"></path>
<path d="M170.25 301a10 10 0 0 1 10 10v70a10 10 0 0 0 10 10"></path>
<g class="non-terminal ">
<path d="M190.25 391h34"></path>
<path d="M303.75 391h34"></path>
<rect x="224.25" y="380" width="79.5" height="22"></rect>
<a xlink:href="#/cds/expression/CDSCast"><text x="264" y="395">CDSCast</text>
</a>
</g>
<path d="M337.75 391a10 10 0 0 0 10 -10v-70a10 10 0 0 1 10 -10"></path>
<path d="M170.25 301a10 10 0 0 1 10 10v100a10 10 0 0 0 10 10"></path>
<g class="non-terminal ">
<path d="M190.25 421h17"></path>
<path d="M320.75 421h17"></path>
<rect x="207.25" y="410" width="113.5" height="22"></rect>
<a xlink:href="#/cds/expression/CDSFunction"><text x="264" y="425">CDSFunction</text>
</a>
</g>
<path d="M337.75 421a10 10 0 0 0 10 -10v-100a10 10 0 0 1 10 -10"></path>
<path d="M170.25 301a10 10 0 0 1 10 10v130a10 10 0 0 0 10 10"></path>
<g class="non-terminal ">
<path d="M190.25 451h34"></path>
<path d="M303.75 451h34"></path>
<rect x="224.25" y="440" width="79.5" height="22"></rect>
<a xlink:href="#/cds/expression/CDSCase"><text x="264" y="455">CDSCase</text>
</a>
</g>
<path d="M337.75 451a10 10 0 0 0 10 -10v-130a10 10 0 0 1 10 -10"></path>
<path d="M170.25 301a10 10 0 0 1 10 10v160a10 10 0 0 0 10 10"></path>
<g class="non-terminal ">
<path d="M190.25 481h25.5"></path>
<path d="M312.25 481h25.5"></path>
<rect x="215.75" y="470" width="96.5" height="22"></rect>
<a xlink:href="#/cds/expression/CDSString"><text x="264" y="485">CDSString</text>
</a>
</g>
<path d="M337.75 481a10 10 0 0 0 10 -10v-160a10 10 0 0 1 10 -10"></path>
<path d="M170.25 301a10 10 0 0 1 10 10v190a10 10 0 0 0 10 10"></path>
<g class="non-terminal ">
<path d="M190.25 511h0"></path>
<path d="M337.75 511h0"></path>
<rect x="190.25" y="500" width="147.5" height="22"></rect>
<a xlink:href="#/cds/expression/CDSPrefixedName"><text x="264" y="515">CDSPrefixedName</text>
</a>
</g>
<path d="M337.75 511a10 10 0 0 0 10 -10v-190a10 10 0 0 1 10 -10"></path>
<path d="M170.25 301a10 10 0 0 1 10 10v220a10 10 0 0 0 10 10"></path>
<g class="non-terminal ">
<path d="M190.25 541h21.25"></path>
<path d="M316.5 541h21.25"></path>
<rect x="211.5" y="530" width="105" height="22"></rect>
<a xlink:href="#/cds/expression/CDSInteger"><text x="264" y="545">CDSInteger</text>
</a>
</g>
<path d="M337.75 541a10 10 0 0 0 10 -10v-220a10 10 0 0 1 10 -10"></path>
</g>
<path d="M468 301a10 10 0 0 0 10 -10v-250a10 10 0 0 1 10 -10"></path>
</g>
<path d="M 488 31 h 20 m 0 -10 v 20"></path>
</g>
</svg>
