<svg xmlns="http://www.w3.org/2000/svg" xmlns:xlink="http://www.w3.org/1999/xlink" class="railroad-diagram" width="438.5" height="302" viewBox="0 0 438.5 302">
<defs>
<style type="text/css"><![CDATA[
path {
stroke-width: 3;
stroke: black;
fill: rgba(0,0,0,0);
}
text {
font: bold 14px monospace;
text-anchor: middle;
}
text.diagram-text {
font-size: 12px;
}
a {
fill: blue;
}
text.diagram-arrow {
font-size: 16px;
}
text.label {
text-anchor: start;
}
text.comment {
font: italic 12px monospace;
}
rect {
stroke-width: 3;
stroke: black;
fill: #BCBCBC;
}
path.diagram-text {
stroke-width: 3;
stroke: black;
fill: #BCBCBC;
cursor: help;
}
]]></style>
</defs>
<g transform="translate(.5 .5)">
<g>
<path d="M20 21v20m0 -10h20"></path>
</g>
<path d="M40 31h10"></path>
<g>
<path d="M50 31h0"></path>
<path d="M388.5 31h0"></path>
<g class="terminal">
<path d="M50 31h0"></path>
<path d="M95.5 31h0"></path>
<rect x="50" y="20" width="45.5" height="22" rx="10" ry="10"></rect>
<text x="72.75" y="35">"("</text>
</g>
<path d="M95.5 31h10"></path>
<g>
<path d="M105.5 31h0"></path>
<path d="M333 31h0"></path>
<path d="M105.5 31h20"></path>
<g class="non-terminal">
<path d="M125.5 31h0"></path>
<path d="M264.5 31h48.5"></path>
<rect x="125.5" y="20" width="139" height="22"></rect>
<a xlink:href="#/cds/expression/CDSArithmetics"><text x="195" y="35">CDSArithmetics</text>
</a>
</g>
<path d="M313 31h20"></path>
<path d="M105.5 31a10 10 0 0 1 10 10v10a10 10 0 0 0 10 10"></path>
<g class="non-terminal">
<path d="M125.5 61h0"></path>
<path d="M256 61h57"></path>
<rect x="125.5" y="50" width="130.5" height="22"></rect>
<a xlink:href="#/cds/expression/CDSArithParen"><text x="190.75" y="65">CDSArithParen</text>
</a>
</g>
<path d="M313 61a10 10 0 0 0 10 -10v-10a10 10 0 0 1 10 -10"></path>
<path d="M105.5 31a10 10 0 0 1 10 10v40a10 10 0 0 0 10 10"></path>
<g>
<path d="M125.5 91h0"></path>
<path d="M313 91h0"></path>
<path d="M125.5 91h20"></path>
<g class="non-terminal">
<path d="M145.5 91h0"></path>
<path d="M250.5 91h42.5"></path>
<rect x="145.5" y="80" width="105" height="22"></rect>
<a xlink:href="#/cds/expression/CDSInteger"><text x="198" y="95">CDSInteger</text>
</a>
</g>
<path d="M293 91h20"></path>
<path d="M125.5 91a10 10 0 0 1 10 10v10a10 10 0 0 0 10 10"></path>
<g class="non-terminal">
<path d="M145.5 121h0"></path>
<path d="M259 121h34"></path>
<rect x="145.5" y="110" width="113.5" height="22"></rect>
<a xlink:href="#/cds/expression/CDSFunction"><text x="202.25" y="125">CDSFunction</text>
</a>
</g>
<path d="M293 121a10 10 0 0 0 10 -10v-10a10 10 0 0 1 10 -10"></path>
<path d="M125.5 91a10 10 0 0 1 10 10v40a10 10 0 0 0 10 10"></path>
<g class="non-terminal">
<path d="M145.5 151h0"></path>
<path d="M225 151h68"></path>
<rect x="145.5" y="140" width="79.5" height="22"></rect>
<a xlink:href="#/cds/expression/CDSCase"><text x="185.25" y="155">CDSCase</text>
</a>
</g>
<path d="M293 151a10 10 0 0 0 10 -10v-40a10 10 0 0 1 10 -10"></path>
<path d="M125.5 91a10 10 0 0 1 10 10v70a10 10 0 0 0 10 10"></path>
<g class="non-terminal">
<path d="M145.5 181h0"></path>
<path d="M225 181h68"></path>
<rect x="145.5" y="170" width="79.5" height="22"></rect>
<a xlink:href="#/cds/expression/CDSCast"><text x="185.25" y="185">CDSCast</text>
</a>
</g>
<path d="M293 181a10 10 0 0 0 10 -10v-70a10 10 0 0 1 10 -10"></path>
<path d="M125.5 91a10 10 0 0 1 10 10v100a10 10 0 0 0 10 10"></path>
<g class="non-terminal">
<path d="M145.5 211h0"></path>
<path d="M242 211h51"></path>
<rect x="145.5" y="200" width="96.5" height="22"></rect>
<a xlink:href="#/cds/expression/CDSString"><text x="193.75" y="215">CDSString</text>
</a>
</g>
<path d="M293 211a10 10 0 0 0 10 -10v-100a10 10 0 0 1 10 -10"></path>
<path d="M125.5 91a10 10 0 0 1 10 10v130a10 10 0 0 0 10 10"></path>
<g class="non-terminal">
<path d="M145.5 241h0"></path>
<path d="M267.5 241h25.5"></path>
<rect x="145.5" y="230" width="122" height="22"></rect>
<a xlink:href="#/cds/expression/CDSAggregate"><text x="206.5" y="245">CDSAggregate</text>
</a>
</g>
<path d="M293 241a10 10 0 0 0 10 -10v-130a10 10 0 0 1 10 -10"></path>
<path d="M125.5 91a10 10 0 0 1 10 10v160a10 10 0 0 0 10 10"></path>
<g class="non-terminal">
<path d="M145.5 271h0"></path>
<path d="M293 271h0"></path>
<rect x="145.5" y="260" width="147.5" height="22"></rect>
<a xlink:href="#/cds/expression/CDSPrefixedName"><text x="219.25" y="275">CDSPrefixedName</text>
</a>
</g>
<path d="M293 271a10 10 0 0 0 10 -10v-160a10 10 0 0 1 10 -10"></path>
</g>
<path d="M313 91a10 10 0 0 0 10 -10v-40a10 10 0 0 1 10 -10"></path>
</g>
<path d="M333 31h10"></path>
<g class="terminal">
<path d="M343 31h0"></path>
<path d="M388.5 31h0"></path>
<rect x="343" y="20" width="45.5" height="22" rx="10" ry="10"></rect>
<text x="365.75" y="35">")"</text>
</g>
</g>
<path d="M388.5 31h10"></path>
<path d="M 398.5 31 h 20 m 0 -10 v 20"></path>
</g>
</svg>
