<svg xmlns="http://www.w3.org/2000/svg" xmlns:xlink="http://www.w3.org/1999/xlink" class="railroad-diagram" width="2987" height="96" viewBox="0 0 2987 96">
<defs>
<style type="text/css"><![CDATA[
path {
stroke-width: 3;
stroke: black;
fill: rgba(0,0,0,0);
}
text {
font: bold 14px monospace;
text-anchor: middle;
}
text.diagram-text {
font-size: 12px;
}
a {
fill: blue;
}
text.diagram-arrow {
font-size: 16px;
}
text.label {
text-anchor: start;
}
text.comment {
font: italic 12px monospace;
}
rect {
stroke-width: 3;
stroke: black;
fill: #BCBCBC;
}
path.diagram-text {
stroke-width: 3;
stroke: black;
fill: #BCBCBC;
cursor: help;
}
]]></style>
</defs>
<g transform="translate(.5 .5)">
<g>
<path d="M20 46v20m0 -10h20"></path>
</g>
<path d="M40 56h10"></path>
<g>
<path d="M50 56h0"></path>
<path d="M2937 56h0"></path>
<g class="terminal">
<path d="M50 56h0"></path>
<path d="M138 56h0"></path>
<rect x="50" y="45" width="88" height="22" rx="10" ry="10"></rect>
<text x="94" y="60">"SELECT"</text>
</g>
<path d="M138 56h10"></path>
<g>
<path d="M148 56h0"></path>
<path d="M293 56h0"></path>
<path d="M148 56a10 10 0 0 0 10 -10v0a10 10 0 0 1 10 -10"></path>
<g>
<path d="M168 36h105"></path>
</g>
<path d="M273 36a10 10 0 0 1 10 10v0a10 10 0 0 0 10 10"></path>
<path d="M148 56h20"></path>
<g class="terminal">
<path d="M168 56h0"></path>
<path d="M273 56h0"></path>
<rect x="168" y="45" width="105" height="22" rx="10" ry="10"></rect>
<text x="220.5" y="60">"DISTINCT"</text>
</g>
<path d="M273 56h20"></path>
</g>
<g>
<path d="M293 56h0"></path>
<path d="M718.5 56h0"></path>
<path d="M293 56a10 10 0 0 0 10 -10v-16a10 10 0 0 1 10 -10"></path>
<g>
<path d="M313 20h385.5"></path>
</g>
<path d="M698.5 20a10 10 0 0 1 10 10v16a10 10 0 0 0 10 10"></path>
<path d="M293 56h20"></path>
<g>
<path d="M313 56h0"></path>
<path d="M698.5 56h0"></path>
<path d="M313 56a10 10 0 0 0 10 -10v-8a10 10 0 0 1 10 -10"></path>
<g>
<path d="M333 28h345.5"></path>
</g>
<path d="M678.5 28a10 10 0 0 1 10 10v8a10 10 0 0 0 10 10"></path>
<path d="M313 56h20"></path>
<g>
<path d="M333 56h0"></path>
<path d="M678.5 56h0"></path>
<g>
<path d="M333 56h0"></path>
<path d="M563.5 56h0"></path>
<path d="M333 56a10 10 0 0 0 10 -10v0a10 10 0 0 1 10 -10"></path>
<g>
<path d="M353 36h190.5"></path>
</g>
<path d="M543.5 36a10 10 0 0 1 10 10v0a10 10 0 0 0 10 10"></path>
<path d="M333 56h20"></path>
<g>
<path d="M353 56h0"></path>
<path d="M543.5 56h0"></path>
<path d="M353 56h10"></path>
<g>
<path d="M363 56h0"></path>
<path d="M533.5 56h0"></path>
<g class="non-terminal">
<path d="M363 56h0"></path>
<path d="M468 56h0"></path>
<rect x="363" y="45" width="105" height="22"></rect>
<a xlink:href="#/cds/expression/CDSElement"><text x="415.5" y="60">CDSElement</text>
</a>
</g>
<path d="M468 56h10"></path>
<path d="M478 56h10"></path>
<g class="terminal">
<path d="M488 56h0"></path>
<path d="M533.5 56h0"></path>
<rect x="488" y="45" width="45.5" height="22" rx="10" ry="10"></rect>
<text x="510.75" y="60">","</text>
</g>
</g>
<path d="M533.5 56h10"></path>
<path d="M363 56a10 10 0 0 0 -10 10v0a10 10 0 0 0 10 10"></path>
<g>
<path d="M363 76h170.5"></path>
</g>
<path d="M533.5 76a10 10 0 0 0 10 -10v0a10 10 0 0 0 -10 -10"></path>
</g>
<path d="M543.5 56h20"></path>
</g>
<path d="M563.5 56h10"></path>
<g class="non-terminal">
<path d="M573.5 56h0"></path>
<path d="M678.5 56h0"></path>
<rect x="573.5" y="45" width="105" height="22"></rect>
<a xlink:href="#/cds/expression/CDSElement"><text x="626" y="60">CDSElement</text>
</a>
</g>
</g>
<path d="M678.5 56h20"></path>
</g>
<path d="M698.5 56h20"></path>
</g>
<path d="M718.5 56h10"></path>
<g class="terminal">
<path d="M728.5 56h0"></path>
<path d="M799.5 56h0"></path>
<rect x="728.5" y="45" width="71" height="22" rx="10" ry="10"></rect>
<text x="764" y="60">"FROM"</text>
</g>
<path d="M799.5 56h10"></path>
<path d="M809.5 56h10"></path>
<g class="non-terminal">
<path d="M819.5 56h0"></path>
<path d="M916 56h0"></path>
<rect x="819.5" y="45" width="96.5" height="22"></rect>
<a xlink:href="#/cds/expression/CDSSource"><text x="867.75" y="60">CDSSource</text>
</a>
</g>
<path d="M916 56h10"></path>
<g>
<path d="M926 56h0"></path>
<path d="M1065.5 56h0"></path>
<path d="M926 56a10 10 0 0 0 10 -10v0a10 10 0 0 1 10 -10"></path>
<g>
<path d="M946 36h99.5"></path>
</g>
<path d="M1045.5 36a10 10 0 0 1 10 10v0a10 10 0 0 0 10 10"></path>
<path d="M926 56h20"></path>
<g>
<path d="M946 56h0"></path>
<path d="M1045.5 56h0"></path>
<path d="M946 56h10"></path>
<g class="non-terminal">
<path d="M956 56h0"></path>
<path d="M1035.5 56h0"></path>
<rect x="956" y="45" width="79.5" height="22"></rect>
<a xlink:href="#/cds/expression/CDSJoin"><text x="995.75" y="60">CDSJoin</text>
</a>
</g>
<path d="M1035.5 56h10"></path>
<path d="M956 56a10 10 0 0 0 -10 10v0a10 10 0 0 0 10 10"></path>
<g>
<path d="M956 76h79.5"></path>
</g>
<path d="M1035.5 76a10 10 0 0 0 10 -10v0a10 10 0 0 0 -10 -10"></path>
</g>
<path d="M1045.5 56h20"></path>
</g>
<g>
<path d="M1065.5 56h0"></path>
<path d="M1264.5 56h0"></path>
<path d="M1065.5 56a10 10 0 0 0 10 -10v0a10 10 0 0 1 10 -10"></path>
<g>
<path d="M1085.5 36h159"></path>
</g>
<path d="M1244.5 36a10 10 0 0 1 10 10v0a10 10 0 0 0 10 10"></path>
<path d="M1065.5 56h20"></path>
<g>
<path d="M1085.5 56h0"></path>
<path d="M1244.5 56h0"></path>
<path d="M1085.5 56h10"></path>
<g class="non-terminal">
<path d="M1095.5 56h0"></path>
<path d="M1234.5 56h0"></path>
<rect x="1095.5" y="45" width="139" height="22"></rect>
<a xlink:href="#/cds/expression/CDSComposition"><text x="1165" y="60">CDSComposition</text>
</a>
</g>
<path d="M1234.5 56h10"></path>
<path d="M1095.5 56a10 10 0 0 0 -10 10v0a10 10 0 0 0 10 10"></path>
<g>
<path d="M1095.5 76h139"></path>
</g>
<path d="M1234.5 76a10 10 0 0 0 10 -10v0a10 10 0 0 0 -10 -10"></path>
</g>
<path d="M1244.5 56h20"></path>
</g>
<g>
<path d="M1264.5 56h0"></path>
<path d="M1463.5 56h0"></path>
<path d="M1264.5 56a10 10 0 0 0 10 -10v0a10 10 0 0 1 10 -10"></path>
<g>
<path d="M1284.5 36h159"></path>
</g>
<path d="M1443.5 36a10 10 0 0 1 10 10v0a10 10 0 0 0 10 10"></path>
<path d="M1264.5 56h20"></path>
<g>
<path d="M1284.5 56h0"></path>
<path d="M1443.5 56h0"></path>
<path d="M1284.5 56h10"></path>
<g class="non-terminal">
<path d="M1294.5 56h0"></path>
<path d="M1433.5 56h0"></path>
<rect x="1294.5" y="45" width="139" height="22"></rect>
<a xlink:href="#/cds/expression/CDSAssociation"><text x="1364" y="60">CDSAssociation</text>
</a>
</g>
<path d="M1433.5 56h10"></path>
<path d="M1294.5 56a10 10 0 0 0 -10 10v0a10 10 0 0 0 10 10"></path>
<g>
<path d="M1294.5 76h139"></path>
</g>
<path d="M1433.5 76a10 10 0 0 0 10 -10v0a10 10 0 0 0 -10 -10"></path>
</g>
<path d="M1443.5 56h20"></path>
</g>
<g>
<path d="M1463.5 56h0"></path>
<path d="M1662.5 56h0"></path>
<path d="M1463.5 56a10 10 0 0 0 10 -10v0a10 10 0 0 1 10 -10"></path>
<g>
<path d="M1483.5 36h159"></path>
</g>
<path d="M1642.5 36a10 10 0 0 1 10 10v0a10 10 0 0 0 10 10"></path>
<path d="M1463.5 56h20"></path>
<g>
<path d="M1483.5 56h0"></path>
<path d="M1642.5 56h0"></path>
<path d="M1483.5 56h10"></path>
<g class="non-terminal">
<path d="M1493.5 56h0"></path>
<path d="M1632.5 56h0"></path>
<rect x="1493.5" y="45" width="139" height="22"></rect>
<a xlink:href="#/cds/expression/CDSComposition"><text x="1563" y="60">CDSComposition</text>
</a>
</g>
<path d="M1632.5 56h10"></path>
<path d="M1493.5 56a10 10 0 0 0 -10 10v0a10 10 0 0 0 10 10"></path>
<g>
<path d="M1493.5 76h139"></path>
</g>
<path d="M1632.5 76a10 10 0 0 0 10 -10v0a10 10 0 0 0 -10 -10"></path>
</g>
<path d="M1642.5 56h20"></path>
</g>
<g>
<path d="M1662.5 56h0"></path>
<path d="M2189 56h0"></path>
<path d="M1662.5 56a10 10 0 0 0 10 -10v-8a10 10 0 0 1 10 -10"></path>
<g>
<path d="M1682.5 28h486.5"></path>
</g>
<path d="M2169 28a10 10 0 0 1 10 10v8a10 10 0 0 0 10 10"></path>
<path d="M1662.5 56h20"></path>
<g>
<path d="M1682.5 56h0"></path>
<path d="M2169 56h0"></path>
<g class="terminal">
<path d="M1682.5 56h0"></path>
<path d="M1728 56h0"></path>
<rect x="1682.5" y="45" width="45.5" height="22" rx="10" ry="10"></rect>
<text x="1705.25" y="60">"{"</text>
</g>
<path d="M1728 56h10"></path>
<path d="M1738 56h10"></path>
<g>
<path d="M1748 56h0"></path>
<path d="M1873 56h0"></path>
<path d="M1748 56h10"></path>
<g class="non-terminal">
<path d="M1758 56h0"></path>
<path d="M1863 56h0"></path>
<rect x="1758" y="45" width="105" height="22"></rect>
<a xlink:href="#/cds/expression/CDSElement"><text x="1810.5" y="60">CDSElement</text>
</a>
</g>
<path d="M1863 56h10"></path>
<path d="M1758 56a10 10 0 0 0 -10 10v0a10 10 0 0 0 10 10"></path>
<g>
<path d="M1758 76h105"></path>
</g>
<path d="M1863 76a10 10 0 0 0 10 -10v0a10 10 0 0 0 -10 -10"></path>
</g>
<path d="M1873 56h10"></path>
<g>
<path d="M1883 56h0"></path>
<path d="M2113.5 56h0"></path>
<path d="M1883 56a10 10 0 0 0 10 -10v0a10 10 0 0 1 10 -10"></path>
<g>
<path d="M1903 36h190.5"></path>
</g>
<path d="M2093.5 36a10 10 0 0 1 10 10v0a10 10 0 0 0 10 10"></path>
<path d="M1883 56h20"></path>
<g>
<path d="M1903 56h0"></path>
<path d="M2093.5 56h0"></path>
<path d="M1903 56h10"></path>
<g>
<path d="M1913 56h0"></path>
<path d="M2083.5 56h0"></path>
<g class="terminal">
<path d="M1913 56h0"></path>
<path d="M1958.5 56h0"></path>
<rect x="1913" y="45" width="45.5" height="22" rx="10" ry="10"></rect>
<text x="1935.75" y="60">","</text>
</g>
<path d="M1958.5 56h10"></path>
<path d="M1968.5 56h10"></path>
<g class="non-terminal">
<path d="M1978.5 56h0"></path>
<path d="M2083.5 56h0"></path>
<rect x="1978.5" y="45" width="105" height="22"></rect>
<a xlink:href="#/cds/expression/CDSElement"><text x="2031" y="60">CDSElement</text>
</a>
</g>
</g>
<path d="M2083.5 56h10"></path>
<path d="M1913 56a10 10 0 0 0 -10 10v0a10 10 0 0 0 10 10"></path>
<g>
<path d="M1913 76h170.5"></path>
</g>
<path d="M2083.5 76a10 10 0 0 0 10 -10v0a10 10 0 0 0 -10 -10"></path>
</g>
<path d="M2093.5 56h20"></path>
</g>
<path d="M2113.5 56h10"></path>
<g class="terminal">
<path d="M2123.5 56h0"></path>
<path d="M2169 56h0"></path>
<rect x="2123.5" y="45" width="45.5" height="22" rx="10" ry="10"></rect>
<text x="2146.25" y="60">"}"</text>
</g>
</g>
<path d="M2169 56h20"></path>
</g>
<g>
<path d="M2189 56h0"></path>
<path d="M2317 56h0"></path>
<path d="M2189 56a10 10 0 0 0 10 -10v0a10 10 0 0 1 10 -10"></path>
<g>
<path d="M2209 36h88"></path>
</g>
<path d="M2297 36a10 10 0 0 1 10 10v0a10 10 0 0 0 10 10"></path>
<path d="M2189 56h20"></path>
<g class="non-terminal">
<path d="M2209 56h0"></path>
<path d="M2297 56h0"></path>
<rect x="2209" y="45" width="88" height="22"></rect>
<a xlink:href="#/cds/expression/CDSWhere"><text x="2253" y="60">CDSWhere</text>
</a>
</g>
<path d="M2297 56h20"></path>
</g>
<g>
<path d="M2317 56h0"></path>
<path d="M2462 56h0"></path>
<path d="M2317 56a10 10 0 0 0 10 -10v0a10 10 0 0 1 10 -10"></path>
<g>
<path d="M2337 36h105"></path>
</g>
<path d="M2442 36a10 10 0 0 1 10 10v0a10 10 0 0 0 10 10"></path>
<path d="M2317 56h20"></path>
<g class="non-terminal">
<path d="M2337 56h0"></path>
<path d="M2442 56h0"></path>
<rect x="2337" y="45" width="105" height="22"></rect>
<a xlink:href="#/cds/expression/CDSGroupBy"><text x="2389.5" y="60">CDSGroupBy</text>
</a>
</g>
<path d="M2442 56h20"></path>
</g>
<g>
<path d="M2462 56h0"></path>
<path d="M2598.5 56h0"></path>
<path d="M2462 56a10 10 0 0 0 10 -10v0a10 10 0 0 1 10 -10"></path>
<g>
<path d="M2482 36h96.5"></path>
</g>
<path d="M2578.5 36a10 10 0 0 1 10 10v0a10 10 0 0 0 10 10"></path>
<path d="M2462 56h20"></path>
<g class="non-terminal">
<path d="M2482 56h0"></path>
<path d="M2578.5 56h0"></path>
<rect x="2482" y="45" width="96.5" height="22"></rect>
<a xlink:href="#/cds/expression/CDSHaving"><text x="2530.25" y="60">CDSHaving</text>
</a>
</g>
<path d="M2578.5 56h20"></path>
</g>
<g>
<path d="M2598.5 56h0"></path>
<path d="M2937 56h0"></path>
<path d="M2598.5 56a10 10 0 0 0 10 -10v-8a10 10 0 0 1 10 -10"></path>
<g>
<path d="M2618.5 28h298.5"></path>
</g>
<path d="M2917 28a10 10 0 0 1 10 10v8a10 10 0 0 0 10 10"></path>
<path d="M2598.5 56h20"></path>
<g>
<path d="M2618.5 56h0"></path>
<path d="M2917 56h0"></path>
<g class="terminal">
<path d="M2618.5 56h0"></path>
<path d="M2698 56h0"></path>
<rect x="2618.5" y="45" width="79.5" height="22" rx="10" ry="10"></rect>
<text x="2658.25" y="60">"UNION"</text>
</g>
<path d="M2698 56h10"></path>
<g>
<path d="M2708 56h0"></path>
<path d="M2810.5 56h0"></path>
<path d="M2708 56a10 10 0 0 0 10 -10v0a10 10 0 0 1 10 -10"></path>
<g>
<path d="M2728 36h62.5"></path>
</g>
<path d="M2790.5 36a10 10 0 0 1 10 10v0a10 10 0 0 0 10 10"></path>
<path d="M2708 56h20"></path>
<g class="terminal">
<path d="M2728 56h0"></path>
<path d="M2790.5 56h0"></path>
<rect x="2728" y="45" width="62.5" height="22" rx="10" ry="10"></rect>
<text x="2759.25" y="60">"ALL"</text>
</g>
<path d="M2790.5 56h20"></path>
</g>
<path d="M2810.5 56h10"></path>
<g class="non-terminal">
<path d="M2820.5 56h0"></path>
<path d="M2917 56h0"></path>
<rect x="2820.5" y="45" width="96.5" height="22"></rect>
<a xlink:href="#/cds/expression/CDSSelect"><text x="2868.75" y="60">CDSSelect</text>
</a>
</g>
</g>
<path d="M2917 56h20"></path>
</g>
</g>
<path d="M2937 56h10"></path>
<path d="M 2947 56 h 20 m 0 -10 v 20"></path>
</g>
</svg>
