<svg xmlns="http://www.w3.org/2000/svg" xmlns:xlink="http://www.w3.org/1999/xlink" class="railroad-diagram" width="949.5" height="96" viewBox="0 0 949.5 96">
<defs>
<style type="text/css"><![CDATA[
path {
stroke-width: 3;
stroke: black;
fill: rgba(0,0,0,0);
}
text {
font: bold 14px monospace;
text-anchor: middle;
}
text.diagram-text {
font-size: 12px;
}
a {
fill: blue;
}
text.diagram-arrow {
font-size: 16px;
}
text.label {
text-anchor: start;
}
text.comment {
font: italic 12px monospace;
}
rect {
stroke-width: 3;
stroke: black;
fill: #BCBCBC;
}
path.diagram-text {
stroke-width: 3;
stroke: black;
fill: #BCBCBC;
cursor: help;
}
]]></style>
</defs>
<g transform="translate(.5 .5)">
<g>
<path d="M20 38v20m0 -10h20"></path>
</g>
<path d="M40 48h10"></path>
<g>
<path d="M50 48h0"></path>
<path d="M899.5 48h0"></path>
<g class="terminal">
<path d="M50 48h0"></path>
<path d="M155 48h0"></path>
<rect x="50" y="37" width="105" height="22" rx="10" ry="10"></rect>
<text x="102.5" y="52">"GROUP BY"</text>
</g>
<path d="M155 48h10"></path>
<path d="M165 48h10"></path>
<g>
<path d="M175 48h0"></path>
<path d="M469.5 48h0"></path>
<g class="non-terminal">
<path d="M175 48h0"></path>
<path d="M254.5 48h0"></path>
<rect x="175" y="37" width="79.5" height="22"></rect>
<a xlink:href="#/cds/expression/CDSName"><text x="214.75" y="52">CDSName</text>
</a>
</g>
<path d="M254.5 48h10"></path>
<g>
<path d="M264.5 48h0"></path>
<path d="M469.5 48h0"></path>
<path d="M264.5 48a10 10 0 0 0 10 -10v0a10 10 0 0 1 10 -10"></path>
<g>
<path d="M284.5 28h165"></path>
</g>
<path d="M449.5 28a10 10 0 0 1 10 10v0a10 10 0 0 0 10 10"></path>
<path d="M264.5 48h20"></path>
<g>
<path d="M284.5 48h0"></path>
<path d="M449.5 48h0"></path>
<path d="M284.5 48h10"></path>
<g>
<path d="M294.5 48h0"></path>
<path d="M439.5 48h0"></path>
<g class="terminal">
<path d="M294.5 48h0"></path>
<path d="M340 48h0"></path>
<rect x="294.5" y="37" width="45.5" height="22" rx="10" ry="10"></rect>
<text x="317.25" y="52">"."</text>
</g>
<path d="M340 48h10"></path>
<path d="M350 48h10"></path>
<g class="non-terminal">
<path d="M360 48h0"></path>
<path d="M439.5 48h0"></path>
<rect x="360" y="37" width="79.5" height="22"></rect>
<a xlink:href="#/cds/expression/CDSName"><text x="399.75" y="52">CDSName</text>
</a>
</g>
</g>
<path d="M439.5 48h10"></path>
<path d="M294.5 48a10 10 0 0 0 -10 10v0a10 10 0 0 0 10 10"></path>
<g>
<path d="M294.5 68h145"></path>
</g>
<path d="M439.5 68a10 10 0 0 0 10 -10v0a10 10 0 0 0 -10 -10"></path>
</g>
<path d="M449.5 48h20"></path>
</g>
</g>
<path d="M469.5 48h10"></path>
<g>
<path d="M479.5 48h0"></path>
<path d="M899.5 48h0"></path>
<path d="M479.5 48a10 10 0 0 0 10 -10v-8a10 10 0 0 1 10 -10"></path>
<g>
<path d="M499.5 20h380"></path>
</g>
<path d="M879.5 20a10 10 0 0 1 10 10v8a10 10 0 0 0 10 10"></path>
<path d="M479.5 48h20"></path>
<g>
<path d="M499.5 48h0"></path>
<path d="M879.5 48h0"></path>
<path d="M499.5 48h10"></path>
<g>
<path d="M509.5 48h0"></path>
<path d="M869.5 48h0"></path>
<g class="terminal">
<path d="M509.5 48h0"></path>
<path d="M555 48h0"></path>
<rect x="509.5" y="37" width="45.5" height="22" rx="10" ry="10"></rect>
<text x="532.25" y="52">","</text>
</g>
<path d="M555 48h10"></path>
<path d="M565 48h10"></path>
<g>
<path d="M575 48h0"></path>
<path d="M869.5 48h0"></path>
<g class="non-terminal">
<path d="M575 48h0"></path>
<path d="M654.5 48h0"></path>
<rect x="575" y="37" width="79.5" height="22"></rect>
<a xlink:href="#/cds/expression/CDSName"><text x="614.75" y="52">CDSName</text>
</a>
</g>
<path d="M654.5 48h10"></path>
<g>
<path d="M664.5 48h0"></path>
<path d="M869.5 48h0"></path>
<path d="M664.5 48a10 10 0 0 0 10 -10v0a10 10 0 0 1 10 -10"></path>
<g>
<path d="M684.5 28h165"></path>
</g>
<path d="M849.5 28a10 10 0 0 1 10 10v0a10 10 0 0 0 10 10"></path>
<path d="M664.5 48h20"></path>
<g>
<path d="M684.5 48h0"></path>
<path d="M849.5 48h0"></path>
<path d="M684.5 48h10"></path>
<g>
<path d="M694.5 48h0"></path>
<path d="M839.5 48h0"></path>
<g class="terminal">
<path d="M694.5 48h0"></path>
<path d="M740 48h0"></path>
<rect x="694.5" y="37" width="45.5" height="22" rx="10" ry="10"></rect>
<text x="717.25" y="52">"."</text>
</g>
<path d="M740 48h10"></path>
<path d="M750 48h10"></path>
<g class="non-terminal">
<path d="M760 48h0"></path>
<path d="M839.5 48h0"></path>
<rect x="760" y="37" width="79.5" height="22"></rect>
<a xlink:href="#/cds/expression/CDSName"><text x="799.75" y="52">CDSName</text>
</a>
</g>
</g>
<path d="M839.5 48h10"></path>
<path d="M694.5 48a10 10 0 0 0 -10 10v0a10 10 0 0 0 10 10"></path>
<g>
<path d="M694.5 68h145"></path>
</g>
<path d="M839.5 68a10 10 0 0 0 10 -10v0a10 10 0 0 0 -10 -10"></path>
</g>
<path d="M849.5 48h20"></path>
</g>
</g>
</g>
<path d="M869.5 48h10"></path>
<path d="M509.5 48a10 10 0 0 0 -10 10v8a10 10 0 0 0 10 10"></path>
<g>
<path d="M509.5 76h360"></path>
</g>
<path d="M869.5 76a10 10 0 0 0 10 -10v-8a10 10 0 0 0 -10 -10"></path>
</g>
<path d="M879.5 48h20"></path>
</g>
</g>
<path d="M899.5 48h10"></path>
<path d="M 909.5 48 h 20 m 0 -10 v 20"></path>
</g>
</svg>
