<svg xmlns="http://www.w3.org/2000/svg" xmlns:xlink="http://www.w3.org/1999/xlink" class="railroad-diagram" width="3294.5" height="593" viewBox="0 0 3294.5 593">
<defs>
<style type="text/css"><![CDATA[
path {
stroke-width: 3;
stroke: black;
fill: rgba(0,0,0,0);
}
text {
font: bold 14px monospace;
text-anchor: middle;
}
text.diagram-text {
font-size: 12px;
}
a {
fill: blue;
}
text.diagram-arrow {
font-size: 16px;
}
text.label {
text-anchor: start;
}
text.comment {
font: italic 12px monospace;
}
rect {
stroke-width: 3;
stroke: black;
fill: #BCBCBC;
}
path.diagram-text {
stroke-width: 3;
stroke: black;
fill: #BCBCBC;
cursor: help;
}
]]></style>
</defs>
<g transform="translate(.5 .5)">
<g>
<path d="M20 38v20m0 -10h20"></path>
</g>
<path d="M40 48h10"></path>
<g>
<path d="M50 48h0"></path>
<path d="M3244.5 48h0"></path>
<g>
<path d="M50 48h0"></path>
<path d="M1566 48h0"></path>
<path d="M50 48h20"></path>
<g>
<path d="M70 48h0"></path>
<path d="M1546 48h0"></path>
<g>
<path d="M70 48h0"></path>
<path d="M172.5 48h0"></path>
<path d="M70 48a10 10 0 0 0 10 -10v0a10 10 0 0 1 10 -10"></path>
<g>
<path d="M90 28h62.5"></path>
</g>
<path d="M152.5 28a10 10 0 0 1 10 10v0a10 10 0 0 0 10 10"></path>
<path d="M70 48h20"></path>
<g class="terminal">
<path d="M90 48h0"></path>
<path d="M152.5 48h0"></path>
<rect x="90" y="37" width="62.5" height="22" rx="10" ry="10"></rect>
<text x="121.25" y="52">"NOT"</text>
</g>
<path d="M152.5 48h20"></path>
</g>
<g>
<path d="M172.5 48h0"></path>
<path d="M554 48h0"></path>
<path d="M172.5 48h20"></path>
<g class="non-terminal">
<path d="M192.5 48h0"></path>
<path d="M289 48h245"></path>
<rect x="192.5" y="37" width="96.5" height="22"></rect>
<a xlink:href="#/cds/expression/CDSString"><text x="240.75" y="52">CDSString</text>
</a>
</g>
<path d="M534 48h20"></path>
<path d="M172.5 48a10 10 0 0 1 10 10v10a10 10 0 0 0 10 10"></path>
<g class="non-terminal">
<path d="M192.5 78h0"></path>
<path d="M306 78h228"></path>
<rect x="192.5" y="67" width="113.5" height="22"></rect>
<a xlink:href="#/cds/expression/CDSFunction"><text x="249.25" y="82">CDSFunction</text>
</a>
</g>
<path d="M534 78a10 10 0 0 0 10 -10v-10a10 10 0 0 1 10 -10"></path>
<path d="M172.5 48a10 10 0 0 1 10 10v40a10 10 0 0 0 10 10"></path>
<g class="non-terminal">
<path d="M192.5 108h0"></path>
<path d="M314.5 108h219.5"></path>
<rect x="192.5" y="97" width="122" height="22"></rect>
<a xlink:href="#/cds/expression/CDSAggregate"><text x="253.5" y="112">CDSAggregate</text>
</a>
</g>
<path d="M534 108a10 10 0 0 0 10 -10v-40a10 10 0 0 1 10 -10"></path>
<path d="M172.5 48a10 10 0 0 1 10 10v79a10 10 0 0 0 10 10"></path>
<g>
<path d="M192.5 147h0"></path>
<path d="M534 147h0"></path>
<g class="non-terminal">
<path d="M192.5 147h0"></path>
<path d="M272 147h0"></path>
<rect x="192.5" y="136" width="79.5" height="22"></rect>
<a xlink:href="#/cds/expression/CDSName"><text x="232.25" y="151">CDSName</text>
</a>
</g>
<path d="M272 147h10"></path>
<g>
<path d="M282 147h0"></path>
<path d="M534 147h0"></path>
<path d="M282 147a10 10 0 0 0 10 -10v0a10 10 0 0 1 10 -10"></path>
<g>
<path d="M302 127h212"></path>
</g>
<path d="M514 127a10 10 0 0 1 10 10v0a10 10 0 0 0 10 10"></path>
<path d="M282 147h20"></path>
<g>
<path d="M302 147h0"></path>
<path d="M514 147h0"></path>
<path d="M302 147h10"></path>
<g>
<path d="M312 147h0"></path>
<path d="M504 147h0"></path>
<g class="terminal">
<path d="M312 147h0"></path>
<path d="M357.5 147h0"></path>
<rect x="312" y="136" width="45.5" height="22" rx="10" ry="10"></rect>
<text x="334.75" y="151">"."</text>
</g>
<path d="M357.5 147h10"></path>
<g>
<path d="M367.5 147h0"></path>
<path d="M504 147h0"></path>
<path d="M367.5 147h20"></path>
<g class="non-terminal">
<path d="M387.5 147h0"></path>
<path d="M484 147h0"></path>
<rect x="387.5" y="136" width="96.5" height="22"></rect>
<a xlink:href="#/cds/expression/CDSString"><text x="435.75" y="151">CDSString</text>
</a>
</g>
<path d="M484 147h20"></path>
<path d="M367.5 147a10 10 0 0 1 10 10v10a10 10 0 0 0 10 10"></path>
<g class="non-terminal">
<path d="M387.5 177h0"></path>
<path d="M467 177h17"></path>
<rect x="387.5" y="166" width="79.5" height="22"></rect>
<a xlink:href="#/cds/expression/CDSName"><text x="427.25" y="181">CDSName</text>
</a>
</g>
<path d="M484 177a10 10 0 0 0 10 -10v-10a10 10 0 0 1 10 -10"></path>
</g>
</g>
<path d="M504 147h10"></path>
<path d="M312 147a10 10 0 0 0 -10 10v29a10 10 0 0 0 10 10"></path>
<g>
<path d="M312 196h192"></path>
</g>
<path d="M504 196a10 10 0 0 0 10 -10v-29a10 10 0 0 0 -10 -10"></path>
</g>
<path d="M514 147h20"></path>
</g>
</g>
<path d="M534 147a10 10 0 0 0 10 -10v-79a10 10 0 0 1 10 -10"></path>
</g>
<g>
<path d="M554 48h0"></path>
<path d="M1546 48h0"></path>
<path d="M554 48h20"></path>
<g>
<path d="M574 48h0"></path>
<path d="M1146.5 48h379.5"></path>
<g>
<path d="M574 48h0"></path>
<path d="M725 48h0"></path>
<path d="M574 48h20"></path>
<g class="terminal">
<path d="M594 48h0"></path>
<path d="M639.5 48h65.5"></path>
<rect x="594" y="37" width="45.5" height="22" rx="10" ry="10"></rect>
<text x="616.75" y="52">"="</text>
</g>
<path d="M705 48h20"></path>
<path d="M574 48a10 10 0 0 1 10 10v10a10 10 0 0 0 10 10"></path>
<g>
<path d="M594 78h0"></path>
<path d="M705 78h0"></path>
<g class="terminal">
<path d="M594 78h0"></path>
<path d="M639.5 78h0"></path>
<rect x="594" y="67" width="45.5" height="22" rx="10" ry="10"></rect>
<text x="616.75" y="82">"!"</text>
</g>
<path d="M639.5 78h10"></path>
<path d="M649.5 78h10"></path>
<g class="terminal">
<path d="M659.5 78h0"></path>
<path d="M705 78h0"></path>
<rect x="659.5" y="67" width="45.5" height="22" rx="10" ry="10"></rect>
<text x="682.25" y="82">"="</text>
</g>
</g>
<path d="M705 78a10 10 0 0 0 10 -10v-10a10 10 0 0 1 10 -10"></path>
<path d="M574 48a10 10 0 0 1 10 10v40a10 10 0 0 0 10 10"></path>
<g>
<path d="M594 108h0"></path>
<path d="M705 108h0"></path>
<g class="terminal">
<path d="M594 108h0"></path>
<path d="M639.5 108h0"></path>
<rect x="594" y="97" width="45.5" height="22" rx="10" ry="10"></rect>
<text x="616.75" y="112">"&#60;"</text>
</g>
<path d="M639.5 108h10"></path>
<path d="M649.5 108h10"></path>
<g class="terminal">
<path d="M659.5 108h0"></path>
<path d="M705 108h0"></path>
<rect x="659.5" y="97" width="45.5" height="22" rx="10" ry="10"></rect>
<text x="682.25" y="112">">"</text>
</g>
</g>
<path d="M705 108a10 10 0 0 0 10 -10v-40a10 10 0 0 1 10 -10"></path>
<path d="M574 48a10 10 0 0 1 10 10v70a10 10 0 0 0 10 10"></path>
<g>
<path d="M594 138h0"></path>
<path d="M705 138h0"></path>
<g class="terminal">
<path d="M594 138h0"></path>
<path d="M639.5 138h0"></path>
<rect x="594" y="127" width="45.5" height="22" rx="10" ry="10"></rect>
<text x="616.75" y="142">">"</text>
</g>
<path d="M639.5 138h10"></path>
<path d="M649.5 138h10"></path>
<g class="terminal">
<path d="M659.5 138h0"></path>
<path d="M705 138h0"></path>
<rect x="659.5" y="127" width="45.5" height="22" rx="10" ry="10"></rect>
<text x="682.25" y="142">"="</text>
</g>
</g>
<path d="M705 138a10 10 0 0 0 10 -10v-70a10 10 0 0 1 10 -10"></path>
<path d="M574 48a10 10 0 0 1 10 10v100a10 10 0 0 0 10 10"></path>
<g>
<path d="M594 168h0"></path>
<path d="M705 168h0"></path>
<g class="terminal">
<path d="M594 168h0"></path>
<path d="M639.5 168h0"></path>
<rect x="594" y="157" width="45.5" height="22" rx="10" ry="10"></rect>
<text x="616.75" y="172">"&#60;"</text>
</g>
<path d="M639.5 168h10"></path>
<path d="M649.5 168h10"></path>
<g class="terminal">
<path d="M659.5 168h0"></path>
<path d="M705 168h0"></path>
<rect x="659.5" y="157" width="45.5" height="22" rx="10" ry="10"></rect>
<text x="682.25" y="172">"="</text>
</g>
</g>
<path d="M705 168a10 10 0 0 0 10 -10v-100a10 10 0 0 1 10 -10"></path>
<path d="M574 48a10 10 0 0 1 10 10v130a10 10 0 0 0 10 10"></path>
<g class="terminal">
<path d="M594 198h0"></path>
<path d="M639.5 198h65.5"></path>
<rect x="594" y="187" width="45.5" height="22" rx="10" ry="10"></rect>
<text x="616.75" y="202">"&#60;"</text>
</g>
<path d="M705 198a10 10 0 0 0 10 -10v-130a10 10 0 0 1 10 -10"></path>
<path d="M574 48a10 10 0 0 1 10 10v160a10 10 0 0 0 10 10"></path>
<g class="terminal">
<path d="M594 228h0"></path>
<path d="M639.5 228h65.5"></path>
<rect x="594" y="217" width="45.5" height="22" rx="10" ry="10"></rect>
<text x="616.75" y="232">">"</text>
</g>
<path d="M705 228a10 10 0 0 0 10 -10v-160a10 10 0 0 1 10 -10"></path>
<path d="M574 48a10 10 0 0 1 10 10v190a10 10 0 0 0 10 10"></path>
<g class="terminal">
<path d="M594 258h0"></path>
<path d="M665 258h40"></path>
<rect x="594" y="247" width="71" height="22" rx="10" ry="10"></rect>
<text x="629.5" y="262">"LIKE"</text>
</g>
<path d="M705 258a10 10 0 0 0 10 -10v-190a10 10 0 0 1 10 -10"></path>
<path d="M574 48a10 10 0 0 1 10 10v220a10 10 0 0 0 10 10"></path>
<g class="terminal">
<path d="M594 288h0"></path>
<path d="M699 288h6"></path>
<rect x="594" y="277" width="105" height="22" rx="10" ry="10"></rect>
<text x="646.5" y="292">"NOT LIKE"</text>
</g>
<path d="M705 288a10 10 0 0 0 10 -10v-220a10 10 0 0 1 10 -10"></path>
</g>
<g>
<path d="M725 48h0"></path>
<path d="M1146.5 48h0"></path>
<path d="M725 48h20"></path>
<g>
<path d="M745 48h0"></path>
<path d="M1126.5 48h0"></path>
<path d="M745 48h20"></path>
<g class="non-terminal">
<path d="M765 48h0"></path>
<path d="M861.5 48h245"></path>
<rect x="765" y="37" width="96.5" height="22"></rect>
<a xlink:href="#/cds/expression/CDSString"><text x="813.25" y="52">CDSString</text>
</a>
</g>
<path d="M1106.5 48h20"></path>
<path d="M745 48a10 10 0 0 1 10 10v10a10 10 0 0 0 10 10"></path>
<g class="non-terminal">
<path d="M765 78h0"></path>
<path d="M878.5 78h228"></path>
<rect x="765" y="67" width="113.5" height="22"></rect>
<a xlink:href="#/cds/expression/CDSFunction"><text x="821.75" y="82">CDSFunction</text>
</a>
</g>
<path d="M1106.5 78a10 10 0 0 0 10 -10v-10a10 10 0 0 1 10 -10"></path>
<path d="M745 48a10 10 0 0 1 10 10v40a10 10 0 0 0 10 10"></path>
<g class="non-terminal">
<path d="M765 108h0"></path>
<path d="M887 108h219.5"></path>
<rect x="765" y="97" width="122" height="22"></rect>
<a xlink:href="#/cds/expression/CDSAggregate"><text x="826" y="112">CDSAggregate</text>
</a>
</g>
<path d="M1106.5 108a10 10 0 0 0 10 -10v-40a10 10 0 0 1 10 -10"></path>
<path d="M745 48a10 10 0 0 1 10 10v79a10 10 0 0 0 10 10"></path>
<g>
<path d="M765 147h0"></path>
<path d="M1106.5 147h0"></path>
<g class="non-terminal">
<path d="M765 147h0"></path>
<path d="M844.5 147h0"></path>
<rect x="765" y="136" width="79.5" height="22"></rect>
<a xlink:href="#/cds/expression/CDSName"><text x="804.75" y="151">CDSName</text>
</a>
</g>
<path d="M844.5 147h10"></path>
<g>
<path d="M854.5 147h0"></path>
<path d="M1106.5 147h0"></path>
<path d="M854.5 147a10 10 0 0 0 10 -10v0a10 10 0 0 1 10 -10"></path>
<g>
<path d="M874.5 127h212"></path>
</g>
<path d="M1086.5 127a10 10 0 0 1 10 10v0a10 10 0 0 0 10 10"></path>
<path d="M854.5 147h20"></path>
<g>
<path d="M874.5 147h0"></path>
<path d="M1086.5 147h0"></path>
<path d="M874.5 147h10"></path>
<g>
<path d="M884.5 147h0"></path>
<path d="M1076.5 147h0"></path>
<g class="terminal">
<path d="M884.5 147h0"></path>
<path d="M930 147h0"></path>
<rect x="884.5" y="136" width="45.5" height="22" rx="10" ry="10"></rect>
<text x="907.25" y="151">"."</text>
</g>
<path d="M930 147h10"></path>
<g>
<path d="M940 147h0"></path>
<path d="M1076.5 147h0"></path>
<path d="M940 147h20"></path>
<g class="non-terminal">
<path d="M960 147h0"></path>
<path d="M1056.5 147h0"></path>
<rect x="960" y="136" width="96.5" height="22"></rect>
<a xlink:href="#/cds/expression/CDSString"><text x="1008.25" y="151">CDSString</text>
</a>
</g>
<path d="M1056.5 147h20"></path>
<path d="M940 147a10 10 0 0 1 10 10v10a10 10 0 0 0 10 10"></path>
<g class="non-terminal">
<path d="M960 177h0"></path>
<path d="M1039.5 177h17"></path>
<rect x="960" y="166" width="79.5" height="22"></rect>
<a xlink:href="#/cds/expression/CDSName"><text x="999.75" y="181">CDSName</text>
</a>
</g>
<path d="M1056.5 177a10 10 0 0 0 10 -10v-10a10 10 0 0 1 10 -10"></path>
</g>
</g>
<path d="M1076.5 147h10"></path>
<path d="M884.5 147a10 10 0 0 0 -10 10v29a10 10 0 0 0 10 10"></path>
<g>
<path d="M884.5 196h192"></path>
</g>
<path d="M1076.5 196a10 10 0 0 0 10 -10v-29a10 10 0 0 0 -10 -10"></path>
</g>
<path d="M1086.5 147h20"></path>
</g>
</g>
<path d="M1106.5 147a10 10 0 0 0 10 -10v-79a10 10 0 0 1 10 -10"></path>
</g>
<path d="M1126.5 48h20"></path>
<path d="M725 48a10 10 0 0 1 10 10v147a10 10 0 0 0 10 10"></path>
<g class="non-terminal">
<path d="M745 215h0"></path>
<path d="M850 215h276.5"></path>
<rect x="745" y="204" width="105" height="22"></rect>
<a xlink:href="#/cds/expression/CDSInteger"><text x="797.5" y="219">CDSInteger</text>
</a>
</g>
<path d="M1126.5 215a10 10 0 0 0 10 -10v-147a10 10 0 0 1 10 -10"></path>
</g>
</g>
<path d="M1526 48h20"></path>
<path d="M554 48a10 10 0 0 1 10 10v259a10 10 0 0 0 10 10"></path>
<g>
<path d="M574 327h0"></path>
<path d="M877 327h649"></path>
<g class="terminal">
<path d="M574 327h0"></path>
<path d="M628 327h0"></path>
<rect x="574" y="316" width="54" height="22" rx="10" ry="10"></rect>
<text x="601" y="331">"IS"</text>
</g>
<path d="M628 327h10"></path>
<g>
<path d="M638 327h0"></path>
<path d="M740.5 327h0"></path>
<path d="M638 327a10 10 0 0 0 10 -10v0a10 10 0 0 1 10 -10"></path>
<g>
<path d="M658 307h62.5"></path>
</g>
<path d="M720.5 307a10 10 0 0 1 10 10v0a10 10 0 0 0 10 10"></path>
<path d="M638 327h20"></path>
<g class="terminal">
<path d="M658 327h0"></path>
<path d="M720.5 327h0"></path>
<rect x="658" y="316" width="62.5" height="22" rx="10" ry="10"></rect>
<text x="689.25" y="331">"NOT"</text>
</g>
<path d="M720.5 327h20"></path>
</g>
<g>
<path d="M740.5 327h0"></path>
<path d="M877 327h0"></path>
<path d="M740.5 327h20"></path>
<g class="terminal">
<path d="M760.5 327h0"></path>
<path d="M857 327h0"></path>
<rect x="760.5" y="316" width="96.5" height="22" rx="10" ry="10"></rect>
<text x="808.75" y="331">"INITIAL"</text>
</g>
<path d="M857 327h20"></path>
<path d="M740.5 327a10 10 0 0 1 10 10v10a10 10 0 0 0 10 10"></path>
<g class="terminal">
<path d="M760.5 357h0"></path>
<path d="M831.5 357h25.5"></path>
<rect x="760.5" y="346" width="71" height="22" rx="10" ry="10"></rect>
<text x="796" y="361">"NULL"</text>
</g>
<path d="M857 357a10 10 0 0 0 10 -10v-10a10 10 0 0 1 10 -10"></path>
</g>
</g>
<path d="M1526 327a10 10 0 0 0 10 -10v-259a10 10 0 0 1 10 -10"></path>
<path d="M554 48a10 10 0 0 1 10 10v319a10 10 0 0 0 10 10"></path>
<g>
<path d="M574 387h0"></path>
<path d="M1526 387h0"></path>
<g class="terminal">
<path d="M574 387h0"></path>
<path d="M670.5 387h0"></path>
<rect x="574" y="376" width="96.5" height="22" rx="10" ry="10"></rect>
<text x="622.25" y="391">"BETWEEN"</text>
</g>
<path d="M670.5 387h10"></path>
<g>
<path d="M680.5 387h0"></path>
<path d="M1062 387h0"></path>
<path d="M680.5 387h20"></path>
<g class="non-terminal">
<path d="M700.5 387h0"></path>
<path d="M797 387h245"></path>
<rect x="700.5" y="376" width="96.5" height="22"></rect>
<a xlink:href="#/cds/expression/CDSString"><text x="748.75" y="391">CDSString</text>
</a>
</g>
<path d="M1042 387h20"></path>
<path d="M680.5 387a10 10 0 0 1 10 10v10a10 10 0 0 0 10 10"></path>
<g class="non-terminal">
<path d="M700.5 417h0"></path>
<path d="M814 417h228"></path>
<rect x="700.5" y="406" width="113.5" height="22"></rect>
<a xlink:href="#/cds/expression/CDSFunction"><text x="757.25" y="421">CDSFunction</text>
</a>
</g>
<path d="M1042 417a10 10 0 0 0 10 -10v-10a10 10 0 0 1 10 -10"></path>
<path d="M680.5 387a10 10 0 0 1 10 10v40a10 10 0 0 0 10 10"></path>
<g class="non-terminal">
<path d="M700.5 447h0"></path>
<path d="M822.5 447h219.5"></path>
<rect x="700.5" y="436" width="122" height="22"></rect>
<a xlink:href="#/cds/expression/CDSAggregate"><text x="761.5" y="451">CDSAggregate</text>
</a>
</g>
<path d="M1042 447a10 10 0 0 0 10 -10v-40a10 10 0 0 1 10 -10"></path>
<path d="M680.5 387a10 10 0 0 1 10 10v79a10 10 0 0 0 10 10"></path>
<g>
<path d="M700.5 486h0"></path>
<path d="M1042 486h0"></path>
<g class="non-terminal">
<path d="M700.5 486h0"></path>
<path d="M780 486h0"></path>
<rect x="700.5" y="475" width="79.5" height="22"></rect>
<a xlink:href="#/cds/expression/CDSName"><text x="740.25" y="490">CDSName</text>
</a>
</g>
<path d="M780 486h10"></path>
<g>
<path d="M790 486h0"></path>
<path d="M1042 486h0"></path>
<path d="M790 486a10 10 0 0 0 10 -10v0a10 10 0 0 1 10 -10"></path>
<g>
<path d="M810 466h212"></path>
</g>
<path d="M1022 466a10 10 0 0 1 10 10v0a10 10 0 0 0 10 10"></path>
<path d="M790 486h20"></path>
<g>
<path d="M810 486h0"></path>
<path d="M1022 486h0"></path>
<path d="M810 486h10"></path>
<g>
<path d="M820 486h0"></path>
<path d="M1012 486h0"></path>
<g class="terminal">
<path d="M820 486h0"></path>
<path d="M865.5 486h0"></path>
<rect x="820" y="475" width="45.5" height="22" rx="10" ry="10"></rect>
<text x="842.75" y="490">"."</text>
</g>
<path d="M865.5 486h10"></path>
<g>
<path d="M875.5 486h0"></path>
<path d="M1012 486h0"></path>
<path d="M875.5 486h20"></path>
<g class="non-terminal">
<path d="M895.5 486h0"></path>
<path d="M992 486h0"></path>
<rect x="895.5" y="475" width="96.5" height="22"></rect>
<a xlink:href="#/cds/expression/CDSString"><text x="943.75" y="490">CDSString</text>
</a>
</g>
<path d="M992 486h20"></path>
<path d="M875.5 486a10 10 0 0 1 10 10v10a10 10 0 0 0 10 10"></path>
<g class="non-terminal">
<path d="M895.5 516h0"></path>
<path d="M975 516h17"></path>
<rect x="895.5" y="505" width="79.5" height="22"></rect>
<a xlink:href="#/cds/expression/CDSName"><text x="935.25" y="520">CDSName</text>
</a>
</g>
<path d="M992 516a10 10 0 0 0 10 -10v-10a10 10 0 0 1 10 -10"></path>
</g>
</g>
<path d="M1012 486h10"></path>
<path d="M820 486a10 10 0 0 0 -10 10v29a10 10 0 0 0 10 10"></path>
<g>
<path d="M820 535h192"></path>
</g>
<path d="M1012 535a10 10 0 0 0 10 -10v-29a10 10 0 0 0 -10 -10"></path>
</g>
<path d="M1022 486h20"></path>
</g>
</g>
<path d="M1042 486a10 10 0 0 0 10 -10v-79a10 10 0 0 1 10 -10"></path>
</g>
<path d="M1062 387h10"></path>
<g class="terminal">
<path d="M1072 387h0"></path>
<path d="M1134.5 387h0"></path>
<rect x="1072" y="376" width="62.5" height="22" rx="10" ry="10"></rect>
<text x="1103.25" y="391">"AND"</text>
</g>
<path d="M1134.5 387h10"></path>
<g>
<path d="M1144.5 387h0"></path>
<path d="M1526 387h0"></path>
<path d="M1144.5 387h20"></path>
<g class="non-terminal">
<path d="M1164.5 387h0"></path>
<path d="M1261 387h245"></path>
<rect x="1164.5" y="376" width="96.5" height="22"></rect>
<a xlink:href="#/cds/expression/CDSString"><text x="1212.75" y="391">CDSString</text>
</a>
</g>
<path d="M1506 387h20"></path>
<path d="M1144.5 387a10 10 0 0 1 10 10v10a10 10 0 0 0 10 10"></path>
<g class="non-terminal">
<path d="M1164.5 417h0"></path>
<path d="M1278 417h228"></path>
<rect x="1164.5" y="406" width="113.5" height="22"></rect>
<a xlink:href="#/cds/expression/CDSFunction"><text x="1221.25" y="421">CDSFunction</text>
</a>
</g>
<path d="M1506 417a10 10 0 0 0 10 -10v-10a10 10 0 0 1 10 -10"></path>
<path d="M1144.5 387a10 10 0 0 1 10 10v40a10 10 0 0 0 10 10"></path>
<g class="non-terminal">
<path d="M1164.5 447h0"></path>
<path d="M1286.5 447h219.5"></path>
<rect x="1164.5" y="436" width="122" height="22"></rect>
<a xlink:href="#/cds/expression/CDSAggregate"><text x="1225.5" y="451">CDSAggregate</text>
</a>
</g>
<path d="M1506 447a10 10 0 0 0 10 -10v-40a10 10 0 0 1 10 -10"></path>
<path d="M1144.5 387a10 10 0 0 1 10 10v79a10 10 0 0 0 10 10"></path>
<g>
<path d="M1164.5 486h0"></path>
<path d="M1506 486h0"></path>
<g class="non-terminal">
<path d="M1164.5 486h0"></path>
<path d="M1244 486h0"></path>
<rect x="1164.5" y="475" width="79.5" height="22"></rect>
<a xlink:href="#/cds/expression/CDSName"><text x="1204.25" y="490">CDSName</text>
</a>
</g>
<path d="M1244 486h10"></path>
<g>
<path d="M1254 486h0"></path>
<path d="M1506 486h0"></path>
<path d="M1254 486a10 10 0 0 0 10 -10v0a10 10 0 0 1 10 -10"></path>
<g>
<path d="M1274 466h212"></path>
</g>
<path d="M1486 466a10 10 0 0 1 10 10v0a10 10 0 0 0 10 10"></path>
<path d="M1254 486h20"></path>
<g>
<path d="M1274 486h0"></path>
<path d="M1486 486h0"></path>
<path d="M1274 486h10"></path>
<g>
<path d="M1284 486h0"></path>
<path d="M1476 486h0"></path>
<g class="terminal">
<path d="M1284 486h0"></path>
<path d="M1329.5 486h0"></path>
<rect x="1284" y="475" width="45.5" height="22" rx="10" ry="10"></rect>
<text x="1306.75" y="490">"."</text>
</g>
<path d="M1329.5 486h10"></path>
<g>
<path d="M1339.5 486h0"></path>
<path d="M1476 486h0"></path>
<path d="M1339.5 486h20"></path>
<g class="non-terminal">
<path d="M1359.5 486h0"></path>
<path d="M1456 486h0"></path>
<rect x="1359.5" y="475" width="96.5" height="22"></rect>
<a xlink:href="#/cds/expression/CDSString"><text x="1407.75" y="490">CDSString</text>
</a>
</g>
<path d="M1456 486h20"></path>
<path d="M1339.5 486a10 10 0 0 1 10 10v10a10 10 0 0 0 10 10"></path>
<g class="non-terminal">
<path d="M1359.5 516h0"></path>
<path d="M1439 516h17"></path>
<rect x="1359.5" y="505" width="79.5" height="22"></rect>
<a xlink:href="#/cds/expression/CDSName"><text x="1399.25" y="520">CDSName</text>
</a>
</g>
<path d="M1456 516a10 10 0 0 0 10 -10v-10a10 10 0 0 1 10 -10"></path>
</g>
</g>
<path d="M1476 486h10"></path>
<path d="M1284 486a10 10 0 0 0 -10 10v29a10 10 0 0 0 10 10"></path>
<g>
<path d="M1284 535h192"></path>
</g>
<path d="M1476 535a10 10 0 0 0 10 -10v-29a10 10 0 0 0 -10 -10"></path>
</g>
<path d="M1486 486h20"></path>
</g>
</g>
<path d="M1506 486a10 10 0 0 0 10 -10v-79a10 10 0 0 1 10 -10"></path>
</g>
</g>
<path d="M1526 387a10 10 0 0 0 10 -10v-319a10 10 0 0 1 10 -10"></path>
</g>
</g>
<path d="M1546 48h20"></path>
<path d="M50 48a10 10 0 0 1 10 10v486a10 10 0 0 0 10 10"></path>
<g>
<path d="M70 554h0"></path>
<path d="M323 554h1223"></path>
<g class="terminal">
<path d="M70 554h0"></path>
<path d="M115.5 554h0"></path>
<rect x="70" y="543" width="45.5" height="22" rx="10" ry="10"></rect>
<text x="92.75" y="558">"("</text>
</g>
<path d="M115.5 554h10"></path>
<path d="M125.5 554h10"></path>
<g class="non-terminal">
<path d="M135.5 554h0"></path>
<path d="M257.5 554h0"></path>
<rect x="135.5" y="543" width="122" height="22"></rect>
<a xlink:href="#/cds/expression/CDSCondition"><text x="196.5" y="558">CDSCondition</text>
</a>
</g>
<path d="M257.5 554h10"></path>
<path d="M267.5 554h10"></path>
<g class="terminal">
<path d="M277.5 554h0"></path>
<path d="M323 554h0"></path>
<rect x="277.5" y="543" width="45.5" height="22" rx="10" ry="10"></rect>
<text x="300.25" y="558">")"</text>
</g>
</g>
<path d="M1546 554a10 10 0 0 0 10 -10v-486a10 10 0 0 1 10 -10"></path>
</g>
<g>
<path d="M1566 48h0"></path>
<path d="M3244.5 48h0"></path>
<path d="M1566 48a10 10 0 0 0 10 -10v-8a10 10 0 0 1 10 -10"></path>
<g>
<path d="M1586 20h1638.5"></path>
</g>
<path d="M3224.5 20a10 10 0 0 1 10 10v8a10 10 0 0 0 10 10"></path>
<path d="M1566 48h20"></path>
<g>
<path d="M1586 48h0"></path>
<path d="M3224.5 48h0"></path>
<path d="M1586 48h10"></path>
<g>
<path d="M1596 48h0"></path>
<path d="M3214.5 48h0"></path>
<g>
<path d="M1596 48h0"></path>
<path d="M1698.5 48h0"></path>
<path d="M1596 48h20"></path>
<g class="terminal">
<path d="M1616 48h0"></path>
<path d="M1678.5 48h0"></path>
<rect x="1616" y="37" width="62.5" height="22" rx="10" ry="10"></rect>
<text x="1647.25" y="52">"AND"</text>
</g>
<path d="M1678.5 48h20"></path>
<path d="M1596 48a10 10 0 0 1 10 10v10a10 10 0 0 0 10 10"></path>
<g class="terminal">
<path d="M1616 78h0"></path>
<path d="M1670 78h8.5"></path>
<rect x="1616" y="67" width="54" height="22" rx="10" ry="10"></rect>
<text x="1643" y="82">"OR"</text>
</g>
<path d="M1678.5 78a10 10 0 0 0 10 -10v-10a10 10 0 0 1 10 -10"></path>
</g>
<g>
<path d="M1698.5 48h0"></path>
<path d="M3214.5 48h0"></path>
<path d="M1698.5 48h20"></path>
<g>
<path d="M1718.5 48h0"></path>
<path d="M3194.5 48h0"></path>
<g>
<path d="M1718.5 48h0"></path>
<path d="M1821 48h0"></path>
<path d="M1718.5 48a10 10 0 0 0 10 -10v0a10 10 0 0 1 10 -10"></path>
<g>
<path d="M1738.5 28h62.5"></path>
</g>
<path d="M1801 28a10 10 0 0 1 10 10v0a10 10 0 0 0 10 10"></path>
<path d="M1718.5 48h20"></path>
<g class="terminal">
<path d="M1738.5 48h0"></path>
<path d="M1801 48h0"></path>
<rect x="1738.5" y="37" width="62.5" height="22" rx="10" ry="10"></rect>
<text x="1769.75" y="52">"NOT"</text>
</g>
<path d="M1801 48h20"></path>
</g>
<g>
<path d="M1821 48h0"></path>
<path d="M2202.5 48h0"></path>
<path d="M1821 48h20"></path>
<g class="non-terminal">
<path d="M1841 48h0"></path>
<path d="M1937.5 48h245"></path>
<rect x="1841" y="37" width="96.5" height="22"></rect>
<a xlink:href="#/cds/expression/CDSString"><text x="1889.25" y="52">CDSString</text>
</a>
</g>
<path d="M2182.5 48h20"></path>
<path d="M1821 48a10 10 0 0 1 10 10v10a10 10 0 0 0 10 10"></path>
<g class="non-terminal">
<path d="M1841 78h0"></path>
<path d="M1954.5 78h228"></path>
<rect x="1841" y="67" width="113.5" height="22"></rect>
<a xlink:href="#/cds/expression/CDSFunction"><text x="1897.75" y="82">CDSFunction</text>
</a>
</g>
<path d="M2182.5 78a10 10 0 0 0 10 -10v-10a10 10 0 0 1 10 -10"></path>
<path d="M1821 48a10 10 0 0 1 10 10v40a10 10 0 0 0 10 10"></path>
<g class="non-terminal">
<path d="M1841 108h0"></path>
<path d="M1963 108h219.5"></path>
<rect x="1841" y="97" width="122" height="22"></rect>
<a xlink:href="#/cds/expression/CDSAggregate"><text x="1902" y="112">CDSAggregate</text>
</a>
</g>
<path d="M2182.5 108a10 10 0 0 0 10 -10v-40a10 10 0 0 1 10 -10"></path>
<path d="M1821 48a10 10 0 0 1 10 10v79a10 10 0 0 0 10 10"></path>
<g>
<path d="M1841 147h0"></path>
<path d="M2182.5 147h0"></path>
<g class="non-terminal">
<path d="M1841 147h0"></path>
<path d="M1920.5 147h0"></path>
<rect x="1841" y="136" width="79.5" height="22"></rect>
<a xlink:href="#/cds/expression/CDSName"><text x="1880.75" y="151">CDSName</text>
</a>
</g>
<path d="M1920.5 147h10"></path>
<g>
<path d="M1930.5 147h0"></path>
<path d="M2182.5 147h0"></path>
<path d="M1930.5 147a10 10 0 0 0 10 -10v0a10 10 0 0 1 10 -10"></path>
<g>
<path d="M1950.5 127h212"></path>
</g>
<path d="M2162.5 127a10 10 0 0 1 10 10v0a10 10 0 0 0 10 10"></path>
<path d="M1930.5 147h20"></path>
<g>
<path d="M1950.5 147h0"></path>
<path d="M2162.5 147h0"></path>
<path d="M1950.5 147h10"></path>
<g>
<path d="M1960.5 147h0"></path>
<path d="M2152.5 147h0"></path>
<g class="terminal">
<path d="M1960.5 147h0"></path>
<path d="M2006 147h0"></path>
<rect x="1960.5" y="136" width="45.5" height="22" rx="10" ry="10"></rect>
<text x="1983.25" y="151">"."</text>
</g>
<path d="M2006 147h10"></path>
<g>
<path d="M2016 147h0"></path>
<path d="M2152.5 147h0"></path>
<path d="M2016 147h20"></path>
<g class="non-terminal">
<path d="M2036 147h0"></path>
<path d="M2132.5 147h0"></path>
<rect x="2036" y="136" width="96.5" height="22"></rect>
<a xlink:href="#/cds/expression/CDSString"><text x="2084.25" y="151">CDSString</text>
</a>
</g>
<path d="M2132.5 147h20"></path>
<path d="M2016 147a10 10 0 0 1 10 10v10a10 10 0 0 0 10 10"></path>
<g class="non-terminal">
<path d="M2036 177h0"></path>
<path d="M2115.5 177h17"></path>
<rect x="2036" y="166" width="79.5" height="22"></rect>
<a xlink:href="#/cds/expression/CDSName"><text x="2075.75" y="181">CDSName</text>
</a>
</g>
<path d="M2132.5 177a10 10 0 0 0 10 -10v-10a10 10 0 0 1 10 -10"></path>
</g>
</g>
<path d="M2152.5 147h10"></path>
<path d="M1960.5 147a10 10 0 0 0 -10 10v29a10 10 0 0 0 10 10"></path>
<g>
<path d="M1960.5 196h192"></path>
</g>
<path d="M2152.5 196a10 10 0 0 0 10 -10v-29a10 10 0 0 0 -10 -10"></path>
</g>
<path d="M2162.5 147h20"></path>
</g>
</g>
<path d="M2182.5 147a10 10 0 0 0 10 -10v-79a10 10 0 0 1 10 -10"></path>
</g>
<g>
<path d="M2202.5 48h0"></path>
<path d="M3194.5 48h0"></path>
<path d="M2202.5 48h20"></path>
<g>
<path d="M2222.5 48h0"></path>
<path d="M2795 48h379.5"></path>
<g>
<path d="M2222.5 48h0"></path>
<path d="M2373.5 48h0"></path>
<path d="M2222.5 48h20"></path>
<g class="terminal">
<path d="M2242.5 48h0"></path>
<path d="M2288 48h65.5"></path>
<rect x="2242.5" y="37" width="45.5" height="22" rx="10" ry="10"></rect>
<text x="2265.25" y="52">"="</text>
</g>
<path d="M2353.5 48h20"></path>
<path d="M2222.5 48a10 10 0 0 1 10 10v10a10 10 0 0 0 10 10"></path>
<g>
<path d="M2242.5 78h0"></path>
<path d="M2353.5 78h0"></path>
<g class="terminal">
<path d="M2242.5 78h0"></path>
<path d="M2288 78h0"></path>
<rect x="2242.5" y="67" width="45.5" height="22" rx="10" ry="10"></rect>
<text x="2265.25" y="82">"!"</text>
</g>
<path d="M2288 78h10"></path>
<path d="M2298 78h10"></path>
<g class="terminal">
<path d="M2308 78h0"></path>
<path d="M2353.5 78h0"></path>
<rect x="2308" y="67" width="45.5" height="22" rx="10" ry="10"></rect>
<text x="2330.75" y="82">"="</text>
</g>
</g>
<path d="M2353.5 78a10 10 0 0 0 10 -10v-10a10 10 0 0 1 10 -10"></path>
<path d="M2222.5 48a10 10 0 0 1 10 10v40a10 10 0 0 0 10 10"></path>
<g>
<path d="M2242.5 108h0"></path>
<path d="M2353.5 108h0"></path>
<g class="terminal">
<path d="M2242.5 108h0"></path>
<path d="M2288 108h0"></path>
<rect x="2242.5" y="97" width="45.5" height="22" rx="10" ry="10"></rect>
<text x="2265.25" y="112">"&#60;"</text>
</g>
<path d="M2288 108h10"></path>
<path d="M2298 108h10"></path>
<g class="terminal">
<path d="M2308 108h0"></path>
<path d="M2353.5 108h0"></path>
<rect x="2308" y="97" width="45.5" height="22" rx="10" ry="10"></rect>
<text x="2330.75" y="112">">"</text>
</g>
</g>
<path d="M2353.5 108a10 10 0 0 0 10 -10v-40a10 10 0 0 1 10 -10"></path>
<path d="M2222.5 48a10 10 0 0 1 10 10v70a10 10 0 0 0 10 10"></path>
<g>
<path d="M2242.5 138h0"></path>
<path d="M2353.5 138h0"></path>
<g class="terminal">
<path d="M2242.5 138h0"></path>
<path d="M2288 138h0"></path>
<rect x="2242.5" y="127" width="45.5" height="22" rx="10" ry="10"></rect>
<text x="2265.25" y="142">">"</text>
</g>
<path d="M2288 138h10"></path>
<path d="M2298 138h10"></path>
<g class="terminal">
<path d="M2308 138h0"></path>
<path d="M2353.5 138h0"></path>
<rect x="2308" y="127" width="45.5" height="22" rx="10" ry="10"></rect>
<text x="2330.75" y="142">"="</text>
</g>
</g>
<path d="M2353.5 138a10 10 0 0 0 10 -10v-70a10 10 0 0 1 10 -10"></path>
<path d="M2222.5 48a10 10 0 0 1 10 10v100a10 10 0 0 0 10 10"></path>
<g>
<path d="M2242.5 168h0"></path>
<path d="M2353.5 168h0"></path>
<g class="terminal">
<path d="M2242.5 168h0"></path>
<path d="M2288 168h0"></path>
<rect x="2242.5" y="157" width="45.5" height="22" rx="10" ry="10"></rect>
<text x="2265.25" y="172">"&#60;"</text>
</g>
<path d="M2288 168h10"></path>
<path d="M2298 168h10"></path>
<g class="terminal">
<path d="M2308 168h0"></path>
<path d="M2353.5 168h0"></path>
<rect x="2308" y="157" width="45.5" height="22" rx="10" ry="10"></rect>
<text x="2330.75" y="172">"="</text>
</g>
</g>
<path d="M2353.5 168a10 10 0 0 0 10 -10v-100a10 10 0 0 1 10 -10"></path>
<path d="M2222.5 48a10 10 0 0 1 10 10v130a10 10 0 0 0 10 10"></path>
<g class="terminal">
<path d="M2242.5 198h0"></path>
<path d="M2288 198h65.5"></path>
<rect x="2242.5" y="187" width="45.5" height="22" rx="10" ry="10"></rect>
<text x="2265.25" y="202">"&#60;"</text>
</g>
<path d="M2353.5 198a10 10 0 0 0 10 -10v-130a10 10 0 0 1 10 -10"></path>
<path d="M2222.5 48a10 10 0 0 1 10 10v160a10 10 0 0 0 10 10"></path>
<g class="terminal">
<path d="M2242.5 228h0"></path>
<path d="M2288 228h65.5"></path>
<rect x="2242.5" y="217" width="45.5" height="22" rx="10" ry="10"></rect>
<text x="2265.25" y="232">">"</text>
</g>
<path d="M2353.5 228a10 10 0 0 0 10 -10v-160a10 10 0 0 1 10 -10"></path>
<path d="M2222.5 48a10 10 0 0 1 10 10v190a10 10 0 0 0 10 10"></path>
<g class="terminal">
<path d="M2242.5 258h0"></path>
<path d="M2313.5 258h40"></path>
<rect x="2242.5" y="247" width="71" height="22" rx="10" ry="10"></rect>
<text x="2278" y="262">"LIKE"</text>
</g>
<path d="M2353.5 258a10 10 0 0 0 10 -10v-190a10 10 0 0 1 10 -10"></path>
<path d="M2222.5 48a10 10 0 0 1 10 10v220a10 10 0 0 0 10 10"></path>
<g class="terminal">
<path d="M2242.5 288h0"></path>
<path d="M2347.5 288h6"></path>
<rect x="2242.5" y="277" width="105" height="22" rx="10" ry="10"></rect>
<text x="2295" y="292">"NOT LIKE"</text>
</g>
<path d="M2353.5 288a10 10 0 0 0 10 -10v-220a10 10 0 0 1 10 -10"></path>
</g>
<g>
<path d="M2373.5 48h0"></path>
<path d="M2795 48h0"></path>
<path d="M2373.5 48h20"></path>
<g>
<path d="M2393.5 48h0"></path>
<path d="M2775 48h0"></path>
<path d="M2393.5 48h20"></path>
<g class="non-terminal">
<path d="M2413.5 48h0"></path>
<path d="M2510 48h245"></path>
<rect x="2413.5" y="37" width="96.5" height="22"></rect>
<a xlink:href="#/cds/expression/CDSString"><text x="2461.75" y="52">CDSString</text>
</a>
</g>
<path d="M2755 48h20"></path>
<path d="M2393.5 48a10 10 0 0 1 10 10v10a10 10 0 0 0 10 10"></path>
<g class="non-terminal">
<path d="M2413.5 78h0"></path>
<path d="M2527 78h228"></path>
<rect x="2413.5" y="67" width="113.5" height="22"></rect>
<a xlink:href="#/cds/expression/CDSFunction"><text x="2470.25" y="82">CDSFunction</text>
</a>
</g>
<path d="M2755 78a10 10 0 0 0 10 -10v-10a10 10 0 0 1 10 -10"></path>
<path d="M2393.5 48a10 10 0 0 1 10 10v40a10 10 0 0 0 10 10"></path>
<g class="non-terminal">
<path d="M2413.5 108h0"></path>
<path d="M2535.5 108h219.5"></path>
<rect x="2413.5" y="97" width="122" height="22"></rect>
<a xlink:href="#/cds/expression/CDSAggregate"><text x="2474.5" y="112">CDSAggregate</text>
</a>
</g>
<path d="M2755 108a10 10 0 0 0 10 -10v-40a10 10 0 0 1 10 -10"></path>
<path d="M2393.5 48a10 10 0 0 1 10 10v79a10 10 0 0 0 10 10"></path>
<g>
<path d="M2413.5 147h0"></path>
<path d="M2755 147h0"></path>
<g class="non-terminal">
<path d="M2413.5 147h0"></path>
<path d="M2493 147h0"></path>
<rect x="2413.5" y="136" width="79.5" height="22"></rect>
<a xlink:href="#/cds/expression/CDSName"><text x="2453.25" y="151">CDSName</text>
</a>
</g>
<path d="M2493 147h10"></path>
<g>
<path d="M2503 147h0"></path>
<path d="M2755 147h0"></path>
<path d="M2503 147a10 10 0 0 0 10 -10v0a10 10 0 0 1 10 -10"></path>
<g>
<path d="M2523 127h212"></path>
</g>
<path d="M2735 127a10 10 0 0 1 10 10v0a10 10 0 0 0 10 10"></path>
<path d="M2503 147h20"></path>
<g>
<path d="M2523 147h0"></path>
<path d="M2735 147h0"></path>
<path d="M2523 147h10"></path>
<g>
<path d="M2533 147h0"></path>
<path d="M2725 147h0"></path>
<g class="terminal">
<path d="M2533 147h0"></path>
<path d="M2578.5 147h0"></path>
<rect x="2533" y="136" width="45.5" height="22" rx="10" ry="10"></rect>
<text x="2555.75" y="151">"."</text>
</g>
<path d="M2578.5 147h10"></path>
<g>
<path d="M2588.5 147h0"></path>
<path d="M2725 147h0"></path>
<path d="M2588.5 147h20"></path>
<g class="non-terminal">
<path d="M2608.5 147h0"></path>
<path d="M2705 147h0"></path>
<rect x="2608.5" y="136" width="96.5" height="22"></rect>
<a xlink:href="#/cds/expression/CDSString"><text x="2656.75" y="151">CDSString</text>
</a>
</g>
<path d="M2705 147h20"></path>
<path d="M2588.5 147a10 10 0 0 1 10 10v10a10 10 0 0 0 10 10"></path>
<g class="non-terminal">
<path d="M2608.5 177h0"></path>
<path d="M2688 177h17"></path>
<rect x="2608.5" y="166" width="79.5" height="22"></rect>
<a xlink:href="#/cds/expression/CDSName"><text x="2648.25" y="181">CDSName</text>
</a>
</g>
<path d="M2705 177a10 10 0 0 0 10 -10v-10a10 10 0 0 1 10 -10"></path>
</g>
</g>
<path d="M2725 147h10"></path>
<path d="M2533 147a10 10 0 0 0 -10 10v29a10 10 0 0 0 10 10"></path>
<g>
<path d="M2533 196h192"></path>
</g>
<path d="M2725 196a10 10 0 0 0 10 -10v-29a10 10 0 0 0 -10 -10"></path>
</g>
<path d="M2735 147h20"></path>
</g>
</g>
<path d="M2755 147a10 10 0 0 0 10 -10v-79a10 10 0 0 1 10 -10"></path>
</g>
<path d="M2775 48h20"></path>
<path d="M2373.5 48a10 10 0 0 1 10 10v147a10 10 0 0 0 10 10"></path>
<g class="non-terminal">
<path d="M2393.5 215h0"></path>
<path d="M2498.5 215h276.5"></path>
<rect x="2393.5" y="204" width="105" height="22"></rect>
<a xlink:href="#/cds/expression/CDSInteger"><text x="2446" y="219">CDSInteger</text>
</a>
</g>
<path d="M2775 215a10 10 0 0 0 10 -10v-147a10 10 0 0 1 10 -10"></path>
</g>
</g>
<path d="M3174.5 48h20"></path>
<path d="M2202.5 48a10 10 0 0 1 10 10v259a10 10 0 0 0 10 10"></path>
<g>
<path d="M2222.5 327h0"></path>
<path d="M2525.5 327h649"></path>
<g class="terminal">
<path d="M2222.5 327h0"></path>
<path d="M2276.5 327h0"></path>
<rect x="2222.5" y="316" width="54" height="22" rx="10" ry="10"></rect>
<text x="2249.5" y="331">"IS"</text>
</g>
<path d="M2276.5 327h10"></path>
<g>
<path d="M2286.5 327h0"></path>
<path d="M2389 327h0"></path>
<path d="M2286.5 327a10 10 0 0 0 10 -10v0a10 10 0 0 1 10 -10"></path>
<g>
<path d="M2306.5 307h62.5"></path>
</g>
<path d="M2369 307a10 10 0 0 1 10 10v0a10 10 0 0 0 10 10"></path>
<path d="M2286.5 327h20"></path>
<g class="terminal">
<path d="M2306.5 327h0"></path>
<path d="M2369 327h0"></path>
<rect x="2306.5" y="316" width="62.5" height="22" rx="10" ry="10"></rect>
<text x="2337.75" y="331">"NOT"</text>
</g>
<path d="M2369 327h20"></path>
</g>
<g>
<path d="M2389 327h0"></path>
<path d="M2525.5 327h0"></path>
<path d="M2389 327h20"></path>
<g class="terminal">
<path d="M2409 327h0"></path>
<path d="M2505.5 327h0"></path>
<rect x="2409" y="316" width="96.5" height="22" rx="10" ry="10"></rect>
<text x="2457.25" y="331">"INITIAL"</text>
</g>
<path d="M2505.5 327h20"></path>
<path d="M2389 327a10 10 0 0 1 10 10v10a10 10 0 0 0 10 10"></path>
<g class="terminal">
<path d="M2409 357h0"></path>
<path d="M2480 357h25.5"></path>
<rect x="2409" y="346" width="71" height="22" rx="10" ry="10"></rect>
<text x="2444.5" y="361">"NULL"</text>
</g>
<path d="M2505.5 357a10 10 0 0 0 10 -10v-10a10 10 0 0 1 10 -10"></path>
</g>
</g>
<path d="M3174.5 327a10 10 0 0 0 10 -10v-259a10 10 0 0 1 10 -10"></path>
<path d="M2202.5 48a10 10 0 0 1 10 10v319a10 10 0 0 0 10 10"></path>
<g>
<path d="M2222.5 387h0"></path>
<path d="M3174.5 387h0"></path>
<g class="terminal">
<path d="M2222.5 387h0"></path>
<path d="M2319 387h0"></path>
<rect x="2222.5" y="376" width="96.5" height="22" rx="10" ry="10"></rect>
<text x="2270.75" y="391">"BETWEEN"</text>
</g>
<path d="M2319 387h10"></path>
<g>
<path d="M2329 387h0"></path>
<path d="M2710.5 387h0"></path>
<path d="M2329 387h20"></path>
<g class="non-terminal">
<path d="M2349 387h0"></path>
<path d="M2445.5 387h245"></path>
<rect x="2349" y="376" width="96.5" height="22"></rect>
<a xlink:href="#/cds/expression/CDSString"><text x="2397.25" y="391">CDSString</text>
</a>
</g>
<path d="M2690.5 387h20"></path>
<path d="M2329 387a10 10 0 0 1 10 10v10a10 10 0 0 0 10 10"></path>
<g class="non-terminal">
<path d="M2349 417h0"></path>
<path d="M2462.5 417h228"></path>
<rect x="2349" y="406" width="113.5" height="22"></rect>
<a xlink:href="#/cds/expression/CDSFunction"><text x="2405.75" y="421">CDSFunction</text>
</a>
</g>
<path d="M2690.5 417a10 10 0 0 0 10 -10v-10a10 10 0 0 1 10 -10"></path>
<path d="M2329 387a10 10 0 0 1 10 10v40a10 10 0 0 0 10 10"></path>
<g class="non-terminal">
<path d="M2349 447h0"></path>
<path d="M2471 447h219.5"></path>
<rect x="2349" y="436" width="122" height="22"></rect>
<a xlink:href="#/cds/expression/CDSAggregate"><text x="2410" y="451">CDSAggregate</text>
</a>
</g>
<path d="M2690.5 447a10 10 0 0 0 10 -10v-40a10 10 0 0 1 10 -10"></path>
<path d="M2329 387a10 10 0 0 1 10 10v79a10 10 0 0 0 10 10"></path>
<g>
<path d="M2349 486h0"></path>
<path d="M2690.5 486h0"></path>
<g class="non-terminal">
<path d="M2349 486h0"></path>
<path d="M2428.5 486h0"></path>
<rect x="2349" y="475" width="79.5" height="22"></rect>
<a xlink:href="#/cds/expression/CDSName"><text x="2388.75" y="490">CDSName</text>
</a>
</g>
<path d="M2428.5 486h10"></path>
<g>
<path d="M2438.5 486h0"></path>
<path d="M2690.5 486h0"></path>
<path d="M2438.5 486a10 10 0 0 0 10 -10v0a10 10 0 0 1 10 -10"></path>
<g>
<path d="M2458.5 466h212"></path>
</g>
<path d="M2670.5 466a10 10 0 0 1 10 10v0a10 10 0 0 0 10 10"></path>
<path d="M2438.5 486h20"></path>
<g>
<path d="M2458.5 486h0"></path>
<path d="M2670.5 486h0"></path>
<path d="M2458.5 486h10"></path>
<g>
<path d="M2468.5 486h0"></path>
<path d="M2660.5 486h0"></path>
<g class="terminal">
<path d="M2468.5 486h0"></path>
<path d="M2514 486h0"></path>
<rect x="2468.5" y="475" width="45.5" height="22" rx="10" ry="10"></rect>
<text x="2491.25" y="490">"."</text>
</g>
<path d="M2514 486h10"></path>
<g>
<path d="M2524 486h0"></path>
<path d="M2660.5 486h0"></path>
<path d="M2524 486h20"></path>
<g class="non-terminal">
<path d="M2544 486h0"></path>
<path d="M2640.5 486h0"></path>
<rect x="2544" y="475" width="96.5" height="22"></rect>
<a xlink:href="#/cds/expression/CDSString"><text x="2592.25" y="490">CDSString</text>
</a>
</g>
<path d="M2640.5 486h20"></path>
<path d="M2524 486a10 10 0 0 1 10 10v10a10 10 0 0 0 10 10"></path>
<g class="non-terminal">
<path d="M2544 516h0"></path>
<path d="M2623.5 516h17"></path>
<rect x="2544" y="505" width="79.5" height="22"></rect>
<a xlink:href="#/cds/expression/CDSName"><text x="2583.75" y="520">CDSName</text>
</a>
</g>
<path d="M2640.5 516a10 10 0 0 0 10 -10v-10a10 10 0 0 1 10 -10"></path>
</g>
</g>
<path d="M2660.5 486h10"></path>
<path d="M2468.5 486a10 10 0 0 0 -10 10v29a10 10 0 0 0 10 10"></path>
<g>
<path d="M2468.5 535h192"></path>
</g>
<path d="M2660.5 535a10 10 0 0 0 10 -10v-29a10 10 0 0 0 -10 -10"></path>
</g>
<path d="M2670.5 486h20"></path>
</g>
</g>
<path d="M2690.5 486a10 10 0 0 0 10 -10v-79a10 10 0 0 1 10 -10"></path>
</g>
<path d="M2710.5 387h10"></path>
<g class="terminal">
<path d="M2720.5 387h0"></path>
<path d="M2783 387h0"></path>
<rect x="2720.5" y="376" width="62.5" height="22" rx="10" ry="10"></rect>
<text x="2751.75" y="391">"AND"</text>
</g>
<path d="M2783 387h10"></path>
<g>
<path d="M2793 387h0"></path>
<path d="M3174.5 387h0"></path>
<path d="M2793 387h20"></path>
<g class="non-terminal">
<path d="M2813 387h0"></path>
<path d="M2909.5 387h245"></path>
<rect x="2813" y="376" width="96.5" height="22"></rect>
<a xlink:href="#/cds/expression/CDSString"><text x="2861.25" y="391">CDSString</text>
</a>
</g>
<path d="M3154.5 387h20"></path>
<path d="M2793 387a10 10 0 0 1 10 10v10a10 10 0 0 0 10 10"></path>
<g class="non-terminal">
<path d="M2813 417h0"></path>
<path d="M2926.5 417h228"></path>
<rect x="2813" y="406" width="113.5" height="22"></rect>
<a xlink:href="#/cds/expression/CDSFunction"><text x="2869.75" y="421">CDSFunction</text>
</a>
</g>
<path d="M3154.5 417a10 10 0 0 0 10 -10v-10a10 10 0 0 1 10 -10"></path>
<path d="M2793 387a10 10 0 0 1 10 10v40a10 10 0 0 0 10 10"></path>
<g class="non-terminal">
<path d="M2813 447h0"></path>
<path d="M2935 447h219.5"></path>
<rect x="2813" y="436" width="122" height="22"></rect>
<a xlink:href="#/cds/expression/CDSAggregate"><text x="2874" y="451">CDSAggregate</text>
</a>
</g>
<path d="M3154.5 447a10 10 0 0 0 10 -10v-40a10 10 0 0 1 10 -10"></path>
<path d="M2793 387a10 10 0 0 1 10 10v79a10 10 0 0 0 10 10"></path>
<g>
<path d="M2813 486h0"></path>
<path d="M3154.5 486h0"></path>
<g class="non-terminal">
<path d="M2813 486h0"></path>
<path d="M2892.5 486h0"></path>
<rect x="2813" y="475" width="79.5" height="22"></rect>
<a xlink:href="#/cds/expression/CDSName"><text x="2852.75" y="490">CDSName</text>
</a>
</g>
<path d="M2892.5 486h10"></path>
<g>
<path d="M2902.5 486h0"></path>
<path d="M3154.5 486h0"></path>
<path d="M2902.5 486a10 10 0 0 0 10 -10v0a10 10 0 0 1 10 -10"></path>
<g>
<path d="M2922.5 466h212"></path>
</g>
<path d="M3134.5 466a10 10 0 0 1 10 10v0a10 10 0 0 0 10 10"></path>
<path d="M2902.5 486h20"></path>
<g>
<path d="M2922.5 486h0"></path>
<path d="M3134.5 486h0"></path>
<path d="M2922.5 486h10"></path>
<g>
<path d="M2932.5 486h0"></path>
<path d="M3124.5 486h0"></path>
<g class="terminal">
<path d="M2932.5 486h0"></path>
<path d="M2978 486h0"></path>
<rect x="2932.5" y="475" width="45.5" height="22" rx="10" ry="10"></rect>
<text x="2955.25" y="490">"."</text>
</g>
<path d="M2978 486h10"></path>
<g>
<path d="M2988 486h0"></path>
<path d="M3124.5 486h0"></path>
<path d="M2988 486h20"></path>
<g class="non-terminal">
<path d="M3008 486h0"></path>
<path d="M3104.5 486h0"></path>
<rect x="3008" y="475" width="96.5" height="22"></rect>
<a xlink:href="#/cds/expression/CDSString"><text x="3056.25" y="490">CDSString</text>
</a>
</g>
<path d="M3104.5 486h20"></path>
<path d="M2988 486a10 10 0 0 1 10 10v10a10 10 0 0 0 10 10"></path>
<g class="non-terminal">
<path d="M3008 516h0"></path>
<path d="M3087.5 516h17"></path>
<rect x="3008" y="505" width="79.5" height="22"></rect>
<a xlink:href="#/cds/expression/CDSName"><text x="3047.75" y="520">CDSName</text>
</a>
</g>
<path d="M3104.5 516a10 10 0 0 0 10 -10v-10a10 10 0 0 1 10 -10"></path>
</g>
</g>
<path d="M3124.5 486h10"></path>
<path d="M2932.5 486a10 10 0 0 0 -10 10v29a10 10 0 0 0 10 10"></path>
<g>
<path d="M2932.5 535h192"></path>
</g>
<path d="M3124.5 535a10 10 0 0 0 10 -10v-29a10 10 0 0 0 -10 -10"></path>
</g>
<path d="M3134.5 486h20"></path>
</g>
</g>
<path d="M3154.5 486a10 10 0 0 0 10 -10v-79a10 10 0 0 1 10 -10"></path>
</g>
</g>
<path d="M3174.5 387a10 10 0 0 0 10 -10v-319a10 10 0 0 1 10 -10"></path>
</g>
</g>
<path d="M3194.5 48h20"></path>
<path d="M1698.5 48a10 10 0 0 1 10 10v486a10 10 0 0 0 10 10"></path>
<g>
<path d="M1718.5 554h0"></path>
<path d="M1971.5 554h1223"></path>
<g class="terminal">
<path d="M1718.5 554h0"></path>
<path d="M1764 554h0"></path>
<rect x="1718.5" y="543" width="45.5" height="22" rx="10" ry="10"></rect>
<text x="1741.25" y="558">"("</text>
</g>
<path d="M1764 554h10"></path>
<path d="M1774 554h10"></path>
<g class="non-terminal">
<path d="M1784 554h0"></path>
<path d="M1906 554h0"></path>
<rect x="1784" y="543" width="122" height="22"></rect>
<a xlink:href="#/cds/expression/CDSCondition"><text x="1845" y="558">CDSCondition</text>
</a>
</g>
<path d="M1906 554h10"></path>
<path d="M1916 554h10"></path>
<g class="terminal">
<path d="M1926 554h0"></path>
<path d="M1971.5 554h0"></path>
<rect x="1926" y="543" width="45.5" height="22" rx="10" ry="10"></rect>
<text x="1948.75" y="558">")"</text>
</g>
</g>
<path d="M3194.5 554a10 10 0 0 0 10 -10v-486a10 10 0 0 1 10 -10"></path>
</g>
</g>
<path d="M3214.5 48h10"></path>
<path d="M1596 48a10 10 0 0 0 -10 10v505a10 10 0 0 0 10 10"></path>
<g>
<path d="M1596 573h1618.5"></path>
</g>
<path d="M3214.5 573a10 10 0 0 0 10 -10v-505a10 10 0 0 0 -10 -10"></path>
</g>
<path d="M3224.5 48h20"></path>
</g>
</g>
<path d="M3244.5 48h10"></path>
<path d="M 3254.5 48 h 20 m 0 -10 v 20"></path>
</g>
</svg>
