<svg xmlns="http://www.w3.org/2000/svg" xmlns:xlink="http://www.w3.org/1999/xlink" class="railroad-diagram" width="1475" height="508" viewBox="0 0 1475 508">
<defs>
<style type="text/css"><![CDATA[
path {
stroke-width: 3;
stroke: black;
fill: rgba(0,0,0,0);
}
text {
font: bold 14px monospace;
text-anchor: middle;
}
text.diagram-text {
font-size: 12px;
}
a {
fill: blue;
}
text.diagram-arrow {
font-size: 16px;
}
text.label {
text-anchor: start;
}
text.comment {
font: italic 12px monospace;
}
rect {
stroke-width: 3;
stroke: black;
fill: #BCBCBC;
}
path.diagram-text {
stroke-width: 3;
stroke: black;
fill: #BCBCBC;
cursor: help;
}
]]></style>
</defs>
<g transform="translate(.5 .5)">
<g>
<path d="M20 30v20m0 -10h20"></path>
</g>
<path d="M40 40h10"></path>
<g>
<path d="M50 40h0"></path>
<path d="M1425 40h0"></path>
<g>
<path d="M50 40h0"></path>
<path d="M240.5 40h0"></path>
<path d="M50 40a10 10 0 0 0 10 -10v0a10 10 0 0 1 10 -10"></path>
<g>
<path d="M70 20h150.5"></path>
</g>
<path d="M220.5 20a10 10 0 0 1 10 10v0a10 10 0 0 0 10 10"></path>
<path d="M50 40h20"></path>
<g>
<path d="M70 40h0"></path>
<path d="M220.5 40h0"></path>
<path d="M70 40h10"></path>
<g class="non-terminal">
<path d="M80 40h0"></path>
<path d="M210.5 40h0"></path>
<rect x="80" y="29" width="130.5" height="22"></rect>
<a xlink:href="#/cds/expression/CDSAnnotation"><text x="145.25" y="44">CDSAnnotation</text>
</a>
</g>
<path d="M210.5 40h10"></path>
<path d="M80 40a10 10 0 0 0 -10 10v0a10 10 0 0 0 10 10"></path>
<g>
<path d="M80 60h130.5"></path>
</g>
<path d="M210.5 60a10 10 0 0 0 10 -10v0a10 10 0 0 0 -10 -10"></path>
</g>
<path d="M220.5 40h20"></path>
</g>
<g>
<path d="M240.5 40h0"></path>
<path d="M417 40h0"></path>
<path d="M240.5 40a10 10 0 0 0 10 -10v0a10 10 0 0 1 10 -10"></path>
<g>
<path d="M260.5 20h136.5"></path>
</g>
<path d="M397 20a10 10 0 0 1 10 10v0a10 10 0 0 0 10 10"></path>
<path d="M240.5 40h20"></path>
<g>
<path d="M260.5 40h0"></path>
<path d="M397 40h0"></path>
<path d="M260.5 40h20"></path>
<g class="terminal">
<path d="M280.5 40h0"></path>
<path d="M343 40h34"></path>
<rect x="280.5" y="29" width="62.5" height="22" rx="10" ry="10"></rect>
<text x="311.75" y="44">"KEY"</text>
</g>
<path d="M377 40h20"></path>
<path d="M260.5 40a10 10 0 0 1 10 10v10a10 10 0 0 0 10 10"></path>
<g class="terminal">
<path d="M280.5 70h0"></path>
<path d="M377 70h0"></path>
<rect x="280.5" y="59" width="96.5" height="22" rx="10" ry="10"></rect>
<text x="328.75" y="74">"VIRTUAL"</text>
</g>
<path d="M377 70a10 10 0 0 0 10 -10v-10a10 10 0 0 1 10 -10"></path>
</g>
<path d="M397 40h20"></path>
</g>
<g>
<path d="M417 40h0"></path>
<path d="M1322.5 40h0"></path>
<path d="M417 40h20"></path>
<g>
<path d="M437 40h0"></path>
<path d="M690 40h612.5"></path>
<g class="terminal">
<path d="M437 40h0"></path>
<path d="M559 40h0"></path>
<rect x="437" y="29" width="122" height="22" rx="10" ry="10"></rect>
<text x="498" y="44">"$EXTENSION"</text>
</g>
<path d="M559 40h10"></path>
<path d="M569 40h10"></path>
<g class="terminal">
<path d="M579 40h0"></path>
<path d="M624.5 40h0"></path>
<rect x="579" y="29" width="45.5" height="22" rx="10" ry="10"></rect>
<text x="601.75" y="44">"."</text>
</g>
<path d="M624.5 40h10"></path>
<path d="M634.5 40h10"></path>
<g class="terminal">
<path d="M644.5 40h0"></path>
<path d="M690 40h0"></path>
<rect x="644.5" y="29" width="45.5" height="22" rx="10" ry="10"></rect>
<text x="667.25" y="44">"&#42;"</text>
</g>
</g>
<path d="M1302.5 40h20"></path>
<path d="M417 40a10 10 0 0 1 10 10v10a10 10 0 0 0 10 10"></path>
<g class="non-terminal">
<path d="M437 70h0"></path>
<path d="M576 70h726.5"></path>
<rect x="437" y="59" width="139" height="22"></rect>
<a xlink:href="#/cds/expression/CDSArithmetics"><text x="506.5" y="74">CDSArithmetics</text>
</a>
</g>
<path d="M1302.5 70a10 10 0 0 0 10 -10v-10a10 10 0 0 1 10 -10"></path>
<path d="M417 40a10 10 0 0 1 10 10v40a10 10 0 0 0 10 10"></path>
<g class="non-terminal">
<path d="M437 100h0"></path>
<path d="M559 100h743.5"></path>
<rect x="437" y="89" width="122" height="22"></rect>
<a xlink:href="#/cds/expression/CDSAggregate"><text x="498" y="104">CDSAggregate</text>
</a>
</g>
<path d="M1302.5 100a10 10 0 0 0 10 -10v-40a10 10 0 0 1 10 -10"></path>
<path d="M417 40a10 10 0 0 1 10 10v70a10 10 0 0 0 10 10"></path>
<g class="non-terminal">
<path d="M437 130h0"></path>
<path d="M533.5 130h769"></path>
<rect x="437" y="119" width="96.5" height="22"></rect>
<a xlink:href="#/cds/expression/CDSString"><text x="485.25" y="134">CDSString</text>
</a>
</g>
<path d="M1302.5 130a10 10 0 0 0 10 -10v-70a10 10 0 0 1 10 -10"></path>
<path d="M417 40a10 10 0 0 1 10 10v100a10 10 0 0 0 10 10"></path>
<g class="non-terminal">
<path d="M437 160h0"></path>
<path d="M567.5 160h735"></path>
<rect x="437" y="149" width="130.5" height="22"></rect>
<a xlink:href="#/cds/expression/CDSArithParen"><text x="502.25" y="164">CDSArithParen</text>
</a>
</g>
<path d="M1302.5 160a10 10 0 0 0 10 -10v-100a10 10 0 0 1 10 -10"></path>
<path d="M417 40a10 10 0 0 1 10 10v130a10 10 0 0 0 10 10"></path>
<g class="non-terminal">
<path d="M437 190h0"></path>
<path d="M550.5 190h752"></path>
<rect x="437" y="179" width="113.5" height="22"></rect>
<a xlink:href="#/cds/expression/CDSFunction"><text x="493.75" y="194">CDSFunction</text>
</a>
</g>
<path d="M1302.5 190a10 10 0 0 0 10 -10v-130a10 10 0 0 1 10 -10"></path>
<path d="M417 40a10 10 0 0 1 10 10v160a10 10 0 0 0 10 10"></path>
<g class="non-terminal">
<path d="M437 220h0"></path>
<path d="M516.5 220h786"></path>
<rect x="437" y="209" width="79.5" height="22"></rect>
<a xlink:href="#/cds/expression/CDSCast"><text x="476.75" y="224">CDSCast</text>
</a>
</g>
<path d="M1302.5 220a10 10 0 0 0 10 -10v-160a10 10 0 0 1 10 -10"></path>
<path d="M417 40a10 10 0 0 1 10 10v190a10 10 0 0 0 10 10"></path>
<g class="non-terminal">
<path d="M437 250h0"></path>
<path d="M516.5 250h786"></path>
<rect x="437" y="239" width="79.5" height="22"></rect>
<a xlink:href="#/cds/expression/CDSCase"><text x="476.75" y="254">CDSCase</text>
</a>
</g>
<path d="M1302.5 250a10 10 0 0 0 10 -10v-190a10 10 0 0 1 10 -10"></path>
<path d="M417 40a10 10 0 0 1 10 10v220a10 10 0 0 0 10 10"></path>
<g>
<path d="M437 280h0"></path>
<path d="M647.5 280h655"></path>
<g class="terminal">
<path d="M437 280h0"></path>
<path d="M482.5 280h0"></path>
<rect x="437" y="269" width="45.5" height="22" rx="10" ry="10"></rect>
<text x="459.75" y="284">"("</text>
</g>
<path d="M482.5 280h10"></path>
<path d="M492.5 280h10"></path>
<g class="non-terminal">
<path d="M502.5 280h0"></path>
<path d="M582 280h0"></path>
<rect x="502.5" y="269" width="79.5" height="22"></rect>
<a xlink:href="#/cds/expression/CDSCase"><text x="542.25" y="284">CDSCase</text>
</a>
</g>
<path d="M582 280h10"></path>
<path d="M592 280h10"></path>
<g class="terminal">
<path d="M602 280h0"></path>
<path d="M647.5 280h0"></path>
<rect x="602" y="269" width="45.5" height="22" rx="10" ry="10"></rect>
<text x="624.75" y="284">")"</text>
</g>
</g>
<path d="M1302.5 280a10 10 0 0 0 10 -10v-220a10 10 0 0 1 10 -10"></path>
<path d="M417 40a10 10 0 0 1 10 10v267a10 10 0 0 0 10 10"></path>
<g>
<path d="M437 327h0"></path>
<path d="M1302.5 327h0"></path>
<g class="non-terminal">
<path d="M437 327h0"></path>
<path d="M584.5 327h0"></path>
<rect x="437" y="316" width="147.5" height="22"></rect>
<a xlink:href="#/cds/expression/CDSPrefixedName"><text x="510.75" y="331">CDSPrefixedName</text>
</a>
</g>
<path d="M584.5 327h10"></path>
<g>
<path d="M594.5 327h0"></path>
<path d="M697 327h0"></path>
<path d="M594.5 327a10 10 0 0 0 10 -10v0a10 10 0 0 1 10 -10"></path>
<g>
<path d="M614.5 307h62.5"></path>
</g>
<path d="M677 307a10 10 0 0 1 10 10v0a10 10 0 0 0 10 10"></path>
<path d="M594.5 327h20"></path>
<g class="non-terminal">
<path d="M614.5 327h0"></path>
<path d="M677 327h0"></path>
<rect x="614.5" y="316" width="62.5" height="22"></rect>
<a xlink:href="#/cds/expression/CDSAs"><text x="645.75" y="331">CDSAs</text>
</a>
</g>
<path d="M677 327h20"></path>
</g>
<g>
<path d="M697 327h0"></path>
<path d="M1302.5 327h0"></path>
<path d="M697 327a10 10 0 0 0 10 -10v-8a10 10 0 0 1 10 -10"></path>
<g>
<path d="M717 299h565.5"></path>
</g>
<path d="M1282.5 299a10 10 0 0 1 10 10v8a10 10 0 0 0 10 10"></path>
<path d="M697 327h20"></path>
<g>
<path d="M717 327h0"></path>
<path d="M1282.5 327h0"></path>
<path d="M717 327h20"></path>
<g>
<path d="M737 327h0"></path>
<path d="M1262.5 327h0"></path>
<g class="terminal">
<path d="M737 327h0"></path>
<path d="M901.5 327h0"></path>
<rect x="737" y="316" width="164.5" height="22" rx="10" ry="10"></rect>
<text x="819.25" y="331">": REDIRECTED TO"</text>
</g>
<path d="M901.5 327h10"></path>
<g>
<path d="M911.5 327h0"></path>
<path d="M1173 327h0"></path>
<path d="M911.5 327a10 10 0 0 0 10 -10v0a10 10 0 0 1 10 -10"></path>
<g>
<path d="M931.5 307h221.5"></path>
</g>
<path d="M1153 307a10 10 0 0 1 10 10v0a10 10 0 0 0 10 10"></path>
<path d="M911.5 327h20"></path>
<g>
<path d="M931.5 327h0"></path>
<path d="M1153 327h0"></path>
<path d="M931.5 327h20"></path>
<g class="terminal">
<path d="M951.5 327h0"></path>
<path d="M1039.5 327h93.5"></path>
<rect x="951.5" y="316" width="88" height="22" rx="10" ry="10"></rect>
<text x="995.5" y="331">"PARENT"</text>
</g>
<path d="M1133 327h20"></path>
<path d="M931.5 327a10 10 0 0 1 10 10v10a10 10 0 0 0 10 10"></path>
<g class="terminal">
<path d="M951.5 357h0"></path>
<path d="M1133 357h0"></path>
<rect x="951.5" y="346" width="181.5" height="22" rx="10" ry="10"></rect>
<text x="1042.25" y="361">"COMPOSITION CHILD"</text>
</g>
<path d="M1133 357a10 10 0 0 0 10 -10v-10a10 10 0 0 1 10 -10"></path>
</g>
<path d="M1153 327h20"></path>
</g>
<path d="M1173 327h10"></path>
<g class="non-terminal">
<path d="M1183 327h0"></path>
<path d="M1262.5 327h0"></path>
<rect x="1183" y="316" width="79.5" height="22"></rect>
<a xlink:href="#/cds/expression/CDSName"><text x="1222.75" y="331">CDSName</text>
</a>
</g>
</g>
<path d="M1262.5 327h20"></path>
<path d="M717 327a10 10 0 0 1 10 10v40a10 10 0 0 0 10 10"></path>
<g>
<path d="M737 387h0"></path>
<path d="M946 387h316.5"></path>
<g class="terminal">
<path d="M737 387h0"></path>
<path d="M782.5 387h0"></path>
<rect x="737" y="376" width="45.5" height="22" rx="10" ry="10"></rect>
<text x="759.75" y="391">":"</text>
</g>
<path d="M782.5 387h10"></path>
<g>
<path d="M792.5 387h0"></path>
<path d="M946 387h0"></path>
<path d="M792.5 387h20"></path>
<g class="non-terminal">
<path d="M812.5 387h0"></path>
<path d="M892 387h34"></path>
<rect x="812.5" y="376" width="79.5" height="22"></rect>
<a xlink:href="#/cds/expression/CDSName"><text x="852.25" y="391">CDSName</text>
</a>
</g>
<path d="M926 387h20"></path>
<path d="M792.5 387a10 10 0 0 1 10 10v10a10 10 0 0 0 10 10"></path>
<g class="non-terminal">
<path d="M812.5 417h0"></path>
<path d="M892 417h34"></path>
<rect x="812.5" y="406" width="79.5" height="22"></rect>
<a xlink:href="#/cds/expression/CDSType"><text x="852.25" y="421">CDSType</text>
</a>
</g>
<path d="M926 417a10 10 0 0 0 10 -10v-10a10 10 0 0 1 10 -10"></path>
<path d="M792.5 387a10 10 0 0 1 10 10v40a10 10 0 0 0 10 10"></path>
<g class="terminal">
<path d="M812.5 447h0"></path>
<path d="M926 447h0"></path>
<rect x="812.5" y="436" width="113.5" height="22" rx="10" ry="10"></rect>
<text x="869.25" y="451">"LOCALIZED"</text>
</g>
<path d="M926 447a10 10 0 0 0 10 -10v-40a10 10 0 0 1 10 -10"></path>
</g>
</g>
<path d="M1262.5 387a10 10 0 0 0 10 -10v-40a10 10 0 0 1 10 -10"></path>
</g>
<path d="M1282.5 327h20"></path>
</g>
</g>
<path d="M1302.5 327a10 10 0 0 0 10 -10v-267a10 10 0 0 1 10 -10"></path>
<path d="M417 40a10 10 0 0 1 10 10v417a10 10 0 0 0 10 10"></path>
<g class="non-terminal">
<path d="M437 477h0"></path>
<path d="M542 477h760.5"></path>
<rect x="437" y="466" width="105" height="22"></rect>
<a xlink:href="#/cds/expression/CDSInteger"><text x="489.5" y="481">CDSInteger</text>
</a>
</g>
<path d="M1302.5 477a10 10 0 0 0 10 -10v-417a10 10 0 0 1 10 -10"></path>
</g>
<g>
<path d="M1322.5 40h0"></path>
<path d="M1425 40h0"></path>
<path d="M1322.5 40a10 10 0 0 0 10 -10v0a10 10 0 0 1 10 -10"></path>
<g>
<path d="M1342.5 20h62.5"></path>
</g>
<path d="M1405 20a10 10 0 0 1 10 10v0a10 10 0 0 0 10 10"></path>
<path d="M1322.5 40h20"></path>
<g class="non-terminal">
<path d="M1342.5 40h0"></path>
<path d="M1405 40h0"></path>
<rect x="1342.5" y="29" width="62.5" height="22"></rect>
<a xlink:href="#/cds/expression/CDSAs"><text x="1373.75" y="44">CDSAs</text>
</a>
</g>
<path d="M1405 40h20"></path>
</g>
</g>
<path d="M1425 40h10"></path>
<path d="M 1435 40 h 20 m 0 -10 v 20"></path>
</g>
</svg>
