<svg xmlns="http://www.w3.org/2000/svg" xmlns:xlink="http://www.w3.org/1999/xlink" class="railroad-diagram" width="2495" height="1132" viewBox="0 0 2495 1132">
<defs>
<style type="text/css"><![CDATA[
path {
stroke-width: 3;
stroke: black;
fill: rgba(0,0,0,0);
}
text {
font: bold 14px monospace;
text-anchor: middle;
}
text.diagram-text {
font-size: 12px;
}
a {
fill: blue;
}
text.diagram-arrow {
font-size: 16px;
}
text.label {
text-anchor: start;
}
text.comment {
font: italic 12px monospace;
}
rect {
stroke-width: 3;
stroke: black;
fill: #BCBCBC;
}
path.diagram-text {
stroke-width: 3;
stroke: black;
fill: #BCBCBC;
cursor: help;
}
]]></style>
</defs>
<g transform="translate(.5 .5)">
<g>
<path d="M20 38v20m0 -10h20"></path>
</g>
<path d="M40 48h10"></path>
<g>
<path d="M50 48h0"></path>
<path d="M2445 48h0"></path>
<g>
<path d="M50 48h0"></path>
<path d="M643 48h0"></path>
<path d="M50 48a10 10 0 0 0 10 -10v0a10 10 0 0 1 10 -10"></path>
<g>
<path d="M70 28h553"></path>
</g>
<path d="M623 28a10 10 0 0 1 10 10v0a10 10 0 0 0 10 10"></path>
<path d="M50 48h20"></path>
<g>
<path d="M70 48h0"></path>
<path d="M623 48h0"></path>
<path d="M70 48h20"></path>
<g>
<path d="M90 48h0"></path>
<path d="M603 48h0"></path>
<g class="terminal ">
<path d="M90 48h0"></path>
<path d="M212 48h0"></path>
<rect x="90" y="37" width="122" height="22" rx="10" ry="10"></rect>
<text x="151" y="52">"LEFT OUTER"</text>
</g>
<path d="M212 48h10"></path>
<g>
<path d="M222 48h0"></path>
<path d="M375.5 48h0"></path>
<path d="M222 48h20"></path>
<g class="terminal ">
<path d="M242 48h0"></path>
<path d="M355.5 48h0"></path>
<rect x="242" y="37" width="113.5" height="22" rx="10" ry="10"></rect>
<text x="298.75" y="52">"EXACT ONE"</text>
</g>
<path d="M355.5 48h20"></path>
<path d="M222 48a10 10 0 0 1 10 10v10a10 10 0 0 0 10 10"></path>
<g class="terminal ">
<path d="M242 78h25.5"></path>
<path d="M330 78h25.5"></path>
<rect x="267.5" y="67" width="62.5" height="22" rx="10" ry="10"></rect>
<text x="298.75" y="82">"ONE"</text>
</g>
<path d="M355.5 78a10 10 0 0 0 10 -10v-10a10 10 0 0 1 10 -10"></path>
<path d="M222 48a10 10 0 0 1 10 10v40a10 10 0 0 0 10 10"></path>
<g class="terminal ">
<path d="M242 108h21.25"></path>
<path d="M334.25 108h21.25"></path>
<rect x="263.25" y="97" width="71" height="22" rx="10" ry="10"></rect>
<text x="298.75" y="112">"MANY"</text>
</g>
<path d="M355.5 108a10 10 0 0 0 10 -10v-40a10 10 0 0 1 10 -10"></path>
</g>
<path d="M375.5 48h10"></path>
<g class="terminal ">
<path d="M385.5 48h0"></path>
<path d="M439.5 48h0"></path>
<rect x="385.5" y="37" width="54" height="22" rx="10" ry="10"></rect>
<text x="412.5" y="52">"TO"</text>
</g>
<path d="M439.5 48h10"></path>
<g>
<path d="M449.5 48h0"></path>
<path d="M603 48h0"></path>
<path d="M449.5 48h20"></path>
<g class="terminal ">
<path d="M469.5 48h0"></path>
<path d="M583 48h0"></path>
<rect x="469.5" y="37" width="113.5" height="22" rx="10" ry="10"></rect>
<text x="526.25" y="52">"EXACT ONE"</text>
</g>
<path d="M583 48h20"></path>
<path d="M449.5 48a10 10 0 0 1 10 10v10a10 10 0 0 0 10 10"></path>
<g class="terminal ">
<path d="M469.5 78h25.5"></path>
<path d="M557.5 78h25.5"></path>
<rect x="495" y="67" width="62.5" height="22" rx="10" ry="10"></rect>
<text x="526.25" y="82">"ONE"</text>
</g>
<path d="M583 78a10 10 0 0 0 10 -10v-10a10 10 0 0 1 10 -10"></path>
<path d="M449.5 48a10 10 0 0 1 10 10v40a10 10 0 0 0 10 10"></path>
<g class="terminal ">
<path d="M469.5 108h21.25"></path>
<path d="M561.75 108h21.25"></path>
<rect x="490.75" y="97" width="71" height="22" rx="10" ry="10"></rect>
<text x="526.25" y="112">"MANY"</text>
</g>
<path d="M583 108a10 10 0 0 0 10 -10v-40a10 10 0 0 1 10 -10"></path>
</g>
</g>
<path d="M603 48h20"></path>
<path d="M70 48a10 10 0 0 1 10 10v70a10 10 0 0 0 10 10"></path>
<g>
<path d="M90 138h101"></path>
<path d="M502 138h101"></path>
<g class="terminal ">
<path d="M191 138h0"></path>
<path d="M338.5 138h0"></path>
<rect x="191" y="127" width="147.5" height="22" rx="10" ry="10"></rect>
<text x="264.75" y="142">"LEFT OUTER TO"</text>
</g>
<path d="M338.5 138h10"></path>
<g>
<path d="M348.5 138h0"></path>
<path d="M502 138h0"></path>
<path d="M348.5 138h20"></path>
<g class="terminal ">
<path d="M368.5 138h0"></path>
<path d="M482 138h0"></path>
<rect x="368.5" y="127" width="113.5" height="22" rx="10" ry="10"></rect>
<text x="425.25" y="142">"EXACT ONE"</text>
</g>
<path d="M482 138h20"></path>
<path d="M348.5 138a10 10 0 0 1 10 10v10a10 10 0 0 0 10 10"></path>
<g class="terminal ">
<path d="M368.5 168h25.5"></path>
<path d="M456.5 168h25.5"></path>
<rect x="394" y="157" width="62.5" height="22" rx="10" ry="10"></rect>
<text x="425.25" y="172">"ONE"</text>
</g>
<path d="M482 168a10 10 0 0 0 10 -10v-10a10 10 0 0 1 10 -10"></path>
<path d="M348.5 138a10 10 0 0 1 10 10v40a10 10 0 0 0 10 10"></path>
<g class="terminal ">
<path d="M368.5 198h21.25"></path>
<path d="M460.75 198h21.25"></path>
<rect x="389.75" y="187" width="71" height="22" rx="10" ry="10"></rect>
<text x="425.25" y="202">"MANY"</text>
</g>
<path d="M482 198a10 10 0 0 0 10 -10v-40a10 10 0 0 1 10 -10"></path>
</g>
</g>
<path d="M603 138a10 10 0 0 0 10 -10v-70a10 10 0 0 1 10 -10"></path>
<path d="M70 48a10 10 0 0 1 10 10v160a10 10 0 0 0 10 10"></path>
<g class="terminal ">
<path d="M90 228h195.5"></path>
<path d="M407.5 228h195.5"></path>
<rect x="285.5" y="217" width="122" height="22" rx="10" ry="10"></rect>
<text x="346.5" y="232">"LEFT OUTER"</text>
</g>
<path d="M603 228a10 10 0 0 0 10 -10v-160a10 10 0 0 1 10 -10"></path>
<path d="M70 48a10 10 0 0 1 10 10v190a10 10 0 0 0 10 10"></path>
<g>
<path d="M90 258h21.25"></path>
<path d="M581.75 258h21.25"></path>
<g class="terminal ">
<path d="M111.25 258h0"></path>
<path d="M190.75 258h0"></path>
<rect x="111.25" y="247" width="79.5" height="22" rx="10" ry="10"></rect>
<text x="151" y="262">"INNER"</text>
</g>
<path d="M190.75 258h10"></path>
<g>
<path d="M200.75 258h0"></path>
<path d="M354.25 258h0"></path>
<path d="M200.75 258h20"></path>
<g class="terminal ">
<path d="M220.75 258h0"></path>
<path d="M334.25 258h0"></path>
<rect x="220.75" y="247" width="113.5" height="22" rx="10" ry="10"></rect>
<text x="277.5" y="262">"EXACT ONE"</text>
</g>
<path d="M334.25 258h20"></path>
<path d="M200.75 258a10 10 0 0 1 10 10v10a10 10 0 0 0 10 10"></path>
<g class="terminal ">
<path d="M220.75 288h25.5"></path>
<path d="M308.75 288h25.5"></path>
<rect x="246.25" y="277" width="62.5" height="22" rx="10" ry="10"></rect>
<text x="277.5" y="292">"ONE"</text>
</g>
<path d="M334.25 288a10 10 0 0 0 10 -10v-10a10 10 0 0 1 10 -10"></path>
<path d="M200.75 258a10 10 0 0 1 10 10v40a10 10 0 0 0 10 10"></path>
<g class="terminal ">
<path d="M220.75 318h21.25"></path>
<path d="M313 318h21.25"></path>
<rect x="242" y="307" width="71" height="22" rx="10" ry="10"></rect>
<text x="277.5" y="322">"MANY"</text>
</g>
<path d="M334.25 318a10 10 0 0 0 10 -10v-40a10 10 0 0 1 10 -10"></path>
</g>
<path d="M354.25 258h10"></path>
<g class="terminal ">
<path d="M364.25 258h0"></path>
<path d="M418.25 258h0"></path>
<rect x="364.25" y="247" width="54" height="22" rx="10" ry="10"></rect>
<text x="391.25" y="262">"TO"</text>
</g>
<path d="M418.25 258h10"></path>
<g>
<path d="M428.25 258h0"></path>
<path d="M581.75 258h0"></path>
<path d="M428.25 258h20"></path>
<g class="terminal ">
<path d="M448.25 258h0"></path>
<path d="M561.75 258h0"></path>
<rect x="448.25" y="247" width="113.5" height="22" rx="10" ry="10"></rect>
<text x="505" y="262">"EXACT ONE"</text>
</g>
<path d="M561.75 258h20"></path>
<path d="M428.25 258a10 10 0 0 1 10 10v10a10 10 0 0 0 10 10"></path>
<g class="terminal ">
<path d="M448.25 288h25.5"></path>
<path d="M536.25 288h25.5"></path>
<rect x="473.75" y="277" width="62.5" height="22" rx="10" ry="10"></rect>
<text x="505" y="292">"ONE"</text>
</g>
<path d="M561.75 288a10 10 0 0 0 10 -10v-10a10 10 0 0 1 10 -10"></path>
<path d="M428.25 258a10 10 0 0 1 10 10v40a10 10 0 0 0 10 10"></path>
<g class="terminal ">
<path d="M448.25 318h21.25"></path>
<path d="M540.5 318h21.25"></path>
<rect x="469.5" y="307" width="71" height="22" rx="10" ry="10"></rect>
<text x="505" y="322">"MANY"</text>
</g>
<path d="M561.75 318a10 10 0 0 0 10 -10v-40a10 10 0 0 1 10 -10"></path>
</g>
</g>
<path d="M603 258a10 10 0 0 0 10 -10v-190a10 10 0 0 1 10 -10"></path>
<path d="M70 48a10 10 0 0 1 10 10v280a10 10 0 0 0 10 10"></path>
<g>
<path d="M90 348h122.25"></path>
<path d="M480.75 348h122.25"></path>
<g class="terminal ">
<path d="M212.25 348h0"></path>
<path d="M317.25 348h0"></path>
<rect x="212.25" y="337" width="105" height="22" rx="10" ry="10"></rect>
<text x="264.75" y="352">"INNER TO"</text>
</g>
<path d="M317.25 348h10"></path>
<g>
<path d="M327.25 348h0"></path>
<path d="M480.75 348h0"></path>
<path d="M327.25 348h20"></path>
<g class="terminal ">
<path d="M347.25 348h0"></path>
<path d="M460.75 348h0"></path>
<rect x="347.25" y="337" width="113.5" height="22" rx="10" ry="10"></rect>
<text x="404" y="352">"EXACT ONE"</text>
</g>
<path d="M460.75 348h20"></path>
<path d="M327.25 348a10 10 0 0 1 10 10v10a10 10 0 0 0 10 10"></path>
<g class="terminal ">
<path d="M347.25 378h25.5"></path>
<path d="M435.25 378h25.5"></path>
<rect x="372.75" y="367" width="62.5" height="22" rx="10" ry="10"></rect>
<text x="404" y="382">"ONE"</text>
</g>
<path d="M460.75 378a10 10 0 0 0 10 -10v-10a10 10 0 0 1 10 -10"></path>
<path d="M327.25 348a10 10 0 0 1 10 10v40a10 10 0 0 0 10 10"></path>
<g class="terminal ">
<path d="M347.25 408h21.25"></path>
<path d="M439.5 408h21.25"></path>
<rect x="368.5" y="397" width="71" height="22" rx="10" ry="10"></rect>
<text x="404" y="412">"MANY"</text>
</g>
<path d="M460.75 408a10 10 0 0 0 10 -10v-40a10 10 0 0 1 10 -10"></path>
</g>
</g>
<path d="M603 348a10 10 0 0 0 10 -10v-280a10 10 0 0 1 10 -10"></path>
<path d="M70 48a10 10 0 0 1 10 10v370a10 10 0 0 0 10 10"></path>
<g class="terminal ">
<path d="M90 438h216.75"></path>
<path d="M386.25 438h216.75"></path>
<rect x="306.75" y="427" width="79.5" height="22" rx="10" ry="10"></rect>
<text x="346.5" y="442">"INNER"</text>
</g>
<path d="M603 438a10 10 0 0 0 10 -10v-370a10 10 0 0 1 10 -10"></path>
<path d="M70 48a10 10 0 0 1 10 10v400a10 10 0 0 0 10 10"></path>
<g class="terminal ">
<path d="M90 468h216.75"></path>
<path d="M386.25 468h216.75"></path>
<rect x="306.75" y="457" width="79.5" height="22" rx="10" ry="10"></rect>
<text x="346.5" y="472">"CROSS"</text>
</g>
<path d="M603 468a10 10 0 0 0 10 -10v-400a10 10 0 0 1 10 -10"></path>
<path d="M70 48a10 10 0 0 1 10 10v430a10 10 0 0 0 10 10"></path>
<g class="terminal ">
<path d="M90 498h191.25"></path>
<path d="M411.75 498h191.25"></path>
<rect x="281.25" y="487" width="130.5" height="22" rx="10" ry="10"></rect>
<text x="346.5" y="502">"RIGHT OUTER"</text>
</g>
<path d="M603 498a10 10 0 0 0 10 -10v-430a10 10 0 0 1 10 -10"></path>
</g>
<path d="M623 48h20"></path>
</g>
<path d="M643 48h10"></path>
<g class="terminal ">
<path d="M653 48h0"></path>
<path d="M724 48h0"></path>
<rect x="653" y="37" width="71" height="22" rx="10" ry="10"></rect>
<text x="688.5" y="52">"JOIN"</text>
</g>
<path d="M724 48h10"></path>
<g>
<path d="M734 48h0"></path>
<path d="M2445 48h0"></path>
<path d="M734 48h20"></path>
<g>
<path d="M754 48h0"></path>
<path d="M2425 48h0"></path>
<g class="terminal ">
<path d="M754 48h0"></path>
<path d="M799.5 48h0"></path>
<rect x="754" y="37" width="45.5" height="22" rx="10" ry="10"></rect>
<text x="776.75" y="52">"("</text>
</g>
<path d="M799.5 48h10"></path>
<path d="M809.5 48h10"></path>
<g class="non-terminal ">
<path d="M819.5 48h0"></path>
<path d="M916 48h0"></path>
<rect x="819.5" y="37" width="96.5" height="22"></rect>
<a xlink:href="#/cds/expression/CDSSource"><text x="867.75" y="52">CDSSource</text>
</a>
</g>
<path d="M916 48h10"></path>
<g>
<path d="M926 48h0"></path>
<path d="M2153.5 48h0"></path>
<path d="M926 48a10 10 0 0 0 10 -10v-8a10 10 0 0 1 10 -10"></path>
<g>
<path d="M946 20h1187.5"></path>
</g>
<path d="M2133.5 20a10 10 0 0 1 10 10v8a10 10 0 0 0 10 10"></path>
<path d="M926 48h20"></path>
<g>
<path d="M946 48h0"></path>
<path d="M2133.5 48h0"></path>
<path d="M946 48h10"></path>
<g>
<path d="M956 48h0"></path>
<path d="M2123.5 48h0"></path>
<g>
<path d="M956 48h0"></path>
<path d="M1549 48h0"></path>
<path d="M956 48a10 10 0 0 0 10 -10v0a10 10 0 0 1 10 -10"></path>
<g>
<path d="M976 28h553"></path>
</g>
<path d="M1529 28a10 10 0 0 1 10 10v0a10 10 0 0 0 10 10"></path>
<path d="M956 48h20"></path>
<g>
<path d="M976 48h0"></path>
<path d="M1529 48h0"></path>
<path d="M976 48h20"></path>
<g>
<path d="M996 48h0"></path>
<path d="M1509 48h0"></path>
<g class="terminal ">
<path d="M996 48h0"></path>
<path d="M1118 48h0"></path>
<rect x="996" y="37" width="122" height="22" rx="10" ry="10"></rect>
<text x="1057" y="52">"LEFT OUTER"</text>
</g>
<path d="M1118 48h10"></path>
<g>
<path d="M1128 48h0"></path>
<path d="M1281.5 48h0"></path>
<path d="M1128 48h20"></path>
<g class="terminal ">
<path d="M1148 48h0"></path>
<path d="M1261.5 48h0"></path>
<rect x="1148" y="37" width="113.5" height="22" rx="10" ry="10"></rect>
<text x="1204.75" y="52">"EXACT ONE"</text>
</g>
<path d="M1261.5 48h20"></path>
<path d="M1128 48a10 10 0 0 1 10 10v10a10 10 0 0 0 10 10"></path>
<g class="terminal ">
<path d="M1148 78h25.5"></path>
<path d="M1236 78h25.5"></path>
<rect x="1173.5" y="67" width="62.5" height="22" rx="10" ry="10"></rect>
<text x="1204.75" y="82">"ONE"</text>
</g>
<path d="M1261.5 78a10 10 0 0 0 10 -10v-10a10 10 0 0 1 10 -10"></path>
<path d="M1128 48a10 10 0 0 1 10 10v40a10 10 0 0 0 10 10"></path>
<g class="terminal ">
<path d="M1148 108h21.25"></path>
<path d="M1240.25 108h21.25"></path>
<rect x="1169.25" y="97" width="71" height="22" rx="10" ry="10"></rect>
<text x="1204.75" y="112">"MANY"</text>
</g>
<path d="M1261.5 108a10 10 0 0 0 10 -10v-40a10 10 0 0 1 10 -10"></path>
</g>
<path d="M1281.5 48h10"></path>
<g class="terminal ">
<path d="M1291.5 48h0"></path>
<path d="M1345.5 48h0"></path>
<rect x="1291.5" y="37" width="54" height="22" rx="10" ry="10"></rect>
<text x="1318.5" y="52">"TO"</text>
</g>
<path d="M1345.5 48h10"></path>
<g>
<path d="M1355.5 48h0"></path>
<path d="M1509 48h0"></path>
<path d="M1355.5 48h20"></path>
<g class="terminal ">
<path d="M1375.5 48h0"></path>
<path d="M1489 48h0"></path>
<rect x="1375.5" y="37" width="113.5" height="22" rx="10" ry="10"></rect>
<text x="1432.25" y="52">"EXACT ONE"</text>
</g>
<path d="M1489 48h20"></path>
<path d="M1355.5 48a10 10 0 0 1 10 10v10a10 10 0 0 0 10 10"></path>
<g class="terminal ">
<path d="M1375.5 78h25.5"></path>
<path d="M1463.5 78h25.5"></path>
<rect x="1401" y="67" width="62.5" height="22" rx="10" ry="10"></rect>
<text x="1432.25" y="82">"ONE"</text>
</g>
<path d="M1489 78a10 10 0 0 0 10 -10v-10a10 10 0 0 1 10 -10"></path>
<path d="M1355.5 48a10 10 0 0 1 10 10v40a10 10 0 0 0 10 10"></path>
<g class="terminal ">
<path d="M1375.5 108h21.25"></path>
<path d="M1467.75 108h21.25"></path>
<rect x="1396.75" y="97" width="71" height="22" rx="10" ry="10"></rect>
<text x="1432.25" y="112">"MANY"</text>
</g>
<path d="M1489 108a10 10 0 0 0 10 -10v-40a10 10 0 0 1 10 -10"></path>
</g>
</g>
<path d="M1509 48h20"></path>
<path d="M976 48a10 10 0 0 1 10 10v70a10 10 0 0 0 10 10"></path>
<g>
<path d="M996 138h101"></path>
<path d="M1408 138h101"></path>
<g class="terminal ">
<path d="M1097 138h0"></path>
<path d="M1244.5 138h0"></path>
<rect x="1097" y="127" width="147.5" height="22" rx="10" ry="10"></rect>
<text x="1170.75" y="142">"LEFT OUTER TO"</text>
</g>
<path d="M1244.5 138h10"></path>
<g>
<path d="M1254.5 138h0"></path>
<path d="M1408 138h0"></path>
<path d="M1254.5 138h20"></path>
<g class="terminal ">
<path d="M1274.5 138h0"></path>
<path d="M1388 138h0"></path>
<rect x="1274.5" y="127" width="113.5" height="22" rx="10" ry="10"></rect>
<text x="1331.25" y="142">"EXACT ONE"</text>
</g>
<path d="M1388 138h20"></path>
<path d="M1254.5 138a10 10 0 0 1 10 10v10a10 10 0 0 0 10 10"></path>
<g class="terminal ">
<path d="M1274.5 168h25.5"></path>
<path d="M1362.5 168h25.5"></path>
<rect x="1300" y="157" width="62.5" height="22" rx="10" ry="10"></rect>
<text x="1331.25" y="172">"ONE"</text>
</g>
<path d="M1388 168a10 10 0 0 0 10 -10v-10a10 10 0 0 1 10 -10"></path>
<path d="M1254.5 138a10 10 0 0 1 10 10v40a10 10 0 0 0 10 10"></path>
<g class="terminal ">
<path d="M1274.5 198h21.25"></path>
<path d="M1366.75 198h21.25"></path>
<rect x="1295.75" y="187" width="71" height="22" rx="10" ry="10"></rect>
<text x="1331.25" y="202">"MANY"</text>
</g>
<path d="M1388 198a10 10 0 0 0 10 -10v-40a10 10 0 0 1 10 -10"></path>
</g>
</g>
<path d="M1509 138a10 10 0 0 0 10 -10v-70a10 10 0 0 1 10 -10"></path>
<path d="M976 48a10 10 0 0 1 10 10v160a10 10 0 0 0 10 10"></path>
<g class="terminal ">
<path d="M996 228h195.5"></path>
<path d="M1313.5 228h195.5"></path>
<rect x="1191.5" y="217" width="122" height="22" rx="10" ry="10"></rect>
<text x="1252.5" y="232">"LEFT OUTER"</text>
</g>
<path d="M1509 228a10 10 0 0 0 10 -10v-160a10 10 0 0 1 10 -10"></path>
<path d="M976 48a10 10 0 0 1 10 10v190a10 10 0 0 0 10 10"></path>
<g>
<path d="M996 258h21.25"></path>
<path d="M1487.75 258h21.25"></path>
<g class="terminal ">
<path d="M1017.25 258h0"></path>
<path d="M1096.75 258h0"></path>
<rect x="1017.25" y="247" width="79.5" height="22" rx="10" ry="10"></rect>
<text x="1057" y="262">"INNER"</text>
</g>
<path d="M1096.75 258h10"></path>
<g>
<path d="M1106.75 258h0"></path>
<path d="M1260.25 258h0"></path>
<path d="M1106.75 258h20"></path>
<g class="terminal ">
<path d="M1126.75 258h0"></path>
<path d="M1240.25 258h0"></path>
<rect x="1126.75" y="247" width="113.5" height="22" rx="10" ry="10"></rect>
<text x="1183.5" y="262">"EXACT ONE"</text>
</g>
<path d="M1240.25 258h20"></path>
<path d="M1106.75 258a10 10 0 0 1 10 10v10a10 10 0 0 0 10 10"></path>
<g class="terminal ">
<path d="M1126.75 288h25.5"></path>
<path d="M1214.75 288h25.5"></path>
<rect x="1152.25" y="277" width="62.5" height="22" rx="10" ry="10"></rect>
<text x="1183.5" y="292">"ONE"</text>
</g>
<path d="M1240.25 288a10 10 0 0 0 10 -10v-10a10 10 0 0 1 10 -10"></path>
<path d="M1106.75 258a10 10 0 0 1 10 10v40a10 10 0 0 0 10 10"></path>
<g class="terminal ">
<path d="M1126.75 318h21.25"></path>
<path d="M1219 318h21.25"></path>
<rect x="1148" y="307" width="71" height="22" rx="10" ry="10"></rect>
<text x="1183.5" y="322">"MANY"</text>
</g>
<path d="M1240.25 318a10 10 0 0 0 10 -10v-40a10 10 0 0 1 10 -10"></path>
</g>
<path d="M1260.25 258h10"></path>
<g class="terminal ">
<path d="M1270.25 258h0"></path>
<path d="M1324.25 258h0"></path>
<rect x="1270.25" y="247" width="54" height="22" rx="10" ry="10"></rect>
<text x="1297.25" y="262">"TO"</text>
</g>
<path d="M1324.25 258h10"></path>
<g>
<path d="M1334.25 258h0"></path>
<path d="M1487.75 258h0"></path>
<path d="M1334.25 258h20"></path>
<g class="terminal ">
<path d="M1354.25 258h0"></path>
<path d="M1467.75 258h0"></path>
<rect x="1354.25" y="247" width="113.5" height="22" rx="10" ry="10"></rect>
<text x="1411" y="262">"EXACT ONE"</text>
</g>
<path d="M1467.75 258h20"></path>
<path d="M1334.25 258a10 10 0 0 1 10 10v10a10 10 0 0 0 10 10"></path>
<g class="terminal ">
<path d="M1354.25 288h25.5"></path>
<path d="M1442.25 288h25.5"></path>
<rect x="1379.75" y="277" width="62.5" height="22" rx="10" ry="10"></rect>
<text x="1411" y="292">"ONE"</text>
</g>
<path d="M1467.75 288a10 10 0 0 0 10 -10v-10a10 10 0 0 1 10 -10"></path>
<path d="M1334.25 258a10 10 0 0 1 10 10v40a10 10 0 0 0 10 10"></path>
<g class="terminal ">
<path d="M1354.25 318h21.25"></path>
<path d="M1446.5 318h21.25"></path>
<rect x="1375.5" y="307" width="71" height="22" rx="10" ry="10"></rect>
<text x="1411" y="322">"MANY"</text>
</g>
<path d="M1467.75 318a10 10 0 0 0 10 -10v-40a10 10 0 0 1 10 -10"></path>
</g>
</g>
<path d="M1509 258a10 10 0 0 0 10 -10v-190a10 10 0 0 1 10 -10"></path>
<path d="M976 48a10 10 0 0 1 10 10v280a10 10 0 0 0 10 10"></path>
<g>
<path d="M996 348h122.25"></path>
<path d="M1386.75 348h122.25"></path>
<g class="terminal ">
<path d="M1118.25 348h0"></path>
<path d="M1223.25 348h0"></path>
<rect x="1118.25" y="337" width="105" height="22" rx="10" ry="10"></rect>
<text x="1170.75" y="352">"INNER TO"</text>
</g>
<path d="M1223.25 348h10"></path>
<g>
<path d="M1233.25 348h0"></path>
<path d="M1386.75 348h0"></path>
<path d="M1233.25 348h20"></path>
<g class="terminal ">
<path d="M1253.25 348h0"></path>
<path d="M1366.75 348h0"></path>
<rect x="1253.25" y="337" width="113.5" height="22" rx="10" ry="10"></rect>
<text x="1310" y="352">"EXACT ONE"</text>
</g>
<path d="M1366.75 348h20"></path>
<path d="M1233.25 348a10 10 0 0 1 10 10v10a10 10 0 0 0 10 10"></path>
<g class="terminal ">
<path d="M1253.25 378h25.5"></path>
<path d="M1341.25 378h25.5"></path>
<rect x="1278.75" y="367" width="62.5" height="22" rx="10" ry="10"></rect>
<text x="1310" y="382">"ONE"</text>
</g>
<path d="M1366.75 378a10 10 0 0 0 10 -10v-10a10 10 0 0 1 10 -10"></path>
<path d="M1233.25 348a10 10 0 0 1 10 10v40a10 10 0 0 0 10 10"></path>
<g class="terminal ">
<path d="M1253.25 408h21.25"></path>
<path d="M1345.5 408h21.25"></path>
<rect x="1274.5" y="397" width="71" height="22" rx="10" ry="10"></rect>
<text x="1310" y="412">"MANY"</text>
</g>
<path d="M1366.75 408a10 10 0 0 0 10 -10v-40a10 10 0 0 1 10 -10"></path>
</g>
</g>
<path d="M1509 348a10 10 0 0 0 10 -10v-280a10 10 0 0 1 10 -10"></path>
<path d="M976 48a10 10 0 0 1 10 10v370a10 10 0 0 0 10 10"></path>
<g class="terminal ">
<path d="M996 438h216.75"></path>
<path d="M1292.25 438h216.75"></path>
<rect x="1212.75" y="427" width="79.5" height="22" rx="10" ry="10"></rect>
<text x="1252.5" y="442">"INNER"</text>
</g>
<path d="M1509 438a10 10 0 0 0 10 -10v-370a10 10 0 0 1 10 -10"></path>
<path d="M976 48a10 10 0 0 1 10 10v400a10 10 0 0 0 10 10"></path>
<g class="terminal ">
<path d="M996 468h216.75"></path>
<path d="M1292.25 468h216.75"></path>
<rect x="1212.75" y="457" width="79.5" height="22" rx="10" ry="10"></rect>
<text x="1252.5" y="472">"CROSS"</text>
</g>
<path d="M1509 468a10 10 0 0 0 10 -10v-400a10 10 0 0 1 10 -10"></path>
<path d="M976 48a10 10 0 0 1 10 10v430a10 10 0 0 0 10 10"></path>
<g class="terminal ">
<path d="M996 498h191.25"></path>
<path d="M1317.75 498h191.25"></path>
<rect x="1187.25" y="487" width="130.5" height="22" rx="10" ry="10"></rect>
<text x="1252.5" y="502">"RIGHT OUTER"</text>
</g>
<path d="M1509 498a10 10 0 0 0 10 -10v-430a10 10 0 0 1 10 -10"></path>
</g>
<path d="M1529 48h20"></path>
</g>
<path d="M1549 48h10"></path>
<g class="terminal ">
<path d="M1559 48h0"></path>
<path d="M1630 48h0"></path>
<rect x="1559" y="37" width="71" height="22" rx="10" ry="10"></rect>
<text x="1594.5" y="52">"JOIN"</text>
</g>
<path d="M1630 48h10"></path>
<g>
<path d="M1640 48h0"></path>
<path d="M2123.5 48h0"></path>
<path d="M1640 48h20"></path>
<g>
<path d="M1660 48h0"></path>
<path d="M2103.5 48h0"></path>
<g class="terminal ">
<path d="M1660 48h0"></path>
<path d="M1705.5 48h0"></path>
<rect x="1660" y="37" width="45.5" height="22" rx="10" ry="10"></rect>
<text x="1682.75" y="52">"("</text>
</g>
<path d="M1705.5 48h10"></path>
<path d="M1715.5 48h10"></path>
<g>
<path d="M1725.5 48h0"></path>
<path d="M2038 48h0"></path>
<g class="non-terminal ">
<path d="M1725.5 48h0"></path>
<path d="M1822 48h0"></path>
<rect x="1725.5" y="37" width="96.5" height="22"></rect>
<a xlink:href="#/cds/expression/CDSSource"><text x="1773.75" y="52">CDSSource</text>
</a>
</g>
<path d="M1822 48h10"></path>
<path d="M1832 48h10"></path>
<g class="terminal ">
<path d="M1842 48h0"></path>
<path d="M1896 48h0"></path>
<rect x="1842" y="37" width="54" height="22" rx="10" ry="10"></rect>
<text x="1869" y="52">"ON"</text>
</g>
<path d="M1896 48h10"></path>
<path d="M1906 48h10"></path>
<g class="non-terminal ">
<path d="M1916 48h0"></path>
<path d="M2038 48h0"></path>
<rect x="1916" y="37" width="122" height="22"></rect>
<a xlink:href="#/cds/expression/CDSCondition"><text x="1977" y="52">CDSCondition</text>
</a>
</g>
</g>
<path d="M2038 48h10"></path>
<path d="M2048 48h10"></path>
<g class="terminal ">
<path d="M2058 48h0"></path>
<path d="M2103.5 48h0"></path>
<rect x="2058" y="37" width="45.5" height="22" rx="10" ry="10"></rect>
<text x="2080.75" y="52">")"</text>
</g>
</g>
<path d="M2103.5 48h20"></path>
<path d="M1640 48a10 10 0 0 1 10 10v10a10 10 0 0 0 10 10"></path>
<g>
<path d="M1660 78h65.5"></path>
<path d="M2038 78h65.5"></path>
<g class="non-terminal ">
<path d="M1725.5 78h0"></path>
<path d="M1822 78h0"></path>
<rect x="1725.5" y="67" width="96.5" height="22"></rect>
<a xlink:href="#/cds/expression/CDSSource"><text x="1773.75" y="82">CDSSource</text>
</a>
</g>
<path d="M1822 78h10"></path>
<path d="M1832 78h10"></path>
<g class="terminal ">
<path d="M1842 78h0"></path>
<path d="M1896 78h0"></path>
<rect x="1842" y="67" width="54" height="22" rx="10" ry="10"></rect>
<text x="1869" y="82">"ON"</text>
</g>
<path d="M1896 78h10"></path>
<path d="M1906 78h10"></path>
<g class="non-terminal ">
<path d="M1916 78h0"></path>
<path d="M2038 78h0"></path>
<rect x="1916" y="67" width="122" height="22"></rect>
<a xlink:href="#/cds/expression/CDSCondition"><text x="1977" y="82">CDSCondition</text>
</a>
</g>
</g>
<path d="M2103.5 78a10 10 0 0 0 10 -10v-10a10 10 0 0 1 10 -10"></path>
</g>
</g>
<path d="M2123.5 48h10"></path>
<path d="M956 48a10 10 0 0 0 -10 10v449a10 10 0 0 0 10 10"></path>
<g>
<path d="M956 517h1167.5"></path>
</g>
<path d="M2123.5 517a10 10 0 0 0 10 -10v-449a10 10 0 0 0 -10 -10"></path>
</g>
<path d="M2133.5 48h20"></path>
</g>
<path d="M2153.5 48h10"></path>
<g class="terminal ">
<path d="M2163.5 48h0"></path>
<path d="M2209 48h0"></path>
<rect x="2163.5" y="37" width="45.5" height="22" rx="10" ry="10"></rect>
<text x="2186.25" y="52">")"</text>
</g>
<path d="M2209 48h10"></path>
<path d="M2219 48h10"></path>
<g class="terminal ">
<path d="M2229 48h0"></path>
<path d="M2283 48h0"></path>
<rect x="2229" y="37" width="54" height="22" rx="10" ry="10"></rect>
<text x="2256" y="52">"ON"</text>
</g>
<path d="M2283 48h10"></path>
<path d="M2293 48h10"></path>
<g class="non-terminal ">
<path d="M2303 48h0"></path>
<path d="M2425 48h0"></path>
<rect x="2303" y="37" width="122" height="22"></rect>
<a xlink:href="#/cds/expression/CDSCondition"><text x="2364" y="52">CDSCondition</text>
</a>
</g>
</g>
<path d="M2425 48h20"></path>
<path d="M734 48a10 10 0 0 1 10 10v485a10 10 0 0 0 10 10"></path>
<g>
<path d="M754 553h146"></path>
<path d="M2279 553h146"></path>
<g class="non-terminal ">
<path d="M900 553h0"></path>
<path d="M996.5 553h0"></path>
<rect x="900" y="542" width="96.5" height="22"></rect>
<a xlink:href="#/cds/expression/CDSSource"><text x="948.25" y="557">CDSSource</text>
</a>
</g>
<path d="M996.5 553h10"></path>
<g>
<path d="M1006.5 553h0"></path>
<path d="M2073 553h0"></path>
<path d="M1006.5 553a10 10 0 0 0 10 -10v-8a10 10 0 0 1 10 -10"></path>
<g>
<path d="M1026.5 525h1026.5"></path>
</g>
<path d="M2053 525a10 10 0 0 1 10 10v8a10 10 0 0 0 10 10"></path>
<path d="M1006.5 553h20"></path>
<g>
<path d="M1026.5 553h0"></path>
<path d="M2053 553h0"></path>
<path d="M1026.5 553h10"></path>
<g>
<path d="M1036.5 553h0"></path>
<path d="M2043 553h0"></path>
<g>
<path d="M1036.5 553h0"></path>
<path d="M1629.5 553h0"></path>
<path d="M1036.5 553a10 10 0 0 0 10 -10v0a10 10 0 0 1 10 -10"></path>
<g>
<path d="M1056.5 533h553"></path>
</g>
<path d="M1609.5 533a10 10 0 0 1 10 10v0a10 10 0 0 0 10 10"></path>
<path d="M1036.5 553h20"></path>
<g>
<path d="M1056.5 553h0"></path>
<path d="M1609.5 553h0"></path>
<path d="M1056.5 553h20"></path>
<g>
<path d="M1076.5 553h0"></path>
<path d="M1589.5 553h0"></path>
<g class="terminal ">
<path d="M1076.5 553h0"></path>
<path d="M1198.5 553h0"></path>
<rect x="1076.5" y="542" width="122" height="22" rx="10" ry="10"></rect>
<text x="1137.5" y="557">"LEFT OUTER"</text>
</g>
<path d="M1198.5 553h10"></path>
<g>
<path d="M1208.5 553h0"></path>
<path d="M1362 553h0"></path>
<path d="M1208.5 553h20"></path>
<g class="terminal ">
<path d="M1228.5 553h0"></path>
<path d="M1342 553h0"></path>
<rect x="1228.5" y="542" width="113.5" height="22" rx="10" ry="10"></rect>
<text x="1285.25" y="557">"EXACT ONE"</text>
</g>
<path d="M1342 553h20"></path>
<path d="M1208.5 553a10 10 0 0 1 10 10v10a10 10 0 0 0 10 10"></path>
<g class="terminal ">
<path d="M1228.5 583h25.5"></path>
<path d="M1316.5 583h25.5"></path>
<rect x="1254" y="572" width="62.5" height="22" rx="10" ry="10"></rect>
<text x="1285.25" y="587">"ONE"</text>
</g>
<path d="M1342 583a10 10 0 0 0 10 -10v-10a10 10 0 0 1 10 -10"></path>
<path d="M1208.5 553a10 10 0 0 1 10 10v40a10 10 0 0 0 10 10"></path>
<g class="terminal ">
<path d="M1228.5 613h21.25"></path>
<path d="M1320.75 613h21.25"></path>
<rect x="1249.75" y="602" width="71" height="22" rx="10" ry="10"></rect>
<text x="1285.25" y="617">"MANY"</text>
</g>
<path d="M1342 613a10 10 0 0 0 10 -10v-40a10 10 0 0 1 10 -10"></path>
</g>
<path d="M1362 553h10"></path>
<g class="terminal ">
<path d="M1372 553h0"></path>
<path d="M1426 553h0"></path>
<rect x="1372" y="542" width="54" height="22" rx="10" ry="10"></rect>
<text x="1399" y="557">"TO"</text>
</g>
<path d="M1426 553h10"></path>
<g>
<path d="M1436 553h0"></path>
<path d="M1589.5 553h0"></path>
<path d="M1436 553h20"></path>
<g class="terminal ">
<path d="M1456 553h0"></path>
<path d="M1569.5 553h0"></path>
<rect x="1456" y="542" width="113.5" height="22" rx="10" ry="10"></rect>
<text x="1512.75" y="557">"EXACT ONE"</text>
</g>
<path d="M1569.5 553h20"></path>
<path d="M1436 553a10 10 0 0 1 10 10v10a10 10 0 0 0 10 10"></path>
<g class="terminal ">
<path d="M1456 583h25.5"></path>
<path d="M1544 583h25.5"></path>
<rect x="1481.5" y="572" width="62.5" height="22" rx="10" ry="10"></rect>
<text x="1512.75" y="587">"ONE"</text>
</g>
<path d="M1569.5 583a10 10 0 0 0 10 -10v-10a10 10 0 0 1 10 -10"></path>
<path d="M1436 553a10 10 0 0 1 10 10v40a10 10 0 0 0 10 10"></path>
<g class="terminal ">
<path d="M1456 613h21.25"></path>
<path d="M1548.25 613h21.25"></path>
<rect x="1477.25" y="602" width="71" height="22" rx="10" ry="10"></rect>
<text x="1512.75" y="617">"MANY"</text>
</g>
<path d="M1569.5 613a10 10 0 0 0 10 -10v-40a10 10 0 0 1 10 -10"></path>
</g>
</g>
<path d="M1589.5 553h20"></path>
<path d="M1056.5 553a10 10 0 0 1 10 10v70a10 10 0 0 0 10 10"></path>
<g>
<path d="M1076.5 643h101"></path>
<path d="M1488.5 643h101"></path>
<g class="terminal ">
<path d="M1177.5 643h0"></path>
<path d="M1325 643h0"></path>
<rect x="1177.5" y="632" width="147.5" height="22" rx="10" ry="10"></rect>
<text x="1251.25" y="647">"LEFT OUTER TO"</text>
</g>
<path d="M1325 643h10"></path>
<g>
<path d="M1335 643h0"></path>
<path d="M1488.5 643h0"></path>
<path d="M1335 643h20"></path>
<g class="terminal ">
<path d="M1355 643h0"></path>
<path d="M1468.5 643h0"></path>
<rect x="1355" y="632" width="113.5" height="22" rx="10" ry="10"></rect>
<text x="1411.75" y="647">"EXACT ONE"</text>
</g>
<path d="M1468.5 643h20"></path>
<path d="M1335 643a10 10 0 0 1 10 10v10a10 10 0 0 0 10 10"></path>
<g class="terminal ">
<path d="M1355 673h25.5"></path>
<path d="M1443 673h25.5"></path>
<rect x="1380.5" y="662" width="62.5" height="22" rx="10" ry="10"></rect>
<text x="1411.75" y="677">"ONE"</text>
</g>
<path d="M1468.5 673a10 10 0 0 0 10 -10v-10a10 10 0 0 1 10 -10"></path>
<path d="M1335 643a10 10 0 0 1 10 10v40a10 10 0 0 0 10 10"></path>
<g class="terminal ">
<path d="M1355 703h21.25"></path>
<path d="M1447.25 703h21.25"></path>
<rect x="1376.25" y="692" width="71" height="22" rx="10" ry="10"></rect>
<text x="1411.75" y="707">"MANY"</text>
</g>
<path d="M1468.5 703a10 10 0 0 0 10 -10v-40a10 10 0 0 1 10 -10"></path>
</g>
</g>
<path d="M1589.5 643a10 10 0 0 0 10 -10v-70a10 10 0 0 1 10 -10"></path>
<path d="M1056.5 553a10 10 0 0 1 10 10v160a10 10 0 0 0 10 10"></path>
<g class="terminal ">
<path d="M1076.5 733h195.5"></path>
<path d="M1394 733h195.5"></path>
<rect x="1272" y="722" width="122" height="22" rx="10" ry="10"></rect>
<text x="1333" y="737">"LEFT OUTER"</text>
</g>
<path d="M1589.5 733a10 10 0 0 0 10 -10v-160a10 10 0 0 1 10 -10"></path>
<path d="M1056.5 553a10 10 0 0 1 10 10v190a10 10 0 0 0 10 10"></path>
<g>
<path d="M1076.5 763h21.25"></path>
<path d="M1568.25 763h21.25"></path>
<g class="terminal ">
<path d="M1097.75 763h0"></path>
<path d="M1177.25 763h0"></path>
<rect x="1097.75" y="752" width="79.5" height="22" rx="10" ry="10"></rect>
<text x="1137.5" y="767">"INNER"</text>
</g>
<path d="M1177.25 763h10"></path>
<g>
<path d="M1187.25 763h0"></path>
<path d="M1340.75 763h0"></path>
<path d="M1187.25 763h20"></path>
<g class="terminal ">
<path d="M1207.25 763h0"></path>
<path d="M1320.75 763h0"></path>
<rect x="1207.25" y="752" width="113.5" height="22" rx="10" ry="10"></rect>
<text x="1264" y="767">"EXACT ONE"</text>
</g>
<path d="M1320.75 763h20"></path>
<path d="M1187.25 763a10 10 0 0 1 10 10v10a10 10 0 0 0 10 10"></path>
<g class="terminal ">
<path d="M1207.25 793h25.5"></path>
<path d="M1295.25 793h25.5"></path>
<rect x="1232.75" y="782" width="62.5" height="22" rx="10" ry="10"></rect>
<text x="1264" y="797">"ONE"</text>
</g>
<path d="M1320.75 793a10 10 0 0 0 10 -10v-10a10 10 0 0 1 10 -10"></path>
<path d="M1187.25 763a10 10 0 0 1 10 10v40a10 10 0 0 0 10 10"></path>
<g class="terminal ">
<path d="M1207.25 823h21.25"></path>
<path d="M1299.5 823h21.25"></path>
<rect x="1228.5" y="812" width="71" height="22" rx="10" ry="10"></rect>
<text x="1264" y="827">"MANY"</text>
</g>
<path d="M1320.75 823a10 10 0 0 0 10 -10v-40a10 10 0 0 1 10 -10"></path>
</g>
<path d="M1340.75 763h10"></path>
<g class="terminal ">
<path d="M1350.75 763h0"></path>
<path d="M1404.75 763h0"></path>
<rect x="1350.75" y="752" width="54" height="22" rx="10" ry="10"></rect>
<text x="1377.75" y="767">"TO"</text>
</g>
<path d="M1404.75 763h10"></path>
<g>
<path d="M1414.75 763h0"></path>
<path d="M1568.25 763h0"></path>
<path d="M1414.75 763h20"></path>
<g class="terminal ">
<path d="M1434.75 763h0"></path>
<path d="M1548.25 763h0"></path>
<rect x="1434.75" y="752" width="113.5" height="22" rx="10" ry="10"></rect>
<text x="1491.5" y="767">"EXACT ONE"</text>
</g>
<path d="M1548.25 763h20"></path>
<path d="M1414.75 763a10 10 0 0 1 10 10v10a10 10 0 0 0 10 10"></path>
<g class="terminal ">
<path d="M1434.75 793h25.5"></path>
<path d="M1522.75 793h25.5"></path>
<rect x="1460.25" y="782" width="62.5" height="22" rx="10" ry="10"></rect>
<text x="1491.5" y="797">"ONE"</text>
</g>
<path d="M1548.25 793a10 10 0 0 0 10 -10v-10a10 10 0 0 1 10 -10"></path>
<path d="M1414.75 763a10 10 0 0 1 10 10v40a10 10 0 0 0 10 10"></path>
<g class="terminal ">
<path d="M1434.75 823h21.25"></path>
<path d="M1527 823h21.25"></path>
<rect x="1456" y="812" width="71" height="22" rx="10" ry="10"></rect>
<text x="1491.5" y="827">"MANY"</text>
</g>
<path d="M1548.25 823a10 10 0 0 0 10 -10v-40a10 10 0 0 1 10 -10"></path>
</g>
</g>
<path d="M1589.5 763a10 10 0 0 0 10 -10v-190a10 10 0 0 1 10 -10"></path>
<path d="M1056.5 553a10 10 0 0 1 10 10v280a10 10 0 0 0 10 10"></path>
<g>
<path d="M1076.5 853h122.25"></path>
<path d="M1467.25 853h122.25"></path>
<g class="terminal ">
<path d="M1198.75 853h0"></path>
<path d="M1303.75 853h0"></path>
<rect x="1198.75" y="842" width="105" height="22" rx="10" ry="10"></rect>
<text x="1251.25" y="857">"INNER TO"</text>
</g>
<path d="M1303.75 853h10"></path>
<g>
<path d="M1313.75 853h0"></path>
<path d="M1467.25 853h0"></path>
<path d="M1313.75 853h20"></path>
<g class="terminal ">
<path d="M1333.75 853h0"></path>
<path d="M1447.25 853h0"></path>
<rect x="1333.75" y="842" width="113.5" height="22" rx="10" ry="10"></rect>
<text x="1390.5" y="857">"EXACT ONE"</text>
</g>
<path d="M1447.25 853h20"></path>
<path d="M1313.75 853a10 10 0 0 1 10 10v10a10 10 0 0 0 10 10"></path>
<g class="terminal ">
<path d="M1333.75 883h25.5"></path>
<path d="M1421.75 883h25.5"></path>
<rect x="1359.25" y="872" width="62.5" height="22" rx="10" ry="10"></rect>
<text x="1390.5" y="887">"ONE"</text>
</g>
<path d="M1447.25 883a10 10 0 0 0 10 -10v-10a10 10 0 0 1 10 -10"></path>
<path d="M1313.75 853a10 10 0 0 1 10 10v40a10 10 0 0 0 10 10"></path>
<g class="terminal ">
<path d="M1333.75 913h21.25"></path>
<path d="M1426 913h21.25"></path>
<rect x="1355" y="902" width="71" height="22" rx="10" ry="10"></rect>
<text x="1390.5" y="917">"MANY"</text>
</g>
<path d="M1447.25 913a10 10 0 0 0 10 -10v-40a10 10 0 0 1 10 -10"></path>
</g>
</g>
<path d="M1589.5 853a10 10 0 0 0 10 -10v-280a10 10 0 0 1 10 -10"></path>
<path d="M1056.5 553a10 10 0 0 1 10 10v370a10 10 0 0 0 10 10"></path>
<g class="terminal ">
<path d="M1076.5 943h216.75"></path>
<path d="M1372.75 943h216.75"></path>
<rect x="1293.25" y="932" width="79.5" height="22" rx="10" ry="10"></rect>
<text x="1333" y="947">"INNER"</text>
</g>
<path d="M1589.5 943a10 10 0 0 0 10 -10v-370a10 10 0 0 1 10 -10"></path>
<path d="M1056.5 553a10 10 0 0 1 10 10v400a10 10 0 0 0 10 10"></path>
<g class="terminal ">
<path d="M1076.5 973h216.75"></path>
<path d="M1372.75 973h216.75"></path>
<rect x="1293.25" y="962" width="79.5" height="22" rx="10" ry="10"></rect>
<text x="1333" y="977">"CROSS"</text>
</g>
<path d="M1589.5 973a10 10 0 0 0 10 -10v-400a10 10 0 0 1 10 -10"></path>
<path d="M1056.5 553a10 10 0 0 1 10 10v430a10 10 0 0 0 10 10"></path>
<g class="terminal ">
<path d="M1076.5 1003h191.25"></path>
<path d="M1398.25 1003h191.25"></path>
<rect x="1267.75" y="992" width="130.5" height="22" rx="10" ry="10"></rect>
<text x="1333" y="1007">"RIGHT OUTER"</text>
</g>
<path d="M1589.5 1003a10 10 0 0 0 10 -10v-430a10 10 0 0 1 10 -10"></path>
</g>
<path d="M1609.5 553h20"></path>
</g>
<path d="M1629.5 553h10"></path>
<g class="terminal ">
<path d="M1639.5 553h0"></path>
<path d="M1710.5 553h0"></path>
<rect x="1639.5" y="542" width="71" height="22" rx="10" ry="10"></rect>
<text x="1675" y="557">"JOIN"</text>
</g>
<path d="M1710.5 553h10"></path>
<path d="M1720.5 553h10"></path>
<g class="non-terminal ">
<path d="M1730.5 553h0"></path>
<path d="M1827 553h0"></path>
<rect x="1730.5" y="542" width="96.5" height="22"></rect>
<a xlink:href="#/cds/expression/CDSSource"><text x="1778.75" y="557">CDSSource</text>
</a>
</g>
<path d="M1827 553h10"></path>
<path d="M1837 553h10"></path>
<g class="terminal ">
<path d="M1847 553h0"></path>
<path d="M1901 553h0"></path>
<rect x="1847" y="542" width="54" height="22" rx="10" ry="10"></rect>
<text x="1874" y="557">"ON"</text>
</g>
<path d="M1901 553h10"></path>
<path d="M1911 553h10"></path>
<g class="non-terminal ">
<path d="M1921 553h0"></path>
<path d="M2043 553h0"></path>
<rect x="1921" y="542" width="122" height="22"></rect>
<a xlink:href="#/cds/expression/CDSCondition"><text x="1982" y="557">CDSCondition</text>
</a>
</g>
</g>
<path d="M2043 553h10"></path>
<path d="M1036.5 553a10 10 0 0 0 -10 10v449a10 10 0 0 0 10 10"></path>
<g>
<path d="M1036.5 1022h1006.5"></path>
</g>
<path d="M2043 1022a10 10 0 0 0 10 -10v-449a10 10 0 0 0 -10 -10"></path>
</g>
<path d="M2053 553h20"></path>
</g>
<path d="M2073 553h10"></path>
<g class="terminal ">
<path d="M2083 553h0"></path>
<path d="M2137 553h0"></path>
<rect x="2083" y="542" width="54" height="22" rx="10" ry="10"></rect>
<text x="2110" y="557">"ON"</text>
</g>
<path d="M2137 553h10"></path>
<path d="M2147 553h10"></path>
<g class="non-terminal ">
<path d="M2157 553h0"></path>
<path d="M2279 553h0"></path>
<rect x="2157" y="542" width="122" height="22"></rect>
<a xlink:href="#/cds/expression/CDSCondition"><text x="2218" y="557">CDSCondition</text>
</a>
</g>
</g>
<path d="M2425 553a10 10 0 0 0 10 -10v-485a10 10 0 0 1 10 -10"></path>
<path d="M734 48a10 10 0 0 1 10 10v973a10 10 0 0 0 10 10"></path>
<g>
<path d="M754 1041h593.75"></path>
<path d="M1831.25 1041h593.75"></path>
<path d="M1347.75 1041h20"></path>
<g>
<path d="M1367.75 1041h0"></path>
<path d="M1811.25 1041h0"></path>
<g class="terminal ">
<path d="M1367.75 1041h0"></path>
<path d="M1413.25 1041h0"></path>
<rect x="1367.75" y="1030" width="45.5" height="22" rx="10" ry="10"></rect>
<text x="1390.5" y="1045">"("</text>
</g>
<path d="M1413.25 1041h10"></path>
<path d="M1423.25 1041h10"></path>
<g>
<path d="M1433.25 1041h0"></path>
<path d="M1745.75 1041h0"></path>
<g class="non-terminal ">
<path d="M1433.25 1041h0"></path>
<path d="M1529.75 1041h0"></path>
<rect x="1433.25" y="1030" width="96.5" height="22"></rect>
<a xlink:href="#/cds/expression/CDSSource"><text x="1481.5" y="1045">CDSSource</text>
</a>
</g>
<path d="M1529.75 1041h10"></path>
<path d="M1539.75 1041h10"></path>
<g class="terminal ">
<path d="M1549.75 1041h0"></path>
<path d="M1603.75 1041h0"></path>
<rect x="1549.75" y="1030" width="54" height="22" rx="10" ry="10"></rect>
<text x="1576.75" y="1045">"ON"</text>
</g>
<path d="M1603.75 1041h10"></path>
<path d="M1613.75 1041h10"></path>
<g class="non-terminal ">
<path d="M1623.75 1041h0"></path>
<path d="M1745.75 1041h0"></path>
<rect x="1623.75" y="1030" width="122" height="22"></rect>
<a xlink:href="#/cds/expression/CDSCondition"><text x="1684.75" y="1045">CDSCondition</text>
</a>
</g>
</g>
<path d="M1745.75 1041h10"></path>
<path d="M1755.75 1041h10"></path>
<g class="terminal ">
<path d="M1765.75 1041h0"></path>
<path d="M1811.25 1041h0"></path>
<rect x="1765.75" y="1030" width="45.5" height="22" rx="10" ry="10"></rect>
<text x="1788.5" y="1045">")"</text>
</g>
</g>
<path d="M1811.25 1041h20"></path>
<path d="M1347.75 1041a10 10 0 0 1 10 10v10a10 10 0 0 0 10 10"></path>
<g>
<path d="M1367.75 1071h65.5"></path>
<path d="M1745.75 1071h65.5"></path>
<g class="non-terminal ">
<path d="M1433.25 1071h0"></path>
<path d="M1529.75 1071h0"></path>
<rect x="1433.25" y="1060" width="96.5" height="22"></rect>
<a xlink:href="#/cds/expression/CDSSource"><text x="1481.5" y="1075">CDSSource</text>
</a>
</g>
<path d="M1529.75 1071h10"></path>
<path d="M1539.75 1071h10"></path>
<g class="terminal ">
<path d="M1549.75 1071h0"></path>
<path d="M1603.75 1071h0"></path>
<rect x="1549.75" y="1060" width="54" height="22" rx="10" ry="10"></rect>
<text x="1576.75" y="1075">"ON"</text>
</g>
<path d="M1603.75 1071h10"></path>
<path d="M1613.75 1071h10"></path>
<g class="non-terminal ">
<path d="M1623.75 1071h0"></path>
<path d="M1745.75 1071h0"></path>
<rect x="1623.75" y="1060" width="122" height="22"></rect>
<a xlink:href="#/cds/expression/CDSCondition"><text x="1684.75" y="1075">CDSCondition</text>
</a>
</g>
</g>
<path d="M1811.25 1071a10 10 0 0 0 10 -10v-10a10 10 0 0 1 10 -10"></path>
</g>
<path d="M2425 1041a10 10 0 0 0 10 -10v-973a10 10 0 0 1 10 -10"></path>
<path d="M734 48a10 10 0 0 1 10 10v1033a10 10 0 0 0 10 10"></path>
<g class="non-terminal ">
<path d="M754 1101h787.25"></path>
<path d="M1637.75 1101h787.25"></path>
<rect x="1541.25" y="1090" width="96.5" height="22"></rect>
<a xlink:href="#/cds/expression/CDSSource"><text x="1589.5" y="1105">CDSSource</text>
</a>
</g>
<path d="M2425 1101a10 10 0 0 0 10 -10v-1033a10 10 0 0 1 10 -10"></path>
</g>
</g>
<path d="M2445 48h10"></path>
<path d="M 2455 48 h 20 m 0 -10 v 20"></path>
</g>
</svg>
