<svg xmlns="http://www.w3.org/2000/svg" xmlns:xlink="http://www.w3.org/1999/xlink" class="railroad-diagram" width="2595" height="117" viewBox="0 0 2595 117">
<defs>
<style type="text/css"><![CDATA[
path {
stroke-width: 3;
stroke: black;
fill: rgba(0,0,0,0);
}
text {
font: bold 14px monospace;
text-anchor: middle;
}
text.diagram-text {
font-size: 12px;
}
a {
fill: blue;
}
text.diagram-arrow {
font-size: 16px;
}
text.label {
text-anchor: start;
}
text.comment {
font: italic 12px monospace;
}
rect {
stroke-width: 3;
stroke: black;
fill: #BCBCBC;
}
path.diagram-text {
stroke-width: 3;
stroke: black;
fill: #BCBCBC;
cursor: help;
}
]]></style>
</defs>
<g transform="translate(.5 .5)">
<g>
<path d="M20 38v20m0 -10h20"></path>
</g>
<path d="M40 48h10"></path>
<g>
<path d="M50 48h0"></path>
<path d="M2545 48h0"></path>
<g class="terminal ">
<path d="M50 48h0"></path>
<path d="M214.5 48h0"></path>
<rect x="50" y="37" width="164.5" height="22" rx="10" ry="10"></rect>
<text x="132.25" y="52">"WITH PARAMETERS"</text>
</g>
<path d="M214.5 48h10"></path>
<path d="M224.5 48h10"></path>
<g>
<path d="M234.5 48h0"></path>
<path d="M1322 48h0"></path>
<g>
<path d="M234.5 48h0"></path>
<path d="M425 48h0"></path>
<path d="M234.5 48a10 10 0 0 0 10 -10v0a10 10 0 0 1 10 -10"></path>
<g>
<path d="M254.5 28h150.5"></path>
</g>
<path d="M405 28a10 10 0 0 1 10 10v0a10 10 0 0 0 10 10"></path>
<path d="M234.5 48h20"></path>
<g>
<path d="M254.5 48h0"></path>
<path d="M405 48h0"></path>
<path d="M254.5 48h10"></path>
<g class="non-terminal ">
<path d="M264.5 48h0"></path>
<path d="M395 48h0"></path>
<rect x="264.5" y="37" width="130.5" height="22"></rect>
<a xlink:href="#/cds/expression/CDSAnnotation"><text x="329.75" y="52">CDSAnnotation</text>
</a>
</g>
<path d="M395 48h10"></path>
<path d="M264.5 48a10 10 0 0 0 -10 10v0a10 10 0 0 0 10 10"></path>
<g>
<path d="M264.5 68h130.5"></path>
</g>
<path d="M395 68a10 10 0 0 0 10 -10v0a10 10 0 0 0 -10 -10"></path>
</g>
<path d="M405 48h20"></path>
</g>
<path d="M425 48h10"></path>
<g class="non-terminal ">
<path d="M435 48h0"></path>
<path d="M514.5 48h0"></path>
<rect x="435" y="37" width="79.5" height="22"></rect>
<a xlink:href="#/cds/expression/CDSName"><text x="474.75" y="52">CDSName</text>
</a>
</g>
<path d="M514.5 48h10"></path>
<path d="M524.5 48h10"></path>
<g class="terminal ">
<path d="M534.5 48h0"></path>
<path d="M580 48h0"></path>
<rect x="534.5" y="37" width="45.5" height="22" rx="10" ry="10"></rect>
<text x="557.25" y="52">":"</text>
</g>
<path d="M580 48h10"></path>
<path d="M590 48h10"></path>
<g class="non-terminal ">
<path d="M600 48h0"></path>
<path d="M679.5 48h0"></path>
<rect x="600" y="37" width="79.5" height="22"></rect>
<a xlink:href="#/cds/expression/CDSType"><text x="639.75" y="52">CDSType</text>
</a>
</g>
<path d="M679.5 48h10"></path>
<g>
<path d="M689.5 48h0"></path>
<path d="M1131.5 48h0"></path>
<path d="M689.5 48a10 10 0 0 0 10 -10v0a10 10 0 0 1 10 -10"></path>
<g>
<path d="M709.5 28h402"></path>
</g>
<path d="M1111.5 28a10 10 0 0 1 10 10v0a10 10 0 0 0 10 10"></path>
<path d="M689.5 48h20"></path>
<g>
<path d="M709.5 48h0"></path>
<path d="M1111.5 48h0"></path>
<g class="terminal ">
<path d="M709.5 48h0"></path>
<path d="M814.5 48h0"></path>
<rect x="709.5" y="37" width="105" height="22" rx="10" ry="10"></rect>
<text x="762" y="52">"EXTERNAL"</text>
</g>
<path d="M814.5 48h10"></path>
<path d="M824.5 48h10"></path>
<g class="terminal ">
<path d="M834.5 48h0"></path>
<path d="M905.5 48h0"></path>
<rect x="834.5" y="37" width="71" height="22" rx="10" ry="10"></rect>
<text x="870" y="52">"NAME"</text>
</g>
<path d="M905.5 48h10"></path>
<g>
<path d="M915.5 48h0"></path>
<path d="M1111.5 48h0"></path>
<path d="M915.5 48h20"></path>
<g class="non-terminal ">
<path d="M935.5 48h38.25"></path>
<path d="M1053.25 48h38.25"></path>
<rect x="973.75" y="37" width="79.5" height="22"></rect>
<a xlink:href="#/cds/expression/CDSName"><text x="1013.5" y="52">CDSName</text>
</a>
</g>
<path d="M1091.5 48h20"></path>
<path d="M915.5 48a10 10 0 0 1 10 10v10a10 10 0 0 0 10 10"></path>
<g class="terminal ">
<path d="M935.5 78h0"></path>
<path d="M1091.5 78h0"></path>
<rect x="935.5" y="67" width="156" height="22" rx="10" ry="10"></rect>
<text x="1013.5" y="82">^"(?:&#91;^"&#93;|"")&#42;"$</text>
</g>
<path d="M1091.5 78a10 10 0 0 0 10 -10v-10a10 10 0 0 1 10 -10"></path>
</g>
</g>
<path d="M1111.5 48h20"></path>
</g>
<g>
<path d="M1131.5 48h0"></path>
<path d="M1322 48h0"></path>
<path d="M1131.5 48a10 10 0 0 0 10 -10v0a10 10 0 0 1 10 -10"></path>
<g>
<path d="M1151.5 28h150.5"></path>
</g>
<path d="M1302 28a10 10 0 0 1 10 10v0a10 10 0 0 0 10 10"></path>
<path d="M1131.5 48h20"></path>
<g>
<path d="M1151.5 48h0"></path>
<path d="M1302 48h0"></path>
<path d="M1151.5 48h10"></path>
<g class="non-terminal ">
<path d="M1161.5 48h0"></path>
<path d="M1292 48h0"></path>
<rect x="1161.5" y="37" width="130.5" height="22"></rect>
<a xlink:href="#/cds/expression/CDSAnnotation"><text x="1226.75" y="52">CDSAnnotation</text>
</a>
</g>
<path d="M1292 48h10"></path>
<path d="M1161.5 48a10 10 0 0 0 -10 10v0a10 10 0 0 0 10 10"></path>
<g>
<path d="M1161.5 68h130.5"></path>
</g>
<path d="M1292 68a10 10 0 0 0 10 -10v0a10 10 0 0 0 -10 -10"></path>
</g>
<path d="M1302 48h20"></path>
</g>
</g>
<path d="M1322 48h10"></path>
<g>
<path d="M1332 48h0"></path>
<path d="M2545 48h0"></path>
<path d="M1332 48a10 10 0 0 0 10 -10v-8a10 10 0 0 1 10 -10"></path>
<g>
<path d="M1352 20h1173"></path>
</g>
<path d="M2525 20a10 10 0 0 1 10 10v8a10 10 0 0 0 10 10"></path>
<path d="M1332 48h20"></path>
<g>
<path d="M1352 48h0"></path>
<path d="M2525 48h0"></path>
<path d="M1352 48h10"></path>
<g>
<path d="M1362 48h0"></path>
<path d="M2515 48h0"></path>
<g class="terminal ">
<path d="M1362 48h0"></path>
<path d="M1407.5 48h0"></path>
<rect x="1362" y="37" width="45.5" height="22" rx="10" ry="10"></rect>
<text x="1384.75" y="52">","</text>
</g>
<path d="M1407.5 48h10"></path>
<path d="M1417.5 48h10"></path>
<g>
<path d="M1427.5 48h0"></path>
<path d="M2515 48h0"></path>
<g>
<path d="M1427.5 48h0"></path>
<path d="M1618 48h0"></path>
<path d="M1427.5 48a10 10 0 0 0 10 -10v0a10 10 0 0 1 10 -10"></path>
<g>
<path d="M1447.5 28h150.5"></path>
</g>
<path d="M1598 28a10 10 0 0 1 10 10v0a10 10 0 0 0 10 10"></path>
<path d="M1427.5 48h20"></path>
<g>
<path d="M1447.5 48h0"></path>
<path d="M1598 48h0"></path>
<path d="M1447.5 48h10"></path>
<g class="non-terminal ">
<path d="M1457.5 48h0"></path>
<path d="M1588 48h0"></path>
<rect x="1457.5" y="37" width="130.5" height="22"></rect>
<a xlink:href="#/cds/expression/CDSAnnotation"><text x="1522.75" y="52">CDSAnnotation</text>
</a>
</g>
<path d="M1588 48h10"></path>
<path d="M1457.5 48a10 10 0 0 0 -10 10v0a10 10 0 0 0 10 10"></path>
<g>
<path d="M1457.5 68h130.5"></path>
</g>
<path d="M1588 68a10 10 0 0 0 10 -10v0a10 10 0 0 0 -10 -10"></path>
</g>
<path d="M1598 48h20"></path>
</g>
<path d="M1618 48h10"></path>
<g class="non-terminal ">
<path d="M1628 48h0"></path>
<path d="M1707.5 48h0"></path>
<rect x="1628" y="37" width="79.5" height="22"></rect>
<a xlink:href="#/cds/expression/CDSName"><text x="1667.75" y="52">CDSName</text>
</a>
</g>
<path d="M1707.5 48h10"></path>
<path d="M1717.5 48h10"></path>
<g class="terminal ">
<path d="M1727.5 48h0"></path>
<path d="M1773 48h0"></path>
<rect x="1727.5" y="37" width="45.5" height="22" rx="10" ry="10"></rect>
<text x="1750.25" y="52">":"</text>
</g>
<path d="M1773 48h10"></path>
<path d="M1783 48h10"></path>
<g class="non-terminal ">
<path d="M1793 48h0"></path>
<path d="M1872.5 48h0"></path>
<rect x="1793" y="37" width="79.5" height="22"></rect>
<a xlink:href="#/cds/expression/CDSType"><text x="1832.75" y="52">CDSType</text>
</a>
</g>
<path d="M1872.5 48h10"></path>
<g>
<path d="M1882.5 48h0"></path>
<path d="M2324.5 48h0"></path>
<path d="M1882.5 48a10 10 0 0 0 10 -10v0a10 10 0 0 1 10 -10"></path>
<g>
<path d="M1902.5 28h402"></path>
</g>
<path d="M2304.5 28a10 10 0 0 1 10 10v0a10 10 0 0 0 10 10"></path>
<path d="M1882.5 48h20"></path>
<g>
<path d="M1902.5 48h0"></path>
<path d="M2304.5 48h0"></path>
<g class="terminal ">
<path d="M1902.5 48h0"></path>
<path d="M2007.5 48h0"></path>
<rect x="1902.5" y="37" width="105" height="22" rx="10" ry="10"></rect>
<text x="1955" y="52">"EXTERNAL"</text>
</g>
<path d="M2007.5 48h10"></path>
<path d="M2017.5 48h10"></path>
<g class="terminal ">
<path d="M2027.5 48h0"></path>
<path d="M2098.5 48h0"></path>
<rect x="2027.5" y="37" width="71" height="22" rx="10" ry="10"></rect>
<text x="2063" y="52">"NAME"</text>
</g>
<path d="M2098.5 48h10"></path>
<g>
<path d="M2108.5 48h0"></path>
<path d="M2304.5 48h0"></path>
<path d="M2108.5 48h20"></path>
<g class="non-terminal ">
<path d="M2128.5 48h38.25"></path>
<path d="M2246.25 48h38.25"></path>
<rect x="2166.75" y="37" width="79.5" height="22"></rect>
<a xlink:href="#/cds/expression/CDSName"><text x="2206.5" y="52">CDSName</text>
</a>
</g>
<path d="M2284.5 48h20"></path>
<path d="M2108.5 48a10 10 0 0 1 10 10v10a10 10 0 0 0 10 10"></path>
<g class="terminal ">
<path d="M2128.5 78h0"></path>
<path d="M2284.5 78h0"></path>
<rect x="2128.5" y="67" width="156" height="22" rx="10" ry="10"></rect>
<text x="2206.5" y="82">^"(?:&#91;^"&#93;|"")&#42;"$</text>
</g>
<path d="M2284.5 78a10 10 0 0 0 10 -10v-10a10 10 0 0 1 10 -10"></path>
</g>
</g>
<path d="M2304.5 48h20"></path>
</g>
<g>
<path d="M2324.5 48h0"></path>
<path d="M2515 48h0"></path>
<path d="M2324.5 48a10 10 0 0 0 10 -10v0a10 10 0 0 1 10 -10"></path>
<g>
<path d="M2344.5 28h150.5"></path>
</g>
<path d="M2495 28a10 10 0 0 1 10 10v0a10 10 0 0 0 10 10"></path>
<path d="M2324.5 48h20"></path>
<g>
<path d="M2344.5 48h0"></path>
<path d="M2495 48h0"></path>
<path d="M2344.5 48h10"></path>
<g class="non-terminal ">
<path d="M2354.5 48h0"></path>
<path d="M2485 48h0"></path>
<rect x="2354.5" y="37" width="130.5" height="22"></rect>
<a xlink:href="#/cds/expression/CDSAnnotation"><text x="2419.75" y="52">CDSAnnotation</text>
</a>
</g>
<path d="M2485 48h10"></path>
<path d="M2354.5 48a10 10 0 0 0 -10 10v0a10 10 0 0 0 10 10"></path>
<g>
<path d="M2354.5 68h130.5"></path>
</g>
<path d="M2485 68a10 10 0 0 0 10 -10v0a10 10 0 0 0 -10 -10"></path>
</g>
<path d="M2495 48h20"></path>
</g>
</g>
</g>
<path d="M2515 48h10"></path>
<path d="M1362 48a10 10 0 0 0 -10 10v29a10 10 0 0 0 10 10"></path>
<g>
<path d="M1362 97h1153"></path>
</g>
<path d="M2515 97a10 10 0 0 0 10 -10v-29a10 10 0 0 0 -10 -10"></path>
</g>
<path d="M2525 48h20"></path>
</g>
</g>
<path d="M2545 48h10"></path>
<path d="M 2555 48 h 20 m 0 -10 v 20"></path>
</g>
</svg>
