<svg xmlns="http://www.w3.org/2000/svg" xmlns:xlink="http://www.w3.org/1999/xlink" class="railroad-diagram" width="1181" height="376" viewBox="0 0 1181 376">
<defs>
<style type="text/css"><![CDATA[
path {
stroke-width: 3;
stroke: black;
fill: rgba(0,0,0,0);
}
text {
font: bold 14px monospace;
text-anchor: middle;
}
text.diagram-text {
font-size: 12px;
}
a {
fill: blue;
}
text.diagram-arrow {
font-size: 16px;
}
text.label {
text-anchor: start;
}
text.comment {
font: italic 12px monospace;
}
rect {
stroke-width: 3;
stroke: black;
fill: #BCBCBC;
}
path.diagram-text {
stroke-width: 3;
stroke: black;
fill: #BCBCBC;
cursor: help;
}
]]></style>
</defs>
<g transform="translate(.5 .5)">
<g>
<path d="M20 30v20m0 -10h20"></path>
</g>
<path d="M40 40h10"></path>
<g>
<path d="M50 40h0"></path>
<path d="M1131 40h0"></path>
<g>
<path d="M50 40h0"></path>
<path d="M240.5 40h0"></path>
<path d="M50 40a10 10 0 0 0 10 -10v0a10 10 0 0 1 10 -10"></path>
<g>
<path d="M70 20h150.5"></path>
</g>
<path d="M220.5 20a10 10 0 0 1 10 10v0a10 10 0 0 0 10 10"></path>
<path d="M50 40h20"></path>
<g>
<path d="M70 40h0"></path>
<path d="M220.5 40h0"></path>
<path d="M70 40h10"></path>
<g class="non-terminal">
<path d="M80 40h0"></path>
<path d="M210.5 40h0"></path>
<rect x="80" y="29" width="130.5" height="22"></rect>
<a xlink:href="#/cds/expression/CDSAnnotation"><text x="145.25" y="44">CDSAnnotation</text>
</a>
</g>
<path d="M210.5 40h10"></path>
<path d="M80 40a10 10 0 0 0 -10 10v0a10 10 0 0 0 10 10"></path>
<g>
<path d="M80 60h130.5"></path>
</g>
<path d="M210.5 60a10 10 0 0 0 10 -10v0a10 10 0 0 0 -10 -10"></path>
</g>
<path d="M220.5 40h20"></path>
</g>
<g>
<path d="M240.5 40h0"></path>
<path d="M343 40h0"></path>
<path d="M240.5 40a10 10 0 0 0 10 -10v0a10 10 0 0 1 10 -10"></path>
<g>
<path d="M260.5 20h62.5"></path>
</g>
<path d="M323 20a10 10 0 0 1 10 10v0a10 10 0 0 0 10 10"></path>
<path d="M240.5 40h20"></path>
<g class="terminal">
<path d="M260.5 40h0"></path>
<path d="M323 40h0"></path>
<rect x="260.5" y="29" width="62.5" height="22" rx="10" ry="10"></rect>
<text x="291.75" y="44">"KEY"</text>
</g>
<path d="M323 40h20"></path>
</g>
<g>
<path d="M343 40h0"></path>
<path d="M1028.5 40h0"></path>
<path d="M343 40h20"></path>
<g class="non-terminal">
<path d="M363 40h0"></path>
<path d="M485 40h523.5"></path>
<rect x="363" y="29" width="122" height="22"></rect>
<a xlink:href="#/cds/expression/CDSAggregate"><text x="424" y="44">CDSAggregate</text>
</a>
</g>
<path d="M1008.5 40h20"></path>
<path d="M343 40a10 10 0 0 1 10 10v10a10 10 0 0 0 10 10"></path>
<g class="non-terminal">
<path d="M363 70h0"></path>
<path d="M459.5 70h549"></path>
<rect x="363" y="59" width="96.5" height="22"></rect>
<a xlink:href="#/cds/expression/CDSString"><text x="411.25" y="74">CDSString</text>
</a>
</g>
<path d="M1008.5 70a10 10 0 0 0 10 -10v-10a10 10 0 0 1 10 -10"></path>
<path d="M343 40a10 10 0 0 1 10 10v40a10 10 0 0 0 10 10"></path>
<g class="non-terminal">
<path d="M363 100h0"></path>
<path d="M476.5 100h532"></path>
<rect x="363" y="89" width="113.5" height="22"></rect>
<a xlink:href="#/cds/expression/CDSFunction"><text x="419.75" y="104">CDSFunction</text>
</a>
</g>
<path d="M1008.5 100a10 10 0 0 0 10 -10v-40a10 10 0 0 1 10 -10"></path>
<path d="M343 40a10 10 0 0 1 10 10v70a10 10 0 0 0 10 10"></path>
<g class="non-terminal">
<path d="M363 130h0"></path>
<path d="M502 130h506.5"></path>
<rect x="363" y="119" width="139" height="22"></rect>
<a xlink:href="#/cds/expression/CDSArithmetics"><text x="432.5" y="134">CDSArithmetics</text>
</a>
</g>
<path d="M1008.5 130a10 10 0 0 0 10 -10v-70a10 10 0 0 1 10 -10"></path>
<path d="M343 40a10 10 0 0 1 10 10v100a10 10 0 0 0 10 10"></path>
<g class="non-terminal">
<path d="M363 160h0"></path>
<path d="M442.5 160h566"></path>
<rect x="363" y="149" width="79.5" height="22"></rect>
<a xlink:href="#/cds/expression/CDSCast"><text x="402.75" y="164">CDSCast</text>
</a>
</g>
<path d="M1008.5 160a10 10 0 0 0 10 -10v-100a10 10 0 0 1 10 -10"></path>
<path d="M343 40a10 10 0 0 1 10 10v130a10 10 0 0 0 10 10"></path>
<g class="non-terminal">
<path d="M363 190h0"></path>
<path d="M442.5 190h566"></path>
<rect x="363" y="179" width="79.5" height="22"></rect>
<a xlink:href="#/cds/expression/CDSCase"><text x="402.75" y="194">CDSCase</text>
</a>
</g>
<path d="M1008.5 190a10 10 0 0 0 10 -10v-130a10 10 0 0 1 10 -10"></path>
<path d="M343 40a10 10 0 0 1 10 10v169a10 10 0 0 0 10 10"></path>
<g>
<path d="M363 229h0"></path>
<path d="M988 229h20.5"></path>
<g class="non-terminal">
<path d="M363 229h0"></path>
<path d="M442.5 229h0"></path>
<rect x="363" y="218" width="79.5" height="22"></rect>
<a xlink:href="#/cds/expression/CDSName"><text x="402.75" y="233">CDSName</text>
</a>
</g>
<path d="M442.5 229h10"></path>
<path d="M452.5 229h10"></path>
<g class="terminal">
<path d="M462.5 229h0"></path>
<path d="M627 229h0"></path>
<rect x="462.5" y="218" width="164.5" height="22" rx="10" ry="10"></rect>
<text x="544.75" y="233">": REDIRECTED TO"</text>
</g>
<path d="M627 229h10"></path>
<g>
<path d="M637 229h0"></path>
<path d="M898.5 229h0"></path>
<path d="M637 229a10 10 0 0 0 10 -10v0a10 10 0 0 1 10 -10"></path>
<g>
<path d="M657 209h221.5"></path>
</g>
<path d="M878.5 209a10 10 0 0 1 10 10v0a10 10 0 0 0 10 10"></path>
<path d="M637 229h20"></path>
<g>
<path d="M657 229h0"></path>
<path d="M878.5 229h0"></path>
<path d="M657 229h20"></path>
<g class="terminal">
<path d="M677 229h0"></path>
<path d="M765 229h93.5"></path>
<rect x="677" y="218" width="88" height="22" rx="10" ry="10"></rect>
<text x="721" y="233">"PARENT"</text>
</g>
<path d="M858.5 229h20"></path>
<path d="M657 229a10 10 0 0 1 10 10v10a10 10 0 0 0 10 10"></path>
<g class="terminal">
<path d="M677 259h0"></path>
<path d="M858.5 259h0"></path>
<rect x="677" y="248" width="181.5" height="22" rx="10" ry="10"></rect>
<text x="767.75" y="263">"COMPOSITION CHILD"</text>
</g>
<path d="M858.5 259a10 10 0 0 0 10 -10v-10a10 10 0 0 1 10 -10"></path>
</g>
<path d="M878.5 229h20"></path>
</g>
<path d="M898.5 229h10"></path>
<g class="non-terminal">
<path d="M908.5 229h0"></path>
<path d="M988 229h0"></path>
<rect x="908.5" y="218" width="79.5" height="22"></rect>
<a xlink:href="#/cds/expression/CDSName"><text x="948.25" y="233">CDSName</text>
</a>
</g>
</g>
<path d="M1008.5 229a10 10 0 0 0 10 -10v-169a10 10 0 0 1 10 -10"></path>
<path d="M343 40a10 10 0 0 1 10 10v246a10 10 0 0 0 10 10"></path>
<g>
<path d="M363 306h0"></path>
<path d="M1008.5 306h0"></path>
<g class="non-terminal">
<path d="M363 306h0"></path>
<path d="M442.5 306h0"></path>
<rect x="363" y="295" width="79.5" height="22"></rect>
<a xlink:href="#/cds/expression/CDSName"><text x="402.75" y="310">CDSName</text>
</a>
</g>
<path d="M442.5 306h10"></path>
<g>
<path d="M452.5 306h0"></path>
<path d="M623 306h0"></path>
<path d="M452.5 306a10 10 0 0 0 10 -10v0a10 10 0 0 1 10 -10"></path>
<g>
<path d="M472.5 286h130.5"></path>
</g>
<path d="M603 286a10 10 0 0 1 10 10v0a10 10 0 0 0 10 10"></path>
<path d="M452.5 306h20"></path>
<g class="non-terminal">
<path d="M472.5 306h0"></path>
<path d="M603 306h0"></path>
<rect x="472.5" y="295" width="130.5" height="22"></rect>
<a xlink:href="#/cds/expression/CDSParameters"><text x="537.75" y="310">CDSParameters</text>
</a>
</g>
<path d="M603 306h20"></path>
</g>
<g>
<path d="M623 306h0"></path>
<path d="M1008.5 306h0"></path>
<path d="M623 306a10 10 0 0 0 10 -10v-8a10 10 0 0 1 10 -10"></path>
<g>
<path d="M643 278h345.5"></path>
</g>
<path d="M988.5 278a10 10 0 0 1 10 10v8a10 10 0 0 0 10 10"></path>
<path d="M623 306h20"></path>
<g>
<path d="M643 306h0"></path>
<path d="M988.5 306h0"></path>
<path d="M643 306h10"></path>
<g>
<path d="M653 306h0"></path>
<path d="M978.5 306h0"></path>
<g class="terminal">
<path d="M653 306h0"></path>
<path d="M698.5 306h0"></path>
<rect x="653" y="295" width="45.5" height="22" rx="10" ry="10"></rect>
<text x="675.75" y="310">"."</text>
</g>
<path d="M698.5 306h10"></path>
<path d="M708.5 306h10"></path>
<g class="non-terminal">
<path d="M718.5 306h0"></path>
<path d="M798 306h0"></path>
<rect x="718.5" y="295" width="79.5" height="22"></rect>
<a xlink:href="#/cds/expression/CDSName"><text x="758.25" y="310">CDSName</text>
</a>
</g>
<path d="M798 306h10"></path>
<g>
<path d="M808 306h0"></path>
<path d="M978.5 306h0"></path>
<path d="M808 306a10 10 0 0 0 10 -10v0a10 10 0 0 1 10 -10"></path>
<g>
<path d="M828 286h130.5"></path>
</g>
<path d="M958.5 286a10 10 0 0 1 10 10v0a10 10 0 0 0 10 10"></path>
<path d="M808 306h20"></path>
<g class="non-terminal">
<path d="M828 306h0"></path>
<path d="M958.5 306h0"></path>
<rect x="828" y="295" width="130.5" height="22"></rect>
<a xlink:href="#/cds/expression/CDSParameters"><text x="893.25" y="310">CDSParameters</text>
</a>
</g>
<path d="M958.5 306h20"></path>
</g>
</g>
<path d="M978.5 306h10"></path>
<path d="M653 306a10 10 0 0 0 -10 10v0a10 10 0 0 0 10 10"></path>
<g>
<path d="M653 326h325.5"></path>
</g>
<path d="M978.5 326a10 10 0 0 0 10 -10v0a10 10 0 0 0 -10 -10"></path>
</g>
<path d="M988.5 306h20"></path>
</g>
</g>
<path d="M1008.5 306a10 10 0 0 0 10 -10v-246a10 10 0 0 1 10 -10"></path>
<path d="M343 40a10 10 0 0 1 10 10v285a10 10 0 0 0 10 10"></path>
<g class="terminal">
<path d="M363 345h0"></path>
<path d="M425.5 345h583"></path>
<rect x="363" y="334" width="62.5" height="22" rx="10" ry="10"></rect>
<text x="394.25" y="349">^\d+$</text>
</g>
<path d="M1008.5 345a10 10 0 0 0 10 -10v-285a10 10 0 0 1 10 -10"></path>
</g>
<g>
<path d="M1028.5 40h0"></path>
<path d="M1131 40h0"></path>
<path d="M1028.5 40a10 10 0 0 0 10 -10v0a10 10 0 0 1 10 -10"></path>
<g>
<path d="M1048.5 20h62.5"></path>
</g>
<path d="M1111 20a10 10 0 0 1 10 10v0a10 10 0 0 0 10 10"></path>
<path d="M1028.5 40h20"></path>
<g class="non-terminal">
<path d="M1048.5 40h0"></path>
<path d="M1111 40h0"></path>
<rect x="1048.5" y="29" width="62.5" height="22"></rect>
<a xlink:href="#/cds/expression/CDSAs"><text x="1079.75" y="44">CDSAs</text>
</a>
</g>
<path d="M1111 40h20"></path>
</g>
</g>
<path d="M1131 40h10"></path>
<path d="M 1141 40 h 20 m 0 -10 v 20"></path>
</g>
</svg>
