<svg xmlns="http://www.w3.org/2000/svg" xmlns:xlink="http://www.w3.org/1999/xlink" class="railroad-diagram" width="775" height="131" viewBox="0 0 775 131">
<defs>
<style type="text/css"><![CDATA[
path {
stroke-width: 3;
stroke: black;
fill: rgba(0,0,0,0);
}
text {
font: bold 14px monospace;
text-anchor: middle;
}
text.diagram-text {
font-size: 12px;
}
a {
fill: blue;
}
text.diagram-arrow {
font-size: 16px;
}
text.label {
text-anchor: start;
}
text.comment {
font: italic 12px monospace;
}
rect {
stroke-width: 3;
stroke: black;
fill: #BCBCBC;
}
path.diagram-text {
stroke-width: 3;
stroke: black;
fill: #BCBCBC;
cursor: help;
}
]]></style>
</defs>
<g transform="translate(.5 .5)">
<g>
<path d="M20 30v20m0 -10h20"></path>
</g>
<path d="M40 40h10"></path>
<g>
<path d="M50 40h0"></path>
<path d="M725 40h0"></path>
<g>
<path d="M50 40h0"></path>
<path d="M311.5 40h0"></path>
<path d="M50 40a10 10 0 0 0 10 -10v0a10 10 0 0 1 10 -10"></path>
<g>
<path d="M70 20h221.5"></path>
</g>
<path d="M291.5 20a10 10 0 0 1 10 10v0a10 10 0 0 0 10 10"></path>
<path d="M50 40h20"></path>
<g>
<path d="M70 40h0"></path>
<path d="M291.5 40h0"></path>
<path d="M70 40h20"></path>
<g class="terminal">
<path d="M90 40h0"></path>
<path d="M169.5 40h102"></path>
<rect x="90" y="29" width="79.5" height="22" rx="10" ry="10"></rect>
<text x="129.75" y="44">"INNER"</text>
</g>
<path d="M271.5 40h20"></path>
<path d="M70 40a10 10 0 0 1 10 10v10a10 10 0 0 0 10 10"></path>
<g class="terminal">
<path d="M90 70h0"></path>
<path d="M212 70h59.5"></path>
<rect x="90" y="59" width="122" height="22" rx="10" ry="10"></rect>
<text x="151" y="74">"LEFT OUTER"</text>
</g>
<path d="M271.5 70a10 10 0 0 0 10 -10v-10a10 10 0 0 1 10 -10"></path>
<path d="M70 40a10 10 0 0 1 10 10v40a10 10 0 0 0 10 10"></path>
<g class="terminal">
<path d="M90 100h0"></path>
<path d="M271.5 100h0"></path>
<rect x="90" y="89" width="181.5" height="22" rx="10" ry="10"></rect>
<text x="180.75" y="104">"LEFT OUTER TO ONE"</text>
</g>
<path d="M271.5 100a10 10 0 0 0 10 -10v-40a10 10 0 0 1 10 -10"></path>
</g>
<path d="M291.5 40h20"></path>
</g>
<path d="M311.5 40h10"></path>
<g class="terminal">
<path d="M321.5 40h0"></path>
<path d="M392.5 40h0"></path>
<rect x="321.5" y="29" width="71" height="22" rx="10" ry="10"></rect>
<text x="357" y="44">"JOIN"</text>
</g>
<path d="M392.5 40h10"></path>
<path d="M402.5 40h10"></path>
<g class="non-terminal">
<path d="M412.5 40h0"></path>
<path d="M509 40h0"></path>
<rect x="412.5" y="29" width="96.5" height="22"></rect>
<a xlink:href="#/cds/expression/CDSSource"><text x="460.75" y="44">CDSSource</text>
</a>
</g>
<path d="M509 40h10"></path>
<path d="M519 40h10"></path>
<g class="terminal">
<path d="M529 40h0"></path>
<path d="M583 40h0"></path>
<rect x="529" y="29" width="54" height="22" rx="10" ry="10"></rect>
<text x="556" y="44">"ON"</text>
</g>
<path d="M583 40h10"></path>
<path d="M593 40h10"></path>
<g class="non-terminal">
<path d="M603 40h0"></path>
<path d="M725 40h0"></path>
<rect x="603" y="29" width="122" height="22"></rect>
<a xlink:href="#/cds/expression/CDSCondition"><text x="664" y="44">CDSCondition</text>
</a>
</g>
</g>
<path d="M725 40h10"></path>
<path d="M 735 40 h 20 m 0 -10 v 20"></path>
</g>
</svg>
