<svg xmlns="http://www.w3.org/2000/svg" xmlns:xlink="http://www.w3.org/1999/xlink" class="railroad-diagram" width="814.5" height="221" viewBox="0 0 814.5 221">
<defs>
<style type="text/css"><![CDATA[
path {
stroke-width: 3;
stroke: black;
fill: rgba(0,0,0,0);
}
text {
font: bold 14px monospace;
text-anchor: middle;
}
text.diagram-text {
font-size: 12px;
}
a {
fill: blue;
}
text.diagram-arrow {
font-size: 16px;
}
text.label {
text-anchor: start;
}
text.comment {
font: italic 12px monospace;
}
rect {
stroke-width: 3;
stroke: black;
fill: #BCBCBC;
}
path.diagram-text {
stroke-width: 3;
stroke: black;
fill: #BCBCBC;
cursor: help;
}
]]></style>
</defs>
<g transform="translate(.5 .5)">
<g>
<path d="M20 21v20m0 -10h20"></path>
</g>
<path d="M40 31h10"></path>
<g>
<path d="M50 31h0"></path>
<path d="M764.5 31h0"></path>
<g>
<path d="M50 31h0"></path>
<path d="M364.5 31h0"></path>
<path d="M50 31h20"></path>
<g class="non-terminal">
<path d="M70 31h0"></path>
<path d="M175 31h169.5"></path>
<rect x="70" y="20" width="105" height="22"></rect>
<a xlink:href="#/cds/expression/CDSInteger"><text x="122.5" y="35">CDSInteger</text>
</a>
</g>
<path d="M344.5 31h20"></path>
<path d="M50 31a10 10 0 0 1 10 10v19a10 10 0 0 0 10 10"></path>
<g>
<path d="M70 70h0"></path>
<path d="M344.5 70h0"></path>
<g class="non-terminal">
<path d="M70 70h0"></path>
<path d="M149.5 70h0"></path>
<rect x="70" y="59" width="79.5" height="22"></rect>
<a xlink:href="#/cds/expression/CDSName"><text x="109.75" y="74">CDSName</text>
</a>
</g>
<path d="M149.5 70h10"></path>
<g>
<path d="M159.5 70h0"></path>
<path d="M344.5 70h0"></path>
<path d="M159.5 70a10 10 0 0 0 10 -10v0a10 10 0 0 1 10 -10"></path>
<g>
<path d="M179.5 50h145"></path>
</g>
<path d="M324.5 50a10 10 0 0 1 10 10v0a10 10 0 0 0 10 10"></path>
<path d="M159.5 70h20"></path>
<g>
<path d="M179.5 70h0"></path>
<path d="M324.5 70h0"></path>
<g class="terminal">
<path d="M179.5 70h0"></path>
<path d="M225 70h0"></path>
<rect x="179.5" y="59" width="45.5" height="22" rx="10" ry="10"></rect>
<text x="202.25" y="74">"."</text>
</g>
<path d="M225 70h10"></path>
<path d="M235 70h10"></path>
<g class="non-terminal">
<path d="M245 70h0"></path>
<path d="M324.5 70h0"></path>
<rect x="245" y="59" width="79.5" height="22"></rect>
<a xlink:href="#/cds/expression/CDSName"><text x="284.75" y="74">CDSName</text>
</a>
</g>
</g>
<path d="M324.5 70h20"></path>
</g>
</g>
<path d="M344.5 70a10 10 0 0 0 10 -10v-19a10 10 0 0 1 10 -10"></path>
<path d="M50 31a10 10 0 0 1 10 10v49a10 10 0 0 0 10 10"></path>
<g class="non-terminal">
<path d="M70 100h0"></path>
<path d="M183.5 100h161"></path>
<rect x="70" y="89" width="113.5" height="22"></rect>
<a xlink:href="#/cds/expression/CDSFunction"><text x="126.75" y="104">CDSFunction</text>
</a>
</g>
<path d="M344.5 100a10 10 0 0 0 10 -10v-49a10 10 0 0 1 10 -10"></path>
<path d="M50 31a10 10 0 0 1 10 10v79a10 10 0 0 0 10 10"></path>
<g class="non-terminal">
<path d="M70 130h0"></path>
<path d="M149.5 130h195"></path>
<rect x="70" y="119" width="79.5" height="22"></rect>
<a xlink:href="#/cds/expression/CDSCase"><text x="109.75" y="134">CDSCase</text>
</a>
</g>
<path d="M344.5 130a10 10 0 0 0 10 -10v-79a10 10 0 0 1 10 -10"></path>
<path d="M50 31a10 10 0 0 1 10 10v109a10 10 0 0 0 10 10"></path>
<g class="non-terminal">
<path d="M70 160h0"></path>
<path d="M149.5 160h195"></path>
<rect x="70" y="149" width="79.5" height="22"></rect>
<a xlink:href="#/cds/expression/CDSCast"><text x="109.75" y="164">CDSCast</text>
</a>
</g>
<path d="M344.5 160a10 10 0 0 0 10 -10v-109a10 10 0 0 1 10 -10"></path>
<path d="M50 31a10 10 0 0 1 10 10v139a10 10 0 0 0 10 10"></path>
<g class="non-terminal">
<path d="M70 190h0"></path>
<path d="M166.5 190h178"></path>
<rect x="70" y="179" width="96.5" height="22"></rect>
<a xlink:href="#/cds/expression/CDSString"><text x="118.25" y="194">CDSString</text>
</a>
</g>
<path d="M344.5 190a10 10 0 0 0 10 -10v-139a10 10 0 0 1 10 -10"></path>
</g>
<g>
<path d="M364.5 31h0"></path>
<path d="M450 31h0"></path>
<path d="M364.5 31h20"></path>
<g class="terminal">
<path d="M384.5 31h0"></path>
<path d="M430 31h0"></path>
<rect x="384.5" y="20" width="45.5" height="22" rx="10" ry="10"></rect>
<text x="407.25" y="35">"+"</text>
</g>
<path d="M430 31h20"></path>
<path d="M364.5 31a10 10 0 0 1 10 10v10a10 10 0 0 0 10 10"></path>
<g class="terminal">
<path d="M384.5 61h0"></path>
<path d="M430 61h0"></path>
<rect x="384.5" y="50" width="45.5" height="22" rx="10" ry="10"></rect>
<text x="407.25" y="65">"-"</text>
</g>
<path d="M430 61a10 10 0 0 0 10 -10v-10a10 10 0 0 1 10 -10"></path>
<path d="M364.5 31a10 10 0 0 1 10 10v40a10 10 0 0 0 10 10"></path>
<g class="terminal">
<path d="M384.5 91h0"></path>
<path d="M430 91h0"></path>
<rect x="384.5" y="80" width="45.5" height="22" rx="10" ry="10"></rect>
<text x="407.25" y="95">"&#42;"</text>
</g>
<path d="M430 91a10 10 0 0 0 10 -10v-40a10 10 0 0 1 10 -10"></path>
<path d="M364.5 31a10 10 0 0 1 10 10v70a10 10 0 0 0 10 10"></path>
<g class="terminal">
<path d="M384.5 121h0"></path>
<path d="M430 121h0"></path>
<rect x="384.5" y="110" width="45.5" height="22" rx="10" ry="10"></rect>
<text x="407.25" y="125">"/"</text>
</g>
<path d="M430 121a10 10 0 0 0 10 -10v-70a10 10 0 0 1 10 -10"></path>
</g>
<g>
<path d="M450 31h0"></path>
<path d="M764.5 31h0"></path>
<path d="M450 31h20"></path>
<g class="non-terminal">
<path d="M470 31h0"></path>
<path d="M575 31h169.5"></path>
<rect x="470" y="20" width="105" height="22"></rect>
<a xlink:href="#/cds/expression/CDSInteger"><text x="522.5" y="35">CDSInteger</text>
</a>
</g>
<path d="M744.5 31h20"></path>
<path d="M450 31a10 10 0 0 1 10 10v19a10 10 0 0 0 10 10"></path>
<g>
<path d="M470 70h0"></path>
<path d="M744.5 70h0"></path>
<g class="non-terminal">
<path d="M470 70h0"></path>
<path d="M549.5 70h0"></path>
<rect x="470" y="59" width="79.5" height="22"></rect>
<a xlink:href="#/cds/expression/CDSName"><text x="509.75" y="74">CDSName</text>
</a>
</g>
<path d="M549.5 70h10"></path>
<g>
<path d="M559.5 70h0"></path>
<path d="M744.5 70h0"></path>
<path d="M559.5 70a10 10 0 0 0 10 -10v0a10 10 0 0 1 10 -10"></path>
<g>
<path d="M579.5 50h145"></path>
</g>
<path d="M724.5 50a10 10 0 0 1 10 10v0a10 10 0 0 0 10 10"></path>
<path d="M559.5 70h20"></path>
<g>
<path d="M579.5 70h0"></path>
<path d="M724.5 70h0"></path>
<g class="terminal">
<path d="M579.5 70h0"></path>
<path d="M625 70h0"></path>
<rect x="579.5" y="59" width="45.5" height="22" rx="10" ry="10"></rect>
<text x="602.25" y="74">"."</text>
</g>
<path d="M625 70h10"></path>
<path d="M635 70h10"></path>
<g class="non-terminal">
<path d="M645 70h0"></path>
<path d="M724.5 70h0"></path>
<rect x="645" y="59" width="79.5" height="22"></rect>
<a xlink:href="#/cds/expression/CDSName"><text x="684.75" y="74">CDSName</text>
</a>
</g>
</g>
<path d="M724.5 70h20"></path>
</g>
</g>
<path d="M744.5 70a10 10 0 0 0 10 -10v-19a10 10 0 0 1 10 -10"></path>
<path d="M450 31a10 10 0 0 1 10 10v49a10 10 0 0 0 10 10"></path>
<g class="non-terminal">
<path d="M470 100h0"></path>
<path d="M583.5 100h161"></path>
<rect x="470" y="89" width="113.5" height="22"></rect>
<a xlink:href="#/cds/expression/CDSFunction"><text x="526.75" y="104">CDSFunction</text>
</a>
</g>
<path d="M744.5 100a10 10 0 0 0 10 -10v-49a10 10 0 0 1 10 -10"></path>
<path d="M450 31a10 10 0 0 1 10 10v79a10 10 0 0 0 10 10"></path>
<g class="non-terminal">
<path d="M470 130h0"></path>
<path d="M549.5 130h195"></path>
<rect x="470" y="119" width="79.5" height="22"></rect>
<a xlink:href="#/cds/expression/CDSCase"><text x="509.75" y="134">CDSCase</text>
</a>
</g>
<path d="M744.5 130a10 10 0 0 0 10 -10v-79a10 10 0 0 1 10 -10"></path>
<path d="M450 31a10 10 0 0 1 10 10v109a10 10 0 0 0 10 10"></path>
<g class="non-terminal">
<path d="M470 160h0"></path>
<path d="M549.5 160h195"></path>
<rect x="470" y="149" width="79.5" height="22"></rect>
<a xlink:href="#/cds/expression/CDSCast"><text x="509.75" y="164">CDSCast</text>
</a>
</g>
<path d="M744.5 160a10 10 0 0 0 10 -10v-109a10 10 0 0 1 10 -10"></path>
<path d="M450 31a10 10 0 0 1 10 10v139a10 10 0 0 0 10 10"></path>
<g class="non-terminal">
<path d="M470 190h0"></path>
<path d="M566.5 190h178"></path>
<rect x="470" y="179" width="96.5" height="22"></rect>
<a xlink:href="#/cds/expression/CDSString"><text x="518.25" y="194">CDSString</text>
</a>
</g>
<path d="M744.5 190a10 10 0 0 0 10 -10v-139a10 10 0 0 1 10 -10"></path>
</g>
</g>
<path d="M764.5 31h10"></path>
<path d="M 774.5 31 h 20 m 0 -10 v 20"></path>
</g>
</svg>
