<svg xmlns="http://www.w3.org/2000/svg" xmlns:xlink="http://www.w3.org/1999/xlink" class="railroad-diagram" width="886.5" height="281" viewBox="0 0 886.5 281">
<defs>
<style type="text/css"><![CDATA[
path {
stroke-width: 3;
stroke: black;
fill: rgba(0,0,0,0);
}
text {
font: bold 14px monospace;
text-anchor: middle;
}
text.diagram-text {
font-size: 12px;
}
a {
fill: blue;
}
text.diagram-arrow {
font-size: 16px;
}
text.label {
text-anchor: start;
}
text.comment {
font: italic 12px monospace;
}
rect {
stroke-width: 3;
stroke: black;
fill: #BCBCBC;
}
path.diagram-text {
stroke-width: 3;
stroke: black;
fill: #BCBCBC;
cursor: help;
}
]]></style>
</defs>
<g transform="translate(.5 .5)">
<g>
<path d="M20 30v20m0 -10h20"></path>
</g>
<path d="M40 40h10"></path>
<g>
<path d="M50 40h0"></path>
<path d="M836.5 40h0"></path>
<g>
<path d="M50 40h0"></path>
<path d="M169.5 40h0"></path>
<path d="M50 40h20"></path>
<g class="terminal">
<path d="M70 40h0"></path>
<path d="M132.5 40h17"></path>
<rect x="70" y="29" width="62.5" height="22" rx="10" ry="10"></rect>
<text x="101.25" y="44">"MAX"</text>
</g>
<path d="M149.5 40h20"></path>
<path d="M50 40a10 10 0 0 1 10 10v10a10 10 0 0 0 10 10"></path>
<g class="terminal">
<path d="M70 70h0"></path>
<path d="M132.5 70h17"></path>
<rect x="70" y="59" width="62.5" height="22" rx="10" ry="10"></rect>
<text x="101.25" y="74">"MIN"</text>
</g>
<path d="M149.5 70a10 10 0 0 0 10 -10v-10a10 10 0 0 1 10 -10"></path>
<path d="M50 40a10 10 0 0 1 10 10v40a10 10 0 0 0 10 10"></path>
<g class="terminal">
<path d="M70 100h0"></path>
<path d="M132.5 100h17"></path>
<rect x="70" y="89" width="62.5" height="22" rx="10" ry="10"></rect>
<text x="101.25" y="104">"SUM"</text>
</g>
<path d="M149.5 100a10 10 0 0 0 10 -10v-40a10 10 0 0 1 10 -10"></path>
<path d="M50 40a10 10 0 0 1 10 10v70a10 10 0 0 0 10 10"></path>
<g class="terminal">
<path d="M70 130h0"></path>
<path d="M132.5 130h17"></path>
<rect x="70" y="119" width="62.5" height="22" rx="10" ry="10"></rect>
<text x="101.25" y="134">"AVG"</text>
</g>
<path d="M149.5 130a10 10 0 0 0 10 -10v-70a10 10 0 0 1 10 -10"></path>
<path d="M50 40a10 10 0 0 1 10 10v100a10 10 0 0 0 10 10"></path>
<g class="terminal">
<path d="M70 160h0"></path>
<path d="M149.5 160h0"></path>
<rect x="70" y="149" width="79.5" height="22" rx="10" ry="10"></rect>
<text x="109.75" y="164">"COUNT"</text>
</g>
<path d="M149.5 160a10 10 0 0 0 10 -10v-100a10 10 0 0 1 10 -10"></path>
</g>
<path d="M169.5 40h10"></path>
<g class="terminal">
<path d="M179.5 40h0"></path>
<path d="M225 40h0"></path>
<rect x="179.5" y="29" width="45.5" height="22" rx="10" ry="10"></rect>
<text x="202.25" y="44">"("</text>
</g>
<path d="M225 40h10"></path>
<g>
<path d="M235 40h0"></path>
<path d="M420 40h0"></path>
<path d="M235 40a10 10 0 0 0 10 -10v0a10 10 0 0 1 10 -10"></path>
<g>
<path d="M255 20h145"></path>
</g>
<path d="M400 20a10 10 0 0 1 10 10v0a10 10 0 0 0 10 10"></path>
<path d="M235 40h20"></path>
<g>
<path d="M255 40h0"></path>
<path d="M400 40h0"></path>
<path d="M255 40h20"></path>
<g class="terminal">
<path d="M275 40h0"></path>
<path d="M380 40h0"></path>
<rect x="275" y="29" width="105" height="22" rx="10" ry="10"></rect>
<text x="327.5" y="44">"DISTINCT"</text>
</g>
<path d="M380 40h20"></path>
<path d="M255 40a10 10 0 0 1 10 10v10a10 10 0 0 0 10 10"></path>
<g class="terminal">
<path d="M275 70h0"></path>
<path d="M337.5 70h42.5"></path>
<rect x="275" y="59" width="62.5" height="22" rx="10" ry="10"></rect>
<text x="306.25" y="74">"ALL"</text>
</g>
<path d="M380 70a10 10 0 0 0 10 -10v-10a10 10 0 0 1 10 -10"></path>
</g>
<path d="M400 40h20"></path>
</g>
<g>
<path d="M420 40h0"></path>
<path d="M781 40h0"></path>
<path d="M420 40h20"></path>
<g class="non-terminal">
<path d="M440 40h0"></path>
<path d="M579 40h182"></path>
<rect x="440" y="29" width="139" height="22"></rect>
<a xlink:href="#/cds/expression/CDSArithmetics"><text x="509.5" y="44">CDSArithmetics</text>
</a>
</g>
<path d="M761 40h20"></path>
<path d="M420 40a10 10 0 0 1 10 10v10a10 10 0 0 0 10 10"></path>
<g class="non-terminal">
<path d="M440 70h0"></path>
<path d="M519.5 70h241.5"></path>
<rect x="440" y="59" width="79.5" height="22"></rect>
<a xlink:href="#/cds/expression/CDSCast"><text x="479.75" y="74">CDSCast</text>
</a>
</g>
<path d="M761 70a10 10 0 0 0 10 -10v-10a10 10 0 0 1 10 -10"></path>
<path d="M420 40a10 10 0 0 1 10 10v40a10 10 0 0 0 10 10"></path>
<g class="non-terminal">
<path d="M440 100h0"></path>
<path d="M519.5 100h241.5"></path>
<rect x="440" y="89" width="79.5" height="22"></rect>
<a xlink:href="#/cds/expression/CDSCase"><text x="479.75" y="104">CDSCase</text>
</a>
</g>
<path d="M761 100a10 10 0 0 0 10 -10v-40a10 10 0 0 1 10 -10"></path>
<path d="M420 40a10 10 0 0 1 10 10v70a10 10 0 0 0 10 10"></path>
<g class="non-terminal">
<path d="M440 130h0"></path>
<path d="M553.5 130h207.5"></path>
<rect x="440" y="119" width="113.5" height="22"></rect>
<a xlink:href="#/cds/expression/CDSFunction"><text x="496.75" y="134">CDSFunction</text>
</a>
</g>
<path d="M761 130a10 10 0 0 0 10 -10v-70a10 10 0 0 1 10 -10"></path>
<path d="M420 40a10 10 0 0 1 10 10v100a10 10 0 0 0 10 10"></path>
<g>
<path d="M440 160h0"></path>
<path d="M761 160h0"></path>
<g class="non-terminal">
<path d="M440 160h0"></path>
<path d="M587.5 160h0"></path>
<rect x="440" y="149" width="147.5" height="22"></rect>
<a xlink:href="#/cds/expression/CDSPrefixedName"><text x="513.75" y="164">CDSPrefixedName</text>
</a>
</g>
<path d="M587.5 160h10"></path>
<path d="M597.5 160h10"></path>
<g class="terminal">
<path d="M607.5 160h0"></path>
<path d="M661.5 160h0"></path>
<rect x="607.5" y="149" width="54" height="22" rx="10" ry="10"></rect>
<text x="634.5" y="164">"AS"</text>
</g>
<path d="M661.5 160h10"></path>
<path d="M671.5 160h10"></path>
<g class="non-terminal">
<path d="M681.5 160h0"></path>
<path d="M761 160h0"></path>
<rect x="681.5" y="149" width="79.5" height="22"></rect>
<a xlink:href="#/cds/expression/CDSType"><text x="721.25" y="164">CDSType</text>
</a>
</g>
</g>
<path d="M761 160a10 10 0 0 0 10 -10v-100a10 10 0 0 1 10 -10"></path>
<path d="M420 40a10 10 0 0 1 10 10v130a10 10 0 0 0 10 10"></path>
<g class="non-terminal">
<path d="M440 190h0"></path>
<path d="M587.5 190h173.5"></path>
<rect x="440" y="179" width="147.5" height="22"></rect>
<a xlink:href="#/cds/expression/CDSPrefixedName"><text x="513.75" y="194">CDSPrefixedName</text>
</a>
</g>
<path d="M761 190a10 10 0 0 0 10 -10v-130a10 10 0 0 1 10 -10"></path>
<path d="M420 40a10 10 0 0 1 10 10v160a10 10 0 0 0 10 10"></path>
<g class="non-terminal">
<path d="M440 220h0"></path>
<path d="M536.5 220h224.5"></path>
<rect x="440" y="209" width="96.5" height="22"></rect>
<a xlink:href="#/cds/expression/CDSString"><text x="488.25" y="224">CDSString</text>
</a>
</g>
<path d="M761 220a10 10 0 0 0 10 -10v-160a10 10 0 0 1 10 -10"></path>
<path d="M420 40a10 10 0 0 1 10 10v190a10 10 0 0 0 10 10"></path>
<g class="terminal">
<path d="M440 250h0"></path>
<path d="M485.5 250h275.5"></path>
<rect x="440" y="239" width="45.5" height="22" rx="10" ry="10"></rect>
<text x="462.75" y="254">"&#42;"</text>
</g>
<path d="M761 250a10 10 0 0 0 10 -10v-190a10 10 0 0 1 10 -10"></path>
</g>
<path d="M781 40h10"></path>
<g class="terminal">
<path d="M791 40h0"></path>
<path d="M836.5 40h0"></path>
<rect x="791" y="29" width="45.5" height="22" rx="10" ry="10"></rect>
<text x="813.75" y="44">")"</text>
</g>
</g>
<path d="M836.5 40h10"></path>
<path d="M 846.5 40 h 20 m 0 -10 v 20"></path>
</g>
</svg>
