<svg xmlns="http://www.w3.org/2000/svg" xmlns:xlink="http://www.w3.org/1999/xlink" class="railroad-diagram" width="2583.5" height="627" viewBox="0 0 2583.5 627">
<defs>
<style type="text/css"><![CDATA[
path {
stroke-width: 3;
stroke: black;
fill: rgba(0,0,0,0);
}
text {
font: bold 14px monospace;
text-anchor: middle;
}
text.diagram-text {
font-size: 12px;
}
a {
fill: blue;
}
text.diagram-arrow {
font-size: 16px;
}
text.label {
text-anchor: start;
}
text.comment {
font: italic 12px monospace;
}
rect {
stroke-width: 3;
stroke: black;
fill: #BCBCBC;
}
path.diagram-text {
stroke-width: 3;
stroke: black;
fill: #BCBCBC;
cursor: help;
}
]]></style>
</defs>
<g transform="translate(.5 .5)">
<g>
<path d="M20 38v20m0 -10h20"></path>
</g>
<path d="M40 48h10"></path>
<g>
<path d="M50 48h0"></path>
<path d="M2533.5 48h0"></path>
<g class="non-terminal">
<path d="M50 48h0"></path>
<path d="M129.5 48h0"></path>
<rect x="50" y="37" width="79.5" height="22"></rect>
<a xlink:href="#/cds/expression/CDSName"><text x="89.75" y="52">CDSName</text>
</a>
</g>
<path d="M129.5 48h10"></path>
<g>
<path d="M139.5 48h0"></path>
<path d="M401 48h0"></path>
<path d="M139.5 48a10 10 0 0 0 10 -10v0a10 10 0 0 1 10 -10"></path>
<g>
<path d="M159.5 28h221.5"></path>
</g>
<path d="M381 28a10 10 0 0 1 10 10v0a10 10 0 0 0 10 10"></path>
<path d="M139.5 48h20"></path>
<g>
<path d="M159.5 48h0"></path>
<path d="M381 48h0"></path>
<path d="M159.5 48h20"></path>
<g class="non-terminal">
<path d="M179.5 48h0"></path>
<path d="M310 48h51"></path>
<rect x="179.5" y="37" width="130.5" height="22"></rect>
<a xlink:href="#/cds/expression/CDSParameters"><text x="244.75" y="52">CDSParameters</text>
</a>
</g>
<path d="M361 48h20"></path>
<path d="M159.5 48a10 10 0 0 1 10 10v10a10 10 0 0 0 10 10"></path>
<g class="non-terminal">
<path d="M179.5 78h0"></path>
<path d="M361 78h0"></path>
<rect x="179.5" y="67" width="181.5" height="22"></rect>
<a xlink:href="#/cds/expression/CDSParametersSelect"><text x="270.25" y="82">CDSParametersSelect</text>
</a>
</g>
<path d="M361 78a10 10 0 0 0 10 -10v-10a10 10 0 0 1 10 -10"></path>
</g>
<path d="M381 48h20"></path>
</g>
<g>
<path d="M401 48h0"></path>
<path d="M1210.5 48h0"></path>
<path d="M401 48a10 10 0 0 0 10 -10v0a10 10 0 0 1 10 -10"></path>
<g>
<path d="M421 28h769.5"></path>
</g>
<path d="M1190.5 28a10 10 0 0 1 10 10v0a10 10 0 0 0 10 10"></path>
<path d="M401 48h20"></path>
<g>
<path d="M421 48h0"></path>
<path d="M1190.5 48h0"></path>
<path d="M421 48h20"></path>
<g>
<path d="M441 48h0"></path>
<path d="M1166 48h4.5"></path>
<g class="terminal">
<path d="M441 48h0"></path>
<path d="M486.5 48h0"></path>
<rect x="441" y="37" width="45.5" height="22" rx="10" ry="10"></rect>
<text x="463.75" y="52">"&#91;"</text>
</g>
<path d="M486.5 48h10"></path>
<g>
<path d="M496.5 48h0"></path>
<path d="M641.5 48h0"></path>
<path d="M496.5 48h20"></path>
<g class="non-terminal">
<path d="M516.5 48h0"></path>
<path d="M621.5 48h0"></path>
<rect x="516.5" y="37" width="105" height="22"></rect>
<a xlink:href="#/cds/expression/CDSInteger"><text x="569" y="52">CDSInteger</text>
</a>
</g>
<path d="M621.5 48h20"></path>
<path d="M496.5 48a10 10 0 0 1 10 10v10a10 10 0 0 0 10 10"></path>
<g class="terminal">
<path d="M516.5 78h0"></path>
<path d="M562 78h59.5"></path>
<rect x="516.5" y="67" width="45.5" height="22" rx="10" ry="10"></rect>
<text x="539.25" y="82">"&#42;"</text>
</g>
<path d="M621.5 78a10 10 0 0 0 10 -10v-10a10 10 0 0 1 10 -10"></path>
</g>
<path d="M641.5 48h10"></path>
<g class="terminal">
<path d="M651.5 48h0"></path>
<path d="M697 48h0"></path>
<rect x="651.5" y="37" width="45.5" height="22" rx="10" ry="10"></rect>
<text x="674.25" y="52">":"</text>
</g>
<path d="M697 48h10"></path>
<g>
<path d="M707 48h0"></path>
<path d="M869 48h0"></path>
<path d="M707 48h20"></path>
<g class="terminal">
<path d="M727 48h0"></path>
<path d="M849 48h0"></path>
<rect x="727" y="37" width="122" height="22" rx="10" ry="10"></rect>
<text x="788" y="52">"LEFT OUTER"</text>
</g>
<path d="M849 48h20"></path>
<path d="M707 48a10 10 0 0 1 10 10v10a10 10 0 0 0 10 10"></path>
<g class="terminal">
<path d="M727 78h0"></path>
<path d="M806.5 78h42.5"></path>
<rect x="727" y="67" width="79.5" height="22" rx="10" ry="10"></rect>
<text x="766.75" y="82">"INNER"</text>
</g>
<path d="M849 78a10 10 0 0 0 10 -10v-10a10 10 0 0 1 10 -10"></path>
<path d="M707 48a10 10 0 0 1 10 10v40a10 10 0 0 0 10 10"></path>
<g class="terminal">
<path d="M727 108h0"></path>
<path d="M806.5 108h42.5"></path>
<rect x="727" y="97" width="79.5" height="22" rx="10" ry="10"></rect>
<text x="766.75" y="112">"CROSS"</text>
</g>
<path d="M849 108a10 10 0 0 0 10 -10v-40a10 10 0 0 1 10 -10"></path>
</g>
<path d="M869 48h10"></path>
<g class="terminal">
<path d="M879 48h0"></path>
<path d="M958.5 48h0"></path>
<rect x="879" y="37" width="79.5" height="22" rx="10" ry="10"></rect>
<text x="918.75" y="52">"WHERE"</text>
</g>
<path d="M958.5 48h10"></path>
<path d="M968.5 48h10"></path>
<g class="non-terminal">
<path d="M978.5 48h0"></path>
<path d="M1100.5 48h0"></path>
<rect x="978.5" y="37" width="122" height="22"></rect>
<a xlink:href="#/cds/expression/CDSCondition"><text x="1039.5" y="52">CDSCondition</text>
</a>
</g>
<path d="M1100.5 48h10"></path>
<path d="M1110.5 48h10"></path>
<g class="terminal">
<path d="M1120.5 48h0"></path>
<path d="M1166 48h0"></path>
<rect x="1120.5" y="37" width="45.5" height="22" rx="10" ry="10"></rect>
<text x="1143.25" y="52">"&#93;"</text>
</g>
</g>
<path d="M1170.5 48h20"></path>
<path d="M421 48a10 10 0 0 1 10 10v70a10 10 0 0 0 10 10"></path>
<g>
<path d="M441 138h0"></path>
<path d="M955.5 138h215"></path>
<g class="terminal">
<path d="M441 138h0"></path>
<path d="M486.5 138h0"></path>
<rect x="441" y="127" width="45.5" height="22" rx="10" ry="10"></rect>
<text x="463.75" y="142">"&#91;"</text>
</g>
<path d="M486.5 138h10"></path>
<g>
<path d="M496.5 138h0"></path>
<path d="M658.5 138h0"></path>
<path d="M496.5 138h20"></path>
<g class="terminal">
<path d="M516.5 138h0"></path>
<path d="M638.5 138h0"></path>
<rect x="516.5" y="127" width="122" height="22" rx="10" ry="10"></rect>
<text x="577.5" y="142">"LEFT OUTER"</text>
</g>
<path d="M638.5 138h20"></path>
<path d="M496.5 138a10 10 0 0 1 10 10v10a10 10 0 0 0 10 10"></path>
<g class="terminal">
<path d="M516.5 168h0"></path>
<path d="M596 168h42.5"></path>
<rect x="516.5" y="157" width="79.5" height="22" rx="10" ry="10"></rect>
<text x="556.25" y="172">"INNER"</text>
</g>
<path d="M638.5 168a10 10 0 0 0 10 -10v-10a10 10 0 0 1 10 -10"></path>
<path d="M496.5 138a10 10 0 0 1 10 10v40a10 10 0 0 0 10 10"></path>
<g class="terminal">
<path d="M516.5 198h0"></path>
<path d="M596 198h42.5"></path>
<rect x="516.5" y="187" width="79.5" height="22" rx="10" ry="10"></rect>
<text x="556.25" y="202">"CROSS"</text>
</g>
<path d="M638.5 198a10 10 0 0 0 10 -10v-40a10 10 0 0 1 10 -10"></path>
</g>
<path d="M658.5 138h10"></path>
<g class="terminal">
<path d="M668.5 138h0"></path>
<path d="M748 138h0"></path>
<rect x="668.5" y="127" width="79.5" height="22" rx="10" ry="10"></rect>
<text x="708.25" y="142">"WHERE"</text>
</g>
<path d="M748 138h10"></path>
<path d="M758 138h10"></path>
<g class="non-terminal">
<path d="M768 138h0"></path>
<path d="M890 138h0"></path>
<rect x="768" y="127" width="122" height="22"></rect>
<a xlink:href="#/cds/expression/CDSCondition"><text x="829" y="142">CDSCondition</text>
</a>
</g>
<path d="M890 138h10"></path>
<path d="M900 138h10"></path>
<g class="terminal">
<path d="M910 138h0"></path>
<path d="M955.5 138h0"></path>
<rect x="910" y="127" width="45.5" height="22" rx="10" ry="10"></rect>
<text x="932.75" y="142">"&#93;"</text>
</g>
</g>
<path d="M1170.5 138a10 10 0 0 0 10 -10v-70a10 10 0 0 1 10 -10"></path>
<path d="M421 48a10 10 0 0 1 10 10v160a10 10 0 0 0 10 10"></path>
<g>
<path d="M441 228h0"></path>
<path d="M924.5 228h246"></path>
<g class="terminal">
<path d="M441 228h0"></path>
<path d="M486.5 228h0"></path>
<rect x="441" y="217" width="45.5" height="22" rx="10" ry="10"></rect>
<text x="463.75" y="232">"&#91;"</text>
</g>
<path d="M486.5 228h10"></path>
<g>
<path d="M496.5 228h0"></path>
<path d="M641.5 228h0"></path>
<path d="M496.5 228h20"></path>
<g class="non-terminal">
<path d="M516.5 228h0"></path>
<path d="M621.5 228h0"></path>
<rect x="516.5" y="217" width="105" height="22"></rect>
<a xlink:href="#/cds/expression/CDSInteger"><text x="569" y="232">CDSInteger</text>
</a>
</g>
<path d="M621.5 228h20"></path>
<path d="M496.5 228a10 10 0 0 1 10 10v10a10 10 0 0 0 10 10"></path>
<g class="terminal">
<path d="M516.5 258h0"></path>
<path d="M562 258h59.5"></path>
<rect x="516.5" y="247" width="45.5" height="22" rx="10" ry="10"></rect>
<text x="539.25" y="262">"&#42;"</text>
</g>
<path d="M621.5 258a10 10 0 0 0 10 -10v-10a10 10 0 0 1 10 -10"></path>
</g>
<path d="M641.5 228h10"></path>
<g class="terminal">
<path d="M651.5 228h0"></path>
<path d="M697 228h0"></path>
<rect x="651.5" y="217" width="45.5" height="22" rx="10" ry="10"></rect>
<text x="674.25" y="232">":"</text>
</g>
<path d="M697 228h10"></path>
<g>
<path d="M707 228h0"></path>
<path d="M869 228h0"></path>
<path d="M707 228h20"></path>
<g class="terminal">
<path d="M727 228h0"></path>
<path d="M849 228h0"></path>
<rect x="727" y="217" width="122" height="22" rx="10" ry="10"></rect>
<text x="788" y="232">"LEFT OUTER"</text>
</g>
<path d="M849 228h20"></path>
<path d="M707 228a10 10 0 0 1 10 10v10a10 10 0 0 0 10 10"></path>
<g class="terminal">
<path d="M727 258h0"></path>
<path d="M806.5 258h42.5"></path>
<rect x="727" y="247" width="79.5" height="22" rx="10" ry="10"></rect>
<text x="766.75" y="262">"INNER"</text>
</g>
<path d="M849 258a10 10 0 0 0 10 -10v-10a10 10 0 0 1 10 -10"></path>
<path d="M707 228a10 10 0 0 1 10 10v40a10 10 0 0 0 10 10"></path>
<g class="terminal">
<path d="M727 288h0"></path>
<path d="M806.5 288h42.5"></path>
<rect x="727" y="277" width="79.5" height="22" rx="10" ry="10"></rect>
<text x="766.75" y="292">"CROSS"</text>
</g>
<path d="M849 288a10 10 0 0 0 10 -10v-40a10 10 0 0 1 10 -10"></path>
</g>
<path d="M869 228h10"></path>
<g class="terminal">
<path d="M879 228h0"></path>
<path d="M924.5 228h0"></path>
<rect x="879" y="217" width="45.5" height="22" rx="10" ry="10"></rect>
<text x="901.75" y="232">"&#93;"</text>
</g>
</g>
<path d="M1170.5 228a10 10 0 0 0 10 -10v-160a10 10 0 0 1 10 -10"></path>
<path d="M421 48a10 10 0 0 1 10 10v250a10 10 0 0 0 10 10"></path>
<g>
<path d="M441 318h0"></path>
<path d="M714 318h456.5"></path>
<g class="terminal">
<path d="M441 318h0"></path>
<path d="M486.5 318h0"></path>
<rect x="441" y="307" width="45.5" height="22" rx="10" ry="10"></rect>
<text x="463.75" y="322">"&#91;"</text>
</g>
<path d="M486.5 318h10"></path>
<g>
<path d="M496.5 318h0"></path>
<path d="M658.5 318h0"></path>
<path d="M496.5 318h20"></path>
<g class="terminal">
<path d="M516.5 318h0"></path>
<path d="M638.5 318h0"></path>
<rect x="516.5" y="307" width="122" height="22" rx="10" ry="10"></rect>
<text x="577.5" y="322">"LEFT OUTER"</text>
</g>
<path d="M638.5 318h20"></path>
<path d="M496.5 318a10 10 0 0 1 10 10v10a10 10 0 0 0 10 10"></path>
<g class="terminal">
<path d="M516.5 348h0"></path>
<path d="M596 348h42.5"></path>
<rect x="516.5" y="337" width="79.5" height="22" rx="10" ry="10"></rect>
<text x="556.25" y="352">"INNER"</text>
</g>
<path d="M638.5 348a10 10 0 0 0 10 -10v-10a10 10 0 0 1 10 -10"></path>
<path d="M496.5 318a10 10 0 0 1 10 10v40a10 10 0 0 0 10 10"></path>
<g class="terminal">
<path d="M516.5 378h0"></path>
<path d="M596 378h42.5"></path>
<rect x="516.5" y="367" width="79.5" height="22" rx="10" ry="10"></rect>
<text x="556.25" y="382">"CROSS"</text>
</g>
<path d="M638.5 378a10 10 0 0 0 10 -10v-40a10 10 0 0 1 10 -10"></path>
</g>
<path d="M658.5 318h10"></path>
<g class="terminal">
<path d="M668.5 318h0"></path>
<path d="M714 318h0"></path>
<rect x="668.5" y="307" width="45.5" height="22" rx="10" ry="10"></rect>
<text x="691.25" y="322">"&#93;"</text>
</g>
</g>
<path d="M1170.5 318a10 10 0 0 0 10 -10v-250a10 10 0 0 1 10 -10"></path>
<path d="M421 48a10 10 0 0 1 10 10v340a10 10 0 0 0 10 10"></path>
<g>
<path d="M441 408h0"></path>
<path d="M896 408h274.5"></path>
<g class="terminal">
<path d="M441 408h0"></path>
<path d="M486.5 408h0"></path>
<rect x="441" y="397" width="45.5" height="22" rx="10" ry="10"></rect>
<text x="463.75" y="412">"&#91;"</text>
</g>
<path d="M486.5 408h10"></path>
<g>
<path d="M496.5 408h0"></path>
<path d="M633 408h0"></path>
<path d="M496.5 408h20"></path>
<g class="terminal">
<path d="M516.5 408h0"></path>
<path d="M604.5 408h8.5"></path>
<rect x="516.5" y="397" width="88" height="22" rx="10" ry="10"></rect>
<text x="560.5" y="412">"TO ONE"</text>
</g>
<path d="M613 408h20"></path>
<path d="M496.5 408a10 10 0 0 1 10 10v10a10 10 0 0 0 10 10"></path>
<g class="terminal">
<path d="M516.5 438h0"></path>
<path d="M613 438h0"></path>
<rect x="516.5" y="427" width="96.5" height="22" rx="10" ry="10"></rect>
<text x="564.75" y="442">"TO MANY"</text>
</g>
<path d="M613 438a10 10 0 0 0 10 -10v-10a10 10 0 0 1 10 -10"></path>
</g>
<path d="M633 408h10"></path>
<g class="terminal">
<path d="M643 408h0"></path>
<path d="M688.5 408h0"></path>
<rect x="643" y="397" width="45.5" height="22" rx="10" ry="10"></rect>
<text x="665.75" y="412">":"</text>
</g>
<path d="M688.5 408h10"></path>
<path d="M698.5 408h10"></path>
<g class="non-terminal">
<path d="M708.5 408h0"></path>
<path d="M830.5 408h0"></path>
<rect x="708.5" y="397" width="122" height="22"></rect>
<a xlink:href="#/cds/expression/CDSCondition"><text x="769.5" y="412">CDSCondition</text>
</a>
</g>
<path d="M830.5 408h10"></path>
<path d="M840.5 408h10"></path>
<g class="terminal">
<path d="M850.5 408h0"></path>
<path d="M896 408h0"></path>
<rect x="850.5" y="397" width="45.5" height="22" rx="10" ry="10"></rect>
<text x="873.25" y="412">"&#93;"</text>
</g>
</g>
<path d="M1170.5 408a10 10 0 0 0 10 -10v-340a10 10 0 0 1 10 -10"></path>
<path d="M421 48a10 10 0 0 1 10 10v400a10 10 0 0 0 10 10"></path>
<g>
<path d="M441 468h0"></path>
<path d="M1170.5 468h0"></path>
<g class="terminal">
<path d="M441 468h0"></path>
<path d="M486.5 468h0"></path>
<rect x="441" y="457" width="45.5" height="22" rx="10" ry="10"></rect>
<text x="463.75" y="472">"&#91;"</text>
</g>
<path d="M486.5 468h10"></path>
<path d="M496.5 468h10"></path>
<g>
<path d="M506.5 468h0"></path>
<path d="M897.5 468h0"></path>
<g class="non-terminal">
<path d="M506.5 468h0"></path>
<path d="M611.5 468h0"></path>
<rect x="506.5" y="457" width="105" height="22"></rect>
<a xlink:href="#/cds/expression/CDSInteger"><text x="559" y="472">CDSInteger</text>
</a>
</g>
<path d="M611.5 468h10"></path>
<path d="M621.5 468h10"></path>
<g class="terminal">
<path d="M631.5 468h0"></path>
<path d="M677 468h0"></path>
<rect x="631.5" y="457" width="45.5" height="22" rx="10" ry="10"></rect>
<text x="654.25" y="472">"."</text>
</g>
<path d="M677 468h10"></path>
<path d="M687 468h10"></path>
<g class="terminal">
<path d="M697 468h0"></path>
<path d="M742.5 468h0"></path>
<rect x="697" y="457" width="45.5" height="22" rx="10" ry="10"></rect>
<text x="719.75" y="472">"."</text>
</g>
<path d="M742.5 468h10"></path>
<g>
<path d="M752.5 468h0"></path>
<path d="M897.5 468h0"></path>
<path d="M752.5 468h20"></path>
<g class="non-terminal">
<path d="M772.5 468h0"></path>
<path d="M877.5 468h0"></path>
<rect x="772.5" y="457" width="105" height="22"></rect>
<a xlink:href="#/cds/expression/CDSInteger"><text x="825" y="472">CDSInteger</text>
</a>
</g>
<path d="M877.5 468h20"></path>
<path d="M752.5 468a10 10 0 0 1 10 10v10a10 10 0 0 0 10 10"></path>
<g class="terminal">
<path d="M772.5 498h0"></path>
<path d="M818 498h59.5"></path>
<rect x="772.5" y="487" width="45.5" height="22" rx="10" ry="10"></rect>
<text x="795.25" y="502">"&#42;"</text>
</g>
<path d="M877.5 498a10 10 0 0 0 10 -10v-10a10 10 0 0 1 10 -10"></path>
</g>
</g>
<path d="M897.5 468h10"></path>
<path d="M907.5 468h10"></path>
<g class="terminal">
<path d="M917.5 468h0"></path>
<path d="M963 468h0"></path>
<rect x="917.5" y="457" width="45.5" height="22" rx="10" ry="10"></rect>
<text x="940.25" y="472">":"</text>
</g>
<path d="M963 468h10"></path>
<path d="M973 468h10"></path>
<g class="non-terminal">
<path d="M983 468h0"></path>
<path d="M1105 468h0"></path>
<rect x="983" y="457" width="122" height="22"></rect>
<a xlink:href="#/cds/expression/CDSCondition"><text x="1044" y="472">CDSCondition</text>
</a>
</g>
<path d="M1105 468h10"></path>
<path d="M1115 468h10"></path>
<g class="terminal">
<path d="M1125 468h0"></path>
<path d="M1170.5 468h0"></path>
<rect x="1125" y="457" width="45.5" height="22" rx="10" ry="10"></rect>
<text x="1147.75" y="472">"&#93;"</text>
</g>
</g>
<path d="M1170.5 468a10 10 0 0 0 10 -10v-400a10 10 0 0 1 10 -10"></path>
<path d="M421 48a10 10 0 0 1 10 10v460a10 10 0 0 0 10 10"></path>
<g>
<path d="M441 528h0"></path>
<path d="M904.5 528h266"></path>
<g class="terminal">
<path d="M441 528h0"></path>
<path d="M486.5 528h0"></path>
<rect x="441" y="517" width="45.5" height="22" rx="10" ry="10"></rect>
<text x="463.75" y="532">"&#91;"</text>
</g>
<path d="M486.5 528h10"></path>
<g>
<path d="M496.5 528h0"></path>
<path d="M641.5 528h0"></path>
<path d="M496.5 528h20"></path>
<g class="non-terminal">
<path d="M516.5 528h0"></path>
<path d="M621.5 528h0"></path>
<rect x="516.5" y="517" width="105" height="22"></rect>
<a xlink:href="#/cds/expression/CDSInteger"><text x="569" y="532">CDSInteger</text>
</a>
</g>
<path d="M621.5 528h20"></path>
<path d="M496.5 528a10 10 0 0 1 10 10v10a10 10 0 0 0 10 10"></path>
<g class="terminal">
<path d="M516.5 558h0"></path>
<path d="M562 558h59.5"></path>
<rect x="516.5" y="547" width="45.5" height="22" rx="10" ry="10"></rect>
<text x="539.25" y="562">"&#42;"</text>
</g>
<path d="M621.5 558a10 10 0 0 0 10 -10v-10a10 10 0 0 1 10 -10"></path>
</g>
<path d="M641.5 528h10"></path>
<g class="terminal">
<path d="M651.5 528h0"></path>
<path d="M697 528h0"></path>
<rect x="651.5" y="517" width="45.5" height="22" rx="10" ry="10"></rect>
<text x="674.25" y="532">":"</text>
</g>
<path d="M697 528h10"></path>
<path d="M707 528h10"></path>
<g class="non-terminal">
<path d="M717 528h0"></path>
<path d="M839 528h0"></path>
<rect x="717" y="517" width="122" height="22"></rect>
<a xlink:href="#/cds/expression/CDSCondition"><text x="778" y="532">CDSCondition</text>
</a>
</g>
<path d="M839 528h10"></path>
<path d="M849 528h10"></path>
<g class="terminal">
<path d="M859 528h0"></path>
<path d="M904.5 528h0"></path>
<rect x="859" y="517" width="45.5" height="22" rx="10" ry="10"></rect>
<text x="881.75" y="532">"&#93;"</text>
</g>
</g>
<path d="M1170.5 528a10 10 0 0 0 10 -10v-460a10 10 0 0 1 10 -10"></path>
<path d="M421 48a10 10 0 0 1 10 10v520a10 10 0 0 0 10 10"></path>
<g>
<path d="M441 588h0"></path>
<path d="M694 588h476.5"></path>
<g class="terminal">
<path d="M441 588h0"></path>
<path d="M486.5 588h0"></path>
<rect x="441" y="577" width="45.5" height="22" rx="10" ry="10"></rect>
<text x="463.75" y="592">"&#91;"</text>
</g>
<path d="M486.5 588h10"></path>
<path d="M496.5 588h10"></path>
<g class="non-terminal">
<path d="M506.5 588h0"></path>
<path d="M628.5 588h0"></path>
<rect x="506.5" y="577" width="122" height="22"></rect>
<a xlink:href="#/cds/expression/CDSCondition"><text x="567.5" y="592">CDSCondition</text>
</a>
</g>
<path d="M628.5 588h10"></path>
<path d="M638.5 588h10"></path>
<g class="terminal">
<path d="M648.5 588h0"></path>
<path d="M694 588h0"></path>
<rect x="648.5" y="577" width="45.5" height="22" rx="10" ry="10"></rect>
<text x="671.25" y="592">"&#93;"</text>
</g>
</g>
<path d="M1170.5 588a10 10 0 0 0 10 -10v-520a10 10 0 0 1 10 -10"></path>
</g>
<path d="M1190.5 48h20"></path>
</g>
<g>
<path d="M1210.5 48h0"></path>
<path d="M2533.5 48h0"></path>
<path d="M1210.5 48a10 10 0 0 0 10 -10v-8a10 10 0 0 1 10 -10"></path>
<g>
<path d="M1230.5 20h1283"></path>
</g>
<path d="M2513.5 20a10 10 0 0 1 10 10v8a10 10 0 0 0 10 10"></path>
<path d="M1210.5 48h20"></path>
<g>
<path d="M1230.5 48h0"></path>
<path d="M2513.5 48h0"></path>
<path d="M1230.5 48h10"></path>
<g>
<path d="M1240.5 48h0"></path>
<path d="M2503.5 48h0"></path>
<g class="terminal">
<path d="M1240.5 48h0"></path>
<path d="M1286 48h0"></path>
<rect x="1240.5" y="37" width="45.5" height="22" rx="10" ry="10"></rect>
<text x="1263.25" y="52">"."</text>
</g>
<path d="M1286 48h10"></path>
<g>
<path d="M1296 48h0"></path>
<path d="M1432.5 48h0"></path>
<path d="M1296 48h20"></path>
<g class="non-terminal">
<path d="M1316 48h0"></path>
<path d="M1412.5 48h0"></path>
<rect x="1316" y="37" width="96.5" height="22"></rect>
<a xlink:href="#/cds/expression/CDSString"><text x="1364.25" y="52">CDSString</text>
</a>
</g>
<path d="M1412.5 48h20"></path>
<path d="M1296 48a10 10 0 0 1 10 10v10a10 10 0 0 0 10 10"></path>
<g class="non-terminal">
<path d="M1316 78h0"></path>
<path d="M1395.5 78h17"></path>
<rect x="1316" y="67" width="79.5" height="22"></rect>
<a xlink:href="#/cds/expression/CDSName"><text x="1355.75" y="82">CDSName</text>
</a>
</g>
<path d="M1412.5 78a10 10 0 0 0 10 -10v-10a10 10 0 0 1 10 -10"></path>
</g>
<g>
<path d="M1432.5 48h0"></path>
<path d="M1694 48h0"></path>
<path d="M1432.5 48a10 10 0 0 0 10 -10v0a10 10 0 0 1 10 -10"></path>
<g>
<path d="M1452.5 28h221.5"></path>
</g>
<path d="M1674 28a10 10 0 0 1 10 10v0a10 10 0 0 0 10 10"></path>
<path d="M1432.5 48h20"></path>
<g>
<path d="M1452.5 48h0"></path>
<path d="M1674 48h0"></path>
<path d="M1452.5 48h20"></path>
<g class="non-terminal">
<path d="M1472.5 48h0"></path>
<path d="M1654 48h0"></path>
<rect x="1472.5" y="37" width="181.5" height="22"></rect>
<a xlink:href="#/cds/expression/CDSParametersSelect"><text x="1563.25" y="52">CDSParametersSelect</text>
</a>
</g>
<path d="M1654 48h20"></path>
<path d="M1452.5 48a10 10 0 0 1 10 10v10a10 10 0 0 0 10 10"></path>
<g class="non-terminal">
<path d="M1472.5 78h0"></path>
<path d="M1603 78h51"></path>
<rect x="1472.5" y="67" width="130.5" height="22"></rect>
<a xlink:href="#/cds/expression/CDSParameters"><text x="1537.75" y="82">CDSParameters</text>
</a>
</g>
<path d="M1654 78a10 10 0 0 0 10 -10v-10a10 10 0 0 1 10 -10"></path>
</g>
<path d="M1674 48h20"></path>
</g>
<g>
<path d="M1694 48h0"></path>
<path d="M2503.5 48h0"></path>
<path d="M1694 48a10 10 0 0 0 10 -10v0a10 10 0 0 1 10 -10"></path>
<g>
<path d="M1714 28h769.5"></path>
</g>
<path d="M2483.5 28a10 10 0 0 1 10 10v0a10 10 0 0 0 10 10"></path>
<path d="M1694 48h20"></path>
<g>
<path d="M1714 48h0"></path>
<path d="M2483.5 48h0"></path>
<path d="M1714 48h20"></path>
<g>
<path d="M1734 48h0"></path>
<path d="M2459 48h4.5"></path>
<g class="terminal">
<path d="M1734 48h0"></path>
<path d="M1779.5 48h0"></path>
<rect x="1734" y="37" width="45.5" height="22" rx="10" ry="10"></rect>
<text x="1756.75" y="52">"&#91;"</text>
</g>
<path d="M1779.5 48h10"></path>
<g>
<path d="M1789.5 48h0"></path>
<path d="M1934.5 48h0"></path>
<path d="M1789.5 48h20"></path>
<g class="non-terminal">
<path d="M1809.5 48h0"></path>
<path d="M1914.5 48h0"></path>
<rect x="1809.5" y="37" width="105" height="22"></rect>
<a xlink:href="#/cds/expression/CDSInteger"><text x="1862" y="52">CDSInteger</text>
</a>
</g>
<path d="M1914.5 48h20"></path>
<path d="M1789.5 48a10 10 0 0 1 10 10v10a10 10 0 0 0 10 10"></path>
<g class="terminal">
<path d="M1809.5 78h0"></path>
<path d="M1855 78h59.5"></path>
<rect x="1809.5" y="67" width="45.5" height="22" rx="10" ry="10"></rect>
<text x="1832.25" y="82">"&#42;"</text>
</g>
<path d="M1914.5 78a10 10 0 0 0 10 -10v-10a10 10 0 0 1 10 -10"></path>
</g>
<path d="M1934.5 48h10"></path>
<g class="terminal">
<path d="M1944.5 48h0"></path>
<path d="M1990 48h0"></path>
<rect x="1944.5" y="37" width="45.5" height="22" rx="10" ry="10"></rect>
<text x="1967.25" y="52">":"</text>
</g>
<path d="M1990 48h10"></path>
<g>
<path d="M2000 48h0"></path>
<path d="M2162 48h0"></path>
<path d="M2000 48h20"></path>
<g class="terminal">
<path d="M2020 48h0"></path>
<path d="M2142 48h0"></path>
<rect x="2020" y="37" width="122" height="22" rx="10" ry="10"></rect>
<text x="2081" y="52">"LEFT OUTER"</text>
</g>
<path d="M2142 48h20"></path>
<path d="M2000 48a10 10 0 0 1 10 10v10a10 10 0 0 0 10 10"></path>
<g class="terminal">
<path d="M2020 78h0"></path>
<path d="M2099.5 78h42.5"></path>
<rect x="2020" y="67" width="79.5" height="22" rx="10" ry="10"></rect>
<text x="2059.75" y="82">"INNER"</text>
</g>
<path d="M2142 78a10 10 0 0 0 10 -10v-10a10 10 0 0 1 10 -10"></path>
<path d="M2000 48a10 10 0 0 1 10 10v40a10 10 0 0 0 10 10"></path>
<g class="terminal">
<path d="M2020 108h0"></path>
<path d="M2099.5 108h42.5"></path>
<rect x="2020" y="97" width="79.5" height="22" rx="10" ry="10"></rect>
<text x="2059.75" y="112">"CROSS"</text>
</g>
<path d="M2142 108a10 10 0 0 0 10 -10v-40a10 10 0 0 1 10 -10"></path>
</g>
<path d="M2162 48h10"></path>
<g class="terminal">
<path d="M2172 48h0"></path>
<path d="M2251.5 48h0"></path>
<rect x="2172" y="37" width="79.5" height="22" rx="10" ry="10"></rect>
<text x="2211.75" y="52">"WHERE"</text>
</g>
<path d="M2251.5 48h10"></path>
<path d="M2261.5 48h10"></path>
<g class="non-terminal">
<path d="M2271.5 48h0"></path>
<path d="M2393.5 48h0"></path>
<rect x="2271.5" y="37" width="122" height="22"></rect>
<a xlink:href="#/cds/expression/CDSCondition"><text x="2332.5" y="52">CDSCondition</text>
</a>
</g>
<path d="M2393.5 48h10"></path>
<path d="M2403.5 48h10"></path>
<g class="terminal">
<path d="M2413.5 48h0"></path>
<path d="M2459 48h0"></path>
<rect x="2413.5" y="37" width="45.5" height="22" rx="10" ry="10"></rect>
<text x="2436.25" y="52">"&#93;"</text>
</g>
</g>
<path d="M2463.5 48h20"></path>
<path d="M1714 48a10 10 0 0 1 10 10v70a10 10 0 0 0 10 10"></path>
<g>
<path d="M1734 138h0"></path>
<path d="M2248.5 138h215"></path>
<g class="terminal">
<path d="M1734 138h0"></path>
<path d="M1779.5 138h0"></path>
<rect x="1734" y="127" width="45.5" height="22" rx="10" ry="10"></rect>
<text x="1756.75" y="142">"&#91;"</text>
</g>
<path d="M1779.5 138h10"></path>
<g>
<path d="M1789.5 138h0"></path>
<path d="M1951.5 138h0"></path>
<path d="M1789.5 138h20"></path>
<g class="terminal">
<path d="M1809.5 138h0"></path>
<path d="M1931.5 138h0"></path>
<rect x="1809.5" y="127" width="122" height="22" rx="10" ry="10"></rect>
<text x="1870.5" y="142">"LEFT OUTER"</text>
</g>
<path d="M1931.5 138h20"></path>
<path d="M1789.5 138a10 10 0 0 1 10 10v10a10 10 0 0 0 10 10"></path>
<g class="terminal">
<path d="M1809.5 168h0"></path>
<path d="M1889 168h42.5"></path>
<rect x="1809.5" y="157" width="79.5" height="22" rx="10" ry="10"></rect>
<text x="1849.25" y="172">"INNER"</text>
</g>
<path d="M1931.5 168a10 10 0 0 0 10 -10v-10a10 10 0 0 1 10 -10"></path>
<path d="M1789.5 138a10 10 0 0 1 10 10v40a10 10 0 0 0 10 10"></path>
<g class="terminal">
<path d="M1809.5 198h0"></path>
<path d="M1889 198h42.5"></path>
<rect x="1809.5" y="187" width="79.5" height="22" rx="10" ry="10"></rect>
<text x="1849.25" y="202">"CROSS"</text>
</g>
<path d="M1931.5 198a10 10 0 0 0 10 -10v-40a10 10 0 0 1 10 -10"></path>
</g>
<path d="M1951.5 138h10"></path>
<g class="terminal">
<path d="M1961.5 138h0"></path>
<path d="M2041 138h0"></path>
<rect x="1961.5" y="127" width="79.5" height="22" rx="10" ry="10"></rect>
<text x="2001.25" y="142">"WHERE"</text>
</g>
<path d="M2041 138h10"></path>
<path d="M2051 138h10"></path>
<g class="non-terminal">
<path d="M2061 138h0"></path>
<path d="M2183 138h0"></path>
<rect x="2061" y="127" width="122" height="22"></rect>
<a xlink:href="#/cds/expression/CDSCondition"><text x="2122" y="142">CDSCondition</text>
</a>
</g>
<path d="M2183 138h10"></path>
<path d="M2193 138h10"></path>
<g class="terminal">
<path d="M2203 138h0"></path>
<path d="M2248.5 138h0"></path>
<rect x="2203" y="127" width="45.5" height="22" rx="10" ry="10"></rect>
<text x="2225.75" y="142">"&#93;"</text>
</g>
</g>
<path d="M2463.5 138a10 10 0 0 0 10 -10v-70a10 10 0 0 1 10 -10"></path>
<path d="M1714 48a10 10 0 0 1 10 10v160a10 10 0 0 0 10 10"></path>
<g>
<path d="M1734 228h0"></path>
<path d="M2217.5 228h246"></path>
<g class="terminal">
<path d="M1734 228h0"></path>
<path d="M1779.5 228h0"></path>
<rect x="1734" y="217" width="45.5" height="22" rx="10" ry="10"></rect>
<text x="1756.75" y="232">"&#91;"</text>
</g>
<path d="M1779.5 228h10"></path>
<g>
<path d="M1789.5 228h0"></path>
<path d="M1934.5 228h0"></path>
<path d="M1789.5 228h20"></path>
<g class="non-terminal">
<path d="M1809.5 228h0"></path>
<path d="M1914.5 228h0"></path>
<rect x="1809.5" y="217" width="105" height="22"></rect>
<a xlink:href="#/cds/expression/CDSInteger"><text x="1862" y="232">CDSInteger</text>
</a>
</g>
<path d="M1914.5 228h20"></path>
<path d="M1789.5 228a10 10 0 0 1 10 10v10a10 10 0 0 0 10 10"></path>
<g class="terminal">
<path d="M1809.5 258h0"></path>
<path d="M1855 258h59.5"></path>
<rect x="1809.5" y="247" width="45.5" height="22" rx="10" ry="10"></rect>
<text x="1832.25" y="262">"&#42;"</text>
</g>
<path d="M1914.5 258a10 10 0 0 0 10 -10v-10a10 10 0 0 1 10 -10"></path>
</g>
<path d="M1934.5 228h10"></path>
<g class="terminal">
<path d="M1944.5 228h0"></path>
<path d="M1990 228h0"></path>
<rect x="1944.5" y="217" width="45.5" height="22" rx="10" ry="10"></rect>
<text x="1967.25" y="232">":"</text>
</g>
<path d="M1990 228h10"></path>
<g>
<path d="M2000 228h0"></path>
<path d="M2162 228h0"></path>
<path d="M2000 228h20"></path>
<g class="terminal">
<path d="M2020 228h0"></path>
<path d="M2142 228h0"></path>
<rect x="2020" y="217" width="122" height="22" rx="10" ry="10"></rect>
<text x="2081" y="232">"LEFT OUTER"</text>
</g>
<path d="M2142 228h20"></path>
<path d="M2000 228a10 10 0 0 1 10 10v10a10 10 0 0 0 10 10"></path>
<g class="terminal">
<path d="M2020 258h0"></path>
<path d="M2099.5 258h42.5"></path>
<rect x="2020" y="247" width="79.5" height="22" rx="10" ry="10"></rect>
<text x="2059.75" y="262">"INNER"</text>
</g>
<path d="M2142 258a10 10 0 0 0 10 -10v-10a10 10 0 0 1 10 -10"></path>
<path d="M2000 228a10 10 0 0 1 10 10v40a10 10 0 0 0 10 10"></path>
<g class="terminal">
<path d="M2020 288h0"></path>
<path d="M2099.5 288h42.5"></path>
<rect x="2020" y="277" width="79.5" height="22" rx="10" ry="10"></rect>
<text x="2059.75" y="292">"CROSS"</text>
</g>
<path d="M2142 288a10 10 0 0 0 10 -10v-40a10 10 0 0 1 10 -10"></path>
</g>
<path d="M2162 228h10"></path>
<g class="terminal">
<path d="M2172 228h0"></path>
<path d="M2217.5 228h0"></path>
<rect x="2172" y="217" width="45.5" height="22" rx="10" ry="10"></rect>
<text x="2194.75" y="232">"&#93;"</text>
</g>
</g>
<path d="M2463.5 228a10 10 0 0 0 10 -10v-160a10 10 0 0 1 10 -10"></path>
<path d="M1714 48a10 10 0 0 1 10 10v250a10 10 0 0 0 10 10"></path>
<g>
<path d="M1734 318h0"></path>
<path d="M2007 318h456.5"></path>
<g class="terminal">
<path d="M1734 318h0"></path>
<path d="M1779.5 318h0"></path>
<rect x="1734" y="307" width="45.5" height="22" rx="10" ry="10"></rect>
<text x="1756.75" y="322">"&#91;"</text>
</g>
<path d="M1779.5 318h10"></path>
<g>
<path d="M1789.5 318h0"></path>
<path d="M1951.5 318h0"></path>
<path d="M1789.5 318h20"></path>
<g class="terminal">
<path d="M1809.5 318h0"></path>
<path d="M1931.5 318h0"></path>
<rect x="1809.5" y="307" width="122" height="22" rx="10" ry="10"></rect>
<text x="1870.5" y="322">"LEFT OUTER"</text>
</g>
<path d="M1931.5 318h20"></path>
<path d="M1789.5 318a10 10 0 0 1 10 10v10a10 10 0 0 0 10 10"></path>
<g class="terminal">
<path d="M1809.5 348h0"></path>
<path d="M1889 348h42.5"></path>
<rect x="1809.5" y="337" width="79.5" height="22" rx="10" ry="10"></rect>
<text x="1849.25" y="352">"INNER"</text>
</g>
<path d="M1931.5 348a10 10 0 0 0 10 -10v-10a10 10 0 0 1 10 -10"></path>
<path d="M1789.5 318a10 10 0 0 1 10 10v40a10 10 0 0 0 10 10"></path>
<g class="terminal">
<path d="M1809.5 378h0"></path>
<path d="M1889 378h42.5"></path>
<rect x="1809.5" y="367" width="79.5" height="22" rx="10" ry="10"></rect>
<text x="1849.25" y="382">"CROSS"</text>
</g>
<path d="M1931.5 378a10 10 0 0 0 10 -10v-40a10 10 0 0 1 10 -10"></path>
</g>
<path d="M1951.5 318h10"></path>
<g class="terminal">
<path d="M1961.5 318h0"></path>
<path d="M2007 318h0"></path>
<rect x="1961.5" y="307" width="45.5" height="22" rx="10" ry="10"></rect>
<text x="1984.25" y="322">"&#93;"</text>
</g>
</g>
<path d="M2463.5 318a10 10 0 0 0 10 -10v-250a10 10 0 0 1 10 -10"></path>
<path d="M1714 48a10 10 0 0 1 10 10v340a10 10 0 0 0 10 10"></path>
<g>
<path d="M1734 408h0"></path>
<path d="M2189 408h274.5"></path>
<g class="terminal">
<path d="M1734 408h0"></path>
<path d="M1779.5 408h0"></path>
<rect x="1734" y="397" width="45.5" height="22" rx="10" ry="10"></rect>
<text x="1756.75" y="412">"&#91;"</text>
</g>
<path d="M1779.5 408h10"></path>
<g>
<path d="M1789.5 408h0"></path>
<path d="M1926 408h0"></path>
<path d="M1789.5 408h20"></path>
<g class="terminal">
<path d="M1809.5 408h0"></path>
<path d="M1897.5 408h8.5"></path>
<rect x="1809.5" y="397" width="88" height="22" rx="10" ry="10"></rect>
<text x="1853.5" y="412">"TO ONE"</text>
</g>
<path d="M1906 408h20"></path>
<path d="M1789.5 408a10 10 0 0 1 10 10v10a10 10 0 0 0 10 10"></path>
<g class="terminal">
<path d="M1809.5 438h0"></path>
<path d="M1906 438h0"></path>
<rect x="1809.5" y="427" width="96.5" height="22" rx="10" ry="10"></rect>
<text x="1857.75" y="442">"TO MANY"</text>
</g>
<path d="M1906 438a10 10 0 0 0 10 -10v-10a10 10 0 0 1 10 -10"></path>
</g>
<path d="M1926 408h10"></path>
<g class="terminal">
<path d="M1936 408h0"></path>
<path d="M1981.5 408h0"></path>
<rect x="1936" y="397" width="45.5" height="22" rx="10" ry="10"></rect>
<text x="1958.75" y="412">":"</text>
</g>
<path d="M1981.5 408h10"></path>
<path d="M1991.5 408h10"></path>
<g class="non-terminal">
<path d="M2001.5 408h0"></path>
<path d="M2123.5 408h0"></path>
<rect x="2001.5" y="397" width="122" height="22"></rect>
<a xlink:href="#/cds/expression/CDSCondition"><text x="2062.5" y="412">CDSCondition</text>
</a>
</g>
<path d="M2123.5 408h10"></path>
<path d="M2133.5 408h10"></path>
<g class="terminal">
<path d="M2143.5 408h0"></path>
<path d="M2189 408h0"></path>
<rect x="2143.5" y="397" width="45.5" height="22" rx="10" ry="10"></rect>
<text x="2166.25" y="412">"&#93;"</text>
</g>
</g>
<path d="M2463.5 408a10 10 0 0 0 10 -10v-340a10 10 0 0 1 10 -10"></path>
<path d="M1714 48a10 10 0 0 1 10 10v400a10 10 0 0 0 10 10"></path>
<g>
<path d="M1734 468h0"></path>
<path d="M2463.5 468h0"></path>
<g class="terminal">
<path d="M1734 468h0"></path>
<path d="M1779.5 468h0"></path>
<rect x="1734" y="457" width="45.5" height="22" rx="10" ry="10"></rect>
<text x="1756.75" y="472">"&#91;"</text>
</g>
<path d="M1779.5 468h10"></path>
<path d="M1789.5 468h10"></path>
<g>
<path d="M1799.5 468h0"></path>
<path d="M2190.5 468h0"></path>
<g class="non-terminal">
<path d="M1799.5 468h0"></path>
<path d="M1904.5 468h0"></path>
<rect x="1799.5" y="457" width="105" height="22"></rect>
<a xlink:href="#/cds/expression/CDSInteger"><text x="1852" y="472">CDSInteger</text>
</a>
</g>
<path d="M1904.5 468h10"></path>
<path d="M1914.5 468h10"></path>
<g class="terminal">
<path d="M1924.5 468h0"></path>
<path d="M1970 468h0"></path>
<rect x="1924.5" y="457" width="45.5" height="22" rx="10" ry="10"></rect>
<text x="1947.25" y="472">"."</text>
</g>
<path d="M1970 468h10"></path>
<path d="M1980 468h10"></path>
<g class="terminal">
<path d="M1990 468h0"></path>
<path d="M2035.5 468h0"></path>
<rect x="1990" y="457" width="45.5" height="22" rx="10" ry="10"></rect>
<text x="2012.75" y="472">"."</text>
</g>
<path d="M2035.5 468h10"></path>
<g>
<path d="M2045.5 468h0"></path>
<path d="M2190.5 468h0"></path>
<path d="M2045.5 468h20"></path>
<g class="non-terminal">
<path d="M2065.5 468h0"></path>
<path d="M2170.5 468h0"></path>
<rect x="2065.5" y="457" width="105" height="22"></rect>
<a xlink:href="#/cds/expression/CDSInteger"><text x="2118" y="472">CDSInteger</text>
</a>
</g>
<path d="M2170.5 468h20"></path>
<path d="M2045.5 468a10 10 0 0 1 10 10v10a10 10 0 0 0 10 10"></path>
<g class="terminal">
<path d="M2065.5 498h0"></path>
<path d="M2111 498h59.5"></path>
<rect x="2065.5" y="487" width="45.5" height="22" rx="10" ry="10"></rect>
<text x="2088.25" y="502">"&#42;"</text>
</g>
<path d="M2170.5 498a10 10 0 0 0 10 -10v-10a10 10 0 0 1 10 -10"></path>
</g>
</g>
<path d="M2190.5 468h10"></path>
<path d="M2200.5 468h10"></path>
<g class="terminal">
<path d="M2210.5 468h0"></path>
<path d="M2256 468h0"></path>
<rect x="2210.5" y="457" width="45.5" height="22" rx="10" ry="10"></rect>
<text x="2233.25" y="472">":"</text>
</g>
<path d="M2256 468h10"></path>
<path d="M2266 468h10"></path>
<g class="non-terminal">
<path d="M2276 468h0"></path>
<path d="M2398 468h0"></path>
<rect x="2276" y="457" width="122" height="22"></rect>
<a xlink:href="#/cds/expression/CDSCondition"><text x="2337" y="472">CDSCondition</text>
</a>
</g>
<path d="M2398 468h10"></path>
<path d="M2408 468h10"></path>
<g class="terminal">
<path d="M2418 468h0"></path>
<path d="M2463.5 468h0"></path>
<rect x="2418" y="457" width="45.5" height="22" rx="10" ry="10"></rect>
<text x="2440.75" y="472">"&#93;"</text>
</g>
</g>
<path d="M2463.5 468a10 10 0 0 0 10 -10v-400a10 10 0 0 1 10 -10"></path>
<path d="M1714 48a10 10 0 0 1 10 10v460a10 10 0 0 0 10 10"></path>
<g>
<path d="M1734 528h0"></path>
<path d="M2197.5 528h266"></path>
<g class="terminal">
<path d="M1734 528h0"></path>
<path d="M1779.5 528h0"></path>
<rect x="1734" y="517" width="45.5" height="22" rx="10" ry="10"></rect>
<text x="1756.75" y="532">"&#91;"</text>
</g>
<path d="M1779.5 528h10"></path>
<g>
<path d="M1789.5 528h0"></path>
<path d="M1934.5 528h0"></path>
<path d="M1789.5 528h20"></path>
<g class="non-terminal">
<path d="M1809.5 528h0"></path>
<path d="M1914.5 528h0"></path>
<rect x="1809.5" y="517" width="105" height="22"></rect>
<a xlink:href="#/cds/expression/CDSInteger"><text x="1862" y="532">CDSInteger</text>
</a>
</g>
<path d="M1914.5 528h20"></path>
<path d="M1789.5 528a10 10 0 0 1 10 10v10a10 10 0 0 0 10 10"></path>
<g class="terminal">
<path d="M1809.5 558h0"></path>
<path d="M1855 558h59.5"></path>
<rect x="1809.5" y="547" width="45.5" height="22" rx="10" ry="10"></rect>
<text x="1832.25" y="562">"&#42;"</text>
</g>
<path d="M1914.5 558a10 10 0 0 0 10 -10v-10a10 10 0 0 1 10 -10"></path>
</g>
<path d="M1934.5 528h10"></path>
<g class="terminal">
<path d="M1944.5 528h0"></path>
<path d="M1990 528h0"></path>
<rect x="1944.5" y="517" width="45.5" height="22" rx="10" ry="10"></rect>
<text x="1967.25" y="532">":"</text>
</g>
<path d="M1990 528h10"></path>
<path d="M2000 528h10"></path>
<g class="non-terminal">
<path d="M2010 528h0"></path>
<path d="M2132 528h0"></path>
<rect x="2010" y="517" width="122" height="22"></rect>
<a xlink:href="#/cds/expression/CDSCondition"><text x="2071" y="532">CDSCondition</text>
</a>
</g>
<path d="M2132 528h10"></path>
<path d="M2142 528h10"></path>
<g class="terminal">
<path d="M2152 528h0"></path>
<path d="M2197.5 528h0"></path>
<rect x="2152" y="517" width="45.5" height="22" rx="10" ry="10"></rect>
<text x="2174.75" y="532">"&#93;"</text>
</g>
</g>
<path d="M2463.5 528a10 10 0 0 0 10 -10v-460a10 10 0 0 1 10 -10"></path>
<path d="M1714 48a10 10 0 0 1 10 10v520a10 10 0 0 0 10 10"></path>
<g>
<path d="M1734 588h0"></path>
<path d="M1987 588h476.5"></path>
<g class="terminal">
<path d="M1734 588h0"></path>
<path d="M1779.5 588h0"></path>
<rect x="1734" y="577" width="45.5" height="22" rx="10" ry="10"></rect>
<text x="1756.75" y="592">"&#91;"</text>
</g>
<path d="M1779.5 588h10"></path>
<path d="M1789.5 588h10"></path>
<g class="non-terminal">
<path d="M1799.5 588h0"></path>
<path d="M1921.5 588h0"></path>
<rect x="1799.5" y="577" width="122" height="22"></rect>
<a xlink:href="#/cds/expression/CDSCondition"><text x="1860.5" y="592">CDSCondition</text>
</a>
</g>
<path d="M1921.5 588h10"></path>
<path d="M1931.5 588h10"></path>
<g class="terminal">
<path d="M1941.5 588h0"></path>
<path d="M1987 588h0"></path>
<rect x="1941.5" y="577" width="45.5" height="22" rx="10" ry="10"></rect>
<text x="1964.25" y="592">"&#93;"</text>
</g>
</g>
<path d="M2463.5 588a10 10 0 0 0 10 -10v-520a10 10 0 0 1 10 -10"></path>
</g>
<path d="M2483.5 48h20"></path>
</g>
</g>
<path d="M2503.5 48h10"></path>
<path d="M1240.5 48a10 10 0 0 0 -10 10v539a10 10 0 0 0 10 10"></path>
<g>
<path d="M1240.5 607h1263"></path>
</g>
<path d="M2503.5 607a10 10 0 0 0 10 -10v-539a10 10 0 0 0 -10 -10"></path>
</g>
<path d="M2513.5 48h20"></path>
</g>
</g>
<path d="M2533.5 48h10"></path>
<path d="M 2543.5 48 h 20 m 0 -10 v 20"></path>
</g>
</svg>
