<svg xmlns="http://www.w3.org/2000/svg" xmlns:xlink="http://www.w3.org/1999/xlink" class="railroad-diagram" width="1890.5" height="139" viewBox="0 0 1890.5 139">
<defs>
<style type="text/css"><![CDATA[
path {
stroke-width: 3;
stroke: black;
fill: rgba(0,0,0,0);
}
text {
font: bold 14px monospace;
text-anchor: middle;
}
text.diagram-text {
font-size: 12px;
}
a {
fill: blue;
}
text.diagram-arrow {
font-size: 16px;
}
text.label {
text-anchor: start;
}
text.comment {
font: italic 12px monospace;
}
rect {
stroke-width: 3;
stroke: black;
fill: #BCBCBC;
}
path.diagram-text {
stroke-width: 3;
stroke: black;
fill: #BCBCBC;
cursor: help;
}
]]></style>
</defs>
<g transform="translate(.5 .5)">
<g>
<path d="M20 30v20m0 -10h20"></path>
</g>
<path d="M40 40h10"></path>
<g>
<path d="M50 40h0"></path>
<path d="M1840.5 40h0"></path>
<g>
<path d="M50 40h0"></path>
<path d="M240.5 40h0"></path>
<path d="M50 40a10 10 0 0 0 10 -10v0a10 10 0 0 1 10 -10"></path>
<g>
<path d="M70 20h150.5"></path>
</g>
<path d="M220.5 20a10 10 0 0 1 10 10v0a10 10 0 0 0 10 10"></path>
<path d="M50 40h20"></path>
<g>
<path d="M70 40h0"></path>
<path d="M220.5 40h0"></path>
<path d="M70 40h10"></path>
<g class="non-terminal">
<path d="M80 40h0"></path>
<path d="M210.5 40h0"></path>
<rect x="80" y="29" width="130.5" height="22"></rect>
<a xlink:href="#/cds/expression/CDSAnnotation"><text x="145.25" y="44">CDSAnnotation</text>
</a>
</g>
<path d="M210.5 40h10"></path>
<path d="M80 40a10 10 0 0 0 -10 10v0a10 10 0 0 0 10 10"></path>
<g>
<path d="M80 60h130.5"></path>
</g>
<path d="M210.5 60a10 10 0 0 0 10 -10v0a10 10 0 0 0 -10 -10"></path>
</g>
<path d="M220.5 40h20"></path>
</g>
<path d="M240.5 40h10"></path>
<g class="terminal">
<path d="M250.5 40h0"></path>
<path d="M338.5 40h0"></path>
<rect x="250.5" y="29" width="88" height="22" rx="10" ry="10"></rect>
<text x="294.5" y="44">"DEFINE"</text>
</g>
<path d="M338.5 40h10"></path>
<g>
<path d="M348.5 40h0"></path>
<path d="M459.5 40h0"></path>
<path d="M348.5 40a10 10 0 0 0 10 -10v0a10 10 0 0 1 10 -10"></path>
<g>
<path d="M368.5 20h71"></path>
</g>
<path d="M439.5 20a10 10 0 0 1 10 10v0a10 10 0 0 0 10 10"></path>
<path d="M348.5 40h20"></path>
<g class="terminal">
<path d="M368.5 40h0"></path>
<path d="M439.5 40h0"></path>
<rect x="368.5" y="29" width="71" height="22" rx="10" ry="10"></rect>
<text x="404" y="44">"ROOT"</text>
</g>
<path d="M439.5 40h20"></path>
</g>
<path d="M459.5 40h10"></path>
<g class="terminal">
<path d="M469.5 40h0"></path>
<path d="M617 40h0"></path>
<rect x="469.5" y="29" width="147.5" height="22" rx="10" ry="10"></rect>
<text x="543.25" y="44">"CUSTOM ENTITY"</text>
</g>
<path d="M617 40h10"></path>
<path d="M627 40h10"></path>
<g class="non-terminal">
<path d="M637 40h0"></path>
<path d="M716.5 40h0"></path>
<rect x="637" y="29" width="79.5" height="22"></rect>
<a xlink:href="#/cds/expression/CDSName"><text x="676.75" y="44">CDSName</text>
</a>
</g>
<path d="M716.5 40h10"></path>
<g>
<path d="M726.5 40h0"></path>
<path d="M931 40h0"></path>
<path d="M726.5 40a10 10 0 0 0 10 -10v0a10 10 0 0 1 10 -10"></path>
<g>
<path d="M746.5 20h164.5"></path>
</g>
<path d="M911 20a10 10 0 0 1 10 10v0a10 10 0 0 0 10 10"></path>
<path d="M726.5 40h20"></path>
<g class="non-terminal">
<path d="M746.5 40h0"></path>
<path d="M911 40h0"></path>
<rect x="746.5" y="29" width="164.5" height="22"></rect>
<a xlink:href="#/cds/expression/CDSWithParameters"><text x="828.75" y="44">CDSWithParameters</text>
</a>
</g>
<path d="M911 40h20"></path>
</g>
<path d="M931 40h10"></path>
<g class="terminal">
<path d="M941 40h0"></path>
<path d="M986.5 40h0"></path>
<rect x="941" y="29" width="45.5" height="22" rx="10" ry="10"></rect>
<text x="963.75" y="44">"{"</text>
</g>
<path d="M986.5 40h10"></path>
<path d="M996.5 40h10"></path>
<g>
<path d="M1006.5 40h0"></path>
<path d="M1679.5 40h0"></path>
<path d="M1006.5 40h10"></path>
<g>
<path d="M1016.5 40h0"></path>
<path d="M1669.5 40h0"></path>
<g>
<path d="M1016.5 40h0"></path>
<path d="M1207 40h0"></path>
<path d="M1016.5 40a10 10 0 0 0 10 -10v0a10 10 0 0 1 10 -10"></path>
<g>
<path d="M1036.5 20h150.5"></path>
</g>
<path d="M1187 20a10 10 0 0 1 10 10v0a10 10 0 0 0 10 10"></path>
<path d="M1016.5 40h20"></path>
<g>
<path d="M1036.5 40h0"></path>
<path d="M1187 40h0"></path>
<path d="M1036.5 40h10"></path>
<g class="non-terminal">
<path d="M1046.5 40h0"></path>
<path d="M1177 40h0"></path>
<rect x="1046.5" y="29" width="130.5" height="22"></rect>
<a xlink:href="#/cds/expression/CDSAnnotation"><text x="1111.75" y="44">CDSAnnotation</text>
</a>
</g>
<path d="M1177 40h10"></path>
<path d="M1046.5 40a10 10 0 0 0 -10 10v0a10 10 0 0 0 10 10"></path>
<g>
<path d="M1046.5 60h130.5"></path>
</g>
<path d="M1177 60a10 10 0 0 0 10 -10v0a10 10 0 0 0 -10 -10"></path>
</g>
<path d="M1187 40h20"></path>
</g>
<g>
<path d="M1207 40h0"></path>
<path d="M1669.5 40h0"></path>
<path d="M1207 40h20"></path>
<g>
<path d="M1227 40h0"></path>
<path d="M1649.5 40h0"></path>
<g>
<path d="M1227 40h0"></path>
<path d="M1329.5 40h0"></path>
<path d="M1227 40a10 10 0 0 0 10 -10v0a10 10 0 0 1 10 -10"></path>
<g>
<path d="M1247 20h62.5"></path>
</g>
<path d="M1309.5 20a10 10 0 0 1 10 10v0a10 10 0 0 0 10 10"></path>
<path d="M1227 40h20"></path>
<g class="terminal">
<path d="M1247 40h0"></path>
<path d="M1309.5 40h0"></path>
<rect x="1247" y="29" width="62.5" height="22" rx="10" ry="10"></rect>
<text x="1278.25" y="44">"KEY"</text>
</g>
<path d="M1309.5 40h20"></path>
</g>
<path d="M1329.5 40h10"></path>
<g class="non-terminal">
<path d="M1339.5 40h0"></path>
<path d="M1419 40h0"></path>
<rect x="1339.5" y="29" width="79.5" height="22"></rect>
<a xlink:href="#/cds/expression/CDSName"><text x="1379.25" y="44">CDSName</text>
</a>
</g>
<path d="M1419 40h10"></path>
<path d="M1429 40h10"></path>
<g class="terminal">
<path d="M1439 40h0"></path>
<path d="M1484.5 40h0"></path>
<rect x="1439" y="29" width="45.5" height="22" rx="10" ry="10"></rect>
<text x="1461.75" y="44">":"</text>
</g>
<path d="M1484.5 40h10"></path>
<path d="M1494.5 40h10"></path>
<g class="non-terminal">
<path d="M1504.5 40h0"></path>
<path d="M1584 40h0"></path>
<rect x="1504.5" y="29" width="79.5" height="22"></rect>
<a xlink:href="#/cds/expression/CDSType"><text x="1544.25" y="44">CDSType</text>
</a>
</g>
<path d="M1584 40h10"></path>
<path d="M1594 40h10"></path>
<g class="terminal">
<path d="M1604 40h0"></path>
<path d="M1649.5 40h0"></path>
<rect x="1604" y="29" width="45.5" height="22" rx="10" ry="10"></rect>
<text x="1626.75" y="44">";"</text>
</g>
</g>
<path d="M1649.5 40h20"></path>
<path d="M1207 40a10 10 0 0 1 10 10v10a10 10 0 0 0 10 10"></path>
<g>
<path d="M1227 70h0"></path>
<path d="M1616.5 70h33"></path>
<g class="non-terminal">
<path d="M1227 70h0"></path>
<path d="M1306.5 70h0"></path>
<rect x="1227" y="59" width="79.5" height="22"></rect>
<a xlink:href="#/cds/expression/CDSName"><text x="1266.75" y="74">CDSName</text>
</a>
</g>
<path d="M1306.5 70h10"></path>
<path d="M1316.5 70h10"></path>
<g class="terminal">
<path d="M1326.5 70h0"></path>
<path d="M1372 70h0"></path>
<rect x="1326.5" y="59" width="45.5" height="22" rx="10" ry="10"></rect>
<text x="1349.25" y="74">":"</text>
</g>
<path d="M1372 70h10"></path>
<g>
<path d="M1382 70h0"></path>
<path d="M1561 70h0"></path>
<path d="M1382 70h20"></path>
<g class="non-terminal">
<path d="M1402 70h0"></path>
<path d="M1541 70h0"></path>
<rect x="1402" y="59" width="139" height="22"></rect>
<a xlink:href="#/cds/expression/CDSComposition"><text x="1471.5" y="74">CDSComposition</text>
</a>
</g>
<path d="M1541 70h20"></path>
<path d="M1382 70a10 10 0 0 1 10 10v10a10 10 0 0 0 10 10"></path>
<g class="non-terminal">
<path d="M1402 100h0"></path>
<path d="M1541 100h0"></path>
<rect x="1402" y="89" width="139" height="22"></rect>
<a xlink:href="#/cds/expression/CDSAssociation"><text x="1471.5" y="104">CDSAssociation</text>
</a>
</g>
<path d="M1541 100a10 10 0 0 0 10 -10v-10a10 10 0 0 1 10 -10"></path>
</g>
<path d="M1561 70h10"></path>
<g class="terminal">
<path d="M1571 70h0"></path>
<path d="M1616.5 70h0"></path>
<rect x="1571" y="59" width="45.5" height="22" rx="10" ry="10"></rect>
<text x="1593.75" y="74">";"</text>
</g>
</g>
<path d="M1649.5 70a10 10 0 0 0 10 -10v-10a10 10 0 0 1 10 -10"></path>
</g>
</g>
<path d="M1669.5 40h10"></path>
<path d="M1016.5 40a10 10 0 0 0 -10 10v59a10 10 0 0 0 10 10"></path>
<g>
<path d="M1016.5 119h653"></path>
</g>
<path d="M1669.5 119a10 10 0 0 0 10 -10v-59a10 10 0 0 0 -10 -10"></path>
</g>
<path d="M1679.5 40h10"></path>
<path d="M1689.5 40h10"></path>
<g class="terminal">
<path d="M1699.5 40h0"></path>
<path d="M1745 40h0"></path>
<rect x="1699.5" y="29" width="45.5" height="22" rx="10" ry="10"></rect>
<text x="1722.25" y="44">"}"</text>
</g>
<path d="M1745 40h10"></path>
<g>
<path d="M1755 40h0"></path>
<path d="M1840.5 40h0"></path>
<path d="M1755 40a10 10 0 0 0 10 -10v0a10 10 0 0 1 10 -10"></path>
<g>
<path d="M1775 20h45.5"></path>
</g>
<path d="M1820.5 20a10 10 0 0 1 10 10v0a10 10 0 0 0 10 10"></path>
<path d="M1755 40h20"></path>
<g class="terminal">
<path d="M1775 40h0"></path>
<path d="M1820.5 40h0"></path>
<rect x="1775" y="29" width="45.5" height="22" rx="10" ry="10"></rect>
<text x="1797.75" y="44">";"</text>
</g>
<path d="M1820.5 40h20"></path>
</g>
</g>
<path d="M1840.5 40h10"></path>
<path d="M 1850.5 40 h 20 m 0 -10 v 20"></path>
</g>
</svg>
