<svg xmlns="http://www.w3.org/2000/svg" xmlns:xlink="http://www.w3.org/1999/xlink" class="railroad-diagram" width="1298.5" height="388" viewBox="0 0 1298.5 388">
<defs>
<style type="text/css"><![CDATA[
path {
stroke-width: 3;
stroke: black;
fill: rgba(0,0,0,0);
}
text {
font: bold 14px monospace;
text-anchor: middle;
}
text.diagram-text {
font-size: 12px;
}
a {
fill: blue;
}
text.diagram-arrow {
font-size: 16px;
}
text.label {
text-anchor: start;
}
text.comment {
font: italic 12px monospace;
}
rect {
stroke-width: 3;
stroke: black;
fill: #BCBCBC;
}
path.diagram-text {
stroke-width: 3;
stroke: black;
fill: #BCBCBC;
cursor: help;
}
]]></style>
</defs>
<g transform="translate(.5 .5)">
<g>
<path d="M20 30v20m0 -10h20"></path>
</g>
<path d="M40 40h10"></path>
<g>
<path d="M50 40h0"></path>
<path d="M1248.5 40h0"></path>
<g>
<path d="M50 40h0"></path>
<path d="M240.5 40h0"></path>
<path d="M50 40a10 10 0 0 0 10 -10v0a10 10 0 0 1 10 -10"></path>
<g>
<path d="M70 20h150.5"></path>
</g>
<path d="M220.5 20a10 10 0 0 1 10 10v0a10 10 0 0 0 10 10"></path>
<path d="M50 40h20"></path>
<g>
<path d="M70 40h0"></path>
<path d="M220.5 40h0"></path>
<path d="M70 40h10"></path>
<g class="non-terminal">
<path d="M80 40h0"></path>
<path d="M210.5 40h0"></path>
<rect x="80" y="29" width="130.5" height="22"></rect>
<a xlink:href="#/cds/expression/CDSAnnotation"><text x="145.25" y="44">CDSAnnotation</text>
</a>
</g>
<path d="M210.5 40h10"></path>
<path d="M80 40a10 10 0 0 0 -10 10v0a10 10 0 0 0 10 10"></path>
<g>
<path d="M80 60h130.5"></path>
</g>
<path d="M210.5 60a10 10 0 0 0 10 -10v0a10 10 0 0 0 -10 -10"></path>
</g>
<path d="M220.5 40h20"></path>
</g>
<g>
<path d="M240.5 40h0"></path>
<path d="M343 40h0"></path>
<path d="M240.5 40a10 10 0 0 0 10 -10v0a10 10 0 0 1 10 -10"></path>
<g>
<path d="M260.5 20h62.5"></path>
</g>
<path d="M323 20a10 10 0 0 1 10 10v0a10 10 0 0 0 10 10"></path>
<path d="M240.5 40h20"></path>
<g class="terminal">
<path d="M260.5 40h0"></path>
<path d="M323 40h0"></path>
<rect x="260.5" y="29" width="62.5" height="22" rx="10" ry="10"></rect>
<text x="291.75" y="44">"KEY"</text>
</g>
<path d="M323 40h20"></path>
</g>
<g>
<path d="M343 40h0"></path>
<path d="M1146 40h0"></path>
<path d="M343 40h20"></path>
<g class="non-terminal">
<path d="M363 40h0"></path>
<path d="M485 40h641"></path>
<rect x="363" y="29" width="122" height="22"></rect>
<a xlink:href="#/cds/expression/CDSAggregate"><text x="424" y="44">CDSAggregate</text>
</a>
</g>
<path d="M1126 40h20"></path>
<path d="M343 40a10 10 0 0 1 10 10v10a10 10 0 0 0 10 10"></path>
<g class="non-terminal">
<path d="M363 70h0"></path>
<path d="M459.5 70h666.5"></path>
<rect x="363" y="59" width="96.5" height="22"></rect>
<a xlink:href="#/cds/expression/CDSString"><text x="411.25" y="74">CDSString</text>
</a>
</g>
<path d="M1126 70a10 10 0 0 0 10 -10v-10a10 10 0 0 1 10 -10"></path>
<path d="M343 40a10 10 0 0 1 10 10v40a10 10 0 0 0 10 10"></path>
<g class="non-terminal">
<path d="M363 100h0"></path>
<path d="M502 100h624"></path>
<rect x="363" y="89" width="139" height="22"></rect>
<a xlink:href="#/cds/expression/CDSArithmetics"><text x="432.5" y="104">CDSArithmetics</text>
</a>
</g>
<path d="M1126 100a10 10 0 0 0 10 -10v-40a10 10 0 0 1 10 -10"></path>
<path d="M343 40a10 10 0 0 1 10 10v70a10 10 0 0 0 10 10"></path>
<g class="non-terminal">
<path d="M363 130h0"></path>
<path d="M476.5 130h649.5"></path>
<rect x="363" y="119" width="113.5" height="22"></rect>
<a xlink:href="#/cds/expression/CDSFunction"><text x="419.75" y="134">CDSFunction</text>
</a>
</g>
<path d="M1126 130a10 10 0 0 0 10 -10v-70a10 10 0 0 1 10 -10"></path>
<path d="M343 40a10 10 0 0 1 10 10v100a10 10 0 0 0 10 10"></path>
<g class="non-terminal">
<path d="M363 160h0"></path>
<path d="M442.5 160h683.5"></path>
<rect x="363" y="149" width="79.5" height="22"></rect>
<a xlink:href="#/cds/expression/CDSCast"><text x="402.75" y="164">CDSCast</text>
</a>
</g>
<path d="M1126 160a10 10 0 0 0 10 -10v-100a10 10 0 0 1 10 -10"></path>
<path d="M343 40a10 10 0 0 1 10 10v130a10 10 0 0 0 10 10"></path>
<g class="non-terminal">
<path d="M363 190h0"></path>
<path d="M442.5 190h683.5"></path>
<rect x="363" y="179" width="79.5" height="22"></rect>
<a xlink:href="#/cds/expression/CDSCase"><text x="402.75" y="194">CDSCase</text>
</a>
</g>
<path d="M1126 190a10 10 0 0 0 10 -10v-130a10 10 0 0 1 10 -10"></path>
<path d="M343 40a10 10 0 0 1 10 10v160a10 10 0 0 0 10 10"></path>
<g>
<path d="M363 220h0"></path>
<path d="M573.5 220h552.5"></path>
<g class="terminal">
<path d="M363 220h0"></path>
<path d="M408.5 220h0"></path>
<rect x="363" y="209" width="45.5" height="22" rx="10" ry="10"></rect>
<text x="385.75" y="224">"("</text>
</g>
<path d="M408.5 220h10"></path>
<path d="M418.5 220h10"></path>
<g class="non-terminal">
<path d="M428.5 220h0"></path>
<path d="M508 220h0"></path>
<rect x="428.5" y="209" width="79.5" height="22"></rect>
<a xlink:href="#/cds/expression/CDSCase"><text x="468.25" y="224">CDSCase</text>
</a>
</g>
<path d="M508 220h10"></path>
<path d="M518 220h10"></path>
<g class="terminal">
<path d="M528 220h0"></path>
<path d="M573.5 220h0"></path>
<rect x="528" y="209" width="45.5" height="22" rx="10" ry="10"></rect>
<text x="550.75" y="224">")"</text>
</g>
</g>
<path d="M1126 220a10 10 0 0 0 10 -10v-160a10 10 0 0 1 10 -10"></path>
<path d="M343 40a10 10 0 0 1 10 10v207a10 10 0 0 0 10 10"></path>
<g>
<path d="M363 267h0"></path>
<path d="M1126 267h0"></path>
<g class="non-terminal">
<path d="M363 267h0"></path>
<path d="M510.5 267h0"></path>
<rect x="363" y="256" width="147.5" height="22"></rect>
<a xlink:href="#/cds/expression/CDSPrefixedName"><text x="436.75" y="271">CDSPrefixedName</text>
</a>
</g>
<path d="M510.5 267h10"></path>
<g>
<path d="M520.5 267h0"></path>
<path d="M1126 267h0"></path>
<path d="M520.5 267a10 10 0 0 0 10 -10v-8a10 10 0 0 1 10 -10"></path>
<g>
<path d="M540.5 239h565.5"></path>
</g>
<path d="M1106 239a10 10 0 0 1 10 10v8a10 10 0 0 0 10 10"></path>
<path d="M520.5 267h20"></path>
<g>
<path d="M540.5 267h0"></path>
<path d="M1106 267h0"></path>
<path d="M540.5 267h20"></path>
<g>
<path d="M560.5 267h0"></path>
<path d="M1086 267h0"></path>
<g class="terminal">
<path d="M560.5 267h0"></path>
<path d="M725 267h0"></path>
<rect x="560.5" y="256" width="164.5" height="22" rx="10" ry="10"></rect>
<text x="642.75" y="271">": REDIRECTED TO"</text>
</g>
<path d="M725 267h10"></path>
<g>
<path d="M735 267h0"></path>
<path d="M996.5 267h0"></path>
<path d="M735 267a10 10 0 0 0 10 -10v0a10 10 0 0 1 10 -10"></path>
<g>
<path d="M755 247h221.5"></path>
</g>
<path d="M976.5 247a10 10 0 0 1 10 10v0a10 10 0 0 0 10 10"></path>
<path d="M735 267h20"></path>
<g>
<path d="M755 267h0"></path>
<path d="M976.5 267h0"></path>
<path d="M755 267h20"></path>
<g class="terminal">
<path d="M775 267h0"></path>
<path d="M863 267h93.5"></path>
<rect x="775" y="256" width="88" height="22" rx="10" ry="10"></rect>
<text x="819" y="271">"PARENT"</text>
</g>
<path d="M956.5 267h20"></path>
<path d="M755 267a10 10 0 0 1 10 10v10a10 10 0 0 0 10 10"></path>
<g class="terminal">
<path d="M775 297h0"></path>
<path d="M956.5 297h0"></path>
<rect x="775" y="286" width="181.5" height="22" rx="10" ry="10"></rect>
<text x="865.75" y="301">"COMPOSITION CHILD"</text>
</g>
<path d="M956.5 297a10 10 0 0 0 10 -10v-10a10 10 0 0 1 10 -10"></path>
</g>
<path d="M976.5 267h20"></path>
</g>
<path d="M996.5 267h10"></path>
<g class="non-terminal">
<path d="M1006.5 267h0"></path>
<path d="M1086 267h0"></path>
<rect x="1006.5" y="256" width="79.5" height="22"></rect>
<a xlink:href="#/cds/expression/CDSName"><text x="1046.25" y="271">CDSName</text>
</a>
</g>
</g>
<path d="M1086 267h20"></path>
<path d="M540.5 267a10 10 0 0 1 10 10v40a10 10 0 0 0 10 10"></path>
<g>
<path d="M560.5 327h0"></path>
<path d="M705.5 327h380.5"></path>
<g class="terminal">
<path d="M560.5 327h0"></path>
<path d="M606 327h0"></path>
<rect x="560.5" y="316" width="45.5" height="22" rx="10" ry="10"></rect>
<text x="583.25" y="331">":"</text>
</g>
<path d="M606 327h10"></path>
<path d="M616 327h10"></path>
<g class="non-terminal">
<path d="M626 327h0"></path>
<path d="M705.5 327h0"></path>
<rect x="626" y="316" width="79.5" height="22"></rect>
<a xlink:href="#/cds/expression/CDSName"><text x="665.75" y="331">CDSName</text>
</a>
</g>
</g>
<path d="M1086 327a10 10 0 0 0 10 -10v-40a10 10 0 0 1 10 -10"></path>
</g>
<path d="M1106 267h20"></path>
</g>
</g>
<path d="M1126 267a10 10 0 0 0 10 -10v-207a10 10 0 0 1 10 -10"></path>
<path d="M343 40a10 10 0 0 1 10 10v297a10 10 0 0 0 10 10"></path>
<g class="non-terminal">
<path d="M363 357h0"></path>
<path d="M468 357h658"></path>
<rect x="363" y="346" width="105" height="22"></rect>
<a xlink:href="#/cds/expression/CDSInteger"><text x="415.5" y="361">CDSInteger</text>
</a>
</g>
<path d="M1126 357a10 10 0 0 0 10 -10v-297a10 10 0 0 1 10 -10"></path>
</g>
<g>
<path d="M1146 40h0"></path>
<path d="M1248.5 40h0"></path>
<path d="M1146 40a10 10 0 0 0 10 -10v0a10 10 0 0 1 10 -10"></path>
<g>
<path d="M1166 20h62.5"></path>
</g>
<path d="M1228.5 20a10 10 0 0 1 10 10v0a10 10 0 0 0 10 10"></path>
<path d="M1146 40h20"></path>
<g class="non-terminal">
<path d="M1166 40h0"></path>
<path d="M1228.5 40h0"></path>
<rect x="1166" y="29" width="62.5" height="22"></rect>
<a xlink:href="#/cds/expression/CDSAs"><text x="1197.25" y="44">CDSAs</text>
</a>
</g>
<path d="M1228.5 40h20"></path>
</g>
</g>
<path d="M1248.5 40h10"></path>
<path d="M 1258.5 40 h 20 m 0 -10 v 20"></path>
</g>
</svg>
