<svg xmlns="http://www.w3.org/2000/svg" xmlns:xlink="http://www.w3.org/1999/xlink" class="railroad-diagram" width="2105.5" height="849" viewBox="0 0 2105.5 849">
<defs>
<style type="text/css"><![CDATA[
path {
stroke-width: 3;
stroke: black;
fill: rgba(0,0,0,0);
}
text {
font: bold 14px monospace;
text-anchor: middle;
}
text.diagram-text {
font-size: 12px;
}
a {
fill: blue;
}
text.diagram-arrow {
font-size: 16px;
}
text.label {
text-anchor: start;
}
text.comment {
font: italic 12px monospace;
}
rect {
stroke-width: 3;
stroke: black;
fill: #BCBCBC;
}
path.diagram-text {
stroke-width: 3;
stroke: black;
fill: #BCBCBC;
cursor: help;
}
]]></style>
</defs>
<g transform="translate(.5 .5)">
<g>
<path d="M20 30v20m0 -10h20"></path>
</g>
<path d="M40 40h10"></path>
<g>
<path d="M50 40h0"></path>
<path d="M2055.5 40h0"></path>
<g class="terminal">
<path d="M50 40h0"></path>
<path d="M121 40h0"></path>
<rect x="50" y="29" width="71" height="22" rx="10" ry="10"></rect>
<text x="85.5" y="44">"CASE"</text>
</g>
<path d="M121 40h10"></path>
<g>
<path d="M131 40h0"></path>
<path d="M1527.5 40h0"></path>
<path d="M131 40h20"></path>
<g>
<path d="M151 40h0"></path>
<path d="M970.5 40h537"></path>
<path d="M151 40h10"></path>
<g>
<path d="M161 40h0"></path>
<path d="M960.5 40h0"></path>
<g class="terminal">
<path d="M161 40h0"></path>
<path d="M232 40h0"></path>
<rect x="161" y="29" width="71" height="22" rx="10" ry="10"></rect>
<text x="196.5" y="44">"WHEN"</text>
</g>
<path d="M232 40h10"></path>
<path d="M242 40h10"></path>
<g class="non-terminal">
<path d="M252 40h0"></path>
<path d="M374 40h0"></path>
<rect x="252" y="29" width="122" height="22"></rect>
<a xlink:href="#/cds/expression/CDSCondition"><text x="313" y="44">CDSCondition</text>
</a>
</g>
<path d="M374 40h10"></path>
<path d="M384 40h10"></path>
<g class="terminal">
<path d="M394 40h0"></path>
<path d="M465 40h0"></path>
<rect x="394" y="29" width="71" height="22" rx="10" ry="10"></rect>
<text x="429.5" y="44">"THEN"</text>
</g>
<path d="M465 40h10"></path>
<g>
<path d="M475 40h0"></path>
<path d="M960.5 40h0"></path>
<path d="M475 40h20"></path>
<g>
<path d="M495 40h0"></path>
<path d="M940.5 40h0"></path>
<g class="terminal">
<path d="M495 40h0"></path>
<path d="M540.5 40h0"></path>
<rect x="495" y="29" width="45.5" height="22" rx="10" ry="10"></rect>
<text x="517.75" y="44">"("</text>
</g>
<path d="M540.5 40h10"></path>
<g>
<path d="M550.5 40h0"></path>
<path d="M885 40h0"></path>
<path d="M550.5 40h20"></path>
<g class="non-terminal">
<path d="M570.5 40h0"></path>
<path d="M684 40h181"></path>
<rect x="570.5" y="29" width="113.5" height="22"></rect>
<a xlink:href="#/cds/expression/CDSFunction"><text x="627.25" y="44">CDSFunction</text>
</a>
</g>
<path d="M865 40h20"></path>
<path d="M550.5 40a10 10 0 0 1 10 10v10a10 10 0 0 0 10 10"></path>
<g class="non-terminal">
<path d="M570.5 70h0"></path>
<path d="M667 70h198"></path>
<rect x="570.5" y="59" width="96.5" height="22"></rect>
<a xlink:href="#/cds/expression/CDSString"><text x="618.75" y="74">CDSString</text>
</a>
</g>
<path d="M865 70a10 10 0 0 0 10 -10v-10a10 10 0 0 1 10 -10"></path>
<path d="M550.5 40a10 10 0 0 1 10 10v40a10 10 0 0 0 10 10"></path>
<g class="non-terminal">
<path d="M570.5 100h0"></path>
<path d="M650 100h215"></path>
<rect x="570.5" y="89" width="79.5" height="22"></rect>
<a xlink:href="#/cds/expression/CDSCase"><text x="610.25" y="104">CDSCase</text>
</a>
</g>
<path d="M865 100a10 10 0 0 0 10 -10v-40a10 10 0 0 1 10 -10"></path>
<path d="M550.5 40a10 10 0 0 1 10 10v70a10 10 0 0 0 10 10"></path>
<g class="non-terminal">
<path d="M570.5 130h0"></path>
<path d="M650 130h215"></path>
<rect x="570.5" y="119" width="79.5" height="22"></rect>
<a xlink:href="#/cds/expression/CDSCast"><text x="610.25" y="134">CDSCast</text>
</a>
</g>
<path d="M865 130a10 10 0 0 0 10 -10v-70a10 10 0 0 1 10 -10"></path>
<path d="M550.5 40a10 10 0 0 1 10 10v100a10 10 0 0 0 10 10"></path>
<g class="non-terminal">
<path d="M570.5 160h0"></path>
<path d="M709.5 160h155.5"></path>
<rect x="570.5" y="149" width="139" height="22"></rect>
<a xlink:href="#/cds/expression/CDSArithmetics"><text x="640" y="164">CDSArithmetics</text>
</a>
</g>
<path d="M865 160a10 10 0 0 0 10 -10v-100a10 10 0 0 1 10 -10"></path>
<path d="M550.5 40a10 10 0 0 1 10 10v139a10 10 0 0 0 10 10"></path>
<g>
<path d="M570.5 199h0"></path>
<path d="M865 199h0"></path>
<g class="non-terminal">
<path d="M570.5 199h0"></path>
<path d="M650 199h0"></path>
<rect x="570.5" y="188" width="79.5" height="22"></rect>
<a xlink:href="#/cds/expression/CDSName"><text x="610.25" y="203">CDSName</text>
</a>
</g>
<path d="M650 199h10"></path>
<g>
<path d="M660 199h0"></path>
<path d="M865 199h0"></path>
<path d="M660 199a10 10 0 0 0 10 -10v0a10 10 0 0 1 10 -10"></path>
<g>
<path d="M680 179h165"></path>
</g>
<path d="M845 179a10 10 0 0 1 10 10v0a10 10 0 0 0 10 10"></path>
<path d="M660 199h20"></path>
<g>
<path d="M680 199h0"></path>
<path d="M845 199h0"></path>
<path d="M680 199h10"></path>
<g>
<path d="M690 199h0"></path>
<path d="M835 199h0"></path>
<g class="terminal">
<path d="M690 199h0"></path>
<path d="M735.5 199h0"></path>
<rect x="690" y="188" width="45.5" height="22" rx="10" ry="10"></rect>
<text x="712.75" y="203">"."</text>
</g>
<path d="M735.5 199h10"></path>
<path d="M745.5 199h10"></path>
<g class="non-terminal">
<path d="M755.5 199h0"></path>
<path d="M835 199h0"></path>
<rect x="755.5" y="188" width="79.5" height="22"></rect>
<a xlink:href="#/cds/expression/CDSName"><text x="795.25" y="203">CDSName</text>
</a>
</g>
</g>
<path d="M835 199h10"></path>
<path d="M690 199a10 10 0 0 0 -10 10v0a10 10 0 0 0 10 10"></path>
<g>
<path d="M690 219h145"></path>
</g>
<path d="M835 219a10 10 0 0 0 10 -10v0a10 10 0 0 0 -10 -10"></path>
</g>
<path d="M845 199h20"></path>
</g>
</g>
<path d="M865 199a10 10 0 0 0 10 -10v-139a10 10 0 0 1 10 -10"></path>
</g>
<path d="M885 40h10"></path>
<g class="terminal">
<path d="M895 40h0"></path>
<path d="M940.5 40h0"></path>
<rect x="895" y="29" width="45.5" height="22" rx="10" ry="10"></rect>
<text x="917.75" y="44">")"</text>
</g>
</g>
<path d="M940.5 40h20"></path>
<path d="M475 40a10 10 0 0 1 10 10v178a10 10 0 0 0 10 10"></path>
<g>
<path d="M495 238h0"></path>
<path d="M829.5 238h111"></path>
<path d="M495 238h20"></path>
<g class="non-terminal">
<path d="M515 238h0"></path>
<path d="M628.5 238h181"></path>
<rect x="515" y="227" width="113.5" height="22"></rect>
<a xlink:href="#/cds/expression/CDSFunction"><text x="571.75" y="242">CDSFunction</text>
</a>
</g>
<path d="M809.5 238h20"></path>
<path d="M495 238a10 10 0 0 1 10 10v10a10 10 0 0 0 10 10"></path>
<g class="non-terminal">
<path d="M515 268h0"></path>
<path d="M611.5 268h198"></path>
<rect x="515" y="257" width="96.5" height="22"></rect>
<a xlink:href="#/cds/expression/CDSString"><text x="563.25" y="272">CDSString</text>
</a>
</g>
<path d="M809.5 268a10 10 0 0 0 10 -10v-10a10 10 0 0 1 10 -10"></path>
<path d="M495 238a10 10 0 0 1 10 10v40a10 10 0 0 0 10 10"></path>
<g class="non-terminal">
<path d="M515 298h0"></path>
<path d="M594.5 298h215"></path>
<rect x="515" y="287" width="79.5" height="22"></rect>
<a xlink:href="#/cds/expression/CDSCase"><text x="554.75" y="302">CDSCase</text>
</a>
</g>
<path d="M809.5 298a10 10 0 0 0 10 -10v-40a10 10 0 0 1 10 -10"></path>
<path d="M495 238a10 10 0 0 1 10 10v70a10 10 0 0 0 10 10"></path>
<g class="non-terminal">
<path d="M515 328h0"></path>
<path d="M594.5 328h215"></path>
<rect x="515" y="317" width="79.5" height="22"></rect>
<a xlink:href="#/cds/expression/CDSCast"><text x="554.75" y="332">CDSCast</text>
</a>
</g>
<path d="M809.5 328a10 10 0 0 0 10 -10v-70a10 10 0 0 1 10 -10"></path>
<path d="M495 238a10 10 0 0 1 10 10v100a10 10 0 0 0 10 10"></path>
<g class="non-terminal">
<path d="M515 358h0"></path>
<path d="M654 358h155.5"></path>
<rect x="515" y="347" width="139" height="22"></rect>
<a xlink:href="#/cds/expression/CDSArithmetics"><text x="584.5" y="362">CDSArithmetics</text>
</a>
</g>
<path d="M809.5 358a10 10 0 0 0 10 -10v-100a10 10 0 0 1 10 -10"></path>
<path d="M495 238a10 10 0 0 1 10 10v139a10 10 0 0 0 10 10"></path>
<g>
<path d="M515 397h0"></path>
<path d="M809.5 397h0"></path>
<g class="non-terminal">
<path d="M515 397h0"></path>
<path d="M594.5 397h0"></path>
<rect x="515" y="386" width="79.5" height="22"></rect>
<a xlink:href="#/cds/expression/CDSName"><text x="554.75" y="401">CDSName</text>
</a>
</g>
<path d="M594.5 397h10"></path>
<g>
<path d="M604.5 397h0"></path>
<path d="M809.5 397h0"></path>
<path d="M604.5 397a10 10 0 0 0 10 -10v0a10 10 0 0 1 10 -10"></path>
<g>
<path d="M624.5 377h165"></path>
</g>
<path d="M789.5 377a10 10 0 0 1 10 10v0a10 10 0 0 0 10 10"></path>
<path d="M604.5 397h20"></path>
<g>
<path d="M624.5 397h0"></path>
<path d="M789.5 397h0"></path>
<path d="M624.5 397h10"></path>
<g>
<path d="M634.5 397h0"></path>
<path d="M779.5 397h0"></path>
<g class="terminal">
<path d="M634.5 397h0"></path>
<path d="M680 397h0"></path>
<rect x="634.5" y="386" width="45.5" height="22" rx="10" ry="10"></rect>
<text x="657.25" y="401">"."</text>
</g>
<path d="M680 397h10"></path>
<path d="M690 397h10"></path>
<g class="non-terminal">
<path d="M700 397h0"></path>
<path d="M779.5 397h0"></path>
<rect x="700" y="386" width="79.5" height="22"></rect>
<a xlink:href="#/cds/expression/CDSName"><text x="739.75" y="401">CDSName</text>
</a>
</g>
</g>
<path d="M779.5 397h10"></path>
<path d="M634.5 397a10 10 0 0 0 -10 10v0a10 10 0 0 0 10 10"></path>
<g>
<path d="M634.5 417h145"></path>
</g>
<path d="M779.5 417a10 10 0 0 0 10 -10v0a10 10 0 0 0 -10 -10"></path>
</g>
<path d="M789.5 397h20"></path>
</g>
</g>
<path d="M809.5 397a10 10 0 0 0 10 -10v-139a10 10 0 0 1 10 -10"></path>
</g>
<path d="M940.5 238a10 10 0 0 0 10 -10v-178a10 10 0 0 1 10 -10"></path>
</g>
</g>
<path d="M960.5 40h10"></path>
<path d="M161 40a10 10 0 0 0 -10 10v365a10 10 0 0 0 10 10"></path>
<g>
<path d="M161 425h799.5"></path>
</g>
<path d="M960.5 425a10 10 0 0 0 10 -10v-365a10 10 0 0 0 -10 -10"></path>
</g>
<path d="M1507.5 40h20"></path>
<path d="M131 40a10 10 0 0 1 10 10v384a10 10 0 0 0 10 10"></path>
<g>
<path d="M151 444h0"></path>
<path d="M1507.5 444h0"></path>
<g>
<path d="M151 444h0"></path>
<path d="M485.5 444h0"></path>
<path d="M151 444h20"></path>
<g class="non-terminal">
<path d="M171 444h0"></path>
<path d="M284.5 444h181"></path>
<rect x="171" y="433" width="113.5" height="22"></rect>
<a xlink:href="#/cds/expression/CDSFunction"><text x="227.75" y="448">CDSFunction</text>
</a>
</g>
<path d="M465.5 444h20"></path>
<path d="M151 444a10 10 0 0 1 10 10v19a10 10 0 0 0 10 10"></path>
<g>
<path d="M171 483h0"></path>
<path d="M465.5 483h0"></path>
<g class="non-terminal">
<path d="M171 483h0"></path>
<path d="M250.5 483h0"></path>
<rect x="171" y="472" width="79.5" height="22"></rect>
<a xlink:href="#/cds/expression/CDSName"><text x="210.75" y="487">CDSName</text>
</a>
</g>
<path d="M250.5 483h10"></path>
<g>
<path d="M260.5 483h0"></path>
<path d="M465.5 483h0"></path>
<path d="M260.5 483a10 10 0 0 0 10 -10v0a10 10 0 0 1 10 -10"></path>
<g>
<path d="M280.5 463h165"></path>
</g>
<path d="M445.5 463a10 10 0 0 1 10 10v0a10 10 0 0 0 10 10"></path>
<path d="M260.5 483h20"></path>
<g>
<path d="M280.5 483h0"></path>
<path d="M445.5 483h0"></path>
<path d="M280.5 483h10"></path>
<g>
<path d="M290.5 483h0"></path>
<path d="M435.5 483h0"></path>
<g class="terminal">
<path d="M290.5 483h0"></path>
<path d="M336 483h0"></path>
<rect x="290.5" y="472" width="45.5" height="22" rx="10" ry="10"></rect>
<text x="313.25" y="487">"."</text>
</g>
<path d="M336 483h10"></path>
<path d="M346 483h10"></path>
<g class="non-terminal">
<path d="M356 483h0"></path>
<path d="M435.5 483h0"></path>
<rect x="356" y="472" width="79.5" height="22"></rect>
<a xlink:href="#/cds/expression/CDSName"><text x="395.75" y="487">CDSName</text>
</a>
</g>
</g>
<path d="M435.5 483h10"></path>
<path d="M290.5 483a10 10 0 0 0 -10 10v0a10 10 0 0 0 10 10"></path>
<g>
<path d="M290.5 503h145"></path>
</g>
<path d="M435.5 503a10 10 0 0 0 10 -10v0a10 10 0 0 0 -10 -10"></path>
</g>
<path d="M445.5 483h20"></path>
</g>
</g>
<path d="M465.5 483a10 10 0 0 0 10 -10v-19a10 10 0 0 1 10 -10"></path>
</g>
<path d="M485.5 444h10"></path>
<g>
<path d="M495.5 444h0"></path>
<path d="M1507.5 444h0"></path>
<path d="M495.5 444h10"></path>
<g>
<path d="M505.5 444h0"></path>
<path d="M1497.5 444h0"></path>
<g class="terminal">
<path d="M505.5 444h0"></path>
<path d="M576.5 444h0"></path>
<rect x="505.5" y="433" width="71" height="22" rx="10" ry="10"></rect>
<text x="541" y="448">"WHEN"</text>
</g>
<path d="M576.5 444h10"></path>
<g>
<path d="M586.5 444h0"></path>
<path d="M921 444h0"></path>
<path d="M586.5 444h20"></path>
<g class="non-terminal">
<path d="M606.5 444h0"></path>
<path d="M720 444h181"></path>
<rect x="606.5" y="433" width="113.5" height="22"></rect>
<a xlink:href="#/cds/expression/CDSFunction"><text x="663.25" y="448">CDSFunction</text>
</a>
</g>
<path d="M901 444h20"></path>
<path d="M586.5 444a10 10 0 0 1 10 10v10a10 10 0 0 0 10 10"></path>
<g class="non-terminal">
<path d="M606.5 474h0"></path>
<path d="M703 474h198"></path>
<rect x="606.5" y="463" width="96.5" height="22"></rect>
<a xlink:href="#/cds/expression/CDSString"><text x="654.75" y="478">CDSString</text>
</a>
</g>
<path d="M901 474a10 10 0 0 0 10 -10v-10a10 10 0 0 1 10 -10"></path>
<path d="M586.5 444a10 10 0 0 1 10 10v40a10 10 0 0 0 10 10"></path>
<g class="non-terminal">
<path d="M606.5 504h0"></path>
<path d="M686 504h215"></path>
<rect x="606.5" y="493" width="79.5" height="22"></rect>
<a xlink:href="#/cds/expression/CDSCase"><text x="646.25" y="508">CDSCase</text>
</a>
</g>
<path d="M901 504a10 10 0 0 0 10 -10v-40a10 10 0 0 1 10 -10"></path>
<path d="M586.5 444a10 10 0 0 1 10 10v70a10 10 0 0 0 10 10"></path>
<g class="non-terminal">
<path d="M606.5 534h0"></path>
<path d="M686 534h215"></path>
<rect x="606.5" y="523" width="79.5" height="22"></rect>
<a xlink:href="#/cds/expression/CDSCast"><text x="646.25" y="538">CDSCast</text>
</a>
</g>
<path d="M901 534a10 10 0 0 0 10 -10v-70a10 10 0 0 1 10 -10"></path>
<path d="M586.5 444a10 10 0 0 1 10 10v100a10 10 0 0 0 10 10"></path>
<g class="non-terminal">
<path d="M606.5 564h0"></path>
<path d="M745.5 564h155.5"></path>
<rect x="606.5" y="553" width="139" height="22"></rect>
<a xlink:href="#/cds/expression/CDSArithmetics"><text x="676" y="568">CDSArithmetics</text>
</a>
</g>
<path d="M901 564a10 10 0 0 0 10 -10v-100a10 10 0 0 1 10 -10"></path>
<path d="M586.5 444a10 10 0 0 1 10 10v139a10 10 0 0 0 10 10"></path>
<g>
<path d="M606.5 603h0"></path>
<path d="M901 603h0"></path>
<g class="non-terminal">
<path d="M606.5 603h0"></path>
<path d="M686 603h0"></path>
<rect x="606.5" y="592" width="79.5" height="22"></rect>
<a xlink:href="#/cds/expression/CDSName"><text x="646.25" y="607">CDSName</text>
</a>
</g>
<path d="M686 603h10"></path>
<g>
<path d="M696 603h0"></path>
<path d="M901 603h0"></path>
<path d="M696 603a10 10 0 0 0 10 -10v0a10 10 0 0 1 10 -10"></path>
<g>
<path d="M716 583h165"></path>
</g>
<path d="M881 583a10 10 0 0 1 10 10v0a10 10 0 0 0 10 10"></path>
<path d="M696 603h20"></path>
<g>
<path d="M716 603h0"></path>
<path d="M881 603h0"></path>
<path d="M716 603h10"></path>
<g>
<path d="M726 603h0"></path>
<path d="M871 603h0"></path>
<g class="terminal">
<path d="M726 603h0"></path>
<path d="M771.5 603h0"></path>
<rect x="726" y="592" width="45.5" height="22" rx="10" ry="10"></rect>
<text x="748.75" y="607">"."</text>
</g>
<path d="M771.5 603h10"></path>
<path d="M781.5 603h10"></path>
<g class="non-terminal">
<path d="M791.5 603h0"></path>
<path d="M871 603h0"></path>
<rect x="791.5" y="592" width="79.5" height="22"></rect>
<a xlink:href="#/cds/expression/CDSName"><text x="831.25" y="607">CDSName</text>
</a>
</g>
</g>
<path d="M871 603h10"></path>
<path d="M726 603a10 10 0 0 0 -10 10v0a10 10 0 0 0 10 10"></path>
<g>
<path d="M726 623h145"></path>
</g>
<path d="M871 623a10 10 0 0 0 10 -10v0a10 10 0 0 0 -10 -10"></path>
</g>
<path d="M881 603h20"></path>
</g>
</g>
<path d="M901 603a10 10 0 0 0 10 -10v-139a10 10 0 0 1 10 -10"></path>
</g>
<path d="M921 444h10"></path>
<g class="terminal">
<path d="M931 444h0"></path>
<path d="M1002 444h0"></path>
<rect x="931" y="433" width="71" height="22" rx="10" ry="10"></rect>
<text x="966.5" y="448">"THEN"</text>
</g>
<path d="M1002 444h10"></path>
<g>
<path d="M1012 444h0"></path>
<path d="M1497.5 444h0"></path>
<path d="M1012 444h20"></path>
<g>
<path d="M1032 444h0"></path>
<path d="M1477.5 444h0"></path>
<g class="terminal">
<path d="M1032 444h0"></path>
<path d="M1077.5 444h0"></path>
<rect x="1032" y="433" width="45.5" height="22" rx="10" ry="10"></rect>
<text x="1054.75" y="448">"("</text>
</g>
<path d="M1077.5 444h10"></path>
<g>
<path d="M1087.5 444h0"></path>
<path d="M1422 444h0"></path>
<path d="M1087.5 444h20"></path>
<g class="non-terminal">
<path d="M1107.5 444h0"></path>
<path d="M1221 444h181"></path>
<rect x="1107.5" y="433" width="113.5" height="22"></rect>
<a xlink:href="#/cds/expression/CDSFunction"><text x="1164.25" y="448">CDSFunction</text>
</a>
</g>
<path d="M1402 444h20"></path>
<path d="M1087.5 444a10 10 0 0 1 10 10v10a10 10 0 0 0 10 10"></path>
<g class="non-terminal">
<path d="M1107.5 474h0"></path>
<path d="M1204 474h198"></path>
<rect x="1107.5" y="463" width="96.5" height="22"></rect>
<a xlink:href="#/cds/expression/CDSString"><text x="1155.75" y="478">CDSString</text>
</a>
</g>
<path d="M1402 474a10 10 0 0 0 10 -10v-10a10 10 0 0 1 10 -10"></path>
<path d="M1087.5 444a10 10 0 0 1 10 10v40a10 10 0 0 0 10 10"></path>
<g class="non-terminal">
<path d="M1107.5 504h0"></path>
<path d="M1187 504h215"></path>
<rect x="1107.5" y="493" width="79.5" height="22"></rect>
<a xlink:href="#/cds/expression/CDSCase"><text x="1147.25" y="508">CDSCase</text>
</a>
</g>
<path d="M1402 504a10 10 0 0 0 10 -10v-40a10 10 0 0 1 10 -10"></path>
<path d="M1087.5 444a10 10 0 0 1 10 10v70a10 10 0 0 0 10 10"></path>
<g class="non-terminal">
<path d="M1107.5 534h0"></path>
<path d="M1187 534h215"></path>
<rect x="1107.5" y="523" width="79.5" height="22"></rect>
<a xlink:href="#/cds/expression/CDSCast"><text x="1147.25" y="538">CDSCast</text>
</a>
</g>
<path d="M1402 534a10 10 0 0 0 10 -10v-70a10 10 0 0 1 10 -10"></path>
<path d="M1087.5 444a10 10 0 0 1 10 10v100a10 10 0 0 0 10 10"></path>
<g class="non-terminal">
<path d="M1107.5 564h0"></path>
<path d="M1246.5 564h155.5"></path>
<rect x="1107.5" y="553" width="139" height="22"></rect>
<a xlink:href="#/cds/expression/CDSArithmetics"><text x="1177" y="568">CDSArithmetics</text>
</a>
</g>
<path d="M1402 564a10 10 0 0 0 10 -10v-100a10 10 0 0 1 10 -10"></path>
<path d="M1087.5 444a10 10 0 0 1 10 10v139a10 10 0 0 0 10 10"></path>
<g>
<path d="M1107.5 603h0"></path>
<path d="M1402 603h0"></path>
<g class="non-terminal">
<path d="M1107.5 603h0"></path>
<path d="M1187 603h0"></path>
<rect x="1107.5" y="592" width="79.5" height="22"></rect>
<a xlink:href="#/cds/expression/CDSName"><text x="1147.25" y="607">CDSName</text>
</a>
</g>
<path d="M1187 603h10"></path>
<g>
<path d="M1197 603h0"></path>
<path d="M1402 603h0"></path>
<path d="M1197 603a10 10 0 0 0 10 -10v0a10 10 0 0 1 10 -10"></path>
<g>
<path d="M1217 583h165"></path>
</g>
<path d="M1382 583a10 10 0 0 1 10 10v0a10 10 0 0 0 10 10"></path>
<path d="M1197 603h20"></path>
<g>
<path d="M1217 603h0"></path>
<path d="M1382 603h0"></path>
<path d="M1217 603h10"></path>
<g>
<path d="M1227 603h0"></path>
<path d="M1372 603h0"></path>
<g class="terminal">
<path d="M1227 603h0"></path>
<path d="M1272.5 603h0"></path>
<rect x="1227" y="592" width="45.5" height="22" rx="10" ry="10"></rect>
<text x="1249.75" y="607">"."</text>
</g>
<path d="M1272.5 603h10"></path>
<path d="M1282.5 603h10"></path>
<g class="non-terminal">
<path d="M1292.5 603h0"></path>
<path d="M1372 603h0"></path>
<rect x="1292.5" y="592" width="79.5" height="22"></rect>
<a xlink:href="#/cds/expression/CDSName"><text x="1332.25" y="607">CDSName</text>
</a>
</g>
</g>
<path d="M1372 603h10"></path>
<path d="M1227 603a10 10 0 0 0 -10 10v0a10 10 0 0 0 10 10"></path>
<g>
<path d="M1227 623h145"></path>
</g>
<path d="M1372 623a10 10 0 0 0 10 -10v0a10 10 0 0 0 -10 -10"></path>
</g>
<path d="M1382 603h20"></path>
</g>
</g>
<path d="M1402 603a10 10 0 0 0 10 -10v-139a10 10 0 0 1 10 -10"></path>
</g>
<path d="M1422 444h10"></path>
<g class="terminal">
<path d="M1432 444h0"></path>
<path d="M1477.5 444h0"></path>
<rect x="1432" y="433" width="45.5" height="22" rx="10" ry="10"></rect>
<text x="1454.75" y="448">")"</text>
</g>
</g>
<path d="M1477.5 444h20"></path>
<path d="M1012 444a10 10 0 0 1 10 10v178a10 10 0 0 0 10 10"></path>
<g>
<path d="M1032 642h0"></path>
<path d="M1366.5 642h111"></path>
<path d="M1032 642h20"></path>
<g class="non-terminal">
<path d="M1052 642h0"></path>
<path d="M1165.5 642h181"></path>
<rect x="1052" y="631" width="113.5" height="22"></rect>
<a xlink:href="#/cds/expression/CDSFunction"><text x="1108.75" y="646">CDSFunction</text>
</a>
</g>
<path d="M1346.5 642h20"></path>
<path d="M1032 642a10 10 0 0 1 10 10v10a10 10 0 0 0 10 10"></path>
<g class="non-terminal">
<path d="M1052 672h0"></path>
<path d="M1148.5 672h198"></path>
<rect x="1052" y="661" width="96.5" height="22"></rect>
<a xlink:href="#/cds/expression/CDSString"><text x="1100.25" y="676">CDSString</text>
</a>
</g>
<path d="M1346.5 672a10 10 0 0 0 10 -10v-10a10 10 0 0 1 10 -10"></path>
<path d="M1032 642a10 10 0 0 1 10 10v40a10 10 0 0 0 10 10"></path>
<g class="non-terminal">
<path d="M1052 702h0"></path>
<path d="M1131.5 702h215"></path>
<rect x="1052" y="691" width="79.5" height="22"></rect>
<a xlink:href="#/cds/expression/CDSCase"><text x="1091.75" y="706">CDSCase</text>
</a>
</g>
<path d="M1346.5 702a10 10 0 0 0 10 -10v-40a10 10 0 0 1 10 -10"></path>
<path d="M1032 642a10 10 0 0 1 10 10v70a10 10 0 0 0 10 10"></path>
<g class="non-terminal">
<path d="M1052 732h0"></path>
<path d="M1131.5 732h215"></path>
<rect x="1052" y="721" width="79.5" height="22"></rect>
<a xlink:href="#/cds/expression/CDSCast"><text x="1091.75" y="736">CDSCast</text>
</a>
</g>
<path d="M1346.5 732a10 10 0 0 0 10 -10v-70a10 10 0 0 1 10 -10"></path>
<path d="M1032 642a10 10 0 0 1 10 10v100a10 10 0 0 0 10 10"></path>
<g class="non-terminal">
<path d="M1052 762h0"></path>
<path d="M1191 762h155.5"></path>
<rect x="1052" y="751" width="139" height="22"></rect>
<a xlink:href="#/cds/expression/CDSArithmetics"><text x="1121.5" y="766">CDSArithmetics</text>
</a>
</g>
<path d="M1346.5 762a10 10 0 0 0 10 -10v-100a10 10 0 0 1 10 -10"></path>
<path d="M1032 642a10 10 0 0 1 10 10v139a10 10 0 0 0 10 10"></path>
<g>
<path d="M1052 801h0"></path>
<path d="M1346.5 801h0"></path>
<g class="non-terminal">
<path d="M1052 801h0"></path>
<path d="M1131.5 801h0"></path>
<rect x="1052" y="790" width="79.5" height="22"></rect>
<a xlink:href="#/cds/expression/CDSName"><text x="1091.75" y="805">CDSName</text>
</a>
</g>
<path d="M1131.5 801h10"></path>
<g>
<path d="M1141.5 801h0"></path>
<path d="M1346.5 801h0"></path>
<path d="M1141.5 801a10 10 0 0 0 10 -10v0a10 10 0 0 1 10 -10"></path>
<g>
<path d="M1161.5 781h165"></path>
</g>
<path d="M1326.5 781a10 10 0 0 1 10 10v0a10 10 0 0 0 10 10"></path>
<path d="M1141.5 801h20"></path>
<g>
<path d="M1161.5 801h0"></path>
<path d="M1326.5 801h0"></path>
<path d="M1161.5 801h10"></path>
<g>
<path d="M1171.5 801h0"></path>
<path d="M1316.5 801h0"></path>
<g class="terminal">
<path d="M1171.5 801h0"></path>
<path d="M1217 801h0"></path>
<rect x="1171.5" y="790" width="45.5" height="22" rx="10" ry="10"></rect>
<text x="1194.25" y="805">"."</text>
</g>
<path d="M1217 801h10"></path>
<path d="M1227 801h10"></path>
<g class="non-terminal">
<path d="M1237 801h0"></path>
<path d="M1316.5 801h0"></path>
<rect x="1237" y="790" width="79.5" height="22"></rect>
<a xlink:href="#/cds/expression/CDSName"><text x="1276.75" y="805">CDSName</text>
</a>
</g>
</g>
<path d="M1316.5 801h10"></path>
<path d="M1171.5 801a10 10 0 0 0 -10 10v0a10 10 0 0 0 10 10"></path>
<g>
<path d="M1171.5 821h145"></path>
</g>
<path d="M1316.5 821a10 10 0 0 0 10 -10v0a10 10 0 0 0 -10 -10"></path>
</g>
<path d="M1326.5 801h20"></path>
</g>
</g>
<path d="M1346.5 801a10 10 0 0 0 10 -10v-139a10 10 0 0 1 10 -10"></path>
</g>
<path d="M1477.5 642a10 10 0 0 0 10 -10v-178a10 10 0 0 1 10 -10"></path>
</g>
</g>
<path d="M1497.5 444h10"></path>
<path d="M505.5 444a10 10 0 0 0 -10 10v365a10 10 0 0 0 10 10"></path>
<g>
<path d="M505.5 829h992"></path>
</g>
<path d="M1497.5 829a10 10 0 0 0 10 -10v-365a10 10 0 0 0 -10 -10"></path>
</g>
</g>
<path d="M1507.5 444a10 10 0 0 0 10 -10v-384a10 10 0 0 1 10 -10"></path>
</g>
<g>
<path d="M1527.5 40h0"></path>
<path d="M1983 40h0"></path>
<path d="M1527.5 40a10 10 0 0 0 10 -10v0a10 10 0 0 1 10 -10"></path>
<g>
<path d="M1547.5 20h415.5"></path>
</g>
<path d="M1963 20a10 10 0 0 1 10 10v0a10 10 0 0 0 10 10"></path>
<path d="M1527.5 40h20"></path>
<g>
<path d="M1547.5 40h0"></path>
<path d="M1963 40h0"></path>
<g class="terminal">
<path d="M1547.5 40h0"></path>
<path d="M1618.5 40h0"></path>
<rect x="1547.5" y="29" width="71" height="22" rx="10" ry="10"></rect>
<text x="1583" y="44">"ELSE"</text>
</g>
<path d="M1618.5 40h10"></path>
<g>
<path d="M1628.5 40h0"></path>
<path d="M1963 40h0"></path>
<path d="M1628.5 40h20"></path>
<g class="non-terminal">
<path d="M1648.5 40h0"></path>
<path d="M1762 40h181"></path>
<rect x="1648.5" y="29" width="113.5" height="22"></rect>
<a xlink:href="#/cds/expression/CDSFunction"><text x="1705.25" y="44">CDSFunction</text>
</a>
</g>
<path d="M1943 40h20"></path>
<path d="M1628.5 40a10 10 0 0 1 10 10v10a10 10 0 0 0 10 10"></path>
<g class="non-terminal">
<path d="M1648.5 70h0"></path>
<path d="M1745 70h198"></path>
<rect x="1648.5" y="59" width="96.5" height="22"></rect>
<a xlink:href="#/cds/expression/CDSString"><text x="1696.75" y="74">CDSString</text>
</a>
</g>
<path d="M1943 70a10 10 0 0 0 10 -10v-10a10 10 0 0 1 10 -10"></path>
<path d="M1628.5 40a10 10 0 0 1 10 10v40a10 10 0 0 0 10 10"></path>
<g class="non-terminal">
<path d="M1648.5 100h0"></path>
<path d="M1728 100h215"></path>
<rect x="1648.5" y="89" width="79.5" height="22"></rect>
<a xlink:href="#/cds/expression/CDSCase"><text x="1688.25" y="104">CDSCase</text>
</a>
</g>
<path d="M1943 100a10 10 0 0 0 10 -10v-40a10 10 0 0 1 10 -10"></path>
<path d="M1628.5 40a10 10 0 0 1 10 10v70a10 10 0 0 0 10 10"></path>
<g class="non-terminal">
<path d="M1648.5 130h0"></path>
<path d="M1728 130h215"></path>
<rect x="1648.5" y="119" width="79.5" height="22"></rect>
<a xlink:href="#/cds/expression/CDSCast"><text x="1688.25" y="134">CDSCast</text>
</a>
</g>
<path d="M1943 130a10 10 0 0 0 10 -10v-70a10 10 0 0 1 10 -10"></path>
<path d="M1628.5 40a10 10 0 0 1 10 10v100a10 10 0 0 0 10 10"></path>
<g class="non-terminal">
<path d="M1648.5 160h0"></path>
<path d="M1787.5 160h155.5"></path>
<rect x="1648.5" y="149" width="139" height="22"></rect>
<a xlink:href="#/cds/expression/CDSArithmetics"><text x="1718" y="164">CDSArithmetics</text>
</a>
</g>
<path d="M1943 160a10 10 0 0 0 10 -10v-100a10 10 0 0 1 10 -10"></path>
<path d="M1628.5 40a10 10 0 0 1 10 10v139a10 10 0 0 0 10 10"></path>
<g>
<path d="M1648.5 199h0"></path>
<path d="M1943 199h0"></path>
<g class="non-terminal">
<path d="M1648.5 199h0"></path>
<path d="M1728 199h0"></path>
<rect x="1648.5" y="188" width="79.5" height="22"></rect>
<a xlink:href="#/cds/expression/CDSName"><text x="1688.25" y="203">CDSName</text>
</a>
</g>
<path d="M1728 199h10"></path>
<g>
<path d="M1738 199h0"></path>
<path d="M1943 199h0"></path>
<path d="M1738 199a10 10 0 0 0 10 -10v0a10 10 0 0 1 10 -10"></path>
<g>
<path d="M1758 179h165"></path>
</g>
<path d="M1923 179a10 10 0 0 1 10 10v0a10 10 0 0 0 10 10"></path>
<path d="M1738 199h20"></path>
<g>
<path d="M1758 199h0"></path>
<path d="M1923 199h0"></path>
<path d="M1758 199h10"></path>
<g>
<path d="M1768 199h0"></path>
<path d="M1913 199h0"></path>
<g class="terminal">
<path d="M1768 199h0"></path>
<path d="M1813.5 199h0"></path>
<rect x="1768" y="188" width="45.5" height="22" rx="10" ry="10"></rect>
<text x="1790.75" y="203">"."</text>
</g>
<path d="M1813.5 199h10"></path>
<path d="M1823.5 199h10"></path>
<g class="non-terminal">
<path d="M1833.5 199h0"></path>
<path d="M1913 199h0"></path>
<rect x="1833.5" y="188" width="79.5" height="22"></rect>
<a xlink:href="#/cds/expression/CDSName"><text x="1873.25" y="203">CDSName</text>
</a>
</g>
</g>
<path d="M1913 199h10"></path>
<path d="M1768 199a10 10 0 0 0 -10 10v0a10 10 0 0 0 10 10"></path>
<g>
<path d="M1768 219h145"></path>
</g>
<path d="M1913 219a10 10 0 0 0 10 -10v0a10 10 0 0 0 -10 -10"></path>
</g>
<path d="M1923 199h20"></path>
</g>
</g>
<path d="M1943 199a10 10 0 0 0 10 -10v-139a10 10 0 0 1 10 -10"></path>
</g>
</g>
<path d="M1963 40h20"></path>
</g>
<path d="M1983 40h10"></path>
<g class="terminal">
<path d="M1993 40h0"></path>
<path d="M2055.5 40h0"></path>
<rect x="1993" y="29" width="62.5" height="22" rx="10" ry="10"></rect>
<text x="2024.25" y="44">"END"</text>
</g>
</g>
<path d="M2055.5 40h10"></path>
<path d="M 2065.5 40 h 20 m 0 -10 v 20"></path>
</g>
</svg>
