<svg xmlns="http://www.w3.org/2000/svg" xmlns:xlink="http://www.w3.org/1999/xlink" class="railroad-diagram" width="1425.5" height="623" viewBox="0 0 1425.5 623">
<defs>
<style type="text/css"><![CDATA[
path {
stroke-width: 3;
stroke: black;
fill: rgba(0,0,0,0);
}
text {
font: bold 14px monospace;
text-anchor: middle;
}
text.diagram-text {
font-size: 12px;
}
a {
fill: blue;
}
text.diagram-arrow {
font-size: 16px;
}
text.label {
text-anchor: start;
}
text.comment {
font: italic 12px monospace;
}
rect {
stroke-width: 3;
stroke: black;
fill: #BCBCBC;
}
path.diagram-text {
stroke-width: 3;
stroke: black;
fill: #BCBCBC;
cursor: help;
}
]]></style>
</defs>
<g transform="translate(.5 .5)">
<g>
<path d="M20 21v20m0 -10h20"></path>
</g>
<g>
<path d="M40 31h0"></path>
<path d="M1385.5 31h0"></path>
<path d="M40 31h20"></path>
<g>
<path d="M60 31h0"></path>
<path d="M1365.5 31h0"></path>
<g>
<path d="M60 31h0"></path>
<path d="M925.5 31h0"></path>
<g class="terminal">
<path d="M60 31h0"></path>
<path d="M105.5 31h0"></path>
<rect x="60" y="20" width="45.5" height="22" rx="10" ry="10"></rect>
<text x="82.75" y="35">"("</text>
</g>
<path d="M105.5 31h10"></path>
<g>
<path d="M115.5 31h0"></path>
<path d="M430 31h0"></path>
<path d="M115.5 31h20"></path>
<g class="non-terminal">
<path d="M135.5 31h0"></path>
<path d="M240.5 31h169.5"></path>
<rect x="135.5" y="20" width="105" height="22"></rect>
<a xlink:href="#/cds/expression/CDSInteger"><text x="188" y="35">CDSInteger</text>
</a>
</g>
<path d="M410 31h20"></path>
<path d="M115.5 31a10 10 0 0 1 10 10v19a10 10 0 0 0 10 10"></path>
<g>
<path d="M135.5 70h0"></path>
<path d="M410 70h0"></path>
<g class="non-terminal">
<path d="M135.5 70h0"></path>
<path d="M215 70h0"></path>
<rect x="135.5" y="59" width="79.5" height="22"></rect>
<a xlink:href="#/cds/expression/CDSName"><text x="175.25" y="74">CDSName</text>
</a>
</g>
<path d="M215 70h10"></path>
<g>
<path d="M225 70h0"></path>
<path d="M410 70h0"></path>
<path d="M225 70a10 10 0 0 0 10 -10v0a10 10 0 0 1 10 -10"></path>
<g>
<path d="M245 50h145"></path>
</g>
<path d="M390 50a10 10 0 0 1 10 10v0a10 10 0 0 0 10 10"></path>
<path d="M225 70h20"></path>
<g>
<path d="M245 70h0"></path>
<path d="M390 70h0"></path>
<g class="terminal">
<path d="M245 70h0"></path>
<path d="M290.5 70h0"></path>
<rect x="245" y="59" width="45.5" height="22" rx="10" ry="10"></rect>
<text x="267.75" y="74">"."</text>
</g>
<path d="M290.5 70h10"></path>
<path d="M300.5 70h10"></path>
<g class="non-terminal">
<path d="M310.5 70h0"></path>
<path d="M390 70h0"></path>
<rect x="310.5" y="59" width="79.5" height="22"></rect>
<a xlink:href="#/cds/expression/CDSName"><text x="350.25" y="74">CDSName</text>
</a>
</g>
</g>
<path d="M390 70h20"></path>
</g>
</g>
<path d="M410 70a10 10 0 0 0 10 -10v-19a10 10 0 0 1 10 -10"></path>
<path d="M115.5 31a10 10 0 0 1 10 10v49a10 10 0 0 0 10 10"></path>
<g class="non-terminal">
<path d="M135.5 100h0"></path>
<path d="M249 100h161"></path>
<rect x="135.5" y="89" width="113.5" height="22"></rect>
<a xlink:href="#/cds/expression/CDSFunction"><text x="192.25" y="104">CDSFunction</text>
</a>
</g>
<path d="M410 100a10 10 0 0 0 10 -10v-49a10 10 0 0 1 10 -10"></path>
<path d="M115.5 31a10 10 0 0 1 10 10v79a10 10 0 0 0 10 10"></path>
<g class="non-terminal">
<path d="M135.5 130h0"></path>
<path d="M215 130h195"></path>
<rect x="135.5" y="119" width="79.5" height="22"></rect>
<a xlink:href="#/cds/expression/CDSCase"><text x="175.25" y="134">CDSCase</text>
</a>
</g>
<path d="M410 130a10 10 0 0 0 10 -10v-79a10 10 0 0 1 10 -10"></path>
<path d="M115.5 31a10 10 0 0 1 10 10v109a10 10 0 0 0 10 10"></path>
<g class="non-terminal">
<path d="M135.5 160h0"></path>
<path d="M215 160h195"></path>
<rect x="135.5" y="149" width="79.5" height="22"></rect>
<a xlink:href="#/cds/expression/CDSCast"><text x="175.25" y="164">CDSCast</text>
</a>
</g>
<path d="M410 160a10 10 0 0 0 10 -10v-109a10 10 0 0 1 10 -10"></path>
<path d="M115.5 31a10 10 0 0 1 10 10v139a10 10 0 0 0 10 10"></path>
<g class="non-terminal">
<path d="M135.5 190h0"></path>
<path d="M232 190h178"></path>
<rect x="135.5" y="179" width="96.5" height="22"></rect>
<a xlink:href="#/cds/expression/CDSString"><text x="183.75" y="194">CDSString</text>
</a>
</g>
<path d="M410 190a10 10 0 0 0 10 -10v-139a10 10 0 0 1 10 -10"></path>
</g>
<path d="M430 31h10"></path>
<g>
<path d="M440 31h0"></path>
<path d="M860 31h0"></path>
<path d="M440 31h10"></path>
<g>
<path d="M450 31h0"></path>
<path d="M850 31h0"></path>
<g>
<path d="M450 31h0"></path>
<path d="M535.5 31h0"></path>
<path d="M450 31h20"></path>
<g class="terminal">
<path d="M470 31h0"></path>
<path d="M515.5 31h0"></path>
<rect x="470" y="20" width="45.5" height="22" rx="10" ry="10"></rect>
<text x="492.75" y="35">"+"</text>
</g>
<path d="M515.5 31h20"></path>
<path d="M450 31a10 10 0 0 1 10 10v10a10 10 0 0 0 10 10"></path>
<g class="terminal">
<path d="M470 61h0"></path>
<path d="M515.5 61h0"></path>
<rect x="470" y="50" width="45.5" height="22" rx="10" ry="10"></rect>
<text x="492.75" y="65">"-"</text>
</g>
<path d="M515.5 61a10 10 0 0 0 10 -10v-10a10 10 0 0 1 10 -10"></path>
<path d="M450 31a10 10 0 0 1 10 10v40a10 10 0 0 0 10 10"></path>
<g class="terminal">
<path d="M470 91h0"></path>
<path d="M515.5 91h0"></path>
<rect x="470" y="80" width="45.5" height="22" rx="10" ry="10"></rect>
<text x="492.75" y="95">"&#42;"</text>
</g>
<path d="M515.5 91a10 10 0 0 0 10 -10v-40a10 10 0 0 1 10 -10"></path>
<path d="M450 31a10 10 0 0 1 10 10v70a10 10 0 0 0 10 10"></path>
<g class="terminal">
<path d="M470 121h0"></path>
<path d="M515.5 121h0"></path>
<rect x="470" y="110" width="45.5" height="22" rx="10" ry="10"></rect>
<text x="492.75" y="125">"/"</text>
</g>
<path d="M515.5 121a10 10 0 0 0 10 -10v-70a10 10 0 0 1 10 -10"></path>
</g>
<g>
<path d="M535.5 31h0"></path>
<path d="M850 31h0"></path>
<path d="M535.5 31h20"></path>
<g class="non-terminal">
<path d="M555.5 31h0"></path>
<path d="M660.5 31h169.5"></path>
<rect x="555.5" y="20" width="105" height="22"></rect>
<a xlink:href="#/cds/expression/CDSInteger"><text x="608" y="35">CDSInteger</text>
</a>
</g>
<path d="M830 31h20"></path>
<path d="M535.5 31a10 10 0 0 1 10 10v19a10 10 0 0 0 10 10"></path>
<g>
<path d="M555.5 70h0"></path>
<path d="M830 70h0"></path>
<g class="non-terminal">
<path d="M555.5 70h0"></path>
<path d="M635 70h0"></path>
<rect x="555.5" y="59" width="79.5" height="22"></rect>
<a xlink:href="#/cds/expression/CDSName"><text x="595.25" y="74">CDSName</text>
</a>
</g>
<path d="M635 70h10"></path>
<g>
<path d="M645 70h0"></path>
<path d="M830 70h0"></path>
<path d="M645 70a10 10 0 0 0 10 -10v0a10 10 0 0 1 10 -10"></path>
<g>
<path d="M665 50h145"></path>
</g>
<path d="M810 50a10 10 0 0 1 10 10v0a10 10 0 0 0 10 10"></path>
<path d="M645 70h20"></path>
<g>
<path d="M665 70h0"></path>
<path d="M810 70h0"></path>
<g class="terminal">
<path d="M665 70h0"></path>
<path d="M710.5 70h0"></path>
<rect x="665" y="59" width="45.5" height="22" rx="10" ry="10"></rect>
<text x="687.75" y="74">"."</text>
</g>
<path d="M710.5 70h10"></path>
<path d="M720.5 70h10"></path>
<g class="non-terminal">
<path d="M730.5 70h0"></path>
<path d="M810 70h0"></path>
<rect x="730.5" y="59" width="79.5" height="22"></rect>
<a xlink:href="#/cds/expression/CDSName"><text x="770.25" y="74">CDSName</text>
</a>
</g>
</g>
<path d="M810 70h20"></path>
</g>
</g>
<path d="M830 70a10 10 0 0 0 10 -10v-19a10 10 0 0 1 10 -10"></path>
<path d="M535.5 31a10 10 0 0 1 10 10v49a10 10 0 0 0 10 10"></path>
<g class="non-terminal">
<path d="M555.5 100h0"></path>
<path d="M669 100h161"></path>
<rect x="555.5" y="89" width="113.5" height="22"></rect>
<a xlink:href="#/cds/expression/CDSFunction"><text x="612.25" y="104">CDSFunction</text>
</a>
</g>
<path d="M830 100a10 10 0 0 0 10 -10v-49a10 10 0 0 1 10 -10"></path>
<path d="M535.5 31a10 10 0 0 1 10 10v79a10 10 0 0 0 10 10"></path>
<g class="non-terminal">
<path d="M555.5 130h0"></path>
<path d="M635 130h195"></path>
<rect x="555.5" y="119" width="79.5" height="22"></rect>
<a xlink:href="#/cds/expression/CDSCase"><text x="595.25" y="134">CDSCase</text>
</a>
</g>
<path d="M830 130a10 10 0 0 0 10 -10v-79a10 10 0 0 1 10 -10"></path>
<path d="M535.5 31a10 10 0 0 1 10 10v109a10 10 0 0 0 10 10"></path>
<g class="non-terminal">
<path d="M555.5 160h0"></path>
<path d="M635 160h195"></path>
<rect x="555.5" y="149" width="79.5" height="22"></rect>
<a xlink:href="#/cds/expression/CDSCast"><text x="595.25" y="164">CDSCast</text>
</a>
</g>
<path d="M830 160a10 10 0 0 0 10 -10v-109a10 10 0 0 1 10 -10"></path>
<path d="M535.5 31a10 10 0 0 1 10 10v139a10 10 0 0 0 10 10"></path>
<g class="non-terminal">
<path d="M555.5 190h0"></path>
<path d="M652 190h178"></path>
<rect x="555.5" y="179" width="96.5" height="22"></rect>
<a xlink:href="#/cds/expression/CDSString"><text x="603.75" y="194">CDSString</text>
</a>
</g>
<path d="M830 190a10 10 0 0 0 10 -10v-139a10 10 0 0 1 10 -10"></path>
</g>
</g>
<path d="M850 31h10"></path>
<path d="M450 31a10 10 0 0 0 -10 10v158a10 10 0 0 0 10 10"></path>
<g>
<path d="M450 209h400"></path>
</g>
<path d="M850 209a10 10 0 0 0 10 -10v-158a10 10 0 0 0 -10 -10"></path>
</g>
<path d="M860 31h10"></path>
<path d="M870 31h10"></path>
<g class="terminal">
<path d="M880 31h0"></path>
<path d="M925.5 31h0"></path>
<rect x="880" y="20" width="45.5" height="22" rx="10" ry="10"></rect>
<text x="902.75" y="35">")"</text>
</g>
</g>
<path d="M925.5 31h10"></path>
<path d="M935.5 31h10"></path>
<g>
<path d="M945.5 31h0"></path>
<path d="M1365.5 31h0"></path>
<path d="M945.5 31h10"></path>
<g>
<path d="M955.5 31h0"></path>
<path d="M1355.5 31h0"></path>
<g>
<path d="M955.5 31h0"></path>
<path d="M1041 31h0"></path>
<path d="M955.5 31h20"></path>
<g class="terminal">
<path d="M975.5 31h0"></path>
<path d="M1021 31h0"></path>
<rect x="975.5" y="20" width="45.5" height="22" rx="10" ry="10"></rect>
<text x="998.25" y="35">"+"</text>
</g>
<path d="M1021 31h20"></path>
<path d="M955.5 31a10 10 0 0 1 10 10v10a10 10 0 0 0 10 10"></path>
<g class="terminal">
<path d="M975.5 61h0"></path>
<path d="M1021 61h0"></path>
<rect x="975.5" y="50" width="45.5" height="22" rx="10" ry="10"></rect>
<text x="998.25" y="65">"-"</text>
</g>
<path d="M1021 61a10 10 0 0 0 10 -10v-10a10 10 0 0 1 10 -10"></path>
<path d="M955.5 31a10 10 0 0 1 10 10v40a10 10 0 0 0 10 10"></path>
<g class="terminal">
<path d="M975.5 91h0"></path>
<path d="M1021 91h0"></path>
<rect x="975.5" y="80" width="45.5" height="22" rx="10" ry="10"></rect>
<text x="998.25" y="95">"&#42;"</text>
</g>
<path d="M1021 91a10 10 0 0 0 10 -10v-40a10 10 0 0 1 10 -10"></path>
<path d="M955.5 31a10 10 0 0 1 10 10v70a10 10 0 0 0 10 10"></path>
<g class="terminal">
<path d="M975.5 121h0"></path>
<path d="M1021 121h0"></path>
<rect x="975.5" y="110" width="45.5" height="22" rx="10" ry="10"></rect>
<text x="998.25" y="125">"/"</text>
</g>
<path d="M1021 121a10 10 0 0 0 10 -10v-70a10 10 0 0 1 10 -10"></path>
</g>
<g>
<path d="M1041 31h0"></path>
<path d="M1355.5 31h0"></path>
<path d="M1041 31h20"></path>
<g class="non-terminal">
<path d="M1061 31h0"></path>
<path d="M1166 31h169.5"></path>
<rect x="1061" y="20" width="105" height="22"></rect>
<a xlink:href="#/cds/expression/CDSInteger"><text x="1113.5" y="35">CDSInteger</text>
</a>
</g>
<path d="M1335.5 31h20"></path>
<path d="M1041 31a10 10 0 0 1 10 10v19a10 10 0 0 0 10 10"></path>
<g>
<path d="M1061 70h0"></path>
<path d="M1335.5 70h0"></path>
<g class="non-terminal">
<path d="M1061 70h0"></path>
<path d="M1140.5 70h0"></path>
<rect x="1061" y="59" width="79.5" height="22"></rect>
<a xlink:href="#/cds/expression/CDSName"><text x="1100.75" y="74">CDSName</text>
</a>
</g>
<path d="M1140.5 70h10"></path>
<g>
<path d="M1150.5 70h0"></path>
<path d="M1335.5 70h0"></path>
<path d="M1150.5 70a10 10 0 0 0 10 -10v0a10 10 0 0 1 10 -10"></path>
<g>
<path d="M1170.5 50h145"></path>
</g>
<path d="M1315.5 50a10 10 0 0 1 10 10v0a10 10 0 0 0 10 10"></path>
<path d="M1150.5 70h20"></path>
<g>
<path d="M1170.5 70h0"></path>
<path d="M1315.5 70h0"></path>
<g class="terminal">
<path d="M1170.5 70h0"></path>
<path d="M1216 70h0"></path>
<rect x="1170.5" y="59" width="45.5" height="22" rx="10" ry="10"></rect>
<text x="1193.25" y="74">"."</text>
</g>
<path d="M1216 70h10"></path>
<path d="M1226 70h10"></path>
<g class="non-terminal">
<path d="M1236 70h0"></path>
<path d="M1315.5 70h0"></path>
<rect x="1236" y="59" width="79.5" height="22"></rect>
<a xlink:href="#/cds/expression/CDSName"><text x="1275.75" y="74">CDSName</text>
</a>
</g>
</g>
<path d="M1315.5 70h20"></path>
</g>
</g>
<path d="M1335.5 70a10 10 0 0 0 10 -10v-19a10 10 0 0 1 10 -10"></path>
<path d="M1041 31a10 10 0 0 1 10 10v49a10 10 0 0 0 10 10"></path>
<g class="non-terminal">
<path d="M1061 100h0"></path>
<path d="M1174.5 100h161"></path>
<rect x="1061" y="89" width="113.5" height="22"></rect>
<a xlink:href="#/cds/expression/CDSFunction"><text x="1117.75" y="104">CDSFunction</text>
</a>
</g>
<path d="M1335.5 100a10 10 0 0 0 10 -10v-49a10 10 0 0 1 10 -10"></path>
<path d="M1041 31a10 10 0 0 1 10 10v79a10 10 0 0 0 10 10"></path>
<g class="non-terminal">
<path d="M1061 130h0"></path>
<path d="M1140.5 130h195"></path>
<rect x="1061" y="119" width="79.5" height="22"></rect>
<a xlink:href="#/cds/expression/CDSCase"><text x="1100.75" y="134">CDSCase</text>
</a>
</g>
<path d="M1335.5 130a10 10 0 0 0 10 -10v-79a10 10 0 0 1 10 -10"></path>
<path d="M1041 31a10 10 0 0 1 10 10v109a10 10 0 0 0 10 10"></path>
<g class="non-terminal">
<path d="M1061 160h0"></path>
<path d="M1140.5 160h195"></path>
<rect x="1061" y="149" width="79.5" height="22"></rect>
<a xlink:href="#/cds/expression/CDSCast"><text x="1100.75" y="164">CDSCast</text>
</a>
</g>
<path d="M1335.5 160a10 10 0 0 0 10 -10v-109a10 10 0 0 1 10 -10"></path>
<path d="M1041 31a10 10 0 0 1 10 10v139a10 10 0 0 0 10 10"></path>
<g class="non-terminal">
<path d="M1061 190h0"></path>
<path d="M1157.5 190h178"></path>
<rect x="1061" y="179" width="96.5" height="22"></rect>
<a xlink:href="#/cds/expression/CDSString"><text x="1109.25" y="194">CDSString</text>
</a>
</g>
<path d="M1335.5 190a10 10 0 0 0 10 -10v-139a10 10 0 0 1 10 -10"></path>
</g>
</g>
<path d="M1355.5 31h10"></path>
<path d="M955.5 31a10 10 0 0 0 -10 10v158a10 10 0 0 0 10 10"></path>
<g>
<path d="M955.5 209h400"></path>
</g>
<path d="M1355.5 209a10 10 0 0 0 10 -10v-158a10 10 0 0 0 -10 -10"></path>
</g>
</g>
<path d="M1365.5 31h20"></path>
<path d="M40 31a10 10 0 0 1 10 10v177a10 10 0 0 0 10 10"></path>
<g>
<path d="M60 228h0"></path>
<path d="M925.5 228h440"></path>
<g class="terminal">
<path d="M60 228h0"></path>
<path d="M105.5 228h0"></path>
<rect x="60" y="217" width="45.5" height="22" rx="10" ry="10"></rect>
<text x="82.75" y="232">"("</text>
</g>
<path d="M105.5 228h10"></path>
<g>
<path d="M115.5 228h0"></path>
<path d="M430 228h0"></path>
<path d="M115.5 228h20"></path>
<g class="non-terminal">
<path d="M135.5 228h0"></path>
<path d="M240.5 228h169.5"></path>
<rect x="135.5" y="217" width="105" height="22"></rect>
<a xlink:href="#/cds/expression/CDSInteger"><text x="188" y="232">CDSInteger</text>
</a>
</g>
<path d="M410 228h20"></path>
<path d="M115.5 228a10 10 0 0 1 10 10v19a10 10 0 0 0 10 10"></path>
<g>
<path d="M135.5 267h0"></path>
<path d="M410 267h0"></path>
<g class="non-terminal">
<path d="M135.5 267h0"></path>
<path d="M215 267h0"></path>
<rect x="135.5" y="256" width="79.5" height="22"></rect>
<a xlink:href="#/cds/expression/CDSName"><text x="175.25" y="271">CDSName</text>
</a>
</g>
<path d="M215 267h10"></path>
<g>
<path d="M225 267h0"></path>
<path d="M410 267h0"></path>
<path d="M225 267a10 10 0 0 0 10 -10v0a10 10 0 0 1 10 -10"></path>
<g>
<path d="M245 247h145"></path>
</g>
<path d="M390 247a10 10 0 0 1 10 10v0a10 10 0 0 0 10 10"></path>
<path d="M225 267h20"></path>
<g>
<path d="M245 267h0"></path>
<path d="M390 267h0"></path>
<g class="terminal">
<path d="M245 267h0"></path>
<path d="M290.5 267h0"></path>
<rect x="245" y="256" width="45.5" height="22" rx="10" ry="10"></rect>
<text x="267.75" y="271">"."</text>
</g>
<path d="M290.5 267h10"></path>
<path d="M300.5 267h10"></path>
<g class="non-terminal">
<path d="M310.5 267h0"></path>
<path d="M390 267h0"></path>
<rect x="310.5" y="256" width="79.5" height="22"></rect>
<a xlink:href="#/cds/expression/CDSName"><text x="350.25" y="271">CDSName</text>
</a>
</g>
</g>
<path d="M390 267h20"></path>
</g>
</g>
<path d="M410 267a10 10 0 0 0 10 -10v-19a10 10 0 0 1 10 -10"></path>
<path d="M115.5 228a10 10 0 0 1 10 10v49a10 10 0 0 0 10 10"></path>
<g class="non-terminal">
<path d="M135.5 297h0"></path>
<path d="M249 297h161"></path>
<rect x="135.5" y="286" width="113.5" height="22"></rect>
<a xlink:href="#/cds/expression/CDSFunction"><text x="192.25" y="301">CDSFunction</text>
</a>
</g>
<path d="M410 297a10 10 0 0 0 10 -10v-49a10 10 0 0 1 10 -10"></path>
<path d="M115.5 228a10 10 0 0 1 10 10v79a10 10 0 0 0 10 10"></path>
<g class="non-terminal">
<path d="M135.5 327h0"></path>
<path d="M215 327h195"></path>
<rect x="135.5" y="316" width="79.5" height="22"></rect>
<a xlink:href="#/cds/expression/CDSCase"><text x="175.25" y="331">CDSCase</text>
</a>
</g>
<path d="M410 327a10 10 0 0 0 10 -10v-79a10 10 0 0 1 10 -10"></path>
<path d="M115.5 228a10 10 0 0 1 10 10v109a10 10 0 0 0 10 10"></path>
<g class="non-terminal">
<path d="M135.5 357h0"></path>
<path d="M215 357h195"></path>
<rect x="135.5" y="346" width="79.5" height="22"></rect>
<a xlink:href="#/cds/expression/CDSCast"><text x="175.25" y="361">CDSCast</text>
</a>
</g>
<path d="M410 357a10 10 0 0 0 10 -10v-109a10 10 0 0 1 10 -10"></path>
<path d="M115.5 228a10 10 0 0 1 10 10v139a10 10 0 0 0 10 10"></path>
<g class="non-terminal">
<path d="M135.5 387h0"></path>
<path d="M232 387h178"></path>
<rect x="135.5" y="376" width="96.5" height="22"></rect>
<a xlink:href="#/cds/expression/CDSString"><text x="183.75" y="391">CDSString</text>
</a>
</g>
<path d="M410 387a10 10 0 0 0 10 -10v-139a10 10 0 0 1 10 -10"></path>
</g>
<path d="M430 228h10"></path>
<g>
<path d="M440 228h0"></path>
<path d="M860 228h0"></path>
<path d="M440 228h10"></path>
<g>
<path d="M450 228h0"></path>
<path d="M850 228h0"></path>
<g>
<path d="M450 228h0"></path>
<path d="M535.5 228h0"></path>
<path d="M450 228h20"></path>
<g class="terminal">
<path d="M470 228h0"></path>
<path d="M515.5 228h0"></path>
<rect x="470" y="217" width="45.5" height="22" rx="10" ry="10"></rect>
<text x="492.75" y="232">"+"</text>
</g>
<path d="M515.5 228h20"></path>
<path d="M450 228a10 10 0 0 1 10 10v10a10 10 0 0 0 10 10"></path>
<g class="terminal">
<path d="M470 258h0"></path>
<path d="M515.5 258h0"></path>
<rect x="470" y="247" width="45.5" height="22" rx="10" ry="10"></rect>
<text x="492.75" y="262">"-"</text>
</g>
<path d="M515.5 258a10 10 0 0 0 10 -10v-10a10 10 0 0 1 10 -10"></path>
<path d="M450 228a10 10 0 0 1 10 10v40a10 10 0 0 0 10 10"></path>
<g class="terminal">
<path d="M470 288h0"></path>
<path d="M515.5 288h0"></path>
<rect x="470" y="277" width="45.5" height="22" rx="10" ry="10"></rect>
<text x="492.75" y="292">"&#42;"</text>
</g>
<path d="M515.5 288a10 10 0 0 0 10 -10v-40a10 10 0 0 1 10 -10"></path>
<path d="M450 228a10 10 0 0 1 10 10v70a10 10 0 0 0 10 10"></path>
<g class="terminal">
<path d="M470 318h0"></path>
<path d="M515.5 318h0"></path>
<rect x="470" y="307" width="45.5" height="22" rx="10" ry="10"></rect>
<text x="492.75" y="322">"/"</text>
</g>
<path d="M515.5 318a10 10 0 0 0 10 -10v-70a10 10 0 0 1 10 -10"></path>
</g>
<g>
<path d="M535.5 228h0"></path>
<path d="M850 228h0"></path>
<path d="M535.5 228h20"></path>
<g class="non-terminal">
<path d="M555.5 228h0"></path>
<path d="M660.5 228h169.5"></path>
<rect x="555.5" y="217" width="105" height="22"></rect>
<a xlink:href="#/cds/expression/CDSInteger"><text x="608" y="232">CDSInteger</text>
</a>
</g>
<path d="M830 228h20"></path>
<path d="M535.5 228a10 10 0 0 1 10 10v19a10 10 0 0 0 10 10"></path>
<g>
<path d="M555.5 267h0"></path>
<path d="M830 267h0"></path>
<g class="non-terminal">
<path d="M555.5 267h0"></path>
<path d="M635 267h0"></path>
<rect x="555.5" y="256" width="79.5" height="22"></rect>
<a xlink:href="#/cds/expression/CDSName"><text x="595.25" y="271">CDSName</text>
</a>
</g>
<path d="M635 267h10"></path>
<g>
<path d="M645 267h0"></path>
<path d="M830 267h0"></path>
<path d="M645 267a10 10 0 0 0 10 -10v0a10 10 0 0 1 10 -10"></path>
<g>
<path d="M665 247h145"></path>
</g>
<path d="M810 247a10 10 0 0 1 10 10v0a10 10 0 0 0 10 10"></path>
<path d="M645 267h20"></path>
<g>
<path d="M665 267h0"></path>
<path d="M810 267h0"></path>
<g class="terminal">
<path d="M665 267h0"></path>
<path d="M710.5 267h0"></path>
<rect x="665" y="256" width="45.5" height="22" rx="10" ry="10"></rect>
<text x="687.75" y="271">"."</text>
</g>
<path d="M710.5 267h10"></path>
<path d="M720.5 267h10"></path>
<g class="non-terminal">
<path d="M730.5 267h0"></path>
<path d="M810 267h0"></path>
<rect x="730.5" y="256" width="79.5" height="22"></rect>
<a xlink:href="#/cds/expression/CDSName"><text x="770.25" y="271">CDSName</text>
</a>
</g>
</g>
<path d="M810 267h20"></path>
</g>
</g>
<path d="M830 267a10 10 0 0 0 10 -10v-19a10 10 0 0 1 10 -10"></path>
<path d="M535.5 228a10 10 0 0 1 10 10v49a10 10 0 0 0 10 10"></path>
<g class="non-terminal">
<path d="M555.5 297h0"></path>
<path d="M669 297h161"></path>
<rect x="555.5" y="286" width="113.5" height="22"></rect>
<a xlink:href="#/cds/expression/CDSFunction"><text x="612.25" y="301">CDSFunction</text>
</a>
</g>
<path d="M830 297a10 10 0 0 0 10 -10v-49a10 10 0 0 1 10 -10"></path>
<path d="M535.5 228a10 10 0 0 1 10 10v79a10 10 0 0 0 10 10"></path>
<g class="non-terminal">
<path d="M555.5 327h0"></path>
<path d="M635 327h195"></path>
<rect x="555.5" y="316" width="79.5" height="22"></rect>
<a xlink:href="#/cds/expression/CDSCase"><text x="595.25" y="331">CDSCase</text>
</a>
</g>
<path d="M830 327a10 10 0 0 0 10 -10v-79a10 10 0 0 1 10 -10"></path>
<path d="M535.5 228a10 10 0 0 1 10 10v109a10 10 0 0 0 10 10"></path>
<g class="non-terminal">
<path d="M555.5 357h0"></path>
<path d="M635 357h195"></path>
<rect x="555.5" y="346" width="79.5" height="22"></rect>
<a xlink:href="#/cds/expression/CDSCast"><text x="595.25" y="361">CDSCast</text>
</a>
</g>
<path d="M830 357a10 10 0 0 0 10 -10v-109a10 10 0 0 1 10 -10"></path>
<path d="M535.5 228a10 10 0 0 1 10 10v139a10 10 0 0 0 10 10"></path>
<g class="non-terminal">
<path d="M555.5 387h0"></path>
<path d="M652 387h178"></path>
<rect x="555.5" y="376" width="96.5" height="22"></rect>
<a xlink:href="#/cds/expression/CDSString"><text x="603.75" y="391">CDSString</text>
</a>
</g>
<path d="M830 387a10 10 0 0 0 10 -10v-139a10 10 0 0 1 10 -10"></path>
</g>
</g>
<path d="M850 228h10"></path>
<path d="M450 228a10 10 0 0 0 -10 10v158a10 10 0 0 0 10 10"></path>
<g>
<path d="M450 406h400"></path>
</g>
<path d="M850 406a10 10 0 0 0 10 -10v-158a10 10 0 0 0 -10 -10"></path>
</g>
<path d="M860 228h10"></path>
<path d="M870 228h10"></path>
<g class="terminal">
<path d="M880 228h0"></path>
<path d="M925.5 228h0"></path>
<rect x="880" y="217" width="45.5" height="22" rx="10" ry="10"></rect>
<text x="902.75" y="232">")"</text>
</g>
</g>
<path d="M1365.5 228a10 10 0 0 0 10 -10v-177a10 10 0 0 1 10 -10"></path>
<path d="M40 31a10 10 0 0 1 10 10v374a10 10 0 0 0 10 10"></path>
<g>
<path d="M60 425h0"></path>
<path d="M804.5 425h561"></path>
<g>
<path d="M60 425h0"></path>
<path d="M374.5 425h0"></path>
<path d="M60 425h20"></path>
<g class="non-terminal">
<path d="M80 425h0"></path>
<path d="M185 425h169.5"></path>
<rect x="80" y="414" width="105" height="22"></rect>
<a xlink:href="#/cds/expression/CDSInteger"><text x="132.5" y="429">CDSInteger</text>
</a>
</g>
<path d="M354.5 425h20"></path>
<path d="M60 425a10 10 0 0 1 10 10v19a10 10 0 0 0 10 10"></path>
<g>
<path d="M80 464h0"></path>
<path d="M354.5 464h0"></path>
<g class="non-terminal">
<path d="M80 464h0"></path>
<path d="M159.5 464h0"></path>
<rect x="80" y="453" width="79.5" height="22"></rect>
<a xlink:href="#/cds/expression/CDSName"><text x="119.75" y="468">CDSName</text>
</a>
</g>
<path d="M159.5 464h10"></path>
<g>
<path d="M169.5 464h0"></path>
<path d="M354.5 464h0"></path>
<path d="M169.5 464a10 10 0 0 0 10 -10v0a10 10 0 0 1 10 -10"></path>
<g>
<path d="M189.5 444h145"></path>
</g>
<path d="M334.5 444a10 10 0 0 1 10 10v0a10 10 0 0 0 10 10"></path>
<path d="M169.5 464h20"></path>
<g>
<path d="M189.5 464h0"></path>
<path d="M334.5 464h0"></path>
<g class="terminal">
<path d="M189.5 464h0"></path>
<path d="M235 464h0"></path>
<rect x="189.5" y="453" width="45.5" height="22" rx="10" ry="10"></rect>
<text x="212.25" y="468">"."</text>
</g>
<path d="M235 464h10"></path>
<path d="M245 464h10"></path>
<g class="non-terminal">
<path d="M255 464h0"></path>
<path d="M334.5 464h0"></path>
<rect x="255" y="453" width="79.5" height="22"></rect>
<a xlink:href="#/cds/expression/CDSName"><text x="294.75" y="468">CDSName</text>
</a>
</g>
</g>
<path d="M334.5 464h20"></path>
</g>
</g>
<path d="M354.5 464a10 10 0 0 0 10 -10v-19a10 10 0 0 1 10 -10"></path>
<path d="M60 425a10 10 0 0 1 10 10v49a10 10 0 0 0 10 10"></path>
<g class="non-terminal">
<path d="M80 494h0"></path>
<path d="M193.5 494h161"></path>
<rect x="80" y="483" width="113.5" height="22"></rect>
<a xlink:href="#/cds/expression/CDSFunction"><text x="136.75" y="498">CDSFunction</text>
</a>
</g>
<path d="M354.5 494a10 10 0 0 0 10 -10v-49a10 10 0 0 1 10 -10"></path>
<path d="M60 425a10 10 0 0 1 10 10v79a10 10 0 0 0 10 10"></path>
<g class="non-terminal">
<path d="M80 524h0"></path>
<path d="M159.5 524h195"></path>
<rect x="80" y="513" width="79.5" height="22"></rect>
<a xlink:href="#/cds/expression/CDSCase"><text x="119.75" y="528">CDSCase</text>
</a>
</g>
<path d="M354.5 524a10 10 0 0 0 10 -10v-79a10 10 0 0 1 10 -10"></path>
<path d="M60 425a10 10 0 0 1 10 10v109a10 10 0 0 0 10 10"></path>
<g class="non-terminal">
<path d="M80 554h0"></path>
<path d="M159.5 554h195"></path>
<rect x="80" y="543" width="79.5" height="22"></rect>
<a xlink:href="#/cds/expression/CDSCast"><text x="119.75" y="558">CDSCast</text>
</a>
</g>
<path d="M354.5 554a10 10 0 0 0 10 -10v-109a10 10 0 0 1 10 -10"></path>
<path d="M60 425a10 10 0 0 1 10 10v139a10 10 0 0 0 10 10"></path>
<g class="non-terminal">
<path d="M80 584h0"></path>
<path d="M176.5 584h178"></path>
<rect x="80" y="573" width="96.5" height="22"></rect>
<a xlink:href="#/cds/expression/CDSString"><text x="128.25" y="588">CDSString</text>
</a>
</g>
<path d="M354.5 584a10 10 0 0 0 10 -10v-139a10 10 0 0 1 10 -10"></path>
</g>
<path d="M374.5 425h10"></path>
<g>
<path d="M384.5 425h0"></path>
<path d="M804.5 425h0"></path>
<path d="M384.5 425h10"></path>
<g>
<path d="M394.5 425h0"></path>
<path d="M794.5 425h0"></path>
<g>
<path d="M394.5 425h0"></path>
<path d="M480 425h0"></path>
<path d="M394.5 425h20"></path>
<g class="terminal">
<path d="M414.5 425h0"></path>
<path d="M460 425h0"></path>
<rect x="414.5" y="414" width="45.5" height="22" rx="10" ry="10"></rect>
<text x="437.25" y="429">"+"</text>
</g>
<path d="M460 425h20"></path>
<path d="M394.5 425a10 10 0 0 1 10 10v10a10 10 0 0 0 10 10"></path>
<g class="terminal">
<path d="M414.5 455h0"></path>
<path d="M460 455h0"></path>
<rect x="414.5" y="444" width="45.5" height="22" rx="10" ry="10"></rect>
<text x="437.25" y="459">"-"</text>
</g>
<path d="M460 455a10 10 0 0 0 10 -10v-10a10 10 0 0 1 10 -10"></path>
<path d="M394.5 425a10 10 0 0 1 10 10v40a10 10 0 0 0 10 10"></path>
<g class="terminal">
<path d="M414.5 485h0"></path>
<path d="M460 485h0"></path>
<rect x="414.5" y="474" width="45.5" height="22" rx="10" ry="10"></rect>
<text x="437.25" y="489">"&#42;"</text>
</g>
<path d="M460 485a10 10 0 0 0 10 -10v-40a10 10 0 0 1 10 -10"></path>
<path d="M394.5 425a10 10 0 0 1 10 10v70a10 10 0 0 0 10 10"></path>
<g class="terminal">
<path d="M414.5 515h0"></path>
<path d="M460 515h0"></path>
<rect x="414.5" y="504" width="45.5" height="22" rx="10" ry="10"></rect>
<text x="437.25" y="519">"/"</text>
</g>
<path d="M460 515a10 10 0 0 0 10 -10v-70a10 10 0 0 1 10 -10"></path>
</g>
<g>
<path d="M480 425h0"></path>
<path d="M794.5 425h0"></path>
<path d="M480 425h20"></path>
<g class="non-terminal">
<path d="M500 425h0"></path>
<path d="M605 425h169.5"></path>
<rect x="500" y="414" width="105" height="22"></rect>
<a xlink:href="#/cds/expression/CDSInteger"><text x="552.5" y="429">CDSInteger</text>
</a>
</g>
<path d="M774.5 425h20"></path>
<path d="M480 425a10 10 0 0 1 10 10v19a10 10 0 0 0 10 10"></path>
<g>
<path d="M500 464h0"></path>
<path d="M774.5 464h0"></path>
<g class="non-terminal">
<path d="M500 464h0"></path>
<path d="M579.5 464h0"></path>
<rect x="500" y="453" width="79.5" height="22"></rect>
<a xlink:href="#/cds/expression/CDSName"><text x="539.75" y="468">CDSName</text>
</a>
</g>
<path d="M579.5 464h10"></path>
<g>
<path d="M589.5 464h0"></path>
<path d="M774.5 464h0"></path>
<path d="M589.5 464a10 10 0 0 0 10 -10v0a10 10 0 0 1 10 -10"></path>
<g>
<path d="M609.5 444h145"></path>
</g>
<path d="M754.5 444a10 10 0 0 1 10 10v0a10 10 0 0 0 10 10"></path>
<path d="M589.5 464h20"></path>
<g>
<path d="M609.5 464h0"></path>
<path d="M754.5 464h0"></path>
<g class="terminal">
<path d="M609.5 464h0"></path>
<path d="M655 464h0"></path>
<rect x="609.5" y="453" width="45.5" height="22" rx="10" ry="10"></rect>
<text x="632.25" y="468">"."</text>
</g>
<path d="M655 464h10"></path>
<path d="M665 464h10"></path>
<g class="non-terminal">
<path d="M675 464h0"></path>
<path d="M754.5 464h0"></path>
<rect x="675" y="453" width="79.5" height="22"></rect>
<a xlink:href="#/cds/expression/CDSName"><text x="714.75" y="468">CDSName</text>
</a>
</g>
</g>
<path d="M754.5 464h20"></path>
</g>
</g>
<path d="M774.5 464a10 10 0 0 0 10 -10v-19a10 10 0 0 1 10 -10"></path>
<path d="M480 425a10 10 0 0 1 10 10v49a10 10 0 0 0 10 10"></path>
<g class="non-terminal">
<path d="M500 494h0"></path>
<path d="M613.5 494h161"></path>
<rect x="500" y="483" width="113.5" height="22"></rect>
<a xlink:href="#/cds/expression/CDSFunction"><text x="556.75" y="498">CDSFunction</text>
</a>
</g>
<path d="M774.5 494a10 10 0 0 0 10 -10v-49a10 10 0 0 1 10 -10"></path>
<path d="M480 425a10 10 0 0 1 10 10v79a10 10 0 0 0 10 10"></path>
<g class="non-terminal">
<path d="M500 524h0"></path>
<path d="M579.5 524h195"></path>
<rect x="500" y="513" width="79.5" height="22"></rect>
<a xlink:href="#/cds/expression/CDSCase"><text x="539.75" y="528">CDSCase</text>
</a>
</g>
<path d="M774.5 524a10 10 0 0 0 10 -10v-79a10 10 0 0 1 10 -10"></path>
<path d="M480 425a10 10 0 0 1 10 10v109a10 10 0 0 0 10 10"></path>
<g class="non-terminal">
<path d="M500 554h0"></path>
<path d="M579.5 554h195"></path>
<rect x="500" y="543" width="79.5" height="22"></rect>
<a xlink:href="#/cds/expression/CDSCast"><text x="539.75" y="558">CDSCast</text>
</a>
</g>
<path d="M774.5 554a10 10 0 0 0 10 -10v-109a10 10 0 0 1 10 -10"></path>
<path d="M480 425a10 10 0 0 1 10 10v139a10 10 0 0 0 10 10"></path>
<g class="non-terminal">
<path d="M500 584h0"></path>
<path d="M596.5 584h178"></path>
<rect x="500" y="573" width="96.5" height="22"></rect>
<a xlink:href="#/cds/expression/CDSString"><text x="548.25" y="588">CDSString</text>
</a>
</g>
<path d="M774.5 584a10 10 0 0 0 10 -10v-139a10 10 0 0 1 10 -10"></path>
</g>
</g>
<path d="M794.5 425h10"></path>
<path d="M394.5 425a10 10 0 0 0 -10 10v158a10 10 0 0 0 10 10"></path>
<g>
<path d="M394.5 603h400"></path>
</g>
<path d="M794.5 603a10 10 0 0 0 10 -10v-158a10 10 0 0 0 -10 -10"></path>
</g>
</g>
<path d="M1365.5 425a10 10 0 0 0 10 -10v-374a10 10 0 0 1 10 -10"></path>
</g>
<path d="M 1385.5 31 h 20 m 0 -10 v 20"></path>
</g>
</svg>
