<svg xmlns="http://www.w3.org/2000/svg" xmlns:xlink="http://www.w3.org/1999/xlink" class="railroad-diagram" width="1043" height="260" viewBox="0 0 1043 260">
<defs>
<style type="text/css"><![CDATA[
path {
stroke-width: 3;
stroke: black;
fill: rgba(0,0,0,0);
}
text {
font: bold 14px monospace;
text-anchor: middle;
}
text.diagram-text {
font-size: 12px;
}
a {
fill: blue;
}
text.diagram-arrow {
font-size: 16px;
}
text.label {
text-anchor: start;
}
text.comment {
font: italic 12px monospace;
}
rect {
stroke-width: 3;
stroke: black;
fill: #BCBCBC;
}
path.diagram-text {
stroke-width: 3;
stroke: black;
fill: #BCBCBC;
cursor: help;
}
]]></style>
</defs>
<g transform="translate(.5 .5)">
<g>
<path d="M20 30v20m0 -10h20"></path>
</g>
<path d="M40 40h10"></path>
<g>
<path d="M50 40h0"></path>
<path d="M993 40h0"></path>
<g class="terminal">
<path d="M50 40h0"></path>
<path d="M121 40h0"></path>
<rect x="50" y="29" width="71" height="22" rx="10" ry="10"></rect>
<text x="85.5" y="44">"CAST"</text>
</g>
<path d="M121 40h10"></path>
<path d="M131 40h10"></path>
<g class="terminal">
<path d="M141 40h0"></path>
<path d="M186.5 40h0"></path>
<rect x="141" y="29" width="45.5" height="22" rx="10" ry="10"></rect>
<text x="163.75" y="44">"("</text>
</g>
<path d="M186.5 40h10"></path>
<g>
<path d="M196.5 40h0"></path>
<path d="M511 40h0"></path>
<path d="M196.5 40h20"></path>
<g class="non-terminal">
<path d="M216.5 40h0"></path>
<path d="M330 40h161"></path>
<rect x="216.5" y="29" width="113.5" height="22"></rect>
<a xlink:href="#/cds/expression/CDSFunction"><text x="273.25" y="44">CDSFunction</text>
</a>
</g>
<path d="M491 40h20"></path>
<path d="M196.5 40a10 10 0 0 1 10 10v10a10 10 0 0 0 10 10"></path>
<g class="non-terminal">
<path d="M216.5 70h0"></path>
<path d="M296 70h195"></path>
<rect x="216.5" y="59" width="79.5" height="22"></rect>
<a xlink:href="#/cds/expression/CDSCase"><text x="256.25" y="74">CDSCase</text>
</a>
</g>
<path d="M491 70a10 10 0 0 0 10 -10v-10a10 10 0 0 1 10 -10"></path>
<path d="M196.5 40a10 10 0 0 1 10 10v40a10 10 0 0 0 10 10"></path>
<g class="non-terminal">
<path d="M216.5 100h0"></path>
<path d="M338.5 100h152.5"></path>
<rect x="216.5" y="89" width="122" height="22"></rect>
<a xlink:href="#/cds/expression/CDSAggregate"><text x="277.5" y="104">CDSAggregate</text>
</a>
</g>
<path d="M491 100a10 10 0 0 0 10 -10v-40a10 10 0 0 1 10 -10"></path>
<path d="M196.5 40a10 10 0 0 1 10 10v70a10 10 0 0 0 10 10"></path>
<g class="non-terminal">
<path d="M216.5 130h0"></path>
<path d="M296 130h195"></path>
<rect x="216.5" y="119" width="79.5" height="22"></rect>
<a xlink:href="#/cds/expression/CDSCast"><text x="256.25" y="134">CDSCast</text>
</a>
</g>
<path d="M491 130a10 10 0 0 0 10 -10v-70a10 10 0 0 1 10 -10"></path>
<path d="M196.5 40a10 10 0 0 1 10 10v100a10 10 0 0 0 10 10"></path>
<g class="non-terminal">
<path d="M216.5 160h0"></path>
<path d="M313 160h178"></path>
<rect x="216.5" y="149" width="96.5" height="22"></rect>
<a xlink:href="#/cds/expression/CDSString"><text x="264.75" y="164">CDSString</text>
</a>
</g>
<path d="M491 160a10 10 0 0 0 10 -10v-100a10 10 0 0 1 10 -10"></path>
<path d="M196.5 40a10 10 0 0 1 10 10v130a10 10 0 0 0 10 10"></path>
<g class="non-terminal">
<path d="M216.5 190h0"></path>
<path d="M355.5 190h135.5"></path>
<rect x="216.5" y="179" width="139" height="22"></rect>
<a xlink:href="#/cds/expression/CDSArithmetics"><text x="286" y="194">CDSArithmetics</text>
</a>
</g>
<path d="M491 190a10 10 0 0 0 10 -10v-130a10 10 0 0 1 10 -10"></path>
<path d="M196.5 40a10 10 0 0 1 10 10v169a10 10 0 0 0 10 10"></path>
<g>
<path d="M216.5 229h0"></path>
<path d="M491 229h0"></path>
<g class="non-terminal">
<path d="M216.5 229h0"></path>
<path d="M296 229h0"></path>
<rect x="216.5" y="218" width="79.5" height="22"></rect>
<a xlink:href="#/cds/expression/CDSName"><text x="256.25" y="233">CDSName</text>
</a>
</g>
<path d="M296 229h10"></path>
<g>
<path d="M306 229h0"></path>
<path d="M491 229h0"></path>
<path d="M306 229a10 10 0 0 0 10 -10v0a10 10 0 0 1 10 -10"></path>
<g>
<path d="M326 209h145"></path>
</g>
<path d="M471 209a10 10 0 0 1 10 10v0a10 10 0 0 0 10 10"></path>
<path d="M306 229h20"></path>
<g>
<path d="M326 229h0"></path>
<path d="M471 229h0"></path>
<g class="terminal">
<path d="M326 229h0"></path>
<path d="M371.5 229h0"></path>
<rect x="326" y="218" width="45.5" height="22" rx="10" ry="10"></rect>
<text x="348.75" y="233">"."</text>
</g>
<path d="M371.5 229h10"></path>
<path d="M381.5 229h10"></path>
<g class="non-terminal">
<path d="M391.5 229h0"></path>
<path d="M471 229h0"></path>
<rect x="391.5" y="218" width="79.5" height="22"></rect>
<a xlink:href="#/cds/expression/CDSName"><text x="431.25" y="233">CDSName</text>
</a>
</g>
</g>
<path d="M471 229h20"></path>
</g>
</g>
<path d="M491 229a10 10 0 0 0 10 -10v-169a10 10 0 0 1 10 -10"></path>
</g>
<path d="M511 40h10"></path>
<g class="terminal">
<path d="M521 40h0"></path>
<path d="M575 40h0"></path>
<rect x="521" y="29" width="54" height="22" rx="10" ry="10"></rect>
<text x="548" y="44">"AS"</text>
</g>
<path d="M575 40h10"></path>
<path d="M585 40h10"></path>
<g class="non-terminal">
<path d="M595 40h0"></path>
<path d="M674.5 40h0"></path>
<rect x="595" y="29" width="79.5" height="22"></rect>
<a xlink:href="#/cds/expression/CDSType"><text x="634.75" y="44">CDSType</text>
</a>
</g>
<path d="M674.5 40h10"></path>
<g>
<path d="M684.5 40h0"></path>
<path d="M937.5 40h0"></path>
<path d="M684.5 40a10 10 0 0 0 10 -10v0a10 10 0 0 1 10 -10"></path>
<g>
<path d="M704.5 20h213"></path>
</g>
<path d="M917.5 20a10 10 0 0 1 10 10v0a10 10 0 0 0 10 10"></path>
<path d="M684.5 40h20"></path>
<g>
<path d="M704.5 40h0"></path>
<path d="M917.5 40h0"></path>
<g class="terminal">
<path d="M704.5 40h0"></path>
<path d="M826.5 40h0"></path>
<rect x="704.5" y="29" width="122" height="22" rx="10" ry="10"></rect>
<text x="765.5" y="44">"PRESERVING"</text>
</g>
<path d="M826.5 40h10"></path>
<path d="M836.5 40h10"></path>
<g class="terminal">
<path d="M846.5 40h0"></path>
<path d="M917.5 40h0"></path>
<rect x="846.5" y="29" width="71" height="22" rx="10" ry="10"></rect>
<text x="882" y="44">"TYPE"</text>
</g>
</g>
<path d="M917.5 40h20"></path>
</g>
<path d="M937.5 40h10"></path>
<g class="terminal">
<path d="M947.5 40h0"></path>
<path d="M993 40h0"></path>
<rect x="947.5" y="29" width="45.5" height="22" rx="10" ry="10"></rect>
<text x="970.25" y="44">")"</text>
</g>
</g>
<path d="M993 40h10"></path>
<path d="M 1003 40 h 20 m 0 -10 v 20"></path>
</g>
</svg>
