<svg xmlns="http://www.w3.org/2000/svg" xmlns:xlink="http://www.w3.org/1999/xlink" class="railroad-diagram" width="1834.5" height="434" viewBox="0 0 1834.5 434">
<defs>
<style type="text/css"><![CDATA[
path {
stroke-width: 3;
stroke: black;
fill: rgba(0,0,0,0);
}
text {
font: bold 14px monospace;
text-anchor: middle;
}
text.diagram-text {
font-size: 12px;
}
a {
fill: blue;
}
text.diagram-arrow {
font-size: 16px;
}
text.label {
text-anchor: start;
}
text.comment {
font: italic 12px monospace;
}
rect {
stroke-width: 3;
stroke: black;
fill: #BCBCBC;
}
path.diagram-text {
stroke-width: 3;
stroke: black;
fill: #BCBCBC;
cursor: help;
}
]]></style>
</defs>
<g transform="translate(.5 .5)">
<g>
<path d="M20 30v20m0 -10h20"></path>
</g>
<g>
<path d="M40 40h0"></path>
<path d="M1794.5 40h0"></path>
<path d="M40 40h20"></path>
<g>
<path d="M60 40h0"></path>
<path d="M1774.5 40h0"></path>
<g class="terminal">
<path d="M60 40h0"></path>
<path d="M131 40h0"></path>
<rect x="60" y="29" width="71" height="22" rx="10" ry="10"></rect>
<text x="95.5" y="44">"CASE"</text>
</g>
<path d="M131 40h10"></path>
<g>
<path d="M141 40h0"></path>
<path d="M455.5 40h0"></path>
<path d="M141 40h20"></path>
<g>
<path d="M161 40h0"></path>
<path d="M435.5 40h0"></path>
<g class="non-terminal">
<path d="M161 40h0"></path>
<path d="M240.5 40h0"></path>
<rect x="161" y="29" width="79.5" height="22"></rect>
<a xlink:href="#/cds/expression/CDSName"><text x="200.75" y="44">CDSName</text>
</a>
</g>
<path d="M240.5 40h10"></path>
<g>
<path d="M250.5 40h0"></path>
<path d="M435.5 40h0"></path>
<path d="M250.5 40a10 10 0 0 0 10 -10v0a10 10 0 0 1 10 -10"></path>
<g>
<path d="M270.5 20h145"></path>
</g>
<path d="M415.5 20a10 10 0 0 1 10 10v0a10 10 0 0 0 10 10"></path>
<path d="M250.5 40h20"></path>
<g>
<path d="M270.5 40h0"></path>
<path d="M415.5 40h0"></path>
<g class="terminal">
<path d="M270.5 40h0"></path>
<path d="M316 40h0"></path>
<rect x="270.5" y="29" width="45.5" height="22" rx="10" ry="10"></rect>
<text x="293.25" y="44">"."</text>
</g>
<path d="M316 40h10"></path>
<path d="M326 40h10"></path>
<g class="non-terminal">
<path d="M336 40h0"></path>
<path d="M415.5 40h0"></path>
<rect x="336" y="29" width="79.5" height="22"></rect>
<a xlink:href="#/cds/expression/CDSName"><text x="375.75" y="44">CDSName</text>
</a>
</g>
</g>
<path d="M415.5 40h20"></path>
</g>
</g>
<path d="M435.5 40h20"></path>
<path d="M141 40a10 10 0 0 1 10 10v10a10 10 0 0 0 10 10"></path>
<g class="non-terminal">
<path d="M161 70h0"></path>
<path d="M274.5 70h161"></path>
<rect x="161" y="59" width="113.5" height="22"></rect>
<a xlink:href="#/cds/expression/CDSFunction"><text x="217.75" y="74">CDSFunction</text>
</a>
</g>
<path d="M435.5 70a10 10 0 0 0 10 -10v-10a10 10 0 0 1 10 -10"></path>
</g>
<path d="M455.5 40h10"></path>
<g>
<path d="M465.5 40h0"></path>
<path d="M1286.5 40h0"></path>
<path d="M465.5 40h10"></path>
<g>
<path d="M475.5 40h0"></path>
<path d="M1276.5 40h0"></path>
<g class="terminal">
<path d="M475.5 40h0"></path>
<path d="M546.5 40h0"></path>
<rect x="475.5" y="29" width="71" height="22" rx="10" ry="10"></rect>
<text x="511" y="44">"WHEN"</text>
</g>
<path d="M546.5 40h10"></path>
<g>
<path d="M556.5 40h0"></path>
<path d="M871 40h0"></path>
<path d="M556.5 40h20"></path>
<g>
<path d="M576.5 40h0"></path>
<path d="M851 40h0"></path>
<g class="non-terminal">
<path d="M576.5 40h0"></path>
<path d="M656 40h0"></path>
<rect x="576.5" y="29" width="79.5" height="22"></rect>
<a xlink:href="#/cds/expression/CDSName"><text x="616.25" y="44">CDSName</text>
</a>
</g>
<path d="M656 40h10"></path>
<g>
<path d="M666 40h0"></path>
<path d="M851 40h0"></path>
<path d="M666 40a10 10 0 0 0 10 -10v0a10 10 0 0 1 10 -10"></path>
<g>
<path d="M686 20h145"></path>
</g>
<path d="M831 20a10 10 0 0 1 10 10v0a10 10 0 0 0 10 10"></path>
<path d="M666 40h20"></path>
<g>
<path d="M686 40h0"></path>
<path d="M831 40h0"></path>
<g class="terminal">
<path d="M686 40h0"></path>
<path d="M731.5 40h0"></path>
<rect x="686" y="29" width="45.5" height="22" rx="10" ry="10"></rect>
<text x="708.75" y="44">"."</text>
</g>
<path d="M731.5 40h10"></path>
<path d="M741.5 40h10"></path>
<g class="non-terminal">
<path d="M751.5 40h0"></path>
<path d="M831 40h0"></path>
<rect x="751.5" y="29" width="79.5" height="22"></rect>
<a xlink:href="#/cds/expression/CDSName"><text x="791.25" y="44">CDSName</text>
</a>
</g>
</g>
<path d="M831 40h20"></path>
</g>
</g>
<path d="M851 40h20"></path>
<path d="M556.5 40a10 10 0 0 1 10 10v10a10 10 0 0 0 10 10"></path>
<g class="non-terminal">
<path d="M576.5 70h0"></path>
<path d="M673 70h178"></path>
<rect x="576.5" y="59" width="96.5" height="22"></rect>
<a xlink:href="#/cds/expression/CDSString"><text x="624.75" y="74">CDSString</text>
</a>
</g>
<path d="M851 70a10 10 0 0 0 10 -10v-10a10 10 0 0 1 10 -10"></path>
<path d="M556.5 40a10 10 0 0 1 10 10v40a10 10 0 0 0 10 10"></path>
<g class="non-terminal">
<path d="M576.5 100h0"></path>
<path d="M690 100h161"></path>
<rect x="576.5" y="89" width="113.5" height="22"></rect>
<a xlink:href="#/cds/expression/CDSFunction"><text x="633.25" y="104">CDSFunction</text>
</a>
</g>
<path d="M851 100a10 10 0 0 0 10 -10v-40a10 10 0 0 1 10 -10"></path>
<path d="M556.5 40a10 10 0 0 1 10 10v70a10 10 0 0 0 10 10"></path>
<g class="non-terminal">
<path d="M576.5 130h0"></path>
<path d="M656 130h195"></path>
<rect x="576.5" y="119" width="79.5" height="22"></rect>
<a xlink:href="#/cds/expression/CDSCase"><text x="616.25" y="134">CDSCase</text>
</a>
</g>
<path d="M851 130a10 10 0 0 0 10 -10v-70a10 10 0 0 1 10 -10"></path>
<path d="M556.5 40a10 10 0 0 1 10 10v100a10 10 0 0 0 10 10"></path>
<g class="non-terminal">
<path d="M576.5 160h0"></path>
<path d="M656 160h195"></path>
<rect x="576.5" y="149" width="79.5" height="22"></rect>
<a xlink:href="#/cds/expression/CDSCast"><text x="616.25" y="164">CDSCast</text>
</a>
</g>
<path d="M851 160a10 10 0 0 0 10 -10v-100a10 10 0 0 1 10 -10"></path>
<path d="M556.5 40a10 10 0 0 1 10 10v130a10 10 0 0 0 10 10"></path>
<g class="non-terminal">
<path d="M576.5 190h0"></path>
<path d="M715.5 190h135.5"></path>
<rect x="576.5" y="179" width="139" height="22"></rect>
<a xlink:href="#/cds/expression/CDSArithmetics"><text x="646" y="194">CDSArithmetics</text>
</a>
</g>
<path d="M851 190a10 10 0 0 0 10 -10v-130a10 10 0 0 1 10 -10"></path>
</g>
<path d="M871 40h10"></path>
<g class="terminal">
<path d="M881 40h0"></path>
<path d="M952 40h0"></path>
<rect x="881" y="29" width="71" height="22" rx="10" ry="10"></rect>
<text x="916.5" y="44">"THEN"</text>
</g>
<path d="M952 40h10"></path>
<g>
<path d="M962 40h0"></path>
<path d="M1276.5 40h0"></path>
<path d="M962 40h20"></path>
<g>
<path d="M982 40h0"></path>
<path d="M1256.5 40h0"></path>
<g class="non-terminal">
<path d="M982 40h0"></path>
<path d="M1061.5 40h0"></path>
<rect x="982" y="29" width="79.5" height="22"></rect>
<a xlink:href="#/cds/expression/CDSName"><text x="1021.75" y="44">CDSName</text>
</a>
</g>
<path d="M1061.5 40h10"></path>
<g>
<path d="M1071.5 40h0"></path>
<path d="M1256.5 40h0"></path>
<path d="M1071.5 40a10 10 0 0 0 10 -10v0a10 10 0 0 1 10 -10"></path>
<g>
<path d="M1091.5 20h145"></path>
</g>
<path d="M1236.5 20a10 10 0 0 1 10 10v0a10 10 0 0 0 10 10"></path>
<path d="M1071.5 40h20"></path>
<g>
<path d="M1091.5 40h0"></path>
<path d="M1236.5 40h0"></path>
<g class="terminal">
<path d="M1091.5 40h0"></path>
<path d="M1137 40h0"></path>
<rect x="1091.5" y="29" width="45.5" height="22" rx="10" ry="10"></rect>
<text x="1114.25" y="44">"."</text>
</g>
<path d="M1137 40h10"></path>
<path d="M1147 40h10"></path>
<g class="non-terminal">
<path d="M1157 40h0"></path>
<path d="M1236.5 40h0"></path>
<rect x="1157" y="29" width="79.5" height="22"></rect>
<a xlink:href="#/cds/expression/CDSName"><text x="1196.75" y="44">CDSName</text>
</a>
</g>
</g>
<path d="M1236.5 40h20"></path>
</g>
</g>
<path d="M1256.5 40h20"></path>
<path d="M962 40a10 10 0 0 1 10 10v10a10 10 0 0 0 10 10"></path>
<g class="non-terminal">
<path d="M982 70h0"></path>
<path d="M1078.5 70h178"></path>
<rect x="982" y="59" width="96.5" height="22"></rect>
<a xlink:href="#/cds/expression/CDSString"><text x="1030.25" y="74">CDSString</text>
</a>
</g>
<path d="M1256.5 70a10 10 0 0 0 10 -10v-10a10 10 0 0 1 10 -10"></path>
<path d="M962 40a10 10 0 0 1 10 10v40a10 10 0 0 0 10 10"></path>
<g class="non-terminal">
<path d="M982 100h0"></path>
<path d="M1095.5 100h161"></path>
<rect x="982" y="89" width="113.5" height="22"></rect>
<a xlink:href="#/cds/expression/CDSFunction"><text x="1038.75" y="104">CDSFunction</text>
</a>
</g>
<path d="M1256.5 100a10 10 0 0 0 10 -10v-40a10 10 0 0 1 10 -10"></path>
<path d="M962 40a10 10 0 0 1 10 10v70a10 10 0 0 0 10 10"></path>
<g class="non-terminal">
<path d="M982 130h0"></path>
<path d="M1061.5 130h195"></path>
<rect x="982" y="119" width="79.5" height="22"></rect>
<a xlink:href="#/cds/expression/CDSCase"><text x="1021.75" y="134">CDSCase</text>
</a>
</g>
<path d="M1256.5 130a10 10 0 0 0 10 -10v-70a10 10 0 0 1 10 -10"></path>
<path d="M962 40a10 10 0 0 1 10 10v100a10 10 0 0 0 10 10"></path>
<g class="non-terminal">
<path d="M982 160h0"></path>
<path d="M1061.5 160h195"></path>
<rect x="982" y="149" width="79.5" height="22"></rect>
<a xlink:href="#/cds/expression/CDSCast"><text x="1021.75" y="164">CDSCast</text>
</a>
</g>
<path d="M1256.5 160a10 10 0 0 0 10 -10v-100a10 10 0 0 1 10 -10"></path>
<path d="M962 40a10 10 0 0 1 10 10v130a10 10 0 0 0 10 10"></path>
<g class="non-terminal">
<path d="M982 190h0"></path>
<path d="M1121 190h135.5"></path>
<rect x="982" y="179" width="139" height="22"></rect>
<a xlink:href="#/cds/expression/CDSArithmetics"><text x="1051.5" y="194">CDSArithmetics</text>
</a>
</g>
<path d="M1256.5 190a10 10 0 0 0 10 -10v-130a10 10 0 0 1 10 -10"></path>
</g>
</g>
<path d="M1276.5 40h10"></path>
<path d="M475.5 40a10 10 0 0 0 -10 10v149a10 10 0 0 0 10 10"></path>
<g>
<path d="M475.5 209h801"></path>
</g>
<path d="M1276.5 209a10 10 0 0 0 10 -10v-149a10 10 0 0 0 -10 -10"></path>
</g>
<path d="M1286.5 40h10"></path>
<path d="M1296.5 40h10"></path>
<g class="terminal">
<path d="M1306.5 40h0"></path>
<path d="M1377.5 40h0"></path>
<rect x="1306.5" y="29" width="71" height="22" rx="10" ry="10"></rect>
<text x="1342" y="44">"ELSE"</text>
</g>
<path d="M1377.5 40h10"></path>
<g>
<path d="M1387.5 40h0"></path>
<path d="M1702 40h0"></path>
<path d="M1387.5 40h20"></path>
<g>
<path d="M1407.5 40h0"></path>
<path d="M1682 40h0"></path>
<g class="non-terminal">
<path d="M1407.5 40h0"></path>
<path d="M1487 40h0"></path>
<rect x="1407.5" y="29" width="79.5" height="22"></rect>
<a xlink:href="#/cds/expression/CDSName"><text x="1447.25" y="44">CDSName</text>
</a>
</g>
<path d="M1487 40h10"></path>
<g>
<path d="M1497 40h0"></path>
<path d="M1682 40h0"></path>
<path d="M1497 40a10 10 0 0 0 10 -10v0a10 10 0 0 1 10 -10"></path>
<g>
<path d="M1517 20h145"></path>
</g>
<path d="M1662 20a10 10 0 0 1 10 10v0a10 10 0 0 0 10 10"></path>
<path d="M1497 40h20"></path>
<g>
<path d="M1517 40h0"></path>
<path d="M1662 40h0"></path>
<g class="terminal">
<path d="M1517 40h0"></path>
<path d="M1562.5 40h0"></path>
<rect x="1517" y="29" width="45.5" height="22" rx="10" ry="10"></rect>
<text x="1539.75" y="44">"."</text>
</g>
<path d="M1562.5 40h10"></path>
<path d="M1572.5 40h10"></path>
<g class="non-terminal">
<path d="M1582.5 40h0"></path>
<path d="M1662 40h0"></path>
<rect x="1582.5" y="29" width="79.5" height="22"></rect>
<a xlink:href="#/cds/expression/CDSName"><text x="1622.25" y="44">CDSName</text>
</a>
</g>
</g>
<path d="M1662 40h20"></path>
</g>
</g>
<path d="M1682 40h20"></path>
<path d="M1387.5 40a10 10 0 0 1 10 10v10a10 10 0 0 0 10 10"></path>
<g class="non-terminal">
<path d="M1407.5 70h0"></path>
<path d="M1504 70h178"></path>
<rect x="1407.5" y="59" width="96.5" height="22"></rect>
<a xlink:href="#/cds/expression/CDSString"><text x="1455.75" y="74">CDSString</text>
</a>
</g>
<path d="M1682 70a10 10 0 0 0 10 -10v-10a10 10 0 0 1 10 -10"></path>
<path d="M1387.5 40a10 10 0 0 1 10 10v40a10 10 0 0 0 10 10"></path>
<g class="non-terminal">
<path d="M1407.5 100h0"></path>
<path d="M1521 100h161"></path>
<rect x="1407.5" y="89" width="113.5" height="22"></rect>
<a xlink:href="#/cds/expression/CDSFunction"><text x="1464.25" y="104">CDSFunction</text>
</a>
</g>
<path d="M1682 100a10 10 0 0 0 10 -10v-40a10 10 0 0 1 10 -10"></path>
<path d="M1387.5 40a10 10 0 0 1 10 10v70a10 10 0 0 0 10 10"></path>
<g class="non-terminal">
<path d="M1407.5 130h0"></path>
<path d="M1487 130h195"></path>
<rect x="1407.5" y="119" width="79.5" height="22"></rect>
<a xlink:href="#/cds/expression/CDSCase"><text x="1447.25" y="134">CDSCase</text>
</a>
</g>
<path d="M1682 130a10 10 0 0 0 10 -10v-70a10 10 0 0 1 10 -10"></path>
<path d="M1387.5 40a10 10 0 0 1 10 10v100a10 10 0 0 0 10 10"></path>
<g class="non-terminal">
<path d="M1407.5 160h0"></path>
<path d="M1487 160h195"></path>
<rect x="1407.5" y="149" width="79.5" height="22"></rect>
<a xlink:href="#/cds/expression/CDSCast"><text x="1447.25" y="164">CDSCast</text>
</a>
</g>
<path d="M1682 160a10 10 0 0 0 10 -10v-100a10 10 0 0 1 10 -10"></path>
<path d="M1387.5 40a10 10 0 0 1 10 10v130a10 10 0 0 0 10 10"></path>
<g class="non-terminal">
<path d="M1407.5 190h0"></path>
<path d="M1546.5 190h135.5"></path>
<rect x="1407.5" y="179" width="139" height="22"></rect>
<a xlink:href="#/cds/expression/CDSArithmetics"><text x="1477" y="194">CDSArithmetics</text>
</a>
</g>
<path d="M1682 190a10 10 0 0 0 10 -10v-130a10 10 0 0 1 10 -10"></path>
</g>
<path d="M1702 40h10"></path>
<g class="terminal">
<path d="M1712 40h0"></path>
<path d="M1774.5 40h0"></path>
<rect x="1712" y="29" width="62.5" height="22" rx="10" ry="10"></rect>
<text x="1743.25" y="44">"END"</text>
</g>
</g>
<path d="M1774.5 40h20"></path>
<path d="M40 40a10 10 0 0 1 10 10v185a10 10 0 0 0 10 10"></path>
<g>
<path d="M60 245h0"></path>
<path d="M1317.5 245h457"></path>
<g class="terminal">
<path d="M60 245h0"></path>
<path d="M131 245h0"></path>
<rect x="60" y="234" width="71" height="22" rx="10" ry="10"></rect>
<text x="95.5" y="249">"CASE"</text>
</g>
<path d="M131 245h10"></path>
<path d="M141 245h10"></path>
<g>
<path d="M151 245h0"></path>
<path d="M799.5 245h0"></path>
<path d="M151 245h10"></path>
<g>
<path d="M161 245h0"></path>
<path d="M789.5 245h0"></path>
<g class="terminal">
<path d="M161 245h0"></path>
<path d="M232 245h0"></path>
<rect x="161" y="234" width="71" height="22" rx="10" ry="10"></rect>
<text x="196.5" y="249">"WHEN"</text>
</g>
<path d="M232 245h10"></path>
<path d="M242 245h10"></path>
<g class="non-terminal">
<path d="M252 245h0"></path>
<path d="M374 245h0"></path>
<rect x="252" y="234" width="122" height="22"></rect>
<a xlink:href="#/cds/expression/CDSCondition"><text x="313" y="249">CDSCondition</text>
</a>
</g>
<path d="M374 245h10"></path>
<path d="M384 245h10"></path>
<g class="terminal">
<path d="M394 245h0"></path>
<path d="M465 245h0"></path>
<rect x="394" y="234" width="71" height="22" rx="10" ry="10"></rect>
<text x="429.5" y="249">"THEN"</text>
</g>
<path d="M465 245h10"></path>
<g>
<path d="M475 245h0"></path>
<path d="M789.5 245h0"></path>
<path d="M475 245h20"></path>
<g>
<path d="M495 245h0"></path>
<path d="M769.5 245h0"></path>
<g class="non-terminal">
<path d="M495 245h0"></path>
<path d="M574.5 245h0"></path>
<rect x="495" y="234" width="79.5" height="22"></rect>
<a xlink:href="#/cds/expression/CDSName"><text x="534.75" y="249">CDSName</text>
</a>
</g>
<path d="M574.5 245h10"></path>
<g>
<path d="M584.5 245h0"></path>
<path d="M769.5 245h0"></path>
<path d="M584.5 245a10 10 0 0 0 10 -10v0a10 10 0 0 1 10 -10"></path>
<g>
<path d="M604.5 225h145"></path>
</g>
<path d="M749.5 225a10 10 0 0 1 10 10v0a10 10 0 0 0 10 10"></path>
<path d="M584.5 245h20"></path>
<g>
<path d="M604.5 245h0"></path>
<path d="M749.5 245h0"></path>
<g class="terminal">
<path d="M604.5 245h0"></path>
<path d="M650 245h0"></path>
<rect x="604.5" y="234" width="45.5" height="22" rx="10" ry="10"></rect>
<text x="627.25" y="249">"."</text>
</g>
<path d="M650 245h10"></path>
<path d="M660 245h10"></path>
<g class="non-terminal">
<path d="M670 245h0"></path>
<path d="M749.5 245h0"></path>
<rect x="670" y="234" width="79.5" height="22"></rect>
<a xlink:href="#/cds/expression/CDSName"><text x="709.75" y="249">CDSName</text>
</a>
</g>
</g>
<path d="M749.5 245h20"></path>
</g>
</g>
<path d="M769.5 245h20"></path>
<path d="M475 245a10 10 0 0 1 10 10v10a10 10 0 0 0 10 10"></path>
<g class="non-terminal">
<path d="M495 275h0"></path>
<path d="M591.5 275h178"></path>
<rect x="495" y="264" width="96.5" height="22"></rect>
<a xlink:href="#/cds/expression/CDSString"><text x="543.25" y="279">CDSString</text>
</a>
</g>
<path d="M769.5 275a10 10 0 0 0 10 -10v-10a10 10 0 0 1 10 -10"></path>
<path d="M475 245a10 10 0 0 1 10 10v40a10 10 0 0 0 10 10"></path>
<g class="non-terminal">
<path d="M495 305h0"></path>
<path d="M608.5 305h161"></path>
<rect x="495" y="294" width="113.5" height="22"></rect>
<a xlink:href="#/cds/expression/CDSFunction"><text x="551.75" y="309">CDSFunction</text>
</a>
</g>
<path d="M769.5 305a10 10 0 0 0 10 -10v-40a10 10 0 0 1 10 -10"></path>
<path d="M475 245a10 10 0 0 1 10 10v70a10 10 0 0 0 10 10"></path>
<g class="non-terminal">
<path d="M495 335h0"></path>
<path d="M574.5 335h195"></path>
<rect x="495" y="324" width="79.5" height="22"></rect>
<a xlink:href="#/cds/expression/CDSCase"><text x="534.75" y="339">CDSCase</text>
</a>
</g>
<path d="M769.5 335a10 10 0 0 0 10 -10v-70a10 10 0 0 1 10 -10"></path>
<path d="M475 245a10 10 0 0 1 10 10v100a10 10 0 0 0 10 10"></path>
<g class="non-terminal">
<path d="M495 365h0"></path>
<path d="M574.5 365h195"></path>
<rect x="495" y="354" width="79.5" height="22"></rect>
<a xlink:href="#/cds/expression/CDSCast"><text x="534.75" y="369">CDSCast</text>
</a>
</g>
<path d="M769.5 365a10 10 0 0 0 10 -10v-100a10 10 0 0 1 10 -10"></path>
<path d="M475 245a10 10 0 0 1 10 10v130a10 10 0 0 0 10 10"></path>
<g class="non-terminal">
<path d="M495 395h0"></path>
<path d="M634 395h135.5"></path>
<rect x="495" y="384" width="139" height="22"></rect>
<a xlink:href="#/cds/expression/CDSArithmetics"><text x="564.5" y="399">CDSArithmetics</text>
</a>
</g>
<path d="M769.5 395a10 10 0 0 0 10 -10v-130a10 10 0 0 1 10 -10"></path>
</g>
</g>
<path d="M789.5 245h10"></path>
<path d="M161 245a10 10 0 0 0 -10 10v149a10 10 0 0 0 10 10"></path>
<g>
<path d="M161 414h628.5"></path>
</g>
<path d="M789.5 414a10 10 0 0 0 10 -10v-149a10 10 0 0 0 -10 -10"></path>
</g>
<path d="M799.5 245h10"></path>
<g>
<path d="M809.5 245h0"></path>
<path d="M1245 245h0"></path>
<path d="M809.5 245a10 10 0 0 0 10 -10v-8a10 10 0 0 1 10 -10"></path>
<g>
<path d="M829.5 217h395.5"></path>
</g>
<path d="M1225 217a10 10 0 0 1 10 10v8a10 10 0 0 0 10 10"></path>
<path d="M809.5 245h20"></path>
<g>
<path d="M829.5 245h0"></path>
<path d="M1225 245h0"></path>
<g class="terminal">
<path d="M829.5 245h0"></path>
<path d="M900.5 245h0"></path>
<rect x="829.5" y="234" width="71" height="22" rx="10" ry="10"></rect>
<text x="865" y="249">"ELSE"</text>
</g>
<path d="M900.5 245h10"></path>
<g>
<path d="M910.5 245h0"></path>
<path d="M1225 245h0"></path>
<path d="M910.5 245h20"></path>
<g>
<path d="M930.5 245h0"></path>
<path d="M1205 245h0"></path>
<g class="non-terminal">
<path d="M930.5 245h0"></path>
<path d="M1010 245h0"></path>
<rect x="930.5" y="234" width="79.5" height="22"></rect>
<a xlink:href="#/cds/expression/CDSName"><text x="970.25" y="249">CDSName</text>
</a>
</g>
<path d="M1010 245h10"></path>
<g>
<path d="M1020 245h0"></path>
<path d="M1205 245h0"></path>
<path d="M1020 245a10 10 0 0 0 10 -10v0a10 10 0 0 1 10 -10"></path>
<g>
<path d="M1040 225h145"></path>
</g>
<path d="M1185 225a10 10 0 0 1 10 10v0a10 10 0 0 0 10 10"></path>
<path d="M1020 245h20"></path>
<g>
<path d="M1040 245h0"></path>
<path d="M1185 245h0"></path>
<g class="terminal">
<path d="M1040 245h0"></path>
<path d="M1085.5 245h0"></path>
<rect x="1040" y="234" width="45.5" height="22" rx="10" ry="10"></rect>
<text x="1062.75" y="249">"."</text>
</g>
<path d="M1085.5 245h10"></path>
<path d="M1095.5 245h10"></path>
<g class="non-terminal">
<path d="M1105.5 245h0"></path>
<path d="M1185 245h0"></path>
<rect x="1105.5" y="234" width="79.5" height="22"></rect>
<a xlink:href="#/cds/expression/CDSName"><text x="1145.25" y="249">CDSName</text>
</a>
</g>
</g>
<path d="M1185 245h20"></path>
</g>
</g>
<path d="M1205 245h20"></path>
<path d="M910.5 245a10 10 0 0 1 10 10v10a10 10 0 0 0 10 10"></path>
<g class="non-terminal">
<path d="M930.5 275h0"></path>
<path d="M1027 275h178"></path>
<rect x="930.5" y="264" width="96.5" height="22"></rect>
<a xlink:href="#/cds/expression/CDSString"><text x="978.75" y="279">CDSString</text>
</a>
</g>
<path d="M1205 275a10 10 0 0 0 10 -10v-10a10 10 0 0 1 10 -10"></path>
<path d="M910.5 245a10 10 0 0 1 10 10v40a10 10 0 0 0 10 10"></path>
<g class="non-terminal">
<path d="M930.5 305h0"></path>
<path d="M1044 305h161"></path>
<rect x="930.5" y="294" width="113.5" height="22"></rect>
<a xlink:href="#/cds/expression/CDSFunction"><text x="987.25" y="309">CDSFunction</text>
</a>
</g>
<path d="M1205 305a10 10 0 0 0 10 -10v-40a10 10 0 0 1 10 -10"></path>
<path d="M910.5 245a10 10 0 0 1 10 10v70a10 10 0 0 0 10 10"></path>
<g class="non-terminal">
<path d="M930.5 335h0"></path>
<path d="M1010 335h195"></path>
<rect x="930.5" y="324" width="79.5" height="22"></rect>
<a xlink:href="#/cds/expression/CDSCase"><text x="970.25" y="339">CDSCase</text>
</a>
</g>
<path d="M1205 335a10 10 0 0 0 10 -10v-70a10 10 0 0 1 10 -10"></path>
<path d="M910.5 245a10 10 0 0 1 10 10v100a10 10 0 0 0 10 10"></path>
<g class="non-terminal">
<path d="M930.5 365h0"></path>
<path d="M1010 365h195"></path>
<rect x="930.5" y="354" width="79.5" height="22"></rect>
<a xlink:href="#/cds/expression/CDSCast"><text x="970.25" y="369">CDSCast</text>
</a>
</g>
<path d="M1205 365a10 10 0 0 0 10 -10v-100a10 10 0 0 1 10 -10"></path>
<path d="M910.5 245a10 10 0 0 1 10 10v130a10 10 0 0 0 10 10"></path>
<g class="non-terminal">
<path d="M930.5 395h0"></path>
<path d="M1069.5 395h135.5"></path>
<rect x="930.5" y="384" width="139" height="22"></rect>
<a xlink:href="#/cds/expression/CDSArithmetics"><text x="1000" y="399">CDSArithmetics</text>
</a>
</g>
<path d="M1205 395a10 10 0 0 0 10 -10v-130a10 10 0 0 1 10 -10"></path>
</g>
</g>
<path d="M1225 245h20"></path>
</g>
<path d="M1245 245h10"></path>
<g class="terminal">
<path d="M1255 245h0"></path>
<path d="M1317.5 245h0"></path>
<rect x="1255" y="234" width="62.5" height="22" rx="10" ry="10"></rect>
<text x="1286.25" y="249">"END"</text>
</g>
</g>
<path d="M1774.5 245a10 10 0 0 0 10 -10v-185a10 10 0 0 1 10 -10"></path>
</g>
<path d="M 1794.5 40 h 20 m 0 -10 v 20"></path>
</g>
</svg>
