<svg xmlns="http://www.w3.org/2000/svg" xmlns:xlink="http://www.w3.org/1999/xlink" class="railroad-diagram" width="765.5" height="298" viewBox="0 0 765.5 298">
<defs>
<style type="text/css"><![CDATA[
path {
stroke-width: 3;
stroke: black;
fill: rgba(0,0,0,0);
}
text {
font: bold 14px monospace;
text-anchor: middle;
}
text.diagram-text {
font-size: 12px;
}
a {
fill: blue;
}
text.diagram-arrow {
font-size: 16px;
}
text.label {
text-anchor: start;
}
text.comment {
font: italic 12px monospace;
}
rect {
stroke-width: 3;
stroke: black;
fill: #BCBCBC;
}
path.diagram-text {
stroke-width: 3;
stroke: black;
fill: #BCBCBC;
cursor: help;
}
]]></style>
</defs>
<g transform="translate(.5 .5)">
<g>
<path d="M20 21v20m0 -10h20"></path>
</g>
<g>
<path d="M40 31h0"></path>
<path d="M725.5 31h0"></path>
<path d="M40 31h20"></path>
<g class="non-terminal">
<path d="M60 31h0"></path>
<path d="M199 31h506.5"></path>
<rect x="60" y="20" width="139" height="22"></rect>
<a xlink:href="#/cds/expression/CDSArithmetics"><text x="129.5" y="35">CDSArithmetics</text>
</a>
</g>
<path d="M705.5 31h20"></path>
<path d="M40 31a10 10 0 0 1 10 10v10a10 10 0 0 0 10 10"></path>
<g class="non-terminal">
<path d="M60 61h0"></path>
<path d="M182 61h523.5"></path>
<rect x="60" y="50" width="122" height="22"></rect>
<a xlink:href="#/cds/expression/CDSAggregate"><text x="121" y="65">CDSAggregate</text>
</a>
</g>
<path d="M705.5 61a10 10 0 0 0 10 -10v-10a10 10 0 0 1 10 -10"></path>
<path d="M40 31a10 10 0 0 1 10 10v40a10 10 0 0 0 10 10"></path>
<g class="non-terminal">
<path d="M60 91h0"></path>
<path d="M139.5 91h566"></path>
<rect x="60" y="80" width="79.5" height="22"></rect>
<a xlink:href="#/cds/expression/CDSCast"><text x="99.75" y="95">CDSCast</text>
</a>
</g>
<path d="M705.5 91a10 10 0 0 0 10 -10v-40a10 10 0 0 1 10 -10"></path>
<path d="M40 31a10 10 0 0 1 10 10v70a10 10 0 0 0 10 10"></path>
<g class="non-terminal">
<path d="M60 121h0"></path>
<path d="M173.5 121h532"></path>
<rect x="60" y="110" width="113.5" height="22"></rect>
<a xlink:href="#/cds/expression/CDSFunction"><text x="116.75" y="125">CDSFunction</text>
</a>
</g>
<path d="M705.5 121a10 10 0 0 0 10 -10v-70a10 10 0 0 1 10 -10"></path>
<path d="M40 31a10 10 0 0 1 10 10v100a10 10 0 0 0 10 10"></path>
<g class="non-terminal">
<path d="M60 151h0"></path>
<path d="M139.5 151h566"></path>
<rect x="60" y="140" width="79.5" height="22"></rect>
<a xlink:href="#/cds/expression/CDSCase"><text x="99.75" y="155">CDSCase</text>
</a>
</g>
<path d="M705.5 151a10 10 0 0 0 10 -10v-100a10 10 0 0 1 10 -10"></path>
<path d="M40 31a10 10 0 0 1 10 10v130a10 10 0 0 0 10 10"></path>
<g class="non-terminal">
<path d="M60 181h0"></path>
<path d="M156.5 181h549"></path>
<rect x="60" y="170" width="96.5" height="22"></rect>
<a xlink:href="#/cds/expression/CDSString"><text x="108.25" y="185">CDSString</text>
</a>
</g>
<path d="M705.5 181a10 10 0 0 0 10 -10v-130a10 10 0 0 1 10 -10"></path>
<path d="M40 31a10 10 0 0 1 10 10v177a10 10 0 0 0 10 10"></path>
<g>
<path d="M60 228h0"></path>
<path d="M705.5 228h0"></path>
<g class="non-terminal">
<path d="M60 228h0"></path>
<path d="M139.5 228h0"></path>
<rect x="60" y="217" width="79.5" height="22"></rect>
<a xlink:href="#/cds/expression/CDSName"><text x="99.75" y="232">CDSName</text>
</a>
</g>
<path d="M139.5 228h10"></path>
<g>
<path d="M149.5 228h0"></path>
<path d="M320 228h0"></path>
<path d="M149.5 228a10 10 0 0 0 10 -10v0a10 10 0 0 1 10 -10"></path>
<g>
<path d="M169.5 208h130.5"></path>
</g>
<path d="M300 208a10 10 0 0 1 10 10v0a10 10 0 0 0 10 10"></path>
<path d="M149.5 228h20"></path>
<g class="non-terminal">
<path d="M169.5 228h0"></path>
<path d="M300 228h0"></path>
<rect x="169.5" y="217" width="130.5" height="22"></rect>
<a xlink:href="#/cds/expression/CDSParameters"><text x="234.75" y="232">CDSParameters</text>
</a>
</g>
<path d="M300 228h20"></path>
</g>
<g>
<path d="M320 228h0"></path>
<path d="M705.5 228h0"></path>
<path d="M320 228a10 10 0 0 0 10 -10v-8a10 10 0 0 1 10 -10"></path>
<g>
<path d="M340 200h345.5"></path>
</g>
<path d="M685.5 200a10 10 0 0 1 10 10v8a10 10 0 0 0 10 10"></path>
<path d="M320 228h20"></path>
<g>
<path d="M340 228h0"></path>
<path d="M685.5 228h0"></path>
<path d="M340 228h10"></path>
<g>
<path d="M350 228h0"></path>
<path d="M675.5 228h0"></path>
<g class="terminal">
<path d="M350 228h0"></path>
<path d="M395.5 228h0"></path>
<rect x="350" y="217" width="45.5" height="22" rx="10" ry="10"></rect>
<text x="372.75" y="232">"."</text>
</g>
<path d="M395.5 228h10"></path>
<path d="M405.5 228h10"></path>
<g class="non-terminal">
<path d="M415.5 228h0"></path>
<path d="M495 228h0"></path>
<rect x="415.5" y="217" width="79.5" height="22"></rect>
<a xlink:href="#/cds/expression/CDSName"><text x="455.25" y="232">CDSName</text>
</a>
</g>
<path d="M495 228h10"></path>
<g>
<path d="M505 228h0"></path>
<path d="M675.5 228h0"></path>
<path d="M505 228a10 10 0 0 0 10 -10v0a10 10 0 0 1 10 -10"></path>
<g>
<path d="M525 208h130.5"></path>
</g>
<path d="M655.5 208a10 10 0 0 1 10 10v0a10 10 0 0 0 10 10"></path>
<path d="M505 228h20"></path>
<g class="non-terminal">
<path d="M525 228h0"></path>
<path d="M655.5 228h0"></path>
<rect x="525" y="217" width="130.5" height="22"></rect>
<a xlink:href="#/cds/expression/CDSParameters"><text x="590.25" y="232">CDSParameters</text>
</a>
</g>
<path d="M655.5 228h20"></path>
</g>
</g>
<path d="M675.5 228h10"></path>
<path d="M350 228a10 10 0 0 0 -10 10v0a10 10 0 0 0 10 10"></path>
<g>
<path d="M350 248h325.5"></path>
</g>
<path d="M675.5 248a10 10 0 0 0 10 -10v0a10 10 0 0 0 -10 -10"></path>
</g>
<path d="M685.5 228h20"></path>
</g>
</g>
<path d="M705.5 228a10 10 0 0 0 10 -10v-177a10 10 0 0 1 10 -10"></path>
<path d="M40 31a10 10 0 0 1 10 10v216a10 10 0 0 0 10 10"></path>
<g class="non-terminal">
<path d="M60 267h0"></path>
<path d="M165 267h540.5"></path>
<rect x="60" y="256" width="105" height="22"></rect>
<a xlink:href="#/cds/expression/CDSInteger"><text x="112.5" y="271">CDSInteger</text>
</a>
</g>
<path d="M705.5 267a10 10 0 0 0 10 -10v-216a10 10 0 0 1 10 -10"></path>
</g>
<path d="M 725.5 31 h 20 m 0 -10 v 20"></path>
</g>
</svg>
