<svg xmlns="http://www.w3.org/2000/svg" xmlns:xlink="http://www.w3.org/1999/xlink" class="railroad-diagram" width="1852" height="88" viewBox="0 0 1852 88">
<defs>
<style type="text/css"><![CDATA[
path {
stroke-width: 3;
stroke: black;
fill: rgba(0,0,0,0);
}
text {
font: bold 14px monospace;
text-anchor: middle;
}
text.diagram-text {
font-size: 12px;
}
a {
fill: blue;
}
text.diagram-arrow {
font-size: 16px;
}
text.label {
text-anchor: start;
}
text.comment {
font: italic 12px monospace;
}
rect {
stroke-width: 3;
stroke: black;
fill: #BCBCBC;
}
path.diagram-text {
stroke-width: 3;
stroke: black;
fill: #BCBCBC;
cursor: help;
}
]]></style>
</defs>
<g transform="translate(.5 .5)">
<g>
<path d="M20 38v20m0 -10h20"></path>
</g>
<path d="M40 48h10"></path>
<g>
<path d="M50 48h0"></path>
<path d="M1802 48h0"></path>
<g>
<path d="M50 48h0"></path>
<path d="M240.5 48h0"></path>
<path d="M50 48a10 10 0 0 0 10 -10v0a10 10 0 0 1 10 -10"></path>
<g>
<path d="M70 28h150.5"></path>
</g>
<path d="M220.5 28a10 10 0 0 1 10 10v0a10 10 0 0 0 10 10"></path>
<path d="M50 48h20"></path>
<g>
<path d="M70 48h0"></path>
<path d="M220.5 48h0"></path>
<path d="M70 48h10"></path>
<g class="non-terminal">
<path d="M80 48h0"></path>
<path d="M210.5 48h0"></path>
<rect x="80" y="37" width="130.5" height="22"></rect>
<a xlink:href="#/cds/expression/CDSAnnotation"><text x="145.25" y="52">CDSAnnotation</text>
</a>
</g>
<path d="M210.5 48h10"></path>
<path d="M80 48a10 10 0 0 0 -10 10v0a10 10 0 0 0 10 10"></path>
<g>
<path d="M80 68h130.5"></path>
</g>
<path d="M210.5 68a10 10 0 0 0 10 -10v0a10 10 0 0 0 -10 -10"></path>
</g>
<path d="M220.5 48h20"></path>
</g>
<g>
<path d="M240.5 48h0"></path>
<path d="M368.5 48h0"></path>
<path d="M240.5 48a10 10 0 0 0 10 -10v0a10 10 0 0 1 10 -10"></path>
<g>
<path d="M260.5 28h88"></path>
</g>
<path d="M348.5 28a10 10 0 0 1 10 10v0a10 10 0 0 0 10 10"></path>
<path d="M240.5 48h20"></path>
<g class="terminal">
<path d="M260.5 48h0"></path>
<path d="M348.5 48h0"></path>
<rect x="260.5" y="37" width="88" height="22" rx="10" ry="10"></rect>
<text x="304.5" y="52">"DEFINE"</text>
</g>
<path d="M348.5 48h20"></path>
</g>
<g>
<path d="M368.5 48h0"></path>
<path d="M479.5 48h0"></path>
<path d="M368.5 48a10 10 0 0 0 10 -10v0a10 10 0 0 1 10 -10"></path>
<g>
<path d="M388.5 28h71"></path>
</g>
<path d="M459.5 28a10 10 0 0 1 10 10v0a10 10 0 0 0 10 10"></path>
<path d="M368.5 48h20"></path>
<g class="terminal">
<path d="M388.5 48h0"></path>
<path d="M459.5 48h0"></path>
<rect x="388.5" y="37" width="71" height="22" rx="10" ry="10"></rect>
<text x="424" y="52">"ROOT"</text>
</g>
<path d="M459.5 48h20"></path>
</g>
<path d="M479.5 48h10"></path>
<g class="terminal">
<path d="M489.5 48h0"></path>
<path d="M560.5 48h0"></path>
<rect x="489.5" y="37" width="71" height="22" rx="10" ry="10"></rect>
<text x="525" y="52">"VIEW"</text>
</g>
<path d="M560.5 48h10"></path>
<path d="M570.5 48h10"></path>
<g>
<path d="M580.5 48h0"></path>
<path d="M756.5 48h0"></path>
<g>
<path d="M580.5 48h0"></path>
<path d="M618.5 48h0"></path>
<text x="599.5" y="53" class="comment">v755</text>
</g>
<path d="M618.5 48h10"></path>
<g>
<path d="M628.5 48h0"></path>
<path d="M756.5 48h0"></path>
<path d="M628.5 48a10 10 0 0 0 10 -10v0a10 10 0 0 1 10 -10"></path>
<g>
<path d="M648.5 28h88"></path>
</g>
<path d="M736.5 28a10 10 0 0 1 10 10v0a10 10 0 0 0 10 10"></path>
<path d="M628.5 48h20"></path>
<g class="terminal">
<path d="M648.5 48h0"></path>
<path d="M736.5 48h0"></path>
<rect x="648.5" y="37" width="88" height="22" rx="10" ry="10"></rect>
<text x="692.5" y="52">"ENTITY"</text>
</g>
<path d="M736.5 48h20"></path>
</g>
</g>
<path d="M756.5 48h10"></path>
<path d="M766.5 48h10"></path>
<g class="non-terminal">
<path d="M776.5 48h0"></path>
<path d="M856 48h0"></path>
<rect x="776.5" y="37" width="79.5" height="22"></rect>
<a xlink:href="#/cds/expression/CDSName"><text x="816.25" y="52">CDSName</text>
</a>
</g>
<path d="M856 48h10"></path>
<g>
<path d="M866 48h0"></path>
<path d="M1321.5 48h0"></path>
<path d="M866 48a10 10 0 0 0 10 -10v-8a10 10 0 0 1 10 -10"></path>
<g>
<path d="M886 20h415.5"></path>
</g>
<path d="M1301.5 20a10 10 0 0 1 10 10v8a10 10 0 0 0 10 10"></path>
<path d="M866 48h20"></path>
<g>
<path d="M886 48h0"></path>
<path d="M1301.5 48h0"></path>
<g class="terminal">
<path d="M886 48h0"></path>
<path d="M931.5 48h0"></path>
<rect x="886" y="37" width="45.5" height="22" rx="10" ry="10"></rect>
<text x="908.75" y="52">"("</text>
</g>
<path d="M931.5 48h10"></path>
<path d="M941.5 48h10"></path>
<g class="non-terminal">
<path d="M951.5 48h0"></path>
<path d="M1031 48h0"></path>
<rect x="951.5" y="37" width="79.5" height="22"></rect>
<a xlink:href="#/cds/expression/CDSName"><text x="991.25" y="52">CDSName</text>
</a>
</g>
<path d="M1031 48h10"></path>
<g>
<path d="M1041 48h0"></path>
<path d="M1246 48h0"></path>
<path d="M1041 48a10 10 0 0 0 10 -10v0a10 10 0 0 1 10 -10"></path>
<g>
<path d="M1061 28h165"></path>
</g>
<path d="M1226 28a10 10 0 0 1 10 10v0a10 10 0 0 0 10 10"></path>
<path d="M1041 48h20"></path>
<g>
<path d="M1061 48h0"></path>
<path d="M1226 48h0"></path>
<path d="M1061 48h10"></path>
<g>
<path d="M1071 48h0"></path>
<path d="M1216 48h0"></path>
<g class="terminal">
<path d="M1071 48h0"></path>
<path d="M1116.5 48h0"></path>
<rect x="1071" y="37" width="45.5" height="22" rx="10" ry="10"></rect>
<text x="1093.75" y="52">","</text>
</g>
<path d="M1116.5 48h10"></path>
<path d="M1126.5 48h10"></path>
<g class="non-terminal">
<path d="M1136.5 48h0"></path>
<path d="M1216 48h0"></path>
<rect x="1136.5" y="37" width="79.5" height="22"></rect>
<a xlink:href="#/cds/expression/CDSName"><text x="1176.25" y="52">CDSName</text>
</a>
</g>
</g>
<path d="M1216 48h10"></path>
<path d="M1071 48a10 10 0 0 0 -10 10v0a10 10 0 0 0 10 10"></path>
<g>
<path d="M1071 68h145"></path>
</g>
<path d="M1216 68a10 10 0 0 0 10 -10v0a10 10 0 0 0 -10 -10"></path>
</g>
<path d="M1226 48h20"></path>
</g>
<path d="M1246 48h10"></path>
<g class="terminal">
<path d="M1256 48h0"></path>
<path d="M1301.5 48h0"></path>
<rect x="1256" y="37" width="45.5" height="22" rx="10" ry="10"></rect>
<text x="1278.75" y="52">")"</text>
</g>
</g>
<path d="M1301.5 48h20"></path>
</g>
<g>
<path d="M1321.5 48h0"></path>
<path d="M1526 48h0"></path>
<path d="M1321.5 48a10 10 0 0 0 10 -10v0a10 10 0 0 1 10 -10"></path>
<g>
<path d="M1341.5 28h164.5"></path>
</g>
<path d="M1506 28a10 10 0 0 1 10 10v0a10 10 0 0 0 10 10"></path>
<path d="M1321.5 48h20"></path>
<g class="non-terminal">
<path d="M1341.5 48h0"></path>
<path d="M1506 48h0"></path>
<rect x="1341.5" y="37" width="164.5" height="22"></rect>
<a xlink:href="#/cds/expression/CDSWithParameters"><text x="1423.75" y="52">CDSWithParameters</text>
</a>
</g>
<path d="M1506 48h20"></path>
</g>
<path d="M1526 48h10"></path>
<g class="terminal">
<path d="M1536 48h0"></path>
<path d="M1590 48h0"></path>
<rect x="1536" y="37" width="54" height="22" rx="10" ry="10"></rect>
<text x="1563" y="52">"AS"</text>
</g>
<path d="M1590 48h10"></path>
<path d="M1600 48h10"></path>
<g class="non-terminal">
<path d="M1610 48h0"></path>
<path d="M1706.5 48h0"></path>
<rect x="1610" y="37" width="96.5" height="22"></rect>
<a xlink:href="#/cds/expression/CDSSelect"><text x="1658.25" y="52">CDSSelect</text>
</a>
</g>
<path d="M1706.5 48h10"></path>
<g>
<path d="M1716.5 48h0"></path>
<path d="M1802 48h0"></path>
<path d="M1716.5 48a10 10 0 0 0 10 -10v0a10 10 0 0 1 10 -10"></path>
<g>
<path d="M1736.5 28h45.5"></path>
</g>
<path d="M1782 28a10 10 0 0 1 10 10v0a10 10 0 0 0 10 10"></path>
<path d="M1716.5 48h20"></path>
<g class="terminal">
<path d="M1736.5 48h0"></path>
<path d="M1782 48h0"></path>
<rect x="1736.5" y="37" width="45.5" height="22" rx="10" ry="10"></rect>
<text x="1759.25" y="52">";"</text>
</g>
<path d="M1782 48h20"></path>
</g>
</g>
<path d="M1802 48h10"></path>
<path d="M 1812 48 h 20 m 0 -10 v 20"></path>
</g>
</svg>
