<svg xmlns="http://www.w3.org/2000/svg" xmlns:xlink="http://www.w3.org/1999/xlink" class="railroad-diagram" width="590.5" height="92" viewBox="0 0 590.5 92">
<defs>
<style type="text/css"><![CDATA[
path {
stroke-width: 3;
stroke: black;
fill: rgba(0,0,0,0);
}
text {
font: bold 14px monospace;
text-anchor: middle;
}
text.diagram-text {
font-size: 12px;
}
a {
fill: blue;
}
text.diagram-arrow {
font-size: 16px;
}
text.label {
text-anchor: start;
}
text.comment {
font: italic 12px monospace;
}
rect {
stroke-width: 3;
stroke: black;
fill: #BCBCBC;
}
path.diagram-text {
stroke-width: 3;
stroke: black;
fill: #BCBCBC;
cursor: help;
}
]]></style>
</defs>
<g transform="translate(.5 .5)">
<g>
<path d="M20 21v20m0 -10h20"></path>
</g>
<g>
<path d="M40 31h0"></path>
<path d="M550.5 31h0"></path>
<path d="M40 31h20"></path>
<g class="terminal">
<path d="M60 31h0"></path>
<path d="M530.5 31h0"></path>
<rect x="60" y="20" width="470.5" height="22" rx="10" ry="10"></rect>
<text x="295.25" y="35">^'(&#91;A-Za-zÀ-ž\u0370-\u03FF\u0400-\u04FF:\| -&#95;&#93;|'')&#42;'$</text>
</g>
<path d="M530.5 31h20"></path>
<path d="M40 31a10 10 0 0 1 10 10v10a10 10 0 0 0 10 10"></path>
<g>
<path d="M60 61h0"></path>
<path d="M321.5 61h209"></path>
<g class="terminal">
<path d="M60 61h0"></path>
<path d="M131 61h0"></path>
<rect x="60" y="50" width="71" height="22" rx="10" ry="10"></rect>
<text x="95.5" y="65">"ABAP"</text>
</g>
<path d="M131 61h10"></path>
<path d="M141 61h10"></path>
<g class="terminal">
<path d="M151 61h0"></path>
<path d="M196.5 61h0"></path>
<rect x="151" y="50" width="45.5" height="22" rx="10" ry="10"></rect>
<text x="173.75" y="65">"."</text>
</g>
<path d="M196.5 61h10"></path>
<path d="M206.5 61h10"></path>
<g class="terminal">
<path d="M216.5 61h0"></path>
<path d="M321.5 61h0"></path>
<rect x="216.5" y="50" width="105" height="22" rx="10" ry="10"></rect>
<text x="269" y="65">^char'\w'$</text>
</g>
</g>
<path d="M530.5 61a10 10 0 0 0 10 -10v-10a10 10 0 0 1 10 -10"></path>
</g>
<path d="M 550.5 31 h 20 m 0 -10 v 20"></path>
</g>
</svg>
