<svg xmlns="http://www.w3.org/2000/svg" xmlns:xlink="http://www.w3.org/1999/xlink" class="railroad-diagram" width="832.5" height="152" viewBox="0 0 832.5 152">
<defs>
<style type="text/css"><![CDATA[
path {
stroke-width: 3;
stroke: black;
fill: rgba(0,0,0,0);
}
text {
font: bold 14px monospace;
text-anchor: middle;
}
text.diagram-text {
font-size: 12px;
}
a {
fill: blue;
}
text.diagram-arrow {
font-size: 16px;
}
text.label {
text-anchor: start;
}
text.comment {
font: italic 12px monospace;
}
rect {
stroke-width: 3;
stroke: black;
fill: #BCBCBC;
}
path.diagram-text {
stroke-width: 3;
stroke: black;
fill: #BCBCBC;
cursor: help;
}
]]></style>
</defs>
<g transform="translate(.5 .5)">
<g>
<path d="M20 21v20m0 -10h20"></path>
</g>
<g>
<path d="M40 31h0"></path>
<path d="M792.5 31h0"></path>
<path d="M40 31h20"></path>
<g>
<path d="M60 31h0"></path>
<path d="M772.5 31h0"></path>
<g>
<path d="M60 31h0"></path>
<path d="M217 31h0"></path>
<text x="138.5" y="36" class="comment">v740sp02 or open-abap</text>
</g>
<path d="M217 31h10"></path>
<path d="M227 31h10"></path>
<g>
<path d="M237 31h0"></path>
<path d="M772.5 31h0"></path>
<g class="terminal">
<path d="M237 31h0"></path>
<path d="M308 31h0"></path>
<rect x="237" y="20" width="71" height="22" rx="10" ry="10"></rect>
<text x="272.5" y="35">"DATA"</text>
</g>
<path d="M308 31h10"></path>
<path d="M318 31h10"></path>
<g class="terminal">
<path d="M328 31h0"></path>
<path d="M450 31h0"></path>
<rect x="328" y="20" width="122" height="22" rx="10" ry="10"></rect>
<text x="389" y="35">!"ParenLeft"</text>
</g>
<path d="M450 31h10"></path>
<path d="M460 31h10"></path>
<g class="non-terminal">
<path d="M470 31h0"></path>
<path d="M583.5 31h0"></path>
<rect x="470" y="20" width="113.5" height="22"></rect>
<a xlink:href="#/abap/expression/TargetField"><text x="526.75" y="35">TargetField</text>
</a>
</g>
<path d="M583.5 31h10"></path>
<g>
<path d="M593.5 31h0"></path>
<path d="M772.5 31h0"></path>
<path d="M593.5 31h20"></path>
<g class="terminal">
<path d="M613.5 31h0"></path>
<path d="M752.5 31h0"></path>
<rect x="613.5" y="20" width="139" height="22" rx="10" ry="10"></rect>
<text x="683" y="35">!"ParenRightW"</text>
</g>
<path d="M752.5 31h20"></path>
<path d="M593.5 31a10 10 0 0 1 10 10v10a10 10 0 0 0 10 10"></path>
<g class="terminal">
<path d="M613.5 61h0"></path>
<path d="M744 61h8.5"></path>
<rect x="613.5" y="50" width="130.5" height="22" rx="10" ry="10"></rect>
<text x="678.75" y="65">!"ParenRight"</text>
</g>
<path d="M752.5 61a10 10 0 0 0 10 -10v-10a10 10 0 0 1 10 -10"></path>
</g>
</g>
</g>
<path d="M772.5 31h20"></path>
<path d="M40 31a10 10 0 0 1 10 10v40a10 10 0 0 0 10 10"></path>
<g>
<path d="M60 91h0"></path>
<path d="M753 91h19.5"></path>
<g>
<path d="M60 91h0"></path>
<path d="M189 91h0"></path>
<text x="124.5" y="96" class="comment">v757 or open-abap</text>
</g>
<path d="M189 91h10"></path>
<path d="M199 91h10"></path>
<g>
<path d="M209 91h0"></path>
<path d="M753 91h0"></path>
<g class="terminal">
<path d="M209 91h0"></path>
<path d="M288.5 91h0"></path>
<rect x="209" y="80" width="79.5" height="22" rx="10" ry="10"></rect>
<text x="248.75" y="95">"FINAL"</text>
</g>
<path d="M288.5 91h10"></path>
<path d="M298.5 91h10"></path>
<g class="terminal">
<path d="M308.5 91h0"></path>
<path d="M430.5 91h0"></path>
<rect x="308.5" y="80" width="122" height="22" rx="10" ry="10"></rect>
<text x="369.5" y="95">!"ParenLeft"</text>
</g>
<path d="M430.5 91h10"></path>
<path d="M440.5 91h10"></path>
<g class="non-terminal">
<path d="M450.5 91h0"></path>
<path d="M564 91h0"></path>
<rect x="450.5" y="80" width="113.5" height="22"></rect>
<a xlink:href="#/abap/expression/TargetField"><text x="507.25" y="95">TargetField</text>
</a>
</g>
<path d="M564 91h10"></path>
<g>
<path d="M574 91h0"></path>
<path d="M753 91h0"></path>
<path d="M574 91h20"></path>
<g class="terminal">
<path d="M594 91h0"></path>
<path d="M733 91h0"></path>
<rect x="594" y="80" width="139" height="22" rx="10" ry="10"></rect>
<text x="663.5" y="95">!"ParenRightW"</text>
</g>
<path d="M733 91h20"></path>
<path d="M574 91a10 10 0 0 1 10 10v10a10 10 0 0 0 10 10"></path>
<g class="terminal">
<path d="M594 121h0"></path>
<path d="M724.5 121h8.5"></path>
<rect x="594" y="110" width="130.5" height="22" rx="10" ry="10"></rect>
<text x="659.25" y="125">!"ParenRight"</text>
</g>
<path d="M733 121a10 10 0 0 0 10 -10v-10a10 10 0 0 1 10 -10"></path>
</g>
</g>
</g>
<path d="M772.5 91a10 10 0 0 0 10 -10v-40a10 10 0 0 1 10 -10"></path>
</g>
<path d="M 792.5 31 h 20 m 0 -10 v 20"></path>
</g>
</svg>
