<svg xmlns="http://www.w3.org/2000/svg" xmlns:xlink="http://www.w3.org/1999/xlink" class="railroad-diagram" width="680" height="220" viewBox="0 0 680 220">
<defs>
<style type="text/css"><![CDATA[
path {
stroke-width: 3;
stroke: black;
fill: rgba(0,0,0,0);
}
text {
font: bold 14px monospace;
text-anchor: middle;
}
text.diagram-text {
font-size: 12px;
}
a {
fill: blue;
}
text.diagram-arrow {
font-size: 16px;
}
text.label {
text-anchor: start;
}
text.comment {
font: italic 12px monospace;
}
rect {
stroke-width: 3;
stroke: black;
fill: #BCBCBC;
}
path.diagram-text {
stroke-width: 3;
stroke: black;
fill: #BCBCBC;
cursor: help;
}
]]></style>
</defs>
<g transform="translate(.5 .5)">
<g>
<path d="M20 21v20m0 -10h20"></path>
</g>
<path d="M40 31h10"></path>
<g>
<path d="M50 31h0"></path>
<path d="M630 31h0"></path>
<g class="terminal">
<path d="M50 31h0"></path>
<path d="M121 31h0"></path>
<rect x="50" y="20" width="71" height="22" rx="10" ry="10"></rect>
<text x="85.5" y="35">"NEXT"</text>
</g>
<path d="M121 31h10"></path>
<path d="M131 31h10"></path>
<g>
<path d="M141 31h0"></path>
<path d="M630 31h0"></path>
<path d="M141 31h10"></path>
<g>
<path d="M151 31h0"></path>
<path d="M620 31h0"></path>
<g class="non-terminal">
<path d="M151 31h0"></path>
<path d="M273 31h0"></path>
<rect x="151" y="20" width="122" height="22"></rect>
<a xlink:href="#/abap/expression/SimpleTarget"><text x="212" y="35">SimpleTarget</text>
</a>
</g>
<path d="M273 31h10"></path>
<g>
<path d="M283 31h0"></path>
<path d="M539 31h0"></path>
<path d="M283 31h20"></path>
<g class="terminal">
<path d="M303 31h0"></path>
<path d="M348.5 31h170.5"></path>
<rect x="303" y="20" width="45.5" height="22" rx="10" ry="10"></rect>
<text x="325.75" y="35">"="</text>
</g>
<path d="M519 31h20"></path>
<path d="M283 31a10 10 0 0 1 10 10v10a10 10 0 0 0 10 10"></path>
<g>
<path d="M303 61h0"></path>
<path d="M519 61h0"></path>
<g>
<path d="M303 61h0"></path>
<path d="M341 61h0"></path>
<text x="322" y="66" class="comment">v754</text>
</g>
<path d="M341 61h10"></path>
<g>
<path d="M351 61h0"></path>
<path d="M519 61h0"></path>
<path d="M351 61h20"></path>
<g>
<path d="M371 61h0"></path>
<path d="M499 61h0"></path>
<g class="terminal">
<path d="M371 61h0"></path>
<path d="M433.5 61h0"></path>
<rect x="371" y="50" width="62.5" height="22" rx="10" ry="10"></rect>
<text x="402.25" y="65">!" +"</text>
</g>
<path d="M433.5 61h10"></path>
<path d="M443.5 61h10"></path>
<g class="terminal">
<path d="M453.5 61h0"></path>
<path d="M499 61h0"></path>
<rect x="453.5" y="50" width="45.5" height="22" rx="10" ry="10"></rect>
<text x="476.25" y="65">"="</text>
</g>
</g>
<path d="M499 61h20"></path>
<path d="M351 61a10 10 0 0 1 10 10v10a10 10 0 0 0 10 10"></path>
<g>
<path d="M371 91h0"></path>
<path d="M499 91h0"></path>
<g class="terminal">
<path d="M371 91h0"></path>
<path d="M433.5 91h0"></path>
<rect x="371" y="80" width="62.5" height="22" rx="10" ry="10"></rect>
<text x="402.25" y="95">!" -"</text>
</g>
<path d="M433.5 91h10"></path>
<path d="M443.5 91h10"></path>
<g class="terminal">
<path d="M453.5 91h0"></path>
<path d="M499 91h0"></path>
<rect x="453.5" y="80" width="45.5" height="22" rx="10" ry="10"></rect>
<text x="476.25" y="95">"="</text>
</g>
</g>
<path d="M499 91a10 10 0 0 0 10 -10v-10a10 10 0 0 1 10 -10"></path>
<path d="M351 61a10 10 0 0 1 10 10v40a10 10 0 0 0 10 10"></path>
<g class="terminal">
<path d="M371 121h0"></path>
<path d="M425 121h74"></path>
<rect x="371" y="110" width="54" height="22" rx="10" ry="10"></rect>
<text x="398" y="125">"/="</text>
</g>
<path d="M499 121a10 10 0 0 0 10 -10v-40a10 10 0 0 1 10 -10"></path>
<path d="M351 61a10 10 0 0 1 10 10v70a10 10 0 0 0 10 10"></path>
<g class="terminal">
<path d="M371 151h0"></path>
<path d="M425 151h74"></path>
<rect x="371" y="140" width="54" height="22" rx="10" ry="10"></rect>
<text x="398" y="155">"&#42;="</text>
</g>
<path d="M499 151a10 10 0 0 0 10 -10v-70a10 10 0 0 1 10 -10"></path>
<path d="M351 61a10 10 0 0 1 10 10v100a10 10 0 0 0 10 10"></path>
<g class="terminal">
<path d="M371 181h0"></path>
<path d="M433.5 181h65.5"></path>
<rect x="371" y="170" width="62.5" height="22" rx="10" ry="10"></rect>
<text x="402.25" y="185">"&#38;&#38;="</text>
</g>
<path d="M499 181a10 10 0 0 0 10 -10v-100a10 10 0 0 1 10 -10"></path>
</g>
</g>
<path d="M519 61a10 10 0 0 0 10 -10v-10a10 10 0 0 1 10 -10"></path>
</g>
<path d="M539 31h10"></path>
<g class="non-terminal">
<path d="M549 31h0"></path>
<path d="M620 31h0"></path>
<rect x="549" y="20" width="71" height="22"></rect>
<a xlink:href="#/abap/expression/Source"><text x="584.5" y="35">Source</text>
</a>
</g>
</g>
<path d="M620 31h10"></path>
<path d="M151 31a10 10 0 0 0 -10 10v149a10 10 0 0 0 10 10"></path>
<g>
<path d="M151 200h469"></path>
</g>
<path d="M620 200a10 10 0 0 0 10 -10v-149a10 10 0 0 0 -10 -10"></path>
</g>
</g>
<path d="M630 31h10"></path>
<path d="M 640 31 h 20 m 0 -10 v 20"></path>
</g>
</svg>
