<svg xmlns="http://www.w3.org/2000/svg" xmlns:xlink="http://www.w3.org/1999/xlink" class="railroad-diagram" width="901.5" height="62" viewBox="0 0 901.5 62">
<defs>
<style type="text/css"><![CDATA[
path {
stroke-width: 3;
stroke: black;
fill: rgba(0,0,0,0);
}
text {
font: bold 14px monospace;
text-anchor: middle;
}
text.diagram-text {
font-size: 12px;
}
a {
fill: blue;
}
text.diagram-arrow {
font-size: 16px;
}
text.label {
text-anchor: start;
}
text.comment {
font: italic 12px monospace;
}
rect {
stroke-width: 3;
stroke: black;
fill: #BCBCBC;
}
path.diagram-text {
stroke-width: 3;
stroke: black;
fill: #BCBCBC;
cursor: help;
}
]]></style>
</defs>
<g transform="translate(.5 .5)">
<g>
<path d="M20 21v20m0 -10h20"></path>
</g>
<path d="M40 31h10"></path>
<g>
<path d="M50 31h0"></path>
<path d="M851.5 31h0"></path>
<g>
<path d="M50 31h0"></path>
<path d="M207 31h0"></path>
<text x="128.5" y="36" class="comment">v740sp02 or open-abap</text>
</g>
<path d="M207 31h10"></path>
<path d="M217 31h10"></path>
<g>
<path d="M227 31h0"></path>
<path d="M851.5 31h0"></path>
<g class="terminal">
<path d="M227 31h0"></path>
<path d="M366 31h0"></path>
<rect x="227" y="20" width="139" height="22" rx="10" ry="10"></rect>
<text x="296.5" y="35">"FIELD-SYMBOL"</text>
</g>
<path d="M366 31h10"></path>
<path d="M376 31h10"></path>
<g class="terminal">
<path d="M386 31h0"></path>
<path d="M508 31h0"></path>
<rect x="386" y="20" width="122" height="22" rx="10" ry="10"></rect>
<text x="447" y="35">!"ParenLeft"</text>
</g>
<path d="M508 31h10"></path>
<path d="M518 31h10"></path>
<g class="non-terminal">
<path d="M528 31h0"></path>
<path d="M692.5 31h0"></path>
<rect x="528" y="20" width="164.5" height="22"></rect>
<a xlink:href="#/abap/expression/TargetFieldSymbol"><text x="610.25" y="35">TargetFieldSymbol</text>
</a>
</g>
<path d="M692.5 31h10"></path>
<path d="M702.5 31h10"></path>
<g class="terminal">
<path d="M712.5 31h0"></path>
<path d="M851.5 31h0"></path>
<rect x="712.5" y="20" width="139" height="22" rx="10" ry="10"></rect>
<text x="782" y="35">!"ParenRightW"</text>
</g>
</g>
</g>
<path d="M851.5 31h10"></path>
<path d="M 861.5 31 h 20 m 0 -10 v 20"></path>
</g>
</svg>
