<svg xmlns="http://www.w3.org/2000/svg" xmlns:xlink="http://www.w3.org/1999/xlink" class="railroad-diagram" width="807" height="122" viewBox="0 0 807 122">
<defs>
<style type="text/css"><![CDATA[
path {
stroke-width: 3;
stroke: black;
fill: rgba(0,0,0,0);
}
text {
font: bold 14px monospace;
text-anchor: middle;
}
text.diagram-text {
font-size: 12px;
}
a {
fill: blue;
}
text.diagram-arrow {
font-size: 16px;
}
text.label {
text-anchor: start;
}
text.comment {
font: italic 12px monospace;
}
rect {
stroke-width: 3;
stroke: black;
fill: #BCBCBC;
}
path.diagram-text {
stroke-width: 3;
stroke: black;
fill: #BCBCBC;
cursor: help;
}
]]></style>
</defs>
<g transform="translate(.5 .5)">
<g>
<path d="M20 21v20m0 -10h20"></path>
</g>
<g>
<path d="M40 31h0"></path>
<path d="M767 31h0"></path>
<path d="M40 31h20"></path>
<g class="non-terminal">
<path d="M60 31h0"></path>
<path d="M190.5 31h556.5"></path>
<rect x="60" y="20" width="130.5" height="22"></rect>
<a xlink:href="#/abap/expression/SimpleSource3"><text x="125.25" y="35">SimpleSource3</text>
</a>
</g>
<path d="M747 31h20"></path>
<path d="M40 31a10 10 0 0 1 10 10v10a10 10 0 0 0 10 10"></path>
<g>
<path d="M60 61h0"></path>
<path d="M747 61h0"></path>
<g>
<path d="M60 61h0"></path>
<path d="M217 61h0"></path>
<text x="138.5" y="66" class="comment">v740sp05 or open-abap</text>
</g>
<path d="M217 61h10"></path>
<path d="M227 61h10"></path>
<g>
<path d="M237 61h0"></path>
<path d="M747 61h0"></path>
<g class="terminal">
<path d="M237 61h0"></path>
<path d="M308 61h0"></path>
<rect x="237" y="50" width="71" height="22" rx="10" ry="10"></rect>
<text x="272.5" y="65">!"WAt"</text>
</g>
<path d="M308 61h10"></path>
<g>
<path d="M318 61h0"></path>
<path d="M747 61h0"></path>
<path d="M318 61h20"></path>
<g class="non-terminal">
<path d="M338 61h0"></path>
<path d="M468.5 61h258.5"></path>
<rect x="338" y="50" width="130.5" height="22"></rect>
<a xlink:href="#/abap/expression/SimpleSource3"><text x="403.25" y="65">SimpleSource3</text>
</a>
</g>
<path d="M727 61h20"></path>
<path d="M318 61a10 10 0 0 1 10 10v10a10 10 0 0 0 10 10"></path>
<g>
<path d="M338 91h0"></path>
<path d="M727 91h0"></path>
<g class="terminal">
<path d="M338 91h0"></path>
<path d="M468.5 91h0"></path>
<rect x="338" y="80" width="130.5" height="22" rx="10" ry="10"></rect>
<text x="403.25" y="95">!"ParenLeftW"</text>
</g>
<path d="M468.5 91h10"></path>
<path d="M478.5 91h10"></path>
<g class="non-terminal">
<path d="M488.5 91h0"></path>
<path d="M559.5 91h0"></path>
<rect x="488.5" y="80" width="71" height="22"></rect>
<a xlink:href="#/abap/expression/Source"><text x="524" y="95">Source</text>
</a>
</g>
<path d="M559.5 91h10"></path>
<path d="M569.5 91h10"></path>
<g class="terminal">
<path d="M579.5 91h0"></path>
<path d="M727 91h0"></path>
<rect x="579.5" y="80" width="147.5" height="22" rx="10" ry="10"></rect>
<text x="653.25" y="95">!"WParenRightW"</text>
</g>
</g>
<path d="M727 91a10 10 0 0 0 10 -10v-10a10 10 0 0 1 10 -10"></path>
</g>
</g>
</g>
<path d="M747 61a10 10 0 0 0 10 -10v-10a10 10 0 0 1 10 -10"></path>
</g>
<path d="M 767 31 h 20 m 0 -10 v 20"></path>
</g>
</svg>
