<svg xmlns="http://www.w3.org/2000/svg" xmlns:xlink="http://www.w3.org/1999/xlink" class="railroad-diagram" width="1179.5" height="101" viewBox="0 0 1179.5 101">
<defs>
<style type="text/css"><![CDATA[
path {
stroke-width: 3;
stroke: black;
fill: rgba(0,0,0,0);
}
text {
font: bold 14px monospace;
text-anchor: middle;
}
text.diagram-text {
font-size: 12px;
}
a {
fill: blue;
}
text.diagram-arrow {
font-size: 16px;
}
text.label {
text-anchor: start;
}
text.comment {
font: italic 12px monospace;
}
rect {
stroke-width: 3;
stroke: black;
fill: #BCBCBC;
}
path.diagram-text {
stroke-width: 3;
stroke: black;
fill: #BCBCBC;
cursor: help;
}
]]></style>
</defs>
<g transform="translate(.5 .5)">
<g>
<path d="M20 30v20m0 -10h20"></path>
</g>
<path d="M40 40h10"></path>
<g>
<path d="M50 40h0"></path>
<path d="M1129.5 40h0"></path>
<g class="comment ">
<path d="M50 40h0"></path>
<path d="M193 40h0"></path>
<text x="121.5" y="45" class="comment">740SP02 or OpenABAP</text>
</g>
<path d="M193 40h10"></path>
<path d="M203 40h10"></path>
<g>
<path d="M213 40h0"></path>
<path d="M1129.5 40h0"></path>
<g class="terminal ">
<path d="M213 40h0"></path>
<path d="M284 40h0"></path>
<rect x="213" y="29" width="71" height="22" rx="10" ry="10"></rect>
<text x="248.5" y="44">"CAST"</text>
</g>
<path d="M284 40h10"></path>
<path d="M294 40h10"></path>
<g class="non-terminal ">
<path d="M304 40h0"></path>
<path d="M451.5 40h0"></path>
<rect x="304" y="29" width="147.5" height="22"></rect>
<a xlink:href="#/abap/expression/TypeNameOrInfer"><text x="377.75" y="44">TypeNameOrInfer</text>
</a>
</g>
<path d="M451.5 40h10"></path>
<path d="M461.5 40h10"></path>
<g class="terminal ">
<path d="M471.5 40h0"></path>
<path d="M602 40h0"></path>
<rect x="471.5" y="29" width="130.5" height="22" rx="10" ry="10"></rect>
<text x="536.75" y="44">!"ParenLeftW"</text>
</g>
<path d="M602 40h10"></path>
<g>
<path d="M612 40h0"></path>
<path d="M697.5 40h0"></path>
<path d="M612 40a10 10 0 0 0 10 -10v0a10 10 0 0 1 10 -10"></path>
<g>
<path d="M632 20h45.5"></path>
</g>
<path d="M677.5 20a10 10 0 0 1 10 10v0a10 10 0 0 0 10 10"></path>
<path d="M612 40h20"></path>
<g class="non-terminal ">
<path d="M632 40h0"></path>
<path d="M677.5 40h0"></path>
<rect x="632" y="29" width="45.5" height="22"></rect>
<a xlink:href="#/abap/expression/Let"><text x="654.75" y="44">Let</text>
</a>
</g>
<path d="M677.5 40h20"></path>
</g>
<path d="M697.5 40h10"></path>
<g class="non-terminal ">
<path d="M707.5 40h0"></path>
<path d="M778.5 40h0"></path>
<rect x="707.5" y="29" width="71" height="22"></rect>
<a xlink:href="#/abap/expression/Source"><text x="743" y="44">Source</text>
</a>
</g>
<path d="M778.5 40h10"></path>
<g>
<path d="M788.5 40h0"></path>
<path d="M976 40h0"></path>
<path d="M788.5 40h20"></path>
<g class="terminal ">
<path d="M808.5 40h0"></path>
<path d="M956 40h0"></path>
<rect x="808.5" y="29" width="147.5" height="22" rx="10" ry="10"></rect>
<text x="882.25" y="44">!"WParenRightW"</text>
</g>
<path d="M956 40h20"></path>
<path d="M788.5 40a10 10 0 0 1 10 10v10a10 10 0 0 0 10 10"></path>
<g class="terminal ">
<path d="M808.5 70h4.25"></path>
<path d="M951.75 70h4.25"></path>
<rect x="812.75" y="59" width="139" height="22" rx="10" ry="10"></rect>
<text x="882.25" y="74">!"WParenRight"</text>
</g>
<path d="M956 70a10 10 0 0 0 10 -10v-10a10 10 0 0 1 10 -10"></path>
</g>
<g>
<path d="M976 40h0"></path>
<path d="M1129.5 40h0"></path>
<path d="M976 40a10 10 0 0 0 10 -10v0a10 10 0 0 1 10 -10"></path>
<g>
<path d="M996 20h113.5"></path>
</g>
<path d="M1109.5 20a10 10 0 0 1 10 10v0a10 10 0 0 0 10 10"></path>
<path d="M976 40h20"></path>
<g class="non-terminal ">
<path d="M996 40h0"></path>
<path d="M1109.5 40h0"></path>
<rect x="996" y="29" width="113.5" height="22"></rect>
<a xlink:href="#/abap/expression/Dereference"><text x="1052.75" y="44">Dereference</text>
</a>
</g>
<path d="M1109.5 40h20"></path>
</g>
</g>
</g>
<path d="M1129.5 40h10"></path>
<path d="M 1139.5 40 h 20 m 0 -10 v 20"></path>
</g>
</svg>
