<svg xmlns="http://www.w3.org/2000/svg" xmlns:xlink="http://www.w3.org/1999/xlink" class="railroad-diagram" width="1905" height="131" viewBox="0 0 1905 131">
<defs>
<style type="text/css"><![CDATA[
path {
stroke-width: 3;
stroke: black;
fill: rgba(0,0,0,0);
}
text {
font: bold 14px monospace;
text-anchor: middle;
}
text.diagram-text {
font-size: 12px;
}
a {
fill: blue;
}
text.diagram-arrow {
font-size: 16px;
}
text.label {
text-anchor: start;
}
text.comment {
font: italic 12px monospace;
}
rect {
stroke-width: 3;
stroke: black;
fill: #BCBCBC;
}
path.diagram-text {
stroke-width: 3;
stroke: black;
fill: #BCBCBC;
cursor: help;
}
]]></style>
</defs>
<g transform="translate(.5 .5)">
<g>
<path d="M20 30v20m0 -10h20"></path>
</g>
<path d="M40 40h10"></path>
<g>
<path d="M50 40h0"></path>
<path d="M1855 40h0"></path>
<g class="comment ">
<path d="M50 40h0"></path>
<path d="M88 40h0"></path>
<text x="69" y="45" class="comment">7.89</text>
</g>
<path d="M88 40h10"></path>
<path d="M98 40h10"></path>
<g>
<path d="M108 40h0"></path>
<path d="M1855 40h0"></path>
<g class="terminal ">
<path d="M108 40h0"></path>
<path d="M272.5 40h0"></path>
<rect x="108" y="29" width="164.5" height="22" rx="10" ry="10"></rect>
<text x="190.25" y="44">"REPLACE&#95;REGEXPR"</text>
</g>
<path d="M272.5 40h10"></path>
<path d="M282.5 40h10"></path>
<g class="terminal ">
<path d="M292.5 40h0"></path>
<path d="M423 40h0"></path>
<rect x="292.5" y="29" width="130.5" height="22" rx="10" ry="10"></rect>
<text x="357.75" y="44">!"ParenLeftW"</text>
</g>
<path d="M423 40h10"></path>
<path d="M433 40h10"></path>
<g class="non-terminal ">
<path d="M443 40h0"></path>
<path d="M607.5 40h0"></path>
<rect x="443" y="29" width="164.5" height="22"></rect>
<a xlink:href="#/abap/expression/SQLRegexprPattern"><text x="525.25" y="44">SQLRegexprPattern</text>
</a>
</g>
<path d="M607.5 40h10"></path>
<g>
<path d="M617.5 40h0"></path>
<path d="M1288.5 40h0"></path>
<path d="M617.5 40a10 10 0 0 0 10 -10v0a10 10 0 0 1 10 -10"></path>
<g>
<path d="M637.5 20h631"></path>
</g>
<path d="M1268.5 20a10 10 0 0 1 10 10v0a10 10 0 0 0 10 10"></path>
<path d="M617.5 40h20"></path>
<g>
<path d="M637.5 40h0"></path>
<path d="M1268.5 40h0"></path>
<g class="terminal ">
<path d="M637.5 40h0"></path>
<path d="M708.5 40h0"></path>
<rect x="637.5" y="29" width="71" height="22" rx="10" ry="10"></rect>
<text x="673" y="44">"WITH"</text>
</g>
<path d="M708.5 40h10"></path>
<g>
<path d="M718.5 40h0"></path>
<path d="M1268.5 40h0"></path>
<path d="M718.5 40h20"></path>
<g>
<path d="M738.5 40h0"></path>
<path d="M1248.5 40h0"></path>
<g class="terminal ">
<path d="M738.5 40h0"></path>
<path d="M809.5 40h0"></path>
<rect x="738.5" y="29" width="71" height="22" rx="10" ry="10"></rect>
<text x="774" y="44">!"WAt"</text>
</g>
<path d="M809.5 40h10"></path>
<g>
<path d="M819.5 40h0"></path>
<path d="M1248.5 40h0"></path>
<path d="M819.5 40h20"></path>
<g class="non-terminal ">
<path d="M839.5 40h129.25"></path>
<path d="M1099.25 40h129.25"></path>
<rect x="968.75" y="29" width="130.5" height="22"></rect>
<a xlink:href="#/abap/expression/SimpleSource3"><text x="1034" y="44">SimpleSource3</text>
</a>
</g>
<path d="M1228.5 40h20"></path>
<path d="M819.5 40a10 10 0 0 1 10 10v10a10 10 0 0 0 10 10"></path>
<g>
<path d="M839.5 70h0"></path>
<path d="M1228.5 70h0"></path>
<g class="terminal ">
<path d="M839.5 70h0"></path>
<path d="M970 70h0"></path>
<rect x="839.5" y="59" width="130.5" height="22" rx="10" ry="10"></rect>
<text x="904.75" y="74">!"ParenLeftW"</text>
</g>
<path d="M970 70h10"></path>
<path d="M980 70h10"></path>
<g class="non-terminal ">
<path d="M990 70h0"></path>
<path d="M1061 70h0"></path>
<rect x="990" y="59" width="71" height="22"></rect>
<a xlink:href="#/abap/expression/Source"><text x="1025.5" y="74">Source</text>
</a>
</g>
<path d="M1061 70h10"></path>
<path d="M1071 70h10"></path>
<g class="terminal ">
<path d="M1081 70h0"></path>
<path d="M1228.5 70h0"></path>
<rect x="1081" y="59" width="147.5" height="22" rx="10" ry="10"></rect>
<text x="1154.75" y="74">!"WParenRightW"</text>
</g>
</g>
<path d="M1228.5 70a10 10 0 0 0 10 -10v-10a10 10 0 0 1 10 -10"></path>
</g>
</g>
<path d="M1248.5 40h20"></path>
<path d="M718.5 40a10 10 0 0 1 10 10v40a10 10 0 0 0 10 10"></path>
<g class="non-terminal ">
<path d="M738.5 100h177"></path>
<path d="M1071.5 100h177"></path>
<rect x="915.5" y="89" width="156" height="22"></rect>
<a xlink:href="#/abap/expression/SQLFunctionInput"><text x="993.5" y="104">SQLFunctionInput</text>
</a>
</g>
<path d="M1248.5 100a10 10 0 0 0 10 -10v-40a10 10 0 0 1 10 -10"></path>
</g>
</g>
<path d="M1268.5 40h20"></path>
</g>
<g>
<path d="M1288.5 40h0"></path>
<path d="M1467.5 40h0"></path>
<path d="M1288.5 40a10 10 0 0 0 10 -10v0a10 10 0 0 1 10 -10"></path>
<g>
<path d="M1308.5 20h139"></path>
</g>
<path d="M1447.5 20a10 10 0 0 1 10 10v0a10 10 0 0 0 10 10"></path>
<path d="M1288.5 40h20"></path>
<g class="non-terminal ">
<path d="M1308.5 40h0"></path>
<path d="M1447.5 40h0"></path>
<rect x="1308.5" y="29" width="139" height="22"></rect>
<a xlink:href="#/abap/expression/SQLRegexprFrom"><text x="1378" y="44">SQLRegexprFrom</text>
</a>
</g>
<path d="M1447.5 40h20"></path>
</g>
<g>
<path d="M1467.5 40h0"></path>
<path d="M1697.5 40h0"></path>
<path d="M1467.5 40a10 10 0 0 0 10 -10v0a10 10 0 0 1 10 -10"></path>
<g>
<path d="M1487.5 20h190"></path>
</g>
<path d="M1677.5 20a10 10 0 0 1 10 10v0a10 10 0 0 0 10 10"></path>
<path d="M1467.5 40h20"></path>
<g class="non-terminal ">
<path d="M1487.5 40h0"></path>
<path d="M1677.5 40h0"></path>
<rect x="1487.5" y="29" width="190" height="22"></rect>
<a xlink:href="#/abap/expression/SQLRegexprOccurrence"><text x="1582.5" y="44">SQLRegexprOccurrence</text>
</a>
</g>
<path d="M1677.5 40h20"></path>
</g>
<path d="M1697.5 40h10"></path>
<g class="terminal ">
<path d="M1707.5 40h0"></path>
<path d="M1855 40h0"></path>
<rect x="1707.5" y="29" width="147.5" height="22" rx="10" ry="10"></rect>
<text x="1781.25" y="44">!"WParenRightW"</text>
</g>
</g>
</g>
<path d="M1855 40h10"></path>
<path d="M 1865 40 h 20 m 0 -10 v 20"></path>
</g>
</svg>
