<svg xmlns="http://www.w3.org/2000/svg" xmlns:xlink="http://www.w3.org/1999/xlink" class="railroad-diagram" width="887.5" height="62" viewBox="0 0 887.5 62">
<defs>
<style type="text/css"><![CDATA[
path {
stroke-width: 3;
stroke: black;
fill: rgba(0,0,0,0);
}
text {
font: bold 14px monospace;
text-anchor: middle;
}
text.diagram-text {
font-size: 12px;
}
a {
fill: blue;
}
text.diagram-arrow {
font-size: 16px;
}
text.label {
text-anchor: start;
}
text.comment {
font: italic 12px monospace;
}
rect {
stroke-width: 3;
stroke: black;
fill: #BCBCBC;
}
path.diagram-text {
stroke-width: 3;
stroke: black;
fill: #BCBCBC;
cursor: help;
}
]]></style>
</defs>
<g transform="translate(.5 .5)">
<g>
<path d="M20 21v20m0 -10h20"></path>
</g>
<path d="M40 31h10"></path>
<g>
<path d="M50 31h0"></path>
<path d="M837.5 31h0"></path>
<g class="comment ">
<path d="M50 31h0"></path>
<path d="M193 31h0"></path>
<text x="121.5" y="36" class="comment">740SP02 or OpenABAP</text>
</g>
<path d="M193 31h10"></path>
<path d="M203 31h10"></path>
<g>
<path d="M213 31h0"></path>
<path d="M837.5 31h0"></path>
<g class="terminal ">
<path d="M213 31h0"></path>
<path d="M352 31h0"></path>
<rect x="213" y="20" width="139" height="22" rx="10" ry="10"></rect>
<text x="282.5" y="35">"FIELD-SYMBOL"</text>
</g>
<path d="M352 31h10"></path>
<path d="M362 31h10"></path>
<g class="terminal ">
<path d="M372 31h0"></path>
<path d="M494 31h0"></path>
<rect x="372" y="20" width="122" height="22" rx="10" ry="10"></rect>
<text x="433" y="35">!"ParenLeft"</text>
</g>
<path d="M494 31h10"></path>
<path d="M504 31h10"></path>
<g class="non-terminal ">
<path d="M514 31h0"></path>
<path d="M678.5 31h0"></path>
<rect x="514" y="20" width="164.5" height="22"></rect>
<a xlink:href="#/abap/expression/TargetFieldSymbol"><text x="596.25" y="35">TargetFieldSymbol</text>
</a>
</g>
<path d="M678.5 31h10"></path>
<path d="M688.5 31h10"></path>
<g class="terminal ">
<path d="M698.5 31h0"></path>
<path d="M837.5 31h0"></path>
<rect x="698.5" y="20" width="139" height="22" rx="10" ry="10"></rect>
<text x="768" y="35">!"ParenRightW"</text>
</g>
</g>
</g>
<path d="M837.5 31h10"></path>
<path d="M 847.5 31 h 20 m 0 -10 v 20"></path>
</g>
</svg>
