<svg xmlns="http://www.w3.org/2000/svg" xmlns:xlink="http://www.w3.org/1999/xlink" class="railroad-diagram" width="757.5" height="290" viewBox="0 0 757.5 290">
<defs>
<style type="text/css"><![CDATA[
path {
stroke-width: 3;
stroke: black;
fill: rgba(0,0,0,0);
}
text {
font: bold 14px monospace;
text-anchor: middle;
}
text.diagram-text {
font-size: 12px;
}
a {
fill: blue;
}
text.diagram-arrow {
font-size: 16px;
}
text.label {
text-anchor: start;
}
text.comment {
font: italic 12px monospace;
}
rect {
stroke-width: 3;
stroke: black;
fill: #BCBCBC;
}
path.diagram-text {
stroke-width: 3;
stroke: black;
fill: #BCBCBC;
cursor: help;
}
]]></style>
</defs>
<g transform="translate(.5 .5)">
<g>
<path d="M20 30v20m0 -10h20"></path>
</g>
<g>
<path d="M40 40h0"></path>
<path d="M717.5 40h0"></path>
<path d="M40 40h20"></path>
<g>
<path d="M60 40h42.5"></path>
<path d="M655 40h42.5"></path>
<g class="non-terminal ">
<path d="M102.5 40h0"></path>
<path d="M173.5 40h0"></path>
<rect x="102.5" y="29" width="71" height="22"></rect>
<a xlink:href="#/abap/expression/Source"><text x="138" y="44">Source</text>
</a>
</g>
<path d="M173.5 40h10"></path>
<g>
<path d="M183.5 40h0"></path>
<path d="M655 40h0"></path>
<path d="M183.5 40a10 10 0 0 0 10 -10v0a10 10 0 0 1 10 -10"></path>
<g>
<path d="M203.5 20h431.5"></path>
</g>
<path d="M635 20a10 10 0 0 1 10 10v0a10 10 0 0 0 10 10"></path>
<path d="M183.5 40h20"></path>
<g>
<path d="M203.5 40h0"></path>
<path d="M635 40h0"></path>
<g>
<path d="M203.5 40h0"></path>
<path d="M545.5 40h0"></path>
<path d="M203.5 40h20"></path>
<g class="terminal ">
<path d="M223.5 40h73"></path>
<path d="M452.5 40h73"></path>
<rect x="296.5" y="29" width="156" height="22" rx="10" ry="10"></rect>
<text x="374.5" y="44">!"InstanceArrow"</text>
</g>
<path d="M525.5 40h20"></path>
<path d="M203.5 40a10 10 0 0 1 10 10v10a10 10 0 0 0 10 10"></path>
<g>
<path d="M223.5 70h0"></path>
<path d="M525.5 70h0"></path>
<g class="comment ">
<path d="M223.5 70h0"></path>
<path d="M366.5 70h0"></path>
<text x="295" y="75" class="comment">not langver=KeyUser</text>
</g>
<path d="M366.5 70h10"></path>
<path d="M376.5 70h10"></path>
<g class="terminal ">
<path d="M386.5 70h0"></path>
<path d="M525.5 70h0"></path>
<rect x="386.5" y="59" width="139" height="22" rx="10" ry="10"></rect>
<text x="456" y="74">!"StaticArrow"</text>
</g>
</g>
<path d="M525.5 70a10 10 0 0 0 10 -10v-10a10 10 0 0 1 10 -10"></path>
</g>
<path d="M545.5 40h10"></path>
<g class="non-terminal ">
<path d="M555.5 40h0"></path>
<path d="M635 40h0"></path>
<rect x="555.5" y="29" width="79.5" height="22"></rect>
<a xlink:href="#/abap/expression/Dynamic"><text x="595.25" y="44">Dynamic</text>
</a>
</g>
</g>
<path d="M635 40h20"></path>
</g>
</g>
<path d="M697.5 40h20"></path>
<path d="M40 40a10 10 0 0 1 10 10v40a10 10 0 0 0 10 10"></path>
<g>
<path d="M60 100h0"></path>
<path d="M697.5 100h0"></path>
<g class="terminal ">
<path d="M60 100h0"></path>
<path d="M173.5 100h0"></path>
<rect x="60" y="89" width="113.5" height="22" rx="10" ry="10"></rect>
<text x="116.75" y="104">"COMPONENT"</text>
</g>
<path d="M173.5 100h10"></path>
<g>
<path d="M183.5 100h0"></path>
<path d="M457.5 100h0"></path>
<path d="M183.5 100h20"></path>
<g class="non-terminal ">
<path d="M203.5 100h51.75"></path>
<path d="M385.75 100h51.75"></path>
<rect x="255.25" y="89" width="130.5" height="22"></rect>
<a xlink:href="#/abap/expression/SimpleSource3"><text x="320.5" y="104">SimpleSource3</text>
</a>
</g>
<path d="M437.5 100h20"></path>
<path d="M183.5 100a10 10 0 0 1 10 10v10a10 10 0 0 0 10 10"></path>
<g>
<path d="M203.5 130h0"></path>
<path d="M437.5 130h0"></path>
<g class="comment ">
<path d="M203.5 130h0"></path>
<path d="M346.5 130h0"></path>
<text x="275" y="135" class="comment">740SP02 or OpenABAP</text>
</g>
<path d="M346.5 130h10"></path>
<path d="M356.5 130h10"></path>
<g class="non-terminal ">
<path d="M366.5 130h0"></path>
<path d="M437.5 130h0"></path>
<rect x="366.5" y="119" width="71" height="22"></rect>
<a xlink:href="#/abap/expression/Source"><text x="402" y="134">Source</text>
</a>
</g>
</g>
<path d="M437.5 130a10 10 0 0 0 10 -10v-10a10 10 0 0 1 10 -10"></path>
</g>
<path d="M457.5 100h10"></path>
<g class="terminal ">
<path d="M467.5 100h0"></path>
<path d="M606.5 100h0"></path>
<rect x="467.5" y="89" width="139" height="22" rx="10" ry="10"></rect>
<text x="537" y="104">"OF STRUCTURE"</text>
</g>
<path d="M606.5 100h10"></path>
<path d="M616.5 100h10"></path>
<g class="non-terminal ">
<path d="M626.5 100h0"></path>
<path d="M697.5 100h0"></path>
<rect x="626.5" y="89" width="71" height="22"></rect>
<a xlink:href="#/abap/expression/Source"><text x="662" y="104">Source</text>
</a>
</g>
</g>
<path d="M697.5 100a10 10 0 0 0 10 -10v-40a10 10 0 0 1 10 -10"></path>
<path d="M40 40a10 10 0 0 1 10 10v100a10 10 0 0 0 10 10"></path>
<g>
<path d="M60 160h107.25"></path>
<path d="M590.25 160h107.25"></path>
<g class="comment ">
<path d="M167.25 160h0"></path>
<path d="M310.25 160h0"></path>
<text x="238.75" y="165" class="comment">not langver=KeyUser</text>
</g>
<path d="M310.25 160h10"></path>
<path d="M320.25 160h10"></path>
<g>
<path d="M330.25 160h0"></path>
<path d="M590.25 160h0"></path>
<g class="terminal ">
<path d="M330.25 160h0"></path>
<path d="M460.75 160h0"></path>
<rect x="330.25" y="149" width="130.5" height="22" rx="10" ry="10"></rect>
<text x="395.5" y="164">"TABLE FIELD"</text>
</g>
<path d="M460.75 160h10"></path>
<g>
<path d="M470.75 160h0"></path>
<path d="M590.25 160h0"></path>
<path d="M470.75 160h20"></path>
<g class="non-terminal ">
<path d="M490.75 160h4.25"></path>
<path d="M566 160h4.25"></path>
<rect x="495" y="149" width="71" height="22"></rect>
<a xlink:href="#/abap/expression/Source"><text x="530.5" y="164">Source</text>
</a>
</g>
<path d="M570.25 160h20"></path>
<path d="M470.75 160a10 10 0 0 1 10 10v10a10 10 0 0 0 10 10"></path>
<g class="non-terminal ">
<path d="M490.75 190h0"></path>
<path d="M570.25 190h0"></path>
<rect x="490.75" y="179" width="79.5" height="22"></rect>
<a xlink:href="#/abap/expression/Dynamic"><text x="530.5" y="194">Dynamic</text>
</a>
</g>
<path d="M570.25 190a10 10 0 0 0 10 -10v-10a10 10 0 0 1 10 -10"></path>
</g>
</g>
</g>
<path d="M697.5 160a10 10 0 0 0 10 -10v-100a10 10 0 0 1 10 -10"></path>
<path d="M40 40a10 10 0 0 1 10 10v169a10 10 0 0 0 10 10"></path>
<g>
<path d="M60 229h14.75"></path>
<path d="M682.75 229h14.75"></path>
<g class="comment ">
<path d="M74.75 229h0"></path>
<path d="M217.75 229h0"></path>
<text x="146.25" y="234" class="comment">not langver=KeyUser</text>
</g>
<path d="M217.75 229h10"></path>
<path d="M227.75 229h10"></path>
<g>
<path d="M237.75 229h0"></path>
<path d="M682.75 229h0"></path>
<g class="non-terminal ">
<path d="M237.75 229h0"></path>
<path d="M317.25 229h0"></path>
<rect x="237.75" y="218" width="79.5" height="22"></rect>
<a xlink:href="#/abap/expression/Dynamic"><text x="277.5" y="233">Dynamic</text>
</a>
</g>
<path d="M317.25 229h10"></path>
<g>
<path d="M327.25 229h0"></path>
<path d="M682.75 229h0"></path>
<path d="M327.25 229a10 10 0 0 0 10 -10v0a10 10 0 0 1 10 -10"></path>
<g>
<path d="M347.25 209h315.5"></path>
</g>
<path d="M662.75 209a10 10 0 0 1 10 10v0a10 10 0 0 0 10 10"></path>
<path d="M327.25 229h20"></path>
<g>
<path d="M347.25 229h0"></path>
<path d="M662.75 229h0"></path>
<g>
<path d="M347.25 229h0"></path>
<path d="M543.25 229h0"></path>
<path d="M347.25 229h20"></path>
<g class="terminal ">
<path d="M367.25 229h0"></path>
<path d="M523.25 229h0"></path>
<rect x="367.25" y="218" width="156" height="22" rx="10" ry="10"></rect>
<text x="445.25" y="233">!"InstanceArrow"</text>
</g>
<path d="M523.25 229h20"></path>
<path d="M347.25 229a10 10 0 0 1 10 10v10a10 10 0 0 0 10 10"></path>
<g class="terminal ">
<path d="M367.25 259h8.5"></path>
<path d="M514.75 259h8.5"></path>
<rect x="375.75" y="248" width="139" height="22" rx="10" ry="10"></rect>
<text x="445.25" y="263">!"StaticArrow"</text>
</g>
<path d="M523.25 259a10 10 0 0 0 10 -10v-10a10 10 0 0 1 10 -10"></path>
</g>
<g>
<path d="M543.25 229h0"></path>
<path d="M662.75 229h0"></path>
<path d="M543.25 229h20"></path>
<g class="non-terminal ">
<path d="M563.25 229h8.5"></path>
<path d="M634.25 229h8.5"></path>
<rect x="571.75" y="218" width="62.5" height="22"></rect>
<a xlink:href="#/abap/expression/Field"><text x="603" y="233">Field</text>
</a>
</g>
<path d="M642.75 229h20"></path>
<path d="M543.25 229a10 10 0 0 1 10 10v10a10 10 0 0 0 10 10"></path>
<g class="non-terminal ">
<path d="M563.25 259h0"></path>
<path d="M642.75 259h0"></path>
<rect x="563.25" y="248" width="79.5" height="22"></rect>
<a xlink:href="#/abap/expression/Dynamic"><text x="603" y="263">Dynamic</text>
</a>
</g>
<path d="M642.75 259a10 10 0 0 0 10 -10v-10a10 10 0 0 1 10 -10"></path>
</g>
</g>
<path d="M662.75 229h20"></path>
</g>
</g>
</g>
<path d="M697.5 229a10 10 0 0 0 10 -10v-169a10 10 0 0 1 10 -10"></path>
</g>
<path d="M 717.5 40 h 20 m 0 -10 v 20"></path>
</g>
</svg>
