<svg xmlns="http://www.w3.org/2000/svg" xmlns:xlink="http://www.w3.org/1999/xlink" class="railroad-diagram" width="1193.5" height="101" viewBox="0 0 1193.5 101">
<defs>
<style type="text/css"><![CDATA[
path {
stroke-width: 3;
stroke: black;
fill: rgba(0,0,0,0);
}
text {
font: bold 14px monospace;
text-anchor: middle;
}
text.diagram-text {
font-size: 12px;
}
a {
fill: blue;
}
text.diagram-arrow {
font-size: 16px;
}
text.label {
text-anchor: start;
}
text.comment {
font: italic 12px monospace;
}
rect {
stroke-width: 3;
stroke: black;
fill: #BCBCBC;
}
path.diagram-text {
stroke-width: 3;
stroke: black;
fill: #BCBCBC;
cursor: help;
}
]]></style>
</defs>
<g transform="translate(.5 .5)">
<g>
<path d="M20 30v20m0 -10h20"></path>
</g>
<path d="M40 40h10"></path>
<g>
<path d="M50 40h0"></path>
<path d="M1143.5 40h0"></path>
<g>
<path d="M50 40h0"></path>
<path d="M207 40h0"></path>
<text x="128.5" y="45" class="comment">v740sp02 or open-abap</text>
</g>
<path d="M207 40h10"></path>
<path d="M217 40h10"></path>
<g>
<path d="M227 40h0"></path>
<path d="M1143.5 40h0"></path>
<g class="terminal">
<path d="M227 40h0"></path>
<path d="M298 40h0"></path>
<rect x="227" y="29" width="71" height="22" rx="10" ry="10"></rect>
<text x="262.5" y="44">"CAST"</text>
</g>
<path d="M298 40h10"></path>
<path d="M308 40h10"></path>
<g class="non-terminal">
<path d="M318 40h0"></path>
<path d="M465.5 40h0"></path>
<rect x="318" y="29" width="147.5" height="22"></rect>
<a xlink:href="#/abap/expression/TypeNameOrInfer"><text x="391.75" y="44">TypeNameOrInfer</text>
</a>
</g>
<path d="M465.5 40h10"></path>
<path d="M475.5 40h10"></path>
<g class="terminal">
<path d="M485.5 40h0"></path>
<path d="M616 40h0"></path>
<rect x="485.5" y="29" width="130.5" height="22" rx="10" ry="10"></rect>
<text x="550.75" y="44">!"ParenLeftW"</text>
</g>
<path d="M616 40h10"></path>
<g>
<path d="M626 40h0"></path>
<path d="M711.5 40h0"></path>
<path d="M626 40a10 10 0 0 0 10 -10v0a10 10 0 0 1 10 -10"></path>
<g>
<path d="M646 20h45.5"></path>
</g>
<path d="M691.5 20a10 10 0 0 1 10 10v0a10 10 0 0 0 10 10"></path>
<path d="M626 40h20"></path>
<g class="non-terminal">
<path d="M646 40h0"></path>
<path d="M691.5 40h0"></path>
<rect x="646" y="29" width="45.5" height="22"></rect>
<a xlink:href="#/abap/expression/Let"><text x="668.75" y="44">Let</text>
</a>
</g>
<path d="M691.5 40h20"></path>
</g>
<path d="M711.5 40h10"></path>
<g class="non-terminal">
<path d="M721.5 40h0"></path>
<path d="M792.5 40h0"></path>
<rect x="721.5" y="29" width="71" height="22"></rect>
<a xlink:href="#/abap/expression/Source"><text x="757" y="44">Source</text>
</a>
</g>
<path d="M792.5 40h10"></path>
<g>
<path d="M802.5 40h0"></path>
<path d="M990 40h0"></path>
<path d="M802.5 40h20"></path>
<g class="terminal">
<path d="M822.5 40h0"></path>
<path d="M970 40h0"></path>
<rect x="822.5" y="29" width="147.5" height="22" rx="10" ry="10"></rect>
<text x="896.25" y="44">!"WParenRightW"</text>
</g>
<path d="M970 40h20"></path>
<path d="M802.5 40a10 10 0 0 1 10 10v10a10 10 0 0 0 10 10"></path>
<g class="terminal">
<path d="M822.5 70h0"></path>
<path d="M961.5 70h8.5"></path>
<rect x="822.5" y="59" width="139" height="22" rx="10" ry="10"></rect>
<text x="892" y="74">!"WParenRight"</text>
</g>
<path d="M970 70a10 10 0 0 0 10 -10v-10a10 10 0 0 1 10 -10"></path>
</g>
<g>
<path d="M990 40h0"></path>
<path d="M1143.5 40h0"></path>
<path d="M990 40a10 10 0 0 0 10 -10v0a10 10 0 0 1 10 -10"></path>
<g>
<path d="M1010 20h113.5"></path>
</g>
<path d="M1123.5 20a10 10 0 0 1 10 10v0a10 10 0 0 0 10 10"></path>
<path d="M990 40h20"></path>
<g class="non-terminal">
<path d="M1010 40h0"></path>
<path d="M1123.5 40h0"></path>
<rect x="1010" y="29" width="113.5" height="22"></rect>
<a xlink:href="#/abap/expression/Dereference"><text x="1066.75" y="44">Dereference</text>
</a>
</g>
<path d="M1123.5 40h20"></path>
</g>
</g>
</g>
<path d="M1143.5 40h10"></path>
<path d="M 1153.5 40 h 20 m 0 -10 v 20"></path>
</g>
</svg>
