<svg xmlns="http://www.w3.org/2000/svg" xmlns:xlink="http://www.w3.org/1999/xlink" class="railroad-diagram" width="586.5" height="88" viewBox="0 0 586.5 88">
<defs>
<style type="text/css"><![CDATA[
path {
stroke-width: 3;
stroke: black;
fill: rgba(0,0,0,0);
}
text {
font: bold 14px monospace;
text-anchor: middle;
}
text.diagram-text {
font-size: 12px;
}
a {
fill: blue;
}
text.diagram-arrow {
font-size: 16px;
}
text.label {
text-anchor: start;
}
text.comment {
font: italic 12px monospace;
}
rect {
stroke-width: 3;
stroke: black;
fill: #BCBCBC;
}
path.diagram-text {
stroke-width: 3;
stroke: black;
fill: #BCBCBC;
cursor: help;
}
]]></style>
</defs>
<g transform="translate(.5 .5)">
<g>
<path d="M20 38v20m0 -10h20"></path>
</g>
<path d="M40 48h10"></path>
<g>
<path d="M50 48h0"></path>
<path d="M536.5 48h0"></path>
<g class="terminal">
<path d="M50 48h0"></path>
<path d="M197.5 48h0"></path>
<rect x="50" y="37" width="147.5" height="22" rx="10" ry="10"></rect>
<text x="123.75" y="52">^&#91;\w%$\&#42;\/\?&#93;+$</text>
</g>
<path d="M197.5 48h10"></path>
<g>
<path d="M207.5 48h0"></path>
<path d="M434 48h0"></path>
<path d="M207.5 48a10 10 0 0 0 10 -10v-8a10 10 0 0 1 10 -10"></path>
<g>
<path d="M227.5 20h186.5"></path>
</g>
<path d="M414 20a10 10 0 0 1 10 10v8a10 10 0 0 0 10 10"></path>
<path d="M207.5 48h20"></path>
<g>
<path d="M227.5 48h0"></path>
<path d="M414 48h0"></path>
<path d="M227.5 48h10"></path>
<g>
<path d="M237.5 48h0"></path>
<path d="M404 48h0"></path>
<g class="terminal">
<path d="M237.5 48h0"></path>
<path d="M291.5 48h0"></path>
<rect x="237.5" y="37" width="54" height="22" rx="10" ry="10"></rect>
<text x="264.5" y="52">!"-"</text>
</g>
<path d="M291.5 48h10"></path>
<g>
<path d="M301.5 48h0"></path>
<path d="M404 48h0"></path>
<path d="M301.5 48a10 10 0 0 0 10 -10v0a10 10 0 0 1 10 -10"></path>
<g>
<path d="M321.5 28h62.5"></path>
</g>
<path d="M384 28a10 10 0 0 1 10 10v0a10 10 0 0 0 10 10"></path>
<path d="M301.5 48h20"></path>
<g class="terminal">
<path d="M321.5 48h0"></path>
<path d="M384 48h0"></path>
<rect x="321.5" y="37" width="62.5" height="22" rx="10" ry="10"></rect>
<text x="352.75" y="52">^\w+$</text>
</g>
<path d="M384 48h20"></path>
</g>
</g>
<path d="M404 48h10"></path>
<path d="M237.5 48a10 10 0 0 0 -10 10v0a10 10 0 0 0 10 10"></path>
<g>
<path d="M237.5 68h166.5"></path>
</g>
<path d="M404 68a10 10 0 0 0 10 -10v0a10 10 0 0 0 -10 -10"></path>
</g>
<path d="M414 48h20"></path>
</g>
<g>
<path d="M434 48h0"></path>
<path d="M536.5 48h0"></path>
<path d="M434 48a10 10 0 0 0 10 -10v0a10 10 0 0 1 10 -10"></path>
<g>
<path d="M454 28h62.5"></path>
</g>
<path d="M516.5 28a10 10 0 0 1 10 10v0a10 10 0 0 0 10 10"></path>
<path d="M434 48h20"></path>
<g class="terminal">
<path d="M454 48h0"></path>
<path d="M516.5 48h0"></path>
<rect x="454" y="37" width="62.5" height="22" rx="10" ry="10"></rect>
<text x="485.25" y="52">!"- "</text>
</g>
<path d="M516.5 48h20"></path>
</g>
</g>
<path d="M536.5 48h10"></path>
<path d="M 546.5 48 h 20 m 0 -10 v 20"></path>
</g>
</svg>
