<svg xmlns="http://www.w3.org/2000/svg" xmlns:xlink="http://www.w3.org/1999/xlink" class="railroad-diagram" width="368.5" height="122" viewBox="0 0 368.5 122">
<defs>
<style type="text/css"><![CDATA[
path {
stroke-width: 3;
stroke: black;
fill: rgba(0,0,0,0);
}
text {
font: bold 14px monospace;
text-anchor: middle;
}
text.diagram-text {
font-size: 12px;
}
a {
fill: blue;
}
text.diagram-arrow {
font-size: 16px;
}
text.label {
text-anchor: start;
}
text.comment {
font: italic 12px monospace;
}
rect {
stroke-width: 3;
stroke: black;
fill: #BCBCBC;
}
path.diagram-text {
stroke-width: 3;
stroke: black;
fill: #BCBCBC;
cursor: help;
}
]]></style>
</defs>
<g transform="translate(.5 .5)">
<g>
<path d="M20 21v20m0 -10h20"></path>
</g>
<path d="M40 31h10"></path>
<g>
<path d="M50 31h0"></path>
<path d="M318.5 31h0"></path>
<g class="terminal">
<path d="M50 31h0"></path>
<path d="M155 31h0"></path>
<rect x="50" y="20" width="105" height="22" rx="10" ry="10"></rect>
<text x="102.5" y="35">"LANGUAGE"</text>
</g>
<path d="M155 31h10"></path>
<g>
<path d="M165 31h0"></path>
<path d="M318.5 31h0"></path>
<path d="M165 31h20"></path>
<g class="terminal">
<path d="M185 31h0"></path>
<path d="M298.5 31h0"></path>
<rect x="185" y="20" width="113.5" height="22" rx="10" ry="10"></rect>
<text x="241.75" y="35">"SQLSCRIPT"</text>
</g>
<path d="M298.5 31h20"></path>
<path d="M165 31a10 10 0 0 1 10 10v10a10 10 0 0 0 10 10"></path>
<g class="terminal">
<path d="M185 61h0"></path>
<path d="M247.5 61h51"></path>
<rect x="185" y="50" width="62.5" height="22" rx="10" ry="10"></rect>
<text x="216.25" y="65">"SQL"</text>
</g>
<path d="M298.5 61a10 10 0 0 0 10 -10v-10a10 10 0 0 1 10 -10"></path>
<path d="M165 31a10 10 0 0 1 10 10v40a10 10 0 0 0 10 10"></path>
<g class="terminal">
<path d="M185 91h0"></path>
<path d="M264.5 91h34"></path>
<rect x="185" y="80" width="79.5" height="22" rx="10" ry="10"></rect>
<text x="224.75" y="95">"GRAPH"</text>
</g>
<path d="M298.5 91a10 10 0 0 0 10 -10v-40a10 10 0 0 1 10 -10"></path>
</g>
</g>
<path d="M318.5 31h10"></path>
<path d="M 328.5 31 h 20 m 0 -10 v 20"></path>
</g>
</svg>
