<svg xmlns="http://www.w3.org/2000/svg" xmlns:xlink="http://www.w3.org/1999/xlink" class="railroad-diagram" width="631" height="62" viewBox="0 0 631 62">
<defs>
<style type="text/css"><![CDATA[
path {
stroke-width: 3;
stroke: black;
fill: rgba(0,0,0,0);
}
text {
font: bold 14px monospace;
text-anchor: middle;
}
text.diagram-text {
font-size: 12px;
}
a {
fill: blue;
}
text.diagram-arrow {
font-size: 16px;
}
text.label {
text-anchor: start;
}
text.comment {
font: italic 12px monospace;
}
rect {
stroke-width: 3;
stroke: black;
fill: #BCBCBC;
}
path.diagram-text {
stroke-width: 3;
stroke: black;
fill: #BCBCBC;
cursor: help;
}
]]></style>
</defs>
<g transform="translate(.5 .5)">
<g>
<path d="M20 21v20m0 -10h20"></path>
</g>
<path d="M40 31h10"></path>
<g>
<path d="M50 31h0"></path>
<path d="M581 31h0"></path>
<g class="terminal">
<path d="M50 31h0"></path>
<path d="M129.5 31h0"></path>
<rect x="50" y="20" width="79.5" height="22" rx="10" ry="10"></rect>
<text x="89.75" y="35">"VALUE"</text>
</g>
<path d="M129.5 31h10"></path>
<path d="M139.5 31h10"></path>
<g class="terminal">
<path d="M149.5 31h0"></path>
<path d="M271.5 31h0"></path>
<rect x="149.5" y="20" width="122" height="22" rx="10" ry="10"></rect>
<text x="210.5" y="35">!"ParenLeft"</text>
</g>
<path d="M271.5 31h10"></path>
<path d="M281.5 31h10"></path>
<g class="non-terminal">
<path d="M291.5 31h0"></path>
<path d="M422 31h0"></path>
<rect x="291.5" y="20" width="130.5" height="22"></rect>
<a xlink:href="#/abap/expression/FormParamName"><text x="356.75" y="35">FormParamName</text>
</a>
</g>
<path d="M422 31h10"></path>
<path d="M432 31h10"></path>
<g class="terminal">
<path d="M442 31h0"></path>
<path d="M581 31h0"></path>
<rect x="442" y="20" width="139" height="22" rx="10" ry="10"></rect>
<text x="511.5" y="35">!"ParenRightW"</text>
</g>
</g>
<path d="M581 31h10"></path>
<path d="M 591 31 h 20 m 0 -10 v 20"></path>
</g>
</svg>
