<svg xmlns="http://www.w3.org/2000/svg" xmlns:xlink="http://www.w3.org/1999/xlink" class="railroad-diagram" width="644" height="302" viewBox="0 0 644 302">
<defs>
<style type="text/css"><![CDATA[
path {
stroke-width: 3;
stroke: black;
fill: rgba(0,0,0,0);
}
text {
font: bold 14px monospace;
text-anchor: middle;
}
text.diagram-text {
font-size: 12px;
}
a {
fill: blue;
}
text.diagram-arrow {
font-size: 16px;
}
text.label {
text-anchor: start;
}
text.comment {
font: italic 12px monospace;
}
rect {
stroke-width: 3;
stroke: black;
fill: #BCBCBC;
}
path.diagram-text {
stroke-width: 3;
stroke: black;
fill: #BCBCBC;
cursor: help;
}
]]></style>
</defs>
<g transform="translate(.5 .5)">
<g>
<path d="M20 21v20m0 -10h20"></path>
</g>
<g>
<path d="M40 31h0"></path>
<path d="M604 31h0"></path>
<path d="M40 31h20"></path>
<g>
<path d="M60 31h0"></path>
<path d="M584 31h0"></path>
<g class="terminal ">
<path d="M60 31h0"></path>
<path d="M190.5 31h0"></path>
<rect x="60" y="20" width="130.5" height="22" rx="10" ry="10"></rect>
<text x="125.25" y="35">!"ParenLeftW"</text>
</g>
<path d="M190.5 31h10"></path>
<g>
<path d="M200.5 31h0"></path>
<path d="M396.5 31h0"></path>
<path d="M200.5 31h20"></path>
<g class="non-terminal ">
<path d="M220.5 31h42.5"></path>
<path d="M334 31h42.5"></path>
<rect x="263" y="20" width="71" height="22"></rect>
<a xlink:href="#/abap/expression/Source"><text x="298.5" y="35">Source</text>
</a>
</g>
<path d="M376.5 31h20"></path>
<path d="M200.5 31a10 10 0 0 1 10 10v10a10 10 0 0 0 10 10"></path>
<g class="non-terminal ">
<path d="M220.5 61h8.5"></path>
<path d="M368 61h8.5"></path>
<rect x="229" y="50" width="139" height="22"></rect>
<a xlink:href="#/abap/expression/ParameterListS"><text x="298.5" y="65">ParameterListS</text>
</a>
</g>
<path d="M376.5 61a10 10 0 0 0 10 -10v-10a10 10 0 0 1 10 -10"></path>
<path d="M200.5 31a10 10 0 0 1 10 10v40a10 10 0 0 0 10 10"></path>
<g class="non-terminal ">
<path d="M220.5 91h0"></path>
<path d="M376.5 91h0"></path>
<rect x="220.5" y="80" width="156" height="22"></rect>
<a xlink:href="#/abap/expression/MethodParameters"><text x="298.5" y="95">MethodParameters</text>
</a>
</g>
<path d="M376.5 91a10 10 0 0 0 10 -10v-40a10 10 0 0 1 10 -10"></path>
</g>
<g>
<path d="M396.5 31h0"></path>
<path d="M584 31h0"></path>
<path d="M396.5 31h20"></path>
<g class="terminal ">
<path d="M416.5 31h4.25"></path>
<path d="M559.75 31h4.25"></path>
<rect x="420.75" y="20" width="139" height="22" rx="10" ry="10"></rect>
<text x="490.25" y="35">!"WParenRight"</text>
</g>
<path d="M564 31h20"></path>
<path d="M396.5 31a10 10 0 0 1 10 10v10a10 10 0 0 0 10 10"></path>
<g class="terminal ">
<path d="M416.5 61h0"></path>
<path d="M564 61h0"></path>
<rect x="416.5" y="50" width="147.5" height="22" rx="10" ry="10"></rect>
<text x="490.25" y="65">!"WParenRightW"</text>
</g>
<path d="M564 61a10 10 0 0 0 10 -10v-10a10 10 0 0 1 10 -10"></path>
<path d="M396.5 31a10 10 0 0 1 10 10v40a10 10 0 0 0 10 10"></path>
<g class="terminal ">
<path d="M416.5 91h8.5"></path>
<path d="M555.5 91h8.5"></path>
<rect x="425" y="80" width="130.5" height="22" rx="10" ry="10"></rect>
<text x="490.25" y="95">!"ParenRight"</text>
</g>
<path d="M564 91a10 10 0 0 0 10 -10v-40a10 10 0 0 1 10 -10"></path>
<path d="M396.5 31a10 10 0 0 1 10 10v70a10 10 0 0 0 10 10"></path>
<g class="terminal ">
<path d="M416.5 121h4.25"></path>
<path d="M559.75 121h4.25"></path>
<rect x="420.75" y="110" width="139" height="22" rx="10" ry="10"></rect>
<text x="490.25" y="125">!"ParenRightW"</text>
</g>
<path d="M564 121a10 10 0 0 0 10 -10v-70a10 10 0 0 1 10 -10"></path>
</g>
</g>
<path d="M584 31h20"></path>
<path d="M40 31a10 10 0 0 1 10 10v100a10 10 0 0 0 10 10"></path>
<g>
<path d="M60 151h4.25"></path>
<path d="M579.75 151h4.25"></path>
<g class="terminal ">
<path d="M64.25 151h0"></path>
<path d="M186.25 151h0"></path>
<rect x="64.25" y="140" width="122" height="22" rx="10" ry="10"></rect>
<text x="125.25" y="155">!"ParenLeft"</text>
</g>
<path d="M186.25 151h10"></path>
<g>
<path d="M196.25 151h0"></path>
<path d="M392.25 151h0"></path>
<path d="M196.25 151h20"></path>
<g class="non-terminal ">
<path d="M216.25 151h42.5"></path>
<path d="M329.75 151h42.5"></path>
<rect x="258.75" y="140" width="71" height="22"></rect>
<a xlink:href="#/abap/expression/Source"><text x="294.25" y="155">Source</text>
</a>
</g>
<path d="M372.25 151h20"></path>
<path d="M196.25 151a10 10 0 0 1 10 10v10a10 10 0 0 0 10 10"></path>
<g class="non-terminal ">
<path d="M216.25 181h8.5"></path>
<path d="M363.75 181h8.5"></path>
<rect x="224.75" y="170" width="139" height="22"></rect>
<a xlink:href="#/abap/expression/ParameterListS"><text x="294.25" y="185">ParameterListS</text>
</a>
</g>
<path d="M372.25 181a10 10 0 0 0 10 -10v-10a10 10 0 0 1 10 -10"></path>
<path d="M196.25 151a10 10 0 0 1 10 10v40a10 10 0 0 0 10 10"></path>
<g class="non-terminal ">
<path d="M216.25 211h0"></path>
<path d="M372.25 211h0"></path>
<rect x="216.25" y="200" width="156" height="22"></rect>
<a xlink:href="#/abap/expression/MethodParameters"><text x="294.25" y="215">MethodParameters</text>
</a>
</g>
<path d="M372.25 211a10 10 0 0 0 10 -10v-40a10 10 0 0 1 10 -10"></path>
</g>
<g>
<path d="M392.25 151h0"></path>
<path d="M579.75 151h0"></path>
<path d="M392.25 151h20"></path>
<g class="terminal ">
<path d="M412.25 151h4.25"></path>
<path d="M555.5 151h4.25"></path>
<rect x="416.5" y="140" width="139" height="22" rx="10" ry="10"></rect>
<text x="486" y="155">!"WParenRight"</text>
</g>
<path d="M559.75 151h20"></path>
<path d="M392.25 151a10 10 0 0 1 10 10v10a10 10 0 0 0 10 10"></path>
<g class="terminal ">
<path d="M412.25 181h0"></path>
<path d="M559.75 181h0"></path>
<rect x="412.25" y="170" width="147.5" height="22" rx="10" ry="10"></rect>
<text x="486" y="185">!"WParenRightW"</text>
</g>
<path d="M559.75 181a10 10 0 0 0 10 -10v-10a10 10 0 0 1 10 -10"></path>
</g>
</g>
<path d="M584 151a10 10 0 0 0 10 -10v-100a10 10 0 0 1 10 -10"></path>
<path d="M40 31a10 10 0 0 1 10 10v190a10 10 0 0 0 10 10"></path>
<g>
<path d="M60 241h27"></path>
<path d="M557 241h27"></path>
<g class="terminal ">
<path d="M87 241h0"></path>
<path d="M209 241h0"></path>
<rect x="87" y="230" width="122" height="22" rx="10" ry="10"></rect>
<text x="148" y="245">!"ParenLeft"</text>
</g>
<path d="M209 241h10"></path>
<path d="M219 241h10"></path>
<g class="non-terminal ">
<path d="M229 241h0"></path>
<path d="M368 241h0"></path>
<rect x="229" y="230" width="139" height="22"></rect>
<a xlink:href="#/abap/expression/ConstantString"><text x="298.5" y="245">ConstantString</text>
</a>
</g>
<path d="M368 241h10"></path>
<g>
<path d="M378 241h0"></path>
<path d="M557 241h0"></path>
<path d="M378 241h20"></path>
<g class="terminal ">
<path d="M398 241h4.25"></path>
<path d="M532.75 241h4.25"></path>
<rect x="402.25" y="230" width="130.5" height="22" rx="10" ry="10"></rect>
<text x="467.5" y="245">!"ParenRight"</text>
</g>
<path d="M537 241h20"></path>
<path d="M378 241a10 10 0 0 1 10 10v10a10 10 0 0 0 10 10"></path>
<g class="terminal ">
<path d="M398 271h0"></path>
<path d="M537 271h0"></path>
<rect x="398" y="260" width="139" height="22" rx="10" ry="10"></rect>
<text x="467.5" y="275">!"ParenRightW"</text>
</g>
<path d="M537 271a10 10 0 0 0 10 -10v-10a10 10 0 0 1 10 -10"></path>
</g>
</g>
<path d="M584 241a10 10 0 0 0 10 -10v-190a10 10 0 0 1 10 -10"></path>
</g>
<path d="M 604 31 h 20 m 0 -10 v 20"></path>
</g>
</svg>
