<svg xmlns="http://www.w3.org/2000/svg" xmlns:xlink="http://www.w3.org/1999/xlink" class="railroad-diagram" width="323.5" height="131" viewBox="0 0 323.5 131">
<defs>
<style type="text/css"><![CDATA[
path {
stroke-width: 3;
stroke: black;
fill: rgba(0,0,0,0);
}
text {
font: bold 14px monospace;
text-anchor: middle;
}
text.diagram-text {
font-size: 12px;
}
a {
fill: blue;
}
text.diagram-arrow {
font-size: 16px;
}
text.label {
text-anchor: start;
}
text.comment {
font: italic 12px monospace;
}
rect {
stroke-width: 3;
stroke: black;
fill: #BCBCBC;
}
path.diagram-text {
stroke-width: 3;
stroke: black;
fill: #BCBCBC;
cursor: help;
}
]]></style>
</defs>
<g transform="translate(.5 .5)">
<g>
<path d="M20 30v20m0 -10h20"></path>
</g>
<path d="M40 40h10"></path>
<g>
<path d="M50 40h0"></path>
<path d="M273.5 40h0"></path>
<g>
<path d="M50 40h0"></path>
<path d="M201 40h0"></path>
<path d="M50 40a10 10 0 0 0 10 -10v0a10 10 0 0 1 10 -10"></path>
<g>
<path d="M70 20h111"></path>
</g>
<path d="M181 20a10 10 0 0 1 10 10v0a10 10 0 0 0 10 10"></path>
<path d="M50 40h20"></path>
<g>
<path d="M70 40h0"></path>
<path d="M181 40h0"></path>
<path d="M70 40h20"></path>
<g class="terminal">
<path d="M90 40h0"></path>
<path d="M152.5 40h8.5"></path>
<rect x="90" y="29" width="62.5" height="22" rx="10" ry="10"></rect>
<text x="121.25" y="44">!" -"</text>
</g>
<path d="M161 40h20"></path>
<path d="M70 40a10 10 0 0 1 10 10v10a10 10 0 0 0 10 10"></path>
<g class="terminal">
<path d="M90 70h0"></path>
<path d="M161 70h0"></path>
<rect x="90" y="59" width="71" height="22" rx="10" ry="10"></rect>
<text x="125.5" y="74">!" - "</text>
</g>
<path d="M161 70a10 10 0 0 0 10 -10v-10a10 10 0 0 1 10 -10"></path>
<path d="M70 40a10 10 0 0 1 10 10v40a10 10 0 0 0 10 10"></path>
<g class="terminal">
<path d="M90 100h0"></path>
<path d="M152.5 100h8.5"></path>
<rect x="90" y="89" width="62.5" height="22" rx="10" ry="10"></rect>
<text x="121.25" y="104">!" +"</text>
</g>
<path d="M161 100a10 10 0 0 0 10 -10v-40a10 10 0 0 1 10 -10"></path>
</g>
<path d="M181 40h20"></path>
</g>
<path d="M201 40h10"></path>
<g class="terminal">
<path d="M211 40h0"></path>
<path d="M273.5 40h0"></path>
<rect x="211" y="29" width="62.5" height="22" rx="10" ry="10"></rect>
<text x="242.25" y="44">^\d+$</text>
</g>
</g>
<path d="M273.5 40h10"></path>
<path d="M 283.5 40 h 20 m 0 -10 v 20"></path>
</g>
</svg>
