<svg xmlns="http://www.w3.org/2000/svg" xmlns:xlink="http://www.w3.org/1999/xlink" class="railroad-diagram" width="651.5" height="80" viewBox="0 0 651.5 80">
<defs>
<style type="text/css"><![CDATA[
path {
stroke-width: 3;
stroke: black;
fill: rgba(0,0,0,0);
}
text {
font: bold 14px monospace;
text-anchor: middle;
}
text.diagram-text {
font-size: 12px;
}
a {
fill: blue;
}
text.diagram-arrow {
font-size: 16px;
}
text.label {
text-anchor: start;
}
text.comment {
font: italic 12px monospace;
}
rect {
stroke-width: 3;
stroke: black;
fill: #BCBCBC;
}
path.diagram-text {
stroke-width: 3;
stroke: black;
fill: #BCBCBC;
cursor: help;
}
]]></style>
</defs>
<g transform="translate(.5 .5)">
<g>
<path d="M20 30v20m0 -10h20"></path>
</g>
<path d="M40 40h10"></path>
<g>
<path d="M50 40h0"></path>
<path d="M601.5 40h0"></path>
<g>
<path d="M50 40h0"></path>
<path d="M178 40h0"></path>
<path d="M50 40a10 10 0 0 0 10 -10v0a10 10 0 0 1 10 -10"></path>
<g>
<path d="M70 20h88"></path>
</g>
<path d="M158 20a10 10 0 0 1 10 10v0a10 10 0 0 0 10 10"></path>
<path d="M50 40h20"></path>
<g class="terminal">
<path d="M70 40h0"></path>
<path d="M158 40h0"></path>
<rect x="70" y="29" width="88" height="22" rx="10" ry="10"></rect>
<text x="114" y="44">!"WDash"</text>
</g>
<path d="M158 40h20"></path>
</g>
<path d="M178 40h10"></path>
<g class="terminal">
<path d="M188 40h0"></path>
<path d="M310 40h0"></path>
<rect x="188" y="29" width="122" height="22" rx="10" ry="10"></rect>
<text x="249" y="44">^&#91;\w%\$\&#42;&#93;+$</text>
</g>
<path d="M310 40h10"></path>
<g>
<path d="M320 40h0"></path>
<path d="M601.5 40h0"></path>
<path d="M320 40a10 10 0 0 0 10 -10v0a10 10 0 0 1 10 -10"></path>
<g>
<path d="M340 20h241.5"></path>
</g>
<path d="M581.5 20a10 10 0 0 1 10 10v0a10 10 0 0 0 10 10"></path>
<path d="M320 40h20"></path>
<g>
<path d="M340 40h0"></path>
<path d="M581.5 40h0"></path>
<path d="M340 40h10"></path>
<g>
<path d="M350 40h0"></path>
<path d="M571.5 40h0"></path>
<g class="terminal">
<path d="M350 40h0"></path>
<path d="M429.5 40h0"></path>
<rect x="350" y="29" width="79.5" height="22" rx="10" ry="10"></rect>
<text x="389.75" y="44">!"Dash"</text>
</g>
<path d="M429.5 40h10"></path>
<path d="M439.5 40h10"></path>
<g class="terminal">
<path d="M449.5 40h0"></path>
<path d="M571.5 40h0"></path>
<rect x="449.5" y="29" width="122" height="22" rx="10" ry="10"></rect>
<text x="510.5" y="44">^&#91;\w%\$\&#42;&#93;+$</text>
</g>
</g>
<path d="M571.5 40h10"></path>
<path d="M350 40a10 10 0 0 0 -10 10v0a10 10 0 0 0 10 10"></path>
<g>
<path d="M350 60h221.5"></path>
</g>
<path d="M571.5 60a10 10 0 0 0 10 -10v0a10 10 0 0 0 -10 -10"></path>
</g>
<path d="M581.5 40h20"></path>
</g>
</g>
<path d="M601.5 40h10"></path>
<path d="M 611.5 40 h 20 m 0 -10 v 20"></path>
</g>
</svg>
