<svg xmlns="http://www.w3.org/2000/svg" xmlns:xlink="http://www.w3.org/1999/xlink" class="railroad-diagram" width="1809" height="109" viewBox="0 0 1809 109">
<defs>
<style type="text/css"><![CDATA[
path {
stroke-width: 3;
stroke: black;
fill: rgba(0,0,0,0);
}
text {
font: bold 14px monospace;
text-anchor: middle;
}
text.diagram-text {
font-size: 12px;
}
a {
fill: blue;
}
text.diagram-arrow {
font-size: 16px;
}
text.label {
text-anchor: start;
}
text.comment {
font: italic 12px monospace;
}
rect {
stroke-width: 3;
stroke: black;
fill: #BCBCBC;
}
path.diagram-text {
stroke-width: 3;
stroke: black;
fill: #BCBCBC;
cursor: help;
}
]]></style>
</defs>
<g transform="translate(.5 .5)">
<g>
<path d="M20 38v20m0 -10h20"></path>
</g>
<path d="M40 48h10"></path>
<g>
<path d="M50 48h0"></path>
<path d="M1759 48h0"></path>
<g>
<path d="M50 48h0"></path>
<path d="M388 48h0"></path>
<path d="M50 48a10 10 0 0 0 10 -10v0a10 10 0 0 1 10 -10"></path>
<g>
<path d="M70 28h298"></path>
</g>
<path d="M368 28a10 10 0 0 1 10 10v0a10 10 0 0 0 10 10"></path>
<path d="M50 48h20"></path>
<g>
<path d="M70 48h0"></path>
<path d="M368 48h0"></path>
<g class="terminal">
<path d="M70 48h0"></path>
<path d="M183.5 48h0"></path>
<rect x="70" y="37" width="113.5" height="22" rx="10" ry="10"></rect>
<text x="126.75" y="52">"EXPORTING"</text>
</g>
<path d="M183.5 48h10"></path>
<path d="M193.5 48h10"></path>
<g class="non-terminal">
<path d="M203.5 48h0"></path>
<path d="M368 48h0"></path>
<rect x="203.5" y="37" width="164.5" height="22"></rect>
<a xlink:href="#/abap/expression/FunctionExporting"><text x="285.75" y="52">FunctionExporting</text>
</a>
</g>
</g>
<path d="M368 48h20"></path>
</g>
<g>
<path d="M388 48h0"></path>
<path d="M700.5 48h0"></path>
<path d="M388 48a10 10 0 0 0 10 -10v0a10 10 0 0 1 10 -10"></path>
<g>
<path d="M408 28h272.5"></path>
</g>
<path d="M680.5 28a10 10 0 0 1 10 10v0a10 10 0 0 0 10 10"></path>
<path d="M388 48h20"></path>
<g>
<path d="M408 48h0"></path>
<path d="M680.5 48h0"></path>
<g class="terminal">
<path d="M408 48h0"></path>
<path d="M521.5 48h0"></path>
<rect x="408" y="37" width="113.5" height="22" rx="10" ry="10"></rect>
<text x="464.75" y="52">"IMPORTING"</text>
</g>
<path d="M521.5 48h10"></path>
<path d="M531.5 48h10"></path>
<g class="non-terminal">
<path d="M541.5 48h0"></path>
<path d="M680.5 48h0"></path>
<rect x="541.5" y="37" width="139" height="22"></rect>
<a xlink:href="#/abap/expression/ParameterListT"><text x="611" y="52">ParameterListT</text>
</a>
</g>
</g>
<path d="M680.5 48h20"></path>
</g>
<g>
<path d="M700.5 48h0"></path>
<path d="M987.5 48h0"></path>
<path d="M700.5 48a10 10 0 0 0 10 -10v0a10 10 0 0 1 10 -10"></path>
<g>
<path d="M720.5 28h247"></path>
</g>
<path d="M967.5 28a10 10 0 0 1 10 10v0a10 10 0 0 0 10 10"></path>
<path d="M700.5 48h20"></path>
<g>
<path d="M720.5 48h0"></path>
<path d="M967.5 48h0"></path>
<g class="terminal">
<path d="M720.5 48h0"></path>
<path d="M808.5 48h0"></path>
<rect x="720.5" y="37" width="88" height="22" rx="10" ry="10"></rect>
<text x="764.5" y="52">"TABLES"</text>
</g>
<path d="M808.5 48h10"></path>
<path d="M818.5 48h10"></path>
<g class="non-terminal">
<path d="M828.5 48h0"></path>
<path d="M967.5 48h0"></path>
<rect x="828.5" y="37" width="139" height="22"></rect>
<a xlink:href="#/abap/expression/ParameterListT"><text x="898" y="52">ParameterListT</text>
</a>
</g>
</g>
<path d="M967.5 48h20"></path>
</g>
<g>
<path d="M987.5 48h0"></path>
<path d="M1291.5 48h0"></path>
<path d="M987.5 48a10 10 0 0 0 10 -10v0a10 10 0 0 1 10 -10"></path>
<g>
<path d="M1007.5 28h264"></path>
</g>
<path d="M1271.5 28a10 10 0 0 1 10 10v0a10 10 0 0 0 10 10"></path>
<path d="M987.5 48h20"></path>
<g>
<path d="M1007.5 48h0"></path>
<path d="M1271.5 48h0"></path>
<g class="terminal">
<path d="M1007.5 48h0"></path>
<path d="M1112.5 48h0"></path>
<rect x="1007.5" y="37" width="105" height="22" rx="10" ry="10"></rect>
<text x="1060" y="52">"CHANGING"</text>
</g>
<path d="M1112.5 48h10"></path>
<path d="M1122.5 48h10"></path>
<g class="non-terminal">
<path d="M1132.5 48h0"></path>
<path d="M1271.5 48h0"></path>
<rect x="1132.5" y="37" width="139" height="22"></rect>
<a xlink:href="#/abap/expression/ParameterListT"><text x="1202" y="52">ParameterListT</text>
</a>
</g>
</g>
<path d="M1271.5 48h20"></path>
</g>
<g>
<path d="M1291.5 48h0"></path>
<path d="M1759 48h0"></path>
<path d="M1291.5 48a10 10 0 0 0 10 -10v-8a10 10 0 0 1 10 -10"></path>
<g>
<path d="M1311.5 20h427.5"></path>
</g>
<path d="M1739 20a10 10 0 0 1 10 10v8a10 10 0 0 0 10 10"></path>
<path d="M1291.5 48h20"></path>
<g>
<path d="M1311.5 48h0"></path>
<path d="M1739 48h0"></path>
<g class="terminal">
<path d="M1311.5 48h0"></path>
<path d="M1433.5 48h0"></path>
<rect x="1311.5" y="37" width="122" height="22" rx="10" ry="10"></rect>
<text x="1372.5" y="52">"EXCEPTIONS"</text>
</g>
<path d="M1433.5 48h10"></path>
<g>
<path d="M1443.5 48h0"></path>
<path d="M1739 48h0"></path>
<path d="M1443.5 48a10 10 0 0 0 10 -10v0a10 10 0 0 1 10 -10"></path>
<g>
<path d="M1463.5 28h255.5"></path>
</g>
<path d="M1719 28a10 10 0 0 1 10 10v0a10 10 0 0 0 10 10"></path>
<path d="M1443.5 48h20"></path>
<g>
<path d="M1463.5 48h0"></path>
<path d="M1719 48h0"></path>
<path d="M1463.5 48h20"></path>
<g class="non-terminal">
<path d="M1483.5 48h0"></path>
<path d="M1699 48h0"></path>
<rect x="1483.5" y="37" width="215.5" height="22"></rect>
<a xlink:href="#/abap/expression/ParameterListExceptions"><text x="1591.25" y="52">ParameterListExceptions</text>
</a>
</g>
<path d="M1699 48h20"></path>
<path d="M1463.5 48a10 10 0 0 1 10 10v10a10 10 0 0 0 10 10"></path>
<g class="non-terminal">
<path d="M1483.5 78h0"></path>
<path d="M1546 78h153"></path>
<rect x="1483.5" y="67" width="62.5" height="22"></rect>
<a xlink:href="#/abap/expression/Field"><text x="1514.75" y="82">Field</text>
</a>
</g>
<path d="M1699 78a10 10 0 0 0 10 -10v-10a10 10 0 0 1 10 -10"></path>
</g>
<path d="M1719 48h20"></path>
</g>
</g>
<path d="M1739 48h20"></path>
</g>
</g>
<path d="M1759 48h10"></path>
<path d="M 1769 48 h 20 m 0 -10 v 20"></path>
</g>
</svg>
