<svg xmlns="http://www.w3.org/2000/svg" xmlns:xlink="http://www.w3.org/1999/xlink" class="railroad-diagram" width="333" height="100" viewBox="0 0 333 100">
<defs>
<style type="text/css"><![CDATA[
path {
stroke-width: 3;
stroke: black;
fill: rgba(0,0,0,0);
}
text {
font: bold 14px monospace;
text-anchor: middle;
}
text.diagram-text {
font-size: 12px;
}
a {
fill: blue;
}
text.diagram-arrow {
font-size: 16px;
}
text.label {
text-anchor: start;
}
text.comment {
font: italic 12px monospace;
}
rect {
stroke-width: 3;
stroke: black;
fill: #BCBCBC;
}
path.diagram-text {
stroke-width: 3;
stroke: black;
fill: #BCBCBC;
cursor: help;
}
]]></style>
</defs>
<g transform="translate(.5 .5)">
<g>
<path d="M20 21v20m0 -10h20"></path>
</g>
<path d="M40 31h10"></path>
<g>
<path d="M50 31h0"></path>
<path d="M283 31h0"></path>
<path d="M50 31h10"></path>
<g>
<path d="M60 31h0"></path>
<path d="M273 31h0"></path>
<path d="M60 31h20"></path>
<g class="terminal ">
<path d="M80 31h0"></path>
<path d="M253 31h0"></path>
<rect x="80" y="20" width="173" height="22" rx="10" ry="10"></rect>
<text x="166.5" y="35">!"AssociationName"</text>
</g>
<path d="M253 31h20"></path>
<path d="M60 31a10 10 0 0 1 10 10v10a10 10 0 0 0 10 10"></path>
<g class="terminal ">
<path d="M80 61h38.25"></path>
<path d="M214.75 61h38.25"></path>
<rect x="118.25" y="50" width="96.5" height="22" rx="10" ry="10"></rect>
<text x="166.5" y="65">^\\&#91;\w&#93;+$</text>
</g>
<path d="M253 61a10 10 0 0 0 10 -10v-10a10 10 0 0 1 10 -10"></path>
</g>
<path d="M273 31h10"></path>
<path d="M60 31a10 10 0 0 0 -10 10v29a10 10 0 0 0 10 10"></path>
<g>
<path d="M60 80h213"></path>
</g>
<path d="M273 80a10 10 0 0 0 10 -10v-29a10 10 0 0 0 -10 -10"></path>
</g>
<path d="M283 31h10"></path>
<path d="M 293 31 h 20 m 0 -10 v 20"></path>
</g>
</svg>
