<svg xmlns="http://www.w3.org/2000/svg" xmlns:xlink="http://www.w3.org/1999/xlink" class="railroad-diagram" width="454" height="80" viewBox="0 0 454 80">
<defs>
<style type="text/css"><![CDATA[
path {
stroke-width: 3;
stroke: black;
fill: rgba(0,0,0,0);
}
text {
font: bold 14px monospace;
text-anchor: middle;
}
text.diagram-text {
font-size: 12px;
}
a {
fill: blue;
}
text.diagram-arrow {
font-size: 16px;
}
text.label {
text-anchor: start;
}
text.comment {
font: italic 12px monospace;
}
rect {
stroke-width: 3;
stroke: black;
fill: #BCBCBC;
}
path.diagram-text {
stroke-width: 3;
stroke: black;
fill: #BCBCBC;
cursor: help;
}
]]></style>
</defs>
<g transform="translate(.5 .5)">
<g>
<path d="M20 30v20m0 -10h20"></path>
</g>
<path d="M40 40h10"></path>
<g>
<path d="M50 40h0"></path>
<path d="M404 40h0"></path>
<g class="terminal">
<path d="M50 40h0"></path>
<path d="M172 40h0"></path>
<rect x="50" y="29" width="122" height="22" rx="10" ry="10"></rect>
<text x="111" y="44">^&#91;\w/$%&#38;=&#93;+$</text>
</g>
<path d="M172 40h10"></path>
<g>
<path d="M182 40h0"></path>
<path d="M404 40h0"></path>
<path d="M182 40a10 10 0 0 0 10 -10v0a10 10 0 0 1 10 -10"></path>
<g>
<path d="M202 20h182"></path>
</g>
<path d="M384 20a10 10 0 0 1 10 10v0a10 10 0 0 0 10 10"></path>
<path d="M182 40h20"></path>
<g>
<path d="M202 40h0"></path>
<path d="M384 40h0"></path>
<path d="M202 40h10"></path>
<g>
<path d="M212 40h0"></path>
<path d="M374 40h0"></path>
<g class="terminal">
<path d="M212 40h0"></path>
<path d="M291.5 40h0"></path>
<rect x="212" y="29" width="79.5" height="22" rx="10" ry="10"></rect>
<text x="251.75" y="44">!"Dash"</text>
</g>
<path d="M291.5 40h10"></path>
<path d="M301.5 40h10"></path>
<g class="terminal">
<path d="M311.5 40h0"></path>
<path d="M374 40h0"></path>
<rect x="311.5" y="29" width="62.5" height="22" rx="10" ry="10"></rect>
<text x="342.75" y="44">^\w+$</text>
</g>
</g>
<path d="M374 40h10"></path>
<path d="M212 40a10 10 0 0 0 -10 10v0a10 10 0 0 0 10 10"></path>
<g>
<path d="M212 60h162"></path>
</g>
<path d="M374 60a10 10 0 0 0 10 -10v0a10 10 0 0 0 -10 -10"></path>
</g>
<path d="M384 40h20"></path>
</g>
</g>
<path d="M404 40h10"></path>
<path d="M 414 40 h 20 m 0 -10 v 20"></path>
</g>
</svg>
