<svg xmlns="http://www.w3.org/2000/svg" xmlns:xlink="http://www.w3.org/1999/xlink" class="railroad-diagram" width="1550.5" height="458" viewBox="0 0 1550.5 458">
<defs>
<style type="text/css"><![CDATA[
path {
stroke-width: 3;
stroke: black;
fill: rgba(0,0,0,0);
}
text {
font: bold 14px monospace;
text-anchor: middle;
}
text.diagram-text {
font-size: 12px;
}
a {
fill: blue;
}
text.diagram-arrow {
font-size: 16px;
}
text.label {
text-anchor: start;
}
text.comment {
font: italic 12px monospace;
}
rect {
stroke-width: 3;
stroke: black;
fill: #BCBCBC;
}
path.diagram-text {
stroke-width: 3;
stroke: black;
fill: #BCBCBC;
cursor: help;
}
]]></style>
</defs>
<g transform="translate(.5 .5)">
<g>
<path d="M20 21v20m0 -10h20"></path>
</g>
<g>
<path d="M40 31h0"></path>
<path d="M1510.5 31h0"></path>
<path d="M40 31h20"></path>
<g>
<path d="M60 31h521.5"></path>
<path d="M969 31h521.5"></path>
<g class="terminal ">
<path d="M581.5 31h0"></path>
<path d="M669.5 31h0"></path>
<rect x="581.5" y="20" width="88" height="22" rx="10" ry="10"></rect>
<text x="625.5" y="35">"EXISTS"</text>
</g>
<path d="M669.5 31h10"></path>
<path d="M679.5 31h10"></path>
<g>
<path d="M689.5 31h0"></path>
<path d="M969 31h0"></path>
<g class="comment ">
<path d="M689.5 31h0"></path>
<path d="M818.5 31h0"></path>
<text x="754" y="36" class="comment">v750 or open-abap</text>
</g>
<path d="M818.5 31h10"></path>
<path d="M828.5 31h10"></path>
<g class="non-terminal ">
<path d="M838.5 31h0"></path>
<path d="M969 31h0"></path>
<rect x="838.5" y="20" width="130.5" height="22"></rect>
<a xlink:href="#/abap/expression/SQLSetOpGroup"><text x="903.75" y="35">SQLSetOpGroup</text>
</a>
</g>
</g>
</g>
<path d="M1490.5 31h20"></path>
<path d="M40 31a10 10 0 0 1 10 10v10a10 10 0 0 0 10 10"></path>
<g class="non-terminal ">
<path d="M60 61h675.5"></path>
<path d="M815 61h675.5"></path>
<rect x="735.5" y="50" width="79.5" height="22"></rect>
<a xlink:href="#/abap/expression/Dynamic"><text x="775.25" y="65">Dynamic</text>
</a>
</g>
<path d="M1490.5 61a10 10 0 0 0 10 -10v-10a10 10 0 0 1 10 -10"></path>
<path d="M40 31a10 10 0 0 1 10 10v49a10 10 0 0 0 10 10"></path>
<g>
<path d="M60 100h0"></path>
<path d="M1490.5 100h0"></path>
<g>
<path d="M60 100h0"></path>
<path d="M787 100h0"></path>
<path d="M60 100h20"></path>
<g class="non-terminal ">
<path d="M80 100h274"></path>
<path d="M493 100h274"></path>
<rect x="354" y="89" width="139" height="22"></rect>
<a xlink:href="#/abap/expression/SQLAggregation"><text x="423.5" y="104">SQLAggregation</text>
</a>
</g>
<path d="M767 100h20"></path>
<path d="M60 100a10 10 0 0 1 10 10v10a10 10 0 0 0 10 10"></path>
<g class="non-terminal ">
<path d="M80 130h286.75"></path>
<path d="M480.25 130h286.75"></path>
<rect x="366.75" y="119" width="113.5" height="22"></rect>
<a xlink:href="#/abap/expression/SQLFunction"><text x="423.5" y="134">SQLFunction</text>
</a>
</g>
<path d="M767 130a10 10 0 0 0 10 -10v-10a10 10 0 0 1 10 -10"></path>
<path d="M60 100a10 10 0 0 1 10 10v40a10 10 0 0 0 10 10"></path>
<g class="non-terminal ">
<path d="M80 160h274"></path>
<path d="M493 160h274"></path>
<rect x="354" y="149" width="139" height="22"></rect>
<a xlink:href="#/abap/expression/ConstantString"><text x="423.5" y="164">ConstantString</text>
</a>
</g>
<path d="M767 160a10 10 0 0 0 10 -10v-40a10 10 0 0 1 10 -10"></path>
<path d="M60 100a10 10 0 0 1 10 10v79a10 10 0 0 0 10 10"></path>
<g>
<path d="M80 199h49.25"></path>
<path d="M717.75 199h49.25"></path>
<g>
<path d="M129.25 199h0"></path>
<path d="M291.25 199h0"></path>
<path d="M129.25 199h20"></path>
<g class="non-terminal ">
<path d="M149.25 199h21.25"></path>
<path d="M250 199h21.25"></path>
<rect x="170.5" y="188" width="79.5" height="22"></rect>
<a xlink:href="#/abap/expression/SQLPath"><text x="210.25" y="203">SQLPath</text>
</a>
</g>
<path d="M271.25 199h20"></path>
<path d="M129.25 199a10 10 0 0 1 10 10v10a10 10 0 0 0 10 10"></path>
<g class="non-terminal ">
<path d="M149.25 229h0"></path>
<path d="M271.25 229h0"></path>
<rect x="149.25" y="218" width="122" height="22"></rect>
<a xlink:href="#/abap/expression/SQLFieldName"><text x="210.25" y="233">SQLFieldName</text>
</a>
</g>
<path d="M271.25 229a10 10 0 0 0 10 -10v-10a10 10 0 0 1 10 -10"></path>
</g>
<g>
<path d="M291.25 199h0"></path>
<path d="M717.75 199h0"></path>
<path d="M291.25 199a10 10 0 0 0 10 -10v0a10 10 0 0 1 10 -10"></path>
<g>
<path d="M311.25 179h386.5"></path>
</g>
<path d="M697.75 179a10 10 0 0 1 10 10v0a10 10 0 0 0 10 10"></path>
<path d="M291.25 199h20"></path>
<g>
<path d="M311.25 199h0"></path>
<path d="M697.75 199h0"></path>
<g class="comment ">
<path d="M311.25 199h0"></path>
<path d="M440.25 199h0"></path>
<text x="375.75" y="204" class="comment">v750 or open-abap</text>
</g>
<path d="M440.25 199h10"></path>
<path d="M450.25 199h10"></path>
<g>
<path d="M460.25 199h0"></path>
<path d="M697.75 199h0"></path>
<path d="M460.25 199h10"></path>
<g>
<path d="M470.25 199h0"></path>
<path d="M687.75 199h0"></path>
<g>
<path d="M470.25 199h0"></path>
<path d="M555.75 199h0"></path>
<path d="M470.25 199h20"></path>
<g class="terminal ">
<path d="M490.25 199h0"></path>
<path d="M535.75 199h0"></path>
<rect x="490.25" y="188" width="45.5" height="22" rx="10" ry="10"></rect>
<text x="513" y="203">"+"</text>
</g>
<path d="M535.75 199h20"></path>
<path d="M470.25 199a10 10 0 0 1 10 10v10a10 10 0 0 0 10 10"></path>
<g class="terminal ">
<path d="M490.25 229h0"></path>
<path d="M535.75 229h0"></path>
<rect x="490.25" y="218" width="45.5" height="22" rx="10" ry="10"></rect>
<text x="513" y="233">"-"</text>
</g>
<path d="M535.75 229a10 10 0 0 0 10 -10v-10a10 10 0 0 1 10 -10"></path>
<path d="M470.25 199a10 10 0 0 1 10 10v40a10 10 0 0 0 10 10"></path>
<g class="terminal ">
<path d="M490.25 259h0"></path>
<path d="M535.75 259h0"></path>
<rect x="490.25" y="248" width="45.5" height="22" rx="10" ry="10"></rect>
<text x="513" y="263">"&#42;"</text>
</g>
<path d="M535.75 259a10 10 0 0 0 10 -10v-40a10 10 0 0 1 10 -10"></path>
<path d="M470.25 199a10 10 0 0 1 10 10v70a10 10 0 0 0 10 10"></path>
<g class="terminal ">
<path d="M490.25 289h0"></path>
<path d="M535.75 289h0"></path>
<rect x="490.25" y="278" width="45.5" height="22" rx="10" ry="10"></rect>
<text x="513" y="293">"/"</text>
</g>
<path d="M535.75 289a10 10 0 0 0 10 -10v-70a10 10 0 0 1 10 -10"></path>
</g>
<path d="M555.75 199h10"></path>
<g class="non-terminal ">
<path d="M565.75 199h0"></path>
<path d="M687.75 199h0"></path>
<rect x="565.75" y="188" width="122" height="22"></rect>
<a xlink:href="#/abap/expression/SQLFieldName"><text x="626.75" y="203">SQLFieldName</text>
</a>
</g>
</g>
<path d="M687.75 199h10"></path>
<path d="M470.25 199a10 10 0 0 0 -10 10v89a10 10 0 0 0 10 10"></path>
<g>
<path d="M470.25 308h217.5"></path>
</g>
<path d="M687.75 308a10 10 0 0 0 10 -10v-89a10 10 0 0 0 -10 -10"></path>
</g>
</g>
<path d="M697.75 199h20"></path>
</g>
</g>
<path d="M767 199a10 10 0 0 0 10 -10v-79a10 10 0 0 1 10 -10"></path>
<path d="M60 100a10 10 0 0 1 10 10v207a10 10 0 0 0 10 10"></path>
<g>
<path d="M80 327h0"></path>
<path d="M767 327h0"></path>
<g class="comment ">
<path d="M80 327h0"></path>
<path d="M237 327h0"></path>
<text x="158.5" y="332" class="comment">v740sp05 or open-abap</text>
</g>
<path d="M237 327h10"></path>
<path d="M247 327h10"></path>
<g>
<path d="M257 327h0"></path>
<path d="M767 327h0"></path>
<g class="terminal ">
<path d="M257 327h0"></path>
<path d="M328 327h0"></path>
<rect x="257" y="316" width="71" height="22" rx="10" ry="10"></rect>
<text x="292.5" y="331">!"WAt"</text>
</g>
<path d="M328 327h10"></path>
<g>
<path d="M338 327h0"></path>
<path d="M767 327h0"></path>
<path d="M338 327h20"></path>
<g class="non-terminal ">
<path d="M358 327h129.25"></path>
<path d="M617.75 327h129.25"></path>
<rect x="487.25" y="316" width="130.5" height="22"></rect>
<a xlink:href="#/abap/expression/SimpleSource3"><text x="552.5" y="331">SimpleSource3</text>
</a>
</g>
<path d="M747 327h20"></path>
<path d="M338 327a10 10 0 0 1 10 10v10a10 10 0 0 0 10 10"></path>
<g>
<path d="M358 357h0"></path>
<path d="M747 357h0"></path>
<g class="terminal ">
<path d="M358 357h0"></path>
<path d="M488.5 357h0"></path>
<rect x="358" y="346" width="130.5" height="22" rx="10" ry="10"></rect>
<text x="423.25" y="361">!"ParenLeftW"</text>
</g>
<path d="M488.5 357h10"></path>
<path d="M498.5 357h10"></path>
<g class="non-terminal ">
<path d="M508.5 357h0"></path>
<path d="M579.5 357h0"></path>
<rect x="508.5" y="346" width="71" height="22"></rect>
<a xlink:href="#/abap/expression/Source"><text x="544" y="361">Source</text>
</a>
</g>
<path d="M579.5 357h10"></path>
<path d="M589.5 357h10"></path>
<g class="terminal ">
<path d="M599.5 357h0"></path>
<path d="M747 357h0"></path>
<rect x="599.5" y="346" width="147.5" height="22" rx="10" ry="10"></rect>
<text x="673.25" y="361">!"WParenRightW"</text>
</g>
</g>
<path d="M747 357a10 10 0 0 0 10 -10v-10a10 10 0 0 1 10 -10"></path>
</g>
</g>
</g>
<path d="M767 327a10 10 0 0 0 10 -10v-207a10 10 0 0 1 10 -10"></path>
</g>
<g>
<path d="M787 100h0"></path>
<path d="M1490.5 100h0"></path>
<path d="M787 100h20"></path>
<g>
<path d="M807 100h0"></path>
<path d="M1470.5 100h0"></path>
<g class="non-terminal ">
<path d="M807 100h0"></path>
<path d="M980 100h0"></path>
<rect x="807" y="89" width="173" height="22"></rect>
<a xlink:href="#/abap/expression/SQLCompareOperator"><text x="893.5" y="104">SQLCompareOperator</text>
</a>
</g>
<path d="M980 100h10"></path>
<g>
<path d="M990 100h0"></path>
<path d="M1470.5 100h0"></path>
<path d="M990 100h20"></path>
<g>
<path d="M1010 100h0"></path>
<path d="M1450.5 100h0"></path>
<g>
<path d="M1010 100h0"></path>
<path d="M1161 100h0"></path>
<path d="M1010 100a10 10 0 0 0 10 -10v0a10 10 0 0 1 10 -10"></path>
<g>
<path d="M1030 80h111"></path>
</g>
<path d="M1141 80a10 10 0 0 1 10 10v0a10 10 0 0 0 10 10"></path>
<path d="M1010 100h20"></path>
<g>
<path d="M1030 100h0"></path>
<path d="M1141 100h0"></path>
<path d="M1030 100h20"></path>
<g class="terminal ">
<path d="M1050 100h4.25"></path>
<path d="M1116.75 100h4.25"></path>
<rect x="1054.25" y="89" width="62.5" height="22" rx="10" ry="10"></rect>
<text x="1085.5" y="104">"ALL"</text>
</g>
<path d="M1121 100h20"></path>
<path d="M1030 100a10 10 0 0 1 10 10v10a10 10 0 0 0 10 10"></path>
<g class="terminal ">
<path d="M1050 130h4.25"></path>
<path d="M1116.75 130h4.25"></path>
<rect x="1054.25" y="119" width="62.5" height="22" rx="10" ry="10"></rect>
<text x="1085.5" y="134">"ANY"</text>
</g>
<path d="M1121 130a10 10 0 0 0 10 -10v-10a10 10 0 0 1 10 -10"></path>
<path d="M1030 100a10 10 0 0 1 10 10v40a10 10 0 0 0 10 10"></path>
<g class="terminal ">
<path d="M1050 160h0"></path>
<path d="M1121 160h0"></path>
<rect x="1050" y="149" width="71" height="22" rx="10" ry="10"></rect>
<text x="1085.5" y="164">"SOME"</text>
</g>
<path d="M1121 160a10 10 0 0 0 10 -10v-40a10 10 0 0 1 10 -10"></path>
</g>
<path d="M1141 100h20"></path>
</g>
<path d="M1161 100h10"></path>
<g>
<path d="M1171 100h0"></path>
<path d="M1450.5 100h0"></path>
<g class="comment ">
<path d="M1171 100h0"></path>
<path d="M1300 100h0"></path>
<text x="1235.5" y="105" class="comment">v750 or open-abap</text>
</g>
<path d="M1300 100h10"></path>
<path d="M1310 100h10"></path>
<g class="non-terminal ">
<path d="M1320 100h0"></path>
<path d="M1450.5 100h0"></path>
<rect x="1320" y="89" width="130.5" height="22"></rect>
<a xlink:href="#/abap/expression/SQLSetOpGroup"><text x="1385.25" y="104">SQLSetOpGroup</text>
</a>
</g>
</g>
</g>
<path d="M1450.5 100h20"></path>
<path d="M990 100a10 10 0 0 1 10 10v70a10 10 0 0 0 10 10"></path>
<g class="non-terminal ">
<path d="M1010 190h150.75"></path>
<path d="M1299.75 190h150.75"></path>
<rect x="1160.75" y="179" width="139" height="22"></rect>
<a xlink:href="#/abap/expression/SQLAggregation"><text x="1230.25" y="194">SQLAggregation</text>
</a>
</g>
<path d="M1450.5 190a10 10 0 0 0 10 -10v-70a10 10 0 0 1 10 -10"></path>
<path d="M990 100a10 10 0 0 1 10 10v100a10 10 0 0 0 10 10"></path>
<g class="non-terminal ">
<path d="M1010 220h163.5"></path>
<path d="M1287 220h163.5"></path>
<rect x="1173.5" y="209" width="113.5" height="22"></rect>
<a xlink:href="#/abap/expression/SQLFunction"><text x="1230.25" y="224">SQLFunction</text>
</a>
</g>
<path d="M1450.5 220a10 10 0 0 0 10 -10v-100a10 10 0 0 1 10 -10"></path>
<path d="M990 100a10 10 0 0 1 10 10v130a10 10 0 0 0 10 10"></path>
<g class="non-terminal ">
<path d="M1010 250h172"></path>
<path d="M1278.5 250h172"></path>
<rect x="1182" y="239" width="96.5" height="22"></rect>
<a xlink:href="#/abap/expression/SQLSource"><text x="1230.25" y="254">SQLSource</text>
</a>
</g>
<path d="M1450.5 250a10 10 0 0 0 10 -10v-130a10 10 0 0 1 10 -10"></path>
</g>
</g>
<path d="M1470.5 100h20"></path>
<path d="M787 100a10 10 0 0 1 10 10v169a10 10 0 0 0 10 10"></path>
<g>
<path d="M807 289h39.5"></path>
<path d="M1431 289h39.5"></path>
<g>
<path d="M846.5 289h0"></path>
<path d="M949 289h0"></path>
<path d="M846.5 289a10 10 0 0 0 10 -10v0a10 10 0 0 1 10 -10"></path>
<g>
<path d="M866.5 269h62.5"></path>
</g>
<path d="M929 269a10 10 0 0 1 10 10v0a10 10 0 0 0 10 10"></path>
<path d="M846.5 289h20"></path>
<g class="terminal ">
<path d="M866.5 289h0"></path>
<path d="M929 289h0"></path>
<rect x="866.5" y="278" width="62.5" height="22" rx="10" ry="10"></rect>
<text x="897.75" y="293">"NOT"</text>
</g>
<path d="M929 289h20"></path>
</g>
<g>
<path d="M949 289h0"></path>
<path d="M1431 289h0"></path>
<path d="M949 289h20"></path>
<g class="non-terminal ">
<path d="M969 289h189.75"></path>
<path d="M1221.25 289h189.75"></path>
<rect x="1158.75" y="278" width="62.5" height="22"></rect>
<a xlink:href="#/abap/expression/SQLIn"><text x="1190" y="293">SQLIn</text>
</a>
</g>
<path d="M1411 289h20"></path>
<path d="M949 289a10 10 0 0 1 10 10v19a10 10 0 0 0 10 10"></path>
<g>
<path d="M969 328h0"></path>
<path d="M1411 328h0"></path>
<g class="terminal ">
<path d="M969 328h0"></path>
<path d="M1040 328h0"></path>
<rect x="969" y="317" width="71" height="22" rx="10" ry="10"></rect>
<text x="1004.5" y="332">"LIKE"</text>
</g>
<path d="M1040 328h10"></path>
<path d="M1050 328h10"></path>
<g class="non-terminal ">
<path d="M1060 328h0"></path>
<path d="M1156.5 328h0"></path>
<rect x="1060" y="317" width="96.5" height="22"></rect>
<a xlink:href="#/abap/expression/SQLSource"><text x="1108.25" y="332">SQLSource</text>
</a>
</g>
<path d="M1156.5 328h10"></path>
<g>
<path d="M1166.5 328h0"></path>
<path d="M1411 328h0"></path>
<path d="M1166.5 328a10 10 0 0 0 10 -10v0a10 10 0 0 1 10 -10"></path>
<g>
<path d="M1186.5 308h204.5"></path>
</g>
<path d="M1391 308a10 10 0 0 1 10 10v0a10 10 0 0 0 10 10"></path>
<path d="M1166.5 328h20"></path>
<g>
<path d="M1186.5 328h0"></path>
<path d="M1391 328h0"></path>
<g class="terminal ">
<path d="M1186.5 328h0"></path>
<path d="M1274.5 328h0"></path>
<rect x="1186.5" y="317" width="88" height="22" rx="10" ry="10"></rect>
<text x="1230.5" y="332">"ESCAPE"</text>
</g>
<path d="M1274.5 328h10"></path>
<path d="M1284.5 328h10"></path>
<g class="non-terminal ">
<path d="M1294.5 328h0"></path>
<path d="M1391 328h0"></path>
<rect x="1294.5" y="317" width="96.5" height="22"></rect>
<a xlink:href="#/abap/expression/SQLSource"><text x="1342.75" y="332">SQLSource</text>
</a>
</g>
</g>
<path d="M1391 328h20"></path>
</g>
</g>
<path d="M1411 328a10 10 0 0 0 10 -10v-19a10 10 0 0 1 10 -10"></path>
<path d="M949 289a10 10 0 0 1 10 10v49a10 10 0 0 0 10 10"></path>
<g>
<path d="M969 358h15"></path>
<path d="M1396 358h15"></path>
<g class="terminal ">
<path d="M984 358h0"></path>
<path d="M1080.5 358h0"></path>
<rect x="984" y="347" width="96.5" height="22" rx="10" ry="10"></rect>
<text x="1032.25" y="362">"BETWEEN"</text>
</g>
<path d="M1080.5 358h10"></path>
<path d="M1090.5 358h10"></path>
<g class="non-terminal ">
<path d="M1100.5 358h0"></path>
<path d="M1197 358h0"></path>
<rect x="1100.5" y="347" width="96.5" height="22"></rect>
<a xlink:href="#/abap/expression/SQLSource"><text x="1148.75" y="362">SQLSource</text>
</a>
</g>
<path d="M1197 358h10"></path>
<path d="M1207 358h10"></path>
<g class="terminal ">
<path d="M1217 358h0"></path>
<path d="M1279.5 358h0"></path>
<rect x="1217" y="347" width="62.5" height="22" rx="10" ry="10"></rect>
<text x="1248.25" y="362">"AND"</text>
</g>
<path d="M1279.5 358h10"></path>
<path d="M1289.5 358h10"></path>
<g class="non-terminal ">
<path d="M1299.5 358h0"></path>
<path d="M1396 358h0"></path>
<rect x="1299.5" y="347" width="96.5" height="22"></rect>
<a xlink:href="#/abap/expression/SQLSource"><text x="1347.75" y="362">SQLSource</text>
</a>
</g>
</g>
<path d="M1411 358a10 10 0 0 0 10 -10v-49a10 10 0 0 1 10 -10"></path>
</g>
</g>
<path d="M1470.5 289a10 10 0 0 0 10 -10v-169a10 10 0 0 1 10 -10"></path>
<path d="M787 100a10 10 0 0 1 10 10v277a10 10 0 0 0 10 10"></path>
<g>
<path d="M807 397h151.25"></path>
<path d="M1319.25 397h151.25"></path>
<g class="terminal ">
<path d="M958.25 397h0"></path>
<path d="M1012.25 397h0"></path>
<rect x="958.25" y="386" width="54" height="22" rx="10" ry="10"></rect>
<text x="985.25" y="401">"IS"</text>
</g>
<path d="M1012.25 397h10"></path>
<g>
<path d="M1022.25 397h0"></path>
<path d="M1124.75 397h0"></path>
<path d="M1022.25 397a10 10 0 0 0 10 -10v0a10 10 0 0 1 10 -10"></path>
<g>
<path d="M1042.25 377h62.5"></path>
</g>
<path d="M1104.75 377a10 10 0 0 1 10 10v0a10 10 0 0 0 10 10"></path>
<path d="M1022.25 397h20"></path>
<g class="terminal ">
<path d="M1042.25 397h0"></path>
<path d="M1104.75 397h0"></path>
<rect x="1042.25" y="386" width="62.5" height="22" rx="10" ry="10"></rect>
<text x="1073.5" y="401">"NOT"</text>
</g>
<path d="M1104.75 397h20"></path>
</g>
<g>
<path d="M1124.75 397h0"></path>
<path d="M1319.25 397h0"></path>
<path d="M1124.75 397h20"></path>
<g class="terminal ">
<path d="M1144.75 397h41.75"></path>
<path d="M1257.5 397h41.75"></path>
<rect x="1186.5" y="386" width="71" height="22" rx="10" ry="10"></rect>
<text x="1222" y="401">"NULL"</text>
</g>
<path d="M1299.25 397h20"></path>
<path d="M1124.75 397a10 10 0 0 1 10 10v10a10 10 0 0 0 10 10"></path>
<g>
<path d="M1144.75 427h0"></path>
<path d="M1299.25 427h0"></path>
<g class="comment ">
<path d="M1144.75 427h0"></path>
<path d="M1182.75 427h0"></path>
<text x="1163.75" y="432" class="comment">v753</text>
</g>
<path d="M1182.75 427h10"></path>
<path d="M1192.75 427h10"></path>
<g class="terminal ">
<path d="M1202.75 427h0"></path>
<path d="M1299.25 427h0"></path>
<rect x="1202.75" y="416" width="96.5" height="22" rx="10" ry="10"></rect>
<text x="1251" y="431">"INITIAL"</text>
</g>
</g>
<path d="M1299.25 427a10 10 0 0 0 10 -10v-10a10 10 0 0 1 10 -10"></path>
</g>
</g>
<path d="M1470.5 397a10 10 0 0 0 10 -10v-277a10 10 0 0 1 10 -10"></path>
</g>
</g>
<path d="M1490.5 100a10 10 0 0 0 10 -10v-49a10 10 0 0 1 10 -10"></path>
</g>
<path d="M 1510.5 31 h 20 m 0 -10 v 20"></path>
</g>
</svg>
