<svg xmlns="http://www.w3.org/2000/svg" xmlns:xlink="http://www.w3.org/1999/xlink" class="railroad-diagram" width="1055.5" height="169" viewBox="0 0 1055.5 169">
<defs>
<style type="text/css"><![CDATA[
path {
stroke-width: 3;
stroke: black;
fill: rgba(0,0,0,0);
}
text {
font: bold 14px monospace;
text-anchor: middle;
}
text.diagram-text {
font-size: 12px;
}
a {
fill: blue;
}
text.diagram-arrow {
font-size: 16px;
}
text.label {
text-anchor: start;
}
text.comment {
font: italic 12px monospace;
}
rect {
stroke-width: 3;
stroke: black;
fill: #BCBCBC;
}
path.diagram-text {
stroke-width: 3;
stroke: black;
fill: #BCBCBC;
cursor: help;
}
]]></style>
</defs>
<g transform="translate(.5 .5)">
<g>
<path d="M20 21v20m0 -10h20"></path>
</g>
<path d="M40 31h10"></path>
<g>
<path d="M50 31h0"></path>
<path d="M1005.5 31h0"></path>
<g class="terminal ">
<path d="M50 31h0"></path>
<path d="M155 31h0"></path>
<rect x="50" y="20" width="105" height="22" rx="10" ry="10"></rect>
<text x="102.5" y="35">"ORDER BY"</text>
</g>
<path d="M155 31h10"></path>
<g>
<path d="M165 31h0"></path>
<path d="M1005.5 31h0"></path>
<path d="M165 31h20"></path>
<g class="terminal ">
<path d="M185 31h335"></path>
<path d="M650.5 31h335"></path>
<rect x="520" y="20" width="130.5" height="22" rx="10" ry="10"></rect>
<text x="585.25" y="35">"PRIMARY KEY"</text>
</g>
<path d="M985.5 31h20"></path>
<path d="M165 31a10 10 0 0 1 10 10v10a10 10 0 0 0 10 10"></path>
<g class="non-terminal ">
<path d="M185 61h360.5"></path>
<path d="M625 61h360.5"></path>
<rect x="545.5" y="50" width="79.5" height="22"></rect>
<a xlink:href="#/abap/expression/Dynamic"><text x="585.25" y="65">Dynamic</text>
</a>
</g>
<path d="M985.5 61a10 10 0 0 0 10 -10v-10a10 10 0 0 1 10 -10"></path>
<path d="M165 31a10 10 0 0 1 10 10v49a10 10 0 0 0 10 10"></path>
<g>
<path d="M185 100h0"></path>
<path d="M985.5 100h0"></path>
<path d="M185 100h10"></path>
<g>
<path d="M195 100h0"></path>
<path d="M975.5 100h0"></path>
<g>
<path d="M195 100h0"></path>
<path d="M381 100h0"></path>
<path d="M195 100h20"></path>
<g>
<path d="M215 100h0"></path>
<path d="M361 100h0"></path>
<g class="comment ">
<path d="M215 100h0"></path>
<path d="M253 100h0"></path>
<text x="234" y="105" class="comment">7.89</text>
</g>
<path d="M253 100h10"></path>
<path d="M263 100h10"></path>
<g class="non-terminal ">
<path d="M273 100h0"></path>
<path d="M361 100h0"></path>
<rect x="273" y="89" width="88" height="22"></rect>
<a xlink:href="#/abap/expression/SQLField"><text x="317" y="104">SQLField</text>
</a>
</g>
</g>
<path d="M361 100h20"></path>
<path d="M195 100a10 10 0 0 1 10 10v10a10 10 0 0 0 10 10"></path>
<g class="non-terminal ">
<path d="M215 130h12"></path>
<path d="M349 130h12"></path>
<rect x="227" y="119" width="122" height="22"></rect>
<a xlink:href="#/abap/expression/SQLFieldName"><text x="288" y="134">SQLFieldName</text>
</a>
</g>
<path d="M361 130a10 10 0 0 0 10 -10v-10a10 10 0 0 1 10 -10"></path>
</g>
<g>
<path d="M381 100h0"></path>
<path d="M583 100h0"></path>
<path d="M381 100a10 10 0 0 0 10 -10v0a10 10 0 0 1 10 -10"></path>
<g>
<path d="M401 80h162"></path>
</g>
<path d="M563 80a10 10 0 0 1 10 10v0a10 10 0 0 0 10 10"></path>
<path d="M381 100h20"></path>
<g>
<path d="M401 100h0"></path>
<path d="M563 100h0"></path>
<path d="M401 100h20"></path>
<g class="terminal ">
<path d="M421 100h4.25"></path>
<path d="M538.75 100h4.25"></path>
<rect x="425.25" y="89" width="113.5" height="22" rx="10" ry="10"></rect>
<text x="482" y="104">"ASCENDING"</text>
</g>
<path d="M543 100h20"></path>
<path d="M401 100a10 10 0 0 1 10 10v10a10 10 0 0 0 10 10"></path>
<g class="terminal ">
<path d="M421 130h0"></path>
<path d="M543 130h0"></path>
<rect x="421" y="119" width="122" height="22" rx="10" ry="10"></rect>
<text x="482" y="134">"DESCENDING"</text>
</g>
<path d="M543 130a10 10 0 0 0 10 -10v-10a10 10 0 0 1 10 -10"></path>
</g>
<path d="M563 100h20"></path>
</g>
<g>
<path d="M583 100h0"></path>
<path d="M890 100h0"></path>
<path d="M583 100a10 10 0 0 0 10 -10v0a10 10 0 0 1 10 -10"></path>
<g>
<path d="M603 80h267"></path>
</g>
<path d="M870 80a10 10 0 0 1 10 10v0a10 10 0 0 0 10 10"></path>
<path d="M583 100h20"></path>
<g>
<path d="M603 100h0"></path>
<path d="M870 100h0"></path>
<g class="comment ">
<path d="M603 100h0"></path>
<path d="M641 100h0"></path>
<text x="622" y="105" class="comment">7.78</text>
</g>
<path d="M641 100h10"></path>
<path d="M651 100h10"></path>
<g>
<path d="M661 100h0"></path>
<path d="M870 100h0"></path>
<g class="terminal ">
<path d="M661 100h0"></path>
<path d="M740.5 100h0"></path>
<rect x="661" y="89" width="79.5" height="22" rx="10" ry="10"></rect>
<text x="700.75" y="104">"NULLS"</text>
</g>
<path d="M740.5 100h10"></path>
<g>
<path d="M750.5 100h0"></path>
<path d="M870 100h0"></path>
<path d="M750.5 100h20"></path>
<g class="terminal ">
<path d="M770.5 100h0"></path>
<path d="M850 100h0"></path>
<rect x="770.5" y="89" width="79.5" height="22" rx="10" ry="10"></rect>
<text x="810.25" y="104">"FIRST"</text>
</g>
<path d="M850 100h20"></path>
<path d="M750.5 100a10 10 0 0 1 10 10v10a10 10 0 0 0 10 10"></path>
<g class="terminal ">
<path d="M770.5 130h4.25"></path>
<path d="M845.75 130h4.25"></path>
<rect x="774.75" y="119" width="71" height="22" rx="10" ry="10"></rect>
<text x="810.25" y="134">"LAST"</text>
</g>
<path d="M850 130a10 10 0 0 0 10 -10v-10a10 10 0 0 1 10 -10"></path>
</g>
</g>
</g>
<path d="M870 100h20"></path>
</g>
<g>
<path d="M890 100h0"></path>
<path d="M975.5 100h0"></path>
<path d="M890 100a10 10 0 0 0 10 -10v0a10 10 0 0 1 10 -10"></path>
<g>
<path d="M910 80h45.5"></path>
</g>
<path d="M955.5 80a10 10 0 0 1 10 10v0a10 10 0 0 0 10 10"></path>
<path d="M890 100h20"></path>
<g class="terminal ">
<path d="M910 100h0"></path>
<path d="M955.5 100h0"></path>
<rect x="910" y="89" width="45.5" height="22" rx="10" ry="10"></rect>
<text x="932.75" y="104">","</text>
</g>
<path d="M955.5 100h20"></path>
</g>
</g>
<path d="M975.5 100h10"></path>
<path d="M195 100a10 10 0 0 0 -10 10v29a10 10 0 0 0 10 10"></path>
<g>
<path d="M195 149h780.5"></path>
</g>
<path d="M975.5 149a10 10 0 0 0 10 -10v-29a10 10 0 0 0 -10 -10"></path>
</g>
<path d="M985.5 100a10 10 0 0 0 10 -10v-49a10 10 0 0 1 10 -10"></path>
</g>
</g>
<path d="M1005.5 31h10"></path>
<path d="M 1015.5 31 h 20 m 0 -10 v 20"></path>
</g>
</svg>
