<svg xmlns="http://www.w3.org/2000/svg" xmlns:xlink="http://www.w3.org/1999/xlink" class="railroad-diagram" width="456.5" height="242" viewBox="0 0 456.5 242">
<defs>
<style type="text/css"><![CDATA[
path {
stroke-width: 3;
stroke: black;
fill: rgba(0,0,0,0);
}
text {
font: bold 14px monospace;
text-anchor: middle;
}
text.diagram-text {
font-size: 12px;
}
a {
fill: blue;
}
text.diagram-arrow {
font-size: 16px;
}
text.label {
text-anchor: start;
}
text.comment {
font: italic 12px monospace;
}
rect {
stroke-width: 3;
stroke: black;
fill: #BCBCBC;
}
path.diagram-text {
stroke-width: 3;
stroke: black;
fill: #BCBCBC;
cursor: help;
}
]]></style>
</defs>
<g transform="translate(.5 .5)">
<g>
<path d="M20 21v20m0 -10h20"></path>
</g>
<g>
<path d="M40 31h0"></path>
<path d="M416.5 31h0"></path>
<path d="M40 31h20"></path>
<g>
<path d="M60 31h0"></path>
<path d="M396.5 31h0"></path>
<g class="terminal ">
<path d="M60 31h0"></path>
<path d="M207.5 31h0"></path>
<rect x="60" y="20" width="147.5" height="22" rx="10" ry="10"></rect>
<text x="133.75" y="35">"FOR ALL OTHER"</text>
</g>
<path d="M207.5 31h10"></path>
<g>
<path d="M217.5 31h0"></path>
<path d="M396.5 31h0"></path>
<path d="M217.5 31h20"></path>
<g class="terminal ">
<path d="M237.5 31h0"></path>
<path d="M376.5 31h0"></path>
<rect x="237.5" y="20" width="139" height="22" rx="10" ry="10"></rect>
<text x="307" y="35">"BLOB COLUMNS"</text>
</g>
<path d="M376.5 31h20"></path>
<path d="M217.5 31a10 10 0 0 1 10 10v10a10 10 0 0 0 10 10"></path>
<g class="terminal ">
<path d="M237.5 61h0"></path>
<path d="M376.5 61h0"></path>
<rect x="237.5" y="50" width="139" height="22" rx="10" ry="10"></rect>
<text x="307" y="65">"CLOB COLUMNS"</text>
</g>
<path d="M376.5 61a10 10 0 0 0 10 -10v-10a10 10 0 0 1 10 -10"></path>
<path d="M217.5 31a10 10 0 0 1 10 10v40a10 10 0 0 0 10 10"></path>
<g class="terminal ">
<path d="M237.5 91h21.25"></path>
<path d="M355.25 91h21.25"></path>
<rect x="258.75" y="80" width="96.5" height="22" rx="10" ry="10"></rect>
<text x="307" y="95">"COLUMNS"</text>
</g>
<path d="M376.5 91a10 10 0 0 0 10 -10v-40a10 10 0 0 1 10 -10"></path>
</g>
</g>
<path d="M396.5 31h20"></path>
<path d="M40 31a10 10 0 0 1 10 10v70a10 10 0 0 0 10 10"></path>
<g>
<path d="M60 121h25.5"></path>
<path d="M371 121h25.5"></path>
<g class="terminal ">
<path d="M85.5 121h0"></path>
<path d="M182 121h0"></path>
<rect x="85.5" y="110" width="96.5" height="22" rx="10" ry="10"></rect>
<text x="133.75" y="125">"FOR ALL"</text>
</g>
<path d="M182 121h10"></path>
<g>
<path d="M192 121h0"></path>
<path d="M371 121h0"></path>
<path d="M192 121h20"></path>
<g class="terminal ">
<path d="M212 121h0"></path>
<path d="M351 121h0"></path>
<rect x="212" y="110" width="139" height="22" rx="10" ry="10"></rect>
<text x="281.5" y="125">"BLOB COLUMNS"</text>
</g>
<path d="M351 121h20"></path>
<path d="M192 121a10 10 0 0 1 10 10v10a10 10 0 0 0 10 10"></path>
<g class="terminal ">
<path d="M212 151h0"></path>
<path d="M351 151h0"></path>
<rect x="212" y="140" width="139" height="22" rx="10" ry="10"></rect>
<text x="281.5" y="155">"CLOB COLUMNS"</text>
</g>
<path d="M351 151a10 10 0 0 0 10 -10v-10a10 10 0 0 1 10 -10"></path>
<path d="M192 121a10 10 0 0 1 10 10v40a10 10 0 0 0 10 10"></path>
<g class="terminal ">
<path d="M212 181h21.25"></path>
<path d="M329.75 181h21.25"></path>
<rect x="233.25" y="170" width="96.5" height="22" rx="10" ry="10"></rect>
<text x="281.5" y="185">"COLUMNS"</text>
</g>
<path d="M351 181a10 10 0 0 0 10 -10v-40a10 10 0 0 1 10 -10"></path>
</g>
</g>
<path d="M396.5 121a10 10 0 0 0 10 -10v-70a10 10 0 0 1 10 -10"></path>
<path d="M40 31a10 10 0 0 1 10 10v160a10 10 0 0 0 10 10"></path>
<g>
<path d="M60 211h40.5"></path>
<path d="M356 211h40.5"></path>
<g class="terminal ">
<path d="M100.5 211h0"></path>
<path d="M163 211h0"></path>
<rect x="100.5" y="200" width="62.5" height="22" rx="10" ry="10"></rect>
<text x="131.75" y="215">"FOR"</text>
</g>
<path d="M163 211h10"></path>
<path d="M173 211h10"></path>
<g class="non-terminal ">
<path d="M183 211h0"></path>
<path d="M356 211h0"></path>
<rect x="183" y="200" width="173" height="22"></rect>
<a xlink:href="#/abap/expression/SQLCreatingColumns"><text x="269.5" y="215">SQLCreatingColumns</text>
</a>
</g>
</g>
<path d="M396.5 211a10 10 0 0 0 10 -10v-160a10 10 0 0 1 10 -10"></path>
</g>
<path d="M 416.5 31 h 20 m 0 -10 v 20"></path>
</g>
</svg>
