<svg xmlns="http://www.w3.org/2000/svg" xmlns:xlink="http://www.w3.org/1999/xlink" class="railroad-diagram" width="1902.5" height="1146" viewBox="0 0 1902.5 1146">
<defs>
<style type="text/css"><![CDATA[
path {
stroke-width: 3;
stroke: black;
fill: rgba(0,0,0,0);
}
text {
font: bold 14px monospace;
text-anchor: middle;
}
text.diagram-text {
font-size: 12px;
}
a {
fill: blue;
}
text.diagram-arrow {
font-size: 16px;
}
text.label {
text-anchor: start;
}
text.comment {
font: italic 12px monospace;
}
rect {
stroke-width: 3;
stroke: black;
fill: #BCBCBC;
}
path.diagram-text {
stroke-width: 3;
stroke: black;
fill: #BCBCBC;
cursor: help;
}
]]></style>
</defs>
<g transform="translate(.5 .5)">
<g>
<path d="M20 30v20m0 -10h20"></path>
</g>
<path d="M40 40h10"></path>
<g>
<path d="M50 40h0"></path>
<path d="M1852.5 40h0"></path>
<g>
<path d="M50 40h0"></path>
<path d="M1642 40h0"></path>
<path d="M50 40h20"></path>
<g>
<path d="M70 40h0"></path>
<path d="M1622 40h0"></path>
<g class="terminal">
<path d="M70 40h0"></path>
<path d="M141 40h0"></path>
<rect x="70" y="29" width="71" height="22" rx="10" ry="10"></rect>
<text x="105.5" y="44">!" ( "</text>
</g>
<path d="M141 40h10"></path>
<path d="M151 40h10"></path>
<g>
<path d="M161 40h0"></path>
<path d="M1531 40h0"></path>
<g>
<path d="M161 40h0"></path>
<path d="M625 40h0"></path>
<path d="M161 40h20"></path>
<g class="non-terminal">
<path d="M181 40h0"></path>
<path d="M320 40h285"></path>
<rect x="181" y="29" width="139" height="22"></rect>
<a xlink:href="#/abap/expression/SQLAggregation"><text x="250.5" y="44">SQLAggregation</text>
</a>
</g>
<path d="M605 40h20"></path>
<path d="M161 40a10 10 0 0 1 10 10v10a10 10 0 0 0 10 10"></path>
<g class="non-terminal">
<path d="M181 70h0"></path>
<path d="M260.5 70h344.5"></path>
<rect x="181" y="59" width="79.5" height="22"></rect>
<a xlink:href="#/abap/expression/SQLCase"><text x="220.75" y="74">SQLCase</text>
</a>
</g>
<path d="M605 70a10 10 0 0 0 10 -10v-10a10 10 0 0 1 10 -10"></path>
<path d="M161 40a10 10 0 0 1 10 10v40a10 10 0 0 0 10 10"></path>
<g class="non-terminal">
<path d="M181 100h0"></path>
<path d="M294.5 100h310.5"></path>
<rect x="181" y="89" width="113.5" height="22"></rect>
<a xlink:href="#/abap/expression/SQLFunction"><text x="237.75" y="104">SQLFunction</text>
</a>
</g>
<path d="M605 100a10 10 0 0 0 10 -10v-40a10 10 0 0 1 10 -10"></path>
<path d="M161 40a10 10 0 0 1 10 10v70a10 10 0 0 0 10 10"></path>
<g class="non-terminal">
<path d="M181 130h0"></path>
<path d="M260.5 130h344.5"></path>
<rect x="181" y="119" width="79.5" height="22"></rect>
<a xlink:href="#/abap/expression/SQLPath"><text x="220.75" y="134">SQLPath</text>
</a>
</g>
<path d="M605 130a10 10 0 0 0 10 -10v-70a10 10 0 0 1 10 -10"></path>
<path d="M161 40a10 10 0 0 1 10 10v100a10 10 0 0 0 10 10"></path>
<g class="non-terminal">
<path d="M181 160h0"></path>
<path d="M303 160h302"></path>
<rect x="181" y="149" width="122" height="22"></rect>
<a xlink:href="#/abap/expression/SQLFieldName"><text x="242" y="164">SQLFieldName</text>
</a>
</g>
<path d="M605 160a10 10 0 0 0 10 -10v-100a10 10 0 0 1 10 -10"></path>
<path d="M161 40a10 10 0 0 1 10 10v130a10 10 0 0 0 10 10"></path>
<g>
<path d="M181 190h0"></path>
<path d="M605 190h0"></path>
<g>
<path d="M181 190h0"></path>
<path d="M338 190h0"></path>
<text x="259.5" y="195" class="comment">v740sp05 or open-abap</text>
</g>
<path d="M338 190h10"></path>
<path d="M348 190h10"></path>
<g>
<path d="M358 190h0"></path>
<path d="M605 190h0"></path>
<g class="terminal">
<path d="M358 190h0"></path>
<path d="M420.5 190h0"></path>
<rect x="358" y="179" width="62.5" height="22" rx="10" ry="10"></rect>
<text x="389.25" y="194">!" @"</text>
</g>
<path d="M420.5 190h10"></path>
<path d="M430.5 190h10"></path>
<g class="non-terminal">
<path d="M440.5 190h0"></path>
<path d="M605 190h0"></path>
<rect x="440.5" y="179" width="164.5" height="22"></rect>
<a xlink:href="#/abap/expression/SimpleFieldChain2"><text x="522.75" y="194">SimpleFieldChain2</text>
</a>
</g>
</g>
</g>
<path d="M605 190a10 10 0 0 0 10 -10v-130a10 10 0 0 1 10 -10"></path>
<path d="M161 40a10 10 0 0 1 10 10v160a10 10 0 0 0 10 10"></path>
<g class="non-terminal">
<path d="M181 220h0"></path>
<path d="M269 220h336"></path>
<rect x="181" y="209" width="88" height="22"></rect>
<a xlink:href="#/abap/expression/Constant"><text x="225" y="224">Constant</text>
</a>
</g>
<path d="M605 220a10 10 0 0 0 10 -10v-160a10 10 0 0 1 10 -10"></path>
<path d="M161 40a10 10 0 0 1 10 10v190a10 10 0 0 0 10 10"></path>
<g>
<path d="M181 250h0"></path>
<path d="M515 250h90"></path>
<g class="terminal">
<path d="M181 250h0"></path>
<path d="M252 250h0"></path>
<rect x="181" y="239" width="71" height="22" rx="10" ry="10"></rect>
<text x="216.5" y="254">!" ( "</text>
</g>
<path d="M252 250h10"></path>
<path d="M262 250h10"></path>
<g class="non-terminal">
<path d="M272 250h0"></path>
<path d="M394 250h0"></path>
<rect x="272" y="239" width="122" height="22"></rect>
<a xlink:href="#/abap/expression/SQLFieldName"><text x="333" y="254">SQLFieldName</text>
</a>
</g>
<path d="M394 250h10"></path>
<g>
<path d="M404 250h0"></path>
<path d="M515 250h0"></path>
<path d="M404 250h20"></path>
<g class="terminal">
<path d="M424 250h0"></path>
<path d="M495 250h0"></path>
<rect x="424" y="239" width="71" height="22" rx="10" ry="10"></rect>
<text x="459.5" y="254">!" ) "</text>
</g>
<path d="M495 250h20"></path>
<path d="M404 250a10 10 0 0 1 10 10v10a10 10 0 0 0 10 10"></path>
<g class="terminal">
<path d="M424 280h0"></path>
<path d="M486.5 280h8.5"></path>
<rect x="424" y="269" width="62.5" height="22" rx="10" ry="10"></rect>
<text x="455.25" y="284">!" )"</text>
</g>
<path d="M495 280a10 10 0 0 0 10 -10v-10a10 10 0 0 1 10 -10"></path>
</g>
</g>
<path d="M605 250a10 10 0 0 0 10 -10v-190a10 10 0 0 1 10 -10"></path>
</g>
<g>
<path d="M625 40h0"></path>
<path d="M1531 40h0"></path>
<path d="M625 40a10 10 0 0 0 10 -10v0a10 10 0 0 1 10 -10"></path>
<g>
<path d="M645 20h866"></path>
</g>
<path d="M1511 20a10 10 0 0 1 10 10v0a10 10 0 0 0 10 10"></path>
<path d="M625 40h20"></path>
<g>
<path d="M645 40h0"></path>
<path d="M1511 40h0"></path>
<g>
<path d="M645 40h0"></path>
<path d="M711 40h0"></path>
<text x="678" y="45" class="comment">v740sp05</text>
</g>
<path d="M711 40h10"></path>
<path d="M721 40h10"></path>
<g>
<path d="M731 40h0"></path>
<path d="M1511 40h0"></path>
<path d="M731 40h10"></path>
<g>
<path d="M741 40h0"></path>
<path d="M1501 40h0"></path>
<g>
<path d="M741 40h0"></path>
<path d="M835 40h0"></path>
<path d="M741 40h20"></path>
<g class="terminal">
<path d="M761 40h0"></path>
<path d="M806.5 40h8.5"></path>
<rect x="761" y="29" width="45.5" height="22" rx="10" ry="10"></rect>
<text x="783.75" y="44">"+"</text>
</g>
<path d="M815 40h20"></path>
<path d="M741 40a10 10 0 0 1 10 10v10a10 10 0 0 0 10 10"></path>
<g class="terminal">
<path d="M761 70h0"></path>
<path d="M806.5 70h8.5"></path>
<rect x="761" y="59" width="45.5" height="22" rx="10" ry="10"></rect>
<text x="783.75" y="74">"-"</text>
</g>
<path d="M815 70a10 10 0 0 0 10 -10v-10a10 10 0 0 1 10 -10"></path>
<path d="M741 40a10 10 0 0 1 10 10v40a10 10 0 0 0 10 10"></path>
<g class="terminal">
<path d="M761 100h0"></path>
<path d="M806.5 100h8.5"></path>
<rect x="761" y="89" width="45.5" height="22" rx="10" ry="10"></rect>
<text x="783.75" y="104">"&#42;"</text>
</g>
<path d="M815 100a10 10 0 0 0 10 -10v-40a10 10 0 0 1 10 -10"></path>
<path d="M741 40a10 10 0 0 1 10 10v70a10 10 0 0 0 10 10"></path>
<g class="terminal">
<path d="M761 130h0"></path>
<path d="M806.5 130h8.5"></path>
<rect x="761" y="119" width="45.5" height="22" rx="10" ry="10"></rect>
<text x="783.75" y="134">"/"</text>
</g>
<path d="M815 130a10 10 0 0 0 10 -10v-70a10 10 0 0 1 10 -10"></path>
<path d="M741 40a10 10 0 0 1 10 10v100a10 10 0 0 0 10 10"></path>
<g class="terminal">
<path d="M761 160h0"></path>
<path d="M815 160h0"></path>
<rect x="761" y="149" width="54" height="22" rx="10" ry="10"></rect>
<text x="788" y="164">"&#38;&#38;"</text>
</g>
<path d="M815 160a10 10 0 0 0 10 -10v-100a10 10 0 0 1 10 -10"></path>
</g>
<g>
<path d="M835 40h0"></path>
<path d="M1501 40h0"></path>
<path d="M835 40h20"></path>
<g>
<path d="M855 40h0"></path>
<path d="M1481 40h0"></path>
<g class="terminal">
<path d="M855 40h0"></path>
<path d="M926 40h0"></path>
<rect x="855" y="29" width="71" height="22" rx="10" ry="10"></rect>
<text x="890.5" y="44">!" ( "</text>
</g>
<path d="M926 40h10"></path>
<g>
<path d="M936 40h0"></path>
<path d="M1400 40h0"></path>
<path d="M936 40h20"></path>
<g class="non-terminal">
<path d="M956 40h0"></path>
<path d="M1095 40h285"></path>
<rect x="956" y="29" width="139" height="22"></rect>
<a xlink:href="#/abap/expression/SQLAggregation"><text x="1025.5" y="44">SQLAggregation</text>
</a>
</g>
<path d="M1380 40h20"></path>
<path d="M936 40a10 10 0 0 1 10 10v10a10 10 0 0 0 10 10"></path>
<g class="non-terminal">
<path d="M956 70h0"></path>
<path d="M1035.5 70h344.5"></path>
<rect x="956" y="59" width="79.5" height="22"></rect>
<a xlink:href="#/abap/expression/SQLCase"><text x="995.75" y="74">SQLCase</text>
</a>
</g>
<path d="M1380 70a10 10 0 0 0 10 -10v-10a10 10 0 0 1 10 -10"></path>
<path d="M936 40a10 10 0 0 1 10 10v40a10 10 0 0 0 10 10"></path>
<g class="non-terminal">
<path d="M956 100h0"></path>
<path d="M1069.5 100h310.5"></path>
<rect x="956" y="89" width="113.5" height="22"></rect>
<a xlink:href="#/abap/expression/SQLFunction"><text x="1012.75" y="104">SQLFunction</text>
</a>
</g>
<path d="M1380 100a10 10 0 0 0 10 -10v-40a10 10 0 0 1 10 -10"></path>
<path d="M936 40a10 10 0 0 1 10 10v70a10 10 0 0 0 10 10"></path>
<g class="non-terminal">
<path d="M956 130h0"></path>
<path d="M1035.5 130h344.5"></path>
<rect x="956" y="119" width="79.5" height="22"></rect>
<a xlink:href="#/abap/expression/SQLPath"><text x="995.75" y="134">SQLPath</text>
</a>
</g>
<path d="M1380 130a10 10 0 0 0 10 -10v-70a10 10 0 0 1 10 -10"></path>
<path d="M936 40a10 10 0 0 1 10 10v100a10 10 0 0 0 10 10"></path>
<g class="non-terminal">
<path d="M956 160h0"></path>
<path d="M1078 160h302"></path>
<rect x="956" y="149" width="122" height="22"></rect>
<a xlink:href="#/abap/expression/SQLFieldName"><text x="1017" y="164">SQLFieldName</text>
</a>
</g>
<path d="M1380 160a10 10 0 0 0 10 -10v-100a10 10 0 0 1 10 -10"></path>
<path d="M936 40a10 10 0 0 1 10 10v130a10 10 0 0 0 10 10"></path>
<g>
<path d="M956 190h0"></path>
<path d="M1380 190h0"></path>
<g>
<path d="M956 190h0"></path>
<path d="M1113 190h0"></path>
<text x="1034.5" y="195" class="comment">v740sp05 or open-abap</text>
</g>
<path d="M1113 190h10"></path>
<path d="M1123 190h10"></path>
<g>
<path d="M1133 190h0"></path>
<path d="M1380 190h0"></path>
<g class="terminal">
<path d="M1133 190h0"></path>
<path d="M1195.5 190h0"></path>
<rect x="1133" y="179" width="62.5" height="22" rx="10" ry="10"></rect>
<text x="1164.25" y="194">!" @"</text>
</g>
<path d="M1195.5 190h10"></path>
<path d="M1205.5 190h10"></path>
<g class="non-terminal">
<path d="M1215.5 190h0"></path>
<path d="M1380 190h0"></path>
<rect x="1215.5" y="179" width="164.5" height="22"></rect>
<a xlink:href="#/abap/expression/SimpleFieldChain2"><text x="1297.75" y="194">SimpleFieldChain2</text>
</a>
</g>
</g>
</g>
<path d="M1380 190a10 10 0 0 0 10 -10v-130a10 10 0 0 1 10 -10"></path>
<path d="M936 40a10 10 0 0 1 10 10v160a10 10 0 0 0 10 10"></path>
<g class="non-terminal">
<path d="M956 220h0"></path>
<path d="M1044 220h336"></path>
<rect x="956" y="209" width="88" height="22"></rect>
<a xlink:href="#/abap/expression/Constant"><text x="1000" y="224">Constant</text>
</a>
</g>
<path d="M1380 220a10 10 0 0 0 10 -10v-160a10 10 0 0 1 10 -10"></path>
<path d="M936 40a10 10 0 0 1 10 10v190a10 10 0 0 0 10 10"></path>
<g>
<path d="M956 250h0"></path>
<path d="M1290 250h90"></path>
<g class="terminal">
<path d="M956 250h0"></path>
<path d="M1027 250h0"></path>
<rect x="956" y="239" width="71" height="22" rx="10" ry="10"></rect>
<text x="991.5" y="254">!" ( "</text>
</g>
<path d="M1027 250h10"></path>
<path d="M1037 250h10"></path>
<g class="non-terminal">
<path d="M1047 250h0"></path>
<path d="M1169 250h0"></path>
<rect x="1047" y="239" width="122" height="22"></rect>
<a xlink:href="#/abap/expression/SQLFieldName"><text x="1108" y="254">SQLFieldName</text>
</a>
</g>
<path d="M1169 250h10"></path>
<g>
<path d="M1179 250h0"></path>
<path d="M1290 250h0"></path>
<path d="M1179 250h20"></path>
<g class="terminal">
<path d="M1199 250h0"></path>
<path d="M1270 250h0"></path>
<rect x="1199" y="239" width="71" height="22" rx="10" ry="10"></rect>
<text x="1234.5" y="254">!" ) "</text>
</g>
<path d="M1270 250h20"></path>
<path d="M1179 250a10 10 0 0 1 10 10v10a10 10 0 0 0 10 10"></path>
<g class="terminal">
<path d="M1199 280h0"></path>
<path d="M1261.5 280h8.5"></path>
<rect x="1199" y="269" width="62.5" height="22" rx="10" ry="10"></rect>
<text x="1230.25" y="284">!" )"</text>
</g>
<path d="M1270 280a10 10 0 0 0 10 -10v-10a10 10 0 0 1 10 -10"></path>
</g>
</g>
<path d="M1380 250a10 10 0 0 0 10 -10v-190a10 10 0 0 1 10 -10"></path>
</g>
<path d="M1400 40h10"></path>
<g class="terminal">
<path d="M1410 40h0"></path>
<path d="M1481 40h0"></path>
<rect x="1410" y="29" width="71" height="22" rx="10" ry="10"></rect>
<text x="1445.5" y="44">!" ) "</text>
</g>
</g>
<path d="M1481 40h20"></path>
<path d="M835 40a10 10 0 0 1 10 10v250a10 10 0 0 0 10 10"></path>
<g>
<path d="M855 310h0"></path>
<path d="M1319 310h162"></path>
<path d="M855 310h20"></path>
<g class="non-terminal">
<path d="M875 310h0"></path>
<path d="M1014 310h285"></path>
<rect x="875" y="299" width="139" height="22"></rect>
<a xlink:href="#/abap/expression/SQLAggregation"><text x="944.5" y="314">SQLAggregation</text>
</a>
</g>
<path d="M1299 310h20"></path>
<path d="M855 310a10 10 0 0 1 10 10v10a10 10 0 0 0 10 10"></path>
<g class="non-terminal">
<path d="M875 340h0"></path>
<path d="M954.5 340h344.5"></path>
<rect x="875" y="329" width="79.5" height="22"></rect>
<a xlink:href="#/abap/expression/SQLCase"><text x="914.75" y="344">SQLCase</text>
</a>
</g>
<path d="M1299 340a10 10 0 0 0 10 -10v-10a10 10 0 0 1 10 -10"></path>
<path d="M855 310a10 10 0 0 1 10 10v40a10 10 0 0 0 10 10"></path>
<g class="non-terminal">
<path d="M875 370h0"></path>
<path d="M988.5 370h310.5"></path>
<rect x="875" y="359" width="113.5" height="22"></rect>
<a xlink:href="#/abap/expression/SQLFunction"><text x="931.75" y="374">SQLFunction</text>
</a>
</g>
<path d="M1299 370a10 10 0 0 0 10 -10v-40a10 10 0 0 1 10 -10"></path>
<path d="M855 310a10 10 0 0 1 10 10v70a10 10 0 0 0 10 10"></path>
<g class="non-terminal">
<path d="M875 400h0"></path>
<path d="M954.5 400h344.5"></path>
<rect x="875" y="389" width="79.5" height="22"></rect>
<a xlink:href="#/abap/expression/SQLPath"><text x="914.75" y="404">SQLPath</text>
</a>
</g>
<path d="M1299 400a10 10 0 0 0 10 -10v-70a10 10 0 0 1 10 -10"></path>
<path d="M855 310a10 10 0 0 1 10 10v100a10 10 0 0 0 10 10"></path>
<g class="non-terminal">
<path d="M875 430h0"></path>
<path d="M997 430h302"></path>
<rect x="875" y="419" width="122" height="22"></rect>
<a xlink:href="#/abap/expression/SQLFieldName"><text x="936" y="434">SQLFieldName</text>
</a>
</g>
<path d="M1299 430a10 10 0 0 0 10 -10v-100a10 10 0 0 1 10 -10"></path>
<path d="M855 310a10 10 0 0 1 10 10v130a10 10 0 0 0 10 10"></path>
<g>
<path d="M875 460h0"></path>
<path d="M1299 460h0"></path>
<g>
<path d="M875 460h0"></path>
<path d="M1032 460h0"></path>
<text x="953.5" y="465" class="comment">v740sp05 or open-abap</text>
</g>
<path d="M1032 460h10"></path>
<path d="M1042 460h10"></path>
<g>
<path d="M1052 460h0"></path>
<path d="M1299 460h0"></path>
<g class="terminal">
<path d="M1052 460h0"></path>
<path d="M1114.5 460h0"></path>
<rect x="1052" y="449" width="62.5" height="22" rx="10" ry="10"></rect>
<text x="1083.25" y="464">!" @"</text>
</g>
<path d="M1114.5 460h10"></path>
<path d="M1124.5 460h10"></path>
<g class="non-terminal">
<path d="M1134.5 460h0"></path>
<path d="M1299 460h0"></path>
<rect x="1134.5" y="449" width="164.5" height="22"></rect>
<a xlink:href="#/abap/expression/SimpleFieldChain2"><text x="1216.75" y="464">SimpleFieldChain2</text>
</a>
</g>
</g>
</g>
<path d="M1299 460a10 10 0 0 0 10 -10v-130a10 10 0 0 1 10 -10"></path>
<path d="M855 310a10 10 0 0 1 10 10v160a10 10 0 0 0 10 10"></path>
<g class="non-terminal">
<path d="M875 490h0"></path>
<path d="M963 490h336"></path>
<rect x="875" y="479" width="88" height="22"></rect>
<a xlink:href="#/abap/expression/Constant"><text x="919" y="494">Constant</text>
</a>
</g>
<path d="M1299 490a10 10 0 0 0 10 -10v-160a10 10 0 0 1 10 -10"></path>
<path d="M855 310a10 10 0 0 1 10 10v190a10 10 0 0 0 10 10"></path>
<g>
<path d="M875 520h0"></path>
<path d="M1209 520h90"></path>
<g class="terminal">
<path d="M875 520h0"></path>
<path d="M946 520h0"></path>
<rect x="875" y="509" width="71" height="22" rx="10" ry="10"></rect>
<text x="910.5" y="524">!" ( "</text>
</g>
<path d="M946 520h10"></path>
<path d="M956 520h10"></path>
<g class="non-terminal">
<path d="M966 520h0"></path>
<path d="M1088 520h0"></path>
<rect x="966" y="509" width="122" height="22"></rect>
<a xlink:href="#/abap/expression/SQLFieldName"><text x="1027" y="524">SQLFieldName</text>
</a>
</g>
<path d="M1088 520h10"></path>
<g>
<path d="M1098 520h0"></path>
<path d="M1209 520h0"></path>
<path d="M1098 520h20"></path>
<g class="terminal">
<path d="M1118 520h0"></path>
<path d="M1189 520h0"></path>
<rect x="1118" y="509" width="71" height="22" rx="10" ry="10"></rect>
<text x="1153.5" y="524">!" ) "</text>
</g>
<path d="M1189 520h20"></path>
<path d="M1098 520a10 10 0 0 1 10 10v10a10 10 0 0 0 10 10"></path>
<g class="terminal">
<path d="M1118 550h0"></path>
<path d="M1180.5 550h8.5"></path>
<rect x="1118" y="539" width="62.5" height="22" rx="10" ry="10"></rect>
<text x="1149.25" y="554">!" )"</text>
</g>
<path d="M1189 550a10 10 0 0 0 10 -10v-10a10 10 0 0 1 10 -10"></path>
</g>
</g>
<path d="M1299 520a10 10 0 0 0 10 -10v-190a10 10 0 0 1 10 -10"></path>
</g>
<path d="M1481 310a10 10 0 0 0 10 -10v-250a10 10 0 0 1 10 -10"></path>
</g>
</g>
<path d="M1501 40h10"></path>
<path d="M741 40a10 10 0 0 0 -10 10v509a10 10 0 0 0 10 10"></path>
<g>
<path d="M741 569h760"></path>
</g>
<path d="M1501 569a10 10 0 0 0 10 -10v-509a10 10 0 0 0 -10 -10"></path>
</g>
</g>
<path d="M1511 40h20"></path>
</g>
</g>
<path d="M1531 40h10"></path>
<path d="M1541 40h10"></path>
<g class="terminal">
<path d="M1551 40h0"></path>
<path d="M1622 40h0"></path>
<rect x="1551" y="29" width="71" height="22" rx="10" ry="10"></rect>
<text x="1586.5" y="44">!" ) "</text>
</g>
</g>
<path d="M1622 40h20"></path>
<path d="M50 40a10 10 0 0 1 10 10v537a10 10 0 0 0 10 10"></path>
<g>
<path d="M70 597h0"></path>
<path d="M1440 597h182"></path>
<g>
<path d="M70 597h0"></path>
<path d="M534 597h0"></path>
<path d="M70 597h20"></path>
<g class="non-terminal">
<path d="M90 597h0"></path>
<path d="M229 597h285"></path>
<rect x="90" y="586" width="139" height="22"></rect>
<a xlink:href="#/abap/expression/SQLAggregation"><text x="159.5" y="601">SQLAggregation</text>
</a>
</g>
<path d="M514 597h20"></path>
<path d="M70 597a10 10 0 0 1 10 10v10a10 10 0 0 0 10 10"></path>
<g class="non-terminal">
<path d="M90 627h0"></path>
<path d="M169.5 627h344.5"></path>
<rect x="90" y="616" width="79.5" height="22"></rect>
<a xlink:href="#/abap/expression/SQLCase"><text x="129.75" y="631">SQLCase</text>
</a>
</g>
<path d="M514 627a10 10 0 0 0 10 -10v-10a10 10 0 0 1 10 -10"></path>
<path d="M70 597a10 10 0 0 1 10 10v40a10 10 0 0 0 10 10"></path>
<g class="non-terminal">
<path d="M90 657h0"></path>
<path d="M203.5 657h310.5"></path>
<rect x="90" y="646" width="113.5" height="22"></rect>
<a xlink:href="#/abap/expression/SQLFunction"><text x="146.75" y="661">SQLFunction</text>
</a>
</g>
<path d="M514 657a10 10 0 0 0 10 -10v-40a10 10 0 0 1 10 -10"></path>
<path d="M70 597a10 10 0 0 1 10 10v70a10 10 0 0 0 10 10"></path>
<g class="non-terminal">
<path d="M90 687h0"></path>
<path d="M169.5 687h344.5"></path>
<rect x="90" y="676" width="79.5" height="22"></rect>
<a xlink:href="#/abap/expression/SQLPath"><text x="129.75" y="691">SQLPath</text>
</a>
</g>
<path d="M514 687a10 10 0 0 0 10 -10v-70a10 10 0 0 1 10 -10"></path>
<path d="M70 597a10 10 0 0 1 10 10v100a10 10 0 0 0 10 10"></path>
<g class="non-terminal">
<path d="M90 717h0"></path>
<path d="M212 717h302"></path>
<rect x="90" y="706" width="122" height="22"></rect>
<a xlink:href="#/abap/expression/SQLFieldName"><text x="151" y="721">SQLFieldName</text>
</a>
</g>
<path d="M514 717a10 10 0 0 0 10 -10v-100a10 10 0 0 1 10 -10"></path>
<path d="M70 597a10 10 0 0 1 10 10v130a10 10 0 0 0 10 10"></path>
<g>
<path d="M90 747h0"></path>
<path d="M514 747h0"></path>
<g>
<path d="M90 747h0"></path>
<path d="M247 747h0"></path>
<text x="168.5" y="752" class="comment">v740sp05 or open-abap</text>
</g>
<path d="M247 747h10"></path>
<path d="M257 747h10"></path>
<g>
<path d="M267 747h0"></path>
<path d="M514 747h0"></path>
<g class="terminal">
<path d="M267 747h0"></path>
<path d="M329.5 747h0"></path>
<rect x="267" y="736" width="62.5" height="22" rx="10" ry="10"></rect>
<text x="298.25" y="751">!" @"</text>
</g>
<path d="M329.5 747h10"></path>
<path d="M339.5 747h10"></path>
<g class="non-terminal">
<path d="M349.5 747h0"></path>
<path d="M514 747h0"></path>
<rect x="349.5" y="736" width="164.5" height="22"></rect>
<a xlink:href="#/abap/expression/SimpleFieldChain2"><text x="431.75" y="751">SimpleFieldChain2</text>
</a>
</g>
</g>
</g>
<path d="M514 747a10 10 0 0 0 10 -10v-130a10 10 0 0 1 10 -10"></path>
<path d="M70 597a10 10 0 0 1 10 10v160a10 10 0 0 0 10 10"></path>
<g class="non-terminal">
<path d="M90 777h0"></path>
<path d="M178 777h336"></path>
<rect x="90" y="766" width="88" height="22"></rect>
<a xlink:href="#/abap/expression/Constant"><text x="134" y="781">Constant</text>
</a>
</g>
<path d="M514 777a10 10 0 0 0 10 -10v-160a10 10 0 0 1 10 -10"></path>
<path d="M70 597a10 10 0 0 1 10 10v190a10 10 0 0 0 10 10"></path>
<g>
<path d="M90 807h0"></path>
<path d="M424 807h90"></path>
<g class="terminal">
<path d="M90 807h0"></path>
<path d="M161 807h0"></path>
<rect x="90" y="796" width="71" height="22" rx="10" ry="10"></rect>
<text x="125.5" y="811">!" ( "</text>
</g>
<path d="M161 807h10"></path>
<path d="M171 807h10"></path>
<g class="non-terminal">
<path d="M181 807h0"></path>
<path d="M303 807h0"></path>
<rect x="181" y="796" width="122" height="22"></rect>
<a xlink:href="#/abap/expression/SQLFieldName"><text x="242" y="811">SQLFieldName</text>
</a>
</g>
<path d="M303 807h10"></path>
<g>
<path d="M313 807h0"></path>
<path d="M424 807h0"></path>
<path d="M313 807h20"></path>
<g class="terminal">
<path d="M333 807h0"></path>
<path d="M404 807h0"></path>
<rect x="333" y="796" width="71" height="22" rx="10" ry="10"></rect>
<text x="368.5" y="811">!" ) "</text>
</g>
<path d="M404 807h20"></path>
<path d="M313 807a10 10 0 0 1 10 10v10a10 10 0 0 0 10 10"></path>
<g class="terminal">
<path d="M333 837h0"></path>
<path d="M395.5 837h8.5"></path>
<rect x="333" y="826" width="62.5" height="22" rx="10" ry="10"></rect>
<text x="364.25" y="841">!" )"</text>
</g>
<path d="M404 837a10 10 0 0 0 10 -10v-10a10 10 0 0 1 10 -10"></path>
</g>
</g>
<path d="M514 807a10 10 0 0 0 10 -10v-190a10 10 0 0 1 10 -10"></path>
</g>
<g>
<path d="M534 597h0"></path>
<path d="M1440 597h0"></path>
<path d="M534 597a10 10 0 0 0 10 -10v0a10 10 0 0 1 10 -10"></path>
<g>
<path d="M554 577h866"></path>
</g>
<path d="M1420 577a10 10 0 0 1 10 10v0a10 10 0 0 0 10 10"></path>
<path d="M534 597h20"></path>
<g>
<path d="M554 597h0"></path>
<path d="M1420 597h0"></path>
<g>
<path d="M554 597h0"></path>
<path d="M620 597h0"></path>
<text x="587" y="602" class="comment">v740sp05</text>
</g>
<path d="M620 597h10"></path>
<path d="M630 597h10"></path>
<g>
<path d="M640 597h0"></path>
<path d="M1420 597h0"></path>
<path d="M640 597h10"></path>
<g>
<path d="M650 597h0"></path>
<path d="M1410 597h0"></path>
<g>
<path d="M650 597h0"></path>
<path d="M744 597h0"></path>
<path d="M650 597h20"></path>
<g class="terminal">
<path d="M670 597h0"></path>
<path d="M715.5 597h8.5"></path>
<rect x="670" y="586" width="45.5" height="22" rx="10" ry="10"></rect>
<text x="692.75" y="601">"+"</text>
</g>
<path d="M724 597h20"></path>
<path d="M650 597a10 10 0 0 1 10 10v10a10 10 0 0 0 10 10"></path>
<g class="terminal">
<path d="M670 627h0"></path>
<path d="M715.5 627h8.5"></path>
<rect x="670" y="616" width="45.5" height="22" rx="10" ry="10"></rect>
<text x="692.75" y="631">"-"</text>
</g>
<path d="M724 627a10 10 0 0 0 10 -10v-10a10 10 0 0 1 10 -10"></path>
<path d="M650 597a10 10 0 0 1 10 10v40a10 10 0 0 0 10 10"></path>
<g class="terminal">
<path d="M670 657h0"></path>
<path d="M715.5 657h8.5"></path>
<rect x="670" y="646" width="45.5" height="22" rx="10" ry="10"></rect>
<text x="692.75" y="661">"&#42;"</text>
</g>
<path d="M724 657a10 10 0 0 0 10 -10v-40a10 10 0 0 1 10 -10"></path>
<path d="M650 597a10 10 0 0 1 10 10v70a10 10 0 0 0 10 10"></path>
<g class="terminal">
<path d="M670 687h0"></path>
<path d="M715.5 687h8.5"></path>
<rect x="670" y="676" width="45.5" height="22" rx="10" ry="10"></rect>
<text x="692.75" y="691">"/"</text>
</g>
<path d="M724 687a10 10 0 0 0 10 -10v-70a10 10 0 0 1 10 -10"></path>
<path d="M650 597a10 10 0 0 1 10 10v100a10 10 0 0 0 10 10"></path>
<g class="terminal">
<path d="M670 717h0"></path>
<path d="M724 717h0"></path>
<rect x="670" y="706" width="54" height="22" rx="10" ry="10"></rect>
<text x="697" y="721">"&#38;&#38;"</text>
</g>
<path d="M724 717a10 10 0 0 0 10 -10v-100a10 10 0 0 1 10 -10"></path>
</g>
<g>
<path d="M744 597h0"></path>
<path d="M1410 597h0"></path>
<path d="M744 597h20"></path>
<g>
<path d="M764 597h0"></path>
<path d="M1390 597h0"></path>
<g class="terminal">
<path d="M764 597h0"></path>
<path d="M835 597h0"></path>
<rect x="764" y="586" width="71" height="22" rx="10" ry="10"></rect>
<text x="799.5" y="601">!" ( "</text>
</g>
<path d="M835 597h10"></path>
<g>
<path d="M845 597h0"></path>
<path d="M1309 597h0"></path>
<path d="M845 597h20"></path>
<g class="non-terminal">
<path d="M865 597h0"></path>
<path d="M1004 597h285"></path>
<rect x="865" y="586" width="139" height="22"></rect>
<a xlink:href="#/abap/expression/SQLAggregation"><text x="934.5" y="601">SQLAggregation</text>
</a>
</g>
<path d="M1289 597h20"></path>
<path d="M845 597a10 10 0 0 1 10 10v10a10 10 0 0 0 10 10"></path>
<g class="non-terminal">
<path d="M865 627h0"></path>
<path d="M944.5 627h344.5"></path>
<rect x="865" y="616" width="79.5" height="22"></rect>
<a xlink:href="#/abap/expression/SQLCase"><text x="904.75" y="631">SQLCase</text>
</a>
</g>
<path d="M1289 627a10 10 0 0 0 10 -10v-10a10 10 0 0 1 10 -10"></path>
<path d="M845 597a10 10 0 0 1 10 10v40a10 10 0 0 0 10 10"></path>
<g class="non-terminal">
<path d="M865 657h0"></path>
<path d="M978.5 657h310.5"></path>
<rect x="865" y="646" width="113.5" height="22"></rect>
<a xlink:href="#/abap/expression/SQLFunction"><text x="921.75" y="661">SQLFunction</text>
</a>
</g>
<path d="M1289 657a10 10 0 0 0 10 -10v-40a10 10 0 0 1 10 -10"></path>
<path d="M845 597a10 10 0 0 1 10 10v70a10 10 0 0 0 10 10"></path>
<g class="non-terminal">
<path d="M865 687h0"></path>
<path d="M944.5 687h344.5"></path>
<rect x="865" y="676" width="79.5" height="22"></rect>
<a xlink:href="#/abap/expression/SQLPath"><text x="904.75" y="691">SQLPath</text>
</a>
</g>
<path d="M1289 687a10 10 0 0 0 10 -10v-70a10 10 0 0 1 10 -10"></path>
<path d="M845 597a10 10 0 0 1 10 10v100a10 10 0 0 0 10 10"></path>
<g class="non-terminal">
<path d="M865 717h0"></path>
<path d="M987 717h302"></path>
<rect x="865" y="706" width="122" height="22"></rect>
<a xlink:href="#/abap/expression/SQLFieldName"><text x="926" y="721">SQLFieldName</text>
</a>
</g>
<path d="M1289 717a10 10 0 0 0 10 -10v-100a10 10 0 0 1 10 -10"></path>
<path d="M845 597a10 10 0 0 1 10 10v130a10 10 0 0 0 10 10"></path>
<g>
<path d="M865 747h0"></path>
<path d="M1289 747h0"></path>
<g>
<path d="M865 747h0"></path>
<path d="M1022 747h0"></path>
<text x="943.5" y="752" class="comment">v740sp05 or open-abap</text>
</g>
<path d="M1022 747h10"></path>
<path d="M1032 747h10"></path>
<g>
<path d="M1042 747h0"></path>
<path d="M1289 747h0"></path>
<g class="terminal">
<path d="M1042 747h0"></path>
<path d="M1104.5 747h0"></path>
<rect x="1042" y="736" width="62.5" height="22" rx="10" ry="10"></rect>
<text x="1073.25" y="751">!" @"</text>
</g>
<path d="M1104.5 747h10"></path>
<path d="M1114.5 747h10"></path>
<g class="non-terminal">
<path d="M1124.5 747h0"></path>
<path d="M1289 747h0"></path>
<rect x="1124.5" y="736" width="164.5" height="22"></rect>
<a xlink:href="#/abap/expression/SimpleFieldChain2"><text x="1206.75" y="751">SimpleFieldChain2</text>
</a>
</g>
</g>
</g>
<path d="M1289 747a10 10 0 0 0 10 -10v-130a10 10 0 0 1 10 -10"></path>
<path d="M845 597a10 10 0 0 1 10 10v160a10 10 0 0 0 10 10"></path>
<g class="non-terminal">
<path d="M865 777h0"></path>
<path d="M953 777h336"></path>
<rect x="865" y="766" width="88" height="22"></rect>
<a xlink:href="#/abap/expression/Constant"><text x="909" y="781">Constant</text>
</a>
</g>
<path d="M1289 777a10 10 0 0 0 10 -10v-160a10 10 0 0 1 10 -10"></path>
<path d="M845 597a10 10 0 0 1 10 10v190a10 10 0 0 0 10 10"></path>
<g>
<path d="M865 807h0"></path>
<path d="M1199 807h90"></path>
<g class="terminal">
<path d="M865 807h0"></path>
<path d="M936 807h0"></path>
<rect x="865" y="796" width="71" height="22" rx="10" ry="10"></rect>
<text x="900.5" y="811">!" ( "</text>
</g>
<path d="M936 807h10"></path>
<path d="M946 807h10"></path>
<g class="non-terminal">
<path d="M956 807h0"></path>
<path d="M1078 807h0"></path>
<rect x="956" y="796" width="122" height="22"></rect>
<a xlink:href="#/abap/expression/SQLFieldName"><text x="1017" y="811">SQLFieldName</text>
</a>
</g>
<path d="M1078 807h10"></path>
<g>
<path d="M1088 807h0"></path>
<path d="M1199 807h0"></path>
<path d="M1088 807h20"></path>
<g class="terminal">
<path d="M1108 807h0"></path>
<path d="M1179 807h0"></path>
<rect x="1108" y="796" width="71" height="22" rx="10" ry="10"></rect>
<text x="1143.5" y="811">!" ) "</text>
</g>
<path d="M1179 807h20"></path>
<path d="M1088 807a10 10 0 0 1 10 10v10a10 10 0 0 0 10 10"></path>
<g class="terminal">
<path d="M1108 837h0"></path>
<path d="M1170.5 837h8.5"></path>
<rect x="1108" y="826" width="62.5" height="22" rx="10" ry="10"></rect>
<text x="1139.25" y="841">!" )"</text>
</g>
<path d="M1179 837a10 10 0 0 0 10 -10v-10a10 10 0 0 1 10 -10"></path>
</g>
</g>
<path d="M1289 807a10 10 0 0 0 10 -10v-190a10 10 0 0 1 10 -10"></path>
</g>
<path d="M1309 597h10"></path>
<g class="terminal">
<path d="M1319 597h0"></path>
<path d="M1390 597h0"></path>
<rect x="1319" y="586" width="71" height="22" rx="10" ry="10"></rect>
<text x="1354.5" y="601">!" ) "</text>
</g>
</g>
<path d="M1390 597h20"></path>
<path d="M744 597a10 10 0 0 1 10 10v250a10 10 0 0 0 10 10"></path>
<g>
<path d="M764 867h0"></path>
<path d="M1228 867h162"></path>
<path d="M764 867h20"></path>
<g class="non-terminal">
<path d="M784 867h0"></path>
<path d="M923 867h285"></path>
<rect x="784" y="856" width="139" height="22"></rect>
<a xlink:href="#/abap/expression/SQLAggregation"><text x="853.5" y="871">SQLAggregation</text>
</a>
</g>
<path d="M1208 867h20"></path>
<path d="M764 867a10 10 0 0 1 10 10v10a10 10 0 0 0 10 10"></path>
<g class="non-terminal">
<path d="M784 897h0"></path>
<path d="M863.5 897h344.5"></path>
<rect x="784" y="886" width="79.5" height="22"></rect>
<a xlink:href="#/abap/expression/SQLCase"><text x="823.75" y="901">SQLCase</text>
</a>
</g>
<path d="M1208 897a10 10 0 0 0 10 -10v-10a10 10 0 0 1 10 -10"></path>
<path d="M764 867a10 10 0 0 1 10 10v40a10 10 0 0 0 10 10"></path>
<g class="non-terminal">
<path d="M784 927h0"></path>
<path d="M897.5 927h310.5"></path>
<rect x="784" y="916" width="113.5" height="22"></rect>
<a xlink:href="#/abap/expression/SQLFunction"><text x="840.75" y="931">SQLFunction</text>
</a>
</g>
<path d="M1208 927a10 10 0 0 0 10 -10v-40a10 10 0 0 1 10 -10"></path>
<path d="M764 867a10 10 0 0 1 10 10v70a10 10 0 0 0 10 10"></path>
<g class="non-terminal">
<path d="M784 957h0"></path>
<path d="M863.5 957h344.5"></path>
<rect x="784" y="946" width="79.5" height="22"></rect>
<a xlink:href="#/abap/expression/SQLPath"><text x="823.75" y="961">SQLPath</text>
</a>
</g>
<path d="M1208 957a10 10 0 0 0 10 -10v-70a10 10 0 0 1 10 -10"></path>
<path d="M764 867a10 10 0 0 1 10 10v100a10 10 0 0 0 10 10"></path>
<g class="non-terminal">
<path d="M784 987h0"></path>
<path d="M906 987h302"></path>
<rect x="784" y="976" width="122" height="22"></rect>
<a xlink:href="#/abap/expression/SQLFieldName"><text x="845" y="991">SQLFieldName</text>
</a>
</g>
<path d="M1208 987a10 10 0 0 0 10 -10v-100a10 10 0 0 1 10 -10"></path>
<path d="M764 867a10 10 0 0 1 10 10v130a10 10 0 0 0 10 10"></path>
<g>
<path d="M784 1017h0"></path>
<path d="M1208 1017h0"></path>
<g>
<path d="M784 1017h0"></path>
<path d="M941 1017h0"></path>
<text x="862.5" y="1022" class="comment">v740sp05 or open-abap</text>
</g>
<path d="M941 1017h10"></path>
<path d="M951 1017h10"></path>
<g>
<path d="M961 1017h0"></path>
<path d="M1208 1017h0"></path>
<g class="terminal">
<path d="M961 1017h0"></path>
<path d="M1023.5 1017h0"></path>
<rect x="961" y="1006" width="62.5" height="22" rx="10" ry="10"></rect>
<text x="992.25" y="1021">!" @"</text>
</g>
<path d="M1023.5 1017h10"></path>
<path d="M1033.5 1017h10"></path>
<g class="non-terminal">
<path d="M1043.5 1017h0"></path>
<path d="M1208 1017h0"></path>
<rect x="1043.5" y="1006" width="164.5" height="22"></rect>
<a xlink:href="#/abap/expression/SimpleFieldChain2"><text x="1125.75" y="1021">SimpleFieldChain2</text>
</a>
</g>
</g>
</g>
<path d="M1208 1017a10 10 0 0 0 10 -10v-130a10 10 0 0 1 10 -10"></path>
<path d="M764 867a10 10 0 0 1 10 10v160a10 10 0 0 0 10 10"></path>
<g class="non-terminal">
<path d="M784 1047h0"></path>
<path d="M872 1047h336"></path>
<rect x="784" y="1036" width="88" height="22"></rect>
<a xlink:href="#/abap/expression/Constant"><text x="828" y="1051">Constant</text>
</a>
</g>
<path d="M1208 1047a10 10 0 0 0 10 -10v-160a10 10 0 0 1 10 -10"></path>
<path d="M764 867a10 10 0 0 1 10 10v190a10 10 0 0 0 10 10"></path>
<g>
<path d="M784 1077h0"></path>
<path d="M1118 1077h90"></path>
<g class="terminal">
<path d="M784 1077h0"></path>
<path d="M855 1077h0"></path>
<rect x="784" y="1066" width="71" height="22" rx="10" ry="10"></rect>
<text x="819.5" y="1081">!" ( "</text>
</g>
<path d="M855 1077h10"></path>
<path d="M865 1077h10"></path>
<g class="non-terminal">
<path d="M875 1077h0"></path>
<path d="M997 1077h0"></path>
<rect x="875" y="1066" width="122" height="22"></rect>
<a xlink:href="#/abap/expression/SQLFieldName"><text x="936" y="1081">SQLFieldName</text>
</a>
</g>
<path d="M997 1077h10"></path>
<g>
<path d="M1007 1077h0"></path>
<path d="M1118 1077h0"></path>
<path d="M1007 1077h20"></path>
<g class="terminal">
<path d="M1027 1077h0"></path>
<path d="M1098 1077h0"></path>
<rect x="1027" y="1066" width="71" height="22" rx="10" ry="10"></rect>
<text x="1062.5" y="1081">!" ) "</text>
</g>
<path d="M1098 1077h20"></path>
<path d="M1007 1077a10 10 0 0 1 10 10v10a10 10 0 0 0 10 10"></path>
<g class="terminal">
<path d="M1027 1107h0"></path>
<path d="M1089.5 1107h8.5"></path>
<rect x="1027" y="1096" width="62.5" height="22" rx="10" ry="10"></rect>
<text x="1058.25" y="1111">!" )"</text>
</g>
<path d="M1098 1107a10 10 0 0 0 10 -10v-10a10 10 0 0 1 10 -10"></path>
</g>
</g>
<path d="M1208 1077a10 10 0 0 0 10 -10v-190a10 10 0 0 1 10 -10"></path>
</g>
<path d="M1390 867a10 10 0 0 0 10 -10v-250a10 10 0 0 1 10 -10"></path>
</g>
</g>
<path d="M1410 597h10"></path>
<path d="M650 597a10 10 0 0 0 -10 10v509a10 10 0 0 0 10 10"></path>
<g>
<path d="M650 1126h760"></path>
</g>
<path d="M1410 1126a10 10 0 0 0 10 -10v-509a10 10 0 0 0 -10 -10"></path>
</g>
</g>
<path d="M1420 597h20"></path>
</g>
</g>
<path d="M1622 597a10 10 0 0 0 10 -10v-537a10 10 0 0 1 10 -10"></path>
</g>
<g>
<path d="M1642 40h0"></path>
<path d="M1852.5 40h0"></path>
<path d="M1642 40a10 10 0 0 0 10 -10v0a10 10 0 0 1 10 -10"></path>
<g>
<path d="M1662 20h170.5"></path>
</g>
<path d="M1832.5 20a10 10 0 0 1 10 10v0a10 10 0 0 0 10 10"></path>
<path d="M1642 40h20"></path>
<g>
<path d="M1662 40h0"></path>
<path d="M1832.5 40h0"></path>
<g class="terminal">
<path d="M1662 40h0"></path>
<path d="M1716 40h0"></path>
<rect x="1662" y="29" width="54" height="22" rx="10" ry="10"></rect>
<text x="1689" y="44">"AS"</text>
</g>
<path d="M1716 40h10"></path>
<path d="M1726 40h10"></path>
<g class="non-terminal">
<path d="M1736 40h0"></path>
<path d="M1832.5 40h0"></path>
<rect x="1736" y="29" width="96.5" height="22"></rect>
<a xlink:href="#/abap/expression/SQLAsName"><text x="1784.25" y="44">SQLAsName</text>
</a>
</g>
</g>
<path d="M1832.5 40h20"></path>
</g>
</g>
<path d="M1852.5 40h10"></path>
<path d="M 1862.5 40 h 20 m 0 -10 v 20"></path>
</g>
</svg>
