<svg xmlns="http://www.w3.org/2000/svg" xmlns:xlink="http://www.w3.org/1999/xlink" class="railroad-diagram" width="1076.5" height="445" viewBox="0 0 1076.5 445">
<defs>
<style type="text/css"><![CDATA[
path {
stroke-width: 3;
stroke: black;
fill: rgba(0,0,0,0);
}
text {
font: bold 14px monospace;
text-anchor: middle;
}
text.diagram-text {
font-size: 12px;
}
a {
fill: blue;
}
text.diagram-arrow {
font-size: 16px;
}
text.label {
text-anchor: start;
}
text.comment {
font: italic 12px monospace;
}
rect {
stroke-width: 3;
stroke: black;
fill: #BCBCBC;
}
path.diagram-text {
stroke-width: 3;
stroke: black;
fill: #BCBCBC;
cursor: help;
}
]]></style>
</defs>
<g transform="translate(.5 .5)">
<g>
<path d="M20 30v20m0 -10h20"></path>
</g>
<path d="M40 40h10"></path>
<g>
<path d="M50 40h0"></path>
<path d="M1026.5 40h0"></path>
<g>
<path d="M50 40h0"></path>
<path d="M152.5 40h0"></path>
<path d="M50 40a10 10 0 0 0 10 -10v0a10 10 0 0 1 10 -10"></path>
<g>
<path d="M70 20h62.5"></path>
</g>
<path d="M132.5 20a10 10 0 0 1 10 10v0a10 10 0 0 0 10 10"></path>
<path d="M50 40h20"></path>
<g class="terminal">
<path d="M70 40h0"></path>
<path d="M132.5 40h0"></path>
<rect x="70" y="29" width="62.5" height="22" rx="10" ry="10"></rect>
<text x="101.25" y="44">"NOT"</text>
</g>
<path d="M132.5 40h20"></path>
</g>
<g>
<path d="M152.5 40h0"></path>
<path d="M1026.5 40h0"></path>
<path d="M152.5 40h20"></path>
<g>
<path d="M172.5 40h0"></path>
<path d="M1006.5 40h0"></path>
<g class="non-terminal">
<path d="M172.5 40h0"></path>
<path d="M243.5 40h0"></path>
<rect x="172.5" y="29" width="71" height="22"></rect>
<a xlink:href="#/abap/expression/Source"><text x="208" y="44">Source</text>
</a>
</g>
<path d="M243.5 40h10"></path>
<g>
<path d="M253.5 40h0"></path>
<path d="M1006.5 40h0"></path>
<path d="M253.5 40h20"></path>
<g>
<path d="M273.5 40h0"></path>
<path d="M512 40h474.5"></path>
<g class="non-terminal">
<path d="M273.5 40h0"></path>
<path d="M421 40h0"></path>
<rect x="273.5" y="29" width="147.5" height="22"></rect>
<a xlink:href="#/abap/expression/CompareOperator"><text x="347.25" y="44">CompareOperator</text>
</a>
</g>
<path d="M421 40h10"></path>
<path d="M431 40h10"></path>
<g class="non-terminal">
<path d="M441 40h0"></path>
<path d="M512 40h0"></path>
<rect x="441" y="29" width="71" height="22"></rect>
<a xlink:href="#/abap/expression/Source"><text x="476.5" y="44">Source</text>
</a>
</g>
</g>
<path d="M986.5 40h20"></path>
<path d="M253.5 40a10 10 0 0 1 10 10v19a10 10 0 0 0 10 10"></path>
<g>
<path d="M273.5 79h0"></path>
<path d="M986.5 79h0"></path>
<g>
<path d="M273.5 79h0"></path>
<path d="M376 79h0"></path>
<path d="M273.5 79a10 10 0 0 0 10 -10v0a10 10 0 0 1 10 -10"></path>
<g>
<path d="M293.5 59h62.5"></path>
</g>
<path d="M356 59a10 10 0 0 1 10 10v0a10 10 0 0 0 10 10"></path>
<path d="M273.5 79h20"></path>
<g class="terminal">
<path d="M293.5 79h0"></path>
<path d="M356 79h0"></path>
<rect x="293.5" y="68" width="62.5" height="22" rx="10" ry="10"></rect>
<text x="324.75" y="83">"NOT"</text>
</g>
<path d="M356 79h20"></path>
</g>
<path d="M376 79h10"></path>
<g class="terminal">
<path d="M386 79h0"></path>
<path d="M440 79h0"></path>
<rect x="386" y="68" width="54" height="22" rx="10" ry="10"></rect>
<text x="413" y="83">"IN"</text>
</g>
<path d="M440 79h10"></path>
<g>
<path d="M450 79h0"></path>
<path d="M986.5 79h0"></path>
<path d="M450 79h20"></path>
<g class="non-terminal">
<path d="M470 79h0"></path>
<path d="M541 79h425.5"></path>
<rect x="470" y="68" width="71" height="22"></rect>
<a xlink:href="#/abap/expression/Source"><text x="505.5" y="83">Source</text>
</a>
</g>
<path d="M966.5 79h20"></path>
<path d="M450 79a10 10 0 0 1 10 10v10a10 10 0 0 0 10 10"></path>
<g>
<path d="M470 109h0"></path>
<path d="M966.5 109h0"></path>
<g class="terminal">
<path d="M470 109h0"></path>
<path d="M532.5 109h0"></path>
<rect x="470" y="98" width="62.5" height="22" rx="10" ry="10"></rect>
<text x="501.25" y="113">!" ("</text>
</g>
<path d="M532.5 109h10"></path>
<g>
<path d="M542.5 109h0"></path>
<path d="M670.5 109h0"></path>
<path d="M542.5 109h20"></path>
<g class="non-terminal">
<path d="M562.5 109h0"></path>
<path d="M650.5 109h0"></path>
<rect x="562.5" y="98" width="88" height="22"></rect>
<a xlink:href="#/abap/expression/FieldSub"><text x="606.5" y="113">FieldSub</text>
</a>
</g>
<path d="M650.5 109h20"></path>
<path d="M542.5 109a10 10 0 0 1 10 10v10a10 10 0 0 0 10 10"></path>
<g class="non-terminal">
<path d="M562.5 139h0"></path>
<path d="M650.5 139h0"></path>
<rect x="562.5" y="128" width="88" height="22"></rect>
<a xlink:href="#/abap/expression/Constant"><text x="606.5" y="143">Constant</text>
</a>
</g>
<path d="M650.5 139a10 10 0 0 0 10 -10v-10a10 10 0 0 1 10 -10"></path>
</g>
<path d="M670.5 109h10"></path>
<g>
<path d="M680.5 109h0"></path>
<path d="M884 109h0"></path>
<path d="M680.5 109h10"></path>
<g>
<path d="M690.5 109h0"></path>
<path d="M874 109h0"></path>
<g class="terminal">
<path d="M690.5 109h0"></path>
<path d="M736 109h0"></path>
<rect x="690.5" y="98" width="45.5" height="22" rx="10" ry="10"></rect>
<text x="713.25" y="113">","</text>
</g>
<path d="M736 109h10"></path>
<g>
<path d="M746 109h0"></path>
<path d="M874 109h0"></path>
<path d="M746 109h20"></path>
<g class="non-terminal">
<path d="M766 109h0"></path>
<path d="M854 109h0"></path>
<rect x="766" y="98" width="88" height="22"></rect>
<a xlink:href="#/abap/expression/FieldSub"><text x="810" y="113">FieldSub</text>
</a>
</g>
<path d="M854 109h20"></path>
<path d="M746 109a10 10 0 0 1 10 10v10a10 10 0 0 0 10 10"></path>
<g class="non-terminal">
<path d="M766 139h0"></path>
<path d="M854 139h0"></path>
<rect x="766" y="128" width="88" height="22"></rect>
<a xlink:href="#/abap/expression/Constant"><text x="810" y="143">Constant</text>
</a>
</g>
<path d="M854 139a10 10 0 0 0 10 -10v-10a10 10 0 0 1 10 -10"></path>
</g>
</g>
<path d="M874 109h10"></path>
<path d="M690.5 109a10 10 0 0 0 -10 10v29a10 10 0 0 0 10 10"></path>
<g>
<path d="M690.5 158h183.5"></path>
</g>
<path d="M874 158a10 10 0 0 0 10 -10v-29a10 10 0 0 0 -10 -10"></path>
</g>
<path d="M884 109h10"></path>
<path d="M894 109h10"></path>
<g class="terminal">
<path d="M904 109h0"></path>
<path d="M966.5 109h0"></path>
<rect x="904" y="98" width="62.5" height="22" rx="10" ry="10"></rect>
<text x="935.25" y="113">!") "</text>
</g>
</g>
<path d="M966.5 109a10 10 0 0 0 10 -10v-10a10 10 0 0 1 10 -10"></path>
</g>
</g>
<path d="M986.5 79a10 10 0 0 0 10 -10v-19a10 10 0 0 1 10 -10"></path>
<path d="M253.5 40a10 10 0 0 1 10 10v126a10 10 0 0 0 10 10"></path>
<g>
<path d="M273.5 186h0"></path>
<path d="M747 186h239.5"></path>
<g>
<path d="M273.5 186h0"></path>
<path d="M376 186h0"></path>
<path d="M273.5 186a10 10 0 0 0 10 -10v0a10 10 0 0 1 10 -10"></path>
<g>
<path d="M293.5 166h62.5"></path>
</g>
<path d="M356 166a10 10 0 0 1 10 10v0a10 10 0 0 0 10 10"></path>
<path d="M273.5 186h20"></path>
<g class="terminal">
<path d="M293.5 186h0"></path>
<path d="M356 186h0"></path>
<rect x="293.5" y="175" width="62.5" height="22" rx="10" ry="10"></rect>
<text x="324.75" y="190">"NOT"</text>
</g>
<path d="M356 186h20"></path>
</g>
<path d="M376 186h10"></path>
<g class="terminal">
<path d="M386 186h0"></path>
<path d="M482.5 186h0"></path>
<rect x="386" y="175" width="96.5" height="22" rx="10" ry="10"></rect>
<text x="434.25" y="190">"BETWEEN"</text>
</g>
<path d="M482.5 186h10"></path>
<path d="M492.5 186h10"></path>
<g class="non-terminal">
<path d="M502.5 186h0"></path>
<path d="M573.5 186h0"></path>
<rect x="502.5" y="175" width="71" height="22"></rect>
<a xlink:href="#/abap/expression/Source"><text x="538" y="190">Source</text>
</a>
</g>
<path d="M573.5 186h10"></path>
<path d="M583.5 186h10"></path>
<g class="terminal">
<path d="M593.5 186h0"></path>
<path d="M656 186h0"></path>
<rect x="593.5" y="175" width="62.5" height="22" rx="10" ry="10"></rect>
<text x="624.75" y="190">"AND"</text>
</g>
<path d="M656 186h10"></path>
<path d="M666 186h10"></path>
<g class="non-terminal">
<path d="M676 186h0"></path>
<path d="M747 186h0"></path>
<rect x="676" y="175" width="71" height="22"></rect>
<a xlink:href="#/abap/expression/Source"><text x="711.5" y="190">Source</text>
</a>
</g>
</g>
<path d="M986.5 186a10 10 0 0 0 10 -10v-126a10 10 0 0 1 10 -10"></path>
<path d="M253.5 40a10 10 0 0 1 10 10v165a10 10 0 0 0 10 10"></path>
<g>
<path d="M273.5 225h0"></path>
<path d="M876 225h110.5"></path>
<g class="terminal">
<path d="M273.5 225h0"></path>
<path d="M327.5 225h0"></path>
<rect x="273.5" y="214" width="54" height="22" rx="10" ry="10"></rect>
<text x="300.5" y="229">"IS"</text>
</g>
<path d="M327.5 225h10"></path>
<g>
<path d="M337.5 225h0"></path>
<path d="M440 225h0"></path>
<path d="M337.5 225a10 10 0 0 0 10 -10v0a10 10 0 0 1 10 -10"></path>
<g>
<path d="M357.5 205h62.5"></path>
</g>
<path d="M420 205a10 10 0 0 1 10 10v0a10 10 0 0 0 10 10"></path>
<path d="M337.5 225h20"></path>
<g class="terminal">
<path d="M357.5 225h0"></path>
<path d="M420 225h0"></path>
<rect x="357.5" y="214" width="62.5" height="22" rx="10" ry="10"></rect>
<text x="388.75" y="229">"NOT"</text>
</g>
<path d="M420 225h20"></path>
</g>
<g>
<path d="M440 225h0"></path>
<path d="M876 225h0"></path>
<path d="M440 225h20"></path>
<g class="terminal">
<path d="M460 225h0"></path>
<path d="M565 225h291"></path>
<rect x="460" y="214" width="105" height="22" rx="10" ry="10"></rect>
<text x="512.5" y="229">"SUPPLIED"</text>
</g>
<path d="M856 225h20"></path>
<path d="M440 225a10 10 0 0 1 10 10v10a10 10 0 0 0 10 10"></path>
<g class="terminal">
<path d="M460 255h0"></path>
<path d="M539.5 255h316.5"></path>
<rect x="460" y="244" width="79.5" height="22" rx="10" ry="10"></rect>
<text x="499.75" y="259">"BOUND"</text>
</g>
<path d="M856 255a10 10 0 0 0 10 -10v-10a10 10 0 0 1 10 -10"></path>
<path d="M440 225a10 10 0 0 1 10 10v40a10 10 0 0 0 10 10"></path>
<g>
<path d="M460 285h0"></path>
<path d="M856 285h0"></path>
<g>
<path d="M460 285h0"></path>
<path d="M589 285h0"></path>
<text x="524.5" y="290" class="comment">v750 or open-abap</text>
</g>
<path d="M589 285h10"></path>
<path d="M599 285h10"></path>
<g>
<path d="M609 285h0"></path>
<path d="M856 285h0"></path>
<g class="terminal">
<path d="M609 285h0"></path>
<path d="M739.5 285h0"></path>
<rect x="609" y="274" width="130.5" height="22" rx="10" ry="10"></rect>
<text x="674.25" y="289">"INSTANCE OF"</text>
</g>
<path d="M739.5 285h10"></path>
<path d="M749.5 285h10"></path>
<g class="non-terminal">
<path d="M759.5 285h0"></path>
<path d="M856 285h0"></path>
<rect x="759.5" y="274" width="96.5" height="22"></rect>
<a xlink:href="#/abap/expression/ClassName"><text x="807.75" y="289">ClassName</text>
</a>
</g>
</g>
</g>
<path d="M856 285a10 10 0 0 0 10 -10v-40a10 10 0 0 1 10 -10"></path>
<path d="M440 225a10 10 0 0 1 10 10v70a10 10 0 0 0 10 10"></path>
<g class="terminal">
<path d="M460 315h0"></path>
<path d="M573.5 315h282.5"></path>
<rect x="460" y="304" width="113.5" height="22" rx="10" ry="10"></rect>
<text x="516.75" y="319">"REQUESTED"</text>
</g>
<path d="M856 315a10 10 0 0 0 10 -10v-70a10 10 0 0 1 10 -10"></path>
<path d="M440 225a10 10 0 0 1 10 10v100a10 10 0 0 0 10 10"></path>
<g class="terminal">
<path d="M460 345h0"></path>
<path d="M556.5 345h299.5"></path>
<rect x="460" y="334" width="96.5" height="22" rx="10" ry="10"></rect>
<text x="508.25" y="349">"INITIAL"</text>
</g>
<path d="M856 345a10 10 0 0 0 10 -10v-100a10 10 0 0 1 10 -10"></path>
</g>
</g>
<path d="M986.5 225a10 10 0 0 0 10 -10v-165a10 10 0 0 1 10 -10"></path>
</g>
</g>
<path d="M1006.5 40h20"></path>
<path d="M152.5 40a10 10 0 0 1 10 10v315a10 10 0 0 0 10 10"></path>
<g>
<path d="M172.5 375h0"></path>
<path d="M497 375h509.5"></path>
<g>
<path d="M172.5 375h0"></path>
<path d="M329.5 375h0"></path>
<text x="251" y="380" class="comment">v740sp08 or open-abap</text>
</g>
<path d="M329.5 375h10"></path>
<path d="M339.5 375h10"></path>
<g class="non-terminal">
<path d="M349.5 375h0"></path>
<path d="M497 375h0"></path>
<rect x="349.5" y="364" width="147.5" height="22"></rect>
<a xlink:href="#/abap/expression/MethodCallChain"><text x="423.25" y="379">MethodCallChain</text>
</a>
</g>
</g>
<path d="M1006.5 375a10 10 0 0 0 10 -10v-315a10 10 0 0 1 10 -10"></path>
<path d="M152.5 40a10 10 0 0 1 10 10v354a10 10 0 0 0 10 10"></path>
<g>
<path d="M172.5 414h0"></path>
<path d="M681 414h325.5"></path>
<g class="non-terminal">
<path d="M172.5 414h0"></path>
<path d="M379.5 414h0"></path>
<rect x="172.5" y="403" width="207" height="22"></rect>
<a xlink:href="#/abap/expression/SourceFieldSymbolChain"><text x="276" y="418">SourceFieldSymbolChain</text>
</a>
</g>
<path d="M379.5 414h10"></path>
<path d="M389.5 414h10"></path>
<g class="terminal">
<path d="M399.5 414h0"></path>
<path d="M453.5 414h0"></path>
<rect x="399.5" y="403" width="54" height="22" rx="10" ry="10"></rect>
<text x="426.5" y="418">"IS"</text>
</g>
<path d="M453.5 414h10"></path>
<g>
<path d="M463.5 414h0"></path>
<path d="M566 414h0"></path>
<path d="M463.5 414a10 10 0 0 0 10 -10v0a10 10 0 0 1 10 -10"></path>
<g>
<path d="M483.5 394h62.5"></path>
</g>
<path d="M546 394a10 10 0 0 1 10 10v0a10 10 0 0 0 10 10"></path>
<path d="M463.5 414h20"></path>
<g class="terminal">
<path d="M483.5 414h0"></path>
<path d="M546 414h0"></path>
<rect x="483.5" y="403" width="62.5" height="22" rx="10" ry="10"></rect>
<text x="514.75" y="418">"NOT"</text>
</g>
<path d="M546 414h20"></path>
</g>
<path d="M566 414h10"></path>
<g class="terminal">
<path d="M576 414h0"></path>
<path d="M681 414h0"></path>
<rect x="576" y="403" width="105" height="22" rx="10" ry="10"></rect>
<text x="628.5" y="418">"ASSIGNED"</text>
</g>
</g>
<path d="M1006.5 414a10 10 0 0 0 10 -10v-354a10 10 0 0 1 10 -10"></path>
</g>
</g>
<path d="M1026.5 40h10"></path>
<path d="M 1036.5 40 h 20 m 0 -10 v 20"></path>
</g>
</svg>
