<svg xmlns="http://www.w3.org/2000/svg" xmlns:xlink="http://www.w3.org/1999/xlink" class="railroad-diagram" width="832.5" height="152" viewBox="0 0 832.5 152">
<defs>
<style type="text/css"><![CDATA[
path {
stroke-width: 3;
stroke: black;
fill: rgba(0,0,0,0);
}
text {
font: bold 14px monospace;
text-anchor: middle;
}
text.diagram-text {
font-size: 12px;
}
a {
fill: blue;
}
text.diagram-arrow {
font-size: 16px;
}
text.label {
text-anchor: start;
}
text.comment {
font: italic 12px monospace;
}
rect {
stroke-width: 3;
stroke: black;
fill: #BCBCBC;
}
path.diagram-text {
stroke-width: 3;
stroke: black;
fill: #BCBCBC;
cursor: help;
}
]]></style>
</defs>
<g transform="translate(.5 .5)">
<g>
<path d="M20 21v20m0 -10h20"></path>
</g>
<g>
<path d="M40 31h0"></path>
<path d="M792.5 31h0"></path>
<path d="M40 31h20"></path>
<g>
<path d="M60 31h0"></path>
<path d="M772.5 31h0"></path>
<g class="comment ">
<path d="M60 31h0"></path>
<path d="M217 31h0"></path>
<text x="138.5" y="36" class="comment">v740sp02 or open-abap</text>
</g>
<path d="M217 31h10"></path>
<path d="M227 31h10"></path>
<g>
<path d="M237 31h0"></path>
<path d="M772.5 31h0"></path>
<g class="terminal ">
<path d="M237 31h0"></path>
<path d="M308 31h0"></path>
<rect x="237" y="20" width="71" height="22" rx="10" ry="10"></rect>
<text x="272.5" y="35">"DATA"</text>
</g>
<path d="M308 31h10"></path>
<path d="M318 31h10"></path>
<g class="terminal ">
<path d="M328 31h0"></path>
<path d="M450 31h0"></path>
<rect x="328" y="20" width="122" height="22" rx="10" ry="10"></rect>
<text x="389" y="35">!"ParenLeft"</text>
</g>
<path d="M450 31h10"></path>
<path d="M460 31h10"></path>
<g class="non-terminal ">
<path d="M470 31h0"></path>
<path d="M583.5 31h0"></path>
<rect x="470" y="20" width="113.5" height="22"></rect>
<a xlink:href="#/abap/expression/TargetField"><text x="526.75" y="35">TargetField</text>
</a>
</g>
<path d="M583.5 31h10"></path>
<g>
<path d="M593.5 31h0"></path>
<path d="M772.5 31h0"></path>
<path d="M593.5 31h20"></path>
<g class="terminal ">
<path d="M613.5 31h0"></path>
<path d="M752.5 31h0"></path>
<rect x="613.5" y="20" width="139" height="22" rx="10" ry="10"></rect>
<text x="683" y="35">!"ParenRightW"</text>
</g>
<path d="M752.5 31h20"></path>
<path d="M593.5 31a10 10 0 0 1 10 10v10a10 10 0 0 0 10 10"></path>
<g class="terminal ">
<path d="M613.5 61h4.25"></path>
<path d="M748.25 61h4.25"></path>
<rect x="617.75" y="50" width="130.5" height="22" rx="10" ry="10"></rect>
<text x="683" y="65">!"ParenRight"</text>
</g>
<path d="M752.5 61a10 10 0 0 0 10 -10v-10a10 10 0 0 1 10 -10"></path>
</g>
</g>
</g>
<path d="M772.5 31h20"></path>
<path d="M40 31a10 10 0 0 1 10 10v40a10 10 0 0 0 10 10"></path>
<g>
<path d="M60 91h9.75"></path>
<path d="M762.75 91h9.75"></path>
<g class="comment ">
<path d="M69.75 91h0"></path>
<path d="M198.75 91h0"></path>
<text x="134.25" y="96" class="comment">v757 or open-abap</text>
</g>
<path d="M198.75 91h10"></path>
<path d="M208.75 91h10"></path>
<g>
<path d="M218.75 91h0"></path>
<path d="M762.75 91h0"></path>
<g class="terminal ">
<path d="M218.75 91h0"></path>
<path d="M298.25 91h0"></path>
<rect x="218.75" y="80" width="79.5" height="22" rx="10" ry="10"></rect>
<text x="258.5" y="95">"FINAL"</text>
</g>
<path d="M298.25 91h10"></path>
<path d="M308.25 91h10"></path>
<g class="terminal ">
<path d="M318.25 91h0"></path>
<path d="M440.25 91h0"></path>
<rect x="318.25" y="80" width="122" height="22" rx="10" ry="10"></rect>
<text x="379.25" y="95">!"ParenLeft"</text>
</g>
<path d="M440.25 91h10"></path>
<path d="M450.25 91h10"></path>
<g class="non-terminal ">
<path d="M460.25 91h0"></path>
<path d="M573.75 91h0"></path>
<rect x="460.25" y="80" width="113.5" height="22"></rect>
<a xlink:href="#/abap/expression/TargetField"><text x="517" y="95">TargetField</text>
</a>
</g>
<path d="M573.75 91h10"></path>
<g>
<path d="M583.75 91h0"></path>
<path d="M762.75 91h0"></path>
<path d="M583.75 91h20"></path>
<g class="terminal ">
<path d="M603.75 91h0"></path>
<path d="M742.75 91h0"></path>
<rect x="603.75" y="80" width="139" height="22" rx="10" ry="10"></rect>
<text x="673.25" y="95">!"ParenRightW"</text>
</g>
<path d="M742.75 91h20"></path>
<path d="M583.75 91a10 10 0 0 1 10 10v10a10 10 0 0 0 10 10"></path>
<g class="terminal ">
<path d="M603.75 121h4.25"></path>
<path d="M738.5 121h4.25"></path>
<rect x="608" y="110" width="130.5" height="22" rx="10" ry="10"></rect>
<text x="673.25" y="125">!"ParenRight"</text>
</g>
<path d="M742.75 121a10 10 0 0 0 10 -10v-10a10 10 0 0 1 10 -10"></path>
</g>
</g>
</g>
<path d="M772.5 91a10 10 0 0 0 10 -10v-40a10 10 0 0 1 10 -10"></path>
</g>
<path d="M 792.5 31 h 20 m 0 -10 v 20"></path>
</g>
</svg>
