<svg xmlns="http://www.w3.org/2000/svg" xmlns:xlink="http://www.w3.org/1999/xlink" class="railroad-diagram" width="584" height="101" viewBox="0 0 584 101">
<defs>
<style type="text/css"><![CDATA[
path {
stroke-width: 3;
stroke: black;
fill: rgba(0,0,0,0);
}
text {
font: bold 14px monospace;
text-anchor: middle;
}
text.diagram-text {
font-size: 12px;
}
a {
fill: blue;
}
text.diagram-arrow {
font-size: 16px;
}
text.label {
text-anchor: start;
}
text.comment {
font: italic 12px monospace;
}
rect {
stroke-width: 3;
stroke: black;
fill: #BCBCBC;
}
path.diagram-text {
stroke-width: 3;
stroke: black;
fill: #BCBCBC;
cursor: help;
}
]]></style>
</defs>
<g transform="translate(.5 .5)">
<g>
<path d="M20 30v20m0 -10h20"></path>
</g>
<path d="M40 40h10"></path>
<g>
<path d="M50 40h0"></path>
<path d="M534 40h0"></path>
<g class="comment ">
<path d="M50 40h0"></path>
<path d="M109 40h0"></path>
<text x="79.5" y="45" class="comment">740SP05</text>
</g>
<path d="M109 40h10"></path>
<path d="M119 40h10"></path>
<g>
<path d="M129 40h0"></path>
<path d="M534 40h0"></path>
<g>
<path d="M129 40h0"></path>
<path d="M365 40h0"></path>
<path d="M129 40a10 10 0 0 0 10 -10v0a10 10 0 0 1 10 -10"></path>
<g>
<path d="M149 20h196"></path>
</g>
<path d="M345 20a10 10 0 0 1 10 10v0a10 10 0 0 0 10 10"></path>
<path d="M129 40h20"></path>
<g>
<path d="M149 40h0"></path>
<path d="M345 40h0"></path>
<path d="M149 40h20"></path>
<g class="non-terminal ">
<path d="M169 40h0"></path>
<path d="M325 40h0"></path>
<rect x="169" y="29" width="156" height="22"></rect>
<a xlink:href="#/abap/expression/SQLCTEPathPrefix"><text x="247" y="44">SQLCTEPathPrefix</text>
</a>
</g>
<path d="M325 40h20"></path>
<path d="M149 40a10 10 0 0 1 10 10v10a10 10 0 0 0 10 10"></path>
<g class="non-terminal ">
<path d="M169 70h12.75"></path>
<path d="M312.25 70h12.75"></path>
<rect x="181.75" y="59" width="130.5" height="22"></rect>
<a xlink:href="#/abap/expression/DatabaseTable"><text x="247" y="74">DatabaseTable</text>
</a>
</g>
<path d="M325 70a10 10 0 0 0 10 -10v-10a10 10 0 0 1 10 -10"></path>
</g>
<path d="M345 40h20"></path>
</g>
<path d="M365 40h10"></path>
<g>
<path d="M375 40h0"></path>
<path d="M534 40h0"></path>
<path d="M375 40h10"></path>
<g class="non-terminal ">
<path d="M385 40h0"></path>
<path d="M524 40h0"></path>
<rect x="385" y="29" width="139" height="22"></rect>
<a xlink:href="#/abap/expression/SQLPathSegment"><text x="454.5" y="44">SQLPathSegment</text>
</a>
</g>
<path d="M524 40h10"></path>
<path d="M385 40a10 10 0 0 0 -10 10v0a10 10 0 0 0 10 10"></path>
<g>
<path d="M385 60h139"></path>
</g>
<path d="M524 60a10 10 0 0 0 10 -10v0a10 10 0 0 0 -10 -10"></path>
</g>
</g>
</g>
<path d="M534 40h10"></path>
<path d="M 544 40 h 20 m 0 -10 v 20"></path>
</g>
</svg>
