<svg xmlns="http://www.w3.org/2000/svg" xmlns:xlink="http://www.w3.org/1999/xlink" class="railroad-diagram" width="354" height="92" viewBox="0 0 354 92">
<defs>
<style type="text/css"><![CDATA[
path {
stroke-width: 3;
stroke: black;
fill: rgba(0,0,0,0);
}
text {
font: bold 14px monospace;
text-anchor: middle;
}
text.diagram-text {
font-size: 12px;
}
a {
fill: blue;
}
text.diagram-arrow {
font-size: 16px;
}
text.label {
text-anchor: start;
}
text.comment {
font: italic 12px monospace;
}
rect {
stroke-width: 3;
stroke: black;
fill: #BCBCBC;
}
path.diagram-text {
stroke-width: 3;
stroke: black;
fill: #BCBCBC;
cursor: help;
}
]]></style>
</defs>
<g transform="translate(.5 .5)">
<g>
<path d="M20 21v20m0 -10h20"></path>
</g>
<g>
<path d="M40 31h0"></path>
<path d="M314 31h0"></path>
<path d="M40 31h20"></path>
<g class="non-terminal ">
<path d="M60 31h51.75"></path>
<path d="M242.25 31h51.75"></path>
<rect x="111.75" y="20" width="130.5" height="22"></rect>
<a xlink:href="#/abap/expression/SimpleSource2"><text x="177" y="35">SimpleSource2</text>
</a>
</g>
<path d="M294 31h20"></path>
<path d="M40 31a10 10 0 0 1 10 10v10a10 10 0 0 0 10 10"></path>
<g>
<path d="M60 61h0"></path>
<path d="M294 61h0"></path>
<g class="comment ">
<path d="M60 61h0"></path>
<path d="M203 61h0"></path>
<text x="131.5" y="66" class="comment">740SP02 or OpenABAP</text>
</g>
<path d="M203 61h10"></path>
<path d="M213 61h10"></path>
<g class="non-terminal ">
<path d="M223 61h0"></path>
<path d="M294 61h0"></path>
<rect x="223" y="50" width="71" height="22"></rect>
<a xlink:href="#/abap/expression/Source"><text x="258.5" y="65">Source</text>
</a>
</g>
</g>
<path d="M294 61a10 10 0 0 0 10 -10v-10a10 10 0 0 1 10 -10"></path>
</g>
<path d="M 314 31 h 20 m 0 -10 v 20"></path>
</g>
</svg>
