<svg xmlns="http://www.w3.org/2000/svg" xmlns:xlink="http://www.w3.org/1999/xlink" class="railroad-diagram" width="1145.5" height="268" viewBox="0 0 1145.5 268">
<defs>
<style type="text/css"><![CDATA[
path {
stroke-width: 3;
stroke: black;
fill: rgba(0,0,0,0);
}
text {
font: bold 14px monospace;
text-anchor: middle;
}
text.diagram-text {
font-size: 12px;
}
a {
fill: blue;
}
text.diagram-arrow {
font-size: 16px;
}
text.label {
text-anchor: start;
}
text.comment {
font: italic 12px monospace;
}
rect {
stroke-width: 3;
stroke: black;
fill: #BCBCBC;
}
path.diagram-text {
stroke-width: 3;
stroke: black;
fill: #BCBCBC;
cursor: help;
}
]]></style>
</defs>
<g transform="translate(.5 .5)">
<g>
<path d="M20 21v20m0 -10h20"></path>
</g>
<path d="M40 31h10"></path>
<g>
<path d="M50 31h0"></path>
<path d="M1095.5 31h0"></path>
<g class="terminal ">
<path d="M50 31h0"></path>
<path d="M104 31h0"></path>
<rect x="50" y="20" width="54" height="22" rx="10" ry="10"></rect>
<text x="77" y="35">"IN"</text>
</g>
<path d="M104 31h10"></path>
<g>
<path d="M114 31h0"></path>
<path d="M1095.5 31h0"></path>
<path d="M114 31h20"></path>
<g class="non-terminal ">
<path d="M134 31h405.5"></path>
<path d="M670 31h405.5"></path>
<rect x="539.5" y="20" width="130.5" height="22"></rect>
<a xlink:href="#/abap/expression/SQLSetOpGroup"><text x="604.75" y="35">SQLSetOpGroup</text>
</a>
</g>
<path d="M1075.5 31h20"></path>
<path d="M114 31a10 10 0 0 1 10 10v19a10 10 0 0 0 10 10"></path>
<g>
<path d="M134 70h9.25"></path>
<path d="M1066.25 70h9.25"></path>
<g class="terminal ">
<path d="M143.25 70h0"></path>
<path d="M273.75 70h0"></path>
<rect x="143.25" y="59" width="130.5" height="22" rx="10" ry="10"></rect>
<text x="208.5" y="74">!"WParenLeft"</text>
</g>
<path d="M273.75 70h10"></path>
<g>
<path d="M283.75 70h0"></path>
<path d="M656.75 70h0"></path>
<path d="M283.75 70h20"></path>
<g>
<path d="M303.75 70h0"></path>
<path d="M636.75 70h0"></path>
<g class="comment ">
<path d="M303.75 70h0"></path>
<path d="M460.75 70h0"></path>
<text x="382.25" y="75" class="comment">v740sp05 or open-abap</text>
</g>
<path d="M460.75 70h10"></path>
<path d="M470.75 70h10"></path>
<g class="non-terminal ">
<path d="M480.75 70h0"></path>
<path d="M636.75 70h0"></path>
<rect x="480.75" y="59" width="156" height="22"></rect>
<a xlink:href="#/abap/expression/SQLSourceNoSpace"><text x="558.75" y="74">SQLSourceNoSpace</text>
</a>
</g>
</g>
<path d="M636.75 70h20"></path>
<path d="M283.75 70a10 10 0 0 1 10 10v10a10 10 0 0 0 10 10"></path>
<g class="non-terminal ">
<path d="M303.75 100h118.25"></path>
<path d="M518.5 100h118.25"></path>
<rect x="422" y="89" width="96.5" height="22"></rect>
<a xlink:href="#/abap/expression/SQLSource"><text x="470.25" y="104">SQLSource</text>
</a>
</g>
<path d="M636.75 100a10 10 0 0 0 10 -10v-10a10 10 0 0 1 10 -10"></path>
</g>
<g>
<path d="M656.75 70h0"></path>
<path d="M878.75 70h0"></path>
<path d="M656.75 70a10 10 0 0 0 10 -10v0a10 10 0 0 1 10 -10"></path>
<g>
<path d="M676.75 50h182"></path>
</g>
<path d="M858.75 50a10 10 0 0 1 10 10v0a10 10 0 0 0 10 10"></path>
<path d="M656.75 70h20"></path>
<g>
<path d="M676.75 70h0"></path>
<path d="M858.75 70h0"></path>
<path d="M676.75 70h10"></path>
<g>
<path d="M686.75 70h0"></path>
<path d="M848.75 70h0"></path>
<g class="terminal ">
<path d="M686.75 70h0"></path>
<path d="M732.25 70h0"></path>
<rect x="686.75" y="59" width="45.5" height="22" rx="10" ry="10"></rect>
<text x="709.5" y="74">","</text>
</g>
<path d="M732.25 70h10"></path>
<path d="M742.25 70h10"></path>
<g class="non-terminal ">
<path d="M752.25 70h0"></path>
<path d="M848.75 70h0"></path>
<rect x="752.25" y="59" width="96.5" height="22"></rect>
<a xlink:href="#/abap/expression/SQLSource"><text x="800.5" y="74">SQLSource</text>
</a>
</g>
</g>
<path d="M848.75 70h10"></path>
<path d="M686.75 70a10 10 0 0 0 -10 10v0a10 10 0 0 0 10 10"></path>
<g>
<path d="M686.75 90h162"></path>
</g>
<path d="M848.75 90a10 10 0 0 0 10 -10v0a10 10 0 0 0 -10 -10"></path>
</g>
<path d="M858.75 70h20"></path>
</g>
<g>
<path d="M878.75 70h0"></path>
<path d="M1066.25 70h0"></path>
<path d="M878.75 70h20"></path>
<g class="terminal ">
<path d="M898.75 70h8.5"></path>
<path d="M1037.75 70h8.5"></path>
<rect x="907.25" y="59" width="130.5" height="22" rx="10" ry="10"></rect>
<text x="972.5" y="74">!"ParenRight"</text>
</g>
<path d="M1046.25 70h20"></path>
<path d="M878.75 70a10 10 0 0 1 10 10v10a10 10 0 0 0 10 10"></path>
<g class="terminal ">
<path d="M898.75 100h4.25"></path>
<path d="M1042 100h4.25"></path>
<rect x="903" y="89" width="139" height="22" rx="10" ry="10"></rect>
<text x="972.5" y="104">!"ParenRightW"</text>
</g>
<path d="M1046.25 100a10 10 0 0 0 10 -10v-10a10 10 0 0 1 10 -10"></path>
<path d="M878.75 70a10 10 0 0 1 10 10v40a10 10 0 0 0 10 10"></path>
<g class="terminal ">
<path d="M898.75 130h0"></path>
<path d="M1046.25 130h0"></path>
<rect x="898.75" y="119" width="147.5" height="22" rx="10" ry="10"></rect>
<text x="972.5" y="134">!"WParenRightW"</text>
</g>
<path d="M1046.25 130a10 10 0 0 0 10 -10v-40a10 10 0 0 1 10 -10"></path>
</g>
</g>
<path d="M1075.5 70a10 10 0 0 0 10 -10v-19a10 10 0 0 1 10 -10"></path>
<path d="M114 31a10 10 0 0 1 10 10v118a10 10 0 0 0 10 10"></path>
<g>
<path d="M134 169h0"></path>
<path d="M1075.5 169h0"></path>
<g class="comment ">
<path d="M134 169h0"></path>
<path d="M291 169h0"></path>
<text x="212.5" y="174" class="comment">v740sp02 or open-abap</text>
</g>
<path d="M291 169h10"></path>
<path d="M301 169h10"></path>
<g>
<path d="M311 169h0"></path>
<path d="M1075.5 169h0"></path>
<g class="terminal ">
<path d="M311 169h0"></path>
<path d="M450 169h0"></path>
<rect x="311" y="158" width="139" height="22" rx="10" ry="10"></rect>
<text x="380.5" y="173">!"WParenLeftW"</text>
</g>
<path d="M450 169h10"></path>
<path d="M460 169h10"></path>
<g class="non-terminal ">
<path d="M470 169h0"></path>
<path d="M566.5 169h0"></path>
<rect x="470" y="158" width="96.5" height="22"></rect>
<a xlink:href="#/abap/expression/SQLSource"><text x="518.25" y="173">SQLSource</text>
</a>
</g>
<path d="M566.5 169h10"></path>
<g>
<path d="M576.5 169h0"></path>
<path d="M888 169h0"></path>
<path d="M576.5 169a10 10 0 0 0 10 -10v0a10 10 0 0 1 10 -10"></path>
<g>
<path d="M596.5 149h271.5"></path>
</g>
<path d="M868 149a10 10 0 0 1 10 10v0a10 10 0 0 0 10 10"></path>
<path d="M576.5 169h20"></path>
<g>
<path d="M596.5 169h0"></path>
<path d="M868 169h0"></path>
<path d="M596.5 169h10"></path>
<g>
<path d="M606.5 169h0"></path>
<path d="M858 169h0"></path>
<g class="terminal ">
<path d="M606.5 169h0"></path>
<path d="M652 169h0"></path>
<rect x="606.5" y="158" width="45.5" height="22" rx="10" ry="10"></rect>
<text x="629.25" y="173">","</text>
</g>
<path d="M652 169h10"></path>
<g>
<path d="M662 169h0"></path>
<path d="M858 169h0"></path>
<path d="M662 169h20"></path>
<g class="non-terminal ">
<path d="M682 169h0"></path>
<path d="M838 169h0"></path>
<rect x="682" y="158" width="156" height="22"></rect>
<a xlink:href="#/abap/expression/SQLSourceNoSpace"><text x="760" y="173">SQLSourceNoSpace</text>
</a>
</g>
<path d="M838 169h20"></path>
<path d="M662 169a10 10 0 0 1 10 10v10a10 10 0 0 0 10 10"></path>
<g class="non-terminal ">
<path d="M682 199h29.75"></path>
<path d="M808.25 199h29.75"></path>
<rect x="711.75" y="188" width="96.5" height="22"></rect>
<a xlink:href="#/abap/expression/SQLSource"><text x="760" y="203">SQLSource</text>
</a>
</g>
<path d="M838 199a10 10 0 0 0 10 -10v-10a10 10 0 0 1 10 -10"></path>
</g>
</g>
<path d="M858 169h10"></path>
<path d="M606.5 169a10 10 0 0 0 -10 10v29a10 10 0 0 0 10 10"></path>
<g>
<path d="M606.5 218h251.5"></path>
</g>
<path d="M858 218a10 10 0 0 0 10 -10v-29a10 10 0 0 0 -10 -10"></path>
</g>
<path d="M868 169h20"></path>
</g>
<g>
<path d="M888 169h0"></path>
<path d="M1075.5 169h0"></path>
<path d="M888 169h20"></path>
<g class="terminal ">
<path d="M908 169h4.25"></path>
<path d="M1051.25 169h4.25"></path>
<rect x="912.25" y="158" width="139" height="22" rx="10" ry="10"></rect>
<text x="981.75" y="173">!"WParenRight"</text>
</g>
<path d="M1055.5 169h20"></path>
<path d="M888 169a10 10 0 0 1 10 10v10a10 10 0 0 0 10 10"></path>
<g class="terminal ">
<path d="M908 199h0"></path>
<path d="M1055.5 199h0"></path>
<rect x="908" y="188" width="147.5" height="22" rx="10" ry="10"></rect>
<text x="981.75" y="203">!"WParenRightW"</text>
</g>
<path d="M1055.5 199a10 10 0 0 0 10 -10v-10a10 10 0 0 1 10 -10"></path>
</g>
</g>
</g>
<path d="M1075.5 169a10 10 0 0 0 10 -10v-118a10 10 0 0 1 10 -10"></path>
<path d="M114 31a10 10 0 0 1 10 10v186a10 10 0 0 0 10 10"></path>
<g class="non-terminal ">
<path d="M134 237h422.5"></path>
<path d="M653 237h422.5"></path>
<rect x="556.5" y="226" width="96.5" height="22"></rect>
<a xlink:href="#/abap/expression/SQLSource"><text x="604.75" y="241">SQLSource</text>
</a>
</g>
<path d="M1075.5 237a10 10 0 0 0 10 -10v-186a10 10 0 0 1 10 -10"></path>
</g>
</g>
<path d="M1095.5 31h10"></path>
<path d="M 1105.5 31 h 20 m 0 -10 v 20"></path>
</g>
</svg>
