<svg xmlns="http://www.w3.org/2000/svg" xmlns:xlink="http://www.w3.org/1999/xlink" class="railroad-diagram" width="1249.5" height="88" viewBox="0 0 1249.5 88">
<defs>
<style type="text/css"><![CDATA[
path {
stroke-width: 3;
stroke: black;
fill: rgba(0,0,0,0);
}
text {
font: bold 14px monospace;
text-anchor: middle;
}
text.diagram-text {
font-size: 12px;
}
a {
fill: blue;
}
text.diagram-arrow {
font-size: 16px;
}
text.label {
text-anchor: start;
}
text.comment {
font: italic 12px monospace;
}
rect {
stroke-width: 3;
stroke: black;
fill: #BCBCBC;
}
path.diagram-text {
stroke-width: 3;
stroke: black;
fill: #BCBCBC;
cursor: help;
}
]]></style>
</defs>
<g transform="translate(.5 .5)">
<g>
<path d="M20 38v20m0 -10h20"></path>
</g>
<path d="M40 48h10"></path>
<g>
<path d="M50 48h0"></path>
<path d="M1199.5 48h0"></path>
<g class="terminal">
<path d="M50 48h0"></path>
<path d="M461 48h0"></path>
<rect x="50" y="37" width="411" height="22" rx="10" ry="10"></rect>
<text x="255.5" y="52">^&#38;|&#38;?((\w&#42;\/\w+\/)|(\w&#42;\/\w+\/)?&#91;\w\&#42;$%\?#&#93;+)$</text>
</g>
<path d="M461 48h10"></path>
<g>
<path d="M471 48h0"></path>
<path d="M1071.5 48h0"></path>
<path d="M471 48a10 10 0 0 0 10 -10v-8a10 10 0 0 1 10 -10"></path>
<g>
<path d="M491 20h560.5"></path>
</g>
<path d="M1051.5 20a10 10 0 0 1 10 10v8a10 10 0 0 0 10 10"></path>
<path d="M471 48h20"></path>
<g>
<path d="M491 48h0"></path>
<path d="M1051.5 48h0"></path>
<path d="M491 48h10"></path>
<g>
<path d="M501 48h0"></path>
<path d="M1041.5 48h0"></path>
<g class="terminal">
<path d="M501 48h0"></path>
<path d="M580.5 48h0"></path>
<rect x="501" y="37" width="79.5" height="22" rx="10" ry="10"></rect>
<text x="540.75" y="52">!"Dash"</text>
</g>
<path d="M580.5 48h10"></path>
<g>
<path d="M590.5 48h0"></path>
<path d="M1041.5 48h0"></path>
<path d="M590.5 48a10 10 0 0 0 10 -10v0a10 10 0 0 1 10 -10"></path>
<g>
<path d="M610.5 28h411"></path>
</g>
<path d="M1021.5 28a10 10 0 0 1 10 10v0a10 10 0 0 0 10 10"></path>
<path d="M590.5 48h20"></path>
<g class="terminal">
<path d="M610.5 48h0"></path>
<path d="M1021.5 48h0"></path>
<rect x="610.5" y="37" width="411" height="22" rx="10" ry="10"></rect>
<text x="816" y="52">^&#38;|&#38;?((\w&#42;\/\w+\/)|(\w&#42;\/\w+\/)?&#91;\w\&#42;$%\?#&#93;+)$</text>
</g>
<path d="M1021.5 48h20"></path>
</g>
</g>
<path d="M1041.5 48h10"></path>
<path d="M501 48a10 10 0 0 0 -10 10v0a10 10 0 0 0 10 10"></path>
<g>
<path d="M501 68h540.5"></path>
</g>
<path d="M1041.5 68a10 10 0 0 0 10 -10v0a10 10 0 0 0 -10 -10"></path>
</g>
<path d="M1051.5 48h20"></path>
</g>
<g>
<path d="M1071.5 48h0"></path>
<path d="M1199.5 48h0"></path>
<path d="M1071.5 48a10 10 0 0 0 10 -10v0a10 10 0 0 1 10 -10"></path>
<g>
<path d="M1091.5 28h88"></path>
</g>
<path d="M1179.5 28a10 10 0 0 1 10 10v0a10 10 0 0 0 10 10"></path>
<path d="M1071.5 48h20"></path>
<g class="terminal">
<path d="M1091.5 48h0"></path>
<path d="M1179.5 48h0"></path>
<rect x="1091.5" y="37" width="88" height="22" rx="10" ry="10"></rect>
<text x="1135.5" y="52">!"DashW"</text>
</g>
<path d="M1179.5 48h20"></path>
</g>
</g>
<path d="M1199.5 48h10"></path>
<path d="M 1209.5 48 h 20 m 0 -10 v 20"></path>
</g>
</svg>
