<svg xmlns="http://www.w3.org/2000/svg" xmlns:xlink="http://www.w3.org/1999/xlink" class="railroad-diagram" width="772.5" height="101" viewBox="0 0 772.5 101">
<defs>
<style type="text/css"><![CDATA[
path {
stroke-width: 3;
stroke: black;
fill: rgba(0,0,0,0);
}
text {
font: bold 14px monospace;
text-anchor: middle;
}
text.diagram-text {
font-size: 12px;
}
a {
fill: blue;
}
text.diagram-arrow {
font-size: 16px;
}
text.label {
text-anchor: start;
}
text.comment {
font: italic 12px monospace;
}
rect {
stroke-width: 3;
stroke: black;
fill: #BCBCBC;
}
path.diagram-text {
stroke-width: 3;
stroke: black;
fill: #BCBCBC;
cursor: help;
}
]]></style>
</defs>
<g transform="translate(.5 .5)">
<g>
<path d="M20 30v20m0 -10h20"></path>
</g>
<path d="M40 40h10"></path>
<g>
<path d="M50 40h0"></path>
<path d="M722.5 40h0"></path>
<g>
<path d="M50 40h0"></path>
<path d="M324.5 40h0"></path>
<path d="M50 40a10 10 0 0 0 10 -10v0a10 10 0 0 1 10 -10"></path>
<g>
<path d="M70 20h234.5"></path>
</g>
<path d="M304.5 20a10 10 0 0 1 10 10v0a10 10 0 0 0 10 10"></path>
<path d="M50 40h20"></path>
<g>
<path d="M70 40h0"></path>
<path d="M304.5 40h0"></path>
<g class="terminal">
<path d="M70 40h0"></path>
<path d="M192 40h0"></path>
<rect x="70" y="29" width="122" height="22" rx="10" ry="10"></rect>
<text x="131" y="44">^&#91;\w~\/%$&#93;+$</text>
</g>
<path d="M192 40h10"></path>
<g>
<path d="M202 40h0"></path>
<path d="M304.5 40h0"></path>
<path d="M202 40h20"></path>
<g class="terminal">
<path d="M222 40h0"></path>
<path d="M284.5 40h0"></path>
<rect x="222" y="29" width="62.5" height="22" rx="10" ry="10"></rect>
<text x="253.25" y="44">!"=>"</text>
</g>
<path d="M284.5 40h20"></path>
<path d="M202 40a10 10 0 0 1 10 10v10a10 10 0 0 0 10 10"></path>
<g class="terminal">
<path d="M222 70h0"></path>
<path d="M284.5 70h0"></path>
<rect x="222" y="59" width="62.5" height="22" rx="10" ry="10"></rect>
<text x="253.25" y="74">!"->"</text>
</g>
<path d="M284.5 70a10 10 0 0 0 10 -10v-10a10 10 0 0 1 10 -10"></path>
</g>
</g>
<path d="M304.5 40h20"></path>
</g>
<path d="M324.5 40h10"></path>
<g class="terminal">
<path d="M334.5 40h0"></path>
<path d="M456.5 40h0"></path>
<rect x="334.5" y="29" width="122" height="22" rx="10" ry="10"></rect>
<text x="395.5" y="44">^&#91;\w~\/%$&#93;+$</text>
</g>
<path d="M456.5 40h10"></path>
<g>
<path d="M466.5 40h0"></path>
<path d="M722.5 40h0"></path>
<path d="M466.5 40a10 10 0 0 0 10 -10v0a10 10 0 0 1 10 -10"></path>
<g>
<path d="M486.5 20h216"></path>
</g>
<path d="M702.5 20a10 10 0 0 1 10 10v0a10 10 0 0 0 10 10"></path>
<path d="M466.5 40h20"></path>
<g>
<path d="M486.5 40h0"></path>
<path d="M702.5 40h0"></path>
<path d="M486.5 40h10"></path>
<g>
<path d="M496.5 40h0"></path>
<path d="M692.5 40h0"></path>
<g class="terminal">
<path d="M496.5 40h0"></path>
<path d="M550.5 40h0"></path>
<rect x="496.5" y="29" width="54" height="22" rx="10" ry="10"></rect>
<text x="523.5" y="44">!"-"</text>
</g>
<path d="M550.5 40h10"></path>
<path d="M560.5 40h10"></path>
<g class="terminal">
<path d="M570.5 40h0"></path>
<path d="M692.5 40h0"></path>
<rect x="570.5" y="29" width="122" height="22" rx="10" ry="10"></rect>
<text x="631.5" y="44">^&#91;\w~\/%$&#93;+$</text>
</g>
</g>
<path d="M692.5 40h10"></path>
<path d="M496.5 40a10 10 0 0 0 -10 10v0a10 10 0 0 0 10 10"></path>
<g>
<path d="M496.5 60h196"></path>
</g>
<path d="M692.5 60a10 10 0 0 0 10 -10v0a10 10 0 0 0 -10 -10"></path>
</g>
<path d="M702.5 40h20"></path>
</g>
</g>
<path d="M722.5 40h10"></path>
<path d="M 732.5 40 h 20 m 0 -10 v 20"></path>
</g>
</svg>
