<svg xmlns="http://www.w3.org/2000/svg" xmlns:xlink="http://www.w3.org/1999/xlink" class="railroad-diagram" width="1022" height="101" viewBox="0 0 1022 101">
<defs>
<style type="text/css"><![CDATA[
path {
stroke-width: 3;
stroke: black;
fill: rgba(0,0,0,0);
}
text {
font: bold 14px monospace;
text-anchor: middle;
}
text.diagram-text {
font-size: 12px;
}
a {
fill: blue;
}
text.diagram-arrow {
font-size: 16px;
}
text.label {
text-anchor: start;
}
text.comment {
font: italic 12px monospace;
}
rect {
stroke-width: 3;
stroke: black;
fill: #BCBCBC;
}
path.diagram-text {
stroke-width: 3;
stroke: black;
fill: #BCBCBC;
cursor: help;
}
]]></style>
</defs>
<g transform="translate(.5 .5)">
<g>
<path d="M20 30v20m0 -10h20"></path>
</g>
<path d="M40 40h10"></path>
<g>
<path d="M50 40h0"></path>
<path d="M972 40h0"></path>
<g class="terminal">
<path d="M50 40h0"></path>
<path d="M121 40h0"></path>
<rect x="50" y="29" width="71" height="22" rx="10" ry="10"></rect>
<text x="85.5" y="44">"CAST"</text>
</g>
<path d="M121 40h10"></path>
<path d="M131 40h10"></path>
<g class="terminal">
<path d="M141 40h0"></path>
<path d="M186.5 40h0"></path>
<rect x="141" y="29" width="45.5" height="22" rx="10" ry="10"></rect>
<text x="163.75" y="44">"("</text>
</g>
<path d="M186.5 40h10"></path>
<g>
<path d="M196.5 40h0"></path>
<path d="M700.5 40h0"></path>
<path d="M196.5 40a10 10 0 0 0 10 -10v0a10 10 0 0 1 10 -10"></path>
<g>
<path d="M216.5 20h464"></path>
</g>
<path d="M680.5 20a10 10 0 0 1 10 10v0a10 10 0 0 0 10 10"></path>
<path d="M196.5 40h20"></path>
<g>
<path d="M216.5 40h0"></path>
<path d="M680.5 40h0"></path>
<path d="M216.5 40h20"></path>
<g class="non-terminal">
<path d="M236.5 40h0"></path>
<path d="M358.5 40h302"></path>
<rect x="236.5" y="29" width="122" height="22"></rect>
<a xlink:href="#/abap/expression/SQLFieldName"><text x="297.5" y="44">SQLFieldName</text>
</a>
</g>
<path d="M660.5 40h20"></path>
<path d="M216.5 40a10 10 0 0 1 10 10v10a10 10 0 0 0 10 10"></path>
<g>
<path d="M236.5 70h0"></path>
<path d="M660.5 70h0"></path>
<g>
<path d="M236.5 70h0"></path>
<path d="M393.5 70h0"></path>
<text x="315" y="75" class="comment">v740sp05 or open-abap</text>
</g>
<path d="M393.5 70h10"></path>
<path d="M403.5 70h10"></path>
<g>
<path d="M413.5 70h0"></path>
<path d="M660.5 70h0"></path>
<g class="terminal">
<path d="M413.5 70h0"></path>
<path d="M476 70h0"></path>
<rect x="413.5" y="59" width="62.5" height="22" rx="10" ry="10"></rect>
<text x="444.75" y="74">!" @"</text>
</g>
<path d="M476 70h10"></path>
<path d="M486 70h10"></path>
<g class="non-terminal">
<path d="M496 70h0"></path>
<path d="M660.5 70h0"></path>
<rect x="496" y="59" width="164.5" height="22"></rect>
<a xlink:href="#/abap/expression/SimpleFieldChain2"><text x="578.25" y="74">SimpleFieldChain2</text>
</a>
</g>
</g>
</g>
<path d="M660.5 70a10 10 0 0 0 10 -10v-10a10 10 0 0 1 10 -10"></path>
</g>
<path d="M680.5 40h20"></path>
</g>
<path d="M700.5 40h10"></path>
<g class="terminal">
<path d="M710.5 40h0"></path>
<path d="M764.5 40h0"></path>
<rect x="710.5" y="29" width="54" height="22" rx="10" ry="10"></rect>
<text x="737.5" y="44">"AS"</text>
</g>
<path d="M764.5 40h10"></path>
<path d="M774.5 40h10"></path>
<g class="non-terminal">
<path d="M784.5 40h0"></path>
<path d="M906.5 40h0"></path>
<rect x="784.5" y="29" width="122" height="22"></rect>
<a xlink:href="#/abap/expression/SQLFieldName"><text x="845.5" y="44">SQLFieldName</text>
</a>
</g>
<path d="M906.5 40h10"></path>
<path d="M916.5 40h10"></path>
<g class="terminal">
<path d="M926.5 40h0"></path>
<path d="M972 40h0"></path>
<rect x="926.5" y="29" width="45.5" height="22" rx="10" ry="10"></rect>
<text x="949.25" y="44">")"</text>
</g>
</g>
<path d="M972 40h10"></path>
<path d="M 982 40 h 20 m 0 -10 v 20"></path>
</g>
</svg>
