<svg xmlns="http://www.w3.org/2000/svg" xmlns:xlink="http://www.w3.org/1999/xlink" class="railroad-diagram" width="1907.5" height="239" viewBox="0 0 1907.5 239">
<defs>
<style type="text/css"><![CDATA[
path {
stroke-width: 3;
stroke: black;
fill: rgba(0,0,0,0);
}
text {
font: bold 14px monospace;
text-anchor: middle;
}
text.diagram-text {
font-size: 12px;
}
a {
fill: blue;
}
text.diagram-arrow {
font-size: 16px;
}
text.label {
text-anchor: start;
}
text.comment {
font: italic 12px monospace;
}
rect {
stroke-width: 3;
stroke: black;
fill: #BCBCBC;
}
path.diagram-text {
stroke-width: 3;
stroke: black;
fill: #BCBCBC;
cursor: help;
}
]]></style>
</defs>
<g transform="translate(.5 .5)">
<g>
<path d="M20 30v20m0 -10h20"></path>
</g>
<path d="M40 40h10"></path>
<g>
<path d="M50 40h0"></path>
<path d="M1857.5 40h0"></path>
<g>
<path d="M50 40h0"></path>
<path d="M785.5 40h0"></path>
<path d="M50 40h20"></path>
<g class="non-terminal ">
<path d="M70 40h248.5"></path>
<path d="M517 40h248.5"></path>
<rect x="318.5" y="29" width="198.5" height="22"></rect>
<a xlink:href="#/abap/expression/SQLHierarchyAggregate"><text x="417.75" y="44">SQLHierarchyAggregate</text>
</a>
</g>
<path d="M765.5 40h20"></path>
<path d="M50 40a10 10 0 0 1 10 10v10a10 10 0 0 0 10 10"></path>
<g class="non-terminal ">
<path d="M70 70h252.75"></path>
<path d="M512.75 70h252.75"></path>
<rect x="322.75" y="59" width="190" height="22"></rect>
<a xlink:href="#/abap/expression/SQLHierarchyAccessor"><text x="417.75" y="74">SQLHierarchyAccessor</text>
</a>
</g>
<path d="M765.5 70a10 10 0 0 0 10 -10v-10a10 10 0 0 1 10 -10"></path>
<path d="M50 40a10 10 0 0 1 10 10v40a10 10 0 0 0 10 10"></path>
<g class="non-terminal ">
<path d="M70 100h261.25"></path>
<path d="M504.25 100h261.25"></path>
<rect x="331.25" y="89" width="173" height="22"></rect>
<a xlink:href="#/abap/expression/SQLHierarchySource"><text x="417.75" y="104">SQLHierarchySource</text>
</a>
</g>
<path d="M765.5 100a10 10 0 0 0 10 -10v-40a10 10 0 0 1 10 -10"></path>
<path d="M50 40a10 10 0 0 1 10 10v79a10 10 0 0 0 10 10"></path>
<g>
<path d="M70 139h119.25"></path>
<path d="M646.25 139h119.25"></path>
<g class="non-terminal ">
<path d="M189.25 139h0"></path>
<path d="M277.25 139h0"></path>
<rect x="189.25" y="128" width="88" height="22"></rect>
<a xlink:href="#/abap/expression/WithName"><text x="233.25" y="143">WithName</text>
</a>
</g>
<path d="M277.25 139h10"></path>
<g>
<path d="M287.25 139h0"></path>
<path d="M646.25 139h0"></path>
<path d="M287.25 139a10 10 0 0 0 10 -10v0a10 10 0 0 1 10 -10"></path>
<g>
<path d="M307.25 119h319"></path>
</g>
<path d="M626.25 119a10 10 0 0 1 10 10v0a10 10 0 0 0 10 10"></path>
<path d="M287.25 139h20"></path>
<g>
<path d="M307.25 139h0"></path>
<path d="M626.25 139h0"></path>
<g class="comment ">
<path d="M307.25 139h0"></path>
<path d="M450.25 139h0"></path>
<text x="378.75" y="144" class="comment">not langver=KeyUser</text>
</g>
<path d="M450.25 139h10"></path>
<path d="M460.25 139h10"></path>
<g class="non-terminal ">
<path d="M470.25 139h0"></path>
<path d="M626.25 139h0"></path>
<rect x="470.25" y="128" width="156" height="22"></rect>
<a xlink:href="#/abap/expression/SQLPathForEntity"><text x="548.25" y="143">SQLPathForEntity</text>
</a>
</g>
</g>
<path d="M626.25 139h20"></path>
</g>
</g>
<path d="M765.5 139a10 10 0 0 0 10 -10v-79a10 10 0 0 1 10 -10"></path>
<path d="M50 40a10 10 0 0 1 10 10v118a10 10 0 0 0 10 10"></path>
<g>
<path d="M70 178h0"></path>
<path d="M765.5 178h0"></path>
<g class="non-terminal ">
<path d="M70 178h0"></path>
<path d="M200.5 178h0"></path>
<rect x="70" y="167" width="130.5" height="22"></rect>
<a xlink:href="#/abap/expression/DatabaseTable"><text x="135.25" y="182">DatabaseTable</text>
</a>
</g>
<path d="M200.5 178h10"></path>
<g>
<path d="M210.5 178h0"></path>
<path d="M406.5 178h0"></path>
<path d="M210.5 178a10 10 0 0 0 10 -10v0a10 10 0 0 1 10 -10"></path>
<g>
<path d="M230.5 158h156"></path>
</g>
<path d="M386.5 158a10 10 0 0 1 10 10v0a10 10 0 0 0 10 10"></path>
<path d="M210.5 178h20"></path>
<g class="non-terminal ">
<path d="M230.5 178h0"></path>
<path d="M386.5 178h0"></path>
<rect x="230.5" y="167" width="156" height="22"></rect>
<a xlink:href="#/abap/expression/SQLCDSParameters"><text x="308.5" y="182">SQLCDSParameters</text>
</a>
</g>
<path d="M386.5 178h20"></path>
</g>
<g>
<path d="M406.5 178h0"></path>
<path d="M765.5 178h0"></path>
<path d="M406.5 178a10 10 0 0 0 10 -10v0a10 10 0 0 1 10 -10"></path>
<g>
<path d="M426.5 158h319"></path>
</g>
<path d="M745.5 158a10 10 0 0 1 10 10v0a10 10 0 0 0 10 10"></path>
<path d="M406.5 178h20"></path>
<g>
<path d="M426.5 178h0"></path>
<path d="M745.5 178h0"></path>
<g class="comment ">
<path d="M426.5 178h0"></path>
<path d="M569.5 178h0"></path>
<text x="498" y="183" class="comment">not langver=KeyUser</text>
</g>
<path d="M569.5 178h10"></path>
<path d="M579.5 178h10"></path>
<g class="non-terminal ">
<path d="M589.5 178h0"></path>
<path d="M745.5 178h0"></path>
<rect x="589.5" y="167" width="156" height="22"></rect>
<a xlink:href="#/abap/expression/SQLPathForEntity"><text x="667.5" y="182">SQLPathForEntity</text>
</a>
</g>
</g>
<path d="M745.5 178h20"></path>
</g>
</g>
<path d="M765.5 178a10 10 0 0 0 10 -10v-118a10 10 0 0 1 10 -10"></path>
<path d="M50 40a10 10 0 0 1 10 10v148a10 10 0 0 0 10 10"></path>
<g>
<path d="M70 208h178.75"></path>
<path d="M586.75 208h178.75"></path>
<g class="comment ">
<path d="M248.75 208h0"></path>
<path d="M370.75 208h0"></path>
<text x="309.75" y="213" class="comment">7.69 or OpenABAP</text>
</g>
<path d="M370.75 208h10"></path>
<path d="M380.75 208h10"></path>
<g>
<path d="M390.75 208h0"></path>
<path d="M586.75 208h0"></path>
<g class="terminal ">
<path d="M390.75 208h0"></path>
<path d="M461.75 208h0"></path>
<rect x="390.75" y="197" width="71" height="22" rx="10" ry="10"></rect>
<text x="426.25" y="212">!"WAt"</text>
</g>
<path d="M461.75 208h10"></path>
<path d="M471.75 208h10"></path>
<g class="non-terminal ">
<path d="M481.75 208h0"></path>
<path d="M586.75 208h0"></path>
<rect x="481.75" y="197" width="105" height="22"></rect>
<a xlink:href="#/abap/expression/FieldChain"><text x="534.25" y="212">FieldChain</text>
</a>
</g>
</g>
</g>
<path d="M765.5 208a10 10 0 0 0 10 -10v-148a10 10 0 0 1 10 -10"></path>
</g>
<g>
<path d="M785.5 40h0"></path>
<path d="M1014 40h0"></path>
<path d="M785.5 40a10 10 0 0 0 10 -10v0a10 10 0 0 1 10 -10"></path>
<g>
<path d="M805.5 20h188.5"></path>
</g>
<path d="M994 20a10 10 0 0 1 10 10v0a10 10 0 0 0 10 10"></path>
<path d="M785.5 40h20"></path>
<g>
<path d="M805.5 40h0"></path>
<path d="M994 40h0"></path>
<g class="comment ">
<path d="M805.5 40h0"></path>
<path d="M843.5 40h0"></path>
<text x="824.5" y="45" class="comment">7.96</text>
</g>
<path d="M843.5 40h10"></path>
<path d="M853.5 40h10"></path>
<g class="non-terminal ">
<path d="M863.5 40h0"></path>
<path d="M994 40h0"></path>
<rect x="863.5" y="29" width="130.5" height="22"></rect>
<a xlink:href="#/abap/expression/SQLProvidedBy"><text x="928.75" y="44">SQLProvidedBy</text>
</a>
</g>
</g>
<path d="M994 40h20"></path>
</g>
<g>
<path d="M1014 40h0"></path>
<path d="M1384.5 40h0"></path>
<path d="M1014 40a10 10 0 0 0 10 -10v0a10 10 0 0 1 10 -10"></path>
<g>
<path d="M1034 20h330.5"></path>
</g>
<path d="M1364.5 20a10 10 0 0 1 10 10v0a10 10 0 0 0 10 10"></path>
<path d="M1014 40h20"></path>
<g>
<path d="M1034 40h0"></path>
<path d="M1364.5 40h0"></path>
<g class="comment ">
<path d="M1034 40h0"></path>
<path d="M1072 40h0"></path>
<text x="1053" y="45" class="comment">7.69</text>
</g>
<path d="M1072 40h10"></path>
<path d="M1082 40h10"></path>
<g>
<path d="M1092 40h0"></path>
<path d="M1364.5 40h0"></path>
<g class="terminal ">
<path d="M1092 40h0"></path>
<path d="M1163 40h0"></path>
<rect x="1092" y="29" width="71" height="22" rx="10" ry="10"></rect>
<text x="1127.5" y="44">"WITH"</text>
</g>
<path d="M1163 40h10"></path>
<path d="M1173 40h10"></path>
<g class="non-terminal ">
<path d="M1183 40h0"></path>
<path d="M1364.5 40h0"></path>
<rect x="1183" y="29" width="181.5" height="22"></rect>
<a xlink:href="#/abap/expression/SQLPrivilegedAccess"><text x="1273.75" y="44">SQLPrivilegedAccess</text>
</a>
</g>
</g>
</g>
<path d="M1364.5 40h20"></path>
</g>
<g>
<path d="M1384.5 40h0"></path>
<path d="M1595 40h0"></path>
<path d="M1384.5 40a10 10 0 0 0 10 -10v0a10 10 0 0 1 10 -10"></path>
<g>
<path d="M1404.5 20h170.5"></path>
</g>
<path d="M1575 20a10 10 0 0 1 10 10v0a10 10 0 0 0 10 10"></path>
<path d="M1384.5 40h20"></path>
<g>
<path d="M1404.5 40h0"></path>
<path d="M1575 40h0"></path>
<g class="terminal ">
<path d="M1404.5 40h0"></path>
<path d="M1458.5 40h0"></path>
<rect x="1404.5" y="29" width="54" height="22" rx="10" ry="10"></rect>
<text x="1431.5" y="44">"AS"</text>
</g>
<path d="M1458.5 40h10"></path>
<path d="M1468.5 40h10"></path>
<g class="non-terminal ">
<path d="M1478.5 40h0"></path>
<path d="M1575 40h0"></path>
<rect x="1478.5" y="29" width="96.5" height="22"></rect>
<a xlink:href="#/abap/expression/SQLAsName"><text x="1526.75" y="44">SQLAsName</text>
</a>
</g>
</g>
<path d="M1575 40h20"></path>
</g>
<g>
<path d="M1595 40h0"></path>
<path d="M1857.5 40h0"></path>
<path d="M1595 40a10 10 0 0 0 10 -10v0a10 10 0 0 1 10 -10"></path>
<g>
<path d="M1615 20h222.5"></path>
</g>
<path d="M1837.5 20a10 10 0 0 1 10 10v0a10 10 0 0 0 10 10"></path>
<path d="M1595 40h20"></path>
<g>
<path d="M1615 40h0"></path>
<path d="M1837.5 40h0"></path>
<g class="comment ">
<path d="M1615 40h0"></path>
<path d="M1653 40h0"></path>
<text x="1634" y="45" class="comment">9.13</text>
</g>
<path d="M1653 40h10"></path>
<path d="M1663 40h10"></path>
<g class="non-terminal ">
<path d="M1673 40h0"></path>
<path d="M1837.5 40h0"></path>
<rect x="1673" y="29" width="164.5" height="22"></rect>
<a xlink:href="#/abap/expression/SQLExposeClientAs"><text x="1755.25" y="44">SQLExposeClientAs</text>
</a>
</g>
</g>
<path d="M1837.5 40h20"></path>
</g>
</g>
<path d="M1857.5 40h10"></path>
<path d="M 1867.5 40 h 20 m 0 -10 v 20"></path>
</g>
</svg>
