<svg xmlns="http://www.w3.org/2000/svg" xmlns:xlink="http://www.w3.org/1999/xlink" class="railroad-diagram" width="2000.5" height="245" viewBox="0 0 2000.5 245">
<defs>
<style type="text/css"><![CDATA[
path {
stroke-width: 3;
stroke: black;
fill: rgba(0,0,0,0);
}
text {
font: bold 14px monospace;
text-anchor: middle;
}
text.diagram-text {
font-size: 12px;
}
a {
fill: blue;
}
text.diagram-arrow {
font-size: 16px;
}
text.label {
text-anchor: start;
}
text.comment {
font: italic 12px monospace;
}
rect {
stroke-width: 3;
stroke: black;
fill: #BCBCBC;
}
path.diagram-text {
stroke-width: 3;
stroke: black;
fill: #BCBCBC;
cursor: help;
}
]]></style>
</defs>
<g transform="translate(.5 .5)">
<g>
<path d="M20 38v20m0 -10h20"></path>
</g>
<path d="M40 48h10"></path>
<g>
<path d="M50 48h0"></path>
<path d="M1950.5 48h0"></path>
<g>
<path d="M50 48h0"></path>
<path d="M116 48h0"></path>
<text x="83" y="53" class="comment">v740sp05</text>
</g>
<path d="M116 48h10"></path>
<path d="M126 48h10"></path>
<g>
<path d="M136 48h0"></path>
<path d="M1950.5 48h0"></path>
<g class="terminal">
<path d="M136 48h0"></path>
<path d="M207 48h0"></path>
<rect x="136" y="37" width="71" height="22" rx="10" ry="10"></rect>
<text x="171.5" y="52">"CASE"</text>
</g>
<path d="M207 48h10"></path>
<g>
<path d="M217 48h0"></path>
<path d="M379 48h0"></path>
<path d="M217 48a10 10 0 0 0 10 -10v0a10 10 0 0 1 10 -10"></path>
<g>
<path d="M237 28h122"></path>
</g>
<path d="M359 28a10 10 0 0 1 10 10v0a10 10 0 0 0 10 10"></path>
<path d="M217 48h20"></path>
<g class="non-terminal">
<path d="M237 48h0"></path>
<path d="M359 48h0"></path>
<rect x="237" y="37" width="122" height="22"></rect>
<a xlink:href="#/abap/expression/SQLFieldName"><text x="298" y="52">SQLFieldName</text>
</a>
</g>
<path d="M359 48h20"></path>
</g>
<path d="M379 48h10"></path>
<g>
<path d="M389 48h0"></path>
<path d="M1568 48h0"></path>
<path d="M389 48h10"></path>
<g>
<path d="M399 48h0"></path>
<path d="M1558 48h0"></path>
<g class="terminal">
<path d="M399 48h0"></path>
<path d="M470 48h0"></path>
<rect x="399" y="37" width="71" height="22" rx="10" ry="10"></rect>
<text x="434.5" y="52">"WHEN"</text>
</g>
<path d="M470 48h10"></path>
<g>
<path d="M480 48h0"></path>
<path d="M733 48h0"></path>
<path d="M480 48h20"></path>
<g class="non-terminal">
<path d="M500 48h0"></path>
<path d="M579.5 48h133.5"></path>
<rect x="500" y="37" width="79.5" height="22"></rect>
<a xlink:href="#/abap/expression/SQLCond"><text x="539.75" y="52">SQLCond</text>
</a>
</g>
<path d="M713 48h20"></path>
<path d="M480 48a10 10 0 0 1 10 10v10a10 10 0 0 0 10 10"></path>
<g class="non-terminal">
<path d="M500 78h0"></path>
<path d="M588 78h125"></path>
<rect x="500" y="67" width="88" height="22"></rect>
<a xlink:href="#/abap/expression/Constant"><text x="544" y="82">Constant</text>
</a>
</g>
<path d="M713 78a10 10 0 0 0 10 -10v-10a10 10 0 0 1 10 -10"></path>
<path d="M480 48a10 10 0 0 1 10 10v40a10 10 0 0 0 10 10"></path>
<g>
<path d="M500 108h0"></path>
<path d="M713 108h0"></path>
<g class="terminal">
<path d="M500 108h0"></path>
<path d="M562.5 108h0"></path>
<rect x="500" y="97" width="62.5" height="22" rx="10" ry="10"></rect>
<text x="531.25" y="112">!" @"</text>
</g>
<path d="M562.5 108h10"></path>
<path d="M572.5 108h10"></path>
<g class="non-terminal">
<path d="M582.5 108h0"></path>
<path d="M713 108h0"></path>
<rect x="582.5" y="97" width="130.5" height="22"></rect>
<a xlink:href="#/abap/expression/SimpleSource3"><text x="647.75" y="112">SimpleSource3</text>
</a>
</g>
</g>
<path d="M713 108a10 10 0 0 0 10 -10v-40a10 10 0 0 1 10 -10"></path>
</g>
<path d="M733 48h10"></path>
<g class="terminal">
<path d="M743 48h0"></path>
<path d="M814 48h0"></path>
<rect x="743" y="37" width="71" height="22" rx="10" ry="10"></rect>
<text x="778.5" y="52">"THEN"</text>
</g>
<path d="M814 48h10"></path>
<g>
<path d="M824 48h0"></path>
<path d="M1003 48h0"></path>
<path d="M824 48h20"></path>
<g class="non-terminal">
<path d="M844 48h0"></path>
<path d="M923.5 48h59.5"></path>
<rect x="844" y="37" width="79.5" height="22"></rect>
<a xlink:href="#/abap/expression/SQLCase"><text x="883.75" y="52">SQLCase</text>
</a>
</g>
<path d="M983 48h20"></path>
<path d="M824 48a10 10 0 0 1 10 10v10a10 10 0 0 0 10 10"></path>
<g class="non-terminal">
<path d="M844 78h0"></path>
<path d="M983 78h0"></path>
<rect x="844" y="67" width="139" height="22"></rect>
<a xlink:href="#/abap/expression/SQLAggregation"><text x="913.5" y="82">SQLAggregation</text>
</a>
</g>
<path d="M983 78a10 10 0 0 0 10 -10v-10a10 10 0 0 1 10 -10"></path>
<path d="M824 48a10 10 0 0 1 10 10v40a10 10 0 0 0 10 10"></path>
<g class="non-terminal">
<path d="M844 108h0"></path>
<path d="M957.5 108h25.5"></path>
<rect x="844" y="97" width="113.5" height="22"></rect>
<a xlink:href="#/abap/expression/SQLFunction"><text x="900.75" y="112">SQLFunction</text>
</a>
</g>
<path d="M983 108a10 10 0 0 0 10 -10v-40a10 10 0 0 1 10 -10"></path>
<path d="M824 48a10 10 0 0 1 10 10v70a10 10 0 0 0 10 10"></path>
<g class="non-terminal">
<path d="M844 138h0"></path>
<path d="M940.5 138h42.5"></path>
<rect x="844" y="127" width="96.5" height="22"></rect>
<a xlink:href="#/abap/expression/SQLSource"><text x="892.25" y="142">SQLSource</text>
</a>
</g>
<path d="M983 138a10 10 0 0 0 10 -10v-70a10 10 0 0 1 10 -10"></path>
<path d="M824 48a10 10 0 0 1 10 10v100a10 10 0 0 0 10 10"></path>
<g class="non-terminal">
<path d="M844 168h0"></path>
<path d="M932 168h51"></path>
<rect x="844" y="157" width="88" height="22"></rect>
<a xlink:href="#/abap/expression/Constant"><text x="888" y="172">Constant</text>
</a>
</g>
<path d="M983 168a10 10 0 0 0 10 -10v-100a10 10 0 0 1 10 -10"></path>
</g>
<g>
<path d="M1003 48h0"></path>
<path d="M1558 48h0"></path>
<path d="M1003 48a10 10 0 0 0 10 -10v-8a10 10 0 0 1 10 -10"></path>
<g>
<path d="M1023 20h515"></path>
</g>
<path d="M1538 20a10 10 0 0 1 10 10v8a10 10 0 0 0 10 10"></path>
<path d="M1003 48h20"></path>
<g>
<path d="M1023 48h0"></path>
<path d="M1538 48h0"></path>
<path d="M1023 48h10"></path>
<g>
<path d="M1033 48h0"></path>
<path d="M1528 48h0"></path>
<g>
<path d="M1033 48h0"></path>
<path d="M1127 48h0"></path>
<path d="M1033 48h20"></path>
<g class="terminal">
<path d="M1053 48h0"></path>
<path d="M1098.5 48h8.5"></path>
<rect x="1053" y="37" width="45.5" height="22" rx="10" ry="10"></rect>
<text x="1075.75" y="52">"+"</text>
</g>
<path d="M1107 48h20"></path>
<path d="M1033 48a10 10 0 0 1 10 10v10a10 10 0 0 0 10 10"></path>
<g class="terminal">
<path d="M1053 78h0"></path>
<path d="M1098.5 78h8.5"></path>
<rect x="1053" y="67" width="45.5" height="22" rx="10" ry="10"></rect>
<text x="1075.75" y="82">"-"</text>
</g>
<path d="M1107 78a10 10 0 0 0 10 -10v-10a10 10 0 0 1 10 -10"></path>
<path d="M1033 48a10 10 0 0 1 10 10v40a10 10 0 0 0 10 10"></path>
<g class="terminal">
<path d="M1053 108h0"></path>
<path d="M1098.5 108h8.5"></path>
<rect x="1053" y="97" width="45.5" height="22" rx="10" ry="10"></rect>
<text x="1075.75" y="112">"&#42;"</text>
</g>
<path d="M1107 108a10 10 0 0 0 10 -10v-40a10 10 0 0 1 10 -10"></path>
<path d="M1033 48a10 10 0 0 1 10 10v70a10 10 0 0 0 10 10"></path>
<g class="terminal">
<path d="M1053 138h0"></path>
<path d="M1098.5 138h8.5"></path>
<rect x="1053" y="127" width="45.5" height="22" rx="10" ry="10"></rect>
<text x="1075.75" y="142">"/"</text>
</g>
<path d="M1107 138a10 10 0 0 0 10 -10v-70a10 10 0 0 1 10 -10"></path>
<path d="M1033 48a10 10 0 0 1 10 10v100a10 10 0 0 0 10 10"></path>
<g class="terminal">
<path d="M1053 168h0"></path>
<path d="M1107 168h0"></path>
<rect x="1053" y="157" width="54" height="22" rx="10" ry="10"></rect>
<text x="1080" y="172">"&#38;&#38;"</text>
</g>
<path d="M1107 168a10 10 0 0 0 10 -10v-100a10 10 0 0 1 10 -10"></path>
</g>
<g>
<path d="M1127 48h0"></path>
<path d="M1238 48h0"></path>
<path d="M1127 48a10 10 0 0 0 10 -10v0a10 10 0 0 1 10 -10"></path>
<g>
<path d="M1147 28h71"></path>
</g>
<path d="M1218 28a10 10 0 0 1 10 10v0a10 10 0 0 0 10 10"></path>
<path d="M1127 48h20"></path>
<g class="terminal">
<path d="M1147 48h0"></path>
<path d="M1218 48h0"></path>
<rect x="1147" y="37" width="71" height="22" rx="10" ry="10"></rect>
<text x="1182.5" y="52">!" ( "</text>
</g>
<path d="M1218 48h20"></path>
</g>
<g>
<path d="M1238 48h0"></path>
<path d="M1417 48h0"></path>
<path d="M1238 48h20"></path>
<g class="non-terminal">
<path d="M1258 48h0"></path>
<path d="M1397 48h0"></path>
<rect x="1258" y="37" width="139" height="22"></rect>
<a xlink:href="#/abap/expression/SQLAggregation"><text x="1327.5" y="52">SQLAggregation</text>
</a>
</g>
<path d="M1397 48h20"></path>
<path d="M1238 48a10 10 0 0 1 10 10v10a10 10 0 0 0 10 10"></path>
<g class="non-terminal">
<path d="M1258 78h0"></path>
<path d="M1337.5 78h59.5"></path>
<rect x="1258" y="67" width="79.5" height="22"></rect>
<a xlink:href="#/abap/expression/SQLCase"><text x="1297.75" y="82">SQLCase</text>
</a>
</g>
<path d="M1397 78a10 10 0 0 0 10 -10v-10a10 10 0 0 1 10 -10"></path>
<path d="M1238 48a10 10 0 0 1 10 10v40a10 10 0 0 0 10 10"></path>
<g class="non-terminal">
<path d="M1258 108h0"></path>
<path d="M1371.5 108h25.5"></path>
<rect x="1258" y="97" width="113.5" height="22"></rect>
<a xlink:href="#/abap/expression/SQLFunction"><text x="1314.75" y="112">SQLFunction</text>
</a>
</g>
<path d="M1397 108a10 10 0 0 0 10 -10v-40a10 10 0 0 1 10 -10"></path>
<path d="M1238 48a10 10 0 0 1 10 10v70a10 10 0 0 0 10 10"></path>
<g class="non-terminal">
<path d="M1258 138h0"></path>
<path d="M1337.5 138h59.5"></path>
<rect x="1258" y="127" width="79.5" height="22"></rect>
<a xlink:href="#/abap/expression/SQLPath"><text x="1297.75" y="142">SQLPath</text>
</a>
</g>
<path d="M1397 138a10 10 0 0 0 10 -10v-70a10 10 0 0 1 10 -10"></path>
<path d="M1238 48a10 10 0 0 1 10 10v100a10 10 0 0 0 10 10"></path>
<g class="non-terminal">
<path d="M1258 168h0"></path>
<path d="M1380 168h17"></path>
<rect x="1258" y="157" width="122" height="22"></rect>
<a xlink:href="#/abap/expression/SQLFieldName"><text x="1319" y="172">SQLFieldName</text>
</a>
</g>
<path d="M1397 168a10 10 0 0 0 10 -10v-100a10 10 0 0 1 10 -10"></path>
<path d="M1238 48a10 10 0 0 1 10 10v130a10 10 0 0 0 10 10"></path>
<g class="non-terminal">
<path d="M1258 198h0"></path>
<path d="M1346 198h51"></path>
<rect x="1258" y="187" width="88" height="22"></rect>
<a xlink:href="#/abap/expression/Constant"><text x="1302" y="202">Constant</text>
</a>
</g>
<path d="M1397 198a10 10 0 0 0 10 -10v-130a10 10 0 0 1 10 -10"></path>
</g>
<g>
<path d="M1417 48h0"></path>
<path d="M1528 48h0"></path>
<path d="M1417 48a10 10 0 0 0 10 -10v0a10 10 0 0 1 10 -10"></path>
<g>
<path d="M1437 28h71"></path>
</g>
<path d="M1508 28a10 10 0 0 1 10 10v0a10 10 0 0 0 10 10"></path>
<path d="M1417 48h20"></path>
<g class="terminal">
<path d="M1437 48h0"></path>
<path d="M1508 48h0"></path>
<rect x="1437" y="37" width="71" height="22" rx="10" ry="10"></rect>
<text x="1472.5" y="52">!" ) "</text>
</g>
<path d="M1508 48h20"></path>
</g>
</g>
<path d="M1528 48h10"></path>
<path d="M1033 48a10 10 0 0 0 -10 10v149a10 10 0 0 0 10 10"></path>
<g>
<path d="M1033 217h495"></path>
</g>
<path d="M1528 217a10 10 0 0 0 10 -10v-149a10 10 0 0 0 -10 -10"></path>
</g>
<path d="M1538 48h20"></path>
</g>
</g>
<path d="M1558 48h10"></path>
<path d="M399 48a10 10 0 0 0 -10 10v157a10 10 0 0 0 10 10"></path>
<g>
<path d="M399 225h1159"></path>
</g>
<path d="M1558 225a10 10 0 0 0 10 -10v-157a10 10 0 0 0 -10 -10"></path>
</g>
<path d="M1568 48h10"></path>
<g>
<path d="M1578 48h0"></path>
<path d="M1878 48h0"></path>
<path d="M1578 48a10 10 0 0 0 10 -10v0a10 10 0 0 1 10 -10"></path>
<g>
<path d="M1598 28h260"></path>
</g>
<path d="M1858 28a10 10 0 0 1 10 10v0a10 10 0 0 0 10 10"></path>
<path d="M1578 48h20"></path>
<g>
<path d="M1598 48h0"></path>
<path d="M1858 48h0"></path>
<g class="terminal">
<path d="M1598 48h0"></path>
<path d="M1669 48h0"></path>
<rect x="1598" y="37" width="71" height="22" rx="10" ry="10"></rect>
<text x="1633.5" y="52">"ELSE"</text>
</g>
<path d="M1669 48h10"></path>
<g>
<path d="M1679 48h0"></path>
<path d="M1858 48h0"></path>
<path d="M1679 48h20"></path>
<g class="non-terminal">
<path d="M1699 48h0"></path>
<path d="M1778.5 48h59.5"></path>
<rect x="1699" y="37" width="79.5" height="22"></rect>
<a xlink:href="#/abap/expression/SQLCase"><text x="1738.75" y="52">SQLCase</text>
</a>
</g>
<path d="M1838 48h20"></path>
<path d="M1679 48a10 10 0 0 1 10 10v10a10 10 0 0 0 10 10"></path>
<g class="non-terminal">
<path d="M1699 78h0"></path>
<path d="M1838 78h0"></path>
<rect x="1699" y="67" width="139" height="22"></rect>
<a xlink:href="#/abap/expression/SQLAggregation"><text x="1768.5" y="82">SQLAggregation</text>
</a>
</g>
<path d="M1838 78a10 10 0 0 0 10 -10v-10a10 10 0 0 1 10 -10"></path>
<path d="M1679 48a10 10 0 0 1 10 10v40a10 10 0 0 0 10 10"></path>
<g class="non-terminal">
<path d="M1699 108h0"></path>
<path d="M1812.5 108h25.5"></path>
<rect x="1699" y="97" width="113.5" height="22"></rect>
<a xlink:href="#/abap/expression/SQLFunction"><text x="1755.75" y="112">SQLFunction</text>
</a>
</g>
<path d="M1838 108a10 10 0 0 0 10 -10v-40a10 10 0 0 1 10 -10"></path>
<path d="M1679 48a10 10 0 0 1 10 10v70a10 10 0 0 0 10 10"></path>
<g class="non-terminal">
<path d="M1699 138h0"></path>
<path d="M1795.5 138h42.5"></path>
<rect x="1699" y="127" width="96.5" height="22"></rect>
<a xlink:href="#/abap/expression/SQLSource"><text x="1747.25" y="142">SQLSource</text>
</a>
</g>
<path d="M1838 138a10 10 0 0 0 10 -10v-70a10 10 0 0 1 10 -10"></path>
<path d="M1679 48a10 10 0 0 1 10 10v100a10 10 0 0 0 10 10"></path>
<g class="non-terminal">
<path d="M1699 168h0"></path>
<path d="M1787 168h51"></path>
<rect x="1699" y="157" width="88" height="22"></rect>
<a xlink:href="#/abap/expression/Constant"><text x="1743" y="172">Constant</text>
</a>
</g>
<path d="M1838 168a10 10 0 0 0 10 -10v-100a10 10 0 0 1 10 -10"></path>
</g>
</g>
<path d="M1858 48h20"></path>
</g>
<path d="M1878 48h10"></path>
<g class="terminal">
<path d="M1888 48h0"></path>
<path d="M1950.5 48h0"></path>
<rect x="1888" y="37" width="62.5" height="22" rx="10" ry="10"></rect>
<text x="1919.25" y="52">"END"</text>
</g>
</g>
</g>
<path d="M1950.5 48h10"></path>
<path d="M 1960.5 48 h 20 m 0 -10 v 20"></path>
</g>
</svg>
