<svg xmlns="http://www.w3.org/2000/svg" xmlns:xlink="http://www.w3.org/1999/xlink" class="railroad-diagram" width="703" height="71" viewBox="0 0 703 71">
<defs>
<style type="text/css"><![CDATA[
path {
stroke-width: 3;
stroke: black;
fill: rgba(0,0,0,0);
}
text {
font: bold 14px monospace;
text-anchor: middle;
}
text.diagram-text {
font-size: 12px;
}
a {
fill: blue;
}
text.diagram-arrow {
font-size: 16px;
}
text.label {
text-anchor: start;
}
text.comment {
font: italic 12px monospace;
}
rect {
stroke-width: 3;
stroke: black;
fill: #BCBCBC;
}
path.diagram-text {
stroke-width: 3;
stroke: black;
fill: #BCBCBC;
cursor: help;
}
]]></style>
</defs>
<g transform="translate(.5 .5)">
<g>
<path d="M20 30v20m0 -10h20"></path>
</g>
<path d="M40 40h10"></path>
<g>
<path d="M50 40h0"></path>
<path d="M653 40h0"></path>
<g class="terminal">
<path d="M50 40h0"></path>
<path d="M155 40h0"></path>
<rect x="50" y="29" width="105" height="22" rx="10" ry="10"></rect>
<text x="102.5" y="44">"LINES OF"</text>
</g>
<path d="M155 40h10"></path>
<path d="M165 40h10"></path>
<g class="non-terminal">
<path d="M175 40h0"></path>
<path d="M246 40h0"></path>
<rect x="175" y="29" width="71" height="22"></rect>
<a xlink:href="#/abap/expression/Source"><text x="210.5" y="44">Source</text>
</a>
</g>
<path d="M246 40h10"></path>
<path d="M256 40h10"></path>
<g>
<path d="M266 40h0"></path>
<path d="M653 40h0"></path>
<g>
<path d="M266 40h0"></path>
<path d="M468 40h0"></path>
<path d="M266 40a10 10 0 0 0 10 -10v0a10 10 0 0 1 10 -10"></path>
<g>
<path d="M286 20h162"></path>
</g>
<path d="M448 20a10 10 0 0 1 10 10v0a10 10 0 0 0 10 10"></path>
<path d="M266 40h20"></path>
<g>
<path d="M286 40h0"></path>
<path d="M448 40h0"></path>
<g class="terminal">
<path d="M286 40h0"></path>
<path d="M357 40h0"></path>
<rect x="286" y="29" width="71" height="22" rx="10" ry="10"></rect>
<text x="321.5" y="44">"FROM"</text>
</g>
<path d="M357 40h10"></path>
<path d="M367 40h10"></path>
<g class="non-terminal">
<path d="M377 40h0"></path>
<path d="M448 40h0"></path>
<rect x="377" y="29" width="71" height="22"></rect>
<a xlink:href="#/abap/expression/Source"><text x="412.5" y="44">Source</text>
</a>
</g>
</g>
<path d="M448 40h20"></path>
</g>
<g>
<path d="M468 40h0"></path>
<path d="M653 40h0"></path>
<path d="M468 40a10 10 0 0 0 10 -10v0a10 10 0 0 1 10 -10"></path>
<g>
<path d="M488 20h145"></path>
</g>
<path d="M633 20a10 10 0 0 1 10 10v0a10 10 0 0 0 10 10"></path>
<path d="M468 40h20"></path>
<g>
<path d="M488 40h0"></path>
<path d="M633 40h0"></path>
<g class="terminal">
<path d="M488 40h0"></path>
<path d="M542 40h0"></path>
<rect x="488" y="29" width="54" height="22" rx="10" ry="10"></rect>
<text x="515" y="44">"TO"</text>
</g>
<path d="M542 40h10"></path>
<path d="M552 40h10"></path>
<g class="non-terminal">
<path d="M562 40h0"></path>
<path d="M633 40h0"></path>
<rect x="562" y="29" width="71" height="22"></rect>
<a xlink:href="#/abap/expression/Source"><text x="597.5" y="44">Source</text>
</a>
</g>
</g>
<path d="M633 40h20"></path>
</g>
</g>
</g>
<path d="M653 40h10"></path>
<path d="M 663 40 h 20 m 0 -10 v 20"></path>
</g>
</svg>
