<svg xmlns="http://www.w3.org/2000/svg" xmlns:xlink="http://www.w3.org/1999/xlink" class="railroad-diagram" width="547.5" height="80" viewBox="0 0 547.5 80">
<defs>
<style type="text/css"><![CDATA[
path {
stroke-width: 3;
stroke: black;
fill: rgba(0,0,0,0);
}
text {
font: bold 14px monospace;
text-anchor: middle;
}
text.diagram-text {
font-size: 12px;
}
a {
fill: blue;
}
text.diagram-arrow {
font-size: 16px;
}
text.label {
text-anchor: start;
}
text.comment {
font: italic 12px monospace;
}
rect {
stroke-width: 3;
stroke: black;
fill: #BCBCBC;
}
path.diagram-text {
stroke-width: 3;
stroke: black;
fill: #BCBCBC;
cursor: help;
}
]]></style>
</defs>
<g transform="translate(.5 .5)">
<g>
<path d="M20 30v20m0 -10h20"></path>
</g>
<path d="M40 40h10"></path>
<g>
<path d="M50 40h0"></path>
<path d="M497.5 40h0"></path>
<g class="terminal">
<path d="M50 40h0"></path>
<path d="M189 40h0"></path>
<rect x="50" y="29" width="139" height="22" rx="10" ry="10"></rect>
<text x="119.5" y="44">^&#91;\w$&#38;\&#42;%\/&#93;+$</text>
</g>
<path d="M189 40h10"></path>
<g>
<path d="M199 40h0"></path>
<path d="M497.5 40h0"></path>
<path d="M199 40a10 10 0 0 0 10 -10v0a10 10 0 0 1 10 -10"></path>
<g>
<path d="M219 20h258.5"></path>
</g>
<path d="M477.5 20a10 10 0 0 1 10 10v0a10 10 0 0 0 10 10"></path>
<path d="M199 40h20"></path>
<g>
<path d="M219 40h0"></path>
<path d="M477.5 40h0"></path>
<path d="M219 40h10"></path>
<g>
<path d="M229 40h0"></path>
<path d="M467.5 40h0"></path>
<g class="terminal">
<path d="M229 40h0"></path>
<path d="M308.5 40h0"></path>
<rect x="229" y="29" width="79.5" height="22" rx="10" ry="10"></rect>
<text x="268.75" y="44">!"Dash"</text>
</g>
<path d="M308.5 40h10"></path>
<path d="M318.5 40h10"></path>
<g class="terminal">
<path d="M328.5 40h0"></path>
<path d="M467.5 40h0"></path>
<rect x="328.5" y="29" width="139" height="22" rx="10" ry="10"></rect>
<text x="398" y="44">^&#91;\w$&#38;\&#42;%\/&#93;+$</text>
</g>
</g>
<path d="M467.5 40h10"></path>
<path d="M229 40a10 10 0 0 0 -10 10v0a10 10 0 0 0 10 10"></path>
<g>
<path d="M229 60h238.5"></path>
</g>
<path d="M467.5 60a10 10 0 0 0 10 -10v0a10 10 0 0 0 -10 -10"></path>
</g>
<path d="M477.5 40h20"></path>
</g>
</g>
<path d="M497.5 40h10"></path>
<path d="M 507.5 40 h 20 m 0 -10 v 20"></path>
</g>
</svg>
