<svg xmlns="http://www.w3.org/2000/svg" xmlns:xlink="http://www.w3.org/1999/xlink" class="railroad-diagram" width="952.5" height="131" viewBox="0 0 952.5 131">
<defs>
<style type="text/css"><![CDATA[
path {
stroke-width: 3;
stroke: black;
fill: rgba(0,0,0,0);
}
text {
font: bold 14px monospace;
text-anchor: middle;
}
text.diagram-text {
font-size: 12px;
}
a {
fill: blue;
}
text.diagram-arrow {
font-size: 16px;
}
text.label {
text-anchor: start;
}
text.comment {
font: italic 12px monospace;
}
rect {
stroke-width: 3;
stroke: black;
fill: #BCBCBC;
}
path.diagram-text {
stroke-width: 3;
stroke: black;
fill: #BCBCBC;
cursor: help;
}
]]></style>
</defs>
<g transform="translate(.5 .5)">
<g>
<path d="M20 30v20m0 -10h20"></path>
</g>
<path d="M40 40h10"></path>
<g>
<path d="M50 40h0"></path>
<path d="M902.5 40h0"></path>
<g>
<path d="M50 40h0"></path>
<path d="M496 40h0"></path>
<path d="M50 40h20"></path>
<g>
<path d="M70 40h0"></path>
<path d="M476 40h0"></path>
<g class="non-terminal">
<path d="M70 40h0"></path>
<path d="M166.5 40h0"></path>
<rect x="70" y="29" width="96.5" height="22"></rect>
<a xlink:href="#/abap/expression/ClassName"><text x="118.25" y="44">ClassName</text>
</a>
</g>
<path d="M166.5 40h10"></path>
<path d="M176.5 40h10"></path>
<g class="terminal">
<path d="M186.5 40h0"></path>
<path d="M325.5 40h0"></path>
<rect x="186.5" y="29" width="139" height="22" rx="10" ry="10"></rect>
<text x="256" y="44">!"StaticArrow"</text>
</g>
<path d="M325.5 40h10"></path>
<path d="M335.5 40h10"></path>
<g class="non-terminal">
<path d="M345.5 40h0"></path>
<path d="M476 40h0"></path>
<rect x="345.5" y="29" width="130.5" height="22"></rect>
<a xlink:href="#/abap/expression/AttributeName"><text x="410.75" y="44">AttributeName</text>
</a>
</g>
</g>
<path d="M476 40h20"></path>
<path d="M50 40a10 10 0 0 1 10 10v10a10 10 0 0 0 10 10"></path>
<g class="non-terminal">
<path d="M70 70h0"></path>
<path d="M183.5 70h292.5"></path>
<rect x="70" y="59" width="113.5" height="22"></rect>
<a xlink:href="#/abap/expression/SourceField"><text x="126.75" y="74">SourceField</text>
</a>
</g>
<path d="M476 70a10 10 0 0 0 10 -10v-10a10 10 0 0 1 10 -10"></path>
<path d="M50 40a10 10 0 0 1 10 10v40a10 10 0 0 0 10 10"></path>
<g class="non-terminal">
<path d="M70 100h0"></path>
<path d="M234.5 100h241.5"></path>
<rect x="70" y="89" width="164.5" height="22"></rect>
<a xlink:href="#/abap/expression/SourceFieldSymbol"><text x="152.25" y="104">SourceFieldSymbol</text>
</a>
</g>
<path d="M476 100a10 10 0 0 0 10 -10v-40a10 10 0 0 1 10 -10"></path>
</g>
<g>
<path d="M496 40h0"></path>
<path d="M902.5 40h0"></path>
<path d="M496 40a10 10 0 0 0 10 -10v0a10 10 0 0 1 10 -10"></path>
<g>
<path d="M516 20h366.5"></path>
</g>
<path d="M882.5 20a10 10 0 0 1 10 10v0a10 10 0 0 0 10 10"></path>
<path d="M496 40h20"></path>
<g>
<path d="M516 40h0"></path>
<path d="M882.5 40h0"></path>
<path d="M516 40h10"></path>
<g>
<path d="M526 40h0"></path>
<path d="M872.5 40h0"></path>
<path d="M526 40h20"></path>
<g>
<path d="M546 40h0"></path>
<path d="M852.5 40h0"></path>
<g class="terminal">
<path d="M546 40h0"></path>
<path d="M702 40h0"></path>
<rect x="546" y="29" width="156" height="22" rx="10" ry="10"></rect>
<text x="624" y="44">!"InstanceArrow"</text>
</g>
<path d="M702 40h10"></path>
<path d="M712 40h10"></path>
<g class="non-terminal">
<path d="M722 40h0"></path>
<path d="M852.5 40h0"></path>
<rect x="722" y="29" width="130.5" height="22"></rect>
<a xlink:href="#/abap/expression/AttributeName"><text x="787.25" y="44">AttributeName</text>
</a>
</g>
</g>
<path d="M852.5 40h20"></path>
<path d="M526 40a10 10 0 0 1 10 10v10a10 10 0 0 0 10 10"></path>
<g>
<path d="M546 70h0"></path>
<path d="M776 70h76.5"></path>
<g class="terminal">
<path d="M546 70h0"></path>
<path d="M625.5 70h0"></path>
<rect x="546" y="59" width="79.5" height="22" rx="10" ry="10"></rect>
<text x="585.75" y="74">!"Dash"</text>
</g>
<path d="M625.5 70h10"></path>
<path d="M635.5 70h10"></path>
<g class="non-terminal">
<path d="M645.5 70h0"></path>
<path d="M776 70h0"></path>
<rect x="645.5" y="59" width="130.5" height="22"></rect>
<a xlink:href="#/abap/expression/ComponentName"><text x="710.75" y="74">ComponentName</text>
</a>
</g>
</g>
<path d="M852.5 70a10 10 0 0 0 10 -10v-10a10 10 0 0 1 10 -10"></path>
</g>
<path d="M872.5 40h10"></path>
<path d="M526 40a10 10 0 0 0 -10 10v29a10 10 0 0 0 10 10"></path>
<g>
<path d="M526 89h346.5"></path>
</g>
<path d="M872.5 89a10 10 0 0 0 10 -10v-29a10 10 0 0 0 -10 -10"></path>
</g>
<path d="M882.5 40h20"></path>
</g>
</g>
<path d="M902.5 40h10"></path>
<path d="M 912.5 40 h 20 m 0 -10 v 20"></path>
</g>
</svg>
