<svg xmlns="http://www.w3.org/2000/svg" xmlns:xlink="http://www.w3.org/1999/xlink" class="railroad-diagram" width="770.5" height="186" viewBox="0 0 770.5 186">
<defs>
<style type="text/css"><![CDATA[
path {
stroke-width: 3;
stroke: black;
fill: rgba(0,0,0,0);
}
text {
font: bold 14px monospace;
text-anchor: middle;
}
text.diagram-text {
font-size: 12px;
}
a {
fill: blue;
}
text.diagram-arrow {
font-size: 16px;
}
text.label {
text-anchor: start;
}
text.comment {
font: italic 12px monospace;
}
rect {
stroke-width: 3;
stroke: black;
fill: #BCBCBC;
}
path.diagram-text {
stroke-width: 3;
stroke: black;
fill: #BCBCBC;
cursor: help;
}
]]></style>
</defs>
<g transform="translate(.5 .5)">
<g>
<path d="M20 38v20m0 -10h20"></path>
</g>
<g>
<path d="M40 48h0"></path>
<path d="M730.5 48h0"></path>
<path d="M40 48a10 10 0 0 0 10 -10v-8a10 10 0 0 1 10 -10"></path>
<g>
<path d="M60 20h650.5"></path>
</g>
<path d="M710.5 20a10 10 0 0 1 10 10v8a10 10 0 0 0 10 10"></path>
<path d="M40 48h20"></path>
<g>
<path d="M60 48h0"></path>
<path d="M710.5 48h0"></path>
<path d="M60 48h20"></path>
<g>
<path d="M80 48h0"></path>
<path d="M690.5 48h0"></path>
<g>
<path d="M80 48h0"></path>
<path d="M165.5 48h0"></path>
<path d="M80 48a10 10 0 0 0 10 -10v0a10 10 0 0 1 10 -10"></path>
<g>
<path d="M100 28h45.5"></path>
</g>
<path d="M145.5 28a10 10 0 0 1 10 10v0a10 10 0 0 0 10 10"></path>
<path d="M80 48h20"></path>
<g class="non-terminal">
<path d="M100 48h0"></path>
<path d="M145.5 48h0"></path>
<rect x="100" y="37" width="45.5" height="22"></rect>
<a xlink:href="#/abap/expression/Let"><text x="122.75" y="52">Let</text>
</a>
</g>
<path d="M145.5 48h20"></path>
</g>
<g>
<path d="M165.5 48h0"></path>
<path d="M367.5 48h0"></path>
<path d="M165.5 48a10 10 0 0 0 10 -10v0a10 10 0 0 1 10 -10"></path>
<g>
<path d="M185.5 28h162"></path>
</g>
<path d="M347.5 28a10 10 0 0 1 10 10v0a10 10 0 0 0 10 10"></path>
<path d="M165.5 48h20"></path>
<g>
<path d="M185.5 48h0"></path>
<path d="M347.5 48h0"></path>
<g class="terminal">
<path d="M185.5 48h0"></path>
<path d="M256.5 48h0"></path>
<rect x="185.5" y="37" width="71" height="22" rx="10" ry="10"></rect>
<text x="221" y="52">"BASE"</text>
</g>
<path d="M256.5 48h10"></path>
<path d="M266.5 48h10"></path>
<g class="non-terminal">
<path d="M276.5 48h0"></path>
<path d="M347.5 48h0"></path>
<rect x="276.5" y="37" width="71" height="22"></rect>
<a xlink:href="#/abap/expression/Source"><text x="312" y="52">Source</text>
</a>
</g>
</g>
<path d="M347.5 48h20"></path>
</g>
<g>
<path d="M367.5 48h0"></path>
<path d="M473 48h0"></path>
<path d="M367.5 48a10 10 0 0 0 10 -10v0a10 10 0 0 1 10 -10"></path>
<g>
<path d="M387.5 28h65.5"></path>
</g>
<path d="M453 28a10 10 0 0 1 10 10v0a10 10 0 0 0 10 10"></path>
<path d="M367.5 48h20"></path>
<g>
<path d="M387.5 48h0"></path>
<path d="M453 48h0"></path>
<path d="M387.5 48h10"></path>
<g class="non-terminal">
<path d="M397.5 48h0"></path>
<path d="M443 48h0"></path>
<rect x="397.5" y="37" width="45.5" height="22"></rect>
<a xlink:href="#/abap/expression/For"><text x="420.25" y="52">For</text>
</a>
</g>
<path d="M443 48h10"></path>
<path d="M397.5 48a10 10 0 0 0 -10 10v0a10 10 0 0 0 10 10"></path>
<g>
<path d="M397.5 68h45.5"></path>
</g>
<path d="M443 68a10 10 0 0 0 10 -10v0a10 10 0 0 0 -10 -10"></path>
</g>
<path d="M453 48h20"></path>
</g>
<path d="M473 48h10"></path>
<g>
<path d="M483 48h0"></path>
<path d="M690.5 48h0"></path>
<path d="M483 48h10"></path>
<g>
<path d="M493 48h0"></path>
<path d="M680.5 48h0"></path>
<path d="M493 48h20"></path>
<g class="non-terminal">
<path d="M513 48h0"></path>
<path d="M660.5 48h0"></path>
<rect x="513" y="37" width="147.5" height="22"></rect>
<a xlink:href="#/abap/expression/FieldAssignment"><text x="586.75" y="52">FieldAssignment</text>
</a>
</g>
<path d="M660.5 48h20"></path>
<path d="M493 48a10 10 0 0 1 10 10v10a10 10 0 0 0 10 10"></path>
<g class="non-terminal">
<path d="M513 78h0"></path>
<path d="M643.5 78h17"></path>
<rect x="513" y="67" width="130.5" height="22"></rect>
<a xlink:href="#/abap/expression/ValueBodyLine"><text x="578.25" y="82">ValueBodyLine</text>
</a>
</g>
<path d="M660.5 78a10 10 0 0 0 10 -10v-10a10 10 0 0 1 10 -10"></path>
</g>
<path d="M680.5 48h10"></path>
<path d="M493 48a10 10 0 0 0 -10 10v29a10 10 0 0 0 10 10"></path>
<g>
<path d="M493 97h187.5"></path>
</g>
<path d="M680.5 97a10 10 0 0 0 10 -10v-29a10 10 0 0 0 -10 -10"></path>
</g>
</g>
<path d="M690.5 48h20"></path>
<path d="M60 48a10 10 0 0 1 10 10v57a10 10 0 0 0 10 10"></path>
<g>
<path d="M80 125h0"></path>
<path d="M504.5 125h186"></path>
<g class="non-terminal">
<path d="M80 125h0"></path>
<path d="M151 125h0"></path>
<rect x="80" y="114" width="71" height="22"></rect>
<a xlink:href="#/abap/expression/Source"><text x="115.5" y="129">Source</text>
</a>
</g>
<path d="M151 125h10"></path>
<g>
<path d="M161 125h0"></path>
<path d="M504.5 125h0"></path>
<path d="M161 125a10 10 0 0 0 10 -10v0a10 10 0 0 1 10 -10"></path>
<g>
<path d="M181 105h303.5"></path>
</g>
<path d="M484.5 105a10 10 0 0 1 10 10v0a10 10 0 0 0 10 10"></path>
<path d="M161 125h20"></path>
<g>
<path d="M181 125h0"></path>
<path d="M484.5 125h0"></path>
<g>
<path d="M181 125h0"></path>
<path d="M247 125h0"></path>
<text x="214" y="130" class="comment">v740sp08</text>
</g>
<path d="M247 125h10"></path>
<g>
<path d="M257 125h0"></path>
<path d="M484.5 125h0"></path>
<path d="M257 125h20"></path>
<g class="terminal">
<path d="M277 125h0"></path>
<path d="M382 125h82.5"></path>
<rect x="277" y="114" width="105" height="22" rx="10" ry="10"></rect>
<text x="329.5" y="129">"OPTIONAL"</text>
</g>
<path d="M464.5 125h20"></path>
<path d="M257 125a10 10 0 0 1 10 10v10a10 10 0 0 0 10 10"></path>
<g>
<path d="M277 155h0"></path>
<path d="M464.5 155h0"></path>
<g class="terminal">
<path d="M277 155h0"></path>
<path d="M373.5 155h0"></path>
<rect x="277" y="144" width="96.5" height="22" rx="10" ry="10"></rect>
<text x="325.25" y="159">"DEFAULT"</text>
</g>
<path d="M373.5 155h10"></path>
<path d="M383.5 155h10"></path>
<g class="non-terminal">
<path d="M393.5 155h0"></path>
<path d="M464.5 155h0"></path>
<rect x="393.5" y="144" width="71" height="22"></rect>
<a xlink:href="#/abap/expression/Source"><text x="429" y="159">Source</text>
</a>
</g>
</g>
<path d="M464.5 155a10 10 0 0 0 10 -10v-10a10 10 0 0 1 10 -10"></path>
</g>
</g>
<path d="M484.5 125h20"></path>
</g>
</g>
<path d="M690.5 125a10 10 0 0 0 10 -10v-57a10 10 0 0 1 10 -10"></path>
</g>
<path d="M710.5 48h20"></path>
</g>
<path d="M 730.5 48 h 20 m 0 -10 v 20"></path>
</g>
</svg>
