<svg xmlns="http://www.w3.org/2000/svg" xmlns:xlink="http://www.w3.org/1999/xlink" class="railroad-diagram" width="622" height="131" viewBox="0 0 622 131">
<defs>
<style type="text/css"><![CDATA[
path {
stroke-width: 3;
stroke: black;
fill: rgba(0,0,0,0);
}
text {
font: bold 14px monospace;
text-anchor: middle;
}
text.diagram-text {
font-size: 12px;
}
a {
fill: blue;
}
text.diagram-arrow {
font-size: 16px;
}
text.label {
text-anchor: start;
}
text.comment {
font: italic 12px monospace;
}
rect {
stroke-width: 3;
stroke: black;
fill: #BCBCBC;
}
path.diagram-text {
stroke-width: 3;
stroke: black;
fill: #BCBCBC;
cursor: help;
}
]]></style>
</defs>
<g transform="translate(.5 .5)">
<g>
<path d="M20 30v20m0 -10h20"></path>
</g>
<g>
<path d="M40 40h0"></path>
<path d="M582 40h0"></path>
<path d="M40 40h20"></path>
<g>
<path d="M60 40h0"></path>
<path d="M562 40h0"></path>
<g>
<path d="M60 40h0"></path>
<path d="M425.5 40h0"></path>
<path d="M60 40h20"></path>
<g>
<path d="M80 40h0"></path>
<path d="M405.5 40h0"></path>
<g>
<path d="M80 40h0"></path>
<path d="M233.5 40h0"></path>
<path d="M80 40a10 10 0 0 0 10 -10v0a10 10 0 0 1 10 -10"></path>
<g>
<path d="M100 20h113.5"></path>
</g>
<path d="M213.5 20a10 10 0 0 1 10 10v0a10 10 0 0 0 10 10"></path>
<path d="M80 40h20"></path>
<g class="terminal">
<path d="M100 40h0"></path>
<path d="M213.5 40h0"></path>
<rect x="100" y="29" width="113.5" height="22" rx="10" ry="10"></rect>
<text x="156.75" y="44">"REFERENCE"</text>
</g>
<path d="M213.5 40h20"></path>
</g>
<path d="M233.5 40h10"></path>
<g class="terminal">
<path d="M243.5 40h0"></path>
<path d="M314.5 40h0"></path>
<rect x="243.5" y="29" width="71" height="22" rx="10" ry="10"></rect>
<text x="279" y="44">"INTO"</text>
</g>
<path d="M314.5 40h10"></path>
<path d="M324.5 40h10"></path>
<g class="non-terminal">
<path d="M334.5 40h0"></path>
<path d="M405.5 40h0"></path>
<rect x="334.5" y="29" width="71" height="22"></rect>
<a xlink:href="#/abap/expression/Target"><text x="370" y="44">Target</text>
</a>
</g>
</g>
<path d="M405.5 40h20"></path>
<path d="M60 40a10 10 0 0 1 10 10v10a10 10 0 0 0 10 10"></path>
<g>
<path d="M80 70h0"></path>
<path d="M301.5 70h104"></path>
<g class="terminal">
<path d="M80 70h0"></path>
<path d="M193.5 70h0"></path>
<rect x="80" y="59" width="113.5" height="22" rx="10" ry="10"></rect>
<text x="136.75" y="74">"ASSIGNING"</text>
</g>
<path d="M193.5 70h10"></path>
<path d="M203.5 70h10"></path>
<g class="non-terminal">
<path d="M213.5 70h0"></path>
<path d="M301.5 70h0"></path>
<rect x="213.5" y="59" width="88" height="22"></rect>
<a xlink:href="#/abap/expression/FSTarget"><text x="257.5" y="74">FSTarget</text>
</a>
</g>
</g>
<path d="M405.5 70a10 10 0 0 0 10 -10v-10a10 10 0 0 1 10 -10"></path>
</g>
<g>
<path d="M425.5 40h0"></path>
<path d="M562 40h0"></path>
<path d="M425.5 40a10 10 0 0 0 10 -10v0a10 10 0 0 1 10 -10"></path>
<g>
<path d="M445.5 20h96.5"></path>
</g>
<path d="M542 20a10 10 0 0 1 10 10v0a10 10 0 0 0 10 10"></path>
<path d="M425.5 40h20"></path>
<g class="terminal">
<path d="M445.5 40h0"></path>
<path d="M542 40h0"></path>
<rect x="445.5" y="29" width="96.5" height="22" rx="10" ry="10"></rect>
<text x="493.75" y="44">"CASTING"</text>
</g>
<path d="M542 40h20"></path>
</g>
</g>
<path d="M562 40h20"></path>
<path d="M40 40a10 10 0 0 1 10 10v40a10 10 0 0 0 10 10"></path>
<g class="terminal">
<path d="M60 100h0"></path>
<path d="M284 100h278"></path>
<rect x="60" y="89" width="224" height="22" rx="10" ry="10"></rect>
<text x="172" y="104">"TRANSPORTING NO FIELDS"</text>
</g>
<path d="M562 100a10 10 0 0 0 10 -10v-40a10 10 0 0 1 10 -10"></path>
</g>
<path d="M 582 40 h 20 m 0 -10 v 20"></path>
</g>
</svg>
