<svg xmlns="http://www.w3.org/2000/svg" xmlns:xlink="http://www.w3.org/1999/xlink" class="railroad-diagram" width="814" height="647" viewBox="0 0 814 647">
<defs>
<style type="text/css"><![CDATA[
path {
stroke-width: 3;
stroke: black;
fill: rgba(0,0,0,0);
}
text {
font: bold 14px monospace;
text-anchor: middle;
}
text.diagram-text {
font-size: 12px;
}
a {
fill: blue;
}
text.diagram-arrow {
font-size: 16px;
}
text.label {
text-anchor: start;
}
text.comment {
font: italic 12px monospace;
}
rect {
stroke-width: 3;
stroke: black;
fill: #BCBCBC;
}
path.diagram-text {
stroke-width: 3;
stroke: black;
fill: #BCBCBC;
cursor: help;
}
]]></style>
</defs>
<g transform="translate(.5 .5)">
<g>
<path d="M20 30v20m0 -10h20"></path>
</g>
<g>
<path d="M40 40h0"></path>
<path d="M774 40h0"></path>
<path d="M40 40h20"></path>
<g>
<path d="M60 40h0"></path>
<path d="M754 40h0"></path>
<g class="terminal">
<path d="M60 40h0"></path>
<path d="M139.5 40h0"></path>
<rect x="60" y="29" width="79.5" height="22" rx="10" ry="10"></rect>
<text x="99.75" y="44">"COUNT"</text>
</g>
<path d="M139.5 40h10"></path>
<g>
<path d="M149.5 40h0"></path>
<path d="M320 40h0"></path>
<path d="M149.5 40h20"></path>
<g class="terminal">
<path d="M169.5 40h0"></path>
<path d="M291.5 40h8.5"></path>
<rect x="169.5" y="29" width="122" height="22" rx="10" ry="10"></rect>
<text x="230.5" y="44">!"ParenLeft"</text>
</g>
<path d="M300 40h20"></path>
<path d="M149.5 40a10 10 0 0 1 10 10v10a10 10 0 0 0 10 10"></path>
<g class="terminal">
<path d="M169.5 70h0"></path>
<path d="M300 70h0"></path>
<rect x="169.5" y="59" width="130.5" height="22" rx="10" ry="10"></rect>
<text x="234.75" y="74">!"ParenLeftW"</text>
</g>
<path d="M300 70a10 10 0 0 0 10 -10v-10a10 10 0 0 1 10 -10"></path>
</g>
<g>
<path d="M320 40h0"></path>
<path d="M465 40h0"></path>
<path d="M320 40a10 10 0 0 0 10 -10v0a10 10 0 0 1 10 -10"></path>
<g>
<path d="M340 20h105"></path>
</g>
<path d="M445 20a10 10 0 0 1 10 10v0a10 10 0 0 0 10 10"></path>
<path d="M320 40h20"></path>
<g class="terminal">
<path d="M340 40h0"></path>
<path d="M445 40h0"></path>
<rect x="340" y="29" width="105" height="22" rx="10" ry="10"></rect>
<text x="392.5" y="44">"DISTINCT"</text>
</g>
<path d="M445 40h20"></path>
</g>
<g>
<path d="M465 40h0"></path>
<path d="M698.5 40h0"></path>
<path d="M465 40h20"></path>
<g class="terminal">
<path d="M485 40h0"></path>
<path d="M530.5 40h148"></path>
<rect x="485" y="29" width="45.5" height="22" rx="10" ry="10"></rect>
<text x="507.75" y="44">"&#42;"</text>
</g>
<path d="M678.5 40h20"></path>
<path d="M465 40a10 10 0 0 1 10 10v10a10 10 0 0 0 10 10"></path>
<g class="non-terminal">
<path d="M485 70h0"></path>
<path d="M547.5 70h131"></path>
<rect x="485" y="59" width="62.5" height="22"></rect>
<a xlink:href="#/abap/expression/Field"><text x="516.25" y="74">Field</text>
</a>
</g>
<path d="M678.5 70a10 10 0 0 0 10 -10v-10a10 10 0 0 1 10 -10"></path>
<path d="M465 40a10 10 0 0 1 10 10v40a10 10 0 0 0 10 10"></path>
<g>
<path d="M485 100h0"></path>
<path d="M678.5 100h0"></path>
<g class="terminal">
<path d="M485 100h0"></path>
<path d="M530.5 100h0"></path>
<rect x="485" y="89" width="45.5" height="22" rx="10" ry="10"></rect>
<text x="507.75" y="104">"("</text>
</g>
<path d="M530.5 100h10"></path>
<path d="M540.5 100h10"></path>
<g class="non-terminal">
<path d="M550.5 100h0"></path>
<path d="M613 100h0"></path>
<rect x="550.5" y="89" width="62.5" height="22"></rect>
<a xlink:href="#/abap/expression/Field"><text x="581.75" y="104">Field</text>
</a>
</g>
<path d="M613 100h10"></path>
<path d="M623 100h10"></path>
<g class="terminal">
<path d="M633 100h0"></path>
<path d="M678.5 100h0"></path>
<rect x="633" y="89" width="45.5" height="22" rx="10" ry="10"></rect>
<text x="655.75" y="104">")"</text>
</g>
</g>
<path d="M678.5 100a10 10 0 0 0 10 -10v-40a10 10 0 0 1 10 -10"></path>
</g>
<path d="M698.5 40h10"></path>
<g class="terminal">
<path d="M708.5 40h0"></path>
<path d="M754 40h0"></path>
<rect x="708.5" y="29" width="45.5" height="22" rx="10" ry="10"></rect>
<text x="731.25" y="44">")"</text>
</g>
</g>
<path d="M754 40h20"></path>
<path d="M40 40a10 10 0 0 1 10 10v79a10 10 0 0 0 10 10"></path>
<g>
<path d="M60 139h0"></path>
<path d="M702.5 139h51.5"></path>
<g class="terminal">
<path d="M60 139h0"></path>
<path d="M122.5 139h0"></path>
<rect x="60" y="128" width="62.5" height="22" rx="10" ry="10"></rect>
<text x="91.25" y="143">"MAX"</text>
</g>
<path d="M122.5 139h10"></path>
<g>
<path d="M132.5 139h0"></path>
<path d="M303 139h0"></path>
<path d="M132.5 139h20"></path>
<g class="terminal">
<path d="M152.5 139h0"></path>
<path d="M274.5 139h8.5"></path>
<rect x="152.5" y="128" width="122" height="22" rx="10" ry="10"></rect>
<text x="213.5" y="143">!"ParenLeft"</text>
</g>
<path d="M283 139h20"></path>
<path d="M132.5 139a10 10 0 0 1 10 10v10a10 10 0 0 0 10 10"></path>
<g class="terminal">
<path d="M152.5 169h0"></path>
<path d="M283 169h0"></path>
<rect x="152.5" y="158" width="130.5" height="22" rx="10" ry="10"></rect>
<text x="217.75" y="173">!"ParenLeftW"</text>
</g>
<path d="M283 169a10 10 0 0 0 10 -10v-10a10 10 0 0 1 10 -10"></path>
</g>
<path d="M303 139h10"></path>
<g>
<path d="M313 139h0"></path>
<path d="M637 139h0"></path>
<g>
<path d="M313 139h0"></path>
<path d="M458 139h0"></path>
<path d="M313 139a10 10 0 0 0 10 -10v0a10 10 0 0 1 10 -10"></path>
<g>
<path d="M333 119h105"></path>
</g>
<path d="M438 119a10 10 0 0 1 10 10v0a10 10 0 0 0 10 10"></path>
<path d="M313 139h20"></path>
<g class="terminal">
<path d="M333 139h0"></path>
<path d="M438 139h0"></path>
<rect x="333" y="128" width="105" height="22" rx="10" ry="10"></rect>
<text x="385.5" y="143">"DISTINCT"</text>
</g>
<path d="M438 139h20"></path>
</g>
<g>
<path d="M458 139h0"></path>
<path d="M637 139h0"></path>
<path d="M458 139h20"></path>
<g class="non-terminal">
<path d="M478 139h0"></path>
<path d="M557.5 139h59.5"></path>
<rect x="478" y="128" width="79.5" height="22"></rect>
<a xlink:href="#/abap/expression/SQLCase"><text x="517.75" y="143">SQLCase</text>
</a>
</g>
<path d="M617 139h20"></path>
<path d="M458 139a10 10 0 0 1 10 10v10a10 10 0 0 0 10 10"></path>
<g class="non-terminal">
<path d="M478 169h0"></path>
<path d="M617 169h0"></path>
<rect x="478" y="158" width="139" height="22"></rect>
<a xlink:href="#/abap/expression/SQLArithmetics"><text x="547.5" y="173">SQLArithmetics</text>
</a>
</g>
<path d="M617 169a10 10 0 0 0 10 -10v-10a10 10 0 0 1 10 -10"></path>
<path d="M458 139a10 10 0 0 1 10 10v40a10 10 0 0 0 10 10"></path>
<g class="non-terminal">
<path d="M478 199h0"></path>
<path d="M557.5 199h59.5"></path>
<rect x="478" y="188" width="79.5" height="22"></rect>
<a xlink:href="#/abap/expression/Dynamic"><text x="517.75" y="203">Dynamic</text>
</a>
</g>
<path d="M617 199a10 10 0 0 0 10 -10v-40a10 10 0 0 1 10 -10"></path>
<path d="M458 139a10 10 0 0 1 10 10v70a10 10 0 0 0 10 10"></path>
<g class="non-terminal">
<path d="M478 229h0"></path>
<path d="M591.5 229h25.5"></path>
<rect x="478" y="218" width="113.5" height="22"></rect>
<a xlink:href="#/abap/expression/SQLFunction"><text x="534.75" y="233">SQLFunction</text>
</a>
</g>
<path d="M617 229a10 10 0 0 0 10 -10v-70a10 10 0 0 1 10 -10"></path>
</g>
</g>
<path d="M637 139h10"></path>
<path d="M647 139h10"></path>
<g class="terminal">
<path d="M657 139h0"></path>
<path d="M702.5 139h0"></path>
<rect x="657" y="128" width="45.5" height="22" rx="10" ry="10"></rect>
<text x="679.75" y="143">")"</text>
</g>
</g>
<path d="M754 139a10 10 0 0 0 10 -10v-79a10 10 0 0 1 10 -10"></path>
<path d="M40 40a10 10 0 0 1 10 10v208a10 10 0 0 0 10 10"></path>
<g>
<path d="M60 268h0"></path>
<path d="M702.5 268h51.5"></path>
<g class="terminal">
<path d="M60 268h0"></path>
<path d="M122.5 268h0"></path>
<rect x="60" y="257" width="62.5" height="22" rx="10" ry="10"></rect>
<text x="91.25" y="272">"MIN"</text>
</g>
<path d="M122.5 268h10"></path>
<g>
<path d="M132.5 268h0"></path>
<path d="M303 268h0"></path>
<path d="M132.5 268h20"></path>
<g class="terminal">
<path d="M152.5 268h0"></path>
<path d="M274.5 268h8.5"></path>
<rect x="152.5" y="257" width="122" height="22" rx="10" ry="10"></rect>
<text x="213.5" y="272">!"ParenLeft"</text>
</g>
<path d="M283 268h20"></path>
<path d="M132.5 268a10 10 0 0 1 10 10v10a10 10 0 0 0 10 10"></path>
<g class="terminal">
<path d="M152.5 298h0"></path>
<path d="M283 298h0"></path>
<rect x="152.5" y="287" width="130.5" height="22" rx="10" ry="10"></rect>
<text x="217.75" y="302">!"ParenLeftW"</text>
</g>
<path d="M283 298a10 10 0 0 0 10 -10v-10a10 10 0 0 1 10 -10"></path>
</g>
<path d="M303 268h10"></path>
<g>
<path d="M313 268h0"></path>
<path d="M637 268h0"></path>
<g>
<path d="M313 268h0"></path>
<path d="M458 268h0"></path>
<path d="M313 268a10 10 0 0 0 10 -10v0a10 10 0 0 1 10 -10"></path>
<g>
<path d="M333 248h105"></path>
</g>
<path d="M438 248a10 10 0 0 1 10 10v0a10 10 0 0 0 10 10"></path>
<path d="M313 268h20"></path>
<g class="terminal">
<path d="M333 268h0"></path>
<path d="M438 268h0"></path>
<rect x="333" y="257" width="105" height="22" rx="10" ry="10"></rect>
<text x="385.5" y="272">"DISTINCT"</text>
</g>
<path d="M438 268h20"></path>
</g>
<g>
<path d="M458 268h0"></path>
<path d="M637 268h0"></path>
<path d="M458 268h20"></path>
<g class="non-terminal">
<path d="M478 268h0"></path>
<path d="M557.5 268h59.5"></path>
<rect x="478" y="257" width="79.5" height="22"></rect>
<a xlink:href="#/abap/expression/SQLCase"><text x="517.75" y="272">SQLCase</text>
</a>
</g>
<path d="M617 268h20"></path>
<path d="M458 268a10 10 0 0 1 10 10v10a10 10 0 0 0 10 10"></path>
<g class="non-terminal">
<path d="M478 298h0"></path>
<path d="M617 298h0"></path>
<rect x="478" y="287" width="139" height="22"></rect>
<a xlink:href="#/abap/expression/SQLArithmetics"><text x="547.5" y="302">SQLArithmetics</text>
</a>
</g>
<path d="M617 298a10 10 0 0 0 10 -10v-10a10 10 0 0 1 10 -10"></path>
<path d="M458 268a10 10 0 0 1 10 10v40a10 10 0 0 0 10 10"></path>
<g class="non-terminal">
<path d="M478 328h0"></path>
<path d="M557.5 328h59.5"></path>
<rect x="478" y="317" width="79.5" height="22"></rect>
<a xlink:href="#/abap/expression/Dynamic"><text x="517.75" y="332">Dynamic</text>
</a>
</g>
<path d="M617 328a10 10 0 0 0 10 -10v-40a10 10 0 0 1 10 -10"></path>
<path d="M458 268a10 10 0 0 1 10 10v70a10 10 0 0 0 10 10"></path>
<g class="non-terminal">
<path d="M478 358h0"></path>
<path d="M591.5 358h25.5"></path>
<rect x="478" y="347" width="113.5" height="22"></rect>
<a xlink:href="#/abap/expression/SQLFunction"><text x="534.75" y="362">SQLFunction</text>
</a>
</g>
<path d="M617 358a10 10 0 0 0 10 -10v-70a10 10 0 0 1 10 -10"></path>
</g>
</g>
<path d="M637 268h10"></path>
<path d="M647 268h10"></path>
<g class="terminal">
<path d="M657 268h0"></path>
<path d="M702.5 268h0"></path>
<rect x="657" y="257" width="45.5" height="22" rx="10" ry="10"></rect>
<text x="679.75" y="272">")"</text>
</g>
</g>
<path d="M754 268a10 10 0 0 0 10 -10v-208a10 10 0 0 1 10 -10"></path>
<path d="M40 40a10 10 0 0 1 10 10v337a10 10 0 0 0 10 10"></path>
<g>
<path d="M60 397h0"></path>
<path d="M702.5 397h51.5"></path>
<g class="terminal">
<path d="M60 397h0"></path>
<path d="M122.5 397h0"></path>
<rect x="60" y="386" width="62.5" height="22" rx="10" ry="10"></rect>
<text x="91.25" y="401">"SUM"</text>
</g>
<path d="M122.5 397h10"></path>
<g>
<path d="M132.5 397h0"></path>
<path d="M303 397h0"></path>
<path d="M132.5 397h20"></path>
<g class="terminal">
<path d="M152.5 397h0"></path>
<path d="M274.5 397h8.5"></path>
<rect x="152.5" y="386" width="122" height="22" rx="10" ry="10"></rect>
<text x="213.5" y="401">!"ParenLeft"</text>
</g>
<path d="M283 397h20"></path>
<path d="M132.5 397a10 10 0 0 1 10 10v10a10 10 0 0 0 10 10"></path>
<g class="terminal">
<path d="M152.5 427h0"></path>
<path d="M283 427h0"></path>
<rect x="152.5" y="416" width="130.5" height="22" rx="10" ry="10"></rect>
<text x="217.75" y="431">!"ParenLeftW"</text>
</g>
<path d="M283 427a10 10 0 0 0 10 -10v-10a10 10 0 0 1 10 -10"></path>
</g>
<path d="M303 397h10"></path>
<g>
<path d="M313 397h0"></path>
<path d="M637 397h0"></path>
<g>
<path d="M313 397h0"></path>
<path d="M458 397h0"></path>
<path d="M313 397a10 10 0 0 0 10 -10v0a10 10 0 0 1 10 -10"></path>
<g>
<path d="M333 377h105"></path>
</g>
<path d="M438 377a10 10 0 0 1 10 10v0a10 10 0 0 0 10 10"></path>
<path d="M313 397h20"></path>
<g class="terminal">
<path d="M333 397h0"></path>
<path d="M438 397h0"></path>
<rect x="333" y="386" width="105" height="22" rx="10" ry="10"></rect>
<text x="385.5" y="401">"DISTINCT"</text>
</g>
<path d="M438 397h20"></path>
</g>
<g>
<path d="M458 397h0"></path>
<path d="M637 397h0"></path>
<path d="M458 397h20"></path>
<g class="non-terminal">
<path d="M478 397h0"></path>
<path d="M557.5 397h59.5"></path>
<rect x="478" y="386" width="79.5" height="22"></rect>
<a xlink:href="#/abap/expression/SQLCase"><text x="517.75" y="401">SQLCase</text>
</a>
</g>
<path d="M617 397h20"></path>
<path d="M458 397a10 10 0 0 1 10 10v10a10 10 0 0 0 10 10"></path>
<g class="non-terminal">
<path d="M478 427h0"></path>
<path d="M617 427h0"></path>
<rect x="478" y="416" width="139" height="22"></rect>
<a xlink:href="#/abap/expression/SQLArithmetics"><text x="547.5" y="431">SQLArithmetics</text>
</a>
</g>
<path d="M617 427a10 10 0 0 0 10 -10v-10a10 10 0 0 1 10 -10"></path>
<path d="M458 397a10 10 0 0 1 10 10v40a10 10 0 0 0 10 10"></path>
<g class="non-terminal">
<path d="M478 457h0"></path>
<path d="M557.5 457h59.5"></path>
<rect x="478" y="446" width="79.5" height="22"></rect>
<a xlink:href="#/abap/expression/Dynamic"><text x="517.75" y="461">Dynamic</text>
</a>
</g>
<path d="M617 457a10 10 0 0 0 10 -10v-40a10 10 0 0 1 10 -10"></path>
<path d="M458 397a10 10 0 0 1 10 10v70a10 10 0 0 0 10 10"></path>
<g class="non-terminal">
<path d="M478 487h0"></path>
<path d="M591.5 487h25.5"></path>
<rect x="478" y="476" width="113.5" height="22"></rect>
<a xlink:href="#/abap/expression/SQLFunction"><text x="534.75" y="491">SQLFunction</text>
</a>
</g>
<path d="M617 487a10 10 0 0 0 10 -10v-70a10 10 0 0 1 10 -10"></path>
</g>
</g>
<path d="M637 397h10"></path>
<path d="M647 397h10"></path>
<g class="terminal">
<path d="M657 397h0"></path>
<path d="M702.5 397h0"></path>
<rect x="657" y="386" width="45.5" height="22" rx="10" ry="10"></rect>
<text x="679.75" y="401">")"</text>
</g>
</g>
<path d="M754 397a10 10 0 0 0 10 -10v-337a10 10 0 0 1 10 -10"></path>
<path d="M40 40a10 10 0 0 1 10 10v466a10 10 0 0 0 10 10"></path>
<g>
<path d="M60 526h0"></path>
<path d="M702.5 526h51.5"></path>
<g class="terminal">
<path d="M60 526h0"></path>
<path d="M122.5 526h0"></path>
<rect x="60" y="515" width="62.5" height="22" rx="10" ry="10"></rect>
<text x="91.25" y="530">"AVG"</text>
</g>
<path d="M122.5 526h10"></path>
<g>
<path d="M132.5 526h0"></path>
<path d="M303 526h0"></path>
<path d="M132.5 526h20"></path>
<g class="terminal">
<path d="M152.5 526h0"></path>
<path d="M274.5 526h8.5"></path>
<rect x="152.5" y="515" width="122" height="22" rx="10" ry="10"></rect>
<text x="213.5" y="530">!"ParenLeft"</text>
</g>
<path d="M283 526h20"></path>
<path d="M132.5 526a10 10 0 0 1 10 10v10a10 10 0 0 0 10 10"></path>
<g class="terminal">
<path d="M152.5 556h0"></path>
<path d="M283 556h0"></path>
<rect x="152.5" y="545" width="130.5" height="22" rx="10" ry="10"></rect>
<text x="217.75" y="560">!"ParenLeftW"</text>
</g>
<path d="M283 556a10 10 0 0 0 10 -10v-10a10 10 0 0 1 10 -10"></path>
</g>
<path d="M303 526h10"></path>
<g>
<path d="M313 526h0"></path>
<path d="M637 526h0"></path>
<g>
<path d="M313 526h0"></path>
<path d="M458 526h0"></path>
<path d="M313 526a10 10 0 0 0 10 -10v0a10 10 0 0 1 10 -10"></path>
<g>
<path d="M333 506h105"></path>
</g>
<path d="M438 506a10 10 0 0 1 10 10v0a10 10 0 0 0 10 10"></path>
<path d="M313 526h20"></path>
<g class="terminal">
<path d="M333 526h0"></path>
<path d="M438 526h0"></path>
<rect x="333" y="515" width="105" height="22" rx="10" ry="10"></rect>
<text x="385.5" y="530">"DISTINCT"</text>
</g>
<path d="M438 526h20"></path>
</g>
<g>
<path d="M458 526h0"></path>
<path d="M637 526h0"></path>
<path d="M458 526h20"></path>
<g class="non-terminal">
<path d="M478 526h0"></path>
<path d="M557.5 526h59.5"></path>
<rect x="478" y="515" width="79.5" height="22"></rect>
<a xlink:href="#/abap/expression/SQLCase"><text x="517.75" y="530">SQLCase</text>
</a>
</g>
<path d="M617 526h20"></path>
<path d="M458 526a10 10 0 0 1 10 10v10a10 10 0 0 0 10 10"></path>
<g class="non-terminal">
<path d="M478 556h0"></path>
<path d="M617 556h0"></path>
<rect x="478" y="545" width="139" height="22"></rect>
<a xlink:href="#/abap/expression/SQLArithmetics"><text x="547.5" y="560">SQLArithmetics</text>
</a>
</g>
<path d="M617 556a10 10 0 0 0 10 -10v-10a10 10 0 0 1 10 -10"></path>
<path d="M458 526a10 10 0 0 1 10 10v40a10 10 0 0 0 10 10"></path>
<g class="non-terminal">
<path d="M478 586h0"></path>
<path d="M557.5 586h59.5"></path>
<rect x="478" y="575" width="79.5" height="22"></rect>
<a xlink:href="#/abap/expression/Dynamic"><text x="517.75" y="590">Dynamic</text>
</a>
</g>
<path d="M617 586a10 10 0 0 0 10 -10v-40a10 10 0 0 1 10 -10"></path>
<path d="M458 526a10 10 0 0 1 10 10v70a10 10 0 0 0 10 10"></path>
<g class="non-terminal">
<path d="M478 616h0"></path>
<path d="M591.5 616h25.5"></path>
<rect x="478" y="605" width="113.5" height="22"></rect>
<a xlink:href="#/abap/expression/SQLFunction"><text x="534.75" y="620">SQLFunction</text>
</a>
</g>
<path d="M617 616a10 10 0 0 0 10 -10v-70a10 10 0 0 1 10 -10"></path>
</g>
</g>
<path d="M637 526h10"></path>
<path d="M647 526h10"></path>
<g class="terminal">
<path d="M657 526h0"></path>
<path d="M702.5 526h0"></path>
<rect x="657" y="515" width="45.5" height="22" rx="10" ry="10"></rect>
<text x="679.75" y="530">")"</text>
</g>
</g>
<path d="M754 526a10 10 0 0 0 10 -10v-466a10 10 0 0 1 10 -10"></path>
</g>
<path d="M 774 40 h 20 m 0 -10 v 20"></path>
</g>
</svg>
