<svg xmlns="http://www.w3.org/2000/svg" xmlns:xlink="http://www.w3.org/1999/xlink" class="railroad-diagram" width="739.5" height="122" viewBox="0 0 739.5 122">
<defs>
<style type="text/css"><![CDATA[
path {
stroke-width: 3;
stroke: black;
fill: rgba(0,0,0,0);
}
text {
font: bold 14px monospace;
text-anchor: middle;
}
text.diagram-text {
font-size: 12px;
}
a {
fill: blue;
}
text.diagram-arrow {
font-size: 16px;
}
text.label {
text-anchor: start;
}
text.comment {
font: italic 12px monospace;
}
rect {
stroke-width: 3;
stroke: black;
fill: #BCBCBC;
}
path.diagram-text {
stroke-width: 3;
stroke: black;
fill: #BCBCBC;
cursor: help;
}
]]></style>
</defs>
<g transform="translate(.5 .5)">
<g>
<path d="M20 21v20m0 -10h20"></path>
</g>
<path d="M40 31h10"></path>
<g>
<path d="M50 31h0"></path>
<path d="M689.5 31h0"></path>
<g class="terminal ">
<path d="M50 31h0"></path>
<path d="M129.5 31h0"></path>
<rect x="50" y="20" width="79.5" height="22" rx="10" ry="10"></rect>
<text x="89.75" y="35">"GROUP"</text>
</g>
<path d="M129.5 31h10"></path>
<g>
<path d="M139.5 31h0"></path>
<path d="M689.5 31h0"></path>
<path d="M139.5 31h20"></path>
<g>
<path d="M159.5 31h0"></path>
<path d="M669.5 31h0"></path>
<g class="terminal ">
<path d="M159.5 31h0"></path>
<path d="M230.5 31h0"></path>
<rect x="159.5" y="20" width="71" height="22" rx="10" ry="10"></rect>
<text x="195" y="35">!"WAt"</text>
</g>
<path d="M230.5 31h10"></path>
<g>
<path d="M240.5 31h0"></path>
<path d="M669.5 31h0"></path>
<path d="M240.5 31h20"></path>
<g class="non-terminal ">
<path d="M260.5 31h129.25"></path>
<path d="M520.25 31h129.25"></path>
<rect x="389.75" y="20" width="130.5" height="22"></rect>
<a xlink:href="#/abap/expression/SimpleSource3"><text x="455" y="35">SimpleSource3</text>
</a>
</g>
<path d="M649.5 31h20"></path>
<path d="M240.5 31a10 10 0 0 1 10 10v10a10 10 0 0 0 10 10"></path>
<g>
<path d="M260.5 61h0"></path>
<path d="M649.5 61h0"></path>
<g class="terminal ">
<path d="M260.5 61h0"></path>
<path d="M391 61h0"></path>
<rect x="260.5" y="50" width="130.5" height="22" rx="10" ry="10"></rect>
<text x="325.75" y="65">!"ParenLeftW"</text>
</g>
<path d="M391 61h10"></path>
<path d="M401 61h10"></path>
<g class="non-terminal ">
<path d="M411 61h0"></path>
<path d="M482 61h0"></path>
<rect x="411" y="50" width="71" height="22"></rect>
<a xlink:href="#/abap/expression/Source"><text x="446.5" y="65">Source</text>
</a>
</g>
<path d="M482 61h10"></path>
<path d="M492 61h10"></path>
<g class="terminal ">
<path d="M502 61h0"></path>
<path d="M649.5 61h0"></path>
<rect x="502" y="50" width="147.5" height="22" rx="10" ry="10"></rect>
<text x="575.75" y="65">!"WParenRightW"</text>
</g>
</g>
<path d="M649.5 61a10 10 0 0 0 10 -10v-10a10 10 0 0 1 10 -10"></path>
</g>
</g>
<path d="M669.5 31h20"></path>
<path d="M139.5 31a10 10 0 0 1 10 10v40a10 10 0 0 0 10 10"></path>
<g class="non-terminal ">
<path d="M159.5 91h215.25"></path>
<path d="M454.25 91h215.25"></path>
<rect x="374.75" y="80" width="79.5" height="22"></rect>
<a xlink:href="#/abap/expression/Integer"><text x="414.5" y="95">Integer</text>
</a>
</g>
<path d="M669.5 91a10 10 0 0 0 10 -10v-40a10 10 0 0 1 10 -10"></path>
</g>
</g>
<path d="M689.5 31h10"></path>
<path d="M 699.5 31 h 20 m 0 -10 v 20"></path>
</g>
</svg>
