<svg xmlns="http://www.w3.org/2000/svg" xmlns:xlink="http://www.w3.org/1999/xlink" class="railroad-diagram" width="373" height="302" viewBox="0 0 373 302">
<defs>
<style type="text/css"><![CDATA[
path {
stroke-width: 3;
stroke: black;
fill: rgba(0,0,0,0);
}
text {
font: bold 14px monospace;
text-anchor: middle;
}
text.diagram-text {
font-size: 12px;
}
a {
fill: blue;
}
text.diagram-arrow {
font-size: 16px;
}
text.label {
text-anchor: start;
}
text.comment {
font: italic 12px monospace;
}
rect {
stroke-width: 3;
stroke: black;
fill: #BCBCBC;
}
path.diagram-text {
stroke-width: 3;
stroke: black;
fill: #BCBCBC;
cursor: help;
}
]]></style>
</defs>
<g transform="translate(.5 .5)">
<g>
<path d="M20 21v20m0 -10h20"></path>
</g>
<g>
<path d="M40 31h0"></path>
<path d="M333 31h0"></path>
<path d="M40 31h20"></path>
<g>
<path d="M60 31h0"></path>
<path d="M313 31h0"></path>
<g class="terminal ">
<path d="M60 31h0"></path>
<path d="M131 31h0"></path>
<rect x="60" y="20" width="71" height="22" rx="10" ry="10"></rect>
<text x="95.5" y="35">"LINE"</text>
</g>
<path d="M131 31h10"></path>
<path d="M141 31h10"></path>
<g class="terminal ">
<path d="M151 31h0"></path>
<path d="M205 31h0"></path>
<rect x="151" y="20" width="54" height="22" rx="10" ry="10"></rect>
<text x="178" y="35">"OF"</text>
</g>
<path d="M205 31h10"></path>
<path d="M215 31h10"></path>
<g class="non-terminal ">
<path d="M225 31h0"></path>
<path d="M313 31h0"></path>
<rect x="225" y="20" width="88" height="22"></rect>
<a xlink:href="#/abap/expression/TypeName"><text x="269" y="35">TypeName</text>
</a>
</g>
</g>
<path d="M313 31h20"></path>
<path d="M40 31a10 10 0 0 1 10 10v10a10 10 0 0 0 10 10"></path>
<g>
<path d="M60 61h4.25"></path>
<path d="M308.75 61h4.25"></path>
<g class="terminal ">
<path d="M64.25 61h0"></path>
<path d="M126.75 61h0"></path>
<rect x="64.25" y="50" width="62.5" height="22" rx="10" ry="10"></rect>
<text x="95.5" y="65">"REF"</text>
</g>
<path d="M126.75 61h10"></path>
<path d="M136.75 61h10"></path>
<g class="terminal ">
<path d="M146.75 61h0"></path>
<path d="M200.75 61h0"></path>
<rect x="146.75" y="50" width="54" height="22" rx="10" ry="10"></rect>
<text x="173.75" y="65">"TO"</text>
</g>
<path d="M200.75 61h10"></path>
<path d="M210.75 61h10"></path>
<g class="non-terminal ">
<path d="M220.75 61h0"></path>
<path d="M308.75 61h0"></path>
<rect x="220.75" y="50" width="88" height="22"></rect>
<a xlink:href="#/abap/expression/TypeName"><text x="264.75" y="65">TypeName</text>
</a>
</g>
</g>
<path d="M313 61a10 10 0 0 0 10 -10v-10a10 10 0 0 1 10 -10"></path>
<path d="M40 31a10 10 0 0 1 10 10v40a10 10 0 0 0 10 10"></path>
<g>
<path d="M60 91h9.25"></path>
<path d="M303.75 91h9.25"></path>
<g>
<path d="M69.25 91h0"></path>
<path d="M214.25 91h0"></path>
<path d="M69.25 91h20"></path>
<g class="terminal ">
<path d="M89.25 91h21.25"></path>
<path d="M173 91h21.25"></path>
<rect x="110.5" y="80" width="62.5" height="22" rx="10" ry="10"></rect>
<text x="141.75" y="95">"ANY"</text>
</g>
<path d="M194.25 91h20"></path>
<path d="M69.25 91a10 10 0 0 1 10 10v10a10 10 0 0 0 10 10"></path>
<g class="terminal ">
<path d="M89.25 121h0"></path>
<path d="M194.25 121h0"></path>
<rect x="89.25" y="110" width="105" height="22" rx="10" ry="10"></rect>
<text x="141.75" y="125">"STANDARD"</text>
</g>
<path d="M194.25 121a10 10 0 0 0 10 -10v-10a10 10 0 0 1 10 -10"></path>
<path d="M69.25 91a10 10 0 0 1 10 10v40a10 10 0 0 0 10 10"></path>
<g class="terminal ">
<path d="M89.25 151h8.5"></path>
<path d="M185.75 151h8.5"></path>
<rect x="97.75" y="140" width="88" height="22" rx="10" ry="10"></rect>
<text x="141.75" y="155">"HASHED"</text>
</g>
<path d="M194.25 151a10 10 0 0 0 10 -10v-40a10 10 0 0 1 10 -10"></path>
<path d="M69.25 91a10 10 0 0 1 10 10v70a10 10 0 0 0 10 10"></path>
<g class="terminal ">
<path d="M89.25 181h8.5"></path>
<path d="M185.75 181h8.5"></path>
<rect x="97.75" y="170" width="88" height="22" rx="10" ry="10"></rect>
<text x="141.75" y="185">"SORTED"</text>
</g>
<path d="M194.25 181a10 10 0 0 0 10 -10v-70a10 10 0 0 1 10 -10"></path>
<path d="M69.25 91a10 10 0 0 1 10 10v100a10 10 0 0 0 10 10"></path>
<g class="terminal ">
<path d="M89.25 211h12.75"></path>
<path d="M181.5 211h12.75"></path>
<rect x="102" y="200" width="79.5" height="22" rx="10" ry="10"></rect>
<text x="141.75" y="215">"INDEX"</text>
</g>
<path d="M194.25 211a10 10 0 0 0 10 -10v-100a10 10 0 0 1 10 -10"></path>
</g>
<path d="M214.25 91h10"></path>
<g class="terminal ">
<path d="M224.25 91h0"></path>
<path d="M303.75 91h0"></path>
<rect x="224.25" y="80" width="79.5" height="22" rx="10" ry="10"></rect>
<text x="264" y="95">"TABLE"</text>
</g>
</g>
<path d="M313 91a10 10 0 0 0 10 -10v-40a10 10 0 0 1 10 -10"></path>
<path d="M40 31a10 10 0 0 1 10 10v190a10 10 0 0 0 10 10"></path>
<g>
<path d="M60 241h28.5"></path>
<path d="M284.5 241h28.5"></path>
<g class="terminal ">
<path d="M88.5 241h0"></path>
<path d="M151 241h0"></path>
<rect x="88.5" y="230" width="62.5" height="22" rx="10" ry="10"></rect>
<text x="119.75" y="245">"ANY"</text>
</g>
<path d="M151 241h10"></path>
<path d="M161 241h10"></path>
<g class="terminal ">
<path d="M171 241h0"></path>
<path d="M284.5 241h0"></path>
<rect x="171" y="230" width="113.5" height="22" rx="10" ry="10"></rect>
<text x="227.75" y="245">"STRUCTURE"</text>
</g>
</g>
<path d="M313 241a10 10 0 0 0 10 -10v-190a10 10 0 0 1 10 -10"></path>
<path d="M40 31a10 10 0 0 1 10 10v220a10 10 0 0 0 10 10"></path>
<g class="non-terminal ">
<path d="M60 271h82.5"></path>
<path d="M230.5 271h82.5"></path>
<rect x="142.5" y="260" width="88" height="22"></rect>
<a xlink:href="#/abap/expression/TypeName"><text x="186.5" y="275">TypeName</text>
</a>
</g>
<path d="M313 271a10 10 0 0 0 10 -10v-220a10 10 0 0 1 10 -10"></path>
</g>
<path d="M 333 31 h 20 m 0 -10 v 20"></path>
</g>
</svg>
