<svg xmlns="http://www.w3.org/2000/svg" xmlns:xlink="http://www.w3.org/1999/xlink" class="railroad-diagram" width="757" height="62" viewBox="0 0 757 62">
<defs>
<style type="text/css"><![CDATA[
path {
stroke-width: 3;
stroke: black;
fill: rgba(0,0,0,0);
}
text {
font: bold 14px monospace;
text-anchor: middle;
}
text.diagram-text {
font-size: 12px;
}
a {
fill: blue;
}
text.diagram-arrow {
font-size: 16px;
}
text.label {
text-anchor: start;
}
text.comment {
font: italic 12px monospace;
}
rect {
stroke-width: 3;
stroke: black;
fill: #BCBCBC;
}
path.diagram-text {
stroke-width: 3;
stroke: black;
fill: #BCBCBC;
cursor: help;
}
]]></style>
</defs>
<g transform="translate(.5 .5)">
<g>
<path d="M20 21v20m0 -10h20"></path>
</g>
<path d="M40 31h10"></path>
<g>
<path d="M50 31h0"></path>
<path d="M707 31h0"></path>
<g>
<path d="M50 31h0"></path>
<path d="M207 31h0"></path>
<text x="128.5" y="36" class="comment">v740sp02 or open-abap</text>
</g>
<path d="M207 31h10"></path>
<path d="M217 31h10"></path>
<g>
<path d="M227 31h0"></path>
<path d="M707 31h0"></path>
<g class="terminal">
<path d="M227 31h0"></path>
<path d="M366 31h0"></path>
<rect x="227" y="20" width="139" height="22" rx="10" ry="10"></rect>
<text x="296.5" y="35">"FIELD-SYMBOL"</text>
</g>
<path d="M366 31h10"></path>
<path d="M376 31h10"></path>
<g class="terminal">
<path d="M386 31h0"></path>
<path d="M440 31h0"></path>
<rect x="386" y="20" width="54" height="22" rx="10" ry="10"></rect>
<text x="413" y="35">!"("</text>
</g>
<path d="M440 31h10"></path>
<path d="M450 31h10"></path>
<g class="non-terminal">
<path d="M460 31h0"></path>
<path d="M624.5 31h0"></path>
<rect x="460" y="20" width="164.5" height="22"></rect>
<a xlink:href="#/abap/expression/TargetFieldSymbol"><text x="542.25" y="35">TargetFieldSymbol</text>
</a>
</g>
<path d="M624.5 31h10"></path>
<path d="M634.5 31h10"></path>
<g class="terminal">
<path d="M644.5 31h0"></path>
<path d="M707 31h0"></path>
<rect x="644.5" y="20" width="62.5" height="22" rx="10" ry="10"></rect>
<text x="675.75" y="35">!") "</text>
</g>
</g>
</g>
<path d="M707 31h10"></path>
<path d="M 717 31 h 20 m 0 -10 v 20"></path>
</g>
</svg>
