<svg xmlns="http://www.w3.org/2000/svg" xmlns:xlink="http://www.w3.org/1999/xlink" class="railroad-diagram" width="1103" height="251" viewBox="0 0 1103 251">
<defs>
<style type="text/css"><![CDATA[
path {
stroke-width: 3;
stroke: black;
fill: rgba(0,0,0,0);
}
text {
font: bold 14px monospace;
text-anchor: middle;
}
text.diagram-text {
font-size: 12px;
}
a {
fill: blue;
}
text.diagram-arrow {
font-size: 16px;
}
text.label {
text-anchor: start;
}
text.comment {
font: italic 12px monospace;
}
rect {
stroke-width: 3;
stroke: black;
fill: #BCBCBC;
}
path.diagram-text {
stroke-width: 3;
stroke: black;
fill: #BCBCBC;
cursor: help;
}
]]></style>
</defs>
<g transform="translate(.5 .5)">
<g>
<path d="M20 30v20m0 -10h20"></path>
</g>
<path d="M40 40h10"></path>
<g>
<path d="M50 40h0"></path>
<path d="M1053 40h0"></path>
<g class="comment ">
<path d="M50 40h0"></path>
<path d="M88 40h0"></path>
<text x="69" y="45" class="comment">v758</text>
</g>
<path d="M88 40h10"></path>
<path d="M98 40h10"></path>
<g>
<path d="M108 40h0"></path>
<path d="M1053 40h0"></path>
<g class="terminal ">
<path d="M108 40h0"></path>
<path d="M204.5 40h0"></path>
<rect x="108" y="29" width="96.5" height="22" rx="10" ry="10"></rect>
<text x="156.25" y="44">"OPTIONS"</text>
</g>
<path d="M204.5 40h10"></path>
<g>
<path d="M214.5 40h0"></path>
<path d="M1053 40h0"></path>
<path d="M214.5 40h20"></path>
<g>
<path d="M234.5 40h0"></path>
<path d="M1033 40h0"></path>
<g class="terminal ">
<path d="M234.5 40h0"></path>
<path d="M314 40h0"></path>
<rect x="234.5" y="29" width="79.5" height="22" rx="10" ry="10"></rect>
<text x="274.25" y="44">"USING"</text>
</g>
<path d="M314 40h10"></path>
<g>
<path d="M324 40h0"></path>
<path d="M683.5 40h0"></path>
<path d="M324 40h20"></path>
<g>
<path d="M344 40h0"></path>
<path d="M663.5 40h0"></path>
<g class="terminal ">
<path d="M344 40h0"></path>
<path d="M466 40h0"></path>
<rect x="344" y="29" width="122" height="22" rx="10" ry="10"></rect>
<text x="405" y="44">"CLIENTS IN"</text>
</g>
<path d="M466 40h10"></path>
<g>
<path d="M476 40h0"></path>
<path d="M663.5 40h0"></path>
<path d="M476 40h20"></path>
<g class="non-terminal ">
<path d="M496 40h0"></path>
<path d="M643.5 40h0"></path>
<rect x="496" y="29" width="147.5" height="22"></rect>
<a xlink:href="#/abap/expression/SQLSourceSimple"><text x="569.75" y="44">SQLSourceSimple</text>
</a>
</g>
<path d="M643.5 40h20"></path>
<path d="M476 40a10 10 0 0 1 10 10v10a10 10 0 0 0 10 10"></path>
<g class="terminal ">
<path d="M496 70h38.25"></path>
<path d="M605.25 70h38.25"></path>
<rect x="534.25" y="59" width="71" height="22" rx="10" ry="10"></rect>
<text x="569.75" y="74">"T000"</text>
</g>
<path d="M643.5 70a10 10 0 0 0 10 -10v-10a10 10 0 0 1 10 -10"></path>
</g>
</g>
<path d="M663.5 40h20"></path>
<path d="M324 40a10 10 0 0 1 10 10v40a10 10 0 0 0 10 10"></path>
<g class="terminal ">
<path d="M344 100h94.5"></path>
<path d="M569 100h94.5"></path>
<rect x="438.5" y="89" width="130.5" height="22" rx="10" ry="10"></rect>
<text x="503.75" y="104">"ALL CLIENTS"</text>
</g>
<path d="M663.5 100a10 10 0 0 0 10 -10v-40a10 10 0 0 1 10 -10"></path>
<path d="M324 40a10 10 0 0 1 10 10v70a10 10 0 0 0 10 10"></path>
<g>
<path d="M344 130h32"></path>
<path d="M631.5 130h32"></path>
<g class="terminal ">
<path d="M376 130h0"></path>
<path d="M464 130h0"></path>
<rect x="376" y="119" width="88" height="22" rx="10" ry="10"></rect>
<text x="420" y="134">"CLIENT"</text>
</g>
<path d="M464 130h10"></path>
<path d="M474 130h10"></path>
<g class="non-terminal ">
<path d="M484 130h0"></path>
<path d="M631.5 130h0"></path>
<rect x="484" y="119" width="147.5" height="22"></rect>
<a xlink:href="#/abap/expression/SQLSourceSimple"><text x="557.75" y="134">SQLSourceSimple</text>
</a>
</g>
</g>
<path d="M663.5 130a10 10 0 0 0 10 -10v-70a10 10 0 0 1 10 -10"></path>
</g>
<g>
<path d="M683.5 40h0"></path>
<path d="M1033 40h0"></path>
<path d="M683.5 40a10 10 0 0 0 10 -10v0a10 10 0 0 1 10 -10"></path>
<g>
<path d="M703.5 20h309.5"></path>
</g>
<path d="M1013 20a10 10 0 0 1 10 10v0a10 10 0 0 0 10 10"></path>
<path d="M683.5 40h20"></path>
<g>
<path d="M703.5 40h0"></path>
<path d="M1013 40h0"></path>
<path d="M733.5 40h10"></path>
<g>
<path d="M743.5 40h0"></path>
<path d="M983 40h0"></path>
<g class="comment ">
<path d="M743.5 40h0"></path>
<path d="M781.5 40h0"></path>
<text x="762.5" y="45" class="comment">v758</text>
</g>
<path d="M781.5 40h10"></path>
<path d="M791.5 40h10"></path>
<g class="non-terminal ">
<path d="M801.5 40h0"></path>
<path d="M983 40h0"></path>
<rect x="801.5" y="29" width="181.5" height="22"></rect>
<a xlink:href="#/abap/expression/SQLPrivilegedAccess"><text x="892.25" y="44">SQLPrivilegedAccess</text>
</a>
</g>
</g>
<path d="M983 40h10"></path>
<path d="M733.5 40v20a10 10 0 0 0 10 10"></path>
<g class="non-terminal ">
<path d="M743.5 70h33.25"></path>
<path d="M949.75 70h33.25"></path>
<rect x="776.75" y="59" width="173" height="22"></rect>
<a xlink:href="#/abap/expression/SQLBypassingBuffer"><text x="863.25" y="74">SQLBypassingBuffer</text>
</a>
</g>
<path d="M983 70a10 10 0 0 0 10 -10v-20"></path>
<path d="M733.5 40v50a10 10 0 0 0 10 10"></path>
<g class="non-terminal ">
<path d="M743.5 100h33.25"></path>
<path d="M949.75 100h33.25"></path>
<rect x="776.75" y="89" width="173" height="22"></rect>
<a xlink:href="#/abap/expression/DatabaseConnection"><text x="863.25" y="104">DatabaseConnection</text>
</a>
</g>
<path d="M983 100a10 10 0 0 0 10 -10v-50"></path>
<g class="diagram-text">
<title>take one or more branches, once each, in any order</title>
<path d="M 733.5 30 h -26 a 4 4 0 0 0 -4 4 v 12 a 4 4 0 0 0 4 4 h 26 z" class="diagram-text"></path>
<text x="718.5" y="44" class="diagram-text">1+</text>
<path d="M 993 30 h 16 a 4 4 0 0 1 4 4 v 12 a 4 4 0 0 1 -4 4 h -16 z" class="diagram-text"></path>
<path d="M 1000 38 a 4 4 0 1 0 6 -1 m 2.75 -1 h -4 v 4 m 0 -3 h 2" style="stroke-width: 1.75"></path>
</g>
</g>
<path d="M1013 40h20"></path>
</g>
</g>
<path d="M1033 40h20"></path>
<path d="M214.5 40a10 10 0 0 1 10 10v100a10 10 0 0 0 10 10"></path>
<g>
<path d="M234.5 160h244.5"></path>
<path d="M788.5 160h244.5"></path>
<path d="M509 160h10"></path>
<g>
<path d="M519 160h0"></path>
<path d="M758.5 160h0"></path>
<g class="comment ">
<path d="M519 160h0"></path>
<path d="M557 160h0"></path>
<text x="538" y="165" class="comment">v758</text>
</g>
<path d="M557 160h10"></path>
<path d="M567 160h10"></path>
<g class="non-terminal ">
<path d="M577 160h0"></path>
<path d="M758.5 160h0"></path>
<rect x="577" y="149" width="181.5" height="22"></rect>
<a xlink:href="#/abap/expression/SQLPrivilegedAccess"><text x="667.75" y="164">SQLPrivilegedAccess</text>
</a>
</g>
</g>
<path d="M758.5 160h10"></path>
<path d="M509 160v20a10 10 0 0 0 10 10"></path>
<g class="non-terminal ">
<path d="M519 190h33.25"></path>
<path d="M725.25 190h33.25"></path>
<rect x="552.25" y="179" width="173" height="22"></rect>
<a xlink:href="#/abap/expression/SQLBypassingBuffer"><text x="638.75" y="194">SQLBypassingBuffer</text>
</a>
</g>
<path d="M758.5 190a10 10 0 0 0 10 -10v-20"></path>
<path d="M509 160v50a10 10 0 0 0 10 10"></path>
<g class="non-terminal ">
<path d="M519 220h33.25"></path>
<path d="M725.25 220h33.25"></path>
<rect x="552.25" y="209" width="173" height="22"></rect>
<a xlink:href="#/abap/expression/DatabaseConnection"><text x="638.75" y="224">DatabaseConnection</text>
</a>
</g>
<path d="M758.5 220a10 10 0 0 0 10 -10v-50"></path>
<g class="diagram-text">
<title>take one or more branches, once each, in any order</title>
<path d="M 509 150 h -26 a 4 4 0 0 0 -4 4 v 12 a 4 4 0 0 0 4 4 h 26 z" class="diagram-text"></path>
<text x="494" y="164" class="diagram-text">1+</text>
<path d="M 768.5 150 h 16 a 4 4 0 0 1 4 4 v 12 a 4 4 0 0 1 -4 4 h -16 z" class="diagram-text"></path>
<path d="M 775.5 158 a 4 4 0 1 0 6 -1 m 2.75 -1 h -4 v 4 m 0 -3 h 2" style="stroke-width: 1.75"></path>
</g>
</g>
<path d="M1033 160a10 10 0 0 0 10 -10v-100a10 10 0 0 1 10 -10"></path>
</g>
</g>
</g>
<path d="M1053 40h10"></path>
<path d="M 1063 40 h 20 m 0 -10 v 20"></path>
</g>
</svg>
