<svg xmlns="http://www.w3.org/2000/svg" xmlns:xlink="http://www.w3.org/1999/xlink" class="railroad-diagram" width="911.5" height="109" viewBox="0 0 911.5 109">
<defs>
<style type="text/css"><![CDATA[
path {
stroke-width: 3;
stroke: black;
fill: rgba(0,0,0,0);
}
text {
font: bold 14px monospace;
text-anchor: middle;
}
text.diagram-text {
font-size: 12px;
}
a {
fill: blue;
}
text.diagram-arrow {
font-size: 16px;
}
text.label {
text-anchor: start;
}
text.comment {
font: italic 12px monospace;
}
rect {
stroke-width: 3;
stroke: black;
fill: #BCBCBC;
}
path.diagram-text {
stroke-width: 3;
stroke: black;
fill: #BCBCBC;
cursor: help;
}
]]></style>
</defs>
<g transform="translate(.5 .5)">
<g>
<path d="M20 30v20m0 -10h20"></path>
</g>
<path d="M40 40h10"></path>
<g>
<path d="M50 40h0"></path>
<path d="M861.5 40h0"></path>
<g class="non-terminal ">
<path d="M50 40h0"></path>
<path d="M180.5 40h0"></path>
<rect x="50" y="29" width="130.5" height="22"></rect>
<a xlink:href="#/abap/expression/ComponentName"><text x="115.25" y="44">ComponentName</text>
</a>
</g>
<path d="M180.5 40h10"></path>
<g>
<path d="M190.5 40h0"></path>
<path d="M554.5 40h0"></path>
<path d="M190.5 40a10 10 0 0 0 10 -10v0a10 10 0 0 1 10 -10"></path>
<g>
<path d="M210.5 20h324"></path>
</g>
<path d="M534.5 20a10 10 0 0 1 10 10v0a10 10 0 0 0 10 10"></path>
<path d="M190.5 40h20"></path>
<g>
<path d="M210.5 40h0"></path>
<path d="M534.5 40h0"></path>
<path d="M210.5 40h10"></path>
<g>
<path d="M220.5 40h0"></path>
<path d="M524.5 40h0"></path>
<path d="M220.5 40h20"></path>
<g class="non-terminal ">
<path d="M240.5 40h75.25"></path>
<path d="M429.25 40h75.25"></path>
<rect x="315.75" y="29" width="113.5" height="22"></rect>
<a xlink:href="#/abap/expression/Dereference"><text x="372.5" y="44">Dereference</text>
</a>
</g>
<path d="M504.5 40h20"></path>
<path d="M220.5 40a10 10 0 0 1 10 10v10a10 10 0 0 0 10 10"></path>
<g>
<path d="M240.5 70h0"></path>
<path d="M504.5 70h0"></path>
<g class="non-terminal ">
<path d="M240.5 70h0"></path>
<path d="M354 70h0"></path>
<rect x="240.5" y="59" width="113.5" height="22"></rect>
<a xlink:href="#/abap/expression/ArrowOrDash"><text x="297.25" y="74">ArrowOrDash</text>
</a>
</g>
<path d="M354 70h10"></path>
<path d="M364 70h10"></path>
<g class="non-terminal ">
<path d="M374 70h0"></path>
<path d="M504.5 70h0"></path>
<rect x="374" y="59" width="130.5" height="22"></rect>
<a xlink:href="#/abap/expression/ComponentName"><text x="439.25" y="74">ComponentName</text>
</a>
</g>
</g>
<path d="M504.5 70a10 10 0 0 0 10 -10v-10a10 10 0 0 1 10 -10"></path>
</g>
<path d="M524.5 40h10"></path>
<path d="M220.5 40a10 10 0 0 0 -10 10v29a10 10 0 0 0 10 10"></path>
<g>
<path d="M220.5 89h304"></path>
</g>
<path d="M524.5 89a10 10 0 0 0 10 -10v-29a10 10 0 0 0 -10 -10"></path>
</g>
<path d="M534.5 40h20"></path>
</g>
<g>
<path d="M554.5 40h0"></path>
<path d="M708 40h0"></path>
<path d="M554.5 40a10 10 0 0 0 10 -10v0a10 10 0 0 1 10 -10"></path>
<g>
<path d="M574.5 20h113.5"></path>
</g>
<path d="M688 20a10 10 0 0 1 10 10v0a10 10 0 0 0 10 10"></path>
<path d="M554.5 40h20"></path>
<g class="non-terminal ">
<path d="M574.5 40h0"></path>
<path d="M688 40h0"></path>
<rect x="574.5" y="29" width="113.5" height="22"></rect>
<a xlink:href="#/abap/expression/FieldOffset"><text x="631.25" y="44">FieldOffset</text>
</a>
</g>
<path d="M688 40h20"></path>
</g>
<g>
<path d="M708 40h0"></path>
<path d="M861.5 40h0"></path>
<path d="M708 40a10 10 0 0 0 10 -10v0a10 10 0 0 1 10 -10"></path>
<g>
<path d="M728 20h113.5"></path>
</g>
<path d="M841.5 20a10 10 0 0 1 10 10v0a10 10 0 0 0 10 10"></path>
<path d="M708 40h20"></path>
<g class="non-terminal ">
<path d="M728 40h0"></path>
<path d="M841.5 40h0"></path>
<rect x="728" y="29" width="113.5" height="22"></rect>
<a xlink:href="#/abap/expression/FieldLength"><text x="784.75" y="44">FieldLength</text>
</a>
</g>
<path d="M841.5 40h20"></path>
</g>
</g>
<path d="M861.5 40h10"></path>
<path d="M 871.5 40 h 20 m 0 -10 v 20"></path>
</g>
</svg>
