<svg xmlns="http://www.w3.org/2000/svg" xmlns:xlink="http://www.w3.org/1999/xlink" class="railroad-diagram" width="1303" height="187" viewBox="0 0 1303 187">
<defs>
<style type="text/css"><![CDATA[
path {
stroke-width: 3;
stroke: black;
fill: rgba(0,0,0,0);
}
text {
font: bold 14px monospace;
text-anchor: middle;
}
text.diagram-text {
font-size: 12px;
}
a {
fill: blue;
}
text.diagram-arrow {
font-size: 16px;
}
text.label {
text-anchor: start;
}
text.comment {
font: italic 12px monospace;
}
rect {
stroke-width: 3;
stroke: black;
fill: #BCBCBC;
}
path.diagram-text {
stroke-width: 3;
stroke: black;
fill: #BCBCBC;
cursor: help;
}
]]></style>
</defs>
<g transform="translate(.5 .5)">
<g>
<path d="M20 30v20m0 -10h20"></path>
</g>
<path d="M40 40h10"></path>
<g>
<path d="M50 40h0"></path>
<path d="M1253 40h0"></path>
<g class="comment ">
<path d="M50 40h0"></path>
<path d="M193 40h0"></path>
<text x="121.5" y="45" class="comment">740SP02 or OpenABAP</text>
</g>
<path d="M193 40h10"></path>
<path d="M203 40h10"></path>
<g>
<path d="M213 40h0"></path>
<path d="M1253 40h0"></path>
<g class="terminal ">
<path d="M213 40h0"></path>
<path d="M275.5 40h0"></path>
<rect x="213" y="29" width="62.5" height="22" rx="10" ry="10"></rect>
<text x="244.25" y="44">"NEW"</text>
</g>
<path d="M275.5 40h10"></path>
<path d="M285.5 40h10"></path>
<g class="non-terminal ">
<path d="M295.5 40h0"></path>
<path d="M443 40h0"></path>
<rect x="295.5" y="29" width="147.5" height="22"></rect>
<a xlink:href="#/abap/expression/TypeNameOrInfer"><text x="369.25" y="44">TypeNameOrInfer</text>
</a>
</g>
<path d="M443 40h10"></path>
<path d="M453 40h10"></path>
<g class="terminal ">
<path d="M463 40h0"></path>
<path d="M593.5 40h0"></path>
<rect x="463" y="29" width="130.5" height="22" rx="10" ry="10"></rect>
<text x="528.25" y="44">!"ParenLeftW"</text>
</g>
<path d="M593.5 40h10"></path>
<g>
<path d="M603.5 40h0"></path>
<path d="M1197.5 40h0"></path>
<path d="M603.5 40a10 10 0 0 0 10 -10v0a10 10 0 0 1 10 -10"></path>
<g>
<path d="M623.5 20h554"></path>
</g>
<path d="M1177.5 20a10 10 0 0 1 10 10v0a10 10 0 0 0 10 10"></path>
<path d="M603.5 40h20"></path>
<g>
<path d="M623.5 40h0"></path>
<path d="M1177.5 40h0"></path>
<path d="M623.5 40h20"></path>
<g class="non-terminal ">
<path d="M643.5 40h221.5"></path>
<path d="M936 40h221.5"></path>
<rect x="865" y="29" width="71" height="22"></rect>
<a xlink:href="#/abap/expression/Source"><text x="900.5" y="44">Source</text>
</a>
</g>
<path d="M1157.5 40h20"></path>
<path d="M623.5 40a10 10 0 0 1 10 10v10a10 10 0 0 0 10 10"></path>
<g class="non-terminal ">
<path d="M643.5 70h187.5"></path>
<path d="M970 70h187.5"></path>
<rect x="831" y="59" width="139" height="22"></rect>
<a xlink:href="#/abap/expression/ParameterListS"><text x="900.5" y="74">ParameterListS</text>
</a>
</g>
<path d="M1157.5 70a10 10 0 0 0 10 -10v-10a10 10 0 0 1 10 -10"></path>
<path d="M623.5 40a10 10 0 0 1 10 10v40a10 10 0 0 0 10 10"></path>
<g>
<path d="M643.5 100h48.25"></path>
<path d="M1109.25 100h48.25"></path>
<path d="M691.75 100h10"></path>
<g>
<path d="M701.75 100h0"></path>
<path d="M1099.25 100h0"></path>
<g class="terminal ">
<path d="M701.75 100h0"></path>
<path d="M840.75 100h0"></path>
<rect x="701.75" y="89" width="139" height="22" rx="10" ry="10"></rect>
<text x="771.25" y="104">!"WParenLeftW"</text>
</g>
<path d="M840.75 100h10"></path>
<path d="M850.75 100h10"></path>
<g class="non-terminal ">
<path d="M860.75 100h0"></path>
<path d="M931.75 100h0"></path>
<rect x="860.75" y="89" width="71" height="22"></rect>
<a xlink:href="#/abap/expression/Source"><text x="896.25" y="104">Source</text>
</a>
</g>
<path d="M931.75 100h10"></path>
<path d="M941.75 100h10"></path>
<g class="terminal ">
<path d="M951.75 100h0"></path>
<path d="M1099.25 100h0"></path>
<rect x="951.75" y="89" width="147.5" height="22" rx="10" ry="10"></rect>
<text x="1025.5" y="104">!"WParenRightW"</text>
</g>
</g>
<path d="M1099.25 100h10"></path>
<path d="M701.75 100a10 10 0 0 0 -10 10v0a10 10 0 0 0 10 10"></path>
<g>
<path d="M701.75 120h397.5"></path>
</g>
<path d="M1099.25 120a10 10 0 0 0 10 -10v0a10 10 0 0 0 -10 -10"></path>
</g>
<path d="M1157.5 100a10 10 0 0 0 10 -10v-40a10 10 0 0 1 10 -10"></path>
<path d="M623.5 40a10 10 0 0 1 10 10v79a10 10 0 0 0 10 10"></path>
<g>
<path d="M643.5 139h0"></path>
<path d="M1157.5 139h0"></path>
<path d="M643.5 139h10"></path>
<g>
<path d="M653.5 139h0"></path>
<path d="M1147.5 139h0"></path>
<g class="terminal ">
<path d="M653.5 139h0"></path>
<path d="M792.5 139h0"></path>
<rect x="653.5" y="128" width="139" height="22" rx="10" ry="10"></rect>
<text x="723" y="143">!"WParenLeftW"</text>
</g>
<path d="M792.5 139h10"></path>
<path d="M802.5 139h10"></path>
<g>
<path d="M812.5 139h0"></path>
<path d="M980 139h0"></path>
<path d="M812.5 139h10"></path>
<g class="non-terminal ">
<path d="M822.5 139h0"></path>
<path d="M970 139h0"></path>
<rect x="822.5" y="128" width="147.5" height="22"></rect>
<a xlink:href="#/abap/expression/FieldAssignment"><text x="896.25" y="143">FieldAssignment</text>
</a>
</g>
<path d="M970 139h10"></path>
<path d="M822.5 139a10 10 0 0 0 -10 10v0a10 10 0 0 0 10 10"></path>
<g>
<path d="M822.5 159h147.5"></path>
</g>
<path d="M970 159a10 10 0 0 0 10 -10v0a10 10 0 0 0 -10 -10"></path>
</g>
<path d="M980 139h10"></path>
<path d="M990 139h10"></path>
<g class="terminal ">
<path d="M1000 139h0"></path>
<path d="M1147.5 139h0"></path>
<rect x="1000" y="128" width="147.5" height="22" rx="10" ry="10"></rect>
<text x="1073.75" y="143">!"WParenRightW"</text>
</g>
</g>
<path d="M1147.5 139h10"></path>
<path d="M653.5 139a10 10 0 0 0 -10 10v8a10 10 0 0 0 10 10"></path>
<g>
<path d="M653.5 167h494"></path>
</g>
<path d="M1147.5 167a10 10 0 0 0 10 -10v-8a10 10 0 0 0 -10 -10"></path>
</g>
<path d="M1157.5 139a10 10 0 0 0 10 -10v-79a10 10 0 0 1 10 -10"></path>
</g>
<path d="M1177.5 40h20"></path>
</g>
<path d="M1197.5 40h10"></path>
<g class="terminal ">
<path d="M1207.5 40h0"></path>
<path d="M1253 40h0"></path>
<rect x="1207.5" y="29" width="45.5" height="22" rx="10" ry="10"></rect>
<text x="1230.25" y="44">")"</text>
</g>
</g>
</g>
<path d="M1253 40h10"></path>
<path d="M 1263 40 h 20 m 0 -10 v 20"></path>
</g>
</svg>
