<svg xmlns="http://www.w3.org/2000/svg" xmlns:xlink="http://www.w3.org/1999/xlink" class="railroad-diagram" width="818.5" height="152" viewBox="0 0 818.5 152">
<defs>
<style type="text/css"><![CDATA[
path {
stroke-width: 3;
stroke: black;
fill: rgba(0,0,0,0);
}
text {
font: bold 14px monospace;
text-anchor: middle;
}
text.diagram-text {
font-size: 12px;
}
a {
fill: blue;
}
text.diagram-arrow {
font-size: 16px;
}
text.label {
text-anchor: start;
}
text.comment {
font: italic 12px monospace;
}
rect {
stroke-width: 3;
stroke: black;
fill: #BCBCBC;
}
path.diagram-text {
stroke-width: 3;
stroke: black;
fill: #BCBCBC;
cursor: help;
}
]]></style>
</defs>
<g transform="translate(.5 .5)">
<g>
<path d="M20 21v20m0 -10h20"></path>
</g>
<g>
<path d="M40 31h0"></path>
<path d="M778.5 31h0"></path>
<path d="M40 31h20"></path>
<g>
<path d="M60 31h0"></path>
<path d="M758.5 31h0"></path>
<g class="comment ">
<path d="M60 31h0"></path>
<path d="M203 31h0"></path>
<text x="131.5" y="36" class="comment">740SP02 or OpenABAP</text>
</g>
<path d="M203 31h10"></path>
<path d="M213 31h10"></path>
<g>
<path d="M223 31h0"></path>
<path d="M758.5 31h0"></path>
<g class="terminal ">
<path d="M223 31h0"></path>
<path d="M294 31h0"></path>
<rect x="223" y="20" width="71" height="22" rx="10" ry="10"></rect>
<text x="258.5" y="35">"DATA"</text>
</g>
<path d="M294 31h10"></path>
<path d="M304 31h10"></path>
<g class="terminal ">
<path d="M314 31h0"></path>
<path d="M436 31h0"></path>
<rect x="314" y="20" width="122" height="22" rx="10" ry="10"></rect>
<text x="375" y="35">!"ParenLeft"</text>
</g>
<path d="M436 31h10"></path>
<path d="M446 31h10"></path>
<g class="non-terminal ">
<path d="M456 31h0"></path>
<path d="M569.5 31h0"></path>
<rect x="456" y="20" width="113.5" height="22"></rect>
<a xlink:href="#/abap/expression/TargetField"><text x="512.75" y="35">TargetField</text>
</a>
</g>
<path d="M569.5 31h10"></path>
<g>
<path d="M579.5 31h0"></path>
<path d="M758.5 31h0"></path>
<path d="M579.5 31h20"></path>
<g class="terminal ">
<path d="M599.5 31h0"></path>
<path d="M738.5 31h0"></path>
<rect x="599.5" y="20" width="139" height="22" rx="10" ry="10"></rect>
<text x="669" y="35">!"ParenRightW"</text>
</g>
<path d="M738.5 31h20"></path>
<path d="M579.5 31a10 10 0 0 1 10 10v10a10 10 0 0 0 10 10"></path>
<g class="terminal ">
<path d="M599.5 61h4.25"></path>
<path d="M734.25 61h4.25"></path>
<rect x="603.75" y="50" width="130.5" height="22" rx="10" ry="10"></rect>
<text x="669" y="65">!"ParenRight"</text>
</g>
<path d="M738.5 61a10 10 0 0 0 10 -10v-10a10 10 0 0 1 10 -10"></path>
</g>
</g>
</g>
<path d="M758.5 31h20"></path>
<path d="M40 31a10 10 0 0 1 10 10v40a10 10 0 0 0 10 10"></path>
<g>
<path d="M60 91h6.25"></path>
<path d="M752.25 91h6.25"></path>
<g class="comment ">
<path d="M66.25 91h0"></path>
<path d="M188.25 91h0"></path>
<text x="127.25" y="96" class="comment">7.89 or OpenABAP</text>
</g>
<path d="M188.25 91h10"></path>
<path d="M198.25 91h10"></path>
<g>
<path d="M208.25 91h0"></path>
<path d="M752.25 91h0"></path>
<g class="terminal ">
<path d="M208.25 91h0"></path>
<path d="M287.75 91h0"></path>
<rect x="208.25" y="80" width="79.5" height="22" rx="10" ry="10"></rect>
<text x="248" y="95">"FINAL"</text>
</g>
<path d="M287.75 91h10"></path>
<path d="M297.75 91h10"></path>
<g class="terminal ">
<path d="M307.75 91h0"></path>
<path d="M429.75 91h0"></path>
<rect x="307.75" y="80" width="122" height="22" rx="10" ry="10"></rect>
<text x="368.75" y="95">!"ParenLeft"</text>
</g>
<path d="M429.75 91h10"></path>
<path d="M439.75 91h10"></path>
<g class="non-terminal ">
<path d="M449.75 91h0"></path>
<path d="M563.25 91h0"></path>
<rect x="449.75" y="80" width="113.5" height="22"></rect>
<a xlink:href="#/abap/expression/TargetField"><text x="506.5" y="95">TargetField</text>
</a>
</g>
<path d="M563.25 91h10"></path>
<g>
<path d="M573.25 91h0"></path>
<path d="M752.25 91h0"></path>
<path d="M573.25 91h20"></path>
<g class="terminal ">
<path d="M593.25 91h0"></path>
<path d="M732.25 91h0"></path>
<rect x="593.25" y="80" width="139" height="22" rx="10" ry="10"></rect>
<text x="662.75" y="95">!"ParenRightW"</text>
</g>
<path d="M732.25 91h20"></path>
<path d="M573.25 91a10 10 0 0 1 10 10v10a10 10 0 0 0 10 10"></path>
<g class="terminal ">
<path d="M593.25 121h4.25"></path>
<path d="M728 121h4.25"></path>
<rect x="597.5" y="110" width="130.5" height="22" rx="10" ry="10"></rect>
<text x="662.75" y="125">!"ParenRight"</text>
</g>
<path d="M732.25 121a10 10 0 0 0 10 -10v-10a10 10 0 0 1 10 -10"></path>
</g>
</g>
</g>
<path d="M758.5 91a10 10 0 0 0 10 -10v-40a10 10 0 0 1 10 -10"></path>
</g>
<path d="M 778.5 31 h 20 m 0 -10 v 20"></path>
</g>
</svg>
