<svg xmlns="http://www.w3.org/2000/svg" xmlns:xlink="http://www.w3.org/1999/xlink" class="railroad-diagram" width="553" height="71" viewBox="0 0 553 71">
<defs>
<style type="text/css"><![CDATA[
path {
stroke-width: 3;
stroke: black;
fill: rgba(0,0,0,0);
}
text {
font: bold 14px monospace;
text-anchor: middle;
}
text.diagram-text {
font-size: 12px;
}
a {
fill: blue;
}
text.diagram-arrow {
font-size: 16px;
}
text.label {
text-anchor: start;
}
text.comment {
font: italic 12px monospace;
}
rect {
stroke-width: 3;
stroke: black;
fill: #BCBCBC;
}
path.diagram-text {
stroke-width: 3;
stroke: black;
fill: #BCBCBC;
cursor: help;
}
]]></style>
</defs>
<g transform="translate(.5 .5)">
<g>
<path d="M20 30v20m0 -10h20"></path>
</g>
<path d="M40 40h10"></path>
<g>
<path d="M50 40h0"></path>
<path d="M503 40h0"></path>
<g class="terminal">
<path d="M50 40h0"></path>
<path d="M316.5 40h0"></path>
<rect x="50" y="29" width="266.5" height="22" rx="10" ry="10"></rect>
<text x="183.25" y="44">^&#60;?(\/\w+\/)?&#91;\w%&#93;+(~\w+)?>?$</text>
</g>
<path d="M316.5 40h10"></path>
<g>
<path d="M326.5 40h0"></path>
<path d="M503 40h0"></path>
<path d="M326.5 40a10 10 0 0 0 10 -10v0a10 10 0 0 1 10 -10"></path>
<g>
<path d="M346.5 20h136.5"></path>
</g>
<path d="M483 20a10 10 0 0 1 10 10v0a10 10 0 0 0 10 10"></path>
<path d="M326.5 40h20"></path>
<g>
<path d="M346.5 40h0"></path>
<path d="M483 40h0"></path>
<g class="terminal">
<path d="M346.5 40h0"></path>
<path d="M400.5 40h0"></path>
<rect x="346.5" y="29" width="54" height="22" rx="10" ry="10"></rect>
<text x="373.5" y="44">!"-"</text>
</g>
<path d="M400.5 40h10"></path>
<path d="M410.5 40h10"></path>
<g class="terminal">
<path d="M420.5 40h0"></path>
<path d="M483 40h0"></path>
<rect x="420.5" y="29" width="62.5" height="22" rx="10" ry="10"></rect>
<text x="451.75" y="44">^\w+$</text>
</g>
</g>
<path d="M483 40h20"></path>
</g>
</g>
<path d="M503 40h10"></path>
<path d="M 513 40 h 20 m 0 -10 v 20"></path>
</g>
</svg>
