<svg xmlns="http://www.w3.org/2000/svg" xmlns:xlink="http://www.w3.org/1999/xlink" class="railroad-diagram" width="927" height="101" viewBox="0 0 927 101">
<defs>
<style type="text/css"><![CDATA[
path {
stroke-width: 3;
stroke: black;
fill: rgba(0,0,0,0);
}
text {
font: bold 14px monospace;
text-anchor: middle;
}
text.diagram-text {
font-size: 12px;
}
a {
fill: blue;
}
text.diagram-arrow {
font-size: 16px;
}
text.label {
text-anchor: start;
}
text.comment {
font: italic 12px monospace;
}
rect {
stroke-width: 3;
stroke: black;
fill: #BCBCBC;
}
path.diagram-text {
stroke-width: 3;
stroke: black;
fill: #BCBCBC;
cursor: help;
}
]]></style>
</defs>
<g transform="translate(.5 .5)">
<g>
<path d="M20 30v20m0 -10h20"></path>
</g>
<path d="M40 40h10"></path>
<g>
<path d="M50 40h0"></path>
<path d="M877 40h0"></path>
<g class="terminal ">
<path d="M50 40h0"></path>
<path d="M121 40h0"></path>
<rect x="50" y="29" width="71" height="22" rx="10" ry="10"></rect>
<text x="85.5" y="44">"INTO"</text>
</g>
<path d="M121 40h10"></path>
<path d="M131 40h10"></path>
<g>
<path d="M141 40h0"></path>
<path d="M877 40h0"></path>
<g>
<path d="M141 40h0"></path>
<path d="M483 40h0"></path>
<path d="M141 40h20"></path>
<g class="terminal ">
<path d="M161 40h85.75"></path>
<path d="M377.25 40h85.75"></path>
<rect x="246.75" y="29" width="130.5" height="22" rx="10" ry="10"></rect>
<text x="312" y="44">!"WParenLeft"</text>
</g>
<path d="M463 40h20"></path>
<path d="M141 40a10 10 0 0 1 10 10v10a10 10 0 0 0 10 10"></path>
<g>
<path d="M161 70h0"></path>
<path d="M463 70h0"></path>
<g class="comment ">
<path d="M161 70h0"></path>
<path d="M304 70h0"></path>
<text x="232.5" y="75" class="comment">740SP02 or OpenABAP</text>
</g>
<path d="M304 70h10"></path>
<path d="M314 70h10"></path>
<g class="terminal ">
<path d="M324 70h0"></path>
<path d="M463 70h0"></path>
<rect x="324" y="59" width="139" height="22" rx="10" ry="10"></rect>
<text x="393.5" y="74">!"WParenLeftW"</text>
</g>
</g>
<path d="M463 70a10 10 0 0 0 10 -10v-10a10 10 0 0 1 10 -10"></path>
</g>
<g>
<path d="M483 40h0"></path>
<path d="M705 40h0"></path>
<path d="M483 40a10 10 0 0 0 10 -10v0a10 10 0 0 1 10 -10"></path>
<g>
<path d="M503 20h182"></path>
</g>
<path d="M685 20a10 10 0 0 1 10 10v0a10 10 0 0 0 10 10"></path>
<path d="M483 40h20"></path>
<g>
<path d="M503 40h0"></path>
<path d="M685 40h0"></path>
<path d="M503 40h10"></path>
<g>
<path d="M513 40h0"></path>
<path d="M675 40h0"></path>
<g class="non-terminal ">
<path d="M513 40h0"></path>
<path d="M609.5 40h0"></path>
<rect x="513" y="29" width="96.5" height="22"></rect>
<a xlink:href="#/abap/expression/SQLTarget"><text x="561.25" y="44">SQLTarget</text>
</a>
</g>
<path d="M609.5 40h10"></path>
<path d="M619.5 40h10"></path>
<g class="terminal ">
<path d="M629.5 40h0"></path>
<path d="M675 40h0"></path>
<rect x="629.5" y="29" width="45.5" height="22" rx="10" ry="10"></rect>
<text x="652.25" y="44">","</text>
</g>
</g>
<path d="M675 40h10"></path>
<path d="M513 40a10 10 0 0 0 -10 10v0a10 10 0 0 0 10 10"></path>
<g>
<path d="M513 60h162"></path>
</g>
<path d="M675 60a10 10 0 0 0 10 -10v0a10 10 0 0 0 -10 -10"></path>
</g>
<path d="M685 40h20"></path>
</g>
<path d="M705 40h10"></path>
<g class="non-terminal ">
<path d="M715 40h0"></path>
<path d="M811.5 40h0"></path>
<rect x="715" y="29" width="96.5" height="22"></rect>
<a xlink:href="#/abap/expression/SQLTarget"><text x="763.25" y="44">SQLTarget</text>
</a>
</g>
<path d="M811.5 40h10"></path>
<path d="M821.5 40h10"></path>
<g class="terminal ">
<path d="M831.5 40h0"></path>
<path d="M877 40h0"></path>
<rect x="831.5" y="29" width="45.5" height="22" rx="10" ry="10"></rect>
<text x="854.25" y="44">")"</text>
</g>
</g>
</g>
<path d="M877 40h10"></path>
<path d="M 887 40 h 20 m 0 -10 v 20"></path>
</g>
</svg>
