<svg xmlns="http://www.w3.org/2000/svg" xmlns:xlink="http://www.w3.org/1999/xlink" class="railroad-diagram" width="2452" height="245" viewBox="0 0 2452 245">
<defs>
<style type="text/css"><![CDATA[
path {
stroke-width: 3;
stroke: black;
fill: rgba(0,0,0,0);
}
text {
font: bold 14px monospace;
text-anchor: middle;
}
text.diagram-text {
font-size: 12px;
}
a {
fill: blue;
}
text.diagram-arrow {
font-size: 16px;
}
text.label {
text-anchor: start;
}
text.comment {
font: italic 12px monospace;
}
rect {
stroke-width: 3;
stroke: black;
fill: #BCBCBC;
}
path.diagram-text {
stroke-width: 3;
stroke: black;
fill: #BCBCBC;
cursor: help;
}
]]></style>
</defs>
<g transform="translate(.5 .5)">
<g>
<path d="M20 38v20m0 -10h20"></path>
</g>
<path d="M40 48h10"></path>
<g>
<path d="M50 48h0"></path>
<path d="M2402 48h0"></path>
<g>
<path d="M50 48h0"></path>
<path d="M207 48h0"></path>
<text x="128.5" y="53" class="comment">v740sp05 or open-abap</text>
</g>
<path d="M207 48h10"></path>
<path d="M217 48h10"></path>
<g>
<path d="M227 48h0"></path>
<path d="M2402 48h0"></path>
<g class="terminal">
<path d="M227 48h0"></path>
<path d="M298 48h0"></path>
<rect x="227" y="37" width="71" height="22" rx="10" ry="10"></rect>
<text x="262.5" y="52">"CASE"</text>
</g>
<path d="M298 48h10"></path>
<g>
<path d="M308 48h0"></path>
<path d="M643.5 48h0"></path>
<path d="M308 48a10 10 0 0 0 10 -10v0a10 10 0 0 1 10 -10"></path>
<g>
<path d="M328 28h295.5"></path>
</g>
<path d="M623.5 28a10 10 0 0 1 10 10v0a10 10 0 0 0 10 10"></path>
<path d="M308 48h20"></path>
<g>
<path d="M328 48h0"></path>
<path d="M623.5 48h0"></path>
<path d="M328 48h20"></path>
<g class="non-terminal">
<path d="M348 48h0"></path>
<path d="M470 48h133.5"></path>
<rect x="348" y="37" width="122" height="22"></rect>
<a xlink:href="#/abap/expression/SQLFieldName"><text x="409" y="52">SQLFieldName</text>
</a>
</g>
<path d="M603.5 48h20"></path>
<path d="M328 48a10 10 0 0 1 10 10v10a10 10 0 0 0 10 10"></path>
<g>
<path d="M348 78h0"></path>
<path d="M603.5 78h0"></path>
<g class="terminal">
<path d="M348 78h0"></path>
<path d="M419 78h0"></path>
<rect x="348" y="67" width="71" height="22" rx="10" ry="10"></rect>
<text x="383.5" y="82">!"WAt"</text>
</g>
<path d="M419 78h10"></path>
<path d="M429 78h10"></path>
<g class="non-terminal">
<path d="M439 78h0"></path>
<path d="M603.5 78h0"></path>
<rect x="439" y="67" width="164.5" height="22"></rect>
<a xlink:href="#/abap/expression/SimpleFieldChain2"><text x="521.25" y="82">SimpleFieldChain2</text>
</a>
</g>
</g>
<path d="M603.5 78a10 10 0 0 0 10 -10v-10a10 10 0 0 1 10 -10"></path>
</g>
<path d="M623.5 48h20"></path>
</g>
<path d="M643.5 48h10"></path>
<g>
<path d="M653.5 48h0"></path>
<path d="M2019.5 48h0"></path>
<path d="M653.5 48h10"></path>
<g>
<path d="M663.5 48h0"></path>
<path d="M2009.5 48h0"></path>
<g class="terminal">
<path d="M663.5 48h0"></path>
<path d="M734.5 48h0"></path>
<rect x="663.5" y="37" width="71" height="22" rx="10" ry="10"></rect>
<text x="699" y="52">"WHEN"</text>
</g>
<path d="M734.5 48h10"></path>
<g>
<path d="M744.5 48h0"></path>
<path d="M1040 48h0"></path>
<path d="M744.5 48h20"></path>
<g class="non-terminal">
<path d="M764.5 48h0"></path>
<path d="M844 48h176"></path>
<rect x="764.5" y="37" width="79.5" height="22"></rect>
<a xlink:href="#/abap/expression/SQLCond"><text x="804.25" y="52">SQLCond</text>
</a>
</g>
<path d="M1020 48h20"></path>
<path d="M744.5 48a10 10 0 0 1 10 10v10a10 10 0 0 0 10 10"></path>
<g class="non-terminal">
<path d="M764.5 78h0"></path>
<path d="M852.5 78h167.5"></path>
<rect x="764.5" y="67" width="88" height="22"></rect>
<a xlink:href="#/abap/expression/Constant"><text x="808.5" y="82">Constant</text>
</a>
</g>
<path d="M1020 78a10 10 0 0 0 10 -10v-10a10 10 0 0 1 10 -10"></path>
<path d="M744.5 48a10 10 0 0 1 10 10v40a10 10 0 0 0 10 10"></path>
<g>
<path d="M764.5 108h0"></path>
<path d="M1020 108h0"></path>
<g class="terminal">
<path d="M764.5 108h0"></path>
<path d="M835.5 108h0"></path>
<rect x="764.5" y="97" width="71" height="22" rx="10" ry="10"></rect>
<text x="800" y="112">!"WAt"</text>
</g>
<path d="M835.5 108h10"></path>
<path d="M845.5 108h10"></path>
<g class="non-terminal">
<path d="M855.5 108h0"></path>
<path d="M1020 108h0"></path>
<rect x="855.5" y="97" width="164.5" height="22"></rect>
<a xlink:href="#/abap/expression/SimpleFieldChain2"><text x="937.75" y="112">SimpleFieldChain2</text>
</a>
</g>
</g>
<path d="M1020 108a10 10 0 0 0 10 -10v-40a10 10 0 0 1 10 -10"></path>
</g>
<path d="M1040 48h10"></path>
<g class="terminal">
<path d="M1050 48h0"></path>
<path d="M1121 48h0"></path>
<rect x="1050" y="37" width="71" height="22" rx="10" ry="10"></rect>
<text x="1085.5" y="52">"THEN"</text>
</g>
<path d="M1121 48h10"></path>
<g>
<path d="M1131 48h0"></path>
<path d="M1310 48h0"></path>
<path d="M1131 48h20"></path>
<g class="non-terminal">
<path d="M1151 48h0"></path>
<path d="M1230.5 48h59.5"></path>
<rect x="1151" y="37" width="79.5" height="22"></rect>
<a xlink:href="#/abap/expression/SQLCase"><text x="1190.75" y="52">SQLCase</text>
</a>
</g>
<path d="M1290 48h20"></path>
<path d="M1131 48a10 10 0 0 1 10 10v10a10 10 0 0 0 10 10"></path>
<g class="non-terminal">
<path d="M1151 78h0"></path>
<path d="M1290 78h0"></path>
<rect x="1151" y="67" width="139" height="22"></rect>
<a xlink:href="#/abap/expression/SQLAggregation"><text x="1220.5" y="82">SQLAggregation</text>
</a>
</g>
<path d="M1290 78a10 10 0 0 0 10 -10v-10a10 10 0 0 1 10 -10"></path>
<path d="M1131 48a10 10 0 0 1 10 10v40a10 10 0 0 0 10 10"></path>
<g class="non-terminal">
<path d="M1151 108h0"></path>
<path d="M1264.5 108h25.5"></path>
<rect x="1151" y="97" width="113.5" height="22"></rect>
<a xlink:href="#/abap/expression/SQLFunction"><text x="1207.75" y="112">SQLFunction</text>
</a>
</g>
<path d="M1290 108a10 10 0 0 0 10 -10v-40a10 10 0 0 1 10 -10"></path>
<path d="M1131 48a10 10 0 0 1 10 10v70a10 10 0 0 0 10 10"></path>
<g class="non-terminal">
<path d="M1151 138h0"></path>
<path d="M1273 138h17"></path>
<rect x="1151" y="127" width="122" height="22"></rect>
<a xlink:href="#/abap/expression/SQLFieldName"><text x="1212" y="142">SQLFieldName</text>
</a>
</g>
<path d="M1290 138a10 10 0 0 0 10 -10v-70a10 10 0 0 1 10 -10"></path>
<path d="M1131 48a10 10 0 0 1 10 10v100a10 10 0 0 0 10 10"></path>
<g class="non-terminal">
<path d="M1151 168h0"></path>
<path d="M1247.5 168h42.5"></path>
<rect x="1151" y="157" width="96.5" height="22"></rect>
<a xlink:href="#/abap/expression/SQLSource"><text x="1199.25" y="172">SQLSource</text>
</a>
</g>
<path d="M1290 168a10 10 0 0 0 10 -10v-100a10 10 0 0 1 10 -10"></path>
<path d="M1131 48a10 10 0 0 1 10 10v130a10 10 0 0 0 10 10"></path>
<g class="non-terminal">
<path d="M1151 198h0"></path>
<path d="M1239 198h51"></path>
<rect x="1151" y="187" width="88" height="22"></rect>
<a xlink:href="#/abap/expression/Constant"><text x="1195" y="202">Constant</text>
</a>
</g>
<path d="M1290 198a10 10 0 0 0 10 -10v-130a10 10 0 0 1 10 -10"></path>
</g>
<g>
<path d="M1310 48h0"></path>
<path d="M2009.5 48h0"></path>
<path d="M1310 48a10 10 0 0 0 10 -10v-8a10 10 0 0 1 10 -10"></path>
<g>
<path d="M1330 20h659.5"></path>
</g>
<path d="M1989.5 20a10 10 0 0 1 10 10v8a10 10 0 0 0 10 10"></path>
<path d="M1310 48h20"></path>
<g>
<path d="M1330 48h0"></path>
<path d="M1989.5 48h0"></path>
<path d="M1330 48h10"></path>
<g>
<path d="M1340 48h0"></path>
<path d="M1979.5 48h0"></path>
<g>
<path d="M1340 48h0"></path>
<path d="M1434 48h0"></path>
<path d="M1340 48h20"></path>
<g class="terminal">
<path d="M1360 48h0"></path>
<path d="M1405.5 48h8.5"></path>
<rect x="1360" y="37" width="45.5" height="22" rx="10" ry="10"></rect>
<text x="1382.75" y="52">"+"</text>
</g>
<path d="M1414 48h20"></path>
<path d="M1340 48a10 10 0 0 1 10 10v10a10 10 0 0 0 10 10"></path>
<g class="terminal">
<path d="M1360 78h0"></path>
<path d="M1405.5 78h8.5"></path>
<rect x="1360" y="67" width="45.5" height="22" rx="10" ry="10"></rect>
<text x="1382.75" y="82">"-"</text>
</g>
<path d="M1414 78a10 10 0 0 0 10 -10v-10a10 10 0 0 1 10 -10"></path>
<path d="M1340 48a10 10 0 0 1 10 10v40a10 10 0 0 0 10 10"></path>
<g class="terminal">
<path d="M1360 108h0"></path>
<path d="M1405.5 108h8.5"></path>
<rect x="1360" y="97" width="45.5" height="22" rx="10" ry="10"></rect>
<text x="1382.75" y="112">"&#42;"</text>
</g>
<path d="M1414 108a10 10 0 0 0 10 -10v-40a10 10 0 0 1 10 -10"></path>
<path d="M1340 48a10 10 0 0 1 10 10v70a10 10 0 0 0 10 10"></path>
<g class="terminal">
<path d="M1360 138h0"></path>
<path d="M1405.5 138h8.5"></path>
<rect x="1360" y="127" width="45.5" height="22" rx="10" ry="10"></rect>
<text x="1382.75" y="142">"/"</text>
</g>
<path d="M1414 138a10 10 0 0 0 10 -10v-70a10 10 0 0 1 10 -10"></path>
<path d="M1340 48a10 10 0 0 1 10 10v100a10 10 0 0 0 10 10"></path>
<g class="terminal">
<path d="M1360 168h0"></path>
<path d="M1414 168h0"></path>
<rect x="1360" y="157" width="54" height="22" rx="10" ry="10"></rect>
<text x="1387" y="172">"&#38;&#38;"</text>
</g>
<path d="M1414 168a10 10 0 0 0 10 -10v-100a10 10 0 0 1 10 -10"></path>
</g>
<g>
<path d="M1434 48h0"></path>
<path d="M1613 48h0"></path>
<path d="M1434 48a10 10 0 0 0 10 -10v0a10 10 0 0 1 10 -10"></path>
<g>
<path d="M1454 28h139"></path>
</g>
<path d="M1593 28a10 10 0 0 1 10 10v0a10 10 0 0 0 10 10"></path>
<path d="M1434 48h20"></path>
<g class="terminal">
<path d="M1454 48h0"></path>
<path d="M1593 48h0"></path>
<rect x="1454" y="37" width="139" height="22" rx="10" ry="10"></rect>
<text x="1523.5" y="52">!"WParenLeftW"</text>
</g>
<path d="M1593 48h20"></path>
</g>
<g>
<path d="M1613 48h0"></path>
<path d="M1792 48h0"></path>
<path d="M1613 48h20"></path>
<g class="non-terminal">
<path d="M1633 48h0"></path>
<path d="M1772 48h0"></path>
<rect x="1633" y="37" width="139" height="22"></rect>
<a xlink:href="#/abap/expression/SQLAggregation"><text x="1702.5" y="52">SQLAggregation</text>
</a>
</g>
<path d="M1772 48h20"></path>
<path d="M1613 48a10 10 0 0 1 10 10v10a10 10 0 0 0 10 10"></path>
<g class="non-terminal">
<path d="M1633 78h0"></path>
<path d="M1712.5 78h59.5"></path>
<rect x="1633" y="67" width="79.5" height="22"></rect>
<a xlink:href="#/abap/expression/SQLCase"><text x="1672.75" y="82">SQLCase</text>
</a>
</g>
<path d="M1772 78a10 10 0 0 0 10 -10v-10a10 10 0 0 1 10 -10"></path>
<path d="M1613 48a10 10 0 0 1 10 10v40a10 10 0 0 0 10 10"></path>
<g class="non-terminal">
<path d="M1633 108h0"></path>
<path d="M1746.5 108h25.5"></path>
<rect x="1633" y="97" width="113.5" height="22"></rect>
<a xlink:href="#/abap/expression/SQLFunction"><text x="1689.75" y="112">SQLFunction</text>
</a>
</g>
<path d="M1772 108a10 10 0 0 0 10 -10v-40a10 10 0 0 1 10 -10"></path>
<path d="M1613 48a10 10 0 0 1 10 10v70a10 10 0 0 0 10 10"></path>
<g class="non-terminal">
<path d="M1633 138h0"></path>
<path d="M1712.5 138h59.5"></path>
<rect x="1633" y="127" width="79.5" height="22"></rect>
<a xlink:href="#/abap/expression/SQLPath"><text x="1672.75" y="142">SQLPath</text>
</a>
</g>
<path d="M1772 138a10 10 0 0 0 10 -10v-70a10 10 0 0 1 10 -10"></path>
<path d="M1613 48a10 10 0 0 1 10 10v100a10 10 0 0 0 10 10"></path>
<g class="non-terminal">
<path d="M1633 168h0"></path>
<path d="M1755 168h17"></path>
<rect x="1633" y="157" width="122" height="22"></rect>
<a xlink:href="#/abap/expression/SQLFieldName"><text x="1694" y="172">SQLFieldName</text>
</a>
</g>
<path d="M1772 168a10 10 0 0 0 10 -10v-100a10 10 0 0 1 10 -10"></path>
<path d="M1613 48a10 10 0 0 1 10 10v130a10 10 0 0 0 10 10"></path>
<g class="non-terminal">
<path d="M1633 198h0"></path>
<path d="M1721 198h51"></path>
<rect x="1633" y="187" width="88" height="22"></rect>
<a xlink:href="#/abap/expression/Constant"><text x="1677" y="202">Constant</text>
</a>
</g>
<path d="M1772 198a10 10 0 0 0 10 -10v-130a10 10 0 0 1 10 -10"></path>
</g>
<g>
<path d="M1792 48h0"></path>
<path d="M1979.5 48h0"></path>
<path d="M1792 48a10 10 0 0 0 10 -10v0a10 10 0 0 1 10 -10"></path>
<g>
<path d="M1812 28h147.5"></path>
</g>
<path d="M1959.5 28a10 10 0 0 1 10 10v0a10 10 0 0 0 10 10"></path>
<path d="M1792 48h20"></path>
<g class="terminal">
<path d="M1812 48h0"></path>
<path d="M1959.5 48h0"></path>
<rect x="1812" y="37" width="147.5" height="22" rx="10" ry="10"></rect>
<text x="1885.75" y="52">!"WParenRightW"</text>
</g>
<path d="M1959.5 48h20"></path>
</g>
</g>
<path d="M1979.5 48h10"></path>
<path d="M1340 48a10 10 0 0 0 -10 10v149a10 10 0 0 0 10 10"></path>
<g>
<path d="M1340 217h639.5"></path>
</g>
<path d="M1979.5 217a10 10 0 0 0 10 -10v-149a10 10 0 0 0 -10 -10"></path>
</g>
<path d="M1989.5 48h20"></path>
</g>
</g>
<path d="M2009.5 48h10"></path>
<path d="M663.5 48a10 10 0 0 0 -10 10v157a10 10 0 0 0 10 10"></path>
<g>
<path d="M663.5 225h1346"></path>
</g>
<path d="M2009.5 225a10 10 0 0 0 10 -10v-157a10 10 0 0 0 -10 -10"></path>
</g>
<path d="M2019.5 48h10"></path>
<g>
<path d="M2029.5 48h0"></path>
<path d="M2329.5 48h0"></path>
<path d="M2029.5 48a10 10 0 0 0 10 -10v0a10 10 0 0 1 10 -10"></path>
<g>
<path d="M2049.5 28h260"></path>
</g>
<path d="M2309.5 28a10 10 0 0 1 10 10v0a10 10 0 0 0 10 10"></path>
<path d="M2029.5 48h20"></path>
<g>
<path d="M2049.5 48h0"></path>
<path d="M2309.5 48h0"></path>
<g class="terminal">
<path d="M2049.5 48h0"></path>
<path d="M2120.5 48h0"></path>
<rect x="2049.5" y="37" width="71" height="22" rx="10" ry="10"></rect>
<text x="2085" y="52">"ELSE"</text>
</g>
<path d="M2120.5 48h10"></path>
<g>
<path d="M2130.5 48h0"></path>
<path d="M2309.5 48h0"></path>
<path d="M2130.5 48h20"></path>
<g class="non-terminal">
<path d="M2150.5 48h0"></path>
<path d="M2230 48h59.5"></path>
<rect x="2150.5" y="37" width="79.5" height="22"></rect>
<a xlink:href="#/abap/expression/SQLCase"><text x="2190.25" y="52">SQLCase</text>
</a>
</g>
<path d="M2289.5 48h20"></path>
<path d="M2130.5 48a10 10 0 0 1 10 10v10a10 10 0 0 0 10 10"></path>
<g class="non-terminal">
<path d="M2150.5 78h0"></path>
<path d="M2289.5 78h0"></path>
<rect x="2150.5" y="67" width="139" height="22"></rect>
<a xlink:href="#/abap/expression/SQLAggregation"><text x="2220" y="82">SQLAggregation</text>
</a>
</g>
<path d="M2289.5 78a10 10 0 0 0 10 -10v-10a10 10 0 0 1 10 -10"></path>
<path d="M2130.5 48a10 10 0 0 1 10 10v40a10 10 0 0 0 10 10"></path>
<g class="non-terminal">
<path d="M2150.5 108h0"></path>
<path d="M2264 108h25.5"></path>
<rect x="2150.5" y="97" width="113.5" height="22"></rect>
<a xlink:href="#/abap/expression/SQLFunction"><text x="2207.25" y="112">SQLFunction</text>
</a>
</g>
<path d="M2289.5 108a10 10 0 0 0 10 -10v-40a10 10 0 0 1 10 -10"></path>
<path d="M2130.5 48a10 10 0 0 1 10 10v70a10 10 0 0 0 10 10"></path>
<g class="non-terminal">
<path d="M2150.5 138h0"></path>
<path d="M2272.5 138h17"></path>
<rect x="2150.5" y="127" width="122" height="22"></rect>
<a xlink:href="#/abap/expression/SQLFieldName"><text x="2211.5" y="142">SQLFieldName</text>
</a>
</g>
<path d="M2289.5 138a10 10 0 0 0 10 -10v-70a10 10 0 0 1 10 -10"></path>
<path d="M2130.5 48a10 10 0 0 1 10 10v100a10 10 0 0 0 10 10"></path>
<g class="non-terminal">
<path d="M2150.5 168h0"></path>
<path d="M2247 168h42.5"></path>
<rect x="2150.5" y="157" width="96.5" height="22"></rect>
<a xlink:href="#/abap/expression/SQLSource"><text x="2198.75" y="172">SQLSource</text>
</a>
</g>
<path d="M2289.5 168a10 10 0 0 0 10 -10v-100a10 10 0 0 1 10 -10"></path>
<path d="M2130.5 48a10 10 0 0 1 10 10v130a10 10 0 0 0 10 10"></path>
<g class="non-terminal">
<path d="M2150.5 198h0"></path>
<path d="M2238.5 198h51"></path>
<rect x="2150.5" y="187" width="88" height="22"></rect>
<a xlink:href="#/abap/expression/Constant"><text x="2194.5" y="202">Constant</text>
</a>
</g>
<path d="M2289.5 198a10 10 0 0 0 10 -10v-130a10 10 0 0 1 10 -10"></path>
</g>
</g>
<path d="M2309.5 48h20"></path>
</g>
<path d="M2329.5 48h10"></path>
<g class="terminal">
<path d="M2339.5 48h0"></path>
<path d="M2402 48h0"></path>
<rect x="2339.5" y="37" width="62.5" height="22" rx="10" ry="10"></rect>
<text x="2370.75" y="52">"END"</text>
</g>
</g>
</g>
<path d="M2402 48h10"></path>
<path d="M 2412 48 h 20 m 0 -10 v 20"></path>
</g>
</svg>
