<svg xmlns="http://www.w3.org/2000/svg" xmlns:xlink="http://www.w3.org/1999/xlink" class="railroad-diagram" width="2045.5" height="104" viewBox="0 0 2045.5 104">
<defs>
<style type="text/css"><![CDATA[
path {
stroke-width: 3;
stroke: black;
fill: rgba(0,0,0,0);
}
text {
font: bold 14px monospace;
text-anchor: middle;
}
text.diagram-text {
font-size: 12px;
}
a {
fill: blue;
}
text.diagram-arrow {
font-size: 16px;
}
text.label {
text-anchor: start;
}
text.comment {
font: italic 12px monospace;
}
rect {
stroke-width: 3;
stroke: black;
fill: #BCBCBC;
}
path.diagram-text {
stroke-width: 3;
stroke: black;
fill: #BCBCBC;
cursor: help;
}
]]></style>
</defs>
<g transform="translate(.5 .5)">
<g>
<path d="M20 46v20m0 -10h20"></path>
</g>
<path d="M40 56h10"></path>
<g>
<path d="M50 56h0"></path>
<path d="M1995.5 56h0"></path>
<g class="terminal ">
<path d="M50 56h0"></path>
<path d="M197.5 56h0"></path>
<rect x="50" y="45" width="147.5" height="22" rx="10" ry="10"></rect>
<text x="123.75" y="60">"GROUPING SETS"</text>
</g>
<path d="M197.5 56h10"></path>
<path d="M207.5 56h10"></path>
<g class="terminal ">
<path d="M217.5 56h0"></path>
<path d="M356.5 56h0"></path>
<rect x="217.5" y="45" width="139" height="22" rx="10" ry="10"></rect>
<text x="287" y="60">!"WParenLeftW"</text>
</g>
<path d="M356.5 56h10"></path>
<path d="M366.5 56h10"></path>
<g>
<path d="M376.5 56h0"></path>
<path d="M1828 56h0"></path>
<g>
<path d="M376.5 56h0"></path>
<path d="M1034.5 56h0"></path>
<g class="terminal ">
<path d="M376.5 56h0"></path>
<path d="M515.5 56h0"></path>
<rect x="376.5" y="45" width="139" height="22" rx="10" ry="10"></rect>
<text x="446" y="60">!"WParenLeftW"</text>
</g>
<path d="M515.5 56h10"></path>
<g>
<path d="M525.5 56h0"></path>
<path d="M877 56h0"></path>
<path d="M525.5 56a10 10 0 0 0 10 -10v-8a10 10 0 0 1 10 -10"></path>
<g>
<path d="M545.5 28h311.5"></path>
</g>
<path d="M857 28a10 10 0 0 1 10 10v8a10 10 0 0 0 10 10"></path>
<path d="M525.5 56h20"></path>
<g>
<path d="M545.5 56h0"></path>
<path d="M857 56h0"></path>
<g class="non-terminal ">
<path d="M545.5 56h0"></path>
<path d="M633.5 56h0"></path>
<rect x="545.5" y="45" width="88" height="22"></rect>
<a xlink:href="#/abap/expression/SQLField"><text x="589.5" y="60">SQLField</text>
</a>
</g>
<path d="M633.5 56h10"></path>
<g>
<path d="M643.5 56h0"></path>
<path d="M857 56h0"></path>
<path d="M643.5 56a10 10 0 0 0 10 -10v0a10 10 0 0 1 10 -10"></path>
<g>
<path d="M663.5 36h173.5"></path>
</g>
<path d="M837 36a10 10 0 0 1 10 10v0a10 10 0 0 0 10 10"></path>
<path d="M643.5 56h20"></path>
<g>
<path d="M663.5 56h0"></path>
<path d="M837 56h0"></path>
<path d="M663.5 56h10"></path>
<g>
<path d="M673.5 56h0"></path>
<path d="M827 56h0"></path>
<g class="terminal ">
<path d="M673.5 56h0"></path>
<path d="M719 56h0"></path>
<rect x="673.5" y="45" width="45.5" height="22" rx="10" ry="10"></rect>
<text x="696.25" y="60">","</text>
</g>
<path d="M719 56h10"></path>
<path d="M729 56h10"></path>
<g class="non-terminal ">
<path d="M739 56h0"></path>
<path d="M827 56h0"></path>
<rect x="739" y="45" width="88" height="22"></rect>
<a xlink:href="#/abap/expression/SQLField"><text x="783" y="60">SQLField</text>
</a>
</g>
</g>
<path d="M827 56h10"></path>
<path d="M673.5 56a10 10 0 0 0 -10 10v0a10 10 0 0 0 10 10"></path>
<g>
<path d="M673.5 76h153.5"></path>
</g>
<path d="M827 76a10 10 0 0 0 10 -10v0a10 10 0 0 0 -10 -10"></path>
</g>
<path d="M837 56h20"></path>
</g>
</g>
<path d="M857 56h20"></path>
</g>
<path d="M877 56h10"></path>
<g class="terminal ">
<path d="M887 56h0"></path>
<path d="M1034.5 56h0"></path>
<rect x="887" y="45" width="147.5" height="22" rx="10" ry="10"></rect>
<text x="960.75" y="60">!"WParenRightW"</text>
</g>
</g>
<path d="M1034.5 56h10"></path>
<g>
<path d="M1044.5 56h0"></path>
<path d="M1828 56h0"></path>
<path d="M1044.5 56a10 10 0 0 0 10 -10v-16a10 10 0 0 1 10 -10"></path>
<g>
<path d="M1064.5 20h743.5"></path>
</g>
<path d="M1808 20a10 10 0 0 1 10 10v16a10 10 0 0 0 10 10"></path>
<path d="M1044.5 56h20"></path>
<g>
<path d="M1064.5 56h0"></path>
<path d="M1808 56h0"></path>
<path d="M1064.5 56h10"></path>
<g>
<path d="M1074.5 56h0"></path>
<path d="M1798 56h0"></path>
<g class="terminal ">
<path d="M1074.5 56h0"></path>
<path d="M1120 56h0"></path>
<rect x="1074.5" y="45" width="45.5" height="22" rx="10" ry="10"></rect>
<text x="1097.25" y="60">","</text>
</g>
<path d="M1120 56h10"></path>
<path d="M1130 56h10"></path>
<g>
<path d="M1140 56h0"></path>
<path d="M1798 56h0"></path>
<g class="terminal ">
<path d="M1140 56h0"></path>
<path d="M1279 56h0"></path>
<rect x="1140" y="45" width="139" height="22" rx="10" ry="10"></rect>
<text x="1209.5" y="60">!"WParenLeftW"</text>
</g>
<path d="M1279 56h10"></path>
<g>
<path d="M1289 56h0"></path>
<path d="M1640.5 56h0"></path>
<path d="M1289 56a10 10 0 0 0 10 -10v-8a10 10 0 0 1 10 -10"></path>
<g>
<path d="M1309 28h311.5"></path>
</g>
<path d="M1620.5 28a10 10 0 0 1 10 10v8a10 10 0 0 0 10 10"></path>
<path d="M1289 56h20"></path>
<g>
<path d="M1309 56h0"></path>
<path d="M1620.5 56h0"></path>
<g class="non-terminal ">
<path d="M1309 56h0"></path>
<path d="M1397 56h0"></path>
<rect x="1309" y="45" width="88" height="22"></rect>
<a xlink:href="#/abap/expression/SQLField"><text x="1353" y="60">SQLField</text>
</a>
</g>
<path d="M1397 56h10"></path>
<g>
<path d="M1407 56h0"></path>
<path d="M1620.5 56h0"></path>
<path d="M1407 56a10 10 0 0 0 10 -10v0a10 10 0 0 1 10 -10"></path>
<g>
<path d="M1427 36h173.5"></path>
</g>
<path d="M1600.5 36a10 10 0 0 1 10 10v0a10 10 0 0 0 10 10"></path>
<path d="M1407 56h20"></path>
<g>
<path d="M1427 56h0"></path>
<path d="M1600.5 56h0"></path>
<path d="M1427 56h10"></path>
<g>
<path d="M1437 56h0"></path>
<path d="M1590.5 56h0"></path>
<g class="terminal ">
<path d="M1437 56h0"></path>
<path d="M1482.5 56h0"></path>
<rect x="1437" y="45" width="45.5" height="22" rx="10" ry="10"></rect>
<text x="1459.75" y="60">","</text>
</g>
<path d="M1482.5 56h10"></path>
<path d="M1492.5 56h10"></path>
<g class="non-terminal ">
<path d="M1502.5 56h0"></path>
<path d="M1590.5 56h0"></path>
<rect x="1502.5" y="45" width="88" height="22"></rect>
<a xlink:href="#/abap/expression/SQLField"><text x="1546.5" y="60">SQLField</text>
</a>
</g>
</g>
<path d="M1590.5 56h10"></path>
<path d="M1437 56a10 10 0 0 0 -10 10v0a10 10 0 0 0 10 10"></path>
<g>
<path d="M1437 76h153.5"></path>
</g>
<path d="M1590.5 76a10 10 0 0 0 10 -10v0a10 10 0 0 0 -10 -10"></path>
</g>
<path d="M1600.5 56h20"></path>
</g>
</g>
<path d="M1620.5 56h20"></path>
</g>
<path d="M1640.5 56h10"></path>
<g class="terminal ">
<path d="M1650.5 56h0"></path>
<path d="M1798 56h0"></path>
<rect x="1650.5" y="45" width="147.5" height="22" rx="10" ry="10"></rect>
<text x="1724.25" y="60">!"WParenRightW"</text>
</g>
</g>
</g>
<path d="M1798 56h10"></path>
<path d="M1074.5 56a10 10 0 0 0 -10 10v8a10 10 0 0 0 10 10"></path>
<g>
<path d="M1074.5 84h723.5"></path>
</g>
<path d="M1798 84a10 10 0 0 0 10 -10v-8a10 10 0 0 0 -10 -10"></path>
</g>
<path d="M1808 56h20"></path>
</g>
</g>
<path d="M1828 56h10"></path>
<path d="M1838 56h10"></path>
<g class="terminal ">
<path d="M1848 56h0"></path>
<path d="M1995.5 56h0"></path>
<rect x="1848" y="45" width="147.5" height="22" rx="10" ry="10"></rect>
<text x="1921.75" y="60">!"WParenRightW"</text>
</g>
</g>
<path d="M1995.5 56h10"></path>
<path d="M 2005.5 56 h 20 m 0 -10 v 20"></path>
</g>
</svg>
