<svg xmlns="http://www.w3.org/2000/svg" xmlns:xlink="http://www.w3.org/1999/xlink" class="railroad-diagram" width="547.5" height="188" viewBox="0 0 547.5 188">
<defs>
<style type="text/css"><![CDATA[
path {
stroke-width: 3;
stroke: black;
fill: rgba(0,0,0,0);
}
text {
font: bold 14px monospace;
text-anchor: middle;
}
text.diagram-text {
font-size: 12px;
}
a {
fill: blue;
}
text.diagram-arrow {
font-size: 16px;
}
text.label {
text-anchor: start;
}
text.comment {
font: italic 12px monospace;
}
rect {
stroke-width: 3;
stroke: black;
fill: #BCBCBC;
}
path.diagram-text {
stroke-width: 3;
stroke: black;
fill: #BCBCBC;
cursor: help;
}
]]></style>
</defs>
<g transform="translate(.5 .5)">
<g>
<path d="M20 21v20m0 -10h20"></path>
</g>
<g>
<path d="M40 31h0"></path>
<path d="M507.5 31h0"></path>
<path d="M40 31h20"></path>
<g class="terminal">
<path d="M60 31h0"></path>
<path d="M105.5 31h382"></path>
<rect x="60" y="20" width="45.5" height="22" rx="10" ry="10"></rect>
<text x="82.75" y="35">"&#42;"</text>
</g>
<path d="M487.5 31h20"></path>
<path d="M40 31a10 10 0 0 1 10 10v10a10 10 0 0 0 10 10"></path>
<g class="non-terminal">
<path d="M60 61h0"></path>
<path d="M139.5 61h348"></path>
<rect x="60" y="50" width="79.5" height="22"></rect>
<a xlink:href="#/abap/expression/Dynamic"><text x="99.75" y="65">Dynamic</text>
</a>
</g>
<path d="M487.5 61a10 10 0 0 0 10 -10v-10a10 10 0 0 1 10 -10"></path>
<path d="M40 31a10 10 0 0 1 10 10v49a10 10 0 0 0 10 10"></path>
<g>
<path d="M60 100h0"></path>
<path d="M487.5 100h0"></path>
<g class="non-terminal">
<path d="M60 100h0"></path>
<path d="M148 100h0"></path>
<rect x="60" y="89" width="88" height="22"></rect>
<a xlink:href="#/abap/expression/SQLField"><text x="104" y="104">SQLField</text>
</a>
</g>
<path d="M148 100h10"></path>
<g>
<path d="M158 100h0"></path>
<path d="M487.5 100h0"></path>
<path d="M158 100h20"></path>
<g>
<path d="M178 100h0"></path>
<path d="M467.5 100h0"></path>
<g>
<path d="M178 100h0"></path>
<path d="M244 100h0"></path>
<text x="211" y="105" class="comment">v740sp05</text>
</g>
<path d="M244 100h10"></path>
<g>
<path d="M254 100h0"></path>
<path d="M467.5 100h0"></path>
<path d="M254 100a10 10 0 0 0 10 -10v0a10 10 0 0 1 10 -10"></path>
<g>
<path d="M274 80h173.5"></path>
</g>
<path d="M447.5 80a10 10 0 0 1 10 10v0a10 10 0 0 0 10 10"></path>
<path d="M254 100h20"></path>
<g>
<path d="M274 100h0"></path>
<path d="M447.5 100h0"></path>
<path d="M274 100h10"></path>
<g>
<path d="M284 100h0"></path>
<path d="M437.5 100h0"></path>
<g class="terminal">
<path d="M284 100h0"></path>
<path d="M329.5 100h0"></path>
<rect x="284" y="89" width="45.5" height="22" rx="10" ry="10"></rect>
<text x="306.75" y="104">","</text>
</g>
<path d="M329.5 100h10"></path>
<path d="M339.5 100h10"></path>
<g class="non-terminal">
<path d="M349.5 100h0"></path>
<path d="M437.5 100h0"></path>
<rect x="349.5" y="89" width="88" height="22"></rect>
<a xlink:href="#/abap/expression/SQLField"><text x="393.5" y="104">SQLField</text>
</a>
</g>
</g>
<path d="M437.5 100h10"></path>
<path d="M284 100a10 10 0 0 0 -10 10v0a10 10 0 0 0 10 10"></path>
<g>
<path d="M284 120h153.5"></path>
</g>
<path d="M437.5 120a10 10 0 0 0 10 -10v0a10 10 0 0 0 -10 -10"></path>
</g>
<path d="M447.5 100h20"></path>
</g>
</g>
<path d="M467.5 100h20"></path>
<path d="M158 100a10 10 0 0 1 10 10v28a10 10 0 0 0 10 10"></path>
<g>
<path d="M178 148h0"></path>
<path d="M326 148h141.5"></path>
<path d="M178 148a10 10 0 0 0 10 -10v0a10 10 0 0 1 10 -10"></path>
<g>
<path d="M198 128h108"></path>
</g>
<path d="M306 128a10 10 0 0 1 10 10v0a10 10 0 0 0 10 10"></path>
<path d="M178 148h20"></path>
<g>
<path d="M198 148h0"></path>
<path d="M306 148h0"></path>
<path d="M198 148h10"></path>
<g class="non-terminal">
<path d="M208 148h0"></path>
<path d="M296 148h0"></path>
<rect x="208" y="137" width="88" height="22"></rect>
<a xlink:href="#/abap/expression/SQLField"><text x="252" y="152">SQLField</text>
</a>
</g>
<path d="M296 148h10"></path>
<path d="M208 148a10 10 0 0 0 -10 10v0a10 10 0 0 0 10 10"></path>
<g>
<path d="M208 168h88"></path>
</g>
<path d="M296 168a10 10 0 0 0 10 -10v0a10 10 0 0 0 -10 -10"></path>
</g>
<path d="M306 148h20"></path>
</g>
<path d="M467.5 148a10 10 0 0 0 10 -10v-28a10 10 0 0 1 10 -10"></path>
</g>
</g>
<path d="M487.5 100a10 10 0 0 0 10 -10v-49a10 10 0 0 1 10 -10"></path>
</g>
<path d="M 507.5 31 h 20 m 0 -10 v 20"></path>
</g>
</svg>
