<svg xmlns="http://www.w3.org/2000/svg" xmlns:xlink="http://www.w3.org/1999/xlink" class="railroad-diagram" width="824.5" height="122" viewBox="0 0 824.5 122">
<defs>
<style type="text/css"><![CDATA[
path {
stroke-width: 3;
stroke: black;
fill: rgba(0,0,0,0);
}
text {
font: bold 14px monospace;
text-anchor: middle;
}
text.diagram-text {
font-size: 12px;
}
a {
fill: blue;
}
text.diagram-arrow {
font-size: 16px;
}
text.label {
text-anchor: start;
}
text.comment {
font: italic 12px monospace;
}
rect {
stroke-width: 3;
stroke: black;
fill: #BCBCBC;
}
path.diagram-text {
stroke-width: 3;
stroke: black;
fill: #BCBCBC;
cursor: help;
}
]]></style>
</defs>
<g transform="translate(.5 .5)">
<g>
<path d="M20 21v20m0 -10h20"></path>
</g>
<path d="M40 31h10"></path>
<g>
<path d="M50 31h0"></path>
<path d="M774.5 31h0"></path>
<g class="non-terminal">
<path d="M50 31h0"></path>
<path d="M172 31h0"></path>
<rect x="50" y="20" width="122" height="22"></rect>
<a xlink:href="#/abap/expression/SQLFieldName"><text x="111" y="35">SQLFieldName</text>
</a>
</g>
<path d="M172 31h10"></path>
<path d="M182 31h10"></path>
<g class="terminal">
<path d="M192 31h0"></path>
<path d="M237.5 31h0"></path>
<rect x="192" y="20" width="45.5" height="22" rx="10" ry="10"></rect>
<text x="214.75" y="35">"="</text>
</g>
<path d="M237.5 31h10"></path>
<g>
<path d="M247.5 31h0"></path>
<path d="M774.5 31h0"></path>
<path d="M247.5 31h20"></path>
<g>
<path d="M267.5 31h0"></path>
<path d="M754.5 31h0"></path>
<g>
<path d="M267.5 31h0"></path>
<path d="M429.5 31h0"></path>
<path d="M267.5 31h20"></path>
<g class="non-terminal">
<path d="M287.5 31h0"></path>
<path d="M367 31h42.5"></path>
<rect x="287.5" y="20" width="79.5" height="22"></rect>
<a xlink:href="#/abap/expression/Integer"><text x="327.25" y="35">Integer</text>
</a>
</g>
<path d="M409.5 31h20"></path>
<path d="M267.5 31a10 10 0 0 1 10 10v10a10 10 0 0 0 10 10"></path>
<g class="non-terminal">
<path d="M287.5 61h0"></path>
<path d="M409.5 61h0"></path>
<rect x="287.5" y="50" width="122" height="22"></rect>
<a xlink:href="#/abap/expression/SQLFieldName"><text x="348.5" y="65">SQLFieldName</text>
</a>
</g>
<path d="M409.5 61a10 10 0 0 0 10 -10v-10a10 10 0 0 1 10 -10"></path>
</g>
<path d="M429.5 31h10"></path>
<g class="non-terminal">
<path d="M439.5 31h0"></path>
<path d="M638 31h0"></path>
<rect x="439.5" y="20" width="198.5" height="22"></rect>
<a xlink:href="#/abap/expression/SQLArithmeticOperator"><text x="538.75" y="35">SQLArithmeticOperator</text>
</a>
</g>
<path d="M638 31h10"></path>
<path d="M648 31h10"></path>
<g class="non-terminal">
<path d="M658 31h0"></path>
<path d="M754.5 31h0"></path>
<rect x="658" y="20" width="96.5" height="22"></rect>
<a xlink:href="#/abap/expression/SQLSource"><text x="706.25" y="35">SQLSource</text>
</a>
</g>
</g>
<path d="M754.5 31h20"></path>
<path d="M247.5 31a10 10 0 0 1 10 10v40a10 10 0 0 0 10 10"></path>
<g class="non-terminal">
<path d="M267.5 91h0"></path>
<path d="M364 91h390.5"></path>
<rect x="267.5" y="80" width="96.5" height="22"></rect>
<a xlink:href="#/abap/expression/SQLSource"><text x="315.75" y="95">SQLSource</text>
</a>
</g>
<path d="M754.5 91a10 10 0 0 0 10 -10v-40a10 10 0 0 1 10 -10"></path>
</g>
</g>
<path d="M774.5 31h10"></path>
<path d="M 784.5 31 h 20 m 0 -10 v 20"></path>
</g>
</svg>
