<svg xmlns="http://www.w3.org/2000/svg" xmlns:xlink="http://www.w3.org/1999/xlink" class="railroad-diagram" width="394.5" height="80" viewBox="0 0 394.5 80">
<defs>
<style type="text/css"><![CDATA[
path {
stroke-width: 3;
stroke: black;
fill: rgba(0,0,0,0);
}
text {
font: bold 14px monospace;
text-anchor: middle;
}
text.diagram-text {
font-size: 12px;
}
a {
fill: blue;
}
text.diagram-arrow {
font-size: 16px;
}
text.label {
text-anchor: start;
}
text.comment {
font: italic 12px monospace;
}
rect {
stroke-width: 3;
stroke: black;
fill: #BCBCBC;
}
path.diagram-text {
stroke-width: 3;
stroke: black;
fill: #BCBCBC;
cursor: help;
}
]]></style>
</defs>
<g transform="translate(.5 .5)">
<g>
<path d="M20 30v20m0 -10h20"></path>
</g>
<path d="M40 40h10"></path>
<g>
<path d="M50 40h0"></path>
<path d="M344.5 40h0"></path>
<g class="non-terminal">
<path d="M50 40h0"></path>
<path d="M112.5 40h0"></path>
<rect x="50" y="29" width="62.5" height="22"></rect>
<a xlink:href="#/abap/expression/Field"><text x="81.25" y="44">Field</text>
</a>
</g>
<path d="M112.5 40h10"></path>
<g>
<path d="M122.5 40h0"></path>
<path d="M344.5 40h0"></path>
<path d="M122.5 40a10 10 0 0 0 10 -10v0a10 10 0 0 1 10 -10"></path>
<g>
<path d="M142.5 20h182"></path>
</g>
<path d="M324.5 20a10 10 0 0 1 10 10v0a10 10 0 0 0 10 10"></path>
<path d="M122.5 40h20"></path>
<g>
<path d="M142.5 40h0"></path>
<path d="M324.5 40h0"></path>
<path d="M142.5 40h10"></path>
<g>
<path d="M152.5 40h0"></path>
<path d="M314.5 40h0"></path>
<g class="terminal">
<path d="M152.5 40h0"></path>
<path d="M206.5 40h0"></path>
<rect x="152.5" y="29" width="54" height="22" rx="10" ry="10"></rect>
<text x="179.5" y="44">!"-"</text>
</g>
<path d="M206.5 40h10"></path>
<path d="M216.5 40h10"></path>
<g class="non-terminal">
<path d="M226.5 40h0"></path>
<path d="M314.5 40h0"></path>
<rect x="226.5" y="29" width="88" height="22"></rect>
<a xlink:href="#/abap/expression/FieldAll"><text x="270.5" y="44">FieldAll</text>
</a>
</g>
</g>
<path d="M314.5 40h10"></path>
<path d="M152.5 40a10 10 0 0 0 -10 10v0a10 10 0 0 0 10 10"></path>
<g>
<path d="M152.5 60h162"></path>
</g>
<path d="M314.5 60a10 10 0 0 0 10 -10v0a10 10 0 0 0 -10 -10"></path>
</g>
<path d="M324.5 40h20"></path>
</g>
</g>
<path d="M344.5 40h10"></path>
<path d="M 354.5 40 h 20 m 0 -10 v 20"></path>
</g>
</svg>
