<svg xmlns="http://www.w3.org/2000/svg" xmlns:xlink="http://www.w3.org/1999/xlink" class="railroad-diagram" width="1700.5" height="267" viewBox="0 0 1700.5 267">
<defs>
<style type="text/css"><![CDATA[
path {
stroke-width: 3;
stroke: black;
fill: rgba(0,0,0,0);
}
text {
font: bold 14px monospace;
text-anchor: middle;
}
text.diagram-text {
font-size: 12px;
}
a {
fill: blue;
}
text.diagram-arrow {
font-size: 16px;
}
text.label {
text-anchor: start;
}
text.comment {
font: italic 12px monospace;
}
rect {
stroke-width: 3;
stroke: black;
fill: #BCBCBC;
}
path.diagram-text {
stroke-width: 3;
stroke: black;
fill: #BCBCBC;
cursor: help;
}
]]></style>
</defs>
<g transform="translate(.5 .5)">
<g>
<path d="M20 38v20m0 -10h20"></path>
</g>
<path d="M40 48h10"></path>
<g>
<path d="M50 48h0"></path>
<path d="M1650.5 48h0"></path>
<g>
<path d="M50 48h0"></path>
<path d="M514 48h0"></path>
<path d="M50 48h20"></path>
<g class="non-terminal">
<path d="M70 48h0"></path>
<path d="M209 48h285"></path>
<rect x="70" y="37" width="139" height="22"></rect>
<a xlink:href="#/abap/expression/SQLAggregation"><text x="139.5" y="52">SQLAggregation</text>
</a>
</g>
<path d="M494 48h20"></path>
<path d="M50 48a10 10 0 0 1 10 10v10a10 10 0 0 0 10 10"></path>
<g class="non-terminal">
<path d="M70 78h0"></path>
<path d="M149.5 78h344.5"></path>
<rect x="70" y="67" width="79.5" height="22"></rect>
<a xlink:href="#/abap/expression/SQLCase"><text x="109.75" y="82">SQLCase</text>
</a>
</g>
<path d="M494 78a10 10 0 0 0 10 -10v-10a10 10 0 0 1 10 -10"></path>
<path d="M50 48a10 10 0 0 1 10 10v40a10 10 0 0 0 10 10"></path>
<g class="non-terminal">
<path d="M70 108h0"></path>
<path d="M183.5 108h310.5"></path>
<rect x="70" y="97" width="113.5" height="22"></rect>
<a xlink:href="#/abap/expression/SQLFunction"><text x="126.75" y="112">SQLFunction</text>
</a>
</g>
<path d="M494 108a10 10 0 0 0 10 -10v-40a10 10 0 0 1 10 -10"></path>
<path d="M50 48a10 10 0 0 1 10 10v70a10 10 0 0 0 10 10"></path>
<g class="non-terminal">
<path d="M70 138h0"></path>
<path d="M149.5 138h344.5"></path>
<rect x="70" y="127" width="79.5" height="22"></rect>
<a xlink:href="#/abap/expression/SQLPath"><text x="109.75" y="142">SQLPath</text>
</a>
</g>
<path d="M494 138a10 10 0 0 0 10 -10v-70a10 10 0 0 1 10 -10"></path>
<path d="M50 48a10 10 0 0 1 10 10v100a10 10 0 0 0 10 10"></path>
<g class="non-terminal">
<path d="M70 168h0"></path>
<path d="M192 168h302"></path>
<rect x="70" y="157" width="122" height="22"></rect>
<a xlink:href="#/abap/expression/SQLFieldName"><text x="131" y="172">SQLFieldName</text>
</a>
</g>
<path d="M494 168a10 10 0 0 0 10 -10v-100a10 10 0 0 1 10 -10"></path>
<path d="M50 48a10 10 0 0 1 10 10v130a10 10 0 0 0 10 10"></path>
<g>
<path d="M70 198h0"></path>
<path d="M494 198h0"></path>
<g>
<path d="M70 198h0"></path>
<path d="M227 198h0"></path>
<text x="148.5" y="203" class="comment">v740sp05 or open-abap</text>
</g>
<path d="M227 198h10"></path>
<path d="M237 198h10"></path>
<g>
<path d="M247 198h0"></path>
<path d="M494 198h0"></path>
<g class="terminal">
<path d="M247 198h0"></path>
<path d="M309.5 198h0"></path>
<rect x="247" y="187" width="62.5" height="22" rx="10" ry="10"></rect>
<text x="278.25" y="202">!" @"</text>
</g>
<path d="M309.5 198h10"></path>
<path d="M319.5 198h10"></path>
<g class="non-terminal">
<path d="M329.5 198h0"></path>
<path d="M494 198h0"></path>
<rect x="329.5" y="187" width="164.5" height="22"></rect>
<a xlink:href="#/abap/expression/SimpleFieldChain2"><text x="411.75" y="202">SimpleFieldChain2</text>
</a>
</g>
</g>
</g>
<path d="M494 198a10 10 0 0 0 10 -10v-130a10 10 0 0 1 10 -10"></path>
<path d="M50 48a10 10 0 0 1 10 10v160a10 10 0 0 0 10 10"></path>
<g class="non-terminal">
<path d="M70 228h0"></path>
<path d="M158 228h336"></path>
<rect x="70" y="217" width="88" height="22"></rect>
<a xlink:href="#/abap/expression/Constant"><text x="114" y="232">Constant</text>
</a>
</g>
<path d="M494 228a10 10 0 0 0 10 -10v-160a10 10 0 0 1 10 -10"></path>
</g>
<g>
<path d="M514 48h0"></path>
<path d="M1440 48h0"></path>
<path d="M514 48a10 10 0 0 0 10 -10v-8a10 10 0 0 1 10 -10"></path>
<g>
<path d="M534 20h886"></path>
</g>
<path d="M1420 20a10 10 0 0 1 10 10v8a10 10 0 0 0 10 10"></path>
<path d="M514 48h20"></path>
<g>
<path d="M534 48h0"></path>
<path d="M1420 48h0"></path>
<g>
<path d="M534 48h0"></path>
<path d="M600 48h0"></path>
<text x="567" y="53" class="comment">v740sp05</text>
</g>
<path d="M600 48h10"></path>
<path d="M610 48h10"></path>
<g>
<path d="M620 48h0"></path>
<path d="M1420 48h0"></path>
<path d="M620 48h10"></path>
<g>
<path d="M630 48h0"></path>
<path d="M1410 48h0"></path>
<g>
<path d="M630 48h0"></path>
<path d="M724 48h0"></path>
<path d="M630 48h20"></path>
<g class="terminal">
<path d="M650 48h0"></path>
<path d="M695.5 48h8.5"></path>
<rect x="650" y="37" width="45.5" height="22" rx="10" ry="10"></rect>
<text x="672.75" y="52">"+"</text>
</g>
<path d="M704 48h20"></path>
<path d="M630 48a10 10 0 0 1 10 10v10a10 10 0 0 0 10 10"></path>
<g class="terminal">
<path d="M650 78h0"></path>
<path d="M695.5 78h8.5"></path>
<rect x="650" y="67" width="45.5" height="22" rx="10" ry="10"></rect>
<text x="672.75" y="82">"-"</text>
</g>
<path d="M704 78a10 10 0 0 0 10 -10v-10a10 10 0 0 1 10 -10"></path>
<path d="M630 48a10 10 0 0 1 10 10v40a10 10 0 0 0 10 10"></path>
<g class="terminal">
<path d="M650 108h0"></path>
<path d="M695.5 108h8.5"></path>
<rect x="650" y="97" width="45.5" height="22" rx="10" ry="10"></rect>
<text x="672.75" y="112">"&#42;"</text>
</g>
<path d="M704 108a10 10 0 0 0 10 -10v-40a10 10 0 0 1 10 -10"></path>
<path d="M630 48a10 10 0 0 1 10 10v70a10 10 0 0 0 10 10"></path>
<g class="terminal">
<path d="M650 138h0"></path>
<path d="M695.5 138h8.5"></path>
<rect x="650" y="127" width="45.5" height="22" rx="10" ry="10"></rect>
<text x="672.75" y="142">"/"</text>
</g>
<path d="M704 138a10 10 0 0 0 10 -10v-70a10 10 0 0 1 10 -10"></path>
<path d="M630 48a10 10 0 0 1 10 10v100a10 10 0 0 0 10 10"></path>
<g class="terminal">
<path d="M650 168h0"></path>
<path d="M704 168h0"></path>
<rect x="650" y="157" width="54" height="22" rx="10" ry="10"></rect>
<text x="677" y="172">"&#38;&#38;"</text>
</g>
<path d="M704 168a10 10 0 0 0 10 -10v-100a10 10 0 0 1 10 -10"></path>
</g>
<g>
<path d="M724 48h0"></path>
<path d="M835 48h0"></path>
<path d="M724 48a10 10 0 0 0 10 -10v0a10 10 0 0 1 10 -10"></path>
<g>
<path d="M744 28h71"></path>
</g>
<path d="M815 28a10 10 0 0 1 10 10v0a10 10 0 0 0 10 10"></path>
<path d="M724 48h20"></path>
<g class="terminal">
<path d="M744 48h0"></path>
<path d="M815 48h0"></path>
<rect x="744" y="37" width="71" height="22" rx="10" ry="10"></rect>
<text x="779.5" y="52">!" ( "</text>
</g>
<path d="M815 48h20"></path>
</g>
<g>
<path d="M835 48h0"></path>
<path d="M1299 48h0"></path>
<path d="M835 48h20"></path>
<g class="non-terminal">
<path d="M855 48h0"></path>
<path d="M994 48h285"></path>
<rect x="855" y="37" width="139" height="22"></rect>
<a xlink:href="#/abap/expression/SQLAggregation"><text x="924.5" y="52">SQLAggregation</text>
</a>
</g>
<path d="M1279 48h20"></path>
<path d="M835 48a10 10 0 0 1 10 10v10a10 10 0 0 0 10 10"></path>
<g class="non-terminal">
<path d="M855 78h0"></path>
<path d="M934.5 78h344.5"></path>
<rect x="855" y="67" width="79.5" height="22"></rect>
<a xlink:href="#/abap/expression/SQLCase"><text x="894.75" y="82">SQLCase</text>
</a>
</g>
<path d="M1279 78a10 10 0 0 0 10 -10v-10a10 10 0 0 1 10 -10"></path>
<path d="M835 48a10 10 0 0 1 10 10v40a10 10 0 0 0 10 10"></path>
<g class="non-terminal">
<path d="M855 108h0"></path>
<path d="M968.5 108h310.5"></path>
<rect x="855" y="97" width="113.5" height="22"></rect>
<a xlink:href="#/abap/expression/SQLFunction"><text x="911.75" y="112">SQLFunction</text>
</a>
</g>
<path d="M1279 108a10 10 0 0 0 10 -10v-40a10 10 0 0 1 10 -10"></path>
<path d="M835 48a10 10 0 0 1 10 10v70a10 10 0 0 0 10 10"></path>
<g class="non-terminal">
<path d="M855 138h0"></path>
<path d="M934.5 138h344.5"></path>
<rect x="855" y="127" width="79.5" height="22"></rect>
<a xlink:href="#/abap/expression/SQLPath"><text x="894.75" y="142">SQLPath</text>
</a>
</g>
<path d="M1279 138a10 10 0 0 0 10 -10v-70a10 10 0 0 1 10 -10"></path>
<path d="M835 48a10 10 0 0 1 10 10v100a10 10 0 0 0 10 10"></path>
<g class="non-terminal">
<path d="M855 168h0"></path>
<path d="M977 168h302"></path>
<rect x="855" y="157" width="122" height="22"></rect>
<a xlink:href="#/abap/expression/SQLFieldName"><text x="916" y="172">SQLFieldName</text>
</a>
</g>
<path d="M1279 168a10 10 0 0 0 10 -10v-100a10 10 0 0 1 10 -10"></path>
<path d="M835 48a10 10 0 0 1 10 10v130a10 10 0 0 0 10 10"></path>
<g>
<path d="M855 198h0"></path>
<path d="M1279 198h0"></path>
<g>
<path d="M855 198h0"></path>
<path d="M1012 198h0"></path>
<text x="933.5" y="203" class="comment">v740sp05 or open-abap</text>
</g>
<path d="M1012 198h10"></path>
<path d="M1022 198h10"></path>
<g>
<path d="M1032 198h0"></path>
<path d="M1279 198h0"></path>
<g class="terminal">
<path d="M1032 198h0"></path>
<path d="M1094.5 198h0"></path>
<rect x="1032" y="187" width="62.5" height="22" rx="10" ry="10"></rect>
<text x="1063.25" y="202">!" @"</text>
</g>
<path d="M1094.5 198h10"></path>
<path d="M1104.5 198h10"></path>
<g class="non-terminal">
<path d="M1114.5 198h0"></path>
<path d="M1279 198h0"></path>
<rect x="1114.5" y="187" width="164.5" height="22"></rect>
<a xlink:href="#/abap/expression/SimpleFieldChain2"><text x="1196.75" y="202">SimpleFieldChain2</text>
</a>
</g>
</g>
</g>
<path d="M1279 198a10 10 0 0 0 10 -10v-130a10 10 0 0 1 10 -10"></path>
<path d="M835 48a10 10 0 0 1 10 10v160a10 10 0 0 0 10 10"></path>
<g class="non-terminal">
<path d="M855 228h0"></path>
<path d="M943 228h336"></path>
<rect x="855" y="217" width="88" height="22"></rect>
<a xlink:href="#/abap/expression/Constant"><text x="899" y="232">Constant</text>
</a>
</g>
<path d="M1279 228a10 10 0 0 0 10 -10v-160a10 10 0 0 1 10 -10"></path>
</g>
<g>
<path d="M1299 48h0"></path>
<path d="M1410 48h0"></path>
<path d="M1299 48a10 10 0 0 0 10 -10v0a10 10 0 0 1 10 -10"></path>
<g>
<path d="M1319 28h71"></path>
</g>
<path d="M1390 28a10 10 0 0 1 10 10v0a10 10 0 0 0 10 10"></path>
<path d="M1299 48h20"></path>
<g class="terminal">
<path d="M1319 48h0"></path>
<path d="M1390 48h0"></path>
<rect x="1319" y="37" width="71" height="22" rx="10" ry="10"></rect>
<text x="1354.5" y="52">!" ) "</text>
</g>
<path d="M1390 48h20"></path>
</g>
</g>
<path d="M1410 48h10"></path>
<path d="M630 48a10 10 0 0 0 -10 10v179a10 10 0 0 0 10 10"></path>
<g>
<path d="M630 247h780"></path>
</g>
<path d="M1410 247a10 10 0 0 0 10 -10v-179a10 10 0 0 0 -10 -10"></path>
</g>
</g>
<path d="M1420 48h20"></path>
</g>
<g>
<path d="M1440 48h0"></path>
<path d="M1650.5 48h0"></path>
<path d="M1440 48a10 10 0 0 0 10 -10v0a10 10 0 0 1 10 -10"></path>
<g>
<path d="M1460 28h170.5"></path>
</g>
<path d="M1630.5 28a10 10 0 0 1 10 10v0a10 10 0 0 0 10 10"></path>
<path d="M1440 48h20"></path>
<g>
<path d="M1460 48h0"></path>
<path d="M1630.5 48h0"></path>
<g class="terminal">
<path d="M1460 48h0"></path>
<path d="M1514 48h0"></path>
<rect x="1460" y="37" width="54" height="22" rx="10" ry="10"></rect>
<text x="1487" y="52">"AS"</text>
</g>
<path d="M1514 48h10"></path>
<path d="M1524 48h10"></path>
<g class="non-terminal">
<path d="M1534 48h0"></path>
<path d="M1630.5 48h0"></path>
<rect x="1534" y="37" width="96.5" height="22"></rect>
<a xlink:href="#/abap/expression/SQLAsName"><text x="1582.25" y="52">SQLAsName</text>
</a>
</g>
</g>
<path d="M1630.5 48h20"></path>
</g>
</g>
<path d="M1650.5 48h10"></path>
<path d="M 1660.5 48 h 20 m 0 -10 v 20"></path>
</g>
</svg>
