<svg xmlns="http://www.w3.org/2000/svg" xmlns:xlink="http://www.w3.org/1999/xlink" class="railroad-diagram" width="1519" height="1364" viewBox="0 0 1519 1364">
<defs>
<style type="text/css"><![CDATA[
path {
stroke-width: 3;
stroke: black;
fill: rgba(0,0,0,0);
}
text {
font: bold 14px monospace;
text-anchor: middle;
}
text.diagram-text {
font-size: 12px;
}
a {
fill: blue;
}
text.diagram-arrow {
font-size: 16px;
}
text.label {
text-anchor: start;
}
text.comment {
font: italic 12px monospace;
}
rect {
stroke-width: 3;
stroke: black;
fill: #BCBCBC;
}
path.diagram-text {
stroke-width: 3;
stroke: black;
fill: #BCBCBC;
cursor: help;
}
]]></style>
</defs>
<g transform="translate(.5 .5)">
<g>
<path d="M20 30v20m0 -10h20"></path>
</g>
<g>
<path d="M40 40h0"></path>
<path d="M1479 40h0"></path>
<path d="M40 40h20"></path>
<g>
<path d="M60 40h466.5"></path>
<path d="M992.5 40h466.5"></path>
<g>
<path d="M526.5 40h0"></path>
<path d="M769.5 40h0"></path>
<g class="terminal ">
<path d="M526.5 40h0"></path>
<path d="M614.5 40h0"></path>
<rect x="526.5" y="29" width="88" height="22" rx="10" ry="10"></rect>
<text x="570.5" y="44">"OCCURS"</text>
</g>
<path d="M614.5 40h10"></path>
<g>
<path d="M624.5 40h0"></path>
<path d="M769.5 40h0"></path>
<path d="M624.5 40h20"></path>
<g class="non-terminal ">
<path d="M644.5 40h12.75"></path>
<path d="M736.75 40h12.75"></path>
<rect x="657.25" y="29" width="79.5" height="22"></rect>
<a xlink:href="#/abap/expression/Integer"><text x="697" y="44">Integer</text>
</a>
</g>
<path d="M749.5 40h20"></path>
<path d="M624.5 40a10 10 0 0 1 10 10v10a10 10 0 0 0 10 10"></path>
<g class="non-terminal ">
<path d="M644.5 70h0"></path>
<path d="M749.5 70h0"></path>
<rect x="644.5" y="59" width="105" height="22"></rect>
<a xlink:href="#/abap/expression/FieldChain"><text x="697" y="74">FieldChain</text>
</a>
</g>
<path d="M749.5 70a10 10 0 0 0 10 -10v-10a10 10 0 0 1 10 -10"></path>
</g>
</g>
<path d="M769.5 40h10"></path>
<g>
<path d="M779.5 40h0"></path>
<path d="M992.5 40h0"></path>
<path d="M779.5 40a10 10 0 0 0 10 -10v0a10 10 0 0 1 10 -10"></path>
<g>
<path d="M799.5 20h173"></path>
</g>
<path d="M972.5 20a10 10 0 0 1 10 10v0a10 10 0 0 0 10 10"></path>
<path d="M779.5 40h20"></path>
<g class="terminal ">
<path d="M799.5 40h0"></path>
<path d="M972.5 40h0"></path>
<rect x="799.5" y="29" width="173" height="22" rx="10" ry="10"></rect>
<text x="886" y="44">"WITH HEADER LINE"</text>
</g>
<path d="M972.5 40h20"></path>
</g>
</g>
<path d="M1459 40h20"></path>
<path d="M40 40a10 10 0 0 1 10 10v49a10 10 0 0 0 10 10"></path>
<g>
<path d="M60 109h162.5"></path>
<path d="M1296.5 109h162.5"></path>
<g class="terminal ">
<path d="M222.5 109h0"></path>
<path d="M293.5 109h0"></path>
<rect x="222.5" y="98" width="71" height="22" rx="10" ry="10"></rect>
<text x="258" y="113">"LIKE"</text>
</g>
<path d="M293.5 109h10"></path>
<g>
<path d="M303.5 109h0"></path>
<path d="M1296.5 109h0"></path>
<path d="M303.5 109h20"></path>
<g>
<path d="M323.5 109h97"></path>
<path d="M1179.5 109h97"></path>
<g>
<path d="M420.5 109h0"></path>
<path d="M548.5 109h0"></path>
<path d="M420.5 109a10 10 0 0 0 10 -10v0a10 10 0 0 1 10 -10"></path>
<g>
<path d="M440.5 89h88"></path>
</g>
<path d="M528.5 89a10 10 0 0 1 10 10v0a10 10 0 0 0 10 10"></path>
<path d="M420.5 109h20"></path>
<g class="terminal ">
<path d="M440.5 109h0"></path>
<path d="M528.5 109h0"></path>
<rect x="440.5" y="98" width="88" height="22" rx="10" ry="10"></rect>
<text x="484.5" y="113">"REF TO"</text>
</g>
<path d="M528.5 109h20"></path>
</g>
<path d="M548.5 109h10"></path>
<g class="non-terminal ">
<path d="M558.5 109h0"></path>
<path d="M663.5 109h0"></path>
<rect x="558.5" y="98" width="105" height="22"></rect>
<a xlink:href="#/abap/expression/FieldChain"><text x="611" y="113">FieldChain</text>
</a>
</g>
<path d="M663.5 109h10"></path>
<g>
<path d="M673.5 109h0"></path>
<path d="M1179.5 109h0"></path>
<path d="M673.5 109h20"></path>
<g>
<path d="M693.5 109h0"></path>
<path d="M1159.5 109h0"></path>
<g>
<path d="M693.5 109h0"></path>
<path d="M936.5 109h0"></path>
<g class="terminal ">
<path d="M693.5 109h0"></path>
<path d="M781.5 109h0"></path>
<rect x="693.5" y="98" width="88" height="22" rx="10" ry="10"></rect>
<text x="737.5" y="113">"OCCURS"</text>
</g>
<path d="M781.5 109h10"></path>
<g>
<path d="M791.5 109h0"></path>
<path d="M936.5 109h0"></path>
<path d="M791.5 109h20"></path>
<g class="non-terminal ">
<path d="M811.5 109h12.75"></path>
<path d="M903.75 109h12.75"></path>
<rect x="824.25" y="98" width="79.5" height="22"></rect>
<a xlink:href="#/abap/expression/Integer"><text x="864" y="113">Integer</text>
</a>
</g>
<path d="M916.5 109h20"></path>
<path d="M791.5 109a10 10 0 0 1 10 10v10a10 10 0 0 0 10 10"></path>
<g class="non-terminal ">
<path d="M811.5 139h0"></path>
<path d="M916.5 139h0"></path>
<rect x="811.5" y="128" width="105" height="22"></rect>
<a xlink:href="#/abap/expression/FieldChain"><text x="864" y="143">FieldChain</text>
</a>
</g>
<path d="M916.5 139a10 10 0 0 0 10 -10v-10a10 10 0 0 1 10 -10"></path>
</g>
</g>
<path d="M936.5 109h10"></path>
<g>
<path d="M946.5 109h0"></path>
<path d="M1159.5 109h0"></path>
<path d="M946.5 109a10 10 0 0 0 10 -10v0a10 10 0 0 1 10 -10"></path>
<g>
<path d="M966.5 89h173"></path>
</g>
<path d="M1139.5 89a10 10 0 0 1 10 10v0a10 10 0 0 0 10 10"></path>
<path d="M946.5 109h20"></path>
<g class="terminal ">
<path d="M966.5 109h0"></path>
<path d="M1139.5 109h0"></path>
<rect x="966.5" y="98" width="173" height="22" rx="10" ry="10"></rect>
<text x="1053" y="113">"WITH HEADER LINE"</text>
</g>
<path d="M1139.5 109h20"></path>
</g>
</g>
<path d="M1159.5 109h20"></path>
<path d="M673.5 109a10 10 0 0 1 10 10v40a10 10 0 0 0 10 10"></path>
<g class="terminal ">
<path d="M693.5 169h146.5"></path>
<path d="M1013 169h146.5"></path>
<rect x="840" y="158" width="173" height="22" rx="10" ry="10"></rect>
<text x="926.5" y="173">"WITH HEADER LINE"</text>
</g>
<path d="M1159.5 169a10 10 0 0 0 10 -10v-40a10 10 0 0 1 10 -10"></path>
</g>
</g>
<path d="M1276.5 109h20"></path>
<path d="M303.5 109a10 10 0 0 1 10 10v79a10 10 0 0 0 10 10"></path>
<g>
<path d="M323.5 208h6.5"></path>
<path d="M1270 208h6.5"></path>
<g>
<path d="M330 208h0"></path>
<path d="M515 208h0"></path>
<path d="M330 208a10 10 0 0 0 10 -10v0a10 10 0 0 1 10 -10"></path>
<g>
<path d="M350 188h145"></path>
</g>
<path d="M495 188a10 10 0 0 1 10 10v0a10 10 0 0 0 10 10"></path>
<path d="M330 208h20"></path>
<g>
<path d="M350 208h0"></path>
<path d="M495 208h0"></path>
<path d="M350 208h20"></path>
<g class="terminal ">
<path d="M370 208h0"></path>
<path d="M475 208h0"></path>
<rect x="370" y="197" width="105" height="22" rx="10" ry="10"></rect>
<text x="422.5" y="212">"STANDARD"</text>
</g>
<path d="M475 208h20"></path>
<path d="M350 208a10 10 0 0 1 10 10v10a10 10 0 0 0 10 10"></path>
<g class="terminal ">
<path d="M370 238h8.5"></path>
<path d="M466.5 238h8.5"></path>
<rect x="378.5" y="227" width="88" height="22" rx="10" ry="10"></rect>
<text x="422.5" y="242">"HASHED"</text>
</g>
<path d="M475 238a10 10 0 0 0 10 -10v-10a10 10 0 0 1 10 -10"></path>
<path d="M350 208a10 10 0 0 1 10 10v40a10 10 0 0 0 10 10"></path>
<g class="terminal ">
<path d="M370 268h12.75"></path>
<path d="M462.25 268h12.75"></path>
<rect x="382.75" y="257" width="79.5" height="22" rx="10" ry="10"></rect>
<text x="422.5" y="272">"INDEX"</text>
</g>
<path d="M475 268a10 10 0 0 0 10 -10v-40a10 10 0 0 1 10 -10"></path>
<path d="M350 208a10 10 0 0 1 10 10v70a10 10 0 0 0 10 10"></path>
<g class="terminal ">
<path d="M370 298h8.5"></path>
<path d="M466.5 298h8.5"></path>
<rect x="378.5" y="287" width="88" height="22" rx="10" ry="10"></rect>
<text x="422.5" y="302">"SORTED"</text>
</g>
<path d="M475 298a10 10 0 0 0 10 -10v-70a10 10 0 0 1 10 -10"></path>
<path d="M350 208a10 10 0 0 1 10 10v100a10 10 0 0 0 10 10"></path>
<g class="terminal ">
<path d="M370 328h21.25"></path>
<path d="M453.75 328h21.25"></path>
<rect x="391.25" y="317" width="62.5" height="22" rx="10" ry="10"></rect>
<text x="422.5" y="332">"ANY"</text>
</g>
<path d="M475 328a10 10 0 0 0 10 -10v-100a10 10 0 0 1 10 -10"></path>
</g>
<path d="M495 208h20"></path>
</g>
<path d="M515 208h10"></path>
<g class="terminal ">
<path d="M525 208h0"></path>
<path d="M630 208h0"></path>
<rect x="525" y="197" width="105" height="22" rx="10" ry="10"></rect>
<text x="577.5" y="212">"TABLE OF"</text>
</g>
<path d="M630 208h10"></path>
<g>
<path d="M640 208h0"></path>
<path d="M768 208h0"></path>
<path d="M640 208a10 10 0 0 0 10 -10v0a10 10 0 0 1 10 -10"></path>
<g>
<path d="M660 188h88"></path>
</g>
<path d="M748 188a10 10 0 0 1 10 10v0a10 10 0 0 0 10 10"></path>
<path d="M640 208h20"></path>
<g class="terminal ">
<path d="M660 208h0"></path>
<path d="M748 208h0"></path>
<rect x="660" y="197" width="88" height="22" rx="10" ry="10"></rect>
<text x="704" y="212">"REF TO"</text>
</g>
<path d="M748 208h20"></path>
</g>
<g>
<path d="M768 208h0"></path>
<path d="M913 208h0"></path>
<path d="M768 208a10 10 0 0 0 10 -10v0a10 10 0 0 1 10 -10"></path>
<g>
<path d="M788 188h105"></path>
</g>
<path d="M893 188a10 10 0 0 1 10 10v0a10 10 0 0 0 10 10"></path>
<path d="M768 208h20"></path>
<g class="non-terminal ">
<path d="M788 208h0"></path>
<path d="M893 208h0"></path>
<rect x="788" y="197" width="105" height="22"></rect>
<a xlink:href="#/abap/expression/FieldChain"><text x="840.5" y="212">FieldChain</text>
</a>
</g>
<path d="M893 208h20"></path>
</g>
<g>
<path d="M913 208h0"></path>
<path d="M1270 208h0"></path>
<path d="M913 208a10 10 0 0 0 10 -10v0a10 10 0 0 1 10 -10"></path>
<g>
<path d="M933 188h317"></path>
</g>
<path d="M1250 188a10 10 0 0 1 10 10v0a10 10 0 0 0 10 10"></path>
<path d="M913 208h20"></path>
<g>
<path d="M933 208h0"></path>
<path d="M1250 208h0"></path>
<path d="M963 208h10"></path>
<g class="terminal ">
<path d="M973 208h37"></path>
<path d="M1183 208h37"></path>
<rect x="1010" y="197" width="173" height="22" rx="10" ry="10"></rect>
<text x="1096.5" y="212">"WITH HEADER LINE"</text>
</g>
<path d="M1220 208h10"></path>
<path d="M963 208v20a10 10 0 0 0 10 10"></path>
<g>
<path d="M973 238h0"></path>
<path d="M1220 238h0"></path>
<g class="terminal ">
<path d="M973 238h0"></path>
<path d="M1112 238h0"></path>
<rect x="973" y="227" width="139" height="22" rx="10" ry="10"></rect>
<text x="1042.5" y="242">"INITIAL SIZE"</text>
</g>
<path d="M1112 238h10"></path>
<path d="M1122 238h10"></path>
<g class="non-terminal ">
<path d="M1132 238h0"></path>
<path d="M1220 238h0"></path>
<rect x="1132" y="227" width="88" height="22"></rect>
<a xlink:href="#/abap/expression/Constant"><text x="1176" y="242">Constant</text>
</a>
</g>
</g>
<path d="M1220 238a10 10 0 0 0 10 -10v-20"></path>
<path d="M963 208v50a10 10 0 0 0 10 10"></path>
<g>
<path d="M973 268h52.5"></path>
<path d="M1167.5 268h52.5"></path>
<path d="M1025.5 268h10"></path>
<g class="non-terminal ">
<path d="M1035.5 268h0"></path>
<path d="M1157.5 268h0"></path>
<rect x="1035.5" y="257" width="122" height="22"></rect>
<a xlink:href="#/abap/expression/TypeTableKey"><text x="1096.5" y="272">TypeTableKey</text>
</a>
</g>
<path d="M1157.5 268h10"></path>
<path d="M1035.5 268a10 10 0 0 0 -10 10v0a10 10 0 0 0 10 10"></path>
<g>
<path d="M1035.5 288h122"></path>
</g>
<path d="M1157.5 288a10 10 0 0 0 10 -10v0a10 10 0 0 0 -10 -10"></path>
</g>
<path d="M1220 268a10 10 0 0 0 10 -10v-50"></path>
<g class="diagram-text">
<title>take one or more branches, once each, in any order</title>
<path d="M 963 198 h -26 a 4 4 0 0 0 -4 4 v 12 a 4 4 0 0 0 4 4 h 26 z" class="diagram-text"></path>
<text x="948" y="212" class="diagram-text">1+</text>
<path d="M 1230 198 h 16 a 4 4 0 0 1 4 4 v 12 a 4 4 0 0 1 -4 4 h -16 z" class="diagram-text"></path>
<path d="M 1237 206 a 4 4 0 1 0 6 -1 m 2.75 -1 h -4 v 4 m 0 -3 h 2" style="stroke-width: 1.75"></path>
</g>
</g>
<path d="M1250 208h20"></path>
</g>
</g>
<path d="M1276.5 208a10 10 0 0 0 10 -10v-79a10 10 0 0 1 10 -10"></path>
<path d="M303.5 109a10 10 0 0 1 10 10v238a10 10 0 0 0 10 10"></path>
<g>
<path d="M323.5 367h0"></path>
<path d="M1276.5 367h0"></path>
<g class="terminal ">
<path d="M323.5 367h0"></path>
<path d="M428.5 367h0"></path>
<rect x="323.5" y="356" width="105" height="22" rx="10" ry="10"></rect>
<text x="376" y="371">"RANGE OF"</text>
</g>
<path d="M428.5 367h10"></path>
<path d="M438.5 367h10"></path>
<g class="non-terminal ">
<path d="M448.5 367h0"></path>
<path d="M553.5 367h0"></path>
<rect x="448.5" y="356" width="105" height="22"></rect>
<a xlink:href="#/abap/expression/FieldChain"><text x="501" y="371">FieldChain</text>
</a>
</g>
<path d="M553.5 367h10"></path>
<g>
<path d="M563.5 367h0"></path>
<path d="M776.5 367h0"></path>
<path d="M563.5 367a10 10 0 0 0 10 -10v0a10 10 0 0 1 10 -10"></path>
<g>
<path d="M583.5 347h173"></path>
</g>
<path d="M756.5 347a10 10 0 0 1 10 10v0a10 10 0 0 0 10 10"></path>
<path d="M563.5 367h20"></path>
<g class="terminal ">
<path d="M583.5 367h0"></path>
<path d="M756.5 367h0"></path>
<rect x="583.5" y="356" width="173" height="22" rx="10" ry="10"></rect>
<text x="670" y="371">"WITH HEADER LINE"</text>
</g>
<path d="M756.5 367h20"></path>
</g>
<g>
<path d="M776.5 367h0"></path>
<path d="M1063.5 367h0"></path>
<path d="M776.5 367a10 10 0 0 0 10 -10v0a10 10 0 0 1 10 -10"></path>
<g>
<path d="M796.5 347h247"></path>
</g>
<path d="M1043.5 347a10 10 0 0 1 10 10v0a10 10 0 0 0 10 10"></path>
<path d="M776.5 367h20"></path>
<g>
<path d="M796.5 367h0"></path>
<path d="M1043.5 367h0"></path>
<g class="terminal ">
<path d="M796.5 367h0"></path>
<path d="M935.5 367h0"></path>
<rect x="796.5" y="356" width="139" height="22" rx="10" ry="10"></rect>
<text x="866" y="371">"INITIAL SIZE"</text>
</g>
<path d="M935.5 367h10"></path>
<path d="M945.5 367h10"></path>
<g class="non-terminal ">
<path d="M955.5 367h0"></path>
<path d="M1043.5 367h0"></path>
<rect x="955.5" y="356" width="88" height="22"></rect>
<a xlink:href="#/abap/expression/Constant"><text x="999.5" y="371">Constant</text>
</a>
</g>
</g>
<path d="M1043.5 367h20"></path>
</g>
<g>
<path d="M1063.5 367h0"></path>
<path d="M1276.5 367h0"></path>
<path d="M1063.5 367a10 10 0 0 0 10 -10v0a10 10 0 0 1 10 -10"></path>
<g>
<path d="M1083.5 347h173"></path>
</g>
<path d="M1256.5 347a10 10 0 0 1 10 10v0a10 10 0 0 0 10 10"></path>
<path d="M1063.5 367h20"></path>
<g class="terminal ">
<path d="M1083.5 367h0"></path>
<path d="M1256.5 367h0"></path>
<rect x="1083.5" y="356" width="173" height="22" rx="10" ry="10"></rect>
<text x="1170" y="371">"VALUE IS INITIAL"</text>
</g>
<path d="M1256.5 367h20"></path>
</g>
</g>
<path d="M1276.5 367a10 10 0 0 0 10 -10v-238a10 10 0 0 1 10 -10"></path>
<path d="M303.5 109a10 10 0 0 1 10 10v268a10 10 0 0 0 10 10"></path>
<g>
<path d="M323.5 397h146.25"></path>
<path d="M1130.25 397h146.25"></path>
<g class="terminal ">
<path d="M469.75 397h0"></path>
<path d="M566.25 397h0"></path>
<rect x="469.75" y="386" width="96.5" height="22" rx="10" ry="10"></rect>
<text x="518" y="401">"LINE OF"</text>
</g>
<path d="M566.25 397h10"></path>
<path d="M576.25 397h10"></path>
<g class="non-terminal ">
<path d="M586.25 397h0"></path>
<path d="M674.25 397h0"></path>
<rect x="586.25" y="386" width="88" height="22"></rect>
<a xlink:href="#/abap/expression/TypeName"><text x="630.25" y="401">TypeName</text>
</a>
</g>
<path d="M674.25 397h10"></path>
<path d="M684.25 397h10"></path>
<g>
<path d="M694.25 397h0"></path>
<path d="M937.25 397h0"></path>
<g class="terminal ">
<path d="M694.25 397h0"></path>
<path d="M782.25 397h0"></path>
<rect x="694.25" y="386" width="88" height="22" rx="10" ry="10"></rect>
<text x="738.25" y="401">"OCCURS"</text>
</g>
<path d="M782.25 397h10"></path>
<g>
<path d="M792.25 397h0"></path>
<path d="M937.25 397h0"></path>
<path d="M792.25 397h20"></path>
<g class="non-terminal ">
<path d="M812.25 397h12.75"></path>
<path d="M904.5 397h12.75"></path>
<rect x="825" y="386" width="79.5" height="22"></rect>
<a xlink:href="#/abap/expression/Integer"><text x="864.75" y="401">Integer</text>
</a>
</g>
<path d="M917.25 397h20"></path>
<path d="M792.25 397a10 10 0 0 1 10 10v10a10 10 0 0 0 10 10"></path>
<g class="non-terminal ">
<path d="M812.25 427h0"></path>
<path d="M917.25 427h0"></path>
<rect x="812.25" y="416" width="105" height="22"></rect>
<a xlink:href="#/abap/expression/FieldChain"><text x="864.75" y="431">FieldChain</text>
</a>
</g>
<path d="M917.25 427a10 10 0 0 0 10 -10v-10a10 10 0 0 1 10 -10"></path>
</g>
</g>
<path d="M937.25 397h10"></path>
<path d="M947.25 397h10"></path>
<g class="terminal ">
<path d="M957.25 397h0"></path>
<path d="M1130.25 397h0"></path>
<rect x="957.25" y="386" width="173" height="22" rx="10" ry="10"></rect>
<text x="1043.75" y="401">"WITH HEADER LINE"</text>
</g>
</g>
<path d="M1276.5 397a10 10 0 0 0 10 -10v-268a10 10 0 0 1 10 -10"></path>
</g>
</g>
<path d="M1459 109a10 10 0 0 0 10 -10v-49a10 10 0 0 1 10 -10"></path>
<path d="M40 40a10 10 0 0 1 10 10v406a10 10 0 0 0 10 10"></path>
<g>
<path d="M60 466h0"></path>
<path d="M1459 466h0"></path>
<g class="terminal ">
<path d="M60 466h0"></path>
<path d="M131 466h0"></path>
<rect x="60" y="455" width="71" height="22" rx="10" ry="10"></rect>
<text x="95.5" y="470">"TYPE"</text>
</g>
<path d="M131 466h10"></path>
<g>
<path d="M141 466h0"></path>
<path d="M1459 466h0"></path>
<path d="M141 466h20"></path>
<g>
<path d="M161 466h268"></path>
<path d="M1171 466h268"></path>
<g>
<path d="M429 466h0"></path>
<path d="M557 466h0"></path>
<path d="M429 466a10 10 0 0 0 10 -10v0a10 10 0 0 1 10 -10"></path>
<g>
<path d="M449 446h88"></path>
</g>
<path d="M537 446a10 10 0 0 1 10 10v0a10 10 0 0 0 10 10"></path>
<path d="M429 466h20"></path>
<g class="terminal ">
<path d="M449 466h0"></path>
<path d="M537 466h0"></path>
<rect x="449" y="455" width="88" height="22" rx="10" ry="10"></rect>
<text x="493" y="470">"REF TO"</text>
</g>
<path d="M537 466h20"></path>
</g>
<path d="M557 466h10"></path>
<g class="non-terminal ">
<path d="M567 466h0"></path>
<path d="M655 466h0"></path>
<rect x="567" y="455" width="88" height="22"></rect>
<a xlink:href="#/abap/expression/TypeName"><text x="611" y="470">TypeName</text>
</a>
</g>
<path d="M655 466h10"></path>
<g>
<path d="M665 466h0"></path>
<path d="M1171 466h0"></path>
<path d="M665 466h20"></path>
<g>
<path d="M685 466h0"></path>
<path d="M1151 466h0"></path>
<g>
<path d="M685 466h0"></path>
<path d="M928 466h0"></path>
<g class="terminal ">
<path d="M685 466h0"></path>
<path d="M773 466h0"></path>
<rect x="685" y="455" width="88" height="22" rx="10" ry="10"></rect>
<text x="729" y="470">"OCCURS"</text>
</g>
<path d="M773 466h10"></path>
<g>
<path d="M783 466h0"></path>
<path d="M928 466h0"></path>
<path d="M783 466h20"></path>
<g class="non-terminal ">
<path d="M803 466h12.75"></path>
<path d="M895.25 466h12.75"></path>
<rect x="815.75" y="455" width="79.5" height="22"></rect>
<a xlink:href="#/abap/expression/Integer"><text x="855.5" y="470">Integer</text>
</a>
</g>
<path d="M908 466h20"></path>
<path d="M783 466a10 10 0 0 1 10 10v10a10 10 0 0 0 10 10"></path>
<g class="non-terminal ">
<path d="M803 496h0"></path>
<path d="M908 496h0"></path>
<rect x="803" y="485" width="105" height="22"></rect>
<a xlink:href="#/abap/expression/FieldChain"><text x="855.5" y="500">FieldChain</text>
</a>
</g>
<path d="M908 496a10 10 0 0 0 10 -10v-10a10 10 0 0 1 10 -10"></path>
</g>
</g>
<path d="M928 466h10"></path>
<g>
<path d="M938 466h0"></path>
<path d="M1151 466h0"></path>
<path d="M938 466a10 10 0 0 0 10 -10v0a10 10 0 0 1 10 -10"></path>
<g>
<path d="M958 446h173"></path>
</g>
<path d="M1131 446a10 10 0 0 1 10 10v0a10 10 0 0 0 10 10"></path>
<path d="M938 466h20"></path>
<g class="terminal ">
<path d="M958 466h0"></path>
<path d="M1131 466h0"></path>
<rect x="958" y="455" width="173" height="22" rx="10" ry="10"></rect>
<text x="1044.5" y="470">"WITH HEADER LINE"</text>
</g>
<path d="M1131 466h20"></path>
</g>
</g>
<path d="M1151 466h20"></path>
<path d="M665 466a10 10 0 0 1 10 10v40a10 10 0 0 0 10 10"></path>
<g class="terminal ">
<path d="M685 526h146.5"></path>
<path d="M1004.5 526h146.5"></path>
<rect x="831.5" y="515" width="173" height="22" rx="10" ry="10"></rect>
<text x="918" y="530">"WITH HEADER LINE"</text>
</g>
<path d="M1151 526a10 10 0 0 0 10 -10v-40a10 10 0 0 1 10 -10"></path>
</g>
</g>
<path d="M1439 466h20"></path>
<path d="M141 466a10 10 0 0 1 10 10v79a10 10 0 0 0 10 10"></path>
<g>
<path d="M161 565h0"></path>
<path d="M1439 565h0"></path>
<path d="M161 565h20"></path>
<g>
<path d="M181 565h481.75"></path>
<path d="M937.25 565h481.75"></path>
<g>
<path d="M662.75 565h0"></path>
<path d="M847.75 565h0"></path>
<path d="M662.75 565a10 10 0 0 0 10 -10v0a10 10 0 0 1 10 -10"></path>
<g>
<path d="M682.75 545h145"></path>
</g>
<path d="M827.75 545a10 10 0 0 1 10 10v0a10 10 0 0 0 10 10"></path>
<path d="M662.75 565h20"></path>
<g>
<path d="M682.75 565h0"></path>
<path d="M827.75 565h0"></path>
<path d="M682.75 565h20"></path>
<g class="terminal ">
<path d="M702.75 565h0"></path>
<path d="M807.75 565h0"></path>
<rect x="702.75" y="554" width="105" height="22" rx="10" ry="10"></rect>
<text x="755.25" y="569">"STANDARD"</text>
</g>
<path d="M807.75 565h20"></path>
<path d="M682.75 565a10 10 0 0 1 10 10v10a10 10 0 0 0 10 10"></path>
<g class="terminal ">
<path d="M702.75 595h8.5"></path>
<path d="M799.25 595h8.5"></path>
<rect x="711.25" y="584" width="88" height="22" rx="10" ry="10"></rect>
<text x="755.25" y="599">"HASHED"</text>
</g>
<path d="M807.75 595a10 10 0 0 0 10 -10v-10a10 10 0 0 1 10 -10"></path>
<path d="M682.75 565a10 10 0 0 1 10 10v40a10 10 0 0 0 10 10"></path>
<g class="terminal ">
<path d="M702.75 625h12.75"></path>
<path d="M795 625h12.75"></path>
<rect x="715.5" y="614" width="79.5" height="22" rx="10" ry="10"></rect>
<text x="755.25" y="629">"INDEX"</text>
</g>
<path d="M807.75 625a10 10 0 0 0 10 -10v-40a10 10 0 0 1 10 -10"></path>
<path d="M682.75 565a10 10 0 0 1 10 10v70a10 10 0 0 0 10 10"></path>
<g class="terminal ">
<path d="M702.75 655h8.5"></path>
<path d="M799.25 655h8.5"></path>
<rect x="711.25" y="644" width="88" height="22" rx="10" ry="10"></rect>
<text x="755.25" y="659">"SORTED"</text>
</g>
<path d="M807.75 655a10 10 0 0 0 10 -10v-70a10 10 0 0 1 10 -10"></path>
<path d="M682.75 565a10 10 0 0 1 10 10v100a10 10 0 0 0 10 10"></path>
<g class="terminal ">
<path d="M702.75 685h21.25"></path>
<path d="M786.5 685h21.25"></path>
<rect x="724" y="674" width="62.5" height="22" rx="10" ry="10"></rect>
<text x="755.25" y="689">"ANY"</text>
</g>
<path d="M807.75 685a10 10 0 0 0 10 -10v-100a10 10 0 0 1 10 -10"></path>
</g>
<path d="M827.75 565h20"></path>
</g>
<path d="M847.75 565h10"></path>
<g class="terminal ">
<path d="M857.75 565h0"></path>
<path d="M937.25 565h0"></path>
<rect x="857.75" y="554" width="79.5" height="22" rx="10" ry="10"></rect>
<text x="897.5" y="569">"TABLE"</text>
</g>
</g>
<path d="M1419 565h20"></path>
<path d="M161 565a10 10 0 0 1 10 10v139a10 10 0 0 0 10 10"></path>
<g>
<path d="M181 724h0"></path>
<path d="M1419 724h0"></path>
<g>
<path d="M181 724h0"></path>
<path d="M717 724h0"></path>
<g>
<path d="M181 724h0"></path>
<path d="M366 724h0"></path>
<path d="M181 724a10 10 0 0 0 10 -10v0a10 10 0 0 1 10 -10"></path>
<g>
<path d="M201 704h145"></path>
</g>
<path d="M346 704a10 10 0 0 1 10 10v0a10 10 0 0 0 10 10"></path>
<path d="M181 724h20"></path>
<g>
<path d="M201 724h0"></path>
<path d="M346 724h0"></path>
<path d="M201 724h20"></path>
<g class="terminal ">
<path d="M221 724h0"></path>
<path d="M326 724h0"></path>
<rect x="221" y="713" width="105" height="22" rx="10" ry="10"></rect>
<text x="273.5" y="728">"STANDARD"</text>
</g>
<path d="M326 724h20"></path>
<path d="M201 724a10 10 0 0 1 10 10v10a10 10 0 0 0 10 10"></path>
<g class="terminal ">
<path d="M221 754h8.5"></path>
<path d="M317.5 754h8.5"></path>
<rect x="229.5" y="743" width="88" height="22" rx="10" ry="10"></rect>
<text x="273.5" y="758">"HASHED"</text>
</g>
<path d="M326 754a10 10 0 0 0 10 -10v-10a10 10 0 0 1 10 -10"></path>
<path d="M201 724a10 10 0 0 1 10 10v40a10 10 0 0 0 10 10"></path>
<g class="terminal ">
<path d="M221 784h12.75"></path>
<path d="M313.25 784h12.75"></path>
<rect x="233.75" y="773" width="79.5" height="22" rx="10" ry="10"></rect>
<text x="273.5" y="788">"INDEX"</text>
</g>
<path d="M326 784a10 10 0 0 0 10 -10v-40a10 10 0 0 1 10 -10"></path>
<path d="M201 724a10 10 0 0 1 10 10v70a10 10 0 0 0 10 10"></path>
<g class="terminal ">
<path d="M221 814h8.5"></path>
<path d="M317.5 814h8.5"></path>
<rect x="229.5" y="803" width="88" height="22" rx="10" ry="10"></rect>
<text x="273.5" y="818">"SORTED"</text>
</g>
<path d="M326 814a10 10 0 0 0 10 -10v-70a10 10 0 0 1 10 -10"></path>
<path d="M201 724a10 10 0 0 1 10 10v100a10 10 0 0 0 10 10"></path>
<g class="terminal ">
<path d="M221 844h21.25"></path>
<path d="M304.75 844h21.25"></path>
<rect x="242.25" y="833" width="62.5" height="22" rx="10" ry="10"></rect>
<text x="273.5" y="848">"ANY"</text>
</g>
<path d="M326 844a10 10 0 0 0 10 -10v-100a10 10 0 0 1 10 -10"></path>
</g>
<path d="M346 724h20"></path>
</g>
<path d="M366 724h10"></path>
<g class="terminal ">
<path d="M376 724h0"></path>
<path d="M481 724h0"></path>
<rect x="376" y="713" width="105" height="22" rx="10" ry="10"></rect>
<text x="428.5" y="728">"TABLE OF"</text>
</g>
<path d="M481 724h10"></path>
<g>
<path d="M491 724h0"></path>
<path d="M619 724h0"></path>
<path d="M491 724a10 10 0 0 0 10 -10v0a10 10 0 0 1 10 -10"></path>
<g>
<path d="M511 704h88"></path>
</g>
<path d="M599 704a10 10 0 0 1 10 10v0a10 10 0 0 0 10 10"></path>
<path d="M491 724h20"></path>
<g class="terminal ">
<path d="M511 724h0"></path>
<path d="M599 724h0"></path>
<rect x="511" y="713" width="88" height="22" rx="10" ry="10"></rect>
<text x="555" y="728">"REF TO"</text>
</g>
<path d="M599 724h20"></path>
</g>
<path d="M619 724h10"></path>
<g class="non-terminal ">
<path d="M629 724h0"></path>
<path d="M717 724h0"></path>
<rect x="629" y="713" width="88" height="22"></rect>
<a xlink:href="#/abap/expression/TypeName"><text x="673" y="728">TypeName</text>
</a>
</g>
</g>
<path d="M717 724h10"></path>
<g>
<path d="M727 724h0"></path>
<path d="M1206 724h0"></path>
<path d="M727 724h20"></path>
<g>
<path d="M747 724h41"></path>
<path d="M1145 724h41"></path>
<path d="M788 724a10 10 0 0 0 10 -10v0a10 10 0 0 1 10 -10"></path>
<g>
<path d="M808 704h317"></path>
</g>
<path d="M1125 704a10 10 0 0 1 10 10v0a10 10 0 0 0 10 10"></path>
<path d="M788 724h20"></path>
<g>
<path d="M808 724h0"></path>
<path d="M1125 724h0"></path>
<path d="M838 724h10"></path>
<g class="terminal ">
<path d="M848 724h37"></path>
<path d="M1058 724h37"></path>
<rect x="885" y="713" width="173" height="22" rx="10" ry="10"></rect>
<text x="971.5" y="728">"WITH HEADER LINE"</text>
</g>
<path d="M1095 724h10"></path>
<path d="M838 724v20a10 10 0 0 0 10 10"></path>
<g>
<path d="M848 754h0"></path>
<path d="M1095 754h0"></path>
<g class="terminal ">
<path d="M848 754h0"></path>
<path d="M987 754h0"></path>
<rect x="848" y="743" width="139" height="22" rx="10" ry="10"></rect>
<text x="917.5" y="758">"INITIAL SIZE"</text>
</g>
<path d="M987 754h10"></path>
<path d="M997 754h10"></path>
<g class="non-terminal ">
<path d="M1007 754h0"></path>
<path d="M1095 754h0"></path>
<rect x="1007" y="743" width="88" height="22"></rect>
<a xlink:href="#/abap/expression/Constant"><text x="1051" y="758">Constant</text>
</a>
</g>
</g>
<path d="M1095 754a10 10 0 0 0 10 -10v-20"></path>
<path d="M838 724v50a10 10 0 0 0 10 10"></path>
<g>
<path d="M848 784h52.5"></path>
<path d="M1042.5 784h52.5"></path>
<path d="M900.5 784h10"></path>
<g class="non-terminal ">
<path d="M910.5 784h0"></path>
<path d="M1032.5 784h0"></path>
<rect x="910.5" y="773" width="122" height="22"></rect>
<a xlink:href="#/abap/expression/TypeTableKey"><text x="971.5" y="788">TypeTableKey</text>
</a>
</g>
<path d="M1032.5 784h10"></path>
<path d="M910.5 784a10 10 0 0 0 -10 10v0a10 10 0 0 0 10 10"></path>
<g>
<path d="M910.5 804h122"></path>
</g>
<path d="M1032.5 804a10 10 0 0 0 10 -10v0a10 10 0 0 0 -10 -10"></path>
</g>
<path d="M1095 784a10 10 0 0 0 10 -10v-50"></path>
<g class="diagram-text">
<title>take one or more branches, once each, in any order</title>
<path d="M 838 714 h -26 a 4 4 0 0 0 -4 4 v 12 a 4 4 0 0 0 4 4 h 26 z" class="diagram-text"></path>
<text x="823" y="728" class="diagram-text">1+</text>
<path d="M 1105 714 h 16 a 4 4 0 0 1 4 4 v 12 a 4 4 0 0 1 -4 4 h -16 z" class="diagram-text"></path>
<path d="M 1112 722 a 4 4 0 1 0 6 -1 m 2.75 -1 h -4 v 4 m 0 -3 h 2" style="stroke-width: 1.75"></path>
</g>
</g>
<path d="M1125 724h20"></path>
</g>
<path d="M1186 724h20"></path>
<path d="M727 724a10 10 0 0 1 10 10v88a10 10 0 0 0 10 10"></path>
<g>
<path d="M747 832h0"></path>
<path d="M1186 832h0"></path>
<g>
<path d="M747 832h0"></path>
<path d="M889 832h0"></path>
<path d="M747 832h10"></path>
<g class="non-terminal ">
<path d="M757 832h0"></path>
<path d="M879 832h0"></path>
<rect x="757" y="821" width="122" height="22"></rect>
<a xlink:href="#/abap/expression/TypeTableKey"><text x="818" y="836">TypeTableKey</text>
</a>
</g>
<path d="M879 832h10"></path>
<path d="M757 832a10 10 0 0 0 -10 10v0a10 10 0 0 0 10 10"></path>
<g>
<path d="M757 852h122"></path>
</g>
<path d="M879 852a10 10 0 0 0 10 -10v0a10 10 0 0 0 -10 -10"></path>
</g>
<path d="M889 832h10"></path>
<g>
<path d="M899 832h0"></path>
<path d="M1186 832h0"></path>
<path d="M899 832a10 10 0 0 0 10 -10v0a10 10 0 0 1 10 -10"></path>
<g>
<path d="M919 812h247"></path>
</g>
<path d="M1166 812a10 10 0 0 1 10 10v0a10 10 0 0 0 10 10"></path>
<path d="M899 832h20"></path>
<g>
<path d="M919 832h0"></path>
<path d="M1166 832h0"></path>
<g class="terminal ">
<path d="M919 832h0"></path>
<path d="M1058 832h0"></path>
<rect x="919" y="821" width="139" height="22" rx="10" ry="10"></rect>
<text x="988.5" y="836">"INITIAL SIZE"</text>
</g>
<path d="M1058 832h10"></path>
<path d="M1068 832h10"></path>
<g class="non-terminal ">
<path d="M1078 832h0"></path>
<path d="M1166 832h0"></path>
<rect x="1078" y="821" width="88" height="22"></rect>
<a xlink:href="#/abap/expression/Constant"><text x="1122" y="836">Constant</text>
</a>
</g>
</g>
<path d="M1166 832h20"></path>
</g>
</g>
<path d="M1186 832a10 10 0 0 0 10 -10v-88a10 10 0 0 1 10 -10"></path>
</g>
<g>
<path d="M1206 724h0"></path>
<path d="M1419 724h0"></path>
<path d="M1206 724a10 10 0 0 0 10 -10v0a10 10 0 0 1 10 -10"></path>
<g>
<path d="M1226 704h173"></path>
</g>
<path d="M1399 704a10 10 0 0 1 10 10v0a10 10 0 0 0 10 10"></path>
<path d="M1206 724h20"></path>
<g class="terminal ">
<path d="M1226 724h0"></path>
<path d="M1399 724h0"></path>
<rect x="1226" y="713" width="173" height="22" rx="10" ry="10"></rect>
<text x="1312.5" y="728">"VALUE IS INITIAL"</text>
</g>
<path d="M1399 724h20"></path>
</g>
</g>
<path d="M1419 724a10 10 0 0 0 10 -10v-139a10 10 0 0 1 10 -10"></path>
</g>
<path d="M1439 565a10 10 0 0 0 10 -10v-79a10 10 0 0 1 10 -10"></path>
<path d="M141 466a10 10 0 0 1 10 10v397a10 10 0 0 0 10 10"></path>
<g>
<path d="M161 883h171"></path>
<path d="M1268 883h171"></path>
<g class="terminal ">
<path d="M332 883h0"></path>
<path d="M437 883h0"></path>
<rect x="332" y="872" width="105" height="22" rx="10" ry="10"></rect>
<text x="384.5" y="887">"RANGE OF"</text>
</g>
<path d="M437 883h10"></path>
<path d="M447 883h10"></path>
<g class="non-terminal ">
<path d="M457 883h0"></path>
<path d="M545 883h0"></path>
<rect x="457" y="872" width="88" height="22"></rect>
<a xlink:href="#/abap/expression/TypeName"><text x="501" y="887">TypeName</text>
</a>
</g>
<path d="M545 883h10"></path>
<g>
<path d="M555 883h0"></path>
<path d="M768 883h0"></path>
<path d="M555 883a10 10 0 0 0 10 -10v0a10 10 0 0 1 10 -10"></path>
<g>
<path d="M575 863h173"></path>
</g>
<path d="M748 863a10 10 0 0 1 10 10v0a10 10 0 0 0 10 10"></path>
<path d="M555 883h20"></path>
<g class="terminal ">
<path d="M575 883h0"></path>
<path d="M748 883h0"></path>
<rect x="575" y="872" width="173" height="22" rx="10" ry="10"></rect>
<text x="661.5" y="887">"WITH HEADER LINE"</text>
</g>
<path d="M748 883h20"></path>
</g>
<g>
<path d="M768 883h0"></path>
<path d="M1055 883h0"></path>
<path d="M768 883a10 10 0 0 0 10 -10v0a10 10 0 0 1 10 -10"></path>
<g>
<path d="M788 863h247"></path>
</g>
<path d="M1035 863a10 10 0 0 1 10 10v0a10 10 0 0 0 10 10"></path>
<path d="M768 883h20"></path>
<g>
<path d="M788 883h0"></path>
<path d="M1035 883h0"></path>
<g class="terminal ">
<path d="M788 883h0"></path>
<path d="M927 883h0"></path>
<rect x="788" y="872" width="139" height="22" rx="10" ry="10"></rect>
<text x="857.5" y="887">"INITIAL SIZE"</text>
</g>
<path d="M927 883h10"></path>
<path d="M937 883h10"></path>
<g class="non-terminal ">
<path d="M947 883h0"></path>
<path d="M1035 883h0"></path>
<rect x="947" y="872" width="88" height="22"></rect>
<a xlink:href="#/abap/expression/Constant"><text x="991" y="887">Constant</text>
</a>
</g>
</g>
<path d="M1035 883h20"></path>
</g>
<g>
<path d="M1055 883h0"></path>
<path d="M1268 883h0"></path>
<path d="M1055 883a10 10 0 0 0 10 -10v0a10 10 0 0 1 10 -10"></path>
<g>
<path d="M1075 863h173"></path>
</g>
<path d="M1248 863a10 10 0 0 1 10 10v0a10 10 0 0 0 10 10"></path>
<path d="M1055 883h20"></path>
<g class="terminal ">
<path d="M1075 883h0"></path>
<path d="M1248 883h0"></path>
<rect x="1075" y="872" width="173" height="22" rx="10" ry="10"></rect>
<text x="1161.5" y="887">"VALUE IS INITIAL"</text>
</g>
<path d="M1248 883h20"></path>
</g>
</g>
<path d="M1439 883a10 10 0 0 0 10 -10v-397a10 10 0 0 1 10 -10"></path>
<path d="M141 466a10 10 0 0 1 10 10v427a10 10 0 0 0 10 10"></path>
<g>
<path d="M161 913h308.75"></path>
<path d="M1130.25 913h308.75"></path>
<g class="terminal ">
<path d="M469.75 913h0"></path>
<path d="M566.25 913h0"></path>
<rect x="469.75" y="902" width="96.5" height="22" rx="10" ry="10"></rect>
<text x="518" y="917">"LINE OF"</text>
</g>
<path d="M566.25 913h10"></path>
<path d="M576.25 913h10"></path>
<g class="non-terminal ">
<path d="M586.25 913h0"></path>
<path d="M674.25 913h0"></path>
<rect x="586.25" y="902" width="88" height="22"></rect>
<a xlink:href="#/abap/expression/TypeName"><text x="630.25" y="917">TypeName</text>
</a>
</g>
<path d="M674.25 913h10"></path>
<path d="M684.25 913h10"></path>
<g>
<path d="M694.25 913h0"></path>
<path d="M937.25 913h0"></path>
<g class="terminal ">
<path d="M694.25 913h0"></path>
<path d="M782.25 913h0"></path>
<rect x="694.25" y="902" width="88" height="22" rx="10" ry="10"></rect>
<text x="738.25" y="917">"OCCURS"</text>
</g>
<path d="M782.25 913h10"></path>
<g>
<path d="M792.25 913h0"></path>
<path d="M937.25 913h0"></path>
<path d="M792.25 913h20"></path>
<g class="non-terminal ">
<path d="M812.25 913h12.75"></path>
<path d="M904.5 913h12.75"></path>
<rect x="825" y="902" width="79.5" height="22"></rect>
<a xlink:href="#/abap/expression/Integer"><text x="864.75" y="917">Integer</text>
</a>
</g>
<path d="M917.25 913h20"></path>
<path d="M792.25 913a10 10 0 0 1 10 10v10a10 10 0 0 0 10 10"></path>
<g class="non-terminal ">
<path d="M812.25 943h0"></path>
<path d="M917.25 943h0"></path>
<rect x="812.25" y="932" width="105" height="22"></rect>
<a xlink:href="#/abap/expression/FieldChain"><text x="864.75" y="947">FieldChain</text>
</a>
</g>
<path d="M917.25 943a10 10 0 0 0 10 -10v-10a10 10 0 0 1 10 -10"></path>
</g>
</g>
<path d="M937.25 913h10"></path>
<path d="M947.25 913h10"></path>
<g class="terminal ">
<path d="M957.25 913h0"></path>
<path d="M1130.25 913h0"></path>
<rect x="957.25" y="902" width="173" height="22" rx="10" ry="10"></rect>
<text x="1043.75" y="917">"WITH HEADER LINE"</text>
</g>
</g>
<path d="M1439 913a10 10 0 0 0 10 -10v-427a10 10 0 0 1 10 -10"></path>
<path d="M141 466a10 10 0 0 1 10 10v487a10 10 0 0 0 10 10"></path>
<g>
<path d="M161 973h348"></path>
<path d="M1091 973h348"></path>
<g class="comment ">
<path d="M509 973h0"></path>
<path d="M547 973h0"></path>
<text x="528" y="978" class="comment">v754</text>
</g>
<path d="M547 973h10"></path>
<path d="M557 973h10"></path>
<g>
<path d="M567 973h0"></path>
<path d="M1091 973h0"></path>
<g class="terminal ">
<path d="M567 973h0"></path>
<path d="M680.5 973h0"></path>
<rect x="567" y="962" width="113.5" height="22" rx="10" ry="10"></rect>
<text x="623.75" y="977">"TABLE FOR"</text>
</g>
<path d="M680.5 973h10"></path>
<g>
<path d="M690.5 973h0"></path>
<path d="M886.5 973h0"></path>
<path d="M690.5 973h20"></path>
<g class="terminal ">
<path d="M710.5 973h4.25"></path>
<path d="M862.25 973h4.25"></path>
<rect x="714.75" y="962" width="147.5" height="22" rx="10" ry="10"></rect>
<text x="788.5" y="977">"ACTION IMPORT"</text>
</g>
<path d="M866.5 973h20"></path>
<path d="M690.5 973a10 10 0 0 1 10 10v10a10 10 0 0 0 10 10"></path>
<g class="terminal ">
<path d="M710.5 1003h4.25"></path>
<path d="M862.25 1003h4.25"></path>
<rect x="714.75" y="992" width="147.5" height="22" rx="10" ry="10"></rect>
<text x="788.5" y="1007">"ACTION RESULT"</text>
</g>
<path d="M866.5 1003a10 10 0 0 0 10 -10v-10a10 10 0 0 1 10 -10"></path>
<path d="M690.5 973a10 10 0 0 1 10 10v40a10 10 0 0 0 10 10"></path>
<g class="terminal ">
<path d="M710.5 1033h34"></path>
<path d="M832.5 1033h34"></path>
<rect x="744.5" y="1022" width="88" height="22" rx="10" ry="10"></rect>
<text x="788.5" y="1037">"CREATE"</text>
</g>
<path d="M866.5 1033a10 10 0 0 0 10 -10v-40a10 10 0 0 1 10 -10"></path>
<path d="M690.5 973a10 10 0 0 1 10 10v70a10 10 0 0 0 10 10"></path>
<g class="terminal ">
<path d="M710.5 1063h38.25"></path>
<path d="M828.25 1063h38.25"></path>
<rect x="748.75" y="1052" width="79.5" height="22" rx="10" ry="10"></rect>
<text x="788.5" y="1067">"EVENT"</text>
</g>
<path d="M866.5 1063a10 10 0 0 0 10 -10v-70a10 10 0 0 1 10 -10"></path>
<path d="M690.5 973a10 10 0 0 1 10 10v100a10 10 0 0 0 10 10"></path>
<g class="terminal ">
<path d="M710.5 1093h0"></path>
<path d="M866.5 1093h0"></path>
<rect x="710.5" y="1082" width="156" height="22" rx="10" ry="10"></rect>
<text x="788.5" y="1097">"REPORTED EARLY"</text>
</g>
<path d="M866.5 1093a10 10 0 0 0 10 -10v-100a10 10 0 0 1 10 -10"></path>
<path d="M690.5 973a10 10 0 0 1 10 10v130a10 10 0 0 0 10 10"></path>
<g class="terminal ">
<path d="M710.5 1123h12.75"></path>
<path d="M853.75 1123h12.75"></path>
<rect x="723.25" y="1112" width="130.5" height="22" rx="10" ry="10"></rect>
<text x="788.5" y="1127">"READ IMPORT"</text>
</g>
<path d="M866.5 1123a10 10 0 0 0 10 -10v-130a10 10 0 0 1 10 -10"></path>
<path d="M690.5 973a10 10 0 0 1 10 10v160a10 10 0 0 0 10 10"></path>
<g class="terminal ">
<path d="M710.5 1153h8.5"></path>
<path d="M858 1153h8.5"></path>
<rect x="719" y="1142" width="139" height="22" rx="10" ry="10"></rect>
<text x="788.5" y="1157">"FAILED EARLY"</text>
</g>
<path d="M866.5 1153a10 10 0 0 0 10 -10v-160a10 10 0 0 1 10 -10"></path>
<path d="M690.5 973a10 10 0 0 1 10 10v190a10 10 0 0 0 10 10"></path>
<g class="terminal ">
<path d="M710.5 1183h34"></path>
<path d="M832.5 1183h34"></path>
<rect x="744.5" y="1172" width="88" height="22" rx="10" ry="10"></rect>
<text x="788.5" y="1187">"FAILED"</text>
</g>
<path d="M866.5 1183a10 10 0 0 0 10 -10v-190a10 10 0 0 1 10 -10"></path>
<path d="M690.5 973a10 10 0 0 1 10 10v220a10 10 0 0 0 10 10"></path>
<g class="terminal ">
<path d="M710.5 1213h42.5"></path>
<path d="M824 1213h42.5"></path>
<rect x="753" y="1202" width="71" height="22" rx="10" ry="10"></rect>
<text x="788.5" y="1217">"LOCK"</text>
</g>
<path d="M866.5 1213a10 10 0 0 0 10 -10v-220a10 10 0 0 1 10 -10"></path>
<path d="M690.5 973a10 10 0 0 1 10 10v250a10 10 0 0 0 10 10"></path>
<g class="terminal ">
<path d="M710.5 1243h4.25"></path>
<path d="M862.25 1243h4.25"></path>
<rect x="714.75" y="1232" width="147.5" height="22" rx="10" ry="10"></rect>
<text x="788.5" y="1247">"DETERMINATION"</text>
</g>
<path d="M866.5 1243a10 10 0 0 0 10 -10v-250a10 10 0 0 1 10 -10"></path>
<path d="M690.5 973a10 10 0 0 1 10 10v280a10 10 0 0 0 10 10"></path>
<g class="terminal ">
<path d="M710.5 1273h12.75"></path>
<path d="M853.75 1273h12.75"></path>
<rect x="723.25" y="1262" width="130.5" height="22" rx="10" ry="10"></rect>
<text x="788.5" y="1277">"READ RESULT"</text>
</g>
<path d="M866.5 1273a10 10 0 0 0 10 -10v-280a10 10 0 0 1 10 -10"></path>
<path d="M690.5 973a10 10 0 0 1 10 10v310a10 10 0 0 0 10 10"></path>
<g class="terminal ">
<path d="M710.5 1303h34"></path>
<path d="M832.5 1303h34"></path>
<rect x="744.5" y="1292" width="88" height="22" rx="10" ry="10"></rect>
<text x="788.5" y="1307">"UPDATE"</text>
</g>
<path d="M866.5 1303a10 10 0 0 0 10 -10v-310a10 10 0 0 1 10 -10"></path>
<path d="M690.5 973a10 10 0 0 1 10 10v340a10 10 0 0 0 10 10"></path>
<g class="terminal ">
<path d="M710.5 1333h34"></path>
<path d="M832.5 1333h34"></path>
<rect x="744.5" y="1322" width="88" height="22" rx="10" ry="10"></rect>
<text x="788.5" y="1337">"DELETE"</text>
</g>
<path d="M866.5 1333a10 10 0 0 0 10 -10v-340a10 10 0 0 1 10 -10"></path>
</g>
<g>
<path d="M886.5 973h0"></path>
<path d="M1091 973h0"></path>
<path d="M886.5 973h20"></path>
<g class="non-terminal ">
<path d="M906.5 973h38.25"></path>
<path d="M1032.75 973h38.25"></path>
<rect x="944.75" y="962" width="88" height="22"></rect>
<a xlink:href="#/abap/expression/TypeName"><text x="988.75" y="977">TypeName</text>
</a>
</g>
<path d="M1071 973h20"></path>
<path d="M886.5 973a10 10 0 0 1 10 10v10a10 10 0 0 0 10 10"></path>
<g class="non-terminal ">
<path d="M906.5 1003h0"></path>
<path d="M1071 1003h0"></path>
<rect x="906.5" y="992" width="164.5" height="22"></rect>
<a xlink:href="#/abap/expression/EntityAssociation"><text x="988.75" y="1007">EntityAssociation</text>
</a>
</g>
<path d="M1071 1003a10 10 0 0 0 10 -10v-10a10 10 0 0 1 10 -10"></path>
</g>
</g>
</g>
<path d="M1439 973a10 10 0 0 0 10 -10v-487a10 10 0 0 1 10 -10"></path>
</g>
</g>
<path d="M1459 466a10 10 0 0 0 10 -10v-406a10 10 0 0 1 10 -10"></path>
</g>
<path d="M 1479 40 h 20 m 0 -10 v 20"></path>
</g>
</svg>
