<svg xmlns="http://www.w3.org/2000/svg" xmlns:xlink="http://www.w3.org/1999/xlink" class="railroad-diagram" width="1572.5" height="101" viewBox="0 0 1572.5 101">
<defs>
<style type="text/css"><![CDATA[
path {
stroke-width: 3;
stroke: black;
fill: rgba(0,0,0,0);
}
text {
font: bold 14px monospace;
text-anchor: middle;
}
text.diagram-text {
font-size: 12px;
}
a {
fill: blue;
}
text.diagram-arrow {
font-size: 16px;
}
text.label {
text-anchor: start;
}
text.comment {
font: italic 12px monospace;
}
rect {
stroke-width: 3;
stroke: black;
fill: #BCBCBC;
}
path.diagram-text {
stroke-width: 3;
stroke: black;
fill: #BCBCBC;
cursor: help;
}
]]></style>
</defs>
<g transform="translate(.5 .5)">
<g>
<path d="M20 30v20m0 -10h20"></path>
</g>
<path d="M40 40h10"></path>
<g>
<path d="M50 40h0"></path>
<path d="M1522.5 40h0"></path>
<g class="comment ">
<path d="M50 40h0"></path>
<path d="M88 40h0"></path>
<text x="69" y="45" class="comment">7.93</text>
</g>
<path d="M88 40h10"></path>
<path d="M98 40h10"></path>
<g>
<path d="M108 40h0"></path>
<path d="M1522.5 40h0"></path>
<g class="terminal ">
<path d="M108 40h0"></path>
<path d="M264 40h0"></path>
<rect x="108" y="29" width="156" height="22" rx="10" ry="10"></rect>
<text x="186" y="44">"LOCATE&#95;REGEXPR"</text>
</g>
<path d="M264 40h10"></path>
<path d="M274 40h10"></path>
<g class="terminal ">
<path d="M284 40h0"></path>
<path d="M414.5 40h0"></path>
<rect x="284" y="29" width="130.5" height="22" rx="10" ry="10"></rect>
<text x="349.25" y="44">!"ParenLeftW"</text>
</g>
<path d="M414.5 40h10"></path>
<g>
<path d="M424.5 40h0"></path>
<path d="M584 40h0"></path>
<path d="M424.5 40a10 10 0 0 0 10 -10v0a10 10 0 0 1 10 -10"></path>
<g>
<path d="M444.5 20h119.5"></path>
</g>
<path d="M564 20a10 10 0 0 1 10 10v0a10 10 0 0 0 10 10"></path>
<path d="M424.5 40h20"></path>
<g>
<path d="M444.5 40h0"></path>
<path d="M564 40h0"></path>
<path d="M444.5 40h20"></path>
<g class="terminal ">
<path d="M464.5 40h0"></path>
<path d="M544 40h0"></path>
<rect x="464.5" y="29" width="79.5" height="22" rx="10" ry="10"></rect>
<text x="504.25" y="44">"START"</text>
</g>
<path d="M544 40h20"></path>
<path d="M444.5 40a10 10 0 0 1 10 10v10a10 10 0 0 0 10 10"></path>
<g class="terminal ">
<path d="M464.5 70h0"></path>
<path d="M544 70h0"></path>
<rect x="464.5" y="59" width="79.5" height="22" rx="10" ry="10"></rect>
<text x="504.25" y="74">"AFTER"</text>
</g>
<path d="M544 70a10 10 0 0 0 10 -10v-10a10 10 0 0 1 10 -10"></path>
</g>
<path d="M564 40h20"></path>
</g>
<path d="M584 40h10"></path>
<g class="non-terminal ">
<path d="M594 40h0"></path>
<path d="M758.5 40h0"></path>
<rect x="594" y="29" width="164.5" height="22"></rect>
<a xlink:href="#/abap/expression/SQLRegexprPattern"><text x="676.25" y="44">SQLRegexprPattern</text>
</a>
</g>
<path d="M758.5 40h10"></path>
<g>
<path d="M768.5 40h0"></path>
<path d="M947.5 40h0"></path>
<path d="M768.5 40a10 10 0 0 0 10 -10v0a10 10 0 0 1 10 -10"></path>
<g>
<path d="M788.5 20h139"></path>
</g>
<path d="M927.5 20a10 10 0 0 1 10 10v0a10 10 0 0 0 10 10"></path>
<path d="M768.5 40h20"></path>
<g class="non-terminal ">
<path d="M788.5 40h0"></path>
<path d="M927.5 40h0"></path>
<rect x="788.5" y="29" width="139" height="22"></rect>
<a xlink:href="#/abap/expression/SQLRegexprFrom"><text x="858" y="44">SQLRegexprFrom</text>
</a>
</g>
<path d="M927.5 40h20"></path>
</g>
<g>
<path d="M947.5 40h0"></path>
<path d="M1177.5 40h0"></path>
<path d="M947.5 40a10 10 0 0 0 10 -10v0a10 10 0 0 1 10 -10"></path>
<g>
<path d="M967.5 20h190"></path>
</g>
<path d="M1157.5 20a10 10 0 0 1 10 10v0a10 10 0 0 0 10 10"></path>
<path d="M947.5 40h20"></path>
<g class="non-terminal ">
<path d="M967.5 40h0"></path>
<path d="M1157.5 40h0"></path>
<rect x="967.5" y="29" width="190" height="22"></rect>
<a xlink:href="#/abap/expression/SQLRegexprOccurrence"><text x="1062.5" y="44">SQLRegexprOccurrence</text>
</a>
</g>
<path d="M1157.5 40h20"></path>
</g>
<g>
<path d="M1177.5 40h0"></path>
<path d="M1365 40h0"></path>
<path d="M1177.5 40a10 10 0 0 0 10 -10v0a10 10 0 0 1 10 -10"></path>
<g>
<path d="M1197.5 20h147.5"></path>
</g>
<path d="M1345 20a10 10 0 0 1 10 10v0a10 10 0 0 0 10 10"></path>
<path d="M1177.5 40h20"></path>
<g class="non-terminal ">
<path d="M1197.5 40h0"></path>
<path d="M1345 40h0"></path>
<rect x="1197.5" y="29" width="147.5" height="22"></rect>
<a xlink:href="#/abap/expression/SQLRegexprGroup"><text x="1271.25" y="44">SQLRegexprGroup</text>
</a>
</g>
<path d="M1345 40h20"></path>
</g>
<path d="M1365 40h10"></path>
<g class="terminal ">
<path d="M1375 40h0"></path>
<path d="M1522.5 40h0"></path>
<rect x="1375" y="29" width="147.5" height="22" rx="10" ry="10"></rect>
<text x="1448.75" y="44">!"WParenRightW"</text>
</g>
</g>
</g>
<path d="M1522.5 40h10"></path>
<path d="M 1532.5 40 h 20 m 0 -10 v 20"></path>
</g>
</svg>
