<svg xmlns="http://www.w3.org/2000/svg" xmlns:xlink="http://www.w3.org/1999/xlink" class="railroad-diagram" width="843" height="71" viewBox="0 0 843 71">
<defs>
<style type="text/css"><![CDATA[
path {
stroke-width: 3;
stroke: black;
fill: rgba(0,0,0,0);
}
text {
font: bold 14px monospace;
text-anchor: middle;
}
text.diagram-text {
font-size: 12px;
}
a {
fill: blue;
}
text.diagram-arrow {
font-size: 16px;
}
text.label {
text-anchor: start;
}
text.comment {
font: italic 12px monospace;
}
rect {
stroke-width: 3;
stroke: black;
fill: #BCBCBC;
}
path.diagram-text {
stroke-width: 3;
stroke: black;
fill: #BCBCBC;
cursor: help;
}
]]></style>
</defs>
<g transform="translate(.5 .5)">
<g>
<path d="M20 30v20m0 -10h20"></path>
</g>
<path d="M40 40h10"></path>
<g>
<path d="M50 40h0"></path>
<path d="M793 40h0"></path>
<g class="terminal">
<path d="M50 40h0"></path>
<path d="M121 40h0"></path>
<rect x="50" y="29" width="71" height="22" rx="10" ry="10"></rect>
<text x="85.5" y="44">"WITH"</text>
</g>
<path d="M121 40h10"></path>
<path d="M131 40h10"></path>
<g class="non-terminal">
<path d="M141 40h0"></path>
<path d="M271.5 40h0"></path>
<rect x="141" y="29" width="130.5" height="22"></rect>
<a xlink:href="#/abap/expression/SimpleSource1"><text x="206.25" y="44">SimpleSource1</text>
</a>
</g>
<path d="M271.5 40h10"></path>
<g>
<path d="M281.5 40h0"></path>
<path d="M452 40h0"></path>
<path d="M281.5 40a10 10 0 0 0 10 -10v0a10 10 0 0 1 10 -10"></path>
<g>
<path d="M301.5 20h130.5"></path>
</g>
<path d="M432 20a10 10 0 0 1 10 10v0a10 10 0 0 0 10 10"></path>
<path d="M281.5 40h20"></path>
<g class="non-terminal">
<path d="M301.5 40h0"></path>
<path d="M432 40h0"></path>
<rect x="301.5" y="29" width="130.5" height="22"></rect>
<a xlink:href="#/abap/expression/SimpleSource1"><text x="366.75" y="44">SimpleSource1</text>
</a>
</g>
<path d="M432 40h20"></path>
</g>
<g>
<path d="M452 40h0"></path>
<path d="M622.5 40h0"></path>
<path d="M452 40a10 10 0 0 0 10 -10v0a10 10 0 0 1 10 -10"></path>
<g>
<path d="M472 20h130.5"></path>
</g>
<path d="M602.5 20a10 10 0 0 1 10 10v0a10 10 0 0 0 10 10"></path>
<path d="M452 40h20"></path>
<g class="non-terminal">
<path d="M472 40h0"></path>
<path d="M602.5 40h0"></path>
<rect x="472" y="29" width="130.5" height="22"></rect>
<a xlink:href="#/abap/expression/SimpleSource1"><text x="537.25" y="44">SimpleSource1</text>
</a>
</g>
<path d="M602.5 40h20"></path>
</g>
<g>
<path d="M622.5 40h0"></path>
<path d="M793 40h0"></path>
<path d="M622.5 40a10 10 0 0 0 10 -10v0a10 10 0 0 1 10 -10"></path>
<g>
<path d="M642.5 20h130.5"></path>
</g>
<path d="M773 20a10 10 0 0 1 10 10v0a10 10 0 0 0 10 10"></path>
<path d="M622.5 40h20"></path>
<g class="non-terminal">
<path d="M642.5 40h0"></path>
<path d="M773 40h0"></path>
<rect x="642.5" y="29" width="130.5" height="22"></rect>
<a xlink:href="#/abap/expression/SimpleSource1"><text x="707.75" y="44">SimpleSource1</text>
</a>
</g>
<path d="M773 40h20"></path>
</g>
</g>
<path d="M793 40h10"></path>
<path d="M 803 40 h 20 m 0 -10 v 20"></path>
</g>
</svg>
