<svg xmlns="http://www.w3.org/2000/svg" xmlns:xlink="http://www.w3.org/1999/xlink" class="railroad-diagram" width="643.5" height="71" viewBox="0 0 643.5 71">
<defs>
<style type="text/css"><![CDATA[
path {
stroke-width: 3;
stroke: black;
fill: rgba(0,0,0,0);
}
text {
font: bold 14px monospace;
text-anchor: middle;
}
text.diagram-text {
font-size: 12px;
}
a {
fill: blue;
}
text.diagram-arrow {
font-size: 16px;
}
text.label {
text-anchor: start;
}
text.comment {
font: italic 12px monospace;
}
rect {
stroke-width: 3;
stroke: black;
fill: #BCBCBC;
}
path.diagram-text {
stroke-width: 3;
stroke: black;
fill: #BCBCBC;
cursor: help;
}
]]></style>
</defs>
<g transform="translate(.5 .5)">
<g>
<path d="M20 30v20m0 -10h20"></path>
</g>
<path d="M40 40h10"></path>
<g>
<path d="M50 40h0"></path>
<path d="M593.5 40h0"></path>
<g class="terminal ">
<path d="M50 40h0"></path>
<path d="M231.5 40h0"></path>
<rect x="50" y="29" width="181.5" height="22" rx="10" ry="10"></rect>
<text x="140.75" y="44">"PRIVILEGED ACCESS"</text>
</g>
<path d="M231.5 40h10"></path>
<g>
<path d="M241.5 40h0"></path>
<path d="M593.5 40h0"></path>
<path d="M241.5 40a10 10 0 0 0 10 -10v0a10 10 0 0 1 10 -10"></path>
<g>
<path d="M261.5 20h312"></path>
</g>
<path d="M573.5 20a10 10 0 0 1 10 10v0a10 10 0 0 0 10 10"></path>
<path d="M241.5 40h20"></path>
<g>
<path d="M261.5 40h0"></path>
<path d="M573.5 40h0"></path>
<g class="comment ">
<path d="M261.5 40h0"></path>
<path d="M306.5 40h0"></path>
<text x="284" y="45" class="comment">Cloud</text>
</g>
<path d="M306.5 40h10"></path>
<path d="M316.5 40h10"></path>
<g>
<path d="M326.5 40h0"></path>
<path d="M573.5 40h0"></path>
<g class="terminal ">
<path d="M326.5 40h0"></path>
<path d="M406 40h0"></path>
<rect x="326.5" y="29" width="79.5" height="22" rx="10" ry="10"></rect>
<text x="366.25" y="44">"LEVEL"</text>
</g>
<path d="M406 40h10"></path>
<path d="M416 40h10"></path>
<g class="non-terminal ">
<path d="M426 40h0"></path>
<path d="M573.5 40h0"></path>
<rect x="426" y="29" width="147.5" height="22"></rect>
<a xlink:href="#/abap/expression/SQLSourceSimple"><text x="499.75" y="44">SQLSourceSimple</text>
</a>
</g>
</g>
</g>
<path d="M573.5 40h20"></path>
</g>
</g>
<path d="M593.5 40h10"></path>
<path d="M 603.5 40 h 20 m 0 -10 v 20"></path>
</g>
</svg>
