<svg xmlns="http://www.w3.org/2000/svg" xmlns:xlink="http://www.w3.org/1999/xlink" class="railroad-diagram" width="1213" height="701" viewBox="0 0 1213 701">
<defs>
<style type="text/css"><![CDATA[
path {
stroke-width: 3;
stroke: black;
fill: rgba(0,0,0,0);
}
text {
font: bold 14px monospace;
text-anchor: middle;
}
text.diagram-text {
font-size: 12px;
}
a {
fill: blue;
}
text.diagram-arrow {
font-size: 16px;
}
text.label {
text-anchor: start;
}
text.comment {
font: italic 12px monospace;
}
rect {
stroke-width: 3;
stroke: black;
fill: #BCBCBC;
}
path.diagram-text {
stroke-width: 3;
stroke: black;
fill: #BCBCBC;
cursor: help;
}
]]></style>
</defs>
<g transform="translate(.5 .5)">
<g>
<path d="M20 21v20m0 -10h20"></path>
</g>
<g>
<path d="M40 31h0"></path>
<path d="M1173 31h0"></path>
<path d="M40 31h20"></path>
<g>
<path d="M60 31h0"></path>
<path d="M362.5 31h790.5"></path>
<g>
<path d="M60 31h0"></path>
<path d="M98 31h0"></path>
<text x="79" y="36" class="comment">v754</text>
</g>
<path d="M98 31h10"></path>
<path d="M108 31h10"></path>
<g>
<path d="M118 31h0"></path>
<path d="M362.5 31h0"></path>
<g class="terminal">
<path d="M118 31h0"></path>
<path d="M189 31h0"></path>
<rect x="118" y="20" width="71" height="22" rx="10" ry="10"></rect>
<text x="153.5" y="35">^uuid$</text>
</g>
<path d="M189 31h10"></path>
<path d="M199 31h10"></path>
<g class="terminal">
<path d="M209 31h0"></path>
<path d="M271.5 31h0"></path>
<rect x="209" y="20" width="62.5" height="22" rx="10" ry="10"></rect>
<text x="240.25" y="35">!"( "</text>
</g>
<path d="M271.5 31h10"></path>
<path d="M281.5 31h10"></path>
<g class="terminal">
<path d="M291.5 31h0"></path>
<path d="M362.5 31h0"></path>
<rect x="291.5" y="20" width="71" height="22" rx="10" ry="10"></rect>
<text x="327" y="35">!" ) "</text>
</g>
</g>
</g>
<path d="M1153 31h20"></path>
<path d="M40 31a10 10 0 0 1 10 10v10a10 10 0 0 0 10 10"></path>
<g>
<path d="M60 61h0"></path>
<path d="M558 61h595"></path>
<g>
<path d="M60 61h0"></path>
<path d="M126 61h0"></path>
<text x="93" y="66" class="comment">v740sp05</text>
</g>
<path d="M126 61h10"></path>
<path d="M136 61h10"></path>
<g>
<path d="M146 61h0"></path>
<path d="M558 61h0"></path>
<g class="terminal">
<path d="M146 61h0"></path>
<path d="M208.5 61h0"></path>
<rect x="146" y="50" width="62.5" height="22" rx="10" ry="10"></rect>
<text x="177.25" y="65">^abs$</text>
</g>
<path d="M208.5 61h10"></path>
<path d="M218.5 61h10"></path>
<g class="terminal">
<path d="M228.5 61h0"></path>
<path d="M291 61h0"></path>
<rect x="228.5" y="50" width="62.5" height="22" rx="10" ry="10"></rect>
<text x="259.75" y="65">!"( "</text>
</g>
<path d="M291 61h10"></path>
<path d="M301 61h10"></path>
<g class="non-terminal">
<path d="M311 61h0"></path>
<path d="M467 61h0"></path>
<rect x="311" y="50" width="156" height="22"></rect>
<a xlink:href="#/abap/expression/SQLFunctionInput"><text x="389" y="65">SQLFunctionInput</text>
</a>
</g>
<path d="M467 61h10"></path>
<path d="M477 61h10"></path>
<g class="terminal">
<path d="M487 61h0"></path>
<path d="M558 61h0"></path>
<rect x="487" y="50" width="71" height="22" rx="10" ry="10"></rect>
<text x="522.5" y="65">!" ) "</text>
</g>
</g>
</g>
<path d="M1153 61a10 10 0 0 0 10 -10v-10a10 10 0 0 1 10 -10"></path>
<path d="M40 31a10 10 0 0 1 10 10v40a10 10 0 0 0 10 10"></path>
<g>
<path d="M60 91h0"></path>
<path d="M566.5 91h586.5"></path>
<g>
<path d="M60 91h0"></path>
<path d="M126 91h0"></path>
<text x="93" y="96" class="comment">v740sp05</text>
</g>
<path d="M126 91h10"></path>
<path d="M136 91h10"></path>
<g>
<path d="M146 91h0"></path>
<path d="M566.5 91h0"></path>
<g class="terminal">
<path d="M146 91h0"></path>
<path d="M217 91h0"></path>
<rect x="146" y="80" width="71" height="22" rx="10" ry="10"></rect>
<text x="181.5" y="95">^ceil$</text>
</g>
<path d="M217 91h10"></path>
<path d="M227 91h10"></path>
<g class="terminal">
<path d="M237 91h0"></path>
<path d="M299.5 91h0"></path>
<rect x="237" y="80" width="62.5" height="22" rx="10" ry="10"></rect>
<text x="268.25" y="95">!"( "</text>
</g>
<path d="M299.5 91h10"></path>
<path d="M309.5 91h10"></path>
<g class="non-terminal">
<path d="M319.5 91h0"></path>
<path d="M475.5 91h0"></path>
<rect x="319.5" y="80" width="156" height="22"></rect>
<a xlink:href="#/abap/expression/SQLFunctionInput"><text x="397.5" y="95">SQLFunctionInput</text>
</a>
</g>
<path d="M475.5 91h10"></path>
<path d="M485.5 91h10"></path>
<g class="terminal">
<path d="M495.5 91h0"></path>
<path d="M566.5 91h0"></path>
<rect x="495.5" y="80" width="71" height="22" rx="10" ry="10"></rect>
<text x="531" y="95">!" ) "</text>
</g>
</g>
</g>
<path d="M1153 91a10 10 0 0 0 10 -10v-40a10 10 0 0 1 10 -10"></path>
<path d="M40 31a10 10 0 0 1 10 10v70a10 10 0 0 0 10 10"></path>
<g>
<path d="M60 121h0"></path>
<path d="M575 121h578"></path>
<g>
<path d="M60 121h0"></path>
<path d="M126 121h0"></path>
<text x="93" y="126" class="comment">v740sp05</text>
</g>
<path d="M126 121h10"></path>
<path d="M136 121h10"></path>
<g>
<path d="M146 121h0"></path>
<path d="M575 121h0"></path>
<g class="terminal">
<path d="M146 121h0"></path>
<path d="M225.5 121h0"></path>
<rect x="146" y="110" width="79.5" height="22" rx="10" ry="10"></rect>
<text x="185.75" y="125">^floor$</text>
</g>
<path d="M225.5 121h10"></path>
<path d="M235.5 121h10"></path>
<g class="terminal">
<path d="M245.5 121h0"></path>
<path d="M308 121h0"></path>
<rect x="245.5" y="110" width="62.5" height="22" rx="10" ry="10"></rect>
<text x="276.75" y="125">!"( "</text>
</g>
<path d="M308 121h10"></path>
<path d="M318 121h10"></path>
<g class="non-terminal">
<path d="M328 121h0"></path>
<path d="M484 121h0"></path>
<rect x="328" y="110" width="156" height="22"></rect>
<a xlink:href="#/abap/expression/SQLFunctionInput"><text x="406" y="125">SQLFunctionInput</text>
</a>
</g>
<path d="M484 121h10"></path>
<path d="M494 121h10"></path>
<g class="terminal">
<path d="M504 121h0"></path>
<path d="M575 121h0"></path>
<rect x="504" y="110" width="71" height="22" rx="10" ry="10"></rect>
<text x="539.5" y="125">!" ) "</text>
</g>
</g>
</g>
<path d="M1153 121a10 10 0 0 0 10 -10v-70a10 10 0 0 1 10 -10"></path>
<path d="M40 31a10 10 0 0 1 10 10v100a10 10 0 0 0 10 10"></path>
<g>
<path d="M60 151h0"></path>
<path d="M1153 151h0"></path>
<g>
<path d="M60 151h0"></path>
<path d="M98 151h0"></path>
<text x="79" y="156" class="comment">v750</text>
</g>
<path d="M98 151h10"></path>
<path d="M108 151h10"></path>
<g>
<path d="M118 151h0"></path>
<path d="M1153 151h0"></path>
<g class="terminal">
<path d="M118 151h0"></path>
<path d="M189 151h0"></path>
<rect x="118" y="140" width="71" height="22" rx="10" ry="10"></rect>
<text x="153.5" y="155">^cast$</text>
</g>
<path d="M189 151h10"></path>
<path d="M199 151h10"></path>
<g class="terminal">
<path d="M209 151h0"></path>
<path d="M271.5 151h0"></path>
<rect x="209" y="140" width="62.5" height="22" rx="10" ry="10"></rect>
<text x="240.25" y="155">!"( "</text>
</g>
<path d="M271.5 151h10"></path>
<path d="M281.5 151h10"></path>
<g class="non-terminal">
<path d="M291.5 151h0"></path>
<path d="M447.5 151h0"></path>
<rect x="291.5" y="140" width="156" height="22"></rect>
<a xlink:href="#/abap/expression/SQLFunctionInput"><text x="369.5" y="155">SQLFunctionInput</text>
</a>
</g>
<path d="M447.5 151h10"></path>
<path d="M457.5 151h10"></path>
<g class="terminal">
<path d="M467.5 151h0"></path>
<path d="M521.5 151h0"></path>
<rect x="467.5" y="140" width="54" height="22" rx="10" ry="10"></rect>
<text x="494.5" y="155">"AS"</text>
</g>
<path d="M521.5 151h10"></path>
<g>
<path d="M531.5 151h0"></path>
<path d="M1072 151h0"></path>
<path d="M531.5 151h20"></path>
<g>
<path d="M551.5 151h0"></path>
<path d="M895.5 151h156.5"></path>
<g class="terminal">
<path d="M551.5 151h0"></path>
<path d="M622.5 151h0"></path>
<rect x="551.5" y="140" width="71" height="22" rx="10" ry="10"></rect>
<text x="587" y="155">"CHAR"</text>
</g>
<path d="M622.5 151h10"></path>
<path d="M632.5 151h10"></path>
<g class="terminal">
<path d="M642.5 151h0"></path>
<path d="M705 151h0"></path>
<rect x="642.5" y="140" width="62.5" height="22" rx="10" ry="10"></rect>
<text x="673.75" y="155">!"( "</text>
</g>
<path d="M705 151h10"></path>
<path d="M715 151h10"></path>
<g class="non-terminal">
<path d="M725 151h0"></path>
<path d="M804.5 151h0"></path>
<rect x="725" y="140" width="79.5" height="22"></rect>
<a xlink:href="#/abap/expression/Integer"><text x="764.75" y="155">Integer</text>
</a>
</g>
<path d="M804.5 151h10"></path>
<path d="M814.5 151h10"></path>
<g class="terminal">
<path d="M824.5 151h0"></path>
<path d="M895.5 151h0"></path>
<rect x="824.5" y="140" width="71" height="22" rx="10" ry="10"></rect>
<text x="860" y="155">!" ) "</text>
</g>
</g>
<path d="M1052 151h20"></path>
<path d="M531.5 151a10 10 0 0 1 10 10v10a10 10 0 0 0 10 10"></path>
<g>
<path d="M551.5 181h0"></path>
<path d="M1052 181h0"></path>
<g class="terminal">
<path d="M551.5 181h0"></path>
<path d="M614 181h0"></path>
<rect x="551.5" y="170" width="62.5" height="22" rx="10" ry="10"></rect>
<text x="582.75" y="185">"DEC"</text>
</g>
<path d="M614 181h10"></path>
<path d="M624 181h10"></path>
<g class="terminal">
<path d="M634 181h0"></path>
<path d="M696.5 181h0"></path>
<rect x="634" y="170" width="62.5" height="22" rx="10" ry="10"></rect>
<text x="665.25" y="185">!"( "</text>
</g>
<path d="M696.5 181h10"></path>
<path d="M706.5 181h10"></path>
<g class="non-terminal">
<path d="M716.5 181h0"></path>
<path d="M796 181h0"></path>
<rect x="716.5" y="170" width="79.5" height="22"></rect>
<a xlink:href="#/abap/expression/Integer"><text x="756.25" y="185">Integer</text>
</a>
</g>
<path d="M796 181h10"></path>
<path d="M806 181h10"></path>
<g class="terminal">
<path d="M816 181h0"></path>
<path d="M861.5 181h0"></path>
<rect x="816" y="170" width="45.5" height="22" rx="10" ry="10"></rect>
<text x="838.75" y="185">","</text>
</g>
<path d="M861.5 181h10"></path>
<path d="M871.5 181h10"></path>
<g class="non-terminal">
<path d="M881.5 181h0"></path>
<path d="M961 181h0"></path>
<rect x="881.5" y="170" width="79.5" height="22"></rect>
<a xlink:href="#/abap/expression/Integer"><text x="921.25" y="185">Integer</text>
</a>
</g>
<path d="M961 181h10"></path>
<path d="M971 181h10"></path>
<g class="terminal">
<path d="M981 181h0"></path>
<path d="M1052 181h0"></path>
<rect x="981" y="170" width="71" height="22" rx="10" ry="10"></rect>
<text x="1016.5" y="185">!" ) "</text>
</g>
</g>
<path d="M1052 181a10 10 0 0 0 10 -10v-10a10 10 0 0 1 10 -10"></path>
<path d="M531.5 151a10 10 0 0 1 10 10v40a10 10 0 0 0 10 10"></path>
<g class="terminal">
<path d="M551.5 211h0"></path>
<path d="M622.5 211h429.5"></path>
<rect x="551.5" y="200" width="71" height="22" rx="10" ry="10"></rect>
<text x="587" y="215">"FLTP"</text>
</g>
<path d="M1052 211a10 10 0 0 0 10 -10v-40a10 10 0 0 1 10 -10"></path>
<path d="M531.5 151a10 10 0 0 1 10 10v70a10 10 0 0 0 10 10"></path>
<g class="terminal">
<path d="M551.5 241h0"></path>
<path d="M622.5 241h429.5"></path>
<rect x="551.5" y="230" width="71" height="22" rx="10" ry="10"></rect>
<text x="587" y="245">"NUMC"</text>
</g>
<path d="M1052 241a10 10 0 0 0 10 -10v-70a10 10 0 0 1 10 -10"></path>
<path d="M531.5 151a10 10 0 0 1 10 10v100a10 10 0 0 0 10 10"></path>
<g class="terminal">
<path d="M551.5 271h0"></path>
<path d="M622.5 271h429.5"></path>
<rect x="551.5" y="260" width="71" height="22" rx="10" ry="10"></rect>
<text x="587" y="275">"INT8"</text>
</g>
<path d="M1052 271a10 10 0 0 0 10 -10v-100a10 10 0 0 1 10 -10"></path>
</g>
<path d="M1072 151h10"></path>
<g class="terminal">
<path d="M1082 151h0"></path>
<path d="M1153 151h0"></path>
<rect x="1082" y="140" width="71" height="22" rx="10" ry="10"></rect>
<text x="1117.5" y="155">!" ) "</text>
</g>
</g>
</g>
<path d="M1153 151a10 10 0 0 0 10 -10v-100a10 10 0 0 1 10 -10"></path>
<path d="M40 31a10 10 0 0 1 10 10v250a10 10 0 0 0 10 10"></path>
<g>
<path d="M60 301h0"></path>
<path d="M799.5 301h353.5"></path>
<g>
<path d="M60 301h0"></path>
<path d="M126 301h0"></path>
<text x="93" y="306" class="comment">v740sp05</text>
</g>
<path d="M126 301h10"></path>
<path d="M136 301h10"></path>
<g>
<path d="M146 301h0"></path>
<path d="M799.5 301h0"></path>
<g class="terminal">
<path d="M146 301h0"></path>
<path d="M208.5 301h0"></path>
<rect x="146" y="290" width="62.5" height="22" rx="10" ry="10"></rect>
<text x="177.25" y="305">^div$</text>
</g>
<path d="M208.5 301h10"></path>
<path d="M218.5 301h10"></path>
<g class="terminal">
<path d="M228.5 301h0"></path>
<path d="M291 301h0"></path>
<rect x="228.5" y="290" width="62.5" height="22" rx="10" ry="10"></rect>
<text x="259.75" y="305">!"( "</text>
</g>
<path d="M291 301h10"></path>
<path d="M301 301h10"></path>
<g class="non-terminal">
<path d="M311 301h0"></path>
<path d="M467 301h0"></path>
<rect x="311" y="290" width="156" height="22"></rect>
<a xlink:href="#/abap/expression/SQLFunctionInput"><text x="389" y="305">SQLFunctionInput</text>
</a>
</g>
<path d="M467 301h10"></path>
<path d="M477 301h10"></path>
<g>
<path d="M487 301h0"></path>
<path d="M708.5 301h0"></path>
<g class="terminal">
<path d="M487 301h0"></path>
<path d="M532.5 301h0"></path>
<rect x="487" y="290" width="45.5" height="22" rx="10" ry="10"></rect>
<text x="509.75" y="305">","</text>
</g>
<path d="M532.5 301h10"></path>
<path d="M542.5 301h10"></path>
<g class="non-terminal">
<path d="M552.5 301h0"></path>
<path d="M708.5 301h0"></path>
<rect x="552.5" y="290" width="156" height="22"></rect>
<a xlink:href="#/abap/expression/SQLFunctionInput"><text x="630.5" y="305">SQLFunctionInput</text>
</a>
</g>
</g>
<path d="M708.5 301h10"></path>
<path d="M718.5 301h10"></path>
<g class="terminal">
<path d="M728.5 301h0"></path>
<path d="M799.5 301h0"></path>
<rect x="728.5" y="290" width="71" height="22" rx="10" ry="10"></rect>
<text x="764" y="305">!" ) "</text>
</g>
</g>
</g>
<path d="M1153 301a10 10 0 0 0 10 -10v-250a10 10 0 0 1 10 -10"></path>
<path d="M40 31a10 10 0 0 1 10 10v280a10 10 0 0 0 10 10"></path>
<g>
<path d="M60 331h0"></path>
<path d="M799.5 331h353.5"></path>
<g>
<path d="M60 331h0"></path>
<path d="M126 331h0"></path>
<text x="93" y="336" class="comment">v740sp05</text>
</g>
<path d="M126 331h10"></path>
<path d="M136 331h10"></path>
<g>
<path d="M146 331h0"></path>
<path d="M799.5 331h0"></path>
<g class="terminal">
<path d="M146 331h0"></path>
<path d="M208.5 331h0"></path>
<rect x="146" y="320" width="62.5" height="22" rx="10" ry="10"></rect>
<text x="177.25" y="335">^mod$</text>
</g>
<path d="M208.5 331h10"></path>
<path d="M218.5 331h10"></path>
<g class="terminal">
<path d="M228.5 331h0"></path>
<path d="M291 331h0"></path>
<rect x="228.5" y="320" width="62.5" height="22" rx="10" ry="10"></rect>
<text x="259.75" y="335">!"( "</text>
</g>
<path d="M291 331h10"></path>
<path d="M301 331h10"></path>
<g class="non-terminal">
<path d="M311 331h0"></path>
<path d="M467 331h0"></path>
<rect x="311" y="320" width="156" height="22"></rect>
<a xlink:href="#/abap/expression/SQLFunctionInput"><text x="389" y="335">SQLFunctionInput</text>
</a>
</g>
<path d="M467 331h10"></path>
<path d="M477 331h10"></path>
<g>
<path d="M487 331h0"></path>
<path d="M708.5 331h0"></path>
<g class="terminal">
<path d="M487 331h0"></path>
<path d="M532.5 331h0"></path>
<rect x="487" y="320" width="45.5" height="22" rx="10" ry="10"></rect>
<text x="509.75" y="335">","</text>
</g>
<path d="M532.5 331h10"></path>
<path d="M542.5 331h10"></path>
<g class="non-terminal">
<path d="M552.5 331h0"></path>
<path d="M708.5 331h0"></path>
<rect x="552.5" y="320" width="156" height="22"></rect>
<a xlink:href="#/abap/expression/SQLFunctionInput"><text x="630.5" y="335">SQLFunctionInput</text>
</a>
</g>
</g>
<path d="M708.5 331h10"></path>
<path d="M718.5 331h10"></path>
<g class="terminal">
<path d="M728.5 331h0"></path>
<path d="M799.5 331h0"></path>
<rect x="728.5" y="320" width="71" height="22" rx="10" ry="10"></rect>
<text x="764" y="335">!" ) "</text>
</g>
</g>
</g>
<path d="M1153 331a10 10 0 0 0 10 -10v-280a10 10 0 0 1 10 -10"></path>
<path d="M40 31a10 10 0 0 1 10 10v319a10 10 0 0 0 10 10"></path>
<g>
<path d="M60 370h0"></path>
<path d="M1103.5 370h49.5"></path>
<g>
<path d="M60 370h0"></path>
<path d="M126 370h0"></path>
<text x="93" y="375" class="comment">v740sp05</text>
</g>
<path d="M126 370h10"></path>
<path d="M136 370h10"></path>
<g>
<path d="M146 370h0"></path>
<path d="M1103.5 370h0"></path>
<g class="terminal">
<path d="M146 370h0"></path>
<path d="M251 370h0"></path>
<rect x="146" y="359" width="105" height="22" rx="10" ry="10"></rect>
<text x="198.5" y="374">^coalesce$</text>
</g>
<path d="M251 370h10"></path>
<path d="M261 370h10"></path>
<g class="terminal">
<path d="M271 370h0"></path>
<path d="M333.5 370h0"></path>
<rect x="271" y="359" width="62.5" height="22" rx="10" ry="10"></rect>
<text x="302.25" y="374">!"( "</text>
</g>
<path d="M333.5 370h10"></path>
<path d="M343.5 370h10"></path>
<g class="non-terminal">
<path d="M353.5 370h0"></path>
<path d="M509.5 370h0"></path>
<rect x="353.5" y="359" width="156" height="22"></rect>
<a xlink:href="#/abap/expression/SQLFunctionInput"><text x="431.5" y="374">SQLFunctionInput</text>
</a>
</g>
<path d="M509.5 370h10"></path>
<path d="M519.5 370h10"></path>
<g>
<path d="M529.5 370h0"></path>
<path d="M751 370h0"></path>
<g class="terminal">
<path d="M529.5 370h0"></path>
<path d="M575 370h0"></path>
<rect x="529.5" y="359" width="45.5" height="22" rx="10" ry="10"></rect>
<text x="552.25" y="374">","</text>
</g>
<path d="M575 370h10"></path>
<path d="M585 370h10"></path>
<g class="non-terminal">
<path d="M595 370h0"></path>
<path d="M751 370h0"></path>
<rect x="595" y="359" width="156" height="22"></rect>
<a xlink:href="#/abap/expression/SQLFunctionInput"><text x="673" y="374">SQLFunctionInput</text>
</a>
</g>
</g>
<path d="M751 370h10"></path>
<g>
<path d="M761 370h0"></path>
<path d="M1022.5 370h0"></path>
<path d="M761 370a10 10 0 0 0 10 -10v0a10 10 0 0 1 10 -10"></path>
<g>
<path d="M781 350h221.5"></path>
</g>
<path d="M1002.5 350a10 10 0 0 1 10 10v0a10 10 0 0 0 10 10"></path>
<path d="M761 370h20"></path>
<g>
<path d="M781 370h0"></path>
<path d="M1002.5 370h0"></path>
<g class="terminal">
<path d="M781 370h0"></path>
<path d="M826.5 370h0"></path>
<rect x="781" y="359" width="45.5" height="22" rx="10" ry="10"></rect>
<text x="803.75" y="374">","</text>
</g>
<path d="M826.5 370h10"></path>
<path d="M836.5 370h10"></path>
<g class="non-terminal">
<path d="M846.5 370h0"></path>
<path d="M1002.5 370h0"></path>
<rect x="846.5" y="359" width="156" height="22"></rect>
<a xlink:href="#/abap/expression/SQLFunctionInput"><text x="924.5" y="374">SQLFunctionInput</text>
</a>
</g>
</g>
<path d="M1002.5 370h20"></path>
</g>
<path d="M1022.5 370h10"></path>
<g class="terminal">
<path d="M1032.5 370h0"></path>
<path d="M1103.5 370h0"></path>
<rect x="1032.5" y="359" width="71" height="22" rx="10" ry="10"></rect>
<text x="1068" y="374">!" ) "</text>
</g>
</g>
</g>
<path d="M1153 370a10 10 0 0 0 10 -10v-319a10 10 0 0 1 10 -10"></path>
<path d="M40 31a10 10 0 0 1 10 10v349a10 10 0 0 0 10 10"></path>
<g>
<path d="M60 400h0"></path>
<path d="M797 400h356"></path>
<g>
<path d="M60 400h0"></path>
<path d="M98 400h0"></path>
<text x="79" y="405" class="comment">v750</text>
</g>
<path d="M98 400h10"></path>
<path d="M108 400h10"></path>
<g>
<path d="M118 400h0"></path>
<path d="M797 400h0"></path>
<g class="terminal">
<path d="M118 400h0"></path>
<path d="M206 400h0"></path>
<rect x="118" y="389" width="88" height="22" rx="10" ry="10"></rect>
<text x="162" y="404">^concat$</text>
</g>
<path d="M206 400h10"></path>
<path d="M216 400h10"></path>
<g class="terminal">
<path d="M226 400h0"></path>
<path d="M288.5 400h0"></path>
<rect x="226" y="389" width="62.5" height="22" rx="10" ry="10"></rect>
<text x="257.25" y="404">!"( "</text>
</g>
<path d="M288.5 400h10"></path>
<path d="M298.5 400h10"></path>
<g class="non-terminal">
<path d="M308.5 400h0"></path>
<path d="M464.5 400h0"></path>
<rect x="308.5" y="389" width="156" height="22"></rect>
<a xlink:href="#/abap/expression/SQLFunctionInput"><text x="386.5" y="404">SQLFunctionInput</text>
</a>
</g>
<path d="M464.5 400h10"></path>
<path d="M474.5 400h10"></path>
<g>
<path d="M484.5 400h0"></path>
<path d="M706 400h0"></path>
<g class="terminal">
<path d="M484.5 400h0"></path>
<path d="M530 400h0"></path>
<rect x="484.5" y="389" width="45.5" height="22" rx="10" ry="10"></rect>
<text x="507.25" y="404">","</text>
</g>
<path d="M530 400h10"></path>
<path d="M540 400h10"></path>
<g class="non-terminal">
<path d="M550 400h0"></path>
<path d="M706 400h0"></path>
<rect x="550" y="389" width="156" height="22"></rect>
<a xlink:href="#/abap/expression/SQLFunctionInput"><text x="628" y="404">SQLFunctionInput</text>
</a>
</g>
</g>
<path d="M706 400h10"></path>
<path d="M716 400h10"></path>
<g class="terminal">
<path d="M726 400h0"></path>
<path d="M797 400h0"></path>
<rect x="726" y="389" width="71" height="22" rx="10" ry="10"></rect>
<text x="761.5" y="404">!" ) "</text>
</g>
</g>
</g>
<path d="M1153 400a10 10 0 0 0 10 -10v-349a10 10 0 0 1 10 -10"></path>
<path d="M40 31a10 10 0 0 1 10 10v379a10 10 0 0 0 10 10"></path>
<g>
<path d="M60 430h0"></path>
<path d="M1047 430h106"></path>
<g>
<path d="M60 430h0"></path>
<path d="M98 430h0"></path>
<text x="79" y="435" class="comment">v750</text>
</g>
<path d="M98 430h10"></path>
<path d="M108 430h10"></path>
<g>
<path d="M118 430h0"></path>
<path d="M1047 430h0"></path>
<g class="terminal">
<path d="M118 430h0"></path>
<path d="M214.5 430h0"></path>
<rect x="118" y="419" width="96.5" height="22" rx="10" ry="10"></rect>
<text x="166.25" y="434">^replace$</text>
</g>
<path d="M214.5 430h10"></path>
<path d="M224.5 430h10"></path>
<g class="terminal">
<path d="M234.5 430h0"></path>
<path d="M297 430h0"></path>
<rect x="234.5" y="419" width="62.5" height="22" rx="10" ry="10"></rect>
<text x="265.75" y="434">!"( "</text>
</g>
<path d="M297 430h10"></path>
<path d="M307 430h10"></path>
<g class="non-terminal">
<path d="M317 430h0"></path>
<path d="M473 430h0"></path>
<rect x="317" y="419" width="156" height="22"></rect>
<a xlink:href="#/abap/expression/SQLFunctionInput"><text x="395" y="434">SQLFunctionInput</text>
</a>
</g>
<path d="M473 430h10"></path>
<path d="M483 430h10"></path>
<g>
<path d="M493 430h0"></path>
<path d="M714.5 430h0"></path>
<g class="terminal">
<path d="M493 430h0"></path>
<path d="M538.5 430h0"></path>
<rect x="493" y="419" width="45.5" height="22" rx="10" ry="10"></rect>
<text x="515.75" y="434">","</text>
</g>
<path d="M538.5 430h10"></path>
<path d="M548.5 430h10"></path>
<g class="non-terminal">
<path d="M558.5 430h0"></path>
<path d="M714.5 430h0"></path>
<rect x="558.5" y="419" width="156" height="22"></rect>
<a xlink:href="#/abap/expression/SQLFunctionInput"><text x="636.5" y="434">SQLFunctionInput</text>
</a>
</g>
</g>
<path d="M714.5 430h10"></path>
<path d="M724.5 430h10"></path>
<g>
<path d="M734.5 430h0"></path>
<path d="M956 430h0"></path>
<g class="terminal">
<path d="M734.5 430h0"></path>
<path d="M780 430h0"></path>
<rect x="734.5" y="419" width="45.5" height="22" rx="10" ry="10"></rect>
<text x="757.25" y="434">","</text>
</g>
<path d="M780 430h10"></path>
<path d="M790 430h10"></path>
<g class="non-terminal">
<path d="M800 430h0"></path>
<path d="M956 430h0"></path>
<rect x="800" y="419" width="156" height="22"></rect>
<a xlink:href="#/abap/expression/SQLFunctionInput"><text x="878" y="434">SQLFunctionInput</text>
</a>
</g>
</g>
<path d="M956 430h10"></path>
<path d="M966 430h10"></path>
<g class="terminal">
<path d="M976 430h0"></path>
<path d="M1047 430h0"></path>
<rect x="976" y="419" width="71" height="22" rx="10" ry="10"></rect>
<text x="1011.5" y="434">!" ) "</text>
</g>
</g>
</g>
<path d="M1153 430a10 10 0 0 0 10 -10v-379a10 10 0 0 1 10 -10"></path>
<path d="M40 31a10 10 0 0 1 10 10v409a10 10 0 0 0 10 10"></path>
<g>
<path d="M60 460h0"></path>
<path d="M555.5 460h597.5"></path>
<g>
<path d="M60 460h0"></path>
<path d="M98 460h0"></path>
<text x="79" y="465" class="comment">v750</text>
</g>
<path d="M98 460h10"></path>
<path d="M108 460h10"></path>
<g>
<path d="M118 460h0"></path>
<path d="M555.5 460h0"></path>
<g class="terminal">
<path d="M118 460h0"></path>
<path d="M206 460h0"></path>
<rect x="118" y="449" width="88" height="22" rx="10" ry="10"></rect>
<text x="162" y="464">^length$</text>
</g>
<path d="M206 460h10"></path>
<path d="M216 460h10"></path>
<g class="terminal">
<path d="M226 460h0"></path>
<path d="M288.5 460h0"></path>
<rect x="226" y="449" width="62.5" height="22" rx="10" ry="10"></rect>
<text x="257.25" y="464">!"( "</text>
</g>
<path d="M288.5 460h10"></path>
<path d="M298.5 460h10"></path>
<g class="non-terminal">
<path d="M308.5 460h0"></path>
<path d="M464.5 460h0"></path>
<rect x="308.5" y="449" width="156" height="22"></rect>
<a xlink:href="#/abap/expression/SQLFunctionInput"><text x="386.5" y="464">SQLFunctionInput</text>
</a>
</g>
<path d="M464.5 460h10"></path>
<path d="M474.5 460h10"></path>
<g class="terminal">
<path d="M484.5 460h0"></path>
<path d="M555.5 460h0"></path>
<rect x="484.5" y="449" width="71" height="22" rx="10" ry="10"></rect>
<text x="520" y="464">!" ) "</text>
</g>
</g>
</g>
<path d="M1153 460a10 10 0 0 0 10 -10v-409a10 10 0 0 1 10 -10"></path>
<path d="M40 31a10 10 0 0 1 10 10v439a10 10 0 0 0 10 10"></path>
<g>
<path d="M60 490h0"></path>
<path d="M547 490h606"></path>
<g>
<path d="M60 490h0"></path>
<path d="M98 490h0"></path>
<text x="79" y="495" class="comment">v751</text>
</g>
<path d="M98 490h10"></path>
<path d="M108 490h10"></path>
<g>
<path d="M118 490h0"></path>
<path d="M547 490h0"></path>
<g class="terminal">
<path d="M118 490h0"></path>
<path d="M197.5 490h0"></path>
<rect x="118" y="479" width="79.5" height="22" rx="10" ry="10"></rect>
<text x="157.75" y="494">^lower$</text>
</g>
<path d="M197.5 490h10"></path>
<path d="M207.5 490h10"></path>
<g class="terminal">
<path d="M217.5 490h0"></path>
<path d="M280 490h0"></path>
<rect x="217.5" y="479" width="62.5" height="22" rx="10" ry="10"></rect>
<text x="248.75" y="494">!"( "</text>
</g>
<path d="M280 490h10"></path>
<path d="M290 490h10"></path>
<g class="non-terminal">
<path d="M300 490h0"></path>
<path d="M456 490h0"></path>
<rect x="300" y="479" width="156" height="22"></rect>
<a xlink:href="#/abap/expression/SQLFunctionInput"><text x="378" y="494">SQLFunctionInput</text>
</a>
</g>
<path d="M456 490h10"></path>
<path d="M466 490h10"></path>
<g class="terminal">
<path d="M476 490h0"></path>
<path d="M547 490h0"></path>
<rect x="476" y="479" width="71" height="22" rx="10" ry="10"></rect>
<text x="511.5" y="494">!" ) "</text>
</g>
</g>
</g>
<path d="M1153 490a10 10 0 0 0 10 -10v-439a10 10 0 0 1 10 -10"></path>
<path d="M40 31a10 10 0 0 1 10 10v469a10 10 0 0 0 10 10"></path>
<g>
<path d="M60 520h0"></path>
<path d="M547 520h606"></path>
<g>
<path d="M60 520h0"></path>
<path d="M98 520h0"></path>
<text x="79" y="525" class="comment">v751</text>
</g>
<path d="M98 520h10"></path>
<path d="M108 520h10"></path>
<g>
<path d="M118 520h0"></path>
<path d="M547 520h0"></path>
<g class="terminal">
<path d="M118 520h0"></path>
<path d="M197.5 520h0"></path>
<rect x="118" y="509" width="79.5" height="22" rx="10" ry="10"></rect>
<text x="157.75" y="524">^upper$</text>
</g>
<path d="M197.5 520h10"></path>
<path d="M207.5 520h10"></path>
<g class="terminal">
<path d="M217.5 520h0"></path>
<path d="M280 520h0"></path>
<rect x="217.5" y="509" width="62.5" height="22" rx="10" ry="10"></rect>
<text x="248.75" y="524">!"( "</text>
</g>
<path d="M280 520h10"></path>
<path d="M290 520h10"></path>
<g class="non-terminal">
<path d="M300 520h0"></path>
<path d="M456 520h0"></path>
<rect x="300" y="509" width="156" height="22"></rect>
<a xlink:href="#/abap/expression/SQLFunctionInput"><text x="378" y="524">SQLFunctionInput</text>
</a>
</g>
<path d="M456 520h10"></path>
<path d="M466 520h10"></path>
<g class="terminal">
<path d="M476 520h0"></path>
<path d="M547 520h0"></path>
<rect x="476" y="509" width="71" height="22" rx="10" ry="10"></rect>
<text x="511.5" y="524">!" ) "</text>
</g>
</g>
</g>
<path d="M1153 520a10 10 0 0 0 10 -10v-469a10 10 0 0 1 10 -10"></path>
<path d="M40 31a10 10 0 0 1 10 10v499a10 10 0 0 0 10 10"></path>
<g>
<path d="M60 550h0"></path>
<path d="M788.5 550h364.5"></path>
<g>
<path d="M60 550h0"></path>
<path d="M98 550h0"></path>
<text x="79" y="555" class="comment">v750</text>
</g>
<path d="M98 550h10"></path>
<path d="M108 550h10"></path>
<g>
<path d="M118 550h0"></path>
<path d="M788.5 550h0"></path>
<g class="terminal">
<path d="M118 550h0"></path>
<path d="M197.5 550h0"></path>
<rect x="118" y="539" width="79.5" height="22" rx="10" ry="10"></rect>
<text x="157.75" y="554">^round$</text>
</g>
<path d="M197.5 550h10"></path>
<path d="M207.5 550h10"></path>
<g class="terminal">
<path d="M217.5 550h0"></path>
<path d="M280 550h0"></path>
<rect x="217.5" y="539" width="62.5" height="22" rx="10" ry="10"></rect>
<text x="248.75" y="554">!"( "</text>
</g>
<path d="M280 550h10"></path>
<path d="M290 550h10"></path>
<g class="non-terminal">
<path d="M300 550h0"></path>
<path d="M456 550h0"></path>
<rect x="300" y="539" width="156" height="22"></rect>
<a xlink:href="#/abap/expression/SQLFunctionInput"><text x="378" y="554">SQLFunctionInput</text>
</a>
</g>
<path d="M456 550h10"></path>
<path d="M466 550h10"></path>
<g>
<path d="M476 550h0"></path>
<path d="M697.5 550h0"></path>
<g class="terminal">
<path d="M476 550h0"></path>
<path d="M521.5 550h0"></path>
<rect x="476" y="539" width="45.5" height="22" rx="10" ry="10"></rect>
<text x="498.75" y="554">","</text>
</g>
<path d="M521.5 550h10"></path>
<path d="M531.5 550h10"></path>
<g class="non-terminal">
<path d="M541.5 550h0"></path>
<path d="M697.5 550h0"></path>
<rect x="541.5" y="539" width="156" height="22"></rect>
<a xlink:href="#/abap/expression/SQLFunctionInput"><text x="619.5" y="554">SQLFunctionInput</text>
</a>
</g>
</g>
<path d="M697.5 550h10"></path>
<path d="M707.5 550h10"></path>
<g class="terminal">
<path d="M717.5 550h0"></path>
<path d="M788.5 550h0"></path>
<rect x="717.5" y="539" width="71" height="22" rx="10" ry="10"></rect>
<text x="753" y="554">!" ) "</text>
</g>
</g>
</g>
<path d="M1153 550a10 10 0 0 0 10 -10v-499a10 10 0 0 1 10 -10"></path>
<path d="M40 31a10 10 0 0 1 10 10v529a10 10 0 0 0 10 10"></path>
<g>
<path d="M60 580h0"></path>
<path d="M1132 580h21"></path>
<g>
<path d="M60 580h0"></path>
<path d="M98 580h0"></path>
<text x="79" y="585" class="comment">v751</text>
</g>
<path d="M98 580h10"></path>
<path d="M108 580h10"></path>
<g>
<path d="M118 580h0"></path>
<path d="M1132 580h0"></path>
<g class="terminal">
<path d="M118 580h0"></path>
<path d="M299.5 580h0"></path>
<rect x="118" y="569" width="181.5" height="22" rx="10" ry="10"></rect>
<text x="208.75" y="584">^concat&#95;with&#95;space$</text>
</g>
<path d="M299.5 580h10"></path>
<path d="M309.5 580h10"></path>
<g class="terminal">
<path d="M319.5 580h0"></path>
<path d="M382 580h0"></path>
<rect x="319.5" y="569" width="62.5" height="22" rx="10" ry="10"></rect>
<text x="350.75" y="584">!"( "</text>
</g>
<path d="M382 580h10"></path>
<path d="M392 580h10"></path>
<g class="non-terminal">
<path d="M402 580h0"></path>
<path d="M558 580h0"></path>
<rect x="402" y="569" width="156" height="22"></rect>
<a xlink:href="#/abap/expression/SQLFunctionInput"><text x="480" y="584">SQLFunctionInput</text>
</a>
</g>
<path d="M558 580h10"></path>
<path d="M568 580h10"></path>
<g>
<path d="M578 580h0"></path>
<path d="M799.5 580h0"></path>
<g class="terminal">
<path d="M578 580h0"></path>
<path d="M623.5 580h0"></path>
<rect x="578" y="569" width="45.5" height="22" rx="10" ry="10"></rect>
<text x="600.75" y="584">","</text>
</g>
<path d="M623.5 580h10"></path>
<path d="M633.5 580h10"></path>
<g class="non-terminal">
<path d="M643.5 580h0"></path>
<path d="M799.5 580h0"></path>
<rect x="643.5" y="569" width="156" height="22"></rect>
<a xlink:href="#/abap/expression/SQLFunctionInput"><text x="721.5" y="584">SQLFunctionInput</text>
</a>
</g>
</g>
<path d="M799.5 580h10"></path>
<path d="M809.5 580h10"></path>
<g>
<path d="M819.5 580h0"></path>
<path d="M1041 580h0"></path>
<g class="terminal">
<path d="M819.5 580h0"></path>
<path d="M865 580h0"></path>
<rect x="819.5" y="569" width="45.5" height="22" rx="10" ry="10"></rect>
<text x="842.25" y="584">","</text>
</g>
<path d="M865 580h10"></path>
<path d="M875 580h10"></path>
<g class="non-terminal">
<path d="M885 580h0"></path>
<path d="M1041 580h0"></path>
<rect x="885" y="569" width="156" height="22"></rect>
<a xlink:href="#/abap/expression/SQLFunctionInput"><text x="963" y="584">SQLFunctionInput</text>
</a>
</g>
</g>
<path d="M1041 580h10"></path>
<path d="M1051 580h10"></path>
<g class="terminal">
<path d="M1061 580h0"></path>
<path d="M1132 580h0"></path>
<rect x="1061" y="569" width="71" height="22" rx="10" ry="10"></rect>
<text x="1096.5" y="584">!" ) "</text>
</g>
</g>
</g>
<path d="M1153 580a10 10 0 0 0 10 -10v-529a10 10 0 0 1 10 -10"></path>
<path d="M40 31a10 10 0 0 1 10 10v559a10 10 0 0 0 10 10"></path>
<g>
<path d="M60 610h0"></path>
<path d="M788.5 610h364.5"></path>
<g>
<path d="M60 610h0"></path>
<path d="M98 610h0"></path>
<text x="79" y="615" class="comment">v750</text>
</g>
<path d="M98 610h10"></path>
<path d="M108 610h10"></path>
<g>
<path d="M118 610h0"></path>
<path d="M788.5 610h0"></path>
<g class="terminal">
<path d="M118 610h0"></path>
<path d="M197.5 610h0"></path>
<rect x="118" y="599" width="79.5" height="22" rx="10" ry="10"></rect>
<text x="157.75" y="614">^ltrim$</text>
</g>
<path d="M197.5 610h10"></path>
<path d="M207.5 610h10"></path>
<g class="terminal">
<path d="M217.5 610h0"></path>
<path d="M280 610h0"></path>
<rect x="217.5" y="599" width="62.5" height="22" rx="10" ry="10"></rect>
<text x="248.75" y="614">!"( "</text>
</g>
<path d="M280 610h10"></path>
<path d="M290 610h10"></path>
<g class="non-terminal">
<path d="M300 610h0"></path>
<path d="M456 610h0"></path>
<rect x="300" y="599" width="156" height="22"></rect>
<a xlink:href="#/abap/expression/SQLFunctionInput"><text x="378" y="614">SQLFunctionInput</text>
</a>
</g>
<path d="M456 610h10"></path>
<path d="M466 610h10"></path>
<g>
<path d="M476 610h0"></path>
<path d="M697.5 610h0"></path>
<g class="terminal">
<path d="M476 610h0"></path>
<path d="M521.5 610h0"></path>
<rect x="476" y="599" width="45.5" height="22" rx="10" ry="10"></rect>
<text x="498.75" y="614">","</text>
</g>
<path d="M521.5 610h10"></path>
<path d="M531.5 610h10"></path>
<g class="non-terminal">
<path d="M541.5 610h0"></path>
<path d="M697.5 610h0"></path>
<rect x="541.5" y="599" width="156" height="22"></rect>
<a xlink:href="#/abap/expression/SQLFunctionInput"><text x="619.5" y="614">SQLFunctionInput</text>
</a>
</g>
</g>
<path d="M697.5 610h10"></path>
<path d="M707.5 610h10"></path>
<g class="terminal">
<path d="M717.5 610h0"></path>
<path d="M788.5 610h0"></path>
<rect x="717.5" y="599" width="71" height="22" rx="10" ry="10"></rect>
<text x="753" y="614">!" ) "</text>
</g>
</g>
</g>
<path d="M1153 610a10 10 0 0 0 10 -10v-559a10 10 0 0 1 10 -10"></path>
<path d="M40 31a10 10 0 0 1 10 10v589a10 10 0 0 0 10 10"></path>
<g>
<path d="M60 640h0"></path>
<path d="M788.5 640h364.5"></path>
<g>
<path d="M60 640h0"></path>
<path d="M98 640h0"></path>
<text x="79" y="645" class="comment">v750</text>
</g>
<path d="M98 640h10"></path>
<path d="M108 640h10"></path>
<g>
<path d="M118 640h0"></path>
<path d="M788.5 640h0"></path>
<g class="terminal">
<path d="M118 640h0"></path>
<path d="M197.5 640h0"></path>
<rect x="118" y="629" width="79.5" height="22" rx="10" ry="10"></rect>
<text x="157.75" y="644">^rtrim$</text>
</g>
<path d="M197.5 640h10"></path>
<path d="M207.5 640h10"></path>
<g class="terminal">
<path d="M217.5 640h0"></path>
<path d="M280 640h0"></path>
<rect x="217.5" y="629" width="62.5" height="22" rx="10" ry="10"></rect>
<text x="248.75" y="644">!"( "</text>
</g>
<path d="M280 640h10"></path>
<path d="M290 640h10"></path>
<g class="non-terminal">
<path d="M300 640h0"></path>
<path d="M456 640h0"></path>
<rect x="300" y="629" width="156" height="22"></rect>
<a xlink:href="#/abap/expression/SQLFunctionInput"><text x="378" y="644">SQLFunctionInput</text>
</a>
</g>
<path d="M456 640h10"></path>
<path d="M466 640h10"></path>
<g>
<path d="M476 640h0"></path>
<path d="M697.5 640h0"></path>
<g class="terminal">
<path d="M476 640h0"></path>
<path d="M521.5 640h0"></path>
<rect x="476" y="629" width="45.5" height="22" rx="10" ry="10"></rect>
<text x="498.75" y="644">","</text>
</g>
<path d="M521.5 640h10"></path>
<path d="M531.5 640h10"></path>
<g class="non-terminal">
<path d="M541.5 640h0"></path>
<path d="M697.5 640h0"></path>
<rect x="541.5" y="629" width="156" height="22"></rect>
<a xlink:href="#/abap/expression/SQLFunctionInput"><text x="619.5" y="644">SQLFunctionInput</text>
</a>
</g>
</g>
<path d="M697.5 640h10"></path>
<path d="M707.5 640h10"></path>
<g class="terminal">
<path d="M717.5 640h0"></path>
<path d="M788.5 640h0"></path>
<rect x="717.5" y="629" width="71" height="22" rx="10" ry="10"></rect>
<text x="753" y="644">!" ) "</text>
</g>
</g>
</g>
<path d="M1153 640a10 10 0 0 0 10 -10v-589a10 10 0 0 1 10 -10"></path>
<path d="M40 31a10 10 0 0 1 10 10v619a10 10 0 0 0 10 10"></path>
<g>
<path d="M60 670h0"></path>
<path d="M1064 670h89"></path>
<g>
<path d="M60 670h0"></path>
<path d="M98 670h0"></path>
<text x="79" y="675" class="comment">v750</text>
</g>
<path d="M98 670h10"></path>
<path d="M108 670h10"></path>
<g>
<path d="M118 670h0"></path>
<path d="M1064 670h0"></path>
<g class="terminal">
<path d="M118 670h0"></path>
<path d="M231.5 670h0"></path>
<rect x="118" y="659" width="113.5" height="22" rx="10" ry="10"></rect>
<text x="174.75" y="674">^substring$</text>
</g>
<path d="M231.5 670h10"></path>
<path d="M241.5 670h10"></path>
<g class="terminal">
<path d="M251.5 670h0"></path>
<path d="M314 670h0"></path>
<rect x="251.5" y="659" width="62.5" height="22" rx="10" ry="10"></rect>
<text x="282.75" y="674">!"( "</text>
</g>
<path d="M314 670h10"></path>
<path d="M324 670h10"></path>
<g class="non-terminal">
<path d="M334 670h0"></path>
<path d="M490 670h0"></path>
<rect x="334" y="659" width="156" height="22"></rect>
<a xlink:href="#/abap/expression/SQLFunctionInput"><text x="412" y="674">SQLFunctionInput</text>
</a>
</g>
<path d="M490 670h10"></path>
<path d="M500 670h10"></path>
<g>
<path d="M510 670h0"></path>
<path d="M731.5 670h0"></path>
<g class="terminal">
<path d="M510 670h0"></path>
<path d="M555.5 670h0"></path>
<rect x="510" y="659" width="45.5" height="22" rx="10" ry="10"></rect>
<text x="532.75" y="674">","</text>
</g>
<path d="M555.5 670h10"></path>
<path d="M565.5 670h10"></path>
<g class="non-terminal">
<path d="M575.5 670h0"></path>
<path d="M731.5 670h0"></path>
<rect x="575.5" y="659" width="156" height="22"></rect>
<a xlink:href="#/abap/expression/SQLFunctionInput"><text x="653.5" y="674">SQLFunctionInput</text>
</a>
</g>
</g>
<path d="M731.5 670h10"></path>
<path d="M741.5 670h10"></path>
<g>
<path d="M751.5 670h0"></path>
<path d="M973 670h0"></path>
<g class="terminal">
<path d="M751.5 670h0"></path>
<path d="M797 670h0"></path>
<rect x="751.5" y="659" width="45.5" height="22" rx="10" ry="10"></rect>
<text x="774.25" y="674">","</text>
</g>
<path d="M797 670h10"></path>
<path d="M807 670h10"></path>
<g class="non-terminal">
<path d="M817 670h0"></path>
<path d="M973 670h0"></path>
<rect x="817" y="659" width="156" height="22"></rect>
<a xlink:href="#/abap/expression/SQLFunctionInput"><text x="895" y="674">SQLFunctionInput</text>
</a>
</g>
</g>
<path d="M973 670h10"></path>
<path d="M983 670h10"></path>
<g class="terminal">
<path d="M993 670h0"></path>
<path d="M1064 670h0"></path>
<rect x="993" y="659" width="71" height="22" rx="10" ry="10"></rect>
<text x="1028.5" y="674">!" ) "</text>
</g>
</g>
</g>
<path d="M1153 670a10 10 0 0 0 10 -10v-619a10 10 0 0 1 10 -10"></path>
</g>
<path d="M 1173 31 h 20 m 0 -10 v 20"></path>
</g>
</svg>
