<svg xmlns="http://www.w3.org/2000/svg" xmlns:xlink="http://www.w3.org/1999/xlink" class="railroad-diagram" width="1042.5" height="230" viewBox="0 0 1042.5 230">
<defs>
<style type="text/css"><![CDATA[
path {
stroke-width: 3;
stroke: black;
fill: rgba(0,0,0,0);
}
text {
font: bold 14px monospace;
text-anchor: middle;
}
text.diagram-text {
font-size: 12px;
}
a {
fill: blue;
}
text.diagram-arrow {
font-size: 16px;
}
text.label {
text-anchor: start;
}
text.comment {
font: italic 12px monospace;
}
rect {
stroke-width: 3;
stroke: black;
fill: #BCBCBC;
}
path.diagram-text {
stroke-width: 3;
stroke: black;
fill: #BCBCBC;
cursor: help;
}
]]></style>
</defs>
<g transform="translate(.5 .5)">
<g>
<path d="M20 30v20m0 -10h20"></path>
</g>
<path d="M40 40h10"></path>
<g>
<path d="M50 40h0"></path>
<path d="M992.5 40h0"></path>
<g>
<path d="M50 40h0"></path>
<path d="M144 40h0"></path>
<path d="M50 40a10 10 0 0 0 10 -10v0a10 10 0 0 1 10 -10"></path>
<g>
<path d="M70 20h54"></path>
</g>
<path d="M124 20a10 10 0 0 1 10 10v0a10 10 0 0 0 10 10"></path>
<path d="M50 40h20"></path>
<g class="terminal">
<path d="M70 40h0"></path>
<path d="M124 40h0"></path>
<rect x="70" y="29" width="54" height="22" rx="10" ry="10"></rect>
<text x="97" y="44">"AT"</text>
</g>
<path d="M124 40h20"></path>
</g>
<g>
<path d="M144 40h0"></path>
<path d="M992.5 40h0"></path>
<path d="M144 40h20"></path>
<g>
<path d="M164 40h0"></path>
<path d="M698 40h274.5"></path>
<g class="terminal">
<path d="M164 40h0"></path>
<path d="M294.5 40h0"></path>
<rect x="164" y="29" width="130.5" height="22" rx="10" ry="10"></rect>
<text x="229.25" y="44">!"WParenLeft"</text>
</g>
<path d="M294.5 40h10"></path>
<path d="M304.5 40h10"></path>
<g>
<path d="M314.5 40h0"></path>
<path d="M698 40h0"></path>
<g>
<path d="M314.5 40h0"></path>
<path d="M519 40h0"></path>
<path d="M314.5 40h20"></path>
<g class="non-terminal">
<path d="M334.5 40h0"></path>
<path d="M499 40h0"></path>
<rect x="334.5" y="29" width="164.5" height="22"></rect>
<a xlink:href="#/abap/expression/SimpleFieldChain2"><text x="416.75" y="44">SimpleFieldChain2</text>
</a>
</g>
<path d="M499 40h20"></path>
<path d="M314.5 40a10 10 0 0 1 10 10v10a10 10 0 0 0 10 10"></path>
<g class="terminal">
<path d="M334.5 70h0"></path>
<path d="M414 70h85"></path>
<rect x="334.5" y="59" width="79.5" height="22" rx="10" ry="10"></rect>
<text x="374.25" y="74">^&#91;\d&#93;+$</text>
</g>
<path d="M499 70a10 10 0 0 0 10 -10v-10a10 10 0 0 1 10 -10"></path>
<path d="M314.5 40a10 10 0 0 1 10 10v40a10 10 0 0 0 10 10"></path>
<g class="terminal">
<path d="M334.5 100h0"></path>
<path d="M388.5 100h110.5"></path>
<rect x="334.5" y="89" width="54" height="22" rx="10" ry="10"></rect>
<text x="361.5" y="104">^\&#42;$</text>
</g>
<path d="M499 100a10 10 0 0 0 10 -10v-40a10 10 0 0 1 10 -10"></path>
</g>
<g>
<path d="M519 40h0"></path>
<path d="M698 40h0"></path>
<path d="M519 40h20"></path>
<g class="terminal">
<path d="M539 40h0"></path>
<path d="M678 40h0"></path>
<rect x="539" y="29" width="139" height="22" rx="10" ry="10"></rect>
<text x="608.5" y="44">!"ParenRightW"</text>
</g>
<path d="M678 40h20"></path>
<path d="M519 40a10 10 0 0 1 10 10v10a10 10 0 0 0 10 10"></path>
<g class="terminal">
<path d="M539 70h0"></path>
<path d="M669.5 70h8.5"></path>
<rect x="539" y="59" width="130.5" height="22" rx="10" ry="10"></rect>
<text x="604.25" y="74">!"ParenRight"</text>
</g>
<path d="M678 70a10 10 0 0 0 10 -10v-10a10 10 0 0 1 10 -10"></path>
</g>
</g>
</g>
<path d="M972.5 40h20"></path>
<path d="M144 40a10 10 0 0 1 10 10v79a10 10 0 0 0 10 10"></path>
<g>
<path d="M164 139h0"></path>
<path d="M972.5 139h0"></path>
<g>
<path d="M164 139h0"></path>
<path d="M368.5 139h0"></path>
<path d="M164 139h20"></path>
<g class="non-terminal">
<path d="M184 139h0"></path>
<path d="M348.5 139h0"></path>
<rect x="184" y="128" width="164.5" height="22"></rect>
<a xlink:href="#/abap/expression/SimpleFieldChain2"><text x="266.25" y="143">SimpleFieldChain2</text>
</a>
</g>
<path d="M348.5 139h20"></path>
<path d="M164 139a10 10 0 0 1 10 10v10a10 10 0 0 0 10 10"></path>
<g class="terminal">
<path d="M184 169h0"></path>
<path d="M306 169h42.5"></path>
<rect x="184" y="158" width="122" height="22" rx="10" ry="10"></rect>
<text x="245" y="173">^\/?&#91;\w\d&#93;+$</text>
</g>
<path d="M348.5 169a10 10 0 0 0 10 -10v-10a10 10 0 0 1 10 -10"></path>
<path d="M164 139a10 10 0 0 1 10 10v40a10 10 0 0 0 10 10"></path>
<g class="terminal">
<path d="M184 199h0"></path>
<path d="M229.5 199h119"></path>
<rect x="184" y="188" width="45.5" height="22" rx="10" ry="10"></rect>
<text x="206.75" y="203">"/"</text>
</g>
<path d="M348.5 199a10 10 0 0 0 10 -10v-40a10 10 0 0 1 10 -10"></path>
</g>
<g>
<path d="M368.5 139h0"></path>
<path d="M972.5 139h0"></path>
<path d="M368.5 139a10 10 0 0 0 10 -10v0a10 10 0 0 1 10 -10"></path>
<g>
<path d="M388.5 119h564"></path>
</g>
<path d="M952.5 119a10 10 0 0 1 10 10v0a10 10 0 0 0 10 10"></path>
<path d="M368.5 139h20"></path>
<g>
<path d="M388.5 139h0"></path>
<path d="M952.5 139h0"></path>
<g>
<path d="M388.5 139h0"></path>
<path d="M559 139h0"></path>
<path d="M388.5 139h20"></path>
<g class="terminal">
<path d="M408.5 139h0"></path>
<path d="M539 139h0"></path>
<rect x="408.5" y="128" width="130.5" height="22" rx="10" ry="10"></rect>
<text x="473.75" y="143">!"WParenLeft"</text>
</g>
<path d="M539 139h20"></path>
<path d="M388.5 139a10 10 0 0 1 10 10v10a10 10 0 0 0 10 10"></path>
<g class="terminal">
<path d="M408.5 169h0"></path>
<path d="M530.5 169h8.5"></path>
<rect x="408.5" y="158" width="122" height="22" rx="10" ry="10"></rect>
<text x="469.5" y="173">!"ParenLeft"</text>
</g>
<path d="M539 169a10 10 0 0 0 10 -10v-10a10 10 0 0 1 10 -10"></path>
</g>
<path d="M559 139h10"></path>
<g>
<path d="M569 139h0"></path>
<path d="M952.5 139h0"></path>
<g>
<path d="M569 139h0"></path>
<path d="M773.5 139h0"></path>
<path d="M569 139h20"></path>
<g class="non-terminal">
<path d="M589 139h0"></path>
<path d="M753.5 139h0"></path>
<rect x="589" y="128" width="164.5" height="22"></rect>
<a xlink:href="#/abap/expression/SimpleFieldChain2"><text x="671.25" y="143">SimpleFieldChain2</text>
</a>
</g>
<path d="M753.5 139h20"></path>
<path d="M569 139a10 10 0 0 1 10 10v10a10 10 0 0 0 10 10"></path>
<g class="terminal">
<path d="M589 169h0"></path>
<path d="M668.5 169h85"></path>
<rect x="589" y="158" width="79.5" height="22" rx="10" ry="10"></rect>
<text x="628.75" y="173">^&#91;\d&#93;+$</text>
</g>
<path d="M753.5 169a10 10 0 0 0 10 -10v-10a10 10 0 0 1 10 -10"></path>
<path d="M569 139a10 10 0 0 1 10 10v40a10 10 0 0 0 10 10"></path>
<g class="terminal">
<path d="M589 199h0"></path>
<path d="M643 199h110.5"></path>
<rect x="589" y="188" width="54" height="22" rx="10" ry="10"></rect>
<text x="616" y="203">^\&#42;$</text>
</g>
<path d="M753.5 199a10 10 0 0 0 10 -10v-40a10 10 0 0 1 10 -10"></path>
</g>
<g>
<path d="M773.5 139h0"></path>
<path d="M952.5 139h0"></path>
<path d="M773.5 139h20"></path>
<g class="terminal">
<path d="M793.5 139h0"></path>
<path d="M932.5 139h0"></path>
<rect x="793.5" y="128" width="139" height="22" rx="10" ry="10"></rect>
<text x="863" y="143">!"ParenRightW"</text>
</g>
<path d="M932.5 139h20"></path>
<path d="M773.5 139a10 10 0 0 1 10 10v10a10 10 0 0 0 10 10"></path>
<g class="terminal">
<path d="M793.5 169h0"></path>
<path d="M924 169h8.5"></path>
<rect x="793.5" y="158" width="130.5" height="22" rx="10" ry="10"></rect>
<text x="858.75" y="173">!"ParenRight"</text>
</g>
<path d="M932.5 169a10 10 0 0 0 10 -10v-10a10 10 0 0 1 10 -10"></path>
</g>
</g>
</g>
<path d="M952.5 139h20"></path>
</g>
</g>
<path d="M972.5 139a10 10 0 0 0 10 -10v-79a10 10 0 0 1 10 -10"></path>
</g>
</g>
<path d="M992.5 40h10"></path>
<path d="M 1002.5 40 h 20 m 0 -10 v 20"></path>
</g>
</svg>
