<svg xmlns="http://www.w3.org/2000/svg" xmlns:xlink="http://www.w3.org/1999/xlink" class="railroad-diagram" width="1634" height="398" viewBox="0 0 1634 398">
<defs>
<style type="text/css"><![CDATA[
path {
stroke-width: 3;
stroke: black;
fill: rgba(0,0,0,0);
}
text {
font: bold 14px monospace;
text-anchor: middle;
}
text.diagram-text {
font-size: 12px;
}
a {
fill: blue;
}
text.diagram-arrow {
font-size: 16px;
}
text.label {
text-anchor: start;
}
text.comment {
font: italic 12px monospace;
}
rect {
stroke-width: 3;
stroke: black;
fill: #BCBCBC;
}
path.diagram-text {
stroke-width: 3;
stroke: black;
fill: #BCBCBC;
cursor: help;
}
]]></style>
</defs>
<g transform="translate(.5 .5)">
<g>
<path d="M20 21v20m0 -10h20"></path>
</g>
<g>
<path d="M40 31h0"></path>
<path d="M1594 31h0"></path>
<path d="M40 31h20"></path>
<g>
<path d="M60 31h0"></path>
<path d="M370 31h1204"></path>
<g class="terminal">
<path d="M60 31h0"></path>
<path d="M148 31h0"></path>
<rect x="60" y="20" width="88" height="22" rx="10" ry="10"></rect>
<text x="104" y="35">"EXISTS"</text>
</g>
<path d="M148 31h10"></path>
<path d="M158 31h10"></path>
<g>
<path d="M168 31h0"></path>
<path d="M370 31h0"></path>
<g class="terminal">
<path d="M168 31h0"></path>
<path d="M213.5 31h0"></path>
<rect x="168" y="20" width="45.5" height="22" rx="10" ry="10"></rect>
<text x="190.75" y="35">"("</text>
</g>
<path d="M213.5 31h10"></path>
<path d="M223.5 31h10"></path>
<g class="non-terminal">
<path d="M233.5 31h0"></path>
<path d="M304.5 31h0"></path>
<rect x="233.5" y="20" width="71" height="22"></rect>
<a xlink:href="#/abap/expression/Select"><text x="269" y="35">Select</text>
</a>
</g>
<path d="M304.5 31h10"></path>
<path d="M314.5 31h10"></path>
<g class="terminal">
<path d="M324.5 31h0"></path>
<path d="M370 31h0"></path>
<rect x="324.5" y="20" width="45.5" height="22" rx="10" ry="10"></rect>
<text x="347.25" y="35">")"</text>
</g>
</g>
</g>
<path d="M1574 31h20"></path>
<path d="M40 31a10 10 0 0 1 10 10v10a10 10 0 0 0 10 10"></path>
<g class="non-terminal">
<path d="M60 61h0"></path>
<path d="M139.5 61h1434.5"></path>
<rect x="60" y="50" width="79.5" height="22"></rect>
<a xlink:href="#/abap/expression/Dynamic"><text x="99.75" y="65">Dynamic</text>
</a>
</g>
<path d="M1574 61a10 10 0 0 0 10 -10v-10a10 10 0 0 1 10 -10"></path>
<path d="M40 31a10 10 0 0 1 10 10v49a10 10 0 0 0 10 10"></path>
<g>
<path d="M60 100h0"></path>
<path d="M1574 100h0"></path>
<g>
<path d="M60 100h0"></path>
<path d="M787 100h0"></path>
<path d="M60 100h20"></path>
<g class="non-terminal">
<path d="M80 100h0"></path>
<path d="M193.5 100h573.5"></path>
<rect x="80" y="89" width="113.5" height="22"></rect>
<a xlink:href="#/abap/expression/SQLFunction"><text x="136.75" y="104">SQLFunction</text>
</a>
</g>
<path d="M767 100h20"></path>
<path d="M60 100a10 10 0 0 1 10 10v10a10 10 0 0 0 10 10"></path>
<g class="non-terminal">
<path d="M80 130h0"></path>
<path d="M219 130h548"></path>
<rect x="80" y="119" width="139" height="22"></rect>
<a xlink:href="#/abap/expression/ConstantString"><text x="149.5" y="134">ConstantString</text>
</a>
</g>
<path d="M767 130a10 10 0 0 0 10 -10v-10a10 10 0 0 1 10 -10"></path>
<path d="M60 100a10 10 0 0 1 10 10v49a10 10 0 0 0 10 10"></path>
<g>
<path d="M80 169h0"></path>
<path d="M668.5 169h98.5"></path>
<g>
<path d="M80 169h0"></path>
<path d="M242 169h0"></path>
<path d="M80 169h20"></path>
<g class="non-terminal">
<path d="M100 169h0"></path>
<path d="M179.5 169h42.5"></path>
<rect x="100" y="158" width="79.5" height="22"></rect>
<a xlink:href="#/abap/expression/SQLPath"><text x="139.75" y="173">SQLPath</text>
</a>
</g>
<path d="M222 169h20"></path>
<path d="M80 169a10 10 0 0 1 10 10v10a10 10 0 0 0 10 10"></path>
<g class="non-terminal">
<path d="M100 199h0"></path>
<path d="M222 199h0"></path>
<rect x="100" y="188" width="122" height="22"></rect>
<a xlink:href="#/abap/expression/SQLFieldName"><text x="161" y="203">SQLFieldName</text>
</a>
</g>
<path d="M222 199a10 10 0 0 0 10 -10v-10a10 10 0 0 1 10 -10"></path>
</g>
<g>
<path d="M242 169h0"></path>
<path d="M668.5 169h0"></path>
<path d="M242 169a10 10 0 0 0 10 -10v0a10 10 0 0 1 10 -10"></path>
<g>
<path d="M262 149h386.5"></path>
</g>
<path d="M648.5 149a10 10 0 0 1 10 10v0a10 10 0 0 0 10 10"></path>
<path d="M242 169h20"></path>
<g>
<path d="M262 169h0"></path>
<path d="M648.5 169h0"></path>
<g>
<path d="M262 169h0"></path>
<path d="M391 169h0"></path>
<text x="326.5" y="174" class="comment">v750 or open-abap</text>
</g>
<path d="M391 169h10"></path>
<path d="M401 169h10"></path>
<g>
<path d="M411 169h0"></path>
<path d="M648.5 169h0"></path>
<path d="M411 169h10"></path>
<g>
<path d="M421 169h0"></path>
<path d="M638.5 169h0"></path>
<g>
<path d="M421 169h0"></path>
<path d="M506.5 169h0"></path>
<path d="M421 169h20"></path>
<g class="terminal">
<path d="M441 169h0"></path>
<path d="M486.5 169h0"></path>
<rect x="441" y="158" width="45.5" height="22" rx="10" ry="10"></rect>
<text x="463.75" y="173">"+"</text>
</g>
<path d="M486.5 169h20"></path>
<path d="M421 169a10 10 0 0 1 10 10v10a10 10 0 0 0 10 10"></path>
<g class="terminal">
<path d="M441 199h0"></path>
<path d="M486.5 199h0"></path>
<rect x="441" y="188" width="45.5" height="22" rx="10" ry="10"></rect>
<text x="463.75" y="203">"-"</text>
</g>
<path d="M486.5 199a10 10 0 0 0 10 -10v-10a10 10 0 0 1 10 -10"></path>
<path d="M421 169a10 10 0 0 1 10 10v40a10 10 0 0 0 10 10"></path>
<g class="terminal">
<path d="M441 229h0"></path>
<path d="M486.5 229h0"></path>
<rect x="441" y="218" width="45.5" height="22" rx="10" ry="10"></rect>
<text x="463.75" y="233">"&#42;"</text>
</g>
<path d="M486.5 229a10 10 0 0 0 10 -10v-40a10 10 0 0 1 10 -10"></path>
<path d="M421 169a10 10 0 0 1 10 10v70a10 10 0 0 0 10 10"></path>
<g class="terminal">
<path d="M441 259h0"></path>
<path d="M486.5 259h0"></path>
<rect x="441" y="248" width="45.5" height="22" rx="10" ry="10"></rect>
<text x="463.75" y="263">"/"</text>
</g>
<path d="M486.5 259a10 10 0 0 0 10 -10v-70a10 10 0 0 1 10 -10"></path>
</g>
<path d="M506.5 169h10"></path>
<g class="non-terminal">
<path d="M516.5 169h0"></path>
<path d="M638.5 169h0"></path>
<rect x="516.5" y="158" width="122" height="22"></rect>
<a xlink:href="#/abap/expression/SQLFieldName"><text x="577.5" y="173">SQLFieldName</text>
</a>
</g>
</g>
<path d="M638.5 169h10"></path>
<path d="M421 169a10 10 0 0 0 -10 10v89a10 10 0 0 0 10 10"></path>
<g>
<path d="M421 278h217.5"></path>
</g>
<path d="M638.5 278a10 10 0 0 0 10 -10v-89a10 10 0 0 0 -10 -10"></path>
</g>
</g>
<path d="M648.5 169h20"></path>
</g>
</g>
<path d="M767 169a10 10 0 0 0 10 -10v-49a10 10 0 0 1 10 -10"></path>
<path d="M60 100a10 10 0 0 1 10 10v177a10 10 0 0 0 10 10"></path>
<g>
<path d="M80 297h0"></path>
<path d="M767 297h0"></path>
<g>
<path d="M80 297h0"></path>
<path d="M237 297h0"></path>
<text x="158.5" y="302" class="comment">v740sp05 or open-abap</text>
</g>
<path d="M237 297h10"></path>
<path d="M247 297h10"></path>
<g>
<path d="M257 297h0"></path>
<path d="M767 297h0"></path>
<g class="terminal">
<path d="M257 297h0"></path>
<path d="M328 297h0"></path>
<rect x="257" y="286" width="71" height="22" rx="10" ry="10"></rect>
<text x="292.5" y="301">!"WAt"</text>
</g>
<path d="M328 297h10"></path>
<g>
<path d="M338 297h0"></path>
<path d="M767 297h0"></path>
<path d="M338 297h20"></path>
<g class="non-terminal">
<path d="M358 297h0"></path>
<path d="M488.5 297h258.5"></path>
<rect x="358" y="286" width="130.5" height="22"></rect>
<a xlink:href="#/abap/expression/SimpleSource3"><text x="423.25" y="301">SimpleSource3</text>
</a>
</g>
<path d="M747 297h20"></path>
<path d="M338 297a10 10 0 0 1 10 10v10a10 10 0 0 0 10 10"></path>
<g>
<path d="M358 327h0"></path>
<path d="M747 327h0"></path>
<g class="terminal">
<path d="M358 327h0"></path>
<path d="M488.5 327h0"></path>
<rect x="358" y="316" width="130.5" height="22" rx="10" ry="10"></rect>
<text x="423.25" y="331">!"ParenLeftW"</text>
</g>
<path d="M488.5 327h10"></path>
<path d="M498.5 327h10"></path>
<g class="non-terminal">
<path d="M508.5 327h0"></path>
<path d="M579.5 327h0"></path>
<rect x="508.5" y="316" width="71" height="22"></rect>
<a xlink:href="#/abap/expression/Source"><text x="544" y="331">Source</text>
</a>
</g>
<path d="M579.5 327h10"></path>
<path d="M589.5 327h10"></path>
<g class="terminal">
<path d="M599.5 327h0"></path>
<path d="M747 327h0"></path>
<rect x="599.5" y="316" width="147.5" height="22" rx="10" ry="10"></rect>
<text x="673.25" y="331">!"WParenRightW"</text>
</g>
</g>
<path d="M747 327a10 10 0 0 0 10 -10v-10a10 10 0 0 1 10 -10"></path>
</g>
</g>
</g>
<path d="M767 297a10 10 0 0 0 10 -10v-177a10 10 0 0 1 10 -10"></path>
</g>
<g>
<path d="M787 100h0"></path>
<path d="M1574 100h0"></path>
<path d="M787 100h20"></path>
<g>
<path d="M807 100h0"></path>
<path d="M1554 100h0"></path>
<g class="non-terminal">
<path d="M807 100h0"></path>
<path d="M980 100h0"></path>
<rect x="807" y="89" width="173" height="22"></rect>
<a xlink:href="#/abap/expression/SQLCompareOperator"><text x="893.5" y="104">SQLCompareOperator</text>
</a>
</g>
<path d="M980 100h10"></path>
<g>
<path d="M990 100h0"></path>
<path d="M1554 100h0"></path>
<path d="M990 100h20"></path>
<g>
<path d="M1010 100h0"></path>
<path d="M1534 100h0"></path>
<g>
<path d="M1010 100h0"></path>
<path d="M1161 100h0"></path>
<path d="M1010 100a10 10 0 0 0 10 -10v0a10 10 0 0 1 10 -10"></path>
<g>
<path d="M1030 80h111"></path>
</g>
<path d="M1141 80a10 10 0 0 1 10 10v0a10 10 0 0 0 10 10"></path>
<path d="M1010 100h20"></path>
<g>
<path d="M1030 100h0"></path>
<path d="M1141 100h0"></path>
<path d="M1030 100h20"></path>
<g class="terminal">
<path d="M1050 100h0"></path>
<path d="M1112.5 100h8.5"></path>
<rect x="1050" y="89" width="62.5" height="22" rx="10" ry="10"></rect>
<text x="1081.25" y="104">"ALL"</text>
</g>
<path d="M1121 100h20"></path>
<path d="M1030 100a10 10 0 0 1 10 10v10a10 10 0 0 0 10 10"></path>
<g class="terminal">
<path d="M1050 130h0"></path>
<path d="M1112.5 130h8.5"></path>
<rect x="1050" y="119" width="62.5" height="22" rx="10" ry="10"></rect>
<text x="1081.25" y="134">"ANY"</text>
</g>
<path d="M1121 130a10 10 0 0 0 10 -10v-10a10 10 0 0 1 10 -10"></path>
<path d="M1030 100a10 10 0 0 1 10 10v40a10 10 0 0 0 10 10"></path>
<g class="terminal">
<path d="M1050 160h0"></path>
<path d="M1121 160h0"></path>
<rect x="1050" y="149" width="71" height="22" rx="10" ry="10"></rect>
<text x="1085.5" y="164">"SOME"</text>
</g>
<path d="M1121 160a10 10 0 0 0 10 -10v-40a10 10 0 0 1 10 -10"></path>
</g>
<path d="M1141 100h20"></path>
</g>
<g>
<path d="M1161 100h0"></path>
<path d="M1534 100h0"></path>
<path d="M1161 100h20"></path>
<g>
<path d="M1181 100h0"></path>
<path d="M1383 100h131"></path>
<g class="terminal">
<path d="M1181 100h0"></path>
<path d="M1226.5 100h0"></path>
<rect x="1181" y="89" width="45.5" height="22" rx="10" ry="10"></rect>
<text x="1203.75" y="104">"("</text>
</g>
<path d="M1226.5 100h10"></path>
<path d="M1236.5 100h10"></path>
<g class="non-terminal">
<path d="M1246.5 100h0"></path>
<path d="M1317.5 100h0"></path>
<rect x="1246.5" y="89" width="71" height="22"></rect>
<a xlink:href="#/abap/expression/Select"><text x="1282" y="104">Select</text>
</a>
</g>
<path d="M1317.5 100h10"></path>
<path d="M1327.5 100h10"></path>
<g class="terminal">
<path d="M1337.5 100h0"></path>
<path d="M1383 100h0"></path>
<rect x="1337.5" y="89" width="45.5" height="22" rx="10" ry="10"></rect>
<text x="1360.25" y="104">")"</text>
</g>
</g>
<path d="M1514 100h20"></path>
<path d="M1161 100a10 10 0 0 1 10 10v10a10 10 0 0 0 10 10"></path>
<g>
<path d="M1181 130h0"></path>
<path d="M1514 130h0"></path>
<g class="terminal">
<path d="M1181 130h0"></path>
<path d="M1226.5 130h0"></path>
<rect x="1181" y="119" width="45.5" height="22" rx="10" ry="10"></rect>
<text x="1203.75" y="134">"("</text>
</g>
<path d="M1226.5 130h10"></path>
<path d="M1236.5 130h10"></path>
<g class="terminal">
<path d="M1246.5 130h0"></path>
<path d="M1292 130h0"></path>
<rect x="1246.5" y="119" width="45.5" height="22" rx="10" ry="10"></rect>
<text x="1269.25" y="134">"("</text>
</g>
<path d="M1292 130h10"></path>
<path d="M1302 130h10"></path>
<g class="non-terminal">
<path d="M1312 130h0"></path>
<path d="M1383 130h0"></path>
<rect x="1312" y="119" width="71" height="22"></rect>
<a xlink:href="#/abap/expression/Select"><text x="1347.5" y="134">Select</text>
</a>
</g>
<path d="M1383 130h10"></path>
<path d="M1393 130h10"></path>
<g class="terminal">
<path d="M1403 130h0"></path>
<path d="M1448.5 130h0"></path>
<rect x="1403" y="119" width="45.5" height="22" rx="10" ry="10"></rect>
<text x="1425.75" y="134">")"</text>
</g>
<path d="M1448.5 130h10"></path>
<path d="M1458.5 130h10"></path>
<g class="terminal">
<path d="M1468.5 130h0"></path>
<path d="M1514 130h0"></path>
<rect x="1468.5" y="119" width="45.5" height="22" rx="10" ry="10"></rect>
<text x="1491.25" y="134">")"</text>
</g>
</g>
<path d="M1514 130a10 10 0 0 0 10 -10v-10a10 10 0 0 1 10 -10"></path>
</g>
</g>
<path d="M1534 100h20"></path>
<path d="M990 100a10 10 0 0 1 10 10v70a10 10 0 0 0 10 10"></path>
<g class="non-terminal">
<path d="M1010 190h0"></path>
<path d="M1106.5 190h427.5"></path>
<rect x="1010" y="179" width="96.5" height="22"></rect>
<a xlink:href="#/abap/expression/SQLSource"><text x="1058.25" y="194">SQLSource</text>
</a>
</g>
<path d="M1534 190a10 10 0 0 0 10 -10v-70a10 10 0 0 1 10 -10"></path>
</g>
</g>
<path d="M1554 100h20"></path>
<path d="M787 100a10 10 0 0 1 10 10v109a10 10 0 0 0 10 10"></path>
<g>
<path d="M807 229h0"></path>
<path d="M1391.5 229h162.5"></path>
<g>
<path d="M807 229h0"></path>
<path d="M909.5 229h0"></path>
<path d="M807 229a10 10 0 0 0 10 -10v0a10 10 0 0 1 10 -10"></path>
<g>
<path d="M827 209h62.5"></path>
</g>
<path d="M889.5 209a10 10 0 0 1 10 10v0a10 10 0 0 0 10 10"></path>
<path d="M807 229h20"></path>
<g class="terminal">
<path d="M827 229h0"></path>
<path d="M889.5 229h0"></path>
<rect x="827" y="218" width="62.5" height="22" rx="10" ry="10"></rect>
<text x="858.25" y="233">"NOT"</text>
</g>
<path d="M889.5 229h20"></path>
</g>
<g>
<path d="M909.5 229h0"></path>
<path d="M1391.5 229h0"></path>
<path d="M909.5 229h20"></path>
<g class="non-terminal">
<path d="M929.5 229h0"></path>
<path d="M992 229h379.5"></path>
<rect x="929.5" y="218" width="62.5" height="22"></rect>
<a xlink:href="#/abap/expression/SQLIn"><text x="960.75" y="233">SQLIn</text>
</a>
</g>
<path d="M1371.5 229h20"></path>
<path d="M909.5 229a10 10 0 0 1 10 10v19a10 10 0 0 0 10 10"></path>
<g>
<path d="M929.5 268h0"></path>
<path d="M1371.5 268h0"></path>
<g class="terminal">
<path d="M929.5 268h0"></path>
<path d="M1000.5 268h0"></path>
<rect x="929.5" y="257" width="71" height="22" rx="10" ry="10"></rect>
<text x="965" y="272">"LIKE"</text>
</g>
<path d="M1000.5 268h10"></path>
<path d="M1010.5 268h10"></path>
<g class="non-terminal">
<path d="M1020.5 268h0"></path>
<path d="M1117 268h0"></path>
<rect x="1020.5" y="257" width="96.5" height="22"></rect>
<a xlink:href="#/abap/expression/SQLSource"><text x="1068.75" y="272">SQLSource</text>
</a>
</g>
<path d="M1117 268h10"></path>
<g>
<path d="M1127 268h0"></path>
<path d="M1371.5 268h0"></path>
<path d="M1127 268a10 10 0 0 0 10 -10v0a10 10 0 0 1 10 -10"></path>
<g>
<path d="M1147 248h204.5"></path>
</g>
<path d="M1351.5 248a10 10 0 0 1 10 10v0a10 10 0 0 0 10 10"></path>
<path d="M1127 268h20"></path>
<g>
<path d="M1147 268h0"></path>
<path d="M1351.5 268h0"></path>
<g class="terminal">
<path d="M1147 268h0"></path>
<path d="M1235 268h0"></path>
<rect x="1147" y="257" width="88" height="22" rx="10" ry="10"></rect>
<text x="1191" y="272">"ESCAPE"</text>
</g>
<path d="M1235 268h10"></path>
<path d="M1245 268h10"></path>
<g class="non-terminal">
<path d="M1255 268h0"></path>
<path d="M1351.5 268h0"></path>
<rect x="1255" y="257" width="96.5" height="22"></rect>
<a xlink:href="#/abap/expression/SQLSource"><text x="1303.25" y="272">SQLSource</text>
</a>
</g>
</g>
<path d="M1351.5 268h20"></path>
</g>
</g>
<path d="M1371.5 268a10 10 0 0 0 10 -10v-19a10 10 0 0 1 10 -10"></path>
<path d="M909.5 229a10 10 0 0 1 10 10v49a10 10 0 0 0 10 10"></path>
<g>
<path d="M929.5 298h0"></path>
<path d="M1341.5 298h30"></path>
<g class="terminal">
<path d="M929.5 298h0"></path>
<path d="M1026 298h0"></path>
<rect x="929.5" y="287" width="96.5" height="22" rx="10" ry="10"></rect>
<text x="977.75" y="302">"BETWEEN"</text>
</g>
<path d="M1026 298h10"></path>
<path d="M1036 298h10"></path>
<g class="non-terminal">
<path d="M1046 298h0"></path>
<path d="M1142.5 298h0"></path>
<rect x="1046" y="287" width="96.5" height="22"></rect>
<a xlink:href="#/abap/expression/SQLSource"><text x="1094.25" y="302">SQLSource</text>
</a>
</g>
<path d="M1142.5 298h10"></path>
<path d="M1152.5 298h10"></path>
<g class="terminal">
<path d="M1162.5 298h0"></path>
<path d="M1225 298h0"></path>
<rect x="1162.5" y="287" width="62.5" height="22" rx="10" ry="10"></rect>
<text x="1193.75" y="302">"AND"</text>
</g>
<path d="M1225 298h10"></path>
<path d="M1235 298h10"></path>
<g class="non-terminal">
<path d="M1245 298h0"></path>
<path d="M1341.5 298h0"></path>
<rect x="1245" y="287" width="96.5" height="22"></rect>
<a xlink:href="#/abap/expression/SQLSource"><text x="1293.25" y="302">SQLSource</text>
</a>
</g>
</g>
<path d="M1371.5 298a10 10 0 0 0 10 -10v-49a10 10 0 0 1 10 -10"></path>
</g>
</g>
<path d="M1554 229a10 10 0 0 0 10 -10v-109a10 10 0 0 1 10 -10"></path>
<path d="M787 100a10 10 0 0 1 10 10v217a10 10 0 0 0 10 10"></path>
<g>
<path d="M807 337h0"></path>
<path d="M1168 337h386"></path>
<g class="terminal">
<path d="M807 337h0"></path>
<path d="M861 337h0"></path>
<rect x="807" y="326" width="54" height="22" rx="10" ry="10"></rect>
<text x="834" y="341">"IS"</text>
</g>
<path d="M861 337h10"></path>
<g>
<path d="M871 337h0"></path>
<path d="M973.5 337h0"></path>
<path d="M871 337a10 10 0 0 0 10 -10v0a10 10 0 0 1 10 -10"></path>
<g>
<path d="M891 317h62.5"></path>
</g>
<path d="M953.5 317a10 10 0 0 1 10 10v0a10 10 0 0 0 10 10"></path>
<path d="M871 337h20"></path>
<g class="terminal">
<path d="M891 337h0"></path>
<path d="M953.5 337h0"></path>
<rect x="891" y="326" width="62.5" height="22" rx="10" ry="10"></rect>
<text x="922.25" y="341">"NOT"</text>
</g>
<path d="M953.5 337h20"></path>
</g>
<g>
<path d="M973.5 337h0"></path>
<path d="M1168 337h0"></path>
<path d="M973.5 337h20"></path>
<g class="terminal">
<path d="M993.5 337h0"></path>
<path d="M1064.5 337h83.5"></path>
<rect x="993.5" y="326" width="71" height="22" rx="10" ry="10"></rect>
<text x="1029" y="341">"NULL"</text>
</g>
<path d="M1148 337h20"></path>
<path d="M973.5 337a10 10 0 0 1 10 10v10a10 10 0 0 0 10 10"></path>
<g>
<path d="M993.5 367h0"></path>
<path d="M1148 367h0"></path>
<g>
<path d="M993.5 367h0"></path>
<path d="M1031.5 367h0"></path>
<text x="1012.5" y="372" class="comment">v753</text>
</g>
<path d="M1031.5 367h10"></path>
<path d="M1041.5 367h10"></path>
<g class="terminal">
<path d="M1051.5 367h0"></path>
<path d="M1148 367h0"></path>
<rect x="1051.5" y="356" width="96.5" height="22" rx="10" ry="10"></rect>
<text x="1099.75" y="371">"INITIAL"</text>
</g>
</g>
<path d="M1148 367a10 10 0 0 0 10 -10v-10a10 10 0 0 1 10 -10"></path>
</g>
</g>
<path d="M1554 337a10 10 0 0 0 10 -10v-217a10 10 0 0 1 10 -10"></path>
</g>
</g>
<path d="M1574 100a10 10 0 0 0 10 -10v-49a10 10 0 0 1 10 -10"></path>
</g>
<path d="M 1594 31 h 20 m 0 -10 v 20"></path>
</g>
</svg>
