<svg xmlns="http://www.w3.org/2000/svg" xmlns:xlink="http://www.w3.org/1999/xlink" class="railroad-diagram" width="873" height="110" viewBox="0 0 873 110">
<defs>
<style type="text/css"><![CDATA[
path {
stroke-width: 3;
stroke: black;
fill: rgba(0,0,0,0);
}
text {
font: bold 14px monospace;
text-anchor: middle;
}
text.diagram-text {
font-size: 12px;
}
a {
fill: blue;
}
text.diagram-arrow {
font-size: 16px;
}
text.label {
text-anchor: start;
}
text.comment {
font: italic 12px monospace;
}
rect {
stroke-width: 3;
stroke: black;
fill: #BCBCBC;
}
path.diagram-text {
stroke-width: 3;
stroke: black;
fill: #BCBCBC;
cursor: help;
}
]]></style>
</defs>
<g transform="translate(.5 .5)">
<g>
<path d="M20 30v20m0 -10h20"></path>
</g>
<path d="M40 40h10"></path>
<g>
<path d="M50 40h0"></path>
<path d="M823 40h0"></path>
<g class="terminal ">
<path d="M50 40h0"></path>
<path d="M121 40h0"></path>
<rect x="50" y="29" width="71" height="22" rx="10" ry="10"></rect>
<text x="85.5" y="44">"WITH"</text>
</g>
<path d="M121 40h10"></path>
<g>
<path d="M131 40h0"></path>
<path d="M823 40h0"></path>
<path d="M131 40h20"></path>
<g>
<path d="M151 40h119"></path>
<path d="M684 40h119"></path>
<g class="non-terminal ">
<path d="M270 40h0"></path>
<path d="M341 40h0"></path>
<rect x="270" y="29" width="71" height="22"></rect>
<a xlink:href="#/abap/expression/Source"><text x="305.5" y="44">Source</text>
</a>
</g>
<path d="M341 40h10"></path>
<g>
<path d="M351 40h0"></path>
<path d="M462 40h0"></path>
<path d="M351 40a10 10 0 0 0 10 -10v0a10 10 0 0 1 10 -10"></path>
<g>
<path d="M371 20h71"></path>
</g>
<path d="M442 20a10 10 0 0 1 10 10v0a10 10 0 0 0 10 10"></path>
<path d="M351 40h20"></path>
<g class="non-terminal ">
<path d="M371 40h0"></path>
<path d="M442 40h0"></path>
<rect x="371" y="29" width="71" height="22"></rect>
<a xlink:href="#/abap/expression/Source"><text x="406.5" y="44">Source</text>
</a>
</g>
<path d="M442 40h20"></path>
</g>
<g>
<path d="M462 40h0"></path>
<path d="M573 40h0"></path>
<path d="M462 40a10 10 0 0 0 10 -10v0a10 10 0 0 1 10 -10"></path>
<g>
<path d="M482 20h71"></path>
</g>
<path d="M553 20a10 10 0 0 1 10 10v0a10 10 0 0 0 10 10"></path>
<path d="M462 40h20"></path>
<g class="non-terminal ">
<path d="M482 40h0"></path>
<path d="M553 40h0"></path>
<rect x="482" y="29" width="71" height="22"></rect>
<a xlink:href="#/abap/expression/Source"><text x="517.5" y="44">Source</text>
</a>
</g>
<path d="M553 40h20"></path>
</g>
<g>
<path d="M573 40h0"></path>
<path d="M684 40h0"></path>
<path d="M573 40a10 10 0 0 0 10 -10v0a10 10 0 0 1 10 -10"></path>
<g>
<path d="M593 20h71"></path>
</g>
<path d="M664 20a10 10 0 0 1 10 10v0a10 10 0 0 0 10 10"></path>
<path d="M573 40h20"></path>
<g class="non-terminal ">
<path d="M593 40h0"></path>
<path d="M664 40h0"></path>
<rect x="593" y="29" width="71" height="22"></rect>
<a xlink:href="#/abap/expression/Source"><text x="628.5" y="44">Source</text>
</a>
</g>
<path d="M664 40h20"></path>
</g>
</g>
<path d="M803 40h20"></path>
<path d="M131 40a10 10 0 0 1 10 10v19a10 10 0 0 0 10 10"></path>
<g>
<path d="M151 79h0"></path>
<path d="M803 79h0"></path>
<g class="non-terminal ">
<path d="M151 79h0"></path>
<path d="M281.5 79h0"></path>
<rect x="151" y="68" width="130.5" height="22"></rect>
<a xlink:href="#/abap/expression/SimpleSource1"><text x="216.25" y="83">SimpleSource1</text>
</a>
</g>
<path d="M281.5 79h10"></path>
<g>
<path d="M291.5 79h0"></path>
<path d="M462 79h0"></path>
<path d="M291.5 79a10 10 0 0 0 10 -10v0a10 10 0 0 1 10 -10"></path>
<g>
<path d="M311.5 59h130.5"></path>
</g>
<path d="M442 59a10 10 0 0 1 10 10v0a10 10 0 0 0 10 10"></path>
<path d="M291.5 79h20"></path>
<g class="non-terminal ">
<path d="M311.5 79h0"></path>
<path d="M442 79h0"></path>
<rect x="311.5" y="68" width="130.5" height="22"></rect>
<a xlink:href="#/abap/expression/SimpleSource1"><text x="376.75" y="83">SimpleSource1</text>
</a>
</g>
<path d="M442 79h20"></path>
</g>
<g>
<path d="M462 79h0"></path>
<path d="M632.5 79h0"></path>
<path d="M462 79a10 10 0 0 0 10 -10v0a10 10 0 0 1 10 -10"></path>
<g>
<path d="M482 59h130.5"></path>
</g>
<path d="M612.5 59a10 10 0 0 1 10 10v0a10 10 0 0 0 10 10"></path>
<path d="M462 79h20"></path>
<g class="non-terminal ">
<path d="M482 79h0"></path>
<path d="M612.5 79h0"></path>
<rect x="482" y="68" width="130.5" height="22"></rect>
<a xlink:href="#/abap/expression/SimpleSource1"><text x="547.25" y="83">SimpleSource1</text>
</a>
</g>
<path d="M612.5 79h20"></path>
</g>
<g>
<path d="M632.5 79h0"></path>
<path d="M803 79h0"></path>
<path d="M632.5 79a10 10 0 0 0 10 -10v0a10 10 0 0 1 10 -10"></path>
<g>
<path d="M652.5 59h130.5"></path>
</g>
<path d="M783 59a10 10 0 0 1 10 10v0a10 10 0 0 0 10 10"></path>
<path d="M632.5 79h20"></path>
<g class="non-terminal ">
<path d="M652.5 79h0"></path>
<path d="M783 79h0"></path>
<rect x="652.5" y="68" width="130.5" height="22"></rect>
<a xlink:href="#/abap/expression/SimpleSource1"><text x="717.75" y="83">SimpleSource1</text>
</a>
</g>
<path d="M783 79h20"></path>
</g>
</g>
<path d="M803 79a10 10 0 0 0 10 -10v-19a10 10 0 0 1 10 -10"></path>
</g>
</g>
<path d="M823 40h10"></path>
<path d="M 833 40 h 20 m 0 -10 v 20"></path>
</g>
</svg>
