<svg xmlns="http://www.w3.org/2000/svg" xmlns:xlink="http://www.w3.org/1999/xlink" class="railroad-diagram" width="570" height="71" viewBox="0 0 570 71">
<defs>
<style type="text/css"><![CDATA[
path {
stroke-width: 3;
stroke: black;
fill: rgba(0,0,0,0);
}
text {
font: bold 14px monospace;
text-anchor: middle;
}
text.diagram-text {
font-size: 12px;
}
a {
fill: blue;
}
text.diagram-arrow {
font-size: 16px;
}
text.label {
text-anchor: start;
}
text.comment {
font: italic 12px monospace;
}
rect {
stroke-width: 3;
stroke: black;
fill: #BCBCBC;
}
path.diagram-text {
stroke-width: 3;
stroke: black;
fill: #BCBCBC;
cursor: help;
}
]]></style>
</defs>
<g transform="translate(.5 .5)">
<g>
<path d="M20 30v20m0 -10h20"></path>
</g>
<path d="M40 40h10"></path>
<g>
<path d="M50 40h0"></path>
<path d="M520 40h0"></path>
<g class="terminal">
<path d="M50 40h0"></path>
<path d="M121 40h0"></path>
<rect x="50" y="29" width="71" height="22" rx="10" ry="10"></rect>
<text x="85.5" y="44">"INTO"</text>
</g>
<path d="M121 40h10"></path>
<path d="M131 40h10"></path>
<g>
<path d="M141 40h0"></path>
<path d="M520 40h0"></path>
<g>
<path d="M141 40h0"></path>
<path d="M413.5 40h0"></path>
<path d="M141 40a10 10 0 0 0 10 -10v0a10 10 0 0 1 10 -10"></path>
<g>
<path d="M161 20h232.5"></path>
</g>
<path d="M393.5 20a10 10 0 0 1 10 10v0a10 10 0 0 0 10 10"></path>
<path d="M141 40h20"></path>
<g class="terminal">
<path d="M161 40h0"></path>
<path d="M393.5 40h0"></path>
<rect x="161" y="29" width="232.5" height="22" rx="10" ry="10"></rect>
<text x="277.25" y="44">"CORRESPONDING FIELDS OF"</text>
</g>
<path d="M393.5 40h20"></path>
</g>
<path d="M413.5 40h10"></path>
<g class="non-terminal">
<path d="M423.5 40h0"></path>
<path d="M520 40h0"></path>
<rect x="423.5" y="29" width="96.5" height="22"></rect>
<a xlink:href="#/abap/expression/SQLTarget"><text x="471.75" y="44">SQLTarget</text>
</a>
</g>
</g>
</g>
<path d="M520 40h10"></path>
<path d="M 530 40 h 20 m 0 -10 v 20"></path>
</g>
</svg>
