<svg xmlns="http://www.w3.org/2000/svg" xmlns:xlink="http://www.w3.org/1999/xlink" class="railroad-diagram" width="731" height="122" viewBox="0 0 731 122">
<defs>
<style type="text/css"><![CDATA[
path {
stroke-width: 3;
stroke: black;
fill: rgba(0,0,0,0);
}
text {
font: bold 14px monospace;
text-anchor: middle;
}
text.diagram-text {
font-size: 12px;
}
a {
fill: blue;
}
text.diagram-arrow {
font-size: 16px;
}
text.label {
text-anchor: start;
}
text.comment {
font: italic 12px monospace;
}
rect {
stroke-width: 3;
stroke: black;
fill: #BCBCBC;
}
path.diagram-text {
stroke-width: 3;
stroke: black;
fill: #BCBCBC;
cursor: help;
}
]]></style>
</defs>
<g transform="translate(.5 .5)">
<g>
<path d="M20 21v20m0 -10h20"></path>
</g>
<path d="M40 31h10"></path>
<g>
<path d="M50 31h0"></path>
<path d="M681 31h0"></path>
<g class="terminal ">
<path d="M50 31h0"></path>
<path d="M121 31h0"></path>
<rect x="50" y="20" width="71" height="22" rx="10" ry="10"></rect>
<text x="85.5" y="35">"FROM"</text>
</g>
<path d="M121 31h10"></path>
<g>
<path d="M131 31h0"></path>
<path d="M681 31h0"></path>
<path d="M131 31h20"></path>
<g>
<path d="M151 31h0"></path>
<path d="M661 31h0"></path>
<g class="terminal ">
<path d="M151 31h0"></path>
<path d="M222 31h0"></path>
<rect x="151" y="20" width="71" height="22" rx="10" ry="10"></rect>
<text x="186.5" y="35">!"WAt"</text>
</g>
<path d="M222 31h10"></path>
<g>
<path d="M232 31h0"></path>
<path d="M661 31h0"></path>
<path d="M232 31h20"></path>
<g class="non-terminal ">
<path d="M252 31h129.25"></path>
<path d="M511.75 31h129.25"></path>
<rect x="381.25" y="20" width="130.5" height="22"></rect>
<a xlink:href="#/abap/expression/SimpleSource3"><text x="446.5" y="35">SimpleSource3</text>
</a>
</g>
<path d="M641 31h20"></path>
<path d="M232 31a10 10 0 0 1 10 10v10a10 10 0 0 0 10 10"></path>
<g>
<path d="M252 61h0"></path>
<path d="M641 61h0"></path>
<g class="terminal ">
<path d="M252 61h0"></path>
<path d="M382.5 61h0"></path>
<rect x="252" y="50" width="130.5" height="22" rx="10" ry="10"></rect>
<text x="317.25" y="65">!"ParenLeftW"</text>
</g>
<path d="M382.5 61h10"></path>
<path d="M392.5 61h10"></path>
<g class="non-terminal ">
<path d="M402.5 61h0"></path>
<path d="M473.5 61h0"></path>
<rect x="402.5" y="50" width="71" height="22"></rect>
<a xlink:href="#/abap/expression/Source"><text x="438" y="65">Source</text>
</a>
</g>
<path d="M473.5 61h10"></path>
<path d="M483.5 61h10"></path>
<g class="terminal ">
<path d="M493.5 61h0"></path>
<path d="M641 61h0"></path>
<rect x="493.5" y="50" width="147.5" height="22" rx="10" ry="10"></rect>
<text x="567.25" y="65">!"WParenRightW"</text>
</g>
</g>
<path d="M641 61a10 10 0 0 0 10 -10v-10a10 10 0 0 1 10 -10"></path>
</g>
</g>
<path d="M661 31h20"></path>
<path d="M131 31a10 10 0 0 1 10 10v40a10 10 0 0 0 10 10"></path>
<g class="non-terminal ">
<path d="M151 91h215.25"></path>
<path d="M445.75 91h215.25"></path>
<rect x="366.25" y="80" width="79.5" height="22"></rect>
<a xlink:href="#/abap/expression/Integer"><text x="406" y="95">Integer</text>
</a>
</g>
<path d="M661 91a10 10 0 0 0 10 -10v-40a10 10 0 0 1 10 -10"></path>
</g>
</g>
<path d="M681 31h10"></path>
<path d="M 691 31 h 20 m 0 -10 v 20"></path>
</g>
</svg>
