<svg xmlns="http://www.w3.org/2000/svg" xmlns:xlink="http://www.w3.org/1999/xlink" class="railroad-diagram" width="655" height="92" viewBox="0 0 655 92">
<defs>
<style type="text/css"><![CDATA[
path {
stroke-width: 3;
stroke: black;
fill: rgba(0,0,0,0);
}
text {
font: bold 14px monospace;
text-anchor: middle;
}
text.diagram-text {
font-size: 12px;
}
a {
fill: blue;
}
text.diagram-arrow {
font-size: 16px;
}
text.label {
text-anchor: start;
}
text.comment {
font: italic 12px monospace;
}
rect {
stroke-width: 3;
stroke: black;
fill: #BCBCBC;
}
path.diagram-text {
stroke-width: 3;
stroke: black;
fill: #BCBCBC;
cursor: help;
}
]]></style>
</defs>
<g transform="translate(.5 .5)">
<g>
<path d="M20 21v20m0 -10h20"></path>
</g>
<path d="M40 31h10"></path>
<g>
<path d="M50 31h0"></path>
<path d="M605 31h0"></path>
<g class="terminal">
<path d="M50 31h0"></path>
<path d="M240 31h0"></path>
<rect x="50" y="20" width="190" height="22" rx="10" ry="10"></rect>
<text x="145" y="35">"TYPE STRUCTURE FOR"</text>
</g>
<path d="M240 31h10"></path>
<g>
<path d="M250 31h0"></path>
<path d="M605 31h0"></path>
<path d="M250 31h20"></path>
<g>
<path d="M270 31h0"></path>
<path d="M585 31h0"></path>
<g class="terminal">
<path d="M270 31h0"></path>
<path d="M383.5 31h0"></path>
<rect x="270" y="20" width="113.5" height="22" rx="10" ry="10"></rect>
<text x="326.75" y="35">"HIERARCHY"</text>
</g>
<path d="M383.5 31h10"></path>
<path d="M393.5 31h10"></path>
<g class="non-terminal">
<path d="M403.5 31h0"></path>
<path d="M585 31h0"></path>
<rect x="403.5" y="20" width="181.5" height="22"></rect>
<a xlink:href="#/abap/expression/NamespaceSimpleName"><text x="494.25" y="35">NamespaceSimpleName</text>
</a>
</g>
</g>
<path d="M585 31h20"></path>
<path d="M250 31a10 10 0 0 1 10 10v10a10 10 0 0 0 10 10"></path>
<g>
<path d="M270 61h0"></path>
<path d="M466 61h119"></path>
<g class="terminal">
<path d="M270 61h0"></path>
<path d="M349.5 61h0"></path>
<rect x="270" y="50" width="79.5" height="22" rx="10" ry="10"></rect>
<text x="309.75" y="65">"EVENT"</text>
</g>
<path d="M349.5 61h10"></path>
<path d="M359.5 61h10"></path>
<g class="non-terminal">
<path d="M369.5 61h0"></path>
<path d="M466 61h0"></path>
<rect x="369.5" y="50" width="96.5" height="22"></rect>
<a xlink:href="#/abap/expression/EventName"><text x="417.75" y="65">EventName</text>
</a>
</g>
</g>
<path d="M585 61a10 10 0 0 0 10 -10v-10a10 10 0 0 1 10 -10"></path>
</g>
</g>
<path d="M605 31h10"></path>
<path d="M 615 31 h 20 m 0 -10 v 20"></path>
</g>
</svg>
