<svg xmlns="http://www.w3.org/2000/svg" xmlns:xlink="http://www.w3.org/1999/xlink" class="railroad-diagram" width="859.5" height="230" viewBox="0 0 859.5 230">
<defs>
<style type="text/css"><![CDATA[
path {
stroke-width: 3;
stroke: black;
fill: rgba(0,0,0,0);
}
text {
font: bold 14px monospace;
text-anchor: middle;
}
text.diagram-text {
font-size: 12px;
}
a {
fill: blue;
}
text.diagram-arrow {
font-size: 16px;
}
text.label {
text-anchor: start;
}
text.comment {
font: italic 12px monospace;
}
rect {
stroke-width: 3;
stroke: black;
fill: #BCBCBC;
}
path.diagram-text {
stroke-width: 3;
stroke: black;
fill: #BCBCBC;
cursor: help;
}
]]></style>
</defs>
<g transform="translate(.5 .5)">
<g>
<path d="M20 30v20m0 -10h20"></path>
</g>
<path d="M40 40h10"></path>
<g>
<path d="M50 40h0"></path>
<path d="M809.5 40h0"></path>
<g>
<path d="M50 40h0"></path>
<path d="M144 40h0"></path>
<path d="M50 40a10 10 0 0 0 10 -10v0a10 10 0 0 1 10 -10"></path>
<g>
<path d="M70 20h54"></path>
</g>
<path d="M124 20a10 10 0 0 1 10 10v0a10 10 0 0 0 10 10"></path>
<path d="M50 40h20"></path>
<g class="terminal">
<path d="M70 40h0"></path>
<path d="M124 40h0"></path>
<rect x="70" y="29" width="54" height="22" rx="10" ry="10"></rect>
<text x="97" y="44">"AT"</text>
</g>
<path d="M124 40h20"></path>
</g>
<g>
<path d="M144 40h0"></path>
<path d="M809.5 40h0"></path>
<path d="M144 40h20"></path>
<g>
<path d="M164 40h0"></path>
<path d="M553.5 40h236"></path>
<g class="terminal">
<path d="M164 40h0"></path>
<path d="M226.5 40h0"></path>
<rect x="164" y="29" width="62.5" height="22" rx="10" ry="10"></rect>
<text x="195.25" y="44">!" ("</text>
</g>
<path d="M226.5 40h10"></path>
<path d="M236.5 40h10"></path>
<g>
<path d="M246.5 40h0"></path>
<path d="M553.5 40h0"></path>
<g>
<path d="M246.5 40h0"></path>
<path d="M451 40h0"></path>
<path d="M246.5 40h20"></path>
<g class="non-terminal">
<path d="M266.5 40h0"></path>
<path d="M431 40h0"></path>
<rect x="266.5" y="29" width="164.5" height="22"></rect>
<a xlink:href="#/abap/expression/SimpleFieldChain2"><text x="348.75" y="44">SimpleFieldChain2</text>
</a>
</g>
<path d="M431 40h20"></path>
<path d="M246.5 40a10 10 0 0 1 10 10v10a10 10 0 0 0 10 10"></path>
<g class="terminal">
<path d="M266.5 70h0"></path>
<path d="M346 70h85"></path>
<rect x="266.5" y="59" width="79.5" height="22" rx="10" ry="10"></rect>
<text x="306.25" y="74">^&#91;\d&#93;+$</text>
</g>
<path d="M431 70a10 10 0 0 0 10 -10v-10a10 10 0 0 1 10 -10"></path>
<path d="M246.5 40a10 10 0 0 1 10 10v40a10 10 0 0 0 10 10"></path>
<g class="terminal">
<path d="M266.5 100h0"></path>
<path d="M320.5 100h110.5"></path>
<rect x="266.5" y="89" width="54" height="22" rx="10" ry="10"></rect>
<text x="293.5" y="104">^\&#42;$</text>
</g>
<path d="M431 100a10 10 0 0 0 10 -10v-40a10 10 0 0 1 10 -10"></path>
</g>
<g>
<path d="M451 40h0"></path>
<path d="M553.5 40h0"></path>
<path d="M451 40h20"></path>
<g class="terminal">
<path d="M471 40h0"></path>
<path d="M533.5 40h0"></path>
<rect x="471" y="29" width="62.5" height="22" rx="10" ry="10"></rect>
<text x="502.25" y="44">!") "</text>
</g>
<path d="M533.5 40h20"></path>
<path d="M451 40a10 10 0 0 1 10 10v10a10 10 0 0 0 10 10"></path>
<g class="terminal">
<path d="M471 70h0"></path>
<path d="M525 70h8.5"></path>
<rect x="471" y="59" width="54" height="22" rx="10" ry="10"></rect>
<text x="498" y="74">!")"</text>
</g>
<path d="M533.5 70a10 10 0 0 0 10 -10v-10a10 10 0 0 1 10 -10"></path>
</g>
</g>
</g>
<path d="M789.5 40h20"></path>
<path d="M144 40a10 10 0 0 1 10 10v79a10 10 0 0 0 10 10"></path>
<g>
<path d="M164 139h0"></path>
<path d="M789.5 139h0"></path>
<g>
<path d="M164 139h0"></path>
<path d="M368.5 139h0"></path>
<path d="M164 139h20"></path>
<g class="non-terminal">
<path d="M184 139h0"></path>
<path d="M348.5 139h0"></path>
<rect x="184" y="128" width="164.5" height="22"></rect>
<a xlink:href="#/abap/expression/SimpleFieldChain2"><text x="266.25" y="143">SimpleFieldChain2</text>
</a>
</g>
<path d="M348.5 139h20"></path>
<path d="M164 139a10 10 0 0 1 10 10v10a10 10 0 0 0 10 10"></path>
<g class="terminal">
<path d="M184 169h0"></path>
<path d="M306 169h42.5"></path>
<rect x="184" y="158" width="122" height="22" rx="10" ry="10"></rect>
<text x="245" y="173">^\/?&#91;\w\d&#93;+$</text>
</g>
<path d="M348.5 169a10 10 0 0 0 10 -10v-10a10 10 0 0 1 10 -10"></path>
<path d="M164 139a10 10 0 0 1 10 10v40a10 10 0 0 0 10 10"></path>
<g class="terminal">
<path d="M184 199h0"></path>
<path d="M229.5 199h119"></path>
<rect x="184" y="188" width="45.5" height="22" rx="10" ry="10"></rect>
<text x="206.75" y="203">"/"</text>
</g>
<path d="M348.5 199a10 10 0 0 0 10 -10v-40a10 10 0 0 1 10 -10"></path>
</g>
<g>
<path d="M368.5 139h0"></path>
<path d="M789.5 139h0"></path>
<path d="M368.5 139a10 10 0 0 0 10 -10v0a10 10 0 0 1 10 -10"></path>
<g>
<path d="M388.5 119h381"></path>
</g>
<path d="M769.5 119a10 10 0 0 1 10 10v0a10 10 0 0 0 10 10"></path>
<path d="M368.5 139h20"></path>
<g>
<path d="M388.5 139h0"></path>
<path d="M769.5 139h0"></path>
<g class="terminal">
<path d="M388.5 139h0"></path>
<path d="M442.5 139h0"></path>
<rect x="388.5" y="128" width="54" height="22" rx="10" ry="10"></rect>
<text x="415.5" y="143">!"("</text>
</g>
<path d="M442.5 139h10"></path>
<path d="M452.5 139h10"></path>
<g>
<path d="M462.5 139h0"></path>
<path d="M769.5 139h0"></path>
<g>
<path d="M462.5 139h0"></path>
<path d="M667 139h0"></path>
<path d="M462.5 139h20"></path>
<g class="non-terminal">
<path d="M482.5 139h0"></path>
<path d="M647 139h0"></path>
<rect x="482.5" y="128" width="164.5" height="22"></rect>
<a xlink:href="#/abap/expression/SimpleFieldChain2"><text x="564.75" y="143">SimpleFieldChain2</text>
</a>
</g>
<path d="M647 139h20"></path>
<path d="M462.5 139a10 10 0 0 1 10 10v10a10 10 0 0 0 10 10"></path>
<g class="terminal">
<path d="M482.5 169h0"></path>
<path d="M562 169h85"></path>
<rect x="482.5" y="158" width="79.5" height="22" rx="10" ry="10"></rect>
<text x="522.25" y="173">^&#91;\d&#93;+$</text>
</g>
<path d="M647 169a10 10 0 0 0 10 -10v-10a10 10 0 0 1 10 -10"></path>
<path d="M462.5 139a10 10 0 0 1 10 10v40a10 10 0 0 0 10 10"></path>
<g class="terminal">
<path d="M482.5 199h0"></path>
<path d="M536.5 199h110.5"></path>
<rect x="482.5" y="188" width="54" height="22" rx="10" ry="10"></rect>
<text x="509.5" y="203">^\&#42;$</text>
</g>
<path d="M647 199a10 10 0 0 0 10 -10v-40a10 10 0 0 1 10 -10"></path>
</g>
<g>
<path d="M667 139h0"></path>
<path d="M769.5 139h0"></path>
<path d="M667 139h20"></path>
<g class="terminal">
<path d="M687 139h0"></path>
<path d="M749.5 139h0"></path>
<rect x="687" y="128" width="62.5" height="22" rx="10" ry="10"></rect>
<text x="718.25" y="143">!") "</text>
</g>
<path d="M749.5 139h20"></path>
<path d="M667 139a10 10 0 0 1 10 10v10a10 10 0 0 0 10 10"></path>
<g class="terminal">
<path d="M687 169h0"></path>
<path d="M741 169h8.5"></path>
<rect x="687" y="158" width="54" height="22" rx="10" ry="10"></rect>
<text x="714" y="173">!")"</text>
</g>
<path d="M749.5 169a10 10 0 0 0 10 -10v-10a10 10 0 0 1 10 -10"></path>
</g>
</g>
</g>
<path d="M769.5 139h20"></path>
</g>
</g>
<path d="M789.5 139a10 10 0 0 0 10 -10v-79a10 10 0 0 1 10 -10"></path>
</g>
</g>
<path d="M809.5 40h10"></path>
<path d="M 819.5 40 h 20 m 0 -10 v 20"></path>
</g>
</svg>
