<svg xmlns="http://www.w3.org/2000/svg" xmlns:xlink="http://www.w3.org/1999/xlink" class="railroad-diagram" width="1008" height="88" viewBox="0 0 1008 88">
<defs>
<style type="text/css"><![CDATA[
path {
stroke-width: 3;
stroke: black;
fill: rgba(0,0,0,0);
}
text {
font: bold 14px monospace;
text-anchor: middle;
}
text.diagram-text {
font-size: 12px;
}
a {
fill: blue;
}
text.diagram-arrow {
font-size: 16px;
}
text.label {
text-anchor: start;
}
text.comment {
font: italic 12px monospace;
}
rect {
stroke-width: 3;
stroke: black;
fill: #BCBCBC;
}
path.diagram-text {
stroke-width: 3;
stroke: black;
fill: #BCBCBC;
cursor: help;
}
]]></style>
</defs>
<g transform="translate(.5 .5)">
<g>
<path d="M20 38v20m0 -10h20"></path>
</g>
<path d="M40 48h10"></path>
<g>
<path d="M50 48h0"></path>
<path d="M958 48h0"></path>
<g class="terminal ">
<path d="M50 48h0"></path>
<path d="M138 48h0"></path>
<rect x="50" y="37" width="88" height="22" rx="10" ry="10"></rect>
<text x="94" y="52">!"WPlus"</text>
</g>
<path d="M138 48h10"></path>
<path d="M148 48h10"></path>
<g class="terminal ">
<path d="M158 48h0"></path>
<path d="M220.5 48h0"></path>
<rect x="158" y="37" width="62.5" height="22" rx="10" ry="10"></rect>
<text x="189.25" y="52">^\w+$</text>
</g>
<path d="M220.5 48h10"></path>
<g>
<path d="M230.5 48h0"></path>
<path d="M958 48h0"></path>
<path d="M230.5 48a10 10 0 0 0 10 -10v-8a10 10 0 0 1 10 -10"></path>
<g>
<path d="M250.5 20h687.5"></path>
</g>
<path d="M938 20a10 10 0 0 1 10 10v8a10 10 0 0 0 10 10"></path>
<path d="M230.5 48h20"></path>
<g>
<path d="M250.5 48h0"></path>
<path d="M938 48h0"></path>
<g class="terminal ">
<path d="M250.5 48h0"></path>
<path d="M381 48h0"></path>
<rect x="250.5" y="37" width="130.5" height="22" rx="10" ry="10"></rect>
<text x="315.75" y="52">!"ParenLeftW"</text>
</g>
<path d="M381 48h10"></path>
<path d="M391 48h10"></path>
<g class="non-terminal ">
<path d="M401 48h0"></path>
<path d="M523 48h0"></path>
<rect x="401" y="37" width="122" height="22"></rect>
<a xlink:href="#/abap/expression/SQLFieldName"><text x="462" y="52">SQLFieldName</text>
</a>
</g>
<path d="M523 48h10"></path>
<g>
<path d="M533 48h0"></path>
<path d="M780.5 48h0"></path>
<path d="M533 48a10 10 0 0 0 10 -10v0a10 10 0 0 1 10 -10"></path>
<g>
<path d="M553 28h207.5"></path>
</g>
<path d="M760.5 28a10 10 0 0 1 10 10v0a10 10 0 0 0 10 10"></path>
<path d="M533 48h20"></path>
<g>
<path d="M553 48h0"></path>
<path d="M760.5 48h0"></path>
<path d="M553 48h10"></path>
<g>
<path d="M563 48h0"></path>
<path d="M750.5 48h0"></path>
<g class="terminal ">
<path d="M563 48h0"></path>
<path d="M608.5 48h0"></path>
<rect x="563" y="37" width="45.5" height="22" rx="10" ry="10"></rect>
<text x="585.75" y="52">","</text>
</g>
<path d="M608.5 48h10"></path>
<path d="M618.5 48h10"></path>
<g class="non-terminal ">
<path d="M628.5 48h0"></path>
<path d="M750.5 48h0"></path>
<rect x="628.5" y="37" width="122" height="22"></rect>
<a xlink:href="#/abap/expression/SQLFieldName"><text x="689.5" y="52">SQLFieldName</text>
</a>
</g>
</g>
<path d="M750.5 48h10"></path>
<path d="M563 48a10 10 0 0 0 -10 10v0a10 10 0 0 0 10 10"></path>
<g>
<path d="M563 68h187.5"></path>
</g>
<path d="M750.5 68a10 10 0 0 0 10 -10v0a10 10 0 0 0 -10 -10"></path>
</g>
<path d="M760.5 48h20"></path>
</g>
<path d="M780.5 48h10"></path>
<g class="terminal ">
<path d="M790.5 48h0"></path>
<path d="M938 48h0"></path>
<rect x="790.5" y="37" width="147.5" height="22" rx="10" ry="10"></rect>
<text x="864.25" y="52">!"WParenRightW"</text>
</g>
</g>
<path d="M938 48h20"></path>
</g>
</g>
<path d="M958 48h10"></path>
<path d="M 968 48 h 20 m 0 -10 v 20"></path>
</g>
</svg>
