<svg xmlns="http://www.w3.org/2000/svg" xmlns:xlink="http://www.w3.org/1999/xlink" class="railroad-diagram" width="408.5" height="101" viewBox="0 0 408.5 101">
<defs>
<style type="text/css"><![CDATA[
path {
stroke-width: 3;
stroke: black;
fill: rgba(0,0,0,0);
}
text {
font: bold 14px monospace;
text-anchor: middle;
}
text.diagram-text {
font-size: 12px;
}
a {
fill: blue;
}
text.diagram-arrow {
font-size: 16px;
}
text.label {
text-anchor: start;
}
text.comment {
font: italic 12px monospace;
}
rect {
stroke-width: 3;
stroke: black;
fill: #BCBCBC;
}
path.diagram-text {
stroke-width: 3;
stroke: black;
fill: #BCBCBC;
cursor: help;
}
]]></style>
</defs>
<g transform="translate(.5 .5)">
<g>
<path d="M20 30v20m0 -10h20"></path>
</g>
<path d="M40 40h10"></path>
<g>
<path d="M50 40h0"></path>
<path d="M358.5 40h0"></path>
<g class="terminal">
<path d="M50 40h0"></path>
<path d="M104 40h0"></path>
<rect x="50" y="29" width="54" height="22" rx="10" ry="10"></rect>
<text x="77" y="44">!"+"</text>
</g>
<path d="M104 40h10"></path>
<g>
<path d="M114 40h0"></path>
<path d="M358.5 40h0"></path>
<path d="M114 40a10 10 0 0 0 10 -10v0a10 10 0 0 1 10 -10"></path>
<g>
<path d="M134 20h204.5"></path>
</g>
<path d="M338.5 20a10 10 0 0 1 10 10v0a10 10 0 0 0 10 10"></path>
<path d="M114 40h20"></path>
<g>
<path d="M134 40h0"></path>
<path d="M338.5 40h0"></path>
<path d="M134 40h20"></path>
<g class="terminal">
<path d="M154 40h0"></path>
<path d="M216.5 40h102"></path>
<rect x="154" y="29" width="62.5" height="22" rx="10" ry="10"></rect>
<text x="185.25" y="44">^\d+$</text>
</g>
<path d="M318.5 40h20"></path>
<path d="M134 40a10 10 0 0 1 10 10v10a10 10 0 0 0 10 10"></path>
<g class="non-terminal">
<path d="M154 70h0"></path>
<path d="M318.5 70h0"></path>
<rect x="154" y="59" width="164.5" height="22"></rect>
<a xlink:href="#/abap/expression/SimpleFieldChain2"><text x="236.25" y="74">SimpleFieldChain2</text>
</a>
</g>
<path d="M318.5 70a10 10 0 0 0 10 -10v-10a10 10 0 0 1 10 -10"></path>
</g>
<path d="M338.5 40h20"></path>
</g>
</g>
<path d="M358.5 40h10"></path>
<path d="M 368.5 40 h 20 m 0 -10 v 20"></path>
</g>
</svg>
