<svg xmlns="http://www.w3.org/2000/svg" xmlns:xlink="http://www.w3.org/1999/xlink" class="railroad-diagram" width="597" height="152" viewBox="0 0 597 152">
<defs>
<style type="text/css"><![CDATA[
path {
stroke-width: 3;
stroke: black;
fill: rgba(0,0,0,0);
}
text {
font: bold 14px monospace;
text-anchor: middle;
}
text.diagram-text {
font-size: 12px;
}
a {
fill: blue;
}
text.diagram-arrow {
font-size: 16px;
}
text.label {
text-anchor: start;
}
text.comment {
font: italic 12px monospace;
}
rect {
stroke-width: 3;
stroke: black;
fill: #BCBCBC;
}
path.diagram-text {
stroke-width: 3;
stroke: black;
fill: #BCBCBC;
cursor: help;
}
]]></style>
</defs>
<g transform="translate(.5 .5)">
<g>
<path d="M20 21v20m0 -10h20"></path>
</g>
<g>
<path d="M40 31h0"></path>
<path d="M557 31h0"></path>
<path d="M40 31h20"></path>
<g>
<path d="M60 31h0"></path>
<path d="M537 31h0"></path>
<g>
<path d="M60 31h0"></path>
<path d="M126 31h0"></path>
<text x="93" y="36" class="comment">v740sp02</text>
</g>
<path d="M126 31h10"></path>
<path d="M136 31h10"></path>
<g>
<path d="M146 31h0"></path>
<path d="M537 31h0"></path>
<g class="terminal">
<path d="M146 31h0"></path>
<path d="M217 31h0"></path>
<rect x="146" y="20" width="71" height="22" rx="10" ry="10"></rect>
<text x="181.5" y="35">"DATA"</text>
</g>
<path d="M217 31h10"></path>
<path d="M227 31h10"></path>
<g class="terminal">
<path d="M237 31h0"></path>
<path d="M291 31h0"></path>
<rect x="237" y="20" width="54" height="22" rx="10" ry="10"></rect>
<text x="264" y="35">!"("</text>
</g>
<path d="M291 31h10"></path>
<path d="M301 31h10"></path>
<g class="non-terminal">
<path d="M311 31h0"></path>
<path d="M424.5 31h0"></path>
<rect x="311" y="20" width="113.5" height="22"></rect>
<a xlink:href="#/abap/expression/TargetField"><text x="367.75" y="35">TargetField</text>
</a>
</g>
<path d="M424.5 31h10"></path>
<g>
<path d="M434.5 31h0"></path>
<path d="M537 31h0"></path>
<path d="M434.5 31h20"></path>
<g class="terminal">
<path d="M454.5 31h0"></path>
<path d="M517 31h0"></path>
<rect x="454.5" y="20" width="62.5" height="22" rx="10" ry="10"></rect>
<text x="485.75" y="35">!") "</text>
</g>
<path d="M517 31h20"></path>
<path d="M434.5 31a10 10 0 0 1 10 10v10a10 10 0 0 0 10 10"></path>
<g class="terminal">
<path d="M454.5 61h0"></path>
<path d="M508.5 61h8.5"></path>
<rect x="454.5" y="50" width="54" height="22" rx="10" ry="10"></rect>
<text x="481.5" y="65">!")"</text>
</g>
<path d="M517 61a10 10 0 0 0 10 -10v-10a10 10 0 0 1 10 -10"></path>
</g>
</g>
</g>
<path d="M537 31h20"></path>
<path d="M40 31a10 10 0 0 1 10 10v40a10 10 0 0 0 10 10"></path>
<g>
<path d="M60 91h0"></path>
<path d="M517.5 91h19.5"></path>
<g>
<path d="M60 91h0"></path>
<path d="M98 91h0"></path>
<text x="79" y="96" class="comment">v757</text>
</g>
<path d="M98 91h10"></path>
<path d="M108 91h10"></path>
<g>
<path d="M118 91h0"></path>
<path d="M517.5 91h0"></path>
<g class="terminal">
<path d="M118 91h0"></path>
<path d="M197.5 91h0"></path>
<rect x="118" y="80" width="79.5" height="22" rx="10" ry="10"></rect>
<text x="157.75" y="95">"FINAL"</text>
</g>
<path d="M197.5 91h10"></path>
<path d="M207.5 91h10"></path>
<g class="terminal">
<path d="M217.5 91h0"></path>
<path d="M271.5 91h0"></path>
<rect x="217.5" y="80" width="54" height="22" rx="10" ry="10"></rect>
<text x="244.5" y="95">!"("</text>
</g>
<path d="M271.5 91h10"></path>
<path d="M281.5 91h10"></path>
<g class="non-terminal">
<path d="M291.5 91h0"></path>
<path d="M405 91h0"></path>
<rect x="291.5" y="80" width="113.5" height="22"></rect>
<a xlink:href="#/abap/expression/TargetField"><text x="348.25" y="95">TargetField</text>
</a>
</g>
<path d="M405 91h10"></path>
<g>
<path d="M415 91h0"></path>
<path d="M517.5 91h0"></path>
<path d="M415 91h20"></path>
<g class="terminal">
<path d="M435 91h0"></path>
<path d="M497.5 91h0"></path>
<rect x="435" y="80" width="62.5" height="22" rx="10" ry="10"></rect>
<text x="466.25" y="95">!") "</text>
</g>
<path d="M497.5 91h20"></path>
<path d="M415 91a10 10 0 0 1 10 10v10a10 10 0 0 0 10 10"></path>
<g class="terminal">
<path d="M435 121h0"></path>
<path d="M489 121h8.5"></path>
<rect x="435" y="110" width="54" height="22" rx="10" ry="10"></rect>
<text x="462" y="125">!")"</text>
</g>
<path d="M497.5 121a10 10 0 0 0 10 -10v-10a10 10 0 0 1 10 -10"></path>
</g>
</g>
</g>
<path d="M537 91a10 10 0 0 0 10 -10v-40a10 10 0 0 1 10 -10"></path>
</g>
<path d="M 557 31 h 20 m 0 -10 v 20"></path>
</g>
</svg>
