<svg xmlns="http://www.w3.org/2000/svg" xmlns:xlink="http://www.w3.org/1999/xlink" class="railroad-diagram" width="1057.5" height="140" viewBox="0 0 1057.5 140">
<defs>
<style type="text/css"><![CDATA[
path {
stroke-width: 3;
stroke: black;
fill: rgba(0,0,0,0);
}
text {
font: bold 14px monospace;
text-anchor: middle;
}
text.diagram-text {
font-size: 12px;
}
a {
fill: blue;
}
text.diagram-arrow {
font-size: 16px;
}
text.label {
text-anchor: start;
}
text.comment {
font: italic 12px monospace;
}
rect {
stroke-width: 3;
stroke: black;
fill: #BCBCBC;
}
path.diagram-text {
stroke-width: 3;
stroke: black;
fill: #BCBCBC;
cursor: help;
}
]]></style>
</defs>
<g transform="translate(.5 .5)">
<g>
<path d="M20 30v20m0 -10h20"></path>
</g>
<path d="M40 40h10"></path>
<g>
<path d="M50 40h0"></path>
<path d="M1007.5 40h0"></path>
<g>
<path d="M50 40h0"></path>
<path d="M426.5 40h0"></path>
<path d="M50 40h20"></path>
<g class="non-terminal ">
<path d="M70 40h124.25"></path>
<path d="M282.25 40h124.25"></path>
<rect x="194.25" y="29" width="88" height="22"></rect>
<a xlink:href="#/abap/expression/WithName"><text x="238.25" y="44">WithName</text>
</a>
</g>
<path d="M406.5 40h20"></path>
<path d="M50 40a10 10 0 0 1 10 10v19a10 10 0 0 0 10 10"></path>
<g>
<path d="M70 79h0"></path>
<path d="M406.5 79h0"></path>
<g class="non-terminal ">
<path d="M70 79h0"></path>
<path d="M200.5 79h0"></path>
<rect x="70" y="68" width="130.5" height="22"></rect>
<a xlink:href="#/abap/expression/DatabaseTable"><text x="135.25" y="83">DatabaseTable</text>
</a>
</g>
<path d="M200.5 79h10"></path>
<g>
<path d="M210.5 79h0"></path>
<path d="M406.5 79h0"></path>
<path d="M210.5 79a10 10 0 0 0 10 -10v0a10 10 0 0 1 10 -10"></path>
<g>
<path d="M230.5 59h156"></path>
</g>
<path d="M386.5 59a10 10 0 0 1 10 10v0a10 10 0 0 0 10 10"></path>
<path d="M210.5 79h20"></path>
<g class="non-terminal ">
<path d="M230.5 79h0"></path>
<path d="M386.5 79h0"></path>
<rect x="230.5" y="68" width="156" height="22"></rect>
<a xlink:href="#/abap/expression/SQLCDSParameters"><text x="308.5" y="83">SQLCDSParameters</text>
</a>
</g>
<path d="M386.5 79h20"></path>
</g>
</g>
<path d="M406.5 79a10 10 0 0 0 10 -10v-19a10 10 0 0 1 10 -10"></path>
<path d="M50 40a10 10 0 0 1 10 10v49a10 10 0 0 0 10 10"></path>
<g>
<path d="M70 109h41.25"></path>
<path d="M365.25 109h41.25"></path>
<g class="comment ">
<path d="M111.25 109h0"></path>
<path d="M149.25 109h0"></path>
<text x="130.25" y="114" class="comment">v752</text>
</g>
<path d="M149.25 109h10"></path>
<path d="M159.25 109h10"></path>
<g>
<path d="M169.25 109h0"></path>
<path d="M365.25 109h0"></path>
<g class="terminal ">
<path d="M169.25 109h0"></path>
<path d="M240.25 109h0"></path>
<rect x="169.25" y="98" width="71" height="22" rx="10" ry="10"></rect>
<text x="204.75" y="113">!"WAt"</text>
</g>
<path d="M240.25 109h10"></path>
<path d="M250.25 109h10"></path>
<g class="non-terminal ">
<path d="M260.25 109h0"></path>
<path d="M365.25 109h0"></path>
<rect x="260.25" y="98" width="105" height="22"></rect>
<a xlink:href="#/abap/expression/FieldChain"><text x="312.75" y="113">FieldChain</text>
</a>
</g>
</g>
</g>
<path d="M406.5 109a10 10 0 0 0 10 -10v-49a10 10 0 0 1 10 -10"></path>
</g>
<g>
<path d="M426.5 40h0"></path>
<path d="M797 40h0"></path>
<path d="M426.5 40a10 10 0 0 0 10 -10v0a10 10 0 0 1 10 -10"></path>
<g>
<path d="M446.5 20h330.5"></path>
</g>
<path d="M777 20a10 10 0 0 1 10 10v0a10 10 0 0 0 10 10"></path>
<path d="M426.5 40h20"></path>
<g>
<path d="M446.5 40h0"></path>
<path d="M777 40h0"></path>
<g class="comment ">
<path d="M446.5 40h0"></path>
<path d="M484.5 40h0"></path>
<text x="465.5" y="45" class="comment">v752</text>
</g>
<path d="M484.5 40h10"></path>
<path d="M494.5 40h10"></path>
<g>
<path d="M504.5 40h0"></path>
<path d="M777 40h0"></path>
<g class="terminal ">
<path d="M504.5 40h0"></path>
<path d="M575.5 40h0"></path>
<rect x="504.5" y="29" width="71" height="22" rx="10" ry="10"></rect>
<text x="540" y="44">"WITH"</text>
</g>
<path d="M575.5 40h10"></path>
<path d="M585.5 40h10"></path>
<g class="non-terminal ">
<path d="M595.5 40h0"></path>
<path d="M777 40h0"></path>
<rect x="595.5" y="29" width="181.5" height="22"></rect>
<a xlink:href="#/abap/expression/SQLPrivilegedAccess"><text x="686.25" y="44">SQLPrivilegedAccess</text>
</a>
</g>
</g>
</g>
<path d="M777 40h20"></path>
</g>
<g>
<path d="M797 40h0"></path>
<path d="M1007.5 40h0"></path>
<path d="M797 40a10 10 0 0 0 10 -10v0a10 10 0 0 1 10 -10"></path>
<g>
<path d="M817 20h170.5"></path>
</g>
<path d="M987.5 20a10 10 0 0 1 10 10v0a10 10 0 0 0 10 10"></path>
<path d="M797 40h20"></path>
<g>
<path d="M817 40h0"></path>
<path d="M987.5 40h0"></path>
<g class="terminal ">
<path d="M817 40h0"></path>
<path d="M871 40h0"></path>
<rect x="817" y="29" width="54" height="22" rx="10" ry="10"></rect>
<text x="844" y="44">"AS"</text>
</g>
<path d="M871 40h10"></path>
<path d="M881 40h10"></path>
<g class="non-terminal ">
<path d="M891 40h0"></path>
<path d="M987.5 40h0"></path>
<rect x="891" y="29" width="96.5" height="22"></rect>
<a xlink:href="#/abap/expression/SQLAsName"><text x="939.25" y="44">SQLAsName</text>
</a>
</g>
</g>
<path d="M987.5 40h20"></path>
</g>
</g>
<path d="M1007.5 40h10"></path>
<path d="M 1017.5 40 h 20 m 0 -10 v 20"></path>
</g>
</svg>
