<svg xmlns="http://www.w3.org/2000/svg" xmlns:xlink="http://www.w3.org/1999/xlink" class="railroad-diagram" width="684" height="80" viewBox="0 0 684 80">
<defs>
<style type="text/css"><![CDATA[
path {
stroke-width: 3;
stroke: black;
fill: rgba(0,0,0,0);
}
text {
font: bold 14px monospace;
text-anchor: middle;
}
text.diagram-text {
font-size: 12px;
}
a {
fill: blue;
}
text.diagram-arrow {
font-size: 16px;
}
text.label {
text-anchor: start;
}
text.comment {
font: italic 12px monospace;
}
rect {
stroke-width: 3;
stroke: black;
fill: #BCBCBC;
}
path.diagram-text {
stroke-width: 3;
stroke: black;
fill: #BCBCBC;
cursor: help;
}
]]></style>
</defs>
<g transform="translate(.5 .5)">
<g>
<path d="M20 30v20m0 -10h20"></path>
</g>
<path d="M40 40h10"></path>
<g>
<path d="M50 40h0"></path>
<path d="M634 40h0"></path>
<g class="non-terminal">
<path d="M50 40h0"></path>
<path d="M163.5 40h0"></path>
<rect x="50" y="29" width="113.5" height="22"></rect>
<a xlink:href="#/abap/expression/FieldSymbol"><text x="106.75" y="44">FieldSymbol</text>
</a>
</g>
<path d="M163.5 40h10"></path>
<g>
<path d="M173.5 40h0"></path>
<path d="M497.5 40h0"></path>
<path d="M173.5 40a10 10 0 0 0 10 -10v0a10 10 0 0 1 10 -10"></path>
<g>
<path d="M193.5 20h284"></path>
</g>
<path d="M477.5 20a10 10 0 0 1 10 10v0a10 10 0 0 0 10 10"></path>
<path d="M173.5 40h20"></path>
<g>
<path d="M193.5 40h0"></path>
<path d="M477.5 40h0"></path>
<path d="M193.5 40h10"></path>
<g>
<path d="M203.5 40h0"></path>
<path d="M467.5 40h0"></path>
<g class="non-terminal">
<path d="M203.5 40h0"></path>
<path d="M317 40h0"></path>
<rect x="203.5" y="29" width="113.5" height="22"></rect>
<a xlink:href="#/abap/expression/ArrowOrDash"><text x="260.25" y="44">ArrowOrDash</text>
</a>
</g>
<path d="M317 40h10"></path>
<path d="M327 40h10"></path>
<g class="non-terminal">
<path d="M337 40h0"></path>
<path d="M467.5 40h0"></path>
<rect x="337" y="29" width="130.5" height="22"></rect>
<a xlink:href="#/abap/expression/ComponentName"><text x="402.25" y="44">ComponentName</text>
</a>
</g>
</g>
<path d="M467.5 40h10"></path>
<path d="M203.5 40a10 10 0 0 0 -10 10v0a10 10 0 0 0 10 10"></path>
<g>
<path d="M203.5 60h264"></path>
</g>
<path d="M467.5 60a10 10 0 0 0 10 -10v0a10 10 0 0 0 -10 -10"></path>
</g>
<path d="M477.5 40h20"></path>
</g>
<g>
<path d="M497.5 40h0"></path>
<path d="M634 40h0"></path>
<path d="M497.5 40a10 10 0 0 0 10 -10v0a10 10 0 0 1 10 -10"></path>
<g>
<path d="M517.5 20h96.5"></path>
</g>
<path d="M614 20a10 10 0 0 1 10 10v0a10 10 0 0 0 10 10"></path>
<path d="M497.5 40h20"></path>
<g class="non-terminal">
<path d="M517.5 40h0"></path>
<path d="M614 40h0"></path>
<rect x="517.5" y="29" width="96.5" height="22"></rect>
<a xlink:href="#/abap/expression/TableBody"><text x="565.75" y="44">TableBody</text>
</a>
</g>
<path d="M614 40h20"></path>
</g>
</g>
<path d="M634 40h10"></path>
<path d="M 644 40 h 20 m 0 -10 v 20"></path>
</g>
</svg>
