<svg xmlns="http://www.w3.org/2000/svg" xmlns:xlink="http://www.w3.org/1999/xlink" class="railroad-diagram" width="1146.5" height="140" viewBox="0 0 1146.5 140">
<defs>
<style type="text/css"><![CDATA[
path {
stroke-width: 3;
stroke: black;
fill: rgba(0,0,0,0);
}
text {
font: bold 14px monospace;
text-anchor: middle;
}
text.diagram-text {
font-size: 12px;
}
a {
fill: blue;
}
text.diagram-arrow {
font-size: 16px;
}
text.label {
text-anchor: start;
}
text.comment {
font: italic 12px monospace;
}
rect {
stroke-width: 3;
stroke: black;
fill: #BCBCBC;
}
path.diagram-text {
stroke-width: 3;
stroke: black;
fill: #BCBCBC;
cursor: help;
}
]]></style>
</defs>
<g transform="translate(.5 .5)">
<g>
<path d="M20 30v20m0 -10h20"></path>
</g>
<path d="M40 40h10"></path>
<g>
<path d="M50 40h0"></path>
<path d="M1096.5 40h0"></path>
<g class="terminal">
<path d="M50 40h0"></path>
<path d="M129.5 40h0"></path>
<rect x="50" y="29" width="79.5" height="22" rx="10" ry="10"></rect>
<text x="89.75" y="44">"THROW"</text>
</g>
<path d="M129.5 40h10"></path>
<g>
<path d="M139.5 40h0"></path>
<path d="M293 40h0"></path>
<path d="M139.5 40a10 10 0 0 0 10 -10v0a10 10 0 0 1 10 -10"></path>
<g>
<path d="M159.5 20h113.5"></path>
</g>
<path d="M273 20a10 10 0 0 1 10 10v0a10 10 0 0 0 10 10"></path>
<path d="M139.5 40h20"></path>
<g class="terminal">
<path d="M159.5 40h0"></path>
<path d="M273 40h0"></path>
<rect x="159.5" y="29" width="113.5" height="22" rx="10" ry="10"></rect>
<text x="216.25" y="44">"RESUMABLE"</text>
</g>
<path d="M273 40h20"></path>
</g>
<path d="M293 40h10"></path>
<g class="non-terminal">
<path d="M303 40h0"></path>
<path d="M399.5 40h0"></path>
<rect x="303" y="29" width="96.5" height="22"></rect>
<a xlink:href="#/abap/expression/ClassName"><text x="351.25" y="44">ClassName</text>
</a>
</g>
<path d="M399.5 40h10"></path>
<g>
<path d="M409.5 40h0"></path>
<path d="M512 40h0"></path>
<path d="M409.5 40h20"></path>
<g class="terminal">
<path d="M429.5 40h0"></path>
<path d="M492 40h0"></path>
<rect x="429.5" y="29" width="62.5" height="22" rx="10" ry="10"></rect>
<text x="460.75" y="44">!"( "</text>
</g>
<path d="M492 40h20"></path>
<path d="M409.5 40a10 10 0 0 1 10 10v10a10 10 0 0 0 10 10"></path>
<g class="terminal">
<path d="M429.5 70h0"></path>
<path d="M483.5 70h8.5"></path>
<rect x="429.5" y="59" width="54" height="22" rx="10" ry="10"></rect>
<text x="456.5" y="74">!"("</text>
</g>
<path d="M492 70a10 10 0 0 0 10 -10v-10a10 10 0 0 1 10 -10"></path>
</g>
<g>
<path d="M512 40h0"></path>
<path d="M985.5 40h0"></path>
<path d="M512 40a10 10 0 0 0 10 -10v0a10 10 0 0 1 10 -10"></path>
<g>
<path d="M532 20h433.5"></path>
</g>
<path d="M965.5 20a10 10 0 0 1 10 10v0a10 10 0 0 0 10 10"></path>
<path d="M512 40h20"></path>
<g>
<path d="M532 40h0"></path>
<path d="M965.5 40h0"></path>
<path d="M532 40h20"></path>
<g class="non-terminal">
<path d="M552 40h0"></path>
<path d="M623 40h322.5"></path>
<rect x="552" y="29" width="71" height="22"></rect>
<a xlink:href="#/abap/expression/Source"><text x="587.5" y="44">Source</text>
</a>
</g>
<path d="M945.5 40h20"></path>
<path d="M532 40a10 10 0 0 1 10 10v10a10 10 0 0 0 10 10"></path>
<g class="non-terminal">
<path d="M552 70h0"></path>
<path d="M691 70h254.5"></path>
<rect x="552" y="59" width="139" height="22"></rect>
<a xlink:href="#/abap/expression/ParameterListS"><text x="621.5" y="74">ParameterListS</text>
</a>
</g>
<path d="M945.5 70a10 10 0 0 0 10 -10v-10a10 10 0 0 1 10 -10"></path>
<path d="M532 40a10 10 0 0 1 10 10v49a10 10 0 0 0 10 10"></path>
<g>
<path d="M552 109h0"></path>
<path d="M945.5 109h0"></path>
<g class="terminal">
<path d="M552 109h0"></path>
<path d="M648.5 109h0"></path>
<rect x="552" y="98" width="96.5" height="22" rx="10" ry="10"></rect>
<text x="600.25" y="113">"MESSAGE"</text>
</g>
<path d="M648.5 109h10"></path>
<path d="M658.5 109h10"></path>
<g class="non-terminal">
<path d="M668.5 109h0"></path>
<path d="M799 109h0"></path>
<rect x="668.5" y="98" width="130.5" height="22"></rect>
<a xlink:href="#/abap/expression/MessageSource"><text x="733.75" y="113">MessageSource</text>
</a>
</g>
<path d="M799 109h10"></path>
<g>
<path d="M809 109h0"></path>
<path d="M945.5 109h0"></path>
<path d="M809 109a10 10 0 0 0 10 -10v0a10 10 0 0 1 10 -10"></path>
<g>
<path d="M829 89h96.5"></path>
</g>
<path d="M925.5 89a10 10 0 0 1 10 10v0a10 10 0 0 0 10 10"></path>
<path d="M809 109h20"></path>
<g class="non-terminal">
<path d="M829 109h0"></path>
<path d="M925.5 109h0"></path>
<rect x="829" y="98" width="96.5" height="22"></rect>
<a xlink:href="#/abap/expression/RaiseWith"><text x="877.25" y="113">RaiseWith</text>
</a>
</g>
<path d="M925.5 109h20"></path>
</g>
</g>
<path d="M945.5 109a10 10 0 0 0 10 -10v-49a10 10 0 0 1 10 -10"></path>
</g>
<path d="M965.5 40h20"></path>
</g>
<g>
<path d="M985.5 40h0"></path>
<path d="M1096.5 40h0"></path>
<path d="M985.5 40h20"></path>
<g class="terminal">
<path d="M1005.5 40h0"></path>
<path d="M1076.5 40h0"></path>
<rect x="1005.5" y="29" width="71" height="22" rx="10" ry="10"></rect>
<text x="1041" y="44">!" ) "</text>
</g>
<path d="M1076.5 40h20"></path>
<path d="M985.5 40a10 10 0 0 1 10 10v10a10 10 0 0 0 10 10"></path>
<g class="terminal">
<path d="M1005.5 70h0"></path>
<path d="M1068 70h8.5"></path>
<rect x="1005.5" y="59" width="62.5" height="22" rx="10" ry="10"></rect>
<text x="1036.75" y="74">!") "</text>
</g>
<path d="M1076.5 70a10 10 0 0 0 10 -10v-10a10 10 0 0 1 10 -10"></path>
</g>
</g>
<path d="M1096.5 40h10"></path>
<path d="M 1106.5 40 h 20 m 0 -10 v 20"></path>
</g>
</svg>
