<svg xmlns="http://www.w3.org/2000/svg" xmlns:xlink="http://www.w3.org/1999/xlink" class="railroad-diagram" width="1164" height="101" viewBox="0 0 1164 101">
<defs>
<style type="text/css"><![CDATA[
path {
stroke-width: 3;
stroke: black;
fill: rgba(0,0,0,0);
}
text {
font: bold 14px monospace;
text-anchor: middle;
}
text.diagram-text {
font-size: 12px;
}
a {
fill: blue;
}
text.diagram-arrow {
font-size: 16px;
}
text.label {
text-anchor: start;
}
text.comment {
font: italic 12px monospace;
}
rect {
stroke-width: 3;
stroke: black;
fill: #BCBCBC;
}
path.diagram-text {
stroke-width: 3;
stroke: black;
fill: #BCBCBC;
cursor: help;
}
]]></style>
</defs>
<g transform="translate(.5 .5)">
<g>
<path d="M20 30v20m0 -10h20"></path>
</g>
<path d="M40 40h10"></path>
<g>
<path d="M50 40h0"></path>
<path d="M1114 40h0"></path>
<g class="comment ">
<path d="M50 40h0"></path>
<path d="M88 40h0"></path>
<text x="69" y="45" class="comment">7.65</text>
</g>
<path d="M88 40h10"></path>
<path d="M98 40h10"></path>
<g>
<path d="M108 40h0"></path>
<path d="M1114 40h0"></path>
<g class="terminal ">
<path d="M108 40h0"></path>
<path d="M179 40h0"></path>
<rect x="108" y="29" width="71" height="22" rx="10" ry="10"></rect>
<text x="143.5" y="44">"JOIN"</text>
</g>
<path d="M179 40h10"></path>
<g>
<path d="M189 40h0"></path>
<path d="M402 40h0"></path>
<path d="M189 40a10 10 0 0 0 10 -10v0a10 10 0 0 1 10 -10"></path>
<g>
<path d="M209 20h173"></path>
</g>
<path d="M382 20a10 10 0 0 1 10 10v0a10 10 0 0 0 10 10"></path>
<path d="M189 40h20"></path>
<g class="terminal ">
<path d="M209 40h0"></path>
<path d="M382 40h0"></path>
<rect x="209" y="29" width="173" height="22" rx="10" ry="10"></rect>
<text x="295.5" y="44">^#&#91;A-Z&#93;&#91;A-Z0-9&#95;&#93;&#42;$</text>
</g>
<path d="M382 40h20"></path>
</g>
<g>
<path d="M402 40h0"></path>
<path d="M589.5 40h0"></path>
<path d="M402 40a10 10 0 0 0 10 -10v0a10 10 0 0 1 10 -10"></path>
<g>
<path d="M422 20h147.5"></path>
</g>
<path d="M569.5 20a10 10 0 0 1 10 10v0a10 10 0 0 0 10 10"></path>
<path d="M402 40h20"></path>
<g class="non-terminal ">
<path d="M422 40h0"></path>
<path d="M569.5 40h0"></path>
<rect x="422" y="29" width="147.5" height="22"></rect>
<a xlink:href="#/abap/expression/SQLPathJoinType"><text x="495.75" y="44">SQLPathJoinType</text>
</a>
</g>
<path d="M569.5 40h20"></path>
</g>
<g>
<path d="M589.5 40h0"></path>
<path d="M760 40h0"></path>
<path d="M589.5 40h20"></path>
<g class="non-terminal ">
<path d="M609.5 40h0"></path>
<path d="M740 40h0"></path>
<rect x="609.5" y="29" width="130.5" height="22"></rect>
<a xlink:href="#/abap/expression/DatabaseTable"><text x="674.75" y="44">DatabaseTable</text>
</a>
</g>
<path d="M740 40h20"></path>
<path d="M589.5 40a10 10 0 0 1 10 10v10a10 10 0 0 0 10 10"></path>
<g class="non-terminal ">
<path d="M609.5 70h21.25"></path>
<path d="M718.75 70h21.25"></path>
<rect x="630.75" y="59" width="88" height="22"></rect>
<a xlink:href="#/abap/expression/WithName"><text x="674.75" y="74">WithName</text>
</a>
</g>
<path d="M740 70a10 10 0 0 0 10 -10v-10a10 10 0 0 1 10 -10"></path>
</g>
<path d="M760 40h10"></path>
<g class="terminal ">
<path d="M770 40h0"></path>
<path d="M824 40h0"></path>
<rect x="770" y="29" width="54" height="22" rx="10" ry="10"></rect>
<text x="797" y="44">"AS"</text>
</g>
<path d="M824 40h10"></path>
<path d="M834 40h10"></path>
<g class="non-terminal ">
<path d="M844 40h0"></path>
<path d="M940.5 40h0"></path>
<rect x="844" y="29" width="96.5" height="22"></rect>
<a xlink:href="#/abap/expression/SQLAsName"><text x="892.25" y="44">SQLAsName</text>
</a>
</g>
<path d="M940.5 40h10"></path>
<path d="M950.5 40h10"></path>
<g class="terminal ">
<path d="M960.5 40h0"></path>
<path d="M1014.5 40h0"></path>
<rect x="960.5" y="29" width="54" height="22" rx="10" ry="10"></rect>
<text x="987.5" y="44">"ON"</text>
</g>
<path d="M1014.5 40h10"></path>
<path d="M1024.5 40h10"></path>
<g class="non-terminal ">
<path d="M1034.5 40h0"></path>
<path d="M1114 40h0"></path>
<rect x="1034.5" y="29" width="79.5" height="22"></rect>
<a xlink:href="#/abap/expression/SQLCond"><text x="1074.25" y="44">SQLCond</text>
</a>
</g>
</g>
</g>
<path d="M1114 40h10"></path>
<path d="M 1124 40 h 20 m 0 -10 v 20"></path>
</g>
</svg>
