<svg xmlns="http://www.w3.org/2000/svg" xmlns:xlink="http://www.w3.org/1999/xlink" class="railroad-diagram" width="1001" height="268" viewBox="0 0 1001 268">
<defs>
<style type="text/css"><![CDATA[
path {
stroke-width: 3;
stroke: black;
fill: rgba(0,0,0,0);
}
text {
font: bold 14px monospace;
text-anchor: middle;
}
text.diagram-text {
font-size: 12px;
}
a {
fill: blue;
}
text.diagram-arrow {
font-size: 16px;
}
text.label {
text-anchor: start;
}
text.comment {
font: italic 12px monospace;
}
rect {
stroke-width: 3;
stroke: black;
fill: #BCBCBC;
}
path.diagram-text {
stroke-width: 3;
stroke: black;
fill: #BCBCBC;
cursor: help;
}
]]></style>
</defs>
<g transform="translate(.5 .5)">
<g>
<path d="M20 21v20m0 -10h20"></path>
</g>
<path d="M40 31h10"></path>
<g>
<path d="M50 31h0"></path>
<path d="M951 31h0"></path>
<g class="terminal">
<path d="M50 31h0"></path>
<path d="M104 31h0"></path>
<rect x="50" y="20" width="54" height="22" rx="10" ry="10"></rect>
<text x="77" y="35">"IN"</text>
</g>
<path d="M104 31h10"></path>
<g>
<path d="M114 31h0"></path>
<path d="M951 31h0"></path>
<path d="M114 31h20"></path>
<g>
<path d="M134 31h0"></path>
<path d="M336 31h595"></path>
<g class="terminal">
<path d="M134 31h0"></path>
<path d="M179.5 31h0"></path>
<rect x="134" y="20" width="45.5" height="22" rx="10" ry="10"></rect>
<text x="156.75" y="35">"("</text>
</g>
<path d="M179.5 31h10"></path>
<path d="M189.5 31h10"></path>
<g class="non-terminal">
<path d="M199.5 31h0"></path>
<path d="M270.5 31h0"></path>
<rect x="199.5" y="20" width="71" height="22"></rect>
<a xlink:href="#/abap/expression/Select"><text x="235" y="35">Select</text>
</a>
</g>
<path d="M270.5 31h10"></path>
<path d="M280.5 31h10"></path>
<g class="terminal">
<path d="M290.5 31h0"></path>
<path d="M336 31h0"></path>
<rect x="290.5" y="20" width="45.5" height="22" rx="10" ry="10"></rect>
<text x="313.25" y="35">")"</text>
</g>
</g>
<path d="M931 31h20"></path>
<path d="M114 31a10 10 0 0 1 10 10v19a10 10 0 0 0 10 10"></path>
<g>
<path d="M134 70h0"></path>
<path d="M912.5 70h18.5"></path>
<g class="terminal">
<path d="M134 70h0"></path>
<path d="M196.5 70h0"></path>
<rect x="134" y="59" width="62.5" height="22" rx="10" ry="10"></rect>
<text x="165.25" y="74">!" ("</text>
</g>
<path d="M196.5 70h10"></path>
<g>
<path d="M206.5 70h0"></path>
<path d="M579.5 70h0"></path>
<path d="M206.5 70h20"></path>
<g>
<path d="M226.5 70h0"></path>
<path d="M559.5 70h0"></path>
<g>
<path d="M226.5 70h0"></path>
<path d="M383.5 70h0"></path>
<text x="305" y="75" class="comment">v740sp05 or open-abap</text>
</g>
<path d="M383.5 70h10"></path>
<path d="M393.5 70h10"></path>
<g class="non-terminal">
<path d="M403.5 70h0"></path>
<path d="M559.5 70h0"></path>
<rect x="403.5" y="59" width="156" height="22"></rect>
<a xlink:href="#/abap/expression/SQLSourceNoSpace"><text x="481.5" y="74">SQLSourceNoSpace</text>
</a>
</g>
</g>
<path d="M559.5 70h20"></path>
<path d="M206.5 70a10 10 0 0 1 10 10v10a10 10 0 0 0 10 10"></path>
<g class="non-terminal">
<path d="M226.5 100h0"></path>
<path d="M323 100h236.5"></path>
<rect x="226.5" y="89" width="96.5" height="22"></rect>
<a xlink:href="#/abap/expression/SQLSource"><text x="274.75" y="104">SQLSource</text>
</a>
</g>
<path d="M559.5 100a10 10 0 0 0 10 -10v-10a10 10 0 0 1 10 -10"></path>
</g>
<g>
<path d="M579.5 70h0"></path>
<path d="M801.5 70h0"></path>
<path d="M579.5 70a10 10 0 0 0 10 -10v0a10 10 0 0 1 10 -10"></path>
<g>
<path d="M599.5 50h182"></path>
</g>
<path d="M781.5 50a10 10 0 0 1 10 10v0a10 10 0 0 0 10 10"></path>
<path d="M579.5 70h20"></path>
<g>
<path d="M599.5 70h0"></path>
<path d="M781.5 70h0"></path>
<path d="M599.5 70h10"></path>
<g>
<path d="M609.5 70h0"></path>
<path d="M771.5 70h0"></path>
<g class="terminal">
<path d="M609.5 70h0"></path>
<path d="M655 70h0"></path>
<rect x="609.5" y="59" width="45.5" height="22" rx="10" ry="10"></rect>
<text x="632.25" y="74">","</text>
</g>
<path d="M655 70h10"></path>
<path d="M665 70h10"></path>
<g class="non-terminal">
<path d="M675 70h0"></path>
<path d="M771.5 70h0"></path>
<rect x="675" y="59" width="96.5" height="22"></rect>
<a xlink:href="#/abap/expression/SQLSource"><text x="723.25" y="74">SQLSource</text>
</a>
</g>
</g>
<path d="M771.5 70h10"></path>
<path d="M609.5 70a10 10 0 0 0 -10 10v0a10 10 0 0 0 10 10"></path>
<g>
<path d="M609.5 90h162"></path>
</g>
<path d="M771.5 90a10 10 0 0 0 10 -10v0a10 10 0 0 0 -10 -10"></path>
</g>
<path d="M781.5 70h20"></path>
</g>
<g>
<path d="M801.5 70h0"></path>
<path d="M912.5 70h0"></path>
<path d="M801.5 70h20"></path>
<g class="terminal">
<path d="M821.5 70h0"></path>
<path d="M875.5 70h17"></path>
<rect x="821.5" y="59" width="54" height="22" rx="10" ry="10"></rect>
<text x="848.5" y="74">!")"</text>
</g>
<path d="M892.5 70h20"></path>
<path d="M801.5 70a10 10 0 0 1 10 10v10a10 10 0 0 0 10 10"></path>
<g class="terminal">
<path d="M821.5 100h0"></path>
<path d="M884 100h8.5"></path>
<rect x="821.5" y="89" width="62.5" height="22" rx="10" ry="10"></rect>
<text x="852.75" y="104">!") "</text>
</g>
<path d="M892.5 100a10 10 0 0 0 10 -10v-10a10 10 0 0 1 10 -10"></path>
<path d="M801.5 70a10 10 0 0 1 10 10v40a10 10 0 0 0 10 10"></path>
<g class="terminal">
<path d="M821.5 130h0"></path>
<path d="M892.5 130h0"></path>
<rect x="821.5" y="119" width="71" height="22" rx="10" ry="10"></rect>
<text x="857" y="134">!" ) "</text>
</g>
<path d="M892.5 130a10 10 0 0 0 10 -10v-40a10 10 0 0 1 10 -10"></path>
</g>
</g>
<path d="M931 70a10 10 0 0 0 10 -10v-19a10 10 0 0 1 10 -10"></path>
<path d="M114 31a10 10 0 0 1 10 10v118a10 10 0 0 0 10 10"></path>
<g>
<path d="M134 169h0"></path>
<path d="M931 169h0"></path>
<g>
<path d="M134 169h0"></path>
<path d="M291 169h0"></path>
<text x="212.5" y="174" class="comment">v740sp02 or open-abap</text>
</g>
<path d="M291 169h10"></path>
<path d="M301 169h10"></path>
<g>
<path d="M311 169h0"></path>
<path d="M931 169h0"></path>
<g class="terminal">
<path d="M311 169h0"></path>
<path d="M382 169h0"></path>
<rect x="311" y="158" width="71" height="22" rx="10" ry="10"></rect>
<text x="346.5" y="173">!" ( "</text>
</g>
<path d="M382 169h10"></path>
<path d="M392 169h10"></path>
<g class="non-terminal">
<path d="M402 169h0"></path>
<path d="M498.5 169h0"></path>
<rect x="402" y="158" width="96.5" height="22"></rect>
<a xlink:href="#/abap/expression/SQLSource"><text x="450.25" y="173">SQLSource</text>
</a>
</g>
<path d="M498.5 169h10"></path>
<g>
<path d="M508.5 169h0"></path>
<path d="M820 169h0"></path>
<path d="M508.5 169a10 10 0 0 0 10 -10v0a10 10 0 0 1 10 -10"></path>
<g>
<path d="M528.5 149h271.5"></path>
</g>
<path d="M800 149a10 10 0 0 1 10 10v0a10 10 0 0 0 10 10"></path>
<path d="M508.5 169h20"></path>
<g>
<path d="M528.5 169h0"></path>
<path d="M800 169h0"></path>
<path d="M528.5 169h10"></path>
<g>
<path d="M538.5 169h0"></path>
<path d="M790 169h0"></path>
<g class="terminal">
<path d="M538.5 169h0"></path>
<path d="M584 169h0"></path>
<rect x="538.5" y="158" width="45.5" height="22" rx="10" ry="10"></rect>
<text x="561.25" y="173">","</text>
</g>
<path d="M584 169h10"></path>
<g>
<path d="M594 169h0"></path>
<path d="M790 169h0"></path>
<path d="M594 169h20"></path>
<g class="non-terminal">
<path d="M614 169h0"></path>
<path d="M770 169h0"></path>
<rect x="614" y="158" width="156" height="22"></rect>
<a xlink:href="#/abap/expression/SQLSourceNoSpace"><text x="692" y="173">SQLSourceNoSpace</text>
</a>
</g>
<path d="M770 169h20"></path>
<path d="M594 169a10 10 0 0 1 10 10v10a10 10 0 0 0 10 10"></path>
<g class="non-terminal">
<path d="M614 199h0"></path>
<path d="M710.5 199h59.5"></path>
<rect x="614" y="188" width="96.5" height="22"></rect>
<a xlink:href="#/abap/expression/SQLSource"><text x="662.25" y="203">SQLSource</text>
</a>
</g>
<path d="M770 199a10 10 0 0 0 10 -10v-10a10 10 0 0 1 10 -10"></path>
</g>
</g>
<path d="M790 169h10"></path>
<path d="M538.5 169a10 10 0 0 0 -10 10v29a10 10 0 0 0 10 10"></path>
<g>
<path d="M538.5 218h251.5"></path>
</g>
<path d="M790 218a10 10 0 0 0 10 -10v-29a10 10 0 0 0 -10 -10"></path>
</g>
<path d="M800 169h20"></path>
</g>
<g>
<path d="M820 169h0"></path>
<path d="M931 169h0"></path>
<path d="M820 169h20"></path>
<g class="terminal">
<path d="M840 169h0"></path>
<path d="M902.5 169h8.5"></path>
<rect x="840" y="158" width="62.5" height="22" rx="10" ry="10"></rect>
<text x="871.25" y="173">!" )"</text>
</g>
<path d="M911 169h20"></path>
<path d="M820 169a10 10 0 0 1 10 10v10a10 10 0 0 0 10 10"></path>
<g class="terminal">
<path d="M840 199h0"></path>
<path d="M911 199h0"></path>
<rect x="840" y="188" width="71" height="22" rx="10" ry="10"></rect>
<text x="875.5" y="203">!" ) "</text>
</g>
<path d="M911 199a10 10 0 0 0 10 -10v-10a10 10 0 0 1 10 -10"></path>
</g>
</g>
</g>
<path d="M931 169a10 10 0 0 0 10 -10v-118a10 10 0 0 1 10 -10"></path>
<path d="M114 31a10 10 0 0 1 10 10v186a10 10 0 0 0 10 10"></path>
<g class="non-terminal">
<path d="M134 237h0"></path>
<path d="M230.5 237h700.5"></path>
<rect x="134" y="226" width="96.5" height="22"></rect>
<a xlink:href="#/abap/expression/SQLSource"><text x="182.25" y="241">SQLSource</text>
</a>
</g>
<path d="M931 237a10 10 0 0 0 10 -10v-186a10 10 0 0 1 10 -10"></path>
</g>
</g>
<path d="M951 31h10"></path>
<path d="M 961 31 h 20 m 0 -10 v 20"></path>
</g>
</svg>
