<svg xmlns="http://www.w3.org/2000/svg" xmlns:xlink="http://www.w3.org/1999/xlink" class="railroad-diagram" width="1177" height="131" viewBox="0 0 1177 131">
<defs>
<style type="text/css"><![CDATA[
path {
stroke-width: 3;
stroke: black;
fill: rgba(0,0,0,0);
}
text {
font: bold 14px monospace;
text-anchor: middle;
}
text.diagram-text {
font-size: 12px;
}
a {
fill: blue;
}
text.diagram-arrow {
font-size: 16px;
}
text.label {
text-anchor: start;
}
text.comment {
font: italic 12px monospace;
}
rect {
stroke-width: 3;
stroke: black;
fill: #BCBCBC;
}
path.diagram-text {
stroke-width: 3;
stroke: black;
fill: #BCBCBC;
cursor: help;
}
]]></style>
</defs>
<g transform="translate(.5 .5)">
<g>
<path d="M20 30v20m0 -10h20"></path>
</g>
<path d="M40 40h10"></path>
<g>
<path d="M50 40h0"></path>
<path d="M1127 40h0"></path>
<g class="non-terminal ">
<path d="M50 40h0"></path>
<path d="M206 40h0"></path>
<rect x="50" y="29" width="156" height="22"></rect>
<a xlink:href="#/abap/expression/SQLFunctionInput"><text x="128" y="44">SQLFunctionInput</text>
</a>
</g>
<path d="M206 40h10"></path>
<g>
<path d="M216 40h0"></path>
<path d="M887 40h0"></path>
<path d="M216 40a10 10 0 0 0 10 -10v0a10 10 0 0 1 10 -10"></path>
<g>
<path d="M236 20h631"></path>
</g>
<path d="M867 20a10 10 0 0 1 10 10v0a10 10 0 0 0 10 10"></path>
<path d="M216 40h20"></path>
<g>
<path d="M236 40h0"></path>
<path d="M867 40h0"></path>
<g class="terminal ">
<path d="M236 40h0"></path>
<path d="M307 40h0"></path>
<rect x="236" y="29" width="71" height="22" rx="10" ry="10"></rect>
<text x="271.5" y="44">"FLAG"</text>
</g>
<path d="M307 40h10"></path>
<g>
<path d="M317 40h0"></path>
<path d="M867 40h0"></path>
<path d="M317 40h20"></path>
<g>
<path d="M337 40h0"></path>
<path d="M847 40h0"></path>
<g class="terminal ">
<path d="M337 40h0"></path>
<path d="M408 40h0"></path>
<rect x="337" y="29" width="71" height="22" rx="10" ry="10"></rect>
<text x="372.5" y="44">!"WAt"</text>
</g>
<path d="M408 40h10"></path>
<g>
<path d="M418 40h0"></path>
<path d="M847 40h0"></path>
<path d="M418 40h20"></path>
<g class="non-terminal ">
<path d="M438 40h129.25"></path>
<path d="M697.75 40h129.25"></path>
<rect x="567.25" y="29" width="130.5" height="22"></rect>
<a xlink:href="#/abap/expression/SimpleSource3"><text x="632.5" y="44">SimpleSource3</text>
</a>
</g>
<path d="M827 40h20"></path>
<path d="M418 40a10 10 0 0 1 10 10v10a10 10 0 0 0 10 10"></path>
<g>
<path d="M438 70h0"></path>
<path d="M827 70h0"></path>
<g class="terminal ">
<path d="M438 70h0"></path>
<path d="M568.5 70h0"></path>
<rect x="438" y="59" width="130.5" height="22" rx="10" ry="10"></rect>
<text x="503.25" y="74">!"ParenLeftW"</text>
</g>
<path d="M568.5 70h10"></path>
<path d="M578.5 70h10"></path>
<g class="non-terminal ">
<path d="M588.5 70h0"></path>
<path d="M659.5 70h0"></path>
<rect x="588.5" y="59" width="71" height="22"></rect>
<a xlink:href="#/abap/expression/Source"><text x="624" y="74">Source</text>
</a>
</g>
<path d="M659.5 70h10"></path>
<path d="M669.5 70h10"></path>
<g class="terminal ">
<path d="M679.5 70h0"></path>
<path d="M827 70h0"></path>
<rect x="679.5" y="59" width="147.5" height="22" rx="10" ry="10"></rect>
<text x="753.25" y="74">!"WParenRightW"</text>
</g>
</g>
<path d="M827 70a10 10 0 0 0 10 -10v-10a10 10 0 0 1 10 -10"></path>
</g>
</g>
<path d="M847 40h20"></path>
<path d="M317 40a10 10 0 0 1 10 10v40a10 10 0 0 0 10 10"></path>
<g class="non-terminal ">
<path d="M337 100h177"></path>
<path d="M670 100h177"></path>
<rect x="514" y="89" width="156" height="22"></rect>
<a xlink:href="#/abap/expression/SQLFunctionInput"><text x="592" y="104">SQLFunctionInput</text>
</a>
</g>
<path d="M847 100a10 10 0 0 0 10 -10v-40a10 10 0 0 1 10 -10"></path>
</g>
</g>
<path d="M867 40h20"></path>
</g>
<path d="M887 40h10"></path>
<g class="terminal ">
<path d="M897 40h0"></path>
<path d="M951 40h0"></path>
<rect x="897" y="29" width="54" height="22" rx="10" ry="10"></rect>
<text x="924" y="44">"IN"</text>
</g>
<path d="M951 40h10"></path>
<path d="M961 40h10"></path>
<g class="non-terminal ">
<path d="M971 40h0"></path>
<path d="M1127 40h0"></path>
<rect x="971" y="29" width="156" height="22"></rect>
<a xlink:href="#/abap/expression/SQLFunctionInput"><text x="1049" y="44">SQLFunctionInput</text>
</a>
</g>
</g>
<path d="M1127 40h10"></path>
<path d="M 1137 40 h 20 m 0 -10 v 20"></path>
</g>
</svg>
