<svg xmlns="http://www.w3.org/2000/svg" xmlns:xlink="http://www.w3.org/1999/xlink" class="railroad-diagram" width="438" height="62" viewBox="0 0 438 62">
<defs>
<style type="text/css"><![CDATA[
path {
stroke-width: 3;
stroke: black;
fill: rgba(0,0,0,0);
}
text {
font: bold 14px monospace;
text-anchor: middle;
}
text.diagram-text {
font-size: 12px;
}
a {
fill: blue;
}
text.diagram-arrow {
font-size: 16px;
}
text.label {
text-anchor: start;
}
text.comment {
font: italic 12px monospace;
}
rect {
stroke-width: 3;
stroke: black;
fill: #BCBCBC;
}
path.diagram-text {
stroke-width: 3;
stroke: black;
fill: #BCBCBC;
cursor: help;
}
]]></style>
</defs>
<g transform="translate(.5 .5)">
<g>
<path d="M20 21v20m0 -10h20"></path>
</g>
<path d="M40 31h10"></path>
<g>
<path d="M50 31h0"></path>
<path d="M388 31h0"></path>
<g class="terminal ">
<path d="M50 31h0"></path>
<path d="M214.5 31h0"></path>
<rect x="50" y="20" width="164.5" height="22" rx="10" ry="10"></rect>
<text x="132.25" y="35">"EXTENDED RESULT"</text>
</g>
<path d="M214.5 31h10"></path>
<path d="M224.5 31h10"></path>
<g class="terminal ">
<path d="M234.5 31h0"></path>
<path d="M305.5 31h0"></path>
<rect x="234.5" y="20" width="71" height="22" rx="10" ry="10"></rect>
<text x="270" y="35">!"WAt"</text>
</g>
<path d="M305.5 31h10"></path>
<path d="M315.5 31h10"></path>
<g class="terminal ">
<path d="M325.5 31h0"></path>
<path d="M388 31h0"></path>
<rect x="325.5" y="20" width="62.5" height="22" rx="10" ry="10"></rect>
<text x="356.75" y="35">^\w+$</text>
</g>
</g>
<path d="M388 31h10"></path>
<path d="M 398 31 h 20 m 0 -10 v 20"></path>
</g>
</svg>
