<svg xmlns="http://www.w3.org/2000/svg" xmlns:xlink="http://www.w3.org/1999/xlink" class="railroad-diagram" width="714" height="140" viewBox="0 0 714 140">
<defs>
<style type="text/css"><![CDATA[
path {
stroke-width: 3;
stroke: black;
fill: rgba(0,0,0,0);
}
text {
font: bold 14px monospace;
text-anchor: middle;
}
text.diagram-text {
font-size: 12px;
}
a {
fill: blue;
}
text.diagram-arrow {
font-size: 16px;
}
text.label {
text-anchor: start;
}
text.comment {
font: italic 12px monospace;
}
rect {
stroke-width: 3;
stroke: black;
fill: #BCBCBC;
}
path.diagram-text {
stroke-width: 3;
stroke: black;
fill: #BCBCBC;
cursor: help;
}
]]></style>
</defs>
<g transform="translate(.5 .5)">
<g>
<path d="M20 30v20m0 -10h20"></path>
</g>
<path d="M40 40h10"></path>
<g>
<path d="M50 40h0"></path>
<path d="M664 40h0"></path>
<g>
<path d="M50 40h0"></path>
<path d="M229 40h0"></path>
<path d="M50 40h20"></path>
<g class="terminal">
<path d="M70 40h0"></path>
<path d="M209 40h0"></path>
<rect x="70" y="29" width="139" height="22" rx="10" ry="10"></rect>
<text x="139.5" y="44">!"WParenLeftW"</text>
</g>
<path d="M209 40h20"></path>
<path d="M50 40a10 10 0 0 1 10 10v10a10 10 0 0 0 10 10"></path>
<g class="terminal">
<path d="M70 70h0"></path>
<path d="M200.5 70h8.5"></path>
<rect x="70" y="59" width="130.5" height="22" rx="10" ry="10"></rect>
<text x="135.25" y="74">!"WParenLeft"</text>
</g>
<path d="M209 70a10 10 0 0 0 10 -10v-10a10 10 0 0 1 10 -10"></path>
</g>
<g>
<path d="M229 40h0"></path>
<path d="M476.5 40h0"></path>
<path d="M229 40a10 10 0 0 0 10 -10v0a10 10 0 0 1 10 -10"></path>
<g>
<path d="M249 20h207.5"></path>
</g>
<path d="M456.5 20a10 10 0 0 1 10 10v0a10 10 0 0 0 10 10"></path>
<path d="M229 40h20"></path>
<g>
<path d="M249 40h0"></path>
<path d="M456.5 40h0"></path>
<path d="M249 40h20"></path>
<g>
<path d="M269 40h0"></path>
<path d="M436.5 40h0"></path>
<path d="M269 40h10"></path>
<g class="non-terminal">
<path d="M279 40h0"></path>
<path d="M426.5 40h0"></path>
<rect x="279" y="29" width="147.5" height="22"></rect>
<a xlink:href="#/abap/expression/FieldAssignment"><text x="352.75" y="44">FieldAssignment</text>
</a>
</g>
<path d="M426.5 40h10"></path>
<path d="M279 40a10 10 0 0 0 -10 10v0a10 10 0 0 0 10 10"></path>
<g>
<path d="M279 60h147.5"></path>
</g>
<path d="M426.5 60a10 10 0 0 0 10 -10v0a10 10 0 0 0 -10 -10"></path>
</g>
<path d="M436.5 40h20"></path>
<path d="M249 40a10 10 0 0 1 10 10v19a10 10 0 0 0 10 10"></path>
<g class="non-terminal">
<path d="M269 79h0"></path>
<path d="M408 79h28.5"></path>
<rect x="269" y="68" width="139" height="22"></rect>
<a xlink:href="#/abap/expression/ValueBodyLines"><text x="338.5" y="83">ValueBodyLines</text>
</a>
</g>
<path d="M436.5 79a10 10 0 0 0 10 -10v-19a10 10 0 0 1 10 -10"></path>
<path d="M249 40a10 10 0 0 1 10 10v49a10 10 0 0 0 10 10"></path>
<g class="non-terminal">
<path d="M269 109h0"></path>
<path d="M340 109h96.5"></path>
<rect x="269" y="98" width="71" height="22"></rect>
<a xlink:href="#/abap/expression/Source"><text x="304.5" y="113">Source</text>
</a>
</g>
<path d="M436.5 109a10 10 0 0 0 10 -10v-49a10 10 0 0 1 10 -10"></path>
</g>
<path d="M456.5 40h20"></path>
</g>
<g>
<path d="M476.5 40h0"></path>
<path d="M664 40h0"></path>
<path d="M476.5 40h20"></path>
<g class="terminal">
<path d="M496.5 40h0"></path>
<path d="M644 40h0"></path>
<rect x="496.5" y="29" width="147.5" height="22" rx="10" ry="10"></rect>
<text x="570.25" y="44">!"WParenRightW"</text>
</g>
<path d="M644 40h20"></path>
<path d="M476.5 40a10 10 0 0 1 10 10v10a10 10 0 0 0 10 10"></path>
<g class="terminal">
<path d="M496.5 70h0"></path>
<path d="M635.5 70h8.5"></path>
<rect x="496.5" y="59" width="139" height="22" rx="10" ry="10"></rect>
<text x="566" y="74">!"ParenRightW"</text>
</g>
<path d="M644 70a10 10 0 0 0 10 -10v-10a10 10 0 0 1 10 -10"></path>
</g>
</g>
<path d="M664 40h10"></path>
<path d="M 674 40 h 20 m 0 -10 v 20"></path>
</g>
</svg>
