<svg xmlns="http://www.w3.org/2000/svg" xmlns:xlink="http://www.w3.org/1999/xlink" class="railroad-diagram" width="793" height="122" viewBox="0 0 793 122">
<defs>
<style type="text/css"><![CDATA[
path {
stroke-width: 3;
stroke: black;
fill: rgba(0,0,0,0);
}
text {
font: bold 14px monospace;
text-anchor: middle;
}
text.diagram-text {
font-size: 12px;
}
a {
fill: blue;
}
text.diagram-arrow {
font-size: 16px;
}
text.label {
text-anchor: start;
}
text.comment {
font: italic 12px monospace;
}
rect {
stroke-width: 3;
stroke: black;
fill: #BCBCBC;
}
path.diagram-text {
stroke-width: 3;
stroke: black;
fill: #BCBCBC;
cursor: help;
}
]]></style>
</defs>
<g transform="translate(.5 .5)">
<g>
<path d="M20 21v20m0 -10h20"></path>
</g>
<g>
<path d="M40 31h0"></path>
<path d="M753 31h0"></path>
<path d="M40 31h20"></path>
<g class="non-terminal ">
<path d="M60 31h271.25"></path>
<path d="M461.75 31h271.25"></path>
<rect x="331.25" y="20" width="130.5" height="22"></rect>
<a xlink:href="#/abap/expression/SimpleSource3"><text x="396.5" y="35">SimpleSource3</text>
</a>
</g>
<path d="M733 31h20"></path>
<path d="M40 31a10 10 0 0 1 10 10v10a10 10 0 0 0 10 10"></path>
<g>
<path d="M60 61h0"></path>
<path d="M733 61h0"></path>
<g class="comment ">
<path d="M60 61h0"></path>
<path d="M203 61h0"></path>
<text x="131.5" y="66" class="comment">740SP05 or OpenABAP</text>
</g>
<path d="M203 61h10"></path>
<path d="M213 61h10"></path>
<g>
<path d="M223 61h0"></path>
<path d="M733 61h0"></path>
<g class="terminal ">
<path d="M223 61h0"></path>
<path d="M294 61h0"></path>
<rect x="223" y="50" width="71" height="22" rx="10" ry="10"></rect>
<text x="258.5" y="65">!"WAt"</text>
</g>
<path d="M294 61h10"></path>
<g>
<path d="M304 61h0"></path>
<path d="M733 61h0"></path>
<path d="M304 61h20"></path>
<g class="non-terminal ">
<path d="M324 61h129.25"></path>
<path d="M583.75 61h129.25"></path>
<rect x="453.25" y="50" width="130.5" height="22"></rect>
<a xlink:href="#/abap/expression/SimpleSource3"><text x="518.5" y="65">SimpleSource3</text>
</a>
</g>
<path d="M713 61h20"></path>
<path d="M304 61a10 10 0 0 1 10 10v10a10 10 0 0 0 10 10"></path>
<g>
<path d="M324 91h0"></path>
<path d="M713 91h0"></path>
<g class="terminal ">
<path d="M324 91h0"></path>
<path d="M454.5 91h0"></path>
<rect x="324" y="80" width="130.5" height="22" rx="10" ry="10"></rect>
<text x="389.25" y="95">!"ParenLeftW"</text>
</g>
<path d="M454.5 91h10"></path>
<path d="M464.5 91h10"></path>
<g class="non-terminal ">
<path d="M474.5 91h0"></path>
<path d="M545.5 91h0"></path>
<rect x="474.5" y="80" width="71" height="22"></rect>
<a xlink:href="#/abap/expression/Source"><text x="510" y="95">Source</text>
</a>
</g>
<path d="M545.5 91h10"></path>
<path d="M555.5 91h10"></path>
<g class="terminal ">
<path d="M565.5 91h0"></path>
<path d="M713 91h0"></path>
<rect x="565.5" y="80" width="147.5" height="22" rx="10" ry="10"></rect>
<text x="639.25" y="95">!"WParenRightW"</text>
</g>
</g>
<path d="M713 91a10 10 0 0 0 10 -10v-10a10 10 0 0 1 10 -10"></path>
</g>
</g>
</g>
<path d="M733 61a10 10 0 0 0 10 -10v-10a10 10 0 0 1 10 -10"></path>
</g>
<path d="M 753 31 h 20 m 0 -10 v 20"></path>
</g>
</svg>
