<svg xmlns="http://www.w3.org/2000/svg" xmlns:xlink="http://www.w3.org/1999/xlink" class="railroad-diagram" width="2365" height="234" viewBox="0 0 2365 234">
<defs>
<style type="text/css"><![CDATA[
path {
stroke-width: 3;
stroke: black;
fill: rgba(0,0,0,0);
}
text {
font: bold 14px monospace;
text-anchor: middle;
}
text.diagram-text {
font-size: 12px;
}
a {
fill: blue;
}
text.diagram-arrow {
font-size: 16px;
}
text.label {
text-anchor: start;
}
text.comment {
font: italic 12px monospace;
}
rect {
stroke-width: 3;
stroke: black;
fill: #BCBCBC;
}
path.diagram-text {
stroke-width: 3;
stroke: black;
fill: #BCBCBC;
cursor: help;
}
]]></style>
</defs>
<g transform="translate(.5 .5)">
<g>
<path d="M20 30v20m0 -10h20"></path>
</g>
<path d="M40 40h10"></path>
<g>
<path d="M50 40h0"></path>
<path d="M2315 40h0"></path>
<g class="comment ">
<path d="M50 40h0"></path>
<path d="M193 40h0"></path>
<text x="121.5" y="45" class="comment">740SP05 or OpenABAP</text>
</g>
<path d="M193 40h10"></path>
<path d="M203 40h10"></path>
<g>
<path d="M213 40h0"></path>
<path d="M2315 40h0"></path>
<g class="terminal ">
<path d="M213 40h0"></path>
<path d="M275.5 40h0"></path>
<rect x="213" y="29" width="62.5" height="22" rx="10" ry="10"></rect>
<text x="244.25" y="44">"FOR"</text>
</g>
<path d="M275.5 40h10"></path>
<g>
<path d="M285.5 40h0"></path>
<path d="M2229.5 40h0"></path>
<path d="M285.5 40h20"></path>
<g>
<path d="M305.5 40h650"></path>
<path d="M1559.5 40h650"></path>
<g class="non-terminal ">
<path d="M955.5 40h0"></path>
<path d="M1154 40h0"></path>
<rect x="955.5" y="29" width="198.5" height="22"></rect>
<a xlink:href="#/abap/expression/InlineFieldDefinition"><text x="1054.75" y="44">InlineFieldDefinition</text>
</a>
</g>
<path d="M1154 40h10"></path>
<g>
<path d="M1164 40h0"></path>
<path d="M1366 40h0"></path>
<path d="M1164 40a10 10 0 0 0 10 -10v0a10 10 0 0 1 10 -10"></path>
<g>
<path d="M1184 20h162"></path>
</g>
<path d="M1346 20a10 10 0 0 1 10 10v0a10 10 0 0 0 10 10"></path>
<path d="M1164 40h20"></path>
<g>
<path d="M1184 40h0"></path>
<path d="M1346 40h0"></path>
<g class="terminal ">
<path d="M1184 40h0"></path>
<path d="M1255 40h0"></path>
<rect x="1184" y="29" width="71" height="22" rx="10" ry="10"></rect>
<text x="1219.5" y="44">"THEN"</text>
</g>
<path d="M1255 40h10"></path>
<path d="M1265 40h10"></path>
<g class="non-terminal ">
<path d="M1275 40h0"></path>
<path d="M1346 40h0"></path>
<rect x="1275" y="29" width="71" height="22"></rect>
<a xlink:href="#/abap/expression/Source"><text x="1310.5" y="44">Source</text>
</a>
</g>
</g>
<path d="M1346 40h20"></path>
</g>
<path d="M1366 40h10"></path>
<g>
<path d="M1376 40h0"></path>
<path d="M1559.5 40h0"></path>
<g>
<path d="M1376 40h0"></path>
<path d="M1495.5 40h0"></path>
<path d="M1376 40h20"></path>
<g class="terminal ">
<path d="M1396 40h0"></path>
<path d="M1475.5 40h0"></path>
<rect x="1396" y="29" width="79.5" height="22" rx="10" ry="10"></rect>
<text x="1435.75" y="44">"UNTIL"</text>
</g>
<path d="M1475.5 40h20"></path>
<path d="M1376 40a10 10 0 0 1 10 10v10a10 10 0 0 0 10 10"></path>
<g class="terminal ">
<path d="M1396 70h0"></path>
<path d="M1475.5 70h0"></path>
<rect x="1396" y="59" width="79.5" height="22" rx="10" ry="10"></rect>
<text x="1435.75" y="74">"WHILE"</text>
</g>
<path d="M1475.5 70a10 10 0 0 0 10 -10v-10a10 10 0 0 1 10 -10"></path>
</g>
<path d="M1495.5 40h10"></path>
<g class="non-terminal ">
<path d="M1505.5 40h0"></path>
<path d="M1559.5 40h0"></path>
<rect x="1505.5" y="29" width="54" height="22"></rect>
<a xlink:href="#/abap/expression/Cond"><text x="1532.5" y="44">Cond</text>
</a>
</g>
</g>
</g>
<path d="M2209.5 40h20"></path>
<path d="M285.5 40a10 10 0 0 1 10 10v49a10 10 0 0 0 10 10"></path>
<g>
<path d="M305.5 109h482.25"></path>
<path d="M1727.25 109h482.25"></path>
<g class="non-terminal ">
<path d="M787.75 109h0"></path>
<path d="M977.75 109h0"></path>
<rect x="787.75" y="98" width="190" height="22"></rect>
<a xlink:href="#/abap/expression/InlineLoopDefinition"><text x="882.75" y="113">InlineLoopDefinition</text>
</a>
</g>
<path d="M977.75 109h10"></path>
<g>
<path d="M987.75 109h0"></path>
<path d="M1189.75 109h0"></path>
<path d="M987.75 109a10 10 0 0 0 10 -10v0a10 10 0 0 1 10 -10"></path>
<g>
<path d="M1007.75 89h162"></path>
</g>
<path d="M1169.75 89a10 10 0 0 1 10 10v0a10 10 0 0 0 10 10"></path>
<path d="M987.75 109h20"></path>
<g>
<path d="M1007.75 109h0"></path>
<path d="M1169.75 109h0"></path>
<g class="terminal ">
<path d="M1007.75 109h0"></path>
<path d="M1078.75 109h0"></path>
<rect x="1007.75" y="98" width="71" height="22" rx="10" ry="10"></rect>
<text x="1043.25" y="113">"FROM"</text>
</g>
<path d="M1078.75 109h10"></path>
<path d="M1088.75 109h10"></path>
<g class="non-terminal ">
<path d="M1098.75 109h0"></path>
<path d="M1169.75 109h0"></path>
<rect x="1098.75" y="98" width="71" height="22"></rect>
<a xlink:href="#/abap/expression/Source"><text x="1134.25" y="113">Source</text>
</a>
</g>
</g>
<path d="M1169.75 109h20"></path>
</g>
<g>
<path d="M1189.75 109h0"></path>
<path d="M1374.75 109h0"></path>
<path d="M1189.75 109a10 10 0 0 0 10 -10v0a10 10 0 0 1 10 -10"></path>
<g>
<path d="M1209.75 89h145"></path>
</g>
<path d="M1354.75 89a10 10 0 0 1 10 10v0a10 10 0 0 0 10 10"></path>
<path d="M1189.75 109h20"></path>
<g>
<path d="M1209.75 109h0"></path>
<path d="M1354.75 109h0"></path>
<g class="terminal ">
<path d="M1209.75 109h0"></path>
<path d="M1263.75 109h0"></path>
<rect x="1209.75" y="98" width="54" height="22" rx="10" ry="10"></rect>
<text x="1236.75" y="113">"TO"</text>
</g>
<path d="M1263.75 109h10"></path>
<path d="M1273.75 109h10"></path>
<g class="non-terminal ">
<path d="M1283.75 109h0"></path>
<path d="M1354.75 109h0"></path>
<rect x="1283.75" y="98" width="71" height="22"></rect>
<a xlink:href="#/abap/expression/Source"><text x="1319.25" y="113">Source</text>
</a>
</g>
</g>
<path d="M1354.75 109h20"></path>
</g>
<g>
<path d="M1374.75 109h0"></path>
<path d="M1727.25 109h0"></path>
<path d="M1374.75 109a10 10 0 0 0 10 -10v0a10 10 0 0 1 10 -10"></path>
<g>
<path d="M1394.75 89h312.5"></path>
</g>
<path d="M1707.25 89a10 10 0 0 1 10 10v0a10 10 0 0 0 10 10"></path>
<path d="M1374.75 109h20"></path>
<g>
<path d="M1394.75 109h0"></path>
<path d="M1707.25 109h0"></path>
<g class="terminal ">
<path d="M1394.75 109h0"></path>
<path d="M1491.25 109h0"></path>
<rect x="1394.75" y="98" width="96.5" height="22" rx="10" ry="10"></rect>
<text x="1443" y="113">"WHERE ("</text>
</g>
<path d="M1491.25 109h10"></path>
<path d="M1501.25 109h10"></path>
<g class="non-terminal ">
<path d="M1511.25 109h0"></path>
<path d="M1641.75 109h0"></path>
<rect x="1511.25" y="98" width="130.5" height="22"></rect>
<a xlink:href="#/abap/expression/ComponentCond"><text x="1576.5" y="113">ComponentCond</text>
</a>
</g>
<path d="M1641.75 109h10"></path>
<path d="M1651.75 109h10"></path>
<g class="terminal ">
<path d="M1661.75 109h0"></path>
<path d="M1707.25 109h0"></path>
<rect x="1661.75" y="98" width="45.5" height="22" rx="10" ry="10"></rect>
<text x="1684.5" y="113">")"</text>
</g>
</g>
<path d="M1707.25 109h20"></path>
</g>
</g>
<path d="M2209.5 109a10 10 0 0 0 10 -10v-49a10 10 0 0 1 10 -10"></path>
<path d="M285.5 40a10 10 0 0 1 10 10v104a10 10 0 0 0 10 10"></path>
<g>
<path d="M305.5 164h0"></path>
<path d="M2209.5 164h0"></path>
<g class="comment ">
<path d="M305.5 164h0"></path>
<path d="M364.5 164h0"></path>
<text x="335" y="169" class="comment">740SP08</text>
</g>
<path d="M364.5 164h10"></path>
<path d="M374.5 164h10"></path>
<g>
<path d="M384.5 164h0"></path>
<path d="M2209.5 164h0"></path>
<g class="terminal ">
<path d="M384.5 164h0"></path>
<path d="M472.5 164h0"></path>
<rect x="384.5" y="153" width="88" height="22" rx="10" ry="10"></rect>
<text x="428.5" y="168">"GROUPS"</text>
</g>
<path d="M472.5 164h10"></path>
<g>
<path d="M482.5 164h0"></path>
<path d="M687 164h0"></path>
<path d="M482.5 164h20"></path>
<g class="non-terminal ">
<path d="M502.5 164h25.5"></path>
<path d="M641.5 164h25.5"></path>
<rect x="528" y="153" width="113.5" height="22"></rect>
<a xlink:href="#/abap/expression/TargetField"><text x="584.75" y="168">TargetField</text>
</a>
</g>
<path d="M667 164h20"></path>
<path d="M482.5 164a10 10 0 0 1 10 10v10a10 10 0 0 0 10 10"></path>
<g class="non-terminal ">
<path d="M502.5 194h0"></path>
<path d="M667 194h0"></path>
<rect x="502.5" y="183" width="164.5" height="22"></rect>
<a xlink:href="#/abap/expression/TargetFieldSymbol"><text x="584.75" y="198">TargetFieldSymbol</text>
</a>
</g>
<path d="M667 194a10 10 0 0 0 10 -10v-10a10 10 0 0 1 10 -10"></path>
</g>
<path d="M687 164h10"></path>
<g class="terminal ">
<path d="M697 164h0"></path>
<path d="M751 164h0"></path>
<rect x="697" y="153" width="54" height="22" rx="10" ry="10"></rect>
<text x="724" y="168">"OF"</text>
</g>
<path d="M751 164h10"></path>
<g>
<path d="M761 164h0"></path>
<path d="M965.5 164h0"></path>
<path d="M761 164h20"></path>
<g class="non-terminal ">
<path d="M781 164h25.5"></path>
<path d="M920 164h25.5"></path>
<rect x="806.5" y="153" width="113.5" height="22"></rect>
<a xlink:href="#/abap/expression/TargetField"><text x="863.25" y="168">TargetField</text>
</a>
</g>
<path d="M945.5 164h20"></path>
<path d="M761 164a10 10 0 0 1 10 10v10a10 10 0 0 0 10 10"></path>
<g class="non-terminal ">
<path d="M781 194h0"></path>
<path d="M945.5 194h0"></path>
<rect x="781" y="183" width="164.5" height="22"></rect>
<a xlink:href="#/abap/expression/TargetFieldSymbol"><text x="863.25" y="198">TargetFieldSymbol</text>
</a>
</g>
<path d="M945.5 194a10 10 0 0 0 10 -10v-10a10 10 0 0 1 10 -10"></path>
</g>
<path d="M965.5 164h10"></path>
<g class="terminal ">
<path d="M975.5 164h0"></path>
<path d="M1029.5 164h0"></path>
<rect x="975.5" y="153" width="54" height="22" rx="10" ry="10"></rect>
<text x="1002.5" y="168">"IN"</text>
</g>
<path d="M1029.5 164h10"></path>
<path d="M1039.5 164h10"></path>
<g class="non-terminal ">
<path d="M1049.5 164h0"></path>
<path d="M1120.5 164h0"></path>
<rect x="1049.5" y="153" width="71" height="22"></rect>
<a xlink:href="#/abap/expression/Source"><text x="1085" y="168">Source</text>
</a>
</g>
<path d="M1120.5 164h10"></path>
<g>
<path d="M1130.5 164h0"></path>
<path d="M2209.5 164h0"></path>
<path d="M1130.5 164a10 10 0 0 0 10 -10v-16a10 10 0 0 1 10 -10"></path>
<g>
<path d="M1150.5 128h1039"></path>
</g>
<path d="M2189.5 128a10 10 0 0 1 10 10v16a10 10 0 0 0 10 10"></path>
<path d="M1130.5 164h20"></path>
<g>
<path d="M1150.5 164h0"></path>
<path d="M2189.5 164h0"></path>
<g class="terminal ">
<path d="M1150.5 164h0"></path>
<path d="M1255.5 164h0"></path>
<rect x="1150.5" y="153" width="105" height="22" rx="10" ry="10"></rect>
<text x="1203" y="168">"GROUP BY"</text>
</g>
<path d="M1255.5 164h10"></path>
<g>
<path d="M1265.5 164h0"></path>
<path d="M1646.5 164h0"></path>
<path d="M1265.5 164h20"></path>
<g class="non-terminal ">
<path d="M1285.5 164h118"></path>
<path d="M1508.5 164h118"></path>
<rect x="1403.5" y="153" width="105" height="22"></rect>
<a xlink:href="#/abap/expression/FieldChain"><text x="1456" y="168">FieldChain</text>
</a>
</g>
<path d="M1626.5 164h20"></path>
<path d="M1265.5 164a10 10 0 0 1 10 10v10a10 10 0 0 0 10 10"></path>
<g>
<path d="M1285.5 194h0"></path>
<path d="M1626.5 194h0"></path>
<g class="terminal ">
<path d="M1285.5 194h0"></path>
<path d="M1331 194h0"></path>
<rect x="1285.5" y="183" width="45.5" height="22" rx="10" ry="10"></rect>
<text x="1308.25" y="198">"("</text>
</g>
<path d="M1331 194h10"></path>
<path d="M1341 194h10"></path>
<g>
<path d="M1351 194h0"></path>
<path d="M1561 194h0"></path>
<path d="M1351 194h10"></path>
<g class="non-terminal ">
<path d="M1361 194h0"></path>
<path d="M1551 194h0"></path>
<rect x="1361" y="183" width="190" height="22"></rect>
<a xlink:href="#/abap/expression/LoopGroupByComponent"><text x="1456" y="198">LoopGroupByComponent</text>
</a>
</g>
<path d="M1551 194h10"></path>
<path d="M1361 194a10 10 0 0 0 -10 10v0a10 10 0 0 0 10 10"></path>
<g>
<path d="M1361 214h190"></path>
</g>
<path d="M1551 214a10 10 0 0 0 10 -10v0a10 10 0 0 0 -10 -10"></path>
</g>
<path d="M1561 194h10"></path>
<path d="M1571 194h10"></path>
<g class="terminal ">
<path d="M1581 194h0"></path>
<path d="M1626.5 194h0"></path>
<rect x="1581" y="183" width="45.5" height="22" rx="10" ry="10"></rect>
<text x="1603.75" y="198">")"</text>
</g>
</g>
<path d="M1626.5 194a10 10 0 0 0 10 -10v-10a10 10 0 0 1 10 -10"></path>
</g>
<g>
<path d="M1646.5 164h0"></path>
<path d="M1985 164h0"></path>
<path d="M1646.5 164a10 10 0 0 0 10 -10v-8a10 10 0 0 1 10 -10"></path>
<g>
<path d="M1666.5 136h298.5"></path>
</g>
<path d="M1965 136a10 10 0 0 1 10 10v8a10 10 0 0 0 10 10"></path>
<path d="M1646.5 164h20"></path>
<g>
<path d="M1666.5 164h0"></path>
<path d="M1965 164h0"></path>
<g>
<path d="M1666.5 164h0"></path>
<path d="M1828.5 164h0"></path>
<path d="M1666.5 164h20"></path>
<g class="terminal ">
<path d="M1686.5 164h4.25"></path>
<path d="M1804.25 164h4.25"></path>
<rect x="1690.75" y="153" width="113.5" height="22" rx="10" ry="10"></rect>
<text x="1747.5" y="168">"ASCENDING"</text>
</g>
<path d="M1808.5 164h20"></path>
<path d="M1666.5 164a10 10 0 0 1 10 10v10a10 10 0 0 0 10 10"></path>
<g class="terminal ">
<path d="M1686.5 194h0"></path>
<path d="M1808.5 194h0"></path>
<rect x="1686.5" y="183" width="122" height="22" rx="10" ry="10"></rect>
<text x="1747.5" y="198">"DESCENDING"</text>
</g>
<path d="M1808.5 194a10 10 0 0 0 10 -10v-10a10 10 0 0 1 10 -10"></path>
</g>
<g>
<path d="M1828.5 164h0"></path>
<path d="M1965 164h0"></path>
<path d="M1828.5 164a10 10 0 0 0 10 -10v0a10 10 0 0 1 10 -10"></path>
<g>
<path d="M1848.5 144h96.5"></path>
</g>
<path d="M1945 144a10 10 0 0 1 10 10v0a10 10 0 0 0 10 10"></path>
<path d="M1828.5 164h20"></path>
<g class="terminal ">
<path d="M1848.5 164h0"></path>
<path d="M1945 164h0"></path>
<rect x="1848.5" y="153" width="96.5" height="22" rx="10" ry="10"></rect>
<text x="1896.75" y="168">"AS TEXT"</text>
</g>
<path d="M1945 164h20"></path>
</g>
</g>
<path d="M1965 164h20"></path>
</g>
<g>
<path d="M1985 164h0"></path>
<path d="M2189.5 164h0"></path>
<path d="M1985 164a10 10 0 0 0 10 -10v0a10 10 0 0 1 10 -10"></path>
<g>
<path d="M2005 144h164.5"></path>
</g>
<path d="M2169.5 144a10 10 0 0 1 10 10v0a10 10 0 0 0 10 10"></path>
<path d="M1985 164h20"></path>
<g class="terminal ">
<path d="M2005 164h0"></path>
<path d="M2169.5 164h0"></path>
<rect x="2005" y="153" width="164.5" height="22" rx="10" ry="10"></rect>
<text x="2087.25" y="168">"WITHOUT MEMBERS"</text>
</g>
<path d="M2169.5 164h20"></path>
</g>
</g>
<path d="M2189.5 164h20"></path>
</g>
</g>
</g>
<path d="M2209.5 164a10 10 0 0 0 10 -10v-104a10 10 0 0 1 10 -10"></path>
</g>
<g>
<path d="M2229.5 40h0"></path>
<path d="M2315 40h0"></path>
<path d="M2229.5 40a10 10 0 0 0 10 -10v0a10 10 0 0 1 10 -10"></path>
<g>
<path d="M2249.5 20h45.5"></path>
</g>
<path d="M2295 20a10 10 0 0 1 10 10v0a10 10 0 0 0 10 10"></path>
<path d="M2229.5 40h20"></path>
<g class="non-terminal ">
<path d="M2249.5 40h0"></path>
<path d="M2295 40h0"></path>
<rect x="2249.5" y="29" width="45.5" height="22"></rect>
<a xlink:href="#/abap/expression/Let"><text x="2272.25" y="44">Let</text>
</a>
</g>
<path d="M2295 40h20"></path>
</g>
</g>
</g>
<path d="M2315 40h10"></path>
<path d="M 2325 40 h 20 m 0 -10 v 20"></path>
</g>
</svg>
