<svg xmlns="http://www.w3.org/2000/svg" xmlns:xlink="http://www.w3.org/1999/xlink" class="railroad-diagram" width="1270" height="80" viewBox="0 0 1270 80">
<defs>
<style type="text/css"><![CDATA[
path {
stroke-width: 3;
stroke: black;
fill: rgba(0,0,0,0);
}
text {
font: bold 14px monospace;
text-anchor: middle;
}
text.diagram-text {
font-size: 12px;
}
a {
fill: blue;
}
text.diagram-arrow {
font-size: 16px;
}
text.label {
text-anchor: start;
}
text.comment {
font: italic 12px monospace;
}
rect {
stroke-width: 3;
stroke: black;
fill: #BCBCBC;
}
path.diagram-text {
stroke-width: 3;
stroke: black;
fill: #BCBCBC;
cursor: help;
}
]]></style>
</defs>
<g transform="translate(.5 .5)">
<g>
<path d="M20 30v20m0 -10h20"></path>
</g>
<path d="M40 40h10"></path>
<g>
<path d="M50 40h0"></path>
<path d="M1220 40h0"></path>
<g class="terminal">
<path d="M50 40h0"></path>
<path d="M563 40h0"></path>
<rect x="50" y="29" width="513" height="22" rx="10" ry="10"></rect>
<text x="306.5" y="44">^&#91;&#38;&#95;!&#93;?\&#42;?\w&#42;(\/\w+\/)?\d&#42;&#91;a-zA-Z&#95;%\$&#93;&#91;\w\&#42;%\$\?&#93;&#42;(~\w+)?$</text>
</g>
<path d="M563 40h10"></path>
<g>
<path d="M573 40h0"></path>
<path d="M1220 40h0"></path>
<path d="M573 40a10 10 0 0 0 10 -10v0a10 10 0 0 1 10 -10"></path>
<g>
<path d="M593 20h607"></path>
</g>
<path d="M1200 20a10 10 0 0 1 10 10v0a10 10 0 0 0 10 10"></path>
<path d="M573 40h20"></path>
<g>
<path d="M593 40h0"></path>
<path d="M1200 40h0"></path>
<path d="M593 40h10"></path>
<g>
<path d="M603 40h0"></path>
<path d="M1190 40h0"></path>
<g class="terminal">
<path d="M603 40h0"></path>
<path d="M657 40h0"></path>
<rect x="603" y="29" width="54" height="22" rx="10" ry="10"></rect>
<text x="630" y="44">!"-"</text>
</g>
<path d="M657 40h10"></path>
<path d="M667 40h10"></path>
<g class="terminal">
<path d="M677 40h0"></path>
<path d="M1190 40h0"></path>
<rect x="677" y="29" width="513" height="22" rx="10" ry="10"></rect>
<text x="933.5" y="44">^&#91;&#38;&#95;!&#93;?\&#42;?\w&#42;(\/\w+\/)?\d&#42;&#91;a-zA-Z&#95;%\$&#93;&#91;\w\&#42;%\$\?&#93;&#42;(~\w+)?$</text>
</g>
</g>
<path d="M1190 40h10"></path>
<path d="M603 40a10 10 0 0 0 -10 10v0a10 10 0 0 0 10 10"></path>
<g>
<path d="M603 60h587"></path>
</g>
<path d="M1190 60a10 10 0 0 0 10 -10v0a10 10 0 0 0 -10 -10"></path>
</g>
<path d="M1200 40h20"></path>
</g>
</g>
<path d="M1220 40h10"></path>
<path d="M 1230 40 h 20 m 0 -10 v 20"></path>
</g>
</svg>
