<svg xmlns="http://www.w3.org/2000/svg" xmlns:xlink="http://www.w3.org/1999/xlink" class="railroad-diagram" width="950" height="268" viewBox="0 0 950 268">
<defs>
<style type="text/css"><![CDATA[
path {
stroke-width: 3;
stroke: black;
fill: rgba(0,0,0,0);
}
text {
font: bold 14px monospace;
text-anchor: middle;
}
text.diagram-text {
font-size: 12px;
}
a {
fill: blue;
}
text.diagram-arrow {
font-size: 16px;
}
text.label {
text-anchor: start;
}
text.comment {
font: italic 12px monospace;
}
rect {
stroke-width: 3;
stroke: black;
fill: #BCBCBC;
}
path.diagram-text {
stroke-width: 3;
stroke: black;
fill: #BCBCBC;
cursor: help;
}
]]></style>
</defs>
<g transform="translate(.5 .5)">
<g>
<path d="M20 21v20m0 -10h20"></path>
</g>
<path d="M40 31h10"></path>
<g>
<path d="M50 31h0"></path>
<path d="M900 31h0"></path>
<g class="terminal">
<path d="M50 31h0"></path>
<path d="M104 31h0"></path>
<rect x="50" y="20" width="54" height="22" rx="10" ry="10"></rect>
<text x="77" y="35">"IN"</text>
</g>
<path d="M104 31h10"></path>
<g>
<path d="M114 31h0"></path>
<path d="M900 31h0"></path>
<path d="M114 31h20"></path>
<g class="non-terminal">
<path d="M134 31h0"></path>
<path d="M230.5 31h649.5"></path>
<rect x="134" y="20" width="96.5" height="22"></rect>
<a xlink:href="#/abap/expression/SQLSource"><text x="182.25" y="35">SQLSource</text>
</a>
</g>
<path d="M880 31h20"></path>
<path d="M114 31a10 10 0 0 1 10 10v19a10 10 0 0 0 10 10"></path>
<g>
<path d="M134 70h0"></path>
<path d="M880 70h0"></path>
<path d="M134 70h20"></path>
<g>
<path d="M154 70h0"></path>
<path d="M841.5 70h18.5"></path>
<g class="terminal">
<path d="M154 70h0"></path>
<path d="M216.5 70h0"></path>
<rect x="154" y="59" width="62.5" height="22" rx="10" ry="10"></rect>
<text x="185.25" y="74">!" ("</text>
</g>
<path d="M216.5 70h10"></path>
<g>
<path d="M226.5 70h0"></path>
<path d="M508.5 70h0"></path>
<path d="M226.5 70h20"></path>
<g>
<path d="M246.5 70h0"></path>
<path d="M488.5 70h0"></path>
<g>
<path d="M246.5 70h0"></path>
<path d="M312.5 70h0"></path>
<text x="279.5" y="75" class="comment">v740sp05</text>
</g>
<path d="M312.5 70h10"></path>
<path d="M322.5 70h10"></path>
<g class="non-terminal">
<path d="M332.5 70h0"></path>
<path d="M488.5 70h0"></path>
<rect x="332.5" y="59" width="156" height="22"></rect>
<a xlink:href="#/abap/expression/SQLSourceNoSpace"><text x="410.5" y="74">SQLSourceNoSpace</text>
</a>
</g>
</g>
<path d="M488.5 70h20"></path>
<path d="M226.5 70a10 10 0 0 1 10 10v10a10 10 0 0 0 10 10"></path>
<g class="non-terminal">
<path d="M246.5 100h0"></path>
<path d="M343 100h145.5"></path>
<rect x="246.5" y="89" width="96.5" height="22"></rect>
<a xlink:href="#/abap/expression/SQLSource"><text x="294.75" y="104">SQLSource</text>
</a>
</g>
<path d="M488.5 100a10 10 0 0 0 10 -10v-10a10 10 0 0 1 10 -10"></path>
</g>
<g>
<path d="M508.5 70h0"></path>
<path d="M730.5 70h0"></path>
<path d="M508.5 70a10 10 0 0 0 10 -10v0a10 10 0 0 1 10 -10"></path>
<g>
<path d="M528.5 50h182"></path>
</g>
<path d="M710.5 50a10 10 0 0 1 10 10v0a10 10 0 0 0 10 10"></path>
<path d="M508.5 70h20"></path>
<g>
<path d="M528.5 70h0"></path>
<path d="M710.5 70h0"></path>
<path d="M528.5 70h10"></path>
<g>
<path d="M538.5 70h0"></path>
<path d="M700.5 70h0"></path>
<g class="terminal">
<path d="M538.5 70h0"></path>
<path d="M584 70h0"></path>
<rect x="538.5" y="59" width="45.5" height="22" rx="10" ry="10"></rect>
<text x="561.25" y="74">","</text>
</g>
<path d="M584 70h10"></path>
<path d="M594 70h10"></path>
<g class="non-terminal">
<path d="M604 70h0"></path>
<path d="M700.5 70h0"></path>
<rect x="604" y="59" width="96.5" height="22"></rect>
<a xlink:href="#/abap/expression/SQLSource"><text x="652.25" y="74">SQLSource</text>
</a>
</g>
</g>
<path d="M700.5 70h10"></path>
<path d="M538.5 70a10 10 0 0 0 -10 10v0a10 10 0 0 0 10 10"></path>
<g>
<path d="M538.5 90h162"></path>
</g>
<path d="M700.5 90a10 10 0 0 0 10 -10v0a10 10 0 0 0 -10 -10"></path>
</g>
<path d="M710.5 70h20"></path>
</g>
<g>
<path d="M730.5 70h0"></path>
<path d="M841.5 70h0"></path>
<path d="M730.5 70h20"></path>
<g class="terminal">
<path d="M750.5 70h0"></path>
<path d="M804.5 70h17"></path>
<rect x="750.5" y="59" width="54" height="22" rx="10" ry="10"></rect>
<text x="777.5" y="74">!")"</text>
</g>
<path d="M821.5 70h20"></path>
<path d="M730.5 70a10 10 0 0 1 10 10v10a10 10 0 0 0 10 10"></path>
<g class="terminal">
<path d="M750.5 100h0"></path>
<path d="M813 100h8.5"></path>
<rect x="750.5" y="89" width="62.5" height="22" rx="10" ry="10"></rect>
<text x="781.75" y="104">!") "</text>
</g>
<path d="M821.5 100a10 10 0 0 0 10 -10v-10a10 10 0 0 1 10 -10"></path>
<path d="M730.5 70a10 10 0 0 1 10 10v40a10 10 0 0 0 10 10"></path>
<g class="terminal">
<path d="M750.5 130h0"></path>
<path d="M821.5 130h0"></path>
<rect x="750.5" y="119" width="71" height="22" rx="10" ry="10"></rect>
<text x="786" y="134">!" ) "</text>
</g>
<path d="M821.5 130a10 10 0 0 0 10 -10v-40a10 10 0 0 1 10 -10"></path>
</g>
</g>
<path d="M860 70h20"></path>
<path d="M134 70a10 10 0 0 1 10 10v79a10 10 0 0 0 10 10"></path>
<g>
<path d="M154 169h0"></path>
<path d="M860 169h0"></path>
<g>
<path d="M154 169h0"></path>
<path d="M220 169h0"></path>
<text x="187" y="174" class="comment">v740sp02</text>
</g>
<path d="M220 169h10"></path>
<path d="M230 169h10"></path>
<g>
<path d="M240 169h0"></path>
<path d="M860 169h0"></path>
<g class="terminal">
<path d="M240 169h0"></path>
<path d="M311 169h0"></path>
<rect x="240" y="158" width="71" height="22" rx="10" ry="10"></rect>
<text x="275.5" y="173">!" ( "</text>
</g>
<path d="M311 169h10"></path>
<path d="M321 169h10"></path>
<g class="non-terminal">
<path d="M331 169h0"></path>
<path d="M427.5 169h0"></path>
<rect x="331" y="158" width="96.5" height="22"></rect>
<a xlink:href="#/abap/expression/SQLSource"><text x="379.25" y="173">SQLSource</text>
</a>
</g>
<path d="M427.5 169h10"></path>
<g>
<path d="M437.5 169h0"></path>
<path d="M749 169h0"></path>
<path d="M437.5 169a10 10 0 0 0 10 -10v0a10 10 0 0 1 10 -10"></path>
<g>
<path d="M457.5 149h271.5"></path>
</g>
<path d="M729 149a10 10 0 0 1 10 10v0a10 10 0 0 0 10 10"></path>
<path d="M437.5 169h20"></path>
<g>
<path d="M457.5 169h0"></path>
<path d="M729 169h0"></path>
<path d="M457.5 169h10"></path>
<g>
<path d="M467.5 169h0"></path>
<path d="M719 169h0"></path>
<g class="terminal">
<path d="M467.5 169h0"></path>
<path d="M513 169h0"></path>
<rect x="467.5" y="158" width="45.5" height="22" rx="10" ry="10"></rect>
<text x="490.25" y="173">","</text>
</g>
<path d="M513 169h10"></path>
<g>
<path d="M523 169h0"></path>
<path d="M719 169h0"></path>
<path d="M523 169h20"></path>
<g class="non-terminal">
<path d="M543 169h0"></path>
<path d="M699 169h0"></path>
<rect x="543" y="158" width="156" height="22"></rect>
<a xlink:href="#/abap/expression/SQLSourceNoSpace"><text x="621" y="173">SQLSourceNoSpace</text>
</a>
</g>
<path d="M699 169h20"></path>
<path d="M523 169a10 10 0 0 1 10 10v10a10 10 0 0 0 10 10"></path>
<g class="non-terminal">
<path d="M543 199h0"></path>
<path d="M639.5 199h59.5"></path>
<rect x="543" y="188" width="96.5" height="22"></rect>
<a xlink:href="#/abap/expression/SQLSource"><text x="591.25" y="203">SQLSource</text>
</a>
</g>
<path d="M699 199a10 10 0 0 0 10 -10v-10a10 10 0 0 1 10 -10"></path>
</g>
</g>
<path d="M719 169h10"></path>
<path d="M467.5 169a10 10 0 0 0 -10 10v29a10 10 0 0 0 10 10"></path>
<g>
<path d="M467.5 218h251.5"></path>
</g>
<path d="M719 218a10 10 0 0 0 10 -10v-29a10 10 0 0 0 -10 -10"></path>
</g>
<path d="M729 169h20"></path>
</g>
<g>
<path d="M749 169h0"></path>
<path d="M860 169h0"></path>
<path d="M749 169h20"></path>
<g class="terminal">
<path d="M769 169h0"></path>
<path d="M831.5 169h8.5"></path>
<rect x="769" y="158" width="62.5" height="22" rx="10" ry="10"></rect>
<text x="800.25" y="173">!" )"</text>
</g>
<path d="M840 169h20"></path>
<path d="M749 169a10 10 0 0 1 10 10v10a10 10 0 0 0 10 10"></path>
<g class="terminal">
<path d="M769 199h0"></path>
<path d="M840 199h0"></path>
<rect x="769" y="188" width="71" height="22" rx="10" ry="10"></rect>
<text x="804.5" y="203">!" ) "</text>
</g>
<path d="M840 199a10 10 0 0 0 10 -10v-10a10 10 0 0 1 10 -10"></path>
</g>
</g>
</g>
<path d="M860 169a10 10 0 0 0 10 -10v-79a10 10 0 0 1 10 -10"></path>
</g>
<path d="M880 70a10 10 0 0 0 10 -10v-19a10 10 0 0 1 10 -10"></path>
<path d="M114 31a10 10 0 0 1 10 10v186a10 10 0 0 0 10 10"></path>
<g>
<path d="M134 237h0"></path>
<path d="M336 237h544"></path>
<g class="terminal">
<path d="M134 237h0"></path>
<path d="M179.5 237h0"></path>
<rect x="134" y="226" width="45.5" height="22" rx="10" ry="10"></rect>
<text x="156.75" y="241">"("</text>
</g>
<path d="M179.5 237h10"></path>
<path d="M189.5 237h10"></path>
<g class="non-terminal">
<path d="M199.5 237h0"></path>
<path d="M270.5 237h0"></path>
<rect x="199.5" y="226" width="71" height="22"></rect>
<a xlink:href="#/abap/expression/Select"><text x="235" y="241">Select</text>
</a>
</g>
<path d="M270.5 237h10"></path>
<path d="M280.5 237h10"></path>
<g class="terminal">
<path d="M290.5 237h0"></path>
<path d="M336 237h0"></path>
<rect x="290.5" y="226" width="45.5" height="22" rx="10" ry="10"></rect>
<text x="313.25" y="241">")"</text>
</g>
</g>
<path d="M880 237a10 10 0 0 0 10 -10v-186a10 10 0 0 1 10 -10"></path>
</g>
</g>
<path d="M900 31h10"></path>
<path d="M 910 31 h 20 m 0 -10 v 20"></path>
</g>
</svg>
