<svg xmlns="http://www.w3.org/2000/svg" xmlns:xlink="http://www.w3.org/1999/xlink" class="railroad-diagram" width="1158" height="800" viewBox="0 0 1158 800">
<defs>
<style type="text/css"><![CDATA[
path {
stroke-width: 3;
stroke: black;
fill: rgba(0,0,0,0);
}
text {
font: bold 14px monospace;
text-anchor: middle;
}
text.diagram-text {
font-size: 12px;
}
a {
fill: blue;
}
text.diagram-arrow {
font-size: 16px;
}
text.label {
text-anchor: start;
}
text.comment {
font: italic 12px monospace;
}
rect {
stroke-width: 3;
stroke: black;
fill: #BCBCBC;
}
path.diagram-text {
stroke-width: 3;
stroke: black;
fill: #BCBCBC;
cursor: help;
}
]]></style>
</defs>
<g transform="translate(.5 .5)">
<g>
<path d="M20 30v20m0 -10h20"></path>
</g>
<path d="M40 40h10"></path>
<g>
<path d="M50 40h0"></path>
<path d="M1108 40h0"></path>
<g class="terminal">
<path d="M50 40h0"></path>
<path d="M138 40h0"></path>
<rect x="50" y="29" width="88" height="22" rx="10" ry="10"></rect>
<text x="94" y="44">"SELECT"</text>
</g>
<path d="M138 40h10"></path>
<g>
<path d="M148 40h0"></path>
<path d="M1108 40h0"></path>
<path d="M148 40h20"></path>
<g>
<path d="M168 40h0"></path>
<path d="M1088 40h0"></path>
<g class="terminal">
<path d="M168 40h0"></path>
<path d="M256 40h0"></path>
<rect x="168" y="29" width="88" height="22" rx="10" ry="10"></rect>
<text x="212" y="44">"SINGLE"</text>
</g>
<path d="M256 40h10"></path>
<g>
<path d="M266 40h0"></path>
<path d="M428 40h0"></path>
<path d="M266 40a10 10 0 0 0 10 -10v0a10 10 0 0 1 10 -10"></path>
<g>
<path d="M286 20h122"></path>
</g>
<path d="M408 20a10 10 0 0 1 10 10v0a10 10 0 0 0 10 10"></path>
<path d="M266 40h20"></path>
<g class="terminal">
<path d="M286 40h0"></path>
<path d="M408 40h0"></path>
<rect x="286" y="29" width="122" height="22" rx="10" ry="10"></rect>
<text x="347" y="44">"FOR UPDATE"</text>
</g>
<path d="M408 40h20"></path>
</g>
<g>
<path d="M428 40h0"></path>
<path d="M812 40h0"></path>
<path d="M428 40a10 10 0 0 0 10 -10v0a10 10 0 0 1 10 -10"></path>
<g>
<path d="M448 20h344"></path>
</g>
<path d="M792 20a10 10 0 0 1 10 10v0a10 10 0 0 0 10 10"></path>
<path d="M428 40h20"></path>
<g>
<path d="M448 40h0"></path>
<path d="M792 40h0"></path>
<path d="M448 40h20"></path>
<g class="non-terminal">
<path d="M468 40h0"></path>
<path d="M590 40h182"></path>
<rect x="468" y="29" width="122" height="22"></rect>
<a xlink:href="#/abap/expression/SQLFieldList"><text x="529" y="44">SQLFieldList</text>
</a>
</g>
<path d="M772 40h20"></path>
<path d="M448 40a10 10 0 0 1 10 10v10a10 10 0 0 0 10 10"></path>
<g>
<path d="M468 70h0"></path>
<path d="M772 70h0"></path>
<g class="terminal">
<path d="M468 70h0"></path>
<path d="M539 70h0"></path>
<rect x="468" y="59" width="71" height="22" rx="10" ry="10"></rect>
<text x="503.5" y="74">!" ( "</text>
</g>
<path d="M539 70h10"></path>
<path d="M549 70h10"></path>
<g class="non-terminal">
<path d="M559 70h0"></path>
<path d="M681 70h0"></path>
<rect x="559" y="59" width="122" height="22"></rect>
<a xlink:href="#/abap/expression/SQLFieldName"><text x="620" y="74">SQLFieldName</text>
</a>
</g>
<path d="M681 70h10"></path>
<path d="M691 70h10"></path>
<g class="terminal">
<path d="M701 70h0"></path>
<path d="M772 70h0"></path>
<rect x="701" y="59" width="71" height="22" rx="10" ry="10"></rect>
<text x="736.5" y="74">!" ) "</text>
</g>
</g>
<path d="M772 70a10 10 0 0 0 10 -10v-10a10 10 0 0 1 10 -10"></path>
</g>
<path d="M792 40h20"></path>
</g>
<path d="M812 40h10"></path>
<g>
<path d="M822 40h0"></path>
<path d="M1088 40h0"></path>
<path d="M852 40h10"></path>
<g class="non-terminal">
<path d="M862 40h0"></path>
<path d="M941.5 40h116.5"></path>
<rect x="862" y="29" width="79.5" height="22"></rect>
<a xlink:href="#/abap/expression/SQLFrom"><text x="901.75" y="44">SQLFrom</text>
</a>
</g>
<path d="M1058 40h10"></path>
<path d="M852 40v20a10 10 0 0 0 10 10"></path>
<g>
<path d="M862 70h0"></path>
<path d="M1058 70h0"></path>
<path d="M862 70h20"></path>
<g class="non-terminal">
<path d="M882 70h0"></path>
<path d="M1038 70h0"></path>
<rect x="882" y="59" width="156" height="22"></rect>
<a xlink:href="#/abap/expression/SQLIntoStructure"><text x="960" y="74">SQLIntoStructure</text>
</a>
</g>
<path d="M1038 70h20"></path>
<path d="M862 70a10 10 0 0 1 10 10v10a10 10 0 0 0 10 10"></path>
<g class="non-terminal">
<path d="M882 100h0"></path>
<path d="M995.5 100h42.5"></path>
<rect x="882" y="89" width="113.5" height="22"></rect>
<a xlink:href="#/abap/expression/SQLIntoList"><text x="938.75" y="104">SQLIntoList</text>
</a>
</g>
<path d="M1038 100a10 10 0 0 0 10 -10v-10a10 10 0 0 1 10 -10"></path>
</g>
<path d="M1058 70a10 10 0 0 0 10 -10v-20"></path>
<path d="M852 40v80a10 10 0 0 0 10 10"></path>
<g>
<path d="M862 130h0"></path>
<path d="M1041 130h17"></path>
<g class="terminal">
<path d="M862 130h0"></path>
<path d="M941.5 130h0"></path>
<rect x="862" y="119" width="79.5" height="22" rx="10" ry="10"></rect>
<text x="901.75" y="134">"WHERE"</text>
</g>
<path d="M941.5 130h10"></path>
<path d="M951.5 130h10"></path>
<g class="non-terminal">
<path d="M961.5 130h0"></path>
<path d="M1041 130h0"></path>
<rect x="961.5" y="119" width="79.5" height="22"></rect>
<a xlink:href="#/abap/expression/SQLCond"><text x="1001.25" y="134">SQLCond</text>
</a>
</g>
</g>
<path d="M1058 130a10 10 0 0 0 10 -10v-80"></path>
<path d="M852 40v110a10 10 0 0 0 10 10"></path>
<g class="non-terminal">
<path d="M862 160h0"></path>
<path d="M958.5 160h99.5"></path>
<rect x="862" y="149" width="96.5" height="22"></rect>
<a xlink:href="#/abap/expression/SQLClient"><text x="910.25" y="164">SQLClient</text>
</a>
</g>
<path d="M1058 160a10 10 0 0 0 10 -10v-110"></path>
<path d="M852 40v140a10 10 0 0 0 10 10"></path>
<g class="terminal">
<path d="M862 190h0"></path>
<path d="M1035 190h23"></path>
<rect x="862" y="179" width="173" height="22" rx="10" ry="10"></rect>
<text x="948.5" y="194">"BYPASSING BUFFER"</text>
</g>
<path d="M1058 190a10 10 0 0 0 10 -10v-140"></path>
<path d="M852 40v170a10 10 0 0 0 10 10"></path>
<g>
<path d="M862 220h0"></path>
<path d="M1016.5 220h41.5"></path>
<g>
<path d="M862 220h0"></path>
<path d="M900 220h0"></path>
<text x="881" y="225" class="comment">v750</text>
</g>
<path d="M900 220h10"></path>
<path d="M910 220h10"></path>
<g class="non-terminal">
<path d="M920 220h0"></path>
<path d="M1016.5 220h0"></path>
<rect x="920" y="209" width="96.5" height="22"></rect>
<a xlink:href="#/abap/expression/SQLFields"><text x="968.25" y="224">SQLFields</text>
</a>
</g>
</g>
<path d="M1058 220a10 10 0 0 0 10 -10v-170"></path>
<path d="M852 40v200a10 10 0 0 0 10 10"></path>
<g class="non-terminal">
<path d="M862 250h0"></path>
<path d="M1035 250h23"></path>
<rect x="862" y="239" width="173" height="22"></rect>
<a xlink:href="#/abap/expression/DatabaseConnection"><text x="948.5" y="254">DatabaseConnection</text>
</a>
</g>
<path d="M1058 250a10 10 0 0 0 10 -10v-200"></path>
<path d="M852 40v230a10 10 0 0 0 10 10"></path>
<g class="non-terminal">
<path d="M862 280h0"></path>
<path d="M950 280h108"></path>
<rect x="862" y="269" width="88" height="22"></rect>
<a xlink:href="#/abap/expression/SQLHints"><text x="906" y="284">SQLHints</text>
</a>
</g>
<path d="M1058 280a10 10 0 0 0 10 -10v-230"></path>
<g class="diagram-text">
<title>take one or more branches, once each, in any order</title>
<path d="M 852 30 h -26 a 4 4 0 0 0 -4 4 v 12 a 4 4 0 0 0 4 4 h 26 z" class="diagram-text"></path>
<text x="837" y="44" class="diagram-text">1+</text>
<path d="M 1068 30 h 16 a 4 4 0 0 1 4 4 v 12 a 4 4 0 0 1 -4 4 h -16 z" class="diagram-text"></path>
<path d="M 1075 38 a 4 4 0 1 0 6 -1 m 2.75 -1 h -4 v 4 m 0 -3 h 2" style="stroke-width: 1.75"></path>
</g>
</g>
</g>
<path d="M1088 40h20"></path>
<path d="M148 40a10 10 0 0 1 10 10v259a10 10 0 0 0 10 10"></path>
<g>
<path d="M168 319h0"></path>
<path d="M1039.5 319h48.5"></path>
<g>
<path d="M168 319h0"></path>
<path d="M313 319h0"></path>
<path d="M168 319a10 10 0 0 0 10 -10v0a10 10 0 0 1 10 -10"></path>
<g>
<path d="M188 299h105"></path>
</g>
<path d="M293 299a10 10 0 0 1 10 10v0a10 10 0 0 0 10 10"></path>
<path d="M168 319h20"></path>
<g class="terminal">
<path d="M188 319h0"></path>
<path d="M293 319h0"></path>
<rect x="188" y="308" width="105" height="22" rx="10" ry="10"></rect>
<text x="240.5" y="323">"DISTINCT"</text>
</g>
<path d="M293 319h20"></path>
</g>
<g>
<path d="M313 319h0"></path>
<path d="M697 319h0"></path>
<path d="M313 319a10 10 0 0 0 10 -10v0a10 10 0 0 1 10 -10"></path>
<g>
<path d="M333 299h344"></path>
</g>
<path d="M677 299a10 10 0 0 1 10 10v0a10 10 0 0 0 10 10"></path>
<path d="M313 319h20"></path>
<g>
<path d="M333 319h0"></path>
<path d="M677 319h0"></path>
<path d="M333 319h20"></path>
<g class="non-terminal">
<path d="M353 319h0"></path>
<path d="M475 319h182"></path>
<rect x="353" y="308" width="122" height="22"></rect>
<a xlink:href="#/abap/expression/SQLFieldList"><text x="414" y="323">SQLFieldList</text>
</a>
</g>
<path d="M657 319h20"></path>
<path d="M333 319a10 10 0 0 1 10 10v10a10 10 0 0 0 10 10"></path>
<g>
<path d="M353 349h0"></path>
<path d="M657 349h0"></path>
<g class="terminal">
<path d="M353 349h0"></path>
<path d="M424 349h0"></path>
<rect x="353" y="338" width="71" height="22" rx="10" ry="10"></rect>
<text x="388.5" y="353">!" ( "</text>
</g>
<path d="M424 349h10"></path>
<path d="M434 349h10"></path>
<g class="non-terminal">
<path d="M444 349h0"></path>
<path d="M566 349h0"></path>
<rect x="444" y="338" width="122" height="22"></rect>
<a xlink:href="#/abap/expression/SQLFieldName"><text x="505" y="353">SQLFieldName</text>
</a>
</g>
<path d="M566 349h10"></path>
<path d="M576 349h10"></path>
<g class="terminal">
<path d="M586 349h0"></path>
<path d="M657 349h0"></path>
<rect x="586" y="338" width="71" height="22" rx="10" ry="10"></rect>
<text x="621.5" y="353">!" ) "</text>
</g>
</g>
<path d="M657 349a10 10 0 0 0 10 -10v-10a10 10 0 0 1 10 -10"></path>
</g>
<path d="M677 319h20"></path>
</g>
<path d="M697 319h10"></path>
<g>
<path d="M707 319h0"></path>
<path d="M1039.5 319h0"></path>
<path d="M737 319h10"></path>
<g class="non-terminal">
<path d="M747 319h0"></path>
<path d="M826.5 319h183"></path>
<rect x="747" y="308" width="79.5" height="22"></rect>
<a xlink:href="#/abap/expression/SQLFrom"><text x="786.75" y="323">SQLFrom</text>
</a>
</g>
<path d="M1009.5 319h10"></path>
<path d="M737 319v20a10 10 0 0 0 10 10"></path>
<g>
<path d="M747 349h0"></path>
<path d="M943 349h66.5"></path>
<path d="M747 349h20"></path>
<g class="non-terminal">
<path d="M767 349h0"></path>
<path d="M889 349h34"></path>
<rect x="767" y="338" width="122" height="22"></rect>
<a xlink:href="#/abap/expression/SQLIntoTable"><text x="828" y="353">SQLIntoTable</text>
</a>
</g>
<path d="M923 349h20"></path>
<path d="M747 349a10 10 0 0 1 10 10v10a10 10 0 0 0 10 10"></path>
<g class="non-terminal">
<path d="M767 379h0"></path>
<path d="M923 379h0"></path>
<rect x="767" y="368" width="156" height="22"></rect>
<a xlink:href="#/abap/expression/SQLIntoStructure"><text x="845" y="383">SQLIntoStructure</text>
</a>
</g>
<path d="M923 379a10 10 0 0 0 10 -10v-10a10 10 0 0 1 10 -10"></path>
<path d="M747 349a10 10 0 0 1 10 10v40a10 10 0 0 0 10 10"></path>
<g class="non-terminal">
<path d="M767 409h0"></path>
<path d="M880.5 409h42.5"></path>
<rect x="767" y="398" width="113.5" height="22"></rect>
<a xlink:href="#/abap/expression/SQLIntoList"><text x="823.75" y="413">SQLIntoList</text>
</a>
</g>
<path d="M923 409a10 10 0 0 0 10 -10v-40a10 10 0 0 1 10 -10"></path>
</g>
<path d="M1009.5 349a10 10 0 0 0 10 -10v-20"></path>
<path d="M737 319v110a10 10 0 0 0 10 10"></path>
<g class="non-terminal">
<path d="M747 439h0"></path>
<path d="M903 439h106.5"></path>
<rect x="747" y="428" width="156" height="22"></rect>
<a xlink:href="#/abap/expression/SQLForAllEntries"><text x="825" y="443">SQLForAllEntries</text>
</a>
</g>
<path d="M1009.5 439a10 10 0 0 0 10 -10v-110"></path>
<path d="M737 319v140a10 10 0 0 0 10 10"></path>
<g>
<path d="M747 469h0"></path>
<path d="M926 469h83.5"></path>
<g class="terminal">
<path d="M747 469h0"></path>
<path d="M826.5 469h0"></path>
<rect x="747" y="458" width="79.5" height="22" rx="10" ry="10"></rect>
<text x="786.75" y="473">"WHERE"</text>
</g>
<path d="M826.5 469h10"></path>
<path d="M836.5 469h10"></path>
<g class="non-terminal">
<path d="M846.5 469h0"></path>
<path d="M926 469h0"></path>
<rect x="846.5" y="458" width="79.5" height="22"></rect>
<a xlink:href="#/abap/expression/SQLCond"><text x="886.25" y="473">SQLCond</text>
</a>
</g>
</g>
<path d="M1009.5 469a10 10 0 0 0 10 -10v-140"></path>
<path d="M737 319v170a10 10 0 0 0 10 10"></path>
<g class="non-terminal">
<path d="M747 499h0"></path>
<path d="M852 499h157.5"></path>
<rect x="747" y="488" width="105" height="22"></rect>
<a xlink:href="#/abap/expression/SQLOrderBy"><text x="799.5" y="503">SQLOrderBy</text>
</a>
</g>
<path d="M1009.5 499a10 10 0 0 0 10 -10v-170"></path>
<path d="M737 319v200a10 10 0 0 0 10 10"></path>
<g class="non-terminal">
<path d="M747 529h0"></path>
<path d="M826.5 529h183"></path>
<rect x="747" y="518" width="79.5" height="22"></rect>
<a xlink:href="#/abap/expression/SQLUpTo"><text x="786.75" y="533">SQLUpTo</text>
</a>
</g>
<path d="M1009.5 529a10 10 0 0 0 10 -10v-200"></path>
<path d="M737 319v230a10 10 0 0 0 10 10"></path>
<g>
<path d="M747 559h0"></path>
<path d="M1009.5 559h0"></path>
<g>
<path d="M747 559h0"></path>
<path d="M785 559h0"></path>
<text x="766" y="564" class="comment">v751</text>
</g>
<path d="M785 559h10"></path>
<path d="M795 559h10"></path>
<g>
<path d="M805 559h0"></path>
<path d="M1009.5 559h0"></path>
<g class="terminal">
<path d="M805 559h0"></path>
<path d="M893 559h0"></path>
<rect x="805" y="548" width="88" height="22" rx="10" ry="10"></rect>
<text x="849" y="563">"OFFSET"</text>
</g>
<path d="M893 559h10"></path>
<path d="M903 559h10"></path>
<g class="non-terminal">
<path d="M913 559h0"></path>
<path d="M1009.5 559h0"></path>
<rect x="913" y="548" width="96.5" height="22"></rect>
<a xlink:href="#/abap/expression/SQLSource"><text x="961.25" y="563">SQLSource</text>
</a>
</g>
</g>
</g>
<path d="M1009.5 559a10 10 0 0 0 10 -10v-230"></path>
<path d="M737 319v260a10 10 0 0 0 10 10"></path>
<g class="non-terminal">
<path d="M747 589h0"></path>
<path d="M843.5 589h166"></path>
<rect x="747" y="578" width="96.5" height="22"></rect>
<a xlink:href="#/abap/expression/SQLClient"><text x="795.25" y="593">SQLClient</text>
</a>
</g>
<path d="M1009.5 589a10 10 0 0 0 10 -10v-260"></path>
<path d="M737 319v290a10 10 0 0 0 10 10"></path>
<g class="non-terminal">
<path d="M747 619h0"></path>
<path d="M843.5 619h166"></path>
<rect x="747" y="608" width="96.5" height="22"></rect>
<a xlink:href="#/abap/expression/SQLHaving"><text x="795.25" y="623">SQLHaving</text>
</a>
</g>
<path d="M1009.5 619a10 10 0 0 0 10 -10v-290"></path>
<path d="M737 319v320a10 10 0 0 0 10 10"></path>
<g class="terminal">
<path d="M747 649h0"></path>
<path d="M920 649h89.5"></path>
<rect x="747" y="638" width="173" height="22" rx="10" ry="10"></rect>
<text x="833.5" y="653">"BYPASSING BUFFER"</text>
</g>
<path d="M1009.5 649a10 10 0 0 0 10 -10v-320"></path>
<path d="M737 319v350a10 10 0 0 0 10 10"></path>
<g class="non-terminal">
<path d="M747 679h0"></path>
<path d="M852 679h157.5"></path>
<rect x="747" y="668" width="105" height="22"></rect>
<a xlink:href="#/abap/expression/SQLGroupBy"><text x="799.5" y="683">SQLGroupBy</text>
</a>
</g>
<path d="M1009.5 679a10 10 0 0 0 10 -10v-350"></path>
<path d="M737 319v380a10 10 0 0 0 10 10"></path>
<g>
<path d="M747 709h0"></path>
<path d="M901.5 709h108"></path>
<g>
<path d="M747 709h0"></path>
<path d="M785 709h0"></path>
<text x="766" y="714" class="comment">v750</text>
</g>
<path d="M785 709h10"></path>
<path d="M795 709h10"></path>
<g class="non-terminal">
<path d="M805 709h0"></path>
<path d="M901.5 709h0"></path>
<rect x="805" y="698" width="96.5" height="22"></rect>
<a xlink:href="#/abap/expression/SQLFields"><text x="853.25" y="713">SQLFields</text>
</a>
</g>
</g>
<path d="M1009.5 709a10 10 0 0 0 10 -10v-380"></path>
<path d="M737 319v410a10 10 0 0 0 10 10"></path>
<g class="non-terminal">
<path d="M747 739h0"></path>
<path d="M920 739h89.5"></path>
<rect x="747" y="728" width="173" height="22"></rect>
<a xlink:href="#/abap/expression/DatabaseConnection"><text x="833.5" y="743">DatabaseConnection</text>
</a>
</g>
<path d="M1009.5 739a10 10 0 0 0 10 -10v-410"></path>
<path d="M737 319v440a10 10 0 0 0 10 10"></path>
<g class="non-terminal">
<path d="M747 769h0"></path>
<path d="M835 769h174.5"></path>
<rect x="747" y="758" width="88" height="22"></rect>
<a xlink:href="#/abap/expression/SQLHints"><text x="791" y="773">SQLHints</text>
</a>
</g>
<path d="M1009.5 769a10 10 0 0 0 10 -10v-440"></path>
<g class="diagram-text">
<title>take one or more branches, once each, in any order</title>
<path d="M 737 309 h -26 a 4 4 0 0 0 -4 4 v 12 a 4 4 0 0 0 4 4 h 26 z" class="diagram-text"></path>
<text x="722" y="323" class="diagram-text">1+</text>
<path d="M 1019.5 309 h 16 a 4 4 0 0 1 4 4 v 12 a 4 4 0 0 1 -4 4 h -16 z" class="diagram-text"></path>
<path d="M 1026.5 317 a 4 4 0 1 0 6 -1 m 2.75 -1 h -4 v 4 m 0 -3 h 2" style="stroke-width: 1.75"></path>
</g>
</g>
</g>
<path d="M1088 319a10 10 0 0 0 10 -10v-259a10 10 0 0 1 10 -10"></path>
</g>
</g>
<path d="M1108 40h10"></path>
<path d="M 1118 40 h 20 m 0 -10 v 20"></path>
</g>
</svg>
