<svg xmlns="http://www.w3.org/2000/svg" xmlns:xlink="http://www.w3.org/1999/xlink" class="railroad-diagram" width="1050" height="80" viewBox="0 0 1050 80">
<defs>
<style type="text/css"><![CDATA[
path {
stroke-width: 3;
stroke: black;
fill: rgba(0,0,0,0);
}
text {
font: bold 14px monospace;
text-anchor: middle;
}
text.diagram-text {
font-size: 12px;
}
a {
fill: blue;
}
text.diagram-arrow {
font-size: 16px;
}
text.label {
text-anchor: start;
}
text.comment {
font: italic 12px monospace;
}
rect {
stroke-width: 3;
stroke: black;
fill: #BCBCBC;
}
path.diagram-text {
stroke-width: 3;
stroke: black;
fill: #BCBCBC;
cursor: help;
}
]]></style>
</defs>
<g transform="translate(.5 .5)">
<g>
<path d="M20 30v20m0 -10h20"></path>
</g>
<path d="M40 40h10"></path>
<g>
<path d="M50 40h0"></path>
<path d="M1000 40h0"></path>
<g class="terminal">
<path d="M50 40h0"></path>
<path d="M435.5 40h0"></path>
<rect x="50" y="29" width="385.5" height="22" rx="10" ry="10"></rect>
<text x="242.75" y="44">^\&#42;?!?&#38;?(\/\w+\/)?&#91;a-zA-Z&#95;%$\?&#93;&#91;\w%$\$\&#42;&#93;&#42;$</text>
</g>
<path d="M435.5 40h10"></path>
<g>
<path d="M445.5 40h0"></path>
<path d="M710 40h0"></path>
<path d="M445.5 40a10 10 0 0 0 10 -10v0a10 10 0 0 1 10 -10"></path>
<g>
<path d="M465.5 20h224.5"></path>
</g>
<path d="M690 20a10 10 0 0 1 10 10v0a10 10 0 0 0 10 10"></path>
<path d="M445.5 40h20"></path>
<g>
<path d="M465.5 40h0"></path>
<path d="M690 40h0"></path>
<path d="M465.5 40h10"></path>
<g>
<path d="M475.5 40h0"></path>
<path d="M680 40h0"></path>
<g class="terminal">
<path d="M475.5 40h0"></path>
<path d="M529.5 40h0"></path>
<rect x="475.5" y="29" width="54" height="22" rx="10" ry="10"></rect>
<text x="502.5" y="44">!"-"</text>
</g>
<path d="M529.5 40h10"></path>
<path d="M539.5 40h10"></path>
<g class="terminal">
<path d="M549.5 40h0"></path>
<path d="M680 40h0"></path>
<rect x="549.5" y="29" width="130.5" height="22" rx="10" ry="10"></rect>
<text x="614.75" y="44">^&#91;\w%$\$\&#42;&#93;+$</text>
</g>
</g>
<path d="M680 40h10"></path>
<path d="M475.5 40a10 10 0 0 0 -10 10v0a10 10 0 0 0 10 10"></path>
<g>
<path d="M475.5 60h204.5"></path>
</g>
<path d="M680 60a10 10 0 0 0 10 -10v0a10 10 0 0 0 -10 -10"></path>
</g>
<path d="M690 40h20"></path>
</g>
<g>
<path d="M710 40h0"></path>
<path d="M863.5 40h0"></path>
<path d="M710 40a10 10 0 0 0 10 -10v0a10 10 0 0 1 10 -10"></path>
<g>
<path d="M730 20h113.5"></path>
</g>
<path d="M843.5 20a10 10 0 0 1 10 10v0a10 10 0 0 0 10 10"></path>
<path d="M710 40h20"></path>
<g class="non-terminal">
<path d="M730 40h0"></path>
<path d="M843.5 40h0"></path>
<rect x="730" y="29" width="113.5" height="22"></rect>
<a xlink:href="#/abap/expression/FieldLength"><text x="786.75" y="44">FieldLength</text>
</a>
</g>
<path d="M843.5 40h20"></path>
</g>
<g>
<path d="M863.5 40h0"></path>
<path d="M1000 40h0"></path>
<path d="M863.5 40a10 10 0 0 0 10 -10v0a10 10 0 0 1 10 -10"></path>
<g>
<path d="M883.5 20h96.5"></path>
</g>
<path d="M980 20a10 10 0 0 1 10 10v0a10 10 0 0 0 10 10"></path>
<path d="M863.5 40h20"></path>
<g class="non-terminal">
<path d="M883.5 40h0"></path>
<path d="M980 40h0"></path>
<rect x="883.5" y="29" width="96.5" height="22"></rect>
<a xlink:href="#/abap/expression/TableBody"><text x="931.75" y="44">TableBody</text>
</a>
</g>
<path d="M980 40h20"></path>
</g>
</g>
<path d="M1000 40h10"></path>
<path d="M 1010 40 h 20 m 0 -10 v 20"></path>
</g>
</svg>
