<svg xmlns="http://www.w3.org/2000/svg" xmlns:xlink="http://www.w3.org/1999/xlink" class="railroad-diagram" width="411.5" height="80" viewBox="0 0 411.5 80">
<defs>
<style type="text/css"><![CDATA[
path {
stroke-width: 3;
stroke: black;
fill: rgba(0,0,0,0);
}
text {
font: bold 14px monospace;
text-anchor: middle;
}
text.diagram-text {
font-size: 12px;
}
a {
fill: blue;
}
text.diagram-arrow {
font-size: 16px;
}
text.label {
text-anchor: start;
}
text.comment {
font: italic 12px monospace;
}
rect {
stroke-width: 3;
stroke: black;
fill: #BCBCBC;
}
path.diagram-text {
stroke-width: 3;
stroke: black;
fill: #BCBCBC;
cursor: help;
}
]]></style>
</defs>
<g transform="translate(.5 .5)">
<g>
<path d="M20 30v20m0 -10h20"></path>
</g>
<path d="M40 40h10"></path>
<g>
<path d="M50 40h0"></path>
<path d="M361.5 40h0"></path>
<g class="terminal">
<path d="M50 40h0"></path>
<path d="M155 40h0"></path>
<rect x="50" y="29" width="105" height="22" rx="10" ry="10"></rect>
<text x="102.5" y="44">^&#91;\w/$%&#93;+$</text>
</g>
<path d="M155 40h10"></path>
<g>
<path d="M165 40h0"></path>
<path d="M361.5 40h0"></path>
<path d="M165 40a10 10 0 0 0 10 -10v0a10 10 0 0 1 10 -10"></path>
<g>
<path d="M185 20h156.5"></path>
</g>
<path d="M341.5 20a10 10 0 0 1 10 10v0a10 10 0 0 0 10 10"></path>
<path d="M165 40h20"></path>
<g>
<path d="M185 40h0"></path>
<path d="M341.5 40h0"></path>
<path d="M185 40h10"></path>
<g>
<path d="M195 40h0"></path>
<path d="M331.5 40h0"></path>
<g class="terminal">
<path d="M195 40h0"></path>
<path d="M249 40h0"></path>
<rect x="195" y="29" width="54" height="22" rx="10" ry="10"></rect>
<text x="222" y="44">!"-"</text>
</g>
<path d="M249 40h10"></path>
<path d="M259 40h10"></path>
<g class="terminal">
<path d="M269 40h0"></path>
<path d="M331.5 40h0"></path>
<rect x="269" y="29" width="62.5" height="22" rx="10" ry="10"></rect>
<text x="300.25" y="44">^\w+$</text>
</g>
</g>
<path d="M331.5 40h10"></path>
<path d="M195 40a10 10 0 0 0 -10 10v0a10 10 0 0 0 10 10"></path>
<g>
<path d="M195 60h136.5"></path>
</g>
<path d="M331.5 60a10 10 0 0 0 10 -10v0a10 10 0 0 0 -10 -10"></path>
</g>
<path d="M341.5 40h20"></path>
</g>
</g>
<path d="M361.5 40h10"></path>
<path d="M 371.5 40 h 20 m 0 -10 v 20"></path>
</g>
</svg>
