<svg xmlns="http://www.w3.org/2000/svg" xmlns:xlink="http://www.w3.org/1999/xlink" class="railroad-diagram" width="591.5" height="71" viewBox="0 0 591.5 71">
<defs>
<style type="text/css"><![CDATA[
path {
stroke-width: 3;
stroke: black;
fill: rgba(0,0,0,0);
}
text {
font: bold 14px monospace;
text-anchor: middle;
}
text.diagram-text {
font-size: 12px;
}
a {
fill: blue;
}
text.diagram-arrow {
font-size: 16px;
}
text.label {
text-anchor: start;
}
text.comment {
font: italic 12px monospace;
}
rect {
stroke-width: 3;
stroke: black;
fill: #BCBCBC;
}
path.diagram-text {
stroke-width: 3;
stroke: black;
fill: #BCBCBC;
cursor: help;
}
]]></style>
</defs>
<g transform="translate(.5 .5)">
<g>
<path d="M20 21v20m0 -10h20"></path>
</g>
<path d="M40 31h10"></path>
<g>
<path d="M50 31h0"></path>
<path d="M541.5 31h0"></path>
<g class="terminal">
<path d="M50 31h0"></path>
<path d="M146.5 31h0"></path>
<rect x="50" y="20" width="96.5" height="22" rx="10" ry="10"></rect>
<text x="98.25" y="35">"MAPPING"</text>
</g>
<path d="M146.5 31h10"></path>
<path d="M156.5 31h10"></path>
<g>
<path d="M166.5 31h0"></path>
<path d="M541.5 31h0"></path>
<path d="M166.5 31h10"></path>
<g>
<path d="M176.5 31h0"></path>
<path d="M531.5 31h0"></path>
<g class="non-terminal">
<path d="M176.5 31h0"></path>
<path d="M307 31h0"></path>
<rect x="176.5" y="20" width="130.5" height="22"></rect>
<a xlink:href="#/abap/expression/ComponentName"><text x="241.75" y="35">ComponentName</text>
</a>
</g>
<path d="M307 31h10"></path>
<path d="M317 31h10"></path>
<g class="terminal">
<path d="M327 31h0"></path>
<path d="M372.5 31h0"></path>
<rect x="327" y="20" width="45.5" height="22" rx="10" ry="10"></rect>
<text x="349.75" y="35">"="</text>
</g>
<path d="M372.5 31h10"></path>
<path d="M382.5 31h10"></path>
<g class="non-terminal">
<path d="M392.5 31h0"></path>
<path d="M531.5 31h0"></path>
<rect x="392.5" y="20" width="139" height="22"></rect>
<a xlink:href="#/abap/expression/ComponentChain"><text x="462" y="35">ComponentChain</text>
</a>
</g>
</g>
<path d="M531.5 31h10"></path>
<path d="M176.5 31a10 10 0 0 0 -10 10v0a10 10 0 0 0 10 10"></path>
<g>
<path d="M176.5 51h355"></path>
</g>
<path d="M531.5 51a10 10 0 0 0 10 -10v0a10 10 0 0 0 -10 -10"></path>
</g>
</g>
<path d="M541.5 31h10"></path>
<path d="M 551.5 31 h 20 m 0 -10 v 20"></path>
</g>
</svg>
