<svg xmlns="http://www.w3.org/2000/svg" xmlns:xlink="http://www.w3.org/1999/xlink" class="railroad-diagram" width="1468.5" height="101" viewBox="0 0 1468.5 101">
<defs>
<style type="text/css"><![CDATA[
path {
stroke-width: 3;
stroke: black;
fill: rgba(0,0,0,0);
}
text {
font: bold 14px monospace;
text-anchor: middle;
}
text.diagram-text {
font-size: 12px;
}
a {
fill: blue;
}
text.diagram-arrow {
font-size: 16px;
}
text.label {
text-anchor: start;
}
text.comment {
font: italic 12px monospace;
}
rect {
stroke-width: 3;
stroke: black;
fill: #BCBCBC;
}
path.diagram-text {
stroke-width: 3;
stroke: black;
fill: #BCBCBC;
cursor: help;
}
]]></style>
</defs>
<g transform="translate(.5 .5)">
<g>
<path d="M20 30v20m0 -10h20"></path>
</g>
<path d="M40 40h10"></path>
<g>
<path d="M50 40h0"></path>
<path d="M1418.5 40h0"></path>
<g class="comment ">
<path d="M50 40h0"></path>
<path d="M88 40h0"></path>
<text x="69" y="45" class="comment">7.93</text>
</g>
<path d="M88 40h10"></path>
<path d="M98 40h10"></path>
<g>
<path d="M108 40h0"></path>
<path d="M1418.5 40h0"></path>
<g>
<path d="M108 40h0"></path>
<path d="M329.5 40h0"></path>
<path d="M108 40h20"></path>
<g class="terminal ">
<path d="M128 40h0"></path>
<path d="M309.5 40h0"></path>
<rect x="128" y="29" width="181.5" height="22" rx="10" ry="10"></rect>
<text x="218.75" y="44">"SUBSTRING&#95;REGEXPR"</text>
</g>
<path d="M309.5 40h20"></path>
<path d="M108 40a10 10 0 0 1 10 10v10a10 10 0 0 0 10 10"></path>
<g class="terminal ">
<path d="M128 70h12.75"></path>
<path d="M296.75 70h12.75"></path>
<rect x="140.75" y="59" width="156" height="22" rx="10" ry="10"></rect>
<text x="218.75" y="74">"SUBSTR&#95;REGEXPR"</text>
</g>
<path d="M309.5 70a10 10 0 0 0 10 -10v-10a10 10 0 0 1 10 -10"></path>
</g>
<path d="M329.5 40h10"></path>
<g class="terminal ">
<path d="M339.5 40h0"></path>
<path d="M470 40h0"></path>
<rect x="339.5" y="29" width="130.5" height="22" rx="10" ry="10"></rect>
<text x="404.75" y="44">!"ParenLeftW"</text>
</g>
<path d="M470 40h10"></path>
<path d="M480 40h10"></path>
<g class="non-terminal ">
<path d="M490 40h0"></path>
<path d="M654.5 40h0"></path>
<rect x="490" y="29" width="164.5" height="22"></rect>
<a xlink:href="#/abap/expression/SQLRegexprPattern"><text x="572.25" y="44">SQLRegexprPattern</text>
</a>
</g>
<path d="M654.5 40h10"></path>
<g>
<path d="M664.5 40h0"></path>
<path d="M843.5 40h0"></path>
<path d="M664.5 40a10 10 0 0 0 10 -10v0a10 10 0 0 1 10 -10"></path>
<g>
<path d="M684.5 20h139"></path>
</g>
<path d="M823.5 20a10 10 0 0 1 10 10v0a10 10 0 0 0 10 10"></path>
<path d="M664.5 40h20"></path>
<g class="non-terminal ">
<path d="M684.5 40h0"></path>
<path d="M823.5 40h0"></path>
<rect x="684.5" y="29" width="139" height="22"></rect>
<a xlink:href="#/abap/expression/SQLRegexprFrom"><text x="754" y="44">SQLRegexprFrom</text>
</a>
</g>
<path d="M823.5 40h20"></path>
</g>
<g>
<path d="M843.5 40h0"></path>
<path d="M1073.5 40h0"></path>
<path d="M843.5 40a10 10 0 0 0 10 -10v0a10 10 0 0 1 10 -10"></path>
<g>
<path d="M863.5 20h190"></path>
</g>
<path d="M1053.5 20a10 10 0 0 1 10 10v0a10 10 0 0 0 10 10"></path>
<path d="M843.5 40h20"></path>
<g class="non-terminal ">
<path d="M863.5 40h0"></path>
<path d="M1053.5 40h0"></path>
<rect x="863.5" y="29" width="190" height="22"></rect>
<a xlink:href="#/abap/expression/SQLRegexprOccurrence"><text x="958.5" y="44">SQLRegexprOccurrence</text>
</a>
</g>
<path d="M1053.5 40h20"></path>
</g>
<g>
<path d="M1073.5 40h0"></path>
<path d="M1261 40h0"></path>
<path d="M1073.5 40a10 10 0 0 0 10 -10v0a10 10 0 0 1 10 -10"></path>
<g>
<path d="M1093.5 20h147.5"></path>
</g>
<path d="M1241 20a10 10 0 0 1 10 10v0a10 10 0 0 0 10 10"></path>
<path d="M1073.5 40h20"></path>
<g class="non-terminal ">
<path d="M1093.5 40h0"></path>
<path d="M1241 40h0"></path>
<rect x="1093.5" y="29" width="147.5" height="22"></rect>
<a xlink:href="#/abap/expression/SQLRegexprGroup"><text x="1167.25" y="44">SQLRegexprGroup</text>
</a>
</g>
<path d="M1241 40h20"></path>
</g>
<path d="M1261 40h10"></path>
<g class="terminal ">
<path d="M1271 40h0"></path>
<path d="M1418.5 40h0"></path>
<rect x="1271" y="29" width="147.5" height="22" rx="10" ry="10"></rect>
<text x="1344.75" y="44">!"WParenRightW"</text>
</g>
</g>
</g>
<path d="M1418.5 40h10"></path>
<path d="M 1428.5 40 h 20 m 0 -10 v 20"></path>
</g>
</svg>
