<svg xmlns="http://www.w3.org/2000/svg" xmlns:xlink="http://www.w3.org/1999/xlink" class="railroad-diagram" width="600.5" height="80" viewBox="0 0 600.5 80">
<defs>
<style type="text/css"><![CDATA[
path {
stroke-width: 3;
stroke: black;
fill: rgba(0,0,0,0);
}
text {
font: bold 14px monospace;
text-anchor: middle;
}
text.diagram-text {
font-size: 12px;
}
a {
fill: blue;
}
text.diagram-arrow {
font-size: 16px;
}
text.label {
text-anchor: start;
}
text.comment {
font: italic 12px monospace;
}
rect {
stroke-width: 3;
stroke: black;
fill: #BCBCBC;
}
path.diagram-text {
stroke-width: 3;
stroke: black;
fill: #BCBCBC;
cursor: help;
}
]]></style>
</defs>
<g transform="translate(.5 .5)">
<g>
<path d="M20 30v20m0 -10h20"></path>
</g>
<path d="M40 40h10"></path>
<g>
<path d="M50 40h0"></path>
<path d="M550.5 40h0"></path>
<g>
<path d="M50 40h0"></path>
<path d="M152.5 40h0"></path>
<path d="M50 40a10 10 0 0 0 10 -10v0a10 10 0 0 1 10 -10"></path>
<g>
<path d="M70 20h62.5"></path>
</g>
<path d="M132.5 20a10 10 0 0 1 10 10v0a10 10 0 0 0 10 10"></path>
<path d="M50 40h20"></path>
<g class="terminal">
<path d="M70 40h0"></path>
<path d="M132.5 40h0"></path>
<rect x="70" y="29" width="62.5" height="22" rx="10" ry="10"></rect>
<text x="101.25" y="44">!" -"</text>
</g>
<path d="M132.5 40h20"></path>
</g>
<path d="M152.5 40h10"></path>
<g class="terminal">
<path d="M162.5 40h0"></path>
<path d="M284.5 40h0"></path>
<rect x="162.5" y="29" width="122" height="22" rx="10" ry="10"></rect>
<text x="223.5" y="44">^&#91;\w%\$\&#42;&#93;+$</text>
</g>
<path d="M284.5 40h10"></path>
<g>
<path d="M294.5 40h0"></path>
<path d="M550.5 40h0"></path>
<path d="M294.5 40a10 10 0 0 0 10 -10v0a10 10 0 0 1 10 -10"></path>
<g>
<path d="M314.5 20h216"></path>
</g>
<path d="M530.5 20a10 10 0 0 1 10 10v0a10 10 0 0 0 10 10"></path>
<path d="M294.5 40h20"></path>
<g>
<path d="M314.5 40h0"></path>
<path d="M530.5 40h0"></path>
<path d="M314.5 40h10"></path>
<g>
<path d="M324.5 40h0"></path>
<path d="M520.5 40h0"></path>
<g class="terminal">
<path d="M324.5 40h0"></path>
<path d="M378.5 40h0"></path>
<rect x="324.5" y="29" width="54" height="22" rx="10" ry="10"></rect>
<text x="351.5" y="44">!"-"</text>
</g>
<path d="M378.5 40h10"></path>
<path d="M388.5 40h10"></path>
<g class="terminal">
<path d="M398.5 40h0"></path>
<path d="M520.5 40h0"></path>
<rect x="398.5" y="29" width="122" height="22" rx="10" ry="10"></rect>
<text x="459.5" y="44">^&#91;\w%\$\&#42;&#93;+$</text>
</g>
</g>
<path d="M520.5 40h10"></path>
<path d="M324.5 40a10 10 0 0 0 -10 10v0a10 10 0 0 0 10 10"></path>
<g>
<path d="M324.5 60h196"></path>
</g>
<path d="M520.5 60a10 10 0 0 0 10 -10v0a10 10 0 0 0 -10 -10"></path>
</g>
<path d="M530.5 40h20"></path>
</g>
</g>
<path d="M550.5 40h10"></path>
<path d="M 560.5 40 h 20 m 0 -10 v 20"></path>
</g>
</svg>
