<svg xmlns="http://www.w3.org/2000/svg" xmlns:xlink="http://www.w3.org/1999/xlink" class="railroad-diagram" width="1535.5" height="398" viewBox="0 0 1535.5 398">
<defs>
<style type="text/css"><![CDATA[
path {
stroke-width: 3;
stroke: black;
fill: rgba(0,0,0,0);
}
text {
font: bold 14px monospace;
text-anchor: middle;
}
text.diagram-text {
font-size: 12px;
}
a {
fill: blue;
}
text.diagram-arrow {
font-size: 16px;
}
text.label {
text-anchor: start;
}
text.comment {
font: italic 12px monospace;
}
rect {
stroke-width: 3;
stroke: black;
fill: #BCBCBC;
}
path.diagram-text {
stroke-width: 3;
stroke: black;
fill: #BCBCBC;
cursor: help;
}
]]></style>
</defs>
<g transform="translate(.5 .5)">
<g>
<path d="M20 21v20m0 -10h20"></path>
</g>
<g>
<path d="M40 31h0"></path>
<path d="M1495.5 31h0"></path>
<path d="M40 31h20"></path>
<g>
<path d="M60 31h0"></path>
<path d="M370 31h1105.5"></path>
<g class="terminal">
<path d="M60 31h0"></path>
<path d="M148 31h0"></path>
<rect x="60" y="20" width="88" height="22" rx="10" ry="10"></rect>
<text x="104" y="35">"EXISTS"</text>
</g>
<path d="M148 31h10"></path>
<path d="M158 31h10"></path>
<g>
<path d="M168 31h0"></path>
<path d="M370 31h0"></path>
<g class="terminal">
<path d="M168 31h0"></path>
<path d="M213.5 31h0"></path>
<rect x="168" y="20" width="45.5" height="22" rx="10" ry="10"></rect>
<text x="190.75" y="35">"("</text>
</g>
<path d="M213.5 31h10"></path>
<path d="M223.5 31h10"></path>
<g class="non-terminal">
<path d="M233.5 31h0"></path>
<path d="M304.5 31h0"></path>
<rect x="233.5" y="20" width="71" height="22"></rect>
<a xlink:href="#/abap/expression/Select"><text x="269" y="35">Select</text>
</a>
</g>
<path d="M304.5 31h10"></path>
<path d="M314.5 31h10"></path>
<g class="terminal">
<path d="M324.5 31h0"></path>
<path d="M370 31h0"></path>
<rect x="324.5" y="20" width="45.5" height="22" rx="10" ry="10"></rect>
<text x="347.25" y="35">")"</text>
</g>
</g>
</g>
<path d="M1475.5 31h20"></path>
<path d="M40 31a10 10 0 0 1 10 10v10a10 10 0 0 0 10 10"></path>
<g class="non-terminal">
<path d="M60 61h0"></path>
<path d="M139.5 61h1336"></path>
<rect x="60" y="50" width="79.5" height="22"></rect>
<a xlink:href="#/abap/expression/Dynamic"><text x="99.75" y="65">Dynamic</text>
</a>
</g>
<path d="M1475.5 61a10 10 0 0 0 10 -10v-10a10 10 0 0 1 10 -10"></path>
<path d="M40 31a10 10 0 0 1 10 10v49a10 10 0 0 0 10 10"></path>
<g>
<path d="M60 100h0"></path>
<path d="M1475.5 100h0"></path>
<g>
<path d="M60 100h0"></path>
<path d="M688.5 100h0"></path>
<path d="M60 100h20"></path>
<g class="non-terminal">
<path d="M80 100h0"></path>
<path d="M193.5 100h475"></path>
<rect x="80" y="89" width="113.5" height="22"></rect>
<a xlink:href="#/abap/expression/SQLFunction"><text x="136.75" y="104">SQLFunction</text>
</a>
</g>
<path d="M668.5 100h20"></path>
<path d="M60 100a10 10 0 0 1 10 10v10a10 10 0 0 0 10 10"></path>
<g class="non-terminal">
<path d="M80 130h0"></path>
<path d="M219 130h449.5"></path>
<rect x="80" y="119" width="139" height="22"></rect>
<a xlink:href="#/abap/expression/ConstantString"><text x="149.5" y="134">ConstantString</text>
</a>
</g>
<path d="M668.5 130a10 10 0 0 0 10 -10v-10a10 10 0 0 1 10 -10"></path>
<path d="M60 100a10 10 0 0 1 10 10v49a10 10 0 0 0 10 10"></path>
<g>
<path d="M80 169h0"></path>
<path d="M668.5 169h0"></path>
<g>
<path d="M80 169h0"></path>
<path d="M242 169h0"></path>
<path d="M80 169h20"></path>
<g class="non-terminal">
<path d="M100 169h0"></path>
<path d="M179.5 169h42.5"></path>
<rect x="100" y="158" width="79.5" height="22"></rect>
<a xlink:href="#/abap/expression/SQLPath"><text x="139.75" y="173">SQLPath</text>
</a>
</g>
<path d="M222 169h20"></path>
<path d="M80 169a10 10 0 0 1 10 10v10a10 10 0 0 0 10 10"></path>
<g class="non-terminal">
<path d="M100 199h0"></path>
<path d="M222 199h0"></path>
<rect x="100" y="188" width="122" height="22"></rect>
<a xlink:href="#/abap/expression/SQLFieldName"><text x="161" y="203">SQLFieldName</text>
</a>
</g>
<path d="M222 199a10 10 0 0 0 10 -10v-10a10 10 0 0 1 10 -10"></path>
</g>
<g>
<path d="M242 169h0"></path>
<path d="M668.5 169h0"></path>
<path d="M242 169a10 10 0 0 0 10 -10v0a10 10 0 0 1 10 -10"></path>
<g>
<path d="M262 149h386.5"></path>
</g>
<path d="M648.5 149a10 10 0 0 1 10 10v0a10 10 0 0 0 10 10"></path>
<path d="M242 169h20"></path>
<g>
<path d="M262 169h0"></path>
<path d="M648.5 169h0"></path>
<g>
<path d="M262 169h0"></path>
<path d="M391 169h0"></path>
<text x="326.5" y="174" class="comment">v750 or open-abap</text>
</g>
<path d="M391 169h10"></path>
<path d="M401 169h10"></path>
<g>
<path d="M411 169h0"></path>
<path d="M648.5 169h0"></path>
<path d="M411 169h10"></path>
<g>
<path d="M421 169h0"></path>
<path d="M638.5 169h0"></path>
<g>
<path d="M421 169h0"></path>
<path d="M506.5 169h0"></path>
<path d="M421 169h20"></path>
<g class="terminal">
<path d="M441 169h0"></path>
<path d="M486.5 169h0"></path>
<rect x="441" y="158" width="45.5" height="22" rx="10" ry="10"></rect>
<text x="463.75" y="173">"+"</text>
</g>
<path d="M486.5 169h20"></path>
<path d="M421 169a10 10 0 0 1 10 10v10a10 10 0 0 0 10 10"></path>
<g class="terminal">
<path d="M441 199h0"></path>
<path d="M486.5 199h0"></path>
<rect x="441" y="188" width="45.5" height="22" rx="10" ry="10"></rect>
<text x="463.75" y="203">"-"</text>
</g>
<path d="M486.5 199a10 10 0 0 0 10 -10v-10a10 10 0 0 1 10 -10"></path>
<path d="M421 169a10 10 0 0 1 10 10v40a10 10 0 0 0 10 10"></path>
<g class="terminal">
<path d="M441 229h0"></path>
<path d="M486.5 229h0"></path>
<rect x="441" y="218" width="45.5" height="22" rx="10" ry="10"></rect>
<text x="463.75" y="233">"&#42;"</text>
</g>
<path d="M486.5 229a10 10 0 0 0 10 -10v-40a10 10 0 0 1 10 -10"></path>
<path d="M421 169a10 10 0 0 1 10 10v70a10 10 0 0 0 10 10"></path>
<g class="terminal">
<path d="M441 259h0"></path>
<path d="M486.5 259h0"></path>
<rect x="441" y="248" width="45.5" height="22" rx="10" ry="10"></rect>
<text x="463.75" y="263">"/"</text>
</g>
<path d="M486.5 259a10 10 0 0 0 10 -10v-70a10 10 0 0 1 10 -10"></path>
</g>
<path d="M506.5 169h10"></path>
<g class="non-terminal">
<path d="M516.5 169h0"></path>
<path d="M638.5 169h0"></path>
<rect x="516.5" y="158" width="122" height="22"></rect>
<a xlink:href="#/abap/expression/SQLFieldName"><text x="577.5" y="173">SQLFieldName</text>
</a>
</g>
</g>
<path d="M638.5 169h10"></path>
<path d="M421 169a10 10 0 0 0 -10 10v89a10 10 0 0 0 10 10"></path>
<g>
<path d="M421 278h217.5"></path>
</g>
<path d="M638.5 278a10 10 0 0 0 10 -10v-89a10 10 0 0 0 -10 -10"></path>
</g>
</g>
<path d="M648.5 169h20"></path>
</g>
</g>
<path d="M668.5 169a10 10 0 0 0 10 -10v-49a10 10 0 0 1 10 -10"></path>
<path d="M60 100a10 10 0 0 1 10 10v177a10 10 0 0 0 10 10"></path>
<g>
<path d="M80 297h0"></path>
<path d="M614 297h54.5"></path>
<g>
<path d="M80 297h0"></path>
<path d="M237 297h0"></path>
<text x="158.5" y="302" class="comment">v740sp05 or open-abap</text>
</g>
<path d="M237 297h10"></path>
<path d="M247 297h10"></path>
<g>
<path d="M257 297h0"></path>
<path d="M614 297h0"></path>
<g class="terminal">
<path d="M257 297h0"></path>
<path d="M319.5 297h0"></path>
<rect x="257" y="286" width="62.5" height="22" rx="10" ry="10"></rect>
<text x="288.25" y="301">!" @"</text>
</g>
<path d="M319.5 297h10"></path>
<g>
<path d="M329.5 297h0"></path>
<path d="M614 297h0"></path>
<path d="M329.5 297h20"></path>
<g class="non-terminal">
<path d="M349.5 297h0"></path>
<path d="M480 297h114"></path>
<rect x="349.5" y="286" width="130.5" height="22"></rect>
<a xlink:href="#/abap/expression/SimpleSource3"><text x="414.75" y="301">SimpleSource3</text>
</a>
</g>
<path d="M594 297h20"></path>
<path d="M329.5 297a10 10 0 0 1 10 10v10a10 10 0 0 0 10 10"></path>
<g>
<path d="M349.5 327h0"></path>
<path d="M594 327h0"></path>
<g class="terminal">
<path d="M349.5 327h0"></path>
<path d="M412 327h0"></path>
<rect x="349.5" y="316" width="62.5" height="22" rx="10" ry="10"></rect>
<text x="380.75" y="331">!"( "</text>
</g>
<path d="M412 327h10"></path>
<path d="M422 327h10"></path>
<g class="non-terminal">
<path d="M432 327h0"></path>
<path d="M503 327h0"></path>
<rect x="432" y="316" width="71" height="22"></rect>
<a xlink:href="#/abap/expression/Source"><text x="467.5" y="331">Source</text>
</a>
</g>
<path d="M503 327h10"></path>
<path d="M513 327h10"></path>
<g class="terminal">
<path d="M523 327h0"></path>
<path d="M594 327h0"></path>
<rect x="523" y="316" width="71" height="22" rx="10" ry="10"></rect>
<text x="558.5" y="331">!" ) "</text>
</g>
</g>
<path d="M594 327a10 10 0 0 0 10 -10v-10a10 10 0 0 1 10 -10"></path>
</g>
</g>
</g>
<path d="M668.5 297a10 10 0 0 0 10 -10v-177a10 10 0 0 1 10 -10"></path>
</g>
<g>
<path d="M688.5 100h0"></path>
<path d="M1475.5 100h0"></path>
<path d="M688.5 100h20"></path>
<g>
<path d="M708.5 100h0"></path>
<path d="M1455.5 100h0"></path>
<g class="non-terminal">
<path d="M708.5 100h0"></path>
<path d="M881.5 100h0"></path>
<rect x="708.5" y="89" width="173" height="22"></rect>
<a xlink:href="#/abap/expression/SQLCompareOperator"><text x="795" y="104">SQLCompareOperator</text>
</a>
</g>
<path d="M881.5 100h10"></path>
<g>
<path d="M891.5 100h0"></path>
<path d="M1455.5 100h0"></path>
<path d="M891.5 100h20"></path>
<g>
<path d="M911.5 100h0"></path>
<path d="M1435.5 100h0"></path>
<g>
<path d="M911.5 100h0"></path>
<path d="M1062.5 100h0"></path>
<path d="M911.5 100a10 10 0 0 0 10 -10v0a10 10 0 0 1 10 -10"></path>
<g>
<path d="M931.5 80h111"></path>
</g>
<path d="M1042.5 80a10 10 0 0 1 10 10v0a10 10 0 0 0 10 10"></path>
<path d="M911.5 100h20"></path>
<g>
<path d="M931.5 100h0"></path>
<path d="M1042.5 100h0"></path>
<path d="M931.5 100h20"></path>
<g class="terminal">
<path d="M951.5 100h0"></path>
<path d="M1014 100h8.5"></path>
<rect x="951.5" y="89" width="62.5" height="22" rx="10" ry="10"></rect>
<text x="982.75" y="104">"ALL"</text>
</g>
<path d="M1022.5 100h20"></path>
<path d="M931.5 100a10 10 0 0 1 10 10v10a10 10 0 0 0 10 10"></path>
<g class="terminal">
<path d="M951.5 130h0"></path>
<path d="M1014 130h8.5"></path>
<rect x="951.5" y="119" width="62.5" height="22" rx="10" ry="10"></rect>
<text x="982.75" y="134">"ANY"</text>
</g>
<path d="M1022.5 130a10 10 0 0 0 10 -10v-10a10 10 0 0 1 10 -10"></path>
<path d="M931.5 100a10 10 0 0 1 10 10v40a10 10 0 0 0 10 10"></path>
<g class="terminal">
<path d="M951.5 160h0"></path>
<path d="M1022.5 160h0"></path>
<rect x="951.5" y="149" width="71" height="22" rx="10" ry="10"></rect>
<text x="987" y="164">"SOME"</text>
</g>
<path d="M1022.5 160a10 10 0 0 0 10 -10v-40a10 10 0 0 1 10 -10"></path>
</g>
<path d="M1042.5 100h20"></path>
</g>
<g>
<path d="M1062.5 100h0"></path>
<path d="M1435.5 100h0"></path>
<path d="M1062.5 100h20"></path>
<g>
<path d="M1082.5 100h0"></path>
<path d="M1284.5 100h131"></path>
<g class="terminal">
<path d="M1082.5 100h0"></path>
<path d="M1128 100h0"></path>
<rect x="1082.5" y="89" width="45.5" height="22" rx="10" ry="10"></rect>
<text x="1105.25" y="104">"("</text>
</g>
<path d="M1128 100h10"></path>
<path d="M1138 100h10"></path>
<g class="non-terminal">
<path d="M1148 100h0"></path>
<path d="M1219 100h0"></path>
<rect x="1148" y="89" width="71" height="22"></rect>
<a xlink:href="#/abap/expression/Select"><text x="1183.5" y="104">Select</text>
</a>
</g>
<path d="M1219 100h10"></path>
<path d="M1229 100h10"></path>
<g class="terminal">
<path d="M1239 100h0"></path>
<path d="M1284.5 100h0"></path>
<rect x="1239" y="89" width="45.5" height="22" rx="10" ry="10"></rect>
<text x="1261.75" y="104">")"</text>
</g>
</g>
<path d="M1415.5 100h20"></path>
<path d="M1062.5 100a10 10 0 0 1 10 10v10a10 10 0 0 0 10 10"></path>
<g>
<path d="M1082.5 130h0"></path>
<path d="M1415.5 130h0"></path>
<g class="terminal">
<path d="M1082.5 130h0"></path>
<path d="M1128 130h0"></path>
<rect x="1082.5" y="119" width="45.5" height="22" rx="10" ry="10"></rect>
<text x="1105.25" y="134">"("</text>
</g>
<path d="M1128 130h10"></path>
<path d="M1138 130h10"></path>
<g class="terminal">
<path d="M1148 130h0"></path>
<path d="M1193.5 130h0"></path>
<rect x="1148" y="119" width="45.5" height="22" rx="10" ry="10"></rect>
<text x="1170.75" y="134">"("</text>
</g>
<path d="M1193.5 130h10"></path>
<path d="M1203.5 130h10"></path>
<g class="non-terminal">
<path d="M1213.5 130h0"></path>
<path d="M1284.5 130h0"></path>
<rect x="1213.5" y="119" width="71" height="22"></rect>
<a xlink:href="#/abap/expression/Select"><text x="1249" y="134">Select</text>
</a>
</g>
<path d="M1284.5 130h10"></path>
<path d="M1294.5 130h10"></path>
<g class="terminal">
<path d="M1304.5 130h0"></path>
<path d="M1350 130h0"></path>
<rect x="1304.5" y="119" width="45.5" height="22" rx="10" ry="10"></rect>
<text x="1327.25" y="134">")"</text>
</g>
<path d="M1350 130h10"></path>
<path d="M1360 130h10"></path>
<g class="terminal">
<path d="M1370 130h0"></path>
<path d="M1415.5 130h0"></path>
<rect x="1370" y="119" width="45.5" height="22" rx="10" ry="10"></rect>
<text x="1392.75" y="134">")"</text>
</g>
</g>
<path d="M1415.5 130a10 10 0 0 0 10 -10v-10a10 10 0 0 1 10 -10"></path>
</g>
</g>
<path d="M1435.5 100h20"></path>
<path d="M891.5 100a10 10 0 0 1 10 10v70a10 10 0 0 0 10 10"></path>
<g class="non-terminal">
<path d="M911.5 190h0"></path>
<path d="M1008 190h427.5"></path>
<rect x="911.5" y="179" width="96.5" height="22"></rect>
<a xlink:href="#/abap/expression/SQLSource"><text x="959.75" y="194">SQLSource</text>
</a>
</g>
<path d="M1435.5 190a10 10 0 0 0 10 -10v-70a10 10 0 0 1 10 -10"></path>
</g>
</g>
<path d="M1455.5 100h20"></path>
<path d="M688.5 100a10 10 0 0 1 10 10v109a10 10 0 0 0 10 10"></path>
<g>
<path d="M708.5 229h0"></path>
<path d="M1293 229h162.5"></path>
<g>
<path d="M708.5 229h0"></path>
<path d="M811 229h0"></path>
<path d="M708.5 229a10 10 0 0 0 10 -10v0a10 10 0 0 1 10 -10"></path>
<g>
<path d="M728.5 209h62.5"></path>
</g>
<path d="M791 209a10 10 0 0 1 10 10v0a10 10 0 0 0 10 10"></path>
<path d="M708.5 229h20"></path>
<g class="terminal">
<path d="M728.5 229h0"></path>
<path d="M791 229h0"></path>
<rect x="728.5" y="218" width="62.5" height="22" rx="10" ry="10"></rect>
<text x="759.75" y="233">"NOT"</text>
</g>
<path d="M791 229h20"></path>
</g>
<g>
<path d="M811 229h0"></path>
<path d="M1293 229h0"></path>
<path d="M811 229h20"></path>
<g class="non-terminal">
<path d="M831 229h0"></path>
<path d="M893.5 229h379.5"></path>
<rect x="831" y="218" width="62.5" height="22"></rect>
<a xlink:href="#/abap/expression/SQLIn"><text x="862.25" y="233">SQLIn</text>
</a>
</g>
<path d="M1273 229h20"></path>
<path d="M811 229a10 10 0 0 1 10 10v19a10 10 0 0 0 10 10"></path>
<g>
<path d="M831 268h0"></path>
<path d="M1273 268h0"></path>
<g class="terminal">
<path d="M831 268h0"></path>
<path d="M902 268h0"></path>
<rect x="831" y="257" width="71" height="22" rx="10" ry="10"></rect>
<text x="866.5" y="272">"LIKE"</text>
</g>
<path d="M902 268h10"></path>
<path d="M912 268h10"></path>
<g class="non-terminal">
<path d="M922 268h0"></path>
<path d="M1018.5 268h0"></path>
<rect x="922" y="257" width="96.5" height="22"></rect>
<a xlink:href="#/abap/expression/SQLSource"><text x="970.25" y="272">SQLSource</text>
</a>
</g>
<path d="M1018.5 268h10"></path>
<g>
<path d="M1028.5 268h0"></path>
<path d="M1273 268h0"></path>
<path d="M1028.5 268a10 10 0 0 0 10 -10v0a10 10 0 0 1 10 -10"></path>
<g>
<path d="M1048.5 248h204.5"></path>
</g>
<path d="M1253 248a10 10 0 0 1 10 10v0a10 10 0 0 0 10 10"></path>
<path d="M1028.5 268h20"></path>
<g>
<path d="M1048.5 268h0"></path>
<path d="M1253 268h0"></path>
<g class="terminal">
<path d="M1048.5 268h0"></path>
<path d="M1136.5 268h0"></path>
<rect x="1048.5" y="257" width="88" height="22" rx="10" ry="10"></rect>
<text x="1092.5" y="272">"ESCAPE"</text>
</g>
<path d="M1136.5 268h10"></path>
<path d="M1146.5 268h10"></path>
<g class="non-terminal">
<path d="M1156.5 268h0"></path>
<path d="M1253 268h0"></path>
<rect x="1156.5" y="257" width="96.5" height="22"></rect>
<a xlink:href="#/abap/expression/SQLSource"><text x="1204.75" y="272">SQLSource</text>
</a>
</g>
</g>
<path d="M1253 268h20"></path>
</g>
</g>
<path d="M1273 268a10 10 0 0 0 10 -10v-19a10 10 0 0 1 10 -10"></path>
<path d="M811 229a10 10 0 0 1 10 10v49a10 10 0 0 0 10 10"></path>
<g>
<path d="M831 298h0"></path>
<path d="M1243 298h30"></path>
<g class="terminal">
<path d="M831 298h0"></path>
<path d="M927.5 298h0"></path>
<rect x="831" y="287" width="96.5" height="22" rx="10" ry="10"></rect>
<text x="879.25" y="302">"BETWEEN"</text>
</g>
<path d="M927.5 298h10"></path>
<path d="M937.5 298h10"></path>
<g class="non-terminal">
<path d="M947.5 298h0"></path>
<path d="M1044 298h0"></path>
<rect x="947.5" y="287" width="96.5" height="22"></rect>
<a xlink:href="#/abap/expression/SQLSource"><text x="995.75" y="302">SQLSource</text>
</a>
</g>
<path d="M1044 298h10"></path>
<path d="M1054 298h10"></path>
<g class="terminal">
<path d="M1064 298h0"></path>
<path d="M1126.5 298h0"></path>
<rect x="1064" y="287" width="62.5" height="22" rx="10" ry="10"></rect>
<text x="1095.25" y="302">"AND"</text>
</g>
<path d="M1126.5 298h10"></path>
<path d="M1136.5 298h10"></path>
<g class="non-terminal">
<path d="M1146.5 298h0"></path>
<path d="M1243 298h0"></path>
<rect x="1146.5" y="287" width="96.5" height="22"></rect>
<a xlink:href="#/abap/expression/SQLSource"><text x="1194.75" y="302">SQLSource</text>
</a>
</g>
</g>
<path d="M1273 298a10 10 0 0 0 10 -10v-49a10 10 0 0 1 10 -10"></path>
</g>
</g>
<path d="M1455.5 229a10 10 0 0 0 10 -10v-109a10 10 0 0 1 10 -10"></path>
<path d="M688.5 100a10 10 0 0 1 10 10v217a10 10 0 0 0 10 10"></path>
<g>
<path d="M708.5 337h0"></path>
<path d="M1069.5 337h386"></path>
<g class="terminal">
<path d="M708.5 337h0"></path>
<path d="M762.5 337h0"></path>
<rect x="708.5" y="326" width="54" height="22" rx="10" ry="10"></rect>
<text x="735.5" y="341">"IS"</text>
</g>
<path d="M762.5 337h10"></path>
<g>
<path d="M772.5 337h0"></path>
<path d="M875 337h0"></path>
<path d="M772.5 337a10 10 0 0 0 10 -10v0a10 10 0 0 1 10 -10"></path>
<g>
<path d="M792.5 317h62.5"></path>
</g>
<path d="M855 317a10 10 0 0 1 10 10v0a10 10 0 0 0 10 10"></path>
<path d="M772.5 337h20"></path>
<g class="terminal">
<path d="M792.5 337h0"></path>
<path d="M855 337h0"></path>
<rect x="792.5" y="326" width="62.5" height="22" rx="10" ry="10"></rect>
<text x="823.75" y="341">"NOT"</text>
</g>
<path d="M855 337h20"></path>
</g>
<g>
<path d="M875 337h0"></path>
<path d="M1069.5 337h0"></path>
<path d="M875 337h20"></path>
<g class="terminal">
<path d="M895 337h0"></path>
<path d="M966 337h83.5"></path>
<rect x="895" y="326" width="71" height="22" rx="10" ry="10"></rect>
<text x="930.5" y="341">"NULL"</text>
</g>
<path d="M1049.5 337h20"></path>
<path d="M875 337a10 10 0 0 1 10 10v10a10 10 0 0 0 10 10"></path>
<g>
<path d="M895 367h0"></path>
<path d="M1049.5 367h0"></path>
<g>
<path d="M895 367h0"></path>
<path d="M933 367h0"></path>
<text x="914" y="372" class="comment">v753</text>
</g>
<path d="M933 367h10"></path>
<path d="M943 367h10"></path>
<g class="terminal">
<path d="M953 367h0"></path>
<path d="M1049.5 367h0"></path>
<rect x="953" y="356" width="96.5" height="22" rx="10" ry="10"></rect>
<text x="1001.25" y="371">"INITIAL"</text>
</g>
</g>
<path d="M1049.5 367a10 10 0 0 0 10 -10v-10a10 10 0 0 1 10 -10"></path>
</g>
</g>
<path d="M1455.5 337a10 10 0 0 0 10 -10v-217a10 10 0 0 1 10 -10"></path>
</g>
</g>
<path d="M1475.5 100a10 10 0 0 0 10 -10v-49a10 10 0 0 1 10 -10"></path>
</g>
<path d="M 1495.5 31 h 20 m 0 -10 v 20"></path>
</g>
</svg>
