<svg xmlns="http://www.w3.org/2000/svg" xmlns:xlink="http://www.w3.org/1999/xlink" class="railroad-diagram" width="705" height="186" viewBox="0 0 705 186">
<defs>
<style type="text/css"><![CDATA[
path {
stroke-width: 3;
stroke: black;
fill: rgba(0,0,0,0);
}
text {
font: bold 14px monospace;
text-anchor: middle;
}
text.diagram-text {
font-size: 12px;
}
a {
fill: blue;
}
text.diagram-arrow {
font-size: 16px;
}
text.label {
text-anchor: start;
}
text.comment {
font: italic 12px monospace;
}
rect {
stroke-width: 3;
stroke: black;
fill: #BCBCBC;
}
path.diagram-text {
stroke-width: 3;
stroke: black;
fill: #BCBCBC;
cursor: help;
}
]]></style>
</defs>
<g transform="translate(.5 .5)">
<g>
<path d="M20 38v20m0 -10h20"></path>
</g>
<g>
<path d="M40 48h0"></path>
<path d="M665 48h0"></path>
<path d="M40 48a10 10 0 0 0 10 -10v-8a10 10 0 0 1 10 -10"></path>
<g>
<path d="M60 20h585"></path>
</g>
<path d="M645 20a10 10 0 0 1 10 10v8a10 10 0 0 0 10 10"></path>
<path d="M40 48h20"></path>
<g>
<path d="M60 48h0"></path>
<path d="M645 48h0"></path>
<path d="M60 48h20"></path>
<g>
<path d="M80 48h0"></path>
<path d="M625 48h0"></path>
<g>
<path d="M80 48h0"></path>
<path d="M165.5 48h0"></path>
<path d="M80 48a10 10 0 0 0 10 -10v0a10 10 0 0 1 10 -10"></path>
<g>
<path d="M100 28h45.5"></path>
</g>
<path d="M145.5 28a10 10 0 0 1 10 10v0a10 10 0 0 0 10 10"></path>
<path d="M80 48h20"></path>
<g class="non-terminal ">
<path d="M100 48h0"></path>
<path d="M145.5 48h0"></path>
<rect x="100" y="37" width="45.5" height="22"></rect>
<a xlink:href="#/abap/expression/Let"><text x="122.75" y="52">Let</text>
</a>
</g>
<path d="M145.5 48h20"></path>
</g>
<g>
<path d="M165.5 48h0"></path>
<path d="M302 48h0"></path>
<path d="M165.5 48a10 10 0 0 0 10 -10v0a10 10 0 0 1 10 -10"></path>
<g>
<path d="M185.5 28h96.5"></path>
</g>
<path d="M282 28a10 10 0 0 1 10 10v0a10 10 0 0 0 10 10"></path>
<path d="M165.5 48h20"></path>
<g class="non-terminal ">
<path d="M185.5 48h0"></path>
<path d="M282 48h0"></path>
<rect x="185.5" y="37" width="96.5" height="22"></rect>
<a xlink:href="#/abap/expression/ValueBase"><text x="233.75" y="52">ValueBase</text>
</a>
</g>
<path d="M282 48h20"></path>
</g>
<g>
<path d="M302 48h0"></path>
<path d="M407.5 48h0"></path>
<path d="M302 48a10 10 0 0 0 10 -10v0a10 10 0 0 1 10 -10"></path>
<g>
<path d="M322 28h65.5"></path>
</g>
<path d="M387.5 28a10 10 0 0 1 10 10v0a10 10 0 0 0 10 10"></path>
<path d="M302 48h20"></path>
<g>
<path d="M322 48h0"></path>
<path d="M387.5 48h0"></path>
<path d="M322 48h10"></path>
<g class="non-terminal ">
<path d="M332 48h0"></path>
<path d="M377.5 48h0"></path>
<rect x="332" y="37" width="45.5" height="22"></rect>
<a xlink:href="#/abap/expression/For"><text x="354.75" y="52">For</text>
</a>
</g>
<path d="M377.5 48h10"></path>
<path d="M332 48a10 10 0 0 0 -10 10v0a10 10 0 0 0 10 10"></path>
<g>
<path d="M332 68h45.5"></path>
</g>
<path d="M377.5 68a10 10 0 0 0 10 -10v0a10 10 0 0 0 -10 -10"></path>
</g>
<path d="M387.5 48h20"></path>
</g>
<path d="M407.5 48h10"></path>
<g>
<path d="M417.5 48h0"></path>
<path d="M625 48h0"></path>
<path d="M417.5 48h10"></path>
<g>
<path d="M427.5 48h0"></path>
<path d="M615 48h0"></path>
<path d="M427.5 48h20"></path>
<g class="non-terminal ">
<path d="M447.5 48h0"></path>
<path d="M595 48h0"></path>
<rect x="447.5" y="37" width="147.5" height="22"></rect>
<a xlink:href="#/abap/expression/FieldAssignment"><text x="521.25" y="52">FieldAssignment</text>
</a>
</g>
<path d="M595 48h20"></path>
<path d="M427.5 48a10 10 0 0 1 10 10v10a10 10 0 0 0 10 10"></path>
<g class="non-terminal ">
<path d="M447.5 78h8.5"></path>
<path d="M586.5 78h8.5"></path>
<rect x="456" y="67" width="130.5" height="22"></rect>
<a xlink:href="#/abap/expression/ValueBodyLine"><text x="521.25" y="82">ValueBodyLine</text>
</a>
</g>
<path d="M595 78a10 10 0 0 0 10 -10v-10a10 10 0 0 1 10 -10"></path>
</g>
<path d="M615 48h10"></path>
<path d="M427.5 48a10 10 0 0 0 -10 10v29a10 10 0 0 0 10 10"></path>
<g>
<path d="M427.5 97h187.5"></path>
</g>
<path d="M615 97a10 10 0 0 0 10 -10v-29a10 10 0 0 0 -10 -10"></path>
</g>
</g>
<path d="M625 48h20"></path>
<path d="M60 48a10 10 0 0 1 10 10v57a10 10 0 0 0 10 10"></path>
<g>
<path d="M80 125h14.75"></path>
<path d="M610.25 125h14.75"></path>
<g class="non-terminal ">
<path d="M94.75 125h0"></path>
<path d="M165.75 125h0"></path>
<rect x="94.75" y="114" width="71" height="22"></rect>
<a xlink:href="#/abap/expression/Source"><text x="130.25" y="129">Source</text>
</a>
</g>
<path d="M165.75 125h10"></path>
<g>
<path d="M175.75 125h0"></path>
<path d="M610.25 125h0"></path>
<path d="M175.75 125a10 10 0 0 0 10 -10v0a10 10 0 0 1 10 -10"></path>
<g>
<path d="M195.75 105h394.5"></path>
</g>
<path d="M590.25 105a10 10 0 0 1 10 10v0a10 10 0 0 0 10 10"></path>
<path d="M175.75 125h20"></path>
<g>
<path d="M195.75 125h0"></path>
<path d="M590.25 125h0"></path>
<g class="comment ">
<path d="M195.75 125h0"></path>
<path d="M352.75 125h0"></path>
<text x="274.25" y="130" class="comment">v740sp08 or open-abap</text>
</g>
<path d="M352.75 125h10"></path>
<g>
<path d="M362.75 125h0"></path>
<path d="M590.25 125h0"></path>
<path d="M362.75 125h20"></path>
<g class="terminal ">
<path d="M382.75 125h41.25"></path>
<path d="M529 125h41.25"></path>
<rect x="424" y="114" width="105" height="22" rx="10" ry="10"></rect>
<text x="476.5" y="129">"OPTIONAL"</text>
</g>
<path d="M570.25 125h20"></path>
<path d="M362.75 125a10 10 0 0 1 10 10v10a10 10 0 0 0 10 10"></path>
<g>
<path d="M382.75 155h0"></path>
<path d="M570.25 155h0"></path>
<g class="terminal ">
<path d="M382.75 155h0"></path>
<path d="M479.25 155h0"></path>
<rect x="382.75" y="144" width="96.5" height="22" rx="10" ry="10"></rect>
<text x="431" y="159">"DEFAULT"</text>
</g>
<path d="M479.25 155h10"></path>
<path d="M489.25 155h10"></path>
<g class="non-terminal ">
<path d="M499.25 155h0"></path>
<path d="M570.25 155h0"></path>
<rect x="499.25" y="144" width="71" height="22"></rect>
<a xlink:href="#/abap/expression/Source"><text x="534.75" y="159">Source</text>
</a>
</g>
</g>
<path d="M570.25 155a10 10 0 0 0 10 -10v-10a10 10 0 0 1 10 -10"></path>
</g>
</g>
<path d="M590.25 125h20"></path>
</g>
</g>
<path d="M625 125a10 10 0 0 0 10 -10v-57a10 10 0 0 1 10 -10"></path>
</g>
<path d="M645 48h20"></path>
</g>
<path d="M 665 48 h 20 m 0 -10 v 20"></path>
</g>
</svg>
