<svg xmlns="http://www.w3.org/2000/svg" xmlns:xlink="http://www.w3.org/1999/xlink" class="railroad-diagram" width="941" height="101" viewBox="0 0 941 101">
<defs>
<style type="text/css"><![CDATA[
path {
stroke-width: 3;
stroke: black;
fill: rgba(0,0,0,0);
}
text {
font: bold 14px monospace;
text-anchor: middle;
}
text.diagram-text {
font-size: 12px;
}
a {
fill: blue;
}
text.diagram-arrow {
font-size: 16px;
}
text.label {
text-anchor: start;
}
text.comment {
font: italic 12px monospace;
}
rect {
stroke-width: 3;
stroke: black;
fill: #BCBCBC;
}
path.diagram-text {
stroke-width: 3;
stroke: black;
fill: #BCBCBC;
cursor: help;
}
]]></style>
</defs>
<g transform="translate(.5 .5)">
<g>
<path d="M20 30v20m0 -10h20"></path>
</g>
<path d="M40 40h10"></path>
<g>
<path d="M50 40h0"></path>
<path d="M891 40h0"></path>
<g class="terminal">
<path d="M50 40h0"></path>
<path d="M121 40h0"></path>
<rect x="50" y="29" width="71" height="22" rx="10" ry="10"></rect>
<text x="85.5" y="44">"INTO"</text>
</g>
<path d="M121 40h10"></path>
<path d="M131 40h10"></path>
<g>
<path d="M141 40h0"></path>
<path d="M891 40h0"></path>
<g>
<path d="M141 40h0"></path>
<path d="M497 40h0"></path>
<path d="M141 40h20"></path>
<g class="terminal">
<path d="M161 40h0"></path>
<path d="M291.5 40h185.5"></path>
<rect x="161" y="29" width="130.5" height="22" rx="10" ry="10"></rect>
<text x="226.25" y="44">!"WParenLeft"</text>
</g>
<path d="M477 40h20"></path>
<path d="M141 40a10 10 0 0 1 10 10v10a10 10 0 0 0 10 10"></path>
<g>
<path d="M161 70h0"></path>
<path d="M477 70h0"></path>
<g>
<path d="M161 70h0"></path>
<path d="M318 70h0"></path>
<text x="239.5" y="75" class="comment">v740sp02 or open-abap</text>
</g>
<path d="M318 70h10"></path>
<path d="M328 70h10"></path>
<g class="terminal">
<path d="M338 70h0"></path>
<path d="M477 70h0"></path>
<rect x="338" y="59" width="139" height="22" rx="10" ry="10"></rect>
<text x="407.5" y="74">!"WParenLeftW"</text>
</g>
</g>
<path d="M477 70a10 10 0 0 0 10 -10v-10a10 10 0 0 1 10 -10"></path>
</g>
<g>
<path d="M497 40h0"></path>
<path d="M719 40h0"></path>
<path d="M497 40a10 10 0 0 0 10 -10v0a10 10 0 0 1 10 -10"></path>
<g>
<path d="M517 20h182"></path>
</g>
<path d="M699 20a10 10 0 0 1 10 10v0a10 10 0 0 0 10 10"></path>
<path d="M497 40h20"></path>
<g>
<path d="M517 40h0"></path>
<path d="M699 40h0"></path>
<path d="M517 40h10"></path>
<g>
<path d="M527 40h0"></path>
<path d="M689 40h0"></path>
<g class="non-terminal">
<path d="M527 40h0"></path>
<path d="M623.5 40h0"></path>
<rect x="527" y="29" width="96.5" height="22"></rect>
<a xlink:href="#/abap/expression/SQLTarget"><text x="575.25" y="44">SQLTarget</text>
</a>
</g>
<path d="M623.5 40h10"></path>
<path d="M633.5 40h10"></path>
<g class="terminal">
<path d="M643.5 40h0"></path>
<path d="M689 40h0"></path>
<rect x="643.5" y="29" width="45.5" height="22" rx="10" ry="10"></rect>
<text x="666.25" y="44">","</text>
</g>
</g>
<path d="M689 40h10"></path>
<path d="M527 40a10 10 0 0 0 -10 10v0a10 10 0 0 0 10 10"></path>
<g>
<path d="M527 60h162"></path>
</g>
<path d="M689 60a10 10 0 0 0 10 -10v0a10 10 0 0 0 -10 -10"></path>
</g>
<path d="M699 40h20"></path>
</g>
<path d="M719 40h10"></path>
<g class="non-terminal">
<path d="M729 40h0"></path>
<path d="M825.5 40h0"></path>
<rect x="729" y="29" width="96.5" height="22"></rect>
<a xlink:href="#/abap/expression/SQLTarget"><text x="777.25" y="44">SQLTarget</text>
</a>
</g>
<path d="M825.5 40h10"></path>
<path d="M835.5 40h10"></path>
<g class="terminal">
<path d="M845.5 40h0"></path>
<path d="M891 40h0"></path>
<rect x="845.5" y="29" width="45.5" height="22" rx="10" ry="10"></rect>
<text x="868.25" y="44">")"</text>
</g>
</g>
</g>
<path d="M891 40h10"></path>
<path d="M 901 40 h 20 m 0 -10 v 20"></path>
</g>
</svg>
