<svg xmlns="http://www.w3.org/2000/svg" xmlns:xlink="http://www.w3.org/1999/xlink" class="railroad-diagram" width="367.5" height="110" viewBox="0 0 367.5 110">
<defs>
<style type="text/css"><![CDATA[
path {
stroke-width: 3;
stroke: black;
fill: rgba(0,0,0,0);
}
text {
font: bold 14px monospace;
text-anchor: middle;
}
text.diagram-text {
font-size: 12px;
}
a {
fill: blue;
}
text.diagram-arrow {
font-size: 16px;
}
text.label {
text-anchor: start;
}
text.comment {
font: italic 12px monospace;
}
rect {
stroke-width: 3;
stroke: black;
fill: #BCBCBC;
}
path.diagram-text {
stroke-width: 3;
stroke: black;
fill: #BCBCBC;
cursor: help;
}
]]></style>
</defs>
<g transform="translate(.5 .5)">
<g>
<path d="M20 21v20m0 -10h20"></path>
</g>
<g>
<path d="M40 31h0"></path>
<path d="M327.5 31h0"></path>
<path d="M40 31h20"></path>
<g>
<path d="M60 31h0"></path>
<path d="M307.5 31h0"></path>
<g class="terminal">
<path d="M60 31h0"></path>
<path d="M131 31h0"></path>
<rect x="60" y="20" width="71" height="22" rx="10" ry="10"></rect>
<text x="95.5" y="35">^&#96;.&#42;&#96;$</text>
</g>
<path d="M131 31h10"></path>
<path d="M141 31h10"></path>
<g>
<path d="M151 31h0"></path>
<path d="M307.5 31h0"></path>
<path d="M151 31h10"></path>
<g>
<path d="M161 31h0"></path>
<path d="M297.5 31h0"></path>
<g class="terminal">
<path d="M161 31h0"></path>
<path d="M206.5 31h0"></path>
<rect x="161" y="20" width="45.5" height="22" rx="10" ry="10"></rect>
<text x="183.75" y="35">"&#38;"</text>
</g>
<path d="M206.5 31h10"></path>
<path d="M216.5 31h10"></path>
<g class="terminal">
<path d="M226.5 31h0"></path>
<path d="M297.5 31h0"></path>
<rect x="226.5" y="20" width="71" height="22" rx="10" ry="10"></rect>
<text x="262" y="35">^&#96;.&#42;&#96;$</text>
</g>
</g>
<path d="M297.5 31h10"></path>
<path d="M161 31a10 10 0 0 0 -10 10v0a10 10 0 0 0 10 10"></path>
<g>
<path d="M161 51h136.5"></path>
</g>
<path d="M297.5 51a10 10 0 0 0 10 -10v0a10 10 0 0 0 -10 -10"></path>
</g>
</g>
<path d="M307.5 31h20"></path>
<path d="M40 31a10 10 0 0 1 10 10v19a10 10 0 0 0 10 10"></path>
<g>
<path d="M60 70h0"></path>
<path d="M307.5 70h0"></path>
<g class="terminal">
<path d="M60 70h0"></path>
<path d="M131 70h0"></path>
<rect x="60" y="59" width="71" height="22" rx="10" ry="10"></rect>
<text x="95.5" y="74">^'.&#42;'$</text>
</g>
<path d="M131 70h10"></path>
<path d="M141 70h10"></path>
<g>
<path d="M151 70h0"></path>
<path d="M307.5 70h0"></path>
<path d="M151 70h10"></path>
<g>
<path d="M161 70h0"></path>
<path d="M297.5 70h0"></path>
<g class="terminal">
<path d="M161 70h0"></path>
<path d="M206.5 70h0"></path>
<rect x="161" y="59" width="45.5" height="22" rx="10" ry="10"></rect>
<text x="183.75" y="74">"&#38;"</text>
</g>
<path d="M206.5 70h10"></path>
<path d="M216.5 70h10"></path>
<g class="terminal">
<path d="M226.5 70h0"></path>
<path d="M297.5 70h0"></path>
<rect x="226.5" y="59" width="71" height="22" rx="10" ry="10"></rect>
<text x="262" y="74">^'.&#42;'$</text>
</g>
</g>
<path d="M297.5 70h10"></path>
<path d="M161 70a10 10 0 0 0 -10 10v0a10 10 0 0 0 10 10"></path>
<g>
<path d="M161 90h136.5"></path>
</g>
<path d="M297.5 90a10 10 0 0 0 10 -10v0a10 10 0 0 0 -10 -10"></path>
</g>
</g>
<path d="M307.5 70a10 10 0 0 0 10 -10v-19a10 10 0 0 1 10 -10"></path>
</g>
<path d="M 327.5 31 h 20 m 0 -10 v 20"></path>
</g>
</svg>
