<svg xmlns="http://www.w3.org/2000/svg" xmlns:xlink="http://www.w3.org/1999/xlink" class="railroad-diagram" width="5513" height="195" viewBox="0 0 5513 195">
<defs>
<style type="text/css"><![CDATA[
path {
stroke-width: 3;
stroke: black;
fill: rgba(0,0,0,0);
}
text {
font: bold 14px monospace;
text-anchor: middle;
}
text.diagram-text {
font-size: 12px;
}
a {
fill: blue;
}
text.diagram-arrow {
font-size: 16px;
}
text.label {
text-anchor: start;
}
text.comment {
font: italic 12px monospace;
}
rect {
stroke-width: 3;
stroke: black;
fill: #BCBCBC;
}
path.diagram-text {
stroke-width: 3;
stroke: black;
fill: #BCBCBC;
cursor: help;
}
]]></style>
</defs>
<g transform="translate(.5 .5)">
<g>
<path d="M20 38v20m0 -10h20"></path>
</g>
<path d="M40 48h10"></path>
<g>
<path d="M50 48h0"></path>
<path d="M5463 48h0"></path>
<g>
<path d="M50 48h0"></path>
<path d="M3231 48h0"></path>
<g class="terminal ">
<path d="M50 48h0"></path>
<path d="M138 48h0"></path>
<rect x="50" y="37" width="88" height="22" rx="10" ry="10"></rect>
<text x="94" y="52">"SELECT"</text>
</g>
<path d="M138 48h10"></path>
<g>
<path d="M148 48h0"></path>
<path d="M3231 48h0"></path>
<path d="M148 48h20"></path>
<g>
<path d="M168 48h44.75"></path>
<path d="M3166.25 48h44.75"></path>
<g class="non-terminal ">
<path d="M212.75 48h0"></path>
<path d="M292.25 48h0"></path>
<rect x="212.75" y="37" width="79.5" height="22"></rect>
<a xlink:href="#/abap/expression/SQLFrom"><text x="252.5" y="52">SQLFrom</text>
</a>
</g>
<path d="M292.25 48h10"></path>
<g>
<path d="M302.25 48h0"></path>
<path d="M438.75 48h0"></path>
<path d="M302.25 48a10 10 0 0 0 10 -10v0a10 10 0 0 1 10 -10"></path>
<g>
<path d="M322.25 28h96.5"></path>
</g>
<path d="M418.75 28a10 10 0 0 1 10 10v0a10 10 0 0 0 10 10"></path>
<path d="M302.25 48h20"></path>
<g class="non-terminal ">
<path d="M322.25 48h0"></path>
<path d="M418.75 48h0"></path>
<rect x="322.25" y="37" width="96.5" height="22"></rect>
<a xlink:href="#/abap/expression/SQLClient"><text x="370.5" y="52">SQLClient</text>
</a>
</g>
<path d="M418.75 48h20"></path>
</g>
<g>
<path d="M438.75 48h0"></path>
<path d="M651.75 48h0"></path>
<path d="M438.75 48a10 10 0 0 0 10 -10v0a10 10 0 0 1 10 -10"></path>
<g>
<path d="M458.75 28h173"></path>
</g>
<path d="M631.75 28a10 10 0 0 1 10 10v0a10 10 0 0 0 10 10"></path>
<path d="M438.75 48h20"></path>
<g class="terminal ">
<path d="M458.75 48h0"></path>
<path d="M631.75 48h0"></path>
<rect x="458.75" y="37" width="173" height="22" rx="10" ry="10"></rect>
<text x="545.25" y="52">"BYPASSING BUFFER"</text>
</g>
<path d="M631.75 48h20"></path>
</g>
<path d="M651.75 48h10"></path>
<g>
<path d="M661.75 48h0"></path>
<path d="M934.25 48h0"></path>
<g class="comment ">
<path d="M661.75 48h0"></path>
<path d="M783.75 48h0"></path>
<text x="722.75" y="53" class="comment">7.62 or OpenABAP</text>
</g>
<path d="M783.75 48h10"></path>
<path d="M793.75 48h10"></path>
<g class="non-terminal ">
<path d="M803.75 48h0"></path>
<path d="M934.25 48h0"></path>
<rect x="803.75" y="37" width="130.5" height="22"></rect>
<a xlink:href="#/abap/expression/SQLFieldsLoop"><text x="869" y="52">SQLFieldsLoop</text>
</a>
</g>
</g>
<path d="M934.25 48h10"></path>
<g>
<path d="M944.25 48h0"></path>
<path d="M1140.25 48h0"></path>
<path d="M944.25 48a10 10 0 0 0 10 -10v0a10 10 0 0 1 10 -10"></path>
<g>
<path d="M964.25 28h156"></path>
</g>
<path d="M1120.25 28a10 10 0 0 1 10 10v0a10 10 0 0 0 10 10"></path>
<path d="M944.25 48h20"></path>
<g class="non-terminal ">
<path d="M964.25 48h0"></path>
<path d="M1120.25 48h0"></path>
<rect x="964.25" y="37" width="156" height="22"></rect>
<a xlink:href="#/abap/expression/SQLForAllEntries"><text x="1042.25" y="52">SQLForAllEntries</text>
</a>
</g>
<path d="M1120.25 48h20"></path>
</g>
<g>
<path d="M1140.25 48h0"></path>
<path d="M1359.25 48h0"></path>
<path d="M1140.25 48a10 10 0 0 0 10 -10v0a10 10 0 0 1 10 -10"></path>
<g>
<path d="M1160.25 28h179"></path>
</g>
<path d="M1339.25 28a10 10 0 0 1 10 10v0a10 10 0 0 0 10 10"></path>
<path d="M1140.25 48h20"></path>
<g>
<path d="M1160.25 48h0"></path>
<path d="M1339.25 48h0"></path>
<g class="terminal ">
<path d="M1160.25 48h0"></path>
<path d="M1239.75 48h0"></path>
<rect x="1160.25" y="37" width="79.5" height="22" rx="10" ry="10"></rect>
<text x="1200" y="52">"WHERE"</text>
</g>
<path d="M1239.75 48h10"></path>
<path d="M1249.75 48h10"></path>
<g class="non-terminal ">
<path d="M1259.75 48h0"></path>
<path d="M1339.25 48h0"></path>
<rect x="1259.75" y="37" width="79.5" height="22"></rect>
<a xlink:href="#/abap/expression/SQLCond"><text x="1299.5" y="52">SQLCond</text>
</a>
</g>
</g>
<path d="M1339.25 48h20"></path>
</g>
<path d="M1359.25 48h10"></path>
<g>
<path d="M1369.25 48h0"></path>
<path d="M3166.25 48h0"></path>
<g>
<path d="M1369.25 48h0"></path>
<path d="M1650.75 48h0"></path>
<g>
<path d="M1369.25 48h0"></path>
<path d="M1514.25 48h0"></path>
<path d="M1369.25 48a10 10 0 0 0 10 -10v0a10 10 0 0 1 10 -10"></path>
<g>
<path d="M1389.25 28h105"></path>
</g>
<path d="M1494.25 28a10 10 0 0 1 10 10v0a10 10 0 0 0 10 10"></path>
<path d="M1369.25 48h20"></path>
<g class="non-terminal ">
<path d="M1389.25 48h0"></path>
<path d="M1494.25 48h0"></path>
<rect x="1389.25" y="37" width="105" height="22"></rect>
<a xlink:href="#/abap/expression/SQLGroupBy"><text x="1441.75" y="52">SQLGroupBy</text>
</a>
</g>
<path d="M1494.25 48h20"></path>
</g>
<g>
<path d="M1514.25 48h0"></path>
<path d="M1650.75 48h0"></path>
<path d="M1514.25 48a10 10 0 0 0 10 -10v0a10 10 0 0 1 10 -10"></path>
<g>
<path d="M1534.25 28h96.5"></path>
</g>
<path d="M1630.75 28a10 10 0 0 1 10 10v0a10 10 0 0 0 10 10"></path>
<path d="M1514.25 48h20"></path>
<g class="non-terminal ">
<path d="M1534.25 48h0"></path>
<path d="M1630.75 48h0"></path>
<rect x="1534.25" y="37" width="96.5" height="22"></rect>
<a xlink:href="#/abap/expression/SQLHaving"><text x="1582.5" y="52">SQLHaving</text>
</a>
</g>
<path d="M1630.75 48h20"></path>
</g>
</g>
<path d="M1650.75 48h10"></path>
<g>
<path d="M1660.75 48h0"></path>
<path d="M2237.75 48h0"></path>
<path d="M1660.75 48a10 10 0 0 0 10 -10v-8a10 10 0 0 1 10 -10"></path>
<g>
<path d="M1680.75 20h537"></path>
</g>
<path d="M2217.75 20a10 10 0 0 1 10 10v8a10 10 0 0 0 10 10"></path>
<path d="M1660.75 48h20"></path>
<g>
<path d="M1680.75 48h0"></path>
<path d="M2217.75 48h0"></path>
<g class="non-terminal ">
<path d="M1680.75 48h0"></path>
<path d="M1785.75 48h0"></path>
<rect x="1680.75" y="37" width="105" height="22"></rect>
<a xlink:href="#/abap/expression/SQLOrderBy"><text x="1733.25" y="52">SQLOrderBy</text>
</a>
</g>
<path d="M1785.75 48h10"></path>
<g>
<path d="M1795.75 48h0"></path>
<path d="M1915.25 48h0"></path>
<path d="M1795.75 48a10 10 0 0 0 10 -10v0a10 10 0 0 1 10 -10"></path>
<g>
<path d="M1815.75 28h79.5"></path>
</g>
<path d="M1895.25 28a10 10 0 0 1 10 10v0a10 10 0 0 0 10 10"></path>
<path d="M1795.75 48h20"></path>
<g class="non-terminal ">
<path d="M1815.75 48h0"></path>
<path d="M1895.25 48h0"></path>
<rect x="1815.75" y="37" width="79.5" height="22"></rect>
<a xlink:href="#/abap/expression/SQLUpTo"><text x="1855.5" y="52">SQLUpTo</text>
</a>
</g>
<path d="M1895.25 48h20"></path>
</g>
<g>
<path d="M1915.25 48h0"></path>
<path d="M2217.75 48h0"></path>
<path d="M1915.25 48a10 10 0 0 0 10 -10v0a10 10 0 0 1 10 -10"></path>
<g>
<path d="M1935.25 28h262.5"></path>
</g>
<path d="M2197.75 28a10 10 0 0 1 10 10v0a10 10 0 0 0 10 10"></path>
<path d="M1915.25 48h20"></path>
<g>
<path d="M1935.25 48h0"></path>
<path d="M2197.75 48h0"></path>
<g class="comment ">
<path d="M1935.25 48h0"></path>
<path d="M1973.25 48h0"></path>
<text x="1954.25" y="53" class="comment">7.65</text>
</g>
<path d="M1973.25 48h10"></path>
<path d="M1983.25 48h10"></path>
<g>
<path d="M1993.25 48h0"></path>
<path d="M2197.75 48h0"></path>
<g class="terminal ">
<path d="M1993.25 48h0"></path>
<path d="M2081.25 48h0"></path>
<rect x="1993.25" y="37" width="88" height="22" rx="10" ry="10"></rect>
<text x="2037.25" y="52">"OFFSET"</text>
</g>
<path d="M2081.25 48h10"></path>
<path d="M2091.25 48h10"></path>
<g class="non-terminal ">
<path d="M2101.25 48h0"></path>
<path d="M2197.75 48h0"></path>
<rect x="2101.25" y="37" width="96.5" height="22"></rect>
<a xlink:href="#/abap/expression/SQLSource"><text x="2149.5" y="52">SQLSource</text>
</a>
</g>
</g>
</g>
<path d="M2197.75 48h20"></path>
</g>
</g>
<path d="M2217.75 48h20"></path>
</g>
<g>
<path d="M2237.75 48h0"></path>
<path d="M2365.75 48h0"></path>
<path d="M2237.75 48a10 10 0 0 0 10 -10v0a10 10 0 0 1 10 -10"></path>
<g>
<path d="M2257.75 28h88"></path>
</g>
<path d="M2345.75 28a10 10 0 0 1 10 10v0a10 10 0 0 0 10 10"></path>
<path d="M2237.75 48h20"></path>
<g class="non-terminal ">
<path d="M2257.75 48h0"></path>
<path d="M2345.75 48h0"></path>
<rect x="2257.75" y="37" width="88" height="22"></rect>
<a xlink:href="#/abap/expression/SQLHints"><text x="2301.75" y="52">SQLHints</text>
</a>
</g>
<path d="M2345.75 48h20"></path>
</g>
<g>
<path d="M2365.75 48h0"></path>
<path d="M2645.25 48h0"></path>
<path d="M2365.75 48a10 10 0 0 0 10 -10v0a10 10 0 0 1 10 -10"></path>
<g>
<path d="M2385.75 28h239.5"></path>
</g>
<path d="M2625.25 28a10 10 0 0 1 10 10v0a10 10 0 0 0 10 10"></path>
<path d="M2365.75 48h20"></path>
<g>
<path d="M2385.75 48h0"></path>
<path d="M2625.25 48h0"></path>
<g class="comment ">
<path d="M2385.75 48h0"></path>
<path d="M2423.75 48h0"></path>
<text x="2404.75" y="53" class="comment">7.93</text>
</g>
<path d="M2423.75 48h10"></path>
<path d="M2433.75 48h10"></path>
<g class="non-terminal ">
<path d="M2443.75 48h0"></path>
<path d="M2625.25 48h0"></path>
<rect x="2443.75" y="37" width="181.5" height="22"></rect>
<a xlink:href="#/abap/expression/SQLPrivilegedAccess"><text x="2534.5" y="52">SQLPrivilegedAccess</text>
</a>
</g>
</g>
<path d="M2625.25 48h20"></path>
</g>
<g>
<path d="M2645.25 48h0"></path>
<path d="M2790.25 48h0"></path>
<path d="M2645.25 48a10 10 0 0 0 10 -10v0a10 10 0 0 1 10 -10"></path>
<g>
<path d="M2665.25 28h105"></path>
</g>
<path d="M2770.25 28a10 10 0 0 1 10 10v0a10 10 0 0 0 10 10"></path>
<path d="M2645.25 48h20"></path>
<g class="non-terminal ">
<path d="M2665.25 48h0"></path>
<path d="M2770.25 48h0"></path>
<rect x="2665.25" y="37" width="105" height="22"></rect>
<a xlink:href="#/abap/expression/SQLOptions"><text x="2717.75" y="52">SQLOptions</text>
</a>
</g>
<path d="M2770.25 48h20"></path>
</g>
<g>
<path d="M2790.25 48h0"></path>
<path d="M3166.25 48h0"></path>
<path d="M2790.25 48a10 10 0 0 0 10 -10v0a10 10 0 0 1 10 -10"></path>
<g>
<path d="M2810.25 28h336"></path>
</g>
<path d="M3146.25 28a10 10 0 0 1 10 10v0a10 10 0 0 0 10 10"></path>
<path d="M2790.25 48h20"></path>
<g>
<path d="M2810.25 48h0"></path>
<path d="M3146.25 48h0"></path>
<g class="comment ">
<path d="M2810.25 48h0"></path>
<path d="M2953.25 48h0"></path>
<text x="2881.75" y="53" class="comment">not langver=KeyUser</text>
</g>
<path d="M2953.25 48h10"></path>
<path d="M2963.25 48h10"></path>
<g class="non-terminal ">
<path d="M2973.25 48h0"></path>
<path d="M3146.25 48h0"></path>
<rect x="2973.25" y="37" width="173" height="22"></rect>
<a xlink:href="#/abap/expression/DatabaseConnection"><text x="3059.75" y="52">DatabaseConnection</text>
</a>
</g>
</g>
<path d="M3146.25 48h20"></path>
</g>
</g>
</g>
<path d="M3211 48h20"></path>
<path d="M148 48a10 10 0 0 1 10 10v27a10 10 0 0 0 10 10"></path>
<g>
<path d="M168 95h0"></path>
<path d="M3211 95h0"></path>
<g>
<path d="M168 95h0"></path>
<path d="M313 95h0"></path>
<path d="M168 95a10 10 0 0 0 10 -10v0a10 10 0 0 1 10 -10"></path>
<g>
<path d="M188 75h105"></path>
</g>
<path d="M293 75a10 10 0 0 1 10 10v0a10 10 0 0 0 10 10"></path>
<path d="M168 95h20"></path>
<g class="terminal ">
<path d="M188 95h0"></path>
<path d="M293 95h0"></path>
<rect x="188" y="84" width="105" height="22" rx="10" ry="10"></rect>
<text x="240.5" y="99">"DISTINCT"</text>
</g>
<path d="M293 95h20"></path>
</g>
<path d="M313 95h10"></path>
<g class="non-terminal ">
<path d="M323 95h0"></path>
<path d="M530 95h0"></path>
<rect x="323" y="84" width="207" height="22"></rect>
<a xlink:href="#/abap/expression/SQLFieldListLoopGreedy"><text x="426.5" y="99">SQLFieldListLoopGreedy</text>
</a>
</g>
<path d="M530 95h10"></path>
<path d="M540 95h10"></path>
<g class="non-terminal ">
<path d="M550 95h0"></path>
<path d="M629.5 95h0"></path>
<rect x="550" y="84" width="79.5" height="22"></rect>
<a xlink:href="#/abap/expression/SQLFrom"><text x="589.75" y="99">SQLFrom</text>
</a>
</g>
<path d="M629.5 95h10"></path>
<g>
<path d="M639.5 95h0"></path>
<path d="M776 95h0"></path>
<path d="M639.5 95a10 10 0 0 0 10 -10v0a10 10 0 0 1 10 -10"></path>
<g>
<path d="M659.5 75h96.5"></path>
</g>
<path d="M756 75a10 10 0 0 1 10 10v0a10 10 0 0 0 10 10"></path>
<path d="M639.5 95h20"></path>
<g class="non-terminal ">
<path d="M659.5 95h0"></path>
<path d="M756 95h0"></path>
<rect x="659.5" y="84" width="96.5" height="22"></rect>
<a xlink:href="#/abap/expression/SQLClient"><text x="707.75" y="99">SQLClient</text>
</a>
</g>
<path d="M756 95h20"></path>
</g>
<g>
<path d="M776 95h0"></path>
<path d="M989 95h0"></path>
<path d="M776 95a10 10 0 0 0 10 -10v0a10 10 0 0 1 10 -10"></path>
<g>
<path d="M796 75h173"></path>
</g>
<path d="M969 75a10 10 0 0 1 10 10v0a10 10 0 0 0 10 10"></path>
<path d="M776 95h20"></path>
<g class="terminal ">
<path d="M796 95h0"></path>
<path d="M969 95h0"></path>
<rect x="796" y="84" width="173" height="22" rx="10" ry="10"></rect>
<text x="882.5" y="99">"BYPASSING BUFFER"</text>
</g>
<path d="M969 95h20"></path>
</g>
<g>
<path d="M989 95h0"></path>
<path d="M1185 95h0"></path>
<path d="M989 95a10 10 0 0 0 10 -10v0a10 10 0 0 1 10 -10"></path>
<g>
<path d="M1009 75h156"></path>
</g>
<path d="M1165 75a10 10 0 0 1 10 10v0a10 10 0 0 0 10 10"></path>
<path d="M989 95h20"></path>
<g class="non-terminal ">
<path d="M1009 95h0"></path>
<path d="M1165 95h0"></path>
<rect x="1009" y="84" width="156" height="22"></rect>
<a xlink:href="#/abap/expression/SQLForAllEntries"><text x="1087" y="99">SQLForAllEntries</text>
</a>
</g>
<path d="M1165 95h20"></path>
</g>
<g>
<path d="M1185 95h0"></path>
<path d="M1404 95h0"></path>
<path d="M1185 95a10 10 0 0 0 10 -10v0a10 10 0 0 1 10 -10"></path>
<g>
<path d="M1205 75h179"></path>
</g>
<path d="M1384 75a10 10 0 0 1 10 10v0a10 10 0 0 0 10 10"></path>
<path d="M1185 95h20"></path>
<g>
<path d="M1205 95h0"></path>
<path d="M1384 95h0"></path>
<g class="terminal ">
<path d="M1205 95h0"></path>
<path d="M1284.5 95h0"></path>
<rect x="1205" y="84" width="79.5" height="22" rx="10" ry="10"></rect>
<text x="1244.75" y="99">"WHERE"</text>
</g>
<path d="M1284.5 95h10"></path>
<path d="M1294.5 95h10"></path>
<g class="non-terminal ">
<path d="M1304.5 95h0"></path>
<path d="M1384 95h0"></path>
<rect x="1304.5" y="84" width="79.5" height="22"></rect>
<a xlink:href="#/abap/expression/SQLCond"><text x="1344.25" y="99">SQLCond</text>
</a>
</g>
</g>
<path d="M1384 95h20"></path>
</g>
<path d="M1404 95h10"></path>
<g>
<path d="M1414 95h0"></path>
<path d="M3211 95h0"></path>
<g>
<path d="M1414 95h0"></path>
<path d="M1695.5 95h0"></path>
<g>
<path d="M1414 95h0"></path>
<path d="M1559 95h0"></path>
<path d="M1414 95a10 10 0 0 0 10 -10v0a10 10 0 0 1 10 -10"></path>
<g>
<path d="M1434 75h105"></path>
</g>
<path d="M1539 75a10 10 0 0 1 10 10v0a10 10 0 0 0 10 10"></path>
<path d="M1414 95h20"></path>
<g class="non-terminal ">
<path d="M1434 95h0"></path>
<path d="M1539 95h0"></path>
<rect x="1434" y="84" width="105" height="22"></rect>
<a xlink:href="#/abap/expression/SQLGroupBy"><text x="1486.5" y="99">SQLGroupBy</text>
</a>
</g>
<path d="M1539 95h20"></path>
</g>
<g>
<path d="M1559 95h0"></path>
<path d="M1695.5 95h0"></path>
<path d="M1559 95a10 10 0 0 0 10 -10v0a10 10 0 0 1 10 -10"></path>
<g>
<path d="M1579 75h96.5"></path>
</g>
<path d="M1675.5 75a10 10 0 0 1 10 10v0a10 10 0 0 0 10 10"></path>
<path d="M1559 95h20"></path>
<g class="non-terminal ">
<path d="M1579 95h0"></path>
<path d="M1675.5 95h0"></path>
<rect x="1579" y="84" width="96.5" height="22"></rect>
<a xlink:href="#/abap/expression/SQLHaving"><text x="1627.25" y="99">SQLHaving</text>
</a>
</g>
<path d="M1675.5 95h20"></path>
</g>
</g>
<path d="M1695.5 95h10"></path>
<g>
<path d="M1705.5 95h0"></path>
<path d="M2282.5 95h0"></path>
<path d="M1705.5 95a10 10 0 0 0 10 -10v-8a10 10 0 0 1 10 -10"></path>
<g>
<path d="M1725.5 67h537"></path>
</g>
<path d="M2262.5 67a10 10 0 0 1 10 10v8a10 10 0 0 0 10 10"></path>
<path d="M1705.5 95h20"></path>
<g>
<path d="M1725.5 95h0"></path>
<path d="M2262.5 95h0"></path>
<g class="non-terminal ">
<path d="M1725.5 95h0"></path>
<path d="M1830.5 95h0"></path>
<rect x="1725.5" y="84" width="105" height="22"></rect>
<a xlink:href="#/abap/expression/SQLOrderBy"><text x="1778" y="99">SQLOrderBy</text>
</a>
</g>
<path d="M1830.5 95h10"></path>
<g>
<path d="M1840.5 95h0"></path>
<path d="M1960 95h0"></path>
<path d="M1840.5 95a10 10 0 0 0 10 -10v0a10 10 0 0 1 10 -10"></path>
<g>
<path d="M1860.5 75h79.5"></path>
</g>
<path d="M1940 75a10 10 0 0 1 10 10v0a10 10 0 0 0 10 10"></path>
<path d="M1840.5 95h20"></path>
<g class="non-terminal ">
<path d="M1860.5 95h0"></path>
<path d="M1940 95h0"></path>
<rect x="1860.5" y="84" width="79.5" height="22"></rect>
<a xlink:href="#/abap/expression/SQLUpTo"><text x="1900.25" y="99">SQLUpTo</text>
</a>
</g>
<path d="M1940 95h20"></path>
</g>
<g>
<path d="M1960 95h0"></path>
<path d="M2262.5 95h0"></path>
<path d="M1960 95a10 10 0 0 0 10 -10v0a10 10 0 0 1 10 -10"></path>
<g>
<path d="M1980 75h262.5"></path>
</g>
<path d="M2242.5 75a10 10 0 0 1 10 10v0a10 10 0 0 0 10 10"></path>
<path d="M1960 95h20"></path>
<g>
<path d="M1980 95h0"></path>
<path d="M2242.5 95h0"></path>
<g class="comment ">
<path d="M1980 95h0"></path>
<path d="M2018 95h0"></path>
<text x="1999" y="100" class="comment">7.65</text>
</g>
<path d="M2018 95h10"></path>
<path d="M2028 95h10"></path>
<g>
<path d="M2038 95h0"></path>
<path d="M2242.5 95h0"></path>
<g class="terminal ">
<path d="M2038 95h0"></path>
<path d="M2126 95h0"></path>
<rect x="2038" y="84" width="88" height="22" rx="10" ry="10"></rect>
<text x="2082" y="99">"OFFSET"</text>
</g>
<path d="M2126 95h10"></path>
<path d="M2136 95h10"></path>
<g class="non-terminal ">
<path d="M2146 95h0"></path>
<path d="M2242.5 95h0"></path>
<rect x="2146" y="84" width="96.5" height="22"></rect>
<a xlink:href="#/abap/expression/SQLSource"><text x="2194.25" y="99">SQLSource</text>
</a>
</g>
</g>
</g>
<path d="M2242.5 95h20"></path>
</g>
</g>
<path d="M2262.5 95h20"></path>
</g>
<g>
<path d="M2282.5 95h0"></path>
<path d="M2410.5 95h0"></path>
<path d="M2282.5 95a10 10 0 0 0 10 -10v0a10 10 0 0 1 10 -10"></path>
<g>
<path d="M2302.5 75h88"></path>
</g>
<path d="M2390.5 75a10 10 0 0 1 10 10v0a10 10 0 0 0 10 10"></path>
<path d="M2282.5 95h20"></path>
<g class="non-terminal ">
<path d="M2302.5 95h0"></path>
<path d="M2390.5 95h0"></path>
<rect x="2302.5" y="84" width="88" height="22"></rect>
<a xlink:href="#/abap/expression/SQLHints"><text x="2346.5" y="99">SQLHints</text>
</a>
</g>
<path d="M2390.5 95h20"></path>
</g>
<g>
<path d="M2410.5 95h0"></path>
<path d="M2690 95h0"></path>
<path d="M2410.5 95a10 10 0 0 0 10 -10v0a10 10 0 0 1 10 -10"></path>
<g>
<path d="M2430.5 75h239.5"></path>
</g>
<path d="M2670 75a10 10 0 0 1 10 10v0a10 10 0 0 0 10 10"></path>
<path d="M2410.5 95h20"></path>
<g>
<path d="M2430.5 95h0"></path>
<path d="M2670 95h0"></path>
<g class="comment ">
<path d="M2430.5 95h0"></path>
<path d="M2468.5 95h0"></path>
<text x="2449.5" y="100" class="comment">7.93</text>
</g>
<path d="M2468.5 95h10"></path>
<path d="M2478.5 95h10"></path>
<g class="non-terminal ">
<path d="M2488.5 95h0"></path>
<path d="M2670 95h0"></path>
<rect x="2488.5" y="84" width="181.5" height="22"></rect>
<a xlink:href="#/abap/expression/SQLPrivilegedAccess"><text x="2579.25" y="99">SQLPrivilegedAccess</text>
</a>
</g>
</g>
<path d="M2670 95h20"></path>
</g>
<g>
<path d="M2690 95h0"></path>
<path d="M2835 95h0"></path>
<path d="M2690 95a10 10 0 0 0 10 -10v0a10 10 0 0 1 10 -10"></path>
<g>
<path d="M2710 75h105"></path>
</g>
<path d="M2815 75a10 10 0 0 1 10 10v0a10 10 0 0 0 10 10"></path>
<path d="M2690 95h20"></path>
<g class="non-terminal ">
<path d="M2710 95h0"></path>
<path d="M2815 95h0"></path>
<rect x="2710" y="84" width="105" height="22"></rect>
<a xlink:href="#/abap/expression/SQLOptions"><text x="2762.5" y="99">SQLOptions</text>
</a>
</g>
<path d="M2815 95h20"></path>
</g>
<g>
<path d="M2835 95h0"></path>
<path d="M3211 95h0"></path>
<path d="M2835 95a10 10 0 0 0 10 -10v0a10 10 0 0 1 10 -10"></path>
<g>
<path d="M2855 75h336"></path>
</g>
<path d="M3191 75a10 10 0 0 1 10 10v0a10 10 0 0 0 10 10"></path>
<path d="M2835 95h20"></path>
<g>
<path d="M2855 95h0"></path>
<path d="M3191 95h0"></path>
<g class="comment ">
<path d="M2855 95h0"></path>
<path d="M2998 95h0"></path>
<text x="2926.5" y="100" class="comment">not langver=KeyUser</text>
</g>
<path d="M2998 95h10"></path>
<path d="M3008 95h10"></path>
<g class="non-terminal ">
<path d="M3018 95h0"></path>
<path d="M3191 95h0"></path>
<rect x="3018" y="84" width="173" height="22"></rect>
<a xlink:href="#/abap/expression/DatabaseConnection"><text x="3104.5" y="99">DatabaseConnection</text>
</a>
</g>
</g>
<path d="M3191 95h20"></path>
</g>
</g>
</g>
<path d="M3211 95a10 10 0 0 0 10 -10v-27a10 10 0 0 1 10 -10"></path>
</g>
</g>
<path d="M3231 48h10"></path>
<g>
<path d="M3241 48h0"></path>
<path d="M5463 48h0"></path>
<path d="M3241 48a10 10 0 0 0 10 -10v-8a10 10 0 0 1 10 -10"></path>
<g>
<path d="M3261 20h2182"></path>
</g>
<path d="M5443 20a10 10 0 0 1 10 10v8a10 10 0 0 0 10 10"></path>
<path d="M3241 48h20"></path>
<g>
<path d="M3261 48h0"></path>
<path d="M5443 48h0"></path>
<path d="M3261 48h10"></path>
<g>
<path d="M3271 48h0"></path>
<path d="M5433 48h0"></path>
<g>
<path d="M3271 48h0"></path>
<path d="M3727.5 48h0"></path>
<path d="M3271 48h20"></path>
<g>
<path d="M3291 48h0"></path>
<path d="M3707.5 48h0"></path>
<g class="comment ">
<path d="M3291 48h0"></path>
<path d="M3413 48h0"></path>
<text x="3352" y="53" class="comment">7.62 or OpenABAP</text>
</g>
<path d="M3413 48h10"></path>
<path d="M3423 48h10"></path>
<g>
<path d="M3433 48h0"></path>
<path d="M3707.5 48h0"></path>
<g class="terminal ">
<path d="M3433 48h0"></path>
<path d="M3512.5 48h0"></path>
<rect x="3433" y="37" width="79.5" height="22" rx="10" ry="10"></rect>
<text x="3472.75" y="52">"UNION"</text>
</g>
<path d="M3512.5 48h10"></path>
<g>
<path d="M3522.5 48h0"></path>
<path d="M3707.5 48h0"></path>
<path d="M3522.5 48a10 10 0 0 0 10 -10v0a10 10 0 0 1 10 -10"></path>
<g>
<path d="M3542.5 28h145"></path>
</g>
<path d="M3687.5 28a10 10 0 0 1 10 10v0a10 10 0 0 0 10 10"></path>
<path d="M3522.5 48h20"></path>
<g>
<path d="M3542.5 48h0"></path>
<path d="M3687.5 48h0"></path>
<path d="M3542.5 48h20"></path>
<g class="terminal ">
<path d="M3562.5 48h0"></path>
<path d="M3667.5 48h0"></path>
<rect x="3562.5" y="37" width="105" height="22" rx="10" ry="10"></rect>
<text x="3615" y="52">"DISTINCT"</text>
</g>
<path d="M3667.5 48h20"></path>
<path d="M3542.5 48a10 10 0 0 1 10 10v10a10 10 0 0 0 10 10"></path>
<g class="terminal ">
<path d="M3562.5 78h21.25"></path>
<path d="M3646.25 78h21.25"></path>
<rect x="3583.75" y="67" width="62.5" height="22" rx="10" ry="10"></rect>
<text x="3615" y="82">"ALL"</text>
</g>
<path d="M3667.5 78a10 10 0 0 0 10 -10v-10a10 10 0 0 1 10 -10"></path>
</g>
<path d="M3687.5 48h20"></path>
</g>
</g>
</g>
<path d="M3707.5 48h20"></path>
<path d="M3271 48a10 10 0 0 1 10 10v49a10 10 0 0 0 10 10"></path>
<g>
<path d="M3291 117h30"></path>
<path d="M3677.5 117h30"></path>
<g class="comment ">
<path d="M3321 117h0"></path>
<path d="M3359 117h0"></path>
<text x="3340" y="122" class="comment">7.85</text>
</g>
<path d="M3359 117h10"></path>
<g>
<path d="M3369 117h0"></path>
<path d="M3677.5 117h0"></path>
<path d="M3369 117h20"></path>
<g>
<path d="M3389 117h0"></path>
<path d="M3657.5 117h0"></path>
<g class="terminal ">
<path d="M3389 117h0"></path>
<path d="M3502.5 117h0"></path>
<rect x="3389" y="106" width="113.5" height="22" rx="10" ry="10"></rect>
<text x="3445.75" y="121">"INTERSECT"</text>
</g>
<path d="M3502.5 117h10"></path>
<g>
<path d="M3512.5 117h0"></path>
<path d="M3657.5 117h0"></path>
<path d="M3512.5 117a10 10 0 0 0 10 -10v0a10 10 0 0 1 10 -10"></path>
<g>
<path d="M3532.5 97h105"></path>
</g>
<path d="M3637.5 97a10 10 0 0 1 10 10v0a10 10 0 0 0 10 10"></path>
<path d="M3512.5 117h20"></path>
<g class="terminal ">
<path d="M3532.5 117h0"></path>
<path d="M3637.5 117h0"></path>
<rect x="3532.5" y="106" width="105" height="22" rx="10" ry="10"></rect>
<text x="3585" y="121">"DISTINCT"</text>
</g>
<path d="M3637.5 117h20"></path>
</g>
</g>
<path d="M3657.5 117h20"></path>
<path d="M3369 117a10 10 0 0 1 10 10v19a10 10 0 0 0 10 10"></path>
<g>
<path d="M3389 156h12.75"></path>
<path d="M3644.75 156h12.75"></path>
<g class="terminal ">
<path d="M3401.75 156h0"></path>
<path d="M3489.75 156h0"></path>
<rect x="3401.75" y="145" width="88" height="22" rx="10" ry="10"></rect>
<text x="3445.75" y="160">"EXCEPT"</text>
</g>
<path d="M3489.75 156h10"></path>
<g>
<path d="M3499.75 156h0"></path>
<path d="M3644.75 156h0"></path>
<path d="M3499.75 156a10 10 0 0 0 10 -10v0a10 10 0 0 1 10 -10"></path>
<g>
<path d="M3519.75 136h105"></path>
</g>
<path d="M3624.75 136a10 10 0 0 1 10 10v0a10 10 0 0 0 10 10"></path>
<path d="M3499.75 156h20"></path>
<g class="terminal ">
<path d="M3519.75 156h0"></path>
<path d="M3624.75 156h0"></path>
<rect x="3519.75" y="145" width="105" height="22" rx="10" ry="10"></rect>
<text x="3572.25" y="160">"DISTINCT"</text>
</g>
<path d="M3624.75 156h20"></path>
</g>
</g>
<path d="M3657.5 156a10 10 0 0 0 10 -10v-19a10 10 0 0 1 10 -10"></path>
</g>
</g>
<path d="M3707.5 117a10 10 0 0 0 10 -10v-49a10 10 0 0 1 10 -10"></path>
</g>
<g>
<path d="M3727.5 48h0"></path>
<path d="M5433 48h0"></path>
<path d="M3727.5 48h20"></path>
<g class="non-terminal ">
<path d="M3747.5 48h767.5"></path>
<path d="M4645.5 48h767.5"></path>
<rect x="4515" y="37" width="130.5" height="22"></rect>
<a xlink:href="#/abap/expression/SQLSetOpGroup"><text x="4580.25" y="52">SQLSetOpGroup</text>
</a>
</g>
<path d="M5413 48h20"></path>
<path d="M3727.5 48a10 10 0 0 1 10 10v19a10 10 0 0 0 10 10"></path>
<g>
<path d="M3747.5 87h0"></path>
<path d="M5413 87h0"></path>
<g class="terminal ">
<path d="M3747.5 87h0"></path>
<path d="M3835.5 87h0"></path>
<rect x="3747.5" y="76" width="88" height="22" rx="10" ry="10"></rect>
<text x="3791.5" y="91">"SELECT"</text>
</g>
<path d="M3835.5 87h10"></path>
<g>
<path d="M3845.5 87h0"></path>
<path d="M5413 87h0"></path>
<path d="M3845.5 87h20"></path>
<g>
<path d="M3865.5 87h44.75"></path>
<path d="M5348.25 87h44.75"></path>
<g class="non-terminal ">
<path d="M3910.25 87h0"></path>
<path d="M3989.75 87h0"></path>
<rect x="3910.25" y="76" width="79.5" height="22"></rect>
<a xlink:href="#/abap/expression/SQLFrom"><text x="3950" y="91">SQLFrom</text>
</a>
</g>
<path d="M3989.75 87h10"></path>
<g>
<path d="M3999.75 87h0"></path>
<path d="M4136.25 87h0"></path>
<path d="M3999.75 87a10 10 0 0 0 10 -10v0a10 10 0 0 1 10 -10"></path>
<g>
<path d="M4019.75 67h96.5"></path>
</g>
<path d="M4116.25 67a10 10 0 0 1 10 10v0a10 10 0 0 0 10 10"></path>
<path d="M3999.75 87h20"></path>
<g class="non-terminal ">
<path d="M4019.75 87h0"></path>
<path d="M4116.25 87h0"></path>
<rect x="4019.75" y="76" width="96.5" height="22"></rect>
<a xlink:href="#/abap/expression/SQLClient"><text x="4068" y="91">SQLClient</text>
</a>
</g>
<path d="M4116.25 87h20"></path>
</g>
<g>
<path d="M4136.25 87h0"></path>
<path d="M4349.25 87h0"></path>
<path d="M4136.25 87a10 10 0 0 0 10 -10v0a10 10 0 0 1 10 -10"></path>
<g>
<path d="M4156.25 67h173"></path>
</g>
<path d="M4329.25 67a10 10 0 0 1 10 10v0a10 10 0 0 0 10 10"></path>
<path d="M4136.25 87h20"></path>
<g class="terminal ">
<path d="M4156.25 87h0"></path>
<path d="M4329.25 87h0"></path>
<rect x="4156.25" y="76" width="173" height="22" rx="10" ry="10"></rect>
<text x="4242.75" y="91">"BYPASSING BUFFER"</text>
</g>
<path d="M4329.25 87h20"></path>
</g>
<path d="M4349.25 87h10"></path>
<g>
<path d="M4359.25 87h0"></path>
<path d="M4631.75 87h0"></path>
<g class="comment ">
<path d="M4359.25 87h0"></path>
<path d="M4481.25 87h0"></path>
<text x="4420.25" y="92" class="comment">7.62 or OpenABAP</text>
</g>
<path d="M4481.25 87h10"></path>
<path d="M4491.25 87h10"></path>
<g class="non-terminal ">
<path d="M4501.25 87h0"></path>
<path d="M4631.75 87h0"></path>
<rect x="4501.25" y="76" width="130.5" height="22"></rect>
<a xlink:href="#/abap/expression/SQLFieldsLoop"><text x="4566.5" y="91">SQLFieldsLoop</text>
</a>
</g>
</g>
<path d="M4631.75 87h10"></path>
<g>
<path d="M4641.75 87h0"></path>
<path d="M4837.75 87h0"></path>
<path d="M4641.75 87a10 10 0 0 0 10 -10v0a10 10 0 0 1 10 -10"></path>
<g>
<path d="M4661.75 67h156"></path>
</g>
<path d="M4817.75 67a10 10 0 0 1 10 10v0a10 10 0 0 0 10 10"></path>
<path d="M4641.75 87h20"></path>
<g class="non-terminal ">
<path d="M4661.75 87h0"></path>
<path d="M4817.75 87h0"></path>
<rect x="4661.75" y="76" width="156" height="22"></rect>
<a xlink:href="#/abap/expression/SQLForAllEntries"><text x="4739.75" y="91">SQLForAllEntries</text>
</a>
</g>
<path d="M4817.75 87h20"></path>
</g>
<g>
<path d="M4837.75 87h0"></path>
<path d="M5056.75 87h0"></path>
<path d="M4837.75 87a10 10 0 0 0 10 -10v0a10 10 0 0 1 10 -10"></path>
<g>
<path d="M4857.75 67h179"></path>
</g>
<path d="M5036.75 67a10 10 0 0 1 10 10v0a10 10 0 0 0 10 10"></path>
<path d="M4837.75 87h20"></path>
<g>
<path d="M4857.75 87h0"></path>
<path d="M5036.75 87h0"></path>
<g class="terminal ">
<path d="M4857.75 87h0"></path>
<path d="M4937.25 87h0"></path>
<rect x="4857.75" y="76" width="79.5" height="22" rx="10" ry="10"></rect>
<text x="4897.5" y="91">"WHERE"</text>
</g>
<path d="M4937.25 87h10"></path>
<path d="M4947.25 87h10"></path>
<g class="non-terminal ">
<path d="M4957.25 87h0"></path>
<path d="M5036.75 87h0"></path>
<rect x="4957.25" y="76" width="79.5" height="22"></rect>
<a xlink:href="#/abap/expression/SQLCond"><text x="4997" y="91">SQLCond</text>
</a>
</g>
</g>
<path d="M5036.75 87h20"></path>
</g>
<path d="M5056.75 87h10"></path>
<g>
<path d="M5066.75 87h0"></path>
<path d="M5348.25 87h0"></path>
<g>
<path d="M5066.75 87h0"></path>
<path d="M5211.75 87h0"></path>
<path d="M5066.75 87a10 10 0 0 0 10 -10v0a10 10 0 0 1 10 -10"></path>
<g>
<path d="M5086.75 67h105"></path>
</g>
<path d="M5191.75 67a10 10 0 0 1 10 10v0a10 10 0 0 0 10 10"></path>
<path d="M5066.75 87h20"></path>
<g class="non-terminal ">
<path d="M5086.75 87h0"></path>
<path d="M5191.75 87h0"></path>
<rect x="5086.75" y="76" width="105" height="22"></rect>
<a xlink:href="#/abap/expression/SQLGroupBy"><text x="5139.25" y="91">SQLGroupBy</text>
</a>
</g>
<path d="M5191.75 87h20"></path>
</g>
<g>
<path d="M5211.75 87h0"></path>
<path d="M5348.25 87h0"></path>
<path d="M5211.75 87a10 10 0 0 0 10 -10v0a10 10 0 0 1 10 -10"></path>
<g>
<path d="M5231.75 67h96.5"></path>
</g>
<path d="M5328.25 67a10 10 0 0 1 10 10v0a10 10 0 0 0 10 10"></path>
<path d="M5211.75 87h20"></path>
<g class="non-terminal ">
<path d="M5231.75 87h0"></path>
<path d="M5328.25 87h0"></path>
<rect x="5231.75" y="76" width="96.5" height="22"></rect>
<a xlink:href="#/abap/expression/SQLHaving"><text x="5280" y="91">SQLHaving</text>
</a>
</g>
<path d="M5328.25 87h20"></path>
</g>
</g>
</g>
<path d="M5393 87h20"></path>
<path d="M3845.5 87a10 10 0 0 1 10 10v19a10 10 0 0 0 10 10"></path>
<g>
<path d="M3865.5 126h0"></path>
<path d="M5393 126h0"></path>
<g>
<path d="M3865.5 126h0"></path>
<path d="M4010.5 126h0"></path>
<path d="M3865.5 126a10 10 0 0 0 10 -10v0a10 10 0 0 1 10 -10"></path>
<g>
<path d="M3885.5 106h105"></path>
</g>
<path d="M3990.5 106a10 10 0 0 1 10 10v0a10 10 0 0 0 10 10"></path>
<path d="M3865.5 126h20"></path>
<g class="terminal ">
<path d="M3885.5 126h0"></path>
<path d="M3990.5 126h0"></path>
<rect x="3885.5" y="115" width="105" height="22" rx="10" ry="10"></rect>
<text x="3938" y="130">"DISTINCT"</text>
</g>
<path d="M3990.5 126h20"></path>
</g>
<path d="M4010.5 126h10"></path>
<g class="non-terminal ">
<path d="M4020.5 126h0"></path>
<path d="M4227.5 126h0"></path>
<rect x="4020.5" y="115" width="207" height="22"></rect>
<a xlink:href="#/abap/expression/SQLFieldListLoopGreedy"><text x="4124" y="130">SQLFieldListLoopGreedy</text>
</a>
</g>
<path d="M4227.5 126h10"></path>
<path d="M4237.5 126h10"></path>
<g class="non-terminal ">
<path d="M4247.5 126h0"></path>
<path d="M4327 126h0"></path>
<rect x="4247.5" y="115" width="79.5" height="22"></rect>
<a xlink:href="#/abap/expression/SQLFrom"><text x="4287.25" y="130">SQLFrom</text>
</a>
</g>
<path d="M4327 126h10"></path>
<g>
<path d="M4337 126h0"></path>
<path d="M4473.5 126h0"></path>
<path d="M4337 126a10 10 0 0 0 10 -10v0a10 10 0 0 1 10 -10"></path>
<g>
<path d="M4357 106h96.5"></path>
</g>
<path d="M4453.5 106a10 10 0 0 1 10 10v0a10 10 0 0 0 10 10"></path>
<path d="M4337 126h20"></path>
<g class="non-terminal ">
<path d="M4357 126h0"></path>
<path d="M4453.5 126h0"></path>
<rect x="4357" y="115" width="96.5" height="22"></rect>
<a xlink:href="#/abap/expression/SQLClient"><text x="4405.25" y="130">SQLClient</text>
</a>
</g>
<path d="M4453.5 126h20"></path>
</g>
<g>
<path d="M4473.5 126h0"></path>
<path d="M4686.5 126h0"></path>
<path d="M4473.5 126a10 10 0 0 0 10 -10v0a10 10 0 0 1 10 -10"></path>
<g>
<path d="M4493.5 106h173"></path>
</g>
<path d="M4666.5 106a10 10 0 0 1 10 10v0a10 10 0 0 0 10 10"></path>
<path d="M4473.5 126h20"></path>
<g class="terminal ">
<path d="M4493.5 126h0"></path>
<path d="M4666.5 126h0"></path>
<rect x="4493.5" y="115" width="173" height="22" rx="10" ry="10"></rect>
<text x="4580" y="130">"BYPASSING BUFFER"</text>
</g>
<path d="M4666.5 126h20"></path>
</g>
<g>
<path d="M4686.5 126h0"></path>
<path d="M4882.5 126h0"></path>
<path d="M4686.5 126a10 10 0 0 0 10 -10v0a10 10 0 0 1 10 -10"></path>
<g>
<path d="M4706.5 106h156"></path>
</g>
<path d="M4862.5 106a10 10 0 0 1 10 10v0a10 10 0 0 0 10 10"></path>
<path d="M4686.5 126h20"></path>
<g class="non-terminal ">
<path d="M4706.5 126h0"></path>
<path d="M4862.5 126h0"></path>
<rect x="4706.5" y="115" width="156" height="22"></rect>
<a xlink:href="#/abap/expression/SQLForAllEntries"><text x="4784.5" y="130">SQLForAllEntries</text>
</a>
</g>
<path d="M4862.5 126h20"></path>
</g>
<g>
<path d="M4882.5 126h0"></path>
<path d="M5101.5 126h0"></path>
<path d="M4882.5 126a10 10 0 0 0 10 -10v0a10 10 0 0 1 10 -10"></path>
<g>
<path d="M4902.5 106h179"></path>
</g>
<path d="M5081.5 106a10 10 0 0 1 10 10v0a10 10 0 0 0 10 10"></path>
<path d="M4882.5 126h20"></path>
<g>
<path d="M4902.5 126h0"></path>
<path d="M5081.5 126h0"></path>
<g class="terminal ">
<path d="M4902.5 126h0"></path>
<path d="M4982 126h0"></path>
<rect x="4902.5" y="115" width="79.5" height="22" rx="10" ry="10"></rect>
<text x="4942.25" y="130">"WHERE"</text>
</g>
<path d="M4982 126h10"></path>
<path d="M4992 126h10"></path>
<g class="non-terminal ">
<path d="M5002 126h0"></path>
<path d="M5081.5 126h0"></path>
<rect x="5002" y="115" width="79.5" height="22"></rect>
<a xlink:href="#/abap/expression/SQLCond"><text x="5041.75" y="130">SQLCond</text>
</a>
</g>
</g>
<path d="M5081.5 126h20"></path>
</g>
<path d="M5101.5 126h10"></path>
<g>
<path d="M5111.5 126h0"></path>
<path d="M5393 126h0"></path>
<g>
<path d="M5111.5 126h0"></path>
<path d="M5256.5 126h0"></path>
<path d="M5111.5 126a10 10 0 0 0 10 -10v0a10 10 0 0 1 10 -10"></path>
<g>
<path d="M5131.5 106h105"></path>
</g>
<path d="M5236.5 106a10 10 0 0 1 10 10v0a10 10 0 0 0 10 10"></path>
<path d="M5111.5 126h20"></path>
<g class="non-terminal ">
<path d="M5131.5 126h0"></path>
<path d="M5236.5 126h0"></path>
<rect x="5131.5" y="115" width="105" height="22"></rect>
<a xlink:href="#/abap/expression/SQLGroupBy"><text x="5184" y="130">SQLGroupBy</text>
</a>
</g>
<path d="M5236.5 126h20"></path>
</g>
<g>
<path d="M5256.5 126h0"></path>
<path d="M5393 126h0"></path>
<path d="M5256.5 126a10 10 0 0 0 10 -10v0a10 10 0 0 1 10 -10"></path>
<g>
<path d="M5276.5 106h96.5"></path>
</g>
<path d="M5373 106a10 10 0 0 1 10 10v0a10 10 0 0 0 10 10"></path>
<path d="M5256.5 126h20"></path>
<g class="non-terminal ">
<path d="M5276.5 126h0"></path>
<path d="M5373 126h0"></path>
<rect x="5276.5" y="115" width="96.5" height="22"></rect>
<a xlink:href="#/abap/expression/SQLHaving"><text x="5324.75" y="130">SQLHaving</text>
</a>
</g>
<path d="M5373 126h20"></path>
</g>
</g>
</g>
<path d="M5393 126a10 10 0 0 0 10 -10v-19a10 10 0 0 1 10 -10"></path>
</g>
</g>
<path d="M5413 87a10 10 0 0 0 10 -10v-19a10 10 0 0 1 10 -10"></path>
</g>
</g>
<path d="M5433 48h10"></path>
<path d="M3271 48a10 10 0 0 0 -10 10v107a10 10 0 0 0 10 10"></path>
<g>
<path d="M3271 175h2162"></path>
</g>
<path d="M5433 175a10 10 0 0 0 10 -10v-107a10 10 0 0 0 -10 -10"></path>
</g>
<path d="M5443 48h20"></path>
</g>
</g>
<path d="M5463 48h10"></path>
<path d="M 5473 48 h 20 m 0 -10 v 20"></path>
</g>
</svg>
