<svg xmlns="http://www.w3.org/2000/svg" xmlns:xlink="http://www.w3.org/1999/xlink" class="railroad-diagram" width="1444.5" height="398" viewBox="0 0 1444.5 398">
<defs>
<style type="text/css"><![CDATA[
path {
stroke-width: 3;
stroke: black;
fill: rgba(0,0,0,0);
}
text {
font: bold 14px monospace;
text-anchor: middle;
}
text.diagram-text {
font-size: 12px;
}
a {
fill: blue;
}
text.diagram-arrow {
font-size: 16px;
}
text.label {
text-anchor: start;
}
text.comment {
font: italic 12px monospace;
}
rect {
stroke-width: 3;
stroke: black;
fill: #BCBCBC;
}
path.diagram-text {
stroke-width: 3;
stroke: black;
fill: #BCBCBC;
cursor: help;
}
]]></style>
</defs>
<g transform="translate(.5 .5)">
<g>
<path d="M20 21v20m0 -10h20"></path>
</g>
<g>
<path d="M40 31h0"></path>
<path d="M1404.5 31h0"></path>
<path d="M40 31h20"></path>
<g>
<path d="M60 31h0"></path>
<path d="M370 31h1014.5"></path>
<g class="terminal">
<path d="M60 31h0"></path>
<path d="M148 31h0"></path>
<rect x="60" y="20" width="88" height="22" rx="10" ry="10"></rect>
<text x="104" y="35">"EXISTS"</text>
</g>
<path d="M148 31h10"></path>
<path d="M158 31h10"></path>
<g>
<path d="M168 31h0"></path>
<path d="M370 31h0"></path>
<g class="terminal">
<path d="M168 31h0"></path>
<path d="M213.5 31h0"></path>
<rect x="168" y="20" width="45.5" height="22" rx="10" ry="10"></rect>
<text x="190.75" y="35">"("</text>
</g>
<path d="M213.5 31h10"></path>
<path d="M223.5 31h10"></path>
<g class="non-terminal">
<path d="M233.5 31h0"></path>
<path d="M304.5 31h0"></path>
<rect x="233.5" y="20" width="71" height="22"></rect>
<a xlink:href="#/abap/expression/Select"><text x="269" y="35">Select</text>
</a>
</g>
<path d="M304.5 31h10"></path>
<path d="M314.5 31h10"></path>
<g class="terminal">
<path d="M324.5 31h0"></path>
<path d="M370 31h0"></path>
<rect x="324.5" y="20" width="45.5" height="22" rx="10" ry="10"></rect>
<text x="347.25" y="35">")"</text>
</g>
</g>
</g>
<path d="M1384.5 31h20"></path>
<path d="M40 31a10 10 0 0 1 10 10v10a10 10 0 0 0 10 10"></path>
<g class="non-terminal">
<path d="M60 61h0"></path>
<path d="M139.5 61h1245"></path>
<rect x="60" y="50" width="79.5" height="22"></rect>
<a xlink:href="#/abap/expression/Dynamic"><text x="99.75" y="65">Dynamic</text>
</a>
</g>
<path d="M1384.5 61a10 10 0 0 0 10 -10v-10a10 10 0 0 1 10 -10"></path>
<path d="M40 31a10 10 0 0 1 10 10v49a10 10 0 0 0 10 10"></path>
<g>
<path d="M60 100h0"></path>
<path d="M1384.5 100h0"></path>
<g>
<path d="M60 100h0"></path>
<path d="M597.5 100h0"></path>
<path d="M60 100h20"></path>
<g class="non-terminal">
<path d="M80 100h0"></path>
<path d="M193.5 100h384"></path>
<rect x="80" y="89" width="113.5" height="22"></rect>
<a xlink:href="#/abap/expression/SQLFunction"><text x="136.75" y="104">SQLFunction</text>
</a>
</g>
<path d="M577.5 100h20"></path>
<path d="M60 100a10 10 0 0 1 10 10v10a10 10 0 0 0 10 10"></path>
<g class="non-terminal">
<path d="M80 130h0"></path>
<path d="M219 130h358.5"></path>
<rect x="80" y="119" width="139" height="22"></rect>
<a xlink:href="#/abap/expression/ConstantString"><text x="149.5" y="134">ConstantString</text>
</a>
</g>
<path d="M577.5 130a10 10 0 0 0 10 -10v-10a10 10 0 0 1 10 -10"></path>
<path d="M60 100a10 10 0 0 1 10 10v49a10 10 0 0 0 10 10"></path>
<g>
<path d="M80 169h0"></path>
<path d="M577.5 169h0"></path>
<g>
<path d="M80 169h0"></path>
<path d="M242 169h0"></path>
<path d="M80 169h20"></path>
<g class="non-terminal">
<path d="M100 169h0"></path>
<path d="M179.5 169h42.5"></path>
<rect x="100" y="158" width="79.5" height="22"></rect>
<a xlink:href="#/abap/expression/SQLPath"><text x="139.75" y="173">SQLPath</text>
</a>
</g>
<path d="M222 169h20"></path>
<path d="M80 169a10 10 0 0 1 10 10v10a10 10 0 0 0 10 10"></path>
<g class="non-terminal">
<path d="M100 199h0"></path>
<path d="M222 199h0"></path>
<rect x="100" y="188" width="122" height="22"></rect>
<a xlink:href="#/abap/expression/SQLFieldName"><text x="161" y="203">SQLFieldName</text>
</a>
</g>
<path d="M222 199a10 10 0 0 0 10 -10v-10a10 10 0 0 1 10 -10"></path>
</g>
<g>
<path d="M242 169h0"></path>
<path d="M577.5 169h0"></path>
<path d="M242 169a10 10 0 0 0 10 -10v0a10 10 0 0 1 10 -10"></path>
<g>
<path d="M262 149h295.5"></path>
</g>
<path d="M557.5 149a10 10 0 0 1 10 10v0a10 10 0 0 0 10 10"></path>
<path d="M242 169h20"></path>
<g>
<path d="M262 169h0"></path>
<path d="M557.5 169h0"></path>
<g>
<path d="M262 169h0"></path>
<path d="M300 169h0"></path>
<text x="281" y="174" class="comment">v750</text>
</g>
<path d="M300 169h10"></path>
<path d="M310 169h10"></path>
<g>
<path d="M320 169h0"></path>
<path d="M557.5 169h0"></path>
<path d="M320 169h10"></path>
<g>
<path d="M330 169h0"></path>
<path d="M547.5 169h0"></path>
<g>
<path d="M330 169h0"></path>
<path d="M415.5 169h0"></path>
<path d="M330 169h20"></path>
<g class="terminal">
<path d="M350 169h0"></path>
<path d="M395.5 169h0"></path>
<rect x="350" y="158" width="45.5" height="22" rx="10" ry="10"></rect>
<text x="372.75" y="173">"+"</text>
</g>
<path d="M395.5 169h20"></path>
<path d="M330 169a10 10 0 0 1 10 10v10a10 10 0 0 0 10 10"></path>
<g class="terminal">
<path d="M350 199h0"></path>
<path d="M395.5 199h0"></path>
<rect x="350" y="188" width="45.5" height="22" rx="10" ry="10"></rect>
<text x="372.75" y="203">"-"</text>
</g>
<path d="M395.5 199a10 10 0 0 0 10 -10v-10a10 10 0 0 1 10 -10"></path>
<path d="M330 169a10 10 0 0 1 10 10v40a10 10 0 0 0 10 10"></path>
<g class="terminal">
<path d="M350 229h0"></path>
<path d="M395.5 229h0"></path>
<rect x="350" y="218" width="45.5" height="22" rx="10" ry="10"></rect>
<text x="372.75" y="233">"&#42;"</text>
</g>
<path d="M395.5 229a10 10 0 0 0 10 -10v-40a10 10 0 0 1 10 -10"></path>
<path d="M330 169a10 10 0 0 1 10 10v70a10 10 0 0 0 10 10"></path>
<g class="terminal">
<path d="M350 259h0"></path>
<path d="M395.5 259h0"></path>
<rect x="350" y="248" width="45.5" height="22" rx="10" ry="10"></rect>
<text x="372.75" y="263">"/"</text>
</g>
<path d="M395.5 259a10 10 0 0 0 10 -10v-70a10 10 0 0 1 10 -10"></path>
</g>
<path d="M415.5 169h10"></path>
<g class="non-terminal">
<path d="M425.5 169h0"></path>
<path d="M547.5 169h0"></path>
<rect x="425.5" y="158" width="122" height="22"></rect>
<a xlink:href="#/abap/expression/SQLFieldName"><text x="486.5" y="173">SQLFieldName</text>
</a>
</g>
</g>
<path d="M547.5 169h10"></path>
<path d="M330 169a10 10 0 0 0 -10 10v89a10 10 0 0 0 10 10"></path>
<g>
<path d="M330 278h217.5"></path>
</g>
<path d="M547.5 278a10 10 0 0 0 10 -10v-89a10 10 0 0 0 -10 -10"></path>
</g>
</g>
<path d="M557.5 169h20"></path>
</g>
</g>
<path d="M577.5 169a10 10 0 0 0 10 -10v-49a10 10 0 0 1 10 -10"></path>
<path d="M60 100a10 10 0 0 1 10 10v177a10 10 0 0 0 10 10"></path>
<g>
<path d="M80 297h0"></path>
<path d="M523 297h54.5"></path>
<g>
<path d="M80 297h0"></path>
<path d="M146 297h0"></path>
<text x="113" y="302" class="comment">v740sp05</text>
</g>
<path d="M146 297h10"></path>
<path d="M156 297h10"></path>
<g>
<path d="M166 297h0"></path>
<path d="M523 297h0"></path>
<g class="terminal">
<path d="M166 297h0"></path>
<path d="M228.5 297h0"></path>
<rect x="166" y="286" width="62.5" height="22" rx="10" ry="10"></rect>
<text x="197.25" y="301">!" @"</text>
</g>
<path d="M228.5 297h10"></path>
<g>
<path d="M238.5 297h0"></path>
<path d="M523 297h0"></path>
<path d="M238.5 297h20"></path>
<g class="non-terminal">
<path d="M258.5 297h0"></path>
<path d="M389 297h114"></path>
<rect x="258.5" y="286" width="130.5" height="22"></rect>
<a xlink:href="#/abap/expression/SimpleSource3"><text x="323.75" y="301">SimpleSource3</text>
</a>
</g>
<path d="M503 297h20"></path>
<path d="M238.5 297a10 10 0 0 1 10 10v10a10 10 0 0 0 10 10"></path>
<g>
<path d="M258.5 327h0"></path>
<path d="M503 327h0"></path>
<g class="terminal">
<path d="M258.5 327h0"></path>
<path d="M321 327h0"></path>
<rect x="258.5" y="316" width="62.5" height="22" rx="10" ry="10"></rect>
<text x="289.75" y="331">!"( "</text>
</g>
<path d="M321 327h10"></path>
<path d="M331 327h10"></path>
<g class="non-terminal">
<path d="M341 327h0"></path>
<path d="M412 327h0"></path>
<rect x="341" y="316" width="71" height="22"></rect>
<a xlink:href="#/abap/expression/Source"><text x="376.5" y="331">Source</text>
</a>
</g>
<path d="M412 327h10"></path>
<path d="M422 327h10"></path>
<g class="terminal">
<path d="M432 327h0"></path>
<path d="M503 327h0"></path>
<rect x="432" y="316" width="71" height="22" rx="10" ry="10"></rect>
<text x="467.5" y="331">!" ) "</text>
</g>
</g>
<path d="M503 327a10 10 0 0 0 10 -10v-10a10 10 0 0 1 10 -10"></path>
</g>
</g>
</g>
<path d="M577.5 297a10 10 0 0 0 10 -10v-177a10 10 0 0 1 10 -10"></path>
</g>
<g>
<path d="M597.5 100h0"></path>
<path d="M1384.5 100h0"></path>
<path d="M597.5 100h20"></path>
<g>
<path d="M617.5 100h0"></path>
<path d="M1364.5 100h0"></path>
<g class="non-terminal">
<path d="M617.5 100h0"></path>
<path d="M790.5 100h0"></path>
<rect x="617.5" y="89" width="173" height="22"></rect>
<a xlink:href="#/abap/expression/SQLCompareOperator"><text x="704" y="104">SQLCompareOperator</text>
</a>
</g>
<path d="M790.5 100h10"></path>
<g>
<path d="M800.5 100h0"></path>
<path d="M1364.5 100h0"></path>
<path d="M800.5 100h20"></path>
<g>
<path d="M820.5 100h0"></path>
<path d="M1344.5 100h0"></path>
<g>
<path d="M820.5 100h0"></path>
<path d="M971.5 100h0"></path>
<path d="M820.5 100a10 10 0 0 0 10 -10v0a10 10 0 0 1 10 -10"></path>
<g>
<path d="M840.5 80h111"></path>
</g>
<path d="M951.5 80a10 10 0 0 1 10 10v0a10 10 0 0 0 10 10"></path>
<path d="M820.5 100h20"></path>
<g>
<path d="M840.5 100h0"></path>
<path d="M951.5 100h0"></path>
<path d="M840.5 100h20"></path>
<g class="terminal">
<path d="M860.5 100h0"></path>
<path d="M923 100h8.5"></path>
<rect x="860.5" y="89" width="62.5" height="22" rx="10" ry="10"></rect>
<text x="891.75" y="104">"ALL"</text>
</g>
<path d="M931.5 100h20"></path>
<path d="M840.5 100a10 10 0 0 1 10 10v10a10 10 0 0 0 10 10"></path>
<g class="terminal">
<path d="M860.5 130h0"></path>
<path d="M923 130h8.5"></path>
<rect x="860.5" y="119" width="62.5" height="22" rx="10" ry="10"></rect>
<text x="891.75" y="134">"ANY"</text>
</g>
<path d="M931.5 130a10 10 0 0 0 10 -10v-10a10 10 0 0 1 10 -10"></path>
<path d="M840.5 100a10 10 0 0 1 10 10v40a10 10 0 0 0 10 10"></path>
<g class="terminal">
<path d="M860.5 160h0"></path>
<path d="M931.5 160h0"></path>
<rect x="860.5" y="149" width="71" height="22" rx="10" ry="10"></rect>
<text x="896" y="164">"SOME"</text>
</g>
<path d="M931.5 160a10 10 0 0 0 10 -10v-40a10 10 0 0 1 10 -10"></path>
</g>
<path d="M951.5 100h20"></path>
</g>
<g>
<path d="M971.5 100h0"></path>
<path d="M1344.5 100h0"></path>
<path d="M971.5 100h20"></path>
<g>
<path d="M991.5 100h0"></path>
<path d="M1193.5 100h131"></path>
<g class="terminal">
<path d="M991.5 100h0"></path>
<path d="M1037 100h0"></path>
<rect x="991.5" y="89" width="45.5" height="22" rx="10" ry="10"></rect>
<text x="1014.25" y="104">"("</text>
</g>
<path d="M1037 100h10"></path>
<path d="M1047 100h10"></path>
<g class="non-terminal">
<path d="M1057 100h0"></path>
<path d="M1128 100h0"></path>
<rect x="1057" y="89" width="71" height="22"></rect>
<a xlink:href="#/abap/expression/Select"><text x="1092.5" y="104">Select</text>
</a>
</g>
<path d="M1128 100h10"></path>
<path d="M1138 100h10"></path>
<g class="terminal">
<path d="M1148 100h0"></path>
<path d="M1193.5 100h0"></path>
<rect x="1148" y="89" width="45.5" height="22" rx="10" ry="10"></rect>
<text x="1170.75" y="104">")"</text>
</g>
</g>
<path d="M1324.5 100h20"></path>
<path d="M971.5 100a10 10 0 0 1 10 10v10a10 10 0 0 0 10 10"></path>
<g>
<path d="M991.5 130h0"></path>
<path d="M1324.5 130h0"></path>
<g class="terminal">
<path d="M991.5 130h0"></path>
<path d="M1037 130h0"></path>
<rect x="991.5" y="119" width="45.5" height="22" rx="10" ry="10"></rect>
<text x="1014.25" y="134">"("</text>
</g>
<path d="M1037 130h10"></path>
<path d="M1047 130h10"></path>
<g class="terminal">
<path d="M1057 130h0"></path>
<path d="M1102.5 130h0"></path>
<rect x="1057" y="119" width="45.5" height="22" rx="10" ry="10"></rect>
<text x="1079.75" y="134">"("</text>
</g>
<path d="M1102.5 130h10"></path>
<path d="M1112.5 130h10"></path>
<g class="non-terminal">
<path d="M1122.5 130h0"></path>
<path d="M1193.5 130h0"></path>
<rect x="1122.5" y="119" width="71" height="22"></rect>
<a xlink:href="#/abap/expression/Select"><text x="1158" y="134">Select</text>
</a>
</g>
<path d="M1193.5 130h10"></path>
<path d="M1203.5 130h10"></path>
<g class="terminal">
<path d="M1213.5 130h0"></path>
<path d="M1259 130h0"></path>
<rect x="1213.5" y="119" width="45.5" height="22" rx="10" ry="10"></rect>
<text x="1236.25" y="134">")"</text>
</g>
<path d="M1259 130h10"></path>
<path d="M1269 130h10"></path>
<g class="terminal">
<path d="M1279 130h0"></path>
<path d="M1324.5 130h0"></path>
<rect x="1279" y="119" width="45.5" height="22" rx="10" ry="10"></rect>
<text x="1301.75" y="134">")"</text>
</g>
</g>
<path d="M1324.5 130a10 10 0 0 0 10 -10v-10a10 10 0 0 1 10 -10"></path>
</g>
</g>
<path d="M1344.5 100h20"></path>
<path d="M800.5 100a10 10 0 0 1 10 10v70a10 10 0 0 0 10 10"></path>
<g class="non-terminal">
<path d="M820.5 190h0"></path>
<path d="M917 190h427.5"></path>
<rect x="820.5" y="179" width="96.5" height="22"></rect>
<a xlink:href="#/abap/expression/SQLSource"><text x="868.75" y="194">SQLSource</text>
</a>
</g>
<path d="M1344.5 190a10 10 0 0 0 10 -10v-70a10 10 0 0 1 10 -10"></path>
</g>
</g>
<path d="M1364.5 100h20"></path>
<path d="M597.5 100a10 10 0 0 1 10 10v109a10 10 0 0 0 10 10"></path>
<g>
<path d="M617.5 229h0"></path>
<path d="M1202 229h162.5"></path>
<g>
<path d="M617.5 229h0"></path>
<path d="M720 229h0"></path>
<path d="M617.5 229a10 10 0 0 0 10 -10v0a10 10 0 0 1 10 -10"></path>
<g>
<path d="M637.5 209h62.5"></path>
</g>
<path d="M700 209a10 10 0 0 1 10 10v0a10 10 0 0 0 10 10"></path>
<path d="M617.5 229h20"></path>
<g class="terminal">
<path d="M637.5 229h0"></path>
<path d="M700 229h0"></path>
<rect x="637.5" y="218" width="62.5" height="22" rx="10" ry="10"></rect>
<text x="668.75" y="233">"NOT"</text>
</g>
<path d="M700 229h20"></path>
</g>
<g>
<path d="M720 229h0"></path>
<path d="M1202 229h0"></path>
<path d="M720 229h20"></path>
<g class="non-terminal">
<path d="M740 229h0"></path>
<path d="M802.5 229h379.5"></path>
<rect x="740" y="218" width="62.5" height="22"></rect>
<a xlink:href="#/abap/expression/SQLIn"><text x="771.25" y="233">SQLIn</text>
</a>
</g>
<path d="M1182 229h20"></path>
<path d="M720 229a10 10 0 0 1 10 10v19a10 10 0 0 0 10 10"></path>
<g>
<path d="M740 268h0"></path>
<path d="M1182 268h0"></path>
<g class="terminal">
<path d="M740 268h0"></path>
<path d="M811 268h0"></path>
<rect x="740" y="257" width="71" height="22" rx="10" ry="10"></rect>
<text x="775.5" y="272">"LIKE"</text>
</g>
<path d="M811 268h10"></path>
<path d="M821 268h10"></path>
<g class="non-terminal">
<path d="M831 268h0"></path>
<path d="M927.5 268h0"></path>
<rect x="831" y="257" width="96.5" height="22"></rect>
<a xlink:href="#/abap/expression/SQLSource"><text x="879.25" y="272">SQLSource</text>
</a>
</g>
<path d="M927.5 268h10"></path>
<g>
<path d="M937.5 268h0"></path>
<path d="M1182 268h0"></path>
<path d="M937.5 268a10 10 0 0 0 10 -10v0a10 10 0 0 1 10 -10"></path>
<g>
<path d="M957.5 248h204.5"></path>
</g>
<path d="M1162 248a10 10 0 0 1 10 10v0a10 10 0 0 0 10 10"></path>
<path d="M937.5 268h20"></path>
<g>
<path d="M957.5 268h0"></path>
<path d="M1162 268h0"></path>
<g class="terminal">
<path d="M957.5 268h0"></path>
<path d="M1045.5 268h0"></path>
<rect x="957.5" y="257" width="88" height="22" rx="10" ry="10"></rect>
<text x="1001.5" y="272">"ESCAPE"</text>
</g>
<path d="M1045.5 268h10"></path>
<path d="M1055.5 268h10"></path>
<g class="non-terminal">
<path d="M1065.5 268h0"></path>
<path d="M1162 268h0"></path>
<rect x="1065.5" y="257" width="96.5" height="22"></rect>
<a xlink:href="#/abap/expression/SQLSource"><text x="1113.75" y="272">SQLSource</text>
</a>
</g>
</g>
<path d="M1162 268h20"></path>
</g>
</g>
<path d="M1182 268a10 10 0 0 0 10 -10v-19a10 10 0 0 1 10 -10"></path>
<path d="M720 229a10 10 0 0 1 10 10v49a10 10 0 0 0 10 10"></path>
<g>
<path d="M740 298h0"></path>
<path d="M1152 298h30"></path>
<g class="terminal">
<path d="M740 298h0"></path>
<path d="M836.5 298h0"></path>
<rect x="740" y="287" width="96.5" height="22" rx="10" ry="10"></rect>
<text x="788.25" y="302">"BETWEEN"</text>
</g>
<path d="M836.5 298h10"></path>
<path d="M846.5 298h10"></path>
<g class="non-terminal">
<path d="M856.5 298h0"></path>
<path d="M953 298h0"></path>
<rect x="856.5" y="287" width="96.5" height="22"></rect>
<a xlink:href="#/abap/expression/SQLSource"><text x="904.75" y="302">SQLSource</text>
</a>
</g>
<path d="M953 298h10"></path>
<path d="M963 298h10"></path>
<g class="terminal">
<path d="M973 298h0"></path>
<path d="M1035.5 298h0"></path>
<rect x="973" y="287" width="62.5" height="22" rx="10" ry="10"></rect>
<text x="1004.25" y="302">"AND"</text>
</g>
<path d="M1035.5 298h10"></path>
<path d="M1045.5 298h10"></path>
<g class="non-terminal">
<path d="M1055.5 298h0"></path>
<path d="M1152 298h0"></path>
<rect x="1055.5" y="287" width="96.5" height="22"></rect>
<a xlink:href="#/abap/expression/SQLSource"><text x="1103.75" y="302">SQLSource</text>
</a>
</g>
</g>
<path d="M1182 298a10 10 0 0 0 10 -10v-49a10 10 0 0 1 10 -10"></path>
</g>
</g>
<path d="M1364.5 229a10 10 0 0 0 10 -10v-109a10 10 0 0 1 10 -10"></path>
<path d="M597.5 100a10 10 0 0 1 10 10v217a10 10 0 0 0 10 10"></path>
<g>
<path d="M617.5 337h0"></path>
<path d="M978.5 337h386"></path>
<g class="terminal">
<path d="M617.5 337h0"></path>
<path d="M671.5 337h0"></path>
<rect x="617.5" y="326" width="54" height="22" rx="10" ry="10"></rect>
<text x="644.5" y="341">"IS"</text>
</g>
<path d="M671.5 337h10"></path>
<g>
<path d="M681.5 337h0"></path>
<path d="M784 337h0"></path>
<path d="M681.5 337a10 10 0 0 0 10 -10v0a10 10 0 0 1 10 -10"></path>
<g>
<path d="M701.5 317h62.5"></path>
</g>
<path d="M764 317a10 10 0 0 1 10 10v0a10 10 0 0 0 10 10"></path>
<path d="M681.5 337h20"></path>
<g class="terminal">
<path d="M701.5 337h0"></path>
<path d="M764 337h0"></path>
<rect x="701.5" y="326" width="62.5" height="22" rx="10" ry="10"></rect>
<text x="732.75" y="341">"NOT"</text>
</g>
<path d="M764 337h20"></path>
</g>
<g>
<path d="M784 337h0"></path>
<path d="M978.5 337h0"></path>
<path d="M784 337h20"></path>
<g class="terminal">
<path d="M804 337h0"></path>
<path d="M875 337h83.5"></path>
<rect x="804" y="326" width="71" height="22" rx="10" ry="10"></rect>
<text x="839.5" y="341">"NULL"</text>
</g>
<path d="M958.5 337h20"></path>
<path d="M784 337a10 10 0 0 1 10 10v10a10 10 0 0 0 10 10"></path>
<g>
<path d="M804 367h0"></path>
<path d="M958.5 367h0"></path>
<g>
<path d="M804 367h0"></path>
<path d="M842 367h0"></path>
<text x="823" y="372" class="comment">v753</text>
</g>
<path d="M842 367h10"></path>
<path d="M852 367h10"></path>
<g class="terminal">
<path d="M862 367h0"></path>
<path d="M958.5 367h0"></path>
<rect x="862" y="356" width="96.5" height="22" rx="10" ry="10"></rect>
<text x="910.25" y="371">"INITIAL"</text>
</g>
</g>
<path d="M958.5 367a10 10 0 0 0 10 -10v-10a10 10 0 0 1 10 -10"></path>
</g>
</g>
<path d="M1364.5 337a10 10 0 0 0 10 -10v-217a10 10 0 0 1 10 -10"></path>
</g>
</g>
<path d="M1384.5 100a10 10 0 0 0 10 -10v-49a10 10 0 0 1 10 -10"></path>
</g>
<path d="M 1404.5 31 h 20 m 0 -10 v 20"></path>
</g>
</svg>
