<svg xmlns="http://www.w3.org/2000/svg" xmlns:xlink="http://www.w3.org/1999/xlink" class="railroad-diagram" width="1039.5" height="139" viewBox="0 0 1039.5 139">
<defs>
<style type="text/css"><![CDATA[
path {
stroke-width: 3;
stroke: black;
fill: rgba(0,0,0,0);
}
text {
font: bold 14px monospace;
text-anchor: middle;
}
text.diagram-text {
font-size: 12px;
}
a {
fill: blue;
}
text.diagram-arrow {
font-size: 16px;
}
text.label {
text-anchor: start;
}
text.comment {
font: italic 12px monospace;
}
rect {
stroke-width: 3;
stroke: black;
fill: #BCBCBC;
}
path.diagram-text {
stroke-width: 3;
stroke: black;
fill: #BCBCBC;
cursor: help;
}
]]></style>
</defs>
<g transform="translate(.5 .5)">
<g>
<path d="M20 38v20m0 -10h20"></path>
</g>
<path d="M40 48h10"></path>
<g>
<path d="M50 48h0"></path>
<path d="M989.5 48h0"></path>
<g>
<path d="M50 48h0"></path>
<path d="M470.5 48h0"></path>
<path d="M50 48h20"></path>
<g class="terminal">
<path d="M70 48h0"></path>
<path d="M158 48h292.5"></path>
<rect x="70" y="37" width="88" height="22" rx="10" ry="10"></rect>
<text x="114" y="52">"OTHERS"</text>
</g>
<path d="M450.5 48h20"></path>
<path d="M50 48a10 10 0 0 1 10 10v10a10 10 0 0 0 10 10"></path>
<g>
<path d="M70 78h0"></path>
<path d="M450.5 78h0"></path>
<g class="non-terminal">
<path d="M70 78h0"></path>
<path d="M200.5 78h0"></path>
<rect x="70" y="67" width="130.5" height="22"></rect>
<a xlink:href="#/abap/expression/ParameterName"><text x="135.25" y="82">ParameterName</text>
</a>
</g>
<path d="M200.5 78h10"></path>
<path d="M210.5 78h10"></path>
<g class="terminal">
<path d="M220.5 78h0"></path>
<path d="M300 78h0"></path>
<rect x="220.5" y="67" width="79.5" height="22" rx="10" ry="10"></rect>
<text x="260.25" y="82">!"Dash"</text>
</g>
<path d="M300 78h10"></path>
<path d="M310 78h10"></path>
<g class="non-terminal">
<path d="M320 78h0"></path>
<path d="M450.5 78h0"></path>
<rect x="320" y="67" width="130.5" height="22"></rect>
<a xlink:href="#/abap/expression/ComponentName"><text x="385.25" y="82">ComponentName</text>
</a>
</g>
</g>
<path d="M450.5 78a10 10 0 0 0 10 -10v-10a10 10 0 0 1 10 -10"></path>
<path d="M50 48a10 10 0 0 1 10 10v40a10 10 0 0 0 10 10"></path>
<g class="non-terminal">
<path d="M70 108h0"></path>
<path d="M200.5 108h250"></path>
<rect x="70" y="97" width="130.5" height="22"></rect>
<a xlink:href="#/abap/expression/ParameterName"><text x="135.25" y="112">ParameterName</text>
</a>
</g>
<path d="M450.5 108a10 10 0 0 0 10 -10v-40a10 10 0 0 1 10 -10"></path>
</g>
<g>
<path d="M470.5 48h0"></path>
<path d="M989.5 48h0"></path>
<path d="M470.5 48a10 10 0 0 0 10 -10v-8a10 10 0 0 1 10 -10"></path>
<g>
<path d="M490.5 20h479"></path>
</g>
<path d="M969.5 20a10 10 0 0 1 10 10v8a10 10 0 0 0 10 10"></path>
<path d="M470.5 48h20"></path>
<g>
<path d="M490.5 48h0"></path>
<path d="M969.5 48h0"></path>
<g class="terminal">
<path d="M490.5 48h0"></path>
<path d="M536 48h0"></path>
<rect x="490.5" y="37" width="45.5" height="22" rx="10" ry="10"></rect>
<text x="513.25" y="52">"="</text>
</g>
<path d="M536 48h10"></path>
<g>
<path d="M546 48h0"></path>
<path d="M742 48h0"></path>
<path d="M546 48h20"></path>
<g class="non-terminal">
<path d="M566 48h0"></path>
<path d="M645.5 48h76.5"></path>
<rect x="566" y="37" width="79.5" height="22"></rect>
<a xlink:href="#/abap/expression/Integer"><text x="605.75" y="52">Integer</text>
</a>
</g>
<path d="M722 48h20"></path>
<path d="M546 48a10 10 0 0 1 10 10v10a10 10 0 0 0 10 10"></path>
<g class="non-terminal">
<path d="M566 78h0"></path>
<path d="M722 78h0"></path>
<rect x="566" y="67" width="156" height="22"></rect>
<a xlink:href="#/abap/expression/SimpleFieldChain"><text x="644" y="82">SimpleFieldChain</text>
</a>
</g>
<path d="M722 78a10 10 0 0 0 10 -10v-10a10 10 0 0 1 10 -10"></path>
</g>
<g>
<path d="M742 48h0"></path>
<path d="M969.5 48h0"></path>
<path d="M742 48a10 10 0 0 0 10 -10v0a10 10 0 0 1 10 -10"></path>
<g>
<path d="M762 28h187.5"></path>
</g>
<path d="M949.5 28a10 10 0 0 1 10 10v0a10 10 0 0 0 10 10"></path>
<path d="M742 48h20"></path>
<g>
<path d="M762 48h0"></path>
<path d="M949.5 48h0"></path>
<g class="terminal">
<path d="M762 48h0"></path>
<path d="M858.5 48h0"></path>
<rect x="762" y="37" width="96.5" height="22" rx="10" ry="10"></rect>
<text x="810.25" y="52">"MESSAGE"</text>
</g>
<path d="M858.5 48h10"></path>
<path d="M868.5 48h10"></path>
<g class="non-terminal">
<path d="M878.5 48h0"></path>
<path d="M949.5 48h0"></path>
<rect x="878.5" y="37" width="71" height="22"></rect>
<a xlink:href="#/abap/expression/Target"><text x="914" y="52">Target</text>
</a>
</g>
</g>
<path d="M949.5 48h20"></path>
</g>
</g>
<path d="M969.5 48h20"></path>
</g>
</g>
<path d="M989.5 48h10"></path>
<path d="M 999.5 48 h 20 m 0 -10 v 20"></path>
</g>
</svg>
