<svg xmlns="http://www.w3.org/2000/svg" xmlns:xlink="http://www.w3.org/1999/xlink" class="railroad-diagram" width="736.5" height="101" viewBox="0 0 736.5 101">
<defs>
<style type="text/css"><![CDATA[
path {
stroke-width: 3;
stroke: black;
fill: rgba(0,0,0,0);
}
text {
font: bold 14px monospace;
text-anchor: middle;
}
text.diagram-text {
font-size: 12px;
}
a {
fill: blue;
}
text.diagram-arrow {
font-size: 16px;
}
text.label {
text-anchor: start;
}
text.comment {
font: italic 12px monospace;
}
rect {
stroke-width: 3;
stroke: black;
fill: #BCBCBC;
}
path.diagram-text {
stroke-width: 3;
stroke: black;
fill: #BCBCBC;
cursor: help;
}
]]></style>
</defs>
<g transform="translate(.5 .5)">
<g>
<path d="M20 30v20m0 -10h20"></path>
</g>
<path d="M40 40h10"></path>
<g>
<path d="M50 40h0"></path>
<path d="M686.5 40h0"></path>
<g>
<path d="M50 40h0"></path>
<path d="M464.5 40h0"></path>
<path d="M50 40h20"></path>
<g>
<path d="M70 40h0"></path>
<path d="M444.5 40h0"></path>
<g class="terminal ">
<path d="M70 40h0"></path>
<path d="M158 40h0"></path>
<rect x="70" y="29" width="88" height="22" rx="10" ry="10"></rect>
<text x="114" y="44">!"WPlus"</text>
</g>
<path d="M158 40h10"></path>
<path d="M168 40h10"></path>
<g class="terminal ">
<path d="M178 40h0"></path>
<path d="M444.5 40h0"></path>
<rect x="178" y="29" width="266.5" height="22" rx="10" ry="10"></rect>
<text x="311.25" y="44">^(\/\w+\/)?\w+~(\/\w+\/)?\w+$</text>
</g>
</g>
<path d="M444.5 40h20"></path>
<path d="M50 40a10 10 0 0 1 10 10v10a10 10 0 0 0 10 10"></path>
<g class="terminal ">
<path d="M70 70h54"></path>
<path d="M390.5 70h54"></path>
<rect x="124" y="59" width="266.5" height="22" rx="10" ry="10"></rect>
<text x="257.25" y="74">^(\/\w+\/)?\w+~(\/\w+\/)?\w+$</text>
</g>
<path d="M444.5 70a10 10 0 0 0 10 -10v-10a10 10 0 0 1 10 -10"></path>
</g>
<g>
<path d="M464.5 40h0"></path>
<path d="M686.5 40h0"></path>
<path d="M464.5 40a10 10 0 0 0 10 -10v0a10 10 0 0 1 10 -10"></path>
<g>
<path d="M484.5 20h182"></path>
</g>
<path d="M666.5 20a10 10 0 0 1 10 10v0a10 10 0 0 0 10 10"></path>
<path d="M464.5 40h20"></path>
<g>
<path d="M484.5 40h0"></path>
<path d="M666.5 40h0"></path>
<path d="M484.5 40h10"></path>
<g>
<path d="M494.5 40h0"></path>
<path d="M656.5 40h0"></path>
<g class="terminal ">
<path d="M494.5 40h0"></path>
<path d="M574 40h0"></path>
<rect x="494.5" y="29" width="79.5" height="22" rx="10" ry="10"></rect>
<text x="534.25" y="44">!"Dash"</text>
</g>
<path d="M574 40h10"></path>
<path d="M584 40h10"></path>
<g class="terminal ">
<path d="M594 40h0"></path>
<path d="M656.5 40h0"></path>
<rect x="594" y="29" width="62.5" height="22" rx="10" ry="10"></rect>
<text x="625.25" y="44">^\w+$</text>
</g>
</g>
<path d="M656.5 40h10"></path>
<path d="M494.5 40a10 10 0 0 0 -10 10v0a10 10 0 0 0 10 10"></path>
<g>
<path d="M494.5 60h162"></path>
</g>
<path d="M656.5 60a10 10 0 0 0 10 -10v0a10 10 0 0 0 -10 -10"></path>
</g>
<path d="M666.5 40h20"></path>
</g>
</g>
<path d="M686.5 40h10"></path>
<path d="M 696.5 40 h 20 m 0 -10 v 20"></path>
</g>
</svg>
