<svg xmlns="http://www.w3.org/2000/svg" xmlns:xlink="http://www.w3.org/1999/xlink" class="railroad-diagram" width="645.5" height="152" viewBox="0 0 645.5 152">
<defs>
<style type="text/css"><![CDATA[
path {
stroke-width: 3;
stroke: black;
fill: rgba(0,0,0,0);
}
text {
font: bold 14px monospace;
text-anchor: middle;
}
text.diagram-text {
font-size: 12px;
}
a {
fill: blue;
}
text.diagram-arrow {
font-size: 16px;
}
text.label {
text-anchor: start;
}
text.comment {
font: italic 12px monospace;
}
rect {
stroke-width: 3;
stroke: black;
fill: #BCBCBC;
}
path.diagram-text {
stroke-width: 3;
stroke: black;
fill: #BCBCBC;
cursor: help;
}
]]></style>
</defs>
<g transform="translate(.5 .5)">
<g>
<path d="M20 21v20m0 -10h20"></path>
</g>
<g>
<path d="M40 31h0"></path>
<path d="M605.5 31h0"></path>
<path d="M40 31h20"></path>
<g class="non-terminal">
<path d="M60 31h0"></path>
<path d="M190.5 31h395"></path>
<rect x="60" y="20" width="130.5" height="22"></rect>
<a xlink:href="#/abap/expression/SQLAliasField"><text x="125.25" y="35">SQLAliasField</text>
</a>
</g>
<path d="M585.5 31h20"></path>
<path d="M40 31a10 10 0 0 1 10 10v10a10 10 0 0 0 10 10"></path>
<g class="non-terminal">
<path d="M60 61h0"></path>
<path d="M190.5 61h395"></path>
<rect x="60" y="50" width="130.5" height="22"></rect>
<a xlink:href="#/abap/expression/SimpleSource3"><text x="125.25" y="65">SimpleSource3</text>
</a>
</g>
<path d="M585.5 61a10 10 0 0 0 10 -10v-10a10 10 0 0 1 10 -10"></path>
<path d="M40 31a10 10 0 0 1 10 10v40a10 10 0 0 0 10 10"></path>
<g>
<path d="M60 91h0"></path>
<path d="M585.5 91h0"></path>
<g>
<path d="M60 91h0"></path>
<path d="M217 91h0"></path>
<text x="138.5" y="96" class="comment">v740sp05 or open-abap</text>
</g>
<path d="M217 91h10"></path>
<path d="M227 91h10"></path>
<g>
<path d="M237 91h0"></path>
<path d="M585.5 91h0"></path>
<g class="terminal">
<path d="M237 91h0"></path>
<path d="M291 91h0"></path>
<rect x="237" y="80" width="54" height="22" rx="10" ry="10"></rect>
<text x="264" y="95">!"@"</text>
</g>
<path d="M291 91h10"></path>
<g>
<path d="M301 91h0"></path>
<path d="M585.5 91h0"></path>
<path d="M301 91h20"></path>
<g class="non-terminal">
<path d="M321 91h0"></path>
<path d="M451.5 91h114"></path>
<rect x="321" y="80" width="130.5" height="22"></rect>
<a xlink:href="#/abap/expression/SimpleSource3"><text x="386.25" y="95">SimpleSource3</text>
</a>
</g>
<path d="M565.5 91h20"></path>
<path d="M301 91a10 10 0 0 1 10 10v10a10 10 0 0 0 10 10"></path>
<g>
<path d="M321 121h0"></path>
<path d="M565.5 121h0"></path>
<g class="terminal">
<path d="M321 121h0"></path>
<path d="M383.5 121h0"></path>
<rect x="321" y="110" width="62.5" height="22" rx="10" ry="10"></rect>
<text x="352.25" y="125">!"( "</text>
</g>
<path d="M383.5 121h10"></path>
<path d="M393.5 121h10"></path>
<g class="non-terminal">
<path d="M403.5 121h0"></path>
<path d="M474.5 121h0"></path>
<rect x="403.5" y="110" width="71" height="22"></rect>
<a xlink:href="#/abap/expression/Source"><text x="439" y="125">Source</text>
</a>
</g>
<path d="M474.5 121h10"></path>
<path d="M484.5 121h10"></path>
<g class="terminal">
<path d="M494.5 121h0"></path>
<path d="M565.5 121h0"></path>
<rect x="494.5" y="110" width="71" height="22" rx="10" ry="10"></rect>
<text x="530" y="125">!" ) "</text>
</g>
</g>
<path d="M565.5 121a10 10 0 0 0 10 -10v-10a10 10 0 0 1 10 -10"></path>
</g>
</g>
</g>
<path d="M585.5 91a10 10 0 0 0 10 -10v-40a10 10 0 0 1 10 -10"></path>
</g>
<path d="M 605.5 31 h 20 m 0 -10 v 20"></path>
</g>
</svg>
