<svg xmlns="http://www.w3.org/2000/svg" xmlns:xlink="http://www.w3.org/1999/xlink" class="railroad-diagram" width="1501.5" height="267" viewBox="0 0 1501.5 267">
<defs>
<style type="text/css"><![CDATA[
path {
stroke-width: 3;
stroke: black;
fill: rgba(0,0,0,0);
}
text {
font: bold 14px monospace;
text-anchor: middle;
}
text.diagram-text {
font-size: 12px;
}
a {
fill: blue;
}
text.diagram-arrow {
font-size: 16px;
}
text.label {
text-anchor: start;
}
text.comment {
font: italic 12px monospace;
}
rect {
stroke-width: 3;
stroke: black;
fill: #BCBCBC;
}
path.diagram-text {
stroke-width: 3;
stroke: black;
fill: #BCBCBC;
cursor: help;
}
]]></style>
</defs>
<g transform="translate(.5 .5)">
<g>
<path d="M20 38v20m0 -10h20"></path>
</g>
<path d="M40 48h10"></path>
<g>
<path d="M50 48h0"></path>
<path d="M1451.5 48h0"></path>
<g>
<path d="M50 48h0"></path>
<path d="M414.5 48h0"></path>
<path d="M50 48h20"></path>
<g class="non-terminal">
<path d="M70 48h0"></path>
<path d="M209 48h185.5"></path>
<rect x="70" y="37" width="139" height="22"></rect>
<a xlink:href="#/abap/expression/SQLAggregation"><text x="139.5" y="52">SQLAggregation</text>
</a>
</g>
<path d="M394.5 48h20"></path>
<path d="M50 48a10 10 0 0 1 10 10v10a10 10 0 0 0 10 10"></path>
<g class="non-terminal">
<path d="M70 78h0"></path>
<path d="M149.5 78h245"></path>
<rect x="70" y="67" width="79.5" height="22"></rect>
<a xlink:href="#/abap/expression/SQLCase"><text x="109.75" y="82">SQLCase</text>
</a>
</g>
<path d="M394.5 78a10 10 0 0 0 10 -10v-10a10 10 0 0 1 10 -10"></path>
<path d="M50 48a10 10 0 0 1 10 10v40a10 10 0 0 0 10 10"></path>
<g class="non-terminal">
<path d="M70 108h0"></path>
<path d="M183.5 108h211"></path>
<rect x="70" y="97" width="113.5" height="22"></rect>
<a xlink:href="#/abap/expression/SQLFunction"><text x="126.75" y="112">SQLFunction</text>
</a>
</g>
<path d="M394.5 108a10 10 0 0 0 10 -10v-40a10 10 0 0 1 10 -10"></path>
<path d="M50 48a10 10 0 0 1 10 10v70a10 10 0 0 0 10 10"></path>
<g class="non-terminal">
<path d="M70 138h0"></path>
<path d="M149.5 138h245"></path>
<rect x="70" y="127" width="79.5" height="22"></rect>
<a xlink:href="#/abap/expression/SQLPath"><text x="109.75" y="142">SQLPath</text>
</a>
</g>
<path d="M394.5 138a10 10 0 0 0 10 -10v-70a10 10 0 0 1 10 -10"></path>
<path d="M50 48a10 10 0 0 1 10 10v100a10 10 0 0 0 10 10"></path>
<g class="non-terminal">
<path d="M70 168h0"></path>
<path d="M192 168h202.5"></path>
<rect x="70" y="157" width="122" height="22"></rect>
<a xlink:href="#/abap/expression/SQLFieldName"><text x="131" y="172">SQLFieldName</text>
</a>
</g>
<path d="M394.5 168a10 10 0 0 0 10 -10v-100a10 10 0 0 1 10 -10"></path>
<path d="M50 48a10 10 0 0 1 10 10v130a10 10 0 0 0 10 10"></path>
<g>
<path d="M70 198h0"></path>
<path d="M394.5 198h0"></path>
<g>
<path d="M70 198h0"></path>
<path d="M136 198h0"></path>
<text x="103" y="203" class="comment">v740sp05</text>
</g>
<path d="M136 198h10"></path>
<path d="M146 198h10"></path>
<g>
<path d="M156 198h0"></path>
<path d="M394.5 198h0"></path>
<g class="terminal">
<path d="M156 198h0"></path>
<path d="M218.5 198h0"></path>
<rect x="156" y="187" width="62.5" height="22" rx="10" ry="10"></rect>
<text x="187.25" y="202">!" @"</text>
</g>
<path d="M218.5 198h10"></path>
<path d="M228.5 198h10"></path>
<g class="non-terminal">
<path d="M238.5 198h0"></path>
<path d="M394.5 198h0"></path>
<rect x="238.5" y="187" width="156" height="22"></rect>
<a xlink:href="#/abap/expression/SimpleFieldChain"><text x="316.5" y="202">SimpleFieldChain</text>
</a>
</g>
</g>
</g>
<path d="M394.5 198a10 10 0 0 0 10 -10v-130a10 10 0 0 1 10 -10"></path>
<path d="M50 48a10 10 0 0 1 10 10v160a10 10 0 0 0 10 10"></path>
<g class="non-terminal">
<path d="M70 228h0"></path>
<path d="M158 228h236.5"></path>
<rect x="70" y="217" width="88" height="22"></rect>
<a xlink:href="#/abap/expression/Constant"><text x="114" y="232">Constant</text>
</a>
</g>
<path d="M394.5 228a10 10 0 0 0 10 -10v-160a10 10 0 0 1 10 -10"></path>
</g>
<g>
<path d="M414.5 48h0"></path>
<path d="M1241 48h0"></path>
<path d="M414.5 48a10 10 0 0 0 10 -10v-8a10 10 0 0 1 10 -10"></path>
<g>
<path d="M434.5 20h786.5"></path>
</g>
<path d="M1221 20a10 10 0 0 1 10 10v8a10 10 0 0 0 10 10"></path>
<path d="M414.5 48h20"></path>
<g>
<path d="M434.5 48h0"></path>
<path d="M1221 48h0"></path>
<g>
<path d="M434.5 48h0"></path>
<path d="M500.5 48h0"></path>
<text x="467.5" y="53" class="comment">v740sp05</text>
</g>
<path d="M500.5 48h10"></path>
<path d="M510.5 48h10"></path>
<g>
<path d="M520.5 48h0"></path>
<path d="M1221 48h0"></path>
<path d="M520.5 48h10"></path>
<g>
<path d="M530.5 48h0"></path>
<path d="M1211 48h0"></path>
<g>
<path d="M530.5 48h0"></path>
<path d="M624.5 48h0"></path>
<path d="M530.5 48h20"></path>
<g class="terminal">
<path d="M550.5 48h0"></path>
<path d="M596 48h8.5"></path>
<rect x="550.5" y="37" width="45.5" height="22" rx="10" ry="10"></rect>
<text x="573.25" y="52">"+"</text>
</g>
<path d="M604.5 48h20"></path>
<path d="M530.5 48a10 10 0 0 1 10 10v10a10 10 0 0 0 10 10"></path>
<g class="terminal">
<path d="M550.5 78h0"></path>
<path d="M596 78h8.5"></path>
<rect x="550.5" y="67" width="45.5" height="22" rx="10" ry="10"></rect>
<text x="573.25" y="82">"-"</text>
</g>
<path d="M604.5 78a10 10 0 0 0 10 -10v-10a10 10 0 0 1 10 -10"></path>
<path d="M530.5 48a10 10 0 0 1 10 10v40a10 10 0 0 0 10 10"></path>
<g class="terminal">
<path d="M550.5 108h0"></path>
<path d="M596 108h8.5"></path>
<rect x="550.5" y="97" width="45.5" height="22" rx="10" ry="10"></rect>
<text x="573.25" y="112">"&#42;"</text>
</g>
<path d="M604.5 108a10 10 0 0 0 10 -10v-40a10 10 0 0 1 10 -10"></path>
<path d="M530.5 48a10 10 0 0 1 10 10v70a10 10 0 0 0 10 10"></path>
<g class="terminal">
<path d="M550.5 138h0"></path>
<path d="M596 138h8.5"></path>
<rect x="550.5" y="127" width="45.5" height="22" rx="10" ry="10"></rect>
<text x="573.25" y="142">"/"</text>
</g>
<path d="M604.5 138a10 10 0 0 0 10 -10v-70a10 10 0 0 1 10 -10"></path>
<path d="M530.5 48a10 10 0 0 1 10 10v100a10 10 0 0 0 10 10"></path>
<g class="terminal">
<path d="M550.5 168h0"></path>
<path d="M604.5 168h0"></path>
<rect x="550.5" y="157" width="54" height="22" rx="10" ry="10"></rect>
<text x="577.5" y="172">"&#38;&#38;"</text>
</g>
<path d="M604.5 168a10 10 0 0 0 10 -10v-100a10 10 0 0 1 10 -10"></path>
</g>
<g>
<path d="M624.5 48h0"></path>
<path d="M735.5 48h0"></path>
<path d="M624.5 48a10 10 0 0 0 10 -10v0a10 10 0 0 1 10 -10"></path>
<g>
<path d="M644.5 28h71"></path>
</g>
<path d="M715.5 28a10 10 0 0 1 10 10v0a10 10 0 0 0 10 10"></path>
<path d="M624.5 48h20"></path>
<g class="terminal">
<path d="M644.5 48h0"></path>
<path d="M715.5 48h0"></path>
<rect x="644.5" y="37" width="71" height="22" rx="10" ry="10"></rect>
<text x="680" y="52">!" ( "</text>
</g>
<path d="M715.5 48h20"></path>
</g>
<g>
<path d="M735.5 48h0"></path>
<path d="M1100 48h0"></path>
<path d="M735.5 48h20"></path>
<g class="non-terminal">
<path d="M755.5 48h0"></path>
<path d="M894.5 48h185.5"></path>
<rect x="755.5" y="37" width="139" height="22"></rect>
<a xlink:href="#/abap/expression/SQLAggregation"><text x="825" y="52">SQLAggregation</text>
</a>
</g>
<path d="M1080 48h20"></path>
<path d="M735.5 48a10 10 0 0 1 10 10v10a10 10 0 0 0 10 10"></path>
<g class="non-terminal">
<path d="M755.5 78h0"></path>
<path d="M835 78h245"></path>
<rect x="755.5" y="67" width="79.5" height="22"></rect>
<a xlink:href="#/abap/expression/SQLCase"><text x="795.25" y="82">SQLCase</text>
</a>
</g>
<path d="M1080 78a10 10 0 0 0 10 -10v-10a10 10 0 0 1 10 -10"></path>
<path d="M735.5 48a10 10 0 0 1 10 10v40a10 10 0 0 0 10 10"></path>
<g class="non-terminal">
<path d="M755.5 108h0"></path>
<path d="M869 108h211"></path>
<rect x="755.5" y="97" width="113.5" height="22"></rect>
<a xlink:href="#/abap/expression/SQLFunction"><text x="812.25" y="112">SQLFunction</text>
</a>
</g>
<path d="M1080 108a10 10 0 0 0 10 -10v-40a10 10 0 0 1 10 -10"></path>
<path d="M735.5 48a10 10 0 0 1 10 10v70a10 10 0 0 0 10 10"></path>
<g class="non-terminal">
<path d="M755.5 138h0"></path>
<path d="M835 138h245"></path>
<rect x="755.5" y="127" width="79.5" height="22"></rect>
<a xlink:href="#/abap/expression/SQLPath"><text x="795.25" y="142">SQLPath</text>
</a>
</g>
<path d="M1080 138a10 10 0 0 0 10 -10v-70a10 10 0 0 1 10 -10"></path>
<path d="M735.5 48a10 10 0 0 1 10 10v100a10 10 0 0 0 10 10"></path>
<g class="non-terminal">
<path d="M755.5 168h0"></path>
<path d="M877.5 168h202.5"></path>
<rect x="755.5" y="157" width="122" height="22"></rect>
<a xlink:href="#/abap/expression/SQLFieldName"><text x="816.5" y="172">SQLFieldName</text>
</a>
</g>
<path d="M1080 168a10 10 0 0 0 10 -10v-100a10 10 0 0 1 10 -10"></path>
<path d="M735.5 48a10 10 0 0 1 10 10v130a10 10 0 0 0 10 10"></path>
<g>
<path d="M755.5 198h0"></path>
<path d="M1080 198h0"></path>
<g>
<path d="M755.5 198h0"></path>
<path d="M821.5 198h0"></path>
<text x="788.5" y="203" class="comment">v740sp05</text>
</g>
<path d="M821.5 198h10"></path>
<path d="M831.5 198h10"></path>
<g>
<path d="M841.5 198h0"></path>
<path d="M1080 198h0"></path>
<g class="terminal">
<path d="M841.5 198h0"></path>
<path d="M904 198h0"></path>
<rect x="841.5" y="187" width="62.5" height="22" rx="10" ry="10"></rect>
<text x="872.75" y="202">!" @"</text>
</g>
<path d="M904 198h10"></path>
<path d="M914 198h10"></path>
<g class="non-terminal">
<path d="M924 198h0"></path>
<path d="M1080 198h0"></path>
<rect x="924" y="187" width="156" height="22"></rect>
<a xlink:href="#/abap/expression/SimpleFieldChain"><text x="1002" y="202">SimpleFieldChain</text>
</a>
</g>
</g>
</g>
<path d="M1080 198a10 10 0 0 0 10 -10v-130a10 10 0 0 1 10 -10"></path>
<path d="M735.5 48a10 10 0 0 1 10 10v160a10 10 0 0 0 10 10"></path>
<g class="non-terminal">
<path d="M755.5 228h0"></path>
<path d="M843.5 228h236.5"></path>
<rect x="755.5" y="217" width="88" height="22"></rect>
<a xlink:href="#/abap/expression/Constant"><text x="799.5" y="232">Constant</text>
</a>
</g>
<path d="M1080 228a10 10 0 0 0 10 -10v-160a10 10 0 0 1 10 -10"></path>
</g>
<g>
<path d="M1100 48h0"></path>
<path d="M1211 48h0"></path>
<path d="M1100 48a10 10 0 0 0 10 -10v0a10 10 0 0 1 10 -10"></path>
<g>
<path d="M1120 28h71"></path>
</g>
<path d="M1191 28a10 10 0 0 1 10 10v0a10 10 0 0 0 10 10"></path>
<path d="M1100 48h20"></path>
<g class="terminal">
<path d="M1120 48h0"></path>
<path d="M1191 48h0"></path>
<rect x="1120" y="37" width="71" height="22" rx="10" ry="10"></rect>
<text x="1155.5" y="52">!" ) "</text>
</g>
<path d="M1191 48h20"></path>
</g>
</g>
<path d="M1211 48h10"></path>
<path d="M530.5 48a10 10 0 0 0 -10 10v179a10 10 0 0 0 10 10"></path>
<g>
<path d="M530.5 247h680.5"></path>
</g>
<path d="M1211 247a10 10 0 0 0 10 -10v-179a10 10 0 0 0 -10 -10"></path>
</g>
</g>
<path d="M1221 48h20"></path>
</g>
<g>
<path d="M1241 48h0"></path>
<path d="M1451.5 48h0"></path>
<path d="M1241 48a10 10 0 0 0 10 -10v0a10 10 0 0 1 10 -10"></path>
<g>
<path d="M1261 28h170.5"></path>
</g>
<path d="M1431.5 28a10 10 0 0 1 10 10v0a10 10 0 0 0 10 10"></path>
<path d="M1241 48h20"></path>
<g>
<path d="M1261 48h0"></path>
<path d="M1431.5 48h0"></path>
<g class="terminal">
<path d="M1261 48h0"></path>
<path d="M1315 48h0"></path>
<rect x="1261" y="37" width="54" height="22" rx="10" ry="10"></rect>
<text x="1288" y="52">"AS"</text>
</g>
<path d="M1315 48h10"></path>
<path d="M1325 48h10"></path>
<g class="non-terminal">
<path d="M1335 48h0"></path>
<path d="M1431.5 48h0"></path>
<rect x="1335" y="37" width="96.5" height="22"></rect>
<a xlink:href="#/abap/expression/SQLAsName"><text x="1383.25" y="52">SQLAsName</text>
</a>
</g>
</g>
<path d="M1431.5 48h20"></path>
</g>
</g>
<path d="M1451.5 48h10"></path>
<path d="M 1461.5 48 h 20 m 0 -10 v 20"></path>
</g>
</svg>
