<svg xmlns="http://www.w3.org/2000/svg" xmlns:xlink="http://www.w3.org/1999/xlink" class="railroad-diagram" width="970.5" height="101" viewBox="0 0 970.5 101">
<defs>
<style type="text/css"><![CDATA[
path {
stroke-width: 3;
stroke: black;
fill: rgba(0,0,0,0);
}
text {
font: bold 14px monospace;
text-anchor: middle;
}
text.diagram-text {
font-size: 12px;
}
a {
fill: blue;
}
text.diagram-arrow {
font-size: 16px;
}
text.label {
text-anchor: start;
}
text.comment {
font: italic 12px monospace;
}
rect {
stroke-width: 3;
stroke: black;
fill: #BCBCBC;
}
path.diagram-text {
stroke-width: 3;
stroke: black;
fill: #BCBCBC;
cursor: help;
}
]]></style>
</defs>
<g transform="translate(.5 .5)">
<g>
<path d="M20 30v20m0 -10h20"></path>
</g>
<path d="M40 40h10"></path>
<g>
<path d="M50 40h0"></path>
<path d="M920.5 40h0"></path>
<g>
<path d="M50 40h0"></path>
<path d="M203.5 40h0"></path>
<path d="M50 40h20"></path>
<g class="terminal ">
<path d="M70 40h21.25"></path>
<path d="M162.25 40h21.25"></path>
<rect x="91.25" y="29" width="71" height="22" rx="10" ry="10"></rect>
<text x="126.75" y="44">"INTO"</text>
</g>
<path d="M183.5 40h20"></path>
<path d="M50 40a10 10 0 0 1 10 10v10a10 10 0 0 0 10 10"></path>
<g class="terminal ">
<path d="M70 70h0"></path>
<path d="M183.5 70h0"></path>
<rect x="70" y="59" width="113.5" height="22" rx="10" ry="10"></rect>
<text x="126.75" y="74">"APPENDING"</text>
</g>
<path d="M183.5 70a10 10 0 0 0 10 -10v-10a10 10 0 0 1 10 -10"></path>
</g>
<g>
<path d="M203.5 40h0"></path>
<path d="M476 40h0"></path>
<path d="M203.5 40a10 10 0 0 0 10 -10v0a10 10 0 0 1 10 -10"></path>
<g>
<path d="M223.5 20h232.5"></path>
</g>
<path d="M456 20a10 10 0 0 1 10 10v0a10 10 0 0 0 10 10"></path>
<path d="M203.5 40h20"></path>
<g class="terminal ">
<path d="M223.5 40h0"></path>
<path d="M456 40h0"></path>
<rect x="223.5" y="29" width="232.5" height="22" rx="10" ry="10"></rect>
<text x="339.75" y="44">"CORRESPONDING FIELDS OF"</text>
</g>
<path d="M456 40h20"></path>
</g>
<path d="M476 40h10"></path>
<g class="terminal ">
<path d="M486 40h0"></path>
<path d="M565.5 40h0"></path>
<rect x="486" y="29" width="79.5" height="22" rx="10" ry="10"></rect>
<text x="525.75" y="44">"TABLE"</text>
</g>
<path d="M565.5 40h10"></path>
<path d="M575.5 40h10"></path>
<g class="non-terminal ">
<path d="M585.5 40h0"></path>
<path d="M682 40h0"></path>
<rect x="585.5" y="29" width="96.5" height="22"></rect>
<a xlink:href="#/abap/expression/SQLTarget"><text x="633.75" y="44">SQLTarget</text>
</a>
</g>
<path d="M682 40h10"></path>
<g>
<path d="M692 40h0"></path>
<path d="M920.5 40h0"></path>
<path d="M692 40a10 10 0 0 0 10 -10v0a10 10 0 0 1 10 -10"></path>
<g>
<path d="M712 20h188.5"></path>
</g>
<path d="M900.5 20a10 10 0 0 1 10 10v0a10 10 0 0 0 10 10"></path>
<path d="M692 40h20"></path>
<g>
<path d="M712 40h0"></path>
<path d="M900.5 40h0"></path>
<g class="comment ">
<path d="M712 40h0"></path>
<path d="M750 40h0"></path>
<text x="731" y="45" class="comment">9.15</text>
</g>
<path d="M750 40h10"></path>
<path d="M760 40h10"></path>
<g class="non-terminal ">
<path d="M770 40h0"></path>
<path d="M900.5 40h0"></path>
<rect x="770" y="29" width="130.5" height="22"></rect>
<a xlink:href="#/abap/expression/SQLIndicators"><text x="835.25" y="44">SQLIndicators</text>
</a>
</g>
</g>
<path d="M900.5 40h20"></path>
</g>
</g>
<path d="M920.5 40h10"></path>
<path d="M 930.5 40 h 20 m 0 -10 v 20"></path>
</g>
</svg>
