<svg xmlns="http://www.w3.org/2000/svg" xmlns:xlink="http://www.w3.org/1999/xlink" class="railroad-diagram" width="1104.5" height="109" viewBox="0 0 1104.5 109">
<defs>
<style type="text/css"><![CDATA[
path {
stroke-width: 3;
stroke: black;
fill: rgba(0,0,0,0);
}
text {
font: bold 14px monospace;
text-anchor: middle;
}
text.diagram-text {
font-size: 12px;
}
a {
fill: blue;
}
text.diagram-arrow {
font-size: 16px;
}
text.label {
text-anchor: start;
}
text.comment {
font: italic 12px monospace;
}
rect {
stroke-width: 3;
stroke: black;
fill: #BCBCBC;
}
path.diagram-text {
stroke-width: 3;
stroke: black;
fill: #BCBCBC;
cursor: help;
}
]]></style>
</defs>
<g transform="translate(.5 .5)">
<g>
<path d="M20 30v20m0 -10h20"></path>
</g>
<path d="M40 40h10"></path>
<g>
<path d="M50 40h0"></path>
<path d="M1054.5 40h0"></path>
<g class="terminal">
<path d="M50 40h0"></path>
<path d="M95.5 40h0"></path>
<rect x="50" y="29" width="45.5" height="22" rx="10" ry="10"></rect>
<text x="72.75" y="44">"("</text>
</g>
<path d="M95.5 40h10"></path>
<path d="M105.5 40h10"></path>
<g>
<path d="M115.5 40h0"></path>
<path d="M489.5 40h0"></path>
<g class="non-terminal">
<path d="M115.5 40h0"></path>
<path d="M178 40h0"></path>
<rect x="115.5" y="29" width="62.5" height="22"></rect>
<a xlink:href="#/abap/expression/Field"><text x="146.75" y="44">Field</text>
</a>
</g>
<path d="M178 40h10"></path>
<path d="M188 40h10"></path>
<g class="terminal">
<path d="M198 40h0"></path>
<path d="M243.5 40h0"></path>
<rect x="198" y="29" width="45.5" height="22" rx="10" ry="10"></rect>
<text x="220.75" y="44">"="</text>
</g>
<path d="M243.5 40h10"></path>
<g>
<path d="M253.5 40h0"></path>
<path d="M489.5 40h0"></path>
<path d="M253.5 40h20"></path>
<g>
<path d="M273.5 40h0"></path>
<path d="M469.5 40h0"></path>
<g class="terminal">
<path d="M273.5 40h0"></path>
<path d="M344.5 40h0"></path>
<rect x="273.5" y="29" width="71" height="22" rx="10" ry="10"></rect>
<text x="309" y="44">!"WAt"</text>
</g>
<path d="M344.5 40h10"></path>
<path d="M354.5 40h10"></path>
<g class="non-terminal">
<path d="M364.5 40h0"></path>
<path d="M469.5 40h0"></path>
<rect x="364.5" y="29" width="105" height="22"></rect>
<a xlink:href="#/abap/expression/FieldChain"><text x="417" y="44">FieldChain</text>
</a>
</g>
</g>
<path d="M469.5 40h20"></path>
<path d="M253.5 40a10 10 0 0 1 10 10v10a10 10 0 0 0 10 10"></path>
<g class="non-terminal">
<path d="M273.5 70h0"></path>
<path d="M361.5 70h108"></path>
<rect x="273.5" y="59" width="88" height="22"></rect>
<a xlink:href="#/abap/expression/Constant"><text x="317.5" y="74">Constant</text>
</a>
</g>
<path d="M469.5 70a10 10 0 0 0 10 -10v-10a10 10 0 0 1 10 -10"></path>
</g>
</g>
<path d="M489.5 40h10"></path>
<g>
<path d="M499.5 40h0"></path>
<path d="M999 40h0"></path>
<path d="M499.5 40a10 10 0 0 0 10 -10v0a10 10 0 0 1 10 -10"></path>
<g>
<path d="M519.5 20h459.5"></path>
</g>
<path d="M979 20a10 10 0 0 1 10 10v0a10 10 0 0 0 10 10"></path>
<path d="M499.5 40h20"></path>
<g>
<path d="M519.5 40h0"></path>
<path d="M979 40h0"></path>
<path d="M519.5 40h10"></path>
<g>
<path d="M529.5 40h0"></path>
<path d="M969 40h0"></path>
<g class="terminal">
<path d="M529.5 40h0"></path>
<path d="M575 40h0"></path>
<rect x="529.5" y="29" width="45.5" height="22" rx="10" ry="10"></rect>
<text x="552.25" y="44">","</text>
</g>
<path d="M575 40h10"></path>
<path d="M585 40h10"></path>
<g>
<path d="M595 40h0"></path>
<path d="M969 40h0"></path>
<g class="non-terminal">
<path d="M595 40h0"></path>
<path d="M657.5 40h0"></path>
<rect x="595" y="29" width="62.5" height="22"></rect>
<a xlink:href="#/abap/expression/Field"><text x="626.25" y="44">Field</text>
</a>
</g>
<path d="M657.5 40h10"></path>
<path d="M667.5 40h10"></path>
<g class="terminal">
<path d="M677.5 40h0"></path>
<path d="M723 40h0"></path>
<rect x="677.5" y="29" width="45.5" height="22" rx="10" ry="10"></rect>
<text x="700.25" y="44">"="</text>
</g>
<path d="M723 40h10"></path>
<g>
<path d="M733 40h0"></path>
<path d="M969 40h0"></path>
<path d="M733 40h20"></path>
<g>
<path d="M753 40h0"></path>
<path d="M949 40h0"></path>
<g class="terminal">
<path d="M753 40h0"></path>
<path d="M824 40h0"></path>
<rect x="753" y="29" width="71" height="22" rx="10" ry="10"></rect>
<text x="788.5" y="44">!"WAt"</text>
</g>
<path d="M824 40h10"></path>
<path d="M834 40h10"></path>
<g class="non-terminal">
<path d="M844 40h0"></path>
<path d="M949 40h0"></path>
<rect x="844" y="29" width="105" height="22"></rect>
<a xlink:href="#/abap/expression/FieldChain"><text x="896.5" y="44">FieldChain</text>
</a>
</g>
</g>
<path d="M949 40h20"></path>
<path d="M733 40a10 10 0 0 1 10 10v10a10 10 0 0 0 10 10"></path>
<g class="non-terminal">
<path d="M753 70h0"></path>
<path d="M841 70h108"></path>
<rect x="753" y="59" width="88" height="22"></rect>
<a xlink:href="#/abap/expression/Constant"><text x="797" y="74">Constant</text>
</a>
</g>
<path d="M949 70a10 10 0 0 0 10 -10v-10a10 10 0 0 1 10 -10"></path>
</g>
</g>
</g>
<path d="M969 40h10"></path>
<path d="M529.5 40a10 10 0 0 0 -10 10v29a10 10 0 0 0 10 10"></path>
<g>
<path d="M529.5 89h439.5"></path>
</g>
<path d="M969 89a10 10 0 0 0 10 -10v-29a10 10 0 0 0 -10 -10"></path>
</g>
<path d="M979 40h20"></path>
</g>
<path d="M999 40h10"></path>
<g class="terminal">
<path d="M1009 40h0"></path>
<path d="M1054.5 40h0"></path>
<rect x="1009" y="29" width="45.5" height="22" rx="10" ry="10"></rect>
<text x="1031.75" y="44">")"</text>
</g>
</g>
<path d="M1054.5 40h10"></path>
<path d="M 1064.5 40 h 20 m 0 -10 v 20"></path>
</g>
</svg>
