<svg xmlns="http://www.w3.org/2000/svg" xmlns:xlink="http://www.w3.org/1999/xlink" class="railroad-diagram" width="3114" height="480" viewBox="0 0 3114 480">
<defs>
<style type="text/css"><![CDATA[
path {
stroke-width: 3;
stroke: black;
fill: rgba(0,0,0,0);
}
text {
font: bold 14px monospace;
text-anchor: middle;
}
text.diagram-text {
font-size: 12px;
}
a {
fill: blue;
}
text.diagram-arrow {
font-size: 16px;
}
text.label {
text-anchor: start;
}
text.comment {
font: italic 12px monospace;
}
rect {
stroke-width: 3;
stroke: black;
fill: #BCBCBC;
}
path.diagram-text {
stroke-width: 3;
stroke: black;
fill: #BCBCBC;
cursor: help;
}
]]></style>
</defs>
<g transform="translate(.5 .5)">
<g>
<path d="M20 38v20m0 -10h20"></path>
</g>
<g>
<path d="M40 48h0"></path>
<path d="M3074 48h0"></path>
<path d="M40 48h20"></path>
<g>
<path d="M60 48h0"></path>
<path d="M3054 48h0"></path>
<g class="terminal ">
<path d="M60 48h0"></path>
<path d="M131 48h0"></path>
<rect x="60" y="37" width="71" height="22" rx="10" ry="10"></rect>
<text x="95.5" y="52">"FROM"</text>
</g>
<path d="M131 48h10"></path>
<path d="M141 48h10"></path>
<g class="terminal ">
<path d="M151 48h0"></path>
<path d="M290 48h0"></path>
<rect x="151" y="37" width="139" height="22" rx="10" ry="10"></rect>
<text x="220.5" y="52">!"WParenLeftW"</text>
</g>
<path d="M290 48h10"></path>
<path d="M300 48h10"></path>
<g class="terminal ">
<path d="M310 48h0"></path>
<path d="M449 48h0"></path>
<rect x="310" y="37" width="139" height="22" rx="10" ry="10"></rect>
<text x="379.5" y="52">!"WParenLeftW"</text>
</g>
<path d="M449 48h10"></path>
<path d="M459 48h10"></path>
<g class="terminal ">
<path d="M469 48h0"></path>
<path d="M608 48h0"></path>
<rect x="469" y="37" width="139" height="22" rx="10" ry="10"></rect>
<text x="538.5" y="52">!"WParenLeftW"</text>
</g>
<path d="M608 48h10"></path>
<path d="M618 48h10"></path>
<g class="terminal ">
<path d="M628 48h0"></path>
<path d="M767 48h0"></path>
<rect x="628" y="37" width="139" height="22" rx="10" ry="10"></rect>
<text x="697.5" y="52">!"WParenLeftW"</text>
</g>
<path d="M767 48h10"></path>
<path d="M777 48h10"></path>
<g class="terminal ">
<path d="M787 48h0"></path>
<path d="M926 48h0"></path>
<rect x="787" y="37" width="139" height="22" rx="10" ry="10"></rect>
<text x="856.5" y="52">!"WParenLeftW"</text>
</g>
<path d="M926 48h10"></path>
<path d="M936 48h10"></path>
<g class="terminal ">
<path d="M946 48h0"></path>
<path d="M1085 48h0"></path>
<rect x="946" y="37" width="139" height="22" rx="10" ry="10"></rect>
<text x="1015.5" y="52">!"WParenLeftW"</text>
</g>
<path d="M1085 48h10"></path>
<path d="M1095 48h10"></path>
<g class="terminal ">
<path d="M1105 48h0"></path>
<path d="M1244 48h0"></path>
<rect x="1105" y="37" width="139" height="22" rx="10" ry="10"></rect>
<text x="1174.5" y="52">!"WParenLeftW"</text>
</g>
<path d="M1244 48h10"></path>
<path d="M1254 48h10"></path>
<g class="non-terminal ">
<path d="M1264 48h0"></path>
<path d="M1394.5 48h0"></path>
<rect x="1264" y="37" width="130.5" height="22"></rect>
<a xlink:href="#/abap/expression/SQLFromSource"><text x="1329.25" y="52">SQLFromSource</text>
</a>
</g>
<path d="M1394.5 48h10"></path>
<g>
<path d="M1404.5 48h0"></path>
<path d="M1741.5 48h0"></path>
<path d="M1404.5 48a10 10 0 0 0 10 -10v-8a10 10 0 0 1 10 -10"></path>
<g>
<path d="M1424.5 20h297"></path>
</g>
<path d="M1721.5 20a10 10 0 0 1 10 10v8a10 10 0 0 0 10 10"></path>
<path d="M1404.5 48h20"></path>
<g>
<path d="M1424.5 48h0"></path>
<path d="M1721.5 48h0"></path>
<path d="M1424.5 48h10"></path>
<g>
<path d="M1434.5 48h0"></path>
<path d="M1711.5 48h0"></path>
<g>
<path d="M1434.5 48h0"></path>
<path d="M1622 48h0"></path>
<path d="M1434.5 48a10 10 0 0 0 10 -10v0a10 10 0 0 1 10 -10"></path>
<g>
<path d="M1454.5 28h147.5"></path>
</g>
<path d="M1602 28a10 10 0 0 1 10 10v0a10 10 0 0 0 10 10"></path>
<path d="M1434.5 48h20"></path>
<g class="terminal ">
<path d="M1454.5 48h0"></path>
<path d="M1602 48h0"></path>
<rect x="1454.5" y="37" width="147.5" height="22" rx="10" ry="10"></rect>
<text x="1528.25" y="52">!"WParenRightW"</text>
</g>
<path d="M1602 48h20"></path>
</g>
<path d="M1622 48h10"></path>
<g class="non-terminal ">
<path d="M1632 48h0"></path>
<path d="M1711.5 48h0"></path>
<rect x="1632" y="37" width="79.5" height="22"></rect>
<a xlink:href="#/abap/expression/SQLJoin"><text x="1671.75" y="52">SQLJoin</text>
</a>
</g>
</g>
<path d="M1711.5 48h10"></path>
<path d="M1434.5 48a10 10 0 0 0 -10 10v0a10 10 0 0 0 10 10"></path>
<g>
<path d="M1434.5 68h277"></path>
</g>
<path d="M1711.5 68a10 10 0 0 0 10 -10v0a10 10 0 0 0 -10 -10"></path>
</g>
<path d="M1721.5 48h20"></path>
</g>
<g>
<path d="M1741.5 48h0"></path>
<path d="M1929 48h0"></path>
<path d="M1741.5 48a10 10 0 0 0 10 -10v0a10 10 0 0 1 10 -10"></path>
<g>
<path d="M1761.5 28h147.5"></path>
</g>
<path d="M1909 28a10 10 0 0 1 10 10v0a10 10 0 0 0 10 10"></path>
<path d="M1741.5 48h20"></path>
<g class="terminal ">
<path d="M1761.5 48h0"></path>
<path d="M1909 48h0"></path>
<rect x="1761.5" y="37" width="147.5" height="22" rx="10" ry="10"></rect>
<text x="1835.25" y="52">!"WParenRightW"</text>
</g>
<path d="M1909 48h20"></path>
</g>
<g>
<path d="M1929 48h0"></path>
<path d="M2116.5 48h0"></path>
<path d="M1929 48a10 10 0 0 0 10 -10v0a10 10 0 0 1 10 -10"></path>
<g>
<path d="M1949 28h147.5"></path>
</g>
<path d="M2096.5 28a10 10 0 0 1 10 10v0a10 10 0 0 0 10 10"></path>
<path d="M1929 48h20"></path>
<g class="terminal ">
<path d="M1949 48h0"></path>
<path d="M2096.5 48h0"></path>
<rect x="1949" y="37" width="147.5" height="22" rx="10" ry="10"></rect>
<text x="2022.75" y="52">!"WParenRightW"</text>
</g>
<path d="M2096.5 48h20"></path>
</g>
<g>
<path d="M2116.5 48h0"></path>
<path d="M2304 48h0"></path>
<path d="M2116.5 48a10 10 0 0 0 10 -10v0a10 10 0 0 1 10 -10"></path>
<g>
<path d="M2136.5 28h147.5"></path>
</g>
<path d="M2284 28a10 10 0 0 1 10 10v0a10 10 0 0 0 10 10"></path>
<path d="M2116.5 48h20"></path>
<g class="terminal ">
<path d="M2136.5 48h0"></path>
<path d="M2284 48h0"></path>
<rect x="2136.5" y="37" width="147.5" height="22" rx="10" ry="10"></rect>
<text x="2210.25" y="52">!"WParenRightW"</text>
</g>
<path d="M2284 48h20"></path>
</g>
<g>
<path d="M2304 48h0"></path>
<path d="M2491.5 48h0"></path>
<path d="M2304 48a10 10 0 0 0 10 -10v0a10 10 0 0 1 10 -10"></path>
<g>
<path d="M2324 28h147.5"></path>
</g>
<path d="M2471.5 28a10 10 0 0 1 10 10v0a10 10 0 0 0 10 10"></path>
<path d="M2304 48h20"></path>
<g class="terminal ">
<path d="M2324 48h0"></path>
<path d="M2471.5 48h0"></path>
<rect x="2324" y="37" width="147.5" height="22" rx="10" ry="10"></rect>
<text x="2397.75" y="52">!"WParenRightW"</text>
</g>
<path d="M2471.5 48h20"></path>
</g>
<g>
<path d="M2491.5 48h0"></path>
<path d="M2679 48h0"></path>
<path d="M2491.5 48a10 10 0 0 0 10 -10v0a10 10 0 0 1 10 -10"></path>
<g>
<path d="M2511.5 28h147.5"></path>
</g>
<path d="M2659 28a10 10 0 0 1 10 10v0a10 10 0 0 0 10 10"></path>
<path d="M2491.5 48h20"></path>
<g class="terminal ">
<path d="M2511.5 48h0"></path>
<path d="M2659 48h0"></path>
<rect x="2511.5" y="37" width="147.5" height="22" rx="10" ry="10"></rect>
<text x="2585.25" y="52">!"WParenRightW"</text>
</g>
<path d="M2659 48h20"></path>
</g>
<g>
<path d="M2679 48h0"></path>
<path d="M2866.5 48h0"></path>
<path d="M2679 48a10 10 0 0 0 10 -10v0a10 10 0 0 1 10 -10"></path>
<g>
<path d="M2699 28h147.5"></path>
</g>
<path d="M2846.5 28a10 10 0 0 1 10 10v0a10 10 0 0 0 10 10"></path>
<path d="M2679 48h20"></path>
<g class="terminal ">
<path d="M2699 48h0"></path>
<path d="M2846.5 48h0"></path>
<rect x="2699" y="37" width="147.5" height="22" rx="10" ry="10"></rect>
<text x="2772.75" y="52">!"WParenRightW"</text>
</g>
<path d="M2846.5 48h20"></path>
</g>
<g>
<path d="M2866.5 48h0"></path>
<path d="M3054 48h0"></path>
<path d="M2866.5 48a10 10 0 0 0 10 -10v0a10 10 0 0 1 10 -10"></path>
<g>
<path d="M2886.5 28h147.5"></path>
</g>
<path d="M3034 28a10 10 0 0 1 10 10v0a10 10 0 0 0 10 10"></path>
<path d="M2866.5 48h20"></path>
<g class="terminal ">
<path d="M2886.5 48h0"></path>
<path d="M3034 48h0"></path>
<rect x="2886.5" y="37" width="147.5" height="22" rx="10" ry="10"></rect>
<text x="2960.25" y="52">!"WParenRightW"</text>
</g>
<path d="M3034 48h20"></path>
</g>
</g>
<path d="M3054 48h20"></path>
<path d="M40 48a10 10 0 0 1 10 10v36a10 10 0 0 0 10 10"></path>
<g>
<path d="M60 104h173.25"></path>
<path d="M2880.75 104h173.25"></path>
<g class="terminal ">
<path d="M233.25 104h0"></path>
<path d="M304.25 104h0"></path>
<rect x="233.25" y="93" width="71" height="22" rx="10" ry="10"></rect>
<text x="268.75" y="108">"FROM"</text>
</g>
<path d="M304.25 104h10"></path>
<path d="M314.25 104h10"></path>
<g class="terminal ">
<path d="M324.25 104h0"></path>
<path d="M463.25 104h0"></path>
<rect x="324.25" y="93" width="139" height="22" rx="10" ry="10"></rect>
<text x="393.75" y="108">!"WParenLeftW"</text>
</g>
<path d="M463.25 104h10"></path>
<path d="M473.25 104h10"></path>
<g class="terminal ">
<path d="M483.25 104h0"></path>
<path d="M622.25 104h0"></path>
<rect x="483.25" y="93" width="139" height="22" rx="10" ry="10"></rect>
<text x="552.75" y="108">!"WParenLeftW"</text>
</g>
<path d="M622.25 104h10"></path>
<path d="M632.25 104h10"></path>
<g class="terminal ">
<path d="M642.25 104h0"></path>
<path d="M781.25 104h0"></path>
<rect x="642.25" y="93" width="139" height="22" rx="10" ry="10"></rect>
<text x="711.75" y="108">!"WParenLeftW"</text>
</g>
<path d="M781.25 104h10"></path>
<path d="M791.25 104h10"></path>
<g class="terminal ">
<path d="M801.25 104h0"></path>
<path d="M940.25 104h0"></path>
<rect x="801.25" y="93" width="139" height="22" rx="10" ry="10"></rect>
<text x="870.75" y="108">!"WParenLeftW"</text>
</g>
<path d="M940.25 104h10"></path>
<path d="M950.25 104h10"></path>
<g class="terminal ">
<path d="M960.25 104h0"></path>
<path d="M1099.25 104h0"></path>
<rect x="960.25" y="93" width="139" height="22" rx="10" ry="10"></rect>
<text x="1029.75" y="108">!"WParenLeftW"</text>
</g>
<path d="M1099.25 104h10"></path>
<path d="M1109.25 104h10"></path>
<g class="terminal ">
<path d="M1119.25 104h0"></path>
<path d="M1258.25 104h0"></path>
<rect x="1119.25" y="93" width="139" height="22" rx="10" ry="10"></rect>
<text x="1188.75" y="108">!"WParenLeftW"</text>
</g>
<path d="M1258.25 104h10"></path>
<path d="M1268.25 104h10"></path>
<g class="non-terminal ">
<path d="M1278.25 104h0"></path>
<path d="M1408.75 104h0"></path>
<rect x="1278.25" y="93" width="130.5" height="22"></rect>
<a xlink:href="#/abap/expression/SQLFromSource"><text x="1343.5" y="108">SQLFromSource</text>
</a>
</g>
<path d="M1408.75 104h10"></path>
<g>
<path d="M1418.75 104h0"></path>
<path d="M1755.75 104h0"></path>
<path d="M1418.75 104a10 10 0 0 0 10 -10v-8a10 10 0 0 1 10 -10"></path>
<g>
<path d="M1438.75 76h297"></path>
</g>
<path d="M1735.75 76a10 10 0 0 1 10 10v8a10 10 0 0 0 10 10"></path>
<path d="M1418.75 104h20"></path>
<g>
<path d="M1438.75 104h0"></path>
<path d="M1735.75 104h0"></path>
<path d="M1438.75 104h10"></path>
<g>
<path d="M1448.75 104h0"></path>
<path d="M1725.75 104h0"></path>
<g>
<path d="M1448.75 104h0"></path>
<path d="M1636.25 104h0"></path>
<path d="M1448.75 104a10 10 0 0 0 10 -10v0a10 10 0 0 1 10 -10"></path>
<g>
<path d="M1468.75 84h147.5"></path>
</g>
<path d="M1616.25 84a10 10 0 0 1 10 10v0a10 10 0 0 0 10 10"></path>
<path d="M1448.75 104h20"></path>
<g class="terminal ">
<path d="M1468.75 104h0"></path>
<path d="M1616.25 104h0"></path>
<rect x="1468.75" y="93" width="147.5" height="22" rx="10" ry="10"></rect>
<text x="1542.5" y="108">!"WParenRightW"</text>
</g>
<path d="M1616.25 104h20"></path>
</g>
<path d="M1636.25 104h10"></path>
<g class="non-terminal ">
<path d="M1646.25 104h0"></path>
<path d="M1725.75 104h0"></path>
<rect x="1646.25" y="93" width="79.5" height="22"></rect>
<a xlink:href="#/abap/expression/SQLJoin"><text x="1686" y="108">SQLJoin</text>
</a>
</g>
</g>
<path d="M1725.75 104h10"></path>
<path d="M1448.75 104a10 10 0 0 0 -10 10v0a10 10 0 0 0 10 10"></path>
<g>
<path d="M1448.75 124h277"></path>
</g>
<path d="M1725.75 124a10 10 0 0 0 10 -10v0a10 10 0 0 0 -10 -10"></path>
</g>
<path d="M1735.75 104h20"></path>
</g>
<g>
<path d="M1755.75 104h0"></path>
<path d="M1943.25 104h0"></path>
<path d="M1755.75 104a10 10 0 0 0 10 -10v0a10 10 0 0 1 10 -10"></path>
<g>
<path d="M1775.75 84h147.5"></path>
</g>
<path d="M1923.25 84a10 10 0 0 1 10 10v0a10 10 0 0 0 10 10"></path>
<path d="M1755.75 104h20"></path>
<g class="terminal ">
<path d="M1775.75 104h0"></path>
<path d="M1923.25 104h0"></path>
<rect x="1775.75" y="93" width="147.5" height="22" rx="10" ry="10"></rect>
<text x="1849.5" y="108">!"WParenRightW"</text>
</g>
<path d="M1923.25 104h20"></path>
</g>
<g>
<path d="M1943.25 104h0"></path>
<path d="M2130.75 104h0"></path>
<path d="M1943.25 104a10 10 0 0 0 10 -10v0a10 10 0 0 1 10 -10"></path>
<g>
<path d="M1963.25 84h147.5"></path>
</g>
<path d="M2110.75 84a10 10 0 0 1 10 10v0a10 10 0 0 0 10 10"></path>
<path d="M1943.25 104h20"></path>
<g class="terminal ">
<path d="M1963.25 104h0"></path>
<path d="M2110.75 104h0"></path>
<rect x="1963.25" y="93" width="147.5" height="22" rx="10" ry="10"></rect>
<text x="2037" y="108">!"WParenRightW"</text>
</g>
<path d="M2110.75 104h20"></path>
</g>
<g>
<path d="M2130.75 104h0"></path>
<path d="M2318.25 104h0"></path>
<path d="M2130.75 104a10 10 0 0 0 10 -10v0a10 10 0 0 1 10 -10"></path>
<g>
<path d="M2150.75 84h147.5"></path>
</g>
<path d="M2298.25 84a10 10 0 0 1 10 10v0a10 10 0 0 0 10 10"></path>
<path d="M2130.75 104h20"></path>
<g class="terminal ">
<path d="M2150.75 104h0"></path>
<path d="M2298.25 104h0"></path>
<rect x="2150.75" y="93" width="147.5" height="22" rx="10" ry="10"></rect>
<text x="2224.5" y="108">!"WParenRightW"</text>
</g>
<path d="M2298.25 104h20"></path>
</g>
<g>
<path d="M2318.25 104h0"></path>
<path d="M2505.75 104h0"></path>
<path d="M2318.25 104a10 10 0 0 0 10 -10v0a10 10 0 0 1 10 -10"></path>
<g>
<path d="M2338.25 84h147.5"></path>
</g>
<path d="M2485.75 84a10 10 0 0 1 10 10v0a10 10 0 0 0 10 10"></path>
<path d="M2318.25 104h20"></path>
<g class="terminal ">
<path d="M2338.25 104h0"></path>
<path d="M2485.75 104h0"></path>
<rect x="2338.25" y="93" width="147.5" height="22" rx="10" ry="10"></rect>
<text x="2412" y="108">!"WParenRightW"</text>
</g>
<path d="M2485.75 104h20"></path>
</g>
<g>
<path d="M2505.75 104h0"></path>
<path d="M2693.25 104h0"></path>
<path d="M2505.75 104a10 10 0 0 0 10 -10v0a10 10 0 0 1 10 -10"></path>
<g>
<path d="M2525.75 84h147.5"></path>
</g>
<path d="M2673.25 84a10 10 0 0 1 10 10v0a10 10 0 0 0 10 10"></path>
<path d="M2505.75 104h20"></path>
<g class="terminal ">
<path d="M2525.75 104h0"></path>
<path d="M2673.25 104h0"></path>
<rect x="2525.75" y="93" width="147.5" height="22" rx="10" ry="10"></rect>
<text x="2599.5" y="108">!"WParenRightW"</text>
</g>
<path d="M2673.25 104h20"></path>
</g>
<g>
<path d="M2693.25 104h0"></path>
<path d="M2880.75 104h0"></path>
<path d="M2693.25 104a10 10 0 0 0 10 -10v0a10 10 0 0 1 10 -10"></path>
<g>
<path d="M2713.25 84h147.5"></path>
</g>
<path d="M2860.75 84a10 10 0 0 1 10 10v0a10 10 0 0 0 10 10"></path>
<path d="M2693.25 104h20"></path>
<g class="terminal ">
<path d="M2713.25 104h0"></path>
<path d="M2860.75 104h0"></path>
<rect x="2713.25" y="93" width="147.5" height="22" rx="10" ry="10"></rect>
<text x="2787" y="108">!"WParenRightW"</text>
</g>
<path d="M2860.75 104h20"></path>
</g>
</g>
<path d="M3054 104a10 10 0 0 0 10 -10v-36a10 10 0 0 1 10 -10"></path>
<path d="M40 48a10 10 0 0 1 10 10v92a10 10 0 0 0 10 10"></path>
<g>
<path d="M60 160h346.5"></path>
<path d="M2707.5 160h346.5"></path>
<g class="terminal ">
<path d="M406.5 160h0"></path>
<path d="M477.5 160h0"></path>
<rect x="406.5" y="149" width="71" height="22" rx="10" ry="10"></rect>
<text x="442" y="164">"FROM"</text>
</g>
<path d="M477.5 160h10"></path>
<path d="M487.5 160h10"></path>
<g class="terminal ">
<path d="M497.5 160h0"></path>
<path d="M636.5 160h0"></path>
<rect x="497.5" y="149" width="139" height="22" rx="10" ry="10"></rect>
<text x="567" y="164">!"WParenLeftW"</text>
</g>
<path d="M636.5 160h10"></path>
<path d="M646.5 160h10"></path>
<g class="terminal ">
<path d="M656.5 160h0"></path>
<path d="M795.5 160h0"></path>
<rect x="656.5" y="149" width="139" height="22" rx="10" ry="10"></rect>
<text x="726" y="164">!"WParenLeftW"</text>
</g>
<path d="M795.5 160h10"></path>
<path d="M805.5 160h10"></path>
<g class="terminal ">
<path d="M815.5 160h0"></path>
<path d="M954.5 160h0"></path>
<rect x="815.5" y="149" width="139" height="22" rx="10" ry="10"></rect>
<text x="885" y="164">!"WParenLeftW"</text>
</g>
<path d="M954.5 160h10"></path>
<path d="M964.5 160h10"></path>
<g class="terminal ">
<path d="M974.5 160h0"></path>
<path d="M1113.5 160h0"></path>
<rect x="974.5" y="149" width="139" height="22" rx="10" ry="10"></rect>
<text x="1044" y="164">!"WParenLeftW"</text>
</g>
<path d="M1113.5 160h10"></path>
<path d="M1123.5 160h10"></path>
<g class="terminal ">
<path d="M1133.5 160h0"></path>
<path d="M1272.5 160h0"></path>
<rect x="1133.5" y="149" width="139" height="22" rx="10" ry="10"></rect>
<text x="1203" y="164">!"WParenLeftW"</text>
</g>
<path d="M1272.5 160h10"></path>
<path d="M1282.5 160h10"></path>
<g class="non-terminal ">
<path d="M1292.5 160h0"></path>
<path d="M1423 160h0"></path>
<rect x="1292.5" y="149" width="130.5" height="22"></rect>
<a xlink:href="#/abap/expression/SQLFromSource"><text x="1357.75" y="164">SQLFromSource</text>
</a>
</g>
<path d="M1423 160h10"></path>
<g>
<path d="M1433 160h0"></path>
<path d="M1770 160h0"></path>
<path d="M1433 160a10 10 0 0 0 10 -10v-8a10 10 0 0 1 10 -10"></path>
<g>
<path d="M1453 132h297"></path>
</g>
<path d="M1750 132a10 10 0 0 1 10 10v8a10 10 0 0 0 10 10"></path>
<path d="M1433 160h20"></path>
<g>
<path d="M1453 160h0"></path>
<path d="M1750 160h0"></path>
<path d="M1453 160h10"></path>
<g>
<path d="M1463 160h0"></path>
<path d="M1740 160h0"></path>
<g>
<path d="M1463 160h0"></path>
<path d="M1650.5 160h0"></path>
<path d="M1463 160a10 10 0 0 0 10 -10v0a10 10 0 0 1 10 -10"></path>
<g>
<path d="M1483 140h147.5"></path>
</g>
<path d="M1630.5 140a10 10 0 0 1 10 10v0a10 10 0 0 0 10 10"></path>
<path d="M1463 160h20"></path>
<g class="terminal ">
<path d="M1483 160h0"></path>
<path d="M1630.5 160h0"></path>
<rect x="1483" y="149" width="147.5" height="22" rx="10" ry="10"></rect>
<text x="1556.75" y="164">!"WParenRightW"</text>
</g>
<path d="M1630.5 160h20"></path>
</g>
<path d="M1650.5 160h10"></path>
<g class="non-terminal ">
<path d="M1660.5 160h0"></path>
<path d="M1740 160h0"></path>
<rect x="1660.5" y="149" width="79.5" height="22"></rect>
<a xlink:href="#/abap/expression/SQLJoin"><text x="1700.25" y="164">SQLJoin</text>
</a>
</g>
</g>
<path d="M1740 160h10"></path>
<path d="M1463 160a10 10 0 0 0 -10 10v0a10 10 0 0 0 10 10"></path>
<g>
<path d="M1463 180h277"></path>
</g>
<path d="M1740 180a10 10 0 0 0 10 -10v0a10 10 0 0 0 -10 -10"></path>
</g>
<path d="M1750 160h20"></path>
</g>
<g>
<path d="M1770 160h0"></path>
<path d="M1957.5 160h0"></path>
<path d="M1770 160a10 10 0 0 0 10 -10v0a10 10 0 0 1 10 -10"></path>
<g>
<path d="M1790 140h147.5"></path>
</g>
<path d="M1937.5 140a10 10 0 0 1 10 10v0a10 10 0 0 0 10 10"></path>
<path d="M1770 160h20"></path>
<g class="terminal ">
<path d="M1790 160h0"></path>
<path d="M1937.5 160h0"></path>
<rect x="1790" y="149" width="147.5" height="22" rx="10" ry="10"></rect>
<text x="1863.75" y="164">!"WParenRightW"</text>
</g>
<path d="M1937.5 160h20"></path>
</g>
<g>
<path d="M1957.5 160h0"></path>
<path d="M2145 160h0"></path>
<path d="M1957.5 160a10 10 0 0 0 10 -10v0a10 10 0 0 1 10 -10"></path>
<g>
<path d="M1977.5 140h147.5"></path>
</g>
<path d="M2125 140a10 10 0 0 1 10 10v0a10 10 0 0 0 10 10"></path>
<path d="M1957.5 160h20"></path>
<g class="terminal ">
<path d="M1977.5 160h0"></path>
<path d="M2125 160h0"></path>
<rect x="1977.5" y="149" width="147.5" height="22" rx="10" ry="10"></rect>
<text x="2051.25" y="164">!"WParenRightW"</text>
</g>
<path d="M2125 160h20"></path>
</g>
<g>
<path d="M2145 160h0"></path>
<path d="M2332.5 160h0"></path>
<path d="M2145 160a10 10 0 0 0 10 -10v0a10 10 0 0 1 10 -10"></path>
<g>
<path d="M2165 140h147.5"></path>
</g>
<path d="M2312.5 140a10 10 0 0 1 10 10v0a10 10 0 0 0 10 10"></path>
<path d="M2145 160h20"></path>
<g class="terminal ">
<path d="M2165 160h0"></path>
<path d="M2312.5 160h0"></path>
<rect x="2165" y="149" width="147.5" height="22" rx="10" ry="10"></rect>
<text x="2238.75" y="164">!"WParenRightW"</text>
</g>
<path d="M2312.5 160h20"></path>
</g>
<g>
<path d="M2332.5 160h0"></path>
<path d="M2520 160h0"></path>
<path d="M2332.5 160a10 10 0 0 0 10 -10v0a10 10 0 0 1 10 -10"></path>
<g>
<path d="M2352.5 140h147.5"></path>
</g>
<path d="M2500 140a10 10 0 0 1 10 10v0a10 10 0 0 0 10 10"></path>
<path d="M2332.5 160h20"></path>
<g class="terminal ">
<path d="M2352.5 160h0"></path>
<path d="M2500 160h0"></path>
<rect x="2352.5" y="149" width="147.5" height="22" rx="10" ry="10"></rect>
<text x="2426.25" y="164">!"WParenRightW"</text>
</g>
<path d="M2500 160h20"></path>
</g>
<g>
<path d="M2520 160h0"></path>
<path d="M2707.5 160h0"></path>
<path d="M2520 160a10 10 0 0 0 10 -10v0a10 10 0 0 1 10 -10"></path>
<g>
<path d="M2540 140h147.5"></path>
</g>
<path d="M2687.5 140a10 10 0 0 1 10 10v0a10 10 0 0 0 10 10"></path>
<path d="M2520 160h20"></path>
<g class="terminal ">
<path d="M2540 160h0"></path>
<path d="M2687.5 160h0"></path>
<rect x="2540" y="149" width="147.5" height="22" rx="10" ry="10"></rect>
<text x="2613.75" y="164">!"WParenRightW"</text>
</g>
<path d="M2687.5 160h20"></path>
</g>
</g>
<path d="M3054 160a10 10 0 0 0 10 -10v-92a10 10 0 0 1 10 -10"></path>
<path d="M40 48a10 10 0 0 1 10 10v148a10 10 0 0 0 10 10"></path>
<g>
<path d="M60 216h519.75"></path>
<path d="M2534.25 216h519.75"></path>
<g class="terminal ">
<path d="M579.75 216h0"></path>
<path d="M650.75 216h0"></path>
<rect x="579.75" y="205" width="71" height="22" rx="10" ry="10"></rect>
<text x="615.25" y="220">"FROM"</text>
</g>
<path d="M650.75 216h10"></path>
<path d="M660.75 216h10"></path>
<g class="terminal ">
<path d="M670.75 216h0"></path>
<path d="M809.75 216h0"></path>
<rect x="670.75" y="205" width="139" height="22" rx="10" ry="10"></rect>
<text x="740.25" y="220">!"WParenLeftW"</text>
</g>
<path d="M809.75 216h10"></path>
<path d="M819.75 216h10"></path>
<g class="terminal ">
<path d="M829.75 216h0"></path>
<path d="M968.75 216h0"></path>
<rect x="829.75" y="205" width="139" height="22" rx="10" ry="10"></rect>
<text x="899.25" y="220">!"WParenLeftW"</text>
</g>
<path d="M968.75 216h10"></path>
<path d="M978.75 216h10"></path>
<g class="terminal ">
<path d="M988.75 216h0"></path>
<path d="M1127.75 216h0"></path>
<rect x="988.75" y="205" width="139" height="22" rx="10" ry="10"></rect>
<text x="1058.25" y="220">!"WParenLeftW"</text>
</g>
<path d="M1127.75 216h10"></path>
<path d="M1137.75 216h10"></path>
<g class="terminal ">
<path d="M1147.75 216h0"></path>
<path d="M1286.75 216h0"></path>
<rect x="1147.75" y="205" width="139" height="22" rx="10" ry="10"></rect>
<text x="1217.25" y="220">!"WParenLeftW"</text>
</g>
<path d="M1286.75 216h10"></path>
<path d="M1296.75 216h10"></path>
<g class="non-terminal ">
<path d="M1306.75 216h0"></path>
<path d="M1437.25 216h0"></path>
<rect x="1306.75" y="205" width="130.5" height="22"></rect>
<a xlink:href="#/abap/expression/SQLFromSource"><text x="1372" y="220">SQLFromSource</text>
</a>
</g>
<path d="M1437.25 216h10"></path>
<g>
<path d="M1447.25 216h0"></path>
<path d="M1784.25 216h0"></path>
<path d="M1447.25 216a10 10 0 0 0 10 -10v-8a10 10 0 0 1 10 -10"></path>
<g>
<path d="M1467.25 188h297"></path>
</g>
<path d="M1764.25 188a10 10 0 0 1 10 10v8a10 10 0 0 0 10 10"></path>
<path d="M1447.25 216h20"></path>
<g>
<path d="M1467.25 216h0"></path>
<path d="M1764.25 216h0"></path>
<path d="M1467.25 216h10"></path>
<g>
<path d="M1477.25 216h0"></path>
<path d="M1754.25 216h0"></path>
<g>
<path d="M1477.25 216h0"></path>
<path d="M1664.75 216h0"></path>
<path d="M1477.25 216a10 10 0 0 0 10 -10v0a10 10 0 0 1 10 -10"></path>
<g>
<path d="M1497.25 196h147.5"></path>
</g>
<path d="M1644.75 196a10 10 0 0 1 10 10v0a10 10 0 0 0 10 10"></path>
<path d="M1477.25 216h20"></path>
<g class="terminal ">
<path d="M1497.25 216h0"></path>
<path d="M1644.75 216h0"></path>
<rect x="1497.25" y="205" width="147.5" height="22" rx="10" ry="10"></rect>
<text x="1571" y="220">!"WParenRightW"</text>
</g>
<path d="M1644.75 216h20"></path>
</g>
<path d="M1664.75 216h10"></path>
<g class="non-terminal ">
<path d="M1674.75 216h0"></path>
<path d="M1754.25 216h0"></path>
<rect x="1674.75" y="205" width="79.5" height="22"></rect>
<a xlink:href="#/abap/expression/SQLJoin"><text x="1714.5" y="220">SQLJoin</text>
</a>
</g>
</g>
<path d="M1754.25 216h10"></path>
<path d="M1477.25 216a10 10 0 0 0 -10 10v0a10 10 0 0 0 10 10"></path>
<g>
<path d="M1477.25 236h277"></path>
</g>
<path d="M1754.25 236a10 10 0 0 0 10 -10v0a10 10 0 0 0 -10 -10"></path>
</g>
<path d="M1764.25 216h20"></path>
</g>
<g>
<path d="M1784.25 216h0"></path>
<path d="M1971.75 216h0"></path>
<path d="M1784.25 216a10 10 0 0 0 10 -10v0a10 10 0 0 1 10 -10"></path>
<g>
<path d="M1804.25 196h147.5"></path>
</g>
<path d="M1951.75 196a10 10 0 0 1 10 10v0a10 10 0 0 0 10 10"></path>
<path d="M1784.25 216h20"></path>
<g class="terminal ">
<path d="M1804.25 216h0"></path>
<path d="M1951.75 216h0"></path>
<rect x="1804.25" y="205" width="147.5" height="22" rx="10" ry="10"></rect>
<text x="1878" y="220">!"WParenRightW"</text>
</g>
<path d="M1951.75 216h20"></path>
</g>
<g>
<path d="M1971.75 216h0"></path>
<path d="M2159.25 216h0"></path>
<path d="M1971.75 216a10 10 0 0 0 10 -10v0a10 10 0 0 1 10 -10"></path>
<g>
<path d="M1991.75 196h147.5"></path>
</g>
<path d="M2139.25 196a10 10 0 0 1 10 10v0a10 10 0 0 0 10 10"></path>
<path d="M1971.75 216h20"></path>
<g class="terminal ">
<path d="M1991.75 216h0"></path>
<path d="M2139.25 216h0"></path>
<rect x="1991.75" y="205" width="147.5" height="22" rx="10" ry="10"></rect>
<text x="2065.5" y="220">!"WParenRightW"</text>
</g>
<path d="M2139.25 216h20"></path>
</g>
<g>
<path d="M2159.25 216h0"></path>
<path d="M2346.75 216h0"></path>
<path d="M2159.25 216a10 10 0 0 0 10 -10v0a10 10 0 0 1 10 -10"></path>
<g>
<path d="M2179.25 196h147.5"></path>
</g>
<path d="M2326.75 196a10 10 0 0 1 10 10v0a10 10 0 0 0 10 10"></path>
<path d="M2159.25 216h20"></path>
<g class="terminal ">
<path d="M2179.25 216h0"></path>
<path d="M2326.75 216h0"></path>
<rect x="2179.25" y="205" width="147.5" height="22" rx="10" ry="10"></rect>
<text x="2253" y="220">!"WParenRightW"</text>
</g>
<path d="M2326.75 216h20"></path>
</g>
<g>
<path d="M2346.75 216h0"></path>
<path d="M2534.25 216h0"></path>
<path d="M2346.75 216a10 10 0 0 0 10 -10v0a10 10 0 0 1 10 -10"></path>
<g>
<path d="M2366.75 196h147.5"></path>
</g>
<path d="M2514.25 196a10 10 0 0 1 10 10v0a10 10 0 0 0 10 10"></path>
<path d="M2346.75 216h20"></path>
<g class="terminal ">
<path d="M2366.75 216h0"></path>
<path d="M2514.25 216h0"></path>
<rect x="2366.75" y="205" width="147.5" height="22" rx="10" ry="10"></rect>
<text x="2440.5" y="220">!"WParenRightW"</text>
</g>
<path d="M2514.25 216h20"></path>
</g>
</g>
<path d="M3054 216a10 10 0 0 0 10 -10v-148a10 10 0 0 1 10 -10"></path>
<path d="M40 48a10 10 0 0 1 10 10v204a10 10 0 0 0 10 10"></path>
<g>
<path d="M60 272h693"></path>
<path d="M2361 272h693"></path>
<g class="terminal ">
<path d="M753 272h0"></path>
<path d="M824 272h0"></path>
<rect x="753" y="261" width="71" height="22" rx="10" ry="10"></rect>
<text x="788.5" y="276">"FROM"</text>
</g>
<path d="M824 272h10"></path>
<path d="M834 272h10"></path>
<g class="terminal ">
<path d="M844 272h0"></path>
<path d="M983 272h0"></path>
<rect x="844" y="261" width="139" height="22" rx="10" ry="10"></rect>
<text x="913.5" y="276">!"WParenLeftW"</text>
</g>
<path d="M983 272h10"></path>
<path d="M993 272h10"></path>
<g class="terminal ">
<path d="M1003 272h0"></path>
<path d="M1142 272h0"></path>
<rect x="1003" y="261" width="139" height="22" rx="10" ry="10"></rect>
<text x="1072.5" y="276">!"WParenLeftW"</text>
</g>
<path d="M1142 272h10"></path>
<path d="M1152 272h10"></path>
<g class="terminal ">
<path d="M1162 272h0"></path>
<path d="M1301 272h0"></path>
<rect x="1162" y="261" width="139" height="22" rx="10" ry="10"></rect>
<text x="1231.5" y="276">!"WParenLeftW"</text>
</g>
<path d="M1301 272h10"></path>
<path d="M1311 272h10"></path>
<g class="non-terminal ">
<path d="M1321 272h0"></path>
<path d="M1451.5 272h0"></path>
<rect x="1321" y="261" width="130.5" height="22"></rect>
<a xlink:href="#/abap/expression/SQLFromSource"><text x="1386.25" y="276">SQLFromSource</text>
</a>
</g>
<path d="M1451.5 272h10"></path>
<g>
<path d="M1461.5 272h0"></path>
<path d="M1798.5 272h0"></path>
<path d="M1461.5 272a10 10 0 0 0 10 -10v-8a10 10 0 0 1 10 -10"></path>
<g>
<path d="M1481.5 244h297"></path>
</g>
<path d="M1778.5 244a10 10 0 0 1 10 10v8a10 10 0 0 0 10 10"></path>
<path d="M1461.5 272h20"></path>
<g>
<path d="M1481.5 272h0"></path>
<path d="M1778.5 272h0"></path>
<path d="M1481.5 272h10"></path>
<g>
<path d="M1491.5 272h0"></path>
<path d="M1768.5 272h0"></path>
<g>
<path d="M1491.5 272h0"></path>
<path d="M1679 272h0"></path>
<path d="M1491.5 272a10 10 0 0 0 10 -10v0a10 10 0 0 1 10 -10"></path>
<g>
<path d="M1511.5 252h147.5"></path>
</g>
<path d="M1659 252a10 10 0 0 1 10 10v0a10 10 0 0 0 10 10"></path>
<path d="M1491.5 272h20"></path>
<g class="terminal ">
<path d="M1511.5 272h0"></path>
<path d="M1659 272h0"></path>
<rect x="1511.5" y="261" width="147.5" height="22" rx="10" ry="10"></rect>
<text x="1585.25" y="276">!"WParenRightW"</text>
</g>
<path d="M1659 272h20"></path>
</g>
<path d="M1679 272h10"></path>
<g class="non-terminal ">
<path d="M1689 272h0"></path>
<path d="M1768.5 272h0"></path>
<rect x="1689" y="261" width="79.5" height="22"></rect>
<a xlink:href="#/abap/expression/SQLJoin"><text x="1728.75" y="276">SQLJoin</text>
</a>
</g>
</g>
<path d="M1768.5 272h10"></path>
<path d="M1491.5 272a10 10 0 0 0 -10 10v0a10 10 0 0 0 10 10"></path>
<g>
<path d="M1491.5 292h277"></path>
</g>
<path d="M1768.5 292a10 10 0 0 0 10 -10v0a10 10 0 0 0 -10 -10"></path>
</g>
<path d="M1778.5 272h20"></path>
</g>
<g>
<path d="M1798.5 272h0"></path>
<path d="M1986 272h0"></path>
<path d="M1798.5 272a10 10 0 0 0 10 -10v0a10 10 0 0 1 10 -10"></path>
<g>
<path d="M1818.5 252h147.5"></path>
</g>
<path d="M1966 252a10 10 0 0 1 10 10v0a10 10 0 0 0 10 10"></path>
<path d="M1798.5 272h20"></path>
<g class="terminal ">
<path d="M1818.5 272h0"></path>
<path d="M1966 272h0"></path>
<rect x="1818.5" y="261" width="147.5" height="22" rx="10" ry="10"></rect>
<text x="1892.25" y="276">!"WParenRightW"</text>
</g>
<path d="M1966 272h20"></path>
</g>
<g>
<path d="M1986 272h0"></path>
<path d="M2173.5 272h0"></path>
<path d="M1986 272a10 10 0 0 0 10 -10v0a10 10 0 0 1 10 -10"></path>
<g>
<path d="M2006 252h147.5"></path>
</g>
<path d="M2153.5 252a10 10 0 0 1 10 10v0a10 10 0 0 0 10 10"></path>
<path d="M1986 272h20"></path>
<g class="terminal ">
<path d="M2006 272h0"></path>
<path d="M2153.5 272h0"></path>
<rect x="2006" y="261" width="147.5" height="22" rx="10" ry="10"></rect>
<text x="2079.75" y="276">!"WParenRightW"</text>
</g>
<path d="M2153.5 272h20"></path>
</g>
<g>
<path d="M2173.5 272h0"></path>
<path d="M2361 272h0"></path>
<path d="M2173.5 272a10 10 0 0 0 10 -10v0a10 10 0 0 1 10 -10"></path>
<g>
<path d="M2193.5 252h147.5"></path>
</g>
<path d="M2341 252a10 10 0 0 1 10 10v0a10 10 0 0 0 10 10"></path>
<path d="M2173.5 272h20"></path>
<g class="terminal ">
<path d="M2193.5 272h0"></path>
<path d="M2341 272h0"></path>
<rect x="2193.5" y="261" width="147.5" height="22" rx="10" ry="10"></rect>
<text x="2267.25" y="276">!"WParenRightW"</text>
</g>
<path d="M2341 272h20"></path>
</g>
</g>
<path d="M3054 272a10 10 0 0 0 10 -10v-204a10 10 0 0 1 10 -10"></path>
<path d="M40 48a10 10 0 0 1 10 10v260a10 10 0 0 0 10 10"></path>
<g>
<path d="M60 328h866.25"></path>
<path d="M2187.75 328h866.25"></path>
<g class="terminal ">
<path d="M926.25 328h0"></path>
<path d="M997.25 328h0"></path>
<rect x="926.25" y="317" width="71" height="22" rx="10" ry="10"></rect>
<text x="961.75" y="332">"FROM"</text>
</g>
<path d="M997.25 328h10"></path>
<path d="M1007.25 328h10"></path>
<g class="terminal ">
<path d="M1017.25 328h0"></path>
<path d="M1156.25 328h0"></path>
<rect x="1017.25" y="317" width="139" height="22" rx="10" ry="10"></rect>
<text x="1086.75" y="332">!"WParenLeftW"</text>
</g>
<path d="M1156.25 328h10"></path>
<path d="M1166.25 328h10"></path>
<g class="terminal ">
<path d="M1176.25 328h0"></path>
<path d="M1315.25 328h0"></path>
<rect x="1176.25" y="317" width="139" height="22" rx="10" ry="10"></rect>
<text x="1245.75" y="332">!"WParenLeftW"</text>
</g>
<path d="M1315.25 328h10"></path>
<path d="M1325.25 328h10"></path>
<g class="non-terminal ">
<path d="M1335.25 328h0"></path>
<path d="M1465.75 328h0"></path>
<rect x="1335.25" y="317" width="130.5" height="22"></rect>
<a xlink:href="#/abap/expression/SQLFromSource"><text x="1400.5" y="332">SQLFromSource</text>
</a>
</g>
<path d="M1465.75 328h10"></path>
<g>
<path d="M1475.75 328h0"></path>
<path d="M1812.75 328h0"></path>
<path d="M1475.75 328a10 10 0 0 0 10 -10v-8a10 10 0 0 1 10 -10"></path>
<g>
<path d="M1495.75 300h297"></path>
</g>
<path d="M1792.75 300a10 10 0 0 1 10 10v8a10 10 0 0 0 10 10"></path>
<path d="M1475.75 328h20"></path>
<g>
<path d="M1495.75 328h0"></path>
<path d="M1792.75 328h0"></path>
<path d="M1495.75 328h10"></path>
<g>
<path d="M1505.75 328h0"></path>
<path d="M1782.75 328h0"></path>
<g>
<path d="M1505.75 328h0"></path>
<path d="M1693.25 328h0"></path>
<path d="M1505.75 328a10 10 0 0 0 10 -10v0a10 10 0 0 1 10 -10"></path>
<g>
<path d="M1525.75 308h147.5"></path>
</g>
<path d="M1673.25 308a10 10 0 0 1 10 10v0a10 10 0 0 0 10 10"></path>
<path d="M1505.75 328h20"></path>
<g class="terminal ">
<path d="M1525.75 328h0"></path>
<path d="M1673.25 328h0"></path>
<rect x="1525.75" y="317" width="147.5" height="22" rx="10" ry="10"></rect>
<text x="1599.5" y="332">!"WParenRightW"</text>
</g>
<path d="M1673.25 328h20"></path>
</g>
<path d="M1693.25 328h10"></path>
<g class="non-terminal ">
<path d="M1703.25 328h0"></path>
<path d="M1782.75 328h0"></path>
<rect x="1703.25" y="317" width="79.5" height="22"></rect>
<a xlink:href="#/abap/expression/SQLJoin"><text x="1743" y="332">SQLJoin</text>
</a>
</g>
</g>
<path d="M1782.75 328h10"></path>
<path d="M1505.75 328a10 10 0 0 0 -10 10v0a10 10 0 0 0 10 10"></path>
<g>
<path d="M1505.75 348h277"></path>
</g>
<path d="M1782.75 348a10 10 0 0 0 10 -10v0a10 10 0 0 0 -10 -10"></path>
</g>
<path d="M1792.75 328h20"></path>
</g>
<g>
<path d="M1812.75 328h0"></path>
<path d="M2000.25 328h0"></path>
<path d="M1812.75 328a10 10 0 0 0 10 -10v0a10 10 0 0 1 10 -10"></path>
<g>
<path d="M1832.75 308h147.5"></path>
</g>
<path d="M1980.25 308a10 10 0 0 1 10 10v0a10 10 0 0 0 10 10"></path>
<path d="M1812.75 328h20"></path>
<g class="terminal ">
<path d="M1832.75 328h0"></path>
<path d="M1980.25 328h0"></path>
<rect x="1832.75" y="317" width="147.5" height="22" rx="10" ry="10"></rect>
<text x="1906.5" y="332">!"WParenRightW"</text>
</g>
<path d="M1980.25 328h20"></path>
</g>
<g>
<path d="M2000.25 328h0"></path>
<path d="M2187.75 328h0"></path>
<path d="M2000.25 328a10 10 0 0 0 10 -10v0a10 10 0 0 1 10 -10"></path>
<g>
<path d="M2020.25 308h147.5"></path>
</g>
<path d="M2167.75 308a10 10 0 0 1 10 10v0a10 10 0 0 0 10 10"></path>
<path d="M2000.25 328h20"></path>
<g class="terminal ">
<path d="M2020.25 328h0"></path>
<path d="M2167.75 328h0"></path>
<rect x="2020.25" y="317" width="147.5" height="22" rx="10" ry="10"></rect>
<text x="2094" y="332">!"WParenRightW"</text>
</g>
<path d="M2167.75 328h20"></path>
</g>
</g>
<path d="M3054 328a10 10 0 0 0 10 -10v-260a10 10 0 0 1 10 -10"></path>
<path d="M40 48a10 10 0 0 1 10 10v316a10 10 0 0 0 10 10"></path>
<g>
<path d="M60 384h1039.5"></path>
<path d="M2014.5 384h1039.5"></path>
<g class="terminal ">
<path d="M1099.5 384h0"></path>
<path d="M1170.5 384h0"></path>
<rect x="1099.5" y="373" width="71" height="22" rx="10" ry="10"></rect>
<text x="1135" y="388">"FROM"</text>
</g>
<path d="M1170.5 384h10"></path>
<path d="M1180.5 384h10"></path>
<g class="terminal ">
<path d="M1190.5 384h0"></path>
<path d="M1329.5 384h0"></path>
<rect x="1190.5" y="373" width="139" height="22" rx="10" ry="10"></rect>
<text x="1260" y="388">!"WParenLeftW"</text>
</g>
<path d="M1329.5 384h10"></path>
<path d="M1339.5 384h10"></path>
<g class="non-terminal ">
<path d="M1349.5 384h0"></path>
<path d="M1480 384h0"></path>
<rect x="1349.5" y="373" width="130.5" height="22"></rect>
<a xlink:href="#/abap/expression/SQLFromSource"><text x="1414.75" y="388">SQLFromSource</text>
</a>
</g>
<path d="M1480 384h10"></path>
<g>
<path d="M1490 384h0"></path>
<path d="M1827 384h0"></path>
<path d="M1490 384a10 10 0 0 0 10 -10v-8a10 10 0 0 1 10 -10"></path>
<g>
<path d="M1510 356h297"></path>
</g>
<path d="M1807 356a10 10 0 0 1 10 10v8a10 10 0 0 0 10 10"></path>
<path d="M1490 384h20"></path>
<g>
<path d="M1510 384h0"></path>
<path d="M1807 384h0"></path>
<path d="M1510 384h10"></path>
<g>
<path d="M1520 384h0"></path>
<path d="M1797 384h0"></path>
<g>
<path d="M1520 384h0"></path>
<path d="M1707.5 384h0"></path>
<path d="M1520 384a10 10 0 0 0 10 -10v0a10 10 0 0 1 10 -10"></path>
<g>
<path d="M1540 364h147.5"></path>
</g>
<path d="M1687.5 364a10 10 0 0 1 10 10v0a10 10 0 0 0 10 10"></path>
<path d="M1520 384h20"></path>
<g class="terminal ">
<path d="M1540 384h0"></path>
<path d="M1687.5 384h0"></path>
<rect x="1540" y="373" width="147.5" height="22" rx="10" ry="10"></rect>
<text x="1613.75" y="388">!"WParenRightW"</text>
</g>
<path d="M1687.5 384h20"></path>
</g>
<path d="M1707.5 384h10"></path>
<g class="non-terminal ">
<path d="M1717.5 384h0"></path>
<path d="M1797 384h0"></path>
<rect x="1717.5" y="373" width="79.5" height="22"></rect>
<a xlink:href="#/abap/expression/SQLJoin"><text x="1757.25" y="388">SQLJoin</text>
</a>
</g>
</g>
<path d="M1797 384h10"></path>
<path d="M1520 384a10 10 0 0 0 -10 10v0a10 10 0 0 0 10 10"></path>
<g>
<path d="M1520 404h277"></path>
</g>
<path d="M1797 404a10 10 0 0 0 10 -10v0a10 10 0 0 0 -10 -10"></path>
</g>
<path d="M1807 384h20"></path>
</g>
<g>
<path d="M1827 384h0"></path>
<path d="M2014.5 384h0"></path>
<path d="M1827 384a10 10 0 0 0 10 -10v0a10 10 0 0 1 10 -10"></path>
<g>
<path d="M1847 364h147.5"></path>
</g>
<path d="M1994.5 364a10 10 0 0 1 10 10v0a10 10 0 0 0 10 10"></path>
<path d="M1827 384h20"></path>
<g class="terminal ">
<path d="M1847 384h0"></path>
<path d="M1994.5 384h0"></path>
<rect x="1847" y="373" width="147.5" height="22" rx="10" ry="10"></rect>
<text x="1920.75" y="388">!"WParenRightW"</text>
</g>
<path d="M1994.5 384h20"></path>
</g>
</g>
<path d="M3054 384a10 10 0 0 0 10 -10v-316a10 10 0 0 1 10 -10"></path>
<path d="M40 48a10 10 0 0 1 10 10v372a10 10 0 0 0 10 10"></path>
<g>
<path d="M60 440h1212.75"></path>
<path d="M1841.25 440h1212.75"></path>
<g class="terminal ">
<path d="M1272.75 440h0"></path>
<path d="M1343.75 440h0"></path>
<rect x="1272.75" y="429" width="71" height="22" rx="10" ry="10"></rect>
<text x="1308.25" y="444">"FROM"</text>
</g>
<path d="M1343.75 440h10"></path>
<path d="M1353.75 440h10"></path>
<g class="non-terminal ">
<path d="M1363.75 440h0"></path>
<path d="M1494.25 440h0"></path>
<rect x="1363.75" y="429" width="130.5" height="22"></rect>
<a xlink:href="#/abap/expression/SQLFromSource"><text x="1429" y="444">SQLFromSource</text>
</a>
</g>
<path d="M1494.25 440h10"></path>
<g>
<path d="M1504.25 440h0"></path>
<path d="M1841.25 440h0"></path>
<path d="M1504.25 440a10 10 0 0 0 10 -10v-8a10 10 0 0 1 10 -10"></path>
<g>
<path d="M1524.25 412h297"></path>
</g>
<path d="M1821.25 412a10 10 0 0 1 10 10v8a10 10 0 0 0 10 10"></path>
<path d="M1504.25 440h20"></path>
<g>
<path d="M1524.25 440h0"></path>
<path d="M1821.25 440h0"></path>
<path d="M1524.25 440h10"></path>
<g>
<path d="M1534.25 440h0"></path>
<path d="M1811.25 440h0"></path>
<g>
<path d="M1534.25 440h0"></path>
<path d="M1721.75 440h0"></path>
<path d="M1534.25 440a10 10 0 0 0 10 -10v0a10 10 0 0 1 10 -10"></path>
<g>
<path d="M1554.25 420h147.5"></path>
</g>
<path d="M1701.75 420a10 10 0 0 1 10 10v0a10 10 0 0 0 10 10"></path>
<path d="M1534.25 440h20"></path>
<g class="terminal ">
<path d="M1554.25 440h0"></path>
<path d="M1701.75 440h0"></path>
<rect x="1554.25" y="429" width="147.5" height="22" rx="10" ry="10"></rect>
<text x="1628" y="444">!"WParenRightW"</text>
</g>
<path d="M1701.75 440h20"></path>
</g>
<path d="M1721.75 440h10"></path>
<g class="non-terminal ">
<path d="M1731.75 440h0"></path>
<path d="M1811.25 440h0"></path>
<rect x="1731.75" y="429" width="79.5" height="22"></rect>
<a xlink:href="#/abap/expression/SQLJoin"><text x="1771.5" y="444">SQLJoin</text>
</a>
</g>
</g>
<path d="M1811.25 440h10"></path>
<path d="M1534.25 440a10 10 0 0 0 -10 10v0a10 10 0 0 0 10 10"></path>
<g>
<path d="M1534.25 460h277"></path>
</g>
<path d="M1811.25 460a10 10 0 0 0 10 -10v0a10 10 0 0 0 -10 -10"></path>
</g>
<path d="M1821.25 440h20"></path>
</g>
</g>
<path d="M3054 440a10 10 0 0 0 10 -10v-372a10 10 0 0 1 10 -10"></path>
</g>
<path d="M 3074 48 h 20 m 0 -10 v 20"></path>
</g>
</svg>
