<svg xmlns="http://www.w3.org/2000/svg" xmlns:xlink="http://www.w3.org/1999/xlink" class="railroad-diagram" width="1902.5" height="1266" viewBox="0 0 1902.5 1266">
<defs>
<style type="text/css"><![CDATA[
path {
stroke-width: 3;
stroke: black;
fill: rgba(0,0,0,0);
}
text {
font: bold 14px monospace;
text-anchor: middle;
}
text.diagram-text {
font-size: 12px;
}
a {
fill: blue;
}
text.diagram-arrow {
font-size: 16px;
}
text.label {
text-anchor: start;
}
text.comment {
font: italic 12px monospace;
}
rect {
stroke-width: 3;
stroke: black;
fill: #BCBCBC;
}
path.diagram-text {
stroke-width: 3;
stroke: black;
fill: #BCBCBC;
cursor: help;
}
]]></style>
</defs>
<g transform="translate(.5 .5)">
<g>
<path d="M20 30v20m0 -10h20"></path>
</g>
<path d="M40 40h10"></path>
<g>
<path d="M50 40h0"></path>
<path d="M1852.5 40h0"></path>
<g>
<path d="M50 40h0"></path>
<path d="M1642 40h0"></path>
<path d="M50 40h20"></path>
<g>
<path d="M70 40h0"></path>
<path d="M1622 40h0"></path>
<g class="terminal">
<path d="M70 40h0"></path>
<path d="M141 40h0"></path>
<rect x="70" y="29" width="71" height="22" rx="10" ry="10"></rect>
<text x="105.5" y="44">!" ( "</text>
</g>
<path d="M141 40h10"></path>
<path d="M151 40h10"></path>
<g>
<path d="M161 40h0"></path>
<path d="M1531 40h0"></path>
<g>
<path d="M161 40h0"></path>
<path d="M625 40h0"></path>
<path d="M161 40h20"></path>
<g class="non-terminal">
<path d="M181 40h0"></path>
<path d="M320 40h285"></path>
<rect x="181" y="29" width="139" height="22"></rect>
<a xlink:href="#/abap/expression/SQLAggregation"><text x="250.5" y="44">SQLAggregation</text>
</a>
</g>
<path d="M605 40h20"></path>
<path d="M161 40a10 10 0 0 1 10 10v10a10 10 0 0 0 10 10"></path>
<g class="non-terminal">
<path d="M181 70h0"></path>
<path d="M260.5 70h344.5"></path>
<rect x="181" y="59" width="79.5" height="22"></rect>
<a xlink:href="#/abap/expression/SQLCase"><text x="220.75" y="74">SQLCase</text>
</a>
</g>
<path d="M605 70a10 10 0 0 0 10 -10v-10a10 10 0 0 1 10 -10"></path>
<path d="M161 40a10 10 0 0 1 10 10v40a10 10 0 0 0 10 10"></path>
<g class="non-terminal">
<path d="M181 100h0"></path>
<path d="M260.5 100h344.5"></path>
<rect x="181" y="89" width="79.5" height="22"></rect>
<a xlink:href="#/abap/expression/SQLCast"><text x="220.75" y="104">SQLCast</text>
</a>
</g>
<path d="M605 100a10 10 0 0 0 10 -10v-40a10 10 0 0 1 10 -10"></path>
<path d="M161 40a10 10 0 0 1 10 10v70a10 10 0 0 0 10 10"></path>
<g class="non-terminal">
<path d="M181 130h0"></path>
<path d="M294.5 130h310.5"></path>
<rect x="181" y="119" width="113.5" height="22"></rect>
<a xlink:href="#/abap/expression/SQLFunction"><text x="237.75" y="134">SQLFunction</text>
</a>
</g>
<path d="M605 130a10 10 0 0 0 10 -10v-70a10 10 0 0 1 10 -10"></path>
<path d="M161 40a10 10 0 0 1 10 10v100a10 10 0 0 0 10 10"></path>
<g class="non-terminal">
<path d="M181 160h0"></path>
<path d="M260.5 160h344.5"></path>
<rect x="181" y="149" width="79.5" height="22"></rect>
<a xlink:href="#/abap/expression/SQLPath"><text x="220.75" y="164">SQLPath</text>
</a>
</g>
<path d="M605 160a10 10 0 0 0 10 -10v-100a10 10 0 0 1 10 -10"></path>
<path d="M161 40a10 10 0 0 1 10 10v130a10 10 0 0 0 10 10"></path>
<g class="non-terminal">
<path d="M181 190h0"></path>
<path d="M303 190h302"></path>
<rect x="181" y="179" width="122" height="22"></rect>
<a xlink:href="#/abap/expression/SQLFieldName"><text x="242" y="194">SQLFieldName</text>
</a>
</g>
<path d="M605 190a10 10 0 0 0 10 -10v-130a10 10 0 0 1 10 -10"></path>
<path d="M161 40a10 10 0 0 1 10 10v160a10 10 0 0 0 10 10"></path>
<g>
<path d="M181 220h0"></path>
<path d="M605 220h0"></path>
<g>
<path d="M181 220h0"></path>
<path d="M338 220h0"></path>
<text x="259.5" y="225" class="comment">v740sp05 or open-abap</text>
</g>
<path d="M338 220h10"></path>
<path d="M348 220h10"></path>
<g>
<path d="M358 220h0"></path>
<path d="M605 220h0"></path>
<g class="terminal">
<path d="M358 220h0"></path>
<path d="M420.5 220h0"></path>
<rect x="358" y="209" width="62.5" height="22" rx="10" ry="10"></rect>
<text x="389.25" y="224">!" @"</text>
</g>
<path d="M420.5 220h10"></path>
<path d="M430.5 220h10"></path>
<g class="non-terminal">
<path d="M440.5 220h0"></path>
<path d="M605 220h0"></path>
<rect x="440.5" y="209" width="164.5" height="22"></rect>
<a xlink:href="#/abap/expression/SimpleFieldChain2"><text x="522.75" y="224">SimpleFieldChain2</text>
</a>
</g>
</g>
</g>
<path d="M605 220a10 10 0 0 0 10 -10v-160a10 10 0 0 1 10 -10"></path>
<path d="M161 40a10 10 0 0 1 10 10v190a10 10 0 0 0 10 10"></path>
<g class="non-terminal">
<path d="M181 250h0"></path>
<path d="M269 250h336"></path>
<rect x="181" y="239" width="88" height="22"></rect>
<a xlink:href="#/abap/expression/Constant"><text x="225" y="254">Constant</text>
</a>
</g>
<path d="M605 250a10 10 0 0 0 10 -10v-190a10 10 0 0 1 10 -10"></path>
<path d="M161 40a10 10 0 0 1 10 10v220a10 10 0 0 0 10 10"></path>
<g>
<path d="M181 280h0"></path>
<path d="M515 280h90"></path>
<g class="terminal">
<path d="M181 280h0"></path>
<path d="M252 280h0"></path>
<rect x="181" y="269" width="71" height="22" rx="10" ry="10"></rect>
<text x="216.5" y="284">!" ( "</text>
</g>
<path d="M252 280h10"></path>
<path d="M262 280h10"></path>
<g class="non-terminal">
<path d="M272 280h0"></path>
<path d="M394 280h0"></path>
<rect x="272" y="269" width="122" height="22"></rect>
<a xlink:href="#/abap/expression/SQLFieldName"><text x="333" y="284">SQLFieldName</text>
</a>
</g>
<path d="M394 280h10"></path>
<g>
<path d="M404 280h0"></path>
<path d="M515 280h0"></path>
<path d="M404 280h20"></path>
<g class="terminal">
<path d="M424 280h0"></path>
<path d="M495 280h0"></path>
<rect x="424" y="269" width="71" height="22" rx="10" ry="10"></rect>
<text x="459.5" y="284">!" ) "</text>
</g>
<path d="M495 280h20"></path>
<path d="M404 280a10 10 0 0 1 10 10v10a10 10 0 0 0 10 10"></path>
<g class="terminal">
<path d="M424 310h0"></path>
<path d="M486.5 310h8.5"></path>
<rect x="424" y="299" width="62.5" height="22" rx="10" ry="10"></rect>
<text x="455.25" y="314">!" )"</text>
</g>
<path d="M495 310a10 10 0 0 0 10 -10v-10a10 10 0 0 1 10 -10"></path>
</g>
</g>
<path d="M605 280a10 10 0 0 0 10 -10v-220a10 10 0 0 1 10 -10"></path>
</g>
<g>
<path d="M625 40h0"></path>
<path d="M1531 40h0"></path>
<path d="M625 40a10 10 0 0 0 10 -10v0a10 10 0 0 1 10 -10"></path>
<g>
<path d="M645 20h866"></path>
</g>
<path d="M1511 20a10 10 0 0 1 10 10v0a10 10 0 0 0 10 10"></path>
<path d="M625 40h20"></path>
<g>
<path d="M645 40h0"></path>
<path d="M1511 40h0"></path>
<g>
<path d="M645 40h0"></path>
<path d="M711 40h0"></path>
<text x="678" y="45" class="comment">v740sp05</text>
</g>
<path d="M711 40h10"></path>
<path d="M721 40h10"></path>
<g>
<path d="M731 40h0"></path>
<path d="M1511 40h0"></path>
<path d="M731 40h10"></path>
<g>
<path d="M741 40h0"></path>
<path d="M1501 40h0"></path>
<g>
<path d="M741 40h0"></path>
<path d="M835 40h0"></path>
<path d="M741 40h20"></path>
<g class="terminal">
<path d="M761 40h0"></path>
<path d="M806.5 40h8.5"></path>
<rect x="761" y="29" width="45.5" height="22" rx="10" ry="10"></rect>
<text x="783.75" y="44">"+"</text>
</g>
<path d="M815 40h20"></path>
<path d="M741 40a10 10 0 0 1 10 10v10a10 10 0 0 0 10 10"></path>
<g class="terminal">
<path d="M761 70h0"></path>
<path d="M806.5 70h8.5"></path>
<rect x="761" y="59" width="45.5" height="22" rx="10" ry="10"></rect>
<text x="783.75" y="74">"-"</text>
</g>
<path d="M815 70a10 10 0 0 0 10 -10v-10a10 10 0 0 1 10 -10"></path>
<path d="M741 40a10 10 0 0 1 10 10v40a10 10 0 0 0 10 10"></path>
<g class="terminal">
<path d="M761 100h0"></path>
<path d="M806.5 100h8.5"></path>
<rect x="761" y="89" width="45.5" height="22" rx="10" ry="10"></rect>
<text x="783.75" y="104">"&#42;"</text>
</g>
<path d="M815 100a10 10 0 0 0 10 -10v-40a10 10 0 0 1 10 -10"></path>
<path d="M741 40a10 10 0 0 1 10 10v70a10 10 0 0 0 10 10"></path>
<g class="terminal">
<path d="M761 130h0"></path>
<path d="M806.5 130h8.5"></path>
<rect x="761" y="119" width="45.5" height="22" rx="10" ry="10"></rect>
<text x="783.75" y="134">"/"</text>
</g>
<path d="M815 130a10 10 0 0 0 10 -10v-70a10 10 0 0 1 10 -10"></path>
<path d="M741 40a10 10 0 0 1 10 10v100a10 10 0 0 0 10 10"></path>
<g class="terminal">
<path d="M761 160h0"></path>
<path d="M815 160h0"></path>
<rect x="761" y="149" width="54" height="22" rx="10" ry="10"></rect>
<text x="788" y="164">"&#38;&#38;"</text>
</g>
<path d="M815 160a10 10 0 0 0 10 -10v-100a10 10 0 0 1 10 -10"></path>
</g>
<g>
<path d="M835 40h0"></path>
<path d="M1501 40h0"></path>
<path d="M835 40h20"></path>
<g>
<path d="M855 40h0"></path>
<path d="M1481 40h0"></path>
<g class="terminal">
<path d="M855 40h0"></path>
<path d="M926 40h0"></path>
<rect x="855" y="29" width="71" height="22" rx="10" ry="10"></rect>
<text x="890.5" y="44">!" ( "</text>
</g>
<path d="M926 40h10"></path>
<g>
<path d="M936 40h0"></path>
<path d="M1400 40h0"></path>
<path d="M936 40h20"></path>
<g class="non-terminal">
<path d="M956 40h0"></path>
<path d="M1095 40h285"></path>
<rect x="956" y="29" width="139" height="22"></rect>
<a xlink:href="#/abap/expression/SQLAggregation"><text x="1025.5" y="44">SQLAggregation</text>
</a>
</g>
<path d="M1380 40h20"></path>
<path d="M936 40a10 10 0 0 1 10 10v10a10 10 0 0 0 10 10"></path>
<g class="non-terminal">
<path d="M956 70h0"></path>
<path d="M1035.5 70h344.5"></path>
<rect x="956" y="59" width="79.5" height="22"></rect>
<a xlink:href="#/abap/expression/SQLCase"><text x="995.75" y="74">SQLCase</text>
</a>
</g>
<path d="M1380 70a10 10 0 0 0 10 -10v-10a10 10 0 0 1 10 -10"></path>
<path d="M936 40a10 10 0 0 1 10 10v40a10 10 0 0 0 10 10"></path>
<g class="non-terminal">
<path d="M956 100h0"></path>
<path d="M1035.5 100h344.5"></path>
<rect x="956" y="89" width="79.5" height="22"></rect>
<a xlink:href="#/abap/expression/SQLCast"><text x="995.75" y="104">SQLCast</text>
</a>
</g>
<path d="M1380 100a10 10 0 0 0 10 -10v-40a10 10 0 0 1 10 -10"></path>
<path d="M936 40a10 10 0 0 1 10 10v70a10 10 0 0 0 10 10"></path>
<g class="non-terminal">
<path d="M956 130h0"></path>
<path d="M1069.5 130h310.5"></path>
<rect x="956" y="119" width="113.5" height="22"></rect>
<a xlink:href="#/abap/expression/SQLFunction"><text x="1012.75" y="134">SQLFunction</text>
</a>
</g>
<path d="M1380 130a10 10 0 0 0 10 -10v-70a10 10 0 0 1 10 -10"></path>
<path d="M936 40a10 10 0 0 1 10 10v100a10 10 0 0 0 10 10"></path>
<g class="non-terminal">
<path d="M956 160h0"></path>
<path d="M1035.5 160h344.5"></path>
<rect x="956" y="149" width="79.5" height="22"></rect>
<a xlink:href="#/abap/expression/SQLPath"><text x="995.75" y="164">SQLPath</text>
</a>
</g>
<path d="M1380 160a10 10 0 0 0 10 -10v-100a10 10 0 0 1 10 -10"></path>
<path d="M936 40a10 10 0 0 1 10 10v130a10 10 0 0 0 10 10"></path>
<g class="non-terminal">
<path d="M956 190h0"></path>
<path d="M1078 190h302"></path>
<rect x="956" y="179" width="122" height="22"></rect>
<a xlink:href="#/abap/expression/SQLFieldName"><text x="1017" y="194">SQLFieldName</text>
</a>
</g>
<path d="M1380 190a10 10 0 0 0 10 -10v-130a10 10 0 0 1 10 -10"></path>
<path d="M936 40a10 10 0 0 1 10 10v160a10 10 0 0 0 10 10"></path>
<g>
<path d="M956 220h0"></path>
<path d="M1380 220h0"></path>
<g>
<path d="M956 220h0"></path>
<path d="M1113 220h0"></path>
<text x="1034.5" y="225" class="comment">v740sp05 or open-abap</text>
</g>
<path d="M1113 220h10"></path>
<path d="M1123 220h10"></path>
<g>
<path d="M1133 220h0"></path>
<path d="M1380 220h0"></path>
<g class="terminal">
<path d="M1133 220h0"></path>
<path d="M1195.5 220h0"></path>
<rect x="1133" y="209" width="62.5" height="22" rx="10" ry="10"></rect>
<text x="1164.25" y="224">!" @"</text>
</g>
<path d="M1195.5 220h10"></path>
<path d="M1205.5 220h10"></path>
<g class="non-terminal">
<path d="M1215.5 220h0"></path>
<path d="M1380 220h0"></path>
<rect x="1215.5" y="209" width="164.5" height="22"></rect>
<a xlink:href="#/abap/expression/SimpleFieldChain2"><text x="1297.75" y="224">SimpleFieldChain2</text>
</a>
</g>
</g>
</g>
<path d="M1380 220a10 10 0 0 0 10 -10v-160a10 10 0 0 1 10 -10"></path>
<path d="M936 40a10 10 0 0 1 10 10v190a10 10 0 0 0 10 10"></path>
<g class="non-terminal">
<path d="M956 250h0"></path>
<path d="M1044 250h336"></path>
<rect x="956" y="239" width="88" height="22"></rect>
<a xlink:href="#/abap/expression/Constant"><text x="1000" y="254">Constant</text>
</a>
</g>
<path d="M1380 250a10 10 0 0 0 10 -10v-190a10 10 0 0 1 10 -10"></path>
<path d="M936 40a10 10 0 0 1 10 10v220a10 10 0 0 0 10 10"></path>
<g>
<path d="M956 280h0"></path>
<path d="M1290 280h90"></path>
<g class="terminal">
<path d="M956 280h0"></path>
<path d="M1027 280h0"></path>
<rect x="956" y="269" width="71" height="22" rx="10" ry="10"></rect>
<text x="991.5" y="284">!" ( "</text>
</g>
<path d="M1027 280h10"></path>
<path d="M1037 280h10"></path>
<g class="non-terminal">
<path d="M1047 280h0"></path>
<path d="M1169 280h0"></path>
<rect x="1047" y="269" width="122" height="22"></rect>
<a xlink:href="#/abap/expression/SQLFieldName"><text x="1108" y="284">SQLFieldName</text>
</a>
</g>
<path d="M1169 280h10"></path>
<g>
<path d="M1179 280h0"></path>
<path d="M1290 280h0"></path>
<path d="M1179 280h20"></path>
<g class="terminal">
<path d="M1199 280h0"></path>
<path d="M1270 280h0"></path>
<rect x="1199" y="269" width="71" height="22" rx="10" ry="10"></rect>
<text x="1234.5" y="284">!" ) "</text>
</g>
<path d="M1270 280h20"></path>
<path d="M1179 280a10 10 0 0 1 10 10v10a10 10 0 0 0 10 10"></path>
<g class="terminal">
<path d="M1199 310h0"></path>
<path d="M1261.5 310h8.5"></path>
<rect x="1199" y="299" width="62.5" height="22" rx="10" ry="10"></rect>
<text x="1230.25" y="314">!" )"</text>
</g>
<path d="M1270 310a10 10 0 0 0 10 -10v-10a10 10 0 0 1 10 -10"></path>
</g>
</g>
<path d="M1380 280a10 10 0 0 0 10 -10v-220a10 10 0 0 1 10 -10"></path>
</g>
<path d="M1400 40h10"></path>
<g class="terminal">
<path d="M1410 40h0"></path>
<path d="M1481 40h0"></path>
<rect x="1410" y="29" width="71" height="22" rx="10" ry="10"></rect>
<text x="1445.5" y="44">!" ) "</text>
</g>
</g>
<path d="M1481 40h20"></path>
<path d="M835 40a10 10 0 0 1 10 10v280a10 10 0 0 0 10 10"></path>
<g>
<path d="M855 340h0"></path>
<path d="M1319 340h162"></path>
<path d="M855 340h20"></path>
<g class="non-terminal">
<path d="M875 340h0"></path>
<path d="M1014 340h285"></path>
<rect x="875" y="329" width="139" height="22"></rect>
<a xlink:href="#/abap/expression/SQLAggregation"><text x="944.5" y="344">SQLAggregation</text>
</a>
</g>
<path d="M1299 340h20"></path>
<path d="M855 340a10 10 0 0 1 10 10v10a10 10 0 0 0 10 10"></path>
<g class="non-terminal">
<path d="M875 370h0"></path>
<path d="M954.5 370h344.5"></path>
<rect x="875" y="359" width="79.5" height="22"></rect>
<a xlink:href="#/abap/expression/SQLCase"><text x="914.75" y="374">SQLCase</text>
</a>
</g>
<path d="M1299 370a10 10 0 0 0 10 -10v-10a10 10 0 0 1 10 -10"></path>
<path d="M855 340a10 10 0 0 1 10 10v40a10 10 0 0 0 10 10"></path>
<g class="non-terminal">
<path d="M875 400h0"></path>
<path d="M954.5 400h344.5"></path>
<rect x="875" y="389" width="79.5" height="22"></rect>
<a xlink:href="#/abap/expression/SQLCast"><text x="914.75" y="404">SQLCast</text>
</a>
</g>
<path d="M1299 400a10 10 0 0 0 10 -10v-40a10 10 0 0 1 10 -10"></path>
<path d="M855 340a10 10 0 0 1 10 10v70a10 10 0 0 0 10 10"></path>
<g class="non-terminal">
<path d="M875 430h0"></path>
<path d="M988.5 430h310.5"></path>
<rect x="875" y="419" width="113.5" height="22"></rect>
<a xlink:href="#/abap/expression/SQLFunction"><text x="931.75" y="434">SQLFunction</text>
</a>
</g>
<path d="M1299 430a10 10 0 0 0 10 -10v-70a10 10 0 0 1 10 -10"></path>
<path d="M855 340a10 10 0 0 1 10 10v100a10 10 0 0 0 10 10"></path>
<g class="non-terminal">
<path d="M875 460h0"></path>
<path d="M954.5 460h344.5"></path>
<rect x="875" y="449" width="79.5" height="22"></rect>
<a xlink:href="#/abap/expression/SQLPath"><text x="914.75" y="464">SQLPath</text>
</a>
</g>
<path d="M1299 460a10 10 0 0 0 10 -10v-100a10 10 0 0 1 10 -10"></path>
<path d="M855 340a10 10 0 0 1 10 10v130a10 10 0 0 0 10 10"></path>
<g class="non-terminal">
<path d="M875 490h0"></path>
<path d="M997 490h302"></path>
<rect x="875" y="479" width="122" height="22"></rect>
<a xlink:href="#/abap/expression/SQLFieldName"><text x="936" y="494">SQLFieldName</text>
</a>
</g>
<path d="M1299 490a10 10 0 0 0 10 -10v-130a10 10 0 0 1 10 -10"></path>
<path d="M855 340a10 10 0 0 1 10 10v160a10 10 0 0 0 10 10"></path>
<g>
<path d="M875 520h0"></path>
<path d="M1299 520h0"></path>
<g>
<path d="M875 520h0"></path>
<path d="M1032 520h0"></path>
<text x="953.5" y="525" class="comment">v740sp05 or open-abap</text>
</g>
<path d="M1032 520h10"></path>
<path d="M1042 520h10"></path>
<g>
<path d="M1052 520h0"></path>
<path d="M1299 520h0"></path>
<g class="terminal">
<path d="M1052 520h0"></path>
<path d="M1114.5 520h0"></path>
<rect x="1052" y="509" width="62.5" height="22" rx="10" ry="10"></rect>
<text x="1083.25" y="524">!" @"</text>
</g>
<path d="M1114.5 520h10"></path>
<path d="M1124.5 520h10"></path>
<g class="non-terminal">
<path d="M1134.5 520h0"></path>
<path d="M1299 520h0"></path>
<rect x="1134.5" y="509" width="164.5" height="22"></rect>
<a xlink:href="#/abap/expression/SimpleFieldChain2"><text x="1216.75" y="524">SimpleFieldChain2</text>
</a>
</g>
</g>
</g>
<path d="M1299 520a10 10 0 0 0 10 -10v-160a10 10 0 0 1 10 -10"></path>
<path d="M855 340a10 10 0 0 1 10 10v190a10 10 0 0 0 10 10"></path>
<g class="non-terminal">
<path d="M875 550h0"></path>
<path d="M963 550h336"></path>
<rect x="875" y="539" width="88" height="22"></rect>
<a xlink:href="#/abap/expression/Constant"><text x="919" y="554">Constant</text>
</a>
</g>
<path d="M1299 550a10 10 0 0 0 10 -10v-190a10 10 0 0 1 10 -10"></path>
<path d="M855 340a10 10 0 0 1 10 10v220a10 10 0 0 0 10 10"></path>
<g>
<path d="M875 580h0"></path>
<path d="M1209 580h90"></path>
<g class="terminal">
<path d="M875 580h0"></path>
<path d="M946 580h0"></path>
<rect x="875" y="569" width="71" height="22" rx="10" ry="10"></rect>
<text x="910.5" y="584">!" ( "</text>
</g>
<path d="M946 580h10"></path>
<path d="M956 580h10"></path>
<g class="non-terminal">
<path d="M966 580h0"></path>
<path d="M1088 580h0"></path>
<rect x="966" y="569" width="122" height="22"></rect>
<a xlink:href="#/abap/expression/SQLFieldName"><text x="1027" y="584">SQLFieldName</text>
</a>
</g>
<path d="M1088 580h10"></path>
<g>
<path d="M1098 580h0"></path>
<path d="M1209 580h0"></path>
<path d="M1098 580h20"></path>
<g class="terminal">
<path d="M1118 580h0"></path>
<path d="M1189 580h0"></path>
<rect x="1118" y="569" width="71" height="22" rx="10" ry="10"></rect>
<text x="1153.5" y="584">!" ) "</text>
</g>
<path d="M1189 580h20"></path>
<path d="M1098 580a10 10 0 0 1 10 10v10a10 10 0 0 0 10 10"></path>
<g class="terminal">
<path d="M1118 610h0"></path>
<path d="M1180.5 610h8.5"></path>
<rect x="1118" y="599" width="62.5" height="22" rx="10" ry="10"></rect>
<text x="1149.25" y="614">!" )"</text>
</g>
<path d="M1189 610a10 10 0 0 0 10 -10v-10a10 10 0 0 1 10 -10"></path>
</g>
</g>
<path d="M1299 580a10 10 0 0 0 10 -10v-220a10 10 0 0 1 10 -10"></path>
</g>
<path d="M1481 340a10 10 0 0 0 10 -10v-280a10 10 0 0 1 10 -10"></path>
</g>
</g>
<path d="M1501 40h10"></path>
<path d="M741 40a10 10 0 0 0 -10 10v569a10 10 0 0 0 10 10"></path>
<g>
<path d="M741 629h760"></path>
</g>
<path d="M1501 629a10 10 0 0 0 10 -10v-569a10 10 0 0 0 -10 -10"></path>
</g>
</g>
<path d="M1511 40h20"></path>
</g>
</g>
<path d="M1531 40h10"></path>
<path d="M1541 40h10"></path>
<g class="terminal">
<path d="M1551 40h0"></path>
<path d="M1622 40h0"></path>
<rect x="1551" y="29" width="71" height="22" rx="10" ry="10"></rect>
<text x="1586.5" y="44">!" ) "</text>
</g>
</g>
<path d="M1622 40h20"></path>
<path d="M50 40a10 10 0 0 1 10 10v597a10 10 0 0 0 10 10"></path>
<g>
<path d="M70 657h0"></path>
<path d="M1440 657h182"></path>
<g>
<path d="M70 657h0"></path>
<path d="M534 657h0"></path>
<path d="M70 657h20"></path>
<g class="non-terminal">
<path d="M90 657h0"></path>
<path d="M229 657h285"></path>
<rect x="90" y="646" width="139" height="22"></rect>
<a xlink:href="#/abap/expression/SQLAggregation"><text x="159.5" y="661">SQLAggregation</text>
</a>
</g>
<path d="M514 657h20"></path>
<path d="M70 657a10 10 0 0 1 10 10v10a10 10 0 0 0 10 10"></path>
<g class="non-terminal">
<path d="M90 687h0"></path>
<path d="M169.5 687h344.5"></path>
<rect x="90" y="676" width="79.5" height="22"></rect>
<a xlink:href="#/abap/expression/SQLCase"><text x="129.75" y="691">SQLCase</text>
</a>
</g>
<path d="M514 687a10 10 0 0 0 10 -10v-10a10 10 0 0 1 10 -10"></path>
<path d="M70 657a10 10 0 0 1 10 10v40a10 10 0 0 0 10 10"></path>
<g class="non-terminal">
<path d="M90 717h0"></path>
<path d="M169.5 717h344.5"></path>
<rect x="90" y="706" width="79.5" height="22"></rect>
<a xlink:href="#/abap/expression/SQLCast"><text x="129.75" y="721">SQLCast</text>
</a>
</g>
<path d="M514 717a10 10 0 0 0 10 -10v-40a10 10 0 0 1 10 -10"></path>
<path d="M70 657a10 10 0 0 1 10 10v70a10 10 0 0 0 10 10"></path>
<g class="non-terminal">
<path d="M90 747h0"></path>
<path d="M203.5 747h310.5"></path>
<rect x="90" y="736" width="113.5" height="22"></rect>
<a xlink:href="#/abap/expression/SQLFunction"><text x="146.75" y="751">SQLFunction</text>
</a>
</g>
<path d="M514 747a10 10 0 0 0 10 -10v-70a10 10 0 0 1 10 -10"></path>
<path d="M70 657a10 10 0 0 1 10 10v100a10 10 0 0 0 10 10"></path>
<g class="non-terminal">
<path d="M90 777h0"></path>
<path d="M169.5 777h344.5"></path>
<rect x="90" y="766" width="79.5" height="22"></rect>
<a xlink:href="#/abap/expression/SQLPath"><text x="129.75" y="781">SQLPath</text>
</a>
</g>
<path d="M514 777a10 10 0 0 0 10 -10v-100a10 10 0 0 1 10 -10"></path>
<path d="M70 657a10 10 0 0 1 10 10v130a10 10 0 0 0 10 10"></path>
<g class="non-terminal">
<path d="M90 807h0"></path>
<path d="M212 807h302"></path>
<rect x="90" y="796" width="122" height="22"></rect>
<a xlink:href="#/abap/expression/SQLFieldName"><text x="151" y="811">SQLFieldName</text>
</a>
</g>
<path d="M514 807a10 10 0 0 0 10 -10v-130a10 10 0 0 1 10 -10"></path>
<path d="M70 657a10 10 0 0 1 10 10v160a10 10 0 0 0 10 10"></path>
<g>
<path d="M90 837h0"></path>
<path d="M514 837h0"></path>
<g>
<path d="M90 837h0"></path>
<path d="M247 837h0"></path>
<text x="168.5" y="842" class="comment">v740sp05 or open-abap</text>
</g>
<path d="M247 837h10"></path>
<path d="M257 837h10"></path>
<g>
<path d="M267 837h0"></path>
<path d="M514 837h0"></path>
<g class="terminal">
<path d="M267 837h0"></path>
<path d="M329.5 837h0"></path>
<rect x="267" y="826" width="62.5" height="22" rx="10" ry="10"></rect>
<text x="298.25" y="841">!" @"</text>
</g>
<path d="M329.5 837h10"></path>
<path d="M339.5 837h10"></path>
<g class="non-terminal">
<path d="M349.5 837h0"></path>
<path d="M514 837h0"></path>
<rect x="349.5" y="826" width="164.5" height="22"></rect>
<a xlink:href="#/abap/expression/SimpleFieldChain2"><text x="431.75" y="841">SimpleFieldChain2</text>
</a>
</g>
</g>
</g>
<path d="M514 837a10 10 0 0 0 10 -10v-160a10 10 0 0 1 10 -10"></path>
<path d="M70 657a10 10 0 0 1 10 10v190a10 10 0 0 0 10 10"></path>
<g class="non-terminal">
<path d="M90 867h0"></path>
<path d="M178 867h336"></path>
<rect x="90" y="856" width="88" height="22"></rect>
<a xlink:href="#/abap/expression/Constant"><text x="134" y="871">Constant</text>
</a>
</g>
<path d="M514 867a10 10 0 0 0 10 -10v-190a10 10 0 0 1 10 -10"></path>
<path d="M70 657a10 10 0 0 1 10 10v220a10 10 0 0 0 10 10"></path>
<g>
<path d="M90 897h0"></path>
<path d="M424 897h90"></path>
<g class="terminal">
<path d="M90 897h0"></path>
<path d="M161 897h0"></path>
<rect x="90" y="886" width="71" height="22" rx="10" ry="10"></rect>
<text x="125.5" y="901">!" ( "</text>
</g>
<path d="M161 897h10"></path>
<path d="M171 897h10"></path>
<g class="non-terminal">
<path d="M181 897h0"></path>
<path d="M303 897h0"></path>
<rect x="181" y="886" width="122" height="22"></rect>
<a xlink:href="#/abap/expression/SQLFieldName"><text x="242" y="901">SQLFieldName</text>
</a>
</g>
<path d="M303 897h10"></path>
<g>
<path d="M313 897h0"></path>
<path d="M424 897h0"></path>
<path d="M313 897h20"></path>
<g class="terminal">
<path d="M333 897h0"></path>
<path d="M404 897h0"></path>
<rect x="333" y="886" width="71" height="22" rx="10" ry="10"></rect>
<text x="368.5" y="901">!" ) "</text>
</g>
<path d="M404 897h20"></path>
<path d="M313 897a10 10 0 0 1 10 10v10a10 10 0 0 0 10 10"></path>
<g class="terminal">
<path d="M333 927h0"></path>
<path d="M395.5 927h8.5"></path>
<rect x="333" y="916" width="62.5" height="22" rx="10" ry="10"></rect>
<text x="364.25" y="931">!" )"</text>
</g>
<path d="M404 927a10 10 0 0 0 10 -10v-10a10 10 0 0 1 10 -10"></path>
</g>
</g>
<path d="M514 897a10 10 0 0 0 10 -10v-220a10 10 0 0 1 10 -10"></path>
</g>
<g>
<path d="M534 657h0"></path>
<path d="M1440 657h0"></path>
<path d="M534 657a10 10 0 0 0 10 -10v0a10 10 0 0 1 10 -10"></path>
<g>
<path d="M554 637h866"></path>
</g>
<path d="M1420 637a10 10 0 0 1 10 10v0a10 10 0 0 0 10 10"></path>
<path d="M534 657h20"></path>
<g>
<path d="M554 657h0"></path>
<path d="M1420 657h0"></path>
<g>
<path d="M554 657h0"></path>
<path d="M620 657h0"></path>
<text x="587" y="662" class="comment">v740sp05</text>
</g>
<path d="M620 657h10"></path>
<path d="M630 657h10"></path>
<g>
<path d="M640 657h0"></path>
<path d="M1420 657h0"></path>
<path d="M640 657h10"></path>
<g>
<path d="M650 657h0"></path>
<path d="M1410 657h0"></path>
<g>
<path d="M650 657h0"></path>
<path d="M744 657h0"></path>
<path d="M650 657h20"></path>
<g class="terminal">
<path d="M670 657h0"></path>
<path d="M715.5 657h8.5"></path>
<rect x="670" y="646" width="45.5" height="22" rx="10" ry="10"></rect>
<text x="692.75" y="661">"+"</text>
</g>
<path d="M724 657h20"></path>
<path d="M650 657a10 10 0 0 1 10 10v10a10 10 0 0 0 10 10"></path>
<g class="terminal">
<path d="M670 687h0"></path>
<path d="M715.5 687h8.5"></path>
<rect x="670" y="676" width="45.5" height="22" rx="10" ry="10"></rect>
<text x="692.75" y="691">"-"</text>
</g>
<path d="M724 687a10 10 0 0 0 10 -10v-10a10 10 0 0 1 10 -10"></path>
<path d="M650 657a10 10 0 0 1 10 10v40a10 10 0 0 0 10 10"></path>
<g class="terminal">
<path d="M670 717h0"></path>
<path d="M715.5 717h8.5"></path>
<rect x="670" y="706" width="45.5" height="22" rx="10" ry="10"></rect>
<text x="692.75" y="721">"&#42;"</text>
</g>
<path d="M724 717a10 10 0 0 0 10 -10v-40a10 10 0 0 1 10 -10"></path>
<path d="M650 657a10 10 0 0 1 10 10v70a10 10 0 0 0 10 10"></path>
<g class="terminal">
<path d="M670 747h0"></path>
<path d="M715.5 747h8.5"></path>
<rect x="670" y="736" width="45.5" height="22" rx="10" ry="10"></rect>
<text x="692.75" y="751">"/"</text>
</g>
<path d="M724 747a10 10 0 0 0 10 -10v-70a10 10 0 0 1 10 -10"></path>
<path d="M650 657a10 10 0 0 1 10 10v100a10 10 0 0 0 10 10"></path>
<g class="terminal">
<path d="M670 777h0"></path>
<path d="M724 777h0"></path>
<rect x="670" y="766" width="54" height="22" rx="10" ry="10"></rect>
<text x="697" y="781">"&#38;&#38;"</text>
</g>
<path d="M724 777a10 10 0 0 0 10 -10v-100a10 10 0 0 1 10 -10"></path>
</g>
<g>
<path d="M744 657h0"></path>
<path d="M1410 657h0"></path>
<path d="M744 657h20"></path>
<g>
<path d="M764 657h0"></path>
<path d="M1390 657h0"></path>
<g class="terminal">
<path d="M764 657h0"></path>
<path d="M835 657h0"></path>
<rect x="764" y="646" width="71" height="22" rx="10" ry="10"></rect>
<text x="799.5" y="661">!" ( "</text>
</g>
<path d="M835 657h10"></path>
<g>
<path d="M845 657h0"></path>
<path d="M1309 657h0"></path>
<path d="M845 657h20"></path>
<g class="non-terminal">
<path d="M865 657h0"></path>
<path d="M1004 657h285"></path>
<rect x="865" y="646" width="139" height="22"></rect>
<a xlink:href="#/abap/expression/SQLAggregation"><text x="934.5" y="661">SQLAggregation</text>
</a>
</g>
<path d="M1289 657h20"></path>
<path d="M845 657a10 10 0 0 1 10 10v10a10 10 0 0 0 10 10"></path>
<g class="non-terminal">
<path d="M865 687h0"></path>
<path d="M944.5 687h344.5"></path>
<rect x="865" y="676" width="79.5" height="22"></rect>
<a xlink:href="#/abap/expression/SQLCase"><text x="904.75" y="691">SQLCase</text>
</a>
</g>
<path d="M1289 687a10 10 0 0 0 10 -10v-10a10 10 0 0 1 10 -10"></path>
<path d="M845 657a10 10 0 0 1 10 10v40a10 10 0 0 0 10 10"></path>
<g class="non-terminal">
<path d="M865 717h0"></path>
<path d="M944.5 717h344.5"></path>
<rect x="865" y="706" width="79.5" height="22"></rect>
<a xlink:href="#/abap/expression/SQLCast"><text x="904.75" y="721">SQLCast</text>
</a>
</g>
<path d="M1289 717a10 10 0 0 0 10 -10v-40a10 10 0 0 1 10 -10"></path>
<path d="M845 657a10 10 0 0 1 10 10v70a10 10 0 0 0 10 10"></path>
<g class="non-terminal">
<path d="M865 747h0"></path>
<path d="M978.5 747h310.5"></path>
<rect x="865" y="736" width="113.5" height="22"></rect>
<a xlink:href="#/abap/expression/SQLFunction"><text x="921.75" y="751">SQLFunction</text>
</a>
</g>
<path d="M1289 747a10 10 0 0 0 10 -10v-70a10 10 0 0 1 10 -10"></path>
<path d="M845 657a10 10 0 0 1 10 10v100a10 10 0 0 0 10 10"></path>
<g class="non-terminal">
<path d="M865 777h0"></path>
<path d="M944.5 777h344.5"></path>
<rect x="865" y="766" width="79.5" height="22"></rect>
<a xlink:href="#/abap/expression/SQLPath"><text x="904.75" y="781">SQLPath</text>
</a>
</g>
<path d="M1289 777a10 10 0 0 0 10 -10v-100a10 10 0 0 1 10 -10"></path>
<path d="M845 657a10 10 0 0 1 10 10v130a10 10 0 0 0 10 10"></path>
<g class="non-terminal">
<path d="M865 807h0"></path>
<path d="M987 807h302"></path>
<rect x="865" y="796" width="122" height="22"></rect>
<a xlink:href="#/abap/expression/SQLFieldName"><text x="926" y="811">SQLFieldName</text>
</a>
</g>
<path d="M1289 807a10 10 0 0 0 10 -10v-130a10 10 0 0 1 10 -10"></path>
<path d="M845 657a10 10 0 0 1 10 10v160a10 10 0 0 0 10 10"></path>
<g>
<path d="M865 837h0"></path>
<path d="M1289 837h0"></path>
<g>
<path d="M865 837h0"></path>
<path d="M1022 837h0"></path>
<text x="943.5" y="842" class="comment">v740sp05 or open-abap</text>
</g>
<path d="M1022 837h10"></path>
<path d="M1032 837h10"></path>
<g>
<path d="M1042 837h0"></path>
<path d="M1289 837h0"></path>
<g class="terminal">
<path d="M1042 837h0"></path>
<path d="M1104.5 837h0"></path>
<rect x="1042" y="826" width="62.5" height="22" rx="10" ry="10"></rect>
<text x="1073.25" y="841">!" @"</text>
</g>
<path d="M1104.5 837h10"></path>
<path d="M1114.5 837h10"></path>
<g class="non-terminal">
<path d="M1124.5 837h0"></path>
<path d="M1289 837h0"></path>
<rect x="1124.5" y="826" width="164.5" height="22"></rect>
<a xlink:href="#/abap/expression/SimpleFieldChain2"><text x="1206.75" y="841">SimpleFieldChain2</text>
</a>
</g>
</g>
</g>
<path d="M1289 837a10 10 0 0 0 10 -10v-160a10 10 0 0 1 10 -10"></path>
<path d="M845 657a10 10 0 0 1 10 10v190a10 10 0 0 0 10 10"></path>
<g class="non-terminal">
<path d="M865 867h0"></path>
<path d="M953 867h336"></path>
<rect x="865" y="856" width="88" height="22"></rect>
<a xlink:href="#/abap/expression/Constant"><text x="909" y="871">Constant</text>
</a>
</g>
<path d="M1289 867a10 10 0 0 0 10 -10v-190a10 10 0 0 1 10 -10"></path>
<path d="M845 657a10 10 0 0 1 10 10v220a10 10 0 0 0 10 10"></path>
<g>
<path d="M865 897h0"></path>
<path d="M1199 897h90"></path>
<g class="terminal">
<path d="M865 897h0"></path>
<path d="M936 897h0"></path>
<rect x="865" y="886" width="71" height="22" rx="10" ry="10"></rect>
<text x="900.5" y="901">!" ( "</text>
</g>
<path d="M936 897h10"></path>
<path d="M946 897h10"></path>
<g class="non-terminal">
<path d="M956 897h0"></path>
<path d="M1078 897h0"></path>
<rect x="956" y="886" width="122" height="22"></rect>
<a xlink:href="#/abap/expression/SQLFieldName"><text x="1017" y="901">SQLFieldName</text>
</a>
</g>
<path d="M1078 897h10"></path>
<g>
<path d="M1088 897h0"></path>
<path d="M1199 897h0"></path>
<path d="M1088 897h20"></path>
<g class="terminal">
<path d="M1108 897h0"></path>
<path d="M1179 897h0"></path>
<rect x="1108" y="886" width="71" height="22" rx="10" ry="10"></rect>
<text x="1143.5" y="901">!" ) "</text>
</g>
<path d="M1179 897h20"></path>
<path d="M1088 897a10 10 0 0 1 10 10v10a10 10 0 0 0 10 10"></path>
<g class="terminal">
<path d="M1108 927h0"></path>
<path d="M1170.5 927h8.5"></path>
<rect x="1108" y="916" width="62.5" height="22" rx="10" ry="10"></rect>
<text x="1139.25" y="931">!" )"</text>
</g>
<path d="M1179 927a10 10 0 0 0 10 -10v-10a10 10 0 0 1 10 -10"></path>
</g>
</g>
<path d="M1289 897a10 10 0 0 0 10 -10v-220a10 10 0 0 1 10 -10"></path>
</g>
<path d="M1309 657h10"></path>
<g class="terminal">
<path d="M1319 657h0"></path>
<path d="M1390 657h0"></path>
<rect x="1319" y="646" width="71" height="22" rx="10" ry="10"></rect>
<text x="1354.5" y="661">!" ) "</text>
</g>
</g>
<path d="M1390 657h20"></path>
<path d="M744 657a10 10 0 0 1 10 10v280a10 10 0 0 0 10 10"></path>
<g>
<path d="M764 957h0"></path>
<path d="M1228 957h162"></path>
<path d="M764 957h20"></path>
<g class="non-terminal">
<path d="M784 957h0"></path>
<path d="M923 957h285"></path>
<rect x="784" y="946" width="139" height="22"></rect>
<a xlink:href="#/abap/expression/SQLAggregation"><text x="853.5" y="961">SQLAggregation</text>
</a>
</g>
<path d="M1208 957h20"></path>
<path d="M764 957a10 10 0 0 1 10 10v10a10 10 0 0 0 10 10"></path>
<g class="non-terminal">
<path d="M784 987h0"></path>
<path d="M863.5 987h344.5"></path>
<rect x="784" y="976" width="79.5" height="22"></rect>
<a xlink:href="#/abap/expression/SQLCase"><text x="823.75" y="991">SQLCase</text>
</a>
</g>
<path d="M1208 987a10 10 0 0 0 10 -10v-10a10 10 0 0 1 10 -10"></path>
<path d="M764 957a10 10 0 0 1 10 10v40a10 10 0 0 0 10 10"></path>
<g class="non-terminal">
<path d="M784 1017h0"></path>
<path d="M863.5 1017h344.5"></path>
<rect x="784" y="1006" width="79.5" height="22"></rect>
<a xlink:href="#/abap/expression/SQLCast"><text x="823.75" y="1021">SQLCast</text>
</a>
</g>
<path d="M1208 1017a10 10 0 0 0 10 -10v-40a10 10 0 0 1 10 -10"></path>
<path d="M764 957a10 10 0 0 1 10 10v70a10 10 0 0 0 10 10"></path>
<g class="non-terminal">
<path d="M784 1047h0"></path>
<path d="M897.5 1047h310.5"></path>
<rect x="784" y="1036" width="113.5" height="22"></rect>
<a xlink:href="#/abap/expression/SQLFunction"><text x="840.75" y="1051">SQLFunction</text>
</a>
</g>
<path d="M1208 1047a10 10 0 0 0 10 -10v-70a10 10 0 0 1 10 -10"></path>
<path d="M764 957a10 10 0 0 1 10 10v100a10 10 0 0 0 10 10"></path>
<g class="non-terminal">
<path d="M784 1077h0"></path>
<path d="M863.5 1077h344.5"></path>
<rect x="784" y="1066" width="79.5" height="22"></rect>
<a xlink:href="#/abap/expression/SQLPath"><text x="823.75" y="1081">SQLPath</text>
</a>
</g>
<path d="M1208 1077a10 10 0 0 0 10 -10v-100a10 10 0 0 1 10 -10"></path>
<path d="M764 957a10 10 0 0 1 10 10v130a10 10 0 0 0 10 10"></path>
<g class="non-terminal">
<path d="M784 1107h0"></path>
<path d="M906 1107h302"></path>
<rect x="784" y="1096" width="122" height="22"></rect>
<a xlink:href="#/abap/expression/SQLFieldName"><text x="845" y="1111">SQLFieldName</text>
</a>
</g>
<path d="M1208 1107a10 10 0 0 0 10 -10v-130a10 10 0 0 1 10 -10"></path>
<path d="M764 957a10 10 0 0 1 10 10v160a10 10 0 0 0 10 10"></path>
<g>
<path d="M784 1137h0"></path>
<path d="M1208 1137h0"></path>
<g>
<path d="M784 1137h0"></path>
<path d="M941 1137h0"></path>
<text x="862.5" y="1142" class="comment">v740sp05 or open-abap</text>
</g>
<path d="M941 1137h10"></path>
<path d="M951 1137h10"></path>
<g>
<path d="M961 1137h0"></path>
<path d="M1208 1137h0"></path>
<g class="terminal">
<path d="M961 1137h0"></path>
<path d="M1023.5 1137h0"></path>
<rect x="961" y="1126" width="62.5" height="22" rx="10" ry="10"></rect>
<text x="992.25" y="1141">!" @"</text>
</g>
<path d="M1023.5 1137h10"></path>
<path d="M1033.5 1137h10"></path>
<g class="non-terminal">
<path d="M1043.5 1137h0"></path>
<path d="M1208 1137h0"></path>
<rect x="1043.5" y="1126" width="164.5" height="22"></rect>
<a xlink:href="#/abap/expression/SimpleFieldChain2"><text x="1125.75" y="1141">SimpleFieldChain2</text>
</a>
</g>
</g>
</g>
<path d="M1208 1137a10 10 0 0 0 10 -10v-160a10 10 0 0 1 10 -10"></path>
<path d="M764 957a10 10 0 0 1 10 10v190a10 10 0 0 0 10 10"></path>
<g class="non-terminal">
<path d="M784 1167h0"></path>
<path d="M872 1167h336"></path>
<rect x="784" y="1156" width="88" height="22"></rect>
<a xlink:href="#/abap/expression/Constant"><text x="828" y="1171">Constant</text>
</a>
</g>
<path d="M1208 1167a10 10 0 0 0 10 -10v-190a10 10 0 0 1 10 -10"></path>
<path d="M764 957a10 10 0 0 1 10 10v220a10 10 0 0 0 10 10"></path>
<g>
<path d="M784 1197h0"></path>
<path d="M1118 1197h90"></path>
<g class="terminal">
<path d="M784 1197h0"></path>
<path d="M855 1197h0"></path>
<rect x="784" y="1186" width="71" height="22" rx="10" ry="10"></rect>
<text x="819.5" y="1201">!" ( "</text>
</g>
<path d="M855 1197h10"></path>
<path d="M865 1197h10"></path>
<g class="non-terminal">
<path d="M875 1197h0"></path>
<path d="M997 1197h0"></path>
<rect x="875" y="1186" width="122" height="22"></rect>
<a xlink:href="#/abap/expression/SQLFieldName"><text x="936" y="1201">SQLFieldName</text>
</a>
</g>
<path d="M997 1197h10"></path>
<g>
<path d="M1007 1197h0"></path>
<path d="M1118 1197h0"></path>
<path d="M1007 1197h20"></path>
<g class="terminal">
<path d="M1027 1197h0"></path>
<path d="M1098 1197h0"></path>
<rect x="1027" y="1186" width="71" height="22" rx="10" ry="10"></rect>
<text x="1062.5" y="1201">!" ) "</text>
</g>
<path d="M1098 1197h20"></path>
<path d="M1007 1197a10 10 0 0 1 10 10v10a10 10 0 0 0 10 10"></path>
<g class="terminal">
<path d="M1027 1227h0"></path>
<path d="M1089.5 1227h8.5"></path>
<rect x="1027" y="1216" width="62.5" height="22" rx="10" ry="10"></rect>
<text x="1058.25" y="1231">!" )"</text>
</g>
<path d="M1098 1227a10 10 0 0 0 10 -10v-10a10 10 0 0 1 10 -10"></path>
</g>
</g>
<path d="M1208 1197a10 10 0 0 0 10 -10v-220a10 10 0 0 1 10 -10"></path>
</g>
<path d="M1390 957a10 10 0 0 0 10 -10v-280a10 10 0 0 1 10 -10"></path>
</g>
</g>
<path d="M1410 657h10"></path>
<path d="M650 657a10 10 0 0 0 -10 10v569a10 10 0 0 0 10 10"></path>
<g>
<path d="M650 1246h760"></path>
</g>
<path d="M1410 1246a10 10 0 0 0 10 -10v-569a10 10 0 0 0 -10 -10"></path>
</g>
</g>
<path d="M1420 657h20"></path>
</g>
</g>
<path d="M1622 657a10 10 0 0 0 10 -10v-597a10 10 0 0 1 10 -10"></path>
</g>
<g>
<path d="M1642 40h0"></path>
<path d="M1852.5 40h0"></path>
<path d="M1642 40a10 10 0 0 0 10 -10v0a10 10 0 0 1 10 -10"></path>
<g>
<path d="M1662 20h170.5"></path>
</g>
<path d="M1832.5 20a10 10 0 0 1 10 10v0a10 10 0 0 0 10 10"></path>
<path d="M1642 40h20"></path>
<g>
<path d="M1662 40h0"></path>
<path d="M1832.5 40h0"></path>
<g class="terminal">
<path d="M1662 40h0"></path>
<path d="M1716 40h0"></path>
<rect x="1662" y="29" width="54" height="22" rx="10" ry="10"></rect>
<text x="1689" y="44">"AS"</text>
</g>
<path d="M1716 40h10"></path>
<path d="M1726 40h10"></path>
<g class="non-terminal">
<path d="M1736 40h0"></path>
<path d="M1832.5 40h0"></path>
<rect x="1736" y="29" width="96.5" height="22"></rect>
<a xlink:href="#/abap/expression/SQLAsName"><text x="1784.25" y="44">SQLAsName</text>
</a>
</g>
</g>
<path d="M1832.5 40h20"></path>
</g>
</g>
<path d="M1852.5 40h10"></path>
<path d="M 1862.5 40 h 20 m 0 -10 v 20"></path>
</g>
</svg>
