<svg xmlns="http://www.w3.org/2000/svg" xmlns:xlink="http://www.w3.org/1999/xlink" class="railroad-diagram" width="445" height="71" viewBox="0 0 445 71">
<defs>
<style type="text/css"><![CDATA[
path {
stroke-width: 3;
stroke: black;
fill: rgba(0,0,0,0);
}
text {
font: bold 14px monospace;
text-anchor: middle;
}
text.diagram-text {
font-size: 12px;
}
a {
fill: blue;
}
text.diagram-arrow {
font-size: 16px;
}
text.label {
text-anchor: start;
}
text.comment {
font: italic 12px monospace;
}
rect {
stroke-width: 3;
stroke: black;
fill: #BCBCBC;
}
path.diagram-text {
stroke-width: 3;
stroke: black;
fill: #BCBCBC;
cursor: help;
}
]]></style>
</defs>
<g transform="translate(.5 .5)">
<g>
<path d="M20 30v20m0 -10h20"></path>
</g>
<path d="M40 40h10"></path>
<g>
<path d="M50 40h0"></path>
<path d="M395 40h0"></path>
<g class="non-terminal">
<path d="M50 40h0"></path>
<path d="M121 40h0"></path>
<rect x="50" y="29" width="71" height="22"></rect>
<a xlink:href="#/abap/expression/Source"><text x="85.5" y="44">Source</text>
</a>
</g>
<path d="M121 40h10"></path>
<g>
<path d="M131 40h0"></path>
<path d="M395 40h0"></path>
<path d="M131 40a10 10 0 0 0 10 -10v0a10 10 0 0 1 10 -10"></path>
<g>
<path d="M151 20h224"></path>
</g>
<path d="M375 20a10 10 0 0 1 10 10v0a10 10 0 0 0 10 10"></path>
<path d="M131 40h20"></path>
<g class="non-terminal">
<path d="M151 40h0"></path>
<path d="M375 40h0"></path>
<rect x="151" y="29" width="224" height="22"></rect>
<a xlink:href="#/abap/expression/StringTemplateFormatting"><text x="263" y="44">StringTemplateFormatting</text>
</a>
</g>
<path d="M375 40h20"></path>
</g>
</g>
<path d="M395 40h10"></path>
<path d="M 405 40 h 20 m 0 -10 v 20"></path>
</g>
</svg>
