<svg xmlns="http://www.w3.org/2000/svg" xmlns:xlink="http://www.w3.org/1999/xlink" class="railroad-diagram" width="1891.5" height="139" viewBox="0 0 1891.5 139">
<defs>
<style type="text/css"><![CDATA[
path {
stroke-width: 3;
stroke: black;
fill: rgba(0,0,0,0);
}
text {
font: bold 14px monospace;
text-anchor: middle;
}
text.diagram-text {
font-size: 12px;
}
a {
fill: blue;
}
text.diagram-arrow {
font-size: 16px;
}
text.label {
text-anchor: start;
}
text.comment {
font: italic 12px monospace;
}
rect {
stroke-width: 3;
stroke: black;
fill: #BCBCBC;
}
path.diagram-text {
stroke-width: 3;
stroke: black;
fill: #BCBCBC;
cursor: help;
}
]]></style>
</defs>
<g transform="translate(.5 .5)">
<g>
<path d="M20 38v20m0 -10h20"></path>
</g>
<path d="M40 48h10"></path>
<g>
<path d="M50 48h0"></path>
<path d="M1841.5 48h0"></path>
<g class="comment ">
<path d="M50 48h0"></path>
<path d="M88 48h0"></path>
<text x="69" y="53" class="comment">7.62</text>
</g>
<path d="M88 48h10"></path>
<path d="M98 48h10"></path>
<g>
<path d="M108 48h0"></path>
<path d="M1841.5 48h0"></path>
<g>
<path d="M108 48h0"></path>
<path d="M363.5 48h0"></path>
<path d="M108 48h20"></path>
<g class="terminal ">
<path d="M128 48h0"></path>
<path d="M343.5 48h0"></path>
<rect x="128" y="37" width="215.5" height="22" rx="10" ry="10"></rect>
<text x="235.75" y="52">"HIERARCHY&#95;DESCENDANTS"</text>
</g>
<path d="M343.5 48h20"></path>
<path d="M108 48a10 10 0 0 1 10 10v10a10 10 0 0 0 10 10"></path>
<g class="terminal ">
<path d="M128 78h8.5"></path>
<path d="M335 78h8.5"></path>
<rect x="136.5" y="67" width="198.5" height="22" rx="10" ry="10"></rect>
<text x="235.75" y="82">"HIERARCHY&#95;ANCESTORS"</text>
</g>
<path d="M343.5 78a10 10 0 0 0 10 -10v-10a10 10 0 0 1 10 -10"></path>
<path d="M108 48a10 10 0 0 1 10 10v40a10 10 0 0 0 10 10"></path>
<g class="terminal ">
<path d="M128 108h12.75"></path>
<path d="M330.75 108h12.75"></path>
<rect x="140.75" y="97" width="190" height="22" rx="10" ry="10"></rect>
<text x="235.75" y="112">"HIERARCHY&#95;SIBLINGS"</text>
</g>
<path d="M343.5 108a10 10 0 0 0 10 -10v-40a10 10 0 0 1 10 -10"></path>
</g>
<path d="M363.5 48h10"></path>
<g class="terminal ">
<path d="M373.5 48h0"></path>
<path d="M504 48h0"></path>
<rect x="373.5" y="37" width="130.5" height="22" rx="10" ry="10"></rect>
<text x="438.75" y="52">!"ParenLeftW"</text>
</g>
<path d="M504 48h10"></path>
<path d="M514 48h10"></path>
<g>
<path d="M524 48h0"></path>
<path d="M1674 48h0"></path>
<g class="terminal ">
<path d="M524 48h0"></path>
<path d="M612 48h0"></path>
<rect x="524" y="37" width="88" height="22" rx="10" ry="10"></rect>
<text x="568" y="52">"SOURCE"</text>
</g>
<path d="M612 48h10"></path>
<path d="M622 48h10"></path>
<g class="non-terminal ">
<path d="M632 48h0"></path>
<path d="M762.5 48h0"></path>
<rect x="632" y="37" width="130.5" height="22"></rect>
<a xlink:href="#/abap/expression/DatabaseTable"><text x="697.25" y="52">DatabaseTable</text>
</a>
</g>
<path d="M762.5 48h10"></path>
<path d="M772.5 48h10"></path>
<g class="terminal ">
<path d="M782.5 48h0"></path>
<path d="M862 48h0"></path>
<rect x="782.5" y="37" width="79.5" height="22" rx="10" ry="10"></rect>
<text x="822.25" y="52">"START"</text>
</g>
<path d="M862 48h10"></path>
<path d="M872 48h10"></path>
<g class="terminal ">
<path d="M882 48h0"></path>
<path d="M961.5 48h0"></path>
<rect x="882" y="37" width="79.5" height="22" rx="10" ry="10"></rect>
<text x="921.75" y="52">"WHERE"</text>
</g>
<path d="M961.5 48h10"></path>
<path d="M971.5 48h10"></path>
<g class="non-terminal ">
<path d="M981.5 48h0"></path>
<path d="M1061 48h0"></path>
<rect x="981.5" y="37" width="79.5" height="22"></rect>
<a xlink:href="#/abap/expression/SQLCond"><text x="1021.25" y="52">SQLCond</text>
</a>
</g>
<path d="M1061 48h10"></path>
<g>
<path d="M1071 48h0"></path>
<path d="M1674 48h0"></path>
<path d="M1071 48a10 10 0 0 0 10 -10v-8a10 10 0 0 1 10 -10"></path>
<g>
<path d="M1091 20h563"></path>
</g>
<path d="M1654 20a10 10 0 0 1 10 10v8a10 10 0 0 0 10 10"></path>
<path d="M1071 48h20"></path>
<g>
<path d="M1091 48h0"></path>
<path d="M1654 48h0"></path>
<g class="terminal ">
<path d="M1091 48h0"></path>
<path d="M1196 48h0"></path>
<rect x="1091" y="37" width="105" height="22" rx="10" ry="10"></rect>
<text x="1143.5" y="52">"DISTANCE"</text>
</g>
<path d="M1196 48h10"></path>
<g>
<path d="M1206 48h0"></path>
<path d="M1654 48h0"></path>
<path d="M1206 48h20"></path>
<g>
<path d="M1226 48h0"></path>
<path d="M1634 48h0"></path>
<g class="terminal ">
<path d="M1226 48h0"></path>
<path d="M1297 48h0"></path>
<rect x="1226" y="37" width="71" height="22" rx="10" ry="10"></rect>
<text x="1261.5" y="52">"FROM"</text>
</g>
<path d="M1297 48h10"></path>
<path d="M1307 48h10"></path>
<g class="non-terminal ">
<path d="M1317 48h0"></path>
<path d="M1413.5 48h0"></path>
<rect x="1317" y="37" width="96.5" height="22"></rect>
<a xlink:href="#/abap/expression/SQLSource"><text x="1365.25" y="52">SQLSource</text>
</a>
</g>
<path d="M1413.5 48h10"></path>
<g>
<path d="M1423.5 48h0"></path>
<path d="M1634 48h0"></path>
<path d="M1423.5 48a10 10 0 0 0 10 -10v0a10 10 0 0 1 10 -10"></path>
<g>
<path d="M1443.5 28h170.5"></path>
</g>
<path d="M1614 28a10 10 0 0 1 10 10v0a10 10 0 0 0 10 10"></path>
<path d="M1423.5 48h20"></path>
<g>
<path d="M1443.5 48h0"></path>
<path d="M1614 48h0"></path>
<g class="terminal ">
<path d="M1443.5 48h0"></path>
<path d="M1497.5 48h0"></path>
<rect x="1443.5" y="37" width="54" height="22" rx="10" ry="10"></rect>
<text x="1470.5" y="52">"TO"</text>
</g>
<path d="M1497.5 48h10"></path>
<path d="M1507.5 48h10"></path>
<g class="non-terminal ">
<path d="M1517.5 48h0"></path>
<path d="M1614 48h0"></path>
<rect x="1517.5" y="37" width="96.5" height="22"></rect>
<a xlink:href="#/abap/expression/SQLSource"><text x="1565.75" y="52">SQLSource</text>
</a>
</g>
</g>
<path d="M1614 48h20"></path>
</g>
</g>
<path d="M1634 48h20"></path>
<path d="M1206 48a10 10 0 0 1 10 10v10a10 10 0 0 0 10 10"></path>
<g>
<path d="M1226 78h118.75"></path>
<path d="M1515.25 78h118.75"></path>
<g class="terminal ">
<path d="M1344.75 78h0"></path>
<path d="M1398.75 78h0"></path>
<rect x="1344.75" y="67" width="54" height="22" rx="10" ry="10"></rect>
<text x="1371.75" y="82">"TO"</text>
</g>
<path d="M1398.75 78h10"></path>
<path d="M1408.75 78h10"></path>
<g class="non-terminal ">
<path d="M1418.75 78h0"></path>
<path d="M1515.25 78h0"></path>
<rect x="1418.75" y="67" width="96.5" height="22"></rect>
<a xlink:href="#/abap/expression/SQLSource"><text x="1467" y="82">SQLSource</text>
</a>
</g>
</g>
<path d="M1634 78a10 10 0 0 0 10 -10v-10a10 10 0 0 1 10 -10"></path>
</g>
</g>
<path d="M1654 48h20"></path>
</g>
</g>
<path d="M1674 48h10"></path>
<path d="M1684 48h10"></path>
<g class="terminal ">
<path d="M1694 48h0"></path>
<path d="M1841.5 48h0"></path>
<rect x="1694" y="37" width="147.5" height="22" rx="10" ry="10"></rect>
<text x="1767.75" y="52">!"WParenRightW"</text>
</g>
</g>
</g>
<path d="M1841.5 48h10"></path>
<path d="M 1851.5 48 h 20 m 0 -10 v 20"></path>
</g>
</svg>
