<svg xmlns="http://www.w3.org/2000/svg" xmlns:xlink="http://www.w3.org/1999/xlink" class="railroad-diagram" width="373" height="131" viewBox="0 0 373 131">
<defs>
<style type="text/css"><![CDATA[
path {
stroke-width: 3;
stroke: black;
fill: rgba(0,0,0,0);
}
text {
font: bold 14px monospace;
text-anchor: middle;
}
text.diagram-text {
font-size: 12px;
}
a {
fill: blue;
}
text.diagram-arrow {
font-size: 16px;
}
text.label {
text-anchor: start;
}
text.comment {
font: italic 12px monospace;
}
rect {
stroke-width: 3;
stroke: black;
fill: #BCBCBC;
}
path.diagram-text {
stroke-width: 3;
stroke: black;
fill: #BCBCBC;
cursor: help;
}
]]></style>
</defs>
<g transform="translate(.5 .5)">
<g>
<path d="M20 30v20m0 -10h20"></path>
</g>
<g>
<path d="M40 40h0"></path>
<path d="M333 40h0"></path>
<path d="M40 40a10 10 0 0 0 10 -10v0a10 10 0 0 1 10 -10"></path>
<g>
<path d="M60 20h253"></path>
</g>
<path d="M313 20a10 10 0 0 1 10 10v0a10 10 0 0 0 10 10"></path>
<path d="M40 40h20"></path>
<g>
<path d="M60 40h0"></path>
<path d="M313 40h0"></path>
<path d="M60 40h20"></path>
<g class="terminal ">
<path d="M80 40h66.75"></path>
<path d="M226.25 40h66.75"></path>
<rect x="146.75" y="29" width="79.5" height="22" rx="10" ry="10"></rect>
<text x="186.5" y="44">"REGEX"</text>
</g>
<path d="M293 40h20"></path>
<path d="M60 40a10 10 0 0 1 10 10v10a10 10 0 0 0 10 10"></path>
<g class="terminal ">
<path d="M80 70h49.75"></path>
<path d="M243.25 70h49.75"></path>
<rect x="129.75" y="59" width="113.5" height="22" rx="10" ry="10"></rect>
<text x="186.5" y="74">"SUBSTRING"</text>
</g>
<path d="M293 70a10 10 0 0 0 10 -10v-10a10 10 0 0 1 10 -10"></path>
<path d="M60 40a10 10 0 0 1 10 10v40a10 10 0 0 0 10 10"></path>
<g>
<path d="M80 100h0"></path>
<path d="M293 100h0"></path>
<g class="comment ">
<path d="M80 100h0"></path>
<path d="M202 100h0"></path>
<text x="141" y="105" class="comment">7.81 or OpenABAP</text>
</g>
<path d="M202 100h10"></path>
<path d="M212 100h10"></path>
<g class="terminal ">
<path d="M222 100h0"></path>
<path d="M293 100h0"></path>
<rect x="222" y="89" width="71" height="22" rx="10" ry="10"></rect>
<text x="257.5" y="104">"PCRE"</text>
</g>
</g>
<path d="M293 100a10 10 0 0 0 10 -10v-40a10 10 0 0 1 10 -10"></path>
</g>
<path d="M313 40h20"></path>
</g>
<path d="M 333 40 h 20 m 0 -10 v 20"></path>
</g>
</svg>
