<svg xmlns="http://www.w3.org/2000/svg" xmlns:xlink="http://www.w3.org/1999/xlink" class="railroad-diagram" width="1129.5" height="191" viewBox="0 0 1129.5 191">
<defs>
<style type="text/css"><![CDATA[
path {
stroke-width: 3;
stroke: black;
fill: rgba(0,0,0,0);
}
text {
font: bold 14px monospace;
text-anchor: middle;
}
text.diagram-text {
font-size: 12px;
}
a {
fill: blue;
}
text.diagram-arrow {
font-size: 16px;
}
text.label {
text-anchor: start;
}
text.comment {
font: italic 12px monospace;
}
rect {
stroke-width: 3;
stroke: black;
fill: #BCBCBC;
}
path.diagram-text {
stroke-width: 3;
stroke: black;
fill: #BCBCBC;
cursor: help;
}
]]></style>
</defs>
<g transform="translate(.5 .5)">
<g>
<path d="M20 30v20m0 -10h20"></path>
</g>
<path d="M40 40h10"></path>
<g>
<path d="M50 40h0"></path>
<path d="M1079.5 40h0"></path>
<g>
<path d="M50 40h0"></path>
<path d="M419.5 40h0"></path>
<path d="M50 40h20"></path>
<g>
<path d="M70 40h0"></path>
<path d="M387 40h12.5"></path>
<g>
<path d="M70 40h0"></path>
<path d="M206.5 40h0"></path>
<path d="M70 40h20"></path>
<g class="non-terminal">
<path d="M90 40h0"></path>
<path d="M144 40h42.5"></path>
<rect x="90" y="29" width="54" height="22"></rect>
<a xlink:href="#/abap/expression/Cast"><text x="117" y="44">Cast</text>
</a>
</g>
<path d="M186.5 40h20"></path>
<path d="M70 40a10 10 0 0 1 10 10v10a10 10 0 0 0 10 10"></path>
<g class="non-terminal">
<path d="M90 70h0"></path>
<path d="M186.5 70h0"></path>
<rect x="90" y="59" width="96.5" height="22"></rect>
<a xlink:href="#/abap/expression/NewObject"><text x="138.25" y="74">NewObject</text>
</a>
</g>
<path d="M186.5 70a10 10 0 0 0 10 -10v-10a10 10 0 0 1 10 -10"></path>
</g>
<path d="M206.5 40h10"></path>
<g class="non-terminal">
<path d="M216.5 40h0"></path>
<path d="M279 40h0"></path>
<rect x="216.5" y="29" width="62.5" height="22"></rect>
<a xlink:href="#/abap/expression/Arrow"><text x="247.75" y="44">Arrow</text>
</a>
</g>
<path d="M279 40h10"></path>
<path d="M289 40h10"></path>
<g class="non-terminal">
<path d="M299 40h0"></path>
<path d="M387 40h0"></path>
<rect x="299" y="29" width="88" height="22"></rect>
<a xlink:href="#/abap/expression/FieldAll"><text x="343" y="44">FieldAll</text>
</a>
</g>
</g>
<path d="M399.5 40h20"></path>
<path d="M50 40a10 10 0 0 1 10 10v40a10 10 0 0 0 10 10"></path>
<g>
<path d="M70 100h0"></path>
<path d="M399.5 100h0"></path>
<g class="non-terminal">
<path d="M70 100h0"></path>
<path d="M166.5 100h0"></path>
<rect x="70" y="89" width="96.5" height="22"></rect>
<a xlink:href="#/abap/expression/ClassName"><text x="118.25" y="104">ClassName</text>
</a>
</g>
<path d="M166.5 100h10"></path>
<path d="M176.5 100h10"></path>
<g class="terminal">
<path d="M186.5 100h0"></path>
<path d="M249 100h0"></path>
<rect x="186.5" y="89" width="62.5" height="22" rx="10" ry="10"></rect>
<text x="217.75" y="104">!"=>"</text>
</g>
<path d="M249 100h10"></path>
<path d="M259 100h10"></path>
<g class="non-terminal">
<path d="M269 100h0"></path>
<path d="M399.5 100h0"></path>
<rect x="269" y="89" width="130.5" height="22"></rect>
<a xlink:href="#/abap/expression/AttributeName"><text x="334.25" y="104">AttributeName</text>
</a>
</g>
</g>
<path d="M399.5 100a10 10 0 0 0 10 -10v-40a10 10 0 0 1 10 -10"></path>
<path d="M50 40a10 10 0 0 1 10 10v70a10 10 0 0 0 10 10"></path>
<g class="non-terminal">
<path d="M70 130h0"></path>
<path d="M183.5 130h216"></path>
<rect x="70" y="119" width="113.5" height="22"></rect>
<a xlink:href="#/abap/expression/TargetField"><text x="126.75" y="134">TargetField</text>
</a>
</g>
<path d="M399.5 130a10 10 0 0 0 10 -10v-70a10 10 0 0 1 10 -10"></path>
<path d="M50 40a10 10 0 0 1 10 10v100a10 10 0 0 0 10 10"></path>
<g class="non-terminal">
<path d="M70 160h0"></path>
<path d="M234.5 160h165"></path>
<rect x="70" y="149" width="164.5" height="22"></rect>
<a xlink:href="#/abap/expression/TargetFieldSymbol"><text x="152.25" y="164">TargetFieldSymbol</text>
</a>
</g>
<path d="M399.5 160a10 10 0 0 0 10 -10v-100a10 10 0 0 1 10 -10"></path>
</g>
<g>
<path d="M419.5 40h0"></path>
<path d="M732.5 40h0"></path>
<path d="M419.5 40a10 10 0 0 0 10 -10v0a10 10 0 0 1 10 -10"></path>
<g>
<path d="M439.5 20h273"></path>
</g>
<path d="M712.5 20a10 10 0 0 1 10 10v0a10 10 0 0 0 10 10"></path>
<path d="M419.5 40h20"></path>
<g>
<path d="M439.5 40h0"></path>
<path d="M712.5 40h0"></path>
<path d="M439.5 40h10"></path>
<g>
<path d="M449.5 40h0"></path>
<path d="M702.5 40h0"></path>
<path d="M449.5 40h20"></path>
<g class="non-terminal">
<path d="M469.5 40h0"></path>
<path d="M583 40h99.5"></path>
<rect x="469.5" y="29" width="113.5" height="22"></rect>
<a xlink:href="#/abap/expression/Dereference"><text x="526.25" y="44">Dereference</text>
</a>
</g>
<path d="M682.5 40h20"></path>
<path d="M449.5 40a10 10 0 0 1 10 10v10a10 10 0 0 0 10 10"></path>
<g>
<path d="M469.5 70h0"></path>
<path d="M682.5 70h0"></path>
<g class="terminal">
<path d="M469.5 70h0"></path>
<path d="M532 70h0"></path>
<rect x="469.5" y="59" width="62.5" height="22" rx="10" ry="10"></rect>
<text x="500.75" y="74">!"->"</text>
</g>
<path d="M532 70h10"></path>
<path d="M542 70h10"></path>
<g class="non-terminal">
<path d="M552 70h0"></path>
<path d="M682.5 70h0"></path>
<rect x="552" y="59" width="130.5" height="22"></rect>
<a xlink:href="#/abap/expression/AttributeName"><text x="617.25" y="74">AttributeName</text>
</a>
</g>
</g>
<path d="M682.5 70a10 10 0 0 0 10 -10v-10a10 10 0 0 1 10 -10"></path>
<path d="M449.5 40a10 10 0 0 1 10 10v40a10 10 0 0 0 10 10"></path>
<g>
<path d="M469.5 100h0"></path>
<path d="M674 100h8.5"></path>
<g class="terminal">
<path d="M469.5 100h0"></path>
<path d="M523.5 100h0"></path>
<rect x="469.5" y="89" width="54" height="22" rx="10" ry="10"></rect>
<text x="496.5" y="104">!"-"</text>
</g>
<path d="M523.5 100h10"></path>
<path d="M533.5 100h10"></path>
<g class="non-terminal">
<path d="M543.5 100h0"></path>
<path d="M674 100h0"></path>
<rect x="543.5" y="89" width="130.5" height="22"></rect>
<a xlink:href="#/abap/expression/ComponentName"><text x="608.75" y="104">ComponentName</text>
</a>
</g>
</g>
<path d="M682.5 100a10 10 0 0 0 10 -10v-40a10 10 0 0 1 10 -10"></path>
<path d="M449.5 40a10 10 0 0 1 10 10v70a10 10 0 0 0 10 10"></path>
<g class="non-terminal">
<path d="M469.5 130h0"></path>
<path d="M617 130h65.5"></path>
<rect x="469.5" y="119" width="147.5" height="22"></rect>
<a xlink:href="#/abap/expression/TableExpression"><text x="543.25" y="134">TableExpression</text>
</a>
</g>
<path d="M682.5 130a10 10 0 0 0 10 -10v-70a10 10 0 0 1 10 -10"></path>
</g>
<path d="M702.5 40h10"></path>
<path d="M449.5 40a10 10 0 0 0 -10 10v89a10 10 0 0 0 10 10"></path>
<g>
<path d="M449.5 149h253"></path>
</g>
<path d="M702.5 149a10 10 0 0 0 10 -10v-89a10 10 0 0 0 -10 -10"></path>
</g>
<path d="M712.5 40h20"></path>
</g>
<g>
<path d="M732.5 40h0"></path>
<path d="M1079.5 40h0"></path>
<path d="M732.5 40h20"></path>
<g class="non-terminal">
<path d="M752.5 40h0"></path>
<path d="M849 40h210.5"></path>
<rect x="752.5" y="29" width="96.5" height="22"></rect>
<a xlink:href="#/abap/expression/TableBody"><text x="800.75" y="44">TableBody</text>
</a>
</g>
<path d="M1059.5 40h20"></path>
<path d="M732.5 40a10 10 0 0 1 10 10v19a10 10 0 0 0 10 10"></path>
<g>
<path d="M752.5 79h0"></path>
<path d="M1059.5 79h0"></path>
<g>
<path d="M752.5 79h0"></path>
<path d="M906 79h0"></path>
<path d="M752.5 79a10 10 0 0 0 10 -10v0a10 10 0 0 1 10 -10"></path>
<g>
<path d="M772.5 59h113.5"></path>
</g>
<path d="M886 59a10 10 0 0 1 10 10v0a10 10 0 0 0 10 10"></path>
<path d="M752.5 79h20"></path>
<g class="non-terminal">
<path d="M772.5 79h0"></path>
<path d="M886 79h0"></path>
<rect x="772.5" y="68" width="113.5" height="22"></rect>
<a xlink:href="#/abap/expression/FieldOffset"><text x="829.25" y="83">FieldOffset</text>
</a>
</g>
<path d="M886 79h20"></path>
</g>
<g>
<path d="M906 79h0"></path>
<path d="M1059.5 79h0"></path>
<path d="M906 79a10 10 0 0 0 10 -10v0a10 10 0 0 1 10 -10"></path>
<g>
<path d="M926 59h113.5"></path>
</g>
<path d="M1039.5 59a10 10 0 0 1 10 10v0a10 10 0 0 0 10 10"></path>
<path d="M906 79h20"></path>
<g class="non-terminal">
<path d="M926 79h0"></path>
<path d="M1039.5 79h0"></path>
<rect x="926" y="68" width="113.5" height="22"></rect>
<a xlink:href="#/abap/expression/FieldLength"><text x="982.75" y="83">FieldLength</text>
</a>
</g>
<path d="M1039.5 79h20"></path>
</g>
</g>
<path d="M1059.5 79a10 10 0 0 0 10 -10v-19a10 10 0 0 1 10 -10"></path>
</g>
</g>
<path d="M1079.5 40h10"></path>
<path d="M 1089.5 40 h 20 m 0 -10 v 20"></path>
</g>
</svg>
