<svg xmlns="http://www.w3.org/2000/svg" xmlns:xlink="http://www.w3.org/1999/xlink" class="railroad-diagram" width="1632.5" height="1100" viewBox="0 0 1632.5 1100">
<defs>
<style type="text/css"><![CDATA[
path {
stroke-width: 3;
stroke: black;
fill: rgba(0,0,0,0);
}
text {
font: bold 14px monospace;
text-anchor: middle;
}
text.diagram-text {
font-size: 12px;
}
a {
fill: blue;
}
text.diagram-arrow {
font-size: 16px;
}
text.label {
text-anchor: start;
}
text.comment {
font: italic 12px monospace;
}
rect {
stroke-width: 3;
stroke: black;
fill: #BCBCBC;
}
path.diagram-text {
stroke-width: 3;
stroke: black;
fill: #BCBCBC;
cursor: help;
}
]]></style>
</defs>
<g transform="translate(.5 .5)">
<g>
<path d="M20 30v20m0 -10h20"></path>
</g>
<path d="M40 40h10"></path>
<g>
<path d="M50 40h0"></path>
<path d="M1582.5 40h0"></path>
<g>
<path d="M50 40h0"></path>
<path d="M246.5 40h0"></path>
<path d="M50 40a10 10 0 0 0 10 -10v0a10 10 0 0 1 10 -10"></path>
<g>
<path d="M70 20h156.5"></path>
</g>
<path d="M226.5 20a10 10 0 0 1 10 10v0a10 10 0 0 0 10 10"></path>
<path d="M50 40h20"></path>
<g>
<path d="M70 40h0"></path>
<path d="M226.5 40h0"></path>
<path d="M70 40h10"></path>
<g>
<path d="M80 40h0"></path>
<path d="M216.5 40h0"></path>
<path d="M80 40h20"></path>
<g class="terminal ">
<path d="M100 40h0"></path>
<path d="M196.5 40h0"></path>
<rect x="100" y="29" width="96.5" height="22" rx="10" ry="10"></rect>
<text x="148.25" y="44">!"WDashW"</text>
</g>
<path d="M196.5 40h20"></path>
<path d="M80 40a10 10 0 0 1 10 10v10a10 10 0 0 0 10 10"></path>
<g class="terminal ">
<path d="M100 70h0"></path>
<path d="M196.5 70h0"></path>
<rect x="100" y="59" width="96.5" height="22" rx="10" ry="10"></rect>
<text x="148.25" y="74">!"WPlusW"</text>
</g>
<path d="M196.5 70a10 10 0 0 0 10 -10v-10a10 10 0 0 1 10 -10"></path>
</g>
<path d="M216.5 40h10"></path>
<path d="M80 40a10 10 0 0 0 -10 10v29a10 10 0 0 0 10 10"></path>
<g>
<path d="M80 89h136.5"></path>
</g>
<path d="M216.5 89a10 10 0 0 0 10 -10v-29a10 10 0 0 0 -10 -10"></path>
</g>
<path d="M226.5 40h20"></path>
</g>
<g>
<path d="M246.5 40h0"></path>
<path d="M1582.5 40h0"></path>
<path d="M246.5 40h20"></path>
<g>
<path d="M266.5 40h210.25"></path>
<path d="M1352.25 40h210.25"></path>
<g class="comment ">
<path d="M476.75 40h0"></path>
<path d="M633.75 40h0"></path>
<text x="555.25" y="45" class="comment">v740sp08 or open-abap</text>
</g>
<path d="M633.75 40h10"></path>
<path d="M643.75 40h10"></path>
<g>
<path d="M653.75 40h0"></path>
<path d="M1352.25 40h0"></path>
<g class="terminal ">
<path d="M653.75 40h0"></path>
<path d="M741.75 40h0"></path>
<rect x="653.75" y="29" width="88" height="22" rx="10" ry="10"></rect>
<text x="697.75" y="44">"FILTER"</text>
</g>
<path d="M741.75 40h10"></path>
<path d="M751.75 40h10"></path>
<g class="non-terminal ">
<path d="M761.75 40h0"></path>
<path d="M909.25 40h0"></path>
<rect x="761.75" y="29" width="147.5" height="22"></rect>
<a xlink:href="#/abap/expression/TypeNameOrInfer"><text x="835.5" y="44">TypeNameOrInfer</text>
</a>
</g>
<path d="M909.25 40h10"></path>
<path d="M919.25 40h10"></path>
<g class="terminal ">
<path d="M929.25 40h0"></path>
<path d="M1059.75 40h0"></path>
<rect x="929.25" y="29" width="130.5" height="22" rx="10" ry="10"></rect>
<text x="994.5" y="44">!"ParenLeftW"</text>
</g>
<path d="M1059.75 40h10"></path>
<path d="M1069.75 40h10"></path>
<g class="non-terminal ">
<path d="M1079.75 40h0"></path>
<path d="M1184.75 40h0"></path>
<rect x="1079.75" y="29" width="105" height="22"></rect>
<a xlink:href="#/abap/expression/FilterBody"><text x="1132.25" y="44">FilterBody</text>
</a>
</g>
<path d="M1184.75 40h10"></path>
<path d="M1194.75 40h10"></path>
<g class="terminal ">
<path d="M1204.75 40h0"></path>
<path d="M1352.25 40h0"></path>
<rect x="1204.75" y="29" width="147.5" height="22" rx="10" ry="10"></rect>
<text x="1278.5" y="44">!"WParenRightW"</text>
</g>
</g>
</g>
<path d="M1562.5 40h20"></path>
<path d="M246.5 40a10 10 0 0 1 10 10v19a10 10 0 0 0 10 10"></path>
<g>
<path d="M266.5 79h167.5"></path>
<path d="M1395 79h167.5"></path>
<g class="comment ">
<path d="M434 79h0"></path>
<path d="M591 79h0"></path>
<text x="512.5" y="84" class="comment">v740sp02 or open-abap</text>
</g>
<path d="M591 79h10"></path>
<path d="M601 79h10"></path>
<g>
<path d="M611 79h0"></path>
<path d="M1395 79h0"></path>
<g class="terminal ">
<path d="M611 79h0"></path>
<path d="M673.5 79h0"></path>
<rect x="611" y="68" width="62.5" height="22" rx="10" ry="10"></rect>
<text x="642.25" y="83">"REF"</text>
</g>
<path d="M673.5 79h10"></path>
<path d="M683.5 79h10"></path>
<g class="non-terminal ">
<path d="M693.5 79h0"></path>
<path d="M841 79h0"></path>
<rect x="693.5" y="68" width="147.5" height="22"></rect>
<a xlink:href="#/abap/expression/TypeNameOrInfer"><text x="767.25" y="83">TypeNameOrInfer</text>
</a>
</g>
<path d="M841 79h10"></path>
<path d="M851 79h10"></path>
<g class="terminal ">
<path d="M861 79h0"></path>
<path d="M991.5 79h0"></path>
<rect x="861" y="68" width="130.5" height="22" rx="10" ry="10"></rect>
<text x="926.25" y="83">!"ParenLeftW"</text>
</g>
<path d="M991.5 79h10"></path>
<path d="M1001.5 79h10"></path>
<g class="non-terminal ">
<path d="M1011.5 79h0"></path>
<path d="M1082.5 79h0"></path>
<rect x="1011.5" y="68" width="71" height="22"></rect>
<a xlink:href="#/abap/expression/Source"><text x="1047" y="83">Source</text>
</a>
</g>
<path d="M1082.5 79h10"></path>
<g>
<path d="M1092.5 79h0"></path>
<path d="M1237.5 79h0"></path>
<path d="M1092.5 79a10 10 0 0 0 10 -10v0a10 10 0 0 1 10 -10"></path>
<g>
<path d="M1112.5 59h105"></path>
</g>
<path d="M1217.5 59a10 10 0 0 1 10 10v0a10 10 0 0 0 10 10"></path>
<path d="M1092.5 79h20"></path>
<g class="terminal ">
<path d="M1112.5 79h0"></path>
<path d="M1217.5 79h0"></path>
<rect x="1112.5" y="68" width="105" height="22" rx="10" ry="10"></rect>
<text x="1165" y="83">"OPTIONAL"</text>
</g>
<path d="M1217.5 79h20"></path>
</g>
<path d="M1237.5 79h10"></path>
<g class="terminal ">
<path d="M1247.5 79h0"></path>
<path d="M1395 79h0"></path>
<rect x="1247.5" y="68" width="147.5" height="22" rx="10" ry="10"></rect>
<text x="1321.25" y="83">!"WParenRightW"</text>
</g>
</g>
</g>
<path d="M1562.5 79a10 10 0 0 0 10 -10v-19a10 10 0 0 1 10 -10"></path>
<path d="M246.5 40a10 10 0 0 1 10 10v58a10 10 0 0 0 10 10"></path>
<g>
<path d="M266.5 118h0"></path>
<path d="M1562.5 118h0"></path>
<g class="comment ">
<path d="M266.5 118h0"></path>
<path d="M423.5 118h0"></path>
<text x="345" y="123" class="comment">v740sp05 or open-abap</text>
</g>
<path d="M423.5 118h10"></path>
<path d="M433.5 118h10"></path>
<g>
<path d="M443.5 118h0"></path>
<path d="M1562.5 118h0"></path>
<g class="terminal ">
<path d="M443.5 118h0"></path>
<path d="M591 118h0"></path>
<rect x="443.5" y="107" width="147.5" height="22" rx="10" ry="10"></rect>
<text x="517.25" y="122">"CORRESPONDING"</text>
</g>
<path d="M591 118h10"></path>
<path d="M601 118h10"></path>
<g class="non-terminal ">
<path d="M611 118h0"></path>
<path d="M758.5 118h0"></path>
<rect x="611" y="107" width="147.5" height="22"></rect>
<a xlink:href="#/abap/expression/TypeNameOrInfer"><text x="684.75" y="122">TypeNameOrInfer</text>
</a>
</g>
<path d="M758.5 118h10"></path>
<path d="M768.5 118h10"></path>
<g class="terminal ">
<path d="M778.5 118h0"></path>
<path d="M909 118h0"></path>
<rect x="778.5" y="107" width="130.5" height="22" rx="10" ry="10"></rect>
<text x="843.75" y="122">!"ParenLeftW"</text>
</g>
<path d="M909 118h10"></path>
<path d="M919 118h10"></path>
<g class="non-terminal ">
<path d="M929 118h0"></path>
<path d="M1093.5 118h0"></path>
<rect x="929" y="107" width="164.5" height="22"></rect>
<a xlink:href="#/abap/expression/CorrespondingBody"><text x="1011.25" y="122">CorrespondingBody</text>
</a>
</g>
<path d="M1093.5 118h10"></path>
<path d="M1103.5 118h10"></path>
<g class="terminal ">
<path d="M1113.5 118h0"></path>
<path d="M1261 118h0"></path>
<rect x="1113.5" y="107" width="147.5" height="22" rx="10" ry="10"></rect>
<text x="1187.25" y="122">!"WParenRightW"</text>
</g>
<path d="M1261 118h10"></path>
<g>
<path d="M1271 118h0"></path>
<path d="M1562.5 118h0"></path>
<path d="M1271 118a10 10 0 0 0 10 -10v0a10 10 0 0 1 10 -10"></path>
<g>
<path d="M1291 98h251.5"></path>
</g>
<path d="M1542.5 98a10 10 0 0 1 10 10v0a10 10 0 0 0 10 10"></path>
<path d="M1271 118h20"></path>
<g>
<path d="M1291 118h0"></path>
<path d="M1542.5 118h0"></path>
<g>
<path d="M1291 118h0"></path>
<path d="M1461.5 118h0"></path>
<path d="M1291 118h20"></path>
<g class="terminal ">
<path d="M1311 118h42.5"></path>
<path d="M1399 118h42.5"></path>
<rect x="1353.5" y="107" width="45.5" height="22" rx="10" ry="10"></rect>
<text x="1376.25" y="122">"&#38;"</text>
</g>
<path d="M1441.5 118h20"></path>
<path d="M1291 118a10 10 0 0 1 10 10v10a10 10 0 0 0 10 10"></path>
<g class="terminal ">
<path d="M1311 148h38.25"></path>
<path d="M1403.25 148h38.25"></path>
<rect x="1349.25" y="137" width="54" height="22" rx="10" ry="10"></rect>
<text x="1376.25" y="152">"&#38;&#38;"</text>
</g>
<path d="M1441.5 148a10 10 0 0 0 10 -10v-10a10 10 0 0 1 10 -10"></path>
<path d="M1291 118a10 10 0 0 1 10 10v40a10 10 0 0 0 10 10"></path>
<g class="non-terminal ">
<path d="M1311 178h0"></path>
<path d="M1441.5 178h0"></path>
<rect x="1311" y="167" width="130.5" height="22"></rect>
<a xlink:href="#/abap/expression/ArithOperator"><text x="1376.25" y="182">ArithOperator</text>
</a>
</g>
<path d="M1441.5 178a10 10 0 0 0 10 -10v-40a10 10 0 0 1 10 -10"></path>
</g>
<path d="M1461.5 118h10"></path>
<g class="non-terminal ">
<path d="M1471.5 118h0"></path>
<path d="M1542.5 118h0"></path>
<rect x="1471.5" y="107" width="71" height="22"></rect>
<a xlink:href="#/abap/expression/Source"><text x="1507" y="122">Source</text>
</a>
</g>
</g>
<path d="M1542.5 118h20"></path>
</g>
</g>
</g>
<path d="M1562.5 118a10 10 0 0 0 10 -10v-58a10 10 0 0 1 10 -10"></path>
<path d="M246.5 40a10 10 0 0 1 10 10v157a10 10 0 0 0 10 10"></path>
<g>
<path d="M266.5 217h56.5"></path>
<path d="M1506 217h56.5"></path>
<g class="comment ">
<path d="M323 217h0"></path>
<path d="M480 217h0"></path>
<text x="401.5" y="222" class="comment">v740sp02 or open-abap</text>
</g>
<path d="M480 217h10"></path>
<path d="M490 217h10"></path>
<g>
<path d="M500 217h0"></path>
<path d="M1506 217h0"></path>
<g class="terminal ">
<path d="M500 217h0"></path>
<path d="M571 217h0"></path>
<rect x="500" y="206" width="71" height="22" rx="10" ry="10"></rect>
<text x="535.5" y="221">"CONV"</text>
</g>
<path d="M571 217h10"></path>
<path d="M581 217h10"></path>
<g class="non-terminal ">
<path d="M591 217h0"></path>
<path d="M738.5 217h0"></path>
<rect x="591" y="206" width="147.5" height="22"></rect>
<a xlink:href="#/abap/expression/TypeNameOrInfer"><text x="664.75" y="221">TypeNameOrInfer</text>
</a>
</g>
<path d="M738.5 217h10"></path>
<g>
<path d="M748.5 217h0"></path>
<path d="M919 217h0"></path>
<path d="M748.5 217h20"></path>
<g class="terminal ">
<path d="M768.5 217h4.25"></path>
<path d="M894.75 217h4.25"></path>
<rect x="772.75" y="206" width="122" height="22" rx="10" ry="10"></rect>
<text x="833.75" y="221">!"ParenLeft"</text>
</g>
<path d="M899 217h20"></path>
<path d="M748.5 217a10 10 0 0 1 10 10v10a10 10 0 0 0 10 10"></path>
<g class="terminal ">
<path d="M768.5 247h0"></path>
<path d="M899 247h0"></path>
<rect x="768.5" y="236" width="130.5" height="22" rx="10" ry="10"></rect>
<text x="833.75" y="251">!"ParenLeftW"</text>
</g>
<path d="M899 247a10 10 0 0 0 10 -10v-10a10 10 0 0 1 10 -10"></path>
</g>
<path d="M919 217h10"></path>
<g class="non-terminal ">
<path d="M929 217h0"></path>
<path d="M1017 217h0"></path>
<rect x="929" y="206" width="88" height="22"></rect>
<a xlink:href="#/abap/expression/ConvBody"><text x="973" y="221">ConvBody</text>
</a>
</g>
<path d="M1017 217h10"></path>
<g>
<path d="M1027 217h0"></path>
<path d="M1214.5 217h0"></path>
<path d="M1027 217h20"></path>
<g class="terminal ">
<path d="M1047 217h4.25"></path>
<path d="M1190.25 217h4.25"></path>
<rect x="1051.25" y="206" width="139" height="22" rx="10" ry="10"></rect>
<text x="1120.75" y="221">!"ParenRightW"</text>
</g>
<path d="M1194.5 217h20"></path>
<path d="M1027 217a10 10 0 0 1 10 10v10a10 10 0 0 0 10 10"></path>
<g class="terminal ">
<path d="M1047 247h0"></path>
<path d="M1194.5 247h0"></path>
<rect x="1047" y="236" width="147.5" height="22" rx="10" ry="10"></rect>
<text x="1120.75" y="251">!"WParenRightW"</text>
</g>
<path d="M1194.5 247a10 10 0 0 0 10 -10v-10a10 10 0 0 1 10 -10"></path>
</g>
<g>
<path d="M1214.5 217h0"></path>
<path d="M1506 217h0"></path>
<path d="M1214.5 217a10 10 0 0 0 10 -10v0a10 10 0 0 1 10 -10"></path>
<g>
<path d="M1234.5 197h251.5"></path>
</g>
<path d="M1486 197a10 10 0 0 1 10 10v0a10 10 0 0 0 10 10"></path>
<path d="M1214.5 217h20"></path>
<g>
<path d="M1234.5 217h0"></path>
<path d="M1486 217h0"></path>
<g>
<path d="M1234.5 217h0"></path>
<path d="M1405 217h0"></path>
<path d="M1234.5 217h20"></path>
<g class="terminal ">
<path d="M1254.5 217h42.5"></path>
<path d="M1342.5 217h42.5"></path>
<rect x="1297" y="206" width="45.5" height="22" rx="10" ry="10"></rect>
<text x="1319.75" y="221">"&#38;"</text>
</g>
<path d="M1385 217h20"></path>
<path d="M1234.5 217a10 10 0 0 1 10 10v10a10 10 0 0 0 10 10"></path>
<g class="terminal ">
<path d="M1254.5 247h38.25"></path>
<path d="M1346.75 247h38.25"></path>
<rect x="1292.75" y="236" width="54" height="22" rx="10" ry="10"></rect>
<text x="1319.75" y="251">"&#38;&#38;"</text>
</g>
<path d="M1385 247a10 10 0 0 0 10 -10v-10a10 10 0 0 1 10 -10"></path>
<path d="M1234.5 217a10 10 0 0 1 10 10v40a10 10 0 0 0 10 10"></path>
<g class="non-terminal ">
<path d="M1254.5 277h0"></path>
<path d="M1385 277h0"></path>
<rect x="1254.5" y="266" width="130.5" height="22"></rect>
<a xlink:href="#/abap/expression/ArithOperator"><text x="1319.75" y="281">ArithOperator</text>
</a>
</g>
<path d="M1385 277a10 10 0 0 0 10 -10v-40a10 10 0 0 1 10 -10"></path>
</g>
<path d="M1405 217h10"></path>
<g class="non-terminal ">
<path d="M1415 217h0"></path>
<path d="M1486 217h0"></path>
<rect x="1415" y="206" width="71" height="22"></rect>
<a xlink:href="#/abap/expression/Source"><text x="1450.5" y="221">Source</text>
</a>
</g>
</g>
<path d="M1486 217h20"></path>
</g>
</g>
</g>
<path d="M1562.5 217a10 10 0 0 0 10 -10v-157a10 10 0 0 1 10 -10"></path>
<path d="M246.5 40a10 10 0 0 1 10 10v256a10 10 0 0 0 10 10"></path>
<g>
<path d="M266.5 316h58"></path>
<path d="M1504.5 316h58"></path>
<g class="comment ">
<path d="M324.5 316h0"></path>
<path d="M481.5 316h0"></path>
<text x="403" y="321" class="comment">v740sp02 or open-abap</text>
</g>
<path d="M481.5 316h10"></path>
<path d="M491.5 316h10"></path>
<g>
<path d="M501.5 316h0"></path>
<path d="M1504.5 316h0"></path>
<g class="terminal ">
<path d="M501.5 316h0"></path>
<path d="M581 316h0"></path>
<rect x="501.5" y="305" width="79.5" height="22" rx="10" ry="10"></rect>
<text x="541.25" y="320">"VALUE"</text>
</g>
<path d="M581 316h10"></path>
<path d="M591 316h10"></path>
<g class="non-terminal ">
<path d="M601 316h0"></path>
<path d="M748.5 316h0"></path>
<rect x="601" y="305" width="147.5" height="22"></rect>
<a xlink:href="#/abap/expression/TypeNameOrInfer"><text x="674.75" y="320">TypeNameOrInfer</text>
</a>
</g>
<path d="M748.5 316h10"></path>
<path d="M758.5 316h10"></path>
<g class="terminal ">
<path d="M768.5 316h0"></path>
<path d="M899 316h0"></path>
<rect x="768.5" y="305" width="130.5" height="22" rx="10" ry="10"></rect>
<text x="833.75" y="320">!"ParenLeftW"</text>
</g>
<path d="M899 316h10"></path>
<path d="M909 316h10"></path>
<g class="non-terminal ">
<path d="M919 316h0"></path>
<path d="M1015.5 316h0"></path>
<rect x="919" y="305" width="96.5" height="22"></rect>
<a xlink:href="#/abap/expression/ValueBody"><text x="967.25" y="320">ValueBody</text>
</a>
</g>
<path d="M1015.5 316h10"></path>
<g>
<path d="M1025.5 316h0"></path>
<path d="M1213 316h0"></path>
<path d="M1025.5 316h20"></path>
<g class="terminal ">
<path d="M1045.5 316h4.25"></path>
<path d="M1188.75 316h4.25"></path>
<rect x="1049.75" y="305" width="139" height="22" rx="10" ry="10"></rect>
<text x="1119.25" y="320">!"ParenRightW"</text>
</g>
<path d="M1193 316h20"></path>
<path d="M1025.5 316a10 10 0 0 1 10 10v10a10 10 0 0 0 10 10"></path>
<g class="terminal ">
<path d="M1045.5 346h0"></path>
<path d="M1193 346h0"></path>
<rect x="1045.5" y="335" width="147.5" height="22" rx="10" ry="10"></rect>
<text x="1119.25" y="350">!"WParenRightW"</text>
</g>
<path d="M1193 346a10 10 0 0 0 10 -10v-10a10 10 0 0 1 10 -10"></path>
</g>
<g>
<path d="M1213 316h0"></path>
<path d="M1504.5 316h0"></path>
<path d="M1213 316a10 10 0 0 0 10 -10v0a10 10 0 0 1 10 -10"></path>
<g>
<path d="M1233 296h251.5"></path>
</g>
<path d="M1484.5 296a10 10 0 0 1 10 10v0a10 10 0 0 0 10 10"></path>
<path d="M1213 316h20"></path>
<g>
<path d="M1233 316h0"></path>
<path d="M1484.5 316h0"></path>
<g>
<path d="M1233 316h0"></path>
<path d="M1403.5 316h0"></path>
<path d="M1233 316h20"></path>
<g class="terminal ">
<path d="M1253 316h42.5"></path>
<path d="M1341 316h42.5"></path>
<rect x="1295.5" y="305" width="45.5" height="22" rx="10" ry="10"></rect>
<text x="1318.25" y="320">"&#38;"</text>
</g>
<path d="M1383.5 316h20"></path>
<path d="M1233 316a10 10 0 0 1 10 10v10a10 10 0 0 0 10 10"></path>
<g class="terminal ">
<path d="M1253 346h38.25"></path>
<path d="M1345.25 346h38.25"></path>
<rect x="1291.25" y="335" width="54" height="22" rx="10" ry="10"></rect>
<text x="1318.25" y="350">"&#38;&#38;"</text>
</g>
<path d="M1383.5 346a10 10 0 0 0 10 -10v-10a10 10 0 0 1 10 -10"></path>
<path d="M1233 316a10 10 0 0 1 10 10v40a10 10 0 0 0 10 10"></path>
<g class="non-terminal ">
<path d="M1253 376h0"></path>
<path d="M1383.5 376h0"></path>
<rect x="1253" y="365" width="130.5" height="22"></rect>
<a xlink:href="#/abap/expression/ArithOperator"><text x="1318.25" y="380">ArithOperator</text>
</a>
</g>
<path d="M1383.5 376a10 10 0 0 0 10 -10v-40a10 10 0 0 1 10 -10"></path>
</g>
<path d="M1403.5 316h10"></path>
<g class="non-terminal ">
<path d="M1413.5 316h0"></path>
<path d="M1484.5 316h0"></path>
<rect x="1413.5" y="305" width="71" height="22"></rect>
<a xlink:href="#/abap/expression/Source"><text x="1449" y="320">Source</text>
</a>
</g>
</g>
<path d="M1484.5 316h20"></path>
</g>
</g>
</g>
<path d="M1562.5 316a10 10 0 0 0 10 -10v-256a10 10 0 0 1 10 -10"></path>
<path d="M246.5 40a10 10 0 0 1 10 10v355a10 10 0 0 0 10 10"></path>
<g>
<path d="M266.5 415h66.5"></path>
<path d="M1496 415h66.5"></path>
<g class="comment ">
<path d="M333 415h0"></path>
<path d="M490 415h0"></path>
<text x="411.5" y="420" class="comment">v740sp02 or open-abap</text>
</g>
<path d="M490 415h10"></path>
<path d="M500 415h10"></path>
<g>
<path d="M510 415h0"></path>
<path d="M1496 415h0"></path>
<g class="terminal ">
<path d="M510 415h0"></path>
<path d="M581 415h0"></path>
<rect x="510" y="404" width="71" height="22" rx="10" ry="10"></rect>
<text x="545.5" y="419">"COND"</text>
</g>
<path d="M581 415h10"></path>
<path d="M591 415h10"></path>
<g class="non-terminal ">
<path d="M601 415h0"></path>
<path d="M748.5 415h0"></path>
<rect x="601" y="404" width="147.5" height="22"></rect>
<a xlink:href="#/abap/expression/TypeNameOrInfer"><text x="674.75" y="419">TypeNameOrInfer</text>
</a>
</g>
<path d="M748.5 415h10"></path>
<path d="M758.5 415h10"></path>
<g class="terminal ">
<path d="M768.5 415h0"></path>
<path d="M899 415h0"></path>
<rect x="768.5" y="404" width="130.5" height="22" rx="10" ry="10"></rect>
<text x="833.75" y="419">!"ParenLeftW"</text>
</g>
<path d="M899 415h10"></path>
<path d="M909 415h10"></path>
<g class="non-terminal ">
<path d="M919 415h0"></path>
<path d="M1007 415h0"></path>
<rect x="919" y="404" width="88" height="22"></rect>
<a xlink:href="#/abap/expression/CondBody"><text x="963" y="419">CondBody</text>
</a>
</g>
<path d="M1007 415h10"></path>
<g>
<path d="M1017 415h0"></path>
<path d="M1204.5 415h0"></path>
<path d="M1017 415h20"></path>
<g class="terminal ">
<path d="M1037 415h4.25"></path>
<path d="M1180.25 415h4.25"></path>
<rect x="1041.25" y="404" width="139" height="22" rx="10" ry="10"></rect>
<text x="1110.75" y="419">!"ParenRightW"</text>
</g>
<path d="M1184.5 415h20"></path>
<path d="M1017 415a10 10 0 0 1 10 10v10a10 10 0 0 0 10 10"></path>
<g class="terminal ">
<path d="M1037 445h0"></path>
<path d="M1184.5 445h0"></path>
<rect x="1037" y="434" width="147.5" height="22" rx="10" ry="10"></rect>
<text x="1110.75" y="449">!"WParenRightW"</text>
</g>
<path d="M1184.5 445a10 10 0 0 0 10 -10v-10a10 10 0 0 1 10 -10"></path>
</g>
<g>
<path d="M1204.5 415h0"></path>
<path d="M1496 415h0"></path>
<path d="M1204.5 415a10 10 0 0 0 10 -10v0a10 10 0 0 1 10 -10"></path>
<g>
<path d="M1224.5 395h251.5"></path>
</g>
<path d="M1476 395a10 10 0 0 1 10 10v0a10 10 0 0 0 10 10"></path>
<path d="M1204.5 415h20"></path>
<g>
<path d="M1224.5 415h0"></path>
<path d="M1476 415h0"></path>
<g>
<path d="M1224.5 415h0"></path>
<path d="M1395 415h0"></path>
<path d="M1224.5 415h20"></path>
<g class="terminal ">
<path d="M1244.5 415h42.5"></path>
<path d="M1332.5 415h42.5"></path>
<rect x="1287" y="404" width="45.5" height="22" rx="10" ry="10"></rect>
<text x="1309.75" y="419">"&#38;"</text>
</g>
<path d="M1375 415h20"></path>
<path d="M1224.5 415a10 10 0 0 1 10 10v10a10 10 0 0 0 10 10"></path>
<g class="terminal ">
<path d="M1244.5 445h38.25"></path>
<path d="M1336.75 445h38.25"></path>
<rect x="1282.75" y="434" width="54" height="22" rx="10" ry="10"></rect>
<text x="1309.75" y="449">"&#38;&#38;"</text>
</g>
<path d="M1375 445a10 10 0 0 0 10 -10v-10a10 10 0 0 1 10 -10"></path>
<path d="M1224.5 415a10 10 0 0 1 10 10v40a10 10 0 0 0 10 10"></path>
<g class="non-terminal ">
<path d="M1244.5 475h0"></path>
<path d="M1375 475h0"></path>
<rect x="1244.5" y="464" width="130.5" height="22"></rect>
<a xlink:href="#/abap/expression/ArithOperator"><text x="1309.75" y="479">ArithOperator</text>
</a>
</g>
<path d="M1375 475a10 10 0 0 0 10 -10v-40a10 10 0 0 1 10 -10"></path>
</g>
<path d="M1395 415h10"></path>
<g class="non-terminal ">
<path d="M1405 415h0"></path>
<path d="M1476 415h0"></path>
<rect x="1405" y="404" width="71" height="22"></rect>
<a xlink:href="#/abap/expression/Source"><text x="1440.5" y="419">Source</text>
</a>
</g>
</g>
<path d="M1476 415h20"></path>
</g>
</g>
</g>
<path d="M1562.5 415a10 10 0 0 0 10 -10v-355a10 10 0 0 1 10 -10"></path>
<path d="M246.5 40a10 10 0 0 1 10 10v454a10 10 0 0 0 10 10"></path>
<g>
<path d="M266.5 514h126.25"></path>
<path d="M1436.25 514h126.25"></path>
<g class="comment ">
<path d="M392.75 514h0"></path>
<path d="M458.75 514h0"></path>
<text x="425.75" y="519" class="comment">v740sp02</text>
</g>
<path d="M458.75 514h10"></path>
<path d="M468.75 514h10"></path>
<g>
<path d="M478.75 514h0"></path>
<path d="M1436.25 514h0"></path>
<g class="terminal ">
<path d="M478.75 514h0"></path>
<path d="M558.25 514h0"></path>
<rect x="478.75" y="503" width="79.5" height="22" rx="10" ry="10"></rect>
<text x="518.5" y="518">"EXACT"</text>
</g>
<path d="M558.25 514h10"></path>
<path d="M568.25 514h10"></path>
<g class="non-terminal ">
<path d="M578.25 514h0"></path>
<path d="M725.75 514h0"></path>
<rect x="578.25" y="503" width="147.5" height="22"></rect>
<a xlink:href="#/abap/expression/TypeNameOrInfer"><text x="652" y="518">TypeNameOrInfer</text>
</a>
</g>
<path d="M725.75 514h10"></path>
<path d="M735.75 514h10"></path>
<g class="terminal ">
<path d="M745.75 514h0"></path>
<path d="M876.25 514h0"></path>
<rect x="745.75" y="503" width="130.5" height="22" rx="10" ry="10"></rect>
<text x="811" y="518">!"ParenLeftW"</text>
</g>
<path d="M876.25 514h10"></path>
<path d="M886.25 514h10"></path>
<g class="non-terminal ">
<path d="M896.25 514h0"></path>
<path d="M967.25 514h0"></path>
<rect x="896.25" y="503" width="71" height="22"></rect>
<a xlink:href="#/abap/expression/Source"><text x="931.75" y="518">Source</text>
</a>
</g>
<path d="M967.25 514h10"></path>
<path d="M977.25 514h10"></path>
<g class="terminal ">
<path d="M987.25 514h0"></path>
<path d="M1134.75 514h0"></path>
<rect x="987.25" y="503" width="147.5" height="22" rx="10" ry="10"></rect>
<text x="1061" y="518">!"WParenRightW"</text>
</g>
<path d="M1134.75 514h10"></path>
<g>
<path d="M1144.75 514h0"></path>
<path d="M1436.25 514h0"></path>
<path d="M1144.75 514a10 10 0 0 0 10 -10v0a10 10 0 0 1 10 -10"></path>
<g>
<path d="M1164.75 494h251.5"></path>
</g>
<path d="M1416.25 494a10 10 0 0 1 10 10v0a10 10 0 0 0 10 10"></path>
<path d="M1144.75 514h20"></path>
<g>
<path d="M1164.75 514h0"></path>
<path d="M1416.25 514h0"></path>
<g>
<path d="M1164.75 514h0"></path>
<path d="M1335.25 514h0"></path>
<path d="M1164.75 514h20"></path>
<g class="terminal ">
<path d="M1184.75 514h42.5"></path>
<path d="M1272.75 514h42.5"></path>
<rect x="1227.25" y="503" width="45.5" height="22" rx="10" ry="10"></rect>
<text x="1250" y="518">"&#38;"</text>
</g>
<path d="M1315.25 514h20"></path>
<path d="M1164.75 514a10 10 0 0 1 10 10v10a10 10 0 0 0 10 10"></path>
<g class="terminal ">
<path d="M1184.75 544h38.25"></path>
<path d="M1277 544h38.25"></path>
<rect x="1223" y="533" width="54" height="22" rx="10" ry="10"></rect>
<text x="1250" y="548">"&#38;&#38;"</text>
</g>
<path d="M1315.25 544a10 10 0 0 0 10 -10v-10a10 10 0 0 1 10 -10"></path>
<path d="M1164.75 514a10 10 0 0 1 10 10v40a10 10 0 0 0 10 10"></path>
<g class="non-terminal ">
<path d="M1184.75 574h0"></path>
<path d="M1315.25 574h0"></path>
<rect x="1184.75" y="563" width="130.5" height="22"></rect>
<a xlink:href="#/abap/expression/ArithOperator"><text x="1250" y="578">ArithOperator</text>
</a>
</g>
<path d="M1315.25 574a10 10 0 0 0 10 -10v-40a10 10 0 0 1 10 -10"></path>
</g>
<path d="M1335.25 514h10"></path>
<g class="non-terminal ">
<path d="M1345.25 514h0"></path>
<path d="M1416.25 514h0"></path>
<rect x="1345.25" y="503" width="71" height="22"></rect>
<a xlink:href="#/abap/expression/Source"><text x="1380.75" y="518">Source</text>
</a>
</g>
</g>
<path d="M1416.25 514h20"></path>
</g>
</g>
</g>
<path d="M1562.5 514a10 10 0 0 0 10 -10v-454a10 10 0 0 1 10 -10"></path>
<path d="M246.5 40a10 10 0 0 1 10 10v553a10 10 0 0 0 10 10"></path>
<g>
<path d="M266.5 613h49.5"></path>
<path d="M1513 613h49.5"></path>
<g class="comment ">
<path d="M316 613h0"></path>
<path d="M473 613h0"></path>
<text x="394.5" y="618" class="comment">v740sp02 or open-abap</text>
</g>
<path d="M473 613h10"></path>
<path d="M483 613h10"></path>
<g>
<path d="M493 613h0"></path>
<path d="M1513 613h0"></path>
<g class="terminal ">
<path d="M493 613h0"></path>
<path d="M581 613h0"></path>
<rect x="493" y="602" width="88" height="22" rx="10" ry="10"></rect>
<text x="537" y="617">"SWITCH"</text>
</g>
<path d="M581 613h10"></path>
<path d="M591 613h10"></path>
<g class="non-terminal ">
<path d="M601 613h0"></path>
<path d="M748.5 613h0"></path>
<rect x="601" y="602" width="147.5" height="22"></rect>
<a xlink:href="#/abap/expression/TypeNameOrInfer"><text x="674.75" y="617">TypeNameOrInfer</text>
</a>
</g>
<path d="M748.5 613h10"></path>
<path d="M758.5 613h10"></path>
<g class="terminal ">
<path d="M768.5 613h0"></path>
<path d="M899 613h0"></path>
<rect x="768.5" y="602" width="130.5" height="22" rx="10" ry="10"></rect>
<text x="833.75" y="617">!"ParenLeftW"</text>
</g>
<path d="M899 613h10"></path>
<path d="M909 613h10"></path>
<g class="non-terminal ">
<path d="M919 613h0"></path>
<path d="M1024 613h0"></path>
<rect x="919" y="602" width="105" height="22"></rect>
<a xlink:href="#/abap/expression/SwitchBody"><text x="971.5" y="617">SwitchBody</text>
</a>
</g>
<path d="M1024 613h10"></path>
<g>
<path d="M1034 613h0"></path>
<path d="M1221.5 613h0"></path>
<path d="M1034 613h20"></path>
<g class="terminal ">
<path d="M1054 613h4.25"></path>
<path d="M1197.25 613h4.25"></path>
<rect x="1058.25" y="602" width="139" height="22" rx="10" ry="10"></rect>
<text x="1127.75" y="617">!"ParenRightW"</text>
</g>
<path d="M1201.5 613h20"></path>
<path d="M1034 613a10 10 0 0 1 10 10v10a10 10 0 0 0 10 10"></path>
<g class="terminal ">
<path d="M1054 643h0"></path>
<path d="M1201.5 643h0"></path>
<rect x="1054" y="632" width="147.5" height="22" rx="10" ry="10"></rect>
<text x="1127.75" y="647">!"WParenRightW"</text>
</g>
<path d="M1201.5 643a10 10 0 0 0 10 -10v-10a10 10 0 0 1 10 -10"></path>
</g>
<g>
<path d="M1221.5 613h0"></path>
<path d="M1513 613h0"></path>
<path d="M1221.5 613a10 10 0 0 0 10 -10v0a10 10 0 0 1 10 -10"></path>
<g>
<path d="M1241.5 593h251.5"></path>
</g>
<path d="M1493 593a10 10 0 0 1 10 10v0a10 10 0 0 0 10 10"></path>
<path d="M1221.5 613h20"></path>
<g>
<path d="M1241.5 613h0"></path>
<path d="M1493 613h0"></path>
<g>
<path d="M1241.5 613h0"></path>
<path d="M1412 613h0"></path>
<path d="M1241.5 613h20"></path>
<g class="terminal ">
<path d="M1261.5 613h42.5"></path>
<path d="M1349.5 613h42.5"></path>
<rect x="1304" y="602" width="45.5" height="22" rx="10" ry="10"></rect>
<text x="1326.75" y="617">"&#38;"</text>
</g>
<path d="M1392 613h20"></path>
<path d="M1241.5 613a10 10 0 0 1 10 10v10a10 10 0 0 0 10 10"></path>
<g class="terminal ">
<path d="M1261.5 643h38.25"></path>
<path d="M1353.75 643h38.25"></path>
<rect x="1299.75" y="632" width="54" height="22" rx="10" ry="10"></rect>
<text x="1326.75" y="647">"&#38;&#38;"</text>
</g>
<path d="M1392 643a10 10 0 0 0 10 -10v-10a10 10 0 0 1 10 -10"></path>
<path d="M1241.5 613a10 10 0 0 1 10 10v40a10 10 0 0 0 10 10"></path>
<g class="non-terminal ">
<path d="M1261.5 673h0"></path>
<path d="M1392 673h0"></path>
<rect x="1261.5" y="662" width="130.5" height="22"></rect>
<a xlink:href="#/abap/expression/ArithOperator"><text x="1326.75" y="677">ArithOperator</text>
</a>
</g>
<path d="M1392 673a10 10 0 0 0 10 -10v-40a10 10 0 0 1 10 -10"></path>
</g>
<path d="M1412 613h10"></path>
<g class="non-terminal ">
<path d="M1422 613h0"></path>
<path d="M1493 613h0"></path>
<rect x="1422" y="602" width="71" height="22"></rect>
<a xlink:href="#/abap/expression/Source"><text x="1457.5" y="617">Source</text>
</a>
</g>
</g>
<path d="M1493 613h20"></path>
</g>
</g>
</g>
<path d="M1562.5 613a10 10 0 0 0 10 -10v-553a10 10 0 0 1 10 -10"></path>
<path d="M246.5 40a10 10 0 0 1 10 10v652a10 10 0 0 0 10 10"></path>
<g>
<path d="M266.5 712h59.5"></path>
<path d="M1503 712h59.5"></path>
<g class="comment ">
<path d="M326 712h0"></path>
<path d="M483 712h0"></path>
<text x="404.5" y="717" class="comment">v740sp08 or open-abap</text>
</g>
<path d="M483 712h10"></path>
<path d="M493 712h10"></path>
<g>
<path d="M503 712h0"></path>
<path d="M1503 712h0"></path>
<g class="terminal ">
<path d="M503 712h0"></path>
<path d="M591 712h0"></path>
<rect x="503" y="701" width="88" height="22" rx="10" ry="10"></rect>
<text x="547" y="716">"REDUCE"</text>
</g>
<path d="M591 712h10"></path>
<path d="M601 712h10"></path>
<g class="non-terminal ">
<path d="M611 712h0"></path>
<path d="M758.5 712h0"></path>
<rect x="611" y="701" width="147.5" height="22"></rect>
<a xlink:href="#/abap/expression/TypeNameOrInfer"><text x="684.75" y="716">TypeNameOrInfer</text>
</a>
</g>
<path d="M758.5 712h10"></path>
<path d="M768.5 712h10"></path>
<g class="terminal ">
<path d="M778.5 712h0"></path>
<path d="M909 712h0"></path>
<rect x="778.5" y="701" width="130.5" height="22" rx="10" ry="10"></rect>
<text x="843.75" y="716">!"ParenLeftW"</text>
</g>
<path d="M909 712h10"></path>
<path d="M919 712h10"></path>
<g class="non-terminal ">
<path d="M929 712h0"></path>
<path d="M1034 712h0"></path>
<rect x="929" y="701" width="105" height="22"></rect>
<a xlink:href="#/abap/expression/ReduceBody"><text x="981.5" y="716">ReduceBody</text>
</a>
</g>
<path d="M1034 712h10"></path>
<path d="M1044 712h10"></path>
<g class="terminal ">
<path d="M1054 712h0"></path>
<path d="M1201.5 712h0"></path>
<rect x="1054" y="701" width="147.5" height="22" rx="10" ry="10"></rect>
<text x="1127.75" y="716">!"WParenRightW"</text>
</g>
<path d="M1201.5 712h10"></path>
<g>
<path d="M1211.5 712h0"></path>
<path d="M1503 712h0"></path>
<path d="M1211.5 712a10 10 0 0 0 10 -10v0a10 10 0 0 1 10 -10"></path>
<g>
<path d="M1231.5 692h251.5"></path>
</g>
<path d="M1483 692a10 10 0 0 1 10 10v0a10 10 0 0 0 10 10"></path>
<path d="M1211.5 712h20"></path>
<g>
<path d="M1231.5 712h0"></path>
<path d="M1483 712h0"></path>
<g>
<path d="M1231.5 712h0"></path>
<path d="M1402 712h0"></path>
<path d="M1231.5 712h20"></path>
<g class="terminal ">
<path d="M1251.5 712h42.5"></path>
<path d="M1339.5 712h42.5"></path>
<rect x="1294" y="701" width="45.5" height="22" rx="10" ry="10"></rect>
<text x="1316.75" y="716">"&#38;"</text>
</g>
<path d="M1382 712h20"></path>
<path d="M1231.5 712a10 10 0 0 1 10 10v10a10 10 0 0 0 10 10"></path>
<g class="terminal ">
<path d="M1251.5 742h38.25"></path>
<path d="M1343.75 742h38.25"></path>
<rect x="1289.75" y="731" width="54" height="22" rx="10" ry="10"></rect>
<text x="1316.75" y="746">"&#38;&#38;"</text>
</g>
<path d="M1382 742a10 10 0 0 0 10 -10v-10a10 10 0 0 1 10 -10"></path>
<path d="M1231.5 712a10 10 0 0 1 10 10v40a10 10 0 0 0 10 10"></path>
<g class="non-terminal ">
<path d="M1251.5 772h0"></path>
<path d="M1382 772h0"></path>
<rect x="1251.5" y="761" width="130.5" height="22"></rect>
<a xlink:href="#/abap/expression/ArithOperator"><text x="1316.75" y="776">ArithOperator</text>
</a>
</g>
<path d="M1382 772a10 10 0 0 0 10 -10v-40a10 10 0 0 1 10 -10"></path>
</g>
<path d="M1402 712h10"></path>
<g class="non-terminal ">
<path d="M1412 712h0"></path>
<path d="M1483 712h0"></path>
<rect x="1412" y="701" width="71" height="22"></rect>
<a xlink:href="#/abap/expression/Source"><text x="1447.5" y="716">Source</text>
</a>
</g>
</g>
<path d="M1483 712h20"></path>
</g>
</g>
</g>
<path d="M1562.5 712a10 10 0 0 0 10 -10v-652a10 10 0 0 1 10 -10"></path>
<path d="M246.5 40a10 10 0 0 1 10 10v751a10 10 0 0 0 10 10"></path>
<g>
<path d="M266.5 811h50.25"></path>
<path d="M1512.25 811h50.25"></path>
<g>
<path d="M316.75 811h0"></path>
<path d="M493.25 811h0"></path>
<path d="M316.75 811a10 10 0 0 0 10 -10v0a10 10 0 0 1 10 -10"></path>
<g>
<path d="M336.75 791h136.5"></path>
</g>
<path d="M473.25 791a10 10 0 0 1 10 10v0a10 10 0 0 0 10 10"></path>
<path d="M316.75 811h20"></path>
<g>
<path d="M336.75 811h0"></path>
<path d="M473.25 811h0"></path>
<path d="M336.75 811h20"></path>
<g class="terminal ">
<path d="M356.75 811h4.25"></path>
<path d="M449 811h4.25"></path>
<rect x="361" y="800" width="88" height="22" rx="10" ry="10"></rect>
<text x="405" y="815">!"WPlus"</text>
</g>
<path d="M453.25 811h20"></path>
<path d="M336.75 811a10 10 0 0 1 10 10v10a10 10 0 0 0 10 10"></path>
<g class="terminal ">
<path d="M356.75 841h0"></path>
<path d="M453.25 841h0"></path>
<rect x="356.75" y="830" width="96.5" height="22" rx="10" ry="10"></rect>
<text x="405" y="845">"BIT-NOT"</text>
</g>
<path d="M453.25 841a10 10 0 0 0 10 -10v-10a10 10 0 0 1 10 -10"></path>
</g>
<path d="M473.25 811h20"></path>
</g>
<g>
<path d="M493.25 811h0"></path>
<path d="M1220.75 811h0"></path>
<path d="M493.25 811h20"></path>
<g class="non-terminal ">
<path d="M513.25 811h299.75"></path>
<path d="M901 811h299.75"></path>
<rect x="813" y="800" width="88" height="22"></rect>
<a xlink:href="#/abap/expression/Constant"><text x="857" y="815">Constant</text>
</a>
</g>
<path d="M1200.75 811h20"></path>
<path d="M493.25 811a10 10 0 0 1 10 10v10a10 10 0 0 0 10 10"></path>
<g class="non-terminal ">
<path d="M513.25 841h274.25"></path>
<path d="M926.5 841h274.25"></path>
<rect x="787.5" y="830" width="139" height="22"></rect>
<a xlink:href="#/abap/expression/StringTemplate"><text x="857" y="845">StringTemplate</text>
</a>
</g>
<path d="M1200.75 841a10 10 0 0 0 10 -10v-10a10 10 0 0 1 10 -10"></path>
<path d="M493.25 811a10 10 0 0 1 10 10v40a10 10 0 0 0 10 10"></path>
<g class="non-terminal ">
<path d="M513.25 871h287"></path>
<path d="M913.75 871h287"></path>
<rect x="800.25" y="860" width="113.5" height="22"></rect>
<a xlink:href="#/abap/expression/TextElement"><text x="857" y="875">TextElement</text>
</a>
</g>
<path d="M1200.75 871a10 10 0 0 0 10 -10v-40a10 10 0 0 1 10 -10"></path>
<path d="M493.25 811a10 10 0 0 1 10 10v70a10 10 0 0 0 10 10"></path>
<g>
<path d="M513.25 901h47"></path>
<path d="M1153.75 901h47"></path>
<g>
<path d="M560.25 901h0"></path>
<path d="M873.75 901h0"></path>
<path d="M560.25 901h20"></path>
<g>
<path d="M580.25 901h22.5"></path>
<path d="M831.25 901h22.5"></path>
<g class="comment ">
<path d="M602.75 901h0"></path>
<path d="M731.75 901h0"></path>
<text x="667.25" y="906" class="comment">v702 or open-abap</text>
</g>
<path d="M731.75 901h10"></path>
<path d="M741.75 901h10"></path>
<g class="terminal ">
<path d="M751.75 901h0"></path>
<path d="M831.25 901h0"></path>
<rect x="751.75" y="890" width="79.5" height="22" rx="10" ry="10"></rect>
<text x="791.5" y="905">^BOOLC$</text>
</g>
</g>
<path d="M853.75 901h20"></path>
<path d="M560.25 901a10 10 0 0 1 10 10v10a10 10 0 0 0 10 10"></path>
<g>
<path d="M580.25 931h0"></path>
<path d="M853.75 931h0"></path>
<g class="comment ">
<path d="M580.25 931h0"></path>
<path d="M737.25 931h0"></path>
<text x="658.75" y="936" class="comment">v740sp08 or open-abap</text>
</g>
<path d="M737.25 931h10"></path>
<path d="M747.25 931h10"></path>
<g class="terminal ">
<path d="M757.25 931h0"></path>
<path d="M853.75 931h0"></path>
<rect x="757.25" y="920" width="96.5" height="22" rx="10" ry="10"></rect>
<text x="805.5" y="935">^XSDBOOL$</text>
</g>
</g>
<path d="M853.75 931a10 10 0 0 0 10 -10v-10a10 10 0 0 1 10 -10"></path>
</g>
<path d="M873.75 901h10"></path>
<g class="terminal ">
<path d="M883.75 901h0"></path>
<path d="M1014.25 901h0"></path>
<rect x="883.75" y="890" width="130.5" height="22" rx="10" ry="10"></rect>
<text x="949" y="905">!"ParenLeftW"</text>
</g>
<path d="M1014.25 901h10"></path>
<path d="M1024.25 901h10"></path>
<g class="non-terminal ">
<path d="M1034.25 901h0"></path>
<path d="M1088.25 901h0"></path>
<rect x="1034.25" y="890" width="54" height="22"></rect>
<a xlink:href="#/abap/expression/Cond"><text x="1061.25" y="905">Cond</text>
</a>
</g>
<path d="M1088.25 901h10"></path>
<path d="M1098.25 901h10"></path>
<g class="terminal ">
<path d="M1108.25 901h0"></path>
<path d="M1153.75 901h0"></path>
<rect x="1108.25" y="890" width="45.5" height="22" rx="10" ry="10"></rect>
<text x="1131" y="905">")"</text>
</g>
</g>
<path d="M1200.75 901a10 10 0 0 0 10 -10v-70a10 10 0 0 1 10 -10"></path>
<path d="M493.25 811a10 10 0 0 1 10 10v139a10 10 0 0 0 10 10"></path>
<g>
<path d="M513.25 970h0"></path>
<path d="M1200.75 970h0"></path>
<g class="non-terminal ">
<path d="M513.25 970h0"></path>
<path d="M660.75 970h0"></path>
<rect x="513.25" y="959" width="147.5" height="22"></rect>
<a xlink:href="#/abap/expression/MethodCallChain"><text x="587" y="974">MethodCallChain</text>
</a>
</g>
<path d="M660.75 970h10"></path>
<g>
<path d="M670.75 970h0"></path>
<path d="M989.25 970h0"></path>
<path d="M670.75 970a10 10 0 0 0 10 -10v0a10 10 0 0 1 10 -10"></path>
<g>
<path d="M690.75 950h278.5"></path>
</g>
<path d="M969.25 950a10 10 0 0 1 10 10v0a10 10 0 0 0 10 10"></path>
<path d="M670.75 970h20"></path>
<g>
<path d="M690.75 970h0"></path>
<path d="M969.25 970h0"></path>
<path d="M690.75 970h20"></path>
<g>
<path d="M710.75 970h8.5"></path>
<path d="M940.75 970h8.5"></path>
<g class="non-terminal ">
<path d="M719.25 970h0"></path>
<path d="M781.75 970h0"></path>
<rect x="719.25" y="959" width="62.5" height="22"></rect>
<a xlink:href="#/abap/expression/Arrow"><text x="750.5" y="974">Arrow</text>
</a>
</g>
<path d="M781.75 970h10"></path>
<path d="M791.75 970h10"></path>
<g class="non-terminal ">
<path d="M801.75 970h0"></path>
<path d="M940.75 970h0"></path>
<rect x="801.75" y="959" width="139" height="22"></rect>
<a xlink:href="#/abap/expression/AttributeChain"><text x="871.25" y="974">AttributeChain</text>
</a>
</g>
</g>
<path d="M949.25 970h20"></path>
<path d="M690.75 970a10 10 0 0 1 10 10v10a10 10 0 0 0 10 10"></path>
<g>
<path d="M710.75 1000h0"></path>
<path d="M949.25 1000h0"></path>
<g class="terminal ">
<path d="M710.75 1000h0"></path>
<path d="M790.25 1000h0"></path>
<rect x="710.75" y="989" width="79.5" height="22" rx="10" ry="10"></rect>
<text x="750.5" y="1004">!"Dash"</text>
</g>
<path d="M790.25 1000h10"></path>
<path d="M800.25 1000h10"></path>
<g class="non-terminal ">
<path d="M810.25 1000h0"></path>
<path d="M949.25 1000h0"></path>
<rect x="810.25" y="989" width="139" height="22"></rect>
<a xlink:href="#/abap/expression/ComponentChain"><text x="879.75" y="1004">ComponentChain</text>
</a>
</g>
</g>
<path d="M949.25 1000a10 10 0 0 0 10 -10v-10a10 10 0 0 1 10 -10"></path>
</g>
<path d="M969.25 970h20"></path>
</g>
<g>
<path d="M989.25 970h0"></path>
<path d="M1200.75 970h0"></path>
<path d="M989.25 970a10 10 0 0 0 10 -10v0a10 10 0 0 1 10 -10"></path>
<g>
<path d="M1009.25 950h171.5"></path>
</g>
<path d="M1180.75 950a10 10 0 0 1 10 10v0a10 10 0 0 0 10 10"></path>
<path d="M989.25 970h20"></path>
<g>
<path d="M1009.25 970h0"></path>
<path d="M1180.75 970h0"></path>
<g class="comment ">
<path d="M1009.25 970h0"></path>
<path d="M1047.25 970h0"></path>
<text x="1028.25" y="975" class="comment">v756</text>
</g>
<path d="M1047.25 970h10"></path>
<path d="M1057.25 970h10"></path>
<g class="non-terminal ">
<path d="M1067.25 970h0"></path>
<path d="M1180.75 970h0"></path>
<rect x="1067.25" y="959" width="113.5" height="22"></rect>
<a xlink:href="#/abap/expression/Dereference"><text x="1124" y="974">Dereference</text>
</a>
</g>
</g>
<path d="M1180.75 970h20"></path>
</g>
</g>
<path d="M1200.75 970a10 10 0 0 0 10 -10v-139a10 10 0 0 1 10 -10"></path>
<path d="M493.25 811a10 10 0 0 1 10 10v208a10 10 0 0 0 10 10"></path>
<g>
<path d="M513.25 1039h180.5"></path>
<path d="M1020.25 1039h180.5"></path>
<g class="non-terminal ">
<path d="M693.75 1039h0"></path>
<path d="M798.75 1039h0"></path>
<rect x="693.75" y="1028" width="105" height="22"></rect>
<a xlink:href="#/abap/expression/FieldChain"><text x="746.25" y="1043">FieldChain</text>
</a>
</g>
<path d="M798.75 1039h10"></path>
<g>
<path d="M808.75 1039h0"></path>
<path d="M1020.25 1039h0"></path>
<path d="M808.75 1039a10 10 0 0 0 10 -10v0a10 10 0 0 1 10 -10"></path>
<g>
<path d="M828.75 1019h171.5"></path>
</g>
<path d="M1000.25 1019a10 10 0 0 1 10 10v0a10 10 0 0 0 10 10"></path>
<path d="M808.75 1039h20"></path>
<g>
<path d="M828.75 1039h0"></path>
<path d="M1000.25 1039h0"></path>
<g class="comment ">
<path d="M828.75 1039h0"></path>
<path d="M866.75 1039h0"></path>
<text x="847.75" y="1044" class="comment">v756</text>
</g>
<path d="M866.75 1039h10"></path>
<path d="M876.75 1039h10"></path>
<g class="non-terminal ">
<path d="M886.75 1039h0"></path>
<path d="M1000.25 1039h0"></path>
<rect x="886.75" y="1028" width="113.5" height="22"></rect>
<a xlink:href="#/abap/expression/Dereference"><text x="943.5" y="1043">Dereference</text>
</a>
</g>
</g>
<path d="M1000.25 1039h20"></path>
</g>
</g>
<path d="M1200.75 1039a10 10 0 0 0 10 -10v-208a10 10 0 0 1 10 -10"></path>
<path d="M493.25 811a10 10 0 0 1 10 10v238a10 10 0 0 0 10 10"></path>
<g>
<path d="M513.25 1069h145"></path>
<path d="M1055.75 1069h145"></path>
<g class="terminal ">
<path d="M658.25 1069h0"></path>
<path d="M797.25 1069h0"></path>
<rect x="658.25" y="1058" width="139" height="22" rx="10" ry="10"></rect>
<text x="727.75" y="1073">!"WParenLeftW"</text>
</g>
<path d="M797.25 1069h10"></path>
<path d="M807.25 1069h10"></path>
<g class="non-terminal ">
<path d="M817.25 1069h0"></path>
<path d="M888.25 1069h0"></path>
<rect x="817.25" y="1058" width="71" height="22"></rect>
<a xlink:href="#/abap/expression/Source"><text x="852.75" y="1073">Source</text>
</a>
</g>
<path d="M888.25 1069h10"></path>
<path d="M898.25 1069h10"></path>
<g class="terminal ">
<path d="M908.25 1069h0"></path>
<path d="M1055.75 1069h0"></path>
<rect x="908.25" y="1058" width="147.5" height="22" rx="10" ry="10"></rect>
<text x="982" y="1073">!"WParenRightW"</text>
</g>
</g>
<path d="M1200.75 1069a10 10 0 0 0 10 -10v-238a10 10 0 0 1 10 -10"></path>
</g>
<g>
<path d="M1220.75 811h0"></path>
<path d="M1512.25 811h0"></path>
<path d="M1220.75 811a10 10 0 0 0 10 -10v0a10 10 0 0 1 10 -10"></path>
<g>
<path d="M1240.75 791h251.5"></path>
</g>
<path d="M1492.25 791a10 10 0 0 1 10 10v0a10 10 0 0 0 10 10"></path>
<path d="M1220.75 811h20"></path>
<g>
<path d="M1240.75 811h0"></path>
<path d="M1492.25 811h0"></path>
<g>
<path d="M1240.75 811h0"></path>
<path d="M1411.25 811h0"></path>
<path d="M1240.75 811h20"></path>
<g class="terminal ">
<path d="M1260.75 811h42.5"></path>
<path d="M1348.75 811h42.5"></path>
<rect x="1303.25" y="800" width="45.5" height="22" rx="10" ry="10"></rect>
<text x="1326" y="815">"&#38;"</text>
</g>
<path d="M1391.25 811h20"></path>
<path d="M1240.75 811a10 10 0 0 1 10 10v10a10 10 0 0 0 10 10"></path>
<g class="terminal ">
<path d="M1260.75 841h38.25"></path>
<path d="M1353 841h38.25"></path>
<rect x="1299" y="830" width="54" height="22" rx="10" ry="10"></rect>
<text x="1326" y="845">"&#38;&#38;"</text>
</g>
<path d="M1391.25 841a10 10 0 0 0 10 -10v-10a10 10 0 0 1 10 -10"></path>
<path d="M1240.75 811a10 10 0 0 1 10 10v40a10 10 0 0 0 10 10"></path>
<g class="non-terminal ">
<path d="M1260.75 871h0"></path>
<path d="M1391.25 871h0"></path>
<rect x="1260.75" y="860" width="130.5" height="22"></rect>
<a xlink:href="#/abap/expression/ArithOperator"><text x="1326" y="875">ArithOperator</text>
</a>
</g>
<path d="M1391.25 871a10 10 0 0 0 10 -10v-40a10 10 0 0 1 10 -10"></path>
</g>
<path d="M1411.25 811h10"></path>
<g class="non-terminal ">
<path d="M1421.25 811h0"></path>
<path d="M1492.25 811h0"></path>
<rect x="1421.25" y="800" width="71" height="22"></rect>
<a xlink:href="#/abap/expression/Source"><text x="1456.75" y="815">Source</text>
</a>
</g>
</g>
<path d="M1492.25 811h20"></path>
</g>
</g>
<path d="M1562.5 811a10 10 0 0 0 10 -10v-751a10 10 0 0 1 10 -10"></path>
</g>
</g>
<path d="M1582.5 40h10"></path>
<path d="M 1592.5 40 h 20 m 0 -10 v 20"></path>
</g>
</svg>
