<svg xmlns="http://www.w3.org/2000/svg" xmlns:xlink="http://www.w3.org/1999/xlink" class="railroad-diagram" width="550" height="131" viewBox="0 0 550 131">
<defs>
<style type="text/css"><![CDATA[
path {
stroke-width: 3;
stroke: black;
fill: rgba(0,0,0,0);
}
text {
font: bold 14px monospace;
text-anchor: middle;
}
text.diagram-text {
font-size: 12px;
}
a {
fill: blue;
}
text.diagram-arrow {
font-size: 16px;
}
text.label {
text-anchor: start;
}
text.comment {
font: italic 12px monospace;
}
rect {
stroke-width: 3;
stroke: black;
fill: #BCBCBC;
}
path.diagram-text {
stroke-width: 3;
stroke: black;
fill: #BCBCBC;
cursor: help;
}
]]></style>
</defs>
<g transform="translate(.5 .5)">
<g>
<path d="M20 30v20m0 -10h20"></path>
</g>
<g>
<path d="M40 40h0"></path>
<path d="M510 40h0"></path>
<path d="M40 40h20"></path>
<g>
<path d="M60 40h0"></path>
<path d="M490 40h0"></path>
<g>
<path d="M60 40h0"></path>
<path d="M126 40h0"></path>
<text x="93" y="45" class="comment">v740sp05</text>
</g>
<path d="M126 40h10"></path>
<path d="M136 40h10"></path>
<g>
<path d="M146 40h0"></path>
<path d="M490 40h0"></path>
<g>
<path d="M146 40h0"></path>
<path d="M306.5 40h0"></path>
<path d="M146 40a10 10 0 0 0 10 -10v0a10 10 0 0 1 10 -10"></path>
<g>
<path d="M166 20h120.5"></path>
</g>
<path d="M286.5 20a10 10 0 0 1 10 10v0a10 10 0 0 0 10 10"></path>
<path d="M146 40h20"></path>
<g>
<path d="M166 40h0"></path>
<path d="M286.5 40h0"></path>
<g>
<path d="M166 40h0"></path>
<path d="M204 40h0"></path>
<text x="185" y="45" class="comment">v754</text>
</g>
<path d="M204 40h10"></path>
<path d="M214 40h10"></path>
<g class="terminal">
<path d="M224 40h0"></path>
<path d="M286.5 40h0"></path>
<rect x="224" y="29" width="62.5" height="22" rx="10" ry="10"></rect>
<text x="255.25" y="44">"NEW"</text>
</g>
</g>
<path d="M286.5 40h20"></path>
</g>
<g>
<path d="M306.5 40h0"></path>
<path d="M409 40h0"></path>
<path d="M306.5 40h20"></path>
<g class="terminal">
<path d="M326.5 40h0"></path>
<path d="M389 40h0"></path>
<rect x="326.5" y="29" width="62.5" height="22" rx="10" ry="10"></rect>
<text x="357.75" y="44">!" @"</text>
</g>
<path d="M389 40h20"></path>
<path d="M306.5 40a10 10 0 0 1 10 10v10a10 10 0 0 0 10 10"></path>
<g class="terminal">
<path d="M326.5 70h0"></path>
<path d="M380.5 70h8.5"></path>
<rect x="326.5" y="59" width="54" height="22" rx="10" ry="10"></rect>
<text x="353.5" y="74">!"@"</text>
</g>
<path d="M389 70a10 10 0 0 0 10 -10v-10a10 10 0 0 1 10 -10"></path>
</g>
<path d="M409 40h10"></path>
<g class="non-terminal">
<path d="M419 40h0"></path>
<path d="M490 40h0"></path>
<rect x="419" y="29" width="71" height="22"></rect>
<a xlink:href="#/abap/expression/Target"><text x="454.5" y="44">Target</text>
</a>
</g>
</g>
</g>
<path d="M490 40h20"></path>
<path d="M40 40a10 10 0 0 1 10 10v40a10 10 0 0 0 10 10"></path>
<g class="non-terminal">
<path d="M60 100h0"></path>
<path d="M131 100h359"></path>
<rect x="60" y="89" width="71" height="22"></rect>
<a xlink:href="#/abap/expression/Target"><text x="95.5" y="104">Target</text>
</a>
</g>
<path d="M490 100a10 10 0 0 0 10 -10v-40a10 10 0 0 1 10 -10"></path>
</g>
<path d="M 510 40 h 20 m 0 -10 v 20"></path>
</g>
</svg>
