<svg xmlns="http://www.w3.org/2000/svg" xmlns:xlink="http://www.w3.org/1999/xlink" class="railroad-diagram" width="1319.5" height="251" viewBox="0 0 1319.5 251">
<defs>
<style type="text/css"><![CDATA[
path {
stroke-width: 3;
stroke: black;
fill: rgba(0,0,0,0);
}
text {
font: bold 14px monospace;
text-anchor: middle;
}
text.diagram-text {
font-size: 12px;
}
a {
fill: blue;
}
text.diagram-arrow {
font-size: 16px;
}
text.label {
text-anchor: start;
}
text.comment {
font: italic 12px monospace;
}
rect {
stroke-width: 3;
stroke: black;
fill: #BCBCBC;
}
path.diagram-text {
stroke-width: 3;
stroke: black;
fill: #BCBCBC;
cursor: help;
}
]]></style>
</defs>
<g transform="translate(.5 .5)">
<g>
<path d="M20 21v20m0 -10h20"></path>
</g>
<g>
<path d="M40 31h0"></path>
<path d="M1279.5 31h0"></path>
<path d="M40 31h20"></path>
<g class="non-terminal ">
<path d="M60 31h547.25"></path>
<path d="M712.25 31h547.25"></path>
<rect x="607.25" y="20" width="105" height="22"></rect>
<a xlink:href="#/abap/expression/InlineData"><text x="659.75" y="35">InlineData</text>
</a>
</g>
<path d="M1259.5 31h20"></path>
<path d="M40 31a10 10 0 0 1 10 10v10a10 10 0 0 0 10 10"></path>
<g class="non-terminal ">
<path d="M60 61h555.75"></path>
<path d="M703.75 61h555.75"></path>
<rect x="615.75" y="50" width="88" height="22"></rect>
<a xlink:href="#/abap/expression/InlineFS"><text x="659.75" y="65">InlineFS</text>
</a>
</g>
<path d="M1259.5 61a10 10 0 0 0 10 -10v-10a10 10 0 0 1 10 -10"></path>
<path d="M40 31a10 10 0 0 1 10 10v49a10 10 0 0 0 10 10"></path>
<g>
<path d="M60 100h0"></path>
<path d="M1259.5 100h0"></path>
<g>
<path d="M60 100h0"></path>
<path d="M506 100h0"></path>
<path d="M60 100h20"></path>
<g class="non-terminal ">
<path d="M80 100h176"></path>
<path d="M310 100h176"></path>
<rect x="256" y="89" width="54" height="22"></rect>
<a xlink:href="#/abap/expression/Cast"><text x="283" y="104">Cast</text>
</a>
</g>
<path d="M486 100h20"></path>
<path d="M60 100a10 10 0 0 1 10 10v10a10 10 0 0 0 10 10"></path>
<g class="non-terminal ">
<path d="M80 130h154.75"></path>
<path d="M331.25 130h154.75"></path>
<rect x="234.75" y="119" width="96.5" height="22"></rect>
<a xlink:href="#/abap/expression/NewObject"><text x="283" y="134">NewObject</text>
</a>
</g>
<path d="M486 130a10 10 0 0 0 10 -10v-10a10 10 0 0 1 10 -10"></path>
<path d="M60 100a10 10 0 0 1 10 10v40a10 10 0 0 0 10 10"></path>
<g>
<path d="M80 160h0"></path>
<path d="M486 160h0"></path>
<g class="non-terminal ">
<path d="M80 160h0"></path>
<path d="M176.5 160h0"></path>
<rect x="80" y="149" width="96.5" height="22"></rect>
<a xlink:href="#/abap/expression/ClassName"><text x="128.25" y="164">ClassName</text>
</a>
</g>
<path d="M176.5 160h10"></path>
<path d="M186.5 160h10"></path>
<g class="terminal ">
<path d="M196.5 160h0"></path>
<path d="M335.5 160h0"></path>
<rect x="196.5" y="149" width="139" height="22" rx="10" ry="10"></rect>
<text x="266" y="164">!"StaticArrow"</text>
</g>
<path d="M335.5 160h10"></path>
<path d="M345.5 160h10"></path>
<g class="non-terminal ">
<path d="M355.5 160h0"></path>
<path d="M486 160h0"></path>
<rect x="355.5" y="149" width="130.5" height="22"></rect>
<a xlink:href="#/abap/expression/AttributeName"><text x="420.75" y="164">AttributeName</text>
</a>
</g>
</g>
<path d="M486 160a10 10 0 0 0 10 -10v-40a10 10 0 0 1 10 -10"></path>
<path d="M60 100a10 10 0 0 1 10 10v70a10 10 0 0 0 10 10"></path>
<g class="non-terminal ">
<path d="M80 190h146.25"></path>
<path d="M339.75 190h146.25"></path>
<rect x="226.25" y="179" width="113.5" height="22"></rect>
<a xlink:href="#/abap/expression/TargetField"><text x="283" y="194">TargetField</text>
</a>
</g>
<path d="M486 190a10 10 0 0 0 10 -10v-70a10 10 0 0 1 10 -10"></path>
<path d="M60 100a10 10 0 0 1 10 10v100a10 10 0 0 0 10 10"></path>
<g class="non-terminal ">
<path d="M80 220h120.75"></path>
<path d="M365.25 220h120.75"></path>
<rect x="200.75" y="209" width="164.5" height="22"></rect>
<a xlink:href="#/abap/expression/TargetFieldSymbol"><text x="283" y="224">TargetFieldSymbol</text>
</a>
</g>
<path d="M486 220a10 10 0 0 0 10 -10v-100a10 10 0 0 1 10 -10"></path>
</g>
<g>
<path d="M506 100h0"></path>
<path d="M912.5 100h0"></path>
<path d="M506 100a10 10 0 0 0 10 -10v0a10 10 0 0 1 10 -10"></path>
<g>
<path d="M526 80h366.5"></path>
</g>
<path d="M892.5 80a10 10 0 0 1 10 10v0a10 10 0 0 0 10 10"></path>
<path d="M506 100h20"></path>
<g>
<path d="M526 100h0"></path>
<path d="M892.5 100h0"></path>
<path d="M526 100h10"></path>
<g>
<path d="M536 100h0"></path>
<path d="M882.5 100h0"></path>
<path d="M536 100h20"></path>
<g class="non-terminal ">
<path d="M556 100h96.5"></path>
<path d="M766 100h96.5"></path>
<rect x="652.5" y="89" width="113.5" height="22"></rect>
<a xlink:href="#/abap/expression/Dereference"><text x="709.25" y="104">Dereference</text>
</a>
</g>
<path d="M862.5 100h20"></path>
<path d="M536 100a10 10 0 0 1 10 10v10a10 10 0 0 0 10 10"></path>
<g>
<path d="M556 130h0"></path>
<path d="M862.5 130h0"></path>
<g class="terminal ">
<path d="M556 130h0"></path>
<path d="M712 130h0"></path>
<rect x="556" y="119" width="156" height="22" rx="10" ry="10"></rect>
<text x="634" y="134">!"InstanceArrow"</text>
</g>
<path d="M712 130h10"></path>
<path d="M722 130h10"></path>
<g class="non-terminal ">
<path d="M732 130h0"></path>
<path d="M862.5 130h0"></path>
<rect x="732" y="119" width="130.5" height="22"></rect>
<a xlink:href="#/abap/expression/AttributeName"><text x="797.25" y="134">AttributeName</text>
</a>
</g>
</g>
<path d="M862.5 130a10 10 0 0 0 10 -10v-10a10 10 0 0 1 10 -10"></path>
<path d="M536 100a10 10 0 0 1 10 10v40a10 10 0 0 0 10 10"></path>
<g>
<path d="M556 160h38.25"></path>
<path d="M824.25 160h38.25"></path>
<g class="terminal ">
<path d="M594.25 160h0"></path>
<path d="M673.75 160h0"></path>
<rect x="594.25" y="149" width="79.5" height="22" rx="10" ry="10"></rect>
<text x="634" y="164">!"Dash"</text>
</g>
<path d="M673.75 160h10"></path>
<path d="M683.75 160h10"></path>
<g class="non-terminal ">
<path d="M693.75 160h0"></path>
<path d="M824.25 160h0"></path>
<rect x="693.75" y="149" width="130.5" height="22"></rect>
<a xlink:href="#/abap/expression/ComponentName"><text x="759" y="164">ComponentName</text>
</a>
</g>
</g>
<path d="M862.5 160a10 10 0 0 0 10 -10v-40a10 10 0 0 1 10 -10"></path>
<path d="M536 100a10 10 0 0 1 10 10v70a10 10 0 0 0 10 10"></path>
<g class="non-terminal ">
<path d="M556 190h79.5"></path>
<path d="M783 190h79.5"></path>
<rect x="635.5" y="179" width="147.5" height="22"></rect>
<a xlink:href="#/abap/expression/TableExpression"><text x="709.25" y="194">TableExpression</text>
</a>
</g>
<path d="M862.5 190a10 10 0 0 0 10 -10v-70a10 10 0 0 1 10 -10"></path>
</g>
<path d="M882.5 100h10"></path>
<path d="M536 100a10 10 0 0 0 -10 10v89a10 10 0 0 0 10 10"></path>
<g>
<path d="M536 209h346.5"></path>
</g>
<path d="M882.5 209a10 10 0 0 0 10 -10v-89a10 10 0 0 0 -10 -10"></path>
</g>
<path d="M892.5 100h20"></path>
</g>
<g>
<path d="M912.5 100h0"></path>
<path d="M1259.5 100h0"></path>
<path d="M912.5 100h20"></path>
<g class="non-terminal ">
<path d="M932.5 100h105.25"></path>
<path d="M1134.25 100h105.25"></path>
<rect x="1037.75" y="89" width="96.5" height="22"></rect>
<a xlink:href="#/abap/expression/TableBody"><text x="1086" y="104">TableBody</text>
</a>
</g>
<path d="M1239.5 100h20"></path>
<path d="M912.5 100a10 10 0 0 1 10 10v19a10 10 0 0 0 10 10"></path>
<g>
<path d="M932.5 139h0"></path>
<path d="M1239.5 139h0"></path>
<g>
<path d="M932.5 139h0"></path>
<path d="M1086 139h0"></path>
<path d="M932.5 139a10 10 0 0 0 10 -10v0a10 10 0 0 1 10 -10"></path>
<g>
<path d="M952.5 119h113.5"></path>
</g>
<path d="M1066 119a10 10 0 0 1 10 10v0a10 10 0 0 0 10 10"></path>
<path d="M932.5 139h20"></path>
<g class="non-terminal ">
<path d="M952.5 139h0"></path>
<path d="M1066 139h0"></path>
<rect x="952.5" y="128" width="113.5" height="22"></rect>
<a xlink:href="#/abap/expression/FieldOffset"><text x="1009.25" y="143">FieldOffset</text>
</a>
</g>
<path d="M1066 139h20"></path>
</g>
<g>
<path d="M1086 139h0"></path>
<path d="M1239.5 139h0"></path>
<path d="M1086 139a10 10 0 0 0 10 -10v0a10 10 0 0 1 10 -10"></path>
<g>
<path d="M1106 119h113.5"></path>
</g>
<path d="M1219.5 119a10 10 0 0 1 10 10v0a10 10 0 0 0 10 10"></path>
<path d="M1086 139h20"></path>
<g class="non-terminal ">
<path d="M1106 139h0"></path>
<path d="M1219.5 139h0"></path>
<rect x="1106" y="128" width="113.5" height="22"></rect>
<a xlink:href="#/abap/expression/FieldLength"><text x="1162.75" y="143">FieldLength</text>
</a>
</g>
<path d="M1219.5 139h20"></path>
</g>
</g>
<path d="M1239.5 139a10 10 0 0 0 10 -10v-19a10 10 0 0 1 10 -10"></path>
</g>
</g>
<path d="M1259.5 100a10 10 0 0 0 10 -10v-49a10 10 0 0 1 10 -10"></path>
</g>
<path d="M 1279.5 31 h 20 m 0 -10 v 20"></path>
</g>
</svg>
