<svg xmlns="http://www.w3.org/2000/svg" xmlns:xlink="http://www.w3.org/1999/xlink" class="railroad-diagram" width="1181.5" height="88" viewBox="0 0 1181.5 88">
<defs>
<style type="text/css"><![CDATA[
path {
stroke-width: 3;
stroke: black;
fill: rgba(0,0,0,0);
}
text {
font: bold 14px monospace;
text-anchor: middle;
}
text.diagram-text {
font-size: 12px;
}
a {
fill: blue;
}
text.diagram-arrow {
font-size: 16px;
}
text.label {
text-anchor: start;
}
text.comment {
font: italic 12px monospace;
}
rect {
stroke-width: 3;
stroke: black;
fill: #BCBCBC;
}
path.diagram-text {
stroke-width: 3;
stroke: black;
fill: #BCBCBC;
cursor: help;
}
]]></style>
</defs>
<g transform="translate(.5 .5)">
<g>
<path d="M20 38v20m0 -10h20"></path>
</g>
<path d="M40 48h10"></path>
<g>
<path d="M50 48h0"></path>
<path d="M1131.5 48h0"></path>
<g class="terminal">
<path d="M50 48h0"></path>
<path d="M452.5 48h0"></path>
<rect x="50" y="37" width="402.5" height="22" rx="10" ry="10"></rect>
<text x="251.25" y="52">^&#38;|&#38;?((\w&#42;\/\w+\/)|(\w&#42;\/\w+\/)?&#91;\w\&#42;$%\?&#93;+)$</text>
</g>
<path d="M452.5 48h10"></path>
<g>
<path d="M462.5 48h0"></path>
<path d="M1029 48h0"></path>
<path d="M462.5 48a10 10 0 0 0 10 -10v-8a10 10 0 0 1 10 -10"></path>
<g>
<path d="M482.5 20h526.5"></path>
</g>
<path d="M1009 20a10 10 0 0 1 10 10v8a10 10 0 0 0 10 10"></path>
<path d="M462.5 48h20"></path>
<g>
<path d="M482.5 48h0"></path>
<path d="M1009 48h0"></path>
<path d="M482.5 48h10"></path>
<g>
<path d="M492.5 48h0"></path>
<path d="M999 48h0"></path>
<g class="terminal">
<path d="M492.5 48h0"></path>
<path d="M546.5 48h0"></path>
<rect x="492.5" y="37" width="54" height="22" rx="10" ry="10"></rect>
<text x="519.5" y="52">!"-"</text>
</g>
<path d="M546.5 48h10"></path>
<g>
<path d="M556.5 48h0"></path>
<path d="M999 48h0"></path>
<path d="M556.5 48a10 10 0 0 0 10 -10v0a10 10 0 0 1 10 -10"></path>
<g>
<path d="M576.5 28h402.5"></path>
</g>
<path d="M979 28a10 10 0 0 1 10 10v0a10 10 0 0 0 10 10"></path>
<path d="M556.5 48h20"></path>
<g class="terminal">
<path d="M576.5 48h0"></path>
<path d="M979 48h0"></path>
<rect x="576.5" y="37" width="402.5" height="22" rx="10" ry="10"></rect>
<text x="777.75" y="52">^&#38;|&#38;?((\w&#42;\/\w+\/)|(\w&#42;\/\w+\/)?&#91;\w\&#42;$%\?&#93;+)$</text>
</g>
<path d="M979 48h20"></path>
</g>
</g>
<path d="M999 48h10"></path>
<path d="M492.5 48a10 10 0 0 0 -10 10v0a10 10 0 0 0 10 10"></path>
<g>
<path d="M492.5 68h506.5"></path>
</g>
<path d="M999 68a10 10 0 0 0 10 -10v0a10 10 0 0 0 -10 -10"></path>
</g>
<path d="M1009 48h20"></path>
</g>
<g>
<path d="M1029 48h0"></path>
<path d="M1131.5 48h0"></path>
<path d="M1029 48a10 10 0 0 0 10 -10v0a10 10 0 0 1 10 -10"></path>
<g>
<path d="M1049 28h62.5"></path>
</g>
<path d="M1111.5 28a10 10 0 0 1 10 10v0a10 10 0 0 0 10 10"></path>
<path d="M1029 48h20"></path>
<g class="terminal">
<path d="M1049 48h0"></path>
<path d="M1111.5 48h0"></path>
<rect x="1049" y="37" width="62.5" height="22" rx="10" ry="10"></rect>
<text x="1080.25" y="52">!"- "</text>
</g>
<path d="M1111.5 48h20"></path>
</g>
</g>
<path d="M1131.5 48h10"></path>
<path d="M 1141.5 48 h 20 m 0 -10 v 20"></path>
</g>
</svg>
