<svg xmlns="http://www.w3.org/2000/svg" xmlns:xlink="http://www.w3.org/1999/xlink" class="railroad-diagram" width="444" height="62" viewBox="0 0 444 62">
<defs>
<style type="text/css"><![CDATA[
path {
stroke-width: 3;
stroke: black;
fill: rgba(0,0,0,0);
}
text {
font: bold 14px monospace;
text-anchor: middle;
}
text.diagram-text {
font-size: 12px;
}
a {
fill: blue;
}
text.diagram-arrow {
font-size: 16px;
}
text.label {
text-anchor: start;
}
text.comment {
font: italic 12px monospace;
}
rect {
stroke-width: 3;
stroke: black;
fill: #BCBCBC;
}
path.diagram-text {
stroke-width: 3;
stroke: black;
fill: #BCBCBC;
cursor: help;
}
]]></style>
</defs>
<g transform="translate(.5 .5)">
<g>
<path d="M20 21v20m0 -10h20"></path>
</g>
<path d="M40 31h10"></path>
<g>
<path d="M50 31h0"></path>
<path d="M394 31h0"></path>
<g class="terminal">
<path d="M50 31h0"></path>
<path d="M121 31h0"></path>
<rect x="50" y="20" width="71" height="22" rx="10" ry="10"></rect>
<text x="85.5" y="35">"BASE"</text>
</g>
<path d="M121 31h10"></path>
<path d="M131 31h10"></path>
<g class="terminal">
<path d="M141 31h0"></path>
<path d="M212 31h0"></path>
<rect x="141" y="20" width="71" height="22" rx="10" ry="10"></rect>
<text x="176.5" y="35">!" ( "</text>
</g>
<path d="M212 31h10"></path>
<path d="M222 31h10"></path>
<g class="non-terminal">
<path d="M232 31h0"></path>
<path d="M303 31h0"></path>
<rect x="232" y="20" width="71" height="22"></rect>
<a xlink:href="#/abap/expression/Source"><text x="267.5" y="35">Source</text>
</a>
</g>
<path d="M303 31h10"></path>
<path d="M313 31h10"></path>
<g class="terminal">
<path d="M323 31h0"></path>
<path d="M394 31h0"></path>
<rect x="323" y="20" width="71" height="22" rx="10" ry="10"></rect>
<text x="358.5" y="35">!" ) "</text>
</g>
</g>
<path d="M394 31h10"></path>
<path d="M 404 31 h 20 m 0 -10 v 20"></path>
</g>
</svg>
