<svg xmlns="http://www.w3.org/2000/svg" xmlns:xlink="http://www.w3.org/1999/xlink" class="railroad-diagram" width="728" height="578" viewBox="0 0 728 578">
<defs>
<style type="text/css"><![CDATA[
path {
stroke-width: 3;
stroke: black;
fill: rgba(0,0,0,0);
}
text {
font: bold 14px monospace;
text-anchor: middle;
}
text.diagram-text {
font-size: 12px;
}
a {
fill: blue;
}
text.diagram-arrow {
font-size: 16px;
}
text.label {
text-anchor: start;
}
text.comment {
font: italic 12px monospace;
}
rect {
stroke-width: 3;
stroke: black;
fill: #BCBCBC;
}
path.diagram-text {
stroke-width: 3;
stroke: black;
fill: #BCBCBC;
cursor: help;
}
]]></style>
</defs>
<g transform="translate(.5 .5)">
<g>
<path d="M20 21v20m10 -20v20m-10 -10h20"></path>
</g>
<path d="M40 31h10"></path>
<g>
<path d="M50 31h0"></path>
<path d="M678 31h0"></path>
<g class="comment ">
<path d="M50 31h0"></path>
<path d="M123 31h0"></path>
<text x="86.5" y="36" class="comment">not Cloud</text>
</g>
<path d="M123 31h10"></path>
<path d="M133 31h10"></path>
<g>
<path d="M143 31h0"></path>
<path d="M678 31h0"></path>
<g class="terminal ">
<path d="M143 31h0"></path>
<path d="M231 31h0"></path>
<rect x="143" y="20" width="88" height="22" rx="10" ry="10"></rect>
<text x="187" y="35">"FORMAT"</text>
</g>
<path d="M231 31h10"></path>
<path d="M241 31h10"></path>
<g>
<path d="M251 31h0"></path>
<path d="M678 31h0"></path>
<path d="M281 31h10"></path>
<g class="terminal ">
<path d="M291 31h138.75"></path>
<path d="M509.25 31h138.75"></path>
<rect x="429.75" y="20" width="79.5" height="22" rx="10" ry="10"></rect>
<text x="469.5" y="35">"RESET"</text>
</g>
<path d="M648 31h10"></path>
<path d="M281 31v29a10 10 0 0 0 10 10"></path>
<g>
<path d="M291 70h0"></path>
<path d="M648 70h0"></path>
<g class="terminal ">
<path d="M291 70h0"></path>
<path d="M421.5 70h0"></path>
<rect x="291" y="59" width="130.5" height="22" rx="10" ry="10"></rect>
<text x="356.25" y="74">"INTENSIFIED"</text>
</g>
<path d="M421.5 70h10"></path>
<g>
<path d="M431.5 70h0"></path>
<path d="M648 70h0"></path>
<path d="M431.5 70a10 10 0 0 0 10 -10v0a10 10 0 0 1 10 -10"></path>
<g>
<path d="M451.5 50h176.5"></path>
</g>
<path d="M628 50a10 10 0 0 1 10 10v0a10 10 0 0 0 10 10"></path>
<path d="M431.5 70h20"></path>
<g>
<path d="M451.5 70h0"></path>
<path d="M628 70h0"></path>
<path d="M451.5 70h20"></path>
<g>
<path d="M471.5 70h0"></path>
<path d="M608 70h0"></path>
<g class="terminal ">
<path d="M471.5 70h0"></path>
<path d="M517 70h0"></path>
<rect x="471.5" y="59" width="45.5" height="22" rx="10" ry="10"></rect>
<text x="494.25" y="74">"="</text>
</g>
<path d="M517 70h10"></path>
<path d="M527 70h10"></path>
<g class="non-terminal ">
<path d="M537 70h0"></path>
<path d="M608 70h0"></path>
<rect x="537" y="59" width="71" height="22"></rect>
<a xlink:href="#/abap/expression/Source"><text x="572.5" y="74">Source</text>
</a>
</g>
</g>
<path d="M608 70h20"></path>
<path d="M451.5 70a10 10 0 0 1 10 10v10a10 10 0 0 0 10 10"></path>
<g class="terminal ">
<path d="M471.5 100h41.25"></path>
<path d="M566.75 100h41.25"></path>
<rect x="512.75" y="89" width="54" height="22" rx="10" ry="10"></rect>
<text x="539.75" y="104">"ON"</text>
</g>
<path d="M608 100a10 10 0 0 0 10 -10v-10a10 10 0 0 1 10 -10"></path>
<path d="M451.5 70a10 10 0 0 1 10 10v40a10 10 0 0 0 10 10"></path>
<g class="terminal ">
<path d="M471.5 130h37"></path>
<path d="M571 130h37"></path>
<rect x="508.5" y="119" width="62.5" height="22" rx="10" ry="10"></rect>
<text x="539.75" y="134">"OFF"</text>
</g>
<path d="M608 130a10 10 0 0 0 10 -10v-40a10 10 0 0 1 10 -10"></path>
</g>
<path d="M628 70h20"></path>
</g>
</g>
<path d="M648 70a10 10 0 0 0 10 -10v-29"></path>
<path d="M281 31v128a10 10 0 0 0 10 10"></path>
<g>
<path d="M291 169h17"></path>
<path d="M631 169h17"></path>
<g class="terminal ">
<path d="M308 169h0"></path>
<path d="M404.5 169h0"></path>
<rect x="308" y="158" width="96.5" height="22" rx="10" ry="10"></rect>
<text x="356.25" y="173">"INVERSE"</text>
</g>
<path d="M404.5 169h10"></path>
<g>
<path d="M414.5 169h0"></path>
<path d="M631 169h0"></path>
<path d="M414.5 169a10 10 0 0 0 10 -10v0a10 10 0 0 1 10 -10"></path>
<g>
<path d="M434.5 149h176.5"></path>
</g>
<path d="M611 149a10 10 0 0 1 10 10v0a10 10 0 0 0 10 10"></path>
<path d="M414.5 169h20"></path>
<g>
<path d="M434.5 169h0"></path>
<path d="M611 169h0"></path>
<path d="M434.5 169h20"></path>
<g>
<path d="M454.5 169h0"></path>
<path d="M591 169h0"></path>
<g class="terminal ">
<path d="M454.5 169h0"></path>
<path d="M500 169h0"></path>
<rect x="454.5" y="158" width="45.5" height="22" rx="10" ry="10"></rect>
<text x="477.25" y="173">"="</text>
</g>
<path d="M500 169h10"></path>
<path d="M510 169h10"></path>
<g class="non-terminal ">
<path d="M520 169h0"></path>
<path d="M591 169h0"></path>
<rect x="520" y="158" width="71" height="22"></rect>
<a xlink:href="#/abap/expression/Source"><text x="555.5" y="173">Source</text>
</a>
</g>
</g>
<path d="M591 169h20"></path>
<path d="M434.5 169a10 10 0 0 1 10 10v10a10 10 0 0 0 10 10"></path>
<g class="terminal ">
<path d="M454.5 199h41.25"></path>
<path d="M549.75 199h41.25"></path>
<rect x="495.75" y="188" width="54" height="22" rx="10" ry="10"></rect>
<text x="522.75" y="203">"ON"</text>
</g>
<path d="M591 199a10 10 0 0 0 10 -10v-10a10 10 0 0 1 10 -10"></path>
<path d="M434.5 169a10 10 0 0 1 10 10v40a10 10 0 0 0 10 10"></path>
<g class="terminal ">
<path d="M454.5 229h37"></path>
<path d="M554 229h37"></path>
<rect x="491.5" y="218" width="62.5" height="22" rx="10" ry="10"></rect>
<text x="522.75" y="233">"OFF"</text>
</g>
<path d="M591 229a10 10 0 0 0 10 -10v-40a10 10 0 0 1 10 -10"></path>
</g>
<path d="M611 169h20"></path>
</g>
</g>
<path d="M648 169a10 10 0 0 0 10 -10v-128"></path>
<path d="M281 31v227a10 10 0 0 0 10 10"></path>
<g>
<path d="M291 268h17"></path>
<path d="M631 268h17"></path>
<g class="terminal ">
<path d="M308 268h0"></path>
<path d="M404.5 268h0"></path>
<rect x="308" y="257" width="96.5" height="22" rx="10" ry="10"></rect>
<text x="356.25" y="272">"HOTSPOT"</text>
</g>
<path d="M404.5 268h10"></path>
<g>
<path d="M414.5 268h0"></path>
<path d="M631 268h0"></path>
<path d="M414.5 268a10 10 0 0 0 10 -10v0a10 10 0 0 1 10 -10"></path>
<g>
<path d="M434.5 248h176.5"></path>
</g>
<path d="M611 248a10 10 0 0 1 10 10v0a10 10 0 0 0 10 10"></path>
<path d="M414.5 268h20"></path>
<g>
<path d="M434.5 268h0"></path>
<path d="M611 268h0"></path>
<path d="M434.5 268h20"></path>
<g>
<path d="M454.5 268h0"></path>
<path d="M591 268h0"></path>
<g class="terminal ">
<path d="M454.5 268h0"></path>
<path d="M500 268h0"></path>
<rect x="454.5" y="257" width="45.5" height="22" rx="10" ry="10"></rect>
<text x="477.25" y="272">"="</text>
</g>
<path d="M500 268h10"></path>
<path d="M510 268h10"></path>
<g class="non-terminal ">
<path d="M520 268h0"></path>
<path d="M591 268h0"></path>
<rect x="520" y="257" width="71" height="22"></rect>
<a xlink:href="#/abap/expression/Source"><text x="555.5" y="272">Source</text>
</a>
</g>
</g>
<path d="M591 268h20"></path>
<path d="M434.5 268a10 10 0 0 1 10 10v10a10 10 0 0 0 10 10"></path>
<g class="terminal ">
<path d="M454.5 298h41.25"></path>
<path d="M549.75 298h41.25"></path>
<rect x="495.75" y="287" width="54" height="22" rx="10" ry="10"></rect>
<text x="522.75" y="302">"ON"</text>
</g>
<path d="M591 298a10 10 0 0 0 10 -10v-10a10 10 0 0 1 10 -10"></path>
<path d="M434.5 268a10 10 0 0 1 10 10v40a10 10 0 0 0 10 10"></path>
<g class="terminal ">
<path d="M454.5 328h37"></path>
<path d="M554 328h37"></path>
<rect x="491.5" y="317" width="62.5" height="22" rx="10" ry="10"></rect>
<text x="522.75" y="332">"OFF"</text>
</g>
<path d="M591 328a10 10 0 0 0 10 -10v-40a10 10 0 0 1 10 -10"></path>
</g>
<path d="M611 268h20"></path>
</g>
</g>
<path d="M648 268a10 10 0 0 0 10 -10v-227"></path>
<path d="M281 31v317a10 10 0 0 0 10 10"></path>
<g>
<path d="M291 358h41.25"></path>
<path d="M606.75 358h41.25"></path>
<g class="terminal ">
<path d="M332.25 358h0"></path>
<path d="M420.25 358h0"></path>
<rect x="332.25" y="347" width="88" height="22" rx="10" ry="10"></rect>
<text x="376.25" y="362">"FRAMES"</text>
</g>
<path d="M420.25 358h10"></path>
<g>
<path d="M430.25 358h0"></path>
<path d="M606.75 358h0"></path>
<path d="M430.25 358h20"></path>
<g>
<path d="M450.25 358h0"></path>
<path d="M586.75 358h0"></path>
<g class="terminal ">
<path d="M450.25 358h0"></path>
<path d="M495.75 358h0"></path>
<rect x="450.25" y="347" width="45.5" height="22" rx="10" ry="10"></rect>
<text x="473" y="362">"="</text>
</g>
<path d="M495.75 358h10"></path>
<path d="M505.75 358h10"></path>
<g class="non-terminal ">
<path d="M515.75 358h0"></path>
<path d="M586.75 358h0"></path>
<rect x="515.75" y="347" width="71" height="22"></rect>
<a xlink:href="#/abap/expression/Source"><text x="551.25" y="362">Source</text>
</a>
</g>
</g>
<path d="M586.75 358h20"></path>
<path d="M430.25 358a10 10 0 0 1 10 10v10a10 10 0 0 0 10 10"></path>
<g class="terminal ">
<path d="M450.25 388h41.25"></path>
<path d="M545.5 388h41.25"></path>
<rect x="491.5" y="377" width="54" height="22" rx="10" ry="10"></rect>
<text x="518.5" y="392">"ON"</text>
</g>
<path d="M586.75 388a10 10 0 0 0 10 -10v-10a10 10 0 0 1 10 -10"></path>
<path d="M430.25 358a10 10 0 0 1 10 10v40a10 10 0 0 0 10 10"></path>
<g class="terminal ">
<path d="M450.25 418h37"></path>
<path d="M549.75 418h37"></path>
<rect x="487.25" y="407" width="62.5" height="22" rx="10" ry="10"></rect>
<text x="518.5" y="422">"OFF"</text>
</g>
<path d="M586.75 418a10 10 0 0 0 10 -10v-40a10 10 0 0 1 10 -10"></path>
</g>
</g>
<path d="M648 358a10 10 0 0 0 10 -10v-317"></path>
<path d="M281 31v416a10 10 0 0 0 10 10"></path>
<g>
<path d="M291 457h25.5"></path>
<path d="M622.5 457h25.5"></path>
<g class="terminal ">
<path d="M316.5 457h0"></path>
<path d="M396 457h0"></path>
<rect x="316.5" y="446" width="79.5" height="22" rx="10" ry="10"></rect>
<text x="356.25" y="461">"INPUT"</text>
</g>
<path d="M396 457h10"></path>
<g>
<path d="M406 457h0"></path>
<path d="M622.5 457h0"></path>
<path d="M406 457a10 10 0 0 0 10 -10v0a10 10 0 0 1 10 -10"></path>
<g>
<path d="M426 437h176.5"></path>
</g>
<path d="M602.5 437a10 10 0 0 1 10 10v0a10 10 0 0 0 10 10"></path>
<path d="M406 457h20"></path>
<g>
<path d="M426 457h0"></path>
<path d="M602.5 457h0"></path>
<path d="M426 457h20"></path>
<g>
<path d="M446 457h0"></path>
<path d="M582.5 457h0"></path>
<g class="terminal ">
<path d="M446 457h0"></path>
<path d="M491.5 457h0"></path>
<rect x="446" y="446" width="45.5" height="22" rx="10" ry="10"></rect>
<text x="468.75" y="461">"="</text>
</g>
<path d="M491.5 457h10"></path>
<path d="M501.5 457h10"></path>
<g class="non-terminal ">
<path d="M511.5 457h0"></path>
<path d="M582.5 457h0"></path>
<rect x="511.5" y="446" width="71" height="22"></rect>
<a xlink:href="#/abap/expression/Source"><text x="547" y="461">Source</text>
</a>
</g>
</g>
<path d="M582.5 457h20"></path>
<path d="M426 457a10 10 0 0 1 10 10v10a10 10 0 0 0 10 10"></path>
<g class="terminal ">
<path d="M446 487h41.25"></path>
<path d="M541.25 487h41.25"></path>
<rect x="487.25" y="476" width="54" height="22" rx="10" ry="10"></rect>
<text x="514.25" y="491">"ON"</text>
</g>
<path d="M582.5 487a10 10 0 0 0 10 -10v-10a10 10 0 0 1 10 -10"></path>
<path d="M426 457a10 10 0 0 1 10 10v40a10 10 0 0 0 10 10"></path>
<g class="terminal ">
<path d="M446 517h37"></path>
<path d="M545.5 517h37"></path>
<rect x="483" y="506" width="62.5" height="22" rx="10" ry="10"></rect>
<text x="514.25" y="521">"OFF"</text>
</g>
<path d="M582.5 517a10 10 0 0 0 10 -10v-40a10 10 0 0 1 10 -10"></path>
</g>
<path d="M602.5 457h20"></path>
</g>
</g>
<path d="M648 457a10 10 0 0 0 10 -10v-416"></path>
<path d="M281 31v506a10 10 0 0 0 10 10"></path>
<g class="non-terminal ">
<path d="M291 547h147.25"></path>
<path d="M500.75 547h147.25"></path>
<rect x="438.25" y="536" width="62.5" height="22"></rect>
<a xlink:href="#/abap/expression/Color"><text x="469.5" y="551">Color</text>
</a>
</g>
<path d="M648 547a10 10 0 0 0 10 -10v-506"></path>
<g class="diagram-text">
<title>take one or more branches, once each, in any order</title>
<path d="M 281 21 h -26 a 4 4 0 0 0 -4 4 v 12 a 4 4 0 0 0 4 4 h 26 z" class="diagram-text"></path>
<text x="266" y="35" class="diagram-text">1+</text>
<path d="M 658 21 h 16 a 4 4 0 0 1 4 4 v 12 a 4 4 0 0 1 -4 4 h -16 z" class="diagram-text"></path>
<path d="M 665 29 a 4 4 0 1 0 6 -1 m 2.75 -1 h -4 v 4 m 0 -3 h 2" style="stroke-width: 1.75"></path>
</g>
</g>
</g>
</g>
<path d="M678 31h10"></path>
<path d="M 688 31 h 20 m -10 -10 v 20 m 10 -20 v 20"></path>
</g>
</svg>
