<svg xmlns="http://www.w3.org/2000/svg" xmlns:xlink="http://www.w3.org/1999/xlink" class="railroad-diagram" width="910" height="260" viewBox="0 0 910 260">
<defs>
<style type="text/css"><![CDATA[
path {
stroke-width: 3;
stroke: black;
fill: rgba(0,0,0,0);
}
text {
font: bold 14px monospace;
text-anchor: middle;
}
text.diagram-text {
font-size: 12px;
}
a {
fill: blue;
}
text.diagram-arrow {
font-size: 16px;
}
text.label {
text-anchor: start;
}
text.comment {
font: italic 12px monospace;
}
rect {
stroke-width: 3;
stroke: black;
fill: #BCBCBC;
}
path.diagram-text {
stroke-width: 3;
stroke: black;
fill: #BCBCBC;
cursor: help;
}
]]></style>
</defs>
<g transform="translate(.5 .5)">
<g>
<path d="M20 30v20m10 -20v20m-10 -10h20"></path>
</g>
<path d="M40 40h10"></path>
<g>
<path d="M50 40h0"></path>
<path d="M860 40h0"></path>
<g class="comment ">
<path d="M50 40h0"></path>
<path d="M193 40h0"></path>
<text x="121.5" y="45" class="comment">not langver=KeyUser</text>
</g>
<path d="M193 40h10"></path>
<path d="M203 40h10"></path>
<g>
<path d="M213 40h0"></path>
<path d="M860 40h0"></path>
<g class="terminal ">
<path d="M213 40h0"></path>
<path d="M267 40h0"></path>
<rect x="213" y="29" width="54" height="22" rx="10" ry="10"></rect>
<text x="240" y="44">"AT"</text>
</g>
<path d="M267 40h10"></path>
<g>
<path d="M277 40h0"></path>
<path d="M860 40h0"></path>
<path d="M277 40h20"></path>
<g>
<path d="M297 40h12.75"></path>
<path d="M827.25 40h12.75"></path>
<g class="terminal ">
<path d="M309.75 40h0"></path>
<path d="M372.25 40h0"></path>
<rect x="309.75" y="29" width="62.5" height="22" rx="10" ry="10"></rect>
<text x="341" y="44">"NEW"</text>
</g>
<path d="M372.25 40h10"></path>
<g>
<path d="M382.25 40h0"></path>
<path d="M827.25 40h0"></path>
<path d="M382.25 40h20"></path>
<g>
<path d="M402.25 40h0"></path>
<path d="M807.25 40h0"></path>
<g class="non-terminal ">
<path d="M402.25 40h0"></path>
<path d="M490.25 40h0"></path>
<rect x="402.25" y="29" width="88" height="22"></rect>
<a xlink:href="#/abap/expression/FieldSub"><text x="446.25" y="44">FieldSub</text>
</a>
</g>
<path d="M490.25 40h10"></path>
<g>
<path d="M500.25 40h0"></path>
<path d="M653.75 40h0"></path>
<path d="M500.25 40a10 10 0 0 0 10 -10v0a10 10 0 0 1 10 -10"></path>
<g>
<path d="M520.25 20h113.5"></path>
</g>
<path d="M633.75 20a10 10 0 0 1 10 10v0a10 10 0 0 0 10 10"></path>
<path d="M500.25 40h20"></path>
<g class="non-terminal ">
<path d="M520.25 40h0"></path>
<path d="M633.75 40h0"></path>
<rect x="520.25" y="29" width="113.5" height="22"></rect>
<a xlink:href="#/abap/expression/FieldOffset"><text x="577" y="44">FieldOffset</text>
</a>
</g>
<path d="M633.75 40h20"></path>
</g>
<g>
<path d="M653.75 40h0"></path>
<path d="M807.25 40h0"></path>
<path d="M653.75 40a10 10 0 0 0 10 -10v0a10 10 0 0 1 10 -10"></path>
<g>
<path d="M673.75 20h113.5"></path>
</g>
<path d="M787.25 20a10 10 0 0 1 10 10v0a10 10 0 0 0 10 10"></path>
<path d="M653.75 40h20"></path>
<g class="non-terminal ">
<path d="M673.75 40h0"></path>
<path d="M787.25 40h0"></path>
<rect x="673.75" y="29" width="113.5" height="22"></rect>
<a xlink:href="#/abap/expression/FieldLength"><text x="730.5" y="44">FieldLength</text>
</a>
</g>
<path d="M787.25 40h20"></path>
</g>
</g>
<path d="M807.25 40h20"></path>
<path d="M382.25 40a10 10 0 0 1 10 10v10a10 10 0 0 0 10 10"></path>
<g class="non-terminal ">
<path d="M402.25 70h162.75"></path>
<path d="M644.5 70h162.75"></path>
<rect x="565" y="59" width="79.5" height="22"></rect>
<a xlink:href="#/abap/expression/Dynamic"><text x="604.75" y="74">Dynamic</text>
</a>
</g>
<path d="M807.25 70a10 10 0 0 0 10 -10v-10a10 10 0 0 1 10 -10"></path>
<path d="M382.25 40a10 10 0 0 1 10 10v40a10 10 0 0 0 10 10"></path>
<g class="non-terminal ">
<path d="M402.25 100h120.25"></path>
<path d="M687 100h120.25"></path>
<rect x="522.5" y="89" width="164.5" height="22"></rect>
<a xlink:href="#/abap/expression/SourceFieldSymbol"><text x="604.75" y="104">SourceFieldSymbol</text>
</a>
</g>
<path d="M807.25 100a10 10 0 0 0 10 -10v-40a10 10 0 0 1 10 -10"></path>
</g>
</g>
<path d="M840 40h20"></path>
<path d="M277 40a10 10 0 0 1 10 10v79a10 10 0 0 0 10 10"></path>
<g>
<path d="M297 139h0"></path>
<path d="M840 139h0"></path>
<g class="terminal ">
<path d="M297 139h0"></path>
<path d="M385 139h0"></path>
<rect x="297" y="128" width="88" height="22" rx="10" ry="10"></rect>
<text x="341" y="143">"END OF"</text>
</g>
<path d="M385 139h10"></path>
<g>
<path d="M395 139h0"></path>
<path d="M840 139h0"></path>
<path d="M395 139h20"></path>
<g>
<path d="M415 139h0"></path>
<path d="M820 139h0"></path>
<g class="non-terminal ">
<path d="M415 139h0"></path>
<path d="M503 139h0"></path>
<rect x="415" y="128" width="88" height="22"></rect>
<a xlink:href="#/abap/expression/FieldSub"><text x="459" y="143">FieldSub</text>
</a>
</g>
<path d="M503 139h10"></path>
<g>
<path d="M513 139h0"></path>
<path d="M666.5 139h0"></path>
<path d="M513 139a10 10 0 0 0 10 -10v0a10 10 0 0 1 10 -10"></path>
<g>
<path d="M533 119h113.5"></path>
</g>
<path d="M646.5 119a10 10 0 0 1 10 10v0a10 10 0 0 0 10 10"></path>
<path d="M513 139h20"></path>
<g class="non-terminal ">
<path d="M533 139h0"></path>
<path d="M646.5 139h0"></path>
<rect x="533" y="128" width="113.5" height="22"></rect>
<a xlink:href="#/abap/expression/FieldOffset"><text x="589.75" y="143">FieldOffset</text>
</a>
</g>
<path d="M646.5 139h20"></path>
</g>
<g>
<path d="M666.5 139h0"></path>
<path d="M820 139h0"></path>
<path d="M666.5 139a10 10 0 0 0 10 -10v0a10 10 0 0 1 10 -10"></path>
<g>
<path d="M686.5 119h113.5"></path>
</g>
<path d="M800 119a10 10 0 0 1 10 10v0a10 10 0 0 0 10 10"></path>
<path d="M666.5 139h20"></path>
<g class="non-terminal ">
<path d="M686.5 139h0"></path>
<path d="M800 139h0"></path>
<rect x="686.5" y="128" width="113.5" height="22"></rect>
<a xlink:href="#/abap/expression/FieldLength"><text x="743.25" y="143">FieldLength</text>
</a>
</g>
<path d="M800 139h20"></path>
</g>
</g>
<path d="M820 139h20"></path>
<path d="M395 139a10 10 0 0 1 10 10v10a10 10 0 0 0 10 10"></path>
<g class="non-terminal ">
<path d="M415 169h162.75"></path>
<path d="M657.25 169h162.75"></path>
<rect x="577.75" y="158" width="79.5" height="22"></rect>
<a xlink:href="#/abap/expression/Dynamic"><text x="617.5" y="173">Dynamic</text>
</a>
</g>
<path d="M820 169a10 10 0 0 0 10 -10v-10a10 10 0 0 1 10 -10"></path>
<path d="M395 139a10 10 0 0 1 10 10v40a10 10 0 0 0 10 10"></path>
<g class="non-terminal ">
<path d="M415 199h120.25"></path>
<path d="M699.75 199h120.25"></path>
<rect x="535.25" y="188" width="164.5" height="22"></rect>
<a xlink:href="#/abap/expression/SourceFieldSymbol"><text x="617.5" y="203">SourceFieldSymbol</text>
</a>
</g>
<path d="M820 199a10 10 0 0 0 10 -10v-40a10 10 0 0 1 10 -10"></path>
</g>
</g>
<path d="M840 139a10 10 0 0 0 10 -10v-79a10 10 0 0 1 10 -10"></path>
<path d="M277 40a10 10 0 0 1 10 10v169a10 10 0 0 0 10 10"></path>
<g class="terminal ">
<path d="M297 229h227.5"></path>
<path d="M612.5 229h227.5"></path>
<rect x="524.5" y="218" width="88" height="22" rx="10" ry="10"></rect>
<text x="568.5" y="233">^&#91;%\w&#93;+$</text>
</g>
<path d="M840 229a10 10 0 0 0 10 -10v-169a10 10 0 0 1 10 -10"></path>
</g>
</g>
</g>
<path d="M860 40h10"></path>
<path d="M 870 40 h 20 m -10 -10 v 20 m 10 -20 v 20"></path>
</g>
</svg>
