<svg xmlns="http://www.w3.org/2000/svg" xmlns:xlink="http://www.w3.org/1999/xlink" class="railroad-diagram" width="1095.5" height="170" viewBox="0 0 1095.5 170">
<defs>
<style type="text/css"><![CDATA[
path {
stroke-width: 3;
stroke: black;
fill: rgba(0,0,0,0);
}
text {
font: bold 14px monospace;
text-anchor: middle;
}
text.diagram-text {
font-size: 12px;
}
a {
fill: blue;
}
text.diagram-arrow {
font-size: 16px;
}
text.label {
text-anchor: start;
}
text.comment {
font: italic 12px monospace;
}
rect {
stroke-width: 3;
stroke: black;
fill: #BCBCBC;
}
path.diagram-text {
stroke-width: 3;
stroke: black;
fill: #BCBCBC;
cursor: help;
}
]]></style>
</defs>
<g transform="translate(.5 .5)">
<g>
<path d="M20 30v20m10 -20v20m-10 -10h20"></path>
</g>
<path d="M40 40h10"></path>
<g>
<path d="M50 40h0"></path>
<path d="M1045.5 40h0"></path>
<g class="terminal ">
<path d="M50 40h0"></path>
<path d="M129.5 40h0"></path>
<rect x="50" y="29" width="79.5" height="22" rx="10" ry="10"></rect>
<text x="89.75" y="44">"SPLIT"</text>
</g>
<path d="M129.5 40h10"></path>
<path d="M139.5 40h10"></path>
<g class="non-terminal ">
<path d="M149.5 40h0"></path>
<path d="M220.5 40h0"></path>
<rect x="149.5" y="29" width="71" height="22"></rect>
<a xlink:href="#/abap/expression/Source"><text x="185" y="44">Source</text>
</a>
</g>
<path d="M220.5 40h10"></path>
<path d="M230.5 40h10"></path>
<g class="terminal ">
<path d="M240.5 40h0"></path>
<path d="M294.5 40h0"></path>
<rect x="240.5" y="29" width="54" height="22" rx="10" ry="10"></rect>
<text x="267.5" y="44">"AT"</text>
</g>
<path d="M294.5 40h10"></path>
<path d="M304.5 40h10"></path>
<g class="non-terminal ">
<path d="M314.5 40h0"></path>
<path d="M385.5 40h0"></path>
<rect x="314.5" y="29" width="71" height="22"></rect>
<a xlink:href="#/abap/expression/Source"><text x="350" y="44">Source</text>
</a>
</g>
<path d="M385.5 40h10"></path>
<path d="M395.5 40h10"></path>
<g class="terminal ">
<path d="M405.5 40h0"></path>
<path d="M476.5 40h0"></path>
<rect x="405.5" y="29" width="71" height="22" rx="10" ry="10"></rect>
<text x="441" y="44">"INTO"</text>
</g>
<path d="M476.5 40h10"></path>
<g>
<path d="M486.5 40h0"></path>
<path d="M1045.5 40h0"></path>
<path d="M486.5 40h20"></path>
<g>
<path d="M506.5 40h0"></path>
<path d="M1025.5 40h0"></path>
<g class="terminal ">
<path d="M506.5 40h0"></path>
<path d="M586 40h0"></path>
<rect x="506.5" y="29" width="79.5" height="22" rx="10" ry="10"></rect>
<text x="546.25" y="44">"TABLE"</text>
</g>
<path d="M586 40h10"></path>
<path d="M596 40h10"></path>
<g class="non-terminal ">
<path d="M606 40h0"></path>
<path d="M677 40h0"></path>
<rect x="606" y="29" width="71" height="22"></rect>
<a xlink:href="#/abap/expression/Target"><text x="641.5" y="44">Target</text>
</a>
</g>
<path d="M677 40h10"></path>
<g>
<path d="M687 40h0"></path>
<path d="M1025.5 40h0"></path>
<path d="M687 40a10 10 0 0 0 10 -10v0a10 10 0 0 1 10 -10"></path>
<g>
<path d="M707 20h298.5"></path>
</g>
<path d="M1005.5 20a10 10 0 0 1 10 10v0a10 10 0 0 0 10 10"></path>
<path d="M687 40h20"></path>
<g>
<path d="M707 40h0"></path>
<path d="M1005.5 40h0"></path>
<g class="terminal ">
<path d="M707 40h0"></path>
<path d="M761 40h0"></path>
<rect x="707" y="29" width="54" height="22" rx="10" ry="10"></rect>
<text x="734" y="44">"IN"</text>
</g>
<path d="M761 40h10"></path>
<g>
<path d="M771 40h0"></path>
<path d="M924.5 40h0"></path>
<path d="M771 40h20"></path>
<g class="terminal ">
<path d="M791 40h0"></path>
<path d="M904.5 40h0"></path>
<rect x="791" y="29" width="113.5" height="22" rx="10" ry="10"></rect>
<text x="847.75" y="44">"CHARACTER"</text>
</g>
<path d="M904.5 40h20"></path>
<path d="M771 40a10 10 0 0 1 10 10v10a10 10 0 0 0 10 10"></path>
<g class="terminal ">
<path d="M791 70h21.25"></path>
<path d="M883.25 70h21.25"></path>
<rect x="812.25" y="59" width="71" height="22" rx="10" ry="10"></rect>
<text x="847.75" y="74">"BYTE"</text>
</g>
<path d="M904.5 70a10 10 0 0 0 10 -10v-10a10 10 0 0 1 10 -10"></path>
</g>
<path d="M924.5 40h10"></path>
<g class="terminal ">
<path d="M934.5 40h0"></path>
<path d="M1005.5 40h0"></path>
<rect x="934.5" y="29" width="71" height="22" rx="10" ry="10"></rect>
<text x="970" y="44">"MODE"</text>
</g>
</g>
<path d="M1005.5 40h20"></path>
</g>
</g>
<path d="M1025.5 40h20"></path>
<path d="M486.5 40a10 10 0 0 1 10 10v49a10 10 0 0 0 10 10"></path>
<g>
<path d="M506.5 109h39.75"></path>
<path d="M985.75 109h39.75"></path>
<g>
<path d="M546.25 109h0"></path>
<path d="M637.25 109h0"></path>
<path d="M546.25 109h10"></path>
<g class="non-terminal ">
<path d="M556.25 109h0"></path>
<path d="M627.25 109h0"></path>
<rect x="556.25" y="98" width="71" height="22"></rect>
<a xlink:href="#/abap/expression/Target"><text x="591.75" y="113">Target</text>
</a>
</g>
<path d="M627.25 109h10"></path>
<path d="M556.25 109a10 10 0 0 0 -10 10v0a10 10 0 0 0 10 10"></path>
<g>
<path d="M556.25 129h71"></path>
</g>
<path d="M627.25 129a10 10 0 0 0 10 -10v0a10 10 0 0 0 -10 -10"></path>
</g>
<path d="M637.25 109h10"></path>
<g>
<path d="M647.25 109h0"></path>
<path d="M985.75 109h0"></path>
<path d="M647.25 109a10 10 0 0 0 10 -10v0a10 10 0 0 1 10 -10"></path>
<g>
<path d="M667.25 89h298.5"></path>
</g>
<path d="M965.75 89a10 10 0 0 1 10 10v0a10 10 0 0 0 10 10"></path>
<path d="M647.25 109h20"></path>
<g>
<path d="M667.25 109h0"></path>
<path d="M965.75 109h0"></path>
<g class="terminal ">
<path d="M667.25 109h0"></path>
<path d="M721.25 109h0"></path>
<rect x="667.25" y="98" width="54" height="22" rx="10" ry="10"></rect>
<text x="694.25" y="113">"IN"</text>
</g>
<path d="M721.25 109h10"></path>
<g>
<path d="M731.25 109h0"></path>
<path d="M884.75 109h0"></path>
<path d="M731.25 109h20"></path>
<g class="terminal ">
<path d="M751.25 109h0"></path>
<path d="M864.75 109h0"></path>
<rect x="751.25" y="98" width="113.5" height="22" rx="10" ry="10"></rect>
<text x="808" y="113">"CHARACTER"</text>
</g>
<path d="M864.75 109h20"></path>
<path d="M731.25 109a10 10 0 0 1 10 10v10a10 10 0 0 0 10 10"></path>
<g class="terminal ">
<path d="M751.25 139h21.25"></path>
<path d="M843.5 139h21.25"></path>
<rect x="772.5" y="128" width="71" height="22" rx="10" ry="10"></rect>
<text x="808" y="143">"BYTE"</text>
</g>
<path d="M864.75 139a10 10 0 0 0 10 -10v-10a10 10 0 0 1 10 -10"></path>
</g>
<path d="M884.75 109h10"></path>
<g class="terminal ">
<path d="M894.75 109h0"></path>
<path d="M965.75 109h0"></path>
<rect x="894.75" y="98" width="71" height="22" rx="10" ry="10"></rect>
<text x="930.25" y="113">"MODE"</text>
</g>
</g>
<path d="M965.75 109h20"></path>
</g>
</g>
<path d="M1025.5 109a10 10 0 0 0 10 -10v-49a10 10 0 0 1 10 -10"></path>
</g>
</g>
<path d="M1045.5 40h10"></path>
<path d="M 1055.5 40 h 20 m -10 -10 v 20 m 10 -20 v 20"></path>
</g>
</svg>
