<svg xmlns="http://www.w3.org/2000/svg" xmlns:xlink="http://www.w3.org/1999/xlink" class="railroad-diagram" width="1686.5" height="278" viewBox="0 0 1686.5 278">
<defs>
<style type="text/css"><![CDATA[
path {
stroke-width: 3;
stroke: black;
fill: rgba(0,0,0,0);
}
text {
font: bold 14px monospace;
text-anchor: middle;
}
text.diagram-text {
font-size: 12px;
}
a {
fill: blue;
}
text.diagram-arrow {
font-size: 16px;
}
text.label {
text-anchor: start;
}
text.comment {
font: italic 12px monospace;
}
rect {
stroke-width: 3;
stroke: black;
fill: #BCBCBC;
}
path.diagram-text {
stroke-width: 3;
stroke: black;
fill: #BCBCBC;
cursor: help;
}
]]></style>
</defs>
<g transform="translate(.5 .5)">
<g>
<path d="M20 21v20m10 -20v20m-10 -10h20"></path>
</g>
<path d="M40 31h10"></path>
<g>
<path d="M50 31h0"></path>
<path d="M1636.5 31h0"></path>
<g class="comment ">
<path d="M50 31h0"></path>
<path d="M123 31h0"></path>
<text x="86.5" y="36" class="comment">not Cloud</text>
</g>
<path d="M123 31h10"></path>
<path d="M133 31h10"></path>
<g>
<path d="M143 31h0"></path>
<path d="M1636.5 31h0"></path>
<g class="terminal ">
<path d="M143 31h0"></path>
<path d="M290.5 31h0"></path>
<rect x="143" y="20" width="147.5" height="22" rx="10" ry="10"></rect>
<text x="216.75" y="35">"COMMUNICATION"</text>
</g>
<path d="M290.5 31h10"></path>
<g>
<path d="M300.5 31h0"></path>
<path d="M1636.5 31h0"></path>
<path d="M300.5 31h20"></path>
<g>
<path d="M320.5 31h433.5"></path>
<path d="M1183 31h433.5"></path>
<g class="terminal ">
<path d="M754 31h0"></path>
<path d="M850.5 31h0"></path>
<rect x="754" y="20" width="96.5" height="22" rx="10" ry="10"></rect>
<text x="802.25" y="35">"INIT ID"</text>
</g>
<path d="M850.5 31h10"></path>
<path d="M860.5 31h10"></path>
<g class="non-terminal ">
<path d="M870.5 31h0"></path>
<path d="M941.5 31h0"></path>
<rect x="870.5" y="20" width="71" height="22"></rect>
<a xlink:href="#/abap/expression/Source"><text x="906" y="35">Source</text>
</a>
</g>
<path d="M941.5 31h10"></path>
<path d="M951.5 31h10"></path>
<g class="terminal ">
<path d="M961.5 31h0"></path>
<path d="M1092 31h0"></path>
<rect x="961.5" y="20" width="130.5" height="22" rx="10" ry="10"></rect>
<text x="1026.75" y="35">"DESTINATION"</text>
</g>
<path d="M1092 31h10"></path>
<path d="M1102 31h10"></path>
<g class="non-terminal ">
<path d="M1112 31h0"></path>
<path d="M1183 31h0"></path>
<rect x="1112" y="20" width="71" height="22"></rect>
<a xlink:href="#/abap/expression/Target"><text x="1147.5" y="35">Target</text>
</a>
</g>
</g>
<path d="M1616.5 31h20"></path>
<path d="M300.5 31a10 10 0 0 1 10 10v19a10 10 0 0 0 10 10"></path>
<g>
<path d="M320.5 70h405.75"></path>
<path d="M1210.75 70h405.75"></path>
<g class="terminal ">
<path d="M726.25 70h0"></path>
<path d="M856.75 70h0"></path>
<rect x="726.25" y="59" width="130.5" height="22" rx="10" ry="10"></rect>
<text x="791.5" y="74">"ALLOCATE ID"</text>
</g>
<path d="M856.75 70h10"></path>
<path d="M866.75 70h10"></path>
<g class="non-terminal ">
<path d="M876.75 70h0"></path>
<path d="M947.75 70h0"></path>
<rect x="876.75" y="59" width="71" height="22"></rect>
<a xlink:href="#/abap/expression/Source"><text x="912.25" y="74">Source</text>
</a>
</g>
<path d="M947.75 70h10"></path>
<g>
<path d="M957.75 70h0"></path>
<path d="M1210.75 70h0"></path>
<path d="M957.75 70a10 10 0 0 0 10 -10v0a10 10 0 0 1 10 -10"></path>
<g>
<path d="M977.75 50h213"></path>
</g>
<path d="M1190.75 50a10 10 0 0 1 10 10v0a10 10 0 0 0 10 10"></path>
<path d="M957.75 70h20"></path>
<g>
<path d="M977.75 70h0"></path>
<path d="M1190.75 70h0"></path>
<g class="terminal ">
<path d="M977.75 70h0"></path>
<path d="M1099.75 70h0"></path>
<rect x="977.75" y="59" width="122" height="22" rx="10" ry="10"></rect>
<text x="1038.75" y="74">"RETURNCODE"</text>
</g>
<path d="M1099.75 70h10"></path>
<path d="M1109.75 70h10"></path>
<g class="non-terminal ">
<path d="M1119.75 70h0"></path>
<path d="M1190.75 70h0"></path>
<rect x="1119.75" y="59" width="71" height="22"></rect>
<a xlink:href="#/abap/expression/Source"><text x="1155.25" y="74">Source</text>
</a>
</g>
</g>
<path d="M1190.75 70h20"></path>
</g>
</g>
<path d="M1616.5 70a10 10 0 0 0 10 -10v-19a10 10 0 0 1 10 -10"></path>
<path d="M300.5 31a10 10 0 0 1 10 10v58a10 10 0 0 0 10 10"></path>
<g>
<path d="M320.5 109h278.25"></path>
<path d="M1338.25 109h278.25"></path>
<g class="terminal ">
<path d="M598.75 109h0"></path>
<path d="M695.25 109h0"></path>
<rect x="598.75" y="98" width="96.5" height="22" rx="10" ry="10"></rect>
<text x="647" y="113">"SEND ID"</text>
</g>
<path d="M695.25 109h10"></path>
<path d="M705.25 109h10"></path>
<g class="non-terminal ">
<path d="M715.25 109h0"></path>
<path d="M786.25 109h0"></path>
<rect x="715.25" y="98" width="71" height="22"></rect>
<a xlink:href="#/abap/expression/Source"><text x="750.75" y="113">Source</text>
</a>
</g>
<path d="M786.25 109h10"></path>
<g>
<path d="M796.25 109h0"></path>
<path d="M1085.25 109h0"></path>
<path d="M796.25 109a10 10 0 0 0 10 -10v0a10 10 0 0 1 10 -10"></path>
<g>
<path d="M816.25 89h249"></path>
</g>
<path d="M1065.25 89a10 10 0 0 1 10 10v0a10 10 0 0 0 10 10"></path>
<path d="M796.25 109h20"></path>
<g>
<path d="M816.25 109h0"></path>
<path d="M1065.25 109h0"></path>
<path d="M846.25 109h10"></path>
<g>
<path d="M856.25 109h0"></path>
<path d="M1035.25 109h0"></path>
<g class="terminal ">
<path d="M856.25 109h0"></path>
<path d="M944.25 109h0"></path>
<rect x="856.25" y="98" width="88" height="22" rx="10" ry="10"></rect>
<text x="900.25" y="113">"BUFFER"</text>
</g>
<path d="M944.25 109h10"></path>
<path d="M954.25 109h10"></path>
<g class="non-terminal ">
<path d="M964.25 109h0"></path>
<path d="M1035.25 109h0"></path>
<rect x="964.25" y="98" width="71" height="22"></rect>
<a xlink:href="#/abap/expression/Target"><text x="999.75" y="113">Target</text>
</a>
</g>
</g>
<path d="M1035.25 109h10"></path>
<path d="M846.25 109v20a10 10 0 0 0 10 10"></path>
<g>
<path d="M856.25 139h0"></path>
<path d="M1035.25 139h0"></path>
<g class="terminal ">
<path d="M856.25 139h0"></path>
<path d="M944.25 139h0"></path>
<rect x="856.25" y="128" width="88" height="22" rx="10" ry="10"></rect>
<text x="900.25" y="143">"LENGTH"</text>
</g>
<path d="M944.25 139h10"></path>
<path d="M954.25 139h10"></path>
<g class="non-terminal ">
<path d="M964.25 139h0"></path>
<path d="M1035.25 139h0"></path>
<rect x="964.25" y="128" width="71" height="22"></rect>
<a xlink:href="#/abap/expression/Target"><text x="999.75" y="143">Target</text>
</a>
</g>
</g>
<path d="M1035.25 139a10 10 0 0 0 10 -10v-20"></path>
<g class="diagram-text">
<title>take one or more branches, once each, in any order</title>
<path d="M 846.25 99 h -26 a 4 4 0 0 0 -4 4 v 12 a 4 4 0 0 0 4 4 h 26 z" class="diagram-text"></path>
<text x="831.25" y="113" class="diagram-text">1+</text>
<path d="M 1045.25 99 h 16 a 4 4 0 0 1 4 4 v 12 a 4 4 0 0 1 -4 4 h -16 z" class="diagram-text"></path>
<path d="M 1052.25 107 a 4 4 0 1 0 6 -1 m 2.75 -1 h -4 v 4 m 0 -3 h 2" style="stroke-width: 1.75"></path>
</g>
</g>
<path d="M1065.25 109h20"></path>
</g>
<g>
<path d="M1085.25 109h0"></path>
<path d="M1338.25 109h0"></path>
<path d="M1085.25 109a10 10 0 0 0 10 -10v0a10 10 0 0 1 10 -10"></path>
<g>
<path d="M1105.25 89h213"></path>
</g>
<path d="M1318.25 89a10 10 0 0 1 10 10v0a10 10 0 0 0 10 10"></path>
<path d="M1085.25 109h20"></path>
<g>
<path d="M1105.25 109h0"></path>
<path d="M1318.25 109h0"></path>
<g class="terminal ">
<path d="M1105.25 109h0"></path>
<path d="M1227.25 109h0"></path>
<rect x="1105.25" y="98" width="122" height="22" rx="10" ry="10"></rect>
<text x="1166.25" y="113">"RETURNCODE"</text>
</g>
<path d="M1227.25 109h10"></path>
<path d="M1237.25 109h10"></path>
<g class="non-terminal ">
<path d="M1247.25 109h0"></path>
<path d="M1318.25 109h0"></path>
<rect x="1247.25" y="98" width="71" height="22"></rect>
<a xlink:href="#/abap/expression/Source"><text x="1282.75" y="113">Source</text>
</a>
</g>
</g>
<path d="M1318.25 109h20"></path>
</g>
</g>
<path d="M1616.5 109a10 10 0 0 0 10 -10v-58a10 10 0 0 1 10 -10"></path>
<path d="M300.5 31a10 10 0 0 1 10 10v127a10 10 0 0 0 10 10"></path>
<g>
<path d="M320.5 178h397.25"></path>
<path d="M1219.25 178h397.25"></path>
<g class="terminal ">
<path d="M717.75 178h0"></path>
<path d="M865.25 178h0"></path>
<rect x="717.75" y="167" width="147.5" height="22" rx="10" ry="10"></rect>
<text x="791.5" y="182">"DEALLOCATE ID"</text>
</g>
<path d="M865.25 178h10"></path>
<path d="M875.25 178h10"></path>
<g class="non-terminal ">
<path d="M885.25 178h0"></path>
<path d="M956.25 178h0"></path>
<rect x="885.25" y="167" width="71" height="22"></rect>
<a xlink:href="#/abap/expression/Source"><text x="920.75" y="182">Source</text>
</a>
</g>
<path d="M956.25 178h10"></path>
<g>
<path d="M966.25 178h0"></path>
<path d="M1219.25 178h0"></path>
<path d="M966.25 178a10 10 0 0 0 10 -10v0a10 10 0 0 1 10 -10"></path>
<g>
<path d="M986.25 158h213"></path>
</g>
<path d="M1199.25 158a10 10 0 0 1 10 10v0a10 10 0 0 0 10 10"></path>
<path d="M966.25 178h20"></path>
<g>
<path d="M986.25 178h0"></path>
<path d="M1199.25 178h0"></path>
<g class="terminal ">
<path d="M986.25 178h0"></path>
<path d="M1108.25 178h0"></path>
<rect x="986.25" y="167" width="122" height="22" rx="10" ry="10"></rect>
<text x="1047.25" y="182">"RETURNCODE"</text>
</g>
<path d="M1108.25 178h10"></path>
<path d="M1118.25 178h10"></path>
<g class="non-terminal ">
<path d="M1128.25 178h0"></path>
<path d="M1199.25 178h0"></path>
<rect x="1128.25" y="167" width="71" height="22"></rect>
<a xlink:href="#/abap/expression/Source"><text x="1163.75" y="182">Source</text>
</a>
</g>
</g>
<path d="M1199.25 178h20"></path>
</g>
</g>
<path d="M1616.5 178a10 10 0 0 0 10 -10v-127a10 10 0 0 1 10 -10"></path>
<path d="M300.5 31a10 10 0 0 1 10 10v166a10 10 0 0 0 10 10"></path>
<g>
<path d="M320.5 217h0"></path>
<path d="M1616.5 217h0"></path>
<g class="terminal ">
<path d="M320.5 217h0"></path>
<path d="M442.5 217h0"></path>
<rect x="320.5" y="206" width="122" height="22" rx="10" ry="10"></rect>
<text x="381.5" y="221">"RECEIVE ID"</text>
</g>
<path d="M442.5 217h10"></path>
<path d="M452.5 217h10"></path>
<g class="non-terminal ">
<path d="M462.5 217h0"></path>
<path d="M533.5 217h0"></path>
<rect x="462.5" y="206" width="71" height="22"></rect>
<a xlink:href="#/abap/expression/Source"><text x="498" y="221">Source</text>
</a>
</g>
<path d="M533.5 217h10"></path>
<path d="M543.5 217h10"></path>
<g class="terminal ">
<path d="M553.5 217h0"></path>
<path d="M641.5 217h0"></path>
<rect x="553.5" y="206" width="88" height="22" rx="10" ry="10"></rect>
<text x="597.5" y="221">"BUFFER"</text>
</g>
<path d="M641.5 217h10"></path>
<path d="M651.5 217h10"></path>
<g class="non-terminal ">
<path d="M661.5 217h0"></path>
<path d="M732.5 217h0"></path>
<rect x="661.5" y="206" width="71" height="22"></rect>
<a xlink:href="#/abap/expression/Source"><text x="697" y="221">Source</text>
</a>
</g>
<path d="M732.5 217h10"></path>
<g>
<path d="M742.5 217h0"></path>
<path d="M961.5 217h0"></path>
<path d="M742.5 217a10 10 0 0 0 10 -10v0a10 10 0 0 1 10 -10"></path>
<g>
<path d="M762.5 197h179"></path>
</g>
<path d="M941.5 197a10 10 0 0 1 10 10v0a10 10 0 0 0 10 10"></path>
<path d="M742.5 217h20"></path>
<g>
<path d="M762.5 217h0"></path>
<path d="M941.5 217h0"></path>
<g class="terminal ">
<path d="M762.5 217h0"></path>
<path d="M850.5 217h0"></path>
<rect x="762.5" y="206" width="88" height="22" rx="10" ry="10"></rect>
<text x="806.5" y="221">"LENGTH"</text>
</g>
<path d="M850.5 217h10"></path>
<path d="M860.5 217h10"></path>
<g class="non-terminal ">
<path d="M870.5 217h0"></path>
<path d="M941.5 217h0"></path>
<rect x="870.5" y="206" width="71" height="22"></rect>
<a xlink:href="#/abap/expression/Target"><text x="906" y="221">Target</text>
</a>
</g>
</g>
<path d="M941.5 217h20"></path>
</g>
<path d="M961.5 217h10"></path>
<g class="terminal ">
<path d="M971.5 217h0"></path>
<path d="M1076.5 217h0"></path>
<rect x="971.5" y="206" width="105" height="22" rx="10" ry="10"></rect>
<text x="1024" y="221">"DATAINFO"</text>
</g>
<path d="M1076.5 217h10"></path>
<path d="M1086.5 217h10"></path>
<g class="non-terminal ">
<path d="M1096.5 217h0"></path>
<path d="M1167.5 217h0"></path>
<rect x="1096.5" y="206" width="71" height="22"></rect>
<a xlink:href="#/abap/expression/Target"><text x="1132" y="221">Target</text>
</a>
</g>
<path d="M1167.5 217h10"></path>
<path d="M1177.5 217h10"></path>
<g class="terminal ">
<path d="M1187.5 217h0"></path>
<path d="M1309.5 217h0"></path>
<rect x="1187.5" y="206" width="122" height="22" rx="10" ry="10"></rect>
<text x="1248.5" y="221">"STATUSINFO"</text>
</g>
<path d="M1309.5 217h10"></path>
<path d="M1319.5 217h10"></path>
<g class="non-terminal ">
<path d="M1329.5 217h0"></path>
<path d="M1400.5 217h0"></path>
<rect x="1329.5" y="206" width="71" height="22"></rect>
<a xlink:href="#/abap/expression/Target"><text x="1365" y="221">Target</text>
</a>
</g>
<path d="M1400.5 217h10"></path>
<path d="M1410.5 217h10"></path>
<g class="terminal ">
<path d="M1420.5 217h0"></path>
<path d="M1525.5 217h0"></path>
<rect x="1420.5" y="206" width="105" height="22" rx="10" ry="10"></rect>
<text x="1473" y="221">"RECEIVED"</text>
</g>
<path d="M1525.5 217h10"></path>
<path d="M1535.5 217h10"></path>
<g class="non-terminal ">
<path d="M1545.5 217h0"></path>
<path d="M1616.5 217h0"></path>
<rect x="1545.5" y="206" width="71" height="22"></rect>
<a xlink:href="#/abap/expression/Target"><text x="1581" y="221">Target</text>
</a>
</g>
</g>
<path d="M1616.5 217a10 10 0 0 0 10 -10v-166a10 10 0 0 1 10 -10"></path>
<path d="M300.5 31a10 10 0 0 1 10 10v196a10 10 0 0 0 10 10"></path>
<g>
<path d="M320.5 247h545.75"></path>
<path d="M1070.75 247h545.75"></path>
<g class="terminal ">
<path d="M866.25 247h0"></path>
<path d="M979.75 247h0"></path>
<rect x="866.25" y="236" width="113.5" height="22" rx="10" ry="10"></rect>
<text x="923" y="251">"ACCEPT ID"</text>
</g>
<path d="M979.75 247h10"></path>
<path d="M989.75 247h10"></path>
<g class="non-terminal ">
<path d="M999.75 247h0"></path>
<path d="M1070.75 247h0"></path>
<rect x="999.75" y="236" width="71" height="22"></rect>
<a xlink:href="#/abap/expression/Source"><text x="1035.25" y="251">Source</text>
</a>
</g>
</g>
<path d="M1616.5 247a10 10 0 0 0 10 -10v-196a10 10 0 0 1 10 -10"></path>
</g>
</g>
</g>
<path d="M1636.5 31h10"></path>
<path d="M 1646.5 31 h 20 m -10 -10 v 20 m 10 -20 v 20"></path>
</g>
</svg>
