<svg xmlns="http://www.w3.org/2000/svg" xmlns:xlink="http://www.w3.org/1999/xlink" class="railroad-diagram" width="699.5" height="272" viewBox="0 0 699.5 272">
<defs>
<style type="text/css"><![CDATA[
path {
stroke-width: 3;
stroke: black;
fill: rgba(0,0,0,0);
}
text {
font: bold 14px monospace;
text-anchor: middle;
}
text.diagram-text {
font-size: 12px;
}
a {
fill: blue;
}
text.diagram-arrow {
font-size: 16px;
}
text.label {
text-anchor: start;
}
text.comment {
font: italic 12px monospace;
}
rect {
stroke-width: 3;
stroke: black;
fill: #BCBCBC;
}
path.diagram-text {
stroke-width: 3;
stroke: black;
fill: #BCBCBC;
cursor: help;
}
]]></style>
</defs>
<g transform="translate(.5 .5)">
<g>
<path d="M20 21v20m10 -20v20m-10 -10h20"></path>
</g>
<path d="M40 31h10"></path>
<g>
<path d="M50 31h0"></path>
<path d="M649.5 31h0"></path>
<g class="comment ">
<path d="M50 31h0"></path>
<path d="M179 31h0"></path>
<text x="114.5" y="36" class="comment">not langver=Cloud</text>
</g>
<path d="M179 31h10"></path>
<path d="M189 31h10"></path>
<g>
<path d="M199 31h0"></path>
<path d="M649.5 31h0"></path>
<g class="terminal ">
<path d="M199 31h0"></path>
<path d="M346.5 31h0"></path>
<rect x="199" y="20" width="147.5" height="22" rx="10" ry="10"></rect>
<text x="272.75" y="35">"PRINT-CONTROL"</text>
</g>
<path d="M346.5 31h10"></path>
<path d="M356.5 31h10"></path>
<g>
<path d="M366.5 31h0"></path>
<path d="M649.5 31h0"></path>
<path d="M396.5 31h10"></path>
<g>
<path d="M406.5 31h0"></path>
<path d="M619.5 31h0"></path>
<g class="terminal ">
<path d="M406.5 31h0"></path>
<path d="M528.5 31h0"></path>
<rect x="406.5" y="20" width="122" height="22" rx="10" ry="10"></rect>
<text x="467.5" y="35">"INDEX-LINE"</text>
</g>
<path d="M528.5 31h10"></path>
<path d="M538.5 31h10"></path>
<g class="non-terminal ">
<path d="M548.5 31h0"></path>
<path d="M619.5 31h0"></path>
<rect x="548.5" y="20" width="71" height="22"></rect>
<a xlink:href="#/abap/expression/Source"><text x="584" y="35">Source</text>
</a>
</g>
</g>
<path d="M619.5 31h10"></path>
<path d="M396.5 31v20a10 10 0 0 0 10 10"></path>
<g>
<path d="M406.5 61h8.5"></path>
<path d="M611 61h8.5"></path>
<g class="terminal ">
<path d="M415 61h0"></path>
<path d="M520 61h0"></path>
<rect x="415" y="50" width="105" height="22" rx="10" ry="10"></rect>
<text x="467.5" y="65">"FUNCTION"</text>
</g>
<path d="M520 61h10"></path>
<path d="M530 61h10"></path>
<g class="non-terminal ">
<path d="M540 61h0"></path>
<path d="M611 61h0"></path>
<rect x="540" y="50" width="71" height="22"></rect>
<a xlink:href="#/abap/expression/Source"><text x="575.5" y="65">Source</text>
</a>
</g>
</g>
<path d="M619.5 61a10 10 0 0 0 10 -10v-20"></path>
<path d="M396.5 31v50a10 10 0 0 0 10 10"></path>
<g>
<path d="M406.5 91h25.5"></path>
<path d="M594 91h25.5"></path>
<g class="terminal ">
<path d="M432 91h0"></path>
<path d="M503 91h0"></path>
<rect x="432" y="80" width="71" height="22" rx="10" ry="10"></rect>
<text x="467.5" y="95">"LINE"</text>
</g>
<path d="M503 91h10"></path>
<path d="M513 91h10"></path>
<g class="non-terminal ">
<path d="M523 91h0"></path>
<path d="M594 91h0"></path>
<rect x="523" y="80" width="71" height="22"></rect>
<a xlink:href="#/abap/expression/Source"><text x="558.5" y="95">Source</text>
</a>
</g>
</g>
<path d="M619.5 91a10 10 0 0 0 10 -10v-50"></path>
<path d="M396.5 31v80a10 10 0 0 0 10 10"></path>
<g>
<path d="M406.5 121h8.5"></path>
<path d="M611 121h8.5"></path>
<g class="terminal ">
<path d="M415 121h0"></path>
<path d="M520 121h0"></path>
<rect x="415" y="110" width="105" height="22" rx="10" ry="10"></rect>
<text x="467.5" y="125">"POSITION"</text>
</g>
<path d="M520 121h10"></path>
<path d="M530 121h10"></path>
<g class="non-terminal ">
<path d="M540 121h0"></path>
<path d="M611 121h0"></path>
<rect x="540" y="110" width="71" height="22"></rect>
<a xlink:href="#/abap/expression/Source"><text x="575.5" y="125">Source</text>
</a>
</g>
</g>
<path d="M619.5 121a10 10 0 0 0 10 -10v-80"></path>
<path d="M396.5 31v110a10 10 0 0 0 10 10"></path>
<g>
<path d="M406.5 151h25.5"></path>
<path d="M594 151h25.5"></path>
<g class="terminal ">
<path d="M432 151h0"></path>
<path d="M503 151h0"></path>
<rect x="432" y="140" width="71" height="22" rx="10" ry="10"></rect>
<text x="467.5" y="155">"SIZE"</text>
</g>
<path d="M503 151h10"></path>
<path d="M513 151h10"></path>
<g class="non-terminal ">
<path d="M523 151h0"></path>
<path d="M594 151h0"></path>
<rect x="523" y="140" width="71" height="22"></rect>
<a xlink:href="#/abap/expression/Source"><text x="558.5" y="155">Source</text>
</a>
</g>
</g>
<path d="M619.5 151a10 10 0 0 0 10 -10v-110"></path>
<path d="M396.5 31v140a10 10 0 0 0 10 10"></path>
<g>
<path d="M406.5 181h29.75"></path>
<path d="M589.75 181h29.75"></path>
<g class="terminal ">
<path d="M436.25 181h0"></path>
<path d="M498.75 181h0"></path>
<rect x="436.25" y="170" width="62.5" height="22" rx="10" ry="10"></rect>
<text x="467.5" y="185">"CPI"</text>
</g>
<path d="M498.75 181h10"></path>
<path d="M508.75 181h10"></path>
<g class="non-terminal ">
<path d="M518.75 181h0"></path>
<path d="M589.75 181h0"></path>
<rect x="518.75" y="170" width="71" height="22"></rect>
<a xlink:href="#/abap/expression/Source"><text x="554.25" y="185">Source</text>
</a>
</g>
</g>
<path d="M619.5 181a10 10 0 0 0 10 -10v-140"></path>
<path d="M396.5 31v170a10 10 0 0 0 10 10"></path>
<g>
<path d="M406.5 211h29.75"></path>
<path d="M589.75 211h29.75"></path>
<g class="terminal ">
<path d="M436.25 211h0"></path>
<path d="M498.75 211h0"></path>
<rect x="436.25" y="200" width="62.5" height="22" rx="10" ry="10"></rect>
<text x="467.5" y="215">"LPI"</text>
</g>
<path d="M498.75 211h10"></path>
<path d="M508.75 211h10"></path>
<g class="non-terminal ">
<path d="M518.75 211h0"></path>
<path d="M589.75 211h0"></path>
<rect x="518.75" y="200" width="71" height="22"></rect>
<a xlink:href="#/abap/expression/Source"><text x="554.25" y="215">Source</text>
</a>
</g>
</g>
<path d="M619.5 211a10 10 0 0 0 10 -10v-170"></path>
<path d="M396.5 31v200a10 10 0 0 0 10 10"></path>
<g>
<path d="M406.5 241h25.5"></path>
<path d="M594 241h25.5"></path>
<g class="terminal ">
<path d="M432 241h0"></path>
<path d="M503 241h0"></path>
<rect x="432" y="230" width="71" height="22" rx="10" ry="10"></rect>
<text x="467.5" y="245">"FONT"</text>
</g>
<path d="M503 241h10"></path>
<path d="M513 241h10"></path>
<g class="non-terminal ">
<path d="M523 241h0"></path>
<path d="M594 241h0"></path>
<rect x="523" y="230" width="71" height="22"></rect>
<a xlink:href="#/abap/expression/Source"><text x="558.5" y="245">Source</text>
</a>
</g>
</g>
<path d="M619.5 241a10 10 0 0 0 10 -10v-200"></path>
<g class="diagram-text">
<title>take one or more branches, once each, in any order</title>
<path d="M 396.5 21 h -26 a 4 4 0 0 0 -4 4 v 12 a 4 4 0 0 0 4 4 h 26 z" class="diagram-text"></path>
<text x="381.5" y="35" class="diagram-text">1+</text>
<path d="M 629.5 21 h 16 a 4 4 0 0 1 4 4 v 12 a 4 4 0 0 1 -4 4 h -16 z" class="diagram-text"></path>
<path d="M 636.5 29 a 4 4 0 1 0 6 -1 m 2.75 -1 h -4 v 4 m 0 -3 h 2" style="stroke-width: 1.75"></path>
</g>
</g>
</g>
</g>
<path d="M649.5 31h10"></path>
<path d="M 659.5 31 h 20 m -10 -10 v 20 m 10 -20 v 20"></path>
</g>
</svg>
