<svg xmlns="http://www.w3.org/2000/svg" xmlns:xlink="http://www.w3.org/1999/xlink" class="railroad-diagram" width="784" height="578" viewBox="0 0 784 578">
<defs>
<style type="text/css"><![CDATA[
path {
stroke-width: 3;
stroke: black;
fill: rgba(0,0,0,0);
}
text {
font: bold 14px monospace;
text-anchor: middle;
}
text.diagram-text {
font-size: 12px;
}
a {
fill: blue;
}
text.diagram-arrow {
font-size: 16px;
}
text.label {
text-anchor: start;
}
text.comment {
font: italic 12px monospace;
}
rect {
stroke-width: 3;
stroke: black;
fill: #BCBCBC;
}
path.diagram-text {
stroke-width: 3;
stroke: black;
fill: #BCBCBC;
cursor: help;
}
]]></style>
</defs>
<g transform="translate(.5 .5)">
<g>
<path d="M20 21v20m10 -20v20m-10 -10h20"></path>
</g>
<path d="M40 31h10"></path>
<g>
<path d="M50 31h0"></path>
<path d="M734 31h0"></path>
<g class="comment ">
<path d="M50 31h0"></path>
<path d="M179 31h0"></path>
<text x="114.5" y="36" class="comment">not langver=Cloud</text>
</g>
<path d="M179 31h10"></path>
<path d="M189 31h10"></path>
<g>
<path d="M199 31h0"></path>
<path d="M734 31h0"></path>
<g class="terminal ">
<path d="M199 31h0"></path>
<path d="M287 31h0"></path>
<rect x="199" y="20" width="88" height="22" rx="10" ry="10"></rect>
<text x="243" y="35">"FORMAT"</text>
</g>
<path d="M287 31h10"></path>
<path d="M297 31h10"></path>
<g>
<path d="M307 31h0"></path>
<path d="M734 31h0"></path>
<path d="M337 31h10"></path>
<g class="terminal ">
<path d="M347 31h138.75"></path>
<path d="M565.25 31h138.75"></path>
<rect x="485.75" y="20" width="79.5" height="22" rx="10" ry="10"></rect>
<text x="525.5" y="35">"RESET"</text>
</g>
<path d="M704 31h10"></path>
<path d="M337 31v29a10 10 0 0 0 10 10"></path>
<g>
<path d="M347 70h0"></path>
<path d="M704 70h0"></path>
<g class="terminal ">
<path d="M347 70h0"></path>
<path d="M477.5 70h0"></path>
<rect x="347" y="59" width="130.5" height="22" rx="10" ry="10"></rect>
<text x="412.25" y="74">"INTENSIFIED"</text>
</g>
<path d="M477.5 70h10"></path>
<g>
<path d="M487.5 70h0"></path>
<path d="M704 70h0"></path>
<path d="M487.5 70a10 10 0 0 0 10 -10v0a10 10 0 0 1 10 -10"></path>
<g>
<path d="M507.5 50h176.5"></path>
</g>
<path d="M684 50a10 10 0 0 1 10 10v0a10 10 0 0 0 10 10"></path>
<path d="M487.5 70h20"></path>
<g>
<path d="M507.5 70h0"></path>
<path d="M684 70h0"></path>
<path d="M507.5 70h20"></path>
<g>
<path d="M527.5 70h0"></path>
<path d="M664 70h0"></path>
<g class="terminal ">
<path d="M527.5 70h0"></path>
<path d="M573 70h0"></path>
<rect x="527.5" y="59" width="45.5" height="22" rx="10" ry="10"></rect>
<text x="550.25" y="74">"="</text>
</g>
<path d="M573 70h10"></path>
<path d="M583 70h10"></path>
<g class="non-terminal ">
<path d="M593 70h0"></path>
<path d="M664 70h0"></path>
<rect x="593" y="59" width="71" height="22"></rect>
<a xlink:href="#/abap/expression/Source"><text x="628.5" y="74">Source</text>
</a>
</g>
</g>
<path d="M664 70h20"></path>
<path d="M507.5 70a10 10 0 0 1 10 10v10a10 10 0 0 0 10 10"></path>
<g class="terminal ">
<path d="M527.5 100h41.25"></path>
<path d="M622.75 100h41.25"></path>
<rect x="568.75" y="89" width="54" height="22" rx="10" ry="10"></rect>
<text x="595.75" y="104">"ON"</text>
</g>
<path d="M664 100a10 10 0 0 0 10 -10v-10a10 10 0 0 1 10 -10"></path>
<path d="M507.5 70a10 10 0 0 1 10 10v40a10 10 0 0 0 10 10"></path>
<g class="terminal ">
<path d="M527.5 130h37"></path>
<path d="M627 130h37"></path>
<rect x="564.5" y="119" width="62.5" height="22" rx="10" ry="10"></rect>
<text x="595.75" y="134">"OFF"</text>
</g>
<path d="M664 130a10 10 0 0 0 10 -10v-40a10 10 0 0 1 10 -10"></path>
</g>
<path d="M684 70h20"></path>
</g>
</g>
<path d="M704 70a10 10 0 0 0 10 -10v-29"></path>
<path d="M337 31v128a10 10 0 0 0 10 10"></path>
<g>
<path d="M347 169h17"></path>
<path d="M687 169h17"></path>
<g class="terminal ">
<path d="M364 169h0"></path>
<path d="M460.5 169h0"></path>
<rect x="364" y="158" width="96.5" height="22" rx="10" ry="10"></rect>
<text x="412.25" y="173">"INVERSE"</text>
</g>
<path d="M460.5 169h10"></path>
<g>
<path d="M470.5 169h0"></path>
<path d="M687 169h0"></path>
<path d="M470.5 169a10 10 0 0 0 10 -10v0a10 10 0 0 1 10 -10"></path>
<g>
<path d="M490.5 149h176.5"></path>
</g>
<path d="M667 149a10 10 0 0 1 10 10v0a10 10 0 0 0 10 10"></path>
<path d="M470.5 169h20"></path>
<g>
<path d="M490.5 169h0"></path>
<path d="M667 169h0"></path>
<path d="M490.5 169h20"></path>
<g>
<path d="M510.5 169h0"></path>
<path d="M647 169h0"></path>
<g class="terminal ">
<path d="M510.5 169h0"></path>
<path d="M556 169h0"></path>
<rect x="510.5" y="158" width="45.5" height="22" rx="10" ry="10"></rect>
<text x="533.25" y="173">"="</text>
</g>
<path d="M556 169h10"></path>
<path d="M566 169h10"></path>
<g class="non-terminal ">
<path d="M576 169h0"></path>
<path d="M647 169h0"></path>
<rect x="576" y="158" width="71" height="22"></rect>
<a xlink:href="#/abap/expression/Source"><text x="611.5" y="173">Source</text>
</a>
</g>
</g>
<path d="M647 169h20"></path>
<path d="M490.5 169a10 10 0 0 1 10 10v10a10 10 0 0 0 10 10"></path>
<g class="terminal ">
<path d="M510.5 199h41.25"></path>
<path d="M605.75 199h41.25"></path>
<rect x="551.75" y="188" width="54" height="22" rx="10" ry="10"></rect>
<text x="578.75" y="203">"ON"</text>
</g>
<path d="M647 199a10 10 0 0 0 10 -10v-10a10 10 0 0 1 10 -10"></path>
<path d="M490.5 169a10 10 0 0 1 10 10v40a10 10 0 0 0 10 10"></path>
<g class="terminal ">
<path d="M510.5 229h37"></path>
<path d="M610 229h37"></path>
<rect x="547.5" y="218" width="62.5" height="22" rx="10" ry="10"></rect>
<text x="578.75" y="233">"OFF"</text>
</g>
<path d="M647 229a10 10 0 0 0 10 -10v-40a10 10 0 0 1 10 -10"></path>
</g>
<path d="M667 169h20"></path>
</g>
</g>
<path d="M704 169a10 10 0 0 0 10 -10v-128"></path>
<path d="M337 31v227a10 10 0 0 0 10 10"></path>
<g>
<path d="M347 268h17"></path>
<path d="M687 268h17"></path>
<g class="terminal ">
<path d="M364 268h0"></path>
<path d="M460.5 268h0"></path>
<rect x="364" y="257" width="96.5" height="22" rx="10" ry="10"></rect>
<text x="412.25" y="272">"HOTSPOT"</text>
</g>
<path d="M460.5 268h10"></path>
<g>
<path d="M470.5 268h0"></path>
<path d="M687 268h0"></path>
<path d="M470.5 268a10 10 0 0 0 10 -10v0a10 10 0 0 1 10 -10"></path>
<g>
<path d="M490.5 248h176.5"></path>
</g>
<path d="M667 248a10 10 0 0 1 10 10v0a10 10 0 0 0 10 10"></path>
<path d="M470.5 268h20"></path>
<g>
<path d="M490.5 268h0"></path>
<path d="M667 268h0"></path>
<path d="M490.5 268h20"></path>
<g>
<path d="M510.5 268h0"></path>
<path d="M647 268h0"></path>
<g class="terminal ">
<path d="M510.5 268h0"></path>
<path d="M556 268h0"></path>
<rect x="510.5" y="257" width="45.5" height="22" rx="10" ry="10"></rect>
<text x="533.25" y="272">"="</text>
</g>
<path d="M556 268h10"></path>
<path d="M566 268h10"></path>
<g class="non-terminal ">
<path d="M576 268h0"></path>
<path d="M647 268h0"></path>
<rect x="576" y="257" width="71" height="22"></rect>
<a xlink:href="#/abap/expression/Source"><text x="611.5" y="272">Source</text>
</a>
</g>
</g>
<path d="M647 268h20"></path>
<path d="M490.5 268a10 10 0 0 1 10 10v10a10 10 0 0 0 10 10"></path>
<g class="terminal ">
<path d="M510.5 298h41.25"></path>
<path d="M605.75 298h41.25"></path>
<rect x="551.75" y="287" width="54" height="22" rx="10" ry="10"></rect>
<text x="578.75" y="302">"ON"</text>
</g>
<path d="M647 298a10 10 0 0 0 10 -10v-10a10 10 0 0 1 10 -10"></path>
<path d="M490.5 268a10 10 0 0 1 10 10v40a10 10 0 0 0 10 10"></path>
<g class="terminal ">
<path d="M510.5 328h37"></path>
<path d="M610 328h37"></path>
<rect x="547.5" y="317" width="62.5" height="22" rx="10" ry="10"></rect>
<text x="578.75" y="332">"OFF"</text>
</g>
<path d="M647 328a10 10 0 0 0 10 -10v-40a10 10 0 0 1 10 -10"></path>
</g>
<path d="M667 268h20"></path>
</g>
</g>
<path d="M704 268a10 10 0 0 0 10 -10v-227"></path>
<path d="M337 31v317a10 10 0 0 0 10 10"></path>
<g>
<path d="M347 358h41.25"></path>
<path d="M662.75 358h41.25"></path>
<g class="terminal ">
<path d="M388.25 358h0"></path>
<path d="M476.25 358h0"></path>
<rect x="388.25" y="347" width="88" height="22" rx="10" ry="10"></rect>
<text x="432.25" y="362">"FRAMES"</text>
</g>
<path d="M476.25 358h10"></path>
<g>
<path d="M486.25 358h0"></path>
<path d="M662.75 358h0"></path>
<path d="M486.25 358h20"></path>
<g>
<path d="M506.25 358h0"></path>
<path d="M642.75 358h0"></path>
<g class="terminal ">
<path d="M506.25 358h0"></path>
<path d="M551.75 358h0"></path>
<rect x="506.25" y="347" width="45.5" height="22" rx="10" ry="10"></rect>
<text x="529" y="362">"="</text>
</g>
<path d="M551.75 358h10"></path>
<path d="M561.75 358h10"></path>
<g class="non-terminal ">
<path d="M571.75 358h0"></path>
<path d="M642.75 358h0"></path>
<rect x="571.75" y="347" width="71" height="22"></rect>
<a xlink:href="#/abap/expression/Source"><text x="607.25" y="362">Source</text>
</a>
</g>
</g>
<path d="M642.75 358h20"></path>
<path d="M486.25 358a10 10 0 0 1 10 10v10a10 10 0 0 0 10 10"></path>
<g class="terminal ">
<path d="M506.25 388h41.25"></path>
<path d="M601.5 388h41.25"></path>
<rect x="547.5" y="377" width="54" height="22" rx="10" ry="10"></rect>
<text x="574.5" y="392">"ON"</text>
</g>
<path d="M642.75 388a10 10 0 0 0 10 -10v-10a10 10 0 0 1 10 -10"></path>
<path d="M486.25 358a10 10 0 0 1 10 10v40a10 10 0 0 0 10 10"></path>
<g class="terminal ">
<path d="M506.25 418h37"></path>
<path d="M605.75 418h37"></path>
<rect x="543.25" y="407" width="62.5" height="22" rx="10" ry="10"></rect>
<text x="574.5" y="422">"OFF"</text>
</g>
<path d="M642.75 418a10 10 0 0 0 10 -10v-40a10 10 0 0 1 10 -10"></path>
</g>
</g>
<path d="M704 358a10 10 0 0 0 10 -10v-317"></path>
<path d="M337 31v416a10 10 0 0 0 10 10"></path>
<g>
<path d="M347 457h25.5"></path>
<path d="M678.5 457h25.5"></path>
<g class="terminal ">
<path d="M372.5 457h0"></path>
<path d="M452 457h0"></path>
<rect x="372.5" y="446" width="79.5" height="22" rx="10" ry="10"></rect>
<text x="412.25" y="461">"INPUT"</text>
</g>
<path d="M452 457h10"></path>
<g>
<path d="M462 457h0"></path>
<path d="M678.5 457h0"></path>
<path d="M462 457a10 10 0 0 0 10 -10v0a10 10 0 0 1 10 -10"></path>
<g>
<path d="M482 437h176.5"></path>
</g>
<path d="M658.5 437a10 10 0 0 1 10 10v0a10 10 0 0 0 10 10"></path>
<path d="M462 457h20"></path>
<g>
<path d="M482 457h0"></path>
<path d="M658.5 457h0"></path>
<path d="M482 457h20"></path>
<g>
<path d="M502 457h0"></path>
<path d="M638.5 457h0"></path>
<g class="terminal ">
<path d="M502 457h0"></path>
<path d="M547.5 457h0"></path>
<rect x="502" y="446" width="45.5" height="22" rx="10" ry="10"></rect>
<text x="524.75" y="461">"="</text>
</g>
<path d="M547.5 457h10"></path>
<path d="M557.5 457h10"></path>
<g class="non-terminal ">
<path d="M567.5 457h0"></path>
<path d="M638.5 457h0"></path>
<rect x="567.5" y="446" width="71" height="22"></rect>
<a xlink:href="#/abap/expression/Source"><text x="603" y="461">Source</text>
</a>
</g>
</g>
<path d="M638.5 457h20"></path>
<path d="M482 457a10 10 0 0 1 10 10v10a10 10 0 0 0 10 10"></path>
<g class="terminal ">
<path d="M502 487h41.25"></path>
<path d="M597.25 487h41.25"></path>
<rect x="543.25" y="476" width="54" height="22" rx="10" ry="10"></rect>
<text x="570.25" y="491">"ON"</text>
</g>
<path d="M638.5 487a10 10 0 0 0 10 -10v-10a10 10 0 0 1 10 -10"></path>
<path d="M482 457a10 10 0 0 1 10 10v40a10 10 0 0 0 10 10"></path>
<g class="terminal ">
<path d="M502 517h37"></path>
<path d="M601.5 517h37"></path>
<rect x="539" y="506" width="62.5" height="22" rx="10" ry="10"></rect>
<text x="570.25" y="521">"OFF"</text>
</g>
<path d="M638.5 517a10 10 0 0 0 10 -10v-40a10 10 0 0 1 10 -10"></path>
</g>
<path d="M658.5 457h20"></path>
</g>
</g>
<path d="M704 457a10 10 0 0 0 10 -10v-416"></path>
<path d="M337 31v506a10 10 0 0 0 10 10"></path>
<g class="non-terminal ">
<path d="M347 547h147.25"></path>
<path d="M556.75 547h147.25"></path>
<rect x="494.25" y="536" width="62.5" height="22"></rect>
<a xlink:href="#/abap/expression/Color"><text x="525.5" y="551">Color</text>
</a>
</g>
<path d="M704 547a10 10 0 0 0 10 -10v-506"></path>
<g class="diagram-text">
<title>take one or more branches, once each, in any order</title>
<path d="M 337 21 h -26 a 4 4 0 0 0 -4 4 v 12 a 4 4 0 0 0 4 4 h 26 z" class="diagram-text"></path>
<text x="322" y="35" class="diagram-text">1+</text>
<path d="M 714 21 h 16 a 4 4 0 0 1 4 4 v 12 a 4 4 0 0 1 -4 4 h -16 z" class="diagram-text"></path>
<path d="M 721 29 a 4 4 0 1 0 6 -1 m 2.75 -1 h -4 v 4 m 0 -3 h 2" style="stroke-width: 1.75"></path>
</g>
</g>
</g>
</g>
<path d="M734 31h10"></path>
<path d="M 744 31 h 20 m -10 -10 v 20 m 10 -20 v 20"></path>
</g>
</svg>
