<svg xmlns="http://www.w3.org/2000/svg" xmlns:xlink="http://www.w3.org/1999/xlink" class="railroad-diagram" width="1453.5" height="109" viewBox="0 0 1453.5 109">
<defs>
<style type="text/css"><![CDATA[
path {
stroke-width: 3;
stroke: black;
fill: rgba(0,0,0,0);
}
text {
font: bold 14px monospace;
text-anchor: middle;
}
text.diagram-text {
font-size: 12px;
}
a {
fill: blue;
}
text.diagram-arrow {
font-size: 16px;
}
text.label {
text-anchor: start;
}
text.comment {
font: italic 12px monospace;
}
rect {
stroke-width: 3;
stroke: black;
fill: #BCBCBC;
}
path.diagram-text {
stroke-width: 3;
stroke: black;
fill: #BCBCBC;
cursor: help;
}
]]></style>
</defs>
<g transform="translate(.5 .5)">
<g>
<path d="M20 38v20m10 -20v20m-10 -10h20"></path>
</g>
<path d="M40 48h10"></path>
<g>
<path d="M50 48h0"></path>
<path d="M1403.5 48h0"></path>
<g class="comment ">
<path d="M50 48h0"></path>
<path d="M179 48h0"></path>
<text x="114.5" y="53" class="comment">not langver=Cloud</text>
</g>
<path d="M179 48h10"></path>
<path d="M189 48h10"></path>
<g>
<path d="M199 48h0"></path>
<path d="M1403.5 48h0"></path>
<g class="terminal ">
<path d="M199 48h0"></path>
<path d="M329.5 48h0"></path>
<rect x="199" y="37" width="130.5" height="22" rx="10" ry="10"></rect>
<text x="264.25" y="52">"CALL DIALOG"</text>
</g>
<path d="M329.5 48h10"></path>
<g>
<path d="M339.5 48h0"></path>
<path d="M467.5 48h0"></path>
<path d="M339.5 48h20"></path>
<g class="non-terminal ">
<path d="M359.5 48h0"></path>
<path d="M447.5 48h0"></path>
<rect x="359.5" y="37" width="88" height="22"></rect>
<a xlink:href="#/abap/expression/Constant"><text x="403.5" y="52">Constant</text>
</a>
</g>
<path d="M447.5 48h20"></path>
<path d="M339.5 48a10 10 0 0 1 10 10v10a10 10 0 0 0 10 10"></path>
<g class="non-terminal ">
<path d="M359.5 78h0"></path>
<path d="M447.5 78h0"></path>
<rect x="359.5" y="67" width="88" height="22"></rect>
<a xlink:href="#/abap/expression/FieldSub"><text x="403.5" y="82">FieldSub</text>
</a>
</g>
<path d="M447.5 78a10 10 0 0 0 10 -10v-10a10 10 0 0 1 10 -10"></path>
</g>
<g>
<path d="M467.5 48h0"></path>
<path d="M961 48h0"></path>
<path d="M467.5 48a10 10 0 0 0 10 -10v-8a10 10 0 0 1 10 -10"></path>
<g>
<path d="M487.5 20h453.5"></path>
</g>
<path d="M941 20a10 10 0 0 1 10 10v8a10 10 0 0 0 10 10"></path>
<path d="M467.5 48h20"></path>
<g>
<path d="M487.5 48h0"></path>
<path d="M941 48h0"></path>
<g class="terminal ">
<path d="M487.5 48h0"></path>
<path d="M601 48h0"></path>
<rect x="487.5" y="37" width="113.5" height="22" rx="10" ry="10"></rect>
<text x="544.25" y="52">"EXPORTING"</text>
</g>
<path d="M601 48h10"></path>
<path d="M611 48h10"></path>
<g>
<path d="M621 48h0"></path>
<path d="M941 48h0"></path>
<path d="M621 48h10"></path>
<g>
<path d="M631 48h0"></path>
<path d="M931 48h0"></path>
<g class="non-terminal ">
<path d="M631 48h0"></path>
<path d="M719 48h0"></path>
<rect x="631" y="37" width="88" height="22"></rect>
<a xlink:href="#/abap/expression/FieldSub"><text x="675" y="52">FieldSub</text>
</a>
</g>
<path d="M719 48h10"></path>
<g>
<path d="M729 48h0"></path>
<path d="M931 48h0"></path>
<path d="M729 48a10 10 0 0 0 10 -10v0a10 10 0 0 1 10 -10"></path>
<g>
<path d="M749 28h162"></path>
</g>
<path d="M911 28a10 10 0 0 1 10 10v0a10 10 0 0 0 10 10"></path>
<path d="M729 48h20"></path>
<g>
<path d="M749 48h0"></path>
<path d="M911 48h0"></path>
<g class="terminal ">
<path d="M749 48h0"></path>
<path d="M820 48h0"></path>
<rect x="749" y="37" width="71" height="22" rx="10" ry="10"></rect>
<text x="784.5" y="52">"FROM"</text>
</g>
<path d="M820 48h10"></path>
<path d="M830 48h10"></path>
<g class="non-terminal ">
<path d="M840 48h0"></path>
<path d="M911 48h0"></path>
<rect x="840" y="37" width="71" height="22"></rect>
<a xlink:href="#/abap/expression/Source"><text x="875.5" y="52">Source</text>
</a>
</g>
</g>
<path d="M911 48h20"></path>
</g>
</g>
<path d="M931 48h10"></path>
<path d="M631 48a10 10 0 0 0 -10 10v0a10 10 0 0 0 10 10"></path>
<g>
<path d="M631 68h300"></path>
</g>
<path d="M931 68a10 10 0 0 0 10 -10v0a10 10 0 0 0 -10 -10"></path>
</g>
</g>
<path d="M941 48h20"></path>
</g>
<g>
<path d="M961 48h0"></path>
<path d="M1403.5 48h0"></path>
<path d="M961 48a10 10 0 0 0 10 -10v-8a10 10 0 0 1 10 -10"></path>
<g>
<path d="M981 20h402.5"></path>
</g>
<path d="M1383.5 20a10 10 0 0 1 10 10v8a10 10 0 0 0 10 10"></path>
<path d="M961 48h20"></path>
<g>
<path d="M981 48h0"></path>
<path d="M1383.5 48h0"></path>
<g class="terminal ">
<path d="M981 48h0"></path>
<path d="M1094.5 48h0"></path>
<rect x="981" y="37" width="113.5" height="22" rx="10" ry="10"></rect>
<text x="1037.75" y="52">"IMPORTING"</text>
</g>
<path d="M1094.5 48h10"></path>
<path d="M1104.5 48h10"></path>
<g>
<path d="M1114.5 48h0"></path>
<path d="M1383.5 48h0"></path>
<path d="M1114.5 48h10"></path>
<g>
<path d="M1124.5 48h0"></path>
<path d="M1373.5 48h0"></path>
<g class="non-terminal ">
<path d="M1124.5 48h0"></path>
<path d="M1187 48h0"></path>
<rect x="1124.5" y="37" width="62.5" height="22"></rect>
<a xlink:href="#/abap/expression/Field"><text x="1155.75" y="52">Field</text>
</a>
</g>
<path d="M1187 48h10"></path>
<g>
<path d="M1197 48h0"></path>
<path d="M1373.5 48h0"></path>
<path d="M1197 48a10 10 0 0 0 10 -10v0a10 10 0 0 1 10 -10"></path>
<g>
<path d="M1217 28h136.5"></path>
</g>
<path d="M1353.5 28a10 10 0 0 1 10 10v0a10 10 0 0 0 10 10"></path>
<path d="M1197 48h20"></path>
<g>
<path d="M1217 48h0"></path>
<path d="M1353.5 48h0"></path>
<g class="terminal ">
<path d="M1217 48h0"></path>
<path d="M1271 48h0"></path>
<rect x="1217" y="37" width="54" height="22" rx="10" ry="10"></rect>
<text x="1244" y="52">"TO"</text>
</g>
<path d="M1271 48h10"></path>
<path d="M1281 48h10"></path>
<g class="non-terminal ">
<path d="M1291 48h0"></path>
<path d="M1353.5 48h0"></path>
<rect x="1291" y="37" width="62.5" height="22"></rect>
<a xlink:href="#/abap/expression/Field"><text x="1322.25" y="52">Field</text>
</a>
</g>
</g>
<path d="M1353.5 48h20"></path>
</g>
</g>
<path d="M1373.5 48h10"></path>
<path d="M1124.5 48a10 10 0 0 0 -10 10v0a10 10 0 0 0 10 10"></path>
<g>
<path d="M1124.5 68h249"></path>
</g>
<path d="M1373.5 68a10 10 0 0 0 10 -10v0a10 10 0 0 0 -10 -10"></path>
</g>
</g>
<path d="M1383.5 48h20"></path>
</g>
</g>
</g>
<path d="M1403.5 48h10"></path>
<path d="M 1413.5 48 h 20 m -10 -10 v 20 m 10 -20 v 20"></path>
</g>
</svg>
