<svg xmlns="http://www.w3.org/2000/svg" xmlns:xlink="http://www.w3.org/1999/xlink" class="railroad-diagram" width="1433.5" height="320" viewBox="0 0 1433.5 320">
<defs>
<style type="text/css"><![CDATA[
path {
stroke-width: 3;
stroke: black;
fill: rgba(0,0,0,0);
}
text {
font: bold 14px monospace;
text-anchor: middle;
}
text.diagram-text {
font-size: 12px;
}
a {
fill: blue;
}
text.diagram-arrow {
font-size: 16px;
}
text.label {
text-anchor: start;
}
text.comment {
font: italic 12px monospace;
}
rect {
stroke-width: 3;
stroke: black;
fill: #BCBCBC;
}
path.diagram-text {
stroke-width: 3;
stroke: black;
fill: #BCBCBC;
cursor: help;
}
]]></style>
</defs>
<g transform="translate(.5 .5)">
<g>
<path d="M20 21v20m10 -20v20m-10 -10h20"></path>
</g>
<path d="M40 31h10"></path>
<g>
<path d="M50 31h0"></path>
<path d="M1383.5 31h0"></path>
<g class="terminal">
<path d="M50 31h0"></path>
<path d="M138 31h0"></path>
<rect x="50" y="20" width="88" height="22" rx="10" ry="10"></rect>
<text x="94" y="35">"INSERT"</text>
</g>
<path d="M138 31h10"></path>
<g>
<path d="M148 31h0"></path>
<path d="M1383.5 31h0"></path>
<path d="M148 31h20"></path>
<g>
<path d="M168 31h0"></path>
<path d="M338.5 31h1025"></path>
<g class="terminal">
<path d="M168 31h0"></path>
<path d="M247.5 31h0"></path>
<rect x="168" y="20" width="79.5" height="22" rx="10" ry="10"></rect>
<text x="207.75" y="35">"TABLE"</text>
</g>
<path d="M247.5 31h10"></path>
<path d="M257.5 31h10"></path>
<g class="non-terminal">
<path d="M267.5 31h0"></path>
<path d="M338.5 31h0"></path>
<rect x="267.5" y="20" width="71" height="22"></rect>
<a xlink:href="#/abap/expression/Source"><text x="303" y="35">Source</text>
</a>
</g>
</g>
<path d="M1363.5 31h20"></path>
<path d="M148 31a10 10 0 0 1 10 10v19a10 10 0 0 0 10 10"></path>
<g>
<path d="M168 70h0"></path>
<path d="M1363.5 70h0"></path>
<g>
<path d="M168 70h0"></path>
<path d="M754.5 70h0"></path>
<path d="M168 70h20"></path>
<g class="terminal">
<path d="M188 70h0"></path>
<path d="M327 70h407.5"></path>
<rect x="188" y="59" width="139" height="22" rx="10" ry="10"></rect>
<text x="257.5" y="74">"INITIAL LINE"</text>
</g>
<path d="M734.5 70h20"></path>
<path d="M168 70a10 10 0 0 1 10 10v27a10 10 0 0 0 10 10"></path>
<g>
<path d="M188 117h0"></path>
<path d="M734.5 117h0"></path>
<g class="terminal">
<path d="M188 117h0"></path>
<path d="M293 117h0"></path>
<rect x="188" y="106" width="105" height="22" rx="10" ry="10"></rect>
<text x="240.5" y="121">"LINES OF"</text>
</g>
<path d="M293 117h10"></path>
<g>
<path d="M303 117h0"></path>
<path d="M422.5 117h0"></path>
<path d="M303 117h20"></path>
<g class="non-terminal">
<path d="M323 117h0"></path>
<path d="M394 117h8.5"></path>
<rect x="323" y="106" width="71" height="22"></rect>
<a xlink:href="#/abap/expression/Source"><text x="358.5" y="121">Source</text>
</a>
</g>
<path d="M402.5 117h20"></path>
<path d="M303 117a10 10 0 0 1 10 10v10a10 10 0 0 0 10 10"></path>
<g class="non-terminal">
<path d="M323 147h0"></path>
<path d="M402.5 147h0"></path>
<rect x="323" y="136" width="79.5" height="22"></rect>
<a xlink:href="#/abap/expression/Dynamic"><text x="362.75" y="151">Dynamic</text>
</a>
</g>
<path d="M402.5 147a10 10 0 0 0 10 -10v-10a10 10 0 0 1 10 -10"></path>
</g>
<g>
<path d="M422.5 117h0"></path>
<path d="M734.5 117h0"></path>
<path d="M422.5 117a10 10 0 0 0 10 -10v-8a10 10 0 0 1 10 -10"></path>
<g>
<path d="M442.5 89h272"></path>
</g>
<path d="M714.5 89a10 10 0 0 1 10 10v8a10 10 0 0 0 10 10"></path>
<path d="M422.5 117h20"></path>
<g>
<path d="M442.5 117h0"></path>
<path d="M714.5 117h0"></path>
<path d="M442.5 117a10 10 0 0 0 10 -10v0a10 10 0 0 1 10 -10"></path>
<g>
<path d="M462.5 97h232"></path>
</g>
<path d="M694.5 97a10 10 0 0 1 10 10v0a10 10 0 0 0 10 10"></path>
<path d="M442.5 117h20"></path>
<g>
<path d="M462.5 117h0"></path>
<path d="M694.5 117h0"></path>
<path d="M492.5 117h10"></path>
<g>
<path d="M502.5 117h0"></path>
<path d="M664.5 117h0"></path>
<g class="terminal">
<path d="M502.5 117h0"></path>
<path d="M573.5 117h0"></path>
<rect x="502.5" y="106" width="71" height="22" rx="10" ry="10"></rect>
<text x="538" y="121">"FROM"</text>
</g>
<path d="M573.5 117h10"></path>
<path d="M583.5 117h10"></path>
<g class="non-terminal">
<path d="M593.5 117h0"></path>
<path d="M664.5 117h0"></path>
<rect x="593.5" y="106" width="71" height="22"></rect>
<a xlink:href="#/abap/expression/Source"><text x="629" y="121">Source</text>
</a>
</g>
</g>
<path d="M664.5 117h10"></path>
<path d="M492.5 117v20a10 10 0 0 0 10 10"></path>
<g>
<path d="M502.5 147h0"></path>
<path d="M647.5 147h17"></path>
<g class="terminal">
<path d="M502.5 147h0"></path>
<path d="M556.5 147h0"></path>
<rect x="502.5" y="136" width="54" height="22" rx="10" ry="10"></rect>
<text x="529.5" y="151">"TO"</text>
</g>
<path d="M556.5 147h10"></path>
<path d="M566.5 147h10"></path>
<g class="non-terminal">
<path d="M576.5 147h0"></path>
<path d="M647.5 147h0"></path>
<rect x="576.5" y="136" width="71" height="22"></rect>
<a xlink:href="#/abap/expression/Source"><text x="612" y="151">Source</text>
</a>
</g>
</g>
<path d="M664.5 147a10 10 0 0 0 10 -10v-20"></path>
<g class="diagram-text">
<title>take one or more branches, once each, in any order</title>
<path d="M 492.5 107 h -26 a 4 4 0 0 0 -4 4 v 12 a 4 4 0 0 0 4 4 h 26 z" class="diagram-text"></path>
<text x="477.5" y="121" class="diagram-text">1+</text>
<path d="M 674.5 107 h 16 a 4 4 0 0 1 4 4 v 12 a 4 4 0 0 1 -4 4 h -16 z" class="diagram-text"></path>
<path d="M 681.5 115 a 4 4 0 1 0 6 -1 m 2.75 -1 h -4 v 4 m 0 -3 h 2" style="stroke-width: 1.75"></path>
</g>
</g>
<path d="M694.5 117h20"></path>
</g>
<path d="M714.5 117h20"></path>
</g>
</g>
<path d="M734.5 117a10 10 0 0 0 10 -10v-27a10 10 0 0 1 10 -10"></path>
<path d="M168 70a10 10 0 0 1 10 10v87a10 10 0 0 0 10 10"></path>
<g>
<path d="M188 177h0"></path>
<path d="M476 177h258.5"></path>
<path d="M188 177h20"></path>
<g class="non-terminal">
<path d="M208 177h0"></path>
<path d="M338.5 177h117.5"></path>
<rect x="208" y="166" width="130.5" height="22"></rect>
<a xlink:href="#/abap/expression/SimpleSource4"><text x="273.25" y="181">SimpleSource4</text>
</a>
</g>
<path d="M456 177h20"></path>
<path d="M188 177a10 10 0 0 1 10 10v10a10 10 0 0 0 10 10"></path>
<g>
<path d="M208 207h0"></path>
<path d="M456 207h0"></path>
<g>
<path d="M208 207h0"></path>
<path d="M365 207h0"></path>
<text x="286.5" y="212" class="comment">v740sp02 or open-abap</text>
</g>
<path d="M365 207h10"></path>
<path d="M375 207h10"></path>
<g class="non-terminal">
<path d="M385 207h0"></path>
<path d="M456 207h0"></path>
<rect x="385" y="196" width="71" height="22"></rect>
<a xlink:href="#/abap/expression/Source"><text x="420.5" y="211">Source</text>
</a>
</g>
</g>
<path d="M456 207a10 10 0 0 0 10 -10v-10a10 10 0 0 1 10 -10"></path>
</g>
<path d="M734.5 177a10 10 0 0 0 10 -10v-87a10 10 0 0 1 10 -10"></path>
</g>
<g>
<path d="M754.5 70h0"></path>
<path d="M1363.5 70h0"></path>
<path d="M754.5 70h20"></path>
<g>
<path d="M774.5 70h0"></path>
<path d="M1324.5 70h19"></path>
<g class="terminal">
<path d="M774.5 70h0"></path>
<path d="M896.5 70h0"></path>
<rect x="774.5" y="59" width="122" height="22" rx="10" ry="10"></rect>
<text x="835.5" y="74">"INTO TABLE"</text>
</g>
<path d="M896.5 70h10"></path>
<path d="M906.5 70h10"></path>
<g class="non-terminal">
<path d="M916.5 70h0"></path>
<path d="M987.5 70h0"></path>
<rect x="916.5" y="59" width="71" height="22"></rect>
<a xlink:href="#/abap/expression/Target"><text x="952" y="74">Target</text>
</a>
</g>
<path d="M987.5 70h10"></path>
<g>
<path d="M997.5 70h0"></path>
<path d="M1324.5 70h0"></path>
<path d="M997.5 70a10 10 0 0 0 10 -10v0a10 10 0 0 1 10 -10"></path>
<g>
<path d="M1017.5 50h287"></path>
</g>
<path d="M1304.5 50a10 10 0 0 1 10 10v0a10 10 0 0 0 10 10"></path>
<path d="M997.5 70h20"></path>
<g>
<path d="M1017.5 70h0"></path>
<path d="M1304.5 70h0"></path>
<path d="M1017.5 70h20"></path>
<g>
<path d="M1037.5 70h0"></path>
<path d="M1284.5 70h0"></path>
<g class="terminal">
<path d="M1037.5 70h0"></path>
<path d="M1193.5 70h0"></path>
<rect x="1037.5" y="59" width="156" height="22" rx="10" ry="10"></rect>
<text x="1115.5" y="74">"REFERENCE INTO"</text>
</g>
<path d="M1193.5 70h10"></path>
<path d="M1203.5 70h10"></path>
<g class="non-terminal">
<path d="M1213.5 70h0"></path>
<path d="M1284.5 70h0"></path>
<rect x="1213.5" y="59" width="71" height="22"></rect>
<a xlink:href="#/abap/expression/Target"><text x="1249" y="74">Target</text>
</a>
</g>
</g>
<path d="M1284.5 70h20"></path>
<path d="M1017.5 70a10 10 0 0 1 10 10v10a10 10 0 0 0 10 10"></path>
<g>
<path d="M1037.5 100h0"></path>
<path d="M1259 100h25.5"></path>
<g class="terminal">
<path d="M1037.5 100h0"></path>
<path d="M1151 100h0"></path>
<rect x="1037.5" y="89" width="113.5" height="22" rx="10" ry="10"></rect>
<text x="1094.25" y="104">"ASSIGNING"</text>
</g>
<path d="M1151 100h10"></path>
<path d="M1161 100h10"></path>
<g class="non-terminal">
<path d="M1171 100h0"></path>
<path d="M1259 100h0"></path>
<rect x="1171" y="89" width="88" height="22"></rect>
<a xlink:href="#/abap/expression/FSTarget"><text x="1215" y="104">FSTarget</text>
</a>
</g>
</g>
<path d="M1284.5 100a10 10 0 0 0 10 -10v-10a10 10 0 0 1 10 -10"></path>
</g>
<path d="M1304.5 70h20"></path>
</g>
</g>
<path d="M1343.5 70h20"></path>
<path d="M754.5 70a10 10 0 0 1 10 10v49a10 10 0 0 0 10 10"></path>
<g>
<path d="M774.5 139h0"></path>
<path d="M1343.5 139h0"></path>
<g>
<path d="M774.5 139h0"></path>
<path d="M936.5 139h0"></path>
<g class="terminal">
<path d="M774.5 139h0"></path>
<path d="M845.5 139h0"></path>
<rect x="774.5" y="128" width="71" height="22" rx="10" ry="10"></rect>
<text x="810" y="143">"INTO"</text>
</g>
<path d="M845.5 139h10"></path>
<path d="M855.5 139h10"></path>
<g class="non-terminal">
<path d="M865.5 139h0"></path>
<path d="M936.5 139h0"></path>
<rect x="865.5" y="128" width="71" height="22"></rect>
<a xlink:href="#/abap/expression/Target"><text x="901" y="143">Target</text>
</a>
</g>
</g>
<path d="M936.5 139h10"></path>
<g>
<path d="M946.5 139h0"></path>
<path d="M1343.5 139h0"></path>
<path d="M946.5 139a10 10 0 0 0 10 -10v0a10 10 0 0 1 10 -10"></path>
<g>
<path d="M966.5 119h357"></path>
</g>
<path d="M1323.5 119a10 10 0 0 1 10 10v0a10 10 0 0 0 10 10"></path>
<path d="M946.5 139h20"></path>
<g>
<path d="M966.5 139h0"></path>
<path d="M1323.5 139h0"></path>
<path d="M996.5 139h10"></path>
<g>
<path d="M1006.5 139h0"></path>
<path d="M1177 139h116.5"></path>
<g class="terminal">
<path d="M1006.5 139h0"></path>
<path d="M1086 139h0"></path>
<rect x="1006.5" y="128" width="79.5" height="22" rx="10" ry="10"></rect>
<text x="1046.25" y="143">"INDEX"</text>
</g>
<path d="M1086 139h10"></path>
<path d="M1096 139h10"></path>
<g class="non-terminal">
<path d="M1106 139h0"></path>
<path d="M1177 139h0"></path>
<rect x="1106" y="128" width="71" height="22"></rect>
<a xlink:href="#/abap/expression/Source"><text x="1141.5" y="143">Source</text>
</a>
</g>
</g>
<path d="M1293.5 139h10"></path>
<path d="M996.5 139v20a10 10 0 0 0 10 10"></path>
<g>
<path d="M1006.5 169h0"></path>
<path d="M1293.5 169h0"></path>
<path d="M1006.5 169h20"></path>
<g>
<path d="M1026.5 169h0"></path>
<path d="M1273.5 169h0"></path>
<g class="terminal">
<path d="M1026.5 169h0"></path>
<path d="M1182.5 169h0"></path>
<rect x="1026.5" y="158" width="156" height="22" rx="10" ry="10"></rect>
<text x="1104.5" y="173">"REFERENCE INTO"</text>
</g>
<path d="M1182.5 169h10"></path>
<path d="M1192.5 169h10"></path>
<g class="non-terminal">
<path d="M1202.5 169h0"></path>
<path d="M1273.5 169h0"></path>
<rect x="1202.5" y="158" width="71" height="22"></rect>
<a xlink:href="#/abap/expression/Target"><text x="1238" y="173">Target</text>
</a>
</g>
</g>
<path d="M1273.5 169h20"></path>
<path d="M1006.5 169a10 10 0 0 1 10 10v10a10 10 0 0 0 10 10"></path>
<g>
<path d="M1026.5 199h0"></path>
<path d="M1248 199h25.5"></path>
<g class="terminal">
<path d="M1026.5 199h0"></path>
<path d="M1140 199h0"></path>
<rect x="1026.5" y="188" width="113.5" height="22" rx="10" ry="10"></rect>
<text x="1083.25" y="203">"ASSIGNING"</text>
</g>
<path d="M1140 199h10"></path>
<path d="M1150 199h10"></path>
<g class="non-terminal">
<path d="M1160 199h0"></path>
<path d="M1248 199h0"></path>
<rect x="1160" y="188" width="88" height="22"></rect>
<a xlink:href="#/abap/expression/FSTarget"><text x="1204" y="203">FSTarget</text>
</a>
</g>
</g>
<path d="M1273.5 199a10 10 0 0 0 10 -10v-10a10 10 0 0 1 10 -10"></path>
</g>
<path d="M1293.5 169a10 10 0 0 0 10 -10v-20"></path>
<g class="diagram-text">
<title>take one or more branches, once each, in any order</title>
<path d="M 996.5 129 h -26 a 4 4 0 0 0 -4 4 v 12 a 4 4 0 0 0 4 4 h 26 z" class="diagram-text"></path>
<text x="981.5" y="143" class="diagram-text">1+</text>
<path d="M 1303.5 129 h 16 a 4 4 0 0 1 4 4 v 12 a 4 4 0 0 1 -4 4 h -16 z" class="diagram-text"></path>
<path d="M 1310.5 137 a 4 4 0 1 0 6 -1 m 2.75 -1 h -4 v 4 m 0 -3 h 2" style="stroke-width: 1.75"></path>
</g>
</g>
<path d="M1323.5 139h20"></path>
</g>
</g>
<path d="M1343.5 139a10 10 0 0 0 10 -10v-49a10 10 0 0 1 10 -10"></path>
<path d="M754.5 70a10 10 0 0 1 10 10v139a10 10 0 0 0 10 10"></path>
<g>
<path d="M774.5 229h0"></path>
<path d="M1131.5 229h212"></path>
<path d="M804.5 229h10"></path>
<g>
<path d="M814.5 229h0"></path>
<path d="M985 229h116.5"></path>
<g class="terminal">
<path d="M814.5 229h0"></path>
<path d="M894 229h0"></path>
<rect x="814.5" y="218" width="79.5" height="22" rx="10" ry="10"></rect>
<text x="854.25" y="233">"INDEX"</text>
</g>
<path d="M894 229h10"></path>
<path d="M904 229h10"></path>
<g class="non-terminal">
<path d="M914 229h0"></path>
<path d="M985 229h0"></path>
<rect x="914" y="218" width="71" height="22"></rect>
<a xlink:href="#/abap/expression/Source"><text x="949.5" y="233">Source</text>
</a>
</g>
</g>
<path d="M1101.5 229h10"></path>
<path d="M804.5 229v20a10 10 0 0 0 10 10"></path>
<g>
<path d="M814.5 259h0"></path>
<path d="M1101.5 259h0"></path>
<path d="M814.5 259h20"></path>
<g>
<path d="M834.5 259h0"></path>
<path d="M1081.5 259h0"></path>
<g class="terminal">
<path d="M834.5 259h0"></path>
<path d="M990.5 259h0"></path>
<rect x="834.5" y="248" width="156" height="22" rx="10" ry="10"></rect>
<text x="912.5" y="263">"REFERENCE INTO"</text>
</g>
<path d="M990.5 259h10"></path>
<path d="M1000.5 259h10"></path>
<g class="non-terminal">
<path d="M1010.5 259h0"></path>
<path d="M1081.5 259h0"></path>
<rect x="1010.5" y="248" width="71" height="22"></rect>
<a xlink:href="#/abap/expression/Target"><text x="1046" y="263">Target</text>
</a>
</g>
</g>
<path d="M1081.5 259h20"></path>
<path d="M814.5 259a10 10 0 0 1 10 10v10a10 10 0 0 0 10 10"></path>
<g>
<path d="M834.5 289h0"></path>
<path d="M1056 289h25.5"></path>
<g class="terminal">
<path d="M834.5 289h0"></path>
<path d="M948 289h0"></path>
<rect x="834.5" y="278" width="113.5" height="22" rx="10" ry="10"></rect>
<text x="891.25" y="293">"ASSIGNING"</text>
</g>
<path d="M948 289h10"></path>
<path d="M958 289h10"></path>
<g class="non-terminal">
<path d="M968 289h0"></path>
<path d="M1056 289h0"></path>
<rect x="968" y="278" width="88" height="22"></rect>
<a xlink:href="#/abap/expression/FSTarget"><text x="1012" y="293">FSTarget</text>
</a>
</g>
</g>
<path d="M1081.5 289a10 10 0 0 0 10 -10v-10a10 10 0 0 1 10 -10"></path>
</g>
<path d="M1101.5 259a10 10 0 0 0 10 -10v-20"></path>
<g class="diagram-text">
<title>take one or more branches, once each, in any order</title>
<path d="M 804.5 219 h -26 a 4 4 0 0 0 -4 4 v 12 a 4 4 0 0 0 4 4 h 26 z" class="diagram-text"></path>
<text x="789.5" y="233" class="diagram-text">1+</text>
<path d="M 1111.5 219 h 16 a 4 4 0 0 1 4 4 v 12 a 4 4 0 0 1 -4 4 h -16 z" class="diagram-text"></path>
<path d="M 1118.5 227 a 4 4 0 1 0 6 -1 m 2.75 -1 h -4 v 4 m 0 -3 h 2" style="stroke-width: 1.75"></path>
</g>
</g>
<path d="M1343.5 229a10 10 0 0 0 10 -10v-139a10 10 0 0 1 10 -10"></path>
</g>
</g>
<path d="M1363.5 70a10 10 0 0 0 10 -10v-19a10 10 0 0 1 10 -10"></path>
</g>
</g>
<path d="M1383.5 31h10"></path>
<path d="M 1393.5 31 h 20 m -10 -10 v 20 m 10 -20 v 20"></path>
</g>
</svg>
