<svg xmlns="http://www.w3.org/2000/svg" xmlns:xlink="http://www.w3.org/1999/xlink" class="railroad-diagram" width="1868.5" height="101" viewBox="0 0 1868.5 101">
<defs>
<style type="text/css"><![CDATA[
path {
stroke-width: 3;
stroke: black;
fill: rgba(0,0,0,0);
}
text {
font: bold 14px monospace;
text-anchor: middle;
}
text.diagram-text {
font-size: 12px;
}
a {
fill: blue;
}
text.diagram-arrow {
font-size: 16px;
}
text.label {
text-anchor: start;
}
text.comment {
font: italic 12px monospace;
}
rect {
stroke-width: 3;
stroke: black;
fill: #BCBCBC;
}
path.diagram-text {
stroke-width: 3;
stroke: black;
fill: #BCBCBC;
cursor: help;
}
]]></style>
</defs>
<g transform="translate(.5 .5)">
<g>
<path d="M20 30v20m10 -20v20m-10 -10h20"></path>
</g>
<path d="M40 40h10"></path>
<g>
<path d="M50 40h0"></path>
<path d="M1818.5 40h0"></path>
<g>
<path d="M50 40h0"></path>
<path d="M88 40h0"></path>
<text x="69" y="45" class="comment">v754</text>
</g>
<path d="M88 40h10"></path>
<path d="M98 40h10"></path>
<g>
<path d="M108 40h0"></path>
<path d="M1818.5 40h0"></path>
<g class="terminal">
<path d="M108 40h0"></path>
<path d="M315 40h0"></path>
<rect x="108" y="29" width="207" height="22" rx="10" ry="10"></rect>
<text x="211.5" y="44">"GET PERMISSIONS ONLY"</text>
</g>
<path d="M315 40h10"></path>
<g>
<path d="M325 40h0"></path>
<path d="M572 40h0"></path>
<path d="M325 40h20"></path>
<g class="terminal">
<path d="M345 40h0"></path>
<path d="M552 40h0"></path>
<rect x="345" y="29" width="207" height="22" rx="10" ry="10"></rect>
<text x="448.5" y="44">"GLOBAL AUTHORIZATION"</text>
</g>
<path d="M552 40h20"></path>
<path d="M325 40a10 10 0 0 1 10 10v10a10 10 0 0 0 10 10"></path>
<g class="terminal">
<path d="M345 70h0"></path>
<path d="M450 70h102"></path>
<rect x="345" y="59" width="105" height="22" rx="10" ry="10"></rect>
<text x="397.5" y="74">"INSTANCE"</text>
</g>
<path d="M552 70a10 10 0 0 0 10 -10v-10a10 10 0 0 1 10 -10"></path>
</g>
<path d="M572 40h10"></path>
<g class="terminal">
<path d="M582 40h0"></path>
<path d="M670 40h0"></path>
<rect x="582" y="29" width="88" height="22" rx="10" ry="10"></rect>
<text x="626" y="44">"ENTITY"</text>
</g>
<path d="M670 40h10"></path>
<path d="M680 40h10"></path>
<g class="non-terminal">
<path d="M690 40h0"></path>
<path d="M795 40h0"></path>
<rect x="690" y="29" width="105" height="22"></rect>
<a xlink:href="#/abap/expression/SimpleName"><text x="742.5" y="44">SimpleName</text>
</a>
</g>
<path d="M795 40h10"></path>
<g>
<path d="M805 40h0"></path>
<path d="M1007 40h0"></path>
<path d="M805 40a10 10 0 0 0 10 -10v0a10 10 0 0 1 10 -10"></path>
<g>
<path d="M825 20h162"></path>
</g>
<path d="M987 20a10 10 0 0 1 10 10v0a10 10 0 0 0 10 10"></path>
<path d="M805 40h20"></path>
<g>
<path d="M825 40h0"></path>
<path d="M987 40h0"></path>
<g class="terminal">
<path d="M825 40h0"></path>
<path d="M896 40h0"></path>
<rect x="825" y="29" width="71" height="22" rx="10" ry="10"></rect>
<text x="860.5" y="44">"FROM"</text>
</g>
<path d="M896 40h10"></path>
<path d="M906 40h10"></path>
<g class="non-terminal">
<path d="M916 40h0"></path>
<path d="M987 40h0"></path>
<rect x="916" y="29" width="71" height="22"></rect>
<a xlink:href="#/abap/expression/Source"><text x="951.5" y="44">Source</text>
</a>
</g>
</g>
<path d="M987 40h20"></path>
</g>
<path d="M1007 40h10"></path>
<g class="terminal">
<path d="M1017 40h0"></path>
<path d="M1113.5 40h0"></path>
<rect x="1017" y="29" width="96.5" height="22" rx="10" ry="10"></rect>
<text x="1065.25" y="44">"REQUEST"</text>
</g>
<path d="M1113.5 40h10"></path>
<path d="M1123.5 40h10"></path>
<g class="non-terminal">
<path d="M1133.5 40h0"></path>
<path d="M1204.5 40h0"></path>
<rect x="1133.5" y="29" width="71" height="22"></rect>
<a xlink:href="#/abap/expression/Source"><text x="1169" y="44">Source</text>
</a>
</g>
<path d="M1204.5 40h10"></path>
<path d="M1214.5 40h10"></path>
<g class="terminal">
<path d="M1224.5 40h0"></path>
<path d="M1312.5 40h0"></path>
<rect x="1224.5" y="29" width="88" height="22" rx="10" ry="10"></rect>
<text x="1268.5" y="44">"RESULT"</text>
</g>
<path d="M1312.5 40h10"></path>
<path d="M1322.5 40h10"></path>
<g class="non-terminal">
<path d="M1332.5 40h0"></path>
<path d="M1403.5 40h0"></path>
<rect x="1332.5" y="29" width="71" height="22"></rect>
<a xlink:href="#/abap/expression/Target"><text x="1368" y="44">Target</text>
</a>
</g>
<path d="M1403.5 40h10"></path>
<path d="M1413.5 40h10"></path>
<g class="terminal">
<path d="M1423.5 40h0"></path>
<path d="M1511.5 40h0"></path>
<rect x="1423.5" y="29" width="88" height="22" rx="10" ry="10"></rect>
<text x="1467.5" y="44">"FAILED"</text>
</g>
<path d="M1511.5 40h10"></path>
<path d="M1521.5 40h10"></path>
<g class="non-terminal">
<path d="M1531.5 40h0"></path>
<path d="M1602.5 40h0"></path>
<rect x="1531.5" y="29" width="71" height="22"></rect>
<a xlink:href="#/abap/expression/Target"><text x="1567" y="44">Target</text>
</a>
</g>
<path d="M1602.5 40h10"></path>
<path d="M1612.5 40h10"></path>
<g class="terminal">
<path d="M1622.5 40h0"></path>
<path d="M1727.5 40h0"></path>
<rect x="1622.5" y="29" width="105" height="22" rx="10" ry="10"></rect>
<text x="1675" y="44">"REPORTED"</text>
</g>
<path d="M1727.5 40h10"></path>
<path d="M1737.5 40h10"></path>
<g class="non-terminal">
<path d="M1747.5 40h0"></path>
<path d="M1818.5 40h0"></path>
<rect x="1747.5" y="29" width="71" height="22"></rect>
<a xlink:href="#/abap/expression/Target"><text x="1783" y="44">Target</text>
</a>
</g>
</g>
</g>
<path d="M1818.5 40h10"></path>
<path d="M 1828.5 40 h 20 m -10 -10 v 20 m 10 -20 v 20"></path>
</g>
</svg>
