<svg xmlns="http://www.w3.org/2000/svg" xmlns:xlink="http://www.w3.org/1999/xlink" class="railroad-diagram" width="2948" height="341" viewBox="0 0 2948 341">
<defs>
<style type="text/css"><![CDATA[
path {
stroke-width: 3;
stroke: black;
fill: rgba(0,0,0,0);
}
text {
font: bold 14px monospace;
text-anchor: middle;
}
text.diagram-text {
font-size: 12px;
}
a {
fill: blue;
}
text.diagram-arrow {
font-size: 16px;
}
text.label {
text-anchor: start;
}
text.comment {
font: italic 12px monospace;
}
rect {
stroke-width: 3;
stroke: black;
fill: #BCBCBC;
}
path.diagram-text {
stroke-width: 3;
stroke: black;
fill: #BCBCBC;
cursor: help;
}
]]></style>
</defs>
<g transform="translate(.5 .5)">
<g>
<path d="M20 30v20m10 -20v20m-10 -10h20"></path>
</g>
<path d="M40 40h10"></path>
<g>
<path d="M50 40h0"></path>
<path d="M2898 40h0"></path>
<g class="comment ">
<path d="M50 40h0"></path>
<path d="M88 40h0"></path>
<text x="69" y="45" class="comment">v754</text>
</g>
<path d="M88 40h10"></path>
<path d="M98 40h10"></path>
<g>
<path d="M108 40h0"></path>
<path d="M2898 40h0"></path>
<g class="terminal ">
<path d="M108 40h0"></path>
<path d="M179 40h0"></path>
<rect x="108" y="29" width="71" height="22" rx="10" ry="10"></rect>
<text x="143.5" y="44">"READ"</text>
</g>
<path d="M179 40h10"></path>
<g>
<path d="M189 40h0"></path>
<path d="M2898 40h0"></path>
<path d="M189 40h20"></path>
<g>
<path d="M209 40h0"></path>
<path d="M2878 40h0"></path>
<g class="terminal ">
<path d="M209 40h0"></path>
<path d="M339.5 40h0"></path>
<rect x="209" y="29" width="130.5" height="22" rx="10" ry="10"></rect>
<text x="274.25" y="44">"ENTITIES OF"</text>
</g>
<path d="M339.5 40h10"></path>
<path d="M349.5 40h10"></path>
<g class="non-terminal ">
<path d="M359.5 40h0"></path>
<path d="M541 40h0"></path>
<rect x="359.5" y="29" width="181.5" height="22"></rect>
<a xlink:href="#/abap/expression/NamespaceSimpleName"><text x="450.25" y="44">NamespaceSimpleName</text>
</a>
</g>
<path d="M541 40h10"></path>
<g>
<path d="M551 40h0"></path>
<path d="M738.5 40h0"></path>
<path d="M551 40a10 10 0 0 0 10 -10v0a10 10 0 0 1 10 -10"></path>
<g>
<path d="M571 20h147.5"></path>
</g>
<path d="M718.5 20a10 10 0 0 1 10 10v0a10 10 0 0 0 10 10"></path>
<path d="M551 40h20"></path>
<g class="terminal ">
<path d="M571 40h0"></path>
<path d="M718.5 40h0"></path>
<rect x="571" y="29" width="147.5" height="22" rx="10" ry="10"></rect>
<text x="644.75" y="44">"IN LOCAL MODE"</text>
</g>
<path d="M718.5 40h20"></path>
</g>
<path d="M738.5 40h10"></path>
<g>
<path d="M748.5 40h0"></path>
<path d="M2360 40h0"></path>
<path d="M748.5 40h10"></path>
<g>
<path d="M758.5 40h0"></path>
<path d="M2350 40h0"></path>
<g class="terminal ">
<path d="M758.5 40h0"></path>
<path d="M846.5 40h0"></path>
<rect x="758.5" y="29" width="88" height="22" rx="10" ry="10"></rect>
<text x="802.5" y="44">"ENTITY"</text>
</g>
<path d="M846.5 40h10"></path>
<path d="M856.5 40h10"></path>
<g class="non-terminal ">
<path d="M866.5 40h0"></path>
<path d="M1048 40h0"></path>
<rect x="866.5" y="29" width="181.5" height="22"></rect>
<a xlink:href="#/abap/expression/NamespaceSimpleName"><text x="957.25" y="44">NamespaceSimpleName</text>
</a>
</g>
<path d="M1048 40h10"></path>
<path d="M1058 40h10"></path>
<g>
<path d="M1068 40h0"></path>
<path d="M2350 40h0"></path>
<path d="M1068 40h10"></path>
<g>
<path d="M1078 40h0"></path>
<path d="M2340 40h0"></path>
<g>
<path d="M1078 40h0"></path>
<path d="M1339.5 40h0"></path>
<path d="M1078 40a10 10 0 0 0 10 -10v0a10 10 0 0 1 10 -10"></path>
<g>
<path d="M1098 20h221.5"></path>
</g>
<path d="M1319.5 20a10 10 0 0 1 10 10v0a10 10 0 0 0 10 10"></path>
<path d="M1078 40h20"></path>
<g>
<path d="M1098 40h0"></path>
<path d="M1319.5 40h0"></path>
<g class="terminal ">
<path d="M1098 40h0"></path>
<path d="M1152 40h0"></path>
<rect x="1098" y="29" width="54" height="22" rx="10" ry="10"></rect>
<text x="1125" y="44">"BY"</text>
</g>
<path d="M1152 40h10"></path>
<path d="M1162 40h10"></path>
<g class="non-terminal ">
<path d="M1172 40h0"></path>
<path d="M1319.5 40h0"></path>
<rect x="1172" y="29" width="147.5" height="22"></rect>
<a xlink:href="#/abap/expression/AssociationName"><text x="1245.75" y="44">AssociationName</text>
</a>
</g>
</g>
<path d="M1319.5 40h20"></path>
</g>
<g>
<path d="M1339.5 40h0"></path>
<path d="M2121 40h0"></path>
<path d="M1339.5 40h20"></path>
<g>
<path d="M1359.5 40h0"></path>
<path d="M2101 40h0"></path>
<g class="terminal ">
<path d="M1359.5 40h0"></path>
<path d="M1447.5 40h0"></path>
<rect x="1359.5" y="29" width="88" height="22" rx="10" ry="10"></rect>
<text x="1403.5" y="44">"FIELDS"</text>
</g>
<path d="M1447.5 40h10"></path>
<path d="M1457.5 40h10"></path>
<g class="terminal ">
<path d="M1467.5 40h0"></path>
<path d="M1606.5 40h0"></path>
<rect x="1467.5" y="29" width="139" height="22" rx="10" ry="10"></rect>
<text x="1537" y="44">!"WParenLeftW"</text>
</g>
<path d="M1606.5 40h10"></path>
<path d="M1616.5 40h10"></path>
<g>
<path d="M1626.5 40h0"></path>
<path d="M1751.5 40h0"></path>
<path d="M1626.5 40h10"></path>
<g class="non-terminal ">
<path d="M1636.5 40h0"></path>
<path d="M1741.5 40h0"></path>
<rect x="1636.5" y="29" width="105" height="22"></rect>
<a xlink:href="#/abap/expression/SimpleName"><text x="1689" y="44">SimpleName</text>
</a>
</g>
<path d="M1741.5 40h10"></path>
<path d="M1636.5 40a10 10 0 0 0 -10 10v0a10 10 0 0 0 10 10"></path>
<g>
<path d="M1636.5 60h105"></path>
</g>
<path d="M1741.5 60a10 10 0 0 0 10 -10v0a10 10 0 0 0 -10 -10"></path>
</g>
<path d="M1751.5 40h10"></path>
<path d="M1761.5 40h10"></path>
<g class="terminal ">
<path d="M1771.5 40h0"></path>
<path d="M1919 40h0"></path>
<rect x="1771.5" y="29" width="147.5" height="22" rx="10" ry="10"></rect>
<text x="1845.25" y="44">!"WParenRightW"</text>
</g>
<path d="M1919 40h10"></path>
<path d="M1929 40h10"></path>
<g class="terminal ">
<path d="M1939 40h0"></path>
<path d="M2010 40h0"></path>
<rect x="1939" y="29" width="71" height="22" rx="10" ry="10"></rect>
<text x="1974.5" y="44">"WITH"</text>
</g>
<path d="M2010 40h10"></path>
<path d="M2020 40h10"></path>
<g class="non-terminal ">
<path d="M2030 40h0"></path>
<path d="M2101 40h0"></path>
<rect x="2030" y="29" width="71" height="22"></rect>
<a xlink:href="#/abap/expression/Source"><text x="2065.5" y="44">Source</text>
</a>
</g>
</g>
<path d="M2101 40h20"></path>
<path d="M1339.5 40a10 10 0 0 1 10 10v19a10 10 0 0 0 10 10"></path>
<g>
<path d="M1359.5 79h289.75"></path>
<path d="M1811.25 79h289.75"></path>
<g class="terminal ">
<path d="M1649.25 79h0"></path>
<path d="M1720.25 79h0"></path>
<rect x="1649.25" y="68" width="71" height="22" rx="10" ry="10"></rect>
<text x="1684.75" y="83">"FROM"</text>
</g>
<path d="M1720.25 79h10"></path>
<path d="M1730.25 79h10"></path>
<g class="non-terminal ">
<path d="M1740.25 79h0"></path>
<path d="M1811.25 79h0"></path>
<rect x="1740.25" y="68" width="71" height="22"></rect>
<a xlink:href="#/abap/expression/Source"><text x="1775.75" y="83">Source</text>
</a>
</g>
</g>
<path d="M2101 79a10 10 0 0 0 10 -10v-19a10 10 0 0 1 10 -10"></path>
<path d="M1339.5 40a10 10 0 0 1 10 10v49a10 10 0 0 0 10 10"></path>
<g>
<path d="M1359.5 109h243"></path>
<path d="M1858 109h243"></path>
<g class="terminal ">
<path d="M1602.5 109h0"></path>
<path d="M1767 109h0"></path>
<rect x="1602.5" y="98" width="164.5" height="22" rx="10" ry="10"></rect>
<text x="1684.75" y="113">"ALL FIELDS WITH"</text>
</g>
<path d="M1767 109h10"></path>
<path d="M1777 109h10"></path>
<g class="non-terminal ">
<path d="M1787 109h0"></path>
<path d="M1858 109h0"></path>
<rect x="1787" y="98" width="71" height="22"></rect>
<a xlink:href="#/abap/expression/Source"><text x="1822.5" y="113">Source</text>
</a>
</g>
</g>
<path d="M2101 109a10 10 0 0 0 10 -10v-49a10 10 0 0 1 10 -10"></path>
</g>
<g>
<path d="M2121 40h0"></path>
<path d="M2340 40h0"></path>
<path d="M2121 40a10 10 0 0 0 10 -10v0a10 10 0 0 1 10 -10"></path>
<g>
<path d="M2141 20h179"></path>
</g>
<path d="M2320 20a10 10 0 0 1 10 10v0a10 10 0 0 0 10 10"></path>
<path d="M2121 40h20"></path>
<g>
<path d="M2141 40h0"></path>
<path d="M2320 40h0"></path>
<g class="terminal ">
<path d="M2141 40h0"></path>
<path d="M2229 40h0"></path>
<rect x="2141" y="29" width="88" height="22" rx="10" ry="10"></rect>
<text x="2185" y="44">"RESULT"</text>
</g>
<path d="M2229 40h10"></path>
<path d="M2239 40h10"></path>
<g class="non-terminal ">
<path d="M2249 40h0"></path>
<path d="M2320 40h0"></path>
<rect x="2249" y="29" width="71" height="22"></rect>
<a xlink:href="#/abap/expression/Target"><text x="2284.5" y="44">Target</text>
</a>
</g>
</g>
<path d="M2320 40h20"></path>
</g>
</g>
<path d="M2340 40h10"></path>
<path d="M1078 40a10 10 0 0 0 -10 10v68a10 10 0 0 0 10 10"></path>
<g>
<path d="M1078 128h1262"></path>
</g>
<path d="M2340 128a10 10 0 0 0 10 -10v-68a10 10 0 0 0 -10 -10"></path>
</g>
</g>
<path d="M2350 40h10"></path>
<path d="M758.5 40a10 10 0 0 0 -10 10v76a10 10 0 0 0 10 10"></path>
<g>
<path d="M758.5 136h1591.5"></path>
</g>
<path d="M2350 136a10 10 0 0 0 10 -10v-76a10 10 0 0 0 -10 -10"></path>
</g>
<path d="M2360 40h10"></path>
<g>
<path d="M2370 40h0"></path>
<path d="M2572 40h0"></path>
<path d="M2370 40a10 10 0 0 0 10 -10v0a10 10 0 0 1 10 -10"></path>
<g>
<path d="M2390 20h162"></path>
</g>
<path d="M2552 20a10 10 0 0 1 10 10v0a10 10 0 0 0 10 10"></path>
<path d="M2370 40h20"></path>
<g>
<path d="M2390 40h0"></path>
<path d="M2552 40h0"></path>
<g class="terminal ">
<path d="M2390 40h0"></path>
<path d="M2461 40h0"></path>
<rect x="2390" y="29" width="71" height="22" rx="10" ry="10"></rect>
<text x="2425.5" y="44">"LINK"</text>
</g>
<path d="M2461 40h10"></path>
<path d="M2471 40h10"></path>
<g class="non-terminal ">
<path d="M2481 40h0"></path>
<path d="M2552 40h0"></path>
<rect x="2481" y="29" width="71" height="22"></rect>
<a xlink:href="#/abap/expression/Target"><text x="2516.5" y="44">Target</text>
</a>
</g>
</g>
<path d="M2552 40h20"></path>
</g>
<g>
<path d="M2572 40h0"></path>
<path d="M2878 40h0"></path>
<path d="M2572 40a10 10 0 0 0 10 -10v0a10 10 0 0 1 10 -10"></path>
<g>
<path d="M2592 20h266"></path>
</g>
<path d="M2858 20a10 10 0 0 1 10 10v0a10 10 0 0 0 10 10"></path>
<path d="M2572 40h20"></path>
<g>
<path d="M2592 40h0"></path>
<path d="M2858 40h0"></path>
<path d="M2622 40h10"></path>
<g>
<path d="M2632 40h8.5"></path>
<path d="M2819.5 40h8.5"></path>
<g class="terminal ">
<path d="M2640.5 40h0"></path>
<path d="M2728.5 40h0"></path>
<rect x="2640.5" y="29" width="88" height="22" rx="10" ry="10"></rect>
<text x="2684.5" y="44">"FAILED"</text>
</g>
<path d="M2728.5 40h10"></path>
<path d="M2738.5 40h10"></path>
<g class="non-terminal ">
<path d="M2748.5 40h0"></path>
<path d="M2819.5 40h0"></path>
<rect x="2748.5" y="29" width="71" height="22"></rect>
<a xlink:href="#/abap/expression/Target"><text x="2784" y="44">Target</text>
</a>
</g>
</g>
<path d="M2828 40h10"></path>
<path d="M2622 40v20a10 10 0 0 0 10 10"></path>
<g>
<path d="M2632 70h0"></path>
<path d="M2828 70h0"></path>
<g class="terminal ">
<path d="M2632 70h0"></path>
<path d="M2737 70h0"></path>
<rect x="2632" y="59" width="105" height="22" rx="10" ry="10"></rect>
<text x="2684.5" y="74">"REPORTED"</text>
</g>
<path d="M2737 70h10"></path>
<path d="M2747 70h10"></path>
<g class="non-terminal ">
<path d="M2757 70h0"></path>
<path d="M2828 70h0"></path>
<rect x="2757" y="59" width="71" height="22"></rect>
<a xlink:href="#/abap/expression/Target"><text x="2792.5" y="74">Target</text>
</a>
</g>
</g>
<path d="M2828 70a10 10 0 0 0 10 -10v-20"></path>
<g class="diagram-text">
<title>take one or more branches, once each, in any order</title>
<path d="M 2622 30 h -26 a 4 4 0 0 0 -4 4 v 12 a 4 4 0 0 0 4 4 h 26 z" class="diagram-text"></path>
<text x="2607" y="44" class="diagram-text">1+</text>
<path d="M 2838 30 h 16 a 4 4 0 0 1 4 4 v 12 a 4 4 0 0 1 -4 4 h -16 z" class="diagram-text"></path>
<path d="M 2845 38 a 4 4 0 1 0 6 -1 m 2.75 -1 h -4 v 4 m 0 -3 h 2" style="stroke-width: 1.75"></path>
</g>
</g>
<path d="M2858 40h20"></path>
</g>
</g>
<path d="M2878 40h20"></path>
<path d="M189 40a10 10 0 0 1 10 10v104a10 10 0 0 0 10 10"></path>
<g>
<path d="M209 164h227.5"></path>
<path d="M2650.5 164h227.5"></path>
<g class="terminal ">
<path d="M436.5 164h0"></path>
<path d="M524.5 164h0"></path>
<rect x="436.5" y="153" width="88" height="22" rx="10" ry="10"></rect>
<text x="480.5" y="168">"ENTITY"</text>
</g>
<path d="M524.5 164h10"></path>
<g>
<path d="M534.5 164h0"></path>
<path d="M722 164h0"></path>
<path d="M534.5 164a10 10 0 0 0 10 -10v0a10 10 0 0 1 10 -10"></path>
<g>
<path d="M554.5 144h147.5"></path>
</g>
<path d="M702 144a10 10 0 0 1 10 10v0a10 10 0 0 0 10 10"></path>
<path d="M534.5 164h20"></path>
<g class="terminal ">
<path d="M554.5 164h0"></path>
<path d="M702 164h0"></path>
<rect x="554.5" y="153" width="147.5" height="22" rx="10" ry="10"></rect>
<text x="628.25" y="168">"IN LOCAL MODE"</text>
</g>
<path d="M702 164h20"></path>
</g>
<g>
<path d="M722 164h0"></path>
<path d="M943.5 164h0"></path>
<path d="M722 164h20"></path>
<g class="non-terminal ">
<path d="M742 164h0"></path>
<path d="M923.5 164h0"></path>
<rect x="742" y="153" width="181.5" height="22"></rect>
<a xlink:href="#/abap/expression/NamespaceSimpleName"><text x="832.75" y="168">NamespaceSimpleName</text>
</a>
</g>
<path d="M923.5 164h20"></path>
<path d="M722 164a10 10 0 0 1 10 10v10a10 10 0 0 0 10 10"></path>
<g class="non-terminal ">
<path d="M742 194h8.5"></path>
<path d="M915 194h8.5"></path>
<rect x="750.5" y="183" width="164.5" height="22"></rect>
<a xlink:href="#/abap/expression/EntityAssociation"><text x="832.75" y="198">EntityAssociation</text>
</a>
</g>
<path d="M923.5 194a10 10 0 0 0 10 -10v-10a10 10 0 0 1 10 -10"></path>
</g>
<path d="M943.5 164h10"></path>
<g>
<path d="M953.5 164h0"></path>
<path d="M2185.5 164h0"></path>
<path d="M953.5 164h10"></path>
<g>
<path d="M963.5 164h0"></path>
<path d="M2175.5 164h0"></path>
<g>
<path d="M963.5 164h0"></path>
<path d="M1986.5 164h0"></path>
<path d="M963.5 164h20"></path>
<g>
<path d="M983.5 164h363.75"></path>
<path d="M1602.75 164h363.75"></path>
<g class="terminal ">
<path d="M1347.25 164h0"></path>
<path d="M1511.75 164h0"></path>
<rect x="1347.25" y="153" width="164.5" height="22" rx="10" ry="10"></rect>
<text x="1429.5" y="168">"ALL FIELDS WITH"</text>
</g>
<path d="M1511.75 164h10"></path>
<path d="M1521.75 164h10"></path>
<g class="non-terminal ">
<path d="M1531.75 164h0"></path>
<path d="M1602.75 164h0"></path>
<rect x="1531.75" y="153" width="71" height="22"></rect>
<a xlink:href="#/abap/expression/Source"><text x="1567.25" y="168">Source</text>
</a>
</g>
</g>
<path d="M1966.5 164h20"></path>
<path d="M963.5 164a10 10 0 0 1 10 10v10a10 10 0 0 0 10 10"></path>
<g>
<path d="M983.5 194h120.75"></path>
<path d="M1845.75 194h120.75"></path>
<g class="terminal ">
<path d="M1104.25 194h0"></path>
<path d="M1192.25 194h0"></path>
<rect x="1104.25" y="183" width="88" height="22" rx="10" ry="10"></rect>
<text x="1148.25" y="198">"FIELDS"</text>
</g>
<path d="M1192.25 194h10"></path>
<path d="M1202.25 194h10"></path>
<g class="terminal ">
<path d="M1212.25 194h0"></path>
<path d="M1351.25 194h0"></path>
<rect x="1212.25" y="183" width="139" height="22" rx="10" ry="10"></rect>
<text x="1281.75" y="198">!"WParenLeftW"</text>
</g>
<path d="M1351.25 194h10"></path>
<path d="M1361.25 194h10"></path>
<g>
<path d="M1371.25 194h0"></path>
<path d="M1496.25 194h0"></path>
<path d="M1371.25 194h10"></path>
<g class="non-terminal ">
<path d="M1381.25 194h0"></path>
<path d="M1486.25 194h0"></path>
<rect x="1381.25" y="183" width="105" height="22"></rect>
<a xlink:href="#/abap/expression/SimpleName"><text x="1433.75" y="198">SimpleName</text>
</a>
</g>
<path d="M1486.25 194h10"></path>
<path d="M1381.25 194a10 10 0 0 0 -10 10v0a10 10 0 0 0 10 10"></path>
<g>
<path d="M1381.25 214h105"></path>
</g>
<path d="M1486.25 214a10 10 0 0 0 10 -10v0a10 10 0 0 0 -10 -10"></path>
</g>
<path d="M1496.25 194h10"></path>
<path d="M1506.25 194h10"></path>
<g class="terminal ">
<path d="M1516.25 194h0"></path>
<path d="M1663.75 194h0"></path>
<rect x="1516.25" y="183" width="147.5" height="22" rx="10" ry="10"></rect>
<text x="1590" y="198">!"WParenRightW"</text>
</g>
<path d="M1663.75 194h10"></path>
<path d="M1673.75 194h10"></path>
<g class="terminal ">
<path d="M1683.75 194h0"></path>
<path d="M1754.75 194h0"></path>
<rect x="1683.75" y="183" width="71" height="22" rx="10" ry="10"></rect>
<text x="1719.25" y="198">"WITH"</text>
</g>
<path d="M1754.75 194h10"></path>
<path d="M1764.75 194h10"></path>
<g class="non-terminal ">
<path d="M1774.75 194h0"></path>
<path d="M1845.75 194h0"></path>
<rect x="1774.75" y="183" width="71" height="22"></rect>
<a xlink:href="#/abap/expression/Source"><text x="1810.25" y="198">Source</text>
</a>
</g>
</g>
<path d="M1966.5 194a10 10 0 0 0 10 -10v-10a10 10 0 0 1 10 -10"></path>
<path d="M963.5 164a10 10 0 0 1 10 10v49a10 10 0 0 0 10 10"></path>
<g>
<path d="M983.5 233h410.5"></path>
<path d="M1556 233h410.5"></path>
<g class="terminal ">
<path d="M1394 233h0"></path>
<path d="M1465 233h0"></path>
<rect x="1394" y="222" width="71" height="22" rx="10" ry="10"></rect>
<text x="1429.5" y="237">"FROM"</text>
</g>
<path d="M1465 233h10"></path>
<path d="M1475 233h10"></path>
<g class="non-terminal ">
<path d="M1485 233h0"></path>
<path d="M1556 233h0"></path>
<rect x="1485" y="222" width="71" height="22"></rect>
<a xlink:href="#/abap/expression/Source"><text x="1520.5" y="237">Source</text>
</a>
</g>
</g>
<path d="M1966.5 233a10 10 0 0 0 10 -10v-49a10 10 0 0 1 10 -10"></path>
<path d="M963.5 164a10 10 0 0 1 10 10v79a10 10 0 0 0 10 10"></path>
<g>
<path d="M983.5 263h0"></path>
<path d="M1966.5 263h0"></path>
<g class="terminal ">
<path d="M983.5 263h0"></path>
<path d="M1037.5 263h0"></path>
<rect x="983.5" y="252" width="54" height="22" rx="10" ry="10"></rect>
<text x="1010.5" y="267">"BY"</text>
</g>
<path d="M1037.5 263h10"></path>
<path d="M1047.5 263h10"></path>
<g class="non-terminal ">
<path d="M1057.5 263h0"></path>
<path d="M1205 263h0"></path>
<rect x="1057.5" y="252" width="147.5" height="22"></rect>
<a xlink:href="#/abap/expression/AssociationName"><text x="1131.25" y="267">AssociationName</text>
</a>
</g>
<path d="M1205 263h10"></path>
<path d="M1215 263h10"></path>
<g>
<path d="M1225 263h0"></path>
<path d="M1966.5 263h0"></path>
<g class="terminal ">
<path d="M1225 263h0"></path>
<path d="M1313 263h0"></path>
<rect x="1225" y="252" width="88" height="22" rx="10" ry="10"></rect>
<text x="1269" y="267">"FIELDS"</text>
</g>
<path d="M1313 263h10"></path>
<path d="M1323 263h10"></path>
<g class="terminal ">
<path d="M1333 263h0"></path>
<path d="M1472 263h0"></path>
<rect x="1333" y="252" width="139" height="22" rx="10" ry="10"></rect>
<text x="1402.5" y="267">!"WParenLeftW"</text>
</g>
<path d="M1472 263h10"></path>
<path d="M1482 263h10"></path>
<g>
<path d="M1492 263h0"></path>
<path d="M1617 263h0"></path>
<path d="M1492 263h10"></path>
<g class="non-terminal ">
<path d="M1502 263h0"></path>
<path d="M1607 263h0"></path>
<rect x="1502" y="252" width="105" height="22"></rect>
<a xlink:href="#/abap/expression/SimpleName"><text x="1554.5" y="267">SimpleName</text>
</a>
</g>
<path d="M1607 263h10"></path>
<path d="M1502 263a10 10 0 0 0 -10 10v0a10 10 0 0 0 10 10"></path>
<g>
<path d="M1502 283h105"></path>
</g>
<path d="M1607 283a10 10 0 0 0 10 -10v0a10 10 0 0 0 -10 -10"></path>
</g>
<path d="M1617 263h10"></path>
<path d="M1627 263h10"></path>
<g class="terminal ">
<path d="M1637 263h0"></path>
<path d="M1784.5 263h0"></path>
<rect x="1637" y="252" width="147.5" height="22" rx="10" ry="10"></rect>
<text x="1710.75" y="267">!"WParenRightW"</text>
</g>
<path d="M1784.5 263h10"></path>
<path d="M1794.5 263h10"></path>
<g class="terminal ">
<path d="M1804.5 263h0"></path>
<path d="M1875.5 263h0"></path>
<rect x="1804.5" y="252" width="71" height="22" rx="10" ry="10"></rect>
<text x="1840" y="267">"WITH"</text>
</g>
<path d="M1875.5 263h10"></path>
<path d="M1885.5 263h10"></path>
<g class="non-terminal ">
<path d="M1895.5 263h0"></path>
<path d="M1966.5 263h0"></path>
<rect x="1895.5" y="252" width="71" height="22"></rect>
<a xlink:href="#/abap/expression/Source"><text x="1931" y="267">Source</text>
</a>
</g>
</g>
</g>
<path d="M1966.5 263a10 10 0 0 0 10 -10v-79a10 10 0 0 1 10 -10"></path>
<path d="M963.5 164a10 10 0 0 1 10 10v118a10 10 0 0 0 10 10"></path>
<g>
<path d="M983.5 302h243"></path>
<path d="M1723.5 302h243"></path>
<g class="terminal ">
<path d="M1226.5 302h0"></path>
<path d="M1280.5 302h0"></path>
<rect x="1226.5" y="291" width="54" height="22" rx="10" ry="10"></rect>
<text x="1253.5" y="306">"BY"</text>
</g>
<path d="M1280.5 302h10"></path>
<path d="M1290.5 302h10"></path>
<g class="non-terminal ">
<path d="M1300.5 302h0"></path>
<path d="M1448 302h0"></path>
<rect x="1300.5" y="291" width="147.5" height="22"></rect>
<a xlink:href="#/abap/expression/AssociationName"><text x="1374.25" y="306">AssociationName</text>
</a>
</g>
<path d="M1448 302h10"></path>
<path d="M1458 302h10"></path>
<g>
<path d="M1468 302h0"></path>
<path d="M1723.5 302h0"></path>
<g class="terminal ">
<path d="M1468 302h0"></path>
<path d="M1632.5 302h0"></path>
<rect x="1468" y="291" width="164.5" height="22" rx="10" ry="10"></rect>
<text x="1550.25" y="306">"ALL FIELDS WITH"</text>
</g>
<path d="M1632.5 302h10"></path>
<path d="M1642.5 302h10"></path>
<g class="non-terminal ">
<path d="M1652.5 302h0"></path>
<path d="M1723.5 302h0"></path>
<rect x="1652.5" y="291" width="71" height="22"></rect>
<a xlink:href="#/abap/expression/Source"><text x="1688" y="306">Source</text>
</a>
</g>
</g>
</g>
<path d="M1966.5 302a10 10 0 0 0 10 -10v-118a10 10 0 0 1 10 -10"></path>
</g>
<path d="M1986.5 164h10"></path>
<g>
<path d="M1996.5 164h0"></path>
<path d="M2175.5 164h0"></path>
<g class="terminal ">
<path d="M1996.5 164h0"></path>
<path d="M2084.5 164h0"></path>
<rect x="1996.5" y="153" width="88" height="22" rx="10" ry="10"></rect>
<text x="2040.5" y="168">"RESULT"</text>
</g>
<path d="M2084.5 164h10"></path>
<path d="M2094.5 164h10"></path>
<g class="non-terminal ">
<path d="M2104.5 164h0"></path>
<path d="M2175.5 164h0"></path>
<rect x="2104.5" y="153" width="71" height="22"></rect>
<a xlink:href="#/abap/expression/Target"><text x="2140" y="168">Target</text>
</a>
</g>
</g>
</g>
<path d="M2175.5 164h10"></path>
<path d="M963.5 164a10 10 0 0 0 -10 10v137a10 10 0 0 0 10 10"></path>
<g>
<path d="M963.5 321h1212"></path>
</g>
<path d="M2175.5 321a10 10 0 0 0 10 -10v-137a10 10 0 0 0 -10 -10"></path>
</g>
<path d="M2185.5 164h10"></path>
<g>
<path d="M2195.5 164h0"></path>
<path d="M2414.5 164h0"></path>
<path d="M2195.5 164a10 10 0 0 0 10 -10v0a10 10 0 0 1 10 -10"></path>
<g>
<path d="M2215.5 144h179"></path>
</g>
<path d="M2394.5 144a10 10 0 0 1 10 10v0a10 10 0 0 0 10 10"></path>
<path d="M2195.5 164h20"></path>
<g>
<path d="M2215.5 164h0"></path>
<path d="M2394.5 164h0"></path>
<g class="terminal ">
<path d="M2215.5 164h0"></path>
<path d="M2303.5 164h0"></path>
<rect x="2215.5" y="153" width="88" height="22" rx="10" ry="10"></rect>
<text x="2259.5" y="168">"FAILED"</text>
</g>
<path d="M2303.5 164h10"></path>
<path d="M2313.5 164h10"></path>
<g class="non-terminal ">
<path d="M2323.5 164h0"></path>
<path d="M2394.5 164h0"></path>
<rect x="2323.5" y="153" width="71" height="22"></rect>
<a xlink:href="#/abap/expression/Target"><text x="2359" y="168">Target</text>
</a>
</g>
</g>
<path d="M2394.5 164h20"></path>
</g>
<g>
<path d="M2414.5 164h0"></path>
<path d="M2650.5 164h0"></path>
<path d="M2414.5 164a10 10 0 0 0 10 -10v0a10 10 0 0 1 10 -10"></path>
<g>
<path d="M2434.5 144h196"></path>
</g>
<path d="M2630.5 144a10 10 0 0 1 10 10v0a10 10 0 0 0 10 10"></path>
<path d="M2414.5 164h20"></path>
<g>
<path d="M2434.5 164h0"></path>
<path d="M2630.5 164h0"></path>
<g class="terminal ">
<path d="M2434.5 164h0"></path>
<path d="M2539.5 164h0"></path>
<rect x="2434.5" y="153" width="105" height="22" rx="10" ry="10"></rect>
<text x="2487" y="168">"REPORTED"</text>
</g>
<path d="M2539.5 164h10"></path>
<path d="M2549.5 164h10"></path>
<g class="non-terminal ">
<path d="M2559.5 164h0"></path>
<path d="M2630.5 164h0"></path>
<rect x="2559.5" y="153" width="71" height="22"></rect>
<a xlink:href="#/abap/expression/Target"><text x="2595" y="168">Target</text>
</a>
</g>
</g>
<path d="M2630.5 164h20"></path>
</g>
</g>
<path d="M2878 164a10 10 0 0 0 10 -10v-104a10 10 0 0 1 10 -10"></path>
</g>
</g>
</g>
<path d="M2898 40h10"></path>
<path d="M 2908 40 h 20 m -10 -10 v 20 m 10 -20 v 20"></path>
</g>
</svg>
