<svg xmlns="http://www.w3.org/2000/svg" xmlns:xlink="http://www.w3.org/1999/xlink" class="railroad-diagram" width="1782" height="131" viewBox="0 0 1782 131">
<defs>
<style type="text/css"><![CDATA[
path {
stroke-width: 3;
stroke: black;
fill: rgba(0,0,0,0);
}
text {
font: bold 14px monospace;
text-anchor: middle;
}
text.diagram-text {
font-size: 12px;
}
a {
fill: blue;
}
text.diagram-arrow {
font-size: 16px;
}
text.label {
text-anchor: start;
}
text.comment {
font: italic 12px monospace;
}
rect {
stroke-width: 3;
stroke: black;
fill: #BCBCBC;
}
path.diagram-text {
stroke-width: 3;
stroke: black;
fill: #BCBCBC;
cursor: help;
}
]]></style>
</defs>
<g transform="translate(.5 .5)">
<g>
<path d="M20 30v20m10 -20v20m-10 -10h20"></path>
</g>
<path d="M40 40h10"></path>
<g>
<path d="M50 40h0"></path>
<path d="M1732 40h0"></path>
<g class="comment ">
<path d="M50 40h0"></path>
<path d="M193 40h0"></path>
<text x="121.5" y="45" class="comment">not langver=KeyUser</text>
</g>
<path d="M193 40h10"></path>
<path d="M203 40h10"></path>
<g>
<path d="M213 40h0"></path>
<path d="M1732 40h0"></path>
<g class="terminal ">
<path d="M213 40h0"></path>
<path d="M360.5 40h0"></path>
<rect x="213" y="29" width="147.5" height="22" rx="10" ry="10"></rect>
<text x="286.75" y="44">"CREATE OBJECT"</text>
</g>
<path d="M360.5 40h10"></path>
<path d="M370.5 40h10"></path>
<g class="non-terminal ">
<path d="M380.5 40h0"></path>
<path d="M451.5 40h0"></path>
<rect x="380.5" y="29" width="71" height="22"></rect>
<a xlink:href="#/abap/expression/Target"><text x="416" y="44">Target</text>
</a>
</g>
<path d="M451.5 40h10"></path>
<g>
<path d="M461.5 40h0"></path>
<path d="M942 40h0"></path>
<path d="M461.5 40a10 10 0 0 0 10 -10v0a10 10 0 0 1 10 -10"></path>
<g>
<path d="M481.5 20h440.5"></path>
</g>
<path d="M922 20a10 10 0 0 1 10 10v0a10 10 0 0 0 10 10"></path>
<path d="M461.5 40h20"></path>
<g>
<path d="M481.5 40h0"></path>
<path d="M922 40h0"></path>
<path d="M511.5 40h10"></path>
<g>
<path d="M521.5 40h76.5"></path>
<path d="M815.5 40h76.5"></path>
<g class="terminal ">
<path d="M598 40h0"></path>
<path d="M669 40h0"></path>
<rect x="598" y="29" width="71" height="22" rx="10" ry="10"></rect>
<text x="633.5" y="44">"TYPE"</text>
</g>
<path d="M669 40h10"></path>
<g>
<path d="M679 40h0"></path>
<path d="M815.5 40h0"></path>
<path d="M679 40h20"></path>
<g class="non-terminal ">
<path d="M699 40h0"></path>
<path d="M795.5 40h0"></path>
<rect x="699" y="29" width="96.5" height="22"></rect>
<a xlink:href="#/abap/expression/ClassName"><text x="747.25" y="44">ClassName</text>
</a>
</g>
<path d="M795.5 40h20"></path>
<path d="M679 40a10 10 0 0 1 10 10v10a10 10 0 0 0 10 10"></path>
<g class="non-terminal ">
<path d="M699 70h8.5"></path>
<path d="M787 70h8.5"></path>
<rect x="707.5" y="59" width="79.5" height="22"></rect>
<a xlink:href="#/abap/expression/Dynamic"><text x="747.25" y="74">Dynamic</text>
</a>
</g>
<path d="M795.5 70a10 10 0 0 0 10 -10v-10a10 10 0 0 1 10 -10"></path>
</g>
</g>
<path d="M892 40h10"></path>
<path d="M511.5 40v50a10 10 0 0 0 10 10"></path>
<g>
<path d="M521.5 100h0"></path>
<path d="M892 100h0"></path>
<g class="comment ">
<path d="M521.5 100h0"></path>
<path d="M650.5 100h0"></path>
<text x="586" y="105" class="comment">not langver=Cloud</text>
</g>
<path d="M650.5 100h10"></path>
<path d="M660.5 100h10"></path>
<g>
<path d="M670.5 100h0"></path>
<path d="M892 100h0"></path>
<g class="terminal ">
<path d="M670.5 100h0"></path>
<path d="M801 100h0"></path>
<rect x="670.5" y="89" width="130.5" height="22" rx="10" ry="10"></rect>
<text x="735.75" y="104">"AREA HANDLE"</text>
</g>
<path d="M801 100h10"></path>
<path d="M811 100h10"></path>
<g class="non-terminal ">
<path d="M821 100h0"></path>
<path d="M892 100h0"></path>
<rect x="821" y="89" width="71" height="22"></rect>
<a xlink:href="#/abap/expression/Source"><text x="856.5" y="104">Source</text>
</a>
</g>
</g>
</g>
<path d="M892 100a10 10 0 0 0 10 -10v-50"></path>
<g class="diagram-text">
<title>take one or more branches, once each, in any order</title>
<path d="M 511.5 30 h -26 a 4 4 0 0 0 -4 4 v 12 a 4 4 0 0 0 4 4 h 26 z" class="diagram-text"></path>
<text x="496.5" y="44" class="diagram-text">1+</text>
<path d="M 902 30 h 16 a 4 4 0 0 1 4 4 v 12 a 4 4 0 0 1 -4 4 h -16 z" class="diagram-text"></path>
<path d="M 909 38 a 4 4 0 1 0 6 -1 m 2.75 -1 h -4 v 4 m 0 -3 h 2" style="stroke-width: 1.75"></path>
</g>
</g>
<path d="M922 40h20"></path>
</g>
<g>
<path d="M942 40h0"></path>
<path d="M1294.5 40h0"></path>
<path d="M942 40a10 10 0 0 0 10 -10v0a10 10 0 0 1 10 -10"></path>
<g>
<path d="M962 20h312.5"></path>
</g>
<path d="M1274.5 20a10 10 0 0 1 10 10v0a10 10 0 0 0 10 10"></path>
<path d="M942 40h20"></path>
<g>
<path d="M962 40h0"></path>
<path d="M1274.5 40h0"></path>
<path d="M962 40h20"></path>
<g>
<path d="M982 40h0"></path>
<path d="M1254.5 40h0"></path>
<g class="terminal ">
<path d="M982 40h0"></path>
<path d="M1095.5 40h0"></path>
<rect x="982" y="29" width="113.5" height="22" rx="10" ry="10"></rect>
<text x="1038.75" y="44">"EXPORTING"</text>
</g>
<path d="M1095.5 40h10"></path>
<path d="M1105.5 40h10"></path>
<g class="non-terminal ">
<path d="M1115.5 40h0"></path>
<path d="M1254.5 40h0"></path>
<rect x="1115.5" y="29" width="139" height="22"></rect>
<a xlink:href="#/abap/expression/ParameterListS"><text x="1185" y="44">ParameterListS</text>
</a>
</g>
</g>
<path d="M1254.5 40h20"></path>
<path d="M962 40a10 10 0 0 1 10 10v10a10 10 0 0 0 10 10"></path>
<g>
<path d="M982 70h8.5"></path>
<path d="M1246 70h8.5"></path>
<g class="terminal ">
<path d="M990.5 70h0"></path>
<path d="M1155 70h0"></path>
<rect x="990.5" y="59" width="164.5" height="22" rx="10" ry="10"></rect>
<text x="1072.75" y="74">"PARAMETER-TABLE"</text>
</g>
<path d="M1155 70h10"></path>
<path d="M1165 70h10"></path>
<g class="non-terminal ">
<path d="M1175 70h0"></path>
<path d="M1246 70h0"></path>
<rect x="1175" y="59" width="71" height="22"></rect>
<a xlink:href="#/abap/expression/Source"><text x="1210.5" y="74">Source</text>
</a>
</g>
</g>
<path d="M1254.5 70a10 10 0 0 0 10 -10v-10a10 10 0 0 1 10 -10"></path>
</g>
<path d="M1274.5 40h20"></path>
</g>
<g>
<path d="M1294.5 40h0"></path>
<path d="M1732 40h0"></path>
<path d="M1294.5 40a10 10 0 0 0 10 -10v0a10 10 0 0 1 10 -10"></path>
<g>
<path d="M1314.5 20h397.5"></path>
</g>
<path d="M1712 20a10 10 0 0 1 10 10v0a10 10 0 0 0 10 10"></path>
<path d="M1294.5 40h20"></path>
<g>
<path d="M1314.5 40h0"></path>
<path d="M1712 40h0"></path>
<path d="M1314.5 40h20"></path>
<g>
<path d="M1334.5 40h0"></path>
<path d="M1692 40h0"></path>
<g class="terminal ">
<path d="M1334.5 40h0"></path>
<path d="M1456.5 40h0"></path>
<rect x="1334.5" y="29" width="122" height="22" rx="10" ry="10"></rect>
<text x="1395.5" y="44">"EXCEPTIONS"</text>
</g>
<path d="M1456.5 40h10"></path>
<path d="M1466.5 40h10"></path>
<g class="non-terminal ">
<path d="M1476.5 40h0"></path>
<path d="M1692 40h0"></path>
<rect x="1476.5" y="29" width="215.5" height="22"></rect>
<a xlink:href="#/abap/expression/ParameterListExceptions"><text x="1584.25" y="44">ParameterListExceptions</text>
</a>
</g>
</g>
<path d="M1692 40h20"></path>
<path d="M1314.5 40a10 10 0 0 1 10 10v10a10 10 0 0 0 10 10"></path>
<g>
<path d="M1334.5 70h51"></path>
<path d="M1641 70h51"></path>
<g class="terminal ">
<path d="M1385.5 70h0"></path>
<path d="M1550 70h0"></path>
<rect x="1385.5" y="59" width="164.5" height="22" rx="10" ry="10"></rect>
<text x="1467.75" y="74">"EXCEPTION-TABLE"</text>
</g>
<path d="M1550 70h10"></path>
<path d="M1560 70h10"></path>
<g class="non-terminal ">
<path d="M1570 70h0"></path>
<path d="M1641 70h0"></path>
<rect x="1570" y="59" width="71" height="22"></rect>
<a xlink:href="#/abap/expression/Source"><text x="1605.5" y="74">Source</text>
</a>
</g>
</g>
<path d="M1692 70a10 10 0 0 0 10 -10v-10a10 10 0 0 1 10 -10"></path>
</g>
<path d="M1712 40h20"></path>
</g>
</g>
</g>
<path d="M1732 40h10"></path>
<path d="M 1742 40 h 20 m -10 -10 v 20 m 10 -20 v 20"></path>
</g>
</svg>
