<svg xmlns="http://www.w3.org/2000/svg" xmlns:xlink="http://www.w3.org/1999/xlink" class="railroad-diagram" width="1529.5" height="170" viewBox="0 0 1529.5 170">
<defs>
<style type="text/css"><![CDATA[
path {
stroke-width: 3;
stroke: black;
fill: rgba(0,0,0,0);
}
text {
font: bold 14px monospace;
text-anchor: middle;
}
text.diagram-text {
font-size: 12px;
}
a {
fill: blue;
}
text.diagram-arrow {
font-size: 16px;
}
text.label {
text-anchor: start;
}
text.comment {
font: italic 12px monospace;
}
rect {
stroke-width: 3;
stroke: black;
fill: #BCBCBC;
}
path.diagram-text {
stroke-width: 3;
stroke: black;
fill: #BCBCBC;
cursor: help;
}
]]></style>
</defs>
<g transform="translate(.5 .5)">
<g>
<path d="M20 30v20m10 -20v20m-10 -10h20"></path>
</g>
<path d="M40 40h10"></path>
<g>
<path d="M50 40h0"></path>
<path d="M1479.5 40h0"></path>
<g class="comment ">
<path d="M50 40h0"></path>
<path d="M193 40h0"></path>
<text x="121.5" y="45" class="comment">not langver=KeyUser</text>
</g>
<path d="M193 40h10"></path>
<path d="M203 40h10"></path>
<g>
<path d="M213 40h0"></path>
<path d="M1479.5 40h0"></path>
<g class="terminal ">
<path d="M213 40h0"></path>
<path d="M301 40h0"></path>
<rect x="213" y="29" width="88" height="22" rx="10" ry="10"></rect>
<text x="257" y="44">"MODIFY"</text>
</g>
<path d="M301 40h10"></path>
<path d="M311 40h10"></path>
<g class="non-terminal ">
<path d="M321 40h0"></path>
<path d="M451.5 40h0"></path>
<rect x="321" y="29" width="130.5" height="22"></rect>
<a xlink:href="#/abap/expression/DatabaseTable"><text x="386.25" y="44">DatabaseTable</text>
</a>
</g>
<path d="M451.5 40h10"></path>
<path d="M461.5 40h10"></path>
<g>
<path d="M471.5 40h0"></path>
<path d="M1299 40h0"></path>
<path d="M501.5 40h10"></path>
<g class="non-terminal ">
<path d="M511.5 40h292.25"></path>
<path d="M976.75 40h292.25"></path>
<rect x="803.75" y="29" width="173" height="22"></rect>
<a xlink:href="#/abap/expression/DatabaseConnection"><text x="890.25" y="44">DatabaseConnection</text>
</a>
</g>
<path d="M1269 40h10"></path>
<path d="M501.5 40v29a10 10 0 0 0 10 10"></path>
<g>
<path d="M511.5 79h0"></path>
<path d="M1269 79h0"></path>
<path d="M511.5 79h20"></path>
<g>
<path d="M531.5 79h0"></path>
<path d="M1249 79h0"></path>
<g class="terminal ">
<path d="M531.5 79h0"></path>
<path d="M602.5 79h0"></path>
<rect x="531.5" y="68" width="71" height="22" rx="10" ry="10"></rect>
<text x="567" y="83">"FROM"</text>
</g>
<path d="M602.5 79h10"></path>
<g>
<path d="M612.5 79h0"></path>
<path d="M732 79h0"></path>
<path d="M612.5 79a10 10 0 0 0 10 -10v0a10 10 0 0 1 10 -10"></path>
<g>
<path d="M632.5 59h79.5"></path>
</g>
<path d="M712 59a10 10 0 0 1 10 10v0a10 10 0 0 0 10 10"></path>
<path d="M612.5 79h20"></path>
<g class="terminal ">
<path d="M632.5 79h0"></path>
<path d="M712 79h0"></path>
<rect x="632.5" y="68" width="79.5" height="22" rx="10" ry="10"></rect>
<text x="672.25" y="83">"TABLE"</text>
</g>
<path d="M712 79h20"></path>
</g>
<path d="M732 79h10"></path>
<g class="non-terminal ">
<path d="M742 79h0"></path>
<path d="M838.5 79h0"></path>
<rect x="742" y="68" width="96.5" height="22"></rect>
<a xlink:href="#/abap/expression/SQLSource"><text x="790.25" y="83">SQLSource</text>
</a>
</g>
<path d="M838.5 79h10"></path>
<g>
<path d="M848.5 79h0"></path>
<path d="M1019 79h0"></path>
<path d="M848.5 79a10 10 0 0 0 10 -10v0a10 10 0 0 1 10 -10"></path>
<g>
<path d="M868.5 59h130.5"></path>
</g>
<path d="M999 59a10 10 0 0 1 10 10v0a10 10 0 0 0 10 10"></path>
<path d="M848.5 79h20"></path>
<g class="non-terminal ">
<path d="M868.5 79h0"></path>
<path d="M999 79h0"></path>
<rect x="868.5" y="68" width="130.5" height="22"></rect>
<a xlink:href="#/abap/expression/SQLIndicators"><text x="933.75" y="83">SQLIndicators</text>
</a>
</g>
<path d="M999 79h20"></path>
</g>
<g>
<path d="M1019 79h0"></path>
<path d="M1249 79h0"></path>
<path d="M1019 79a10 10 0 0 0 10 -10v0a10 10 0 0 1 10 -10"></path>
<g>
<path d="M1039 59h190"></path>
</g>
<path d="M1229 59a10 10 0 0 1 10 10v0a10 10 0 0 0 10 10"></path>
<path d="M1019 79h20"></path>
<g class="non-terminal ">
<path d="M1039 79h0"></path>
<path d="M1229 79h0"></path>
<rect x="1039" y="68" width="190" height="22"></rect>
<a xlink:href="#/abap/expression/SQLMappingFromEntity"><text x="1134" y="83">SQLMappingFromEntity</text>
</a>
</g>
<path d="M1229 79h20"></path>
</g>
</g>
<path d="M1249 79h20"></path>
<path d="M511.5 79a10 10 0 0 1 10 10v10a10 10 0 0 0 10 10"></path>
<g>
<path d="M531.5 109h114.5"></path>
<path d="M1134.5 109h114.5"></path>
<g class="terminal ">
<path d="M646 109h0"></path>
<path d="M717 109h0"></path>
<rect x="646" y="98" width="71" height="22" rx="10" ry="10"></rect>
<text x="681.5" y="113">"FROM"</text>
</g>
<path d="M717 109h10"></path>
<path d="M727 109h10"></path>
<g>
<path d="M737 109h0"></path>
<path d="M1134.5 109h0"></path>
<g class="terminal ">
<path d="M737 109h0"></path>
<path d="M876 109h0"></path>
<rect x="737" y="98" width="139" height="22" rx="10" ry="10"></rect>
<text x="806.5" y="113">!"WParenLeftW"</text>
</g>
<path d="M876 109h10"></path>
<path d="M886 109h10"></path>
<g class="non-terminal ">
<path d="M896 109h0"></path>
<path d="M967 109h0"></path>
<rect x="896" y="98" width="71" height="22"></rect>
<a xlink:href="#/abap/expression/Select"><text x="931.5" y="113">Select</text>
</a>
</g>
<path d="M967 109h10"></path>
<path d="M977 109h10"></path>
<g class="terminal ">
<path d="M987 109h0"></path>
<path d="M1134.5 109h0"></path>
<rect x="987" y="98" width="147.5" height="22" rx="10" ry="10"></rect>
<text x="1060.75" y="113">!"WParenRightW"</text>
</g>
</g>
</g>
<path d="M1249 109a10 10 0 0 0 10 -10v-10a10 10 0 0 1 10 -10"></path>
</g>
<path d="M1269 79a10 10 0 0 0 10 -10v-29"></path>
<path d="M501.5 40v89a10 10 0 0 0 10 10"></path>
<g class="non-terminal ">
<path d="M511.5 139h330.5"></path>
<path d="M938.5 139h330.5"></path>
<rect x="842" y="128" width="96.5" height="22"></rect>
<a xlink:href="#/abap/expression/SQLClient"><text x="890.25" y="143">SQLClient</text>
</a>
</g>
<path d="M1269 139a10 10 0 0 0 10 -10v-89"></path>
<g class="diagram-text">
<title>take one or more branches, once each, in any order</title>
<path d="M 501.5 30 h -26 a 4 4 0 0 0 -4 4 v 12 a 4 4 0 0 0 4 4 h 26 z" class="diagram-text"></path>
<text x="486.5" y="44" class="diagram-text">1+</text>
<path d="M 1279 30 h 16 a 4 4 0 0 1 4 4 v 12 a 4 4 0 0 1 -4 4 h -16 z" class="diagram-text"></path>
<path d="M 1286 38 a 4 4 0 1 0 6 -1 m 2.75 -1 h -4 v 4 m 0 -3 h 2" style="stroke-width: 1.75"></path>
</g>
</g>
<path d="M1299 40h10"></path>
<g>
<path d="M1309 40h0"></path>
<path d="M1479.5 40h0"></path>
<path d="M1309 40a10 10 0 0 0 10 -10v0a10 10 0 0 1 10 -10"></path>
<g>
<path d="M1329 20h130.5"></path>
</g>
<path d="M1459.5 20a10 10 0 0 1 10 10v0a10 10 0 0 0 10 10"></path>
<path d="M1309 40h20"></path>
<g class="non-terminal ">
<path d="M1329 40h0"></path>
<path d="M1459.5 40h0"></path>
<rect x="1329" y="29" width="130.5" height="22"></rect>
<a xlink:href="#/abap/expression/SQLDmlOptions"><text x="1394.25" y="44">SQLDmlOptions</text>
</a>
</g>
<path d="M1459.5 40h20"></path>
</g>
</g>
</g>
<path d="M1479.5 40h10"></path>
<path d="M 1489.5 40 h 20 m -10 -10 v 20 m 10 -20 v 20"></path>
</g>
</svg>
