<svg xmlns="http://www.w3.org/2000/svg" xmlns:xlink="http://www.w3.org/1999/xlink" class="railroad-diagram" width="1236" height="625" viewBox="0 0 1236 625">
<defs>
<style type="text/css"><![CDATA[
path {
stroke-width: 3;
stroke: black;
fill: rgba(0,0,0,0);
}
text {
font: bold 14px monospace;
text-anchor: middle;
}
text.diagram-text {
font-size: 12px;
}
a {
fill: blue;
}
text.diagram-arrow {
font-size: 16px;
}
text.label {
text-anchor: start;
}
text.comment {
font: italic 12px monospace;
}
rect {
stroke-width: 3;
stroke: black;
fill: #BCBCBC;
}
path.diagram-text {
stroke-width: 3;
stroke: black;
fill: #BCBCBC;
cursor: help;
}
]]></style>
</defs>
<g transform="translate(.5 .5)">
<g>
<path d="M20 30v20m10 -20v20m-10 -10h20"></path>
</g>
<path d="M40 40h10"></path>
<g>
<path d="M50 40h0"></path>
<path d="M1186 40h0"></path>
<g class="comment ">
<path d="M50 40h0"></path>
<path d="M123 40h0"></path>
<text x="86.5" y="45" class="comment">not Cloud</text>
</g>
<path d="M123 40h10"></path>
<path d="M133 40h10"></path>
<g>
<path d="M143 40h0"></path>
<path d="M1186 40h0"></path>
<g class="terminal ">
<path d="M143 40h0"></path>
<path d="M231 40h0"></path>
<rect x="143" y="29" width="88" height="22" rx="10" ry="10"></rect>
<text x="187" y="44">"MODIFY"</text>
</g>
<path d="M231 40h10"></path>
<g>
<path d="M241 40h0"></path>
<path d="M443 40h0"></path>
<path d="M241 40h20"></path>
<g class="terminal ">
<path d="M261 40h11.5"></path>
<path d="M411.5 40h11.5"></path>
<rect x="272.5" y="29" width="139" height="22" rx="10" ry="10"></rect>
<text x="342" y="44">"CURRENT LINE"</text>
</g>
<path d="M423 40h20"></path>
<path d="M241 40a10 10 0 0 1 10 10v10a10 10 0 0 0 10 10"></path>
<g>
<path d="M261 70h0"></path>
<path d="M423 70h0"></path>
<g class="terminal ">
<path d="M261 70h0"></path>
<path d="M332 70h0"></path>
<rect x="261" y="59" width="71" height="22" rx="10" ry="10"></rect>
<text x="296.5" y="74">"LINE"</text>
</g>
<path d="M332 70h10"></path>
<path d="M342 70h10"></path>
<g class="non-terminal ">
<path d="M352 70h0"></path>
<path d="M423 70h0"></path>
<rect x="352" y="59" width="71" height="22"></rect>
<a xlink:href="#/abap/expression/Source"><text x="387.5" y="74">Source</text>
</a>
</g>
</g>
<path d="M423 70a10 10 0 0 0 10 -10v-10a10 10 0 0 1 10 -10"></path>
</g>
<g>
<path d="M443 40h0"></path>
<path d="M1186 40h0"></path>
<path d="M443 40a10 10 0 0 0 10 -10v0a10 10 0 0 1 10 -10"></path>
<g>
<path d="M463 20h703"></path>
</g>
<path d="M1166 20a10 10 0 0 1 10 10v0a10 10 0 0 0 10 10"></path>
<path d="M443 40h20"></path>
<g>
<path d="M463 40h0"></path>
<path d="M1166 40h0"></path>
<path d="M493 40h10"></path>
<g>
<path d="M503 40h231.25"></path>
<path d="M904.75 40h231.25"></path>
<g class="terminal ">
<path d="M734.25 40h0"></path>
<path d="M813.75 40h0"></path>
<rect x="734.25" y="29" width="79.5" height="22" rx="10" ry="10"></rect>
<text x="774" y="44">"INDEX"</text>
</g>
<path d="M813.75 40h10"></path>
<path d="M823.75 40h10"></path>
<g class="non-terminal ">
<path d="M833.75 40h0"></path>
<path d="M904.75 40h0"></path>
<rect x="833.75" y="29" width="71" height="22"></rect>
<a xlink:href="#/abap/expression/Source"><text x="869.25" y="44">Source</text>
</a>
</g>
</g>
<path d="M1136 40h10"></path>
<path d="M493 40v29a10 10 0 0 0 10 10"></path>
<g>
<path d="M503 79h89.75"></path>
<path d="M1046.25 79h89.75"></path>
<g class="terminal ">
<path d="M592.75 79h0"></path>
<path d="M723.25 79h0"></path>
<rect x="592.75" y="68" width="130.5" height="22" rx="10" ry="10"></rect>
<text x="658" y="83">"FIELD VALUE"</text>
</g>
<path d="M723.25 79h10"></path>
<path d="M733.25 79h10"></path>
<g>
<path d="M743.25 79h0"></path>
<path d="M1046.25 79h0"></path>
<path d="M743.25 79h10"></path>
<g>
<path d="M753.25 79h0"></path>
<path d="M1036.25 79h0"></path>
<g class="non-terminal ">
<path d="M753.25 79h0"></path>
<path d="M824.25 79h0"></path>
<rect x="753.25" y="68" width="71" height="22"></rect>
<a xlink:href="#/abap/expression/Source"><text x="788.75" y="83">Source</text>
</a>
</g>
<path d="M824.25 79h10"></path>
<g>
<path d="M834.25 79h0"></path>
<path d="M1036.25 79h0"></path>
<path d="M834.25 79a10 10 0 0 0 10 -10v0a10 10 0 0 1 10 -10"></path>
<g>
<path d="M854.25 59h162"></path>
</g>
<path d="M1016.25 59a10 10 0 0 1 10 10v0a10 10 0 0 0 10 10"></path>
<path d="M834.25 79h20"></path>
<g>
<path d="M854.25 79h0"></path>
<path d="M1016.25 79h0"></path>
<g class="terminal ">
<path d="M854.25 79h0"></path>
<path d="M925.25 79h0"></path>
<rect x="854.25" y="68" width="71" height="22" rx="10" ry="10"></rect>
<text x="889.75" y="83">"FROM"</text>
</g>
<path d="M925.25 79h10"></path>
<path d="M935.25 79h10"></path>
<g class="non-terminal ">
<path d="M945.25 79h0"></path>
<path d="M1016.25 79h0"></path>
<rect x="945.25" y="68" width="71" height="22"></rect>
<a xlink:href="#/abap/expression/Source"><text x="980.75" y="83">Source</text>
</a>
</g>
</g>
<path d="M1016.25 79h20"></path>
</g>
</g>
<path d="M1036.25 79h10"></path>
<path d="M753.25 79a10 10 0 0 0 -10 10v0a10 10 0 0 0 10 10"></path>
<g>
<path d="M753.25 99h283"></path>
</g>
<path d="M1036.25 99a10 10 0 0 0 10 -10v0a10 10 0 0 0 -10 -10"></path>
</g>
</g>
<path d="M1136 79a10 10 0 0 0 10 -10v-29"></path>
<path d="M493 40v85a10 10 0 0 0 10 10"></path>
<g>
<path d="M503 135h0"></path>
<path d="M1136 135h0"></path>
<g class="terminal ">
<path d="M503 135h0"></path>
<path d="M642 135h0"></path>
<rect x="503" y="124" width="139" height="22" rx="10" ry="10"></rect>
<text x="572.5" y="139">"FIELD FORMAT"</text>
</g>
<path d="M642 135h10"></path>
<path d="M652 135h10"></path>
<g class="non-terminal ">
<path d="M662 135h0"></path>
<path d="M733 135h0"></path>
<rect x="662" y="124" width="71" height="22"></rect>
<a xlink:href="#/abap/expression/Source"><text x="697.5" y="139">Source</text>
</a>
</g>
<path d="M733 135h10"></path>
<g>
<path d="M743 135h0"></path>
<path d="M1136 135h0"></path>
<path d="M743 135a10 10 0 0 0 10 -10v-8a10 10 0 0 1 10 -10"></path>
<g>
<path d="M763 107h353"></path>
</g>
<path d="M1116 107a10 10 0 0 1 10 10v8a10 10 0 0 0 10 10"></path>
<path d="M743 135h20"></path>
<g>
<path d="M763 135h0"></path>
<path d="M1116 135h0"></path>
<g>
<path d="M763 135h0"></path>
<path d="M899.5 135h0"></path>
<path d="M763 135h20"></path>
<g class="terminal ">
<path d="M783 135h0"></path>
<path d="M879.5 135h0"></path>
<rect x="783" y="124" width="96.5" height="22" rx="10" ry="10"></rect>
<text x="831.25" y="139">"INVERSE"</text>
</g>
<path d="M879.5 135h20"></path>
<path d="M763 135a10 10 0 0 1 10 10v10a10 10 0 0 0 10 10"></path>
<g class="terminal ">
<path d="M783 165h8.5"></path>
<path d="M871 165h8.5"></path>
<rect x="791.5" y="154" width="79.5" height="22" rx="10" ry="10"></rect>
<text x="831.25" y="169">"INPUT"</text>
</g>
<path d="M879.5 165a10 10 0 0 0 10 -10v-10a10 10 0 0 1 10 -10"></path>
<path d="M763 135a10 10 0 0 1 10 10v40a10 10 0 0 0 10 10"></path>
<g class="terminal ">
<path d="M783 195h8.5"></path>
<path d="M871 195h8.5"></path>
<rect x="791.5" y="184" width="79.5" height="22" rx="10" ry="10"></rect>
<text x="831.25" y="199">"COLOR"</text>
</g>
<path d="M879.5 195a10 10 0 0 0 10 -10v-40a10 10 0 0 1 10 -10"></path>
<path d="M763 135a10 10 0 0 1 10 10v70a10 10 0 0 0 10 10"></path>
<g class="terminal ">
<path d="M783 225h0"></path>
<path d="M879.5 225h0"></path>
<rect x="783" y="214" width="96.5" height="22" rx="10" ry="10"></rect>
<text x="831.25" y="229">"HOTSPOT"</text>
</g>
<path d="M879.5 225a10 10 0 0 0 10 -10v-70a10 10 0 0 1 10 -10"></path>
</g>
<g>
<path d="M899.5 135h0"></path>
<path d="M1116 135h0"></path>
<path d="M899.5 135a10 10 0 0 0 10 -10v0a10 10 0 0 1 10 -10"></path>
<g>
<path d="M919.5 115h176.5"></path>
</g>
<path d="M1096 115a10 10 0 0 1 10 10v0a10 10 0 0 0 10 10"></path>
<path d="M899.5 135h20"></path>
<g>
<path d="M919.5 135h0"></path>
<path d="M1096 135h0"></path>
<path d="M919.5 135h20"></path>
<g>
<path d="M939.5 135h0"></path>
<path d="M1076 135h0"></path>
<g class="terminal ">
<path d="M939.5 135h0"></path>
<path d="M985 135h0"></path>
<rect x="939.5" y="124" width="45.5" height="22" rx="10" ry="10"></rect>
<text x="962.25" y="139">"="</text>
</g>
<path d="M985 135h10"></path>
<path d="M995 135h10"></path>
<g class="non-terminal ">
<path d="M1005 135h0"></path>
<path d="M1076 135h0"></path>
<rect x="1005" y="124" width="71" height="22"></rect>
<a xlink:href="#/abap/expression/Source"><text x="1040.5" y="139">Source</text>
</a>
</g>
</g>
<path d="M1076 135h20"></path>
<path d="M919.5 135a10 10 0 0 1 10 10v10a10 10 0 0 0 10 10"></path>
<g>
<path d="M939.5 165h17"></path>
<path d="M1059 165h17"></path>
<path d="M956.5 165h20"></path>
<g class="terminal ">
<path d="M976.5 165h4.25"></path>
<path d="M1034.75 165h4.25"></path>
<rect x="980.75" y="154" width="54" height="22" rx="10" ry="10"></rect>
<text x="1007.75" y="169">"ON"</text>
</g>
<path d="M1039 165h20"></path>
<path d="M956.5 165a10 10 0 0 1 10 10v10a10 10 0 0 0 10 10"></path>
<g class="terminal ">
<path d="M976.5 195h0"></path>
<path d="M1039 195h0"></path>
<rect x="976.5" y="184" width="62.5" height="22" rx="10" ry="10"></rect>
<text x="1007.75" y="199">"OFF"</text>
</g>
<path d="M1039 195a10 10 0 0 0 10 -10v-10a10 10 0 0 1 10 -10"></path>
</g>
<path d="M1076 165a10 10 0 0 0 10 -10v-10a10 10 0 0 1 10 -10"></path>
</g>
<path d="M1096 135h20"></path>
</g>
</g>
<path d="M1116 135h20"></path>
</g>
</g>
<path d="M1136 135a10 10 0 0 0 10 -10v-85"></path>
<path d="M493 40v205a10 10 0 0 0 10 10"></path>
<g>
<path d="M503 255h222.75"></path>
<path d="M913.25 255h222.75"></path>
<g class="terminal ">
<path d="M725.75 255h0"></path>
<path d="M822.25 255h0"></path>
<rect x="725.75" y="244" width="96.5" height="22" rx="10" ry="10"></rect>
<text x="774" y="259">"OF PAGE"</text>
</g>
<path d="M822.25 255h10"></path>
<path d="M832.25 255h10"></path>
<g class="non-terminal ">
<path d="M842.25 255h0"></path>
<path d="M913.25 255h0"></path>
<rect x="842.25" y="244" width="71" height="22"></rect>
<a xlink:href="#/abap/expression/Source"><text x="877.75" y="259">Source</text>
</a>
</g>
</g>
<path d="M1136 255a10 10 0 0 0 10 -10v-205"></path>
<path d="M493 40v235a10 10 0 0 0 10 10"></path>
<g>
<path d="M503 285h64.75"></path>
<path d="M1071.25 285h64.75"></path>
<g class="terminal ">
<path d="M567.75 285h0"></path>
<path d="M698.25 285h0"></path>
<rect x="567.75" y="274" width="130.5" height="22" rx="10" ry="10"></rect>
<text x="633" y="289">"LINE FORMAT"</text>
</g>
<path d="M698.25 285h10"></path>
<path d="M708.25 285h10"></path>
<g>
<path d="M718.25 285h0"></path>
<path d="M1071.25 285h0"></path>
<path d="M748.25 285h10"></path>
<g class="terminal ">
<path d="M758.25 285h84.75"></path>
<path d="M956.5 285h84.75"></path>
<rect x="843" y="274" width="113.5" height="22" rx="10" ry="10"></rect>
<text x="899.75" y="289">"INPUT OFF"</text>
</g>
<path d="M1041.25 285h10"></path>
<path d="M748.25 285v20a10 10 0 0 0 10 10"></path>
<g class="terminal ">
<path d="M758.25 315h93.25"></path>
<path d="M948 315h93.25"></path>
<rect x="851.5" y="304" width="96.5" height="22" rx="10" ry="10"></rect>
<text x="899.75" y="319">"INVERSE"</text>
</g>
<path d="M1041.25 315a10 10 0 0 0 10 -10v-20"></path>
<path d="M748.25 285v50a10 10 0 0 0 10 10"></path>
<g class="terminal ">
<path d="M758.25 345h101.75"></path>
<path d="M939.5 345h101.75"></path>
<rect x="860" y="334" width="79.5" height="22" rx="10" ry="10"></rect>
<text x="899.75" y="349">"RESET"</text>
</g>
<path d="M1041.25 345a10 10 0 0 0 10 -10v-50"></path>
<path d="M748.25 285v89a10 10 0 0 0 10 10"></path>
<g>
<path d="M758.25 384h0"></path>
<path d="M1041.25 384h0"></path>
<g class="terminal ">
<path d="M758.25 384h0"></path>
<path d="M888.75 384h0"></path>
<rect x="758.25" y="373" width="130.5" height="22" rx="10" ry="10"></rect>
<text x="823.5" y="388">"INTENSIFIED"</text>
</g>
<path d="M888.75 384h10"></path>
<g>
<path d="M898.75 384h0"></path>
<path d="M1041.25 384h0"></path>
<path d="M898.75 384a10 10 0 0 0 10 -10v0a10 10 0 0 1 10 -10"></path>
<g>
<path d="M918.75 364h102.5"></path>
</g>
<path d="M1021.25 364a10 10 0 0 1 10 10v0a10 10 0 0 0 10 10"></path>
<path d="M898.75 384h20"></path>
<g>
<path d="M918.75 384h0"></path>
<path d="M1021.25 384h0"></path>
<path d="M918.75 384h20"></path>
<g class="terminal ">
<path d="M938.75 384h4.25"></path>
<path d="M997 384h4.25"></path>
<rect x="943" y="373" width="54" height="22" rx="10" ry="10"></rect>
<text x="970" y="388">"ON"</text>
</g>
<path d="M1001.25 384h20"></path>
<path d="M918.75 384a10 10 0 0 1 10 10v10a10 10 0 0 0 10 10"></path>
<g class="terminal ">
<path d="M938.75 414h0"></path>
<path d="M1001.25 414h0"></path>
<rect x="938.75" y="403" width="62.5" height="22" rx="10" ry="10"></rect>
<text x="970" y="418">"OFF"</text>
</g>
<path d="M1001.25 414a10 10 0 0 0 10 -10v-10a10 10 0 0 1 10 -10"></path>
</g>
<path d="M1021.25 384h20"></path>
</g>
</g>
<path d="M1041.25 384a10 10 0 0 0 10 -10v-89"></path>
<path d="M748.25 285v149a10 10 0 0 0 10 10"></path>
<g class="non-terminal ">
<path d="M758.25 444h110.25"></path>
<path d="M931 444h110.25"></path>
<rect x="868.5" y="433" width="62.5" height="22"></rect>
<a xlink:href="#/abap/expression/Color"><text x="899.75" y="448">Color</text>
</a>
</g>
<path d="M1041.25 444a10 10 0 0 0 10 -10v-149"></path>
<g class="diagram-text">
<title>take one or more branches, once each, in any order</title>
<path d="M 748.25 275 h -26 a 4 4 0 0 0 -4 4 v 12 a 4 4 0 0 0 4 4 h 26 z" class="diagram-text"></path>
<text x="733.25" y="289" class="diagram-text">1+</text>
<path d="M 1051.25 275 h 16 a 4 4 0 0 1 4 4 v 12 a 4 4 0 0 1 -4 4 h -16 z" class="diagram-text"></path>
<path d="M 1058.25 283 a 4 4 0 1 0 6 -1 m 2.75 -1 h -4 v 4 m 0 -3 h 2" style="stroke-width: 1.75"></path>
</g>
</g>
</g>
<path d="M1136 285a10 10 0 0 0 10 -10v-235"></path>
<path d="M493 40v424a10 10 0 0 0 10 10"></path>
<g>
<path d="M503 474h188.75"></path>
<path d="M947.25 474h188.75"></path>
<g class="terminal ">
<path d="M691.75 474h0"></path>
<path d="M856.25 474h0"></path>
<rect x="691.75" y="463" width="164.5" height="22" rx="10" ry="10"></rect>
<text x="774" y="478">"LINE VALUE FROM"</text>
</g>
<path d="M856.25 474h10"></path>
<path d="M866.25 474h10"></path>
<g class="non-terminal ">
<path d="M876.25 474h0"></path>
<path d="M947.25 474h0"></path>
<rect x="876.25" y="463" width="71" height="22"></rect>
<a xlink:href="#/abap/expression/Source"><text x="911.75" y="478">Source</text>
</a>
</g>
</g>
<path d="M1136 474a10 10 0 0 0 10 -10v-424"></path>
<path d="M493 40v454a10 10 0 0 0 10 10"></path>
<g class="terminal ">
<path d="M503 504h234.25"></path>
<path d="M901.75 504h234.25"></path>
<rect x="737.25" y="493" width="164.5" height="22" rx="10" ry="10"></rect>
<text x="819.5" y="508">"OF CURRENT PAGE"</text>
</g>
<path d="M1136 504a10 10 0 0 0 10 -10v-454"></path>
<path d="M493 40v484a10 10 0 0 0 10 10"></path>
<g>
<path d="M503 534h195"></path>
<path d="M941 534h195"></path>
<g class="terminal ">
<path d="M698 534h0"></path>
<path d="M828.5 534h0"></path>
<rect x="698" y="523" width="130.5" height="22" rx="10" ry="10"></rect>
<text x="763.25" y="538">"INTENSIFIED"</text>
</g>
<path d="M828.5 534h10"></path>
<g>
<path d="M838.5 534h0"></path>
<path d="M941 534h0"></path>
<path d="M838.5 534h20"></path>
<g class="terminal ">
<path d="M858.5 534h4.25"></path>
<path d="M916.75 534h4.25"></path>
<rect x="862.75" y="523" width="54" height="22" rx="10" ry="10"></rect>
<text x="889.75" y="538">"ON"</text>
</g>
<path d="M921 534h20"></path>
<path d="M838.5 534a10 10 0 0 1 10 10v10a10 10 0 0 0 10 10"></path>
<g class="terminal ">
<path d="M858.5 564h0"></path>
<path d="M921 564h0"></path>
<rect x="858.5" y="553" width="62.5" height="22" rx="10" ry="10"></rect>
<text x="889.75" y="568">"OFF"</text>
</g>
<path d="M921 564a10 10 0 0 0 10 -10v-10a10 10 0 0 1 10 -10"></path>
</g>
</g>
<path d="M1136 534a10 10 0 0 0 10 -10v-484"></path>
<path d="M493 40v544a10 10 0 0 0 10 10"></path>
<g class="non-terminal ">
<path d="M503 594h285.25"></path>
<path d="M850.75 594h285.25"></path>
<rect x="788.25" y="583" width="62.5" height="22"></rect>
<a xlink:href="#/abap/expression/Color"><text x="819.5" y="598">Color</text>
</a>
</g>
<path d="M1136 594a10 10 0 0 0 10 -10v-544"></path>
<g class="diagram-text">
<title>take one or more branches, once each, in any order</title>
<path d="M 493 30 h -26 a 4 4 0 0 0 -4 4 v 12 a 4 4 0 0 0 4 4 h 26 z" class="diagram-text"></path>
<text x="478" y="44" class="diagram-text">1+</text>
<path d="M 1146 30 h 16 a 4 4 0 0 1 4 4 v 12 a 4 4 0 0 1 -4 4 h -16 z" class="diagram-text"></path>
<path d="M 1153 38 a 4 4 0 1 0 6 -1 m 2.75 -1 h -4 v 4 m 0 -3 h 2" style="stroke-width: 1.75"></path>
</g>
</g>
<path d="M1166 40h20"></path>
</g>
</g>
</g>
<path d="M1186 40h10"></path>
<path d="M 1196 40 h 20 m -10 -10 v 20 m 10 -20 v 20"></path>
</g>
</svg>
