<svg xmlns="http://www.w3.org/2000/svg" xmlns:xlink="http://www.w3.org/1999/xlink" class="railroad-diagram" width="1213.5" height="80" viewBox="0 0 1213.5 80">
<defs>
<style type="text/css"><![CDATA[
path {
stroke-width: 3;
stroke: black;
fill: rgba(0,0,0,0);
}
text {
font: bold 14px monospace;
text-anchor: middle;
}
text.diagram-text {
font-size: 12px;
}
a {
fill: blue;
}
text.diagram-arrow {
font-size: 16px;
}
text.label {
text-anchor: start;
}
text.comment {
font: italic 12px monospace;
}
rect {
stroke-width: 3;
stroke: black;
fill: #BCBCBC;
}
path.diagram-text {
stroke-width: 3;
stroke: black;
fill: #BCBCBC;
cursor: help;
}
]]></style>
</defs>
<g transform="translate(.5 .5)">
<g>
<path d="M20 30v20m10 -20v20m-10 -10h20"></path>
</g>
<path d="M40 40h10"></path>
<g>
<path d="M50 40h0"></path>
<path d="M1163.5 40h0"></path>
<g>
<path d="M50 40h0"></path>
<path d="M123 40h0"></path>
<text x="86.5" y="45" class="comment">not Cloud</text>
</g>
<path d="M123 40h10"></path>
<path d="M133 40h10"></path>
<g>
<path d="M143 40h0"></path>
<path d="M1163.5 40h0"></path>
<g class="terminal">
<path d="M143 40h0"></path>
<path d="M341.5 40h0"></path>
<rect x="143" y="29" width="198.5" height="22" rx="10" ry="10"></rect>
<text x="242.25" y="44">"ENHANCEMENT-SECTION"</text>
</g>
<path d="M341.5 40h10"></path>
<path d="M351.5 40h10"></path>
<g>
<path d="M361.5 40h0"></path>
<path d="M656 40h0"></path>
<g class="non-terminal">
<path d="M361.5 40h0"></path>
<path d="M424 40h0"></path>
<rect x="361.5" y="29" width="62.5" height="22"></rect>
<a xlink:href="#/abap/expression/Field"><text x="392.75" y="44">Field</text>
</a>
</g>
<path d="M424 40h10"></path>
<g>
<path d="M434 40h0"></path>
<path d="M656 40h0"></path>
<path d="M434 40a10 10 0 0 0 10 -10v0a10 10 0 0 1 10 -10"></path>
<g>
<path d="M454 20h182"></path>
</g>
<path d="M636 20a10 10 0 0 1 10 10v0a10 10 0 0 0 10 10"></path>
<path d="M434 40h20"></path>
<g>
<path d="M454 40h0"></path>
<path d="M636 40h0"></path>
<path d="M454 40h10"></path>
<g>
<path d="M464 40h0"></path>
<path d="M626 40h0"></path>
<g class="terminal">
<path d="M464 40h0"></path>
<path d="M543.5 40h0"></path>
<rect x="464" y="29" width="79.5" height="22" rx="10" ry="10"></rect>
<text x="503.75" y="44">!"Dash"</text>
</g>
<path d="M543.5 40h10"></path>
<path d="M553.5 40h10"></path>
<g class="non-terminal">
<path d="M563.5 40h0"></path>
<path d="M626 40h0"></path>
<rect x="563.5" y="29" width="62.5" height="22"></rect>
<a xlink:href="#/abap/expression/Field"><text x="594.75" y="44">Field</text>
</a>
</g>
</g>
<path d="M626 40h10"></path>
<path d="M464 40a10 10 0 0 0 -10 10v0a10 10 0 0 0 10 10"></path>
<g>
<path d="M464 60h162"></path>
</g>
<path d="M626 60a10 10 0 0 0 10 -10v0a10 10 0 0 0 -10 -10"></path>
</g>
<path d="M636 40h20"></path>
</g>
</g>
<path d="M656 40h10"></path>
<path d="M666 40h10"></path>
<g class="terminal">
<path d="M676 40h0"></path>
<path d="M755.5 40h0"></path>
<rect x="676" y="29" width="79.5" height="22" rx="10" ry="10"></rect>
<text x="715.75" y="44">"SPOTS"</text>
</g>
<path d="M755.5 40h10"></path>
<path d="M765.5 40h10"></path>
<g class="non-terminal">
<path d="M775.5 40h0"></path>
<path d="M838 40h0"></path>
<rect x="775.5" y="29" width="62.5" height="22"></rect>
<a xlink:href="#/abap/expression/Field"><text x="806.75" y="44">Field</text>
</a>
</g>
<path d="M838 40h10"></path>
<g>
<path d="M848 40h0"></path>
<path d="M976 40h0"></path>
<path d="M848 40a10 10 0 0 0 10 -10v0a10 10 0 0 1 10 -10"></path>
<g>
<path d="M868 20h88"></path>
</g>
<path d="M956 20a10 10 0 0 1 10 10v0a10 10 0 0 0 10 10"></path>
<path d="M848 40h20"></path>
<g class="terminal">
<path d="M868 40h0"></path>
<path d="M956 40h0"></path>
<rect x="868" y="29" width="88" height="22" rx="10" ry="10"></rect>
<text x="912" y="44">"STATIC"</text>
</g>
<path d="M956 40h20"></path>
</g>
<g>
<path d="M976 40h0"></path>
<path d="M1163.5 40h0"></path>
<path d="M976 40a10 10 0 0 0 10 -10v0a10 10 0 0 1 10 -10"></path>
<g>
<path d="M996 20h147.5"></path>
</g>
<path d="M1143.5 20a10 10 0 0 1 10 10v0a10 10 0 0 0 10 10"></path>
<path d="M976 40h20"></path>
<g class="terminal">
<path d="M996 40h0"></path>
<path d="M1143.5 40h0"></path>
<rect x="996" y="29" width="147.5" height="22" rx="10" ry="10"></rect>
<text x="1069.75" y="44">"INCLUDE BOUND"</text>
</g>
<path d="M1143.5 40h20"></path>
</g>
</g>
</g>
<path d="M1163.5 40h10"></path>
<path d="M 1173.5 40 h 20 m -10 -10 v 20 m 10 -20 v 20"></path>
</g>
</svg>
