<svg xmlns="http://www.w3.org/2000/svg" xmlns:xlink="http://www.w3.org/1999/xlink" class="railroad-diagram" width="1057.5" height="80" viewBox="0 0 1057.5 80">
<defs>
<style type="text/css"><![CDATA[
path {
stroke-width: 3;
stroke: black;
fill: rgba(0,0,0,0);
}
text {
font: bold 14px monospace;
text-anchor: middle;
}
text.diagram-text {
font-size: 12px;
}
a {
fill: blue;
}
text.diagram-arrow {
font-size: 16px;
}
text.label {
text-anchor: start;
}
text.comment {
font: italic 12px monospace;
}
rect {
stroke-width: 3;
stroke: black;
fill: #BCBCBC;
}
path.diagram-text {
stroke-width: 3;
stroke: black;
fill: #BCBCBC;
cursor: help;
}
]]></style>
</defs>
<g transform="translate(.5 .5)">
<g>
<path d="M20 30v20m10 -20v20m-10 -10h20"></path>
</g>
<path d="M40 40h10"></path>
<g>
<path d="M50 40h0"></path>
<path d="M1007.5 40h0"></path>
<g class="comment ">
<path d="M50 40h0"></path>
<path d="M179 40h0"></path>
<text x="114.5" y="45" class="comment">not langver=Cloud</text>
</g>
<path d="M179 40h10"></path>
<path d="M189 40h10"></path>
<g>
<path d="M199 40h0"></path>
<path d="M1007.5 40h0"></path>
<g class="terminal ">
<path d="M199 40h0"></path>
<path d="M338 40h0"></path>
<rect x="199" y="29" width="139" height="22" rx="10" ry="10"></rect>
<text x="268.5" y="44">"LOG-POINT ID"</text>
</g>
<path d="M338 40h10"></path>
<path d="M348 40h10"></path>
<g class="non-terminal ">
<path d="M358 40h0"></path>
<path d="M539.5 40h0"></path>
<rect x="358" y="29" width="181.5" height="22"></rect>
<a xlink:href="#/abap/expression/NamespaceSimpleName"><text x="448.75" y="44">NamespaceSimpleName</text>
</a>
</g>
<path d="M539.5 40h10"></path>
<g>
<path d="M549.5 40h0"></path>
<path d="M768.5 40h0"></path>
<path d="M549.5 40a10 10 0 0 0 10 -10v0a10 10 0 0 1 10 -10"></path>
<g>
<path d="M569.5 20h179"></path>
</g>
<path d="M748.5 20a10 10 0 0 1 10 10v0a10 10 0 0 0 10 10"></path>
<path d="M549.5 40h20"></path>
<g>
<path d="M569.5 40h0"></path>
<path d="M748.5 40h0"></path>
<g class="terminal ">
<path d="M569.5 40h0"></path>
<path d="M657.5 40h0"></path>
<rect x="569.5" y="29" width="88" height="22" rx="10" ry="10"></rect>
<text x="613.5" y="44">"SUBKEY"</text>
</g>
<path d="M657.5 40h10"></path>
<path d="M667.5 40h10"></path>
<g class="non-terminal ">
<path d="M677.5 40h0"></path>
<path d="M748.5 40h0"></path>
<rect x="677.5" y="29" width="71" height="22"></rect>
<a xlink:href="#/abap/expression/Source"><text x="713" y="44">Source</text>
</a>
</g>
</g>
<path d="M748.5 40h20"></path>
</g>
<g>
<path d="M768.5 40h0"></path>
<path d="M1007.5 40h0"></path>
<path d="M768.5 40a10 10 0 0 0 10 -10v0a10 10 0 0 1 10 -10"></path>
<g>
<path d="M788.5 20h199"></path>
</g>
<path d="M987.5 20a10 10 0 0 1 10 10v0a10 10 0 0 0 10 10"></path>
<path d="M768.5 40h20"></path>
<g>
<path d="M788.5 40h0"></path>
<path d="M987.5 40h0"></path>
<g class="terminal ">
<path d="M788.5 40h0"></path>
<path d="M876.5 40h0"></path>
<rect x="788.5" y="29" width="88" height="22" rx="10" ry="10"></rect>
<text x="832.5" y="44">"FIELDS"</text>
</g>
<path d="M876.5 40h10"></path>
<path d="M886.5 40h10"></path>
<g>
<path d="M896.5 40h0"></path>
<path d="M987.5 40h0"></path>
<path d="M896.5 40h10"></path>
<g class="non-terminal ">
<path d="M906.5 40h0"></path>
<path d="M977.5 40h0"></path>
<rect x="906.5" y="29" width="71" height="22"></rect>
<a xlink:href="#/abap/expression/Source"><text x="942" y="44">Source</text>
</a>
</g>
<path d="M977.5 40h10"></path>
<path d="M906.5 40a10 10 0 0 0 -10 10v0a10 10 0 0 0 10 10"></path>
<g>
<path d="M906.5 60h71"></path>
</g>
<path d="M977.5 60a10 10 0 0 0 10 -10v0a10 10 0 0 0 -10 -10"></path>
</g>
</g>
<path d="M987.5 40h20"></path>
</g>
</g>
</g>
<path d="M1007.5 40h10"></path>
<path d="M 1017.5 40 h 20 m -10 -10 v 20 m 10 -20 v 20"></path>
</g>
</svg>
