<svg xmlns="http://www.w3.org/2000/svg" xmlns:xlink="http://www.w3.org/1999/xlink" class="railroad-diagram" width="1593" height="79" viewBox="0 0 1593 79">
<defs>
<style type="text/css"><![CDATA[
path {
stroke-width: 3;
stroke: black;
fill: rgba(0,0,0,0);
}
text {
font: bold 14px monospace;
text-anchor: middle;
}
text.diagram-text {
font-size: 12px;
}
a {
fill: blue;
}
text.diagram-arrow {
font-size: 16px;
}
text.label {
text-anchor: start;
}
text.comment {
font: italic 12px monospace;
}
rect {
stroke-width: 3;
stroke: black;
fill: #BCBCBC;
}
path.diagram-text {
stroke-width: 3;
stroke: black;
fill: #BCBCBC;
cursor: help;
}
]]></style>
</defs>
<g transform="translate(.5 .5)">
<g>
<path d="M20 38v20m10 -20v20m-10 -10h20"></path>
</g>
<path d="M40 48h10"></path>
<g>
<path d="M50 48h0"></path>
<path d="M1543 48h0"></path>
<g class="comment ">
<path d="M50 48h0"></path>
<path d="M179 48h0"></path>
<text x="114.5" y="53" class="comment">not langver=Cloud</text>
</g>
<path d="M179 48h10"></path>
<path d="M189 48h10"></path>
<g>
<path d="M199 48h0"></path>
<path d="M1543 48h0"></path>
<g class="terminal ">
<path d="M199 48h0"></path>
<path d="M414.5 48h0"></path>
<rect x="199" y="37" width="215.5" height="22" rx="10" ry="10"></rect>
<text x="306.75" y="52">"CALL SELECTION-SCREEN"</text>
</g>
<path d="M414.5 48h10"></path>
<path d="M424.5 48h10"></path>
<g class="non-terminal ">
<path d="M434.5 48h0"></path>
<path d="M505.5 48h0"></path>
<rect x="434.5" y="37" width="71" height="22"></rect>
<a xlink:href="#/abap/expression/Source"><text x="470" y="52">Source</text>
</a>
</g>
<path d="M505.5 48h10"></path>
<g>
<path d="M515.5 48h0"></path>
<path d="M1213.5 48h0"></path>
<path d="M515.5 48a10 10 0 0 0 10 -10v-8a10 10 0 0 1 10 -10"></path>
<g>
<path d="M535.5 20h658"></path>
</g>
<path d="M1193.5 20a10 10 0 0 1 10 10v8a10 10 0 0 0 10 10"></path>
<path d="M515.5 48h20"></path>
<g>
<path d="M535.5 48h0"></path>
<path d="M1193.5 48h0"></path>
<g>
<path d="M535.5 48h0"></path>
<path d="M848 48h0"></path>
<g class="terminal ">
<path d="M535.5 48h0"></path>
<path d="M666 48h0"></path>
<rect x="535.5" y="37" width="130.5" height="22" rx="10" ry="10"></rect>
<text x="600.75" y="52">"STARTING AT"</text>
</g>
<path d="M666 48h10"></path>
<path d="M676 48h10"></path>
<g class="non-terminal ">
<path d="M686 48h0"></path>
<path d="M757 48h0"></path>
<rect x="686" y="37" width="71" height="22"></rect>
<a xlink:href="#/abap/expression/Source"><text x="721.5" y="52">Source</text>
</a>
</g>
<path d="M757 48h10"></path>
<path d="M767 48h10"></path>
<g class="non-terminal ">
<path d="M777 48h0"></path>
<path d="M848 48h0"></path>
<rect x="777" y="37" width="71" height="22"></rect>
<a xlink:href="#/abap/expression/Source"><text x="812.5" y="52">Source</text>
</a>
</g>
</g>
<path d="M848 48h10"></path>
<g>
<path d="M858 48h0"></path>
<path d="M1193.5 48h0"></path>
<path d="M858 48a10 10 0 0 0 10 -10v0a10 10 0 0 1 10 -10"></path>
<g>
<path d="M878 28h295.5"></path>
</g>
<path d="M1173.5 28a10 10 0 0 1 10 10v0a10 10 0 0 0 10 10"></path>
<path d="M858 48h20"></path>
<g>
<path d="M878 48h0"></path>
<path d="M1173.5 48h0"></path>
<g class="terminal ">
<path d="M878 48h0"></path>
<path d="M991.5 48h0"></path>
<rect x="878" y="37" width="113.5" height="22" rx="10" ry="10"></rect>
<text x="934.75" y="52">"ENDING AT"</text>
</g>
<path d="M991.5 48h10"></path>
<path d="M1001.5 48h10"></path>
<g class="non-terminal ">
<path d="M1011.5 48h0"></path>
<path d="M1082.5 48h0"></path>
<rect x="1011.5" y="37" width="71" height="22"></rect>
<a xlink:href="#/abap/expression/Source"><text x="1047" y="52">Source</text>
</a>
</g>
<path d="M1082.5 48h10"></path>
<path d="M1092.5 48h10"></path>
<g class="non-terminal ">
<path d="M1102.5 48h0"></path>
<path d="M1173.5 48h0"></path>
<rect x="1102.5" y="37" width="71" height="22"></rect>
<a xlink:href="#/abap/expression/Source"><text x="1138" y="52">Source</text>
</a>
</g>
</g>
<path d="M1173.5 48h20"></path>
</g>
</g>
<path d="M1193.5 48h20"></path>
</g>
<g>
<path d="M1213.5 48h0"></path>
<path d="M1543 48h0"></path>
<path d="M1213.5 48a10 10 0 0 0 10 -10v0a10 10 0 0 1 10 -10"></path>
<g>
<path d="M1233.5 28h289.5"></path>
</g>
<path d="M1523 28a10 10 0 0 1 10 10v0a10 10 0 0 0 10 10"></path>
<path d="M1213.5 48h20"></path>
<g>
<path d="M1233.5 48h0"></path>
<path d="M1523 48h0"></path>
<g class="terminal ">
<path d="M1233.5 48h0"></path>
<path d="M1432 48h0"></path>
<rect x="1233.5" y="37" width="198.5" height="22" rx="10" ry="10"></rect>
<text x="1332.75" y="52">"USING SELECTION-SET"</text>
</g>
<path d="M1432 48h10"></path>
<path d="M1442 48h10"></path>
<g class="non-terminal ">
<path d="M1452 48h0"></path>
<path d="M1523 48h0"></path>
<rect x="1452" y="37" width="71" height="22"></rect>
<a xlink:href="#/abap/expression/Source"><text x="1487.5" y="52">Source</text>
</a>
</g>
</g>
<path d="M1523 48h20"></path>
</g>
</g>
</g>
<path d="M1543 48h10"></path>
<path d="M 1553 48 h 20 m -10 -10 v 20 m 10 -20 v 20"></path>
</g>
</svg>
