<svg xmlns="http://www.w3.org/2000/svg" xmlns:xlink="http://www.w3.org/1999/xlink" class="railroad-diagram" width="845" height="272" viewBox="0 0 845 272">
<defs>
<style type="text/css"><![CDATA[
path {
stroke-width: 3;
stroke: black;
fill: rgba(0,0,0,0);
}
text {
font: bold 14px monospace;
text-anchor: middle;
}
text.diagram-text {
font-size: 12px;
}
a {
fill: blue;
}
text.diagram-arrow {
font-size: 16px;
}
text.label {
text-anchor: start;
}
text.comment {
font: italic 12px monospace;
}
rect {
stroke-width: 3;
stroke: black;
fill: #BCBCBC;
}
path.diagram-text {
stroke-width: 3;
stroke: black;
fill: #BCBCBC;
cursor: help;
}
]]></style>
</defs>
<g transform="translate(.5 .5)">
<g>
<path d="M20 21v20m10 -20v20m-10 -10h20"></path>
</g>
<path d="M40 31h10"></path>
<g>
<path d="M50 31h0"></path>
<path d="M795 31h0"></path>
<g class="comment ">
<path d="M50 31h0"></path>
<path d="M123 31h0"></path>
<text x="86.5" y="36" class="comment">not Cloud</text>
</g>
<path d="M123 31h10"></path>
<path d="M133 31h10"></path>
<g>
<path d="M143 31h0"></path>
<path d="M795 31h0"></path>
<g class="terminal ">
<path d="M143 31h0"></path>
<path d="M384 31h0"></path>
<rect x="143" y="20" width="241" height="22" rx="10" ry="10"></rect>
<text x="263.5" y="35">"GENERATE SUBROUTINE POOL"</text>
</g>
<path d="M384 31h10"></path>
<path d="M394 31h10"></path>
<g class="non-terminal ">
<path d="M404 31h0"></path>
<path d="M475 31h0"></path>
<rect x="404" y="20" width="71" height="22"></rect>
<a xlink:href="#/abap/expression/Source"><text x="439.5" y="35">Source</text>
</a>
</g>
<path d="M475 31h10"></path>
<path d="M485 31h10"></path>
<g>
<path d="M495 31h0"></path>
<path d="M795 31h0"></path>
<path d="M525 31h10"></path>
<g>
<path d="M535 31h34"></path>
<path d="M731 31h34"></path>
<g class="terminal ">
<path d="M569 31h0"></path>
<path d="M640 31h0"></path>
<rect x="569" y="20" width="71" height="22" rx="10" ry="10"></rect>
<text x="604.5" y="35">"NAME"</text>
</g>
<path d="M640 31h10"></path>
<path d="M650 31h10"></path>
<g class="non-terminal ">
<path d="M660 31h0"></path>
<path d="M731 31h0"></path>
<rect x="660" y="20" width="71" height="22"></rect>
<a xlink:href="#/abap/expression/Source"><text x="695.5" y="35">Source</text>
</a>
</g>
</g>
<path d="M765 31h10"></path>
<path d="M525 31v20a10 10 0 0 0 10 10"></path>
<g>
<path d="M535 61h21.25"></path>
<path d="M743.75 61h21.25"></path>
<g class="terminal ">
<path d="M556.25 61h0"></path>
<path d="M652.75 61h0"></path>
<rect x="556.25" y="50" width="96.5" height="22" rx="10" ry="10"></rect>
<text x="604.5" y="65">"MESSAGE"</text>
</g>
<path d="M652.75 61h10"></path>
<path d="M662.75 61h10"></path>
<g class="non-terminal ">
<path d="M672.75 61h0"></path>
<path d="M743.75 61h0"></path>
<rect x="672.75" y="50" width="71" height="22"></rect>
<a xlink:href="#/abap/expression/Target"><text x="708.25" y="65">Target</text>
</a>
</g>
</g>
<path d="M765 61a10 10 0 0 0 10 -10v-20"></path>
<path d="M525 31v50a10 10 0 0 0 10 10"></path>
<g>
<path d="M535 91h34"></path>
<path d="M731 91h34"></path>
<g class="terminal ">
<path d="M569 91h0"></path>
<path d="M640 91h0"></path>
<rect x="569" y="80" width="71" height="22" rx="10" ry="10"></rect>
<text x="604.5" y="95">"LINE"</text>
</g>
<path d="M640 91h10"></path>
<path d="M650 91h10"></path>
<g class="non-terminal ">
<path d="M660 91h0"></path>
<path d="M731 91h0"></path>
<rect x="660" y="80" width="71" height="22"></rect>
<a xlink:href="#/abap/expression/Target"><text x="695.5" y="95">Target</text>
</a>
</g>
</g>
<path d="M765 91a10 10 0 0 0 10 -10v-50"></path>
<path d="M525 31v80a10 10 0 0 0 10 10"></path>
<g>
<path d="M535 121h34"></path>
<path d="M731 121h34"></path>
<g class="terminal ">
<path d="M569 121h0"></path>
<path d="M640 121h0"></path>
<rect x="569" y="110" width="71" height="22" rx="10" ry="10"></rect>
<text x="604.5" y="125">"WORD"</text>
</g>
<path d="M640 121h10"></path>
<path d="M650 121h10"></path>
<g class="non-terminal ">
<path d="M660 121h0"></path>
<path d="M731 121h0"></path>
<rect x="660" y="110" width="71" height="22"></rect>
<a xlink:href="#/abap/expression/Target"><text x="695.5" y="125">Target</text>
</a>
</g>
</g>
<path d="M765 121a10 10 0 0 0 10 -10v-80"></path>
<path d="M525 31v110a10 10 0 0 0 10 10"></path>
<g>
<path d="M535 151h21.25"></path>
<path d="M743.75 151h21.25"></path>
<g class="terminal ">
<path d="M556.25 151h0"></path>
<path d="M652.75 151h0"></path>
<rect x="556.25" y="140" width="96.5" height="22" rx="10" ry="10"></rect>
<text x="604.5" y="155">"INCLUDE"</text>
</g>
<path d="M652.75 151h10"></path>
<path d="M662.75 151h10"></path>
<g class="non-terminal ">
<path d="M672.75 151h0"></path>
<path d="M743.75 151h0"></path>
<rect x="672.75" y="140" width="71" height="22"></rect>
<a xlink:href="#/abap/expression/Target"><text x="708.25" y="155">Target</text>
</a>
</g>
</g>
<path d="M765 151a10 10 0 0 0 10 -10v-110"></path>
<path d="M525 31v140a10 10 0 0 0 10 10"></path>
<g>
<path d="M535 181h25.5"></path>
<path d="M739.5 181h25.5"></path>
<g class="terminal ">
<path d="M560.5 181h0"></path>
<path d="M648.5 181h0"></path>
<rect x="560.5" y="170" width="88" height="22" rx="10" ry="10"></rect>
<text x="604.5" y="185">"OFFSET"</text>
</g>
<path d="M648.5 181h10"></path>
<path d="M658.5 181h10"></path>
<g class="non-terminal ">
<path d="M668.5 181h0"></path>
<path d="M739.5 181h0"></path>
<rect x="668.5" y="170" width="71" height="22"></rect>
<a xlink:href="#/abap/expression/Target"><text x="704" y="185">Target</text>
</a>
</g>
</g>
<path d="M765 181a10 10 0 0 0 10 -10v-140"></path>
<path d="M525 31v170a10 10 0 0 0 10 10"></path>
<g>
<path d="M535 211h8.5"></path>
<path d="M756.5 211h8.5"></path>
<g class="terminal ">
<path d="M543.5 211h0"></path>
<path d="M665.5 211h0"></path>
<rect x="543.5" y="200" width="122" height="22" rx="10" ry="10"></rect>
<text x="604.5" y="215">"MESSAGE-ID"</text>
</g>
<path d="M665.5 211h10"></path>
<path d="M675.5 211h10"></path>
<g class="non-terminal ">
<path d="M685.5 211h0"></path>
<path d="M756.5 211h0"></path>
<rect x="685.5" y="200" width="71" height="22"></rect>
<a xlink:href="#/abap/expression/Target"><text x="721" y="215">Target</text>
</a>
</g>
</g>
<path d="M765 211a10 10 0 0 0 10 -10v-170"></path>
<path d="M525 31v200a10 10 0 0 0 10 10"></path>
<g>
<path d="M535 241h0"></path>
<path d="M765 241h0"></path>
<g class="terminal ">
<path d="M535 241h0"></path>
<path d="M674 241h0"></path>
<rect x="535" y="230" width="139" height="22" rx="10" ry="10"></rect>
<text x="604.5" y="245">"SHORTDUMP-ID"</text>
</g>
<path d="M674 241h10"></path>
<path d="M684 241h10"></path>
<g class="non-terminal ">
<path d="M694 241h0"></path>
<path d="M765 241h0"></path>
<rect x="694" y="230" width="71" height="22"></rect>
<a xlink:href="#/abap/expression/Target"><text x="729.5" y="245">Target</text>
</a>
</g>
</g>
<path d="M765 241a10 10 0 0 0 10 -10v-200"></path>
<g class="diagram-text">
<title>take one or more branches, once each, in any order</title>
<path d="M 525 21 h -26 a 4 4 0 0 0 -4 4 v 12 a 4 4 0 0 0 4 4 h 26 z" class="diagram-text"></path>
<text x="510" y="35" class="diagram-text">1+</text>
<path d="M 775 21 h 16 a 4 4 0 0 1 4 4 v 12 a 4 4 0 0 1 -4 4 h -16 z" class="diagram-text"></path>
<path d="M 782 29 a 4 4 0 1 0 6 -1 m 2.75 -1 h -4 v 4 m 0 -3 h 2" style="stroke-width: 1.75"></path>
</g>
</g>
</g>
</g>
<path d="M795 31h10"></path>
<path d="M 805 31 h 20 m -10 -10 v 20 m 10 -20 v 20"></path>
</g>
</svg>
