<svg xmlns="http://www.w3.org/2000/svg" xmlns:xlink="http://www.w3.org/1999/xlink" class="railroad-diagram" width="618" height="62" viewBox="0 0 618 62">
<defs>
<style type="text/css"><![CDATA[
path {
stroke-width: 3;
stroke: black;
fill: rgba(0,0,0,0);
}
text {
font: bold 14px monospace;
text-anchor: middle;
}
text.diagram-text {
font-size: 12px;
}
a {
fill: blue;
}
text.diagram-arrow {
font-size: 16px;
}
text.label {
text-anchor: start;
}
text.comment {
font: italic 12px monospace;
}
rect {
stroke-width: 3;
stroke: black;
fill: #BCBCBC;
}
path.diagram-text {
stroke-width: 3;
stroke: black;
fill: #BCBCBC;
cursor: help;
}
]]></style>
</defs>
<g transform="translate(.5 .5)">
<g>
<path d="M20 21v20m10 -20v20m-10 -10h20"></path>
</g>
<path d="M40 31h10"></path>
<g>
<path d="M50 31h0"></path>
<path d="M568 31h0"></path>
<g class="comment ">
<path d="M50 31h0"></path>
<path d="M193 31h0"></path>
<text x="121.5" y="36" class="comment">not langver=KeyUser</text>
</g>
<path d="M193 31h10"></path>
<path d="M203 31h10"></path>
<g>
<path d="M213 31h0"></path>
<path d="M568 31h0"></path>
<g class="terminal ">
<path d="M213 31h0"></path>
<path d="M326.5 31h0"></path>
<rect x="213" y="20" width="113.5" height="22" rx="10" ry="10"></rect>
<text x="269.75" y="35">"INTERFACE"</text>
</g>
<path d="M326.5 31h10"></path>
<path d="M336.5 31h10"></path>
<g class="non-terminal ">
<path d="M346.5 31h0"></path>
<path d="M477 31h0"></path>
<rect x="346.5" y="20" width="130.5" height="22"></rect>
<a xlink:href="#/abap/expression/InterfaceName"><text x="411.75" y="35">InterfaceName</text>
</a>
</g>
<path d="M477 31h10"></path>
<path d="M487 31h10"></path>
<g class="terminal ">
<path d="M497 31h0"></path>
<path d="M568 31h0"></path>
<rect x="497" y="20" width="71" height="22" rx="10" ry="10"></rect>
<text x="532.5" y="35">"LOAD"</text>
</g>
</g>
</g>
<path d="M568 31h10"></path>
<path d="M 578 31 h 20 m -10 -10 v 20 m 10 -20 v 20"></path>
</g>
</svg>
