<svg xmlns="http://www.w3.org/2000/svg" xmlns:xlink="http://www.w3.org/1999/xlink" class="railroad-diagram" width="1549.5" height="62" viewBox="0 0 1549.5 62">
<defs>
<style type="text/css"><![CDATA[
path {
stroke-width: 3;
stroke: black;
fill: rgba(0,0,0,0);
}
text {
font: bold 14px monospace;
text-anchor: middle;
}
text.diagram-text {
font-size: 12px;
}
a {
fill: blue;
}
text.diagram-arrow {
font-size: 16px;
}
text.label {
text-anchor: start;
}
text.comment {
font: italic 12px monospace;
}
rect {
stroke-width: 3;
stroke: black;
fill: #BCBCBC;
}
path.diagram-text {
stroke-width: 3;
stroke: black;
fill: #BCBCBC;
cursor: help;
}
]]></style>
</defs>
<g transform="translate(.5 .5)">
<g>
<path d="M20 21v20m10 -20v20m-10 -10h20"></path>
</g>
<path d="M40 31h10"></path>
<g>
<path d="M50 31h0"></path>
<path d="M1499.5 31h0"></path>
<g>
<path d="M50 31h0"></path>
<path d="M88 31h0"></path>
<text x="69" y="36" class="comment">v754</text>
</g>
<path d="M88 31h10"></path>
<path d="M98 31h10"></path>
<g>
<path d="M108 31h0"></path>
<path d="M1499.5 31h0"></path>
<g class="terminal">
<path d="M108 31h0"></path>
<path d="M553 31h0"></path>
<rect x="108" y="20" width="445" height="22" rx="10" ry="10"></rect>
<text x="330.5" y="35">"GET PERMISSIONS ONLY GLOBAL AUTHORIZATION ENTITY"</text>
</g>
<path d="M553 31h10"></path>
<path d="M563 31h10"></path>
<g class="non-terminal">
<path d="M573 31h0"></path>
<path d="M678 31h0"></path>
<rect x="573" y="20" width="105" height="22"></rect>
<a xlink:href="#/abap/expression/SimpleName"><text x="625.5" y="35">SimpleName</text>
</a>
</g>
<path d="M678 31h10"></path>
<path d="M688 31h10"></path>
<g class="terminal">
<path d="M698 31h0"></path>
<path d="M794.5 31h0"></path>
<rect x="698" y="20" width="96.5" height="22" rx="10" ry="10"></rect>
<text x="746.25" y="35">"REQUEST"</text>
</g>
<path d="M794.5 31h10"></path>
<path d="M804.5 31h10"></path>
<g class="non-terminal">
<path d="M814.5 31h0"></path>
<path d="M885.5 31h0"></path>
<rect x="814.5" y="20" width="71" height="22"></rect>
<a xlink:href="#/abap/expression/Source"><text x="850" y="35">Source</text>
</a>
</g>
<path d="M885.5 31h10"></path>
<path d="M895.5 31h10"></path>
<g class="terminal">
<path d="M905.5 31h0"></path>
<path d="M993.5 31h0"></path>
<rect x="905.5" y="20" width="88" height="22" rx="10" ry="10"></rect>
<text x="949.5" y="35">"RESULT"</text>
</g>
<path d="M993.5 31h10"></path>
<path d="M1003.5 31h10"></path>
<g class="non-terminal">
<path d="M1013.5 31h0"></path>
<path d="M1084.5 31h0"></path>
<rect x="1013.5" y="20" width="71" height="22"></rect>
<a xlink:href="#/abap/expression/Target"><text x="1049" y="35">Target</text>
</a>
</g>
<path d="M1084.5 31h10"></path>
<path d="M1094.5 31h10"></path>
<g class="terminal">
<path d="M1104.5 31h0"></path>
<path d="M1192.5 31h0"></path>
<rect x="1104.5" y="20" width="88" height="22" rx="10" ry="10"></rect>
<text x="1148.5" y="35">"FAILED"</text>
</g>
<path d="M1192.5 31h10"></path>
<path d="M1202.5 31h10"></path>
<g class="non-terminal">
<path d="M1212.5 31h0"></path>
<path d="M1283.5 31h0"></path>
<rect x="1212.5" y="20" width="71" height="22"></rect>
<a xlink:href="#/abap/expression/Target"><text x="1248" y="35">Target</text>
</a>
</g>
<path d="M1283.5 31h10"></path>
<path d="M1293.5 31h10"></path>
<g class="terminal">
<path d="M1303.5 31h0"></path>
<path d="M1408.5 31h0"></path>
<rect x="1303.5" y="20" width="105" height="22" rx="10" ry="10"></rect>
<text x="1356" y="35">"REPORTED"</text>
</g>
<path d="M1408.5 31h10"></path>
<path d="M1418.5 31h10"></path>
<g class="non-terminal">
<path d="M1428.5 31h0"></path>
<path d="M1499.5 31h0"></path>
<rect x="1428.5" y="20" width="71" height="22"></rect>
<a xlink:href="#/abap/expression/Target"><text x="1464" y="35">Target</text>
</a>
</g>
</g>
</g>
<path d="M1499.5 31h10"></path>
<path d="M 1509.5 31 h 20 m -10 -10 v 20 m 10 -20 v 20"></path>
</g>
</svg>
