<svg xmlns="http://www.w3.org/2000/svg" xmlns:xlink="http://www.w3.org/1999/xlink" class="railroad-diagram" width="820.5" height="71" viewBox="0 0 820.5 71">
<defs>
<style type="text/css"><![CDATA[
path {
stroke-width: 3;
stroke: black;
fill: rgba(0,0,0,0);
}
text {
font: bold 14px monospace;
text-anchor: middle;
}
text.diagram-text {
font-size: 12px;
}
a {
fill: blue;
}
text.diagram-arrow {
font-size: 16px;
}
text.label {
text-anchor: start;
}
text.comment {
font: italic 12px monospace;
}
rect {
stroke-width: 3;
stroke: black;
fill: #BCBCBC;
}
path.diagram-text {
stroke-width: 3;
stroke: black;
fill: #BCBCBC;
cursor: help;
}
]]></style>
</defs>
<g transform="translate(.5 .5)">
<g>
<path d="M20 21v20m10 -20v20m-10 -10h20"></path>
</g>
<path d="M40 31h10"></path>
<g>
<path d="M50 31h0"></path>
<path d="M770.5 31h0"></path>
<g class="comment ">
<path d="M50 31h0"></path>
<path d="M179 31h0"></path>
<text x="114.5" y="36" class="comment">not langver=Cloud</text>
</g>
<path d="M179 31h10"></path>
<path d="M189 31h10"></path>
<g>
<path d="M199 31h0"></path>
<path d="M770.5 31h0"></path>
<g class="terminal ">
<path d="M199 31h0"></path>
<path d="M287 31h0"></path>
<rect x="199" y="20" width="88" height="22" rx="10" ry="10"></rect>
<text x="243" y="35">"SUPPLY"</text>
</g>
<path d="M287 31h10"></path>
<path d="M297 31h10"></path>
<g>
<path d="M307 31h0"></path>
<path d="M546 31h0"></path>
<path d="M307 31h10"></path>
<g>
<path d="M317 31h0"></path>
<path d="M536 31h0"></path>
<g class="non-terminal ">
<path d="M317 31h0"></path>
<path d="M379.5 31h0"></path>
<rect x="317" y="20" width="62.5" height="22"></rect>
<a xlink:href="#/abap/expression/Field"><text x="348.25" y="35">Field</text>
</a>
</g>
<path d="M379.5 31h10"></path>
<path d="M389.5 31h10"></path>
<g class="terminal ">
<path d="M399.5 31h0"></path>
<path d="M445 31h0"></path>
<rect x="399.5" y="20" width="45.5" height="22" rx="10" ry="10"></rect>
<text x="422.25" y="35">"="</text>
</g>
<path d="M445 31h10"></path>
<path d="M455 31h10"></path>
<g class="non-terminal ">
<path d="M465 31h0"></path>
<path d="M536 31h0"></path>
<rect x="465" y="20" width="71" height="22"></rect>
<a xlink:href="#/abap/expression/Source"><text x="500.5" y="35">Source</text>
</a>
</g>
</g>
<path d="M536 31h10"></path>
<path d="M317 31a10 10 0 0 0 -10 10v0a10 10 0 0 0 10 10"></path>
<g>
<path d="M317 51h219"></path>
</g>
<path d="M536 51a10 10 0 0 0 10 -10v0a10 10 0 0 0 -10 -10"></path>
</g>
<path d="M546 31h10"></path>
<path d="M556 31h10"></path>
<g class="terminal ">
<path d="M566 31h0"></path>
<path d="M688 31h0"></path>
<rect x="566" y="20" width="122" height="22" rx="10" ry="10"></rect>
<text x="627" y="35">"TO CONTEXT"</text>
</g>
<path d="M688 31h10"></path>
<path d="M698 31h10"></path>
<g class="non-terminal ">
<path d="M708 31h0"></path>
<path d="M770.5 31h0"></path>
<rect x="708" y="20" width="62.5" height="22"></rect>
<a xlink:href="#/abap/expression/Field"><text x="739.25" y="35">Field</text>
</a>
</g>
</g>
</g>
<path d="M770.5 31h10"></path>
<path d="M 780.5 31 h 20 m -10 -10 v 20 m 10 -20 v 20"></path>
</g>
</svg>
