<svg xmlns="http://www.w3.org/2000/svg" xmlns:xlink="http://www.w3.org/1999/xlink" class="railroad-diagram" width="926" height="101" viewBox="0 0 926 101">
<defs>
<style type="text/css"><![CDATA[
path {
stroke-width: 3;
stroke: black;
fill: rgba(0,0,0,0);
}
text {
font: bold 14px monospace;
text-anchor: middle;
}
text.diagram-text {
font-size: 12px;
}
a {
fill: blue;
}
text.diagram-arrow {
font-size: 16px;
}
text.label {
text-anchor: start;
}
text.comment {
font: italic 12px monospace;
}
rect {
stroke-width: 3;
stroke: black;
fill: #BCBCBC;
}
path.diagram-text {
stroke-width: 3;
stroke: black;
fill: #BCBCBC;
cursor: help;
}
]]></style>
</defs>
<g transform="translate(.5 .5)">
<g>
<path d="M20 21v20m10 -20v20m-10 -10h20"></path>
</g>
<path d="M40 31h10"></path>
<g>
<path d="M50 31h0"></path>
<path d="M876 31h0"></path>
<g class="terminal">
<path d="M50 31h0"></path>
<path d="M121 31h0"></path>
<rect x="50" y="20" width="71" height="22" rx="10" ry="10"></rect>
<text x="85.5" y="35">"FORM"</text>
</g>
<path d="M121 31h10"></path>
<path d="M131 31h10"></path>
<g class="non-terminal">
<path d="M141 31h0"></path>
<path d="M229 31h0"></path>
<rect x="141" y="20" width="88" height="22"></rect>
<a xlink:href="#/abap/expression/FormName"><text x="185" y="35">FormName</text>
</a>
</g>
<path d="M229 31h10"></path>
<g>
<path d="M239 31h0"></path>
<path d="M876 31h0"></path>
<path d="M239 31h20"></path>
<g class="terminal">
<path d="M259 31h0"></path>
<path d="M415 31h441"></path>
<rect x="259" y="20" width="156" height="22" rx="10" ry="10"></rect>
<text x="337" y="35">"IMPLEMENTATION"</text>
</g>
<path d="M856 31h20"></path>
<path d="M239 31a10 10 0 0 1 10 10v19a10 10 0 0 0 10 10"></path>
<g>
<path d="M259 70h0"></path>
<path d="M856 70h0"></path>
<g>
<path d="M259 70h0"></path>
<path d="M404 70h0"></path>
<path d="M259 70a10 10 0 0 0 10 -10v0a10 10 0 0 1 10 -10"></path>
<g>
<path d="M279 50h105"></path>
</g>
<path d="M384 50a10 10 0 0 1 10 10v0a10 10 0 0 0 10 10"></path>
<path d="M259 70h20"></path>
<g class="non-terminal">
<path d="M279 70h0"></path>
<path d="M384 70h0"></path>
<rect x="279" y="59" width="105" height="22"></rect>
<a xlink:href="#/abap/expression/FormTables"><text x="331.5" y="74">FormTables</text>
</a>
</g>
<path d="M384 70h20"></path>
</g>
<g>
<path d="M404 70h0"></path>
<path d="M540.5 70h0"></path>
<path d="M404 70a10 10 0 0 0 10 -10v0a10 10 0 0 1 10 -10"></path>
<g>
<path d="M424 50h96.5"></path>
</g>
<path d="M520.5 50a10 10 0 0 1 10 10v0a10 10 0 0 0 10 10"></path>
<path d="M404 70h20"></path>
<g class="non-terminal">
<path d="M424 70h0"></path>
<path d="M520.5 70h0"></path>
<rect x="424" y="59" width="96.5" height="22"></rect>
<a xlink:href="#/abap/expression/FormUsing"><text x="472.25" y="74">FormUsing</text>
</a>
</g>
<path d="M520.5 70h20"></path>
</g>
<g>
<path d="M540.5 70h0"></path>
<path d="M702.5 70h0"></path>
<path d="M540.5 70a10 10 0 0 0 10 -10v0a10 10 0 0 1 10 -10"></path>
<g>
<path d="M560.5 50h122"></path>
</g>
<path d="M682.5 50a10 10 0 0 1 10 10v0a10 10 0 0 0 10 10"></path>
<path d="M540.5 70h20"></path>
<g class="non-terminal">
<path d="M560.5 70h0"></path>
<path d="M682.5 70h0"></path>
<rect x="560.5" y="59" width="122" height="22"></rect>
<a xlink:href="#/abap/expression/FormChanging"><text x="621.5" y="74">FormChanging</text>
</a>
</g>
<path d="M682.5 70h20"></path>
</g>
<g>
<path d="M702.5 70h0"></path>
<path d="M856 70h0"></path>
<path d="M702.5 70a10 10 0 0 0 10 -10v0a10 10 0 0 1 10 -10"></path>
<g>
<path d="M722.5 50h113.5"></path>
</g>
<path d="M836 50a10 10 0 0 1 10 10v0a10 10 0 0 0 10 10"></path>
<path d="M702.5 70h20"></path>
<g class="non-terminal">
<path d="M722.5 70h0"></path>
<path d="M836 70h0"></path>
<rect x="722.5" y="59" width="113.5" height="22"></rect>
<a xlink:href="#/abap/expression/FormRaising"><text x="779.25" y="74">FormRaising</text>
</a>
</g>
<path d="M836 70h20"></path>
</g>
</g>
<path d="M856 70a10 10 0 0 0 10 -10v-19a10 10 0 0 1 10 -10"></path>
</g>
</g>
<path d="M876 31h10"></path>
<path d="M 886 31 h 20 m -10 -10 v 20 m 10 -20 v 20"></path>
</g>
</svg>
