<svg xmlns="http://www.w3.org/2000/svg" xmlns:xlink="http://www.w3.org/1999/xlink" class="railroad-diagram" width="485" height="71" viewBox="0 0 485 71">
<defs>
<style type="text/css"><![CDATA[
path {
stroke-width: 3;
stroke: black;
fill: rgba(0,0,0,0);
}
text {
font: bold 14px monospace;
text-anchor: middle;
}
text.diagram-text {
font-size: 12px;
}
a {
fill: blue;
}
text.diagram-arrow {
font-size: 16px;
}
text.label {
text-anchor: start;
}
text.comment {
font: italic 12px monospace;
}
rect {
stroke-width: 3;
stroke: black;
fill: #BCBCBC;
}
path.diagram-text {
stroke-width: 3;
stroke: black;
fill: #BCBCBC;
cursor: help;
}
]]></style>
</defs>
<g transform="translate(.5 .5)">
<g>
<path d="M20 30v20m10 -20v20m-10 -10h20"></path>
</g>
<path d="M40 40h10"></path>
<g>
<path d="M50 40h0"></path>
<path d="M435 40h0"></path>
<g class="terminal">
<path d="M50 40h0"></path>
<path d="M146.5 40h0"></path>
<rect x="50" y="29" width="96.5" height="22" rx="10" ry="10"></rect>
<text x="98.25" y="44">"INCLUDE"</text>
</g>
<path d="M146.5 40h10"></path>
<path d="M156.5 40h10"></path>
<g class="non-terminal">
<path d="M166.5 40h0"></path>
<path d="M280 40h0"></path>
<rect x="166.5" y="29" width="113.5" height="22"></rect>
<a xlink:href="#/abap/expression/IncludeName"><text x="223.25" y="44">IncludeName</text>
</a>
</g>
<path d="M280 40h10"></path>
<g>
<path d="M290 40h0"></path>
<path d="M435 40h0"></path>
<path d="M290 40a10 10 0 0 0 10 -10v0a10 10 0 0 1 10 -10"></path>
<g>
<path d="M310 20h105"></path>
</g>
<path d="M415 20a10 10 0 0 1 10 10v0a10 10 0 0 0 10 10"></path>
<path d="M290 40h20"></path>
<g class="terminal">
<path d="M310 40h0"></path>
<path d="M415 40h0"></path>
<rect x="310" y="29" width="105" height="22" rx="10" ry="10"></rect>
<text x="362.5" y="44">"IF FOUND"</text>
</g>
<path d="M415 40h20"></path>
</g>
</g>
<path d="M435 40h10"></path>
<path d="M 445 40 h 20 m -10 -10 v 20 m 10 -20 v 20"></path>
</g>
</svg>
