<svg xmlns="http://www.w3.org/2000/svg" xmlns:xlink="http://www.w3.org/1999/xlink" class="railroad-diagram" width="526" height="92" viewBox="0 0 526 92">
<defs>
<style type="text/css"><![CDATA[
path {
stroke-width: 3;
stroke: black;
fill: rgba(0,0,0,0);
}
text {
font: bold 14px monospace;
text-anchor: middle;
}
text.diagram-text {
font-size: 12px;
}
a {
fill: blue;
}
text.diagram-arrow {
font-size: 16px;
}
text.label {
text-anchor: start;
}
text.comment {
font: italic 12px monospace;
}
rect {
stroke-width: 3;
stroke: black;
fill: #BCBCBC;
}
path.diagram-text {
stroke-width: 3;
stroke: black;
fill: #BCBCBC;
cursor: help;
}
]]></style>
</defs>
<g transform="translate(.5 .5)">
<g>
<path d="M20 21v20m10 -20v20m-10 -10h20"></path>
</g>
<path d="M40 31h10"></path>
<g>
<path d="M50 31h0"></path>
<path d="M476 31h0"></path>
<g class="comment ">
<path d="M50 31h0"></path>
<path d="M179 31h0"></path>
<text x="114.5" y="36" class="comment">not langver=Cloud</text>
</g>
<path d="M179 31h10"></path>
<path d="M189 31h10"></path>
<g>
<path d="M199 31h0"></path>
<path d="M476 31h0"></path>
<g class="terminal ">
<path d="M199 31h0"></path>
<path d="M363.5 31h0"></path>
<rect x="199" y="20" width="164.5" height="22" rx="10" ry="10"></rect>
<text x="281.25" y="35">"SET BLANK LINES"</text>
</g>
<path d="M363.5 31h10"></path>
<g>
<path d="M373.5 31h0"></path>
<path d="M476 31h0"></path>
<path d="M373.5 31h20"></path>
<g class="terminal ">
<path d="M393.5 31h4.25"></path>
<path d="M451.75 31h4.25"></path>
<rect x="397.75" y="20" width="54" height="22" rx="10" ry="10"></rect>
<text x="424.75" y="35">"ON"</text>
</g>
<path d="M456 31h20"></path>
<path d="M373.5 31a10 10 0 0 1 10 10v10a10 10 0 0 0 10 10"></path>
<g class="terminal ">
<path d="M393.5 61h0"></path>
<path d="M456 61h0"></path>
<rect x="393.5" y="50" width="62.5" height="22" rx="10" ry="10"></rect>
<text x="424.75" y="65">"OFF"</text>
</g>
<path d="M456 61a10 10 0 0 0 10 -10v-10a10 10 0 0 1 10 -10"></path>
</g>
</g>
</g>
<path d="M476 31h10"></path>
<path d="M 486 31 h 20 m -10 -10 v 20 m 10 -20 v 20"></path>
</g>
</svg>
