<svg xmlns="http://www.w3.org/2000/svg" xmlns:xlink="http://www.w3.org/1999/xlink" class="railroad-diagram" width="876" height="131" viewBox="0 0 876 131">
<defs>
<style type="text/css"><![CDATA[
path {
stroke-width: 3;
stroke: black;
fill: rgba(0,0,0,0);
}
text {
font: bold 14px monospace;
text-anchor: middle;
}
text.diagram-text {
font-size: 12px;
}
a {
fill: blue;
}
text.diagram-arrow {
font-size: 16px;
}
text.label {
text-anchor: start;
}
text.comment {
font: italic 12px monospace;
}
rect {
stroke-width: 3;
stroke: black;
fill: #BCBCBC;
}
path.diagram-text {
stroke-width: 3;
stroke: black;
fill: #BCBCBC;
cursor: help;
}
]]></style>
</defs>
<g transform="translate(.5 .5)">
<g>
<path d="M20 21v20m10 -20v20m-10 -10h20"></path>
</g>
<path d="M40 31h10"></path>
<g>
<path d="M50 31h0"></path>
<path d="M826 31h0"></path>
<g class="terminal">
<path d="M50 31h0"></path>
<path d="M121 31h0"></path>
<rect x="50" y="20" width="71" height="22" rx="10" ry="10"></rect>
<text x="85.5" y="35">"DATA"</text>
</g>
<path d="M121 31h10"></path>
<path d="M131 31h10"></path>
<g>
<path d="M141 31h0"></path>
<path d="M826 31h0"></path>
<g class="terminal">
<path d="M141 31h0"></path>
<path d="M246 31h0"></path>
<rect x="141" y="20" width="105" height="22" rx="10" ry="10"></rect>
<text x="193.5" y="35">"BEGIN OF"</text>
</g>
<path d="M246 31h10"></path>
<g>
<path d="M256 31h0"></path>
<path d="M826 31h0"></path>
<path d="M256 31h20"></path>
<g>
<path d="M276 31h0"></path>
<path d="M605.5 31h200.5"></path>
<path d="M276 31h20"></path>
<g>
<path d="M296 31h0"></path>
<path d="M585.5 31h0"></path>
<g class="terminal">
<path d="M296 31h0"></path>
<path d="M426.5 31h0"></path>
<rect x="296" y="20" width="130.5" height="22" rx="10" ry="10"></rect>
<text x="361.25" y="35">"COMMON PART"</text>
</g>
<path d="M426.5 31h10"></path>
<path d="M436.5 31h10"></path>
<g class="non-terminal">
<path d="M446.5 31h0"></path>
<path d="M585.5 31h0"></path>
<rect x="446.5" y="20" width="139" height="22"></rect>
<a xlink:href="#/abap/expression/DefinitionName"><text x="516" y="35">DefinitionName</text>
</a>
</g>
</g>
<path d="M585.5 31h20"></path>
<path d="M276 31a10 10 0 0 1 10 10v10a10 10 0 0 0 10 10"></path>
<g class="terminal">
<path d="M296 61h0"></path>
<path d="M426.5 61h159"></path>
<rect x="296" y="50" width="130.5" height="22" rx="10" ry="10"></rect>
<text x="361.25" y="65">"COMMON PART"</text>
</g>
<path d="M585.5 61a10 10 0 0 0 10 -10v-10a10 10 0 0 1 10 -10"></path>
</g>
<path d="M806 31h20"></path>
<path d="M256 31a10 10 0 0 1 10 10v49a10 10 0 0 0 10 10"></path>
<g>
<path d="M276 100h0"></path>
<path d="M806 100h0"></path>
<g class="non-terminal">
<path d="M276 100h0"></path>
<path d="M415 100h0"></path>
<rect x="276" y="89" width="139" height="22"></rect>
<a xlink:href="#/abap/expression/DefinitionName"><text x="345.5" y="104">DefinitionName</text>
</a>
</g>
<path d="M415 100h10"></path>
<g>
<path d="M425 100h0"></path>
<path d="M578.5 100h0"></path>
<path d="M425 100a10 10 0 0 0 10 -10v0a10 10 0 0 1 10 -10"></path>
<g>
<path d="M445 80h113.5"></path>
</g>
<path d="M558.5 80a10 10 0 0 1 10 10v0a10 10 0 0 0 10 10"></path>
<path d="M425 100h20"></path>
<g class="terminal">
<path d="M445 100h0"></path>
<path d="M558.5 100h0"></path>
<rect x="445" y="89" width="113.5" height="22" rx="10" ry="10"></rect>
<text x="501.75" y="104">"READ-ONLY"</text>
</g>
<path d="M558.5 100h20"></path>
</g>
<g>
<path d="M578.5 100h0"></path>
<path d="M806 100h0"></path>
<path d="M578.5 100a10 10 0 0 0 10 -10v0a10 10 0 0 1 10 -10"></path>
<g>
<path d="M598.5 80h187.5"></path>
</g>
<path d="M786 80a10 10 0 0 1 10 10v0a10 10 0 0 0 10 10"></path>
<path d="M578.5 100h20"></path>
<g>
<path d="M598.5 100h0"></path>
<path d="M786 100h0"></path>
<g class="terminal">
<path d="M598.5 100h0"></path>
<path d="M686.5 100h0"></path>
<rect x="598.5" y="89" width="88" height="22" rx="10" ry="10"></rect>
<text x="642.5" y="104">"OCCURS"</text>
</g>
<path d="M686.5 100h10"></path>
<path d="M696.5 100h10"></path>
<g class="non-terminal">
<path d="M706.5 100h0"></path>
<path d="M786 100h0"></path>
<rect x="706.5" y="89" width="79.5" height="22"></rect>
<a xlink:href="#/abap/expression/Integer"><text x="746.25" y="104">Integer</text>
</a>
</g>
</g>
<path d="M786 100h20"></path>
</g>
</g>
<path d="M806 100a10 10 0 0 0 10 -10v-49a10 10 0 0 1 10 -10"></path>
</g>
</g>
</g>
<path d="M826 31h10"></path>
<path d="M 836 31 h 20 m -10 -10 v 20 m 10 -20 v 20"></path>
</g>
</svg>
