<svg xmlns="http://www.w3.org/2000/svg" xmlns:xlink="http://www.w3.org/1999/xlink" class="railroad-diagram" width="1469" height="101" viewBox="0 0 1469 101">
<defs>
<style type="text/css"><![CDATA[
path {
stroke-width: 3;
stroke: black;
fill: rgba(0,0,0,0);
}
text {
font: bold 14px monospace;
text-anchor: middle;
}
text.diagram-text {
font-size: 12px;
}
a {
fill: blue;
}
text.diagram-arrow {
font-size: 16px;
}
text.label {
text-anchor: start;
}
text.comment {
font: italic 12px monospace;
}
rect {
stroke-width: 3;
stroke: black;
fill: #BCBCBC;
}
path.diagram-text {
stroke-width: 3;
stroke: black;
fill: #BCBCBC;
cursor: help;
}
]]></style>
</defs>
<g transform="translate(.5 .5)">
<g>
<path d="M20 30v20m10 -20v20m-10 -10h20"></path>
</g>
<path d="M40 40h10"></path>
<g>
<path d="M50 40h0"></path>
<path d="M1419 40h0"></path>
<g class="comment ">
<path d="M50 40h0"></path>
<path d="M179 40h0"></path>
<text x="114.5" y="45" class="comment">not langver=Cloud</text>
</g>
<path d="M179 40h10"></path>
<path d="M189 40h10"></path>
<g>
<path d="M199 40h0"></path>
<path d="M1419 40h0"></path>
<g class="terminal ">
<path d="M199 40h0"></path>
<path d="M431.5 40h0"></path>
<rect x="199" y="29" width="232.5" height="22" rx="10" ry="10"></rect>
<text x="315.25" y="44">"CALL DATABASE PROCEDURE"</text>
</g>
<path d="M431.5 40h10"></path>
<path d="M441.5 40h10"></path>
<g class="non-terminal ">
<path d="M451.5 40h0"></path>
<path d="M531 40h0"></path>
<rect x="451.5" y="29" width="79.5" height="22"></rect>
<a xlink:href="#/abap/expression/Dynamic"><text x="491.25" y="44">Dynamic</text>
</a>
</g>
<path d="M531 40h10"></path>
<g>
<path d="M541 40h0"></path>
<path d="M754 40h0"></path>
<path d="M541 40a10 10 0 0 0 10 -10v0a10 10 0 0 1 10 -10"></path>
<g>
<path d="M561 20h173"></path>
</g>
<path d="M734 20a10 10 0 0 1 10 10v0a10 10 0 0 0 10 10"></path>
<path d="M541 40h20"></path>
<g class="non-terminal ">
<path d="M561 40h0"></path>
<path d="M734 40h0"></path>
<rect x="561" y="29" width="173" height="22"></rect>
<a xlink:href="#/abap/expression/DatabaseConnection"><text x="647.5" y="44">DatabaseConnection</text>
</a>
</g>
<path d="M734 40h20"></path>
</g>
<g>
<path d="M754 40h0"></path>
<path d="M1419 40h0"></path>
<path d="M754 40h20"></path>
<g>
<path d="M774 40h0"></path>
<path d="M1399 40h0"></path>
<g>
<path d="M774 40h0"></path>
<path d="M1086.5 40h0"></path>
<path d="M774 40a10 10 0 0 0 10 -10v0a10 10 0 0 1 10 -10"></path>
<g>
<path d="M794 20h272.5"></path>
</g>
<path d="M1066.5 20a10 10 0 0 1 10 10v0a10 10 0 0 0 10 10"></path>
<path d="M774 40h20"></path>
<g>
<path d="M794 40h0"></path>
<path d="M1066.5 40h0"></path>
<g class="terminal ">
<path d="M794 40h0"></path>
<path d="M907.5 40h0"></path>
<rect x="794" y="29" width="113.5" height="22" rx="10" ry="10"></rect>
<text x="850.75" y="44">"EXPORTING"</text>
</g>
<path d="M907.5 40h10"></path>
<path d="M917.5 40h10"></path>
<g class="non-terminal ">
<path d="M927.5 40h0"></path>
<path d="M1066.5 40h0"></path>
<rect x="927.5" y="29" width="139" height="22"></rect>
<a xlink:href="#/abap/expression/ParameterListS"><text x="997" y="44">ParameterListS</text>
</a>
</g>
</g>
<path d="M1066.5 40h20"></path>
</g>
<g>
<path d="M1086.5 40h0"></path>
<path d="M1399 40h0"></path>
<path d="M1086.5 40a10 10 0 0 0 10 -10v0a10 10 0 0 1 10 -10"></path>
<g>
<path d="M1106.5 20h272.5"></path>
</g>
<path d="M1379 20a10 10 0 0 1 10 10v0a10 10 0 0 0 10 10"></path>
<path d="M1086.5 40h20"></path>
<g>
<path d="M1106.5 40h0"></path>
<path d="M1379 40h0"></path>
<g class="terminal ">
<path d="M1106.5 40h0"></path>
<path d="M1220 40h0"></path>
<rect x="1106.5" y="29" width="113.5" height="22" rx="10" ry="10"></rect>
<text x="1163.25" y="44">"IMPORTING"</text>
</g>
<path d="M1220 40h10"></path>
<path d="M1230 40h10"></path>
<g class="non-terminal ">
<path d="M1240 40h0"></path>
<path d="M1379 40h0"></path>
<rect x="1240" y="29" width="139" height="22"></rect>
<a xlink:href="#/abap/expression/ParameterListT"><text x="1309.5" y="44">ParameterListT</text>
</a>
</g>
</g>
<path d="M1379 40h20"></path>
</g>
</g>
<path d="M1399 40h20"></path>
<path d="M754 40a10 10 0 0 1 10 10v10a10 10 0 0 0 10 10"></path>
<g>
<path d="M774 70h184.75"></path>
<path d="M1214.25 70h184.75"></path>
<g class="terminal ">
<path d="M958.75 70h0"></path>
<path d="M1123.25 70h0"></path>
<rect x="958.75" y="59" width="164.5" height="22" rx="10" ry="10"></rect>
<text x="1041" y="74">"PARAMETER-TABLE"</text>
</g>
<path d="M1123.25 70h10"></path>
<path d="M1133.25 70h10"></path>
<g class="non-terminal ">
<path d="M1143.25 70h0"></path>
<path d="M1214.25 70h0"></path>
<rect x="1143.25" y="59" width="71" height="22"></rect>
<a xlink:href="#/abap/expression/Source"><text x="1178.75" y="74">Source</text>
</a>
</g>
</g>
<path d="M1399 70a10 10 0 0 0 10 -10v-10a10 10 0 0 1 10 -10"></path>
</g>
</g>
</g>
<path d="M1419 40h10"></path>
<path d="M 1429 40 h 20 m -10 -10 v 20 m 10 -20 v 20"></path>
</g>
</svg>
