<svg xmlns="http://www.w3.org/2000/svg" xmlns:xlink="http://www.w3.org/1999/xlink" class="railroad-diagram" width="1411.5" height="71" viewBox="0 0 1411.5 71">
<defs>
<style type="text/css"><![CDATA[
path {
stroke-width: 3;
stroke: black;
fill: rgba(0,0,0,0);
}
text {
font: bold 14px monospace;
text-anchor: middle;
}
text.diagram-text {
font-size: 12px;
}
a {
fill: blue;
}
text.diagram-arrow {
font-size: 16px;
}
text.label {
text-anchor: start;
}
text.comment {
font: italic 12px monospace;
}
rect {
stroke-width: 3;
stroke: black;
fill: #BCBCBC;
}
path.diagram-text {
stroke-width: 3;
stroke: black;
fill: #BCBCBC;
cursor: help;
}
]]></style>
</defs>
<g transform="translate(.5 .5)">
<g>
<path d="M20 30v20m10 -20v20m-10 -10h20"></path>
</g>
<path d="M40 40h10"></path>
<g>
<path d="M50 40h0"></path>
<path d="M1361.5 40h0"></path>
<g>
<path d="M50 40h0"></path>
<path d="M123 40h0"></path>
<text x="86.5" y="45" class="comment">not Cloud</text>
</g>
<path d="M123 40h10"></path>
<path d="M133 40h10"></path>
<g>
<path d="M143 40h0"></path>
<path d="M1361.5 40h0"></path>
<g class="terminal">
<path d="M143 40h0"></path>
<path d="M350 40h0"></path>
<rect x="143" y="29" width="207" height="22" rx="10" ry="10"></rect>
<text x="246.5" y="44">"DELETE FROM DATABASE"</text>
</g>
<path d="M350 40h10"></path>
<path d="M360 40h10"></path>
<g class="non-terminal">
<path d="M370 40h0"></path>
<path d="M551.5 40h0"></path>
<rect x="370" y="29" width="181.5" height="22"></rect>
<a xlink:href="#/abap/expression/NamespaceSimpleName"><text x="460.75" y="44">NamespaceSimpleName</text>
</a>
</g>
<path d="M551.5 40h10"></path>
<path d="M561.5 40h10"></path>
<g class="terminal">
<path d="M571.5 40h0"></path>
<path d="M693.5 40h0"></path>
<rect x="571.5" y="29" width="122" height="22" rx="10" ry="10"></rect>
<text x="632.5" y="44">!"ParenLeft"</text>
</g>
<path d="M693.5 40h10"></path>
<path d="M703.5 40h10"></path>
<g class="non-terminal">
<path d="M713.5 40h0"></path>
<path d="M818.5 40h0"></path>
<rect x="713.5" y="29" width="105" height="22"></rect>
<a xlink:href="#/abap/expression/SimpleName"><text x="766" y="44">SimpleName</text>
</a>
</g>
<path d="M818.5 40h10"></path>
<path d="M828.5 40h10"></path>
<g class="terminal">
<path d="M838.5 40h0"></path>
<path d="M977.5 40h0"></path>
<rect x="838.5" y="29" width="139" height="22" rx="10" ry="10"></rect>
<text x="908" y="44">!"ParenRightW"</text>
</g>
<path d="M977.5 40h10"></path>
<g>
<path d="M987.5 40h0"></path>
<path d="M1206.5 40h0"></path>
<path d="M987.5 40a10 10 0 0 0 10 -10v0a10 10 0 0 1 10 -10"></path>
<g>
<path d="M1007.5 20h179"></path>
</g>
<path d="M1186.5 20a10 10 0 0 1 10 10v0a10 10 0 0 0 10 10"></path>
<path d="M987.5 40h20"></path>
<g>
<path d="M1007.5 40h0"></path>
<path d="M1186.5 40h0"></path>
<g class="terminal">
<path d="M1007.5 40h0"></path>
<path d="M1095.5 40h0"></path>
<rect x="1007.5" y="29" width="88" height="22" rx="10" ry="10"></rect>
<text x="1051.5" y="44">"CLIENT"</text>
</g>
<path d="M1095.5 40h10"></path>
<path d="M1105.5 40h10"></path>
<g class="non-terminal">
<path d="M1115.5 40h0"></path>
<path d="M1186.5 40h0"></path>
<rect x="1115.5" y="29" width="71" height="22"></rect>
<a xlink:href="#/abap/expression/Source"><text x="1151" y="44">Source</text>
</a>
</g>
</g>
<path d="M1186.5 40h20"></path>
</g>
<path d="M1206.5 40h10"></path>
<g class="terminal">
<path d="M1216.5 40h0"></path>
<path d="M1270.5 40h0"></path>
<rect x="1216.5" y="29" width="54" height="22" rx="10" ry="10"></rect>
<text x="1243.5" y="44">"ID"</text>
</g>
<path d="M1270.5 40h10"></path>
<path d="M1280.5 40h10"></path>
<g class="non-terminal">
<path d="M1290.5 40h0"></path>
<path d="M1361.5 40h0"></path>
<rect x="1290.5" y="29" width="71" height="22"></rect>
<a xlink:href="#/abap/expression/Source"><text x="1326" y="44">Source</text>
</a>
</g>
</g>
</g>
<path d="M1361.5 40h10"></path>
<path d="M 1371.5 40 h 20 m -10 -10 v 20 m 10 -20 v 20"></path>
</g>
</svg>
