<svg xmlns="http://www.w3.org/2000/svg" xmlns:xlink="http://www.w3.org/1999/xlink" class="railroad-diagram" width="925.5" height="62" viewBox="0 0 925.5 62">
<defs>
<style type="text/css"><![CDATA[
path {
stroke-width: 3;
stroke: black;
fill: rgba(0,0,0,0);
}
text {
font: bold 14px monospace;
text-anchor: middle;
}
text.diagram-text {
font-size: 12px;
}
a {
fill: blue;
}
text.diagram-arrow {
font-size: 16px;
}
text.label {
text-anchor: start;
}
text.comment {
font: italic 12px monospace;
}
rect {
stroke-width: 3;
stroke: black;
fill: #BCBCBC;
}
path.diagram-text {
stroke-width: 3;
stroke: black;
fill: #BCBCBC;
cursor: help;
}
]]></style>
</defs>
<g transform="translate(.5 .5)">
<g>
<path d="M20 21v20m10 -20v20m-10 -10h20"></path>
</g>
<path d="M40 31h10"></path>
<g>
<path d="M50 31h0"></path>
<path d="M875.5 31h0"></path>
<g class="comment ">
<path d="M50 31h0"></path>
<path d="M179 31h0"></path>
<text x="114.5" y="36" class="comment">not langver=Cloud</text>
</g>
<path d="M179 31h10"></path>
<path d="M189 31h10"></path>
<g>
<path d="M199 31h0"></path>
<path d="M875.5 31h0"></path>
<g class="terminal ">
<path d="M199 31h0"></path>
<path d="M346.5 31h0"></path>
<rect x="199" y="20" width="147.5" height="22" rx="10" ry="10"></rect>
<text x="272.75" y="35">"EXPORT DYNPRO"</text>
</g>
<path d="M346.5 31h10"></path>
<path d="M356.5 31h10"></path>
<g class="non-terminal ">
<path d="M366.5 31h0"></path>
<path d="M437.5 31h0"></path>
<rect x="366.5" y="20" width="71" height="22"></rect>
<a xlink:href="#/abap/expression/Source"><text x="402" y="35">Source</text>
</a>
</g>
<path d="M437.5 31h10"></path>
<path d="M447.5 31h10"></path>
<g class="non-terminal ">
<path d="M457.5 31h0"></path>
<path d="M528.5 31h0"></path>
<rect x="457.5" y="20" width="71" height="22"></rect>
<a xlink:href="#/abap/expression/Source"><text x="493" y="35">Source</text>
</a>
</g>
<path d="M528.5 31h10"></path>
<path d="M538.5 31h10"></path>
<g class="non-terminal ">
<path d="M548.5 31h0"></path>
<path d="M619.5 31h0"></path>
<rect x="548.5" y="20" width="71" height="22"></rect>
<a xlink:href="#/abap/expression/Source"><text x="584" y="35">Source</text>
</a>
</g>
<path d="M619.5 31h10"></path>
<path d="M629.5 31h10"></path>
<g class="non-terminal ">
<path d="M639.5 31h0"></path>
<path d="M710.5 31h0"></path>
<rect x="639.5" y="20" width="71" height="22"></rect>
<a xlink:href="#/abap/expression/Source"><text x="675" y="35">Source</text>
</a>
</g>
<path d="M710.5 31h10"></path>
<path d="M720.5 31h10"></path>
<g class="terminal ">
<path d="M730.5 31h0"></path>
<path d="M784.5 31h0"></path>
<rect x="730.5" y="20" width="54" height="22" rx="10" ry="10"></rect>
<text x="757.5" y="35">"ID"</text>
</g>
<path d="M784.5 31h10"></path>
<path d="M794.5 31h10"></path>
<g class="non-terminal ">
<path d="M804.5 31h0"></path>
<path d="M875.5 31h0"></path>
<rect x="804.5" y="20" width="71" height="22"></rect>
<a xlink:href="#/abap/expression/Source"><text x="840" y="35">Source</text>
</a>
</g>
</g>
</g>
<path d="M875.5 31h10"></path>
<path d="M 885.5 31 h 20 m -10 -10 v 20 m 10 -20 v 20"></path>
</g>
</svg>
