<svg xmlns="http://www.w3.org/2000/svg" xmlns:xlink="http://www.w3.org/1999/xlink" class="railroad-diagram" width="820.5" height="131" viewBox="0 0 820.5 131">
<defs>
<style type="text/css"><![CDATA[
path {
stroke-width: 3;
stroke: black;
fill: rgba(0,0,0,0);
}
text {
font: bold 14px monospace;
text-anchor: middle;
}
text.diagram-text {
font-size: 12px;
}
a {
fill: blue;
}
text.diagram-arrow {
font-size: 16px;
}
text.label {
text-anchor: start;
}
text.comment {
font: italic 12px monospace;
}
rect {
stroke-width: 3;
stroke: black;
fill: #BCBCBC;
}
path.diagram-text {
stroke-width: 3;
stroke: black;
fill: #BCBCBC;
cursor: help;
}
]]></style>
</defs>
<g transform="translate(.5 .5)">
<g>
<path d="M20 30v20m10 -20v20m-10 -10h20"></path>
</g>
<path d="M40 40h10"></path>
<g>
<path d="M50 40h0"></path>
<path d="M770.5 40h0"></path>
<g class="comment ">
<path d="M50 40h0"></path>
<path d="M179 40h0"></path>
<text x="114.5" y="45" class="comment">not langver=Cloud</text>
</g>
<path d="M179 40h10"></path>
<path d="M189 40h10"></path>
<g>
<path d="M199 40h0"></path>
<path d="M770.5 40h0"></path>
<g class="terminal ">
<path d="M199 40h0"></path>
<path d="M346.5 40h0"></path>
<rect x="199" y="29" width="147.5" height="22" rx="10" ry="10"></rect>
<text x="272.75" y="44">"SET PF-STATUS"</text>
</g>
<path d="M346.5 40h10"></path>
<path d="M356.5 40h10"></path>
<g class="non-terminal ">
<path d="M366.5 40h0"></path>
<path d="M437.5 40h0"></path>
<rect x="366.5" y="29" width="71" height="22"></rect>
<a xlink:href="#/abap/expression/Source"><text x="402" y="44">Source</text>
</a>
</g>
<path d="M437.5 40h10"></path>
<g>
<path d="M447.5 40h0"></path>
<path d="M770.5 40h0"></path>
<path d="M447.5 40a10 10 0 0 0 10 -10v0a10 10 0 0 1 10 -10"></path>
<g>
<path d="M467.5 20h283"></path>
</g>
<path d="M750.5 20a10 10 0 0 1 10 10v0a10 10 0 0 0 10 10"></path>
<path d="M447.5 40h20"></path>
<g>
<path d="M467.5 40h0"></path>
<path d="M750.5 40h0"></path>
<path d="M497.5 40h10"></path>
<g>
<path d="M507.5 40h0"></path>
<path d="M720.5 40h0"></path>
<g class="terminal ">
<path d="M507.5 40h0"></path>
<path d="M629.5 40h0"></path>
<rect x="507.5" y="29" width="122" height="22" rx="10" ry="10"></rect>
<text x="568.5" y="44">"OF PROGRAM"</text>
</g>
<path d="M629.5 40h10"></path>
<path d="M639.5 40h10"></path>
<g class="non-terminal ">
<path d="M649.5 40h0"></path>
<path d="M720.5 40h0"></path>
<rect x="649.5" y="29" width="71" height="22"></rect>
<a xlink:href="#/abap/expression/Source"><text x="685" y="44">Source</text>
</a>
</g>
</g>
<path d="M720.5 40h10"></path>
<path d="M497.5 40v20a10 10 0 0 0 10 10"></path>
<g class="terminal ">
<path d="M507.5 70h41.25"></path>
<path d="M679.25 70h41.25"></path>
<rect x="548.75" y="59" width="130.5" height="22" rx="10" ry="10"></rect>
<text x="614" y="74">"IMMEDIATELY"</text>
</g>
<path d="M720.5 70a10 10 0 0 0 10 -10v-20"></path>
<path d="M497.5 40v50a10 10 0 0 0 10 10"></path>
<g>
<path d="M507.5 100h4.25"></path>
<path d="M716.25 100h4.25"></path>
<g class="terminal ">
<path d="M511.75 100h0"></path>
<path d="M625.25 100h0"></path>
<rect x="511.75" y="89" width="113.5" height="22" rx="10" ry="10"></rect>
<text x="568.5" y="104">"EXCLUDING"</text>
</g>
<path d="M625.25 100h10"></path>
<path d="M635.25 100h10"></path>
<g class="non-terminal ">
<path d="M645.25 100h0"></path>
<path d="M716.25 100h0"></path>
<rect x="645.25" y="89" width="71" height="22"></rect>
<a xlink:href="#/abap/expression/Source"><text x="680.75" y="104">Source</text>
</a>
</g>
</g>
<path d="M720.5 100a10 10 0 0 0 10 -10v-50"></path>
<g class="diagram-text">
<title>take one or more branches, once each, in any order</title>
<path d="M 497.5 30 h -26 a 4 4 0 0 0 -4 4 v 12 a 4 4 0 0 0 4 4 h 26 z" class="diagram-text"></path>
<text x="482.5" y="44" class="diagram-text">1+</text>
<path d="M 730.5 30 h 16 a 4 4 0 0 1 4 4 v 12 a 4 4 0 0 1 -4 4 h -16 z" class="diagram-text"></path>
<path d="M 737.5 38 a 4 4 0 1 0 6 -1 m 2.75 -1 h -4 v 4 m 0 -3 h 2" style="stroke-width: 1.75"></path>
</g>
</g>
<path d="M750.5 40h20"></path>
</g>
</g>
</g>
<path d="M770.5 40h10"></path>
<path d="M 780.5 40 h 20 m -10 -10 v 20 m 10 -20 v 20"></path>
</g>
</svg>
