<svg xmlns="http://www.w3.org/2000/svg" xmlns:xlink="http://www.w3.org/1999/xlink" class="railroad-diagram" width="1091.5" height="551" viewBox="0 0 1091.5 551">
<defs>
<style type="text/css"><![CDATA[
path {
stroke-width: 3;
stroke: black;
fill: rgba(0,0,0,0);
}
text {
font: bold 14px monospace;
text-anchor: middle;
}
text.diagram-text {
font-size: 12px;
}
a {
fill: blue;
}
text.diagram-arrow {
font-size: 16px;
}
text.label {
text-anchor: start;
}
text.comment {
font: italic 12px monospace;
}
rect {
stroke-width: 3;
stroke: black;
fill: #BCBCBC;
}
path.diagram-text {
stroke-width: 3;
stroke: black;
fill: #BCBCBC;
cursor: help;
}
]]></style>
</defs>
<g transform="translate(.5 .5)">
<g>
<path d="M20 30v20m10 -20v20m-10 -10h20"></path>
</g>
<path d="M40 40h10"></path>
<g>
<path d="M50 40h0"></path>
<path d="M1041.5 40h0"></path>
<g class="terminal ">
<path d="M50 40h0"></path>
<path d="M129.5 40h0"></path>
<rect x="50" y="29" width="79.5" height="22" rx="10" ry="10"></rect>
<text x="89.75" y="44">"CLASS"</text>
</g>
<path d="M129.5 40h10"></path>
<path d="M139.5 40h10"></path>
<g class="non-terminal ">
<path d="M149.5 40h0"></path>
<path d="M246 40h0"></path>
<rect x="149.5" y="29" width="96.5" height="22"></rect>
<a xlink:href="#/abap/expression/ClassName"><text x="197.75" y="44">ClassName</text>
</a>
</g>
<path d="M246 40h10"></path>
<path d="M256 40h10"></path>
<g>
<path d="M266 40h0"></path>
<path d="M1041.5 40h0"></path>
<g class="terminal ">
<path d="M266 40h0"></path>
<path d="M388 40h0"></path>
<rect x="266" y="29" width="122" height="22" rx="10" ry="10"></rect>
<text x="327" y="44">"DEFINITION"</text>
</g>
<path d="M388 40h10"></path>
<g>
<path d="M398 40h0"></path>
<path d="M1041.5 40h0"></path>
<path d="M398 40a10 10 0 0 0 10 -10v0a10 10 0 0 1 10 -10"></path>
<g>
<path d="M418 20h603.5"></path>
</g>
<path d="M1021.5 20a10 10 0 0 1 10 10v0a10 10 0 0 0 10 10"></path>
<path d="M398 40h20"></path>
<g>
<path d="M418 40h0"></path>
<path d="M1021.5 40h0"></path>
<path d="M448 40h10"></path>
<g class="non-terminal ">
<path d="M458 40h210"></path>
<path d="M781.5 40h210"></path>
<rect x="668" y="29" width="113.5" height="22"></rect>
<a xlink:href="#/abap/expression/ClassGlobal"><text x="724.75" y="44">ClassGlobal</text>
</a>
</g>
<path d="M991.5 40h10"></path>
<path d="M448 40v20a10 10 0 0 0 10 10"></path>
<g class="non-terminal ">
<path d="M458 70h214.25"></path>
<path d="M777.25 70h214.25"></path>
<rect x="672.25" y="59" width="105" height="22"></rect>
<a xlink:href="#/abap/expression/ClassFinal"><text x="724.75" y="74">ClassFinal</text>
</a>
</g>
<path d="M991.5 70a10 10 0 0 0 10 -10v-20"></path>
<path d="M448 40v50a10 10 0 0 0 10 10"></path>
<g class="terminal ">
<path d="M458 100h214.25"></path>
<path d="M777.25 100h214.25"></path>
<rect x="672.25" y="89" width="105" height="22" rx="10" ry="10"></rect>
<text x="724.75" y="104">"ABSTRACT"</text>
</g>
<path d="M991.5 100a10 10 0 0 0 10 -10v-50"></path>
<path d="M448 40v80a10 10 0 0 0 10 10"></path>
<g>
<path d="M458 130h105"></path>
<path d="M886.5 130h105"></path>
<g class="terminal ">
<path d="M563 130h0"></path>
<path d="M727.5 130h0"></path>
<rect x="563" y="119" width="164.5" height="22" rx="10" ry="10"></rect>
<text x="645.25" y="134">"INHERITING FROM"</text>
</g>
<path d="M727.5 130h10"></path>
<path d="M737.5 130h10"></path>
<g class="non-terminal ">
<path d="M747.5 130h0"></path>
<path d="M886.5 130h0"></path>
<rect x="747.5" y="119" width="139" height="22"></rect>
<a xlink:href="#/abap/expression/SuperClassName"><text x="817" y="134">SuperClassName</text>
</a>
</g>
</g>
<path d="M991.5 130a10 10 0 0 0 10 -10v-80"></path>
<path d="M448 40v110a10 10 0 0 0 10 10"></path>
<g>
<path d="M458 160h141"></path>
<path d="M850.5 160h141"></path>
<g class="terminal ">
<path d="M599 160h0"></path>
<path d="M687 160h0"></path>
<rect x="599" y="149" width="88" height="22" rx="10" ry="10"></rect>
<text x="643" y="164">"CREATE"</text>
</g>
<path d="M687 160h10"></path>
<g>
<path d="M697 160h0"></path>
<path d="M850.5 160h0"></path>
<path d="M697 160h20"></path>
<g class="terminal ">
<path d="M717 160h12.75"></path>
<path d="M817.75 160h12.75"></path>
<rect x="729.75" y="149" width="88" height="22" rx="10" ry="10"></rect>
<text x="773.75" y="164">"PUBLIC"</text>
</g>
<path d="M830.5 160h20"></path>
<path d="M697 160a10 10 0 0 1 10 10v10a10 10 0 0 0 10 10"></path>
<g class="terminal ">
<path d="M717 190h0"></path>
<path d="M830.5 190h0"></path>
<rect x="717" y="179" width="113.5" height="22" rx="10" ry="10"></rect>
<text x="773.75" y="194">"PROTECTED"</text>
</g>
<path d="M830.5 190a10 10 0 0 0 10 -10v-10a10 10 0 0 1 10 -10"></path>
<path d="M697 160a10 10 0 0 1 10 10v40a10 10 0 0 0 10 10"></path>
<g class="terminal ">
<path d="M717 220h8.5"></path>
<path d="M822 220h8.5"></path>
<rect x="725.5" y="209" width="96.5" height="22" rx="10" ry="10"></rect>
<text x="773.75" y="224">"PRIVATE"</text>
</g>
<path d="M830.5 220a10 10 0 0 0 10 -10v-40a10 10 0 0 1 10 -10"></path>
</g>
</g>
<path d="M991.5 160a10 10 0 0 0 10 -10v-110"></path>
<path d="M448 40v200a10 10 0 0 0 10 10"></path>
<g class="terminal ">
<path d="M458 250h201.5"></path>
<path d="M790 250h201.5"></path>
<rect x="659.5" y="239" width="130.5" height="22" rx="10" ry="10"></rect>
<text x="724.75" y="254">"FOR TESTING"</text>
</g>
<path d="M991.5 250a10 10 0 0 0 10 -10v-200"></path>
<path d="M448 40v230a10 10 0 0 0 10 10"></path>
<g>
<path d="M458 280h124"></path>
<path d="M867.5 280h124"></path>
<g class="terminal ">
<path d="M582 280h0"></path>
<path d="M704 280h0"></path>
<rect x="582" y="269" width="122" height="22" rx="10" ry="10"></rect>
<text x="643" y="284">"RISK LEVEL"</text>
</g>
<path d="M704 280h10"></path>
<g>
<path d="M714 280h0"></path>
<path d="M867.5 280h0"></path>
<path d="M714 280h20"></path>
<g class="terminal ">
<path d="M734 280h4.25"></path>
<path d="M843.25 280h4.25"></path>
<rect x="738.25" y="269" width="105" height="22" rx="10" ry="10"></rect>
<text x="790.75" y="284">"CRITICAL"</text>
</g>
<path d="M847.5 280h20"></path>
<path d="M714 280a10 10 0 0 1 10 10v10a10 10 0 0 0 10 10"></path>
<g class="terminal ">
<path d="M734 310h4.25"></path>
<path d="M843.25 310h4.25"></path>
<rect x="738.25" y="299" width="105" height="22" rx="10" ry="10"></rect>
<text x="790.75" y="314">"HARMLESS"</text>
</g>
<path d="M847.5 310a10 10 0 0 0 10 -10v-10a10 10 0 0 1 10 -10"></path>
<path d="M714 280a10 10 0 0 1 10 10v40a10 10 0 0 0 10 10"></path>
<g class="terminal ">
<path d="M734 340h0"></path>
<path d="M847.5 340h0"></path>
<rect x="734" y="329" width="113.5" height="22" rx="10" ry="10"></rect>
<text x="790.75" y="344">"DANGEROUS"</text>
</g>
<path d="M847.5 340a10 10 0 0 0 10 -10v-40a10 10 0 0 1 10 -10"></path>
</g>
</g>
<path d="M991.5 280a10 10 0 0 0 10 -10v-230"></path>
<path d="M448 40v320a10 10 0 0 0 10 10"></path>
<g class="terminal ">
<path d="M458 370h159"></path>
<path d="M832.5 370h159"></path>
<rect x="617" y="359" width="215.5" height="22" rx="10" ry="10"></rect>
<text x="724.75" y="374">"SHARED MEMORY ENABLED"</text>
</g>
<path d="M991.5 370a10 10 0 0 0 10 -10v-320"></path>
<path d="M448 40v350a10 10 0 0 0 10 10"></path>
<g>
<path d="M458 400h145.25"></path>
<path d="M846.25 400h145.25"></path>
<g class="terminal ">
<path d="M603.25 400h0"></path>
<path d="M708.25 400h0"></path>
<rect x="603.25" y="389" width="105" height="22" rx="10" ry="10"></rect>
<text x="655.75" y="404">"DURATION"</text>
</g>
<path d="M708.25 400h10"></path>
<g>
<path d="M718.25 400h0"></path>
<path d="M846.25 400h0"></path>
<path d="M718.25 400h20"></path>
<g class="terminal ">
<path d="M738.25 400h8.5"></path>
<path d="M817.75 400h8.5"></path>
<rect x="746.75" y="389" width="71" height="22" rx="10" ry="10"></rect>
<text x="782.25" y="404">"LONG"</text>
</g>
<path d="M826.25 400h20"></path>
<path d="M718.25 400a10 10 0 0 1 10 10v10a10 10 0 0 0 10 10"></path>
<g class="terminal ">
<path d="M738.25 430h0"></path>
<path d="M826.25 430h0"></path>
<rect x="738.25" y="419" width="88" height="22" rx="10" ry="10"></rect>
<text x="782.25" y="434">"MEDIUM"</text>
</g>
<path d="M826.25 430a10 10 0 0 0 10 -10v-10a10 10 0 0 1 10 -10"></path>
<path d="M718.25 400a10 10 0 0 1 10 10v40a10 10 0 0 0 10 10"></path>
<g class="terminal ">
<path d="M738.25 460h4.25"></path>
<path d="M822 460h4.25"></path>
<rect x="742.5" y="449" width="79.5" height="22" rx="10" ry="10"></rect>
<text x="782.25" y="464">"SHORT"</text>
</g>
<path d="M826.25 460a10 10 0 0 0 10 -10v-40a10 10 0 0 1 10 -10"></path>
</g>
</g>
<path d="M991.5 400a10 10 0 0 0 10 -10v-350"></path>
<path d="M448 40v440a10 10 0 0 0 10 10"></path>
<g>
<path d="M458 490h0"></path>
<path d="M991.5 490h0"></path>
<g class="comment ">
<path d="M458 490h0"></path>
<path d="M580 490h0"></path>
<text x="519" y="495" class="comment">7.77 or OpenABAP</text>
</g>
<path d="M580 490h10"></path>
<path d="M590 490h10"></path>
<g>
<path d="M600 490h0"></path>
<path d="M991.5 490h0"></path>
<g class="terminal ">
<path d="M600 490h0"></path>
<path d="M764.5 490h0"></path>
<rect x="600" y="479" width="164.5" height="22" rx="10" ry="10"></rect>
<text x="682.25" y="494">"FOR BEHAVIOR OF"</text>
</g>
<path d="M764.5 490h10"></path>
<path d="M774.5 490h10"></path>
<g class="non-terminal ">
<path d="M784.5 490h0"></path>
<path d="M991.5 490h0"></path>
<rect x="784.5" y="479" width="207" height="22"></rect>
<a xlink:href="#/abap/expression/BehaviorDefinitionName"><text x="888" y="494">BehaviorDefinitionName</text>
</a>
</g>
</g>
</g>
<path d="M991.5 490a10 10 0 0 0 10 -10v-440"></path>
<path d="M448 40v470a10 10 0 0 0 10 10"></path>
<g class="non-terminal ">
<path d="M458 520h205.75"></path>
<path d="M785.75 520h205.75"></path>
<rect x="663.75" y="509" width="122" height="22"></rect>
<a xlink:href="#/abap/expression/ClassFriends"><text x="724.75" y="524">ClassFriends</text>
</a>
</g>
<path d="M991.5 520a10 10 0 0 0 10 -10v-470"></path>
<g class="diagram-text">
<title>take one or more branches, once each, in any order</title>
<path d="M 448 30 h -26 a 4 4 0 0 0 -4 4 v 12 a 4 4 0 0 0 4 4 h 26 z" class="diagram-text"></path>
<text x="433" y="44" class="diagram-text">1+</text>
<path d="M 1001.5 30 h 16 a 4 4 0 0 1 4 4 v 12 a 4 4 0 0 1 -4 4 h -16 z" class="diagram-text"></path>
<path d="M 1008.5 38 a 4 4 0 1 0 6 -1 m 2.75 -1 h -4 v 4 m 0 -3 h 2" style="stroke-width: 1.75"></path>
</g>
</g>
<path d="M1021.5 40h20"></path>
</g>
</g>
</g>
<path d="M1041.5 40h10"></path>
<path d="M 1051.5 40 h 20 m -10 -10 v 20 m 10 -20 v 20"></path>
</g>
</svg>
