<svg xmlns="http://www.w3.org/2000/svg" xmlns:xlink="http://www.w3.org/1999/xlink" class="railroad-diagram" width="624" height="62" viewBox="0 0 624 62">
<defs>
<style type="text/css"><![CDATA[
path {
stroke-width: 3;
stroke: black;
fill: rgba(0,0,0,0);
}
text {
font: bold 14px monospace;
text-anchor: middle;
}
text.diagram-text {
font-size: 12px;
}
a {
fill: blue;
}
text.diagram-arrow {
font-size: 16px;
}
text.label {
text-anchor: start;
}
text.comment {
font: italic 12px monospace;
}
rect {
stroke-width: 3;
stroke: black;
fill: #BCBCBC;
}
path.diagram-text {
stroke-width: 3;
stroke: black;
fill: #BCBCBC;
cursor: help;
}
]]></style>
</defs>
<g transform="translate(.5 .5)">
<g>
<path d="M20 21v20m10 -20v20m-10 -10h20"></path>
</g>
<path d="M40 31h10"></path>
<g>
<path d="M50 31h0"></path>
<path d="M574 31h0"></path>
<g class="comment ">
<path d="M50 31h0"></path>
<path d="M193 31h0"></path>
<text x="121.5" y="36" class="comment">not langver=KeyUser</text>
</g>
<path d="M193 31h10"></path>
<path d="M203 31h10"></path>
<g>
<path d="M213 31h0"></path>
<path d="M574 31h0"></path>
<g class="terminal ">
<path d="M213 31h0"></path>
<path d="M318 31h0"></path>
<rect x="213" y="20" width="105" height="22" rx="10" ry="10"></rect>
<text x="265.5" y="35">"MULTIPLY"</text>
</g>
<path d="M318 31h10"></path>
<path d="M328 31h10"></path>
<g class="non-terminal ">
<path d="M338 31h0"></path>
<path d="M409 31h0"></path>
<rect x="338" y="20" width="71" height="22"></rect>
<a xlink:href="#/abap/expression/Target"><text x="373.5" y="35">Target</text>
</a>
</g>
<path d="M409 31h10"></path>
<path d="M419 31h10"></path>
<g class="terminal ">
<path d="M429 31h0"></path>
<path d="M483 31h0"></path>
<rect x="429" y="20" width="54" height="22" rx="10" ry="10"></rect>
<text x="456" y="35">"BY"</text>
</g>
<path d="M483 31h10"></path>
<path d="M493 31h10"></path>
<g class="non-terminal ">
<path d="M503 31h0"></path>
<path d="M574 31h0"></path>
<rect x="503" y="20" width="71" height="22"></rect>
<a xlink:href="#/abap/expression/Source"><text x="538.5" y="35">Source</text>
</a>
</g>
</g>
</g>
<path d="M574 31h10"></path>
<path d="M 584 31 h 20 m -10 -10 v 20 m 10 -20 v 20"></path>
</g>
</svg>
