<svg xmlns="http://www.w3.org/2000/svg" xmlns:xlink="http://www.w3.org/1999/xlink" class="railroad-diagram" width="1422.5" height="1951" viewBox="0 0 1422.5 1951">
<defs>
<style type="text/css"><![CDATA[
path {
stroke-width: 3;
stroke: black;
fill: rgba(0,0,0,0);
}
text {
font: bold 14px monospace;
text-anchor: middle;
}
text.diagram-text {
font-size: 12px;
}
a {
fill: blue;
}
text.diagram-arrow {
font-size: 16px;
}
text.label {
text-anchor: start;
}
text.comment {
font: italic 12px monospace;
}
rect {
stroke-width: 3;
stroke: black;
fill: #BCBCBC;
}
path.diagram-text {
stroke-width: 3;
stroke: black;
fill: #BCBCBC;
cursor: help;
}
]]></style>
</defs>
<g transform="translate(.5 .5)">
<g>
<path d="M20 38v20m10 -20v20m-10 -10h20"></path>
</g>
<path d="M40 48h10"></path>
<g>
<path d="M50 48h0"></path>
<path d="M1372.5 48h0"></path>
<g class="comment ">
<path d="M50 48h0"></path>
<path d="M179 48h0"></path>
<text x="114.5" y="53" class="comment">not langver=Cloud</text>
</g>
<path d="M179 48h10"></path>
<path d="M189 48h10"></path>
<g>
<path d="M199 48h0"></path>
<path d="M1372.5 48h0"></path>
<g class="terminal ">
<path d="M199 48h0"></path>
<path d="M287 48h0"></path>
<rect x="199" y="37" width="88" height="22" rx="10" ry="10"></rect>
<text x="243" y="52">"SUBMIT"</text>
</g>
<path d="M287 48h10"></path>
<g>
<path d="M297 48h0"></path>
<path d="M450.5 48h0"></path>
<path d="M297 48h20"></path>
<g class="non-terminal ">
<path d="M317 48h0"></path>
<path d="M430.5 48h0"></path>
<rect x="317" y="37" width="113.5" height="22"></rect>
<a xlink:href="#/abap/expression/IncludeName"><text x="373.75" y="52">IncludeName</text>
</a>
</g>
<path d="M430.5 48h20"></path>
<path d="M297 48a10 10 0 0 1 10 10v10a10 10 0 0 0 10 10"></path>
<g class="non-terminal ">
<path d="M317 78h17"></path>
<path d="M413.5 78h17"></path>
<rect x="334" y="67" width="79.5" height="22"></rect>
<a xlink:href="#/abap/expression/Dynamic"><text x="373.75" y="82">Dynamic</text>
</a>
</g>
<path d="M430.5 78a10 10 0 0 0 10 -10v-10a10 10 0 0 1 10 -10"></path>
</g>
<g>
<path d="M450.5 48h0"></path>
<path d="M1372.5 48h0"></path>
<path d="M450.5 48a10 10 0 0 0 10 -10v-8a10 10 0 0 1 10 -10"></path>
<g>
<path d="M470.5 20h882"></path>
</g>
<path d="M1352.5 20a10 10 0 0 1 10 10v8a10 10 0 0 0 10 10"></path>
<path d="M450.5 48h20"></path>
<g>
<path d="M470.5 48h0"></path>
<path d="M1352.5 48h0"></path>
<path d="M500.5 48h10"></path>
<g>
<path d="M510.5 48h0"></path>
<path d="M1322.5 48h0"></path>
<path d="M510.5 48h10"></path>
<g>
<path d="M520.5 48h0"></path>
<path d="M1312.5 48h0"></path>
<g class="terminal ">
<path d="M520.5 48h0"></path>
<path d="M591.5 48h0"></path>
<rect x="520.5" y="37" width="71" height="22" rx="10" ry="10"></rect>
<text x="556" y="52">"WITH"</text>
</g>
<path d="M591.5 48h10"></path>
<path d="M601.5 48h10"></path>
<g class="non-terminal ">
<path d="M611.5 48h0"></path>
<path d="M699.5 48h0"></path>
<rect x="611.5" y="37" width="88" height="22"></rect>
<a xlink:href="#/abap/expression/FieldSub"><text x="655.5" y="52">FieldSub</text>
</a>
</g>
<path d="M699.5 48h10"></path>
<g>
<path d="M709.5 48h0"></path>
<path d="M1110.5 48h0"></path>
<path d="M709.5 48h20"></path>
<g>
<path d="M729.5 48h84.5"></path>
<path d="M1006 48h84.5"></path>
<g>
<path d="M814 48h0"></path>
<path d="M925 48h0"></path>
<path d="M814 48h20"></path>
<g class="terminal ">
<path d="M834 48h12.75"></path>
<path d="M892.25 48h12.75"></path>
<rect x="846.75" y="37" width="45.5" height="22" rx="10" ry="10"></rect>
<text x="869.5" y="52">"="</text>
</g>
<path d="M905 48h20"></path>
<path d="M814 48a10 10 0 0 1 10 10v10a10 10 0 0 0 10 10"></path>
<g class="terminal ">
<path d="M834 78h8.5"></path>
<path d="M896.5 78h8.5"></path>
<rect x="842.5" y="67" width="54" height="22" rx="10" ry="10"></rect>
<text x="869.5" y="82">"EQ"</text>
</g>
<path d="M905 78a10 10 0 0 0 10 -10v-10a10 10 0 0 1 10 -10"></path>
<path d="M814 48a10 10 0 0 1 10 10v40a10 10 0 0 0 10 10"></path>
<g class="terminal ">
<path d="M834 108h8.5"></path>
<path d="M896.5 108h8.5"></path>
<rect x="842.5" y="97" width="54" height="22" rx="10" ry="10"></rect>
<text x="869.5" y="112">"IN"</text>
</g>
<path d="M905 108a10 10 0 0 0 10 -10v-40a10 10 0 0 1 10 -10"></path>
<path d="M814 48a10 10 0 0 1 10 10v70a10 10 0 0 0 10 10"></path>
<g class="terminal ">
<path d="M834 138h8.5"></path>
<path d="M896.5 138h8.5"></path>
<rect x="842.5" y="127" width="54" height="22" rx="10" ry="10"></rect>
<text x="869.5" y="142">"NE"</text>
</g>
<path d="M905 138a10 10 0 0 0 10 -10v-70a10 10 0 0 1 10 -10"></path>
<path d="M814 48a10 10 0 0 1 10 10v100a10 10 0 0 0 10 10"></path>
<g class="terminal ">
<path d="M834 168h8.5"></path>
<path d="M896.5 168h8.5"></path>
<rect x="842.5" y="157" width="54" height="22" rx="10" ry="10"></rect>
<text x="869.5" y="172">"CP"</text>
</g>
<path d="M905 168a10 10 0 0 0 10 -10v-100a10 10 0 0 1 10 -10"></path>
<path d="M814 48a10 10 0 0 1 10 10v130a10 10 0 0 0 10 10"></path>
<g class="terminal ">
<path d="M834 198h8.5"></path>
<path d="M896.5 198h8.5"></path>
<rect x="842.5" y="187" width="54" height="22" rx="10" ry="10"></rect>
<text x="869.5" y="202">"GE"</text>
</g>
<path d="M905 198a10 10 0 0 0 10 -10v-130a10 10 0 0 1 10 -10"></path>
<path d="M814 48a10 10 0 0 1 10 10v160a10 10 0 0 0 10 10"></path>
<g class="terminal ">
<path d="M834 228h8.5"></path>
<path d="M896.5 228h8.5"></path>
<rect x="842.5" y="217" width="54" height="22" rx="10" ry="10"></rect>
<text x="869.5" y="232">"LE"</text>
</g>
<path d="M905 228a10 10 0 0 0 10 -10v-160a10 10 0 0 1 10 -10"></path>
<path d="M814 48a10 10 0 0 1 10 10v190a10 10 0 0 0 10 10"></path>
<g class="terminal ">
<path d="M834 258h0"></path>
<path d="M905 258h0"></path>
<rect x="834" y="247" width="71" height="22" rx="10" ry="10"></rect>
<text x="869.5" y="262">"INCL"</text>
</g>
<path d="M905 258a10 10 0 0 0 10 -10v-190a10 10 0 0 1 10 -10"></path>
<path d="M814 48a10 10 0 0 1 10 10v220a10 10 0 0 0 10 10"></path>
<g class="terminal ">
<path d="M834 288h8.5"></path>
<path d="M896.5 288h8.5"></path>
<rect x="842.5" y="277" width="54" height="22" rx="10" ry="10"></rect>
<text x="869.5" y="292">"GT"</text>
</g>
<path d="M905 288a10 10 0 0 0 10 -10v-220a10 10 0 0 1 10 -10"></path>
<path d="M814 48a10 10 0 0 1 10 10v250a10 10 0 0 0 10 10"></path>
<g class="terminal ">
<path d="M834 318h8.5"></path>
<path d="M896.5 318h8.5"></path>
<rect x="842.5" y="307" width="54" height="22" rx="10" ry="10"></rect>
<text x="869.5" y="322">"LT"</text>
</g>
<path d="M905 318a10 10 0 0 0 10 -10v-250a10 10 0 0 1 10 -10"></path>
</g>
<path d="M925 48h10"></path>
<g class="non-terminal ">
<path d="M935 48h0"></path>
<path d="M1006 48h0"></path>
<rect x="935" y="37" width="71" height="22"></rect>
<a xlink:href="#/abap/expression/Source"><text x="970.5" y="52">Source</text>
</a>
</g>
</g>
<path d="M1090.5 48h20"></path>
<path d="M709.5 48a10 10 0 0 1 10 10v280a10 10 0 0 0 10 10"></path>
<g>
<path d="M729.5 348h0"></path>
<path d="M1090.5 348h0"></path>
<g class="terminal ">
<path d="M729.5 348h0"></path>
<path d="M826 348h0"></path>
<rect x="729.5" y="337" width="96.5" height="22" rx="10" ry="10"></rect>
<text x="777.75" y="352">"BETWEEN"</text>
</g>
<path d="M826 348h10"></path>
<path d="M836 348h10"></path>
<g class="non-terminal ">
<path d="M846 348h0"></path>
<path d="M917 348h0"></path>
<rect x="846" y="337" width="71" height="22"></rect>
<a xlink:href="#/abap/expression/Source"><text x="881.5" y="352">Source</text>
</a>
</g>
<path d="M917 348h10"></path>
<path d="M927 348h10"></path>
<g class="terminal ">
<path d="M937 348h0"></path>
<path d="M999.5 348h0"></path>
<rect x="937" y="337" width="62.5" height="22" rx="10" ry="10"></rect>
<text x="968.25" y="352">"AND"</text>
</g>
<path d="M999.5 348h10"></path>
<path d="M1009.5 348h10"></path>
<g class="non-terminal ">
<path d="M1019.5 348h0"></path>
<path d="M1090.5 348h0"></path>
<rect x="1019.5" y="337" width="71" height="22"></rect>
<a xlink:href="#/abap/expression/Source"><text x="1055" y="352">Source</text>
</a>
</g>
</g>
<path d="M1090.5 348a10 10 0 0 0 10 -10v-280a10 10 0 0 1 10 -10"></path>
</g>
<g>
<path d="M1110.5 48h0"></path>
<path d="M1312.5 48h0"></path>
<path d="M1110.5 48a10 10 0 0 0 10 -10v0a10 10 0 0 1 10 -10"></path>
<g>
<path d="M1130.5 28h162"></path>
</g>
<path d="M1292.5 28a10 10 0 0 1 10 10v0a10 10 0 0 0 10 10"></path>
<path d="M1110.5 48h20"></path>
<g>
<path d="M1130.5 48h0"></path>
<path d="M1292.5 48h0"></path>
<g class="terminal ">
<path d="M1130.5 48h0"></path>
<path d="M1201.5 48h0"></path>
<rect x="1130.5" y="37" width="71" height="22" rx="10" ry="10"></rect>
<text x="1166" y="52">"SIGN"</text>
</g>
<path d="M1201.5 48h10"></path>
<path d="M1211.5 48h10"></path>
<g class="non-terminal ">
<path d="M1221.5 48h0"></path>
<path d="M1292.5 48h0"></path>
<rect x="1221.5" y="37" width="71" height="22"></rect>
<a xlink:href="#/abap/expression/Source"><text x="1257" y="52">Source</text>
</a>
</g>
</g>
<path d="M1292.5 48h20"></path>
</g>
</g>
<path d="M1312.5 48h10"></path>
<path d="M520.5 48a10 10 0 0 0 -10 10v299a10 10 0 0 0 10 10"></path>
<g>
<path d="M520.5 367h792"></path>
</g>
<path d="M1312.5 367a10 10 0 0 0 10 -10v-299a10 10 0 0 0 -10 -10"></path>
</g>
<path d="M1322.5 48h10"></path>
<path d="M500.5 48v328a10 10 0 0 0 10 10"></path>
<g>
<path d="M510.5 386h257"></path>
<path d="M1065.5 386h257"></path>
<g class="terminal ">
<path d="M767.5 386h0"></path>
<path d="M974.5 386h0"></path>
<rect x="767.5" y="375" width="207" height="22" rx="10" ry="10"></rect>
<text x="871" y="390">"WITH SELECTION-TABLE"</text>
</g>
<path d="M974.5 386h10"></path>
<path d="M984.5 386h10"></path>
<g class="non-terminal ">
<path d="M994.5 386h0"></path>
<path d="M1065.5 386h0"></path>
<rect x="994.5" y="375" width="71" height="22"></rect>
<a xlink:href="#/abap/expression/Source"><text x="1030" y="390">Source</text>
</a>
</g>
</g>
<path d="M1322.5 386a10 10 0 0 0 10 -10v-328"></path>
<path d="M500.5 48v367a10 10 0 0 0 10 10"></path>
<g>
<path d="M510.5 425h0"></path>
<path d="M1322.5 425h0"></path>
<path d="M510.5 425h10"></path>
<g>
<path d="M520.5 425h0"></path>
<path d="M1312.5 425h0"></path>
<g class="terminal ">
<path d="M520.5 425h0"></path>
<path d="M591.5 425h0"></path>
<rect x="520.5" y="414" width="71" height="22" rx="10" ry="10"></rect>
<text x="556" y="429">"WITH"</text>
</g>
<path d="M591.5 425h10"></path>
<path d="M601.5 425h10"></path>
<g class="non-terminal ">
<path d="M611.5 425h0"></path>
<path d="M699.5 425h0"></path>
<rect x="611.5" y="414" width="88" height="22"></rect>
<a xlink:href="#/abap/expression/FieldSub"><text x="655.5" y="429">FieldSub</text>
</a>
</g>
<path d="M699.5 425h10"></path>
<g>
<path d="M709.5 425h0"></path>
<path d="M1110.5 425h0"></path>
<path d="M709.5 425h20"></path>
<g>
<path d="M729.5 425h84.5"></path>
<path d="M1006 425h84.5"></path>
<g>
<path d="M814 425h0"></path>
<path d="M925 425h0"></path>
<path d="M814 425h20"></path>
<g class="terminal ">
<path d="M834 425h12.75"></path>
<path d="M892.25 425h12.75"></path>
<rect x="846.75" y="414" width="45.5" height="22" rx="10" ry="10"></rect>
<text x="869.5" y="429">"="</text>
</g>
<path d="M905 425h20"></path>
<path d="M814 425a10 10 0 0 1 10 10v10a10 10 0 0 0 10 10"></path>
<g class="terminal ">
<path d="M834 455h8.5"></path>
<path d="M896.5 455h8.5"></path>
<rect x="842.5" y="444" width="54" height="22" rx="10" ry="10"></rect>
<text x="869.5" y="459">"EQ"</text>
</g>
<path d="M905 455a10 10 0 0 0 10 -10v-10a10 10 0 0 1 10 -10"></path>
<path d="M814 425a10 10 0 0 1 10 10v40a10 10 0 0 0 10 10"></path>
<g class="terminal ">
<path d="M834 485h8.5"></path>
<path d="M896.5 485h8.5"></path>
<rect x="842.5" y="474" width="54" height="22" rx="10" ry="10"></rect>
<text x="869.5" y="489">"IN"</text>
</g>
<path d="M905 485a10 10 0 0 0 10 -10v-40a10 10 0 0 1 10 -10"></path>
<path d="M814 425a10 10 0 0 1 10 10v70a10 10 0 0 0 10 10"></path>
<g class="terminal ">
<path d="M834 515h8.5"></path>
<path d="M896.5 515h8.5"></path>
<rect x="842.5" y="504" width="54" height="22" rx="10" ry="10"></rect>
<text x="869.5" y="519">"NE"</text>
</g>
<path d="M905 515a10 10 0 0 0 10 -10v-70a10 10 0 0 1 10 -10"></path>
<path d="M814 425a10 10 0 0 1 10 10v100a10 10 0 0 0 10 10"></path>
<g class="terminal ">
<path d="M834 545h8.5"></path>
<path d="M896.5 545h8.5"></path>
<rect x="842.5" y="534" width="54" height="22" rx="10" ry="10"></rect>
<text x="869.5" y="549">"CP"</text>
</g>
<path d="M905 545a10 10 0 0 0 10 -10v-100a10 10 0 0 1 10 -10"></path>
<path d="M814 425a10 10 0 0 1 10 10v130a10 10 0 0 0 10 10"></path>
<g class="terminal ">
<path d="M834 575h8.5"></path>
<path d="M896.5 575h8.5"></path>
<rect x="842.5" y="564" width="54" height="22" rx="10" ry="10"></rect>
<text x="869.5" y="579">"GE"</text>
</g>
<path d="M905 575a10 10 0 0 0 10 -10v-130a10 10 0 0 1 10 -10"></path>
<path d="M814 425a10 10 0 0 1 10 10v160a10 10 0 0 0 10 10"></path>
<g class="terminal ">
<path d="M834 605h8.5"></path>
<path d="M896.5 605h8.5"></path>
<rect x="842.5" y="594" width="54" height="22" rx="10" ry="10"></rect>
<text x="869.5" y="609">"LE"</text>
</g>
<path d="M905 605a10 10 0 0 0 10 -10v-160a10 10 0 0 1 10 -10"></path>
<path d="M814 425a10 10 0 0 1 10 10v190a10 10 0 0 0 10 10"></path>
<g class="terminal ">
<path d="M834 635h0"></path>
<path d="M905 635h0"></path>
<rect x="834" y="624" width="71" height="22" rx="10" ry="10"></rect>
<text x="869.5" y="639">"INCL"</text>
</g>
<path d="M905 635a10 10 0 0 0 10 -10v-190a10 10 0 0 1 10 -10"></path>
<path d="M814 425a10 10 0 0 1 10 10v220a10 10 0 0 0 10 10"></path>
<g class="terminal ">
<path d="M834 665h8.5"></path>
<path d="M896.5 665h8.5"></path>
<rect x="842.5" y="654" width="54" height="22" rx="10" ry="10"></rect>
<text x="869.5" y="669">"GT"</text>
</g>
<path d="M905 665a10 10 0 0 0 10 -10v-220a10 10 0 0 1 10 -10"></path>
<path d="M814 425a10 10 0 0 1 10 10v250a10 10 0 0 0 10 10"></path>
<g class="terminal ">
<path d="M834 695h8.5"></path>
<path d="M896.5 695h8.5"></path>
<rect x="842.5" y="684" width="54" height="22" rx="10" ry="10"></rect>
<text x="869.5" y="699">"LT"</text>
</g>
<path d="M905 695a10 10 0 0 0 10 -10v-250a10 10 0 0 1 10 -10"></path>
</g>
<path d="M925 425h10"></path>
<g class="non-terminal ">
<path d="M935 425h0"></path>
<path d="M1006 425h0"></path>
<rect x="935" y="414" width="71" height="22"></rect>
<a xlink:href="#/abap/expression/Source"><text x="970.5" y="429">Source</text>
</a>
</g>
</g>
<path d="M1090.5 425h20"></path>
<path d="M709.5 425a10 10 0 0 1 10 10v280a10 10 0 0 0 10 10"></path>
<g>
<path d="M729.5 725h0"></path>
<path d="M1090.5 725h0"></path>
<g class="terminal ">
<path d="M729.5 725h0"></path>
<path d="M826 725h0"></path>
<rect x="729.5" y="714" width="96.5" height="22" rx="10" ry="10"></rect>
<text x="777.75" y="729">"BETWEEN"</text>
</g>
<path d="M826 725h10"></path>
<path d="M836 725h10"></path>
<g class="non-terminal ">
<path d="M846 725h0"></path>
<path d="M917 725h0"></path>
<rect x="846" y="714" width="71" height="22"></rect>
<a xlink:href="#/abap/expression/Source"><text x="881.5" y="729">Source</text>
</a>
</g>
<path d="M917 725h10"></path>
<path d="M927 725h10"></path>
<g class="terminal ">
<path d="M937 725h0"></path>
<path d="M999.5 725h0"></path>
<rect x="937" y="714" width="62.5" height="22" rx="10" ry="10"></rect>
<text x="968.25" y="729">"AND"</text>
</g>
<path d="M999.5 725h10"></path>
<path d="M1009.5 725h10"></path>
<g class="non-terminal ">
<path d="M1019.5 725h0"></path>
<path d="M1090.5 725h0"></path>
<rect x="1019.5" y="714" width="71" height="22"></rect>
<a xlink:href="#/abap/expression/Source"><text x="1055" y="729">Source</text>
</a>
</g>
</g>
<path d="M1090.5 725a10 10 0 0 0 10 -10v-280a10 10 0 0 1 10 -10"></path>
</g>
<g>
<path d="M1110.5 425h0"></path>
<path d="M1312.5 425h0"></path>
<path d="M1110.5 425a10 10 0 0 0 10 -10v0a10 10 0 0 1 10 -10"></path>
<g>
<path d="M1130.5 405h162"></path>
</g>
<path d="M1292.5 405a10 10 0 0 1 10 10v0a10 10 0 0 0 10 10"></path>
<path d="M1110.5 425h20"></path>
<g>
<path d="M1130.5 425h0"></path>
<path d="M1292.5 425h0"></path>
<g class="terminal ">
<path d="M1130.5 425h0"></path>
<path d="M1201.5 425h0"></path>
<rect x="1130.5" y="414" width="71" height="22" rx="10" ry="10"></rect>
<text x="1166" y="429">"SIGN"</text>
</g>
<path d="M1201.5 425h10"></path>
<path d="M1211.5 425h10"></path>
<g class="non-terminal ">
<path d="M1221.5 425h0"></path>
<path d="M1292.5 425h0"></path>
<rect x="1221.5" y="414" width="71" height="22"></rect>
<a xlink:href="#/abap/expression/Source"><text x="1257" y="429">Source</text>
</a>
</g>
</g>
<path d="M1292.5 425h20"></path>
</g>
</g>
<path d="M1312.5 425h10"></path>
<path d="M520.5 425a10 10 0 0 0 -10 10v299a10 10 0 0 0 10 10"></path>
<g>
<path d="M520.5 744h792"></path>
</g>
<path d="M1312.5 744a10 10 0 0 0 10 -10v-299a10 10 0 0 0 -10 -10"></path>
</g>
<path d="M1322.5 425a10 10 0 0 0 10 -10v-367"></path>
<path d="M500.5 48v714a10 10 0 0 0 10 10"></path>
<g>
<path d="M510.5 772h0"></path>
<path d="M1322.5 772h0"></path>
<path d="M510.5 772h10"></path>
<g>
<path d="M520.5 772h0"></path>
<path d="M1312.5 772h0"></path>
<g class="terminal ">
<path d="M520.5 772h0"></path>
<path d="M591.5 772h0"></path>
<rect x="520.5" y="761" width="71" height="22" rx="10" ry="10"></rect>
<text x="556" y="776">"WITH"</text>
</g>
<path d="M591.5 772h10"></path>
<path d="M601.5 772h10"></path>
<g class="non-terminal ">
<path d="M611.5 772h0"></path>
<path d="M699.5 772h0"></path>
<rect x="611.5" y="761" width="88" height="22"></rect>
<a xlink:href="#/abap/expression/FieldSub"><text x="655.5" y="776">FieldSub</text>
</a>
</g>
<path d="M699.5 772h10"></path>
<g>
<path d="M709.5 772h0"></path>
<path d="M1110.5 772h0"></path>
<path d="M709.5 772h20"></path>
<g>
<path d="M729.5 772h84.5"></path>
<path d="M1006 772h84.5"></path>
<g>
<path d="M814 772h0"></path>
<path d="M925 772h0"></path>
<path d="M814 772h20"></path>
<g class="terminal ">
<path d="M834 772h12.75"></path>
<path d="M892.25 772h12.75"></path>
<rect x="846.75" y="761" width="45.5" height="22" rx="10" ry="10"></rect>
<text x="869.5" y="776">"="</text>
</g>
<path d="M905 772h20"></path>
<path d="M814 772a10 10 0 0 1 10 10v10a10 10 0 0 0 10 10"></path>
<g class="terminal ">
<path d="M834 802h8.5"></path>
<path d="M896.5 802h8.5"></path>
<rect x="842.5" y="791" width="54" height="22" rx="10" ry="10"></rect>
<text x="869.5" y="806">"EQ"</text>
</g>
<path d="M905 802a10 10 0 0 0 10 -10v-10a10 10 0 0 1 10 -10"></path>
<path d="M814 772a10 10 0 0 1 10 10v40a10 10 0 0 0 10 10"></path>
<g class="terminal ">
<path d="M834 832h8.5"></path>
<path d="M896.5 832h8.5"></path>
<rect x="842.5" y="821" width="54" height="22" rx="10" ry="10"></rect>
<text x="869.5" y="836">"IN"</text>
</g>
<path d="M905 832a10 10 0 0 0 10 -10v-40a10 10 0 0 1 10 -10"></path>
<path d="M814 772a10 10 0 0 1 10 10v70a10 10 0 0 0 10 10"></path>
<g class="terminal ">
<path d="M834 862h8.5"></path>
<path d="M896.5 862h8.5"></path>
<rect x="842.5" y="851" width="54" height="22" rx="10" ry="10"></rect>
<text x="869.5" y="866">"NE"</text>
</g>
<path d="M905 862a10 10 0 0 0 10 -10v-70a10 10 0 0 1 10 -10"></path>
<path d="M814 772a10 10 0 0 1 10 10v100a10 10 0 0 0 10 10"></path>
<g class="terminal ">
<path d="M834 892h8.5"></path>
<path d="M896.5 892h8.5"></path>
<rect x="842.5" y="881" width="54" height="22" rx="10" ry="10"></rect>
<text x="869.5" y="896">"CP"</text>
</g>
<path d="M905 892a10 10 0 0 0 10 -10v-100a10 10 0 0 1 10 -10"></path>
<path d="M814 772a10 10 0 0 1 10 10v130a10 10 0 0 0 10 10"></path>
<g class="terminal ">
<path d="M834 922h8.5"></path>
<path d="M896.5 922h8.5"></path>
<rect x="842.5" y="911" width="54" height="22" rx="10" ry="10"></rect>
<text x="869.5" y="926">"GE"</text>
</g>
<path d="M905 922a10 10 0 0 0 10 -10v-130a10 10 0 0 1 10 -10"></path>
<path d="M814 772a10 10 0 0 1 10 10v160a10 10 0 0 0 10 10"></path>
<g class="terminal ">
<path d="M834 952h8.5"></path>
<path d="M896.5 952h8.5"></path>
<rect x="842.5" y="941" width="54" height="22" rx="10" ry="10"></rect>
<text x="869.5" y="956">"LE"</text>
</g>
<path d="M905 952a10 10 0 0 0 10 -10v-160a10 10 0 0 1 10 -10"></path>
<path d="M814 772a10 10 0 0 1 10 10v190a10 10 0 0 0 10 10"></path>
<g class="terminal ">
<path d="M834 982h0"></path>
<path d="M905 982h0"></path>
<rect x="834" y="971" width="71" height="22" rx="10" ry="10"></rect>
<text x="869.5" y="986">"INCL"</text>
</g>
<path d="M905 982a10 10 0 0 0 10 -10v-190a10 10 0 0 1 10 -10"></path>
<path d="M814 772a10 10 0 0 1 10 10v220a10 10 0 0 0 10 10"></path>
<g class="terminal ">
<path d="M834 1012h8.5"></path>
<path d="M896.5 1012h8.5"></path>
<rect x="842.5" y="1001" width="54" height="22" rx="10" ry="10"></rect>
<text x="869.5" y="1016">"GT"</text>
</g>
<path d="M905 1012a10 10 0 0 0 10 -10v-220a10 10 0 0 1 10 -10"></path>
<path d="M814 772a10 10 0 0 1 10 10v250a10 10 0 0 0 10 10"></path>
<g class="terminal ">
<path d="M834 1042h8.5"></path>
<path d="M896.5 1042h8.5"></path>
<rect x="842.5" y="1031" width="54" height="22" rx="10" ry="10"></rect>
<text x="869.5" y="1046">"LT"</text>
</g>
<path d="M905 1042a10 10 0 0 0 10 -10v-250a10 10 0 0 1 10 -10"></path>
</g>
<path d="M925 772h10"></path>
<g class="non-terminal ">
<path d="M935 772h0"></path>
<path d="M1006 772h0"></path>
<rect x="935" y="761" width="71" height="22"></rect>
<a xlink:href="#/abap/expression/Source"><text x="970.5" y="776">Source</text>
</a>
</g>
</g>
<path d="M1090.5 772h20"></path>
<path d="M709.5 772a10 10 0 0 1 10 10v280a10 10 0 0 0 10 10"></path>
<g>
<path d="M729.5 1072h0"></path>
<path d="M1090.5 1072h0"></path>
<g class="terminal ">
<path d="M729.5 1072h0"></path>
<path d="M826 1072h0"></path>
<rect x="729.5" y="1061" width="96.5" height="22" rx="10" ry="10"></rect>
<text x="777.75" y="1076">"BETWEEN"</text>
</g>
<path d="M826 1072h10"></path>
<path d="M836 1072h10"></path>
<g class="non-terminal ">
<path d="M846 1072h0"></path>
<path d="M917 1072h0"></path>
<rect x="846" y="1061" width="71" height="22"></rect>
<a xlink:href="#/abap/expression/Source"><text x="881.5" y="1076">Source</text>
</a>
</g>
<path d="M917 1072h10"></path>
<path d="M927 1072h10"></path>
<g class="terminal ">
<path d="M937 1072h0"></path>
<path d="M999.5 1072h0"></path>
<rect x="937" y="1061" width="62.5" height="22" rx="10" ry="10"></rect>
<text x="968.25" y="1076">"AND"</text>
</g>
<path d="M999.5 1072h10"></path>
<path d="M1009.5 1072h10"></path>
<g class="non-terminal ">
<path d="M1019.5 1072h0"></path>
<path d="M1090.5 1072h0"></path>
<rect x="1019.5" y="1061" width="71" height="22"></rect>
<a xlink:href="#/abap/expression/Source"><text x="1055" y="1076">Source</text>
</a>
</g>
</g>
<path d="M1090.5 1072a10 10 0 0 0 10 -10v-280a10 10 0 0 1 10 -10"></path>
</g>
<g>
<path d="M1110.5 772h0"></path>
<path d="M1312.5 772h0"></path>
<path d="M1110.5 772a10 10 0 0 0 10 -10v0a10 10 0 0 1 10 -10"></path>
<g>
<path d="M1130.5 752h162"></path>
</g>
<path d="M1292.5 752a10 10 0 0 1 10 10v0a10 10 0 0 0 10 10"></path>
<path d="M1110.5 772h20"></path>
<g>
<path d="M1130.5 772h0"></path>
<path d="M1292.5 772h0"></path>
<g class="terminal ">
<path d="M1130.5 772h0"></path>
<path d="M1201.5 772h0"></path>
<rect x="1130.5" y="761" width="71" height="22" rx="10" ry="10"></rect>
<text x="1166" y="776">"SIGN"</text>
</g>
<path d="M1201.5 772h10"></path>
<path d="M1211.5 772h10"></path>
<g class="non-terminal ">
<path d="M1221.5 772h0"></path>
<path d="M1292.5 772h0"></path>
<rect x="1221.5" y="761" width="71" height="22"></rect>
<a xlink:href="#/abap/expression/Source"><text x="1257" y="776">Source</text>
</a>
</g>
</g>
<path d="M1292.5 772h20"></path>
</g>
</g>
<path d="M1312.5 772h10"></path>
<path d="M520.5 772a10 10 0 0 0 -10 10v299a10 10 0 0 0 10 10"></path>
<g>
<path d="M520.5 1091h792"></path>
</g>
<path d="M1312.5 1091a10 10 0 0 0 10 -10v-299a10 10 0 0 0 -10 -10"></path>
</g>
<path d="M1322.5 772a10 10 0 0 0 10 -10v-714"></path>
<path d="M500.5 48v1052a10 10 0 0 0 10 10"></path>
<g>
<path d="M510.5 1110h274"></path>
<path d="M1048.5 1110h274"></path>
<g class="terminal ">
<path d="M784.5 1110h0"></path>
<path d="M957.5 1110h0"></path>
<rect x="784.5" y="1099" width="173" height="22" rx="10" ry="10"></rect>
<text x="871" y="1114">"SPOOL PARAMETERS"</text>
</g>
<path d="M957.5 1110h10"></path>
<path d="M967.5 1110h10"></path>
<g class="non-terminal ">
<path d="M977.5 1110h0"></path>
<path d="M1048.5 1110h0"></path>
<rect x="977.5" y="1099" width="71" height="22"></rect>
<a xlink:href="#/abap/expression/Source"><text x="1013" y="1114">Source</text>
</a>
</g>
</g>
<path d="M1322.5 1110a10 10 0 0 0 10 -10v-1052"></path>
<path d="M500.5 48v1082a10 10 0 0 0 10 10"></path>
<g>
<path d="M510.5 1140h303.75"></path>
<path d="M1018.75 1140h303.75"></path>
<g class="terminal ">
<path d="M814.25 1140h0"></path>
<path d="M927.75 1140h0"></path>
<rect x="814.25" y="1129" width="113.5" height="22" rx="10" ry="10"></rect>
<text x="871" y="1144">"LINE-SIZE"</text>
</g>
<path d="M927.75 1140h10"></path>
<path d="M937.75 1140h10"></path>
<g class="non-terminal ">
<path d="M947.75 1140h0"></path>
<path d="M1018.75 1140h0"></path>
<rect x="947.75" y="1129" width="71" height="22"></rect>
<a xlink:href="#/abap/expression/Source"><text x="983.25" y="1144">Source</text>
</a>
</g>
</g>
<path d="M1322.5 1140a10 10 0 0 0 10 -10v-1082"></path>
<path d="M500.5 48v1112a10 10 0 0 0 10 10"></path>
<g>
<path d="M510.5 1170h299.5"></path>
<path d="M1023 1170h299.5"></path>
<g class="terminal ">
<path d="M810 1170h0"></path>
<path d="M932 1170h0"></path>
<rect x="810" y="1159" width="122" height="22" rx="10" ry="10"></rect>
<text x="871" y="1174">"LINE-COUNT"</text>
</g>
<path d="M932 1170h10"></path>
<path d="M942 1170h10"></path>
<g class="non-terminal ">
<path d="M952 1170h0"></path>
<path d="M1023 1170h0"></path>
<rect x="952" y="1159" width="71" height="22"></rect>
<a xlink:href="#/abap/expression/Source"><text x="987.5" y="1174">Source</text>
</a>
</g>
</g>
<path d="M1322.5 1170a10 10 0 0 0 10 -10v-1112"></path>
<path d="M500.5 48v1142a10 10 0 0 0 10 10"></path>
<g>
<path d="M510.5 1200h265.5"></path>
<path d="M1057 1200h265.5"></path>
<g class="terminal ">
<path d="M776 1200h0"></path>
<path d="M966 1200h0"></path>
<rect x="776" y="1189" width="190" height="22" rx="10" ry="10"></rect>
<text x="871" y="1204">"ARCHIVE PARAMETERS"</text>
</g>
<path d="M966 1200h10"></path>
<path d="M976 1200h10"></path>
<g class="non-terminal ">
<path d="M986 1200h0"></path>
<path d="M1057 1200h0"></path>
<rect x="986" y="1189" width="71" height="22"></rect>
<a xlink:href="#/abap/expression/Source"><text x="1021.5" y="1204">Source</text>
</a>
</g>
</g>
<path d="M1322.5 1200a10 10 0 0 0 10 -10v-1142"></path>
<path d="M500.5 48v1172a10 10 0 0 0 10 10"></path>
<g>
<path d="M510.5 1230h291"></path>
<path d="M1031.5 1230h291"></path>
<g class="terminal ">
<path d="M801.5 1230h0"></path>
<path d="M940.5 1230h0"></path>
<rect x="801.5" y="1219" width="139" height="22" rx="10" ry="10"></rect>
<text x="871" y="1234">"ARCHIVE MODE"</text>
</g>
<path d="M940.5 1230h10"></path>
<path d="M950.5 1230h10"></path>
<g class="non-terminal ">
<path d="M960.5 1230h0"></path>
<path d="M1031.5 1230h0"></path>
<rect x="960.5" y="1219" width="71" height="22"></rect>
<a xlink:href="#/abap/expression/Source"><text x="996" y="1234">Source</text>
</a>
</g>
</g>
<path d="M1322.5 1230a10 10 0 0 0 10 -10v-1172"></path>
<path d="M500.5 48v1202a10 10 0 0 0 10 10"></path>
<g>
<path d="M510.5 1260h308"></path>
<path d="M1014.5 1260h308"></path>
<g class="terminal ">
<path d="M818.5 1260h0"></path>
<path d="M923.5 1260h0"></path>
<rect x="818.5" y="1249" width="105" height="22" rx="10" ry="10"></rect>
<text x="871" y="1264">"RECEIVER"</text>
</g>
<path d="M923.5 1260h10"></path>
<path d="M933.5 1260h10"></path>
<g class="non-terminal ">
<path d="M943.5 1260h0"></path>
<path d="M1014.5 1260h0"></path>
<rect x="943.5" y="1249" width="71" height="22"></rect>
<a xlink:href="#/abap/expression/Source"><text x="979" y="1264">Source</text>
</a>
</g>
</g>
<path d="M1322.5 1260a10 10 0 0 0 10 -10v-1202"></path>
<path d="M500.5 48v1232a10 10 0 0 0 10 10"></path>
<g>
<path d="M510.5 1290h325"></path>
<path d="M997.5 1290h325"></path>
<g class="terminal ">
<path d="M835.5 1290h0"></path>
<path d="M906.5 1290h0"></path>
<rect x="835.5" y="1279" width="71" height="22" rx="10" ry="10"></rect>
<text x="871" y="1294">"USER"</text>
</g>
<path d="M906.5 1290h10"></path>
<path d="M916.5 1290h10"></path>
<g class="non-terminal ">
<path d="M926.5 1290h0"></path>
<path d="M997.5 1290h0"></path>
<rect x="926.5" y="1279" width="71" height="22"></rect>
<a xlink:href="#/abap/expression/Source"><text x="962" y="1294">Source</text>
</a>
</g>
</g>
<path d="M1322.5 1290a10 10 0 0 0 10 -10v-1232"></path>
<path d="M500.5 48v1262a10 10 0 0 0 10 10"></path>
<g>
<path d="M510.5 1320h261.25"></path>
<path d="M1061.25 1320h261.25"></path>
<g class="terminal ">
<path d="M771.75 1320h0"></path>
<path d="M970.25 1320h0"></path>
<rect x="771.75" y="1309" width="198.5" height="22" rx="10" ry="10"></rect>
<text x="871" y="1324">"USING SELECTION-SET"</text>
</g>
<path d="M970.25 1320h10"></path>
<path d="M980.25 1320h10"></path>
<g class="non-terminal ">
<path d="M990.25 1320h0"></path>
<path d="M1061.25 1320h0"></path>
<rect x="990.25" y="1309" width="71" height="22"></rect>
<a xlink:href="#/abap/expression/Source"><text x="1025.75" y="1324">Source</text>
</a>
</g>
</g>
<path d="M1322.5 1320a10 10 0 0 0 10 -10v-1262"></path>
<path d="M500.5 48v1292a10 10 0 0 0 10 10"></path>
<g>
<path d="M510.5 1350h210.25"></path>
<path d="M1112.25 1350h210.25"></path>
<g class="terminal ">
<path d="M720.75 1350h0"></path>
<path d="M1021.25 1350h0"></path>
<rect x="720.75" y="1339" width="300.5" height="22" rx="10" ry="10"></rect>
<text x="871" y="1354">"USING SELECTION-SETS OF PROGRAM"</text>
</g>
<path d="M1021.25 1350h10"></path>
<path d="M1031.25 1350h10"></path>
<g class="non-terminal ">
<path d="M1041.25 1350h0"></path>
<path d="M1112.25 1350h0"></path>
<rect x="1041.25" y="1339" width="71" height="22"></rect>
<a xlink:href="#/abap/expression/Source"><text x="1076.75" y="1354">Source</text>
</a>
</g>
</g>
<path d="M1322.5 1350a10 10 0 0 0 10 -10v-1292"></path>
<path d="M500.5 48v1322a10 10 0 0 0 10 10"></path>
<g>
<path d="M510.5 1380h286.75"></path>
<path d="M1035.75 1380h286.75"></path>
<g class="terminal ">
<path d="M797.25 1380h0"></path>
<path d="M944.75 1380h0"></path>
<rect x="797.25" y="1369" width="147.5" height="22" rx="10" ry="10"></rect>
<text x="871" y="1384">"KEEP IN SPOOL"</text>
</g>
<path d="M944.75 1380h10"></path>
<path d="M954.75 1380h10"></path>
<g class="non-terminal ">
<path d="M964.75 1380h0"></path>
<path d="M1035.75 1380h0"></path>
<rect x="964.75" y="1369" width="71" height="22"></rect>
<a xlink:href="#/abap/expression/Source"><text x="1000.25" y="1384">Source</text>
</a>
</g>
</g>
<path d="M1322.5 1380a10 10 0 0 0 10 -10v-1322"></path>
<path d="M500.5 48v1352a10 10 0 0 0 10 10"></path>
<g>
<path d="M510.5 1410h282.5"></path>
<path d="M1040 1410h282.5"></path>
<g class="terminal ">
<path d="M793 1410h0"></path>
<path d="M949 1410h0"></path>
<rect x="793" y="1399" width="156" height="22" rx="10" ry="10"></rect>
<text x="871" y="1414">"SAP COVER PAGE"</text>
</g>
<path d="M949 1410h10"></path>
<path d="M959 1410h10"></path>
<g class="non-terminal ">
<path d="M969 1410h0"></path>
<path d="M1040 1410h0"></path>
<rect x="969" y="1399" width="71" height="22"></rect>
<a xlink:href="#/abap/expression/Source"><text x="1004.5" y="1414">Source</text>
</a>
</g>
</g>
<path d="M1322.5 1410a10 10 0 0 0 10 -10v-1352"></path>
<path d="M500.5 48v1382a10 10 0 0 0 10 10"></path>
<g>
<path d="M510.5 1440h295.25"></path>
<path d="M1027.25 1440h295.25"></path>
<g class="terminal ">
<path d="M805.75 1440h0"></path>
<path d="M936.25 1440h0"></path>
<rect x="805.75" y="1429" width="130.5" height="22" rx="10" ry="10"></rect>
<text x="871" y="1444">"IMMEDIATELY"</text>
</g>
<path d="M936.25 1440h10"></path>
<path d="M946.25 1440h10"></path>
<g class="non-terminal ">
<path d="M956.25 1440h0"></path>
<path d="M1027.25 1440h0"></path>
<rect x="956.25" y="1429" width="71" height="22"></rect>
<a xlink:href="#/abap/expression/Source"><text x="991.75" y="1444">Source</text>
</a>
</g>
</g>
<path d="M1322.5 1440a10 10 0 0 0 10 -10v-1382"></path>
<path d="M500.5 48v1412a10 10 0 0 0 10 10"></path>
<g>
<path d="M510.5 1470h316.5"></path>
<path d="M1006 1470h316.5"></path>
<g class="terminal ">
<path d="M827 1470h0"></path>
<path d="M915 1470h0"></path>
<rect x="827" y="1459" width="88" height="22" rx="10" ry="10"></rect>
<text x="871" y="1474">"LAYOUT"</text>
</g>
<path d="M915 1470h10"></path>
<path d="M925 1470h10"></path>
<g class="non-terminal ">
<path d="M935 1470h0"></path>
<path d="M1006 1470h0"></path>
<rect x="935" y="1459" width="71" height="22"></rect>
<a xlink:href="#/abap/expression/Source"><text x="970.5" y="1474">Source</text>
</a>
</g>
</g>
<path d="M1322.5 1470a10 10 0 0 0 10 -10v-1412"></path>
<path d="M500.5 48v1442a10 10 0 0 0 10 10"></path>
<g>
<path d="M510.5 1500h295.25"></path>
<path d="M1027.25 1500h295.25"></path>
<g class="terminal ">
<path d="M805.75 1500h0"></path>
<path d="M936.25 1500h0"></path>
<rect x="805.75" y="1489" width="130.5" height="22" rx="10" ry="10"></rect>
<text x="871" y="1504">"DESTINATION"</text>
</g>
<path d="M936.25 1500h10"></path>
<path d="M946.25 1500h10"></path>
<g class="non-terminal ">
<path d="M956.25 1500h0"></path>
<path d="M1027.25 1500h0"></path>
<rect x="956.25" y="1489" width="71" height="22"></rect>
<a xlink:href="#/abap/expression/Source"><text x="991.75" y="1504">Source</text>
</a>
</g>
</g>
<path d="M1322.5 1500a10 10 0 0 0 10 -10v-1442"></path>
<path d="M500.5 48v1472a10 10 0 0 0 10 10"></path>
<g>
<path d="M510.5 1530h299.5"></path>
<path d="M1023 1530h299.5"></path>
<g class="terminal ">
<path d="M810 1530h0"></path>
<path d="M932 1530h0"></path>
<rect x="810" y="1519" width="122" height="22" rx="10" ry="10"></rect>
<text x="871" y="1534">"COVER TEXT"</text>
</g>
<path d="M932 1530h10"></path>
<path d="M942 1530h10"></path>
<g class="non-terminal ">
<path d="M952 1530h0"></path>
<path d="M1023 1530h0"></path>
<rect x="952" y="1519" width="71" height="22"></rect>
<a xlink:href="#/abap/expression/Source"><text x="987.5" y="1534">Source</text>
</a>
</g>
</g>
<path d="M1322.5 1530a10 10 0 0 0 10 -10v-1472"></path>
<path d="M500.5 48v1502a10 10 0 0 0 10 10"></path>
<g>
<path d="M510.5 1560h303.75"></path>
<path d="M1018.75 1560h303.75"></path>
<g class="terminal ">
<path d="M814.25 1560h0"></path>
<path d="M927.75 1560h0"></path>
<rect x="814.25" y="1549" width="113.5" height="22" rx="10" ry="10"></rect>
<text x="871" y="1564">"LIST NAME"</text>
</g>
<path d="M927.75 1560h10"></path>
<path d="M937.75 1560h10"></path>
<g class="non-terminal ">
<path d="M947.75 1560h0"></path>
<path d="M1018.75 1560h0"></path>
<rect x="947.75" y="1549" width="71" height="22"></rect>
<a xlink:href="#/abap/expression/Source"><text x="983.25" y="1564">Source</text>
</a>
</g>
</g>
<path d="M1322.5 1560a10 10 0 0 0 10 -10v-1502"></path>
<path d="M500.5 48v1532a10 10 0 0 0 10 10"></path>
<g>
<path d="M510.5 1590h308"></path>
<path d="M1014.5 1590h308"></path>
<g class="terminal ">
<path d="M818.5 1590h0"></path>
<path d="M923.5 1590h0"></path>
<rect x="818.5" y="1579" width="105" height="22" rx="10" ry="10"></rect>
<text x="871" y="1594">"LANGUAGE"</text>
</g>
<path d="M923.5 1590h10"></path>
<path d="M933.5 1590h10"></path>
<g class="non-terminal ">
<path d="M943.5 1590h0"></path>
<path d="M1014.5 1590h0"></path>
<rect x="943.5" y="1579" width="71" height="22"></rect>
<a xlink:href="#/abap/expression/Source"><text x="979" y="1594">Source</text>
</a>
</g>
</g>
<path d="M1322.5 1590a10 10 0 0 0 10 -10v-1532"></path>
<path d="M500.5 48v1562a10 10 0 0 0 10 10"></path>
<g>
<path d="M510.5 1620h257"></path>
<path d="M1065.5 1620h257"></path>
<g class="terminal ">
<path d="M767.5 1620h0"></path>
<path d="M974.5 1620h0"></path>
<rect x="767.5" y="1609" width="207" height="22" rx="10" ry="10"></rect>
<text x="871" y="1624">"WITH FREE SELECTIONS"</text>
</g>
<path d="M974.5 1620h10"></path>
<path d="M984.5 1620h10"></path>
<g class="non-terminal ">
<path d="M994.5 1620h0"></path>
<path d="M1065.5 1620h0"></path>
<rect x="994.5" y="1609" width="71" height="22"></rect>
<a xlink:href="#/abap/expression/Source"><text x="1030" y="1624">Source</text>
</a>
</g>
</g>
<path d="M1322.5 1620a10 10 0 0 0 10 -10v-1562"></path>
<path d="M500.5 48v1592a10 10 0 0 0 10 10"></path>
<g>
<path d="M510.5 1650h244.25"></path>
<path d="M1078.25 1650h244.25"></path>
<g class="terminal ">
<path d="M754.75 1650h0"></path>
<path d="M987.25 1650h0"></path>
<rect x="754.75" y="1639" width="232.5" height="22" rx="10" ry="10"></rect>
<text x="871" y="1654">"NEW LIST IDENTIFICATION"</text>
</g>
<path d="M987.25 1650h10"></path>
<path d="M997.25 1650h10"></path>
<g class="non-terminal ">
<path d="M1007.25 1650h0"></path>
<path d="M1078.25 1650h0"></path>
<rect x="1007.25" y="1639" width="71" height="22"></rect>
<a xlink:href="#/abap/expression/Source"><text x="1042.75" y="1654">Source</text>
</a>
</g>
</g>
<path d="M1322.5 1650a10 10 0 0 0 10 -10v-1592"></path>
<path d="M500.5 48v1622a10 10 0 0 0 10 10"></path>
<g>
<path d="M510.5 1680h248.5"></path>
<path d="M1074 1680h248.5"></path>
<g class="terminal ">
<path d="M759 1680h0"></path>
<path d="M983 1680h0"></path>
<rect x="759" y="1669" width="224" height="22" rx="10" ry="10"></rect>
<text x="871" y="1684">"USING SELECTION-SCREEN"</text>
</g>
<path d="M983 1680h10"></path>
<path d="M993 1680h10"></path>
<g class="non-terminal ">
<path d="M1003 1680h0"></path>
<path d="M1074 1680h0"></path>
<rect x="1003" y="1669" width="71" height="22"></rect>
<a xlink:href="#/abap/expression/Source"><text x="1038.5" y="1684">Source</text>
</a>
</g>
</g>
<path d="M1322.5 1680a10 10 0 0 0 10 -10v-1622"></path>
<path d="M500.5 48v1652a10 10 0 0 0 10 10"></path>
<g>
<path d="M510.5 1710h316.5"></path>
<path d="M1006 1710h316.5"></path>
<g class="terminal ">
<path d="M827 1710h0"></path>
<path d="M915 1710h0"></path>
<rect x="827" y="1699" width="88" height="22" rx="10" ry="10"></rect>
<text x="871" y="1714">"COPIES"</text>
</g>
<path d="M915 1710h10"></path>
<path d="M925 1710h10"></path>
<g class="non-terminal ">
<path d="M935 1710h0"></path>
<path d="M1006 1710h0"></path>
<rect x="935" y="1699" width="71" height="22"></rect>
<a xlink:href="#/abap/expression/Source"><text x="970.5" y="1714">Source</text>
</a>
</g>
</g>
<path d="M1322.5 1710a10 10 0 0 0 10 -10v-1652"></path>
<path d="M500.5 48v1682a10 10 0 0 0 10 10"></path>
<g>
<path d="M510.5 1740h265.5"></path>
<path d="M1057 1740h265.5"></path>
<g class="terminal ">
<path d="M776 1740h0"></path>
<path d="M966 1740h0"></path>
<rect x="776" y="1729" width="190" height="22" rx="10" ry="10"></rect>
<text x="871" y="1744">"DATASET EXPIRATION"</text>
</g>
<path d="M966 1740h10"></path>
<path d="M976 1740h10"></path>
<g class="non-terminal ">
<path d="M986 1740h0"></path>
<path d="M1057 1740h0"></path>
<rect x="986" y="1729" width="71" height="22"></rect>
<a xlink:href="#/abap/expression/Source"><text x="1021.5" y="1744">Source</text>
</a>
</g>
</g>
<path d="M1322.5 1740a10 10 0 0 0 10 -10v-1682"></path>
<path d="M500.5 48v1712a10 10 0 0 0 10 10"></path>
<g class="terminal ">
<path d="M510.5 1770h336.5"></path>
<path d="M986 1770h336.5"></path>
<rect x="847" y="1759" width="139" height="22" rx="10" ry="10"></rect>
<text x="916.5" y="1774">"TO SAP-SPOOL"</text>
</g>
<path d="M1322.5 1770a10 10 0 0 0 10 -10v-1712"></path>
<path d="M500.5 48v1742a10 10 0 0 0 10 10"></path>
<g class="terminal ">
<path d="M510.5 1800h302.5"></path>
<path d="M1020 1800h302.5"></path>
<rect x="813" y="1789" width="207" height="22" rx="10" ry="10"></rect>
<text x="916.5" y="1804">"WITHOUT SPOOL DYNPRO"</text>
</g>
<path d="M1322.5 1800a10 10 0 0 0 10 -10v-1742"></path>
<path d="M500.5 48v1772a10 10 0 0 0 10 10"></path>
<g class="terminal ">
<path d="M510.5 1830h302.5"></path>
<path d="M1020 1830h302.5"></path>
<rect x="813" y="1819" width="207" height="22" rx="10" ry="10"></rect>
<text x="916.5" y="1834">"VIA SELECTION-SCREEN"</text>
</g>
<path d="M1322.5 1830a10 10 0 0 0 10 -10v-1772"></path>
<path d="M500.5 48v1802a10 10 0 0 0 10 10"></path>
<g class="terminal ">
<path d="M510.5 1860h285.5"></path>
<path d="M1037 1860h285.5"></path>
<rect x="796" y="1849" width="241" height="22" rx="10" ry="10"></rect>
<text x="916.5" y="1864">"EXPORTING LIST TO MEMORY"</text>
</g>
<path d="M1322.5 1860a10 10 0 0 0 10 -10v-1802"></path>
<path d="M500.5 48v1832a10 10 0 0 0 10 10"></path>
<g class="non-terminal ">
<path d="M510.5 1890h357.75"></path>
<path d="M964.75 1890h357.75"></path>
<rect x="868.25" y="1879" width="96.5" height="22"></rect>
<a xlink:href="#/abap/expression/AndReturn"><text x="916.5" y="1894">AndReturn</text>
</a>
</g>
<path d="M1322.5 1890a10 10 0 0 0 10 -10v-1832"></path>
<path d="M500.5 48v1862a10 10 0 0 0 10 10"></path>
<g>
<path d="M510.5 1920h212.75"></path>
<path d="M1109.75 1920h212.75"></path>
<g class="terminal ">
<path d="M723.25 1920h0"></path>
<path d="M819.75 1920h0"></path>
<rect x="723.25" y="1909" width="96.5" height="22" rx="10" ry="10"></rect>
<text x="771.5" y="1924">"VIA JOB"</text>
</g>
<path d="M819.75 1920h10"></path>
<path d="M829.75 1920h10"></path>
<g class="non-terminal ">
<path d="M839.75 1920h0"></path>
<path d="M910.75 1920h0"></path>
<rect x="839.75" y="1909" width="71" height="22"></rect>
<a xlink:href="#/abap/expression/Source"><text x="875.25" y="1924">Source</text>
</a>
</g>
<path d="M910.75 1920h10"></path>
<path d="M920.75 1920h10"></path>
<g class="terminal ">
<path d="M930.75 1920h0"></path>
<path d="M1018.75 1920h0"></path>
<rect x="930.75" y="1909" width="88" height="22" rx="10" ry="10"></rect>
<text x="974.75" y="1924">"NUMBER"</text>
</g>
<path d="M1018.75 1920h10"></path>
<path d="M1028.75 1920h10"></path>
<g class="non-terminal ">
<path d="M1038.75 1920h0"></path>
<path d="M1109.75 1920h0"></path>
<rect x="1038.75" y="1909" width="71" height="22"></rect>
<a xlink:href="#/abap/expression/Source"><text x="1074.25" y="1924">Source</text>
</a>
</g>
</g>
<path d="M1322.5 1920a10 10 0 0 0 10 -10v-1862"></path>
<g class="diagram-text">
<title>take one or more branches, once each, in any order</title>
<path d="M 500.5 38 h -26 a 4 4 0 0 0 -4 4 v 12 a 4 4 0 0 0 4 4 h 26 z" class="diagram-text"></path>
<text x="485.5" y="52" class="diagram-text">1+</text>
<path d="M 1332.5 38 h 16 a 4 4 0 0 1 4 4 v 12 a 4 4 0 0 1 -4 4 h -16 z" class="diagram-text"></path>
<path d="M 1339.5 46 a 4 4 0 1 0 6 -1 m 2.75 -1 h -4 v 4 m 0 -3 h 2" style="stroke-width: 1.75"></path>
</g>
</g>
<path d="M1352.5 48h20"></path>
</g>
</g>
</g>
<path d="M1372.5 48h10"></path>
<path d="M 1382.5 48 h 20 m -10 -10 v 20 m 10 -20 v 20"></path>
</g>
</svg>
