<svg xmlns="http://www.w3.org/2000/svg" xmlns:xlink="http://www.w3.org/1999/xlink" class="railroad-diagram" width="713" height="110" viewBox="0 0 713 110">
<defs>
<style type="text/css"><![CDATA[
path {
stroke-width: 3;
stroke: black;
fill: rgba(0,0,0,0);
}
text {
font: bold 14px monospace;
text-anchor: middle;
}
text.diagram-text {
font-size: 12px;
}
a {
fill: blue;
}
text.diagram-arrow {
font-size: 16px;
}
text.label {
text-anchor: start;
}
text.comment {
font: italic 12px monospace;
}
rect {
stroke-width: 3;
stroke: black;
fill: #BCBCBC;
}
path.diagram-text {
stroke-width: 3;
stroke: black;
fill: #BCBCBC;
cursor: help;
}
]]></style>
</defs>
<g transform="translate(.5 .5)">
<g>
<path d="M20 30v20m10 -20v20m-10 -10h20"></path>
</g>
<path d="M40 40h10"></path>
<g>
<path d="M50 40h0"></path>
<path d="M663 40h0"></path>
<g class="comment ">
<path d="M50 40h0"></path>
<path d="M179 40h0"></path>
<text x="114.5" y="45" class="comment">not langver=Cloud</text>
</g>
<path d="M179 40h10"></path>
<path d="M189 40h10"></path>
<g>
<path d="M199 40h0"></path>
<path d="M663 40h0"></path>
<g class="terminal ">
<path d="M199 40h0"></path>
<path d="M261.5 40h0"></path>
<rect x="199" y="29" width="62.5" height="22" rx="10" ry="10"></rect>
<text x="230.25" y="44">"GET"</text>
</g>
<path d="M261.5 40h10"></path>
<path d="M271.5 40h10"></path>
<g class="non-terminal ">
<path d="M281.5 40h0"></path>
<path d="M352.5 40h0"></path>
<rect x="281.5" y="29" width="71" height="22"></rect>
<a xlink:href="#/abap/expression/Target"><text x="317" y="44">Target</text>
</a>
</g>
<path d="M352.5 40h10"></path>
<g>
<path d="M362.5 40h0"></path>
<path d="M663 40h0"></path>
<path d="M362.5 40a10 10 0 0 0 10 -10v0a10 10 0 0 1 10 -10"></path>
<g>
<path d="M382.5 20h260.5"></path>
</g>
<path d="M643 20a10 10 0 0 1 10 10v0a10 10 0 0 0 10 10"></path>
<path d="M362.5 40h20"></path>
<g>
<path d="M382.5 40h0"></path>
<path d="M643 40h0"></path>
<path d="M412.5 40h10"></path>
<g class="terminal ">
<path d="M422.5 40h59.75"></path>
<path d="M553.25 40h59.75"></path>
<rect x="482.25" y="29" width="71" height="22" rx="10" ry="10"></rect>
<text x="517.75" y="44">"LATE"</text>
</g>
<path d="M613 40h10"></path>
<path d="M412.5 40v20a10 10 0 0 0 10 10"></path>
<g>
<path d="M422.5 70h0"></path>
<path d="M613 70h0"></path>
<g class="terminal ">
<path d="M422.5 70h0"></path>
<path d="M510.5 70h0"></path>
<rect x="422.5" y="59" width="88" height="22" rx="10" ry="10"></rect>
<text x="466.5" y="74">"FIELDS"</text>
</g>
<path d="M510.5 70h10"></path>
<path d="M520.5 70h10"></path>
<g>
<path d="M530.5 70h0"></path>
<path d="M613 70h0"></path>
<path d="M530.5 70h10"></path>
<g class="non-terminal ">
<path d="M540.5 70h0"></path>
<path d="M603 70h0"></path>
<rect x="540.5" y="59" width="62.5" height="22"></rect>
<a xlink:href="#/abap/expression/Field"><text x="571.75" y="74">Field</text>
</a>
</g>
<path d="M603 70h10"></path>
<path d="M540.5 70a10 10 0 0 0 -10 10v0a10 10 0 0 0 10 10"></path>
<g>
<path d="M540.5 90h62.5"></path>
</g>
<path d="M603 90a10 10 0 0 0 10 -10v0a10 10 0 0 0 -10 -10"></path>
</g>
</g>
<path d="M613 70a10 10 0 0 0 10 -10v-20"></path>
<g class="diagram-text">
<title>take one or more branches, once each, in any order</title>
<path d="M 412.5 30 h -26 a 4 4 0 0 0 -4 4 v 12 a 4 4 0 0 0 4 4 h 26 z" class="diagram-text"></path>
<text x="397.5" y="44" class="diagram-text">1+</text>
<path d="M 623 30 h 16 a 4 4 0 0 1 4 4 v 12 a 4 4 0 0 1 -4 4 h -16 z" class="diagram-text"></path>
<path d="M 630 38 a 4 4 0 1 0 6 -1 m 2.75 -1 h -4 v 4 m 0 -3 h 2" style="stroke-width: 1.75"></path>
</g>
</g>
<path d="M643 40h20"></path>
</g>
</g>
</g>
<path d="M663 40h10"></path>
<path d="M 673 40 h 20 m -10 -10 v 20 m 10 -20 v 20"></path>
</g>
</svg>
