<svg xmlns="http://www.w3.org/2000/svg" xmlns:xlink="http://www.w3.org/1999/xlink" class="railroad-diagram" width="2458.5" height="410" viewBox="0 0 2458.5 410">
<defs>
<style type="text/css"><![CDATA[
path {
stroke-width: 3;
stroke: black;
fill: rgba(0,0,0,0);
}
text {
font: bold 14px monospace;
text-anchor: middle;
}
text.diagram-text {
font-size: 12px;
}
a {
fill: blue;
}
text.diagram-arrow {
font-size: 16px;
}
text.label {
text-anchor: start;
}
text.comment {
font: italic 12px monospace;
}
rect {
stroke-width: 3;
stroke: black;
fill: #BCBCBC;
}
path.diagram-text {
stroke-width: 3;
stroke: black;
fill: #BCBCBC;
cursor: help;
}
]]></style>
</defs>
<g transform="translate(.5 .5)">
<g>
<path d="M20 30v20m10 -20v20m-10 -10h20"></path>
</g>
<path d="M40 40h10"></path>
<g>
<path d="M50 40h0"></path>
<path d="M2408.5 40h0"></path>
<g class="terminal">
<path d="M50 40h0"></path>
<path d="M138 40h0"></path>
<rect x="50" y="29" width="88" height="22" rx="10" ry="10"></rect>
<text x="94" y="44">"EXPORT"</text>
</g>
<path d="M138 40h10"></path>
<g>
<path d="M148 40h0"></path>
<path d="M603.5 40h0"></path>
<path d="M148 40h20"></path>
<g>
<path d="M168 40h0"></path>
<path d="M583.5 40h0"></path>
<path d="M168 40h10"></path>
<g>
<path d="M178 40h0"></path>
<path d="M573.5 40h0"></path>
<path d="M178 40h20"></path>
<g>
<path d="M198 40h0"></path>
<path d="M553.5 40h0"></path>
<g>
<path d="M198 40h0"></path>
<path d="M351.5 40h0"></path>
<path d="M198 40h20"></path>
<g class="non-terminal">
<path d="M218 40h0"></path>
<path d="M306 40h25.5"></path>
<rect x="218" y="29" width="88" height="22"></rect>
<a xlink:href="#/abap/expression/FieldSub"><text x="262" y="44">FieldSub</text>
</a>
</g>
<path d="M331.5 40h20"></path>
<path d="M198 40a10 10 0 0 1 10 10v10a10 10 0 0 0 10 10"></path>
<g class="non-terminal">
<path d="M218 70h0"></path>
<path d="M331.5 70h0"></path>
<rect x="218" y="59" width="113.5" height="22"></rect>
<a xlink:href="#/abap/expression/FieldSymbol"><text x="274.75" y="74">FieldSymbol</text>
</a>
</g>
<path d="M331.5 70a10 10 0 0 0 10 -10v-10a10 10 0 0 1 10 -10"></path>
</g>
<path d="M351.5 40h10"></path>
<g>
<path d="M361.5 40h0"></path>
<path d="M553.5 40h0"></path>
<g>
<path d="M361.5 40h0"></path>
<path d="M472.5 40h0"></path>
<path d="M361.5 40h20"></path>
<g class="terminal">
<path d="M381.5 40h0"></path>
<path d="M452.5 40h0"></path>
<rect x="381.5" y="29" width="71" height="22" rx="10" ry="10"></rect>
<text x="417" y="44">"FROM"</text>
</g>
<path d="M452.5 40h20"></path>
<path d="M361.5 40a10 10 0 0 1 10 10v10a10 10 0 0 0 10 10"></path>
<g class="terminal">
<path d="M381.5 70h0"></path>
<path d="M427 70h25.5"></path>
<rect x="381.5" y="59" width="45.5" height="22" rx="10" ry="10"></rect>
<text x="404.25" y="74">"="</text>
</g>
<path d="M452.5 70a10 10 0 0 0 10 -10v-10a10 10 0 0 1 10 -10"></path>
</g>
<path d="M472.5 40h10"></path>
<g class="non-terminal">
<path d="M482.5 40h0"></path>
<path d="M553.5 40h0"></path>
<rect x="482.5" y="29" width="71" height="22"></rect>
<a xlink:href="#/abap/expression/Source"><text x="518" y="44">Source</text>
</a>
</g>
</g>
</g>
<path d="M553.5 40h20"></path>
<path d="M178 40a10 10 0 0 1 10 10v40a10 10 0 0 0 10 10"></path>
<g>
<path d="M198 100h0"></path>
<path d="M351.5 100h202"></path>
<path d="M198 100h20"></path>
<g class="non-terminal">
<path d="M218 100h0"></path>
<path d="M306 100h25.5"></path>
<rect x="218" y="89" width="88" height="22"></rect>
<a xlink:href="#/abap/expression/FieldSub"><text x="262" y="104">FieldSub</text>
</a>
</g>
<path d="M331.5 100h20"></path>
<path d="M198 100a10 10 0 0 1 10 10v10a10 10 0 0 0 10 10"></path>
<g class="non-terminal">
<path d="M218 130h0"></path>
<path d="M331.5 130h0"></path>
<rect x="218" y="119" width="113.5" height="22"></rect>
<a xlink:href="#/abap/expression/FieldSymbol"><text x="274.75" y="134">FieldSymbol</text>
</a>
</g>
<path d="M331.5 130a10 10 0 0 0 10 -10v-10a10 10 0 0 1 10 -10"></path>
</g>
<path d="M553.5 100a10 10 0 0 0 10 -10v-40a10 10 0 0 1 10 -10"></path>
</g>
<path d="M573.5 40h10"></path>
<path d="M178 40a10 10 0 0 0 -10 10v89a10 10 0 0 0 10 10"></path>
<g>
<path d="M178 149h395.5"></path>
</g>
<path d="M573.5 149a10 10 0 0 0 10 -10v-89a10 10 0 0 0 -10 -10"></path>
</g>
<path d="M583.5 40h20"></path>
<path d="M148 40a10 10 0 0 1 10 10v108a10 10 0 0 0 10 10"></path>
<g class="non-terminal">
<path d="M168 168h0"></path>
<path d="M247.5 168h336"></path>
<rect x="168" y="157" width="79.5" height="22"></rect>
<a xlink:href="#/abap/expression/Dynamic"><text x="207.75" y="172">Dynamic</text>
</a>
</g>
<path d="M583.5 168a10 10 0 0 0 10 -10v-108a10 10 0 0 1 10 -10"></path>
<path d="M148 40a10 10 0 0 1 10 10v138a10 10 0 0 0 10 10"></path>
<g class="non-terminal">
<path d="M168 198h0"></path>
<path d="M256 198h327.5"></path>
<rect x="168" y="187" width="88" height="22"></rect>
<a xlink:href="#/abap/expression/Constant"><text x="212" y="202">Constant</text>
</a>
</g>
<path d="M583.5 198a10 10 0 0 0 10 -10v-138a10 10 0 0 1 10 -10"></path>
</g>
<path d="M603.5 40h10"></path>
<g class="terminal">
<path d="M613.5 40h0"></path>
<path d="M667.5 40h0"></path>
<rect x="613.5" y="29" width="54" height="22" rx="10" ry="10"></rect>
<text x="640.5" y="44">"TO"</text>
</g>
<path d="M667.5 40h10"></path>
<g>
<path d="M677.5 40h0"></path>
<path d="M1838.5 40h0"></path>
<path d="M677.5 40h20"></path>
<g>
<path d="M697.5 40h0"></path>
<path d="M919 40h899.5"></path>
<g class="terminal">
<path d="M697.5 40h0"></path>
<path d="M828 40h0"></path>
<rect x="697.5" y="29" width="130.5" height="22" rx="10" ry="10"></rect>
<text x="762.75" y="44">"DATA BUFFER"</text>
</g>
<path d="M828 40h10"></path>
<path d="M838 40h10"></path>
<g class="non-terminal">
<path d="M848 40h0"></path>
<path d="M919 40h0"></path>
<rect x="848" y="29" width="71" height="22"></rect>
<a xlink:href="#/abap/expression/Target"><text x="883.5" y="44">Target</text>
</a>
</g>
</g>
<path d="M1818.5 40h20"></path>
<path d="M677.5 40a10 10 0 0 1 10 10v19a10 10 0 0 0 10 10"></path>
<g>
<path d="M697.5 79h0"></path>
<path d="M980.5 79h838"></path>
<g class="terminal">
<path d="M697.5 79h0"></path>
<path d="M785.5 79h0"></path>
<rect x="697.5" y="68" width="88" height="22" rx="10" ry="10"></rect>
<text x="741.5" y="83">"MEMORY"</text>
</g>
<path d="M785.5 79h10"></path>
<g>
<path d="M795.5 79h0"></path>
<path d="M980.5 79h0"></path>
<path d="M795.5 79a10 10 0 0 0 10 -10v0a10 10 0 0 1 10 -10"></path>
<g>
<path d="M815.5 59h145"></path>
</g>
<path d="M960.5 59a10 10 0 0 1 10 10v0a10 10 0 0 0 10 10"></path>
<path d="M795.5 79h20"></path>
<g>
<path d="M815.5 79h0"></path>
<path d="M960.5 79h0"></path>
<g class="terminal">
<path d="M815.5 79h0"></path>
<path d="M869.5 79h0"></path>
<rect x="815.5" y="68" width="54" height="22" rx="10" ry="10"></rect>
<text x="842.5" y="83">"ID"</text>
</g>
<path d="M869.5 79h10"></path>
<path d="M879.5 79h10"></path>
<g class="non-terminal">
<path d="M889.5 79h0"></path>
<path d="M960.5 79h0"></path>
<rect x="889.5" y="68" width="71" height="22"></rect>
<a xlink:href="#/abap/expression/Source"><text x="925" y="83">Source</text>
</a>
</g>
</g>
<path d="M960.5 79h20"></path>
</g>
</g>
<path d="M1818.5 79a10 10 0 0 0 10 -10v-19a10 10 0 0 1 10 -10"></path>
<path d="M677.5 40a10 10 0 0 1 10 10v49a10 10 0 0 0 10 10"></path>
<g>
<path d="M697.5 109h0"></path>
<path d="M1746 109h72.5"></path>
<g class="terminal">
<path d="M697.5 109h0"></path>
<path d="M802.5 109h0"></path>
<rect x="697.5" y="98" width="105" height="22" rx="10" ry="10"></rect>
<text x="750" y="113">"DATABASE"</text>
</g>
<path d="M802.5 109h10"></path>
<path d="M812.5 109h10"></path>
<g>
<path d="M822.5 109h0"></path>
<path d="M1464 109h0"></path>
<g class="non-terminal">
<path d="M822.5 109h0"></path>
<path d="M1004 109h0"></path>
<rect x="822.5" y="98" width="181.5" height="22"></rect>
<a xlink:href="#/abap/expression/NamespaceSimpleName"><text x="913.25" y="113">NamespaceSimpleName</text>
</a>
</g>
<path d="M1004 109h10"></path>
<path d="M1014 109h10"></path>
<g class="terminal">
<path d="M1024 109h0"></path>
<path d="M1146 109h0"></path>
<rect x="1024" y="98" width="122" height="22" rx="10" ry="10"></rect>
<text x="1085" y="113">!"ParenLeft"</text>
</g>
<path d="M1146 109h10"></path>
<path d="M1156 109h10"></path>
<g class="terminal">
<path d="M1166 109h0"></path>
<path d="M1305 109h0"></path>
<rect x="1166" y="98" width="139" height="22" rx="10" ry="10"></rect>
<text x="1235.5" y="113">^&#91;\w$%\^~&#93;{2}$</text>
</g>
<path d="M1305 109h10"></path>
<path d="M1315 109h10"></path>
<g class="terminal">
<path d="M1325 109h0"></path>
<path d="M1464 109h0"></path>
<rect x="1325" y="98" width="139" height="22" rx="10" ry="10"></rect>
<text x="1394.5" y="113">!"ParenRightW"</text>
</g>
</g>
<path d="M1464 109h10"></path>
<path d="M1474 109h10"></path>
<g>
<path d="M1484 109h0"></path>
<path d="M1746 109h0"></path>
<path d="M1514 109h10"></path>
<g>
<path d="M1524 109h0"></path>
<path d="M1716 109h0"></path>
<g>
<path d="M1524 109h0"></path>
<path d="M1635 109h0"></path>
<path d="M1524 109h20"></path>
<g class="terminal">
<path d="M1544 109h0"></path>
<path d="M1615 109h0"></path>
<rect x="1544" y="98" width="71" height="22" rx="10" ry="10"></rect>
<text x="1579.5" y="113">"FROM"</text>
</g>
<path d="M1615 109h20"></path>
<path d="M1524 109a10 10 0 0 1 10 10v10a10 10 0 0 0 10 10"></path>
<g class="terminal">
<path d="M1544 139h0"></path>
<path d="M1589.5 139h25.5"></path>
<rect x="1544" y="128" width="45.5" height="22" rx="10" ry="10"></rect>
<text x="1566.75" y="143">"="</text>
</g>
<path d="M1615 139a10 10 0 0 0 10 -10v-10a10 10 0 0 1 10 -10"></path>
</g>
<path d="M1635 109h10"></path>
<g class="non-terminal">
<path d="M1645 109h0"></path>
<path d="M1716 109h0"></path>
<rect x="1645" y="98" width="71" height="22"></rect>
<a xlink:href="#/abap/expression/Source"><text x="1680.5" y="113">Source</text>
</a>
</g>
</g>
<path d="M1716 109h10"></path>
<path d="M1514 109v50a10 10 0 0 0 10 10"></path>
<g>
<path d="M1524 169h0"></path>
<path d="M1703 169h13"></path>
<g class="terminal">
<path d="M1524 169h0"></path>
<path d="M1612 169h0"></path>
<rect x="1524" y="158" width="88" height="22" rx="10" ry="10"></rect>
<text x="1568" y="173">"CLIENT"</text>
</g>
<path d="M1612 169h10"></path>
<path d="M1622 169h10"></path>
<g class="non-terminal">
<path d="M1632 169h0"></path>
<path d="M1703 169h0"></path>
<rect x="1632" y="158" width="71" height="22"></rect>
<a xlink:href="#/abap/expression/Source"><text x="1667.5" y="173">Source</text>
</a>
</g>
</g>
<path d="M1716 169a10 10 0 0 0 10 -10v-50"></path>
<path d="M1514 109v80a10 10 0 0 0 10 10"></path>
<g>
<path d="M1524 199h0"></path>
<path d="M1669 199h47"></path>
<g class="terminal">
<path d="M1524 199h0"></path>
<path d="M1578 199h0"></path>
<rect x="1524" y="188" width="54" height="22" rx="10" ry="10"></rect>
<text x="1551" y="203">"ID"</text>
</g>
<path d="M1578 199h10"></path>
<path d="M1588 199h10"></path>
<g class="non-terminal">
<path d="M1598 199h0"></path>
<path d="M1669 199h0"></path>
<rect x="1598" y="188" width="71" height="22"></rect>
<a xlink:href="#/abap/expression/Source"><text x="1633.5" y="203">Source</text>
</a>
</g>
</g>
<path d="M1716 199a10 10 0 0 0 10 -10v-80"></path>
<path d="M1514 109v110a10 10 0 0 0 10 10"></path>
<g>
<path d="M1524 229h0"></path>
<path d="M1694.5 229h21.5"></path>
<g class="terminal">
<path d="M1524 229h0"></path>
<path d="M1603.5 229h0"></path>
<rect x="1524" y="218" width="79.5" height="22" rx="10" ry="10"></rect>
<text x="1563.75" y="233">"USING"</text>
</g>
<path d="M1603.5 229h10"></path>
<path d="M1613.5 229h10"></path>
<g class="non-terminal">
<path d="M1623.5 229h0"></path>
<path d="M1694.5 229h0"></path>
<rect x="1623.5" y="218" width="71" height="22"></rect>
<a xlink:href="#/abap/expression/Source"><text x="1659" y="233">Source</text>
</a>
</g>
</g>
<path d="M1716 229a10 10 0 0 0 10 -10v-110"></path>
<g class="diagram-text">
<title>take one or more branches, once each, in any order</title>
<path d="M 1514 99 h -26 a 4 4 0 0 0 -4 4 v 12 a 4 4 0 0 0 4 4 h 26 z" class="diagram-text"></path>
<text x="1499" y="113" class="diagram-text">1+</text>
<path d="M 1726 99 h 16 a 4 4 0 0 1 4 4 v 12 a 4 4 0 0 1 -4 4 h -16 z" class="diagram-text"></path>
<path d="M 1733 107 a 4 4 0 1 0 6 -1 m 2.75 -1 h -4 v 4 m 0 -3 h 2" style="stroke-width: 1.75"></path>
</g>
</g>
</g>
<path d="M1818.5 109a10 10 0 0 0 10 -10v-49a10 10 0 0 1 10 -10"></path>
<path d="M677.5 40a10 10 0 0 1 10 10v199a10 10 0 0 0 10 10"></path>
<g>
<path d="M697.5 259h0"></path>
<path d="M944.5 259h874"></path>
<g class="terminal">
<path d="M697.5 259h0"></path>
<path d="M853.5 259h0"></path>
<rect x="697.5" y="248" width="156" height="22" rx="10" ry="10"></rect>
<text x="775.5" y="263">"INTERNAL TABLE"</text>
</g>
<path d="M853.5 259h10"></path>
<path d="M863.5 259h10"></path>
<g class="non-terminal">
<path d="M873.5 259h0"></path>
<path d="M944.5 259h0"></path>
<rect x="873.5" y="248" width="71" height="22"></rect>
<a xlink:href="#/abap/expression/Target"><text x="909" y="263">Target</text>
</a>
</g>
</g>
<path d="M1818.5 259a10 10 0 0 0 10 -10v-199a10 10 0 0 1 10 -10"></path>
<path d="M677.5 40a10 10 0 0 1 10 10v229a10 10 0 0 0 10 10"></path>
<g>
<path d="M697.5 289h0"></path>
<path d="M1818.5 289h0"></path>
<g>
<path d="M697.5 289h0"></path>
<path d="M885 289h0"></path>
<path d="M697.5 289h20"></path>
<g class="terminal">
<path d="M717.5 289h0"></path>
<path d="M865 289h0"></path>
<rect x="717.5" y="278" width="147.5" height="22" rx="10" ry="10"></rect>
<text x="791.25" y="293">"SHARED MEMORY"</text>
</g>
<path d="M865 289h20"></path>
<path d="M697.5 289a10 10 0 0 1 10 10v10a10 10 0 0 0 10 10"></path>
<g class="terminal">
<path d="M717.5 319h0"></path>
<path d="M865 319h0"></path>
<rect x="717.5" y="308" width="147.5" height="22" rx="10" ry="10"></rect>
<text x="791.25" y="323">"SHARED BUFFER"</text>
</g>
<path d="M865 319a10 10 0 0 0 10 -10v-10a10 10 0 0 1 10 -10"></path>
</g>
<path d="M885 289h10"></path>
<g>
<path d="M895 289h0"></path>
<path d="M1536.5 289h0"></path>
<g class="non-terminal">
<path d="M895 289h0"></path>
<path d="M1076.5 289h0"></path>
<rect x="895" y="278" width="181.5" height="22"></rect>
<a xlink:href="#/abap/expression/NamespaceSimpleName"><text x="985.75" y="293">NamespaceSimpleName</text>
</a>
</g>
<path d="M1076.5 289h10"></path>
<path d="M1086.5 289h10"></path>
<g class="terminal">
<path d="M1096.5 289h0"></path>
<path d="M1218.5 289h0"></path>
<rect x="1096.5" y="278" width="122" height="22" rx="10" ry="10"></rect>
<text x="1157.5" y="293">!"ParenLeft"</text>
</g>
<path d="M1218.5 289h10"></path>
<path d="M1228.5 289h10"></path>
<g class="terminal">
<path d="M1238.5 289h0"></path>
<path d="M1377.5 289h0"></path>
<rect x="1238.5" y="278" width="139" height="22" rx="10" ry="10"></rect>
<text x="1308" y="293">^&#91;\w$%\^~&#93;{2}$</text>
</g>
<path d="M1377.5 289h10"></path>
<path d="M1387.5 289h10"></path>
<g class="terminal">
<path d="M1397.5 289h0"></path>
<path d="M1536.5 289h0"></path>
<rect x="1397.5" y="278" width="139" height="22" rx="10" ry="10"></rect>
<text x="1467" y="293">!"ParenRightW"</text>
</g>
</g>
<path d="M1536.5 289h10"></path>
<path d="M1546.5 289h10"></path>
<g>
<path d="M1556.5 289h0"></path>
<path d="M1818.5 289h0"></path>
<path d="M1586.5 289h10"></path>
<g>
<path d="M1596.5 289h0"></path>
<path d="M1788.5 289h0"></path>
<g>
<path d="M1596.5 289h0"></path>
<path d="M1707.5 289h0"></path>
<path d="M1596.5 289h20"></path>
<g class="terminal">
<path d="M1616.5 289h0"></path>
<path d="M1687.5 289h0"></path>
<rect x="1616.5" y="278" width="71" height="22" rx="10" ry="10"></rect>
<text x="1652" y="293">"FROM"</text>
</g>
<path d="M1687.5 289h20"></path>
<path d="M1596.5 289a10 10 0 0 1 10 10v10a10 10 0 0 0 10 10"></path>
<g class="terminal">
<path d="M1616.5 319h0"></path>
<path d="M1662 319h25.5"></path>
<rect x="1616.5" y="308" width="45.5" height="22" rx="10" ry="10"></rect>
<text x="1639.25" y="323">"="</text>
</g>
<path d="M1687.5 319a10 10 0 0 0 10 -10v-10a10 10 0 0 1 10 -10"></path>
</g>
<path d="M1707.5 289h10"></path>
<g class="non-terminal">
<path d="M1717.5 289h0"></path>
<path d="M1788.5 289h0"></path>
<rect x="1717.5" y="278" width="71" height="22"></rect>
<a xlink:href="#/abap/expression/Source"><text x="1753" y="293">Source</text>
</a>
</g>
</g>
<path d="M1788.5 289h10"></path>
<path d="M1586.5 289v50a10 10 0 0 0 10 10"></path>
<g>
<path d="M1596.5 349h0"></path>
<path d="M1775.5 349h13"></path>
<g class="terminal">
<path d="M1596.5 349h0"></path>
<path d="M1684.5 349h0"></path>
<rect x="1596.5" y="338" width="88" height="22" rx="10" ry="10"></rect>
<text x="1640.5" y="353">"CLIENT"</text>
</g>
<path d="M1684.5 349h10"></path>
<path d="M1694.5 349h10"></path>
<g class="non-terminal">
<path d="M1704.5 349h0"></path>
<path d="M1775.5 349h0"></path>
<rect x="1704.5" y="338" width="71" height="22"></rect>
<a xlink:href="#/abap/expression/Source"><text x="1740" y="353">Source</text>
</a>
</g>
</g>
<path d="M1788.5 349a10 10 0 0 0 10 -10v-50"></path>
<path d="M1586.5 289v80a10 10 0 0 0 10 10"></path>
<g>
<path d="M1596.5 379h0"></path>
<path d="M1741.5 379h47"></path>
<g class="terminal">
<path d="M1596.5 379h0"></path>
<path d="M1650.5 379h0"></path>
<rect x="1596.5" y="368" width="54" height="22" rx="10" ry="10"></rect>
<text x="1623.5" y="383">"ID"</text>
</g>
<path d="M1650.5 379h10"></path>
<path d="M1660.5 379h10"></path>
<g class="non-terminal">
<path d="M1670.5 379h0"></path>
<path d="M1741.5 379h0"></path>
<rect x="1670.5" y="368" width="71" height="22"></rect>
<a xlink:href="#/abap/expression/Source"><text x="1706" y="383">Source</text>
</a>
</g>
</g>
<path d="M1788.5 379a10 10 0 0 0 10 -10v-80"></path>
<g class="diagram-text">
<title>take one or more branches, once each, in any order</title>
<path d="M 1586.5 279 h -26 a 4 4 0 0 0 -4 4 v 12 a 4 4 0 0 0 4 4 h 26 z" class="diagram-text"></path>
<text x="1571.5" y="293" class="diagram-text">1+</text>
<path d="M 1798.5 279 h 16 a 4 4 0 0 1 4 4 v 12 a 4 4 0 0 1 -4 4 h -16 z" class="diagram-text"></path>
<path d="M 1805.5 287 a 4 4 0 1 0 6 -1 m 2.75 -1 h -4 v 4 m 0 -3 h 2" style="stroke-width: 1.75"></path>
</g>
</g>
</g>
<path d="M1818.5 289a10 10 0 0 0 10 -10v-229a10 10 0 0 1 10 -10"></path>
</g>
<g>
<path d="M1838.5 40h0"></path>
<path d="M2121.5 40h0"></path>
<path d="M1838.5 40a10 10 0 0 0 10 -10v0a10 10 0 0 1 10 -10"></path>
<g>
<path d="M1858.5 20h243"></path>
</g>
<path d="M2101.5 20a10 10 0 0 1 10 10v0a10 10 0 0 0 10 10"></path>
<path d="M1838.5 40h20"></path>
<g>
<path d="M1858.5 40h0"></path>
<path d="M2101.5 40h0"></path>
<g class="terminal">
<path d="M1858.5 40h0"></path>
<path d="M1989 40h0"></path>
<rect x="1858.5" y="29" width="130.5" height="22" rx="10" ry="10"></rect>
<text x="1923.75" y="44">"COMPRESSION"</text>
</g>
<path d="M1989 40h10"></path>
<g>
<path d="M1999 40h0"></path>
<path d="M2101.5 40h0"></path>
<path d="M1999 40h20"></path>
<g class="terminal">
<path d="M2019 40h0"></path>
<path d="M2073 40h8.5"></path>
<rect x="2019" y="29" width="54" height="22" rx="10" ry="10"></rect>
<text x="2046" y="44">"ON"</text>
</g>
<path d="M2081.5 40h20"></path>
<path d="M1999 40a10 10 0 0 1 10 10v10a10 10 0 0 0 10 10"></path>
<g class="terminal">
<path d="M2019 70h0"></path>
<path d="M2081.5 70h0"></path>
<rect x="2019" y="59" width="62.5" height="22" rx="10" ry="10"></rect>
<text x="2050.25" y="74">"OFF"</text>
</g>
<path d="M2081.5 70a10 10 0 0 0 10 -10v-10a10 10 0 0 1 10 -10"></path>
</g>
</g>
<path d="M2101.5 40h20"></path>
</g>
<g>
<path d="M2121.5 40h0"></path>
<path d="M2408.5 40h0"></path>
<path d="M2121.5 40a10 10 0 0 0 10 -10v0a10 10 0 0 1 10 -10"></path>
<g>
<path d="M2141.5 20h247"></path>
</g>
<path d="M2388.5 20a10 10 0 0 1 10 10v0a10 10 0 0 0 10 10"></path>
<path d="M2121.5 40h20"></path>
<g>
<path d="M2141.5 40h0"></path>
<path d="M2388.5 40h0"></path>
<g class="terminal">
<path d="M2141.5 40h0"></path>
<path d="M2297.5 40h0"></path>
<rect x="2141.5" y="29" width="156" height="22" rx="10" ry="10"></rect>
<text x="2219.5" y="44">"CODE PAGE HINT"</text>
</g>
<path d="M2297.5 40h10"></path>
<path d="M2307.5 40h10"></path>
<g class="non-terminal">
<path d="M2317.5 40h0"></path>
<path d="M2388.5 40h0"></path>
<rect x="2317.5" y="29" width="71" height="22"></rect>
<a xlink:href="#/abap/expression/Source"><text x="2353" y="44">Source</text>
</a>
</g>
</g>
<path d="M2388.5 40h20"></path>
</g>
</g>
<path d="M2408.5 40h10"></path>
<path d="M 2418.5 40 h 20 m -10 -10 v 20 m 10 -20 v 20"></path>
</g>
</svg>
