<svg xmlns="http://www.w3.org/2000/svg" xmlns:xlink="http://www.w3.org/1999/xlink" class="railroad-diagram" width="669.5" height="101" viewBox="0 0 669.5 101">
<defs>
<style type="text/css"><![CDATA[
path {
stroke-width: 3;
stroke: black;
fill: rgba(0,0,0,0);
}
text {
font: bold 14px monospace;
text-anchor: middle;
}
text.diagram-text {
font-size: 12px;
}
a {
fill: blue;
}
text.diagram-arrow {
font-size: 16px;
}
text.label {
text-anchor: start;
}
text.comment {
font: italic 12px monospace;
}
rect {
stroke-width: 3;
stroke: black;
fill: #BCBCBC;
}
path.diagram-text {
stroke-width: 3;
stroke: black;
fill: #BCBCBC;
cursor: help;
}
]]></style>
</defs>
<g transform="translate(.5 .5)">
<g>
<path d="M20 30v20m10 -20v20m-10 -10h20"></path>
</g>
<path d="M40 40h10"></path>
<g>
<path d="M50 40h0"></path>
<path d="M619.5 40h0"></path>
<g class="comment ">
<path d="M50 40h0"></path>
<path d="M193 40h0"></path>
<text x="121.5" y="45" class="comment">not langver=KeyUser</text>
</g>
<path d="M193 40h10"></path>
<path d="M203 40h10"></path>
<g>
<path d="M213 40h0"></path>
<path d="M619.5 40h0"></path>
<g class="terminal ">
<path d="M213 40h0"></path>
<path d="M318 40h0"></path>
<rect x="213" y="29" width="105" height="22" rx="10" ry="10"></rect>
<text x="265.5" y="44">"GET TIME"</text>
</g>
<path d="M318 40h10"></path>
<g>
<path d="M328 40h0"></path>
<path d="M619.5 40h0"></path>
<path d="M328 40a10 10 0 0 0 10 -10v0a10 10 0 0 1 10 -10"></path>
<g>
<path d="M348 20h251.5"></path>
</g>
<path d="M599.5 20a10 10 0 0 1 10 10v0a10 10 0 0 0 10 10"></path>
<path d="M328 40h20"></path>
<g>
<path d="M348 40h0"></path>
<path d="M599.5 40h0"></path>
<g>
<path d="M348 40h0"></path>
<path d="M518.5 40h0"></path>
<path d="M348 40h20"></path>
<g class="terminal ">
<path d="M368 40h0"></path>
<path d="M498.5 40h0"></path>
<rect x="368" y="29" width="130.5" height="22" rx="10" ry="10"></rect>
<text x="433.25" y="44">"STAMP FIELD"</text>
</g>
<path d="M498.5 40h20"></path>
<path d="M348 40a10 10 0 0 1 10 10v10a10 10 0 0 0 10 10"></path>
<g class="terminal ">
<path d="M368 70h25.5"></path>
<path d="M473 70h25.5"></path>
<rect x="393.5" y="59" width="79.5" height="22" rx="10" ry="10"></rect>
<text x="433.25" y="74">"FIELD"</text>
</g>
<path d="M498.5 70a10 10 0 0 0 10 -10v-10a10 10 0 0 1 10 -10"></path>
</g>
<path d="M518.5 40h10"></path>
<g class="non-terminal ">
<path d="M528.5 40h0"></path>
<path d="M599.5 40h0"></path>
<rect x="528.5" y="29" width="71" height="22"></rect>
<a xlink:href="#/abap/expression/Target"><text x="564" y="44">Target</text>
</a>
</g>
</g>
<path d="M599.5 40h20"></path>
</g>
</g>
</g>
<path d="M619.5 40h10"></path>
<path d="M 629.5 40 h 20 m -10 -10 v 20 m 10 -20 v 20"></path>
</g>
</svg>
