<svg xmlns="http://www.w3.org/2000/svg" xmlns:xlink="http://www.w3.org/1999/xlink" class="railroad-diagram" width="969.5" height="71" viewBox="0 0 969.5 71">
<defs>
<style type="text/css"><![CDATA[
path {
stroke-width: 3;
stroke: black;
fill: rgba(0,0,0,0);
}
text {
font: bold 14px monospace;
text-anchor: middle;
}
text.diagram-text {
font-size: 12px;
}
a {
fill: blue;
}
text.diagram-arrow {
font-size: 16px;
}
text.label {
text-anchor: start;
}
text.comment {
font: italic 12px monospace;
}
rect {
stroke-width: 3;
stroke: black;
fill: #BCBCBC;
}
path.diagram-text {
stroke-width: 3;
stroke: black;
fill: #BCBCBC;
cursor: help;
}
]]></style>
</defs>
<g transform="translate(.5 .5)">
<g>
<path d="M20 30v20m10 -20v20m-10 -10h20"></path>
</g>
<path d="M40 40h10"></path>
<g>
<path d="M50 40h0"></path>
<path d="M919.5 40h0"></path>
<g class="comment ">
<path d="M50 40h0"></path>
<path d="M179 40h0"></path>
<text x="114.5" y="45" class="comment">not langver=Cloud</text>
</g>
<path d="M179 40h10"></path>
<path d="M189 40h10"></path>
<g>
<path d="M199 40h0"></path>
<path d="M919.5 40h0"></path>
<g class="terminal ">
<path d="M199 40h0"></path>
<path d="M346.5 40h0"></path>
<rect x="199" y="29" width="147.5" height="22" rx="10" ry="10"></rect>
<text x="272.75" y="44">"GET PF-STATUS"</text>
</g>
<path d="M346.5 40h10"></path>
<path d="M356.5 40h10"></path>
<g class="non-terminal ">
<path d="M366.5 40h0"></path>
<path d="M437.5 40h0"></path>
<rect x="366.5" y="29" width="71" height="22"></rect>
<a xlink:href="#/abap/expression/Target"><text x="402" y="44">Target</text>
</a>
</g>
<path d="M437.5 40h10"></path>
<g>
<path d="M447.5 40h0"></path>
<path d="M675 40h0"></path>
<path d="M447.5 40a10 10 0 0 0 10 -10v0a10 10 0 0 1 10 -10"></path>
<g>
<path d="M467.5 20h187.5"></path>
</g>
<path d="M655 20a10 10 0 0 1 10 10v0a10 10 0 0 0 10 10"></path>
<path d="M447.5 40h20"></path>
<g>
<path d="M467.5 40h0"></path>
<path d="M655 40h0"></path>
<g class="terminal ">
<path d="M467.5 40h0"></path>
<path d="M564 40h0"></path>
<rect x="467.5" y="29" width="96.5" height="22" rx="10" ry="10"></rect>
<text x="515.75" y="44">"PROGRAM"</text>
</g>
<path d="M564 40h10"></path>
<path d="M574 40h10"></path>
<g class="non-terminal ">
<path d="M584 40h0"></path>
<path d="M655 40h0"></path>
<rect x="584" y="29" width="71" height="22"></rect>
<a xlink:href="#/abap/expression/Source"><text x="619.5" y="44">Source</text>
</a>
</g>
</g>
<path d="M655 40h20"></path>
</g>
<g>
<path d="M675 40h0"></path>
<path d="M919.5 40h0"></path>
<path d="M675 40a10 10 0 0 0 10 -10v0a10 10 0 0 1 10 -10"></path>
<g>
<path d="M695 20h204.5"></path>
</g>
<path d="M899.5 20a10 10 0 0 1 10 10v0a10 10 0 0 0 10 10"></path>
<path d="M675 40h20"></path>
<g>
<path d="M695 40h0"></path>
<path d="M899.5 40h0"></path>
<g class="terminal ">
<path d="M695 40h0"></path>
<path d="M808.5 40h0"></path>
<rect x="695" y="29" width="113.5" height="22" rx="10" ry="10"></rect>
<text x="751.75" y="44">"EXCLUDING"</text>
</g>
<path d="M808.5 40h10"></path>
<path d="M818.5 40h10"></path>
<g class="non-terminal ">
<path d="M828.5 40h0"></path>
<path d="M899.5 40h0"></path>
<rect x="828.5" y="29" width="71" height="22"></rect>
<a xlink:href="#/abap/expression/Source"><text x="864" y="44">Source</text>
</a>
</g>
</g>
<path d="M899.5 40h20"></path>
</g>
</g>
</g>
<path d="M919.5 40h10"></path>
<path d="M 929.5 40 h 20 m -10 -10 v 20 m 10 -20 v 20"></path>
</g>
</svg>
