<svg xmlns="http://www.w3.org/2000/svg" xmlns:xlink="http://www.w3.org/1999/xlink" class="railroad-diagram" width="1048.5" height="281" viewBox="0 0 1048.5 281">
<defs>
<style type="text/css"><![CDATA[
path {
stroke-width: 3;
stroke: black;
fill: rgba(0,0,0,0);
}
text {
font: bold 14px monospace;
text-anchor: middle;
}
text.diagram-text {
font-size: 12px;
}
a {
fill: blue;
}
text.diagram-arrow {
font-size: 16px;
}
text.label {
text-anchor: start;
}
text.comment {
font: italic 12px monospace;
}
rect {
stroke-width: 3;
stroke: black;
fill: #BCBCBC;
}
path.diagram-text {
stroke-width: 3;
stroke: black;
fill: #BCBCBC;
cursor: help;
}
]]></style>
</defs>
<g transform="translate(.5 .5)">
<g>
<path d="M20 30v20m10 -20v20m-10 -10h20"></path>
</g>
<path d="M40 40h10"></path>
<g>
<path d="M50 40h0"></path>
<path d="M998.5 40h0"></path>
<g class="comment ">
<path d="M50 40h0"></path>
<path d="M123 40h0"></path>
<text x="86.5" y="45" class="comment">not Cloud</text>
</g>
<path d="M123 40h10"></path>
<path d="M133 40h10"></path>
<g>
<path d="M143 40h0"></path>
<path d="M998.5 40h0"></path>
<g class="terminal ">
<path d="M143 40h0"></path>
<path d="M290.5 40h0"></path>
<rect x="143" y="29" width="147.5" height="22" rx="10" ry="10"></rect>
<text x="216.75" y="44">"INSERT REPORT"</text>
</g>
<path d="M290.5 40h10"></path>
<path d="M300.5 40h10"></path>
<g class="non-terminal ">
<path d="M310.5 40h0"></path>
<path d="M381.5 40h0"></path>
<rect x="310.5" y="29" width="71" height="22"></rect>
<a xlink:href="#/abap/expression/Source"><text x="346" y="44">Source</text>
</a>
</g>
<path d="M381.5 40h10"></path>
<path d="M391.5 40h10"></path>
<g class="terminal ">
<path d="M401.5 40h0"></path>
<path d="M472.5 40h0"></path>
<rect x="401.5" y="29" width="71" height="22" rx="10" ry="10"></rect>
<text x="437" y="44">"FROM"</text>
</g>
<path d="M472.5 40h10"></path>
<path d="M482.5 40h10"></path>
<g class="non-terminal ">
<path d="M492.5 40h0"></path>
<path d="M563.5 40h0"></path>
<rect x="492.5" y="29" width="71" height="22"></rect>
<a xlink:href="#/abap/expression/Source"><text x="528" y="44">Source</text>
</a>
</g>
<path d="M563.5 40h10"></path>
<g>
<path d="M573.5 40h0"></path>
<path d="M998.5 40h0"></path>
<path d="M573.5 40a10 10 0 0 0 10 -10v0a10 10 0 0 1 10 -10"></path>
<g>
<path d="M593.5 20h385"></path>
</g>
<path d="M978.5 20a10 10 0 0 1 10 10v0a10 10 0 0 0 10 10"></path>
<path d="M573.5 40h20"></path>
<g>
<path d="M593.5 40h0"></path>
<path d="M978.5 40h0"></path>
<path d="M623.5 40h10"></path>
<g>
<path d="M633.5 40h72.25"></path>
<path d="M876.25 40h72.25"></path>
<g class="terminal ">
<path d="M705.75 40h0"></path>
<path d="M785.25 40h0"></path>
<rect x="705.75" y="29" width="79.5" height="22" rx="10" ry="10"></rect>
<text x="745.5" y="44">"STATE"</text>
</g>
<path d="M785.25 40h10"></path>
<path d="M795.25 40h10"></path>
<g class="non-terminal ">
<path d="M805.25 40h0"></path>
<path d="M876.25 40h0"></path>
<rect x="805.25" y="29" width="71" height="22"></rect>
<a xlink:href="#/abap/expression/Source"><text x="840.75" y="44">Source</text>
</a>
</g>
</g>
<path d="M948.5 40h10"></path>
<path d="M623.5 40v20a10 10 0 0 0 10 10"></path>
<g>
<path d="M633.5 70h34"></path>
<path d="M914.5 70h34"></path>
<g class="terminal ">
<path d="M667.5 70h0"></path>
<path d="M823.5 70h0"></path>
<rect x="667.5" y="59" width="156" height="22" rx="10" ry="10"></rect>
<text x="745.5" y="74">"EXTENSION TYPE"</text>
</g>
<path d="M823.5 70h10"></path>
<path d="M833.5 70h10"></path>
<g class="non-terminal ">
<path d="M843.5 70h0"></path>
<path d="M914.5 70h0"></path>
<rect x="843.5" y="59" width="71" height="22"></rect>
<a xlink:href="#/abap/expression/Source"><text x="879" y="74">Source</text>
</a>
</g>
</g>
<path d="M948.5 70a10 10 0 0 0 10 -10v-20"></path>
<path d="M623.5 40v50a10 10 0 0 0 10 10"></path>
<g>
<path d="M633.5 100h29.75"></path>
<path d="M918.75 100h29.75"></path>
<g class="terminal ">
<path d="M663.25 100h0"></path>
<path d="M827.75 100h0"></path>
<rect x="663.25" y="89" width="164.5" height="22" rx="10" ry="10"></rect>
<text x="745.5" y="104">"DIRECTORY ENTRY"</text>
</g>
<path d="M827.75 100h10"></path>
<path d="M837.75 100h10"></path>
<g class="non-terminal ">
<path d="M847.75 100h0"></path>
<path d="M918.75 100h0"></path>
<rect x="847.75" y="89" width="71" height="22"></rect>
<a xlink:href="#/abap/expression/Source"><text x="883.25" y="104">Source</text>
</a>
</g>
</g>
<path d="M948.5 100a10 10 0 0 0 10 -10v-50"></path>
<path d="M623.5 40v80a10 10 0 0 0 10 10"></path>
<g>
<path d="M633.5 130h25.5"></path>
<path d="M923 130h25.5"></path>
<g class="terminal ">
<path d="M659 130h0"></path>
<path d="M832 130h0"></path>
<rect x="659" y="119" width="173" height="22" rx="10" ry="10"></rect>
<text x="745.5" y="134">"UNICODE ENABLING"</text>
</g>
<path d="M832 130h10"></path>
<path d="M842 130h10"></path>
<g class="non-terminal ">
<path d="M852 130h0"></path>
<path d="M923 130h0"></path>
<rect x="852" y="119" width="71" height="22"></rect>
<a xlink:href="#/abap/expression/Source"><text x="887.5" y="134">Source</text>
</a>
</g>
</g>
<path d="M948.5 130a10 10 0 0 0 10 -10v-80"></path>
<path d="M623.5 40v110a10 10 0 0 0 10 10"></path>
<g>
<path d="M633.5 160h42.5"></path>
<path d="M906 160h42.5"></path>
<g class="terminal ">
<path d="M676 160h0"></path>
<path d="M815 160h0"></path>
<rect x="676" y="149" width="139" height="22" rx="10" ry="10"></rect>
<text x="745.5" y="164">"PROGRAM TYPE"</text>
</g>
<path d="M815 160h10"></path>
<path d="M825 160h10"></path>
<g class="non-terminal ">
<path d="M835 160h0"></path>
<path d="M906 160h0"></path>
<rect x="835" y="149" width="71" height="22"></rect>
<a xlink:href="#/abap/expression/Source"><text x="870.5" y="164">Source</text>
</a>
</g>
</g>
<path d="M948.5 160a10 10 0 0 0 10 -10v-110"></path>
<path d="M623.5 40v140a10 10 0 0 0 10 10"></path>
<g>
<path d="M633.5 190h34.75"></path>
<path d="M913.75 190h34.75"></path>
<g class="comment ">
<path d="M668.25 190h0"></path>
<path d="M706.25 190h0"></path>
<text x="687.25" y="195" class="comment">v750</text>
</g>
<path d="M706.25 190h10"></path>
<path d="M716.25 190h10"></path>
<g>
<path d="M726.25 190h0"></path>
<path d="M913.75 190h0"></path>
<g class="terminal ">
<path d="M726.25 190h0"></path>
<path d="M822.75 190h0"></path>
<rect x="726.25" y="179" width="96.5" height="22" rx="10" ry="10"></rect>
<text x="774.5" y="194">"VERSION"</text>
</g>
<path d="M822.75 190h10"></path>
<path d="M832.75 190h10"></path>
<g class="non-terminal ">
<path d="M842.75 190h0"></path>
<path d="M913.75 190h0"></path>
<rect x="842.75" y="179" width="71" height="22"></rect>
<a xlink:href="#/abap/expression/Source"><text x="878.25" y="194">Source</text>
</a>
</g>
</g>
</g>
<path d="M948.5 190a10 10 0 0 0 10 -10v-140"></path>
<path d="M623.5 40v170a10 10 0 0 0 10 10"></path>
<g>
<path d="M633.5 220h0"></path>
<path d="M948.5 220h0"></path>
<g class="terminal ">
<path d="M633.5 220h0"></path>
<path d="M857.5 220h0"></path>
<rect x="633.5" y="209" width="224" height="22" rx="10" ry="10"></rect>
<text x="745.5" y="224">"FIXED-POINT ARITHMETIC"</text>
</g>
<path d="M857.5 220h10"></path>
<path d="M867.5 220h10"></path>
<g class="non-terminal ">
<path d="M877.5 220h0"></path>
<path d="M948.5 220h0"></path>
<rect x="877.5" y="209" width="71" height="22"></rect>
<a xlink:href="#/abap/expression/Source"><text x="913" y="224">Source</text>
</a>
</g>
</g>
<path d="M948.5 220a10 10 0 0 0 10 -10v-170"></path>
<path d="M623.5 40v200a10 10 0 0 0 10 10"></path>
<g class="terminal ">
<path d="M633.5 250h41.25"></path>
<path d="M907.25 250h41.25"></path>
<rect x="674.75" y="239" width="232.5" height="22" rx="10" ry="10"></rect>
<text x="791" y="254">"KEEPING DIRECTORY ENTRY"</text>
</g>
<path d="M948.5 250a10 10 0 0 0 10 -10v-200"></path>
<g class="diagram-text">
<title>take one or more branches, once each, in any order</title>
<path d="M 623.5 30 h -26 a 4 4 0 0 0 -4 4 v 12 a 4 4 0 0 0 4 4 h 26 z" class="diagram-text"></path>
<text x="608.5" y="44" class="diagram-text">1+</text>
<path d="M 958.5 30 h 16 a 4 4 0 0 1 4 4 v 12 a 4 4 0 0 1 -4 4 h -16 z" class="diagram-text"></path>
<path d="M 965.5 38 a 4 4 0 1 0 6 -1 m 2.75 -1 h -4 v 4 m 0 -3 h 2" style="stroke-width: 1.75"></path>
</g>
</g>
<path d="M978.5 40h20"></path>
</g>
</g>
</g>
<path d="M998.5 40h10"></path>
<path d="M 1008.5 40 h 20 m -10 -10 v 20 m 10 -20 v 20"></path>
</g>
</svg>
