<svg xmlns="http://www.w3.org/2000/svg" xmlns:xlink="http://www.w3.org/1999/xlink" class="railroad-diagram" width="783" height="149" viewBox="0 0 783 149">
<defs>
<style type="text/css"><![CDATA[
path {
stroke-width: 3;
stroke: black;
fill: rgba(0,0,0,0);
}
text {
font: bold 14px monospace;
text-anchor: middle;
}
text.diagram-text {
font-size: 12px;
}
a {
fill: blue;
}
text.diagram-arrow {
font-size: 16px;
}
text.label {
text-anchor: start;
}
text.comment {
font: italic 12px monospace;
}
rect {
stroke-width: 3;
stroke: black;
fill: #BCBCBC;
}
path.diagram-text {
stroke-width: 3;
stroke: black;
fill: #BCBCBC;
cursor: help;
}
]]></style>
</defs>
<g transform="translate(.5 .5)">
<g>
<path d="M20 30v20m10 -20v20m-10 -10h20"></path>
</g>
<path d="M40 40h10"></path>
<g>
<path d="M50 40h0"></path>
<path d="M733 40h0"></path>
<g class="comment ">
<path d="M50 40h0"></path>
<path d="M179 40h0"></path>
<text x="114.5" y="45" class="comment">not langver=Cloud</text>
</g>
<path d="M179 40h10"></path>
<g>
<path d="M189 40h0"></path>
<path d="M733 40h0"></path>
<path d="M189 40h20"></path>
<g>
<path d="M209 40h0"></path>
<path d="M713 40h0"></path>
<g class="terminal ">
<path d="M209 40h0"></path>
<path d="M339.5 40h0"></path>
<rect x="209" y="29" width="130.5" height="22" rx="10" ry="10"></rect>
<text x="274.25" y="44">"BREAK-POINT"</text>
</g>
<path d="M339.5 40h10"></path>
<g>
<path d="M349.5 40h0"></path>
<path d="M713 40h0"></path>
<path d="M349.5 40a10 10 0 0 0 10 -10v0a10 10 0 0 1 10 -10"></path>
<g>
<path d="M369.5 20h323.5"></path>
</g>
<path d="M693 20a10 10 0 0 1 10 10v0a10 10 0 0 0 10 10"></path>
<path d="M349.5 40h20"></path>
<g>
<path d="M369.5 40h0"></path>
<path d="M693 40h0"></path>
<path d="M369.5 40h20"></path>
<g class="terminal ">
<path d="M389.5 40h0"></path>
<path d="M673 40h0"></path>
<rect x="389.5" y="29" width="283.5" height="22" rx="10" ry="10"></rect>
<text x="531.25" y="44">"AT NEXT APPLICATION STATEMENT"</text>
</g>
<path d="M673 40h20"></path>
<path d="M369.5 40a10 10 0 0 1 10 10v10a10 10 0 0 0 10 10"></path>
<g class="non-terminal ">
<path d="M389.5 70h106.25"></path>
<path d="M566.75 70h106.25"></path>
<rect x="495.75" y="59" width="71" height="22"></rect>
<a xlink:href="#/abap/expression/Source"><text x="531.25" y="74">Source</text>
</a>
</g>
<path d="M673 70a10 10 0 0 0 10 -10v-10a10 10 0 0 1 10 -10"></path>
</g>
<path d="M693 40h20"></path>
</g>
</g>
<path d="M713 40h20"></path>
<path d="M189 40a10 10 0 0 1 10 10v49a10 10 0 0 0 10 10"></path>
<g>
<path d="M209 109h158.75"></path>
<path d="M554.25 109h158.75"></path>
<g class="terminal ">
<path d="M367.75 109h0"></path>
<path d="M447.25 109h0"></path>
<rect x="367.75" y="98" width="79.5" height="22" rx="10" ry="10"></rect>
<text x="407.5" y="113">"BREAK"</text>
</g>
<path d="M447.25 109h10"></path>
<g>
<path d="M457.25 109h0"></path>
<path d="M554.25 109h0"></path>
<path d="M457.25 109a10 10 0 0 0 10 -10v0a10 10 0 0 1 10 -10"></path>
<g>
<path d="M477.25 89h57"></path>
</g>
<path d="M534.25 89a10 10 0 0 1 10 10v0a10 10 0 0 0 10 10"></path>
<path d="M457.25 109h20"></path>
<g>
<path d="M477.25 109h0"></path>
<path d="M534.25 109h0"></path>
<path d="M477.25 109h10"></path>
<g class="terminal ">
<path d="M487.25 109h0"></path>
<path d="M524.25 109h0"></path>
<rect x="487.25" y="98" width="37" height="22" rx="10" ry="10"></rect>
<text x="505.75" y="113">.&#42;</text>
</g>
<path d="M524.25 109h10"></path>
<path d="M487.25 109a10 10 0 0 0 -10 10v0a10 10 0 0 0 10 10"></path>
<g>
<path d="M487.25 129h37"></path>
</g>
<path d="M524.25 129a10 10 0 0 0 10 -10v0a10 10 0 0 0 -10 -10"></path>
</g>
<path d="M534.25 109h20"></path>
</g>
</g>
<path d="M713 109a10 10 0 0 0 10 -10v-49a10 10 0 0 1 10 -10"></path>
</g>
</g>
<path d="M733 40h10"></path>
<path d="M 743 40 h 20 m -10 -10 v 20 m 10 -20 v 20"></path>
</g>
</svg>
