<svg xmlns="http://www.w3.org/2000/svg" xmlns:xlink="http://www.w3.org/1999/xlink" class="railroad-diagram" width="576" height="62" viewBox="0 0 576 62">
<defs>
<style type="text/css"><![CDATA[
path {
stroke-width: 3;
stroke: black;
fill: rgba(0,0,0,0);
}
text {
font: bold 14px monospace;
text-anchor: middle;
}
text.diagram-text {
font-size: 12px;
}
a {
fill: blue;
}
text.diagram-arrow {
font-size: 16px;
}
text.label {
text-anchor: start;
}
text.comment {
font: italic 12px monospace;
}
rect {
stroke-width: 3;
stroke: black;
fill: #BCBCBC;
}
path.diagram-text {
stroke-width: 3;
stroke: black;
fill: #BCBCBC;
cursor: help;
}
]]></style>
</defs>
<g transform="translate(.5 .5)">
<g>
<path d="M20 21v20m10 -20v20m-10 -10h20"></path>
</g>
<path d="M40 31h10"></path>
<g>
<path d="M50 31h0"></path>
<path d="M526 31h0"></path>
<g class="comment ">
<path d="M50 31h0"></path>
<path d="M179 31h0"></path>
<text x="114.5" y="36" class="comment">not langver=Cloud</text>
</g>
<path d="M179 31h10"></path>
<path d="M189 31h10"></path>
<g>
<path d="M199 31h0"></path>
<path d="M526 31h0"></path>
<g class="terminal ">
<path d="M199 31h0"></path>
<path d="M270 31h0"></path>
<rect x="199" y="20" width="71" height="22" rx="10" ry="10"></rect>
<text x="234.5" y="35">"PACK"</text>
</g>
<path d="M270 31h10"></path>
<path d="M280 31h10"></path>
<g class="non-terminal ">
<path d="M290 31h0"></path>
<path d="M361 31h0"></path>
<rect x="290" y="20" width="71" height="22"></rect>
<a xlink:href="#/abap/expression/Source"><text x="325.5" y="35">Source</text>
</a>
</g>
<path d="M361 31h10"></path>
<path d="M371 31h10"></path>
<g class="terminal ">
<path d="M381 31h0"></path>
<path d="M435 31h0"></path>
<rect x="381" y="20" width="54" height="22" rx="10" ry="10"></rect>
<text x="408" y="35">"TO"</text>
</g>
<path d="M435 31h10"></path>
<path d="M445 31h10"></path>
<g class="non-terminal ">
<path d="M455 31h0"></path>
<path d="M526 31h0"></path>
<rect x="455" y="20" width="71" height="22"></rect>
<a xlink:href="#/abap/expression/Target"><text x="490.5" y="35">Target</text>
</a>
</g>
</g>
</g>
<path d="M526 31h10"></path>
<path d="M 536 31 h 20 m -10 -10 v 20 m 10 -20 v 20"></path>
</g>
</svg>
