<svg xmlns="http://www.w3.org/2000/svg" xmlns:xlink="http://www.w3.org/1999/xlink" class="railroad-diagram" width="527" height="101" viewBox="0 0 527 101">
<defs>
<style type="text/css"><![CDATA[
path {
stroke-width: 3;
stroke: black;
fill: rgba(0,0,0,0);
}
text {
font: bold 14px monospace;
text-anchor: middle;
}
text.diagram-text {
font-size: 12px;
}
a {
fill: blue;
}
text.diagram-arrow {
font-size: 16px;
}
text.label {
text-anchor: start;
}
text.comment {
font: italic 12px monospace;
}
rect {
stroke-width: 3;
stroke: black;
fill: #BCBCBC;
}
path.diagram-text {
stroke-width: 3;
stroke: black;
fill: #BCBCBC;
cursor: help;
}
]]></style>
</defs>
<g transform="translate(.5 .5)">
<g>
<path d="M20 30v20m10 -20v20m-10 -10h20"></path>
</g>
<path d="M40 40h10"></path>
<g>
<path d="M50 40h0"></path>
<path d="M477 40h0"></path>
<g>
<path d="M50 40h0"></path>
<path d="M123 40h0"></path>
<text x="86.5" y="45" class="comment">not Cloud</text>
</g>
<path d="M123 40h10"></path>
<path d="M133 40h10"></path>
<g>
<path d="M143 40h0"></path>
<path d="M477 40h0"></path>
<g class="terminal">
<path d="M143 40h0"></path>
<path d="M248 40h0"></path>
<rect x="143" y="29" width="105" height="22" rx="10" ry="10"></rect>
<text x="195.5" y="44">"NEW-LINE"</text>
</g>
<path d="M248 40h10"></path>
<g>
<path d="M258 40h0"></path>
<path d="M477 40h0"></path>
<path d="M258 40a10 10 0 0 0 10 -10v0a10 10 0 0 1 10 -10"></path>
<g>
<path d="M278 20h179"></path>
</g>
<path d="M457 20a10 10 0 0 1 10 10v0a10 10 0 0 0 10 10"></path>
<path d="M258 40h20"></path>
<g>
<path d="M278 40h0"></path>
<path d="M457 40h0"></path>
<path d="M278 40h20"></path>
<g class="terminal">
<path d="M298 40h0"></path>
<path d="M411.5 40h25.5"></path>
<rect x="298" y="29" width="113.5" height="22" rx="10" ry="10"></rect>
<text x="354.75" y="44">"SCROLLING"</text>
</g>
<path d="M437 40h20"></path>
<path d="M278 40a10 10 0 0 1 10 10v10a10 10 0 0 0 10 10"></path>
<g class="terminal">
<path d="M298 70h0"></path>
<path d="M437 70h0"></path>
<rect x="298" y="59" width="139" height="22" rx="10" ry="10"></rect>
<text x="367.5" y="74">"NO-SCROLLING"</text>
</g>
<path d="M437 70a10 10 0 0 0 10 -10v-10a10 10 0 0 1 10 -10"></path>
</g>
<path d="M457 40h20"></path>
</g>
</g>
</g>
<path d="M477 40h10"></path>
<path d="M 487 40 h 20 m -10 -10 v 20 m 10 -20 v 20"></path>
</g>
</svg>
