<svg xmlns="http://www.w3.org/2000/svg" xmlns:xlink="http://www.w3.org/1999/xlink" class="railroad-diagram" width="1351" height="131" viewBox="0 0 1351 131">
<defs>
<style type="text/css"><![CDATA[
path {
stroke-width: 3;
stroke: black;
fill: rgba(0,0,0,0);
}
text {
font: bold 14px monospace;
text-anchor: middle;
}
text.diagram-text {
font-size: 12px;
}
a {
fill: blue;
}
text.diagram-arrow {
font-size: 16px;
}
text.label {
text-anchor: start;
}
text.comment {
font: italic 12px monospace;
}
rect {
stroke-width: 3;
stroke: black;
fill: #BCBCBC;
}
path.diagram-text {
stroke-width: 3;
stroke: black;
fill: #BCBCBC;
cursor: help;
}
]]></style>
</defs>
<g transform="translate(.5 .5)">
<g>
<path d="M20 21v20m10 -20v20m-10 -10h20"></path>
</g>
<path d="M40 31h10"></path>
<g>
<path d="M50 31h0"></path>
<path d="M1301 31h0"></path>
<g class="comment ">
<path d="M50 31h0"></path>
<path d="M179 31h0"></path>
<text x="114.5" y="36" class="comment">not langver=Cloud</text>
</g>
<path d="M179 31h10"></path>
<path d="M189 31h10"></path>
<g>
<path d="M199 31h0"></path>
<path d="M1301 31h0"></path>
<g class="terminal ">
<path d="M199 31h0"></path>
<path d="M329.5 31h0"></path>
<rect x="199" y="20" width="130.5" height="22" rx="10" ry="10"></rect>
<text x="264.25" y="35">"DELETE FROM"</text>
</g>
<path d="M329.5 31h10"></path>
<g>
<path d="M339.5 31h0"></path>
<path d="M1301 31h0"></path>
<path d="M339.5 31h20"></path>
<g>
<path d="M359.5 31h358.5"></path>
<path d="M922.5 31h358.5"></path>
<g class="terminal ">
<path d="M718 31h0"></path>
<path d="M831.5 31h0"></path>
<rect x="718" y="20" width="113.5" height="22" rx="10" ry="10"></rect>
<text x="774.75" y="35">"MEMORY ID"</text>
</g>
<path d="M831.5 31h10"></path>
<path d="M841.5 31h10"></path>
<g class="non-terminal ">
<path d="M851.5 31h0"></path>
<path d="M922.5 31h0"></path>
<rect x="851.5" y="20" width="71" height="22"></rect>
<a xlink:href="#/abap/expression/Source"><text x="887" y="35">Source</text>
</a>
</g>
</g>
<path d="M1281 31h20"></path>
<path d="M339.5 31a10 10 0 0 1 10 10v19a10 10 0 0 0 10 10"></path>
<g>
<path d="M359.5 70h0"></path>
<path d="M1281 70h0"></path>
<g class="terminal ">
<path d="M359.5 70h0"></path>
<path d="M447.5 70h0"></path>
<rect x="359.5" y="59" width="88" height="22" rx="10" ry="10"></rect>
<text x="403.5" y="74">"SHARED"</text>
</g>
<path d="M447.5 70h10"></path>
<g>
<path d="M457.5 70h0"></path>
<path d="M585.5 70h0"></path>
<path d="M457.5 70h20"></path>
<g class="terminal ">
<path d="M477.5 70h0"></path>
<path d="M565.5 70h0"></path>
<rect x="477.5" y="59" width="88" height="22" rx="10" ry="10"></rect>
<text x="521.5" y="74">"MEMORY"</text>
</g>
<path d="M565.5 70h20"></path>
<path d="M457.5 70a10 10 0 0 1 10 10v10a10 10 0 0 0 10 10"></path>
<g class="terminal ">
<path d="M477.5 100h0"></path>
<path d="M565.5 100h0"></path>
<rect x="477.5" y="89" width="88" height="22" rx="10" ry="10"></rect>
<text x="521.5" y="104">"BUFFER"</text>
</g>
<path d="M565.5 100a10 10 0 0 0 10 -10v-10a10 10 0 0 1 10 -10"></path>
</g>
<path d="M585.5 70h10"></path>
<g class="non-terminal ">
<path d="M595.5 70h0"></path>
<path d="M658 70h0"></path>
<rect x="595.5" y="59" width="62.5" height="22"></rect>
<a xlink:href="#/abap/expression/Field"><text x="626.75" y="74">Field</text>
</a>
</g>
<path d="M658 70h10"></path>
<path d="M668 70h10"></path>
<g class="terminal ">
<path d="M678 70h0"></path>
<path d="M723.5 70h0"></path>
<rect x="678" y="59" width="45.5" height="22" rx="10" ry="10"></rect>
<text x="700.75" y="74">"("</text>
</g>
<path d="M723.5 70h10"></path>
<path d="M733.5 70h10"></path>
<g class="terminal ">
<path d="M743.5 70h0"></path>
<path d="M831.5 70h0"></path>
<rect x="743.5" y="59" width="88" height="22" rx="10" ry="10"></rect>
<text x="787.5" y="74">^&#91;\w%&#93;+$</text>
</g>
<path d="M831.5 70h10"></path>
<path d="M841.5 70h10"></path>
<g class="terminal ">
<path d="M851.5 70h0"></path>
<path d="M897 70h0"></path>
<rect x="851.5" y="59" width="45.5" height="22" rx="10" ry="10"></rect>
<text x="874.25" y="74">")"</text>
</g>
<path d="M897 70h10"></path>
<g>
<path d="M907 70h0"></path>
<path d="M1126 70h0"></path>
<path d="M907 70a10 10 0 0 0 10 -10v0a10 10 0 0 1 10 -10"></path>
<g>
<path d="M927 50h179"></path>
</g>
<path d="M1106 50a10 10 0 0 1 10 10v0a10 10 0 0 0 10 10"></path>
<path d="M907 70h20"></path>
<g>
<path d="M927 70h0"></path>
<path d="M1106 70h0"></path>
<g class="terminal ">
<path d="M927 70h0"></path>
<path d="M1015 70h0"></path>
<rect x="927" y="59" width="88" height="22" rx="10" ry="10"></rect>
<text x="971" y="74">"CLIENT"</text>
</g>
<path d="M1015 70h10"></path>
<path d="M1025 70h10"></path>
<g class="non-terminal ">
<path d="M1035 70h0"></path>
<path d="M1106 70h0"></path>
<rect x="1035" y="59" width="71" height="22"></rect>
<a xlink:href="#/abap/expression/Source"><text x="1070.5" y="74">Source</text>
</a>
</g>
</g>
<path d="M1106 70h20"></path>
</g>
<path d="M1126 70h10"></path>
<g>
<path d="M1136 70h0"></path>
<path d="M1281 70h0"></path>
<g class="terminal ">
<path d="M1136 70h0"></path>
<path d="M1190 70h0"></path>
<rect x="1136" y="59" width="54" height="22" rx="10" ry="10"></rect>
<text x="1163" y="74">"ID"</text>
</g>
<path d="M1190 70h10"></path>
<path d="M1200 70h10"></path>
<g class="non-terminal ">
<path d="M1210 70h0"></path>
<path d="M1281 70h0"></path>
<rect x="1210" y="59" width="71" height="22"></rect>
<a xlink:href="#/abap/expression/Source"><text x="1245.5" y="74">Source</text>
</a>
</g>
</g>
</g>
<path d="M1281 70a10 10 0 0 0 10 -10v-19a10 10 0 0 1 10 -10"></path>
</g>
</g>
</g>
<path d="M1301 31h10"></path>
<path d="M 1311 31 h 20 m -10 -10 v 20 m 10 -20 v 20"></path>
</g>
</svg>
