<svg xmlns="http://www.w3.org/2000/svg" xmlns:xlink="http://www.w3.org/1999/xlink" class="railroad-diagram" width="776" height="92" viewBox="0 0 776 92">
<defs>
<style type="text/css"><![CDATA[
path {
stroke-width: 3;
stroke: black;
fill: rgba(0,0,0,0);
}
text {
font: bold 14px monospace;
text-anchor: middle;
}
text.diagram-text {
font-size: 12px;
}
a {
fill: blue;
}
text.diagram-arrow {
font-size: 16px;
}
text.label {
text-anchor: start;
}
text.comment {
font: italic 12px monospace;
}
rect {
stroke-width: 3;
stroke: black;
fill: #BCBCBC;
}
path.diagram-text {
stroke-width: 3;
stroke: black;
fill: #BCBCBC;
cursor: help;
}
]]></style>
</defs>
<g transform="translate(.5 .5)">
<g>
<path d="M20 21v20m10 -20v20m-10 -10h20"></path>
</g>
<path d="M40 31h10"></path>
<g>
<path d="M50 31h0"></path>
<path d="M726 31h0"></path>
<g class="comment ">
<path d="M50 31h0"></path>
<path d="M179 31h0"></path>
<text x="114.5" y="36" class="comment">not langver=Cloud</text>
</g>
<path d="M179 31h10"></path>
<path d="M189 31h10"></path>
<g>
<path d="M199 31h0"></path>
<path d="M726 31h0"></path>
<g class="terminal ">
<path d="M199 31h0"></path>
<path d="M329.5 31h0"></path>
<rect x="199" y="20" width="130.5" height="22" rx="10" ry="10"></rect>
<text x="264.25" y="35">"SET DATASET"</text>
</g>
<path d="M329.5 31h10"></path>
<path d="M339.5 31h10"></path>
<g class="non-terminal ">
<path d="M349.5 31h0"></path>
<path d="M420.5 31h0"></path>
<rect x="349.5" y="20" width="71" height="22"></rect>
<a xlink:href="#/abap/expression/Source"><text x="385" y="35">Source</text>
</a>
</g>
<path d="M420.5 31h10"></path>
<path d="M430.5 31h10"></path>
<g class="terminal ">
<path d="M440.5 31h0"></path>
<path d="M545.5 31h0"></path>
<rect x="440.5" y="20" width="105" height="22" rx="10" ry="10"></rect>
<text x="493" y="35">"POSITION"</text>
</g>
<path d="M545.5 31h10"></path>
<g>
<path d="M555.5 31h0"></path>
<path d="M726 31h0"></path>
<path d="M555.5 31h20"></path>
<g class="non-terminal ">
<path d="M575.5 31h29.75"></path>
<path d="M676.25 31h29.75"></path>
<rect x="605.25" y="20" width="71" height="22"></rect>
<a xlink:href="#/abap/expression/Source"><text x="640.75" y="35">Source</text>
</a>
</g>
<path d="M706 31h20"></path>
<path d="M555.5 31a10 10 0 0 1 10 10v10a10 10 0 0 0 10 10"></path>
<g class="terminal ">
<path d="M575.5 61h0"></path>
<path d="M706 61h0"></path>
<rect x="575.5" y="50" width="130.5" height="22" rx="10" ry="10"></rect>
<text x="640.75" y="65">"END OF FILE"</text>
</g>
<path d="M706 61a10 10 0 0 0 10 -10v-10a10 10 0 0 1 10 -10"></path>
</g>
</g>
</g>
<path d="M726 31h10"></path>
<path d="M 736 31 h 20 m -10 -10 v 20 m 10 -20 v 20"></path>
</g>
</svg>
