<svg xmlns="http://www.w3.org/2000/svg" xmlns:xlink="http://www.w3.org/1999/xlink" class="railroad-diagram" width="1396.5" height="628" viewBox="0 0 1396.5 628">
<defs>
<style type="text/css"><![CDATA[
path {
stroke-width: 3;
stroke: black;
fill: rgba(0,0,0,0);
}
text {
font: bold 14px monospace;
text-anchor: middle;
}
text.diagram-text {
font-size: 12px;
}
a {
fill: blue;
}
text.diagram-arrow {
font-size: 16px;
}
text.label {
text-anchor: start;
}
text.comment {
font: italic 12px monospace;
}
rect {
stroke-width: 3;
stroke: black;
fill: #BCBCBC;
}
path.diagram-text {
stroke-width: 3;
stroke: black;
fill: #BCBCBC;
cursor: help;
}
]]></style>
</defs>
<g transform="translate(.5 .5)">
<g>
<path d="M20 38v20m10 -20v20m-10 -10h20"></path>
</g>
<path d="M40 48h10"></path>
<g>
<path d="M50 48h0"></path>
<path d="M1346.5 48h0"></path>
<g class="comment ">
<path d="M50 48h0"></path>
<path d="M179 48h0"></path>
<text x="114.5" y="53" class="comment">not langver=Cloud</text>
</g>
<path d="M179 48h10"></path>
<path d="M189 48h10"></path>
<g>
<path d="M199 48h0"></path>
<path d="M1346.5 48h0"></path>
<g>
<path d="M199 48h0"></path>
<path d="M361 48h0"></path>
<path d="M199 48h20"></path>
<g class="terminal ">
<path d="M219 48h4.25"></path>
<path d="M336.75 48h4.25"></path>
<rect x="223.25" y="37" width="113.5" height="22" rx="10" ry="10"></rect>
<text x="280" y="52">"PARAMETER"</text>
</g>
<path d="M341 48h20"></path>
<path d="M199 48a10 10 0 0 1 10 10v10a10 10 0 0 0 10 10"></path>
<g class="terminal ">
<path d="M219 78h0"></path>
<path d="M341 78h0"></path>
<rect x="219" y="67" width="122" height="22" rx="10" ry="10"></rect>
<text x="280" y="82">"PARAMETERS"</text>
</g>
<path d="M341 78a10 10 0 0 0 10 -10v-10a10 10 0 0 1 10 -10"></path>
</g>
<path d="M361 48h10"></path>
<g class="non-terminal ">
<path d="M371 48h0"></path>
<path d="M459 48h0"></path>
<rect x="371" y="37" width="88" height="22"></rect>
<a xlink:href="#/abap/expression/FieldSub"><text x="415" y="52">FieldSub</text>
</a>
</g>
<path d="M459 48h10"></path>
<g>
<path d="M469 48h0"></path>
<path d="M690.5 48h0"></path>
<path d="M469 48a10 10 0 0 0 10 -10v0a10 10 0 0 1 10 -10"></path>
<g>
<path d="M489 28h181.5"></path>
</g>
<path d="M670.5 28a10 10 0 0 1 10 10v0a10 10 0 0 0 10 10"></path>
<path d="M469 48h20"></path>
<g class="non-terminal ">
<path d="M489 48h0"></path>
<path d="M670.5 48h0"></path>
<rect x="489" y="37" width="181.5" height="22"></rect>
<a xlink:href="#/abap/expression/ConstantFieldLength"><text x="579.75" y="52">ConstantFieldLength</text>
</a>
</g>
<path d="M670.5 48h20"></path>
</g>
<g>
<path d="M690.5 48h0"></path>
<path d="M1346.5 48h0"></path>
<path d="M690.5 48a10 10 0 0 0 10 -10v-8a10 10 0 0 1 10 -10"></path>
<g>
<path d="M710.5 20h616"></path>
</g>
<path d="M1326.5 20a10 10 0 0 1 10 10v8a10 10 0 0 0 10 10"></path>
<path d="M690.5 48h20"></path>
<g>
<path d="M710.5 48h0"></path>
<path d="M1326.5 48h0"></path>
<path d="M740.5 48h10"></path>
<g>
<path d="M750.5 48h0"></path>
<path d="M1296.5 48h0"></path>
<g>
<path d="M750.5 48h0"></path>
<path d="M861.5 48h0"></path>
<path d="M750.5 48h20"></path>
<g class="terminal ">
<path d="M770.5 48h0"></path>
<path d="M841.5 48h0"></path>
<rect x="770.5" y="37" width="71" height="22" rx="10" ry="10"></rect>
<text x="806" y="52">"TYPE"</text>
</g>
<path d="M841.5 48h20"></path>
<path d="M750.5 48a10 10 0 0 1 10 10v10a10 10 0 0 0 10 10"></path>
<g class="terminal ">
<path d="M770.5 78h0"></path>
<path d="M841.5 78h0"></path>
<rect x="770.5" y="67" width="71" height="22" rx="10" ry="10"></rect>
<text x="806" y="82">"LIKE"</text>
</g>
<path d="M841.5 78a10 10 0 0 0 10 -10v-10a10 10 0 0 1 10 -10"></path>
</g>
<g>
<path d="M861.5 48h0"></path>
<path d="M989.5 48h0"></path>
<path d="M861.5 48h20"></path>
<g class="non-terminal ">
<path d="M881.5 48h0"></path>
<path d="M969.5 48h0"></path>
<rect x="881.5" y="37" width="88" height="22"></rect>
<a xlink:href="#/abap/expression/TypeName"><text x="925.5" y="52">TypeName</text>
</a>
</g>
<path d="M969.5 48h20"></path>
<path d="M861.5 48a10 10 0 0 1 10 10v10a10 10 0 0 0 10 10"></path>
<g class="non-terminal ">
<path d="M881.5 78h4.25"></path>
<path d="M965.25 78h4.25"></path>
<rect x="885.75" y="67" width="79.5" height="22"></rect>
<a xlink:href="#/abap/expression/Dynamic"><text x="925.5" y="82">Dynamic</text>
</a>
</g>
<path d="M969.5 78a10 10 0 0 0 10 -10v-10a10 10 0 0 1 10 -10"></path>
</g>
<g>
<path d="M989.5 48h0"></path>
<path d="M1143 48h0"></path>
<path d="M989.5 48a10 10 0 0 0 10 -10v0a10 10 0 0 1 10 -10"></path>
<g>
<path d="M1009.5 28h113.5"></path>
</g>
<path d="M1123 28a10 10 0 0 1 10 10v0a10 10 0 0 0 10 10"></path>
<path d="M989.5 48h20"></path>
<g class="non-terminal ">
<path d="M1009.5 48h0"></path>
<path d="M1123 48h0"></path>
<rect x="1009.5" y="37" width="113.5" height="22"></rect>
<a xlink:href="#/abap/expression/FieldOffset"><text x="1066.25" y="52">FieldOffset</text>
</a>
</g>
<path d="M1123 48h20"></path>
</g>
<g>
<path d="M1143 48h0"></path>
<path d="M1296.5 48h0"></path>
<path d="M1143 48a10 10 0 0 0 10 -10v0a10 10 0 0 1 10 -10"></path>
<g>
<path d="M1163 28h113.5"></path>
</g>
<path d="M1276.5 28a10 10 0 0 1 10 10v0a10 10 0 0 0 10 10"></path>
<path d="M1143 48h20"></path>
<g class="non-terminal ">
<path d="M1163 48h0"></path>
<path d="M1276.5 48h0"></path>
<rect x="1163" y="37" width="113.5" height="22"></rect>
<a xlink:href="#/abap/expression/FieldLength"><text x="1219.75" y="52">FieldLength</text>
</a>
</g>
<path d="M1276.5 48h20"></path>
</g>
</g>
<path d="M1296.5 48h10"></path>
<path d="M740.5 48v50a10 10 0 0 0 10 10"></path>
<g>
<path d="M750.5 108h147.25"></path>
<path d="M1149.25 108h147.25"></path>
<g class="terminal ">
<path d="M897.75 108h0"></path>
<path d="M994.25 108h0"></path>
<rect x="897.75" y="97" width="96.5" height="22" rx="10" ry="10"></rect>
<text x="946" y="112">"DEFAULT"</text>
</g>
<path d="M994.25 108h10"></path>
<g>
<path d="M1004.25 108h0"></path>
<path d="M1149.25 108h0"></path>
<path d="M1004.25 108h20"></path>
<g class="non-terminal ">
<path d="M1024.25 108h8.5"></path>
<path d="M1120.75 108h8.5"></path>
<rect x="1032.75" y="97" width="88" height="22"></rect>
<a xlink:href="#/abap/expression/Constant"><text x="1076.75" y="112">Constant</text>
</a>
</g>
<path d="M1129.25 108h20"></path>
<path d="M1004.25 108a10 10 0 0 1 10 10v10a10 10 0 0 0 10 10"></path>
<g class="non-terminal ">
<path d="M1024.25 138h0"></path>
<path d="M1129.25 138h0"></path>
<rect x="1024.25" y="127" width="105" height="22"></rect>
<a xlink:href="#/abap/expression/FieldChain"><text x="1076.75" y="142">FieldChain</text>
</a>
</g>
<path d="M1129.25 138a10 10 0 0 0 10 -10v-10a10 10 0 0 1 10 -10"></path>
</g>
</g>
<path d="M1296.5 108a10 10 0 0 0 10 -10v-50"></path>
<path d="M740.5 48v110a10 10 0 0 0 10 10"></path>
<g class="terminal ">
<path d="M750.5 168h212"></path>
<path d="M1084.5 168h212"></path>
<rect x="962.5" y="157" width="122" height="22" rx="10" ry="10"></rect>
<text x="1023.5" y="172">"OBLIGATORY"</text>
</g>
<path d="M1296.5 168a10 10 0 0 0 10 -10v-110"></path>
<path d="M740.5 48v140a10 10 0 0 0 10 10"></path>
<g>
<path d="M750.5 198h145.25"></path>
<path d="M1151.25 198h145.25"></path>
<g class="terminal ">
<path d="M895.75 198h0"></path>
<path d="M1068.75 198h0"></path>
<rect x="895.75" y="187" width="173" height="22" rx="10" ry="10"></rect>
<text x="982.25" y="202">"MATCHCODE OBJECT"</text>
</g>
<path d="M1068.75 198h10"></path>
<path d="M1078.75 198h10"></path>
<g class="non-terminal ">
<path d="M1088.75 198h0"></path>
<path d="M1151.25 198h0"></path>
<rect x="1088.75" y="187" width="62.5" height="22"></rect>
<a xlink:href="#/abap/expression/Field"><text x="1120" y="202">Field</text>
</a>
</g>
</g>
<path d="M1296.5 198a10 10 0 0 0 10 -10v-140"></path>
<path d="M740.5 48v170a10 10 0 0 0 10 10"></path>
<g>
<path d="M750.5 228h136.75"></path>
<path d="M1159.75 228h136.75"></path>
<g class="terminal ">
<path d="M887.25 228h0"></path>
<path d="M1026.25 228h0"></path>
<rect x="887.25" y="217" width="139" height="22" rx="10" ry="10"></rect>
<text x="956.75" y="232">"USER-COMMAND"</text>
</g>
<path d="M1026.25 228h10"></path>
<path d="M1036.25 228h10"></path>
<g class="terminal ">
<path d="M1046.25 228h0"></path>
<path d="M1159.75 228h0"></path>
<rect x="1046.25" y="217" width="113.5" height="22" rx="10" ry="10"></rect>
<text x="1103" y="232">^&#91;\w\?\/&#93;+$</text>
</g>
</g>
<path d="M1296.5 228a10 10 0 0 0 10 -10v-170"></path>
<path d="M740.5 48v200a10 10 0 0 0 10 10"></path>
<g>
<path d="M750.5 258h175"></path>
<path d="M1121.5 258h175"></path>
<g class="terminal ">
<path d="M925.5 258h0"></path>
<path d="M1013.5 258h0"></path>
<rect x="925.5" y="247" width="88" height="22" rx="10" ry="10"></rect>
<text x="969.5" y="262">"LENGTH"</text>
</g>
<path d="M1013.5 258h10"></path>
<path d="M1023.5 258h10"></path>
<g class="non-terminal ">
<path d="M1033.5 258h0"></path>
<path d="M1121.5 258h0"></path>
<rect x="1033.5" y="247" width="88" height="22"></rect>
<a xlink:href="#/abap/expression/Constant"><text x="1077.5" y="262">Constant</text>
</a>
</g>
</g>
<path d="M1296.5 258a10 10 0 0 0 10 -10v-200"></path>
<path d="M740.5 48v230a10 10 0 0 0 10 10"></path>
<g>
<path d="M750.5 288h175"></path>
<path d="M1121.5 288h175"></path>
<g class="terminal ">
<path d="M925.5 288h0"></path>
<path d="M1030.5 288h0"></path>
<rect x="925.5" y="277" width="105" height="22" rx="10" ry="10"></rect>
<text x="978" y="292">"DECIMALS"</text>
</g>
<path d="M1030.5 288h10"></path>
<path d="M1040.5 288h10"></path>
<g class="non-terminal ">
<path d="M1050.5 288h0"></path>
<path d="M1121.5 288h0"></path>
<rect x="1050.5" y="277" width="71" height="22"></rect>
<a xlink:href="#/abap/expression/Source"><text x="1086" y="292">Source</text>
</a>
</g>
</g>
<path d="M1296.5 288a10 10 0 0 0 10 -10v-230"></path>
<path d="M740.5 48v260a10 10 0 0 0 10 10"></path>
<g>
<path d="M750.5 318h102.75"></path>
<path d="M1193.75 318h102.75"></path>
<g class="terminal ">
<path d="M853.25 318h0"></path>
<path d="M1034.75 318h0"></path>
<rect x="853.25" y="307" width="181.5" height="22" rx="10" ry="10"></rect>
<text x="944" y="322">"RADIOBUTTON GROUP"</text>
</g>
<path d="M1034.75 318h10"></path>
<path d="M1044.75 318h10"></path>
<g class="non-terminal ">
<path d="M1054.75 318h0"></path>
<path d="M1193.75 318h0"></path>
<rect x="1054.75" y="307" width="139" height="22"></rect>
<a xlink:href="#/abap/expression/RadioGroupName"><text x="1124.25" y="322">RadioGroupName</text>
</a>
</g>
</g>
<path d="M1296.5 318a10 10 0 0 0 10 -10v-260"></path>
<path d="M740.5 48v290a10 10 0 0 0 10 10"></path>
<g>
<path d="M750.5 348h141"></path>
<path d="M1155.5 348h141"></path>
<g class="terminal ">
<path d="M891.5 348h0"></path>
<path d="M1005 348h0"></path>
<rect x="891.5" y="337" width="113.5" height="22" rx="10" ry="10"></rect>
<text x="948.25" y="352">"MEMORY ID"</text>
</g>
<path d="M1005 348h10"></path>
<path d="M1015 348h10"></path>
<g class="non-terminal ">
<path d="M1025 348h0"></path>
<path d="M1155.5 348h0"></path>
<rect x="1025" y="337" width="130.5" height="22"></rect>
<a xlink:href="#/abap/expression/SimpleSource1"><text x="1090.25" y="352">SimpleSource1</text>
</a>
</g>
</g>
<path d="M1296.5 348a10 10 0 0 0 10 -10v-290"></path>
<path d="M740.5 48v320a10 10 0 0 0 10 10"></path>
<g>
<path d="M750.5 378h179.25"></path>
<path d="M1117.25 378h179.25"></path>
<g class="terminal ">
<path d="M929.75 378h0"></path>
<path d="M1034.75 378h0"></path>
<rect x="929.75" y="367" width="105" height="22" rx="10" ry="10"></rect>
<text x="982.25" y="382">"MODIF ID"</text>
</g>
<path d="M1034.75 378h10"></path>
<path d="M1044.75 378h10"></path>
<g class="non-terminal ">
<path d="M1054.75 378h0"></path>
<path d="M1117.25 378h0"></path>
<rect x="1054.75" y="367" width="62.5" height="22"></rect>
<a xlink:href="#/abap/expression/Modif"><text x="1086" y="382">Modif</text>
</a>
</g>
</g>
<path d="M1296.5 378a10 10 0 0 0 10 -10v-320"></path>
<path d="M740.5 48v350a10 10 0 0 0 10 10"></path>
<g class="terminal ">
<path d="M750.5 408h212"></path>
<path d="M1084.5 408h212"></path>
<rect x="962.5" y="397" width="122" height="22" rx="10" ry="10"></rect>
<text x="1023.5" y="412">"AS LISTBOX"</text>
</g>
<path d="M1296.5 408a10 10 0 0 0 10 -10v-350"></path>
<path d="M740.5 48v380a10 10 0 0 0 10 10"></path>
<g>
<path d="M750.5 438h141"></path>
<path d="M1155.5 438h141"></path>
<g class="terminal ">
<path d="M891.5 438h0"></path>
<path d="M1047.5 438h0"></path>
<rect x="891.5" y="427" width="156" height="22" rx="10" ry="10"></rect>
<text x="969.5" y="442">"VISIBLE LENGTH"</text>
</g>
<path d="M1047.5 438h10"></path>
<path d="M1057.5 438h10"></path>
<g class="non-terminal ">
<path d="M1067.5 438h0"></path>
<path d="M1155.5 438h0"></path>
<rect x="1067.5" y="427" width="88" height="22"></rect>
<a xlink:href="#/abap/expression/Constant"><text x="1111.5" y="442">Constant</text>
</a>
</g>
</g>
<path d="M1296.5 438a10 10 0 0 0 10 -10v-380"></path>
<path d="M740.5 48v419a10 10 0 0 0 10 10"></path>
<g>
<path d="M750.5 477h42.25"></path>
<path d="M1254.25 477h42.25"></path>
<g class="terminal ">
<path d="M792.75 477h0"></path>
<path d="M906.25 477h0"></path>
<rect x="792.75" y="466" width="113.5" height="22" rx="10" ry="10"></rect>
<text x="849.5" y="481">"FOR TABLE"</text>
</g>
<path d="M906.25 477h10"></path>
<path d="M916.25 477h10"></path>
<g class="non-terminal ">
<path d="M926.25 477h0"></path>
<path d="M1056.75 477h0"></path>
<rect x="926.25" y="466" width="130.5" height="22"></rect>
<a xlink:href="#/abap/expression/DatabaseTable"><text x="991.5" y="481">DatabaseTable</text>
</a>
</g>
<path d="M1056.75 477h10"></path>
<g>
<path d="M1066.75 477h0"></path>
<path d="M1254.25 477h0"></path>
<path d="M1066.75 477a10 10 0 0 0 10 -10v0a10 10 0 0 1 10 -10"></path>
<g>
<path d="M1086.75 457h147.5"></path>
</g>
<path d="M1234.25 457a10 10 0 0 1 10 10v0a10 10 0 0 0 10 10"></path>
<path d="M1066.75 477h20"></path>
<g class="terminal ">
<path d="M1086.75 477h0"></path>
<path d="M1234.25 477h0"></path>
<rect x="1086.75" y="466" width="147.5" height="22" rx="10" ry="10"></rect>
<text x="1160.5" y="481">"VALUE-REQUEST"</text>
</g>
<path d="M1234.25 477h20"></path>
</g>
</g>
<path d="M1296.5 477a10 10 0 0 0 10 -10v-419"></path>
<path d="M740.5 48v449a10 10 0 0 0 10 10"></path>
<g class="terminal ">
<path d="M750.5 507h207.75"></path>
<path d="M1088.75 507h207.75"></path>
<rect x="958.25" y="496" width="130.5" height="22" rx="10" ry="10"></rect>
<text x="1023.5" y="511">"VALUE CHECK"</text>
</g>
<path d="M1296.5 507a10 10 0 0 0 10 -10v-449"></path>
<path d="M740.5 48v479a10 10 0 0 0 10 10"></path>
<g class="terminal ">
<path d="M750.5 537h212"></path>
<path d="M1084.5 537h212"></path>
<rect x="962.5" y="526" width="122" height="22" rx="10" ry="10"></rect>
<text x="1023.5" y="541">"NO-DISPLAY"</text>
</g>
<path d="M1296.5 537a10 10 0 0 0 10 -10v-479"></path>
<path d="M740.5 48v509a10 10 0 0 0 10 10"></path>
<g class="terminal ">
<path d="M750.5 567h207.75"></path>
<path d="M1088.75 567h207.75"></path>
<rect x="958.25" y="556" width="130.5" height="22" rx="10" ry="10"></rect>
<text x="1023.5" y="571">"AS CHECKBOX"</text>
</g>
<path d="M1296.5 567a10 10 0 0 0 10 -10v-509"></path>
<path d="M740.5 48v539a10 10 0 0 0 10 10"></path>
<g class="terminal ">
<path d="M750.5 597h212"></path>
<path d="M1084.5 597h212"></path>
<rect x="962.5" y="586" width="122" height="22" rx="10" ry="10"></rect>
<text x="1023.5" y="601">"LOWER CASE"</text>
</g>
<path d="M1296.5 597a10 10 0 0 0 10 -10v-539"></path>
<g class="diagram-text">
<title>take one or more branches, once each, in any order</title>
<path d="M 740.5 38 h -26 a 4 4 0 0 0 -4 4 v 12 a 4 4 0 0 0 4 4 h 26 z" class="diagram-text"></path>
<text x="725.5" y="52" class="diagram-text">1+</text>
<path d="M 1306.5 38 h 16 a 4 4 0 0 1 4 4 v 12 a 4 4 0 0 1 -4 4 h -16 z" class="diagram-text"></path>
<path d="M 1313.5 46 a 4 4 0 1 0 6 -1 m 2.75 -1 h -4 v 4 m 0 -3 h 2" style="stroke-width: 1.75"></path>
</g>
</g>
<path d="M1326.5 48h20"></path>
</g>
</g>
</g>
<path d="M1346.5 48h10"></path>
<path d="M 1356.5 48 h 20 m -10 -10 v 20 m 10 -20 v 20"></path>
</g>
</svg>
