<svg xmlns="http://www.w3.org/2000/svg" xmlns:xlink="http://www.w3.org/1999/xlink" class="railroad-diagram" width="832.5" height="71" viewBox="0 0 832.5 71">
<defs>
<style type="text/css"><![CDATA[
path {
stroke-width: 3;
stroke: black;
fill: rgba(0,0,0,0);
}
text {
font: bold 14px monospace;
text-anchor: middle;
}
text.diagram-text {
font-size: 12px;
}
a {
fill: blue;
}
text.diagram-arrow {
font-size: 16px;
}
text.label {
text-anchor: start;
}
text.comment {
font: italic 12px monospace;
}
rect {
stroke-width: 3;
stroke: black;
fill: #BCBCBC;
}
path.diagram-text {
stroke-width: 3;
stroke: black;
fill: #BCBCBC;
cursor: help;
}
]]></style>
</defs>
<g transform="translate(.5 .5)">
<g>
<path d="M20 30v20m10 -20v20m-10 -10h20"></path>
</g>
<path d="M40 40h10"></path>
<g>
<path d="M50 40h0"></path>
<path d="M782.5 40h0"></path>
<g class="comment ">
<path d="M50 40h0"></path>
<path d="M193 40h0"></path>
<text x="121.5" y="45" class="comment">not langver=KeyUser</text>
</g>
<path d="M193 40h10"></path>
<path d="M203 40h10"></path>
<g>
<path d="M213 40h0"></path>
<path d="M782.5 40h0"></path>
<g class="terminal ">
<path d="M213 40h0"></path>
<path d="M343.5 40h0"></path>
<rect x="213" y="29" width="130.5" height="22" rx="10" ry="10"></rect>
<text x="278.25" y="44">"RAISE EVENT"</text>
</g>
<path d="M343.5 40h10"></path>
<path d="M353.5 40h10"></path>
<g class="non-terminal ">
<path d="M363.5 40h0"></path>
<path d="M460 40h0"></path>
<rect x="363.5" y="29" width="96.5" height="22"></rect>
<a xlink:href="#/abap/expression/EventName"><text x="411.75" y="44">EventName</text>
</a>
</g>
<path d="M460 40h10"></path>
<g>
<path d="M470 40h0"></path>
<path d="M782.5 40h0"></path>
<path d="M470 40a10 10 0 0 0 10 -10v0a10 10 0 0 1 10 -10"></path>
<g>
<path d="M490 20h272.5"></path>
</g>
<path d="M762.5 20a10 10 0 0 1 10 10v0a10 10 0 0 0 10 10"></path>
<path d="M470 40h20"></path>
<g>
<path d="M490 40h0"></path>
<path d="M762.5 40h0"></path>
<g class="terminal ">
<path d="M490 40h0"></path>
<path d="M603.5 40h0"></path>
<rect x="490" y="29" width="113.5" height="22" rx="10" ry="10"></rect>
<text x="546.75" y="44">"EXPORTING"</text>
</g>
<path d="M603.5 40h10"></path>
<path d="M613.5 40h10"></path>
<g class="non-terminal ">
<path d="M623.5 40h0"></path>
<path d="M762.5 40h0"></path>
<rect x="623.5" y="29" width="139" height="22"></rect>
<a xlink:href="#/abap/expression/ParameterListS"><text x="693" y="44">ParameterListS</text>
</a>
</g>
</g>
<path d="M762.5 40h20"></path>
</g>
</g>
</g>
<path d="M782.5 40h10"></path>
<path d="M 792.5 40 h 20 m -10 -10 v 20 m 10 -20 v 20"></path>
</g>
</svg>
