<svg xmlns="http://www.w3.org/2000/svg" xmlns:xlink="http://www.w3.org/1999/xlink" class="railroad-diagram" width="961.5" height="710" viewBox="0 0 961.5 710">
<defs>
<style type="text/css"><![CDATA[
path {
stroke-width: 3;
stroke: black;
fill: rgba(0,0,0,0);
}
text {
font: bold 14px monospace;
text-anchor: middle;
}
text.diagram-text {
font-size: 12px;
}
a {
fill: blue;
}
text.diagram-arrow {
font-size: 16px;
}
text.label {
text-anchor: start;
}
text.comment {
font: italic 12px monospace;
}
rect {
stroke-width: 3;
stroke: black;
fill: #BCBCBC;
}
path.diagram-text {
stroke-width: 3;
stroke: black;
fill: #BCBCBC;
cursor: help;
}
]]></style>
</defs>
<g transform="translate(.5 .5)">
<g>
<path d="M20 30v20m10 -20v20m-10 -10h20"></path>
</g>
<path d="M40 40h10"></path>
<g>
<path d="M50 40h0"></path>
<path d="M911.5 40h0"></path>
<g class="comment ">
<path d="M50 40h0"></path>
<path d="M179 40h0"></path>
<text x="114.5" y="45" class="comment">not langver=Cloud</text>
</g>
<path d="M179 40h10"></path>
<path d="M189 40h10"></path>
<g>
<path d="M199 40h0"></path>
<path d="M911.5 40h0"></path>
<g class="terminal ">
<path d="M199 40h0"></path>
<path d="M338 40h0"></path>
<rect x="199" y="29" width="139" height="22" rx="10" ry="10"></rect>
<text x="268.5" y="44">"OPEN DATASET"</text>
</g>
<path d="M338 40h10"></path>
<path d="M348 40h10"></path>
<g class="non-terminal ">
<path d="M358 40h0"></path>
<path d="M429 40h0"></path>
<rect x="358" y="29" width="71" height="22"></rect>
<a xlink:href="#/abap/expression/Source"><text x="393.5" y="44">Source</text>
</a>
</g>
<path d="M429 40h10"></path>
<g>
<path d="M439 40h0"></path>
<path d="M911.5 40h0"></path>
<path d="M439 40a10 10 0 0 0 10 -10v0a10 10 0 0 1 10 -10"></path>
<g>
<path d="M459 20h432.5"></path>
</g>
<path d="M891.5 20a10 10 0 0 1 10 10v0a10 10 0 0 0 10 10"></path>
<path d="M439 40h20"></path>
<g>
<path d="M459 40h0"></path>
<path d="M891.5 40h0"></path>
<path d="M489 40h10"></path>
<g>
<path d="M499 40h68.25"></path>
<path d="M793.25 40h68.25"></path>
<g class="terminal ">
<path d="M567.25 40h0"></path>
<path d="M629.75 40h0"></path>
<rect x="567.25" y="29" width="62.5" height="22" rx="10" ry="10"></rect>
<text x="598.5" y="44">"FOR"</text>
</g>
<path d="M629.75 40h10"></path>
<g>
<path d="M639.75 40h0"></path>
<path d="M793.25 40h0"></path>
<path d="M639.75 40h20"></path>
<g class="terminal ">
<path d="M659.75 40h12.75"></path>
<path d="M760.5 40h12.75"></path>
<rect x="672.5" y="29" width="88" height="22" rx="10" ry="10"></rect>
<text x="716.5" y="44">"OUTPUT"</text>
</g>
<path d="M773.25 40h20"></path>
<path d="M639.75 40a10 10 0 0 1 10 10v10a10 10 0 0 0 10 10"></path>
<g class="terminal ">
<path d="M659.75 70h17"></path>
<path d="M756.25 70h17"></path>
<rect x="676.75" y="59" width="79.5" height="22" rx="10" ry="10"></rect>
<text x="716.5" y="74">"INPUT"</text>
</g>
<path d="M773.25 70a10 10 0 0 0 10 -10v-10a10 10 0 0 1 10 -10"></path>
<path d="M639.75 40a10 10 0 0 1 10 10v40a10 10 0 0 0 10 10"></path>
<g class="terminal ">
<path d="M659.75 100h12.75"></path>
<path d="M760.5 100h12.75"></path>
<rect x="672.5" y="89" width="88" height="22" rx="10" ry="10"></rect>
<text x="716.5" y="104">"UPDATE"</text>
</g>
<path d="M773.25 100a10 10 0 0 0 10 -10v-40a10 10 0 0 1 10 -10"></path>
<path d="M639.75 40a10 10 0 0 1 10 10v70a10 10 0 0 0 10 10"></path>
<g class="terminal ">
<path d="M659.75 130h0"></path>
<path d="M773.25 130h0"></path>
<rect x="659.75" y="119" width="113.5" height="22" rx="10" ry="10"></rect>
<text x="716.5" y="134">"APPENDING"</text>
</g>
<path d="M773.25 130a10 10 0 0 0 10 -10v-70a10 10 0 0 1 10 -10"></path>
</g>
</g>
<path d="M861.5 40h10"></path>
<path d="M489 40v110a10 10 0 0 0 10 10"></path>
<g>
<path d="M499 160h100.25"></path>
<path d="M761.25 160h100.25"></path>
<g class="terminal ">
<path d="M599.25 160h0"></path>
<path d="M670.25 160h0"></path>
<rect x="599.25" y="149" width="71" height="22" rx="10" ry="10"></rect>
<text x="634.75" y="164">"TYPE"</text>
</g>
<path d="M670.25 160h10"></path>
<path d="M680.25 160h10"></path>
<g class="non-terminal ">
<path d="M690.25 160h0"></path>
<path d="M761.25 160h0"></path>
<rect x="690.25" y="149" width="71" height="22"></rect>
<a xlink:href="#/abap/expression/Source"><text x="725.75" y="164">Source</text>
</a>
</g>
</g>
<path d="M861.5 160a10 10 0 0 0 10 -10v-110"></path>
<path d="M489 40v149a10 10 0 0 0 10 10"></path>
<g>
<path d="M499 199h0"></path>
<path d="M861.5 199h0"></path>
<g class="terminal ">
<path d="M499 199h0"></path>
<path d="M553 199h0"></path>
<rect x="499" y="188" width="54" height="22" rx="10" ry="10"></rect>
<text x="526" y="203">"IN"</text>
</g>
<path d="M553 199h10"></path>
<g>
<path d="M563 199h0"></path>
<path d="M691 199h0"></path>
<path d="M563 199a10 10 0 0 0 10 -10v0a10 10 0 0 1 10 -10"></path>
<g>
<path d="M583 179h88"></path>
</g>
<path d="M671 179a10 10 0 0 1 10 10v0a10 10 0 0 0 10 10"></path>
<path d="M563 199h20"></path>
<g class="terminal ">
<path d="M583 199h0"></path>
<path d="M671 199h0"></path>
<rect x="583" y="188" width="88" height="22" rx="10" ry="10"></rect>
<text x="627" y="203">"LEGACY"</text>
</g>
<path d="M671 199h20"></path>
</g>
<g>
<path d="M691 199h0"></path>
<path d="M861.5 199h0"></path>
<path d="M691 199h20"></path>
<g class="terminal ">
<path d="M711 199h0"></path>
<path d="M841.5 199h0"></path>
<rect x="711" y="188" width="130.5" height="22" rx="10" ry="10"></rect>
<text x="776.25" y="203">"BINARY MODE"</text>
</g>
<path d="M841.5 199h20"></path>
<path d="M691 199a10 10 0 0 1 10 10v10a10 10 0 0 0 10 10"></path>
<g class="terminal ">
<path d="M711 229h8.5"></path>
<path d="M833 229h8.5"></path>
<rect x="719.5" y="218" width="113.5" height="22" rx="10" ry="10"></rect>
<text x="776.25" y="233">"TEXT MODE"</text>
</g>
<path d="M841.5 229a10 10 0 0 0 10 -10v-10a10 10 0 0 1 10 -10"></path>
</g>
</g>
<path d="M861.5 199a10 10 0 0 0 10 -10v-149"></path>
<path d="M489 40v209a10 10 0 0 0 10 10"></path>
<g class="terminal ">
<path d="M499 259h77.75"></path>
<path d="M783.75 259h77.75"></path>
<rect x="576.75" y="248" width="207" height="22" rx="10" ry="10"></rect>
<text x="680.25" y="263">"WITH BYTE-ORDER MARK"</text>
</g>
<path d="M861.5 259a10 10 0 0 0 10 -10v-209"></path>
<path d="M489 40v239a10 10 0 0 0 10 10"></path>
<g>
<path d="M499 289h28"></path>
<path d="M833.5 289h28"></path>
<g class="terminal ">
<path d="M527 289h0"></path>
<path d="M742.5 289h0"></path>
<rect x="527" y="278" width="215.5" height="22" rx="10" ry="10"></rect>
<text x="634.75" y="293">"REPLACEMENT CHARACTER"</text>
</g>
<path d="M742.5 289h10"></path>
<path d="M752.5 289h10"></path>
<g class="non-terminal ">
<path d="M762.5 289h0"></path>
<path d="M833.5 289h0"></path>
<rect x="762.5" y="278" width="71" height="22"></rect>
<a xlink:href="#/abap/expression/Source"><text x="798" y="293">Source</text>
</a>
</g>
</g>
<path d="M861.5 289a10 10 0 0 0 10 -10v-239"></path>
<path d="M489 40v269a10 10 0 0 0 10 10"></path>
<g>
<path d="M499 319h91.75"></path>
<path d="M769.75 319h91.75"></path>
<g class="terminal ">
<path d="M590.75 319h0"></path>
<path d="M678.75 319h0"></path>
<rect x="590.75" y="308" width="88" height="22" rx="10" ry="10"></rect>
<text x="634.75" y="323">"FILTER"</text>
</g>
<path d="M678.75 319h10"></path>
<path d="M688.75 319h10"></path>
<g class="non-terminal ">
<path d="M698.75 319h0"></path>
<path d="M769.75 319h0"></path>
<rect x="698.75" y="308" width="71" height="22"></rect>
<a xlink:href="#/abap/expression/Source"><text x="734.25" y="323">Source</text>
</a>
</g>
</g>
<path d="M861.5 319a10 10 0 0 0 10 -10v-269"></path>
<path d="M489 40v299a10 10 0 0 0 10 10"></path>
<g>
<path d="M499 349h38.5"></path>
<path d="M823 349h38.5"></path>
<g class="terminal ">
<path d="M537.5 349h0"></path>
<path d="M642.5 349h0"></path>
<rect x="537.5" y="338" width="105" height="22" rx="10" ry="10"></rect>
<text x="590" y="353">"ENCODING"</text>
</g>
<path d="M642.5 349h10"></path>
<g>
<path d="M652.5 349h0"></path>
<path d="M823 349h0"></path>
<path d="M652.5 349h20"></path>
<g class="terminal ">
<path d="M672.5 349h17"></path>
<path d="M786 349h17"></path>
<rect x="689.5" y="338" width="96.5" height="22" rx="10" ry="10"></rect>
<text x="737.75" y="353">"DEFAULT"</text>
</g>
<path d="M803 349h20"></path>
<path d="M652.5 349a10 10 0 0 1 10 10v10a10 10 0 0 0 10 10"></path>
<g class="terminal ">
<path d="M672.5 379h25.5"></path>
<path d="M777.5 379h25.5"></path>
<rect x="698" y="368" width="79.5" height="22" rx="10" ry="10"></rect>
<text x="737.75" y="383">"UTF-8"</text>
</g>
<path d="M803 379a10 10 0 0 0 10 -10v-10a10 10 0 0 1 10 -10"></path>
<path d="M652.5 349a10 10 0 0 1 10 10v40a10 10 0 0 0 10 10"></path>
<g class="terminal ">
<path d="M672.5 409h0"></path>
<path d="M803 409h0"></path>
<rect x="672.5" y="398" width="130.5" height="22" rx="10" ry="10"></rect>
<text x="737.75" y="413">"NON-UNICODE"</text>
</g>
<path d="M803 409a10 10 0 0 0 10 -10v-40a10 10 0 0 1 10 -10"></path>
</g>
</g>
<path d="M861.5 349a10 10 0 0 0 10 -10v-299"></path>
<path d="M489 40v389a10 10 0 0 0 10 10"></path>
<g>
<path d="M499 439h70.5"></path>
<path d="M791 439h70.5"></path>
<g class="terminal ">
<path d="M569.5 439h0"></path>
<path d="M700 439h0"></path>
<rect x="569.5" y="428" width="130.5" height="22" rx="10" ry="10"></rect>
<text x="634.75" y="443">"AT POSITION"</text>
</g>
<path d="M700 439h10"></path>
<path d="M710 439h10"></path>
<g class="non-terminal ">
<path d="M720 439h0"></path>
<path d="M791 439h0"></path>
<rect x="720" y="428" width="71" height="22"></rect>
<a xlink:href="#/abap/expression/Source"><text x="755.5" y="443">Source</text>
</a>
</g>
</g>
<path d="M861.5 439a10 10 0 0 0 10 -10v-389"></path>
<path d="M489 40v419a10 10 0 0 0 10 10"></path>
<g>
<path d="M499 469h87.5"></path>
<path d="M774 469h87.5"></path>
<g class="terminal ">
<path d="M586.5 469h0"></path>
<path d="M683 469h0"></path>
<rect x="586.5" y="458" width="96.5" height="22" rx="10" ry="10"></rect>
<text x="634.75" y="473">"MESSAGE"</text>
</g>
<path d="M683 469h10"></path>
<path d="M693 469h10"></path>
<g class="non-terminal ">
<path d="M703 469h0"></path>
<path d="M774 469h0"></path>
<rect x="703" y="458" width="71" height="22"></rect>
<a xlink:href="#/abap/expression/Target"><text x="738.5" y="473">Target</text>
</a>
</g>
</g>
<path d="M861.5 469a10 10 0 0 0 10 -10v-419"></path>
<path d="M489 40v449a10 10 0 0 0 10 10"></path>
<g class="terminal ">
<path d="M499 499h52.25"></path>
<path d="M809.25 499h52.25"></path>
<rect x="551.25" y="488" width="258" height="22" rx="10" ry="10"></rect>
<text x="680.25" y="503">"IGNORING CONVERSION ERRORS"</text>
</g>
<path d="M861.5 499a10 10 0 0 0 10 -10v-449"></path>
<path d="M489 40v479a10 10 0 0 0 10 10"></path>
<g class="terminal ">
<path d="M499 529h60.75"></path>
<path d="M800.75 529h60.75"></path>
<rect x="559.75" y="518" width="241" height="22" rx="10" ry="10"></rect>
<text x="680.25" y="533">"SKIPPING BYTE-ORDER MARK"</text>
</g>
<path d="M861.5 529a10 10 0 0 0 10 -10v-479"></path>
<path d="M489 40v509a10 10 0 0 0 10 10"></path>
<g>
<path d="M499 559h79"></path>
<path d="M782.5 559h79"></path>
<g class="terminal ">
<path d="M578 559h0"></path>
<path d="M691.5 559h0"></path>
<rect x="578" y="548" width="113.5" height="22" rx="10" ry="10"></rect>
<text x="634.75" y="563">"CODE PAGE"</text>
</g>
<path d="M691.5 559h10"></path>
<path d="M701.5 559h10"></path>
<g class="non-terminal ">
<path d="M711.5 559h0"></path>
<path d="M782.5 559h0"></path>
<rect x="711.5" y="548" width="71" height="22"></rect>
<a xlink:href="#/abap/expression/Source"><text x="747" y="563">Source</text>
</a>
</g>
</g>
<path d="M861.5 559a10 10 0 0 0 10 -10v-509"></path>
<path d="M489 40v539a10 10 0 0 0 10 10"></path>
<g>
<path d="M499 589h19.25"></path>
<path d="M842.25 589h19.25"></path>
<g class="terminal ">
<path d="M518.25 589h0"></path>
<path d="M589.25 589h0"></path>
<rect x="518.25" y="578" width="71" height="22" rx="10" ry="10"></rect>
<text x="553.75" y="593">"WITH"</text>
</g>
<path d="M589.25 589h10"></path>
<g>
<path d="M599.25 589h0"></path>
<path d="M727.25 589h0"></path>
<path d="M599.25 589h20"></path>
<g class="terminal ">
<path d="M619.25 589h4.25"></path>
<path d="M703 589h4.25"></path>
<rect x="623.5" y="578" width="79.5" height="22" rx="10" ry="10"></rect>
<text x="663.25" y="593">"SMART"</text>
</g>
<path d="M707.25 589h20"></path>
<path d="M599.25 589a10 10 0 0 1 10 10v10a10 10 0 0 0 10 10"></path>
<g class="terminal ">
<path d="M619.25 619h0"></path>
<path d="M707.25 619h0"></path>
<rect x="619.25" y="608" width="88" height="22" rx="10" ry="10"></rect>
<text x="663.25" y="623">"NATIVE"</text>
</g>
<path d="M707.25 619a10 10 0 0 0 10 -10v-10a10 10 0 0 1 10 -10"></path>
<path d="M599.25 589a10 10 0 0 1 10 10v40a10 10 0 0 0 10 10"></path>
<g class="terminal ">
<path d="M619.25 649h8.5"></path>
<path d="M698.75 649h8.5"></path>
<rect x="627.75" y="638" width="71" height="22" rx="10" ry="10"></rect>
<text x="663.25" y="653">"UNIX"</text>
</g>
<path d="M707.25 649a10 10 0 0 0 10 -10v-40a10 10 0 0 1 10 -10"></path>
</g>
<path d="M727.25 589h10"></path>
<g class="terminal ">
<path d="M737.25 589h0"></path>
<path d="M842.25 589h0"></path>
<rect x="737.25" y="578" width="105" height="22" rx="10" ry="10"></rect>
<text x="789.75" y="593">"LINEFEED"</text>
</g>
</g>
<path d="M861.5 589a10 10 0 0 0 10 -10v-539"></path>
<path d="M489 40v629a10 10 0 0 0 10 10"></path>
<g class="terminal ">
<path d="M499 679h73.5"></path>
<path d="M788 679h73.5"></path>
<rect x="572.5" y="668" width="215.5" height="22" rx="10" ry="10"></rect>
<text x="680.25" y="683">"WITH WINDOWS LINEFEED"</text>
</g>
<path d="M861.5 679a10 10 0 0 0 10 -10v-629"></path>
<g class="diagram-text">
<title>take one or more branches, once each, in any order</title>
<path d="M 489 30 h -26 a 4 4 0 0 0 -4 4 v 12 a 4 4 0 0 0 4 4 h 26 z" class="diagram-text"></path>
<text x="474" y="44" class="diagram-text">1+</text>
<path d="M 871.5 30 h 16 a 4 4 0 0 1 4 4 v 12 a 4 4 0 0 1 -4 4 h -16 z" class="diagram-text"></path>
<path d="M 878.5 38 a 4 4 0 1 0 6 -1 m 2.75 -1 h -4 v 4 m 0 -3 h 2" style="stroke-width: 1.75"></path>
</g>
</g>
<path d="M891.5 40h20"></path>
</g>
</g>
</g>
<path d="M911.5 40h10"></path>
<path d="M 921.5 40 h 20 m -10 -10 v 20 m 10 -20 v 20"></path>
</g>
</svg>
