<svg xmlns="http://www.w3.org/2000/svg" xmlns:xlink="http://www.w3.org/1999/xlink" class="railroad-diagram" width="681.5" height="71" viewBox="0 0 681.5 71">
<defs>
<style type="text/css"><![CDATA[
path {
stroke-width: 3;
stroke: black;
fill: rgba(0,0,0,0);
}
text {
font: bold 14px monospace;
text-anchor: middle;
}
text.diagram-text {
font-size: 12px;
}
a {
fill: blue;
}
text.diagram-arrow {
font-size: 16px;
}
text.label {
text-anchor: start;
}
text.comment {
font: italic 12px monospace;
}
rect {
stroke-width: 3;
stroke: black;
fill: #BCBCBC;
}
path.diagram-text {
stroke-width: 3;
stroke: black;
fill: #BCBCBC;
cursor: help;
}
]]></style>
</defs>
<g transform="translate(.5 .5)">
<g>
<path d="M20 30v20m10 -20v20m-10 -10h20"></path>
</g>
<path d="M40 40h10"></path>
<g>
<path d="M50 40h0"></path>
<path d="M631.5 40h0"></path>
<g class="terminal">
<path d="M50 40h0"></path>
<path d="M146.5 40h0"></path>
<rect x="50" y="29" width="96.5" height="22" rx="10" ry="10"></rect>
<text x="98.25" y="44">"OVERLAY"</text>
</g>
<path d="M146.5 40h10"></path>
<path d="M156.5 40h10"></path>
<g class="non-terminal">
<path d="M166.5 40h0"></path>
<path d="M237.5 40h0"></path>
<rect x="166.5" y="29" width="71" height="22"></rect>
<a xlink:href="#/abap/expression/Target"><text x="202" y="44">Target</text>
</a>
</g>
<path d="M237.5 40h10"></path>
<path d="M247.5 40h10"></path>
<g class="terminal">
<path d="M257.5 40h0"></path>
<path d="M328.5 40h0"></path>
<rect x="257.5" y="29" width="71" height="22" rx="10" ry="10"></rect>
<text x="293" y="44">"WITH"</text>
</g>
<path d="M328.5 40h10"></path>
<path d="M338.5 40h10"></path>
<g class="non-terminal">
<path d="M348.5 40h0"></path>
<path d="M419.5 40h0"></path>
<rect x="348.5" y="29" width="71" height="22"></rect>
<a xlink:href="#/abap/expression/Source"><text x="384" y="44">Source</text>
</a>
</g>
<path d="M419.5 40h10"></path>
<g>
<path d="M429.5 40h0"></path>
<path d="M631.5 40h0"></path>
<path d="M429.5 40a10 10 0 0 0 10 -10v0a10 10 0 0 1 10 -10"></path>
<g>
<path d="M449.5 20h162"></path>
</g>
<path d="M611.5 20a10 10 0 0 1 10 10v0a10 10 0 0 0 10 10"></path>
<path d="M429.5 40h20"></path>
<g>
<path d="M449.5 40h0"></path>
<path d="M611.5 40h0"></path>
<g class="terminal">
<path d="M449.5 40h0"></path>
<path d="M520.5 40h0"></path>
<rect x="449.5" y="29" width="71" height="22" rx="10" ry="10"></rect>
<text x="485" y="44">"ONLY"</text>
</g>
<path d="M520.5 40h10"></path>
<path d="M530.5 40h10"></path>
<g class="non-terminal">
<path d="M540.5 40h0"></path>
<path d="M611.5 40h0"></path>
<rect x="540.5" y="29" width="71" height="22"></rect>
<a xlink:href="#/abap/expression/Source"><text x="576" y="44">Source</text>
</a>
</g>
</g>
<path d="M611.5 40h20"></path>
</g>
</g>
<path d="M631.5 40h10"></path>
<path d="M 641.5 40 h 20 m -10 -10 v 20 m 10 -20 v 20"></path>
</g>
</svg>
