<svg xmlns="http://www.w3.org/2000/svg" xmlns:xlink="http://www.w3.org/1999/xlink" class="railroad-diagram" width="2040.5" height="248" viewBox="0 0 2040.5 248">
<defs>
<style type="text/css"><![CDATA[
path {
stroke-width: 3;
stroke: black;
fill: rgba(0,0,0,0);
}
text {
font: bold 14px monospace;
text-anchor: middle;
}
text.diagram-text {
font-size: 12px;
}
a {
fill: blue;
}
text.diagram-arrow {
font-size: 16px;
}
text.label {
text-anchor: start;
}
text.comment {
font: italic 12px monospace;
}
rect {
stroke-width: 3;
stroke: black;
fill: #BCBCBC;
}
path.diagram-text {
stroke-width: 3;
stroke: black;
fill: #BCBCBC;
cursor: help;
}
]]></style>
</defs>
<g transform="translate(.5 .5)">
<g>
<path d="M20 30v20m10 -20v20m-10 -10h20"></path>
</g>
<path d="M40 40h10"></path>
<g>
<path d="M50 40h0"></path>
<path d="M1990.5 40h0"></path>
<g>
<path d="M50 40h0"></path>
<path d="M88 40h0"></path>
<text x="69" y="45" class="comment">v754</text>
</g>
<path d="M88 40h10"></path>
<path d="M98 40h10"></path>
<g>
<path d="M108 40h0"></path>
<path d="M1990.5 40h0"></path>
<g class="terminal">
<path d="M108 40h0"></path>
<path d="M298 40h0"></path>
<rect x="108" y="29" width="190" height="22" rx="10" ry="10"></rect>
<text x="203" y="44">"MODIFY ENTITIES OF"</text>
</g>
<path d="M298 40h10"></path>
<path d="M308 40h10"></path>
<g class="non-terminal">
<path d="M318 40h0"></path>
<path d="M499.5 40h0"></path>
<rect x="318" y="29" width="181.5" height="22"></rect>
<a xlink:href="#/abap/expression/NamespaceSimpleName"><text x="408.75" y="44">NamespaceSimpleName</text>
</a>
</g>
<path d="M499.5 40h10"></path>
<g>
<path d="M509.5 40h0"></path>
<path d="M697 40h0"></path>
<path d="M509.5 40a10 10 0 0 0 10 -10v0a10 10 0 0 1 10 -10"></path>
<g>
<path d="M529.5 20h147.5"></path>
</g>
<path d="M677 20a10 10 0 0 1 10 10v0a10 10 0 0 0 10 10"></path>
<path d="M509.5 40h20"></path>
<g class="terminal">
<path d="M529.5 40h0"></path>
<path d="M677 40h0"></path>
<rect x="529.5" y="29" width="147.5" height="22" rx="10" ry="10"></rect>
<text x="603.25" y="44">"IN LOCAL MODE"</text>
</g>
<path d="M677 40h20"></path>
</g>
<path d="M697 40h10"></path>
<g class="terminal">
<path d="M707 40h0"></path>
<path d="M795 40h0"></path>
<rect x="707" y="29" width="88" height="22" rx="10" ry="10"></rect>
<text x="751" y="44">"ENTITY"</text>
</g>
<path d="M795 40h10"></path>
<path d="M805 40h10"></path>
<g class="non-terminal">
<path d="M815 40h0"></path>
<path d="M920 40h0"></path>
<rect x="815" y="29" width="105" height="22"></rect>
<a xlink:href="#/abap/expression/SimpleName"><text x="867.5" y="44">SimpleName</text>
</a>
</g>
<path d="M920 40h10"></path>
<g>
<path d="M930 40h0"></path>
<path d="M1714.5 40h0"></path>
<path d="M930 40h20"></path>
<g>
<path d="M950 40h0"></path>
<path d="M1265 40h429.5"></path>
<g class="terminal">
<path d="M950 40h0"></path>
<path d="M1174 40h0"></path>
<rect x="950" y="29" width="224" height="22" rx="10" ry="10"></rect>
<text x="1062" y="44">"UPDATE SET FIELDS WITH"</text>
</g>
<path d="M1174 40h10"></path>
<path d="M1184 40h10"></path>
<g class="non-terminal">
<path d="M1194 40h0"></path>
<path d="M1265 40h0"></path>
<rect x="1194" y="29" width="71" height="22"></rect>
<a xlink:href="#/abap/expression/Source"><text x="1229.5" y="44">Source</text>
</a>
</g>
</g>
<path d="M1694.5 40h20"></path>
<path d="M930 40a10 10 0 0 1 10 10v10a10 10 0 0 0 10 10"></path>
<g>
<path d="M950 70h0"></path>
<path d="M1265 70h429.5"></path>
<g class="terminal">
<path d="M950 70h0"></path>
<path d="M1174 70h0"></path>
<rect x="950" y="59" width="224" height="22" rx="10" ry="10"></rect>
<text x="1062" y="74">"CREATE SET FIELDS WITH"</text>
</g>
<path d="M1174 70h10"></path>
<path d="M1184 70h10"></path>
<g class="non-terminal">
<path d="M1194 70h0"></path>
<path d="M1265 70h0"></path>
<rect x="1194" y="59" width="71" height="22"></rect>
<a xlink:href="#/abap/expression/Source"><text x="1229.5" y="74">Source</text>
</a>
</g>
</g>
<path d="M1694.5 70a10 10 0 0 0 10 -10v-10a10 10 0 0 1 10 -10"></path>
<path d="M930 40a10 10 0 0 1 10 10v40a10 10 0 0 0 10 10"></path>
<g>
<path d="M950 100h0"></path>
<path d="M1507 100h187.5"></path>
<g class="terminal">
<path d="M950 100h0"></path>
<path d="M1038 100h0"></path>
<rect x="950" y="89" width="88" height="22" rx="10" ry="10"></rect>
<text x="994" y="104">"UPDATE"</text>
</g>
<path d="M1038 100h10"></path>
<path d="M1048 100h10"></path>
<g>
<path d="M1058 100h0"></path>
<path d="M1507 100h0"></path>
<g class="terminal">
<path d="M1058 100h0"></path>
<path d="M1163 100h0"></path>
<rect x="1058" y="89" width="105" height="22" rx="10" ry="10"></rect>
<text x="1110.5" y="104">"FIELDS ("</text>
</g>
<path d="M1163 100h10"></path>
<path d="M1173 100h10"></path>
<g>
<path d="M1183 100h0"></path>
<path d="M1308 100h0"></path>
<path d="M1183 100h10"></path>
<g class="non-terminal">
<path d="M1193 100h0"></path>
<path d="M1298 100h0"></path>
<rect x="1193" y="89" width="105" height="22"></rect>
<a xlink:href="#/abap/expression/SimpleName"><text x="1245.5" y="104">SimpleName</text>
</a>
</g>
<path d="M1298 100h10"></path>
<path d="M1193 100a10 10 0 0 0 -10 10v0a10 10 0 0 0 10 10"></path>
<g>
<path d="M1193 120h105"></path>
</g>
<path d="M1298 120a10 10 0 0 0 10 -10v0a10 10 0 0 0 -10 -10"></path>
</g>
<path d="M1308 100h10"></path>
<path d="M1318 100h10"></path>
<g class="terminal">
<path d="M1328 100h0"></path>
<path d="M1416 100h0"></path>
<rect x="1328" y="89" width="88" height="22" rx="10" ry="10"></rect>
<text x="1372" y="104">") WITH"</text>
</g>
<path d="M1416 100h10"></path>
<path d="M1426 100h10"></path>
<g class="non-terminal">
<path d="M1436 100h0"></path>
<path d="M1507 100h0"></path>
<rect x="1436" y="89" width="71" height="22"></rect>
<a xlink:href="#/abap/expression/Source"><text x="1471.5" y="104">Source</text>
</a>
</g>
</g>
</g>
<path d="M1694.5 100a10 10 0 0 0 10 -10v-40a10 10 0 0 1 10 -10"></path>
<path d="M930 40a10 10 0 0 1 10 10v79a10 10 0 0 0 10 10"></path>
<g>
<path d="M950 139h0"></path>
<path d="M1171.5 139h523"></path>
<g class="terminal">
<path d="M950 139h0"></path>
<path d="M1080.5 139h0"></path>
<rect x="950" y="128" width="130.5" height="22" rx="10" ry="10"></rect>
<text x="1015.25" y="143">"DELETE FROM"</text>
</g>
<path d="M1080.5 139h10"></path>
<path d="M1090.5 139h10"></path>
<g class="non-terminal">
<path d="M1100.5 139h0"></path>
<path d="M1171.5 139h0"></path>
<rect x="1100.5" y="128" width="71" height="22"></rect>
<a xlink:href="#/abap/expression/Source"><text x="1136" y="143">Source</text>
</a>
</g>
</g>
<path d="M1694.5 139a10 10 0 0 0 10 -10v-79a10 10 0 0 1 10 -10"></path>
<path d="M930 40a10 10 0 0 1 10 10v109a10 10 0 0 0 10 10"></path>
<g>
<path d="M950 169h0"></path>
<path d="M1353.5 169h341"></path>
<g class="terminal">
<path d="M950 169h0"></path>
<path d="M1046.5 169h0"></path>
<rect x="950" y="158" width="96.5" height="22" rx="10" ry="10"></rect>
<text x="998.25" y="173">"EXECUTE"</text>
</g>
<path d="M1046.5 169h10"></path>
<path d="M1056.5 169h10"></path>
<g class="non-terminal">
<path d="M1066.5 169h0"></path>
<path d="M1171.5 169h0"></path>
<rect x="1066.5" y="158" width="105" height="22"></rect>
<a xlink:href="#/abap/expression/SimpleName"><text x="1119" y="173">SimpleName</text>
</a>
</g>
<path d="M1171.5 169h10"></path>
<path d="M1181.5 169h10"></path>
<g class="terminal">
<path d="M1191.5 169h0"></path>
<path d="M1262.5 169h0"></path>
<rect x="1191.5" y="158" width="71" height="22" rx="10" ry="10"></rect>
<text x="1227" y="173">"FROM"</text>
</g>
<path d="M1262.5 169h10"></path>
<path d="M1272.5 169h10"></path>
<g class="non-terminal">
<path d="M1282.5 169h0"></path>
<path d="M1353.5 169h0"></path>
<rect x="1282.5" y="158" width="71" height="22"></rect>
<a xlink:href="#/abap/expression/Source"><text x="1318" y="173">Source</text>
</a>
</g>
</g>
<path d="M1694.5 169a10 10 0 0 0 10 -10v-109a10 10 0 0 1 10 -10"></path>
<path d="M930 40a10 10 0 0 1 10 10v148a10 10 0 0 0 10 10"></path>
<g>
<path d="M950 208h0"></path>
<path d="M1694.5 208h0"></path>
<g class="terminal">
<path d="M950 208h0"></path>
<path d="M1038 208h0"></path>
<rect x="950" y="197" width="88" height="22" rx="10" ry="10"></rect>
<text x="994" y="212">"CREATE"</text>
</g>
<path d="M1038 208h10"></path>
<g>
<path d="M1048 208h0"></path>
<path d="M1235.5 208h0"></path>
<path d="M1048 208a10 10 0 0 0 10 -10v0a10 10 0 0 1 10 -10"></path>
<g>
<path d="M1068 188h147.5"></path>
</g>
<path d="M1215.5 188a10 10 0 0 1 10 10v0a10 10 0 0 0 10 10"></path>
<path d="M1048 208h20"></path>
<g class="terminal">
<path d="M1068 208h0"></path>
<path d="M1215.5 208h0"></path>
<rect x="1068" y="197" width="147.5" height="22" rx="10" ry="10"></rect>
<text x="1141.75" y="212">"AUTO FILL CID"</text>
</g>
<path d="M1215.5 208h20"></path>
</g>
<path d="M1235.5 208h10"></path>
<g>
<path d="M1245.5 208h0"></path>
<path d="M1694.5 208h0"></path>
<g class="terminal">
<path d="M1245.5 208h0"></path>
<path d="M1350.5 208h0"></path>
<rect x="1245.5" y="197" width="105" height="22" rx="10" ry="10"></rect>
<text x="1298" y="212">"FIELDS ("</text>
</g>
<path d="M1350.5 208h10"></path>
<path d="M1360.5 208h10"></path>
<g>
<path d="M1370.5 208h0"></path>
<path d="M1495.5 208h0"></path>
<path d="M1370.5 208h10"></path>
<g class="non-terminal">
<path d="M1380.5 208h0"></path>
<path d="M1485.5 208h0"></path>
<rect x="1380.5" y="197" width="105" height="22"></rect>
<a xlink:href="#/abap/expression/SimpleName"><text x="1433" y="212">SimpleName</text>
</a>
</g>
<path d="M1485.5 208h10"></path>
<path d="M1380.5 208a10 10 0 0 0 -10 10v0a10 10 0 0 0 10 10"></path>
<g>
<path d="M1380.5 228h105"></path>
</g>
<path d="M1485.5 228a10 10 0 0 0 10 -10v0a10 10 0 0 0 -10 -10"></path>
</g>
<path d="M1495.5 208h10"></path>
<path d="M1505.5 208h10"></path>
<g class="terminal">
<path d="M1515.5 208h0"></path>
<path d="M1603.5 208h0"></path>
<rect x="1515.5" y="197" width="88" height="22" rx="10" ry="10"></rect>
<text x="1559.5" y="212">") WITH"</text>
</g>
<path d="M1603.5 208h10"></path>
<path d="M1613.5 208h10"></path>
<g class="non-terminal">
<path d="M1623.5 208h0"></path>
<path d="M1694.5 208h0"></path>
<rect x="1623.5" y="197" width="71" height="22"></rect>
<a xlink:href="#/abap/expression/Source"><text x="1659" y="212">Source</text>
</a>
</g>
</g>
</g>
<path d="M1694.5 208a10 10 0 0 0 10 -10v-148a10 10 0 0 1 10 -10"></path>
</g>
<path d="M1714.5 40h10"></path>
<g>
<path d="M1724.5 40h0"></path>
<path d="M1990.5 40h0"></path>
<path d="M1754.5 40h10"></path>
<g>
<path d="M1764.5 40h0"></path>
<path d="M1943.5 40h17"></path>
<g class="terminal">
<path d="M1764.5 40h0"></path>
<path d="M1852.5 40h0"></path>
<rect x="1764.5" y="29" width="88" height="22" rx="10" ry="10"></rect>
<text x="1808.5" y="44">"FAILED"</text>
</g>
<path d="M1852.5 40h10"></path>
<path d="M1862.5 40h10"></path>
<g class="non-terminal">
<path d="M1872.5 40h0"></path>
<path d="M1943.5 40h0"></path>
<rect x="1872.5" y="29" width="71" height="22"></rect>
<a xlink:href="#/abap/expression/Target"><text x="1908" y="44">Target</text>
</a>
</g>
</g>
<path d="M1960.5 40h10"></path>
<path d="M1754.5 40v20a10 10 0 0 0 10 10"></path>
<g>
<path d="M1764.5 70h0"></path>
<path d="M1943.5 70h17"></path>
<g class="terminal">
<path d="M1764.5 70h0"></path>
<path d="M1852.5 70h0"></path>
<rect x="1764.5" y="59" width="88" height="22" rx="10" ry="10"></rect>
<text x="1808.5" y="74">"RESULT"</text>
</g>
<path d="M1852.5 70h10"></path>
<path d="M1862.5 70h10"></path>
<g class="non-terminal">
<path d="M1872.5 70h0"></path>
<path d="M1943.5 70h0"></path>
<rect x="1872.5" y="59" width="71" height="22"></rect>
<a xlink:href="#/abap/expression/Target"><text x="1908" y="74">Target</text>
</a>
</g>
</g>
<path d="M1960.5 70a10 10 0 0 0 10 -10v-20"></path>
<path d="M1754.5 40v50a10 10 0 0 0 10 10"></path>
<g>
<path d="M1764.5 100h0"></path>
<path d="M1943.5 100h17"></path>
<g class="terminal">
<path d="M1764.5 100h0"></path>
<path d="M1852.5 100h0"></path>
<rect x="1764.5" y="89" width="88" height="22" rx="10" ry="10"></rect>
<text x="1808.5" y="104">"MAPPED"</text>
</g>
<path d="M1852.5 100h10"></path>
<path d="M1862.5 100h10"></path>
<g class="non-terminal">
<path d="M1872.5 100h0"></path>
<path d="M1943.5 100h0"></path>
<rect x="1872.5" y="89" width="71" height="22"></rect>
<a xlink:href="#/abap/expression/Target"><text x="1908" y="104">Target</text>
</a>
</g>
</g>
<path d="M1960.5 100a10 10 0 0 0 10 -10v-50"></path>
<path d="M1754.5 40v80a10 10 0 0 0 10 10"></path>
<g>
<path d="M1764.5 130h0"></path>
<path d="M1960.5 130h0"></path>
<g class="terminal">
<path d="M1764.5 130h0"></path>
<path d="M1869.5 130h0"></path>
<rect x="1764.5" y="119" width="105" height="22" rx="10" ry="10"></rect>
<text x="1817" y="134">"REPORTED"</text>
</g>
<path d="M1869.5 130h10"></path>
<path d="M1879.5 130h10"></path>
<g class="non-terminal">
<path d="M1889.5 130h0"></path>
<path d="M1960.5 130h0"></path>
<rect x="1889.5" y="119" width="71" height="22"></rect>
<a xlink:href="#/abap/expression/Target"><text x="1925" y="134">Target</text>
</a>
</g>
</g>
<path d="M1960.5 130a10 10 0 0 0 10 -10v-80"></path>
<g class="diagram-text">
<title>take one or more branches, once each, in any order</title>
<path d="M 1754.5 30 h -26 a 4 4 0 0 0 -4 4 v 12 a 4 4 0 0 0 4 4 h 26 z" class="diagram-text"></path>
<text x="1739.5" y="44" class="diagram-text">1+</text>
<path d="M 1970.5 30 h 16 a 4 4 0 0 1 4 4 v 12 a 4 4 0 0 1 -4 4 h -16 z" class="diagram-text"></path>
<path d="M 1977.5 38 a 4 4 0 1 0 6 -1 m 2.75 -1 h -4 v 4 m 0 -3 h 2" style="stroke-width: 1.75"></path>
</g>
</g>
</g>
</g>
<path d="M1990.5 40h10"></path>
<path d="M 2000.5 40 h 20 m -10 -10 v 20 m 10 -20 v 20"></path>
</g>
</svg>
