<svg xmlns="http://www.w3.org/2000/svg" xmlns:xlink="http://www.w3.org/1999/xlink" class="railroad-diagram" width="1737" height="208" viewBox="0 0 1737 208">
<defs>
<style type="text/css"><![CDATA[
path {
stroke-width: 3;
stroke: black;
fill: rgba(0,0,0,0);
}
text {
font: bold 14px monospace;
text-anchor: middle;
}
text.diagram-text {
font-size: 12px;
}
a {
fill: blue;
}
text.diagram-arrow {
font-size: 16px;
}
text.label {
text-anchor: start;
}
text.comment {
font: italic 12px monospace;
}
rect {
stroke-width: 3;
stroke: black;
fill: #BCBCBC;
}
path.diagram-text {
stroke-width: 3;
stroke: black;
fill: #BCBCBC;
cursor: help;
}
]]></style>
</defs>
<g transform="translate(.5 .5)">
<g>
<path d="M20 38v20m10 -20v20m-10 -10h20"></path>
</g>
<path d="M40 48h10"></path>
<g>
<path d="M50 48h0"></path>
<path d="M1687 48h0"></path>
<g class="terminal ">
<path d="M50 48h0"></path>
<path d="M138 48h0"></path>
<rect x="50" y="37" width="88" height="22" rx="10" ry="10"></rect>
<text x="94" y="52">"INSERT"</text>
</g>
<path d="M138 48h10"></path>
<g>
<path d="M148 48h0"></path>
<path d="M1687 48h0"></path>
<path d="M148 48h20"></path>
<g>
<path d="M168 48h0"></path>
<path d="M1667 48h0"></path>
<g class="non-terminal ">
<path d="M168 48h0"></path>
<path d="M298.5 48h0"></path>
<rect x="168" y="37" width="130.5" height="22"></rect>
<a xlink:href="#/abap/expression/DatabaseTable"><text x="233.25" y="52">DatabaseTable</text>
</a>
</g>
<path d="M298.5 48h10"></path>
<g>
<path d="M308.5 48h0"></path>
<path d="M1667 48h0"></path>
<path d="M308.5 48a10 10 0 0 0 10 -10v-8a10 10 0 0 1 10 -10"></path>
<g>
<path d="M328.5 20h1318.5"></path>
</g>
<path d="M1647 20a10 10 0 0 1 10 10v8a10 10 0 0 0 10 10"></path>
<path d="M308.5 48h20"></path>
<g>
<path d="M328.5 48h0"></path>
<path d="M1647 48h0"></path>
<path d="M328.5 48h20"></path>
<g>
<path d="M348.5 48h0"></path>
<path d="M1627 48h0"></path>
<g>
<path d="M348.5 48h0"></path>
<path d="M485 48h0"></path>
<path d="M348.5 48a10 10 0 0 0 10 -10v0a10 10 0 0 1 10 -10"></path>
<g>
<path d="M368.5 28h96.5"></path>
</g>
<path d="M465 28a10 10 0 0 1 10 10v0a10 10 0 0 0 10 10"></path>
<path d="M348.5 48h20"></path>
<g class="non-terminal ">
<path d="M368.5 48h0"></path>
<path d="M465 48h0"></path>
<rect x="368.5" y="37" width="96.5" height="22"></rect>
<a xlink:href="#/abap/expression/SQLClient"><text x="416.75" y="52">SQLClient</text>
</a>
</g>
<path d="M465 48h20"></path>
</g>
<g>
<path d="M485 48h0"></path>
<path d="M698 48h0"></path>
<path d="M485 48a10 10 0 0 0 10 -10v0a10 10 0 0 1 10 -10"></path>
<g>
<path d="M505 28h173"></path>
</g>
<path d="M678 28a10 10 0 0 1 10 10v0a10 10 0 0 0 10 10"></path>
<path d="M485 48h20"></path>
<g class="non-terminal ">
<path d="M505 48h0"></path>
<path d="M678 48h0"></path>
<rect x="505" y="37" width="173" height="22"></rect>
<a xlink:href="#/abap/expression/DatabaseConnection"><text x="591.5" y="52">DatabaseConnection</text>
</a>
</g>
<path d="M678 48h20"></path>
</g>
<path d="M698 48h10"></path>
<g class="terminal ">
<path d="M708 48h0"></path>
<path d="M779 48h0"></path>
<rect x="708" y="37" width="71" height="22" rx="10" ry="10"></rect>
<text x="743.5" y="52">"FROM"</text>
</g>
<path d="M779 48h10"></path>
<g>
<path d="M789 48h0"></path>
<path d="M908.5 48h0"></path>
<path d="M789 48a10 10 0 0 0 10 -10v0a10 10 0 0 1 10 -10"></path>
<g>
<path d="M809 28h79.5"></path>
</g>
<path d="M888.5 28a10 10 0 0 1 10 10v0a10 10 0 0 0 10 10"></path>
<path d="M789 48h20"></path>
<g class="terminal ">
<path d="M809 48h0"></path>
<path d="M888.5 48h0"></path>
<rect x="809" y="37" width="79.5" height="22" rx="10" ry="10"></rect>
<text x="848.75" y="52">"TABLE"</text>
</g>
<path d="M888.5 48h20"></path>
</g>
<g>
<path d="M908.5 48h0"></path>
<path d="M1346 48h0"></path>
<path d="M908.5 48h20"></path>
<g class="non-terminal ">
<path d="M928.5 48h150.5"></path>
<path d="M1175.5 48h150.5"></path>
<rect x="1079" y="37" width="96.5" height="22"></rect>
<a xlink:href="#/abap/expression/SQLSource"><text x="1127.25" y="52">SQLSource</text>
</a>
</g>
<path d="M1326 48h20"></path>
<path d="M908.5 48a10 10 0 0 1 10 10v10a10 10 0 0 0 10 10"></path>
<g>
<path d="M928.5 78h0"></path>
<path d="M1326 78h0"></path>
<g class="terminal ">
<path d="M928.5 78h0"></path>
<path d="M1067.5 78h0"></path>
<rect x="928.5" y="67" width="139" height="22" rx="10" ry="10"></rect>
<text x="998" y="82">!"WParenLeftW"</text>
</g>
<path d="M1067.5 78h10"></path>
<path d="M1077.5 78h10"></path>
<g class="non-terminal ">
<path d="M1087.5 78h0"></path>
<path d="M1158.5 78h0"></path>
<rect x="1087.5" y="67" width="71" height="22"></rect>
<a xlink:href="#/abap/expression/Select"><text x="1123" y="82">Select</text>
</a>
</g>
<path d="M1158.5 78h10"></path>
<path d="M1168.5 78h10"></path>
<g class="terminal ">
<path d="M1178.5 78h0"></path>
<path d="M1326 78h0"></path>
<rect x="1178.5" y="67" width="147.5" height="22" rx="10" ry="10"></rect>
<text x="1252.25" y="82">!"WParenRightW"</text>
</g>
</g>
<path d="M1326 78a10 10 0 0 0 10 -10v-10a10 10 0 0 1 10 -10"></path>
</g>
<g>
<path d="M1346 48h0"></path>
<path d="M1627 48h0"></path>
<path d="M1346 48a10 10 0 0 0 10 -10v0a10 10 0 0 1 10 -10"></path>
<g>
<path d="M1366 28h241"></path>
</g>
<path d="M1607 28a10 10 0 0 1 10 10v0a10 10 0 0 0 10 10"></path>
<path d="M1346 48h20"></path>
<g class="terminal ">
<path d="M1366 48h0"></path>
<path d="M1607 48h0"></path>
<rect x="1366" y="37" width="241" height="22" rx="10" ry="10"></rect>
<text x="1486.5" y="52">"ACCEPTING DUPLICATE KEYS"</text>
</g>
<path d="M1607 48h20"></path>
</g>
</g>
<path d="M1627 48h20"></path>
<path d="M328.5 48a10 10 0 0 1 10 10v40a10 10 0 0 0 10 10"></path>
<g class="non-terminal ">
<path d="M348.5 108h591"></path>
<path d="M1036 108h591"></path>
<rect x="939.5" y="97" width="96.5" height="22"></rect>
<a xlink:href="#/abap/expression/SQLClient"><text x="987.75" y="112">SQLClient</text>
</a>
</g>
<path d="M1627 108a10 10 0 0 0 10 -10v-40a10 10 0 0 1 10 -10"></path>
<path d="M328.5 48a10 10 0 0 1 10 10v70a10 10 0 0 0 10 10"></path>
<g class="non-terminal ">
<path d="M348.5 138h552.75"></path>
<path d="M1074.25 138h552.75"></path>
<rect x="901.25" y="127" width="173" height="22"></rect>
<a xlink:href="#/abap/expression/DatabaseConnection"><text x="987.75" y="142">DatabaseConnection</text>
</a>
</g>
<path d="M1627 138a10 10 0 0 0 10 -10v-70a10 10 0 0 1 10 -10"></path>
</g>
<path d="M1647 48h20"></path>
</g>
</g>
<path d="M1667 48h20"></path>
<path d="M148 48a10 10 0 0 1 10 10v109a10 10 0 0 0 10 10"></path>
<g>
<path d="M168 177h351.75"></path>
<path d="M1315.25 177h351.75"></path>
<g class="terminal ">
<path d="M519.75 177h0"></path>
<path d="M590.75 177h0"></path>
<rect x="519.75" y="166" width="71" height="22" rx="10" ry="10"></rect>
<text x="555.25" y="181">"INTO"</text>
</g>
<path d="M590.75 177h10"></path>
<path d="M600.75 177h10"></path>
<g class="non-terminal ">
<path d="M610.75 177h0"></path>
<path d="M741.25 177h0"></path>
<rect x="610.75" y="166" width="130.5" height="22"></rect>
<a xlink:href="#/abap/expression/DatabaseTable"><text x="676" y="181">DatabaseTable</text>
</a>
</g>
<path d="M741.25 177h10"></path>
<g>
<path d="M751.25 177h0"></path>
<path d="M887.75 177h0"></path>
<path d="M751.25 177a10 10 0 0 0 10 -10v0a10 10 0 0 1 10 -10"></path>
<g>
<path d="M771.25 157h96.5"></path>
</g>
<path d="M867.75 157a10 10 0 0 1 10 10v0a10 10 0 0 0 10 10"></path>
<path d="M751.25 177h20"></path>
<g class="non-terminal ">
<path d="M771.25 177h0"></path>
<path d="M867.75 177h0"></path>
<rect x="771.25" y="166" width="96.5" height="22"></rect>
<a xlink:href="#/abap/expression/SQLClient"><text x="819.5" y="181">SQLClient</text>
</a>
</g>
<path d="M867.75 177h20"></path>
</g>
<g>
<path d="M887.75 177h0"></path>
<path d="M1100.75 177h0"></path>
<path d="M887.75 177a10 10 0 0 0 10 -10v0a10 10 0 0 1 10 -10"></path>
<g>
<path d="M907.75 157h173"></path>
</g>
<path d="M1080.75 157a10 10 0 0 1 10 10v0a10 10 0 0 0 10 10"></path>
<path d="M887.75 177h20"></path>
<g class="non-terminal ">
<path d="M907.75 177h0"></path>
<path d="M1080.75 177h0"></path>
<rect x="907.75" y="166" width="173" height="22"></rect>
<a xlink:href="#/abap/expression/DatabaseConnection"><text x="994.25" y="181">DatabaseConnection</text>
</a>
</g>
<path d="M1080.75 177h20"></path>
</g>
<path d="M1100.75 177h10"></path>
<g class="terminal ">
<path d="M1110.75 177h0"></path>
<path d="M1198.75 177h0"></path>
<rect x="1110.75" y="166" width="88" height="22" rx="10" ry="10"></rect>
<text x="1154.75" y="181">"VALUES"</text>
</g>
<path d="M1198.75 177h10"></path>
<path d="M1208.75 177h10"></path>
<g class="non-terminal ">
<path d="M1218.75 177h0"></path>
<path d="M1315.25 177h0"></path>
<rect x="1218.75" y="166" width="96.5" height="22"></rect>
<a xlink:href="#/abap/expression/SQLSource"><text x="1267" y="181">SQLSource</text>
</a>
</g>
</g>
<path d="M1667 177a10 10 0 0 0 10 -10v-109a10 10 0 0 1 10 -10"></path>
</g>
</g>
<path d="M1687 48h10"></path>
<path d="M 1697 48 h 20 m -10 -10 v 20 m 10 -20 v 20"></path>
</g>
</svg>
