<svg xmlns="http://www.w3.org/2000/svg" xmlns:xlink="http://www.w3.org/1999/xlink" class="railroad-diagram" width="1130.5" height="1547" viewBox="0 0 1130.5 1547">
<defs>
<style type="text/css"><![CDATA[
path {
stroke-width: 3;
stroke: black;
fill: rgba(0,0,0,0);
}
text {
font: bold 14px monospace;
text-anchor: middle;
}
text.diagram-text {
font-size: 12px;
}
a {
fill: blue;
}
text.diagram-arrow {
font-size: 16px;
}
text.label {
text-anchor: start;
}
text.comment {
font: italic 12px monospace;
}
rect {
stroke-width: 3;
stroke: black;
fill: #BCBCBC;
}
path.diagram-text {
stroke-width: 3;
stroke: black;
fill: #BCBCBC;
cursor: help;
}
]]></style>
</defs>
<g transform="translate(.5 .5)">
<g>
<path d="M20 21v20m10 -20v20m-10 -10h20"></path>
</g>
<path d="M40 31h10"></path>
<g>
<path d="M50 31h0"></path>
<path d="M1080.5 31h0"></path>
<g>
<path d="M50 31h0"></path>
<path d="M123 31h0"></path>
<text x="86.5" y="36" class="comment">not Cloud</text>
</g>
<path d="M123 31h10"></path>
<path d="M133 31h10"></path>
<g>
<path d="M143 31h0"></path>
<path d="M1080.5 31h0"></path>
<g class="terminal">
<path d="M143 31h0"></path>
<path d="M222.5 31h0"></path>
<rect x="143" y="20" width="79.5" height="22" rx="10" ry="10"></rect>
<text x="182.75" y="35">"WRITE"</text>
</g>
<path d="M222.5 31h10"></path>
<g>
<path d="M232.5 31h0"></path>
<path d="M1080.5 31h0"></path>
<path d="M232.5 31h20"></path>
<g class="terminal">
<path d="M252.5 31h0"></path>
<path d="M323.5 31h737"></path>
<rect x="252.5" y="20" width="71" height="22" rx="10" ry="10"></rect>
<text x="288" y="35">"AT /"</text>
</g>
<path d="M1060.5 31h20"></path>
<path d="M232.5 31a10 10 0 0 1 10 10v19a10 10 0 0 0 10 10"></path>
<g>
<path d="M252.5 70h0"></path>
<path d="M1060.5 70h0"></path>
<g>
<path d="M252.5 70h0"></path>
<path d="M457 70h0"></path>
<path d="M252.5 70a10 10 0 0 0 10 -10v0a10 10 0 0 1 10 -10"></path>
<g>
<path d="M272.5 50h164.5"></path>
</g>
<path d="M437 50a10 10 0 0 1 10 10v0a10 10 0 0 0 10 10"></path>
<path d="M252.5 70h20"></path>
<g class="non-terminal">
<path d="M272.5 70h0"></path>
<path d="M437 70h0"></path>
<rect x="272.5" y="59" width="164.5" height="22"></rect>
<a xlink:href="#/abap/expression/WriteOffsetLength"><text x="354.75" y="74">WriteOffsetLength</text>
</a>
</g>
<path d="M437 70h20"></path>
</g>
<g>
<path d="M457 70h0"></path>
<path d="M576.5 70h0"></path>
<path d="M457 70h20"></path>
<g class="non-terminal">
<path d="M477 70h0"></path>
<path d="M548 70h8.5"></path>
<rect x="477" y="59" width="71" height="22"></rect>
<a xlink:href="#/abap/expression/Source"><text x="512.5" y="74">Source</text>
</a>
</g>
<path d="M556.5 70h20"></path>
<path d="M457 70a10 10 0 0 1 10 10v10a10 10 0 0 0 10 10"></path>
<g class="non-terminal">
<path d="M477 100h0"></path>
<path d="M556.5 100h0"></path>
<rect x="477" y="89" width="79.5" height="22"></rect>
<a xlink:href="#/abap/expression/Dynamic"><text x="516.75" y="104">Dynamic</text>
</a>
</g>
<path d="M556.5 100a10 10 0 0 0 10 -10v-10a10 10 0 0 1 10 -10"></path>
<path d="M457 70a10 10 0 0 1 10 10v40a10 10 0 0 0 10 10"></path>
<g class="terminal">
<path d="M477 130h0"></path>
<path d="M522.5 130h34"></path>
<rect x="477" y="119" width="45.5" height="22" rx="10" ry="10"></rect>
<text x="499.75" y="134">"/"</text>
</g>
<path d="M556.5 130a10 10 0 0 0 10 -10v-40a10 10 0 0 1 10 -10"></path>
</g>
<g>
<path d="M576.5 70h0"></path>
<path d="M1060.5 70h0"></path>
<path d="M576.5 70a10 10 0 0 0 10 -10v0a10 10 0 0 1 10 -10"></path>
<g>
<path d="M596.5 50h444"></path>
</g>
<path d="M1040.5 50a10 10 0 0 1 10 10v0a10 10 0 0 0 10 10"></path>
<path d="M576.5 70h20"></path>
<g>
<path d="M596.5 70h0"></path>
<path d="M1040.5 70h0"></path>
<path d="M626.5 70h10"></path>
<g>
<path d="M636.5 70h0"></path>
<path d="M970.5 70h40"></path>
<g class="terminal">
<path d="M636.5 70h0"></path>
<path d="M716 70h0"></path>
<rect x="636.5" y="59" width="79.5" height="22" rx="10" ry="10"></rect>
<text x="676.25" y="74">"USING"</text>
</g>
<path d="M716 70h10"></path>
<g>
<path d="M726 70h0"></path>
<path d="M970.5 70h0"></path>
<path d="M726 70h20"></path>
<g class="terminal">
<path d="M746 70h0"></path>
<path d="M885 70h65.5"></path>
<rect x="746" y="59" width="139" height="22" rx="10" ry="10"></rect>
<text x="815.5" y="74">"NO EDIT MASK"</text>
</g>
<path d="M950.5 70h20"></path>
<path d="M726 70a10 10 0 0 1 10 10v10a10 10 0 0 0 10 10"></path>
<g>
<path d="M746 100h0"></path>
<path d="M950.5 100h0"></path>
<g class="terminal">
<path d="M746 100h0"></path>
<path d="M859.5 100h0"></path>
<rect x="746" y="89" width="113.5" height="22" rx="10" ry="10"></rect>
<text x="802.75" y="104">"EDIT MASK"</text>
</g>
<path d="M859.5 100h10"></path>
<path d="M869.5 100h10"></path>
<g class="non-terminal">
<path d="M879.5 100h0"></path>
<path d="M950.5 100h0"></path>
<rect x="879.5" y="89" width="71" height="22"></rect>
<a xlink:href="#/abap/expression/Source"><text x="915" y="104">Source</text>
</a>
</g>
</g>
<path d="M950.5 100a10 10 0 0 0 10 -10v-10a10 10 0 0 1 10 -10"></path>
</g>
</g>
<path d="M1010.5 70h10"></path>
<path d="M626.5 70v50a10 10 0 0 0 10 10"></path>
<g>
<path d="M636.5 130h0"></path>
<path d="M781.5 130h229"></path>
<g class="terminal">
<path d="M636.5 130h0"></path>
<path d="M690.5 130h0"></path>
<rect x="636.5" y="119" width="54" height="22" rx="10" ry="10"></rect>
<text x="663.5" y="134">"TO"</text>
</g>
<path d="M690.5 130h10"></path>
<path d="M700.5 130h10"></path>
<g class="non-terminal">
<path d="M710.5 130h0"></path>
<path d="M781.5 130h0"></path>
<rect x="710.5" y="119" width="71" height="22"></rect>
<a xlink:href="#/abap/expression/Target"><text x="746" y="134">Target</text>
</a>
</g>
</g>
<path d="M1010.5 130a10 10 0 0 0 10 -10v-50"></path>
<path d="M626.5 70v80a10 10 0 0 0 10 10"></path>
<g>
<path d="M636.5 160h0"></path>
<path d="M832.5 160h178"></path>
<g class="terminal">
<path d="M636.5 160h0"></path>
<path d="M741.5 160h0"></path>
<rect x="636.5" y="149" width="105" height="22" rx="10" ry="10"></rect>
<text x="689" y="164">"EXPONENT"</text>
</g>
<path d="M741.5 160h10"></path>
<path d="M751.5 160h10"></path>
<g class="non-terminal">
<path d="M761.5 160h0"></path>
<path d="M832.5 160h0"></path>
<rect x="761.5" y="149" width="71" height="22"></rect>
<a xlink:href="#/abap/expression/Source"><text x="797" y="164">Source</text>
</a>
</g>
</g>
<path d="M1010.5 160a10 10 0 0 0 10 -10v-80"></path>
<path d="M626.5 70v110a10 10 0 0 0 10 10"></path>
<g class="terminal">
<path d="M636.5 190h0"></path>
<path d="M767 190h243.5"></path>
<rect x="636.5" y="179" width="130.5" height="22" rx="10" ry="10"></rect>
<text x="701.75" y="194">"NO-GROUPING"</text>
</g>
<path d="M1010.5 190a10 10 0 0 0 10 -10v-110"></path>
<path d="M626.5 70v140a10 10 0 0 0 10 10"></path>
<g class="terminal">
<path d="M636.5 220h0"></path>
<path d="M733 220h277.5"></path>
<rect x="636.5" y="209" width="96.5" height="22" rx="10" ry="10"></rect>
<text x="684.75" y="224">"NO-ZERO"</text>
</g>
<path d="M1010.5 220a10 10 0 0 0 10 -10v-140"></path>
<path d="M626.5 70v170a10 10 0 0 0 10 10"></path>
<g class="terminal">
<path d="M636.5 250h0"></path>
<path d="M741.5 250h269"></path>
<rect x="636.5" y="239" width="105" height="22" rx="10" ry="10"></rect>
<text x="689" y="254">"CENTERED"</text>
</g>
<path d="M1010.5 250a10 10 0 0 0 10 -10v-170"></path>
<path d="M626.5 70v209a10 10 0 0 0 10 10"></path>
<g>
<path d="M636.5 289h0"></path>
<path d="M959.5 289h51"></path>
<g class="terminal">
<path d="M636.5 289h0"></path>
<path d="M716 289h0"></path>
<rect x="636.5" y="278" width="79.5" height="22" rx="10" ry="10"></rect>
<text x="676.25" y="293">"INPUT"</text>
</g>
<path d="M716 289h10"></path>
<g>
<path d="M726 289h0"></path>
<path d="M959.5 289h0"></path>
<path d="M726 289a10 10 0 0 0 10 -10v0a10 10 0 0 1 10 -10"></path>
<g>
<path d="M746 269h193.5"></path>
</g>
<path d="M939.5 269a10 10 0 0 1 10 10v0a10 10 0 0 0 10 10"></path>
<path d="M726 289h20"></path>
<g>
<path d="M746 289h0"></path>
<path d="M939.5 289h0"></path>
<path d="M746 289h20"></path>
<g>
<path d="M766 289h0"></path>
<path d="M868.5 289h51"></path>
<path d="M766 289h20"></path>
<g class="terminal">
<path d="M786 289h0"></path>
<path d="M840 289h8.5"></path>
<rect x="786" y="278" width="54" height="22" rx="10" ry="10"></rect>
<text x="813" y="293">"ON"</text>
</g>
<path d="M848.5 289h20"></path>
<path d="M766 289a10 10 0 0 1 10 10v10a10 10 0 0 0 10 10"></path>
<g class="terminal">
<path d="M786 319h0"></path>
<path d="M848.5 319h0"></path>
<rect x="786" y="308" width="62.5" height="22" rx="10" ry="10"></rect>
<text x="817.25" y="323">"OFF"</text>
</g>
<path d="M848.5 319a10 10 0 0 0 10 -10v-10a10 10 0 0 1 10 -10"></path>
</g>
<path d="M919.5 289h20"></path>
<path d="M746 289a10 10 0 0 1 10 10v40a10 10 0 0 0 10 10"></path>
<g>
<path d="M766 349h0"></path>
<path d="M919.5 349h0"></path>
<g class="terminal">
<path d="M766 349h0"></path>
<path d="M811.5 349h0"></path>
<rect x="766" y="338" width="45.5" height="22" rx="10" ry="10"></rect>
<text x="788.75" y="353">"="</text>
</g>
<path d="M811.5 349h10"></path>
<path d="M821.5 349h10"></path>
<g class="non-terminal">
<path d="M831.5 349h0"></path>
<path d="M919.5 349h0"></path>
<rect x="831.5" y="338" width="88" height="22"></rect>
<a xlink:href="#/abap/expression/FieldSub"><text x="875.5" y="353">FieldSub</text>
</a>
</g>
</g>
<path d="M919.5 349a10 10 0 0 0 10 -10v-40a10 10 0 0 1 10 -10"></path>
</g>
<path d="M939.5 289h20"></path>
</g>
</g>
<path d="M1010.5 289a10 10 0 0 0 10 -10v-209"></path>
<path d="M626.5 70v299a10 10 0 0 0 10 10"></path>
<g class="terminal">
<path d="M636.5 379h0"></path>
<path d="M724.5 379h286"></path>
<rect x="636.5" y="368" width="88" height="22" rx="10" ry="10"></rect>
<text x="680.5" y="383">"NO-GAP"</text>
</g>
<path d="M1010.5 379a10 10 0 0 0 10 -10v-299"></path>
<path d="M626.5 70v329a10 10 0 0 0 10 10"></path>
<g class="terminal">
<path d="M636.5 409h0"></path>
<path d="M792.5 409h218"></path>
<rect x="636.5" y="398" width="156" height="22" rx="10" ry="10"></rect>
<text x="714.5" y="413">"LEFT-JUSTIFIED"</text>
</g>
<path d="M1010.5 409a10 10 0 0 0 10 -10v-329"></path>
<path d="M626.5 70v359a10 10 0 0 0 10 10"></path>
<g>
<path d="M636.5 439h0"></path>
<path d="M845.5 439h165"></path>
<g class="terminal">
<path d="M636.5 439h0"></path>
<path d="M690.5 439h0"></path>
<rect x="636.5" y="428" width="54" height="22" rx="10" ry="10"></rect>
<text x="663.5" y="443">"AS"</text>
</g>
<path d="M690.5 439h10"></path>
<g>
<path d="M700.5 439h0"></path>
<path d="M845.5 439h0"></path>
<path d="M700.5 439h20"></path>
<g class="terminal">
<path d="M720.5 439h0"></path>
<path d="M791.5 439h34"></path>
<rect x="720.5" y="428" width="71" height="22" rx="10" ry="10"></rect>
<text x="756" y="443">"LINE"</text>
</g>
<path d="M825.5 439h20"></path>
<path d="M700.5 439a10 10 0 0 1 10 10v10a10 10 0 0 0 10 10"></path>
<g class="terminal">
<path d="M720.5 469h0"></path>
<path d="M791.5 469h34"></path>
<rect x="720.5" y="458" width="71" height="22" rx="10" ry="10"></rect>
<text x="756" y="473">"ICON"</text>
</g>
<path d="M825.5 469a10 10 0 0 0 10 -10v-10a10 10 0 0 1 10 -10"></path>
<path d="M700.5 439a10 10 0 0 1 10 10v40a10 10 0 0 0 10 10"></path>
<g class="terminal">
<path d="M720.5 499h0"></path>
<path d="M825.5 499h0"></path>
<rect x="720.5" y="488" width="105" height="22" rx="10" ry="10"></rect>
<text x="773" y="503">"CHECKBOX"</text>
</g>
<path d="M825.5 499a10 10 0 0 0 10 -10v-40a10 10 0 0 1 10 -10"></path>
<path d="M700.5 439a10 10 0 0 1 10 10v70a10 10 0 0 0 10 10"></path>
<g class="terminal">
<path d="M720.5 529h0"></path>
<path d="M808.5 529h17"></path>
<rect x="720.5" y="518" width="88" height="22" rx="10" ry="10"></rect>
<text x="764.5" y="533">"SYMBOL"</text>
</g>
<path d="M825.5 529a10 10 0 0 0 10 -10v-70a10 10 0 0 1 10 -10"></path>
</g>
</g>
<path d="M1010.5 439a10 10 0 0 0 10 -10v-359"></path>
<path d="M626.5 70v479a10 10 0 0 0 10 10"></path>
<g>
<path d="M636.5 559h0"></path>
<path d="M928 559h82.5"></path>
<g class="terminal">
<path d="M636.5 559h0"></path>
<path d="M724.5 559h0"></path>
<rect x="636.5" y="548" width="88" height="22" rx="10" ry="10"></rect>
<text x="680.5" y="563">"FRAMES"</text>
</g>
<path d="M724.5 559h10"></path>
<g>
<path d="M734.5 559h0"></path>
<path d="M928 559h0"></path>
<path d="M734.5 559h20"></path>
<g>
<path d="M754.5 559h0"></path>
<path d="M857 559h51"></path>
<path d="M754.5 559h20"></path>
<g class="terminal">
<path d="M774.5 559h0"></path>
<path d="M828.5 559h8.5"></path>
<rect x="774.5" y="548" width="54" height="22" rx="10" ry="10"></rect>
<text x="801.5" y="563">"ON"</text>
</g>
<path d="M837 559h20"></path>
<path d="M754.5 559a10 10 0 0 1 10 10v10a10 10 0 0 0 10 10"></path>
<g class="terminal">
<path d="M774.5 589h0"></path>
<path d="M837 589h0"></path>
<rect x="774.5" y="578" width="62.5" height="22" rx="10" ry="10"></rect>
<text x="805.75" y="593">"OFF"</text>
</g>
<path d="M837 589a10 10 0 0 0 10 -10v-10a10 10 0 0 1 10 -10"></path>
</g>
<path d="M908 559h20"></path>
<path d="M734.5 559a10 10 0 0 1 10 10v40a10 10 0 0 0 10 10"></path>
<g>
<path d="M754.5 619h0"></path>
<path d="M908 619h0"></path>
<g class="terminal">
<path d="M754.5 619h0"></path>
<path d="M800 619h0"></path>
<rect x="754.5" y="608" width="45.5" height="22" rx="10" ry="10"></rect>
<text x="777.25" y="623">"="</text>
</g>
<path d="M800 619h10"></path>
<path d="M810 619h10"></path>
<g class="non-terminal">
<path d="M820 619h0"></path>
<path d="M908 619h0"></path>
<rect x="820" y="608" width="88" height="22"></rect>
<a xlink:href="#/abap/expression/FieldSub"><text x="864" y="623">FieldSub</text>
</a>
</g>
</g>
<path d="M908 619a10 10 0 0 0 10 -10v-40a10 10 0 0 1 10 -10"></path>
</g>
</g>
<path d="M1010.5 559a10 10 0 0 0 10 -10v-479"></path>
<path d="M626.5 70v578a10 10 0 0 0 10 10"></path>
<g>
<path d="M636.5 658h0"></path>
<path d="M976.5 658h34"></path>
<g class="terminal">
<path d="M636.5 658h0"></path>
<path d="M733 658h0"></path>
<rect x="636.5" y="647" width="96.5" height="22" rx="10" ry="10"></rect>
<text x="684.75" y="662">"HOTSPOT"</text>
</g>
<path d="M733 658h10"></path>
<g>
<path d="M743 658h0"></path>
<path d="M976.5 658h0"></path>
<path d="M743 658a10 10 0 0 0 10 -10v0a10 10 0 0 1 10 -10"></path>
<g>
<path d="M763 638h193.5"></path>
</g>
<path d="M956.5 638a10 10 0 0 1 10 10v0a10 10 0 0 0 10 10"></path>
<path d="M743 658h20"></path>
<g>
<path d="M763 658h0"></path>
<path d="M956.5 658h0"></path>
<path d="M763 658h20"></path>
<g>
<path d="M783 658h0"></path>
<path d="M885.5 658h51"></path>
<path d="M783 658h20"></path>
<g class="terminal">
<path d="M803 658h0"></path>
<path d="M857 658h8.5"></path>
<rect x="803" y="647" width="54" height="22" rx="10" ry="10"></rect>
<text x="830" y="662">"ON"</text>
</g>
<path d="M865.5 658h20"></path>
<path d="M783 658a10 10 0 0 1 10 10v10a10 10 0 0 0 10 10"></path>
<g class="terminal">
<path d="M803 688h0"></path>
<path d="M865.5 688h0"></path>
<rect x="803" y="677" width="62.5" height="22" rx="10" ry="10"></rect>
<text x="834.25" y="692">"OFF"</text>
</g>
<path d="M865.5 688a10 10 0 0 0 10 -10v-10a10 10 0 0 1 10 -10"></path>
</g>
<path d="M936.5 658h20"></path>
<path d="M763 658a10 10 0 0 1 10 10v40a10 10 0 0 0 10 10"></path>
<g>
<path d="M783 718h0"></path>
<path d="M936.5 718h0"></path>
<g class="terminal">
<path d="M783 718h0"></path>
<path d="M828.5 718h0"></path>
<rect x="783" y="707" width="45.5" height="22" rx="10" ry="10"></rect>
<text x="805.75" y="722">"="</text>
</g>
<path d="M828.5 718h10"></path>
<path d="M838.5 718h10"></path>
<g class="non-terminal">
<path d="M848.5 718h0"></path>
<path d="M936.5 718h0"></path>
<rect x="848.5" y="707" width="88" height="22"></rect>
<a xlink:href="#/abap/expression/FieldSub"><text x="892.5" y="722">FieldSub</text>
</a>
</g>
</g>
<path d="M936.5 718a10 10 0 0 0 10 -10v-40a10 10 0 0 1 10 -10"></path>
</g>
<path d="M956.5 658h20"></path>
</g>
</g>
<path d="M1010.5 658a10 10 0 0 0 10 -10v-578"></path>
<path d="M626.5 70v668a10 10 0 0 0 10 10"></path>
<g class="terminal">
<path d="M636.5 748h0"></path>
<path d="M801 748h209.5"></path>
<rect x="636.5" y="737" width="164.5" height="22" rx="10" ry="10"></rect>
<text x="718.75" y="752">"RIGHT-JUSTIFIED"</text>
</g>
<path d="M1010.5 748a10 10 0 0 0 10 -10v-668"></path>
<path d="M626.5 70v698a10 10 0 0 0 10 10"></path>
<g>
<path d="M636.5 778h0"></path>
<path d="M841 778h169.5"></path>
<g class="terminal">
<path d="M636.5 778h0"></path>
<path d="M750 778h0"></path>
<rect x="636.5" y="767" width="113.5" height="22" rx="10" ry="10"></rect>
<text x="693.25" y="782">"TIME ZONE"</text>
</g>
<path d="M750 778h10"></path>
<path d="M760 778h10"></path>
<g class="non-terminal">
<path d="M770 778h0"></path>
<path d="M841 778h0"></path>
<rect x="770" y="767" width="71" height="22"></rect>
<a xlink:href="#/abap/expression/Source"><text x="805.5" y="782">Source</text>
</a>
</g>
</g>
<path d="M1010.5 778a10 10 0 0 0 10 -10v-698"></path>
<path d="M626.5 70v728a10 10 0 0 0 10 10"></path>
<g>
<path d="M636.5 808h0"></path>
<path d="M807 808h203.5"></path>
<g class="terminal">
<path d="M636.5 808h0"></path>
<path d="M716 808h0"></path>
<rect x="636.5" y="797" width="79.5" height="22" rx="10" ry="10"></rect>
<text x="676.25" y="812">"UNDER"</text>
</g>
<path d="M716 808h10"></path>
<path d="M726 808h10"></path>
<g class="non-terminal">
<path d="M736 808h0"></path>
<path d="M807 808h0"></path>
<rect x="736" y="797" width="71" height="22"></rect>
<a xlink:href="#/abap/expression/Source"><text x="771.5" y="812">Source</text>
</a>
</g>
</g>
<path d="M1010.5 808a10 10 0 0 0 10 -10v-728"></path>
<path d="M626.5 70v758a10 10 0 0 0 10 10"></path>
<g>
<path d="M636.5 838h0"></path>
<path d="M807 838h203.5"></path>
<g class="terminal">
<path d="M636.5 838h0"></path>
<path d="M716 838h0"></path>
<rect x="636.5" y="827" width="79.5" height="22" rx="10" ry="10"></rect>
<text x="676.25" y="842">"STYLE"</text>
</g>
<path d="M716 838h10"></path>
<path d="M726 838h10"></path>
<g class="non-terminal">
<path d="M736 838h0"></path>
<path d="M807 838h0"></path>
<rect x="736" y="827" width="71" height="22"></rect>
<a xlink:href="#/abap/expression/Source"><text x="771.5" y="842">Source</text>
</a>
</g>
</g>
<path d="M1010.5 838a10 10 0 0 0 10 -10v-758"></path>
<path d="M626.5 70v788a10 10 0 0 0 10 10"></path>
<g>
<path d="M636.5 868h0"></path>
<path d="M807 868h203.5"></path>
<g class="terminal">
<path d="M636.5 868h0"></path>
<path d="M716 868h0"></path>
<rect x="636.5" y="857" width="79.5" height="22" rx="10" ry="10"></rect>
<text x="676.25" y="872">"ROUND"</text>
</g>
<path d="M716 868h10"></path>
<path d="M726 868h10"></path>
<g class="non-terminal">
<path d="M736 868h0"></path>
<path d="M807 868h0"></path>
<rect x="736" y="857" width="71" height="22"></rect>
<a xlink:href="#/abap/expression/Source"><text x="771.5" y="872">Source</text>
</a>
</g>
</g>
<path d="M1010.5 868a10 10 0 0 0 10 -10v-788"></path>
<path d="M626.5 70v818a10 10 0 0 0 10 10"></path>
<g>
<path d="M636.5 898h0"></path>
<path d="M841 898h169.5"></path>
<g class="terminal">
<path d="M636.5 898h0"></path>
<path d="M750 898h0"></path>
<rect x="636.5" y="887" width="113.5" height="22" rx="10" ry="10"></rect>
<text x="693.25" y="902">"QUICKINFO"</text>
</g>
<path d="M750 898h10"></path>
<path d="M760 898h10"></path>
<g class="non-terminal">
<path d="M770 898h0"></path>
<path d="M841 898h0"></path>
<rect x="770" y="887" width="71" height="22"></rect>
<a xlink:href="#/abap/expression/Source"><text x="805.5" y="902">Source</text>
</a>
</g>
</g>
<path d="M1010.5 898a10 10 0 0 0 10 -10v-818"></path>
<path d="M626.5 70v848a10 10 0 0 0 10 10"></path>
<g class="terminal">
<path d="M636.5 928h0"></path>
<path d="M869 928h141.5"></path>
<rect x="636.5" y="917" width="232.5" height="22" rx="10" ry="10"></rect>
<text x="752.75" y="932">"ENVIRONMENT TIME FORMAT"</text>
</g>
<path d="M1010.5 928a10 10 0 0 0 10 -10v-848"></path>
<path d="M626.5 70v878a10 10 0 0 0 10 10"></path>
<g>
<path d="M636.5 958h0"></path>
<path d="M798.5 958h212"></path>
<path d="M636.5 958h20"></path>
<g class="terminal">
<path d="M656.5 958h0"></path>
<path d="M761.5 958h17"></path>
<rect x="656.5" y="947" width="105" height="22" rx="10" ry="10"></rect>
<text x="709" y="962">"DD/MM/YY"</text>
</g>
<path d="M778.5 958h20"></path>
<path d="M636.5 958a10 10 0 0 1 10 10v10a10 10 0 0 0 10 10"></path>
<g class="terminal">
<path d="M656.5 988h0"></path>
<path d="M761.5 988h17"></path>
<rect x="656.5" y="977" width="105" height="22" rx="10" ry="10"></rect>
<text x="709" y="992">"MM/DD/YY"</text>
</g>
<path d="M778.5 988a10 10 0 0 0 10 -10v-10a10 10 0 0 1 10 -10"></path>
<path d="M636.5 958a10 10 0 0 1 10 10v40a10 10 0 0 0 10 10"></path>
<g class="terminal">
<path d="M656.5 1018h0"></path>
<path d="M778.5 1018h0"></path>
<rect x="656.5" y="1007" width="122" height="22" rx="10" ry="10"></rect>
<text x="717.5" y="1022">"DD/MM/YYYY"</text>
</g>
<path d="M778.5 1018a10 10 0 0 0 10 -10v-40a10 10 0 0 1 10 -10"></path>
<path d="M636.5 958a10 10 0 0 1 10 10v70a10 10 0 0 0 10 10"></path>
<g class="terminal">
<path d="M656.5 1048h0"></path>
<path d="M778.5 1048h0"></path>
<rect x="656.5" y="1037" width="122" height="22" rx="10" ry="10"></rect>
<text x="717.5" y="1052">"MM/DD/YYYY"</text>
</g>
<path d="M778.5 1048a10 10 0 0 0 10 -10v-70a10 10 0 0 1 10 -10"></path>
<path d="M636.5 958a10 10 0 0 1 10 10v100a10 10 0 0 0 10 10"></path>
<g class="terminal">
<path d="M656.5 1078h0"></path>
<path d="M744.5 1078h34"></path>
<rect x="656.5" y="1067" width="88" height="22" rx="10" ry="10"></rect>
<text x="700.5" y="1082">"DDMMYY"</text>
</g>
<path d="M778.5 1078a10 10 0 0 0 10 -10v-100a10 10 0 0 1 10 -10"></path>
<path d="M636.5 958a10 10 0 0 1 10 10v130a10 10 0 0 0 10 10"></path>
<g class="terminal">
<path d="M656.5 1108h0"></path>
<path d="M744.5 1108h34"></path>
<rect x="656.5" y="1097" width="88" height="22" rx="10" ry="10"></rect>
<text x="700.5" y="1112">"MMDDYY"</text>
</g>
<path d="M778.5 1108a10 10 0 0 0 10 -10v-130a10 10 0 0 1 10 -10"></path>
<path d="M636.5 958a10 10 0 0 1 10 10v160a10 10 0 0 0 10 10"></path>
<g class="terminal">
<path d="M656.5 1138h0"></path>
<path d="M744.5 1138h34"></path>
<rect x="656.5" y="1127" width="88" height="22" rx="10" ry="10"></rect>
<text x="700.5" y="1142">"YYMMDD"</text>
</g>
<path d="M778.5 1138a10 10 0 0 0 10 -10v-160a10 10 0 0 1 10 -10"></path>
</g>
<path d="M1010.5 958a10 10 0 0 0 10 -10v-878"></path>
<path d="M626.5 70v1088a10 10 0 0 0 10 10"></path>
<g>
<path d="M636.5 1168h0"></path>
<path d="M798.5 1168h212"></path>
<g class="terminal">
<path d="M636.5 1168h0"></path>
<path d="M707.5 1168h0"></path>
<rect x="636.5" y="1157" width="71" height="22" rx="10" ry="10"></rect>
<text x="672" y="1172">"UNIT"</text>
</g>
<path d="M707.5 1168h10"></path>
<path d="M717.5 1168h10"></path>
<g class="non-terminal">
<path d="M727.5 1168h0"></path>
<path d="M798.5 1168h0"></path>
<rect x="727.5" y="1157" width="71" height="22"></rect>
<a xlink:href="#/abap/expression/Source"><text x="763" y="1172">Source</text>
</a>
</g>
</g>
<path d="M1010.5 1168a10 10 0 0 0 10 -10v-1088"></path>
<path d="M626.5 70v1127a10 10 0 0 0 10 10"></path>
<g>
<path d="M636.5 1207h0"></path>
<path d="M1010.5 1207h0"></path>
<g class="terminal">
<path d="M636.5 1207h0"></path>
<path d="M767 1207h0"></path>
<rect x="636.5" y="1196" width="130.5" height="22" rx="10" ry="10"></rect>
<text x="701.75" y="1211">"INTENSIFIED"</text>
</g>
<path d="M767 1207h10"></path>
<g>
<path d="M777 1207h0"></path>
<path d="M1010.5 1207h0"></path>
<path d="M777 1207a10 10 0 0 0 10 -10v0a10 10 0 0 1 10 -10"></path>
<g>
<path d="M797 1187h193.5"></path>
</g>
<path d="M990.5 1187a10 10 0 0 1 10 10v0a10 10 0 0 0 10 10"></path>
<path d="M777 1207h20"></path>
<g>
<path d="M797 1207h0"></path>
<path d="M990.5 1207h0"></path>
<path d="M797 1207h20"></path>
<g>
<path d="M817 1207h0"></path>
<path d="M919.5 1207h51"></path>
<path d="M817 1207h20"></path>
<g class="terminal">
<path d="M837 1207h0"></path>
<path d="M891 1207h8.5"></path>
<rect x="837" y="1196" width="54" height="22" rx="10" ry="10"></rect>
<text x="864" y="1211">"ON"</text>
</g>
<path d="M899.5 1207h20"></path>
<path d="M817 1207a10 10 0 0 1 10 10v10a10 10 0 0 0 10 10"></path>
<g class="terminal">
<path d="M837 1237h0"></path>
<path d="M899.5 1237h0"></path>
<rect x="837" y="1226" width="62.5" height="22" rx="10" ry="10"></rect>
<text x="868.25" y="1241">"OFF"</text>
</g>
<path d="M899.5 1237a10 10 0 0 0 10 -10v-10a10 10 0 0 1 10 -10"></path>
</g>
<path d="M970.5 1207h20"></path>
<path d="M797 1207a10 10 0 0 1 10 10v40a10 10 0 0 0 10 10"></path>
<g>
<path d="M817 1267h0"></path>
<path d="M970.5 1267h0"></path>
<g class="terminal">
<path d="M817 1267h0"></path>
<path d="M862.5 1267h0"></path>
<rect x="817" y="1256" width="45.5" height="22" rx="10" ry="10"></rect>
<text x="839.75" y="1271">"="</text>
</g>
<path d="M862.5 1267h10"></path>
<path d="M872.5 1267h10"></path>
<g class="non-terminal">
<path d="M882.5 1267h0"></path>
<path d="M970.5 1267h0"></path>
<rect x="882.5" y="1256" width="88" height="22"></rect>
<a xlink:href="#/abap/expression/FieldSub"><text x="926.5" y="1271">FieldSub</text>
</a>
</g>
</g>
<path d="M970.5 1267a10 10 0 0 0 10 -10v-40a10 10 0 0 1 10 -10"></path>
</g>
<path d="M990.5 1207h20"></path>
</g>
</g>
<path d="M1010.5 1207a10 10 0 0 0 10 -10v-1127"></path>
<path d="M626.5 70v1217a10 10 0 0 0 10 10"></path>
<g>
<path d="M636.5 1297h0"></path>
<path d="M807 1297h203.5"></path>
<g class="terminal">
<path d="M636.5 1297h0"></path>
<path d="M716 1297h0"></path>
<rect x="636.5" y="1286" width="79.5" height="22" rx="10" ry="10"></rect>
<text x="676.25" y="1301">"INDEX"</text>
</g>
<path d="M716 1297h10"></path>
<path d="M726 1297h10"></path>
<g class="non-terminal">
<path d="M736 1297h0"></path>
<path d="M807 1297h0"></path>
<rect x="736" y="1286" width="71" height="22"></rect>
<a xlink:href="#/abap/expression/Source"><text x="771.5" y="1301">Source</text>
</a>
</g>
</g>
<path d="M1010.5 1297a10 10 0 0 0 10 -10v-1217"></path>
<path d="M626.5 70v1247a10 10 0 0 0 10 10"></path>
<g>
<path d="M636.5 1327h0"></path>
<path d="M832.5 1327h178"></path>
<g class="terminal">
<path d="M636.5 1327h0"></path>
<path d="M741.5 1327h0"></path>
<rect x="636.5" y="1316" width="105" height="22" rx="10" ry="10"></rect>
<text x="689" y="1331">"DECIMALS"</text>
</g>
<path d="M741.5 1327h10"></path>
<path d="M751.5 1327h10"></path>
<g class="non-terminal">
<path d="M761.5 1327h0"></path>
<path d="M832.5 1327h0"></path>
<rect x="761.5" y="1316" width="71" height="22"></rect>
<a xlink:href="#/abap/expression/Source"><text x="797" y="1331">Source</text>
</a>
</g>
</g>
<path d="M1010.5 1327a10 10 0 0 0 10 -10v-1247"></path>
<path d="M626.5 70v1286a10 10 0 0 0 10 10"></path>
<g>
<path d="M636.5 1366h0"></path>
<path d="M976.5 1366h34"></path>
<g class="terminal">
<path d="M636.5 1366h0"></path>
<path d="M733 1366h0"></path>
<rect x="636.5" y="1355" width="96.5" height="22" rx="10" ry="10"></rect>
<text x="684.75" y="1370">"INVERSE"</text>
</g>
<path d="M733 1366h10"></path>
<g>
<path d="M743 1366h0"></path>
<path d="M976.5 1366h0"></path>
<path d="M743 1366a10 10 0 0 0 10 -10v0a10 10 0 0 1 10 -10"></path>
<g>
<path d="M763 1346h193.5"></path>
</g>
<path d="M956.5 1346a10 10 0 0 1 10 10v0a10 10 0 0 0 10 10"></path>
<path d="M743 1366h20"></path>
<g>
<path d="M763 1366h0"></path>
<path d="M956.5 1366h0"></path>
<path d="M763 1366h20"></path>
<g>
<path d="M783 1366h0"></path>
<path d="M885.5 1366h51"></path>
<path d="M783 1366h20"></path>
<g class="terminal">
<path d="M803 1366h0"></path>
<path d="M857 1366h8.5"></path>
<rect x="803" y="1355" width="54" height="22" rx="10" ry="10"></rect>
<text x="830" y="1370">"ON"</text>
</g>
<path d="M865.5 1366h20"></path>
<path d="M783 1366a10 10 0 0 1 10 10v10a10 10 0 0 0 10 10"></path>
<g class="terminal">
<path d="M803 1396h0"></path>
<path d="M865.5 1396h0"></path>
<rect x="803" y="1385" width="62.5" height="22" rx="10" ry="10"></rect>
<text x="834.25" y="1400">"OFF"</text>
</g>
<path d="M865.5 1396a10 10 0 0 0 10 -10v-10a10 10 0 0 1 10 -10"></path>
</g>
<path d="M936.5 1366h20"></path>
<path d="M763 1366a10 10 0 0 1 10 10v40a10 10 0 0 0 10 10"></path>
<g>
<path d="M783 1426h0"></path>
<path d="M936.5 1426h0"></path>
<g class="terminal">
<path d="M783 1426h0"></path>
<path d="M828.5 1426h0"></path>
<rect x="783" y="1415" width="45.5" height="22" rx="10" ry="10"></rect>
<text x="805.75" y="1430">"="</text>
</g>
<path d="M828.5 1426h10"></path>
<path d="M838.5 1426h10"></path>
<g class="non-terminal">
<path d="M848.5 1426h0"></path>
<path d="M936.5 1426h0"></path>
<rect x="848.5" y="1415" width="88" height="22"></rect>
<a xlink:href="#/abap/expression/FieldSub"><text x="892.5" y="1430">FieldSub</text>
</a>
</g>
</g>
<path d="M936.5 1426a10 10 0 0 0 10 -10v-40a10 10 0 0 1 10 -10"></path>
</g>
<path d="M956.5 1366h20"></path>
</g>
</g>
<path d="M1010.5 1366a10 10 0 0 0 10 -10v-1286"></path>
<path d="M626.5 70v1376a10 10 0 0 0 10 10"></path>
<g class="non-terminal">
<path d="M636.5 1456h0"></path>
<path d="M699 1456h311.5"></path>
<rect x="636.5" y="1445" width="62.5" height="22"></rect>
<a xlink:href="#/abap/expression/Color"><text x="667.75" y="1460">Color</text>
</a>
</g>
<path d="M1010.5 1456a10 10 0 0 0 10 -10v-1376"></path>
<path d="M626.5 70v1406a10 10 0 0 0 10 10"></path>
<g>
<path d="M636.5 1486h0"></path>
<path d="M832.5 1486h178"></path>
<g class="terminal">
<path d="M636.5 1486h0"></path>
<path d="M741.5 1486h0"></path>
<rect x="636.5" y="1475" width="105" height="22" rx="10" ry="10"></rect>
<text x="689" y="1490">"CURRENCY"</text>
</g>
<path d="M741.5 1486h10"></path>
<path d="M751.5 1486h10"></path>
<g class="non-terminal">
<path d="M761.5 1486h0"></path>
<path d="M832.5 1486h0"></path>
<rect x="761.5" y="1475" width="71" height="22"></rect>
<a xlink:href="#/abap/expression/Source"><text x="797" y="1490">Source</text>
</a>
</g>
</g>
<path d="M1010.5 1486a10 10 0 0 0 10 -10v-1406"></path>
<path d="M626.5 70v1436a10 10 0 0 0 10 10"></path>
<g class="terminal">
<path d="M636.5 1516h0"></path>
<path d="M733 1516h277.5"></path>
<rect x="636.5" y="1505" width="96.5" height="22" rx="10" ry="10"></rect>
<text x="684.75" y="1520">"NO-SIGN"</text>
</g>
<path d="M1010.5 1516a10 10 0 0 0 10 -10v-1436"></path>
<g class="diagram-text">
<title>take one or more branches, once each, in any order</title>
<path d="M 626.5 60 h -26 a 4 4 0 0 0 -4 4 v 12 a 4 4 0 0 0 4 4 h 26 z" class="diagram-text"></path>
<text x="611.5" y="74" class="diagram-text">1+</text>
<path d="M 1020.5 60 h 16 a 4 4 0 0 1 4 4 v 12 a 4 4 0 0 1 -4 4 h -16 z" class="diagram-text"></path>
<path d="M 1027.5 68 a 4 4 0 1 0 6 -1 m 2.75 -1 h -4 v 4 m 0 -3 h 2" style="stroke-width: 1.75"></path>
</g>
</g>
<path d="M1040.5 70h20"></path>
</g>
</g>
<path d="M1060.5 70a10 10 0 0 0 10 -10v-19a10 10 0 0 1 10 -10"></path>
</g>
</g>
</g>
<path d="M1080.5 31h10"></path>
<path d="M 1090.5 31 h 20 m -10 -10 v 20 m 10 -20 v 20"></path>
</g>
</svg>
