<svg xmlns="http://www.w3.org/2000/svg" xmlns:xlink="http://www.w3.org/1999/xlink" class="railroad-diagram" width="815.5" height="71" viewBox="0 0 815.5 71">
<defs>
<style type="text/css"><![CDATA[
path {
stroke-width: 3;
stroke: black;
fill: rgba(0,0,0,0);
}
text {
font: bold 14px monospace;
text-anchor: middle;
}
text.diagram-text {
font-size: 12px;
}
a {
fill: blue;
}
text.diagram-arrow {
font-size: 16px;
}
text.label {
text-anchor: start;
}
text.comment {
font: italic 12px monospace;
}
rect {
stroke-width: 3;
stroke: black;
fill: #BCBCBC;
}
path.diagram-text {
stroke-width: 3;
stroke: black;
fill: #BCBCBC;
cursor: help;
}
]]></style>
</defs>
<g transform="translate(.5 .5)">
<g>
<path d="M20 30v20m10 -20v20m-10 -10h20"></path>
</g>
<path d="M40 40h10"></path>
<g>
<path d="M50 40h0"></path>
<path d="M765.5 40h0"></path>
<g class="comment ">
<path d="M50 40h0"></path>
<path d="M193 40h0"></path>
<text x="121.5" y="45" class="comment">not langver=KeyUser</text>
</g>
<path d="M193 40h10"></path>
<path d="M203 40h10"></path>
<g>
<path d="M213 40h0"></path>
<path d="M765.5 40h0"></path>
<g class="terminal ">
<path d="M213 40h0"></path>
<path d="M292.5 40h0"></path>
<rect x="213" y="29" width="79.5" height="22" rx="10" ry="10"></rect>
<text x="252.75" y="44">"CLASS"</text>
</g>
<path d="M292.5 40h10"></path>
<path d="M302.5 40h10"></path>
<g class="non-terminal ">
<path d="M312.5 40h0"></path>
<path d="M409 40h0"></path>
<rect x="312.5" y="29" width="96.5" height="22"></rect>
<a xlink:href="#/abap/expression/ClassName"><text x="360.75" y="44">ClassName</text>
</a>
</g>
<path d="M409 40h10"></path>
<path d="M419 40h10"></path>
<g class="terminal ">
<path d="M429 40h0"></path>
<path d="M627.5 40h0"></path>
<rect x="429" y="29" width="198.5" height="22" rx="10" ry="10"></rect>
<text x="528.25" y="44">"DEFINITION DEFERRED"</text>
</g>
<path d="M627.5 40h10"></path>
<g>
<path d="M637.5 40h0"></path>
<path d="M765.5 40h0"></path>
<path d="M637.5 40a10 10 0 0 0 10 -10v0a10 10 0 0 1 10 -10"></path>
<g>
<path d="M657.5 20h88"></path>
</g>
<path d="M745.5 20a10 10 0 0 1 10 10v0a10 10 0 0 0 10 10"></path>
<path d="M637.5 40h20"></path>
<g class="terminal ">
<path d="M657.5 40h0"></path>
<path d="M745.5 40h0"></path>
<rect x="657.5" y="29" width="88" height="22" rx="10" ry="10"></rect>
<text x="701.5" y="44">"PUBLIC"</text>
</g>
<path d="M745.5 40h20"></path>
</g>
</g>
</g>
<path d="M765.5 40h10"></path>
<path d="M 775.5 40 h 20 m -10 -10 v 20 m 10 -20 v 20"></path>
</g>
</svg>
