<svg xmlns="http://www.w3.org/2000/svg" xmlns:xlink="http://www.w3.org/1999/xlink" class="railroad-diagram" width="1369.5" height="80" viewBox="0 0 1369.5 80">
<defs>
<style type="text/css"><![CDATA[
path {
stroke-width: 3;
stroke: black;
fill: rgba(0,0,0,0);
}
text {
font: bold 14px monospace;
text-anchor: middle;
}
text.diagram-text {
font-size: 12px;
}
a {
fill: blue;
}
text.diagram-arrow {
font-size: 16px;
}
text.label {
text-anchor: start;
}
text.comment {
font: italic 12px monospace;
}
rect {
stroke-width: 3;
stroke: black;
fill: #BCBCBC;
}
path.diagram-text {
stroke-width: 3;
stroke: black;
fill: #BCBCBC;
cursor: help;
}
]]></style>
</defs>
<g transform="translate(.5 .5)">
<g>
<path d="M20 30v20m10 -20v20m-10 -10h20"></path>
</g>
<path d="M40 40h10"></path>
<g>
<path d="M50 40h0"></path>
<path d="M1319.5 40h0"></path>
<g>
<path d="M50 40h0"></path>
<path d="M88 40h0"></path>
<text x="69" y="45" class="comment">v754</text>
</g>
<path d="M88 40h10"></path>
<path d="M98 40h10"></path>
<g>
<path d="M108 40h0"></path>
<path d="M1319.5 40h0"></path>
<g class="terminal">
<path d="M108 40h0"></path>
<path d="M272.5 40h0"></path>
<rect x="108" y="29" width="164.5" height="22" rx="10" ry="10"></rect>
<text x="190.25" y="44">"COMMIT ENTITIES"</text>
</g>
<path d="M272.5 40h10"></path>
<g>
<path d="M282.5 40h0"></path>
<path d="M512.5 40h0"></path>
<path d="M282.5 40a10 10 0 0 0 10 -10v0a10 10 0 0 1 10 -10"></path>
<g>
<path d="M302.5 20h190"></path>
</g>
<path d="M492.5 20a10 10 0 0 1 10 10v0a10 10 0 0 0 10 10"></path>
<path d="M282.5 40h20"></path>
<g class="terminal">
<path d="M302.5 40h0"></path>
<path d="M492.5 40h0"></path>
<rect x="302.5" y="29" width="190" height="22" rx="10" ry="10"></rect>
<text x="397.5" y="44">"IN SIMULATION MODE"</text>
</g>
<path d="M492.5 40h20"></path>
</g>
<g>
<path d="M512.5 40h0"></path>
<path d="M1319.5 40h0"></path>
<path d="M512.5 40a10 10 0 0 0 10 -10v0a10 10 0 0 1 10 -10"></path>
<g>
<path d="M532.5 20h767"></path>
</g>
<path d="M1299.5 20a10 10 0 0 1 10 10v0a10 10 0 0 0 10 10"></path>
<path d="M512.5 40h20"></path>
<g>
<path d="M532.5 40h0"></path>
<path d="M1299.5 40h0"></path>
<path d="M532.5 40h10"></path>
<g>
<path d="M542.5 40h0"></path>
<path d="M1289.5 40h0"></path>
<g class="terminal">
<path d="M542.5 40h0"></path>
<path d="M673 40h0"></path>
<rect x="542.5" y="29" width="130.5" height="22" rx="10" ry="10"></rect>
<text x="607.75" y="44">"RESPONSE OF"</text>
</g>
<path d="M673 40h10"></path>
<path d="M683 40h10"></path>
<g class="non-terminal">
<path d="M693 40h0"></path>
<path d="M874.5 40h0"></path>
<rect x="693" y="29" width="181.5" height="22"></rect>
<a xlink:href="#/abap/expression/NamespaceSimpleName"><text x="783.75" y="44">NamespaceSimpleName</text>
</a>
</g>
<path d="M874.5 40h10"></path>
<path d="M884.5 40h10"></path>
<g class="terminal">
<path d="M894.5 40h0"></path>
<path d="M982.5 40h0"></path>
<rect x="894.5" y="29" width="88" height="22" rx="10" ry="10"></rect>
<text x="938.5" y="44">"FAILED"</text>
</g>
<path d="M982.5 40h10"></path>
<path d="M992.5 40h10"></path>
<g class="non-terminal">
<path d="M1002.5 40h0"></path>
<path d="M1073.5 40h0"></path>
<rect x="1002.5" y="29" width="71" height="22"></rect>
<a xlink:href="#/abap/expression/Target"><text x="1038" y="44">Target</text>
</a>
</g>
<path d="M1073.5 40h10"></path>
<path d="M1083.5 40h10"></path>
<g class="terminal">
<path d="M1093.5 40h0"></path>
<path d="M1198.5 40h0"></path>
<rect x="1093.5" y="29" width="105" height="22" rx="10" ry="10"></rect>
<text x="1146" y="44">"REPORTED"</text>
</g>
<path d="M1198.5 40h10"></path>
<path d="M1208.5 40h10"></path>
<g class="non-terminal">
<path d="M1218.5 40h0"></path>
<path d="M1289.5 40h0"></path>
<rect x="1218.5" y="29" width="71" height="22"></rect>
<a xlink:href="#/abap/expression/Target"><text x="1254" y="44">Target</text>
</a>
</g>
</g>
<path d="M1289.5 40h10"></path>
<path d="M542.5 40a10 10 0 0 0 -10 10v0a10 10 0 0 0 10 10"></path>
<g>
<path d="M542.5 60h747"></path>
</g>
<path d="M1289.5 60a10 10 0 0 0 10 -10v0a10 10 0 0 0 -10 -10"></path>
</g>
<path d="M1299.5 40h20"></path>
</g>
</g>
</g>
<path d="M1319.5 40h10"></path>
<path d="M 1329.5 40 h 20 m -10 -10 v 20 m 10 -20 v 20"></path>
</g>
</svg>
