<svg xmlns="http://www.w3.org/2000/svg" xmlns:xlink="http://www.w3.org/1999/xlink" class="railroad-diagram" width="1284" height="230" viewBox="0 0 1284 230">
<defs>
<style type="text/css"><![CDATA[
path {
stroke-width: 3;
stroke: black;
fill: rgba(0,0,0,0);
}
text {
font: bold 14px monospace;
text-anchor: middle;
}
text.diagram-text {
font-size: 12px;
}
a {
fill: blue;
}
text.diagram-arrow {
font-size: 16px;
}
text.label {
text-anchor: start;
}
text.comment {
font: italic 12px monospace;
}
rect {
stroke-width: 3;
stroke: black;
fill: #BCBCBC;
}
path.diagram-text {
stroke-width: 3;
stroke: black;
fill: #BCBCBC;
cursor: help;
}
]]></style>
</defs>
<g transform="translate(.5 .5)">
<g>
<path d="M20 30v20m10 -20v20m-10 -10h20"></path>
</g>
<path d="M40 40h10"></path>
<g>
<path d="M50 40h0"></path>
<path d="M1234 40h0"></path>
<g class="comment ">
<path d="M50 40h0"></path>
<path d="M179 40h0"></path>
<text x="114.5" y="45" class="comment">not langver=Cloud</text>
</g>
<path d="M179 40h10"></path>
<path d="M189 40h10"></path>
<g>
<path d="M199 40h0"></path>
<path d="M1234 40h0"></path>
<g class="terminal ">
<path d="M199 40h0"></path>
<path d="M287 40h0"></path>
<rect x="199" y="29" width="88" height="22" rx="10" ry="10"></rect>
<text x="243" y="44">"REPORT"</text>
</g>
<path d="M287 40h10"></path>
<g>
<path d="M297 40h0"></path>
<path d="M442 40h0"></path>
<path d="M297 40a10 10 0 0 0 10 -10v0a10 10 0 0 1 10 -10"></path>
<g>
<path d="M317 20h105"></path>
</g>
<path d="M422 20a10 10 0 0 1 10 10v0a10 10 0 0 0 10 10"></path>
<path d="M297 40h20"></path>
<g class="non-terminal ">
<path d="M317 40h0"></path>
<path d="M422 40h0"></path>
<rect x="317" y="29" width="105" height="22"></rect>
<a xlink:href="#/abap/expression/ReportName"><text x="369.5" y="44">ReportName</text>
</a>
</g>
<path d="M422 40h20"></path>
</g>
<g>
<path d="M442 40h0"></path>
<path d="M1234 40h0"></path>
<path d="M442 40a10 10 0 0 0 10 -10v0a10 10 0 0 1 10 -10"></path>
<g>
<path d="M462 20h752"></path>
</g>
<path d="M1214 20a10 10 0 0 1 10 10v0a10 10 0 0 0 10 10"></path>
<path d="M442 40h20"></path>
<g>
<path d="M462 40h0"></path>
<path d="M1214 40h0"></path>
<path d="M492 40h10"></path>
<g class="terminal ">
<path d="M502 40h220.5"></path>
<path d="M963.5 40h220.5"></path>
<rect x="722.5" y="29" width="241" height="22" rx="10" ry="10"></rect>
<text x="843" y="44">"NO STANDARD PAGE HEADING"</text>
</g>
<path d="M1184 40h10"></path>
<path d="M492 40v20a10 10 0 0 0 10 10"></path>
<g>
<path d="M502 70h234.5"></path>
<path d="M949.5 70h234.5"></path>
<g class="terminal ">
<path d="M736.5 70h0"></path>
<path d="M850 70h0"></path>
<rect x="736.5" y="59" width="113.5" height="22" rx="10" ry="10"></rect>
<text x="793.25" y="74">"LINE-SIZE"</text>
</g>
<path d="M850 70h10"></path>
<path d="M860 70h10"></path>
<g class="non-terminal ">
<path d="M870 70h0"></path>
<path d="M949.5 70h0"></path>
<rect x="870" y="59" width="79.5" height="22"></rect>
<a xlink:href="#/abap/expression/Integer"><text x="909.75" y="74">Integer</text>
</a>
</g>
</g>
<path d="M1184 70a10 10 0 0 0 10 -10v-20"></path>
<path d="M492 40v59a10 10 0 0 0 10 10"></path>
<g>
<path d="M502 109h0"></path>
<path d="M1184 109h0"></path>
<g class="terminal ">
<path d="M502 109h0"></path>
<path d="M624 109h0"></path>
<rect x="502" y="98" width="122" height="22" rx="10" ry="10"></rect>
<text x="563" y="113">"LINE-COUNT"</text>
</g>
<path d="M624 109h10"></path>
<path d="M634 109h10"></path>
<g class="non-terminal ">
<path d="M644 109h0"></path>
<path d="M723.5 109h0"></path>
<rect x="644" y="98" width="79.5" height="22"></rect>
<a xlink:href="#/abap/expression/Integer"><text x="683.75" y="113">Integer</text>
</a>
</g>
<path d="M723.5 109h10"></path>
<g>
<path d="M733.5 109h0"></path>
<path d="M1184 109h0"></path>
<path d="M733.5 109a10 10 0 0 0 10 -10v0a10 10 0 0 1 10 -10"></path>
<g>
<path d="M753.5 89h410.5"></path>
</g>
<path d="M1164 89a10 10 0 0 1 10 10v0a10 10 0 0 0 10 10"></path>
<path d="M733.5 109h20"></path>
<g>
<path d="M753.5 109h0"></path>
<path d="M1164 109h0"></path>
<g class="terminal ">
<path d="M753.5 109h0"></path>
<path d="M875.5 109h0"></path>
<rect x="753.5" y="98" width="122" height="22" rx="10" ry="10"></rect>
<text x="814.5" y="113">!"ParenLeft"</text>
</g>
<path d="M875.5 109h10"></path>
<path d="M885.5 109h10"></path>
<g class="non-terminal ">
<path d="M895.5 109h0"></path>
<path d="M975 109h0"></path>
<rect x="895.5" y="98" width="79.5" height="22"></rect>
<a xlink:href="#/abap/expression/Integer"><text x="935.25" y="113">Integer</text>
</a>
</g>
<path d="M975 109h10"></path>
<g>
<path d="M985 109h0"></path>
<path d="M1164 109h0"></path>
<path d="M985 109h20"></path>
<g class="terminal ">
<path d="M1005 109h0"></path>
<path d="M1144 109h0"></path>
<rect x="1005" y="98" width="139" height="22" rx="10" ry="10"></rect>
<text x="1074.5" y="113">!"ParenRightW"</text>
</g>
<path d="M1144 109h20"></path>
<path d="M985 109a10 10 0 0 1 10 10v10a10 10 0 0 0 10 10"></path>
<g class="terminal ">
<path d="M1005 139h4.25"></path>
<path d="M1139.75 139h4.25"></path>
<rect x="1009.25" y="128" width="130.5" height="22" rx="10" ry="10"></rect>
<text x="1074.5" y="143">!"ParenRight"</text>
</g>
<path d="M1144 139a10 10 0 0 0 10 -10v-10a10 10 0 0 1 10 -10"></path>
</g>
</g>
<path d="M1164 109h20"></path>
</g>
</g>
<path d="M1184 109a10 10 0 0 0 10 -10v-59"></path>
<path d="M492 40v119a10 10 0 0 0 10 10"></path>
<g>
<path d="M502 169h221.75"></path>
<path d="M962.25 169h221.75"></path>
<g class="terminal ">
<path d="M723.75 169h0"></path>
<path d="M879.75 169h0"></path>
<rect x="723.75" y="158" width="156" height="22" rx="10" ry="10"></rect>
<text x="801.75" y="173">"USING DATABASE"</text>
</g>
<path d="M879.75 169h10"></path>
<path d="M889.75 169h10"></path>
<g class="non-terminal ">
<path d="M899.75 169h0"></path>
<path d="M962.25 169h0"></path>
<rect x="899.75" y="158" width="62.5" height="22"></rect>
<a xlink:href="#/abap/expression/Field"><text x="931" y="173">Field</text>
</a>
</g>
</g>
<path d="M1184 169a10 10 0 0 0 10 -10v-119"></path>
<path d="M492 40v149a10 10 0 0 0 10 10"></path>
<g>
<path d="M502 199h209"></path>
<path d="M975 199h209"></path>
<g class="terminal ">
<path d="M711 199h0"></path>
<path d="M833 199h0"></path>
<rect x="711" y="188" width="122" height="22" rx="10" ry="10"></rect>
<text x="772" y="203">"MESSAGE-ID"</text>
</g>
<path d="M833 199h10"></path>
<path d="M843 199h10"></path>
<g class="non-terminal ">
<path d="M853 199h0"></path>
<path d="M975 199h0"></path>
<rect x="853" y="188" width="122" height="22"></rect>
<a xlink:href="#/abap/expression/MessageClass"><text x="914" y="203">MessageClass</text>
</a>
</g>
</g>
<path d="M1184 199a10 10 0 0 0 10 -10v-149"></path>
<g class="diagram-text">
<title>take one or more branches, once each, in any order</title>
<path d="M 492 30 h -26 a 4 4 0 0 0 -4 4 v 12 a 4 4 0 0 0 4 4 h 26 z" class="diagram-text"></path>
<text x="477" y="44" class="diagram-text">1+</text>
<path d="M 1194 30 h 16 a 4 4 0 0 1 4 4 v 12 a 4 4 0 0 1 -4 4 h -16 z" class="diagram-text"></path>
<path d="M 1201 38 a 4 4 0 1 0 6 -1 m 2.75 -1 h -4 v 4 m 0 -3 h 2" style="stroke-width: 1.75"></path>
</g>
</g>
<path d="M1214 40h20"></path>
</g>
</g>
</g>
<path d="M1234 40h10"></path>
<path d="M 1244 40 h 20 m -10 -10 v 20 m 10 -20 v 20"></path>
</g>
</svg>
