<svg xmlns="http://www.w3.org/2000/svg" xmlns:xlink="http://www.w3.org/1999/xlink" class="railroad-diagram" width="495.5" height="92" viewBox="0 0 495.5 92">
<defs>
<style type="text/css"><![CDATA[
path {
stroke-width: 3;
stroke: black;
fill: rgba(0,0,0,0);
}
text {
font: bold 14px monospace;
text-anchor: middle;
}
text.diagram-text {
font-size: 12px;
}
a {
fill: blue;
}
text.diagram-arrow {
font-size: 16px;
}
text.label {
text-anchor: start;
}
text.comment {
font: italic 12px monospace;
}
rect {
stroke-width: 3;
stroke: black;
fill: #BCBCBC;
}
path.diagram-text {
stroke-width: 3;
stroke: black;
fill: #BCBCBC;
cursor: help;
}
]]></style>
</defs>
<g transform="translate(.5 .5)">
<g>
<path d="M20 21v20m10 -20v20m-10 -10h20"></path>
</g>
<path d="M40 31h10"></path>
<g>
<path d="M50 31h0"></path>
<path d="M445.5 31h0"></path>
<g>
<path d="M50 31h0"></path>
<path d="M123 31h0"></path>
<text x="86.5" y="36" class="comment">not Cloud</text>
</g>
<path d="M123 31h10"></path>
<path d="M133 31h10"></path>
<g>
<path d="M143 31h0"></path>
<path d="M445.5 31h0"></path>
<g class="terminal">
<path d="M143 31h0"></path>
<path d="M333 31h0"></path>
<rect x="143" y="20" width="190" height="22" rx="10" ry="10"></rect>
<text x="238" y="35">"SET EXTENDED CHECK"</text>
</g>
<path d="M333 31h10"></path>
<g>
<path d="M343 31h0"></path>
<path d="M445.5 31h0"></path>
<path d="M343 31h20"></path>
<g class="terminal">
<path d="M363 31h0"></path>
<path d="M425.5 31h0"></path>
<rect x="363" y="20" width="62.5" height="22" rx="10" ry="10"></rect>
<text x="394.25" y="35">"OFF"</text>
</g>
<path d="M425.5 31h20"></path>
<path d="M343 31a10 10 0 0 1 10 10v10a10 10 0 0 0 10 10"></path>
<g class="terminal">
<path d="M363 61h0"></path>
<path d="M417 61h8.5"></path>
<rect x="363" y="50" width="54" height="22" rx="10" ry="10"></rect>
<text x="390" y="65">"ON"</text>
</g>
<path d="M425.5 61a10 10 0 0 0 10 -10v-10a10 10 0 0 1 10 -10"></path>
</g>
</g>
</g>
<path d="M445.5 31h10"></path>
<path d="M 455.5 31 h 20 m -10 -10 v 20 m 10 -20 v 20"></path>
</g>
</svg>
