<svg xmlns="http://www.w3.org/2000/svg" xmlns:xlink="http://www.w3.org/1999/xlink" class="railroad-diagram" width="1104.5" height="281" viewBox="0 0 1104.5 281">
<defs>
<style type="text/css"><![CDATA[
path {
stroke-width: 3;
stroke: black;
fill: rgba(0,0,0,0);
}
text {
font: bold 14px monospace;
text-anchor: middle;
}
text.diagram-text {
font-size: 12px;
}
a {
fill: blue;
}
text.diagram-arrow {
font-size: 16px;
}
text.label {
text-anchor: start;
}
text.comment {
font: italic 12px monospace;
}
rect {
stroke-width: 3;
stroke: black;
fill: #BCBCBC;
}
path.diagram-text {
stroke-width: 3;
stroke: black;
fill: #BCBCBC;
cursor: help;
}
]]></style>
</defs>
<g transform="translate(.5 .5)">
<g>
<path d="M20 30v20m10 -20v20m-10 -10h20"></path>
</g>
<path d="M40 40h10"></path>
<g>
<path d="M50 40h0"></path>
<path d="M1054.5 40h0"></path>
<g class="comment ">
<path d="M50 40h0"></path>
<path d="M179 40h0"></path>
<text x="114.5" y="45" class="comment">not langver=Cloud</text>
</g>
<path d="M179 40h10"></path>
<path d="M189 40h10"></path>
<g>
<path d="M199 40h0"></path>
<path d="M1054.5 40h0"></path>
<g class="terminal ">
<path d="M199 40h0"></path>
<path d="M346.5 40h0"></path>
<rect x="199" y="29" width="147.5" height="22" rx="10" ry="10"></rect>
<text x="272.75" y="44">"INSERT REPORT"</text>
</g>
<path d="M346.5 40h10"></path>
<path d="M356.5 40h10"></path>
<g class="non-terminal ">
<path d="M366.5 40h0"></path>
<path d="M437.5 40h0"></path>
<rect x="366.5" y="29" width="71" height="22"></rect>
<a xlink:href="#/abap/expression/Source"><text x="402" y="44">Source</text>
</a>
</g>
<path d="M437.5 40h10"></path>
<path d="M447.5 40h10"></path>
<g class="terminal ">
<path d="M457.5 40h0"></path>
<path d="M528.5 40h0"></path>
<rect x="457.5" y="29" width="71" height="22" rx="10" ry="10"></rect>
<text x="493" y="44">"FROM"</text>
</g>
<path d="M528.5 40h10"></path>
<path d="M538.5 40h10"></path>
<g class="non-terminal ">
<path d="M548.5 40h0"></path>
<path d="M619.5 40h0"></path>
<rect x="548.5" y="29" width="71" height="22"></rect>
<a xlink:href="#/abap/expression/Source"><text x="584" y="44">Source</text>
</a>
</g>
<path d="M619.5 40h10"></path>
<g>
<path d="M629.5 40h0"></path>
<path d="M1054.5 40h0"></path>
<path d="M629.5 40a10 10 0 0 0 10 -10v0a10 10 0 0 1 10 -10"></path>
<g>
<path d="M649.5 20h385"></path>
</g>
<path d="M1034.5 20a10 10 0 0 1 10 10v0a10 10 0 0 0 10 10"></path>
<path d="M629.5 40h20"></path>
<g>
<path d="M649.5 40h0"></path>
<path d="M1034.5 40h0"></path>
<path d="M679.5 40h10"></path>
<g>
<path d="M689.5 40h72.25"></path>
<path d="M932.25 40h72.25"></path>
<g class="terminal ">
<path d="M761.75 40h0"></path>
<path d="M841.25 40h0"></path>
<rect x="761.75" y="29" width="79.5" height="22" rx="10" ry="10"></rect>
<text x="801.5" y="44">"STATE"</text>
</g>
<path d="M841.25 40h10"></path>
<path d="M851.25 40h10"></path>
<g class="non-terminal ">
<path d="M861.25 40h0"></path>
<path d="M932.25 40h0"></path>
<rect x="861.25" y="29" width="71" height="22"></rect>
<a xlink:href="#/abap/expression/Source"><text x="896.75" y="44">Source</text>
</a>
</g>
</g>
<path d="M1004.5 40h10"></path>
<path d="M679.5 40v20a10 10 0 0 0 10 10"></path>
<g>
<path d="M689.5 70h34"></path>
<path d="M970.5 70h34"></path>
<g class="terminal ">
<path d="M723.5 70h0"></path>
<path d="M879.5 70h0"></path>
<rect x="723.5" y="59" width="156" height="22" rx="10" ry="10"></rect>
<text x="801.5" y="74">"EXTENSION TYPE"</text>
</g>
<path d="M879.5 70h10"></path>
<path d="M889.5 70h10"></path>
<g class="non-terminal ">
<path d="M899.5 70h0"></path>
<path d="M970.5 70h0"></path>
<rect x="899.5" y="59" width="71" height="22"></rect>
<a xlink:href="#/abap/expression/Source"><text x="935" y="74">Source</text>
</a>
</g>
</g>
<path d="M1004.5 70a10 10 0 0 0 10 -10v-20"></path>
<path d="M679.5 40v50a10 10 0 0 0 10 10"></path>
<g>
<path d="M689.5 100h29.75"></path>
<path d="M974.75 100h29.75"></path>
<g class="terminal ">
<path d="M719.25 100h0"></path>
<path d="M883.75 100h0"></path>
<rect x="719.25" y="89" width="164.5" height="22" rx="10" ry="10"></rect>
<text x="801.5" y="104">"DIRECTORY ENTRY"</text>
</g>
<path d="M883.75 100h10"></path>
<path d="M893.75 100h10"></path>
<g class="non-terminal ">
<path d="M903.75 100h0"></path>
<path d="M974.75 100h0"></path>
<rect x="903.75" y="89" width="71" height="22"></rect>
<a xlink:href="#/abap/expression/Source"><text x="939.25" y="104">Source</text>
</a>
</g>
</g>
<path d="M1004.5 100a10 10 0 0 0 10 -10v-50"></path>
<path d="M679.5 40v80a10 10 0 0 0 10 10"></path>
<g>
<path d="M689.5 130h25.5"></path>
<path d="M979 130h25.5"></path>
<g class="terminal ">
<path d="M715 130h0"></path>
<path d="M888 130h0"></path>
<rect x="715" y="119" width="173" height="22" rx="10" ry="10"></rect>
<text x="801.5" y="134">"UNICODE ENABLING"</text>
</g>
<path d="M888 130h10"></path>
<path d="M898 130h10"></path>
<g class="non-terminal ">
<path d="M908 130h0"></path>
<path d="M979 130h0"></path>
<rect x="908" y="119" width="71" height="22"></rect>
<a xlink:href="#/abap/expression/Source"><text x="943.5" y="134">Source</text>
</a>
</g>
</g>
<path d="M1004.5 130a10 10 0 0 0 10 -10v-80"></path>
<path d="M679.5 40v110a10 10 0 0 0 10 10"></path>
<g>
<path d="M689.5 160h42.5"></path>
<path d="M962 160h42.5"></path>
<g class="terminal ">
<path d="M732 160h0"></path>
<path d="M871 160h0"></path>
<rect x="732" y="149" width="139" height="22" rx="10" ry="10"></rect>
<text x="801.5" y="164">"PROGRAM TYPE"</text>
</g>
<path d="M871 160h10"></path>
<path d="M881 160h10"></path>
<g class="non-terminal ">
<path d="M891 160h0"></path>
<path d="M962 160h0"></path>
<rect x="891" y="149" width="71" height="22"></rect>
<a xlink:href="#/abap/expression/Source"><text x="926.5" y="164">Source</text>
</a>
</g>
</g>
<path d="M1004.5 160a10 10 0 0 0 10 -10v-110"></path>
<path d="M679.5 40v140a10 10 0 0 0 10 10"></path>
<g>
<path d="M689.5 190h34.75"></path>
<path d="M969.75 190h34.75"></path>
<g class="comment ">
<path d="M724.25 190h0"></path>
<path d="M762.25 190h0"></path>
<text x="743.25" y="195" class="comment">7.62</text>
</g>
<path d="M762.25 190h10"></path>
<path d="M772.25 190h10"></path>
<g>
<path d="M782.25 190h0"></path>
<path d="M969.75 190h0"></path>
<g class="terminal ">
<path d="M782.25 190h0"></path>
<path d="M878.75 190h0"></path>
<rect x="782.25" y="179" width="96.5" height="22" rx="10" ry="10"></rect>
<text x="830.5" y="194">"VERSION"</text>
</g>
<path d="M878.75 190h10"></path>
<path d="M888.75 190h10"></path>
<g class="non-terminal ">
<path d="M898.75 190h0"></path>
<path d="M969.75 190h0"></path>
<rect x="898.75" y="179" width="71" height="22"></rect>
<a xlink:href="#/abap/expression/Source"><text x="934.25" y="194">Source</text>
</a>
</g>
</g>
</g>
<path d="M1004.5 190a10 10 0 0 0 10 -10v-140"></path>
<path d="M679.5 40v170a10 10 0 0 0 10 10"></path>
<g>
<path d="M689.5 220h0"></path>
<path d="M1004.5 220h0"></path>
<g class="terminal ">
<path d="M689.5 220h0"></path>
<path d="M913.5 220h0"></path>
<rect x="689.5" y="209" width="224" height="22" rx="10" ry="10"></rect>
<text x="801.5" y="224">"FIXED-POINT ARITHMETIC"</text>
</g>
<path d="M913.5 220h10"></path>
<path d="M923.5 220h10"></path>
<g class="non-terminal ">
<path d="M933.5 220h0"></path>
<path d="M1004.5 220h0"></path>
<rect x="933.5" y="209" width="71" height="22"></rect>
<a xlink:href="#/abap/expression/Source"><text x="969" y="224">Source</text>
</a>
</g>
</g>
<path d="M1004.5 220a10 10 0 0 0 10 -10v-170"></path>
<path d="M679.5 40v200a10 10 0 0 0 10 10"></path>
<g class="terminal ">
<path d="M689.5 250h41.25"></path>
<path d="M963.25 250h41.25"></path>
<rect x="730.75" y="239" width="232.5" height="22" rx="10" ry="10"></rect>
<text x="847" y="254">"KEEPING DIRECTORY ENTRY"</text>
</g>
<path d="M1004.5 250a10 10 0 0 0 10 -10v-200"></path>
<g class="diagram-text">
<title>take one or more branches, once each, in any order</title>
<path d="M 679.5 30 h -26 a 4 4 0 0 0 -4 4 v 12 a 4 4 0 0 0 4 4 h 26 z" class="diagram-text"></path>
<text x="664.5" y="44" class="diagram-text">1+</text>
<path d="M 1014.5 30 h 16 a 4 4 0 0 1 4 4 v 12 a 4 4 0 0 1 -4 4 h -16 z" class="diagram-text"></path>
<path d="M 1021.5 38 a 4 4 0 1 0 6 -1 m 2.75 -1 h -4 v 4 m 0 -3 h 2" style="stroke-width: 1.75"></path>
</g>
</g>
<path d="M1034.5 40h20"></path>
</g>
</g>
</g>
<path d="M1054.5 40h10"></path>
<path d="M 1064.5 40 h 20 m -10 -10 v 20 m 10 -20 v 20"></path>
</g>
</svg>
