<svg xmlns="http://www.w3.org/2000/svg" xmlns:xlink="http://www.w3.org/1999/xlink" class="railroad-diagram" width="1219.5" height="109" viewBox="0 0 1219.5 109">
<defs>
<style type="text/css"><![CDATA[
path {
stroke-width: 3;
stroke: black;
fill: rgba(0,0,0,0);
}
text {
font: bold 14px monospace;
text-anchor: middle;
}
text.diagram-text {
font-size: 12px;
}
a {
fill: blue;
}
text.diagram-arrow {
font-size: 16px;
}
text.label {
text-anchor: start;
}
text.comment {
font: italic 12px monospace;
}
rect {
stroke-width: 3;
stroke: black;
fill: #BCBCBC;
}
path.diagram-text {
stroke-width: 3;
stroke: black;
fill: #BCBCBC;
cursor: help;
}
]]></style>
</defs>
<g transform="translate(.5 .5)">
<g>
<path d="M20 30v20m10 -20v20m-10 -10h20"></path>
</g>
<path d="M40 40h10"></path>
<g>
<path d="M50 40h0"></path>
<path d="M1169.5 40h0"></path>
<g class="comment ">
<path d="M50 40h0"></path>
<path d="M193 40h0"></path>
<text x="121.5" y="45" class="comment">not langver=KeyUser</text>
</g>
<path d="M193 40h10"></path>
<path d="M203 40h10"></path>
<g>
<path d="M213 40h0"></path>
<path d="M1169.5 40h0"></path>
<g class="terminal ">
<path d="M213 40h0"></path>
<path d="M437 40h0"></path>
<rect x="213" y="29" width="224" height="22" rx="10" ry="10"></rect>
<text x="325" y="44">"AUTHORITY-CHECK OBJECT"</text>
</g>
<path d="M437 40h10"></path>
<path d="M447 40h10"></path>
<g class="non-terminal ">
<path d="M457 40h0"></path>
<path d="M528 40h0"></path>
<rect x="457" y="29" width="71" height="22"></rect>
<a xlink:href="#/abap/expression/Source"><text x="492.5" y="44">Source</text>
</a>
</g>
<path d="M528 40h10"></path>
<g>
<path d="M538 40h0"></path>
<path d="M774 40h0"></path>
<path d="M538 40a10 10 0 0 0 10 -10v0a10 10 0 0 1 10 -10"></path>
<g>
<path d="M558 20h196"></path>
</g>
<path d="M754 20a10 10 0 0 1 10 10v0a10 10 0 0 0 10 10"></path>
<path d="M538 40h20"></path>
<g>
<path d="M558 40h0"></path>
<path d="M754 40h0"></path>
<g class="terminal ">
<path d="M558 40h0"></path>
<path d="M663 40h0"></path>
<rect x="558" y="29" width="105" height="22" rx="10" ry="10"></rect>
<text x="610.5" y="44">"FOR USER"</text>
</g>
<path d="M663 40h10"></path>
<path d="M673 40h10"></path>
<g class="non-terminal ">
<path d="M683 40h0"></path>
<path d="M754 40h0"></path>
<rect x="683" y="29" width="71" height="22"></rect>
<a xlink:href="#/abap/expression/Source"><text x="718.5" y="44">Source</text>
</a>
</g>
</g>
<path d="M754 40h20"></path>
</g>
<path d="M774 40h10"></path>
<g>
<path d="M784 40h0"></path>
<path d="M1169.5 40h0"></path>
<path d="M784 40h10"></path>
<g>
<path d="M794 40h0"></path>
<path d="M1159.5 40h0"></path>
<g class="terminal ">
<path d="M794 40h0"></path>
<path d="M848 40h0"></path>
<rect x="794" y="29" width="54" height="22" rx="10" ry="10"></rect>
<text x="821" y="44">"ID"</text>
</g>
<path d="M848 40h10"></path>
<path d="M858 40h10"></path>
<g class="non-terminal ">
<path d="M868 40h0"></path>
<path d="M939 40h0"></path>
<rect x="868" y="29" width="71" height="22"></rect>
<a xlink:href="#/abap/expression/Source"><text x="903.5" y="44">Source</text>
</a>
</g>
<path d="M939 40h10"></path>
<g>
<path d="M949 40h0"></path>
<path d="M1159.5 40h0"></path>
<path d="M949 40h20"></path>
<g>
<path d="M969 40h0"></path>
<path d="M1139.5 40h0"></path>
<g class="terminal ">
<path d="M969 40h0"></path>
<path d="M1048.5 40h0"></path>
<rect x="969" y="29" width="79.5" height="22" rx="10" ry="10"></rect>
<text x="1008.75" y="44">"FIELD"</text>
</g>
<path d="M1048.5 40h10"></path>
<path d="M1058.5 40h10"></path>
<g class="non-terminal ">
<path d="M1068.5 40h0"></path>
<path d="M1139.5 40h0"></path>
<rect x="1068.5" y="29" width="71" height="22"></rect>
<a xlink:href="#/abap/expression/Source"><text x="1104" y="44">Source</text>
</a>
</g>
</g>
<path d="M1139.5 40h20"></path>
<path d="M949 40a10 10 0 0 1 10 10v10a10 10 0 0 0 10 10"></path>
<g class="terminal ">
<path d="M969 70h45.5"></path>
<path d="M1094 70h45.5"></path>
<rect x="1014.5" y="59" width="79.5" height="22" rx="10" ry="10"></rect>
<text x="1054.25" y="74">"DUMMY"</text>
</g>
<path d="M1139.5 70a10 10 0 0 0 10 -10v-10a10 10 0 0 1 10 -10"></path>
</g>
</g>
<path d="M1159.5 40h10"></path>
<path d="M794 40a10 10 0 0 0 -10 10v29a10 10 0 0 0 10 10"></path>
<g>
<path d="M794 89h365.5"></path>
</g>
<path d="M1159.5 89a10 10 0 0 0 10 -10v-29a10 10 0 0 0 -10 -10"></path>
</g>
</g>
</g>
<path d="M1169.5 40h10"></path>
<path d="M 1179.5 40 h 20 m -10 -10 v 20 m 10 -20 v 20"></path>
</g>
</svg>
