<svg xmlns="http://www.w3.org/2000/svg" xmlns:xlink="http://www.w3.org/1999/xlink" class="railroad-diagram" width="2682.5" height="508" viewBox="0 0 2682.5 508">
<defs>
<style type="text/css"><![CDATA[
path {
stroke-width: 3;
stroke: black;
fill: rgba(0,0,0,0);
}
text {
font: bold 14px monospace;
text-anchor: middle;
}
text.diagram-text {
font-size: 12px;
}
a {
fill: blue;
}
text.diagram-arrow {
font-size: 16px;
}
text.label {
text-anchor: start;
}
text.comment {
font: italic 12px monospace;
}
rect {
stroke-width: 3;
stroke: black;
fill: #BCBCBC;
}
path.diagram-text {
stroke-width: 3;
stroke: black;
fill: #BCBCBC;
cursor: help;
}
]]></style>
</defs>
<g transform="translate(.5 .5)">
<g>
<path d="M20 30v20m10 -20v20m-10 -10h20"></path>
</g>
<path d="M40 40h10"></path>
<g>
<path d="M50 40h0"></path>
<path d="M2632.5 40h0"></path>
<g class="comment ">
<path d="M50 40h0"></path>
<path d="M193 40h0"></path>
<text x="121.5" y="45" class="comment">not langver=KeyUser</text>
</g>
<path d="M193 40h10"></path>
<path d="M203 40h10"></path>
<g>
<path d="M213 40h0"></path>
<path d="M2632.5 40h0"></path>
<g class="terminal ">
<path d="M213 40h0"></path>
<path d="M343.5 40h0"></path>
<rect x="213" y="29" width="130.5" height="22" rx="10" ry="10"></rect>
<text x="278.25" y="44">"CREATE DATA"</text>
</g>
<path d="M343.5 40h10"></path>
<path d="M353.5 40h10"></path>
<g class="non-terminal ">
<path d="M363.5 40h0"></path>
<path d="M434.5 40h0"></path>
<rect x="363.5" y="29" width="71" height="22"></rect>
<a xlink:href="#/abap/expression/Target"><text x="399" y="44">Target</text>
</a>
</g>
<path d="M434.5 40h10"></path>
<g>
<path d="M444.5 40h0"></path>
<path d="M2632.5 40h0"></path>
<path d="M444.5 40a10 10 0 0 0 10 -10v0a10 10 0 0 1 10 -10"></path>
<g>
<path d="M464.5 20h2148"></path>
</g>
<path d="M2612.5 20a10 10 0 0 1 10 10v0a10 10 0 0 0 10 10"></path>
<path d="M444.5 40h20"></path>
<g>
<path d="M464.5 40h0"></path>
<path d="M2612.5 40h0"></path>
<path d="M464.5 40h20"></path>
<g>
<path d="M484.5 40h943.25"></path>
<path d="M1649.25 40h943.25"></path>
<g class="terminal ">
<path d="M1427.75 40h0"></path>
<path d="M1558.25 40h0"></path>
<rect x="1427.75" y="29" width="130.5" height="22" rx="10" ry="10"></rect>
<text x="1493" y="44">"TYPE HANDLE"</text>
</g>
<path d="M1558.25 40h10"></path>
<path d="M1568.25 40h10"></path>
<g class="non-terminal ">
<path d="M1578.25 40h0"></path>
<path d="M1649.25 40h0"></path>
<rect x="1578.25" y="29" width="71" height="22"></rect>
<a xlink:href="#/abap/expression/Source"><text x="1613.75" y="44">Source</text>
</a>
</g>
</g>
<path d="M2592.5 40h20"></path>
<path d="M464.5 40a10 10 0 0 1 10 10v27a10 10 0 0 0 10 10"></path>
<g>
<path d="M484.5 87h0"></path>
<path d="M2592.5 87h0"></path>
<g>
<path d="M484.5 87h0"></path>
<path d="M746 87h0"></path>
<path d="M484.5 87a10 10 0 0 0 10 -10v0a10 10 0 0 1 10 -10"></path>
<g>
<path d="M504.5 67h221.5"></path>
</g>
<path d="M726 67a10 10 0 0 1 10 10v0a10 10 0 0 0 10 10"></path>
<path d="M484.5 87h20"></path>
<g>
<path d="M504.5 87h0"></path>
<path d="M726 87h0"></path>
<g class="terminal ">
<path d="M504.5 87h0"></path>
<path d="M635 87h0"></path>
<rect x="504.5" y="76" width="130.5" height="22" rx="10" ry="10"></rect>
<text x="569.75" y="91">"AREA HANDLE"</text>
</g>
<path d="M635 87h10"></path>
<path d="M645 87h10"></path>
<g class="non-terminal ">
<path d="M655 87h0"></path>
<path d="M726 87h0"></path>
<rect x="655" y="76" width="71" height="22"></rect>
<a xlink:href="#/abap/expression/Source"><text x="690.5" y="91">Source</text>
</a>
</g>
</g>
<path d="M726 87h20"></path>
</g>
<path d="M746 87h10"></path>
<g>
<path d="M756 87h0"></path>
<path d="M2592.5 87h0"></path>
<g>
<path d="M756 87h0"></path>
<path d="M1188 87h0"></path>
<path d="M756 87h20"></path>
<g>
<path d="M776 87h0"></path>
<path d="M1168 87h0"></path>
<g>
<path d="M776 87h0"></path>
<path d="M1040 87h0"></path>
<path d="M776 87h20"></path>
<g class="terminal ">
<path d="M796 87h76.5"></path>
<path d="M943.5 87h76.5"></path>
<rect x="872.5" y="76" width="71" height="22" rx="10" ry="10"></rect>
<text x="908" y="91">"TYPE"</text>
</g>
<path d="M1020 87h20"></path>
<path d="M776 87a10 10 0 0 1 10 10v10a10 10 0 0 0 10 10"></path>
<g class="terminal ">
<path d="M796 117h46.75"></path>
<path d="M973.25 117h46.75"></path>
<rect x="842.75" y="106" width="130.5" height="22" rx="10" ry="10"></rect>
<text x="908" y="121">"TYPE REF TO"</text>
</g>
<path d="M1020 117a10 10 0 0 0 10 -10v-10a10 10 0 0 1 10 -10"></path>
<path d="M776 87a10 10 0 0 1 10 10v40a10 10 0 0 0 10 10"></path>
<g class="terminal ">
<path d="M796 147h38.25"></path>
<path d="M981.75 147h38.25"></path>
<rect x="834.25" y="136" width="147.5" height="22" rx="10" ry="10"></rect>
<text x="908" y="151">"TYPE TABLE OF"</text>
</g>
<path d="M1020 147a10 10 0 0 0 10 -10v-40a10 10 0 0 1 10 -10"></path>
<path d="M776 87a10 10 0 0 1 10 10v70a10 10 0 0 0 10 10"></path>
<g class="terminal ">
<path d="M796 177h8.5"></path>
<path d="M1011.5 177h8.5"></path>
<rect x="804.5" y="166" width="207" height="22" rx="10" ry="10"></rect>
<text x="908" y="181">"TYPE TABLE OF REF TO"</text>
</g>
<path d="M1020 177a10 10 0 0 0 10 -10v-70a10 10 0 0 1 10 -10"></path>
<path d="M776 87a10 10 0 0 1 10 10v100a10 10 0 0 0 10 10"></path>
<g class="terminal ">
<path d="M796 207h8.5"></path>
<path d="M1011.5 207h8.5"></path>
<rect x="804.5" y="196" width="207" height="22" rx="10" ry="10"></rect>
<text x="908" y="211">"TYPE SORTED TABLE OF"</text>
</g>
<path d="M1020 207a10 10 0 0 0 10 -10v-100a10 10 0 0 1 10 -10"></path>
<path d="M776 87a10 10 0 0 1 10 10v130a10 10 0 0 0 10 10"></path>
<g class="terminal ">
<path d="M796 237h8.5"></path>
<path d="M1011.5 237h8.5"></path>
<rect x="804.5" y="226" width="207" height="22" rx="10" ry="10"></rect>
<text x="908" y="241">"TYPE HASHED TABLE OF"</text>
</g>
<path d="M1020 237a10 10 0 0 0 10 -10v-130a10 10 0 0 1 10 -10"></path>
<path d="M776 87a10 10 0 0 1 10 10v160a10 10 0 0 0 10 10"></path>
<g class="terminal ">
<path d="M796 267h0"></path>
<path d="M1020 267h0"></path>
<rect x="796" y="256" width="224" height="22" rx="10" ry="10"></rect>
<text x="908" y="271">"TYPE STANDARD TABLE OF"</text>
</g>
<path d="M1020 267a10 10 0 0 0 10 -10v-160a10 10 0 0 1 10 -10"></path>
<path d="M776 87a10 10 0 0 1 10 10v190a10 10 0 0 0 10 10"></path>
<g class="terminal ">
<path d="M796 297h42.5"></path>
<path d="M977.5 297h42.5"></path>
<rect x="838.5" y="286" width="139" height="22" rx="10" ry="10"></rect>
<text x="908" y="301">"TYPE LINE OF"</text>
</g>
<path d="M1020 297a10 10 0 0 0 10 -10v-190a10 10 0 0 1 10 -10"></path>
</g>
<g>
<path d="M1040 87h0"></path>
<path d="M1168 87h0"></path>
<path d="M1040 87h20"></path>
<g class="non-terminal ">
<path d="M1060 87h0"></path>
<path d="M1148 87h0"></path>
<rect x="1060" y="76" width="88" height="22"></rect>
<a xlink:href="#/abap/expression/TypeName"><text x="1104" y="91">TypeName</text>
</a>
</g>
<path d="M1148 87h20"></path>
<path d="M1040 87a10 10 0 0 1 10 10v10a10 10 0 0 0 10 10"></path>
<g class="non-terminal ">
<path d="M1060 117h4.25"></path>
<path d="M1143.75 117h4.25"></path>
<rect x="1064.25" y="106" width="79.5" height="22"></rect>
<a xlink:href="#/abap/expression/Dynamic"><text x="1104" y="121">Dynamic</text>
</a>
</g>
<path d="M1148 117a10 10 0 0 0 10 -10v-10a10 10 0 0 1 10 -10"></path>
</g>
</g>
<path d="M1168 87h20"></path>
<path d="M756 87a10 10 0 0 1 10 10v220a10 10 0 0 0 10 10"></path>
<g>
<path d="M776 327h4.25"></path>
<path d="M1163.75 327h4.25"></path>
<g>
<path d="M780.25 327h0"></path>
<path d="M1044.25 327h0"></path>
<path d="M780.25 327h20"></path>
<g class="terminal ">
<path d="M800.25 327h76.5"></path>
<path d="M947.75 327h76.5"></path>
<rect x="876.75" y="316" width="71" height="22" rx="10" ry="10"></rect>
<text x="912.25" y="331">"LIKE"</text>
</g>
<path d="M1024.25 327h20"></path>
<path d="M780.25 327a10 10 0 0 1 10 10v10a10 10 0 0 0 10 10"></path>
<g class="terminal ">
<path d="M800.25 357h8.5"></path>
<path d="M1015.75 357h8.5"></path>
<rect x="808.75" y="346" width="207" height="22" rx="10" ry="10"></rect>
<text x="912.25" y="361">"LIKE HASHED TABLE OF"</text>
</g>
<path d="M1024.25 357a10 10 0 0 0 10 -10v-10a10 10 0 0 1 10 -10"></path>
<path d="M780.25 327a10 10 0 0 1 10 10v40a10 10 0 0 0 10 10"></path>
<g class="terminal ">
<path d="M800.25 387h42.5"></path>
<path d="M981.75 387h42.5"></path>
<rect x="842.75" y="376" width="139" height="22" rx="10" ry="10"></rect>
<text x="912.25" y="391">"LIKE LINE OF"</text>
</g>
<path d="M1024.25 387a10 10 0 0 0 10 -10v-40a10 10 0 0 1 10 -10"></path>
<path d="M780.25 327a10 10 0 0 1 10 10v70a10 10 0 0 0 10 10"></path>
<g class="terminal ">
<path d="M800.25 417h0"></path>
<path d="M1024.25 417h0"></path>
<rect x="800.25" y="406" width="224" height="22" rx="10" ry="10"></rect>
<text x="912.25" y="421">"LIKE STANDARD TABLE OF"</text>
</g>
<path d="M1024.25 417a10 10 0 0 0 10 -10v-70a10 10 0 0 1 10 -10"></path>
<path d="M780.25 327a10 10 0 0 1 10 10v100a10 10 0 0 0 10 10"></path>
<g class="terminal ">
<path d="M800.25 447h8.5"></path>
<path d="M1015.75 447h8.5"></path>
<rect x="808.75" y="436" width="207" height="22" rx="10" ry="10"></rect>
<text x="912.25" y="451">"LIKE SORTED TABLE OF"</text>
</g>
<path d="M1024.25 447a10 10 0 0 0 10 -10v-100a10 10 0 0 1 10 -10"></path>
<path d="M780.25 327a10 10 0 0 1 10 10v130a10 10 0 0 0 10 10"></path>
<g class="terminal ">
<path d="M800.25 477h38.25"></path>
<path d="M986 477h38.25"></path>
<rect x="838.5" y="466" width="147.5" height="22" rx="10" ry="10"></rect>
<text x="912.25" y="481">"LIKE TABLE OF"</text>
</g>
<path d="M1024.25 477a10 10 0 0 0 10 -10v-130a10 10 0 0 1 10 -10"></path>
</g>
<g>
<path d="M1044.25 327h0"></path>
<path d="M1163.75 327h0"></path>
<path d="M1044.25 327h20"></path>
<g class="non-terminal ">
<path d="M1064.25 327h4.25"></path>
<path d="M1139.5 327h4.25"></path>
<rect x="1068.5" y="316" width="71" height="22"></rect>
<a xlink:href="#/abap/expression/Source"><text x="1104" y="331">Source</text>
</a>
</g>
<path d="M1143.75 327h20"></path>
<path d="M1044.25 327a10 10 0 0 1 10 10v10a10 10 0 0 0 10 10"></path>
<g class="non-terminal ">
<path d="M1064.25 357h0"></path>
<path d="M1143.75 357h0"></path>
<rect x="1064.25" y="346" width="79.5" height="22"></rect>
<a xlink:href="#/abap/expression/Dynamic"><text x="1104" y="361">Dynamic</text>
</a>
</g>
<path d="M1143.75 357a10 10 0 0 0 10 -10v-10a10 10 0 0 1 10 -10"></path>
</g>
</g>
<path d="M1168 327a10 10 0 0 0 10 -10v-220a10 10 0 0 1 10 -10"></path>
</g>
<g>
<path d="M1188 87h0"></path>
<path d="M1867.5 87h0"></path>
<path d="M1188 87a10 10 0 0 0 10 -10v-8a10 10 0 0 1 10 -10"></path>
<g>
<path d="M1208 59h639.5"></path>
</g>
<path d="M1847.5 59a10 10 0 0 1 10 10v8a10 10 0 0 0 10 10"></path>
<path d="M1188 87h20"></path>
<g>
<path d="M1208 87h0"></path>
<path d="M1847.5 87h0"></path>
<g class="terminal ">
<path d="M1208 87h0"></path>
<path d="M1279 87h0"></path>
<rect x="1208" y="76" width="71" height="22" rx="10" ry="10"></rect>
<text x="1243.5" y="91">"WITH"</text>
</g>
<path d="M1279 87h10"></path>
<g>
<path d="M1289 87h0"></path>
<path d="M1847.5 87h0"></path>
<path d="M1289 87h20"></path>
<g>
<path d="M1309 87h0"></path>
<path d="M1827.5 87h0"></path>
<g>
<path d="M1309 87h0"></path>
<path d="M1511 87h0"></path>
<path d="M1309 87a10 10 0 0 0 10 -10v0a10 10 0 0 1 10 -10"></path>
<g>
<path d="M1329 67h162"></path>
</g>
<path d="M1491 67a10 10 0 0 1 10 10v0a10 10 0 0 0 10 10"></path>
<path d="M1309 87h20"></path>
<g>
<path d="M1329 87h0"></path>
<path d="M1491 87h0"></path>
<path d="M1329 87h20"></path>
<g class="terminal ">
<path d="M1349 87h17"></path>
<path d="M1454 87h17"></path>
<rect x="1366" y="76" width="88" height="22" rx="10" ry="10"></rect>
<text x="1410" y="91">"UNIQUE"</text>
</g>
<path d="M1471 87h20"></path>
<path d="M1329 87a10 10 0 0 1 10 10v10a10 10 0 0 0 10 10"></path>
<g class="terminal ">
<path d="M1349 117h0"></path>
<path d="M1471 117h0"></path>
<rect x="1349" y="106" width="122" height="22" rx="10" ry="10"></rect>
<text x="1410" y="121">"NON-UNIQUE"</text>
</g>
<path d="M1471 117a10 10 0 0 0 10 -10v-10a10 10 0 0 1 10 -10"></path>
</g>
<path d="M1491 87h20"></path>
</g>
<g>
<path d="M1511 87h0"></path>
<path d="M1827.5 87h0"></path>
<path d="M1511 87h20"></path>
<g class="terminal ">
<path d="M1531 87h73"></path>
<path d="M1734.5 87h73"></path>
<rect x="1604" y="76" width="130.5" height="22" rx="10" ry="10"></rect>
<text x="1669.25" y="91">"DEFAULT KEY"</text>
</g>
<path d="M1807.5 87h20"></path>
<path d="M1511 87a10 10 0 0 1 10 10v10a10 10 0 0 0 10 10"></path>
<g>
<path d="M1531 117h0"></path>
<path d="M1807.5 117h0"></path>
<g class="comment ">
<path d="M1531 117h0"></path>
<path d="M1674 117h0"></path>
<text x="1602.5" y="122" class="comment">740SP02 or OpenABAP</text>
</g>
<path d="M1674 117h10"></path>
<path d="M1684 117h10"></path>
<g class="terminal ">
<path d="M1694 117h0"></path>
<path d="M1807.5 117h0"></path>
<rect x="1694" y="106" width="113.5" height="22" rx="10" ry="10"></rect>
<text x="1750.75" y="121">"EMPTY KEY"</text>
</g>
</g>
<path d="M1807.5 117a10 10 0 0 0 10 -10v-10a10 10 0 0 1 10 -10"></path>
</g>
</g>
<path d="M1827.5 87h20"></path>
<path d="M1289 87a10 10 0 0 1 10 10v49a10 10 0 0 0 10 10"></path>
<g>
<path d="M1309 156h55.75"></path>
<path d="M1771.75 156h55.75"></path>
<g>
<path d="M1364.75 156h0"></path>
<path d="M1566.75 156h0"></path>
<path d="M1364.75 156a10 10 0 0 0 10 -10v0a10 10 0 0 1 10 -10"></path>
<g>
<path d="M1384.75 136h162"></path>
</g>
<path d="M1546.75 136a10 10 0 0 1 10 10v0a10 10 0 0 0 10 10"></path>
<path d="M1364.75 156h20"></path>
<g>
<path d="M1384.75 156h0"></path>
<path d="M1546.75 156h0"></path>
<path d="M1384.75 156h20"></path>
<g class="terminal ">
<path d="M1404.75 156h17"></path>
<path d="M1509.75 156h17"></path>
<rect x="1421.75" y="145" width="88" height="22" rx="10" ry="10"></rect>
<text x="1465.75" y="160">"UNIQUE"</text>
</g>
<path d="M1526.75 156h20"></path>
<path d="M1384.75 156a10 10 0 0 1 10 10v10a10 10 0 0 0 10 10"></path>
<g class="terminal ">
<path d="M1404.75 186h0"></path>
<path d="M1526.75 186h0"></path>
<rect x="1404.75" y="175" width="122" height="22" rx="10" ry="10"></rect>
<text x="1465.75" y="190">"NON-UNIQUE"</text>
</g>
<path d="M1526.75 186a10 10 0 0 0 10 -10v-10a10 10 0 0 1 10 -10"></path>
</g>
<path d="M1546.75 156h20"></path>
</g>
<path d="M1566.75 156h10"></path>
<g class="terminal ">
<path d="M1576.75 156h0"></path>
<path d="M1639.25 156h0"></path>
<rect x="1576.75" y="145" width="62.5" height="22" rx="10" ry="10"></rect>
<text x="1608" y="160">"KEY"</text>
</g>
<path d="M1639.25 156h10"></path>
<g>
<path d="M1649.25 156h0"></path>
<path d="M1771.75 156h0"></path>
<path d="M1649.25 156h20"></path>
<g>
<path d="M1669.25 156h0"></path>
<path d="M1751.75 156h0"></path>
<path d="M1669.25 156h10"></path>
<g class="non-terminal ">
<path d="M1679.25 156h0"></path>
<path d="M1741.75 156h0"></path>
<rect x="1679.25" y="145" width="62.5" height="22"></rect>
<a xlink:href="#/abap/expression/Field"><text x="1710.5" y="160">Field</text>
</a>
</g>
<path d="M1741.75 156h10"></path>
<path d="M1679.25 156a10 10 0 0 0 -10 10v0a10 10 0 0 0 10 10"></path>
<g>
<path d="M1679.25 176h62.5"></path>
</g>
<path d="M1741.75 176a10 10 0 0 0 10 -10v0a10 10 0 0 0 -10 -10"></path>
</g>
<path d="M1751.75 156h20"></path>
<path d="M1649.25 156a10 10 0 0 1 10 10v19a10 10 0 0 0 10 10"></path>
<g class="non-terminal ">
<path d="M1669.25 195h1.5"></path>
<path d="M1750.25 195h1.5"></path>
<rect x="1670.75" y="184" width="79.5" height="22"></rect>
<a xlink:href="#/abap/expression/Dynamic"><text x="1710.5" y="199">Dynamic</text>
</a>
</g>
<path d="M1751.75 195a10 10 0 0 0 10 -10v-19a10 10 0 0 1 10 -10"></path>
</g>
</g>
<path d="M1827.5 156a10 10 0 0 0 10 -10v-49a10 10 0 0 1 10 -10"></path>
</g>
</g>
<path d="M1847.5 87h20"></path>
</g>
<g>
<path d="M1867.5 87h0"></path>
<path d="M2137.5 87h0"></path>
<path d="M1867.5 87a10 10 0 0 0 10 -10v0a10 10 0 0 1 10 -10"></path>
<g>
<path d="M1887.5 67h230"></path>
</g>
<path d="M2117.5 67a10 10 0 0 1 10 10v0a10 10 0 0 0 10 10"></path>
<path d="M1867.5 87h20"></path>
<g>
<path d="M1887.5 87h0"></path>
<path d="M2117.5 87h0"></path>
<g class="terminal ">
<path d="M1887.5 87h0"></path>
<path d="M2026.5 87h0"></path>
<rect x="1887.5" y="76" width="139" height="22" rx="10" ry="10"></rect>
<text x="1957" y="91">"INITIAL SIZE"</text>
</g>
<path d="M2026.5 87h10"></path>
<path d="M2036.5 87h10"></path>
<g class="non-terminal ">
<path d="M2046.5 87h0"></path>
<path d="M2117.5 87h0"></path>
<rect x="2046.5" y="76" width="71" height="22"></rect>
<a xlink:href="#/abap/expression/Source"><text x="2082" y="91">Source</text>
</a>
</g>
</g>
<path d="M2117.5 87h20"></path>
</g>
<g>
<path d="M2137.5 87h0"></path>
<path d="M2356.5 87h0"></path>
<path d="M2137.5 87a10 10 0 0 0 10 -10v0a10 10 0 0 1 10 -10"></path>
<g>
<path d="M2157.5 67h179"></path>
</g>
<path d="M2336.5 67a10 10 0 0 1 10 10v0a10 10 0 0 0 10 10"></path>
<path d="M2137.5 87h20"></path>
<g>
<path d="M2157.5 87h0"></path>
<path d="M2336.5 87h0"></path>
<g class="terminal ">
<path d="M2157.5 87h0"></path>
<path d="M2245.5 87h0"></path>
<rect x="2157.5" y="76" width="88" height="22" rx="10" ry="10"></rect>
<text x="2201.5" y="91">"LENGTH"</text>
</g>
<path d="M2245.5 87h10"></path>
<path d="M2255.5 87h10"></path>
<g class="non-terminal ">
<path d="M2265.5 87h0"></path>
<path d="M2336.5 87h0"></path>
<rect x="2265.5" y="76" width="71" height="22"></rect>
<a xlink:href="#/abap/expression/Source"><text x="2301" y="91">Source</text>
</a>
</g>
</g>
<path d="M2336.5 87h20"></path>
</g>
<g>
<path d="M2356.5 87h0"></path>
<path d="M2592.5 87h0"></path>
<path d="M2356.5 87a10 10 0 0 0 10 -10v0a10 10 0 0 1 10 -10"></path>
<g>
<path d="M2376.5 67h196"></path>
</g>
<path d="M2572.5 67a10 10 0 0 1 10 10v0a10 10 0 0 0 10 10"></path>
<path d="M2356.5 87h20"></path>
<g>
<path d="M2376.5 87h0"></path>
<path d="M2572.5 87h0"></path>
<g class="terminal ">
<path d="M2376.5 87h0"></path>
<path d="M2481.5 87h0"></path>
<rect x="2376.5" y="76" width="105" height="22" rx="10" ry="10"></rect>
<text x="2429" y="91">"DECIMALS"</text>
</g>
<path d="M2481.5 87h10"></path>
<path d="M2491.5 87h10"></path>
<g class="non-terminal ">
<path d="M2501.5 87h0"></path>
<path d="M2572.5 87h0"></path>
<rect x="2501.5" y="76" width="71" height="22"></rect>
<a xlink:href="#/abap/expression/Source"><text x="2537" y="91">Source</text>
</a>
</g>
</g>
<path d="M2572.5 87h20"></path>
</g>
</g>
</g>
<path d="M2592.5 87a10 10 0 0 0 10 -10v-27a10 10 0 0 1 10 -10"></path>
</g>
<path d="M2612.5 40h20"></path>
</g>
</g>
</g>
<path d="M2632.5 40h10"></path>
<path d="M 2642.5 40 h 20 m -10 -10 v 20 m 10 -20 v 20"></path>
</g>
</svg>
