<svg xmlns="http://www.w3.org/2000/svg" xmlns:xlink="http://www.w3.org/1999/xlink" class="railroad-diagram" width="803.5" height="101" viewBox="0 0 803.5 101">
<defs>
<style type="text/css"><![CDATA[
path {
stroke-width: 3;
stroke: black;
fill: rgba(0,0,0,0);
}
text {
font: bold 14px monospace;
text-anchor: middle;
}
text.diagram-text {
font-size: 12px;
}
a {
fill: blue;
}
text.diagram-arrow {
font-size: 16px;
}
text.label {
text-anchor: start;
}
text.comment {
font: italic 12px monospace;
}
rect {
stroke-width: 3;
stroke: black;
fill: #BCBCBC;
}
path.diagram-text {
stroke-width: 3;
stroke: black;
fill: #BCBCBC;
cursor: help;
}
]]></style>
</defs>
<g transform="translate(.5 .5)">
<g>
<path d="M20 30v20m10 -20v20m-10 -10h20"></path>
</g>
<path d="M40 40h10"></path>
<g>
<path d="M50 40h0"></path>
<path d="M753.5 40h0"></path>
<g class="comment ">
<path d="M50 40h0"></path>
<path d="M179 40h0"></path>
<text x="114.5" y="45" class="comment">not langver=Cloud</text>
</g>
<path d="M179 40h10"></path>
<path d="M189 40h10"></path>
<g>
<path d="M199 40h0"></path>
<path d="M753.5 40h0"></path>
<g class="terminal ">
<path d="M199 40h0"></path>
<path d="M329.5 40h0"></path>
<rect x="199" y="29" width="130.5" height="22" rx="10" ry="10"></rect>
<text x="264.25" y="44">"GET DATASET"</text>
</g>
<path d="M329.5 40h10"></path>
<path d="M339.5 40h10"></path>
<g class="non-terminal ">
<path d="M349.5 40h0"></path>
<path d="M420.5 40h0"></path>
<rect x="349.5" y="29" width="71" height="22"></rect>
<a xlink:href="#/abap/expression/Target"><text x="385" y="44">Target</text>
</a>
</g>
<path d="M420.5 40h10"></path>
<g>
<path d="M430.5 40h0"></path>
<path d="M753.5 40h0"></path>
<path d="M430.5 40a10 10 0 0 0 10 -10v0a10 10 0 0 1 10 -10"></path>
<g>
<path d="M450.5 20h283"></path>
</g>
<path d="M733.5 20a10 10 0 0 1 10 10v0a10 10 0 0 0 10 10"></path>
<path d="M430.5 40h20"></path>
<g>
<path d="M450.5 40h0"></path>
<path d="M733.5 40h0"></path>
<path d="M480.5 40h10"></path>
<g>
<path d="M490.5 40h8.5"></path>
<path d="M695 40h8.5"></path>
<g class="terminal ">
<path d="M499 40h0"></path>
<path d="M604 40h0"></path>
<rect x="499" y="29" width="105" height="22" rx="10" ry="10"></rect>
<text x="551.5" y="44">"POSITION"</text>
</g>
<path d="M604 40h10"></path>
<path d="M614 40h10"></path>
<g class="non-terminal ">
<path d="M624 40h0"></path>
<path d="M695 40h0"></path>
<rect x="624" y="29" width="71" height="22"></rect>
<a xlink:href="#/abap/expression/Target"><text x="659.5" y="44">Target</text>
</a>
</g>
</g>
<path d="M703.5 40h10"></path>
<path d="M480.5 40v20a10 10 0 0 0 10 10"></path>
<g>
<path d="M490.5 70h0"></path>
<path d="M703.5 70h0"></path>
<g class="terminal ">
<path d="M490.5 70h0"></path>
<path d="M612.5 70h0"></path>
<rect x="490.5" y="59" width="122" height="22" rx="10" ry="10"></rect>
<text x="551.5" y="74">"ATTRIBUTES"</text>
</g>
<path d="M612.5 70h10"></path>
<path d="M622.5 70h10"></path>
<g class="non-terminal ">
<path d="M632.5 70h0"></path>
<path d="M703.5 70h0"></path>
<rect x="632.5" y="59" width="71" height="22"></rect>
<a xlink:href="#/abap/expression/Target"><text x="668" y="74">Target</text>
</a>
</g>
</g>
<path d="M703.5 70a10 10 0 0 0 10 -10v-20"></path>
<g class="diagram-text">
<title>take one or more branches, once each, in any order</title>
<path d="M 480.5 30 h -26 a 4 4 0 0 0 -4 4 v 12 a 4 4 0 0 0 4 4 h 26 z" class="diagram-text"></path>
<text x="465.5" y="44" class="diagram-text">1+</text>
<path d="M 713.5 30 h 16 a 4 4 0 0 1 4 4 v 12 a 4 4 0 0 1 -4 4 h -16 z" class="diagram-text"></path>
<path d="M 720.5 38 a 4 4 0 1 0 6 -1 m 2.75 -1 h -4 v 4 m 0 -3 h 2" style="stroke-width: 1.75"></path>
</g>
</g>
<path d="M733.5 40h20"></path>
</g>
</g>
</g>
<path d="M753.5 40h10"></path>
<path d="M 763.5 40 h 20 m -10 -10 v 20 m 10 -20 v 20"></path>
</g>
</svg>
