<svg xmlns="http://www.w3.org/2000/svg" xmlns:xlink="http://www.w3.org/1999/xlink" class="railroad-diagram" width="1442.5" height="71" viewBox="0 0 1442.5 71">
<defs>
<style type="text/css"><![CDATA[
path {
stroke-width: 3;
stroke: black;
fill: rgba(0,0,0,0);
}
text {
font: bold 14px monospace;
text-anchor: middle;
}
text.diagram-text {
font-size: 12px;
}
a {
fill: blue;
}
text.diagram-arrow {
font-size: 16px;
}
text.label {
text-anchor: start;
}
text.comment {
font: italic 12px monospace;
}
rect {
stroke-width: 3;
stroke: black;
fill: #BCBCBC;
}
path.diagram-text {
stroke-width: 3;
stroke: black;
fill: #BCBCBC;
cursor: help;
}
]]></style>
</defs>
<g transform="translate(.5 .5)">
<g>
<path d="M20 30v20m10 -20v20m-10 -10h20"></path>
</g>
<path d="M40 40h10"></path>
<g>
<path d="M50 40h0"></path>
<path d="M1392.5 40h0"></path>
<g>
<path d="M50 40h0"></path>
<path d="M123 40h0"></path>
<text x="86.5" y="45" class="comment">not Cloud</text>
</g>
<path d="M123 40h10"></path>
<path d="M133 40h10"></path>
<g>
<path d="M143 40h0"></path>
<path d="M1392.5 40h0"></path>
<g class="terminal">
<path d="M143 40h0"></path>
<path d="M256.5 40h0"></path>
<rect x="143" y="29" width="113.5" height="22" rx="10" ry="10"></rect>
<text x="199.75" y="44">"INFOTYPES"</text>
</g>
<path d="M256.5 40h10"></path>
<path d="M266.5 40h10"></path>
<g class="terminal">
<path d="M276.5 40h0"></path>
<path d="M381.5 40h0"></path>
<rect x="276.5" y="29" width="105" height="22" rx="10" ry="10"></rect>
<text x="329" y="44">^\d\d\d\d$</text>
</g>
<path d="M381.5 40h10"></path>
<g>
<path d="M391.5 40h0"></path>
<path d="M809.5 40h0"></path>
<path d="M391.5 40a10 10 0 0 0 10 -10v0a10 10 0 0 1 10 -10"></path>
<g>
<path d="M411.5 20h378"></path>
</g>
<path d="M789.5 20a10 10 0 0 1 10 10v0a10 10 0 0 0 10 10"></path>
<path d="M391.5 40h20"></path>
<g>
<path d="M411.5 40h0"></path>
<path d="M789.5 40h0"></path>
<g class="terminal">
<path d="M411.5 40h0"></path>
<path d="M533.5 40h0"></path>
<rect x="411.5" y="29" width="122" height="22" rx="10" ry="10"></rect>
<text x="472.5" y="44">"VALID FROM"</text>
</g>
<path d="M533.5 40h10"></path>
<path d="M543.5 40h10"></path>
<g class="non-terminal">
<path d="M553.5 40h0"></path>
<path d="M624.5 40h0"></path>
<rect x="553.5" y="29" width="71" height="22"></rect>
<a xlink:href="#/abap/expression/Source"><text x="589" y="44">Source</text>
</a>
</g>
<path d="M624.5 40h10"></path>
<path d="M634.5 40h10"></path>
<g class="terminal">
<path d="M644.5 40h0"></path>
<path d="M698.5 40h0"></path>
<rect x="644.5" y="29" width="54" height="22" rx="10" ry="10"></rect>
<text x="671.5" y="44">"TO"</text>
</g>
<path d="M698.5 40h10"></path>
<path d="M708.5 40h10"></path>
<g class="non-terminal">
<path d="M718.5 40h0"></path>
<path d="M789.5 40h0"></path>
<rect x="718.5" y="29" width="71" height="22"></rect>
<a xlink:href="#/abap/expression/Source"><text x="754" y="44">Source</text>
</a>
</g>
</g>
<path d="M789.5 40h20"></path>
</g>
<g>
<path d="M809.5 40h0"></path>
<path d="M1028.5 40h0"></path>
<path d="M809.5 40a10 10 0 0 0 10 -10v0a10 10 0 0 1 10 -10"></path>
<g>
<path d="M829.5 20h179"></path>
</g>
<path d="M1008.5 20a10 10 0 0 1 10 10v0a10 10 0 0 0 10 10"></path>
<path d="M809.5 40h20"></path>
<g>
<path d="M829.5 40h0"></path>
<path d="M1008.5 40h0"></path>
<g class="terminal">
<path d="M829.5 40h0"></path>
<path d="M900.5 40h0"></path>
<rect x="829.5" y="29" width="71" height="22" rx="10" ry="10"></rect>
<text x="865" y="44">"NAME"</text>
</g>
<path d="M900.5 40h10"></path>
<path d="M910.5 40h10"></path>
<g class="non-terminal">
<path d="M920.5 40h0"></path>
<path d="M1008.5 40h0"></path>
<rect x="920.5" y="29" width="88" height="22"></rect>
<a xlink:href="#/abap/expression/FieldSub"><text x="964.5" y="44">FieldSub</text>
</a>
</g>
</g>
<path d="M1008.5 40h20"></path>
</g>
<g>
<path d="M1028.5 40h0"></path>
<path d="M1264.5 40h0"></path>
<path d="M1028.5 40a10 10 0 0 0 10 -10v0a10 10 0 0 1 10 -10"></path>
<g>
<path d="M1048.5 20h196"></path>
</g>
<path d="M1244.5 20a10 10 0 0 1 10 10v0a10 10 0 0 0 10 10"></path>
<path d="M1028.5 40h20"></path>
<g>
<path d="M1048.5 40h0"></path>
<path d="M1244.5 40h0"></path>
<g class="terminal">
<path d="M1048.5 40h0"></path>
<path d="M1136.5 40h0"></path>
<rect x="1048.5" y="29" width="88" height="22" rx="10" ry="10"></rect>
<text x="1092.5" y="44">"OCCURS"</text>
</g>
<path d="M1136.5 40h10"></path>
<path d="M1146.5 40h10"></path>
<g class="non-terminal">
<path d="M1156.5 40h0"></path>
<path d="M1244.5 40h0"></path>
<rect x="1156.5" y="29" width="88" height="22"></rect>
<a xlink:href="#/abap/expression/Constant"><text x="1200.5" y="44">Constant</text>
</a>
</g>
</g>
<path d="M1244.5 40h20"></path>
</g>
<g>
<path d="M1264.5 40h0"></path>
<path d="M1392.5 40h0"></path>
<path d="M1264.5 40a10 10 0 0 0 10 -10v0a10 10 0 0 1 10 -10"></path>
<g>
<path d="M1284.5 20h88"></path>
</g>
<path d="M1372.5 20a10 10 0 0 1 10 10v0a10 10 0 0 0 10 10"></path>
<path d="M1264.5 40h20"></path>
<g class="terminal">
<path d="M1284.5 40h0"></path>
<path d="M1372.5 40h0"></path>
<rect x="1284.5" y="29" width="88" height="22" rx="10" ry="10"></rect>
<text x="1328.5" y="44">"MODE N"</text>
</g>
<path d="M1372.5 40h20"></path>
</g>
</g>
</g>
<path d="M1392.5 40h10"></path>
<path d="M 1402.5 40 h 20 m -10 -10 v 20 m 10 -20 v 20"></path>
</g>
</svg>
