<svg xmlns="http://www.w3.org/2000/svg" xmlns:xlink="http://www.w3.org/1999/xlink" class="railroad-diagram" width="931.5" height="140" viewBox="0 0 931.5 140">
<defs>
<style type="text/css"><![CDATA[
path {
stroke-width: 3;
stroke: black;
fill: rgba(0,0,0,0);
}
text {
font: bold 14px monospace;
text-anchor: middle;
}
text.diagram-text {
font-size: 12px;
}
a {
fill: blue;
}
text.diagram-arrow {
font-size: 16px;
}
text.label {
text-anchor: start;
}
text.comment {
font: italic 12px monospace;
}
rect {
stroke-width: 3;
stroke: black;
fill: #BCBCBC;
}
path.diagram-text {
stroke-width: 3;
stroke: black;
fill: #BCBCBC;
cursor: help;
}
]]></style>
</defs>
<g transform="translate(.5 .5)">
<g>
<path d="M20 30v20m10 -20v20m-10 -10h20"></path>
</g>
<path d="M40 40h10"></path>
<g>
<path d="M50 40h0"></path>
<path d="M881.5 40h0"></path>
<g class="terminal">
<path d="M50 40h0"></path>
<path d="M121 40h0"></path>
<rect x="50" y="29" width="71" height="22" rx="10" ry="10"></rect>
<text x="85.5" y="44">"DATA"</text>
</g>
<path d="M121 40h10"></path>
<path d="M131 40h10"></path>
<g>
<path d="M141 40h0"></path>
<path d="M881.5 40h0"></path>
<g class="terminal">
<path d="M141 40h0"></path>
<path d="M246 40h0"></path>
<rect x="141" y="29" width="105" height="22" rx="10" ry="10"></rect>
<text x="193.5" y="44">"BEGIN OF"</text>
</g>
<path d="M246 40h10"></path>
<g>
<path d="M256 40h0"></path>
<path d="M881.5 40h0"></path>
<path d="M256 40h20"></path>
<g>
<path d="M276 40h0"></path>
<path d="M595.5 40h266"></path>
<g class="terminal">
<path d="M276 40h0"></path>
<path d="M406.5 40h0"></path>
<rect x="276" y="29" width="130.5" height="22" rx="10" ry="10"></rect>
<text x="341.25" y="44">"COMMON PART"</text>
</g>
<path d="M406.5 40h10"></path>
<g>
<path d="M416.5 40h0"></path>
<path d="M595.5 40h0"></path>
<path d="M416.5 40a10 10 0 0 0 10 -10v0a10 10 0 0 1 10 -10"></path>
<g>
<path d="M436.5 20h139"></path>
</g>
<path d="M575.5 20a10 10 0 0 1 10 10v0a10 10 0 0 0 10 10"></path>
<path d="M416.5 40h20"></path>
<g class="non-terminal">
<path d="M436.5 40h0"></path>
<path d="M575.5 40h0"></path>
<rect x="436.5" y="29" width="139" height="22"></rect>
<a xlink:href="#/abap/expression/DefinitionName"><text x="506" y="44">DefinitionName</text>
</a>
</g>
<path d="M575.5 40h20"></path>
</g>
</g>
<path d="M861.5 40h20"></path>
<path d="M256 40a10 10 0 0 1 10 10v19a10 10 0 0 0 10 10"></path>
<g>
<path d="M276 79h0"></path>
<path d="M861.5 79h0"></path>
<g class="non-terminal">
<path d="M276 79h0"></path>
<path d="M415 79h0"></path>
<rect x="276" y="68" width="139" height="22"></rect>
<a xlink:href="#/abap/expression/DefinitionName"><text x="345.5" y="83">DefinitionName</text>
</a>
</g>
<path d="M415 79h10"></path>
<g>
<path d="M425 79h0"></path>
<path d="M578.5 79h0"></path>
<path d="M425 79a10 10 0 0 0 10 -10v0a10 10 0 0 1 10 -10"></path>
<g>
<path d="M445 59h113.5"></path>
</g>
<path d="M558.5 59a10 10 0 0 1 10 10v0a10 10 0 0 0 10 10"></path>
<path d="M425 79h20"></path>
<g class="terminal">
<path d="M445 79h0"></path>
<path d="M558.5 79h0"></path>
<rect x="445" y="68" width="113.5" height="22" rx="10" ry="10"></rect>
<text x="501.75" y="83">"READ-ONLY"</text>
</g>
<path d="M558.5 79h20"></path>
</g>
<g>
<path d="M578.5 79h0"></path>
<path d="M861.5 79h0"></path>
<path d="M578.5 79a10 10 0 0 0 10 -10v0a10 10 0 0 1 10 -10"></path>
<g>
<path d="M598.5 59h243"></path>
</g>
<path d="M841.5 59a10 10 0 0 1 10 10v0a10 10 0 0 0 10 10"></path>
<path d="M578.5 79h20"></path>
<g>
<path d="M598.5 79h0"></path>
<path d="M841.5 79h0"></path>
<g class="terminal">
<path d="M598.5 79h0"></path>
<path d="M686.5 79h0"></path>
<rect x="598.5" y="68" width="88" height="22" rx="10" ry="10"></rect>
<text x="642.5" y="83">"OCCURS"</text>
</g>
<path d="M686.5 79h10"></path>
<g>
<path d="M696.5 79h0"></path>
<path d="M841.5 79h0"></path>
<path d="M696.5 79h20"></path>
<g class="non-terminal">
<path d="M716.5 79h0"></path>
<path d="M796 79h25.5"></path>
<rect x="716.5" y="68" width="79.5" height="22"></rect>
<a xlink:href="#/abap/expression/Integer"><text x="756.25" y="83">Integer</text>
</a>
</g>
<path d="M821.5 79h20"></path>
<path d="M696.5 79a10 10 0 0 1 10 10v10a10 10 0 0 0 10 10"></path>
<g class="non-terminal">
<path d="M716.5 109h0"></path>
<path d="M821.5 109h0"></path>
<rect x="716.5" y="98" width="105" height="22"></rect>
<a xlink:href="#/abap/expression/FieldChain"><text x="769" y="113">FieldChain</text>
</a>
</g>
<path d="M821.5 109a10 10 0 0 0 10 -10v-10a10 10 0 0 1 10 -10"></path>
</g>
</g>
<path d="M841.5 79h20"></path>
</g>
</g>
<path d="M861.5 79a10 10 0 0 0 10 -10v-19a10 10 0 0 1 10 -10"></path>
</g>
</g>
</g>
<path d="M881.5 40h10"></path>
<path d="M 891.5 40 h 20 m -10 -10 v 20 m 10 -20 v 20"></path>
</g>
</svg>
