<svg xmlns="http://www.w3.org/2000/svg" xmlns:xlink="http://www.w3.org/1999/xlink" class="railroad-diagram" width="684" height="71" viewBox="0 0 684 71">
<defs>
<style type="text/css"><![CDATA[
path {
stroke-width: 3;
stroke: black;
fill: rgba(0,0,0,0);
}
text {
font: bold 14px monospace;
text-anchor: middle;
}
text.diagram-text {
font-size: 12px;
}
a {
fill: blue;
}
text.diagram-arrow {
font-size: 16px;
}
text.label {
text-anchor: start;
}
text.comment {
font: italic 12px monospace;
}
rect {
stroke-width: 3;
stroke: black;
fill: #BCBCBC;
}
path.diagram-text {
stroke-width: 3;
stroke: black;
fill: #BCBCBC;
cursor: help;
}
]]></style>
</defs>
<g transform="translate(.5 .5)">
<g>
<path d="M20 30v20m10 -20v20m-10 -10h20"></path>
</g>
<path d="M40 40h10"></path>
<g>
<path d="M50 40h0"></path>
<path d="M634 40h0"></path>
<g class="comment ">
<path d="M50 40h0"></path>
<path d="M172 40h0"></path>
<text x="111" y="45" class="comment">7.62 or OpenABAP</text>
</g>
<path d="M172 40h10"></path>
<path d="M182 40h10"></path>
<g>
<path d="M192 40h0"></path>
<path d="M634 40h0"></path>
<g class="terminal ">
<path d="M192 40h0"></path>
<path d="M305.5 40h0"></path>
<rect x="192" y="29" width="113.5" height="22" rx="10" ry="10"></rect>
<text x="248.75" y="44">"WHEN TYPE"</text>
</g>
<path d="M305.5 40h10"></path>
<path d="M315.5 40h10"></path>
<g>
<path d="M325.5 40h0"></path>
<path d="M634 40h0"></path>
<g class="non-terminal ">
<path d="M325.5 40h0"></path>
<path d="M422 40h0"></path>
<rect x="325.5" y="29" width="96.5" height="22"></rect>
<a xlink:href="#/abap/expression/ClassName"><text x="373.75" y="44">ClassName</text>
</a>
</g>
<path d="M422 40h10"></path>
<g>
<path d="M432 40h0"></path>
<path d="M634 40h0"></path>
<path d="M432 40a10 10 0 0 0 10 -10v0a10 10 0 0 1 10 -10"></path>
<g>
<path d="M452 20h162"></path>
</g>
<path d="M614 20a10 10 0 0 1 10 10v0a10 10 0 0 0 10 10"></path>
<path d="M432 40h20"></path>
<g>
<path d="M452 40h0"></path>
<path d="M614 40h0"></path>
<g class="terminal ">
<path d="M452 40h0"></path>
<path d="M523 40h0"></path>
<rect x="452" y="29" width="71" height="22" rx="10" ry="10"></rect>
<text x="487.5" y="44">"INTO"</text>
</g>
<path d="M523 40h10"></path>
<path d="M533 40h10"></path>
<g class="non-terminal ">
<path d="M543 40h0"></path>
<path d="M614 40h0"></path>
<rect x="543" y="29" width="71" height="22"></rect>
<a xlink:href="#/abap/expression/Target"><text x="578.5" y="44">Target</text>
</a>
</g>
</g>
<path d="M614 40h20"></path>
</g>
</g>
</g>
</g>
<path d="M634 40h10"></path>
<path d="M 644 40 h 20 m -10 -10 v 20 m 10 -20 v 20"></path>
</g>
</svg>
