<svg xmlns="http://www.w3.org/2000/svg" xmlns:xlink="http://www.w3.org/1999/xlink" class="railroad-diagram" width="1002" height="277" viewBox="0 0 1002 277">
<defs>
<style type="text/css"><![CDATA[
path {
stroke-width: 3;
stroke: black;
fill: rgba(0,0,0,0);
}
text {
font: bold 14px monospace;
text-anchor: middle;
}
text.diagram-text {
font-size: 12px;
}
a {
fill: blue;
}
text.diagram-arrow {
font-size: 16px;
}
text.label {
text-anchor: start;
}
text.comment {
font: italic 12px monospace;
}
rect {
stroke-width: 3;
stroke: black;
fill: #BCBCBC;
}
path.diagram-text {
stroke-width: 3;
stroke: black;
fill: #BCBCBC;
cursor: help;
}
]]></style>
</defs>
<g transform="translate(.5 .5)">
<g>
<path d="M20 38v20m10 -20v20m-10 -10h20"></path>
</g>
<path d="M40 48h10"></path>
<g>
<path d="M50 48h0"></path>
<path d="M952 48h0"></path>
<g class="comment ">
<path d="M50 48h0"></path>
<path d="M123 48h0"></path>
<text x="86.5" y="53" class="comment">not Cloud</text>
</g>
<path d="M123 48h10"></path>
<path d="M133 48h10"></path>
<g>
<path d="M143 48h0"></path>
<path d="M952 48h0"></path>
<g class="terminal ">
<path d="M143 48h0"></path>
<path d="M222.5 48h0"></path>
<rect x="143" y="37" width="79.5" height="22" rx="10" ry="10"></rect>
<text x="182.75" y="52">"LEAVE"</text>
</g>
<path d="M222.5 48h10"></path>
<g>
<path d="M232.5 48h0"></path>
<path d="M952 48h0"></path>
<path d="M232.5 48a10 10 0 0 0 10 -10v-8a10 10 0 0 1 10 -10"></path>
<g>
<path d="M252.5 20h679.5"></path>
</g>
<path d="M932 20a10 10 0 0 1 10 10v8a10 10 0 0 0 10 10"></path>
<path d="M232.5 48h20"></path>
<g>
<path d="M252.5 48h0"></path>
<path d="M932 48h0"></path>
<path d="M252.5 48h20"></path>
<g>
<path d="M272.5 48h75"></path>
<path d="M837 48h75"></path>
<g class="terminal ">
<path d="M347.5 48h0"></path>
<path d="M571.5 48h0"></path>
<rect x="347.5" y="37" width="224" height="22" rx="10" ry="10"></rect>
<text x="459.5" y="52">"TO CURRENT TRANSACTION"</text>
</g>
<path d="M571.5 48h10"></path>
<g>
<path d="M581.5 48h0"></path>
<path d="M837 48h0"></path>
<path d="M581.5 48a10 10 0 0 0 10 -10v0a10 10 0 0 1 10 -10"></path>
<g>
<path d="M601.5 28h215.5"></path>
</g>
<path d="M817 28a10 10 0 0 1 10 10v0a10 10 0 0 0 10 10"></path>
<path d="M581.5 48h20"></path>
<g class="terminal ">
<path d="M601.5 48h0"></path>
<path d="M817 48h0"></path>
<rect x="601.5" y="37" width="215.5" height="22" rx="10" ry="10"></rect>
<text x="709.25" y="52">"AND SKIP FIRST SCREEN"</text>
</g>
<path d="M817 48h20"></path>
</g>
</g>
<path d="M912 48h20"></path>
<path d="M252.5 48a10 10 0 0 1 10 10v19a10 10 0 0 0 10 10"></path>
<g>
<path d="M272.5 87h0"></path>
<path d="M912 87h0"></path>
<g>
<path d="M272.5 87h0"></path>
<path d="M366.5 87h0"></path>
<path d="M272.5 87a10 10 0 0 0 10 -10v0a10 10 0 0 1 10 -10"></path>
<g>
<path d="M292.5 67h54"></path>
</g>
<path d="M346.5 67a10 10 0 0 1 10 10v0a10 10 0 0 0 10 10"></path>
<path d="M272.5 87h20"></path>
<g class="terminal ">
<path d="M292.5 87h0"></path>
<path d="M346.5 87h0"></path>
<rect x="292.5" y="76" width="54" height="22" rx="10" ry="10"></rect>
<text x="319.5" y="91">"TO"</text>
</g>
<path d="M346.5 87h20"></path>
</g>
<path d="M366.5 87h10"></path>
<g class="terminal ">
<path d="M376.5 87h0"></path>
<path d="M541 87h0"></path>
<rect x="376.5" y="76" width="164.5" height="22" rx="10" ry="10"></rect>
<text x="458.75" y="91">"LIST-PROCESSING"</text>
</g>
<path d="M541 87h10"></path>
<g>
<path d="M551 87h0"></path>
<path d="M912 87h0"></path>
<path d="M551 87a10 10 0 0 0 10 -10v0a10 10 0 0 1 10 -10"></path>
<g>
<path d="M571 67h321"></path>
</g>
<path d="M892 67a10 10 0 0 1 10 10v0a10 10 0 0 0 10 10"></path>
<path d="M551 87h20"></path>
<g>
<path d="M571 87h0"></path>
<path d="M892 87h0"></path>
<g class="non-terminal ">
<path d="M571 87h0"></path>
<path d="M667.5 87h0"></path>
<rect x="571" y="76" width="96.5" height="22"></rect>
<a xlink:href="#/abap/expression/AndReturn"><text x="619.25" y="91">AndReturn</text>
</a>
</g>
<path d="M667.5 87h10"></path>
<path d="M677.5 87h10"></path>
<g class="terminal ">
<path d="M687.5 87h0"></path>
<path d="M801 87h0"></path>
<rect x="687.5" y="76" width="113.5" height="22" rx="10" ry="10"></rect>
<text x="744.25" y="91">"TO SCREEN"</text>
</g>
<path d="M801 87h10"></path>
<path d="M811 87h10"></path>
<g class="non-terminal ">
<path d="M821 87h0"></path>
<path d="M892 87h0"></path>
<rect x="821" y="76" width="71" height="22"></rect>
<a xlink:href="#/abap/expression/Source"><text x="856.5" y="91">Source</text>
</a>
</g>
</g>
<path d="M892 87h20"></path>
</g>
</g>
<path d="M912 87a10 10 0 0 0 10 -10v-19a10 10 0 0 1 10 -10"></path>
<path d="M252.5 48a10 10 0 0 1 10 10v49a10 10 0 0 0 10 10"></path>
<g class="terminal ">
<path d="M272.5 117h237.5"></path>
<path d="M674.5 117h237.5"></path>
<rect x="510" y="106" width="164.5" height="22" rx="10" ry="10"></rect>
<text x="592.25" y="121">"LIST-PROCESSING"</text>
</g>
<path d="M912 117a10 10 0 0 0 10 -10v-49a10 10 0 0 1 10 -10"></path>
<path d="M252.5 48a10 10 0 0 1 10 10v79a10 10 0 0 0 10 10"></path>
<g class="terminal ">
<path d="M272.5 147h275.75"></path>
<path d="M636.25 147h275.75"></path>
<rect x="548.25" y="136" width="88" height="22" rx="10" ry="10"></rect>
<text x="592.25" y="151">"SCREEN"</text>
</g>
<path d="M912 147a10 10 0 0 0 10 -10v-79a10 10 0 0 1 10 -10"></path>
<path d="M252.5 48a10 10 0 0 1 10 10v118a10 10 0 0 0 10 10"></path>
<g>
<path d="M272.5 186h63.5"></path>
<path d="M848.5 186h63.5"></path>
<g class="terminal ">
<path d="M336 186h0"></path>
<path d="M492 186h0"></path>
<rect x="336" y="175" width="156" height="22" rx="10" ry="10"></rect>
<text x="414" y="190">"TO TRANSACTION"</text>
</g>
<path d="M492 186h10"></path>
<path d="M502 186h10"></path>
<g class="non-terminal ">
<path d="M512 186h0"></path>
<path d="M583 186h0"></path>
<rect x="512" y="175" width="71" height="22"></rect>
<a xlink:href="#/abap/expression/Source"><text x="547.5" y="190">Source</text>
</a>
</g>
<path d="M583 186h10"></path>
<g>
<path d="M593 186h0"></path>
<path d="M848.5 186h0"></path>
<path d="M593 186a10 10 0 0 0 10 -10v0a10 10 0 0 1 10 -10"></path>
<g>
<path d="M613 166h215.5"></path>
</g>
<path d="M828.5 166a10 10 0 0 1 10 10v0a10 10 0 0 0 10 10"></path>
<path d="M593 186h20"></path>
<g class="terminal ">
<path d="M613 186h0"></path>
<path d="M828.5 186h0"></path>
<rect x="613" y="175" width="215.5" height="22" rx="10" ry="10"></rect>
<text x="720.75" y="190">"AND SKIP FIRST SCREEN"</text>
</g>
<path d="M828.5 186h20"></path>
</g>
</g>
<path d="M912 186a10 10 0 0 0 10 -10v-118a10 10 0 0 1 10 -10"></path>
<path d="M252.5 48a10 10 0 0 1 10 10v148a10 10 0 0 0 10 10"></path>
<g class="terminal ">
<path d="M272.5 216h271.5"></path>
<path d="M640.5 216h271.5"></path>
<rect x="544" y="205" width="96.5" height="22" rx="10" ry="10"></rect>
<text x="592.25" y="220">"PROGRAM"</text>
</g>
<path d="M912 216a10 10 0 0 0 10 -10v-148a10 10 0 0 1 10 -10"></path>
<path d="M252.5 48a10 10 0 0 1 10 10v178a10 10 0 0 0 10 10"></path>
<g>
<path d="M272.5 246h217.5"></path>
<path d="M694.5 246h217.5"></path>
<g class="terminal ">
<path d="M490 246h0"></path>
<path d="M603.5 246h0"></path>
<rect x="490" y="235" width="113.5" height="22" rx="10" ry="10"></rect>
<text x="546.75" y="250">"TO SCREEN"</text>
</g>
<path d="M603.5 246h10"></path>
<path d="M613.5 246h10"></path>
<g class="non-terminal ">
<path d="M623.5 246h0"></path>
<path d="M694.5 246h0"></path>
<rect x="623.5" y="235" width="71" height="22"></rect>
<a xlink:href="#/abap/expression/Source"><text x="659" y="250">Source</text>
</a>
</g>
</g>
<path d="M912 246a10 10 0 0 0 10 -10v-178a10 10 0 0 1 10 -10"></path>
</g>
<path d="M932 48h20"></path>
</g>
</g>
</g>
<path d="M952 48h10"></path>
<path d="M 962 48 h 20 m -10 -10 v 20 m 10 -20 v 20"></path>
</g>
</svg>
