<svg xmlns="http://www.w3.org/2000/svg" xmlns:xlink="http://www.w3.org/1999/xlink" class="railroad-diagram" width="2773.5" height="333" viewBox="0 0 2773.5 333">
<defs>
<style type="text/css"><![CDATA[
path {
stroke-width: 3;
stroke: black;
fill: rgba(0,0,0,0);
}
text {
font: bold 14px monospace;
text-anchor: middle;
}
text.diagram-text {
font-size: 12px;
}
a {
fill: blue;
}
text.diagram-arrow {
font-size: 16px;
}
text.label {
text-anchor: start;
}
text.comment {
font: italic 12px monospace;
}
rect {
stroke-width: 3;
stroke: black;
fill: #BCBCBC;
}
path.diagram-text {
stroke-width: 3;
stroke: black;
fill: #BCBCBC;
cursor: help;
}
]]></style>
</defs>
<g transform="translate(.5 .5)">
<g>
<path d="M20 30v20m10 -20v20m-10 -10h20"></path>
</g>
<path d="M40 40h10"></path>
<g>
<path d="M50 40h0"></path>
<path d="M2723.5 40h0"></path>
<g>
<path d="M50 40h0"></path>
<path d="M88 40h0"></path>
<text x="69" y="45" class="comment">v754</text>
</g>
<path d="M88 40h10"></path>
<path d="M98 40h10"></path>
<g>
<path d="M108 40h0"></path>
<path d="M2723.5 40h0"></path>
<g class="terminal">
<path d="M108 40h0"></path>
<path d="M179 40h0"></path>
<rect x="108" y="29" width="71" height="22" rx="10" ry="10"></rect>
<text x="143.5" y="44">"READ"</text>
</g>
<path d="M179 40h10"></path>
<g>
<path d="M189 40h0"></path>
<path d="M2723.5 40h0"></path>
<path d="M189 40h20"></path>
<g>
<path d="M209 40h0"></path>
<path d="M2703.5 40h0"></path>
<g class="terminal">
<path d="M209 40h0"></path>
<path d="M339.5 40h0"></path>
<rect x="209" y="29" width="130.5" height="22" rx="10" ry="10"></rect>
<text x="274.25" y="44">"ENTITIES OF"</text>
</g>
<path d="M339.5 40h10"></path>
<path d="M349.5 40h10"></path>
<g class="non-terminal">
<path d="M359.5 40h0"></path>
<path d="M541 40h0"></path>
<rect x="359.5" y="29" width="181.5" height="22"></rect>
<a xlink:href="#/abap/expression/NamespaceSimpleName"><text x="450.25" y="44">NamespaceSimpleName</text>
</a>
</g>
<path d="M541 40h10"></path>
<g>
<path d="M551 40h0"></path>
<path d="M738.5 40h0"></path>
<path d="M551 40a10 10 0 0 0 10 -10v0a10 10 0 0 1 10 -10"></path>
<g>
<path d="M571 20h147.5"></path>
</g>
<path d="M718.5 20a10 10 0 0 1 10 10v0a10 10 0 0 0 10 10"></path>
<path d="M551 40h20"></path>
<g class="terminal">
<path d="M571 40h0"></path>
<path d="M718.5 40h0"></path>
<rect x="571" y="29" width="147.5" height="22" rx="10" ry="10"></rect>
<text x="644.75" y="44">"IN LOCAL MODE"</text>
</g>
<path d="M718.5 40h20"></path>
</g>
<path d="M738.5 40h10"></path>
<g>
<path d="M748.5 40h0"></path>
<path d="M2185.5 40h0"></path>
<path d="M748.5 40h10"></path>
<g>
<path d="M758.5 40h0"></path>
<path d="M2175.5 40h0"></path>
<g class="terminal">
<path d="M758.5 40h0"></path>
<path d="M846.5 40h0"></path>
<rect x="758.5" y="29" width="88" height="22" rx="10" ry="10"></rect>
<text x="802.5" y="44">"ENTITY"</text>
</g>
<path d="M846.5 40h10"></path>
<path d="M856.5 40h10"></path>
<g class="non-terminal">
<path d="M866.5 40h0"></path>
<path d="M1048 40h0"></path>
<rect x="866.5" y="29" width="181.5" height="22"></rect>
<a xlink:href="#/abap/expression/NamespaceSimpleName"><text x="957.25" y="44">NamespaceSimpleName</text>
</a>
</g>
<path d="M1048 40h10"></path>
<g>
<path d="M1058 40h0"></path>
<path d="M1319.5 40h0"></path>
<path d="M1058 40a10 10 0 0 0 10 -10v0a10 10 0 0 1 10 -10"></path>
<g>
<path d="M1078 20h221.5"></path>
</g>
<path d="M1299.5 20a10 10 0 0 1 10 10v0a10 10 0 0 0 10 10"></path>
<path d="M1058 40h20"></path>
<g>
<path d="M1078 40h0"></path>
<path d="M1299.5 40h0"></path>
<g class="terminal">
<path d="M1078 40h0"></path>
<path d="M1132 40h0"></path>
<rect x="1078" y="29" width="54" height="22" rx="10" ry="10"></rect>
<text x="1105" y="44">"BY"</text>
</g>
<path d="M1132 40h10"></path>
<path d="M1142 40h10"></path>
<g class="non-terminal">
<path d="M1152 40h0"></path>
<path d="M1299.5 40h0"></path>
<rect x="1152" y="29" width="147.5" height="22"></rect>
<a xlink:href="#/abap/expression/AssociationName"><text x="1225.75" y="44">AssociationName</text>
</a>
</g>
</g>
<path d="M1299.5 40h20"></path>
</g>
<g>
<path d="M1319.5 40h0"></path>
<path d="M1956.5 40h0"></path>
<path d="M1319.5 40h20"></path>
<g>
<path d="M1339.5 40h0"></path>
<path d="M1936.5 40h0"></path>
<g class="terminal">
<path d="M1339.5 40h0"></path>
<path d="M1427.5 40h0"></path>
<rect x="1339.5" y="29" width="88" height="22" rx="10" ry="10"></rect>
<text x="1383.5" y="44">"FIELDS"</text>
</g>
<path d="M1427.5 40h10"></path>
<path d="M1437.5 40h10"></path>
<g class="terminal">
<path d="M1447.5 40h0"></path>
<path d="M1518.5 40h0"></path>
<rect x="1447.5" y="29" width="71" height="22" rx="10" ry="10"></rect>
<text x="1483" y="44">!" ( "</text>
</g>
<path d="M1518.5 40h10"></path>
<path d="M1528.5 40h10"></path>
<g>
<path d="M1538.5 40h0"></path>
<path d="M1663.5 40h0"></path>
<path d="M1538.5 40h10"></path>
<g class="non-terminal">
<path d="M1548.5 40h0"></path>
<path d="M1653.5 40h0"></path>
<rect x="1548.5" y="29" width="105" height="22"></rect>
<a xlink:href="#/abap/expression/SimpleName"><text x="1601" y="44">SimpleName</text>
</a>
</g>
<path d="M1653.5 40h10"></path>
<path d="M1548.5 40a10 10 0 0 0 -10 10v0a10 10 0 0 0 10 10"></path>
<g>
<path d="M1548.5 60h105"></path>
</g>
<path d="M1653.5 60a10 10 0 0 0 10 -10v0a10 10 0 0 0 -10 -10"></path>
</g>
<path d="M1663.5 40h10"></path>
<path d="M1673.5 40h10"></path>
<g class="terminal">
<path d="M1683.5 40h0"></path>
<path d="M1754.5 40h0"></path>
<rect x="1683.5" y="29" width="71" height="22" rx="10" ry="10"></rect>
<text x="1719" y="44">!" ) "</text>
</g>
<path d="M1754.5 40h10"></path>
<path d="M1764.5 40h10"></path>
<g class="terminal">
<path d="M1774.5 40h0"></path>
<path d="M1845.5 40h0"></path>
<rect x="1774.5" y="29" width="71" height="22" rx="10" ry="10"></rect>
<text x="1810" y="44">"WITH"</text>
</g>
<path d="M1845.5 40h10"></path>
<path d="M1855.5 40h10"></path>
<g class="non-terminal">
<path d="M1865.5 40h0"></path>
<path d="M1936.5 40h0"></path>
<rect x="1865.5" y="29" width="71" height="22"></rect>
<a xlink:href="#/abap/expression/Source"><text x="1901" y="44">Source</text>
</a>
</g>
</g>
<path d="M1936.5 40h20"></path>
<path d="M1319.5 40a10 10 0 0 1 10 10v19a10 10 0 0 0 10 10"></path>
<g>
<path d="M1339.5 79h0"></path>
<path d="M1501.5 79h435"></path>
<g class="terminal">
<path d="M1339.5 79h0"></path>
<path d="M1410.5 79h0"></path>
<rect x="1339.5" y="68" width="71" height="22" rx="10" ry="10"></rect>
<text x="1375" y="83">"FROM"</text>
</g>
<path d="M1410.5 79h10"></path>
<path d="M1420.5 79h10"></path>
<g class="non-terminal">
<path d="M1430.5 79h0"></path>
<path d="M1501.5 79h0"></path>
<rect x="1430.5" y="68" width="71" height="22"></rect>
<a xlink:href="#/abap/expression/Source"><text x="1466" y="83">Source</text>
</a>
</g>
</g>
<path d="M1936.5 79a10 10 0 0 0 10 -10v-19a10 10 0 0 1 10 -10"></path>
<path d="M1319.5 40a10 10 0 0 1 10 10v49a10 10 0 0 0 10 10"></path>
<g>
<path d="M1339.5 109h0"></path>
<path d="M1595 109h341.5"></path>
<g class="terminal">
<path d="M1339.5 109h0"></path>
<path d="M1504 109h0"></path>
<rect x="1339.5" y="98" width="164.5" height="22" rx="10" ry="10"></rect>
<text x="1421.75" y="113">"ALL FIELDS WITH"</text>
</g>
<path d="M1504 109h10"></path>
<path d="M1514 109h10"></path>
<g class="non-terminal">
<path d="M1524 109h0"></path>
<path d="M1595 109h0"></path>
<rect x="1524" y="98" width="71" height="22"></rect>
<a xlink:href="#/abap/expression/Source"><text x="1559.5" y="113">Source</text>
</a>
</g>
</g>
<path d="M1936.5 109a10 10 0 0 0 10 -10v-49a10 10 0 0 1 10 -10"></path>
</g>
<g>
<path d="M1956.5 40h0"></path>
<path d="M2175.5 40h0"></path>
<path d="M1956.5 40a10 10 0 0 0 10 -10v0a10 10 0 0 1 10 -10"></path>
<g>
<path d="M1976.5 20h179"></path>
</g>
<path d="M2155.5 20a10 10 0 0 1 10 10v0a10 10 0 0 0 10 10"></path>
<path d="M1956.5 40h20"></path>
<g>
<path d="M1976.5 40h0"></path>
<path d="M2155.5 40h0"></path>
<g class="terminal">
<path d="M1976.5 40h0"></path>
<path d="M2064.5 40h0"></path>
<rect x="1976.5" y="29" width="88" height="22" rx="10" ry="10"></rect>
<text x="2020.5" y="44">"RESULT"</text>
</g>
<path d="M2064.5 40h10"></path>
<path d="M2074.5 40h10"></path>
<g class="non-terminal">
<path d="M2084.5 40h0"></path>
<path d="M2155.5 40h0"></path>
<rect x="2084.5" y="29" width="71" height="22"></rect>
<a xlink:href="#/abap/expression/Target"><text x="2120" y="44">Target</text>
</a>
</g>
</g>
<path d="M2155.5 40h20"></path>
</g>
</g>
<path d="M2175.5 40h10"></path>
<path d="M758.5 40a10 10 0 0 0 -10 10v68a10 10 0 0 0 10 10"></path>
<g>
<path d="M758.5 128h1417"></path>
</g>
<path d="M2175.5 128a10 10 0 0 0 10 -10v-68a10 10 0 0 0 -10 -10"></path>
</g>
<path d="M2185.5 40h10"></path>
<g>
<path d="M2195.5 40h0"></path>
<path d="M2397.5 40h0"></path>
<path d="M2195.5 40a10 10 0 0 0 10 -10v0a10 10 0 0 1 10 -10"></path>
<g>
<path d="M2215.5 20h162"></path>
</g>
<path d="M2377.5 20a10 10 0 0 1 10 10v0a10 10 0 0 0 10 10"></path>
<path d="M2195.5 40h20"></path>
<g>
<path d="M2215.5 40h0"></path>
<path d="M2377.5 40h0"></path>
<g class="terminal">
<path d="M2215.5 40h0"></path>
<path d="M2286.5 40h0"></path>
<rect x="2215.5" y="29" width="71" height="22" rx="10" ry="10"></rect>
<text x="2251" y="44">"LINK"</text>
</g>
<path d="M2286.5 40h10"></path>
<path d="M2296.5 40h10"></path>
<g class="non-terminal">
<path d="M2306.5 40h0"></path>
<path d="M2377.5 40h0"></path>
<rect x="2306.5" y="29" width="71" height="22"></rect>
<a xlink:href="#/abap/expression/Target"><text x="2342" y="44">Target</text>
</a>
</g>
</g>
<path d="M2377.5 40h20"></path>
</g>
<g>
<path d="M2397.5 40h0"></path>
<path d="M2703.5 40h0"></path>
<path d="M2397.5 40a10 10 0 0 0 10 -10v0a10 10 0 0 1 10 -10"></path>
<g>
<path d="M2417.5 20h266"></path>
</g>
<path d="M2683.5 20a10 10 0 0 1 10 10v0a10 10 0 0 0 10 10"></path>
<path d="M2397.5 40h20"></path>
<g>
<path d="M2417.5 40h0"></path>
<path d="M2683.5 40h0"></path>
<path d="M2447.5 40h10"></path>
<g>
<path d="M2457.5 40h0"></path>
<path d="M2636.5 40h17"></path>
<g class="terminal">
<path d="M2457.5 40h0"></path>
<path d="M2545.5 40h0"></path>
<rect x="2457.5" y="29" width="88" height="22" rx="10" ry="10"></rect>
<text x="2501.5" y="44">"FAILED"</text>
</g>
<path d="M2545.5 40h10"></path>
<path d="M2555.5 40h10"></path>
<g class="non-terminal">
<path d="M2565.5 40h0"></path>
<path d="M2636.5 40h0"></path>
<rect x="2565.5" y="29" width="71" height="22"></rect>
<a xlink:href="#/abap/expression/Target"><text x="2601" y="44">Target</text>
</a>
</g>
</g>
<path d="M2653.5 40h10"></path>
<path d="M2447.5 40v20a10 10 0 0 0 10 10"></path>
<g>
<path d="M2457.5 70h0"></path>
<path d="M2653.5 70h0"></path>
<g class="terminal">
<path d="M2457.5 70h0"></path>
<path d="M2562.5 70h0"></path>
<rect x="2457.5" y="59" width="105" height="22" rx="10" ry="10"></rect>
<text x="2510" y="74">"REPORTED"</text>
</g>
<path d="M2562.5 70h10"></path>
<path d="M2572.5 70h10"></path>
<g class="non-terminal">
<path d="M2582.5 70h0"></path>
<path d="M2653.5 70h0"></path>
<rect x="2582.5" y="59" width="71" height="22"></rect>
<a xlink:href="#/abap/expression/Target"><text x="2618" y="74">Target</text>
</a>
</g>
</g>
<path d="M2653.5 70a10 10 0 0 0 10 -10v-20"></path>
<g class="diagram-text">
<title>take one or more branches, once each, in any order</title>
<path d="M 2447.5 30 h -26 a 4 4 0 0 0 -4 4 v 12 a 4 4 0 0 0 4 4 h 26 z" class="diagram-text"></path>
<text x="2432.5" y="44" class="diagram-text">1+</text>
<path d="M 2663.5 30 h 16 a 4 4 0 0 1 4 4 v 12 a 4 4 0 0 1 -4 4 h -16 z" class="diagram-text"></path>
<path d="M 2670.5 38 a 4 4 0 1 0 6 -1 m 2.75 -1 h -4 v 4 m 0 -3 h 2" style="stroke-width: 1.75"></path>
</g>
</g>
<path d="M2683.5 40h20"></path>
</g>
</g>
<path d="M2703.5 40h20"></path>
<path d="M189 40a10 10 0 0 1 10 10v96a10 10 0 0 0 10 10"></path>
<g>
<path d="M209 156h0"></path>
<path d="M2278.5 156h425"></path>
<g class="terminal">
<path d="M209 156h0"></path>
<path d="M297 156h0"></path>
<rect x="209" y="145" width="88" height="22" rx="10" ry="10"></rect>
<text x="253" y="160">"ENTITY"</text>
</g>
<path d="M297 156h10"></path>
<g>
<path d="M307 156h0"></path>
<path d="M494.5 156h0"></path>
<path d="M307 156a10 10 0 0 0 10 -10v0a10 10 0 0 1 10 -10"></path>
<g>
<path d="M327 136h147.5"></path>
</g>
<path d="M474.5 136a10 10 0 0 1 10 10v0a10 10 0 0 0 10 10"></path>
<path d="M307 156h20"></path>
<g class="terminal">
<path d="M327 156h0"></path>
<path d="M474.5 156h0"></path>
<rect x="327" y="145" width="147.5" height="22" rx="10" ry="10"></rect>
<text x="400.75" y="160">"IN LOCAL MODE"</text>
</g>
<path d="M474.5 156h20"></path>
</g>
<g>
<path d="M494.5 156h0"></path>
<path d="M716 156h0"></path>
<path d="M494.5 156h20"></path>
<g class="non-terminal">
<path d="M514.5 156h0"></path>
<path d="M696 156h0"></path>
<rect x="514.5" y="145" width="181.5" height="22"></rect>
<a xlink:href="#/abap/expression/NamespaceSimpleName"><text x="605.25" y="160">NamespaceSimpleName</text>
</a>
</g>
<path d="M696 156h20"></path>
<path d="M494.5 156a10 10 0 0 1 10 10v10a10 10 0 0 0 10 10"></path>
<g class="non-terminal">
<path d="M514.5 186h0"></path>
<path d="M679 186h17"></path>
<rect x="514.5" y="175" width="164.5" height="22"></rect>
<a xlink:href="#/abap/expression/EntityAssociation"><text x="596.75" y="190">EntityAssociation</text>
</a>
</g>
<path d="M696 186a10 10 0 0 0 10 -10v-10a10 10 0 0 1 10 -10"></path>
</g>
<path d="M716 156h10"></path>
<g>
<path d="M726 156h0"></path>
<path d="M1813.5 156h0"></path>
<path d="M726 156h10"></path>
<g>
<path d="M736 156h0"></path>
<path d="M1803.5 156h0"></path>
<g>
<path d="M736 156h0"></path>
<path d="M1614.5 156h0"></path>
<path d="M736 156h20"></path>
<g>
<path d="M756 156h0"></path>
<path d="M1011.5 156h583"></path>
<g class="terminal">
<path d="M756 156h0"></path>
<path d="M920.5 156h0"></path>
<rect x="756" y="145" width="164.5" height="22" rx="10" ry="10"></rect>
<text x="838.25" y="160">"ALL FIELDS WITH"</text>
</g>
<path d="M920.5 156h10"></path>
<path d="M930.5 156h10"></path>
<g class="non-terminal">
<path d="M940.5 156h0"></path>
<path d="M1011.5 156h0"></path>
<rect x="940.5" y="145" width="71" height="22"></rect>
<a xlink:href="#/abap/expression/Source"><text x="976" y="160">Source</text>
</a>
</g>
</g>
<path d="M1594.5 156h20"></path>
<path d="M736 156a10 10 0 0 1 10 10v10a10 10 0 0 0 10 10"></path>
<g>
<path d="M756 186h0"></path>
<path d="M1353 186h241.5"></path>
<g class="terminal">
<path d="M756 186h0"></path>
<path d="M844 186h0"></path>
<rect x="756" y="175" width="88" height="22" rx="10" ry="10"></rect>
<text x="800" y="190">"FIELDS"</text>
</g>
<path d="M844 186h10"></path>
<path d="M854 186h10"></path>
<g class="terminal">
<path d="M864 186h0"></path>
<path d="M935 186h0"></path>
<rect x="864" y="175" width="71" height="22" rx="10" ry="10"></rect>
<text x="899.5" y="190">!" ( "</text>
</g>
<path d="M935 186h10"></path>
<path d="M945 186h10"></path>
<g>
<path d="M955 186h0"></path>
<path d="M1080 186h0"></path>
<path d="M955 186h10"></path>
<g class="non-terminal">
<path d="M965 186h0"></path>
<path d="M1070 186h0"></path>
<rect x="965" y="175" width="105" height="22"></rect>
<a xlink:href="#/abap/expression/SimpleName"><text x="1017.5" y="190">SimpleName</text>
</a>
</g>
<path d="M1070 186h10"></path>
<path d="M965 186a10 10 0 0 0 -10 10v0a10 10 0 0 0 10 10"></path>
<g>
<path d="M965 206h105"></path>
</g>
<path d="M1070 206a10 10 0 0 0 10 -10v0a10 10 0 0 0 -10 -10"></path>
</g>
<path d="M1080 186h10"></path>
<path d="M1090 186h10"></path>
<g class="terminal">
<path d="M1100 186h0"></path>
<path d="M1171 186h0"></path>
<rect x="1100" y="175" width="71" height="22" rx="10" ry="10"></rect>
<text x="1135.5" y="190">!" ) "</text>
</g>
<path d="M1171 186h10"></path>
<path d="M1181 186h10"></path>
<g class="terminal">
<path d="M1191 186h0"></path>
<path d="M1262 186h0"></path>
<rect x="1191" y="175" width="71" height="22" rx="10" ry="10"></rect>
<text x="1226.5" y="190">"WITH"</text>
</g>
<path d="M1262 186h10"></path>
<path d="M1272 186h10"></path>
<g class="non-terminal">
<path d="M1282 186h0"></path>
<path d="M1353 186h0"></path>
<rect x="1282" y="175" width="71" height="22"></rect>
<a xlink:href="#/abap/expression/Source"><text x="1317.5" y="190">Source</text>
</a>
</g>
</g>
<path d="M1594.5 186a10 10 0 0 0 10 -10v-10a10 10 0 0 1 10 -10"></path>
<path d="M736 156a10 10 0 0 1 10 10v49a10 10 0 0 0 10 10"></path>
<g>
<path d="M756 225h0"></path>
<path d="M918 225h676.5"></path>
<g class="terminal">
<path d="M756 225h0"></path>
<path d="M827 225h0"></path>
<rect x="756" y="214" width="71" height="22" rx="10" ry="10"></rect>
<text x="791.5" y="229">"FROM"</text>
</g>
<path d="M827 225h10"></path>
<path d="M837 225h10"></path>
<g class="non-terminal">
<path d="M847 225h0"></path>
<path d="M918 225h0"></path>
<rect x="847" y="214" width="71" height="22"></rect>
<a xlink:href="#/abap/expression/Source"><text x="882.5" y="229">Source</text>
</a>
</g>
</g>
<path d="M1594.5 225a10 10 0 0 0 10 -10v-49a10 10 0 0 1 10 -10"></path>
<path d="M736 156a10 10 0 0 1 10 10v79a10 10 0 0 0 10 10"></path>
<g>
<path d="M756 255h0"></path>
<path d="M1594.5 255h0"></path>
<g class="terminal">
<path d="M756 255h0"></path>
<path d="M810 255h0"></path>
<rect x="756" y="244" width="54" height="22" rx="10" ry="10"></rect>
<text x="783" y="259">"BY"</text>
</g>
<path d="M810 255h10"></path>
<path d="M820 255h10"></path>
<g class="non-terminal">
<path d="M830 255h0"></path>
<path d="M977.5 255h0"></path>
<rect x="830" y="244" width="147.5" height="22"></rect>
<a xlink:href="#/abap/expression/AssociationName"><text x="903.75" y="259">AssociationName</text>
</a>
</g>
<path d="M977.5 255h10"></path>
<path d="M987.5 255h10"></path>
<g>
<path d="M997.5 255h0"></path>
<path d="M1594.5 255h0"></path>
<g class="terminal">
<path d="M997.5 255h0"></path>
<path d="M1085.5 255h0"></path>
<rect x="997.5" y="244" width="88" height="22" rx="10" ry="10"></rect>
<text x="1041.5" y="259">"FIELDS"</text>
</g>
<path d="M1085.5 255h10"></path>
<path d="M1095.5 255h10"></path>
<g class="terminal">
<path d="M1105.5 255h0"></path>
<path d="M1176.5 255h0"></path>
<rect x="1105.5" y="244" width="71" height="22" rx="10" ry="10"></rect>
<text x="1141" y="259">!" ( "</text>
</g>
<path d="M1176.5 255h10"></path>
<path d="M1186.5 255h10"></path>
<g>
<path d="M1196.5 255h0"></path>
<path d="M1321.5 255h0"></path>
<path d="M1196.5 255h10"></path>
<g class="non-terminal">
<path d="M1206.5 255h0"></path>
<path d="M1311.5 255h0"></path>
<rect x="1206.5" y="244" width="105" height="22"></rect>
<a xlink:href="#/abap/expression/SimpleName"><text x="1259" y="259">SimpleName</text>
</a>
</g>
<path d="M1311.5 255h10"></path>
<path d="M1206.5 255a10 10 0 0 0 -10 10v0a10 10 0 0 0 10 10"></path>
<g>
<path d="M1206.5 275h105"></path>
</g>
<path d="M1311.5 275a10 10 0 0 0 10 -10v0a10 10 0 0 0 -10 -10"></path>
</g>
<path d="M1321.5 255h10"></path>
<path d="M1331.5 255h10"></path>
<g class="terminal">
<path d="M1341.5 255h0"></path>
<path d="M1412.5 255h0"></path>
<rect x="1341.5" y="244" width="71" height="22" rx="10" ry="10"></rect>
<text x="1377" y="259">!" ) "</text>
</g>
<path d="M1412.5 255h10"></path>
<path d="M1422.5 255h10"></path>
<g class="terminal">
<path d="M1432.5 255h0"></path>
<path d="M1503.5 255h0"></path>
<rect x="1432.5" y="244" width="71" height="22" rx="10" ry="10"></rect>
<text x="1468" y="259">"WITH"</text>
</g>
<path d="M1503.5 255h10"></path>
<path d="M1513.5 255h10"></path>
<g class="non-terminal">
<path d="M1523.5 255h0"></path>
<path d="M1594.5 255h0"></path>
<rect x="1523.5" y="244" width="71" height="22"></rect>
<a xlink:href="#/abap/expression/Source"><text x="1559" y="259">Source</text>
</a>
</g>
</g>
</g>
<path d="M1594.5 255a10 10 0 0 0 10 -10v-79a10 10 0 0 1 10 -10"></path>
<path d="M736 156a10 10 0 0 1 10 10v118a10 10 0 0 0 10 10"></path>
<g>
<path d="M756 294h0"></path>
<path d="M1253 294h341.5"></path>
<g class="terminal">
<path d="M756 294h0"></path>
<path d="M810 294h0"></path>
<rect x="756" y="283" width="54" height="22" rx="10" ry="10"></rect>
<text x="783" y="298">"BY"</text>
</g>
<path d="M810 294h10"></path>
<path d="M820 294h10"></path>
<g class="non-terminal">
<path d="M830 294h0"></path>
<path d="M977.5 294h0"></path>
<rect x="830" y="283" width="147.5" height="22"></rect>
<a xlink:href="#/abap/expression/AssociationName"><text x="903.75" y="298">AssociationName</text>
</a>
</g>
<path d="M977.5 294h10"></path>
<path d="M987.5 294h10"></path>
<g>
<path d="M997.5 294h0"></path>
<path d="M1253 294h0"></path>
<g class="terminal">
<path d="M997.5 294h0"></path>
<path d="M1162 294h0"></path>
<rect x="997.5" y="283" width="164.5" height="22" rx="10" ry="10"></rect>
<text x="1079.75" y="298">"ALL FIELDS WITH"</text>
</g>
<path d="M1162 294h10"></path>
<path d="M1172 294h10"></path>
<g class="non-terminal">
<path d="M1182 294h0"></path>
<path d="M1253 294h0"></path>
<rect x="1182" y="283" width="71" height="22"></rect>
<a xlink:href="#/abap/expression/Source"><text x="1217.5" y="298">Source</text>
</a>
</g>
</g>
</g>
<path d="M1594.5 294a10 10 0 0 0 10 -10v-118a10 10 0 0 1 10 -10"></path>
</g>
<path d="M1614.5 156h10"></path>
<g>
<path d="M1624.5 156h0"></path>
<path d="M1803.5 156h0"></path>
<g class="terminal">
<path d="M1624.5 156h0"></path>
<path d="M1712.5 156h0"></path>
<rect x="1624.5" y="145" width="88" height="22" rx="10" ry="10"></rect>
<text x="1668.5" y="160">"RESULT"</text>
</g>
<path d="M1712.5 156h10"></path>
<path d="M1722.5 156h10"></path>
<g class="non-terminal">
<path d="M1732.5 156h0"></path>
<path d="M1803.5 156h0"></path>
<rect x="1732.5" y="145" width="71" height="22"></rect>
<a xlink:href="#/abap/expression/Target"><text x="1768" y="160">Target</text>
</a>
</g>
</g>
</g>
<path d="M1803.5 156h10"></path>
<path d="M736 156a10 10 0 0 0 -10 10v137a10 10 0 0 0 10 10"></path>
<g>
<path d="M736 313h1067.5"></path>
</g>
<path d="M1803.5 313a10 10 0 0 0 10 -10v-137a10 10 0 0 0 -10 -10"></path>
</g>
<path d="M1813.5 156h10"></path>
<g>
<path d="M1823.5 156h0"></path>
<path d="M2042.5 156h0"></path>
<path d="M1823.5 156a10 10 0 0 0 10 -10v0a10 10 0 0 1 10 -10"></path>
<g>
<path d="M1843.5 136h179"></path>
</g>
<path d="M2022.5 136a10 10 0 0 1 10 10v0a10 10 0 0 0 10 10"></path>
<path d="M1823.5 156h20"></path>
<g>
<path d="M1843.5 156h0"></path>
<path d="M2022.5 156h0"></path>
<g class="terminal">
<path d="M1843.5 156h0"></path>
<path d="M1931.5 156h0"></path>
<rect x="1843.5" y="145" width="88" height="22" rx="10" ry="10"></rect>
<text x="1887.5" y="160">"FAILED"</text>
</g>
<path d="M1931.5 156h10"></path>
<path d="M1941.5 156h10"></path>
<g class="non-terminal">
<path d="M1951.5 156h0"></path>
<path d="M2022.5 156h0"></path>
<rect x="1951.5" y="145" width="71" height="22"></rect>
<a xlink:href="#/abap/expression/Target"><text x="1987" y="160">Target</text>
</a>
</g>
</g>
<path d="M2022.5 156h20"></path>
</g>
<g>
<path d="M2042.5 156h0"></path>
<path d="M2278.5 156h0"></path>
<path d="M2042.5 156a10 10 0 0 0 10 -10v0a10 10 0 0 1 10 -10"></path>
<g>
<path d="M2062.5 136h196"></path>
</g>
<path d="M2258.5 136a10 10 0 0 1 10 10v0a10 10 0 0 0 10 10"></path>
<path d="M2042.5 156h20"></path>
<g>
<path d="M2062.5 156h0"></path>
<path d="M2258.5 156h0"></path>
<g class="terminal">
<path d="M2062.5 156h0"></path>
<path d="M2167.5 156h0"></path>
<rect x="2062.5" y="145" width="105" height="22" rx="10" ry="10"></rect>
<text x="2115" y="160">"REPORTED"</text>
</g>
<path d="M2167.5 156h10"></path>
<path d="M2177.5 156h10"></path>
<g class="non-terminal">
<path d="M2187.5 156h0"></path>
<path d="M2258.5 156h0"></path>
<rect x="2187.5" y="145" width="71" height="22"></rect>
<a xlink:href="#/abap/expression/Target"><text x="2223" y="160">Target</text>
</a>
</g>
</g>
<path d="M2258.5 156h20"></path>
</g>
</g>
<path d="M2703.5 156a10 10 0 0 0 10 -10v-96a10 10 0 0 1 10 -10"></path>
</g>
</g>
</g>
<path d="M2723.5 40h10"></path>
<path d="M 2733.5 40 h 20 m -10 -10 v 20 m 10 -20 v 20"></path>
</g>
</svg>
