<svg xmlns="http://www.w3.org/2000/svg" xmlns:xlink="http://www.w3.org/1999/xlink" class="railroad-diagram" width="1269.5" height="131" viewBox="0 0 1269.5 131">
<defs>
<style type="text/css"><![CDATA[
path {
stroke-width: 3;
stroke: black;
fill: rgba(0,0,0,0);
}
text {
font: bold 14px monospace;
text-anchor: middle;
}
text.diagram-text {
font-size: 12px;
}
a {
fill: blue;
}
text.diagram-arrow {
font-size: 16px;
}
text.label {
text-anchor: start;
}
text.comment {
font: italic 12px monospace;
}
rect {
stroke-width: 3;
stroke: black;
fill: #BCBCBC;
}
path.diagram-text {
stroke-width: 3;
stroke: black;
fill: #BCBCBC;
cursor: help;
}
]]></style>
</defs>
<g transform="translate(.5 .5)">
<g>
<path d="M20 21v20m10 -20v20m-10 -10h20"></path>
</g>
<path d="M40 31h10"></path>
<g>
<path d="M50 31h0"></path>
<path d="M1219.5 31h0"></path>
<g>
<path d="M50 31h0"></path>
<path d="M123 31h0"></path>
<text x="86.5" y="36" class="comment">not Cloud</text>
</g>
<path d="M123 31h10"></path>
<path d="M133 31h10"></path>
<g>
<path d="M143 31h0"></path>
<path d="M1219.5 31h0"></path>
<g class="terminal">
<path d="M143 31h0"></path>
<path d="M273.5 31h0"></path>
<rect x="143" y="20" width="130.5" height="22" rx="10" ry="10"></rect>
<text x="208.25" y="35">"DELETE FROM"</text>
</g>
<path d="M273.5 31h10"></path>
<g>
<path d="M283.5 31h0"></path>
<path d="M1219.5 31h0"></path>
<path d="M283.5 31h20"></path>
<g>
<path d="M303.5 31h0"></path>
<path d="M508 31h691.5"></path>
<g class="terminal">
<path d="M303.5 31h0"></path>
<path d="M417 31h0"></path>
<rect x="303.5" y="20" width="113.5" height="22" rx="10" ry="10"></rect>
<text x="360.25" y="35">"MEMORY ID"</text>
</g>
<path d="M417 31h10"></path>
<path d="M427 31h10"></path>
<g class="non-terminal">
<path d="M437 31h0"></path>
<path d="M508 31h0"></path>
<rect x="437" y="20" width="71" height="22"></rect>
<a xlink:href="#/abap/expression/Source"><text x="472.5" y="35">Source</text>
</a>
</g>
</g>
<path d="M1199.5 31h20"></path>
<path d="M283.5 31a10 10 0 0 1 10 10v19a10 10 0 0 0 10 10"></path>
<g>
<path d="M303.5 70h0"></path>
<path d="M1199.5 70h0"></path>
<g class="terminal">
<path d="M303.5 70h0"></path>
<path d="M391.5 70h0"></path>
<rect x="303.5" y="59" width="88" height="22" rx="10" ry="10"></rect>
<text x="347.5" y="74">"SHARED"</text>
</g>
<path d="M391.5 70h10"></path>
<g>
<path d="M401.5 70h0"></path>
<path d="M529.5 70h0"></path>
<path d="M401.5 70h20"></path>
<g class="terminal">
<path d="M421.5 70h0"></path>
<path d="M509.5 70h0"></path>
<rect x="421.5" y="59" width="88" height="22" rx="10" ry="10"></rect>
<text x="465.5" y="74">"MEMORY"</text>
</g>
<path d="M509.5 70h20"></path>
<path d="M401.5 70a10 10 0 0 1 10 10v10a10 10 0 0 0 10 10"></path>
<g class="terminal">
<path d="M421.5 100h0"></path>
<path d="M509.5 100h0"></path>
<rect x="421.5" y="89" width="88" height="22" rx="10" ry="10"></rect>
<text x="465.5" y="104">"BUFFER"</text>
</g>
<path d="M509.5 100a10 10 0 0 0 10 -10v-10a10 10 0 0 1 10 -10"></path>
</g>
<path d="M529.5 70h10"></path>
<g class="non-terminal">
<path d="M539.5 70h0"></path>
<path d="M602 70h0"></path>
<rect x="539.5" y="59" width="62.5" height="22"></rect>
<a xlink:href="#/abap/expression/Field"><text x="570.75" y="74">Field</text>
</a>
</g>
<path d="M602 70h10"></path>
<path d="M612 70h10"></path>
<g class="terminal">
<path d="M622 70h0"></path>
<path d="M667.5 70h0"></path>
<rect x="622" y="59" width="45.5" height="22" rx="10" ry="10"></rect>
<text x="644.75" y="74">"("</text>
</g>
<path d="M667.5 70h10"></path>
<path d="M677.5 70h10"></path>
<g class="non-terminal">
<path d="M687.5 70h0"></path>
<path d="M750 70h0"></path>
<rect x="687.5" y="59" width="62.5" height="22"></rect>
<a xlink:href="#/abap/expression/Field"><text x="718.75" y="74">Field</text>
</a>
</g>
<path d="M750 70h10"></path>
<path d="M760 70h10"></path>
<g class="terminal">
<path d="M770 70h0"></path>
<path d="M815.5 70h0"></path>
<rect x="770" y="59" width="45.5" height="22" rx="10" ry="10"></rect>
<text x="792.75" y="74">")"</text>
</g>
<path d="M815.5 70h10"></path>
<g>
<path d="M825.5 70h0"></path>
<path d="M1044.5 70h0"></path>
<path d="M825.5 70a10 10 0 0 0 10 -10v0a10 10 0 0 1 10 -10"></path>
<g>
<path d="M845.5 50h179"></path>
</g>
<path d="M1024.5 50a10 10 0 0 1 10 10v0a10 10 0 0 0 10 10"></path>
<path d="M825.5 70h20"></path>
<g>
<path d="M845.5 70h0"></path>
<path d="M1024.5 70h0"></path>
<g class="terminal">
<path d="M845.5 70h0"></path>
<path d="M933.5 70h0"></path>
<rect x="845.5" y="59" width="88" height="22" rx="10" ry="10"></rect>
<text x="889.5" y="74">"CLIENT"</text>
</g>
<path d="M933.5 70h10"></path>
<path d="M943.5 70h10"></path>
<g class="non-terminal">
<path d="M953.5 70h0"></path>
<path d="M1024.5 70h0"></path>
<rect x="953.5" y="59" width="71" height="22"></rect>
<a xlink:href="#/abap/expression/Source"><text x="989" y="74">Source</text>
</a>
</g>
</g>
<path d="M1024.5 70h20"></path>
</g>
<path d="M1044.5 70h10"></path>
<g>
<path d="M1054.5 70h0"></path>
<path d="M1199.5 70h0"></path>
<g class="terminal">
<path d="M1054.5 70h0"></path>
<path d="M1108.5 70h0"></path>
<rect x="1054.5" y="59" width="54" height="22" rx="10" ry="10"></rect>
<text x="1081.5" y="74">"ID"</text>
</g>
<path d="M1108.5 70h10"></path>
<path d="M1118.5 70h10"></path>
<g class="non-terminal">
<path d="M1128.5 70h0"></path>
<path d="M1199.5 70h0"></path>
<rect x="1128.5" y="59" width="71" height="22"></rect>
<a xlink:href="#/abap/expression/Source"><text x="1164" y="74">Source</text>
</a>
</g>
</g>
</g>
<path d="M1199.5 70a10 10 0 0 0 10 -10v-19a10 10 0 0 1 10 -10"></path>
</g>
</g>
</g>
<path d="M1219.5 31h10"></path>
<path d="M 1229.5 31 h 20 m -10 -10 v 20 m 10 -20 v 20"></path>
</g>
</svg>
