<svg xmlns="http://www.w3.org/2000/svg" xmlns:xlink="http://www.w3.org/1999/xlink" class="railroad-diagram" width="1292" height="625" viewBox="0 0 1292 625">
<defs>
<style type="text/css"><![CDATA[
path {
stroke-width: 3;
stroke: black;
fill: rgba(0,0,0,0);
}
text {
font: bold 14px monospace;
text-anchor: middle;
}
text.diagram-text {
font-size: 12px;
}
a {
fill: blue;
}
text.diagram-arrow {
font-size: 16px;
}
text.label {
text-anchor: start;
}
text.comment {
font: italic 12px monospace;
}
rect {
stroke-width: 3;
stroke: black;
fill: #BCBCBC;
}
path.diagram-text {
stroke-width: 3;
stroke: black;
fill: #BCBCBC;
cursor: help;
}
]]></style>
</defs>
<g transform="translate(.5 .5)">
<g>
<path d="M20 30v20m10 -20v20m-10 -10h20"></path>
</g>
<path d="M40 40h10"></path>
<g>
<path d="M50 40h0"></path>
<path d="M1242 40h0"></path>
<g class="comment ">
<path d="M50 40h0"></path>
<path d="M179 40h0"></path>
<text x="114.5" y="45" class="comment">not langver=Cloud</text>
</g>
<path d="M179 40h10"></path>
<path d="M189 40h10"></path>
<g>
<path d="M199 40h0"></path>
<path d="M1242 40h0"></path>
<g class="terminal ">
<path d="M199 40h0"></path>
<path d="M287 40h0"></path>
<rect x="199" y="29" width="88" height="22" rx="10" ry="10"></rect>
<text x="243" y="44">"MODIFY"</text>
</g>
<path d="M287 40h10"></path>
<g>
<path d="M297 40h0"></path>
<path d="M499 40h0"></path>
<path d="M297 40h20"></path>
<g class="terminal ">
<path d="M317 40h11.5"></path>
<path d="M467.5 40h11.5"></path>
<rect x="328.5" y="29" width="139" height="22" rx="10" ry="10"></rect>
<text x="398" y="44">"CURRENT LINE"</text>
</g>
<path d="M479 40h20"></path>
<path d="M297 40a10 10 0 0 1 10 10v10a10 10 0 0 0 10 10"></path>
<g>
<path d="M317 70h0"></path>
<path d="M479 70h0"></path>
<g class="terminal ">
<path d="M317 70h0"></path>
<path d="M388 70h0"></path>
<rect x="317" y="59" width="71" height="22" rx="10" ry="10"></rect>
<text x="352.5" y="74">"LINE"</text>
</g>
<path d="M388 70h10"></path>
<path d="M398 70h10"></path>
<g class="non-terminal ">
<path d="M408 70h0"></path>
<path d="M479 70h0"></path>
<rect x="408" y="59" width="71" height="22"></rect>
<a xlink:href="#/abap/expression/Source"><text x="443.5" y="74">Source</text>
</a>
</g>
</g>
<path d="M479 70a10 10 0 0 0 10 -10v-10a10 10 0 0 1 10 -10"></path>
</g>
<g>
<path d="M499 40h0"></path>
<path d="M1242 40h0"></path>
<path d="M499 40a10 10 0 0 0 10 -10v0a10 10 0 0 1 10 -10"></path>
<g>
<path d="M519 20h703"></path>
</g>
<path d="M1222 20a10 10 0 0 1 10 10v0a10 10 0 0 0 10 10"></path>
<path d="M499 40h20"></path>
<g>
<path d="M519 40h0"></path>
<path d="M1222 40h0"></path>
<path d="M549 40h10"></path>
<g>
<path d="M559 40h231.25"></path>
<path d="M960.75 40h231.25"></path>
<g class="terminal ">
<path d="M790.25 40h0"></path>
<path d="M869.75 40h0"></path>
<rect x="790.25" y="29" width="79.5" height="22" rx="10" ry="10"></rect>
<text x="830" y="44">"INDEX"</text>
</g>
<path d="M869.75 40h10"></path>
<path d="M879.75 40h10"></path>
<g class="non-terminal ">
<path d="M889.75 40h0"></path>
<path d="M960.75 40h0"></path>
<rect x="889.75" y="29" width="71" height="22"></rect>
<a xlink:href="#/abap/expression/Source"><text x="925.25" y="44">Source</text>
</a>
</g>
</g>
<path d="M1192 40h10"></path>
<path d="M549 40v29a10 10 0 0 0 10 10"></path>
<g>
<path d="M559 79h89.75"></path>
<path d="M1102.25 79h89.75"></path>
<g class="terminal ">
<path d="M648.75 79h0"></path>
<path d="M779.25 79h0"></path>
<rect x="648.75" y="68" width="130.5" height="22" rx="10" ry="10"></rect>
<text x="714" y="83">"FIELD VALUE"</text>
</g>
<path d="M779.25 79h10"></path>
<path d="M789.25 79h10"></path>
<g>
<path d="M799.25 79h0"></path>
<path d="M1102.25 79h0"></path>
<path d="M799.25 79h10"></path>
<g>
<path d="M809.25 79h0"></path>
<path d="M1092.25 79h0"></path>
<g class="non-terminal ">
<path d="M809.25 79h0"></path>
<path d="M880.25 79h0"></path>
<rect x="809.25" y="68" width="71" height="22"></rect>
<a xlink:href="#/abap/expression/Source"><text x="844.75" y="83">Source</text>
</a>
</g>
<path d="M880.25 79h10"></path>
<g>
<path d="M890.25 79h0"></path>
<path d="M1092.25 79h0"></path>
<path d="M890.25 79a10 10 0 0 0 10 -10v0a10 10 0 0 1 10 -10"></path>
<g>
<path d="M910.25 59h162"></path>
</g>
<path d="M1072.25 59a10 10 0 0 1 10 10v0a10 10 0 0 0 10 10"></path>
<path d="M890.25 79h20"></path>
<g>
<path d="M910.25 79h0"></path>
<path d="M1072.25 79h0"></path>
<g class="terminal ">
<path d="M910.25 79h0"></path>
<path d="M981.25 79h0"></path>
<rect x="910.25" y="68" width="71" height="22" rx="10" ry="10"></rect>
<text x="945.75" y="83">"FROM"</text>
</g>
<path d="M981.25 79h10"></path>
<path d="M991.25 79h10"></path>
<g class="non-terminal ">
<path d="M1001.25 79h0"></path>
<path d="M1072.25 79h0"></path>
<rect x="1001.25" y="68" width="71" height="22"></rect>
<a xlink:href="#/abap/expression/Source"><text x="1036.75" y="83">Source</text>
</a>
</g>
</g>
<path d="M1072.25 79h20"></path>
</g>
</g>
<path d="M1092.25 79h10"></path>
<path d="M809.25 79a10 10 0 0 0 -10 10v0a10 10 0 0 0 10 10"></path>
<g>
<path d="M809.25 99h283"></path>
</g>
<path d="M1092.25 99a10 10 0 0 0 10 -10v0a10 10 0 0 0 -10 -10"></path>
</g>
</g>
<path d="M1192 79a10 10 0 0 0 10 -10v-29"></path>
<path d="M549 40v85a10 10 0 0 0 10 10"></path>
<g>
<path d="M559 135h0"></path>
<path d="M1192 135h0"></path>
<g class="terminal ">
<path d="M559 135h0"></path>
<path d="M698 135h0"></path>
<rect x="559" y="124" width="139" height="22" rx="10" ry="10"></rect>
<text x="628.5" y="139">"FIELD FORMAT"</text>
</g>
<path d="M698 135h10"></path>
<path d="M708 135h10"></path>
<g class="non-terminal ">
<path d="M718 135h0"></path>
<path d="M789 135h0"></path>
<rect x="718" y="124" width="71" height="22"></rect>
<a xlink:href="#/abap/expression/Source"><text x="753.5" y="139">Source</text>
</a>
</g>
<path d="M789 135h10"></path>
<g>
<path d="M799 135h0"></path>
<path d="M1192 135h0"></path>
<path d="M799 135a10 10 0 0 0 10 -10v-8a10 10 0 0 1 10 -10"></path>
<g>
<path d="M819 107h353"></path>
</g>
<path d="M1172 107a10 10 0 0 1 10 10v8a10 10 0 0 0 10 10"></path>
<path d="M799 135h20"></path>
<g>
<path d="M819 135h0"></path>
<path d="M1172 135h0"></path>
<g>
<path d="M819 135h0"></path>
<path d="M955.5 135h0"></path>
<path d="M819 135h20"></path>
<g class="terminal ">
<path d="M839 135h0"></path>
<path d="M935.5 135h0"></path>
<rect x="839" y="124" width="96.5" height="22" rx="10" ry="10"></rect>
<text x="887.25" y="139">"INVERSE"</text>
</g>
<path d="M935.5 135h20"></path>
<path d="M819 135a10 10 0 0 1 10 10v10a10 10 0 0 0 10 10"></path>
<g class="terminal ">
<path d="M839 165h8.5"></path>
<path d="M927 165h8.5"></path>
<rect x="847.5" y="154" width="79.5" height="22" rx="10" ry="10"></rect>
<text x="887.25" y="169">"INPUT"</text>
</g>
<path d="M935.5 165a10 10 0 0 0 10 -10v-10a10 10 0 0 1 10 -10"></path>
<path d="M819 135a10 10 0 0 1 10 10v40a10 10 0 0 0 10 10"></path>
<g class="terminal ">
<path d="M839 195h8.5"></path>
<path d="M927 195h8.5"></path>
<rect x="847.5" y="184" width="79.5" height="22" rx="10" ry="10"></rect>
<text x="887.25" y="199">"COLOR"</text>
</g>
<path d="M935.5 195a10 10 0 0 0 10 -10v-40a10 10 0 0 1 10 -10"></path>
<path d="M819 135a10 10 0 0 1 10 10v70a10 10 0 0 0 10 10"></path>
<g class="terminal ">
<path d="M839 225h0"></path>
<path d="M935.5 225h0"></path>
<rect x="839" y="214" width="96.5" height="22" rx="10" ry="10"></rect>
<text x="887.25" y="229">"HOTSPOT"</text>
</g>
<path d="M935.5 225a10 10 0 0 0 10 -10v-70a10 10 0 0 1 10 -10"></path>
</g>
<g>
<path d="M955.5 135h0"></path>
<path d="M1172 135h0"></path>
<path d="M955.5 135a10 10 0 0 0 10 -10v0a10 10 0 0 1 10 -10"></path>
<g>
<path d="M975.5 115h176.5"></path>
</g>
<path d="M1152 115a10 10 0 0 1 10 10v0a10 10 0 0 0 10 10"></path>
<path d="M955.5 135h20"></path>
<g>
<path d="M975.5 135h0"></path>
<path d="M1152 135h0"></path>
<path d="M975.5 135h20"></path>
<g>
<path d="M995.5 135h0"></path>
<path d="M1132 135h0"></path>
<g class="terminal ">
<path d="M995.5 135h0"></path>
<path d="M1041 135h0"></path>
<rect x="995.5" y="124" width="45.5" height="22" rx="10" ry="10"></rect>
<text x="1018.25" y="139">"="</text>
</g>
<path d="M1041 135h10"></path>
<path d="M1051 135h10"></path>
<g class="non-terminal ">
<path d="M1061 135h0"></path>
<path d="M1132 135h0"></path>
<rect x="1061" y="124" width="71" height="22"></rect>
<a xlink:href="#/abap/expression/Source"><text x="1096.5" y="139">Source</text>
</a>
</g>
</g>
<path d="M1132 135h20"></path>
<path d="M975.5 135a10 10 0 0 1 10 10v10a10 10 0 0 0 10 10"></path>
<g>
<path d="M995.5 165h17"></path>
<path d="M1115 165h17"></path>
<path d="M1012.5 165h20"></path>
<g class="terminal ">
<path d="M1032.5 165h4.25"></path>
<path d="M1090.75 165h4.25"></path>
<rect x="1036.75" y="154" width="54" height="22" rx="10" ry="10"></rect>
<text x="1063.75" y="169">"ON"</text>
</g>
<path d="M1095 165h20"></path>
<path d="M1012.5 165a10 10 0 0 1 10 10v10a10 10 0 0 0 10 10"></path>
<g class="terminal ">
<path d="M1032.5 195h0"></path>
<path d="M1095 195h0"></path>
<rect x="1032.5" y="184" width="62.5" height="22" rx="10" ry="10"></rect>
<text x="1063.75" y="199">"OFF"</text>
</g>
<path d="M1095 195a10 10 0 0 0 10 -10v-10a10 10 0 0 1 10 -10"></path>
</g>
<path d="M1132 165a10 10 0 0 0 10 -10v-10a10 10 0 0 1 10 -10"></path>
</g>
<path d="M1152 135h20"></path>
</g>
</g>
<path d="M1172 135h20"></path>
</g>
</g>
<path d="M1192 135a10 10 0 0 0 10 -10v-85"></path>
<path d="M549 40v205a10 10 0 0 0 10 10"></path>
<g>
<path d="M559 255h222.75"></path>
<path d="M969.25 255h222.75"></path>
<g class="terminal ">
<path d="M781.75 255h0"></path>
<path d="M878.25 255h0"></path>
<rect x="781.75" y="244" width="96.5" height="22" rx="10" ry="10"></rect>
<text x="830" y="259">"OF PAGE"</text>
</g>
<path d="M878.25 255h10"></path>
<path d="M888.25 255h10"></path>
<g class="non-terminal ">
<path d="M898.25 255h0"></path>
<path d="M969.25 255h0"></path>
<rect x="898.25" y="244" width="71" height="22"></rect>
<a xlink:href="#/abap/expression/Source"><text x="933.75" y="259">Source</text>
</a>
</g>
</g>
<path d="M1192 255a10 10 0 0 0 10 -10v-205"></path>
<path d="M549 40v235a10 10 0 0 0 10 10"></path>
<g>
<path d="M559 285h64.75"></path>
<path d="M1127.25 285h64.75"></path>
<g class="terminal ">
<path d="M623.75 285h0"></path>
<path d="M754.25 285h0"></path>
<rect x="623.75" y="274" width="130.5" height="22" rx="10" ry="10"></rect>
<text x="689" y="289">"LINE FORMAT"</text>
</g>
<path d="M754.25 285h10"></path>
<path d="M764.25 285h10"></path>
<g>
<path d="M774.25 285h0"></path>
<path d="M1127.25 285h0"></path>
<path d="M804.25 285h10"></path>
<g class="terminal ">
<path d="M814.25 285h84.75"></path>
<path d="M1012.5 285h84.75"></path>
<rect x="899" y="274" width="113.5" height="22" rx="10" ry="10"></rect>
<text x="955.75" y="289">"INPUT OFF"</text>
</g>
<path d="M1097.25 285h10"></path>
<path d="M804.25 285v20a10 10 0 0 0 10 10"></path>
<g class="terminal ">
<path d="M814.25 315h93.25"></path>
<path d="M1004 315h93.25"></path>
<rect x="907.5" y="304" width="96.5" height="22" rx="10" ry="10"></rect>
<text x="955.75" y="319">"INVERSE"</text>
</g>
<path d="M1097.25 315a10 10 0 0 0 10 -10v-20"></path>
<path d="M804.25 285v50a10 10 0 0 0 10 10"></path>
<g class="terminal ">
<path d="M814.25 345h101.75"></path>
<path d="M995.5 345h101.75"></path>
<rect x="916" y="334" width="79.5" height="22" rx="10" ry="10"></rect>
<text x="955.75" y="349">"RESET"</text>
</g>
<path d="M1097.25 345a10 10 0 0 0 10 -10v-50"></path>
<path d="M804.25 285v89a10 10 0 0 0 10 10"></path>
<g>
<path d="M814.25 384h0"></path>
<path d="M1097.25 384h0"></path>
<g class="terminal ">
<path d="M814.25 384h0"></path>
<path d="M944.75 384h0"></path>
<rect x="814.25" y="373" width="130.5" height="22" rx="10" ry="10"></rect>
<text x="879.5" y="388">"INTENSIFIED"</text>
</g>
<path d="M944.75 384h10"></path>
<g>
<path d="M954.75 384h0"></path>
<path d="M1097.25 384h0"></path>
<path d="M954.75 384a10 10 0 0 0 10 -10v0a10 10 0 0 1 10 -10"></path>
<g>
<path d="M974.75 364h102.5"></path>
</g>
<path d="M1077.25 364a10 10 0 0 1 10 10v0a10 10 0 0 0 10 10"></path>
<path d="M954.75 384h20"></path>
<g>
<path d="M974.75 384h0"></path>
<path d="M1077.25 384h0"></path>
<path d="M974.75 384h20"></path>
<g class="terminal ">
<path d="M994.75 384h4.25"></path>
<path d="M1053 384h4.25"></path>
<rect x="999" y="373" width="54" height="22" rx="10" ry="10"></rect>
<text x="1026" y="388">"ON"</text>
</g>
<path d="M1057.25 384h20"></path>
<path d="M974.75 384a10 10 0 0 1 10 10v10a10 10 0 0 0 10 10"></path>
<g class="terminal ">
<path d="M994.75 414h0"></path>
<path d="M1057.25 414h0"></path>
<rect x="994.75" y="403" width="62.5" height="22" rx="10" ry="10"></rect>
<text x="1026" y="418">"OFF"</text>
</g>
<path d="M1057.25 414a10 10 0 0 0 10 -10v-10a10 10 0 0 1 10 -10"></path>
</g>
<path d="M1077.25 384h20"></path>
</g>
</g>
<path d="M1097.25 384a10 10 0 0 0 10 -10v-89"></path>
<path d="M804.25 285v149a10 10 0 0 0 10 10"></path>
<g class="non-terminal ">
<path d="M814.25 444h110.25"></path>
<path d="M987 444h110.25"></path>
<rect x="924.5" y="433" width="62.5" height="22"></rect>
<a xlink:href="#/abap/expression/Color"><text x="955.75" y="448">Color</text>
</a>
</g>
<path d="M1097.25 444a10 10 0 0 0 10 -10v-149"></path>
<g class="diagram-text">
<title>take one or more branches, once each, in any order</title>
<path d="M 804.25 275 h -26 a 4 4 0 0 0 -4 4 v 12 a 4 4 0 0 0 4 4 h 26 z" class="diagram-text"></path>
<text x="789.25" y="289" class="diagram-text">1+</text>
<path d="M 1107.25 275 h 16 a 4 4 0 0 1 4 4 v 12 a 4 4 0 0 1 -4 4 h -16 z" class="diagram-text"></path>
<path d="M 1114.25 283 a 4 4 0 1 0 6 -1 m 2.75 -1 h -4 v 4 m 0 -3 h 2" style="stroke-width: 1.75"></path>
</g>
</g>
</g>
<path d="M1192 285a10 10 0 0 0 10 -10v-235"></path>
<path d="M549 40v424a10 10 0 0 0 10 10"></path>
<g>
<path d="M559 474h188.75"></path>
<path d="M1003.25 474h188.75"></path>
<g class="terminal ">
<path d="M747.75 474h0"></path>
<path d="M912.25 474h0"></path>
<rect x="747.75" y="463" width="164.5" height="22" rx="10" ry="10"></rect>
<text x="830" y="478">"LINE VALUE FROM"</text>
</g>
<path d="M912.25 474h10"></path>
<path d="M922.25 474h10"></path>
<g class="non-terminal ">
<path d="M932.25 474h0"></path>
<path d="M1003.25 474h0"></path>
<rect x="932.25" y="463" width="71" height="22"></rect>
<a xlink:href="#/abap/expression/Source"><text x="967.75" y="478">Source</text>
</a>
</g>
</g>
<path d="M1192 474a10 10 0 0 0 10 -10v-424"></path>
<path d="M549 40v454a10 10 0 0 0 10 10"></path>
<g class="terminal ">
<path d="M559 504h234.25"></path>
<path d="M957.75 504h234.25"></path>
<rect x="793.25" y="493" width="164.5" height="22" rx="10" ry="10"></rect>
<text x="875.5" y="508">"OF CURRENT PAGE"</text>
</g>
<path d="M1192 504a10 10 0 0 0 10 -10v-454"></path>
<path d="M549 40v484a10 10 0 0 0 10 10"></path>
<g>
<path d="M559 534h195"></path>
<path d="M997 534h195"></path>
<g class="terminal ">
<path d="M754 534h0"></path>
<path d="M884.5 534h0"></path>
<rect x="754" y="523" width="130.5" height="22" rx="10" ry="10"></rect>
<text x="819.25" y="538">"INTENSIFIED"</text>
</g>
<path d="M884.5 534h10"></path>
<g>
<path d="M894.5 534h0"></path>
<path d="M997 534h0"></path>
<path d="M894.5 534h20"></path>
<g class="terminal ">
<path d="M914.5 534h4.25"></path>
<path d="M972.75 534h4.25"></path>
<rect x="918.75" y="523" width="54" height="22" rx="10" ry="10"></rect>
<text x="945.75" y="538">"ON"</text>
</g>
<path d="M977 534h20"></path>
<path d="M894.5 534a10 10 0 0 1 10 10v10a10 10 0 0 0 10 10"></path>
<g class="terminal ">
<path d="M914.5 564h0"></path>
<path d="M977 564h0"></path>
<rect x="914.5" y="553" width="62.5" height="22" rx="10" ry="10"></rect>
<text x="945.75" y="568">"OFF"</text>
</g>
<path d="M977 564a10 10 0 0 0 10 -10v-10a10 10 0 0 1 10 -10"></path>
</g>
</g>
<path d="M1192 534a10 10 0 0 0 10 -10v-484"></path>
<path d="M549 40v544a10 10 0 0 0 10 10"></path>
<g class="non-terminal ">
<path d="M559 594h285.25"></path>
<path d="M906.75 594h285.25"></path>
<rect x="844.25" y="583" width="62.5" height="22"></rect>
<a xlink:href="#/abap/expression/Color"><text x="875.5" y="598">Color</text>
</a>
</g>
<path d="M1192 594a10 10 0 0 0 10 -10v-544"></path>
<g class="diagram-text">
<title>take one or more branches, once each, in any order</title>
<path d="M 549 30 h -26 a 4 4 0 0 0 -4 4 v 12 a 4 4 0 0 0 4 4 h 26 z" class="diagram-text"></path>
<text x="534" y="44" class="diagram-text">1+</text>
<path d="M 1202 30 h 16 a 4 4 0 0 1 4 4 v 12 a 4 4 0 0 1 -4 4 h -16 z" class="diagram-text"></path>
<path d="M 1209 38 a 4 4 0 1 0 6 -1 m 2.75 -1 h -4 v 4 m 0 -3 h 2" style="stroke-width: 1.75"></path>
</g>
</g>
<path d="M1222 40h20"></path>
</g>
</g>
</g>
<path d="M1242 40h10"></path>
<path d="M 1252 40 h 20 m -10 -10 v 20 m 10 -20 v 20"></path>
</g>
</svg>
