<svg xmlns="http://www.w3.org/2000/svg" xmlns:xlink="http://www.w3.org/1999/xlink" class="railroad-diagram" width="906" height="62" viewBox="0 0 906 62">
<defs>
<style type="text/css"><![CDATA[
path {
stroke-width: 3;
stroke: black;
fill: rgba(0,0,0,0);
}
text {
font: bold 14px monospace;
text-anchor: middle;
}
text.diagram-text {
font-size: 12px;
}
a {
fill: blue;
}
text.diagram-arrow {
font-size: 16px;
}
text.label {
text-anchor: start;
}
text.comment {
font: italic 12px monospace;
}
rect {
stroke-width: 3;
stroke: black;
fill: #BCBCBC;
}
path.diagram-text {
stroke-width: 3;
stroke: black;
fill: #BCBCBC;
cursor: help;
}
]]></style>
</defs>
<g transform="translate(.5 .5)">
<g>
<path d="M20 21v20m10 -20v20m-10 -10h20"></path>
</g>
<path d="M40 31h10"></path>
<g>
<path d="M50 31h0"></path>
<path d="M856 31h0"></path>
<g>
<path d="M50 31h0"></path>
<path d="M123 31h0"></path>
<text x="86.5" y="36" class="comment">not Cloud</text>
</g>
<path d="M123 31h10"></path>
<path d="M133 31h10"></path>
<g>
<path d="M143 31h0"></path>
<path d="M856 31h0"></path>
<g class="terminal">
<path d="M143 31h0"></path>
<path d="M341.5 31h0"></path>
<rect x="143" y="20" width="198.5" height="22" rx="10" ry="10"></rect>
<text x="242.25" y="35">"GET LOCALE LANGUAGE"</text>
</g>
<path d="M341.5 31h10"></path>
<path d="M351.5 31h10"></path>
<g class="non-terminal">
<path d="M361.5 31h0"></path>
<path d="M432.5 31h0"></path>
<rect x="361.5" y="20" width="71" height="22"></rect>
<a xlink:href="#/abap/expression/Target"><text x="397" y="35">Target</text>
</a>
</g>
<path d="M432.5 31h10"></path>
<path d="M442.5 31h10"></path>
<g>
<path d="M452.5 31h0"></path>
<path d="M640 31h0"></path>
<g class="terminal">
<path d="M452.5 31h0"></path>
<path d="M549 31h0"></path>
<rect x="452.5" y="20" width="96.5" height="22" rx="10" ry="10"></rect>
<text x="500.75" y="35">"COUNTRY"</text>
</g>
<path d="M549 31h10"></path>
<path d="M559 31h10"></path>
<g class="non-terminal">
<path d="M569 31h0"></path>
<path d="M640 31h0"></path>
<rect x="569" y="20" width="71" height="22"></rect>
<a xlink:href="#/abap/expression/Target"><text x="604.5" y="35">Target</text>
</a>
</g>
</g>
<path d="M640 31h10"></path>
<path d="M650 31h10"></path>
<g>
<path d="M660 31h0"></path>
<path d="M856 31h0"></path>
<g class="terminal">
<path d="M660 31h0"></path>
<path d="M765 31h0"></path>
<rect x="660" y="20" width="105" height="22" rx="10" ry="10"></rect>
<text x="712.5" y="35">"MODIFIER"</text>
</g>
<path d="M765 31h10"></path>
<path d="M775 31h10"></path>
<g class="non-terminal">
<path d="M785 31h0"></path>
<path d="M856 31h0"></path>
<rect x="785" y="20" width="71" height="22"></rect>
<a xlink:href="#/abap/expression/Target"><text x="820.5" y="35">Target</text>
</a>
</g>
</g>
</g>
</g>
<path d="M856 31h10"></path>
<path d="M 866 31 h 20 m -10 -10 v 20 m 10 -20 v 20"></path>
</g>
</svg>
