<svg xmlns="http://www.w3.org/2000/svg" xmlns:xlink="http://www.w3.org/1999/xlink" class="railroad-diagram" width="996" height="452" viewBox="0 0 996 452">
<defs>
<style type="text/css"><![CDATA[
path {
stroke-width: 3;
stroke: black;
fill: rgba(0,0,0,0);
}
text {
font: bold 14px monospace;
text-anchor: middle;
}
text.diagram-text {
font-size: 12px;
}
a {
fill: blue;
}
text.diagram-arrow {
font-size: 16px;
}
text.label {
text-anchor: start;
}
text.comment {
font: italic 12px monospace;
}
rect {
stroke-width: 3;
stroke: black;
fill: #BCBCBC;
}
path.diagram-text {
stroke-width: 3;
stroke: black;
fill: #BCBCBC;
cursor: help;
}
]]></style>
</defs>
<g transform="translate(.5 .5)">
<g>
<path d="M20 21v20m10 -20v20m-10 -10h20"></path>
</g>
<path d="M40 31h10"></path>
<g>
<path d="M50 31h0"></path>
<path d="M946 31h0"></path>
<g class="terminal ">
<path d="M50 31h0"></path>
<path d="M146.5 31h0"></path>
<rect x="50" y="20" width="96.5" height="22" rx="10" ry="10"></rect>
<text x="98.25" y="35">"CONVERT"</text>
</g>
<path d="M146.5 31h10"></path>
<g>
<path d="M156.5 31h0"></path>
<path d="M946 31h0"></path>
<path d="M156.5 31h20"></path>
<g>
<path d="M176.5 31h61.75"></path>
<path d="M864.25 31h61.75"></path>
<g class="terminal ">
<path d="M238.25 31h0"></path>
<path d="M360.25 31h0"></path>
<rect x="238.25" y="20" width="122" height="22" rx="10" ry="10"></rect>
<text x="299.25" y="35">"TIME STAMP"</text>
</g>
<path d="M360.25 31h10"></path>
<path d="M370.25 31h10"></path>
<g class="non-terminal ">
<path d="M380.25 31h0"></path>
<path d="M451.25 31h0"></path>
<rect x="380.25" y="20" width="71" height="22"></rect>
<a xlink:href="#/abap/expression/Source"><text x="415.75" y="35">Source</text>
</a>
</g>
<path d="M451.25 31h10"></path>
<path d="M461.25 31h10"></path>
<g>
<path d="M471.25 31h0"></path>
<path d="M864.25 31h0"></path>
<path d="M501.25 31h10"></path>
<g>
<path d="M511.25 31h59.25"></path>
<path d="M775 31h59.25"></path>
<g class="terminal ">
<path d="M570.5 31h0"></path>
<path d="M684 31h0"></path>
<rect x="570.5" y="20" width="113.5" height="22" rx="10" ry="10"></rect>
<text x="627.25" y="35">"TIME ZONE"</text>
</g>
<path d="M684 31h10"></path>
<path d="M694 31h10"></path>
<g class="non-terminal ">
<path d="M704 31h0"></path>
<path d="M775 31h0"></path>
<rect x="704" y="20" width="71" height="22"></rect>
<a xlink:href="#/abap/expression/Source"><text x="739.5" y="35">Source</text>
</a>
</g>
</g>
<path d="M834.25 31h10"></path>
<path d="M501.25 31v20a10 10 0 0 0 10 10"></path>
<g>
<path d="M511.25 61h0"></path>
<path d="M834.25 61h0"></path>
<g class="terminal ">
<path d="M511.25 61h0"></path>
<path d="M582.25 61h0"></path>
<rect x="511.25" y="50" width="71" height="22" rx="10" ry="10"></rect>
<text x="546.75" y="65">"INTO"</text>
</g>
<path d="M582.25 61h10"></path>
<path d="M592.25 61h10"></path>
<g>
<path d="M602.25 61h0"></path>
<path d="M834.25 61h0"></path>
<path d="M632.25 61h10"></path>
<g>
<path d="M642.25 61h0"></path>
<path d="M804.25 61h0"></path>
<g class="terminal ">
<path d="M642.25 61h0"></path>
<path d="M713.25 61h0"></path>
<rect x="642.25" y="50" width="71" height="22" rx="10" ry="10"></rect>
<text x="677.75" y="65">"TIME"</text>
</g>
<path d="M713.25 61h10"></path>
<path d="M723.25 61h10"></path>
<g class="non-terminal ">
<path d="M733.25 61h0"></path>
<path d="M804.25 61h0"></path>
<rect x="733.25" y="50" width="71" height="22"></rect>
<a xlink:href="#/abap/expression/Target"><text x="768.75" y="65">Target</text>
</a>
</g>
</g>
<path d="M804.25 61h10"></path>
<path d="M632.25 61v20a10 10 0 0 0 10 10"></path>
<g>
<path d="M642.25 91h0"></path>
<path d="M804.25 91h0"></path>
<g class="terminal ">
<path d="M642.25 91h0"></path>
<path d="M713.25 91h0"></path>
<rect x="642.25" y="80" width="71" height="22" rx="10" ry="10"></rect>
<text x="677.75" y="95">"DATE"</text>
</g>
<path d="M713.25 91h10"></path>
<path d="M723.25 91h10"></path>
<g class="non-terminal ">
<path d="M733.25 91h0"></path>
<path d="M804.25 91h0"></path>
<rect x="733.25" y="80" width="71" height="22"></rect>
<a xlink:href="#/abap/expression/Target"><text x="768.75" y="95">Target</text>
</a>
</g>
</g>
<path d="M804.25 91a10 10 0 0 0 10 -10v-20"></path>
<g class="diagram-text">
<title>take one or more branches, once each, in any order</title>
<path d="M 632.25 51 h -26 a 4 4 0 0 0 -4 4 v 12 a 4 4 0 0 0 4 4 h 26 z" class="diagram-text"></path>
<text x="617.25" y="65" class="diagram-text">1+</text>
<path d="M 814.25 51 h 16 a 4 4 0 0 1 4 4 v 12 a 4 4 0 0 1 -4 4 h -16 z" class="diagram-text"></path>
<path d="M 821.25 59 a 4 4 0 1 0 6 -1 m 2.75 -1 h -4 v 4 m 0 -3 h 2" style="stroke-width: 1.75"></path>
</g>
</g>
</g>
<path d="M834.25 61a10 10 0 0 0 10 -10v-20"></path>
<path d="M501.25 31v80a10 10 0 0 0 10 10"></path>
<g>
<path d="M511.25 121h12.5"></path>
<path d="M821.75 121h12.5"></path>
<g class="terminal ">
<path d="M523.75 121h0"></path>
<path d="M730.75 121h0"></path>
<rect x="523.75" y="110" width="207" height="22" rx="10" ry="10"></rect>
<text x="627.25" y="125">"DAYLIGHT SAVING TIME"</text>
</g>
<path d="M730.75 121h10"></path>
<path d="M740.75 121h10"></path>
<g class="non-terminal ">
<path d="M750.75 121h0"></path>
<path d="M821.75 121h0"></path>
<rect x="750.75" y="110" width="71" height="22"></rect>
<a xlink:href="#/abap/expression/Target"><text x="786.25" y="125">Target</text>
</a>
</g>
</g>
<path d="M834.25 121a10 10 0 0 0 10 -10v-80"></path>
<g class="diagram-text">
<title>take one or more branches, once each, in any order</title>
<path d="M 501.25 21 h -26 a 4 4 0 0 0 -4 4 v 12 a 4 4 0 0 0 4 4 h 26 z" class="diagram-text"></path>
<text x="486.25" y="35" class="diagram-text">1+</text>
<path d="M 844.25 21 h 16 a 4 4 0 0 1 4 4 v 12 a 4 4 0 0 1 -4 4 h -16 z" class="diagram-text"></path>
<path d="M 851.25 29 a 4 4 0 1 0 6 -1 m 2.75 -1 h -4 v 4 m 0 -3 h 2" style="stroke-width: 1.75"></path>
</g>
</g>
</g>
<path d="M926 31h20"></path>
<path d="M156.5 31a10 10 0 0 1 10 10v100a10 10 0 0 0 10 10"></path>
<g>
<path d="M176.5 151h64.75"></path>
<path d="M861.25 151h64.75"></path>
<g>
<path d="M241.25 151h0"></path>
<path d="M473.25 151h0"></path>
<path d="M271.25 151h10"></path>
<g>
<path d="M281.25 151h0"></path>
<path d="M443.25 151h0"></path>
<g class="terminal ">
<path d="M281.25 151h0"></path>
<path d="M352.25 151h0"></path>
<rect x="281.25" y="140" width="71" height="22" rx="10" ry="10"></rect>
<text x="316.75" y="155">"DATE"</text>
</g>
<path d="M352.25 151h10"></path>
<path d="M362.25 151h10"></path>
<g class="non-terminal ">
<path d="M372.25 151h0"></path>
<path d="M443.25 151h0"></path>
<rect x="372.25" y="140" width="71" height="22"></rect>
<a xlink:href="#/abap/expression/Source"><text x="407.75" y="155">Source</text>
</a>
</g>
</g>
<path d="M443.25 151h10"></path>
<path d="M271.25 151v20a10 10 0 0 0 10 10"></path>
<g>
<path d="M281.25 181h0"></path>
<path d="M443.25 181h0"></path>
<g class="terminal ">
<path d="M281.25 181h0"></path>
<path d="M352.25 181h0"></path>
<rect x="281.25" y="170" width="71" height="22" rx="10" ry="10"></rect>
<text x="316.75" y="185">"TIME"</text>
</g>
<path d="M352.25 181h10"></path>
<path d="M362.25 181h10"></path>
<g class="non-terminal ">
<path d="M372.25 181h0"></path>
<path d="M443.25 181h0"></path>
<rect x="372.25" y="170" width="71" height="22"></rect>
<a xlink:href="#/abap/expression/Source"><text x="407.75" y="185">Source</text>
</a>
</g>
</g>
<path d="M443.25 181a10 10 0 0 0 10 -10v-20"></path>
<g class="diagram-text">
<title>take one or more branches, once each, in any order</title>
<path d="M 271.25 141 h -26 a 4 4 0 0 0 -4 4 v 12 a 4 4 0 0 0 4 4 h 26 z" class="diagram-text"></path>
<text x="256.25" y="155" class="diagram-text">1+</text>
<path d="M 453.25 141 h 16 a 4 4 0 0 1 4 4 v 12 a 4 4 0 0 1 -4 4 h -16 z" class="diagram-text"></path>
<path d="M 460.25 149 a 4 4 0 1 0 6 -1 m 2.75 -1 h -4 v 4 m 0 -3 h 2" style="stroke-width: 1.75"></path>
</g>
</g>
<path d="M473.25 151h10"></path>
<path d="M483.25 151h10"></path>
<g>
<path d="M493.25 151h0"></path>
<path d="M861.25 151h0"></path>
<path d="M523.25 151h10"></path>
<g>
<path d="M533.25 151h0"></path>
<path d="M831.25 151h0"></path>
<g class="terminal ">
<path d="M533.25 151h0"></path>
<path d="M740.25 151h0"></path>
<rect x="533.25" y="140" width="207" height="22" rx="10" ry="10"></rect>
<text x="636.75" y="155">"DAYLIGHT SAVING TIME"</text>
</g>
<path d="M740.25 151h10"></path>
<path d="M750.25 151h10"></path>
<g class="non-terminal ">
<path d="M760.25 151h0"></path>
<path d="M831.25 151h0"></path>
<rect x="760.25" y="140" width="71" height="22"></rect>
<a xlink:href="#/abap/expression/Source"><text x="795.75" y="155">Source</text>
</a>
</g>
</g>
<path d="M831.25 151h10"></path>
<path d="M523.25 151v20a10 10 0 0 0 10 10"></path>
<g>
<path d="M533.25 181h21.25"></path>
<path d="M810 181h21.25"></path>
<g class="terminal ">
<path d="M554.5 181h0"></path>
<path d="M719 181h0"></path>
<rect x="554.5" y="170" width="164.5" height="22" rx="10" ry="10"></rect>
<text x="636.75" y="185">"INTO TIME STAMP"</text>
</g>
<path d="M719 181h10"></path>
<path d="M729 181h10"></path>
<g class="non-terminal ">
<path d="M739 181h0"></path>
<path d="M810 181h0"></path>
<rect x="739" y="170" width="71" height="22"></rect>
<a xlink:href="#/abap/expression/Target"><text x="774.5" y="185">Target</text>
</a>
</g>
</g>
<path d="M831.25 181a10 10 0 0 0 10 -10v-20"></path>
<path d="M523.25 151v50a10 10 0 0 0 10 10"></path>
<g>
<path d="M533.25 211h46.75"></path>
<path d="M784.5 211h46.75"></path>
<g class="terminal ">
<path d="M580 211h0"></path>
<path d="M693.5 211h0"></path>
<rect x="580" y="200" width="113.5" height="22" rx="10" ry="10"></rect>
<text x="636.75" y="215">"TIME ZONE"</text>
</g>
<path d="M693.5 211h10"></path>
<path d="M703.5 211h10"></path>
<g class="non-terminal ">
<path d="M713.5 211h0"></path>
<path d="M784.5 211h0"></path>
<rect x="713.5" y="200" width="71" height="22"></rect>
<a xlink:href="#/abap/expression/Source"><text x="749" y="215">Source</text>
</a>
</g>
</g>
<path d="M831.25 211a10 10 0 0 0 10 -10v-50"></path>
<path d="M523.25 151v80a10 10 0 0 0 10 10"></path>
<g>
<path d="M533.25 241h8.5"></path>
<path d="M822.75 241h8.5"></path>
<g class="terminal ">
<path d="M541.75 241h0"></path>
<path d="M731.75 241h0"></path>
<rect x="541.75" y="230" width="190" height="22" rx="10" ry="10"></rect>
<text x="636.75" y="245">"INTO INVERTED-DATE"</text>
</g>
<path d="M731.75 241h10"></path>
<path d="M741.75 241h10"></path>
<g class="non-terminal ">
<path d="M751.75 241h0"></path>
<path d="M822.75 241h0"></path>
<rect x="751.75" y="230" width="71" height="22"></rect>
<a xlink:href="#/abap/expression/Target"><text x="787.25" y="245">Target</text>
</a>
</g>
</g>
<path d="M831.25 241a10 10 0 0 0 10 -10v-80"></path>
<path d="M523.25 151v110a10 10 0 0 0 10 10"></path>
<g>
<path d="M533.25 271h5"></path>
<path d="M826.25 271h5"></path>
<g class="comment ">
<path d="M538.25 271h0"></path>
<path d="M576.25 271h0"></path>
<text x="557.25" y="276" class="comment">v754</text>
</g>
<path d="M576.25 271h10"></path>
<path d="M586.25 271h10"></path>
<g>
<path d="M596.25 271h0"></path>
<path d="M826.25 271h0"></path>
<g class="terminal ">
<path d="M596.25 271h0"></path>
<path d="M735.25 271h0"></path>
<rect x="596.25" y="260" width="139" height="22" rx="10" ry="10"></rect>
<text x="665.75" y="275">"INTO UTCLONG"</text>
</g>
<path d="M735.25 271h10"></path>
<path d="M745.25 271h10"></path>
<g class="non-terminal ">
<path d="M755.25 271h0"></path>
<path d="M826.25 271h0"></path>
<rect x="755.25" y="260" width="71" height="22"></rect>
<a xlink:href="#/abap/expression/Target"><text x="790.75" y="275">Target</text>
</a>
</g>
</g>
</g>
<path d="M831.25 271a10 10 0 0 0 10 -10v-110"></path>
<g class="diagram-text">
<title>take one or more branches, once each, in any order</title>
<path d="M 523.25 141 h -26 a 4 4 0 0 0 -4 4 v 12 a 4 4 0 0 0 4 4 h 26 z" class="diagram-text"></path>
<text x="508.25" y="155" class="diagram-text">1+</text>
<path d="M 841.25 141 h 16 a 4 4 0 0 1 4 4 v 12 a 4 4 0 0 1 -4 4 h -16 z" class="diagram-text"></path>
<path d="M 848.25 149 a 4 4 0 1 0 6 -1 m 2.75 -1 h -4 v 4 m 0 -3 h 2" style="stroke-width: 1.75"></path>
</g>
</g>
</g>
<path d="M926 151a10 10 0 0 0 10 -10v-100a10 10 0 0 1 10 -10"></path>
<path d="M156.5 31a10 10 0 0 1 10 10v250a10 10 0 0 0 10 10"></path>
<g>
<path d="M176.5 301h143.25"></path>
<path d="M782.75 301h143.25"></path>
<g class="terminal ">
<path d="M319.75 301h0"></path>
<path d="M467.25 301h0"></path>
<rect x="319.75" y="290" width="147.5" height="22" rx="10" ry="10"></rect>
<text x="393.5" y="305">"INVERTED-DATE"</text>
</g>
<path d="M467.25 301h10"></path>
<path d="M477.25 301h10"></path>
<g class="non-terminal ">
<path d="M487.25 301h0"></path>
<path d="M558.25 301h0"></path>
<rect x="487.25" y="290" width="71" height="22"></rect>
<a xlink:href="#/abap/expression/Source"><text x="522.75" y="305">Source</text>
</a>
</g>
<path d="M558.25 301h10"></path>
<path d="M568.25 301h10"></path>
<g class="terminal ">
<path d="M578.25 301h0"></path>
<path d="M691.75 301h0"></path>
<rect x="578.25" y="290" width="113.5" height="22" rx="10" ry="10"></rect>
<text x="635" y="305">"INTO DATE"</text>
</g>
<path d="M691.75 301h10"></path>
<path d="M701.75 301h10"></path>
<g class="non-terminal ">
<path d="M711.75 301h0"></path>
<path d="M782.75 301h0"></path>
<rect x="711.75" y="290" width="71" height="22"></rect>
<a xlink:href="#/abap/expression/Target"><text x="747.25" y="305">Target</text>
</a>
</g>
</g>
<path d="M926 301a10 10 0 0 0 10 -10v-250a10 10 0 0 1 10 -10"></path>
<path d="M156.5 31a10 10 0 0 1 10 10v280a10 10 0 0 0 10 10"></path>
<g>
<path d="M176.5 331h0"></path>
<path d="M926 331h0"></path>
<g class="comment ">
<path d="M176.5 331h0"></path>
<path d="M305.5 331h0"></path>
<text x="241" y="336" class="comment">v754 or open-abap</text>
</g>
<path d="M305.5 331h10"></path>
<path d="M315.5 331h10"></path>
<g>
<path d="M325.5 331h0"></path>
<path d="M926 331h0"></path>
<g class="terminal ">
<path d="M325.5 331h0"></path>
<path d="M422 331h0"></path>
<rect x="325.5" y="320" width="96.5" height="22" rx="10" ry="10"></rect>
<text x="373.75" y="335">"UTCLONG"</text>
</g>
<path d="M422 331h10"></path>
<path d="M432 331h10"></path>
<g class="non-terminal ">
<path d="M442 331h0"></path>
<path d="M513 331h0"></path>
<rect x="442" y="320" width="71" height="22"></rect>
<a xlink:href="#/abap/expression/Source"><text x="477.5" y="335">Source</text>
</a>
</g>
<path d="M513 331h10"></path>
<path d="M523 331h10"></path>
<g>
<path d="M533 331h0"></path>
<path d="M926 331h0"></path>
<path d="M563 331h10"></path>
<g>
<path d="M573 331h59.25"></path>
<path d="M836.75 331h59.25"></path>
<g class="terminal ">
<path d="M632.25 331h0"></path>
<path d="M745.75 331h0"></path>
<rect x="632.25" y="320" width="113.5" height="22" rx="10" ry="10"></rect>
<text x="689" y="335">"TIME ZONE"</text>
</g>
<path d="M745.75 331h10"></path>
<path d="M755.75 331h10"></path>
<g class="non-terminal ">
<path d="M765.75 331h0"></path>
<path d="M836.75 331h0"></path>
<rect x="765.75" y="320" width="71" height="22"></rect>
<a xlink:href="#/abap/expression/Source"><text x="801.25" y="335">Source</text>
</a>
</g>
</g>
<path d="M896 331h10"></path>
<path d="M563 331v20a10 10 0 0 0 10 10"></path>
<g>
<path d="M573 361h0"></path>
<path d="M896 361h0"></path>
<g class="terminal ">
<path d="M573 361h0"></path>
<path d="M644 361h0"></path>
<rect x="573" y="350" width="71" height="22" rx="10" ry="10"></rect>
<text x="608.5" y="365">"INTO"</text>
</g>
<path d="M644 361h10"></path>
<path d="M654 361h10"></path>
<g>
<path d="M664 361h0"></path>
<path d="M896 361h0"></path>
<path d="M694 361h10"></path>
<g>
<path d="M704 361h0"></path>
<path d="M866 361h0"></path>
<g class="terminal ">
<path d="M704 361h0"></path>
<path d="M775 361h0"></path>
<rect x="704" y="350" width="71" height="22" rx="10" ry="10"></rect>
<text x="739.5" y="365">"TIME"</text>
</g>
<path d="M775 361h10"></path>
<path d="M785 361h10"></path>
<g class="non-terminal ">
<path d="M795 361h0"></path>
<path d="M866 361h0"></path>
<rect x="795" y="350" width="71" height="22"></rect>
<a xlink:href="#/abap/expression/Target"><text x="830.5" y="365">Target</text>
</a>
</g>
</g>
<path d="M866 361h10"></path>
<path d="M694 361v20a10 10 0 0 0 10 10"></path>
<g>
<path d="M704 391h0"></path>
<path d="M866 391h0"></path>
<g class="terminal ">
<path d="M704 391h0"></path>
<path d="M775 391h0"></path>
<rect x="704" y="380" width="71" height="22" rx="10" ry="10"></rect>
<text x="739.5" y="395">"DATE"</text>
</g>
<path d="M775 391h10"></path>
<path d="M785 391h10"></path>
<g class="non-terminal ">
<path d="M795 391h0"></path>
<path d="M866 391h0"></path>
<rect x="795" y="380" width="71" height="22"></rect>
<a xlink:href="#/abap/expression/Target"><text x="830.5" y="395">Target</text>
</a>
</g>
</g>
<path d="M866 391a10 10 0 0 0 10 -10v-20"></path>
<g class="diagram-text">
<title>take one or more branches, once each, in any order</title>
<path d="M 694 351 h -26 a 4 4 0 0 0 -4 4 v 12 a 4 4 0 0 0 4 4 h 26 z" class="diagram-text"></path>
<text x="679" y="365" class="diagram-text">1+</text>
<path d="M 876 351 h 16 a 4 4 0 0 1 4 4 v 12 a 4 4 0 0 1 -4 4 h -16 z" class="diagram-text"></path>
<path d="M 883 359 a 4 4 0 1 0 6 -1 m 2.75 -1 h -4 v 4 m 0 -3 h 2" style="stroke-width: 1.75"></path>
</g>
</g>
</g>
<path d="M896 361a10 10 0 0 0 10 -10v-20"></path>
<path d="M563 331v80a10 10 0 0 0 10 10"></path>
<g>
<path d="M573 421h12.5"></path>
<path d="M883.5 421h12.5"></path>
<g class="terminal ">
<path d="M585.5 421h0"></path>
<path d="M792.5 421h0"></path>
<rect x="585.5" y="410" width="207" height="22" rx="10" ry="10"></rect>
<text x="689" y="425">"DAYLIGHT SAVING TIME"</text>
</g>
<path d="M792.5 421h10"></path>
<path d="M802.5 421h10"></path>
<g class="non-terminal ">
<path d="M812.5 421h0"></path>
<path d="M883.5 421h0"></path>
<rect x="812.5" y="410" width="71" height="22"></rect>
<a xlink:href="#/abap/expression/Source"><text x="848" y="425">Source</text>
</a>
</g>
</g>
<path d="M896 421a10 10 0 0 0 10 -10v-80"></path>
<g class="diagram-text">
<title>take one or more branches, once each, in any order</title>
<path d="M 563 321 h -26 a 4 4 0 0 0 -4 4 v 12 a 4 4 0 0 0 4 4 h 26 z" class="diagram-text"></path>
<text x="548" y="335" class="diagram-text">1+</text>
<path d="M 906 321 h 16 a 4 4 0 0 1 4 4 v 12 a 4 4 0 0 1 -4 4 h -16 z" class="diagram-text"></path>
<path d="M 913 329 a 4 4 0 1 0 6 -1 m 2.75 -1 h -4 v 4 m 0 -3 h 2" style="stroke-width: 1.75"></path>
</g>
</g>
</g>
</g>
<path d="M926 331a10 10 0 0 0 10 -10v-280a10 10 0 0 1 10 -10"></path>
</g>
</g>
<path d="M946 31h10"></path>
<path d="M 956 31 h 20 m -10 -10 v 20 m 10 -20 v 20"></path>
</g>
</svg>
