<svg xmlns="http://www.w3.org/2000/svg" xmlns:xlink="http://www.w3.org/1999/xlink" class="railroad-diagram" width="1007.5" height="551" viewBox="0 0 1007.5 551">
<defs>
<style type="text/css"><![CDATA[
path {
stroke-width: 3;
stroke: black;
fill: rgba(0,0,0,0);
}
text {
font: bold 14px monospace;
text-anchor: middle;
}
text.diagram-text {
font-size: 12px;
}
a {
fill: blue;
}
text.diagram-arrow {
font-size: 16px;
}
text.label {
text-anchor: start;
}
text.comment {
font: italic 12px monospace;
}
rect {
stroke-width: 3;
stroke: black;
fill: #BCBCBC;
}
path.diagram-text {
stroke-width: 3;
stroke: black;
fill: #BCBCBC;
cursor: help;
}
]]></style>
</defs>
<g transform="translate(.5 .5)">
<g>
<path d="M20 30v20m10 -20v20m-10 -10h20"></path>
</g>
<path d="M40 40h10"></path>
<g>
<path d="M50 40h0"></path>
<path d="M957.5 40h0"></path>
<g class="terminal ">
<path d="M50 40h0"></path>
<path d="M129.5 40h0"></path>
<rect x="50" y="29" width="79.5" height="22" rx="10" ry="10"></rect>
<text x="89.75" y="44">"CLASS"</text>
</g>
<path d="M129.5 40h10"></path>
<path d="M139.5 40h10"></path>
<g class="non-terminal ">
<path d="M149.5 40h0"></path>
<path d="M246 40h0"></path>
<rect x="149.5" y="29" width="96.5" height="22"></rect>
<a xlink:href="#/abap/expression/ClassName"><text x="197.75" y="44">ClassName</text>
</a>
</g>
<path d="M246 40h10"></path>
<path d="M256 40h10"></path>
<g>
<path d="M266 40h0"></path>
<path d="M957.5 40h0"></path>
<g class="terminal ">
<path d="M266 40h0"></path>
<path d="M388 40h0"></path>
<rect x="266" y="29" width="122" height="22" rx="10" ry="10"></rect>
<text x="327" y="44">"DEFINITION"</text>
</g>
<path d="M388 40h10"></path>
<g>
<path d="M398 40h0"></path>
<path d="M957.5 40h0"></path>
<path d="M398 40a10 10 0 0 0 10 -10v0a10 10 0 0 1 10 -10"></path>
<g>
<path d="M418 20h519.5"></path>
</g>
<path d="M937.5 20a10 10 0 0 1 10 10v0a10 10 0 0 0 10 10"></path>
<path d="M398 40h20"></path>
<g>
<path d="M418 40h0"></path>
<path d="M937.5 40h0"></path>
<path d="M448 40h10"></path>
<g class="non-terminal ">
<path d="M458 40h168"></path>
<path d="M739.5 40h168"></path>
<rect x="626" y="29" width="113.5" height="22"></rect>
<a xlink:href="#/abap/expression/ClassGlobal"><text x="682.75" y="44">ClassGlobal</text>
</a>
</g>
<path d="M907.5 40h10"></path>
<path d="M448 40v20a10 10 0 0 0 10 10"></path>
<g class="non-terminal ">
<path d="M458 70h172.25"></path>
<path d="M735.25 70h172.25"></path>
<rect x="630.25" y="59" width="105" height="22"></rect>
<a xlink:href="#/abap/expression/ClassFinal"><text x="682.75" y="74">ClassFinal</text>
</a>
</g>
<path d="M907.5 70a10 10 0 0 0 10 -10v-20"></path>
<path d="M448 40v50a10 10 0 0 0 10 10"></path>
<g class="terminal ">
<path d="M458 100h172.25"></path>
<path d="M735.25 100h172.25"></path>
<rect x="630.25" y="89" width="105" height="22" rx="10" ry="10"></rect>
<text x="682.75" y="104">"ABSTRACT"</text>
</g>
<path d="M907.5 100a10 10 0 0 0 10 -10v-50"></path>
<path d="M448 40v80a10 10 0 0 0 10 10"></path>
<g>
<path d="M458 130h63"></path>
<path d="M844.5 130h63"></path>
<g class="terminal ">
<path d="M521 130h0"></path>
<path d="M685.5 130h0"></path>
<rect x="521" y="119" width="164.5" height="22" rx="10" ry="10"></rect>
<text x="603.25" y="134">"INHERITING FROM"</text>
</g>
<path d="M685.5 130h10"></path>
<path d="M695.5 130h10"></path>
<g class="non-terminal ">
<path d="M705.5 130h0"></path>
<path d="M844.5 130h0"></path>
<rect x="705.5" y="119" width="139" height="22"></rect>
<a xlink:href="#/abap/expression/SuperClassName"><text x="775" y="134">SuperClassName</text>
</a>
</g>
</g>
<path d="M907.5 130a10 10 0 0 0 10 -10v-80"></path>
<path d="M448 40v110a10 10 0 0 0 10 10"></path>
<g>
<path d="M458 160h99"></path>
<path d="M808.5 160h99"></path>
<g class="terminal ">
<path d="M557 160h0"></path>
<path d="M645 160h0"></path>
<rect x="557" y="149" width="88" height="22" rx="10" ry="10"></rect>
<text x="601" y="164">"CREATE"</text>
</g>
<path d="M645 160h10"></path>
<g>
<path d="M655 160h0"></path>
<path d="M808.5 160h0"></path>
<path d="M655 160h20"></path>
<g class="terminal ">
<path d="M675 160h12.75"></path>
<path d="M775.75 160h12.75"></path>
<rect x="687.75" y="149" width="88" height="22" rx="10" ry="10"></rect>
<text x="731.75" y="164">"PUBLIC"</text>
</g>
<path d="M788.5 160h20"></path>
<path d="M655 160a10 10 0 0 1 10 10v10a10 10 0 0 0 10 10"></path>
<g class="terminal ">
<path d="M675 190h0"></path>
<path d="M788.5 190h0"></path>
<rect x="675" y="179" width="113.5" height="22" rx="10" ry="10"></rect>
<text x="731.75" y="194">"PROTECTED"</text>
</g>
<path d="M788.5 190a10 10 0 0 0 10 -10v-10a10 10 0 0 1 10 -10"></path>
<path d="M655 160a10 10 0 0 1 10 10v40a10 10 0 0 0 10 10"></path>
<g class="terminal ">
<path d="M675 220h8.5"></path>
<path d="M780 220h8.5"></path>
<rect x="683.5" y="209" width="96.5" height="22" rx="10" ry="10"></rect>
<text x="731.75" y="224">"PRIVATE"</text>
</g>
<path d="M788.5 220a10 10 0 0 0 10 -10v-40a10 10 0 0 1 10 -10"></path>
</g>
</g>
<path d="M907.5 160a10 10 0 0 0 10 -10v-110"></path>
<path d="M448 40v200a10 10 0 0 0 10 10"></path>
<g class="terminal ">
<path d="M458 250h159.5"></path>
<path d="M748 250h159.5"></path>
<rect x="617.5" y="239" width="130.5" height="22" rx="10" ry="10"></rect>
<text x="682.75" y="254">"FOR TESTING"</text>
</g>
<path d="M907.5 250a10 10 0 0 0 10 -10v-200"></path>
<path d="M448 40v230a10 10 0 0 0 10 10"></path>
<g>
<path d="M458 280h82"></path>
<path d="M825.5 280h82"></path>
<g class="terminal ">
<path d="M540 280h0"></path>
<path d="M662 280h0"></path>
<rect x="540" y="269" width="122" height="22" rx="10" ry="10"></rect>
<text x="601" y="284">"RISK LEVEL"</text>
</g>
<path d="M662 280h10"></path>
<g>
<path d="M672 280h0"></path>
<path d="M825.5 280h0"></path>
<path d="M672 280h20"></path>
<g class="terminal ">
<path d="M692 280h4.25"></path>
<path d="M801.25 280h4.25"></path>
<rect x="696.25" y="269" width="105" height="22" rx="10" ry="10"></rect>
<text x="748.75" y="284">"CRITICAL"</text>
</g>
<path d="M805.5 280h20"></path>
<path d="M672 280a10 10 0 0 1 10 10v10a10 10 0 0 0 10 10"></path>
<g class="terminal ">
<path d="M692 310h4.25"></path>
<path d="M801.25 310h4.25"></path>
<rect x="696.25" y="299" width="105" height="22" rx="10" ry="10"></rect>
<text x="748.75" y="314">"HARMLESS"</text>
</g>
<path d="M805.5 310a10 10 0 0 0 10 -10v-10a10 10 0 0 1 10 -10"></path>
<path d="M672 280a10 10 0 0 1 10 10v40a10 10 0 0 0 10 10"></path>
<g class="terminal ">
<path d="M692 340h0"></path>
<path d="M805.5 340h0"></path>
<rect x="692" y="329" width="113.5" height="22" rx="10" ry="10"></rect>
<text x="748.75" y="344">"DANGEROUS"</text>
</g>
<path d="M805.5 340a10 10 0 0 0 10 -10v-40a10 10 0 0 1 10 -10"></path>
</g>
</g>
<path d="M907.5 280a10 10 0 0 0 10 -10v-230"></path>
<path d="M448 40v320a10 10 0 0 0 10 10"></path>
<g class="terminal ">
<path d="M458 370h117"></path>
<path d="M790.5 370h117"></path>
<rect x="575" y="359" width="215.5" height="22" rx="10" ry="10"></rect>
<text x="682.75" y="374">"SHARED MEMORY ENABLED"</text>
</g>
<path d="M907.5 370a10 10 0 0 0 10 -10v-320"></path>
<path d="M448 40v350a10 10 0 0 0 10 10"></path>
<g>
<path d="M458 400h103.25"></path>
<path d="M804.25 400h103.25"></path>
<g class="terminal ">
<path d="M561.25 400h0"></path>
<path d="M666.25 400h0"></path>
<rect x="561.25" y="389" width="105" height="22" rx="10" ry="10"></rect>
<text x="613.75" y="404">"DURATION"</text>
</g>
<path d="M666.25 400h10"></path>
<g>
<path d="M676.25 400h0"></path>
<path d="M804.25 400h0"></path>
<path d="M676.25 400h20"></path>
<g class="terminal ">
<path d="M696.25 400h8.5"></path>
<path d="M775.75 400h8.5"></path>
<rect x="704.75" y="389" width="71" height="22" rx="10" ry="10"></rect>
<text x="740.25" y="404">"LONG"</text>
</g>
<path d="M784.25 400h20"></path>
<path d="M676.25 400a10 10 0 0 1 10 10v10a10 10 0 0 0 10 10"></path>
<g class="terminal ">
<path d="M696.25 430h0"></path>
<path d="M784.25 430h0"></path>
<rect x="696.25" y="419" width="88" height="22" rx="10" ry="10"></rect>
<text x="740.25" y="434">"MEDIUM"</text>
</g>
<path d="M784.25 430a10 10 0 0 0 10 -10v-10a10 10 0 0 1 10 -10"></path>
<path d="M676.25 400a10 10 0 0 1 10 10v40a10 10 0 0 0 10 10"></path>
<g class="terminal ">
<path d="M696.25 460h4.25"></path>
<path d="M780 460h4.25"></path>
<rect x="700.5" y="449" width="79.5" height="22" rx="10" ry="10"></rect>
<text x="740.25" y="464">"SHORT"</text>
</g>
<path d="M784.25 460a10 10 0 0 0 10 -10v-40a10 10 0 0 1 10 -10"></path>
</g>
</g>
<path d="M907.5 400a10 10 0 0 0 10 -10v-350"></path>
<path d="M448 40v440a10 10 0 0 0 10 10"></path>
<g>
<path d="M458 490h0"></path>
<path d="M907.5 490h0"></path>
<g class="comment ">
<path d="M458 490h0"></path>
<path d="M496 490h0"></path>
<text x="477" y="495" class="comment">v754</text>
</g>
<path d="M496 490h10"></path>
<path d="M506 490h10"></path>
<g>
<path d="M516 490h0"></path>
<path d="M907.5 490h0"></path>
<g class="terminal ">
<path d="M516 490h0"></path>
<path d="M680.5 490h0"></path>
<rect x="516" y="479" width="164.5" height="22" rx="10" ry="10"></rect>
<text x="598.25" y="494">"FOR BEHAVIOR OF"</text>
</g>
<path d="M680.5 490h10"></path>
<path d="M690.5 490h10"></path>
<g class="non-terminal ">
<path d="M700.5 490h0"></path>
<path d="M907.5 490h0"></path>
<rect x="700.5" y="479" width="207" height="22"></rect>
<a xlink:href="#/abap/expression/BehaviorDefinitionName"><text x="804" y="494">BehaviorDefinitionName</text>
</a>
</g>
</g>
</g>
<path d="M907.5 490a10 10 0 0 0 10 -10v-440"></path>
<path d="M448 40v470a10 10 0 0 0 10 10"></path>
<g class="non-terminal ">
<path d="M458 520h163.75"></path>
<path d="M743.75 520h163.75"></path>
<rect x="621.75" y="509" width="122" height="22"></rect>
<a xlink:href="#/abap/expression/ClassFriends"><text x="682.75" y="524">ClassFriends</text>
</a>
</g>
<path d="M907.5 520a10 10 0 0 0 10 -10v-470"></path>
<g class="diagram-text">
<title>take one or more branches, once each, in any order</title>
<path d="M 448 30 h -26 a 4 4 0 0 0 -4 4 v 12 a 4 4 0 0 0 4 4 h 26 z" class="diagram-text"></path>
<text x="433" y="44" class="diagram-text">1+</text>
<path d="M 917.5 30 h 16 a 4 4 0 0 1 4 4 v 12 a 4 4 0 0 1 -4 4 h -16 z" class="diagram-text"></path>
<path d="M 924.5 38 a 4 4 0 1 0 6 -1 m 2.75 -1 h -4 v 4 m 0 -3 h 2" style="stroke-width: 1.75"></path>
</g>
</g>
<path d="M937.5 40h20"></path>
</g>
</g>
</g>
<path d="M957.5 40h10"></path>
<path d="M 967.5 40 h 20 m -10 -10 v 20 m 10 -20 v 20"></path>
</g>
</svg>
