<svg xmlns="http://www.w3.org/2000/svg" xmlns:xlink="http://www.w3.org/1999/xlink" class="railroad-diagram" width="759" height="71" viewBox="0 0 759 71">
<defs>
<style type="text/css"><![CDATA[
path {
stroke-width: 3;
stroke: black;
fill: rgba(0,0,0,0);
}
text {
font: bold 14px monospace;
text-anchor: middle;
}
text.diagram-text {
font-size: 12px;
}
a {
fill: blue;
}
text.diagram-arrow {
font-size: 16px;
}
text.label {
text-anchor: start;
}
text.comment {
font: italic 12px monospace;
}
rect {
stroke-width: 3;
stroke: black;
fill: #BCBCBC;
}
path.diagram-text {
stroke-width: 3;
stroke: black;
fill: #BCBCBC;
cursor: help;
}
]]></style>
</defs>
<g transform="translate(.5 .5)">
<g>
<path d="M20 30v20m10 -20v20m-10 -10h20"></path>
</g>
<path d="M40 40h10"></path>
<g>
<path d="M50 40h0"></path>
<path d="M709 40h0"></path>
<g class="comment ">
<path d="M50 40h0"></path>
<path d="M179 40h0"></path>
<text x="114.5" y="45" class="comment">not langver=Cloud</text>
</g>
<path d="M179 40h10"></path>
<path d="M189 40h10"></path>
<g>
<path d="M199 40h0"></path>
<path d="M709 40h0"></path>
<g class="terminal ">
<path d="M199 40h0"></path>
<path d="M295.5 40h0"></path>
<rect x="199" y="29" width="96.5" height="22" rx="10" ry="10"></rect>
<text x="247.25" y="44">"REFRESH"</text>
</g>
<path d="M295.5 40h10"></path>
<path d="M305.5 40h10"></path>
<g class="non-terminal ">
<path d="M315.5 40h0"></path>
<path d="M386.5 40h0"></path>
<rect x="315.5" y="29" width="71" height="22"></rect>
<a xlink:href="#/abap/expression/Target"><text x="351" y="44">Target</text>
</a>
</g>
<path d="M386.5 40h10"></path>
<g>
<path d="M396.5 40h0"></path>
<path d="M709 40h0"></path>
<path d="M396.5 40a10 10 0 0 0 10 -10v0a10 10 0 0 1 10 -10"></path>
<g>
<path d="M416.5 20h272.5"></path>
</g>
<path d="M689 20a10 10 0 0 1 10 10v0a10 10 0 0 0 10 10"></path>
<path d="M396.5 40h20"></path>
<g>
<path d="M416.5 40h0"></path>
<path d="M689 40h0"></path>
<g class="terminal ">
<path d="M416.5 40h0"></path>
<path d="M538.5 40h0"></path>
<rect x="416.5" y="29" width="122" height="22" rx="10" ry="10"></rect>
<text x="477.5" y="44">"FROM TABLE"</text>
</g>
<path d="M538.5 40h10"></path>
<path d="M548.5 40h10"></path>
<g class="non-terminal ">
<path d="M558.5 40h0"></path>
<path d="M689 40h0"></path>
<rect x="558.5" y="29" width="130.5" height="22"></rect>
<a xlink:href="#/abap/expression/DatabaseTable"><text x="623.75" y="44">DatabaseTable</text>
</a>
</g>
</g>
<path d="M689 40h20"></path>
</g>
</g>
</g>
<path d="M709 40h10"></path>
<path d="M 719 40 h 20 m -10 -10 v 20 m 10 -20 v 20"></path>
</g>
</svg>
