<svg xmlns="http://www.w3.org/2000/svg" xmlns:xlink="http://www.w3.org/1999/xlink" class="railroad-diagram" width="1191" height="131" viewBox="0 0 1191 131">
<defs>
<style type="text/css"><![CDATA[
path {
stroke-width: 3;
stroke: black;
fill: rgba(0,0,0,0);
}
text {
font: bold 14px monospace;
text-anchor: middle;
}
text.diagram-text {
font-size: 12px;
}
a {
fill: blue;
}
text.diagram-arrow {
font-size: 16px;
}
text.label {
text-anchor: start;
}
text.comment {
font: italic 12px monospace;
}
rect {
stroke-width: 3;
stroke: black;
fill: #BCBCBC;
}
path.diagram-text {
stroke-width: 3;
stroke: black;
fill: #BCBCBC;
cursor: help;
}
]]></style>
</defs>
<g transform="translate(.5 .5)">
<g>
<path d="M20 21v20m10 -20v20m-10 -10h20"></path>
</g>
<path d="M40 31h10"></path>
<g>
<path d="M50 31h0"></path>
<path d="M1141 31h0"></path>
<g class="terminal">
<path d="M50 31h0"></path>
<path d="M112.5 31h0"></path>
<rect x="50" y="20" width="62.5" height="22" rx="10" ry="10"></rect>
<text x="81.25" y="35">"ADD"</text>
</g>
<path d="M112.5 31h10"></path>
<path d="M122.5 31h10"></path>
<g class="non-terminal">
<path d="M132.5 31h0"></path>
<path d="M203.5 31h0"></path>
<rect x="132.5" y="20" width="71" height="22"></rect>
<a xlink:href="#/abap/expression/Source"><text x="168" y="35">Source</text>
</a>
</g>
<path d="M203.5 31h10"></path>
<g>
<path d="M213.5 31h0"></path>
<path d="M1141 31h0"></path>
<path d="M213.5 31h20"></path>
<g>
<path d="M233.5 31h0"></path>
<path d="M378.5 31h742.5"></path>
<g class="terminal">
<path d="M233.5 31h0"></path>
<path d="M287.5 31h0"></path>
<rect x="233.5" y="20" width="54" height="22" rx="10" ry="10"></rect>
<text x="260.5" y="35">"TO"</text>
</g>
<path d="M287.5 31h10"></path>
<path d="M297.5 31h10"></path>
<g class="non-terminal">
<path d="M307.5 31h0"></path>
<path d="M378.5 31h0"></path>
<rect x="307.5" y="20" width="71" height="22"></rect>
<a xlink:href="#/abap/expression/Target"><text x="343" y="35">Target</text>
</a>
</g>
</g>
<path d="M1121 31h20"></path>
<path d="M213.5 31a10 10 0 0 1 10 10v19a10 10 0 0 0 10 10"></path>
<g>
<path d="M233.5 70h0"></path>
<path d="M1121 70h0"></path>
<g class="terminal">
<path d="M233.5 70h0"></path>
<path d="M304.5 70h0"></path>
<rect x="233.5" y="59" width="71" height="22" rx="10" ry="10"></rect>
<text x="269" y="74">"THEN"</text>
</g>
<path d="M304.5 70h10"></path>
<path d="M314.5 70h10"></path>
<g class="non-terminal">
<path d="M324.5 70h0"></path>
<path d="M395.5 70h0"></path>
<rect x="324.5" y="59" width="71" height="22"></rect>
<a xlink:href="#/abap/expression/Source"><text x="360" y="74">Source</text>
</a>
</g>
<path d="M395.5 70h10"></path>
<path d="M405.5 70h10"></path>
<g class="terminal">
<path d="M415.5 70h0"></path>
<path d="M495 70h0"></path>
<rect x="415.5" y="59" width="79.5" height="22" rx="10" ry="10"></rect>
<text x="455.25" y="74">"UNTIL"</text>
</g>
<path d="M495 70h10"></path>
<path d="M505 70h10"></path>
<g class="non-terminal">
<path d="M515 70h0"></path>
<path d="M586 70h0"></path>
<rect x="515" y="59" width="71" height="22"></rect>
<a xlink:href="#/abap/expression/Source"><text x="550.5" y="74">Source</text>
</a>
</g>
<path d="M586 70h10"></path>
<g>
<path d="M596 70h0"></path>
<path d="M936 70h0"></path>
<path d="M596 70a10 10 0 0 0 10 -10v0a10 10 0 0 1 10 -10"></path>
<g>
<path d="M616 50h300"></path>
</g>
<path d="M916 50a10 10 0 0 1 10 10v0a10 10 0 0 0 10 10"></path>
<path d="M596 70h20"></path>
<g>
<path d="M616 70h0"></path>
<path d="M916 70h0"></path>
<path d="M646 70h10"></path>
<g>
<path d="M656 70h0"></path>
<path d="M835 70h51"></path>
<g class="terminal">
<path d="M656 70h0"></path>
<path d="M744 70h0"></path>
<rect x="656" y="59" width="88" height="22" rx="10" ry="10"></rect>
<text x="700" y="74">"GIVING"</text>
</g>
<path d="M744 70h10"></path>
<path d="M754 70h10"></path>
<g class="non-terminal">
<path d="M764 70h0"></path>
<path d="M835 70h0"></path>
<rect x="764" y="59" width="71" height="22"></rect>
<a xlink:href="#/abap/expression/Source"><text x="799.5" y="74">Source</text>
</a>
</g>
</g>
<path d="M886 70h10"></path>
<path d="M646 70v20a10 10 0 0 0 10 10"></path>
<g>
<path d="M656 100h0"></path>
<path d="M886 100h0"></path>
<g class="terminal">
<path d="M656 100h0"></path>
<path d="M795 100h0"></path>
<rect x="656" y="89" width="139" height="22" rx="10" ry="10"></rect>
<text x="725.5" y="104">"ACCORDING TO"</text>
</g>
<path d="M795 100h10"></path>
<path d="M805 100h10"></path>
<g class="non-terminal">
<path d="M815 100h0"></path>
<path d="M886 100h0"></path>
<rect x="815" y="89" width="71" height="22"></rect>
<a xlink:href="#/abap/expression/Source"><text x="850.5" y="104">Source</text>
</a>
</g>
</g>
<path d="M886 100a10 10 0 0 0 10 -10v-20"></path>
<g class="diagram-text">
<title>take one or more branches, once each, in any order</title>
<path d="M 646 60 h -26 a 4 4 0 0 0 -4 4 v 12 a 4 4 0 0 0 4 4 h 26 z" class="diagram-text"></path>
<text x="631" y="74" class="diagram-text">1+</text>
<path d="M 896 60 h 16 a 4 4 0 0 1 4 4 v 12 a 4 4 0 0 1 -4 4 h -16 z" class="diagram-text"></path>
<path d="M 903 68 a 4 4 0 1 0 6 -1 m 2.75 -1 h -4 v 4 m 0 -3 h 2" style="stroke-width: 1.75"></path>
</g>
</g>
<path d="M916 70h20"></path>
</g>
<g>
<path d="M936 70h0"></path>
<path d="M1121 70h0"></path>
<path d="M936 70a10 10 0 0 0 10 -10v0a10 10 0 0 1 10 -10"></path>
<g>
<path d="M956 50h145"></path>
</g>
<path d="M1101 50a10 10 0 0 1 10 10v0a10 10 0 0 0 10 10"></path>
<path d="M936 70h20"></path>
<g>
<path d="M956 70h0"></path>
<path d="M1101 70h0"></path>
<g class="terminal">
<path d="M956 70h0"></path>
<path d="M1010 70h0"></path>
<rect x="956" y="59" width="54" height="22" rx="10" ry="10"></rect>
<text x="983" y="74">"TO"</text>
</g>
<path d="M1010 70h10"></path>
<path d="M1020 70h10"></path>
<g class="non-terminal">
<path d="M1030 70h0"></path>
<path d="M1101 70h0"></path>
<rect x="1030" y="59" width="71" height="22"></rect>
<a xlink:href="#/abap/expression/Target"><text x="1065.5" y="74">Target</text>
</a>
</g>
</g>
<path d="M1101 70h20"></path>
</g>
</g>
<path d="M1121 70a10 10 0 0 0 10 -10v-19a10 10 0 0 1 10 -10"></path>
</g>
</g>
<path d="M1141 31h10"></path>
<path d="M 1151 31 h 20 m -10 -10 v 20 m 10 -20 v 20"></path>
</g>
</svg>
