<svg xmlns="http://www.w3.org/2000/svg" xmlns:xlink="http://www.w3.org/1999/xlink" class="railroad-diagram" width="2252" height="277" viewBox="0 0 2252 277">
<defs>
<style type="text/css"><![CDATA[
path {
stroke-width: 3;
stroke: black;
fill: rgba(0,0,0,0);
}
text {
font: bold 14px monospace;
text-anchor: middle;
}
text.diagram-text {
font-size: 12px;
}
a {
fill: blue;
}
text.diagram-arrow {
font-size: 16px;
}
text.label {
text-anchor: start;
}
text.comment {
font: italic 12px monospace;
}
rect {
stroke-width: 3;
stroke: black;
fill: #BCBCBC;
}
path.diagram-text {
stroke-width: 3;
stroke: black;
fill: #BCBCBC;
cursor: help;
}
]]></style>
</defs>
<g transform="translate(.5 .5)">
<g>
<path d="M20 38v20m10 -20v20m-10 -10h20"></path>
</g>
<path d="M40 48h10"></path>
<g>
<path d="M50 48h0"></path>
<path d="M2202 48h0"></path>
<g>
<path d="M50 48h0"></path>
<path d="M123 48h0"></path>
<text x="86.5" y="53" class="comment">not Cloud</text>
</g>
<path d="M123 48h10"></path>
<path d="M133 48h10"></path>
<g>
<path d="M143 48h0"></path>
<path d="M2202 48h0"></path>
<g class="terminal">
<path d="M143 48h0"></path>
<path d="M222.5 48h0"></path>
<rect x="143" y="37" width="79.5" height="22" rx="10" ry="10"></rect>
<text x="182.75" y="52">"FIELD"</text>
</g>
<path d="M222.5 48h10"></path>
<path d="M232.5 48h10"></path>
<g class="non-terminal">
<path d="M242.5 48h0"></path>
<path d="M347.5 48h0"></path>
<rect x="242.5" y="37" width="105" height="22"></rect>
<a xlink:href="#/abap/expression/FieldChain"><text x="295" y="52">FieldChain</text>
</a>
</g>
<path d="M347.5 48h10"></path>
<g>
<path d="M357.5 48h0"></path>
<path d="M2202 48h0"></path>
<path d="M357.5 48a10 10 0 0 0 10 -10v-8a10 10 0 0 1 10 -10"></path>
<g>
<path d="M377.5 20h1804.5"></path>
</g>
<path d="M2182 20a10 10 0 0 1 10 10v8a10 10 0 0 0 10 10"></path>
<path d="M357.5 48h20"></path>
<g>
<path d="M377.5 48h0"></path>
<path d="M2182 48h0"></path>
<path d="M377.5 48h20"></path>
<g>
<path d="M397.5 48h0"></path>
<path d="M882 48h1280"></path>
<g class="terminal">
<path d="M397.5 48h0"></path>
<path d="M485.5 48h0"></path>
<rect x="397.5" y="37" width="88" height="22" rx="10" ry="10"></rect>
<text x="441.5" y="52">"MODULE"</text>
</g>
<path d="M485.5 48h10"></path>
<path d="M495.5 48h10"></path>
<g class="non-terminal">
<path d="M505.5 48h0"></path>
<path d="M593.5 48h0"></path>
<rect x="505.5" y="37" width="88" height="22"></rect>
<a xlink:href="#/abap/expression/FormName"><text x="549.5" y="52">FormName</text>
</a>
</g>
<path d="M593.5 48h10"></path>
<g>
<path d="M603.5 48h0"></path>
<path d="M882 48h0"></path>
<path d="M603.5 48a10 10 0 0 0 10 -10v0a10 10 0 0 1 10 -10"></path>
<g>
<path d="M623.5 28h238.5"></path>
</g>
<path d="M862 28a10 10 0 0 1 10 10v0a10 10 0 0 0 10 10"></path>
<path d="M603.5 48h20"></path>
<g>
<path d="M623.5 48h0"></path>
<path d="M862 48h0"></path>
<path d="M623.5 48h20"></path>
<g class="terminal">
<path d="M643.5 48h0"></path>
<path d="M748.5 48h93.5"></path>
<rect x="643.5" y="37" width="105" height="22" rx="10" ry="10"></rect>
<text x="696" y="52">"ON INPUT"</text>
</g>
<path d="M842 48h20"></path>
<path d="M623.5 48a10 10 0 0 1 10 10v10a10 10 0 0 0 10 10"></path>
<g class="terminal">
<path d="M643.5 78h0"></path>
<path d="M765.5 78h76.5"></path>
<rect x="643.5" y="67" width="122" height="22" rx="10" ry="10"></rect>
<text x="704.5" y="82">"ON REQUEST"</text>
</g>
<path d="M842 78a10 10 0 0 0 10 -10v-10a10 10 0 0 1 10 -10"></path>
<path d="M623.5 48a10 10 0 0 1 10 10v40a10 10 0 0 0 10 10"></path>
<g class="terminal">
<path d="M643.5 108h0"></path>
<path d="M816.5 108h25.5"></path>
<rect x="643.5" y="97" width="173" height="22" rx="10" ry="10"></rect>
<text x="730" y="112">"ON CHAIN-REQUEST"</text>
</g>
<path d="M842 108a10 10 0 0 0 10 -10v-40a10 10 0 0 1 10 -10"></path>
<path d="M623.5 48a10 10 0 0 1 10 10v70a10 10 0 0 0 10 10"></path>
<g class="terminal">
<path d="M643.5 138h0"></path>
<path d="M842 138h0"></path>
<rect x="643.5" y="127" width="198.5" height="22" rx="10" ry="10"></rect>
<text x="742.75" y="142">"AT CURSOR-SELECTION"</text>
</g>
<path d="M842 138a10 10 0 0 0 10 -10v-70a10 10 0 0 1 10 -10"></path>
</g>
<path d="M862 48h20"></path>
</g>
</g>
<path d="M2162 48h20"></path>
<path d="M377.5 48a10 10 0 0 1 10 10v100a10 10 0 0 0 10 10"></path>
<g>
<path d="M397.5 168h0"></path>
<path d="M1065.5 168h1096.5"></path>
<g class="terminal">
<path d="M397.5 168h0"></path>
<path d="M485.5 168h0"></path>
<rect x="397.5" y="157" width="88" height="22" rx="10" ry="10"></rect>
<text x="441.5" y="172">"VALUES"</text>
</g>
<path d="M485.5 168h10"></path>
<path d="M495.5 168h10"></path>
<g class="terminal">
<path d="M505.5 168h0"></path>
<path d="M568 168h0"></path>
<rect x="505.5" y="157" width="62.5" height="22" rx="10" ry="10"></rect>
<text x="536.75" y="172">!" ("</text>
</g>
<path d="M568 168h10"></path>
<path d="M578 168h10"></path>
<g class="terminal">
<path d="M588 168h0"></path>
<path d="M684.5 168h0"></path>
<rect x="588" y="157" width="96.5" height="22" rx="10" ry="10"></rect>
<text x="636.25" y="172">"BETWEEN"</text>
</g>
<path d="M684.5 168h10"></path>
<path d="M694.5 168h10"></path>
<g class="non-terminal">
<path d="M704.5 168h0"></path>
<path d="M792.5 168h0"></path>
<rect x="704.5" y="157" width="88" height="22"></rect>
<a xlink:href="#/abap/expression/Constant"><text x="748.5" y="172">Constant</text>
</a>
</g>
<path d="M792.5 168h10"></path>
<path d="M802.5 168h10"></path>
<g class="terminal">
<path d="M812.5 168h0"></path>
<path d="M875 168h0"></path>
<rect x="812.5" y="157" width="62.5" height="22" rx="10" ry="10"></rect>
<text x="843.75" y="172">"AND"</text>
</g>
<path d="M875 168h10"></path>
<path d="M885 168h10"></path>
<g class="non-terminal">
<path d="M895 168h0"></path>
<path d="M983 168h0"></path>
<rect x="895" y="157" width="88" height="22"></rect>
<a xlink:href="#/abap/expression/Constant"><text x="939" y="172">Constant</text>
</a>
</g>
<path d="M983 168h10"></path>
<path d="M993 168h10"></path>
<g class="terminal">
<path d="M1003 168h0"></path>
<path d="M1065.5 168h0"></path>
<rect x="1003" y="157" width="62.5" height="22" rx="10" ry="10"></rect>
<text x="1034.25" y="172">!") "</text>
</g>
</g>
<path d="M2162 168a10 10 0 0 0 10 -10v-100a10 10 0 0 1 10 -10"></path>
<path d="M377.5 48a10 10 0 0 1 10 10v130a10 10 0 0 0 10 10"></path>
<g>
<path d="M397.5 198h0"></path>
<path d="M593.5 198h1568.5"></path>
<g class="terminal">
<path d="M397.5 198h0"></path>
<path d="M468.5 198h0"></path>
<rect x="397.5" y="187" width="71" height="22" rx="10" ry="10"></rect>
<text x="433" y="202">"WITH"</text>
</g>
<path d="M468.5 198h10"></path>
<path d="M478.5 198h10"></path>
<g class="non-terminal">
<path d="M488.5 198h0"></path>
<path d="M593.5 198h0"></path>
<rect x="488.5" y="187" width="105" height="22"></rect>
<a xlink:href="#/abap/expression/FieldChain"><text x="541" y="202">FieldChain</text>
</a>
</g>
</g>
<path d="M2162 198a10 10 0 0 0 10 -10v-130a10 10 0 0 1 10 -10"></path>
<path d="M377.5 48a10 10 0 0 1 10 10v169a10 10 0 0 0 10 10"></path>
<g>
<path d="M397.5 237h0"></path>
<path d="M2162 237h0"></path>
<g class="terminal">
<path d="M397.5 237h0"></path>
<path d="M545 237h0"></path>
<rect x="397.5" y="226" width="147.5" height="22" rx="10" ry="10"></rect>
<text x="471.25" y="241">"SELECT &#42; FROM"</text>
</g>
<path d="M545 237h10"></path>
<path d="M555 237h10"></path>
<g class="non-terminal">
<path d="M565 237h0"></path>
<path d="M670 237h0"></path>
<rect x="565" y="226" width="105" height="22"></rect>
<a xlink:href="#/abap/expression/FieldChain"><text x="617.5" y="241">FieldChain</text>
</a>
</g>
<path d="M670 237h10"></path>
<path d="M680 237h10"></path>
<g class="terminal">
<path d="M690 237h0"></path>
<path d="M769.5 237h0"></path>
<rect x="690" y="226" width="79.5" height="22" rx="10" ry="10"></rect>
<text x="729.75" y="241">"WHERE"</text>
</g>
<path d="M769.5 237h10"></path>
<path d="M779.5 237h10"></path>
<g>
<path d="M789.5 237h0"></path>
<path d="M1533 237h0"></path>
<g>
<path d="M789.5 237h0"></path>
<path d="M1085 237h0"></path>
<g class="non-terminal">
<path d="M789.5 237h0"></path>
<path d="M894.5 237h0"></path>
<rect x="789.5" y="226" width="105" height="22"></rect>
<a xlink:href="#/abap/expression/FieldChain"><text x="842" y="241">FieldChain</text>
</a>
</g>
<path d="M894.5 237h10"></path>
<path d="M904.5 237h10"></path>
<g class="terminal">
<path d="M914.5 237h0"></path>
<path d="M960 237h0"></path>
<rect x="914.5" y="226" width="45.5" height="22" rx="10" ry="10"></rect>
<text x="937.25" y="241">"="</text>
</g>
<path d="M960 237h10"></path>
<path d="M970 237h10"></path>
<g class="non-terminal">
<path d="M980 237h0"></path>
<path d="M1085 237h0"></path>
<rect x="980" y="226" width="105" height="22"></rect>
<a xlink:href="#/abap/expression/FieldChain"><text x="1032.5" y="241">FieldChain</text>
</a>
</g>
</g>
<path d="M1085 237h10"></path>
<g>
<path d="M1095 237h0"></path>
<path d="M1533 237h0"></path>
<path d="M1095 237a10 10 0 0 0 10 -10v0a10 10 0 0 1 10 -10"></path>
<g>
<path d="M1115 217h398"></path>
</g>
<path d="M1513 217a10 10 0 0 1 10 10v0a10 10 0 0 0 10 10"></path>
<path d="M1095 237h20"></path>
<g>
<path d="M1115 237h0"></path>
<path d="M1513 237h0"></path>
<path d="M1115 237h10"></path>
<g>
<path d="M1125 237h0"></path>
<path d="M1503 237h0"></path>
<g class="terminal">
<path d="M1125 237h0"></path>
<path d="M1187.5 237h0"></path>
<rect x="1125" y="226" width="62.5" height="22" rx="10" ry="10"></rect>
<text x="1156.25" y="241">"AND"</text>
</g>
<path d="M1187.5 237h10"></path>
<path d="M1197.5 237h10"></path>
<g>
<path d="M1207.5 237h0"></path>
<path d="M1503 237h0"></path>
<g class="non-terminal">
<path d="M1207.5 237h0"></path>
<path d="M1312.5 237h0"></path>
<rect x="1207.5" y="226" width="105" height="22"></rect>
<a xlink:href="#/abap/expression/FieldChain"><text x="1260" y="241">FieldChain</text>
</a>
</g>
<path d="M1312.5 237h10"></path>
<path d="M1322.5 237h10"></path>
<g class="terminal">
<path d="M1332.5 237h0"></path>
<path d="M1378 237h0"></path>
<rect x="1332.5" y="226" width="45.5" height="22" rx="10" ry="10"></rect>
<text x="1355.25" y="241">"="</text>
</g>
<path d="M1378 237h10"></path>
<path d="M1388 237h10"></path>
<g class="non-terminal">
<path d="M1398 237h0"></path>
<path d="M1503 237h0"></path>
<rect x="1398" y="226" width="105" height="22"></rect>
<a xlink:href="#/abap/expression/FieldChain"><text x="1450.5" y="241">FieldChain</text>
</a>
</g>
</g>
</g>
<path d="M1503 237h10"></path>
<path d="M1125 237a10 10 0 0 0 -10 10v0a10 10 0 0 0 10 10"></path>
<g>
<path d="M1125 257h378"></path>
</g>
<path d="M1503 257a10 10 0 0 0 10 -10v0a10 10 0 0 0 -10 -10"></path>
</g>
<path d="M1513 237h20"></path>
</g>
</g>
<path d="M1533 237h10"></path>
<g>
<path d="M1543 237h0"></path>
<path d="M1779 237h0"></path>
<path d="M1543 237a10 10 0 0 0 10 -10v0a10 10 0 0 1 10 -10"></path>
<g>
<path d="M1563 217h196"></path>
</g>
<path d="M1759 217a10 10 0 0 1 10 10v0a10 10 0 0 0 10 10"></path>
<path d="M1543 237h20"></path>
<g>
<path d="M1563 237h0"></path>
<path d="M1759 237h0"></path>
<g class="terminal">
<path d="M1563 237h0"></path>
<path d="M1634 237h0"></path>
<rect x="1563" y="226" width="71" height="22" rx="10" ry="10"></rect>
<text x="1598.5" y="241">"INTO"</text>
</g>
<path d="M1634 237h10"></path>
<path d="M1644 237h10"></path>
<g class="non-terminal">
<path d="M1654 237h0"></path>
<path d="M1759 237h0"></path>
<rect x="1654" y="226" width="105" height="22"></rect>
<a xlink:href="#/abap/expression/FieldChain"><text x="1706.5" y="241">FieldChain</text>
</a>
</g>
</g>
<path d="M1759 237h20"></path>
</g>
<g>
<path d="M1779 237h0"></path>
<path d="M2162 237h0"></path>
<path d="M1779 237a10 10 0 0 0 10 -10v0a10 10 0 0 1 10 -10"></path>
<g>
<path d="M1799 217h343"></path>
</g>
<path d="M2142 217a10 10 0 0 1 10 10v0a10 10 0 0 0 10 10"></path>
<path d="M1779 237h20"></path>
<g class="terminal">
<path d="M1799 237h0"></path>
<path d="M2142 237h0"></path>
<rect x="1799" y="226" width="343" height="22" rx="10" ry="10"></rect>
<text x="1970.5" y="241">"WHENEVER NOT FOUND SEND ERRORMESSAGE"</text>
</g>
<path d="M2142 237h20"></path>
</g>
</g>
<path d="M2162 237a10 10 0 0 0 10 -10v-169a10 10 0 0 1 10 -10"></path>
</g>
<path d="M2182 48h20"></path>
</g>
</g>
</g>
<path d="M2202 48h10"></path>
<path d="M 2212 48 h 20 m -10 -10 v 20 m 10 -20 v 20"></path>
</g>
</svg>
