<svg xmlns="http://www.w3.org/2000/svg" xmlns:xlink="http://www.w3.org/1999/xlink" class="railroad-diagram" width="1993.5" height="268" viewBox="0 0 1993.5 268">
<defs>
<style type="text/css"><![CDATA[
path {
stroke-width: 3;
stroke: black;
fill: rgba(0,0,0,0);
}
text {
font: bold 14px monospace;
text-anchor: middle;
}
text.diagram-text {
font-size: 12px;
}
a {
fill: blue;
}
text.diagram-arrow {
font-size: 16px;
}
text.label {
text-anchor: start;
}
text.comment {
font: italic 12px monospace;
}
rect {
stroke-width: 3;
stroke: black;
fill: #BCBCBC;
}
path.diagram-text {
stroke-width: 3;
stroke: black;
fill: #BCBCBC;
cursor: help;
}
]]></style>
</defs>
<g transform="translate(.5 .5)">
<g>
<path d="M20 38v20m10 -20v20m-10 -10h20"></path>
</g>
<path d="M40 48h10"></path>
<g>
<path d="M50 48h0"></path>
<path d="M1943.5 48h0"></path>
<g class="terminal ">
<path d="M50 48h0"></path>
<path d="M129.5 48h0"></path>
<rect x="50" y="37" width="79.5" height="22" rx="10" ry="10"></rect>
<text x="89.75" y="52">"RAISE"</text>
</g>
<path d="M129.5 48h10"></path>
<g>
<path d="M139.5 48h0"></path>
<path d="M1943.5 48h0"></path>
<path d="M139.5 48h20"></path>
<g>
<path d="M159.5 48h0"></path>
<path d="M1923.5 48h0"></path>
<g>
<path d="M159.5 48h0"></path>
<path d="M476.5 48h0"></path>
<path d="M159.5 48h20"></path>
<g>
<path d="M179.5 48h0"></path>
<path d="M456.5 48h0"></path>
<g>
<path d="M179.5 48h0"></path>
<path d="M333 48h0"></path>
<path d="M179.5 48a10 10 0 0 0 10 -10v0a10 10 0 0 1 10 -10"></path>
<g>
<path d="M199.5 28h113.5"></path>
</g>
<path d="M313 28a10 10 0 0 1 10 10v0a10 10 0 0 0 10 10"></path>
<path d="M179.5 48h20"></path>
<g class="terminal ">
<path d="M199.5 48h0"></path>
<path d="M313 48h0"></path>
<rect x="199.5" y="37" width="113.5" height="22" rx="10" ry="10"></rect>
<text x="256.25" y="52">"RESUMABLE"</text>
</g>
<path d="M313 48h20"></path>
</g>
<path d="M333 48h10"></path>
<g class="terminal ">
<path d="M343 48h0"></path>
<path d="M456.5 48h0"></path>
<rect x="343" y="37" width="113.5" height="22" rx="10" ry="10"></rect>
<text x="399.75" y="52">"EXCEPTION"</text>
</g>
</g>
<path d="M456.5 48h20"></path>
<path d="M159.5 48a10 10 0 0 1 10 10v10a10 10 0 0 0 10 10"></path>
<g class="terminal ">
<path d="M179.5 78h81.75"></path>
<path d="M374.75 78h81.75"></path>
<rect x="261.25" y="67" width="113.5" height="22" rx="10" ry="10"></rect>
<text x="318" y="82">"SHORTDUMP"</text>
</g>
<path d="M456.5 78a10 10 0 0 0 10 -10v-10a10 10 0 0 1 10 -10"></path>
</g>
<g>
<path d="M476.5 48h0"></path>
<path d="M1923.5 48h0"></path>
<path d="M476.5 48h20"></path>
<g>
<path d="M496.5 48h0"></path>
<path d="M1903.5 48h0"></path>
<g class="terminal ">
<path d="M496.5 48h0"></path>
<path d="M567.5 48h0"></path>
<rect x="496.5" y="37" width="71" height="22" rx="10" ry="10"></rect>
<text x="532" y="52">"TYPE"</text>
</g>
<path d="M567.5 48h10"></path>
<path d="M577.5 48h10"></path>
<g class="non-terminal ">
<path d="M587.5 48h0"></path>
<path d="M684 48h0"></path>
<rect x="587.5" y="37" width="96.5" height="22"></rect>
<a xlink:href="#/abap/expression/ClassName"><text x="635.75" y="52">ClassName</text>
</a>
</g>
<path d="M684 48h10"></path>
<g>
<path d="M694 48h0"></path>
<path d="M1591 48h0"></path>
<path d="M694 48a10 10 0 0 0 10 -10v-8a10 10 0 0 1 10 -10"></path>
<g>
<path d="M714 20h857"></path>
</g>
<path d="M1571 20a10 10 0 0 1 10 10v8a10 10 0 0 0 10 10"></path>
<path d="M694 48h20"></path>
<g>
<path d="M714 48h0"></path>
<path d="M1571 48h0"></path>
<path d="M714 48h20"></path>
<g>
<path d="M734 48h0"></path>
<path d="M1551 48h0"></path>
<g class="comment ">
<path d="M734 48h0"></path>
<path d="M863 48h0"></path>
<text x="798.5" y="53" class="comment">v750 or open-abap</text>
</g>
<path d="M863 48h10"></path>
<g>
<path d="M873 48h0"></path>
<path d="M1551 48h0"></path>
<path d="M873 48h20"></path>
<g>
<path d="M893 48h122.25"></path>
<path d="M1408.75 48h122.25"></path>
<g class="terminal ">
<path d="M1015.25 48h0"></path>
<path d="M1111.75 48h0"></path>
<rect x="1015.25" y="37" width="96.5" height="22" rx="10" ry="10"></rect>
<text x="1063.5" y="52">"MESSAGE"</text>
</g>
<path d="M1111.75 48h10"></path>
<path d="M1121.75 48h10"></path>
<g class="non-terminal ">
<path d="M1131.75 48h0"></path>
<path d="M1262.25 48h0"></path>
<rect x="1131.75" y="37" width="130.5" height="22"></rect>
<a xlink:href="#/abap/expression/MessageSource"><text x="1197" y="52">MessageSource</text>
</a>
</g>
<path d="M1262.25 48h10"></path>
<g>
<path d="M1272.25 48h0"></path>
<path d="M1408.75 48h0"></path>
<path d="M1272.25 48a10 10 0 0 0 10 -10v0a10 10 0 0 1 10 -10"></path>
<g>
<path d="M1292.25 28h96.5"></path>
</g>
<path d="M1388.75 28a10 10 0 0 1 10 10v0a10 10 0 0 0 10 10"></path>
<path d="M1272.25 48h20"></path>
<g class="non-terminal ">
<path d="M1292.25 48h0"></path>
<path d="M1388.75 48h0"></path>
<rect x="1292.25" y="37" width="96.5" height="22"></rect>
<a xlink:href="#/abap/expression/RaiseWith"><text x="1340.5" y="52">RaiseWith</text>
</a>
</g>
<path d="M1388.75 48h20"></path>
</g>
</g>
<path d="M1531 48h20"></path>
<path d="M873 48a10 10 0 0 1 10 10v19a10 10 0 0 0 10 10"></path>
<g>
<path d="M893 87h0"></path>
<path d="M1531 87h0"></path>
<g class="terminal ">
<path d="M893 87h0"></path>
<path d="M1015 87h0"></path>
<rect x="893" y="76" width="122" height="22" rx="10" ry="10"></rect>
<text x="954" y="91">"MESSAGE ID"</text>
</g>
<path d="M1015 87h10"></path>
<path d="M1025 87h10"></path>
<g class="non-terminal ">
<path d="M1035 87h0"></path>
<path d="M1106 87h0"></path>
<rect x="1035" y="76" width="71" height="22"></rect>
<a xlink:href="#/abap/expression/Source"><text x="1070.5" y="91">Source</text>
</a>
</g>
<path d="M1106 87h10"></path>
<path d="M1116 87h10"></path>
<g class="terminal ">
<path d="M1126 87h0"></path>
<path d="M1214 87h0"></path>
<rect x="1126" y="76" width="88" height="22" rx="10" ry="10"></rect>
<text x="1170" y="91">"NUMBER"</text>
</g>
<path d="M1214 87h10"></path>
<g>
<path d="M1224 87h0"></path>
<path d="M1394.5 87h0"></path>
<path d="M1224 87h20"></path>
<g class="non-terminal ">
<path d="M1244 87h0"></path>
<path d="M1374.5 87h0"></path>
<rect x="1244" y="76" width="130.5" height="22"></rect>
<a xlink:href="#/abap/expression/MessageNumber"><text x="1309.25" y="91">MessageNumber</text>
</a>
</g>
<path d="M1374.5 87h20"></path>
<path d="M1224 87a10 10 0 0 1 10 10v10a10 10 0 0 0 10 10"></path>
<g class="non-terminal ">
<path d="M1244 117h29.75"></path>
<path d="M1344.75 117h29.75"></path>
<rect x="1273.75" y="106" width="71" height="22"></rect>
<a xlink:href="#/abap/expression/Source"><text x="1309.25" y="121">Source</text>
</a>
</g>
<path d="M1374.5 117a10 10 0 0 0 10 -10v-10a10 10 0 0 1 10 -10"></path>
</g>
<g>
<path d="M1394.5 87h0"></path>
<path d="M1531 87h0"></path>
<path d="M1394.5 87a10 10 0 0 0 10 -10v0a10 10 0 0 1 10 -10"></path>
<g>
<path d="M1414.5 67h96.5"></path>
</g>
<path d="M1511 67a10 10 0 0 1 10 10v0a10 10 0 0 0 10 10"></path>
<path d="M1394.5 87h20"></path>
<g class="non-terminal ">
<path d="M1414.5 87h0"></path>
<path d="M1511 87h0"></path>
<rect x="1414.5" y="76" width="96.5" height="22"></rect>
<a xlink:href="#/abap/expression/RaiseWith"><text x="1462.75" y="91">RaiseWith</text>
</a>
</g>
<path d="M1511 87h20"></path>
</g>
</g>
<path d="M1531 87a10 10 0 0 0 10 -10v-19a10 10 0 0 1 10 -10"></path>
</g>
</g>
<path d="M1551 48h20"></path>
<path d="M714 48a10 10 0 0 1 10 10v79a10 10 0 0 0 10 10"></path>
<g>
<path d="M734 147h305.75"></path>
<path d="M1245.25 147h305.75"></path>
<g class="comment ">
<path d="M1039.75 147h0"></path>
<path d="M1077.75 147h0"></path>
<text x="1058.75" y="152" class="comment">v752</text>
</g>
<path d="M1077.75 147h10"></path>
<path d="M1087.75 147h10"></path>
<g class="terminal ">
<path d="M1097.75 147h0"></path>
<path d="M1245.25 147h0"></path>
<rect x="1097.75" y="136" width="147.5" height="22" rx="10" ry="10"></rect>
<text x="1171.5" y="151">"USING MESSAGE"</text>
</g>
</g>
<path d="M1551 147a10 10 0 0 0 10 -10v-79a10 10 0 0 1 10 -10"></path>
</g>
<path d="M1571 48h20"></path>
</g>
<g>
<path d="M1591 48h0"></path>
<path d="M1903.5 48h0"></path>
<path d="M1591 48a10 10 0 0 0 10 -10v0a10 10 0 0 1 10 -10"></path>
<g>
<path d="M1611 28h272.5"></path>
</g>
<path d="M1883.5 28a10 10 0 0 1 10 10v0a10 10 0 0 0 10 10"></path>
<path d="M1591 48h20"></path>
<g>
<path d="M1611 48h0"></path>
<path d="M1883.5 48h0"></path>
<g class="terminal ">
<path d="M1611 48h0"></path>
<path d="M1724.5 48h0"></path>
<rect x="1611" y="37" width="113.5" height="22" rx="10" ry="10"></rect>
<text x="1667.75" y="52">"EXPORTING"</text>
</g>
<path d="M1724.5 48h10"></path>
<path d="M1734.5 48h10"></path>
<g class="non-terminal ">
<path d="M1744.5 48h0"></path>
<path d="M1883.5 48h0"></path>
<rect x="1744.5" y="37" width="139" height="22"></rect>
<a xlink:href="#/abap/expression/ParameterListS"><text x="1814" y="52">ParameterListS</text>
</a>
</g>
</g>
<path d="M1883.5 48h20"></path>
</g>
</g>
<path d="M1903.5 48h20"></path>
<path d="M476.5 48a10 10 0 0 1 10 10v109a10 10 0 0 0 10 10"></path>
<g>
<path d="M496.5 177h593.5"></path>
<path d="M1310 177h593.5"></path>
<g class="comment ">
<path d="M1090 177h0"></path>
<path d="M1219 177h0"></path>
<text x="1154.5" y="182" class="comment">v752 or open-abap</text>
</g>
<path d="M1219 177h10"></path>
<path d="M1229 177h10"></path>
<g class="non-terminal ">
<path d="M1239 177h0"></path>
<path d="M1310 177h0"></path>
<rect x="1239" y="166" width="71" height="22"></rect>
<a xlink:href="#/abap/expression/Source"><text x="1274.5" y="181">Source</text>
</a>
</g>
</g>
<path d="M1903.5 177a10 10 0 0 0 10 -10v-109a10 10 0 0 1 10 -10"></path>
<path d="M476.5 48a10 10 0 0 1 10 10v139a10 10 0 0 0 10 10"></path>
<g class="non-terminal ">
<path d="M496.5 207h638.25"></path>
<path d="M1265.25 207h638.25"></path>
<rect x="1134.75" y="196" width="130.5" height="22"></rect>
<a xlink:href="#/abap/expression/SimpleSource2"><text x="1200" y="211">SimpleSource2</text>
</a>
</g>
<path d="M1903.5 207a10 10 0 0 0 10 -10v-139a10 10 0 0 1 10 -10"></path>
</g>
</g>
<path d="M1923.5 48h20"></path>
<path d="M139.5 48a10 10 0 0 1 10 10v169a10 10 0 0 0 10 10"></path>
<g class="non-terminal ">
<path d="M159.5 237h816.75"></path>
<path d="M1106.75 237h816.75"></path>
<rect x="976.25" y="226" width="130.5" height="22"></rect>
<a xlink:href="#/abap/expression/ExceptionName"><text x="1041.5" y="241">ExceptionName</text>
</a>
</g>
<path d="M1923.5 237a10 10 0 0 0 10 -10v-169a10 10 0 0 1 10 -10"></path>
</g>
</g>
<path d="M1943.5 48h10"></path>
<path d="M 1953.5 48 h 20 m -10 -10 v 20 m 10 -20 v 20"></path>
</g>
</svg>
