<svg xmlns="http://www.w3.org/2000/svg" xmlns:xlink="http://www.w3.org/1999/xlink" class="railroad-diagram" width="992.5" height="212" viewBox="0 0 992.5 212">
<defs>
<style type="text/css"><![CDATA[
path {
stroke-width: 3;
stroke: black;
fill: rgba(0,0,0,0);
}
text {
font: bold 14px monospace;
text-anchor: middle;
}
text.diagram-text {
font-size: 12px;
}
a {
fill: blue;
}
text.diagram-arrow {
font-size: 16px;
}
text.label {
text-anchor: start;
}
text.comment {
font: italic 12px monospace;
}
rect {
stroke-width: 3;
stroke: black;
fill: #BCBCBC;
}
path.diagram-text {
stroke-width: 3;
stroke: black;
fill: #BCBCBC;
cursor: help;
}
]]></style>
</defs>
<g transform="translate(.5 .5)">
<g>
<path d="M20 21v20m10 -20v20m-10 -10h20"></path>
</g>
<path d="M40 31h10"></path>
<g>
<path d="M50 31h0"></path>
<path d="M942.5 31h0"></path>
<g class="comment ">
<path d="M50 31h0"></path>
<path d="M123 31h0"></path>
<text x="86.5" y="36" class="comment">not Cloud</text>
</g>
<path d="M123 31h10"></path>
<path d="M133 31h10"></path>
<g>
<path d="M143 31h0"></path>
<path d="M942.5 31h0"></path>
<g class="terminal ">
<path d="M143 31h0"></path>
<path d="M350 31h0"></path>
<rect x="143" y="20" width="207" height="22" rx="10" ry="10"></rect>
<text x="246.5" y="35">"ASSIGN LOCAL COPY OF"</text>
</g>
<path d="M350 31h10"></path>
<g>
<path d="M360 31h0"></path>
<path d="M694 31h0"></path>
<path d="M360 31h20"></path>
<g>
<path d="M380 31h34"></path>
<path d="M640 31h34"></path>
<g class="terminal ">
<path d="M414 31h0"></path>
<path d="M510.5 31h0"></path>
<rect x="414" y="20" width="96.5" height="22" rx="10" ry="10"></rect>
<text x="462.25" y="35">"INITIAL"</text>
</g>
<path d="M510.5 31h10"></path>
<g>
<path d="M520.5 31h0"></path>
<path d="M640 31h0"></path>
<path d="M520.5 31h20"></path>
<g class="non-terminal ">
<path d="M540.5 31h4.25"></path>
<path d="M615.75 31h4.25"></path>
<rect x="544.75" y="20" width="71" height="22"></rect>
<a xlink:href="#/abap/expression/Source"><text x="580.25" y="35">Source</text>
</a>
</g>
<path d="M620 31h20"></path>
<path d="M520.5 31a10 10 0 0 1 10 10v10a10 10 0 0 0 10 10"></path>
<g class="non-terminal ">
<path d="M540.5 61h0"></path>
<path d="M620 61h0"></path>
<rect x="540.5" y="50" width="79.5" height="22"></rect>
<a xlink:href="#/abap/expression/Dynamic"><text x="580.25" y="65">Dynamic</text>
</a>
</g>
<path d="M620 61a10 10 0 0 0 10 -10v-10a10 10 0 0 1 10 -10"></path>
</g>
</g>
<path d="M674 31h20"></path>
<path d="M360 31a10 10 0 0 1 10 10v40a10 10 0 0 0 10 10"></path>
<g>
<path d="M380 91h0"></path>
<path d="M674 91h0"></path>
<g class="terminal ">
<path d="M380 91h0"></path>
<path d="M544.5 91h0"></path>
<rect x="380" y="80" width="164.5" height="22" rx="10" ry="10"></rect>
<text x="462.25" y="95">"INITIAL LINE OF"</text>
</g>
<path d="M544.5 91h10"></path>
<g>
<path d="M554.5 91h0"></path>
<path d="M674 91h0"></path>
<path d="M554.5 91h20"></path>
<g class="non-terminal ">
<path d="M574.5 91h4.25"></path>
<path d="M649.75 91h4.25"></path>
<rect x="578.75" y="80" width="71" height="22"></rect>
<a xlink:href="#/abap/expression/Source"><text x="614.25" y="95">Source</text>
</a>
</g>
<path d="M654 91h20"></path>
<path d="M554.5 91a10 10 0 0 1 10 10v10a10 10 0 0 0 10 10"></path>
<g class="non-terminal ">
<path d="M574.5 121h0"></path>
<path d="M654 121h0"></path>
<rect x="574.5" y="110" width="79.5" height="22"></rect>
<a xlink:href="#/abap/expression/Dynamic"><text x="614.25" y="125">Dynamic</text>
</a>
</g>
<path d="M654 121a10 10 0 0 0 10 -10v-10a10 10 0 0 1 10 -10"></path>
</g>
</g>
<path d="M674 91a10 10 0 0 0 10 -10v-40a10 10 0 0 1 10 -10"></path>
<path d="M360 31a10 10 0 0 1 10 10v100a10 10 0 0 0 10 10"></path>
<g>
<path d="M380 151h10.75"></path>
<path d="M663.25 151h10.75"></path>
<g class="terminal ">
<path d="M390.75 151h0"></path>
<path d="M563.75 151h0"></path>
<rect x="390.75" y="140" width="173" height="22" rx="10" ry="10"></rect>
<text x="477.25" y="155">"MAIN TABLE FIELD"</text>
</g>
<path d="M563.75 151h10"></path>
<path d="M573.75 151h10"></path>
<g class="non-terminal ">
<path d="M583.75 151h0"></path>
<path d="M663.25 151h0"></path>
<rect x="583.75" y="140" width="79.5" height="22"></rect>
<a xlink:href="#/abap/expression/Dynamic"><text x="623.5" y="155">Dynamic</text>
</a>
</g>
</g>
<path d="M674 151a10 10 0 0 0 10 -10v-100a10 10 0 0 1 10 -10"></path>
<path d="M360 31a10 10 0 0 1 10 10v130a10 10 0 0 0 10 10"></path>
<g class="non-terminal ">
<path d="M380 181h111.5"></path>
<path d="M562.5 181h111.5"></path>
<rect x="491.5" y="170" width="71" height="22"></rect>
<a xlink:href="#/abap/expression/Source"><text x="527" y="185">Source</text>
</a>
</g>
<path d="M674 181a10 10 0 0 0 10 -10v-130a10 10 0 0 1 10 -10"></path>
</g>
<path d="M694 31h10"></path>
<g class="terminal ">
<path d="M704 31h0"></path>
<path d="M758 31h0"></path>
<rect x="704" y="20" width="54" height="22" rx="10" ry="10"></rect>
<text x="731" y="35">"TO"</text>
</g>
<path d="M758 31h10"></path>
<path d="M768 31h10"></path>
<g class="non-terminal ">
<path d="M778 31h0"></path>
<path d="M942.5 31h0"></path>
<rect x="778" y="20" width="164.5" height="22"></rect>
<a xlink:href="#/abap/expression/TargetFieldSymbol"><text x="860.25" y="35">TargetFieldSymbol</text>
</a>
</g>
</g>
</g>
<path d="M942.5 31h10"></path>
<path d="M 952.5 31 h 20 m -10 -10 v 20 m 10 -20 v 20"></path>
</g>
</svg>
