<svg xmlns="http://www.w3.org/2000/svg" xmlns:xlink="http://www.w3.org/1999/xlink" class="railroad-diagram" width="1548" height="208" viewBox="0 0 1548 208">
<defs>
<style type="text/css"><![CDATA[
path {
stroke-width: 3;
stroke: black;
fill: rgba(0,0,0,0);
}
text {
font: bold 14px monospace;
text-anchor: middle;
}
text.diagram-text {
font-size: 12px;
}
a {
fill: blue;
}
text.diagram-arrow {
font-size: 16px;
}
text.label {
text-anchor: start;
}
text.comment {
font: italic 12px monospace;
}
rect {
stroke-width: 3;
stroke: black;
fill: #BCBCBC;
}
path.diagram-text {
stroke-width: 3;
stroke: black;
fill: #BCBCBC;
cursor: help;
}
]]></style>
</defs>
<g transform="translate(.5 .5)">
<g>
<path d="M20 38v20m10 -20v20m-10 -10h20"></path>
</g>
<path d="M40 48h10"></path>
<g>
<path d="M50 48h0"></path>
<path d="M1498 48h0"></path>
<g class="terminal ">
<path d="M50 48h0"></path>
<path d="M138 48h0"></path>
<rect x="50" y="37" width="88" height="22" rx="10" ry="10"></rect>
<text x="94" y="52">"METHOD"</text>
</g>
<path d="M138 48h10"></path>
<path d="M148 48h10"></path>
<g class="non-terminal ">
<path d="M158 48h0"></path>
<path d="M263 48h0"></path>
<rect x="158" y="37" width="105" height="22"></rect>
<a xlink:href="#/abap/expression/MethodName"><text x="210.5" y="52">MethodName</text>
</a>
</g>
<path d="M263 48h10"></path>
<g>
<path d="M273 48h0"></path>
<path d="M1498 48h0"></path>
<path d="M273 48a10 10 0 0 0 10 -10v-8a10 10 0 0 1 10 -10"></path>
<g>
<path d="M293 20h1185"></path>
</g>
<path d="M1478 20a10 10 0 0 1 10 10v8a10 10 0 0 0 10 10"></path>
<path d="M273 48h20"></path>
<g>
<path d="M293 48h0"></path>
<path d="M1478 48h0"></path>
<g class="terminal ">
<path d="M293 48h0"></path>
<path d="M347 48h0"></path>
<rect x="293" y="37" width="54" height="22" rx="10" ry="10"></rect>
<text x="320" y="52">"BY"</text>
</g>
<path d="M347 48h10"></path>
<g>
<path d="M357 48h0"></path>
<path d="M1478 48h0"></path>
<path d="M357 48h20"></path>
<g>
<path d="M377 48h322.25"></path>
<path d="M1135.75 48h322.25"></path>
<g class="terminal ">
<path d="M699.25 48h0"></path>
<path d="M846.75 48h0"></path>
<rect x="699.25" y="37" width="147.5" height="22" rx="10" ry="10"></rect>
<text x="773" y="52">"KERNEL MODULE"</text>
</g>
<path d="M846.75 48h10"></path>
<path d="M856.75 48h10"></path>
<g>
<path d="M866.75 48h0"></path>
<path d="M957.75 48h0"></path>
<path d="M866.75 48h10"></path>
<g class="terminal ">
<path d="M876.75 48h0"></path>
<path d="M947.75 48h0"></path>
<rect x="876.75" y="37" width="71" height="22" rx="10" ry="10"></rect>
<text x="912.25" y="52">&#91;\w~&#93;+</text>
</g>
<path d="M947.75 48h10"></path>
<path d="M876.75 48a10 10 0 0 0 -10 10v0a10 10 0 0 0 10 10"></path>
<g>
<path d="M876.75 68h71"></path>
</g>
<path d="M947.75 68a10 10 0 0 0 10 -10v0a10 10 0 0 0 -10 -10"></path>
</g>
<path d="M957.75 48h10"></path>
<g>
<path d="M967.75 48h0"></path>
<path d="M1135.75 48h0"></path>
<path d="M967.75 48a10 10 0 0 0 10 -10v0a10 10 0 0 1 10 -10"></path>
<g>
<path d="M987.75 28h128"></path>
</g>
<path d="M1115.75 28a10 10 0 0 1 10 10v0a10 10 0 0 0 10 10"></path>
<path d="M967.75 48h20"></path>
<g>
<path d="M987.75 48h0"></path>
<path d="M1115.75 48h0"></path>
<path d="M987.75 48h20"></path>
<g class="terminal ">
<path d="M1007.75 48h8.5"></path>
<path d="M1087.25 48h8.5"></path>
<rect x="1016.25" y="37" width="71" height="22" rx="10" ry="10"></rect>
<text x="1051.75" y="52">"FAIL"</text>
</g>
<path d="M1095.75 48h20"></path>
<path d="M987.75 48a10 10 0 0 1 10 10v10a10 10 0 0 0 10 10"></path>
<g class="terminal ">
<path d="M1007.75 78h0"></path>
<path d="M1095.75 78h0"></path>
<rect x="1007.75" y="67" width="88" height="22" rx="10" ry="10"></rect>
<text x="1051.75" y="82">"IGNORE"</text>
</g>
<path d="M1095.75 78a10 10 0 0 0 10 -10v-10a10 10 0 0 1 10 -10"></path>
</g>
<path d="M1115.75 48h20"></path>
</g>
</g>
<path d="M1458 48h20"></path>
<path d="M357 48a10 10 0 0 1 10 10v49a10 10 0 0 0 10 10"></path>
<g>
<path d="M377 117h0"></path>
<path d="M1458 117h0"></path>
<g class="terminal ">
<path d="M377 117h0"></path>
<path d="M482 117h0"></path>
<rect x="377" y="106" width="105" height="22" rx="10" ry="10"></rect>
<text x="429.5" y="121">"DATABASE"</text>
</g>
<path d="M482 117h10"></path>
<g>
<path d="M492 117h0"></path>
<path d="M696.5 117h0"></path>
<path d="M492 117h20"></path>
<g class="terminal ">
<path d="M512 117h25.5"></path>
<path d="M651 117h25.5"></path>
<rect x="537.5" y="106" width="113.5" height="22" rx="10" ry="10"></rect>
<text x="594.25" y="121">"PROCEDURE"</text>
</g>
<path d="M676.5 117h20"></path>
<path d="M492 117a10 10 0 0 1 10 10v10a10 10 0 0 0 10 10"></path>
<g class="terminal ">
<path d="M512 147h29.75"></path>
<path d="M646.75 147h29.75"></path>
<rect x="541.75" y="136" width="105" height="22" rx="10" ry="10"></rect>
<text x="594.25" y="151">"FUNCTION"</text>
</g>
<path d="M676.5 147a10 10 0 0 0 10 -10v-10a10 10 0 0 1 10 -10"></path>
<path d="M492 117a10 10 0 0 1 10 10v40a10 10 0 0 0 10 10"></path>
<g class="terminal ">
<path d="M512 177h0"></path>
<path d="M676.5 177h0"></path>
<rect x="512" y="166" width="164.5" height="22" rx="10" ry="10"></rect>
<text x="594.25" y="181">"GRAPH WORKSPACE"</text>
</g>
<path d="M676.5 177a10 10 0 0 0 10 -10v-40a10 10 0 0 1 10 -10"></path>
</g>
<path d="M696.5 117h10"></path>
<g class="terminal ">
<path d="M706.5 117h0"></path>
<path d="M803 117h0"></path>
<rect x="706.5" y="106" width="96.5" height="22" rx="10" ry="10"></rect>
<text x="754.75" y="121">"FOR HDB"</text>
</g>
<path d="M803 117h10"></path>
<path d="M813 117h10"></path>
<g class="non-terminal ">
<path d="M823 117h0"></path>
<path d="M911 117h0"></path>
<rect x="823" y="106" width="88" height="22"></rect>
<a xlink:href="#/abap/expression/Language"><text x="867" y="121">Language</text>
</a>
</g>
<path d="M911 117h10"></path>
<g>
<path d="M921 117h0"></path>
<path d="M1142.5 117h0"></path>
<path d="M921 117a10 10 0 0 0 10 -10v0a10 10 0 0 1 10 -10"></path>
<g>
<path d="M941 97h181.5"></path>
</g>
<path d="M1122.5 97a10 10 0 0 1 10 10v0a10 10 0 0 0 10 10"></path>
<path d="M921 117h20"></path>
<g class="terminal ">
<path d="M941 117h0"></path>
<path d="M1122.5 117h0"></path>
<rect x="941" y="106" width="181.5" height="22" rx="10" ry="10"></rect>
<text x="1031.75" y="121">"OPTIONS READ-ONLY"</text>
</g>
<path d="M1122.5 117h20"></path>
</g>
<g>
<path d="M1142.5 117h0"></path>
<path d="M1458 117h0"></path>
<path d="M1142.5 117a10 10 0 0 0 10 -10v0a10 10 0 0 1 10 -10"></path>
<g>
<path d="M1162.5 97h275.5"></path>
</g>
<path d="M1438 97a10 10 0 0 1 10 10v0a10 10 0 0 0 10 10"></path>
<path d="M1142.5 117h20"></path>
<g>
<path d="M1162.5 117h0"></path>
<path d="M1438 117h0"></path>
<g class="terminal ">
<path d="M1162.5 117h0"></path>
<path d="M1242 117h0"></path>
<rect x="1162.5" y="106" width="79.5" height="22" rx="10" ry="10"></rect>
<text x="1202.25" y="121">"USING"</text>
</g>
<path d="M1242 117h10"></path>
<path d="M1252 117h10"></path>
<g>
<path d="M1262 117h0"></path>
<path d="M1438 117h0"></path>
<path d="M1262 117h10"></path>
<g class="non-terminal ">
<path d="M1272 117h0"></path>
<path d="M1428 117h0"></path>
<rect x="1272" y="106" width="156" height="22"></rect>
<a xlink:href="#/abap/expression/SimpleFieldChain"><text x="1350" y="121">SimpleFieldChain</text>
</a>
</g>
<path d="M1428 117h10"></path>
<path d="M1272 117a10 10 0 0 0 -10 10v0a10 10 0 0 0 10 10"></path>
<g>
<path d="M1272 137h156"></path>
</g>
<path d="M1428 137a10 10 0 0 0 10 -10v0a10 10 0 0 0 -10 -10"></path>
</g>
</g>
<path d="M1438 117h20"></path>
</g>
</g>
<path d="M1458 117a10 10 0 0 0 10 -10v-49a10 10 0 0 1 10 -10"></path>
</g>
</g>
<path d="M1478 48h20"></path>
</g>
</g>
<path d="M1498 48h10"></path>
<path d="M 1508 48 h 20 m -10 -10 v 20 m 10 -20 v 20"></path>
</g>
</svg>
