<svg xmlns="http://www.w3.org/2000/svg" xmlns:xlink="http://www.w3.org/1999/xlink" class="railroad-diagram" width="951" height="147" viewBox="0 0 951 147">
<defs>
<style type="text/css"><![CDATA[
path {
stroke-width: 3;
stroke: black;
fill: rgba(0,0,0,0);
}
text {
font: bold 14px monospace;
text-anchor: middle;
}
text.diagram-text {
font-size: 12px;
}
a {
fill: blue;
}
text.diagram-arrow {
font-size: 16px;
}
text.label {
text-anchor: start;
}
text.comment {
font: italic 12px monospace;
}
rect {
stroke-width: 3;
stroke: black;
fill: #BCBCBC;
}
path.diagram-text {
stroke-width: 3;
stroke: black;
fill: #BCBCBC;
cursor: help;
}
]]></style>
</defs>
<g transform="translate(.5 .5)">
<g>
<path d="M20 38v20m10 -20v20m-10 -10h20"></path>
</g>
<path d="M40 48h10"></path>
<g>
<path d="M50 48h0"></path>
<path d="M901 48h0"></path>
<g>
<path d="M50 48h0"></path>
<path d="M123 48h0"></path>
<text x="86.5" y="53" class="comment">not Cloud</text>
</g>
<path d="M123 48h10"></path>
<path d="M133 48h10"></path>
<g>
<path d="M143 48h0"></path>
<path d="M901 48h0"></path>
<g class="terminal">
<path d="M143 48h0"></path>
<path d="M214 48h0"></path>
<rect x="143" y="37" width="71" height="22" rx="10" ry="10"></rect>
<text x="178.5" y="52">"SORT"</text>
</g>
<path d="M214 48h10"></path>
<g>
<path d="M224 48h0"></path>
<path d="M360.5 48h0"></path>
<path d="M224 48a10 10 0 0 0 10 -10v0a10 10 0 0 1 10 -10"></path>
<g>
<path d="M244 28h96.5"></path>
</g>
<path d="M340.5 28a10 10 0 0 1 10 10v0a10 10 0 0 0 10 10"></path>
<path d="M224 48h20"></path>
<g class="terminal">
<path d="M244 48h0"></path>
<path d="M340.5 48h0"></path>
<rect x="244" y="37" width="96.5" height="22" rx="10" ry="10"></rect>
<text x="292.25" y="52">"AS TEXT"</text>
</g>
<path d="M340.5 48h20"></path>
</g>
<g>
<path d="M360.5 48h0"></path>
<path d="M901 48h0"></path>
<path d="M360.5 48a10 10 0 0 0 10 -10v-8a10 10 0 0 1 10 -10"></path>
<g>
<path d="M380.5 20h500.5"></path>
</g>
<path d="M881 20a10 10 0 0 1 10 10v8a10 10 0 0 0 10 10"></path>
<path d="M360.5 48h20"></path>
<g>
<path d="M380.5 48h0"></path>
<path d="M881 48h0"></path>
<g class="terminal">
<path d="M380.5 48h0"></path>
<path d="M434.5 48h0"></path>
<rect x="380.5" y="37" width="54" height="22" rx="10" ry="10"></rect>
<text x="407.5" y="52">"BY"</text>
</g>
<path d="M434.5 48h10"></path>
<path d="M444.5 48h10"></path>
<g>
<path d="M454.5 48h0"></path>
<path d="M881 48h0"></path>
<path d="M454.5 48h10"></path>
<g>
<path d="M464.5 48h0"></path>
<path d="M871 48h0"></path>
<g>
<path d="M464.5 48h0"></path>
<path d="M669 48h0"></path>
<path d="M464.5 48h20"></path>
<g class="non-terminal">
<path d="M484.5 48h0"></path>
<path d="M623.5 48h25.5"></path>
<rect x="484.5" y="37" width="139" height="22"></rect>
<a xlink:href="#/abap/expression/ComponentChain"><text x="554" y="52">ComponentChain</text>
</a>
</g>
<path d="M649 48h20"></path>
<path d="M464.5 48a10 10 0 0 1 10 10v10a10 10 0 0 0 10 10"></path>
<g class="non-terminal">
<path d="M484.5 78h0"></path>
<path d="M649 78h0"></path>
<rect x="484.5" y="67" width="164.5" height="22"></rect>
<a xlink:href="#/abap/expression/SourceFieldSymbol"><text x="566.75" y="82">SourceFieldSymbol</text>
</a>
</g>
<path d="M649 78a10 10 0 0 0 10 -10v-10a10 10 0 0 1 10 -10"></path>
<path d="M464.5 48a10 10 0 0 1 10 10v40a10 10 0 0 0 10 10"></path>
<g class="non-terminal">
<path d="M484.5 108h0"></path>
<path d="M564 108h85"></path>
<rect x="484.5" y="97" width="79.5" height="22"></rect>
<a xlink:href="#/abap/expression/Dynamic"><text x="524.25" y="112">Dynamic</text>
</a>
</g>
<path d="M649 108a10 10 0 0 0 10 -10v-40a10 10 0 0 1 10 -10"></path>
</g>
<g>
<path d="M669 48h0"></path>
<path d="M871 48h0"></path>
<path d="M669 48a10 10 0 0 0 10 -10v0a10 10 0 0 1 10 -10"></path>
<g>
<path d="M689 28h162"></path>
</g>
<path d="M851 28a10 10 0 0 1 10 10v0a10 10 0 0 0 10 10"></path>
<path d="M669 48h20"></path>
<g>
<path d="M689 48h0"></path>
<path d="M851 48h0"></path>
<path d="M689 48h20"></path>
<g class="terminal">
<path d="M709 48h0"></path>
<path d="M822.5 48h8.5"></path>
<rect x="709" y="37" width="113.5" height="22" rx="10" ry="10"></rect>
<text x="765.75" y="52">"ASCENDING"</text>
</g>
<path d="M831 48h20"></path>
<path d="M689 48a10 10 0 0 1 10 10v10a10 10 0 0 0 10 10"></path>
<g class="terminal">
<path d="M709 78h0"></path>
<path d="M831 78h0"></path>
<rect x="709" y="67" width="122" height="22" rx="10" ry="10"></rect>
<text x="770" y="82">"DESCENDING"</text>
</g>
<path d="M831 78a10 10 0 0 0 10 -10v-10a10 10 0 0 1 10 -10"></path>
</g>
<path d="M851 48h20"></path>
</g>
</g>
<path d="M871 48h10"></path>
<path d="M464.5 48a10 10 0 0 0 -10 10v59a10 10 0 0 0 10 10"></path>
<g>
<path d="M464.5 127h406.5"></path>
</g>
<path d="M871 127a10 10 0 0 0 10 -10v-59a10 10 0 0 0 -10 -10"></path>
</g>
</g>
<path d="M881 48h20"></path>
</g>
</g>
</g>
<path d="M901 48h10"></path>
<path d="M 911 48 h 20 m -10 -10 v 20 m 10 -20 v 20"></path>
</g>
</svg>
