<svg xmlns="http://www.w3.org/2000/svg" xmlns:xlink="http://www.w3.org/1999/xlink" class="railroad-diagram" width="2458.5" height="410" viewBox="0 0 2458.5 410">
<defs>
<style type="text/css"><![CDATA[
path {
stroke-width: 3;
stroke: black;
fill: rgba(0,0,0,0);
}
text {
font: bold 14px monospace;
text-anchor: middle;
}
text.diagram-text {
font-size: 12px;
}
a {
fill: blue;
}
text.diagram-arrow {
font-size: 16px;
}
text.label {
text-anchor: start;
}
text.comment {
font: italic 12px monospace;
}
rect {
stroke-width: 3;
stroke: black;
fill: #BCBCBC;
}
path.diagram-text {
stroke-width: 3;
stroke: black;
fill: #BCBCBC;
cursor: help;
}
]]></style>
</defs>
<g transform="translate(.5 .5)">
<g>
<path d="M20 30v20m10 -20v20m-10 -10h20"></path>
</g>
<path d="M40 40h10"></path>
<g>
<path d="M50 40h0"></path>
<path d="M2408.5 40h0"></path>
<g class="terminal ">
<path d="M50 40h0"></path>
<path d="M138 40h0"></path>
<rect x="50" y="29" width="88" height="22" rx="10" ry="10"></rect>
<text x="94" y="44">"EXPORT"</text>
</g>
<path d="M138 40h10"></path>
<g>
<path d="M148 40h0"></path>
<path d="M603.5 40h0"></path>
<path d="M148 40h20"></path>
<g>
<path d="M168 40h0"></path>
<path d="M583.5 40h0"></path>
<path d="M168 40h10"></path>
<g>
<path d="M178 40h0"></path>
<path d="M573.5 40h0"></path>
<path d="M178 40h20"></path>
<g>
<path d="M198 40h0"></path>
<path d="M553.5 40h0"></path>
<g>
<path d="M198 40h0"></path>
<path d="M351.5 40h0"></path>
<path d="M198 40h20"></path>
<g class="non-terminal ">
<path d="M218 40h12.75"></path>
<path d="M318.75 40h12.75"></path>
<rect x="230.75" y="29" width="88" height="22"></rect>
<a xlink:href="#/abap/expression/FieldSub"><text x="274.75" y="44">FieldSub</text>
</a>
</g>
<path d="M331.5 40h20"></path>
<path d="M198 40a10 10 0 0 1 10 10v10a10 10 0 0 0 10 10"></path>
<g class="non-terminal ">
<path d="M218 70h0"></path>
<path d="M331.5 70h0"></path>
<rect x="218" y="59" width="113.5" height="22"></rect>
<a xlink:href="#/abap/expression/FieldSymbol"><text x="274.75" y="74">FieldSymbol</text>
</a>
</g>
<path d="M331.5 70a10 10 0 0 0 10 -10v-10a10 10 0 0 1 10 -10"></path>
</g>
<path d="M351.5 40h10"></path>
<g>
<path d="M361.5 40h0"></path>
<path d="M553.5 40h0"></path>
<g>
<path d="M361.5 40h0"></path>
<path d="M472.5 40h0"></path>
<path d="M361.5 40h20"></path>
<g class="terminal ">
<path d="M381.5 40h0"></path>
<path d="M452.5 40h0"></path>
<rect x="381.5" y="29" width="71" height="22" rx="10" ry="10"></rect>
<text x="417" y="44">"FROM"</text>
</g>
<path d="M452.5 40h20"></path>
<path d="M361.5 40a10 10 0 0 1 10 10v10a10 10 0 0 0 10 10"></path>
<g class="terminal ">
<path d="M381.5 70h12.75"></path>
<path d="M439.75 70h12.75"></path>
<rect x="394.25" y="59" width="45.5" height="22" rx="10" ry="10"></rect>
<text x="417" y="74">"="</text>
</g>
<path d="M452.5 70a10 10 0 0 0 10 -10v-10a10 10 0 0 1 10 -10"></path>
</g>
<path d="M472.5 40h10"></path>
<g class="non-terminal ">
<path d="M482.5 40h0"></path>
<path d="M553.5 40h0"></path>
<rect x="482.5" y="29" width="71" height="22"></rect>
<a xlink:href="#/abap/expression/Source"><text x="518" y="44">Source</text>
</a>
</g>
</g>
</g>
<path d="M553.5 40h20"></path>
<path d="M178 40a10 10 0 0 1 10 10v40a10 10 0 0 0 10 10"></path>
<g>
<path d="M198 100h101"></path>
<path d="M452.5 100h101"></path>
<path d="M299 100h20"></path>
<g class="non-terminal ">
<path d="M319 100h12.75"></path>
<path d="M419.75 100h12.75"></path>
<rect x="331.75" y="89" width="88" height="22"></rect>
<a xlink:href="#/abap/expression/FieldSub"><text x="375.75" y="104">FieldSub</text>
</a>
</g>
<path d="M432.5 100h20"></path>
<path d="M299 100a10 10 0 0 1 10 10v10a10 10 0 0 0 10 10"></path>
<g class="non-terminal ">
<path d="M319 130h0"></path>
<path d="M432.5 130h0"></path>
<rect x="319" y="119" width="113.5" height="22"></rect>
<a xlink:href="#/abap/expression/FieldSymbol"><text x="375.75" y="134">FieldSymbol</text>
</a>
</g>
<path d="M432.5 130a10 10 0 0 0 10 -10v-10a10 10 0 0 1 10 -10"></path>
</g>
<path d="M553.5 100a10 10 0 0 0 10 -10v-40a10 10 0 0 1 10 -10"></path>
</g>
<path d="M573.5 40h10"></path>
<path d="M178 40a10 10 0 0 0 -10 10v89a10 10 0 0 0 10 10"></path>
<g>
<path d="M178 149h395.5"></path>
</g>
<path d="M573.5 149a10 10 0 0 0 10 -10v-89a10 10 0 0 0 -10 -10"></path>
</g>
<path d="M583.5 40h20"></path>
<path d="M148 40a10 10 0 0 1 10 10v108a10 10 0 0 0 10 10"></path>
<g class="non-terminal ">
<path d="M168 168h168"></path>
<path d="M415.5 168h168"></path>
<rect x="336" y="157" width="79.5" height="22"></rect>
<a xlink:href="#/abap/expression/Dynamic"><text x="375.75" y="172">Dynamic</text>
</a>
</g>
<path d="M583.5 168a10 10 0 0 0 10 -10v-108a10 10 0 0 1 10 -10"></path>
<path d="M148 40a10 10 0 0 1 10 10v138a10 10 0 0 0 10 10"></path>
<g class="non-terminal ">
<path d="M168 198h163.75"></path>
<path d="M419.75 198h163.75"></path>
<rect x="331.75" y="187" width="88" height="22"></rect>
<a xlink:href="#/abap/expression/Constant"><text x="375.75" y="202">Constant</text>
</a>
</g>
<path d="M583.5 198a10 10 0 0 0 10 -10v-138a10 10 0 0 1 10 -10"></path>
</g>
<path d="M603.5 40h10"></path>
<g class="terminal ">
<path d="M613.5 40h0"></path>
<path d="M667.5 40h0"></path>
<rect x="613.5" y="29" width="54" height="22" rx="10" ry="10"></rect>
<text x="640.5" y="44">"TO"</text>
</g>
<path d="M667.5 40h10"></path>
<g>
<path d="M677.5 40h0"></path>
<path d="M1838.5 40h0"></path>
<path d="M677.5 40h20"></path>
<g>
<path d="M697.5 40h449.75"></path>
<path d="M1368.75 40h449.75"></path>
<g class="terminal ">
<path d="M1147.25 40h0"></path>
<path d="M1277.75 40h0"></path>
<rect x="1147.25" y="29" width="130.5" height="22" rx="10" ry="10"></rect>
<text x="1212.5" y="44">"DATA BUFFER"</text>
</g>
<path d="M1277.75 40h10"></path>
<path d="M1287.75 40h10"></path>
<g class="non-terminal ">
<path d="M1297.75 40h0"></path>
<path d="M1368.75 40h0"></path>
<rect x="1297.75" y="29" width="71" height="22"></rect>
<a xlink:href="#/abap/expression/Target"><text x="1333.25" y="44">Target</text>
</a>
</g>
</g>
<path d="M1818.5 40h20"></path>
<path d="M677.5 40a10 10 0 0 1 10 10v19a10 10 0 0 0 10 10"></path>
<g>
<path d="M697.5 79h419"></path>
<path d="M1399.5 79h419"></path>
<g class="terminal ">
<path d="M1116.5 79h0"></path>
<path d="M1204.5 79h0"></path>
<rect x="1116.5" y="68" width="88" height="22" rx="10" ry="10"></rect>
<text x="1160.5" y="83">"MEMORY"</text>
</g>
<path d="M1204.5 79h10"></path>
<g>
<path d="M1214.5 79h0"></path>
<path d="M1399.5 79h0"></path>
<path d="M1214.5 79a10 10 0 0 0 10 -10v0a10 10 0 0 1 10 -10"></path>
<g>
<path d="M1234.5 59h145"></path>
</g>
<path d="M1379.5 59a10 10 0 0 1 10 10v0a10 10 0 0 0 10 10"></path>
<path d="M1214.5 79h20"></path>
<g>
<path d="M1234.5 79h0"></path>
<path d="M1379.5 79h0"></path>
<g class="terminal ">
<path d="M1234.5 79h0"></path>
<path d="M1288.5 79h0"></path>
<rect x="1234.5" y="68" width="54" height="22" rx="10" ry="10"></rect>
<text x="1261.5" y="83">"ID"</text>
</g>
<path d="M1288.5 79h10"></path>
<path d="M1298.5 79h10"></path>
<g class="non-terminal ">
<path d="M1308.5 79h0"></path>
<path d="M1379.5 79h0"></path>
<rect x="1308.5" y="68" width="71" height="22"></rect>
<a xlink:href="#/abap/expression/Source"><text x="1344" y="83">Source</text>
</a>
</g>
</g>
<path d="M1379.5 79h20"></path>
</g>
</g>
<path d="M1818.5 79a10 10 0 0 0 10 -10v-19a10 10 0 0 1 10 -10"></path>
<path d="M677.5 40a10 10 0 0 1 10 10v49a10 10 0 0 0 10 10"></path>
<g>
<path d="M697.5 109h36.25"></path>
<path d="M1782.25 109h36.25"></path>
<g class="terminal ">
<path d="M733.75 109h0"></path>
<path d="M838.75 109h0"></path>
<rect x="733.75" y="98" width="105" height="22" rx="10" ry="10"></rect>
<text x="786.25" y="113">"DATABASE"</text>
</g>
<path d="M838.75 109h10"></path>
<path d="M848.75 109h10"></path>
<g>
<path d="M858.75 109h0"></path>
<path d="M1500.25 109h0"></path>
<g class="non-terminal ">
<path d="M858.75 109h0"></path>
<path d="M1040.25 109h0"></path>
<rect x="858.75" y="98" width="181.5" height="22"></rect>
<a xlink:href="#/abap/expression/NamespaceSimpleName"><text x="949.5" y="113">NamespaceSimpleName</text>
</a>
</g>
<path d="M1040.25 109h10"></path>
<path d="M1050.25 109h10"></path>
<g class="terminal ">
<path d="M1060.25 109h0"></path>
<path d="M1182.25 109h0"></path>
<rect x="1060.25" y="98" width="122" height="22" rx="10" ry="10"></rect>
<text x="1121.25" y="113">!"ParenLeft"</text>
</g>
<path d="M1182.25 109h10"></path>
<path d="M1192.25 109h10"></path>
<g class="terminal ">
<path d="M1202.25 109h0"></path>
<path d="M1341.25 109h0"></path>
<rect x="1202.25" y="98" width="139" height="22" rx="10" ry="10"></rect>
<text x="1271.75" y="113">^&#91;\w$%\^~&#93;{2}$</text>
</g>
<path d="M1341.25 109h10"></path>
<path d="M1351.25 109h10"></path>
<g class="terminal ">
<path d="M1361.25 109h0"></path>
<path d="M1500.25 109h0"></path>
<rect x="1361.25" y="98" width="139" height="22" rx="10" ry="10"></rect>
<text x="1430.75" y="113">!"ParenRightW"</text>
</g>
</g>
<path d="M1500.25 109h10"></path>
<path d="M1510.25 109h10"></path>
<g>
<path d="M1520.25 109h0"></path>
<path d="M1782.25 109h0"></path>
<path d="M1550.25 109h10"></path>
<g>
<path d="M1560.25 109h0"></path>
<path d="M1752.25 109h0"></path>
<g>
<path d="M1560.25 109h0"></path>
<path d="M1671.25 109h0"></path>
<path d="M1560.25 109h20"></path>
<g class="terminal ">
<path d="M1580.25 109h0"></path>
<path d="M1651.25 109h0"></path>
<rect x="1580.25" y="98" width="71" height="22" rx="10" ry="10"></rect>
<text x="1615.75" y="113">"FROM"</text>
</g>
<path d="M1651.25 109h20"></path>
<path d="M1560.25 109a10 10 0 0 1 10 10v10a10 10 0 0 0 10 10"></path>
<g class="terminal ">
<path d="M1580.25 139h12.75"></path>
<path d="M1638.5 139h12.75"></path>
<rect x="1593" y="128" width="45.5" height="22" rx="10" ry="10"></rect>
<text x="1615.75" y="143">"="</text>
</g>
<path d="M1651.25 139a10 10 0 0 0 10 -10v-10a10 10 0 0 1 10 -10"></path>
</g>
<path d="M1671.25 109h10"></path>
<g class="non-terminal ">
<path d="M1681.25 109h0"></path>
<path d="M1752.25 109h0"></path>
<rect x="1681.25" y="98" width="71" height="22"></rect>
<a xlink:href="#/abap/expression/Source"><text x="1716.75" y="113">Source</text>
</a>
</g>
</g>
<path d="M1752.25 109h10"></path>
<path d="M1550.25 109v50a10 10 0 0 0 10 10"></path>
<g>
<path d="M1560.25 169h6.5"></path>
<path d="M1745.75 169h6.5"></path>
<g class="terminal ">
<path d="M1566.75 169h0"></path>
<path d="M1654.75 169h0"></path>
<rect x="1566.75" y="158" width="88" height="22" rx="10" ry="10"></rect>
<text x="1610.75" y="173">"CLIENT"</text>
</g>
<path d="M1654.75 169h10"></path>
<path d="M1664.75 169h10"></path>
<g class="non-terminal ">
<path d="M1674.75 169h0"></path>
<path d="M1745.75 169h0"></path>
<rect x="1674.75" y="158" width="71" height="22"></rect>
<a xlink:href="#/abap/expression/Source"><text x="1710.25" y="173">Source</text>
</a>
</g>
</g>
<path d="M1752.25 169a10 10 0 0 0 10 -10v-50"></path>
<path d="M1550.25 109v80a10 10 0 0 0 10 10"></path>
<g>
<path d="M1560.25 199h23.5"></path>
<path d="M1728.75 199h23.5"></path>
<g class="terminal ">
<path d="M1583.75 199h0"></path>
<path d="M1637.75 199h0"></path>
<rect x="1583.75" y="188" width="54" height="22" rx="10" ry="10"></rect>
<text x="1610.75" y="203">"ID"</text>
</g>
<path d="M1637.75 199h10"></path>
<path d="M1647.75 199h10"></path>
<g class="non-terminal ">
<path d="M1657.75 199h0"></path>
<path d="M1728.75 199h0"></path>
<rect x="1657.75" y="188" width="71" height="22"></rect>
<a xlink:href="#/abap/expression/Source"><text x="1693.25" y="203">Source</text>
</a>
</g>
</g>
<path d="M1752.25 199a10 10 0 0 0 10 -10v-80"></path>
<path d="M1550.25 109v110a10 10 0 0 0 10 10"></path>
<g>
<path d="M1560.25 229h10.75"></path>
<path d="M1741.5 229h10.75"></path>
<g class="terminal ">
<path d="M1571 229h0"></path>
<path d="M1650.5 229h0"></path>
<rect x="1571" y="218" width="79.5" height="22" rx="10" ry="10"></rect>
<text x="1610.75" y="233">"USING"</text>
</g>
<path d="M1650.5 229h10"></path>
<path d="M1660.5 229h10"></path>
<g class="non-terminal ">
<path d="M1670.5 229h0"></path>
<path d="M1741.5 229h0"></path>
<rect x="1670.5" y="218" width="71" height="22"></rect>
<a xlink:href="#/abap/expression/Source"><text x="1706" y="233">Source</text>
</a>
</g>
</g>
<path d="M1752.25 229a10 10 0 0 0 10 -10v-110"></path>
<g class="diagram-text">
<title>take one or more branches, once each, in any order</title>
<path d="M 1550.25 99 h -26 a 4 4 0 0 0 -4 4 v 12 a 4 4 0 0 0 4 4 h 26 z" class="diagram-text"></path>
<text x="1535.25" y="113" class="diagram-text">1+</text>
<path d="M 1762.25 99 h 16 a 4 4 0 0 1 4 4 v 12 a 4 4 0 0 1 -4 4 h -16 z" class="diagram-text"></path>
<path d="M 1769.25 107 a 4 4 0 1 0 6 -1 m 2.75 -1 h -4 v 4 m 0 -3 h 2" style="stroke-width: 1.75"></path>
</g>
</g>
</g>
<path d="M1818.5 109a10 10 0 0 0 10 -10v-49a10 10 0 0 1 10 -10"></path>
<path d="M677.5 40a10 10 0 0 1 10 10v199a10 10 0 0 0 10 10"></path>
<g>
<path d="M697.5 259h437"></path>
<path d="M1381.5 259h437"></path>
<g class="terminal ">
<path d="M1134.5 259h0"></path>
<path d="M1290.5 259h0"></path>
<rect x="1134.5" y="248" width="156" height="22" rx="10" ry="10"></rect>
<text x="1212.5" y="263">"INTERNAL TABLE"</text>
</g>
<path d="M1290.5 259h10"></path>
<path d="M1300.5 259h10"></path>
<g class="non-terminal ">
<path d="M1310.5 259h0"></path>
<path d="M1381.5 259h0"></path>
<rect x="1310.5" y="248" width="71" height="22"></rect>
<a xlink:href="#/abap/expression/Target"><text x="1346" y="263">Target</text>
</a>
</g>
</g>
<path d="M1818.5 259a10 10 0 0 0 10 -10v-199a10 10 0 0 1 10 -10"></path>
<path d="M677.5 40a10 10 0 0 1 10 10v229a10 10 0 0 0 10 10"></path>
<g>
<path d="M697.5 289h0"></path>
<path d="M1818.5 289h0"></path>
<g>
<path d="M697.5 289h0"></path>
<path d="M885 289h0"></path>
<path d="M697.5 289h20"></path>
<g class="terminal ">
<path d="M717.5 289h0"></path>
<path d="M865 289h0"></path>
<rect x="717.5" y="278" width="147.5" height="22" rx="10" ry="10"></rect>
<text x="791.25" y="293">"SHARED MEMORY"</text>
</g>
<path d="M865 289h20"></path>
<path d="M697.5 289a10 10 0 0 1 10 10v10a10 10 0 0 0 10 10"></path>
<g class="terminal ">
<path d="M717.5 319h0"></path>
<path d="M865 319h0"></path>
<rect x="717.5" y="308" width="147.5" height="22" rx="10" ry="10"></rect>
<text x="791.25" y="323">"SHARED BUFFER"</text>
</g>
<path d="M865 319a10 10 0 0 0 10 -10v-10a10 10 0 0 1 10 -10"></path>
</g>
<path d="M885 289h10"></path>
<g>
<path d="M895 289h0"></path>
<path d="M1536.5 289h0"></path>
<g class="non-terminal ">
<path d="M895 289h0"></path>
<path d="M1076.5 289h0"></path>
<rect x="895" y="278" width="181.5" height="22"></rect>
<a xlink:href="#/abap/expression/NamespaceSimpleName"><text x="985.75" y="293">NamespaceSimpleName</text>
</a>
</g>
<path d="M1076.5 289h10"></path>
<path d="M1086.5 289h10"></path>
<g class="terminal ">
<path d="M1096.5 289h0"></path>
<path d="M1218.5 289h0"></path>
<rect x="1096.5" y="278" width="122" height="22" rx="10" ry="10"></rect>
<text x="1157.5" y="293">!"ParenLeft"</text>
</g>
<path d="M1218.5 289h10"></path>
<path d="M1228.5 289h10"></path>
<g class="terminal ">
<path d="M1238.5 289h0"></path>
<path d="M1377.5 289h0"></path>
<rect x="1238.5" y="278" width="139" height="22" rx="10" ry="10"></rect>
<text x="1308" y="293">^&#91;\w$%\^~&#93;{2}$</text>
</g>
<path d="M1377.5 289h10"></path>
<path d="M1387.5 289h10"></path>
<g class="terminal ">
<path d="M1397.5 289h0"></path>
<path d="M1536.5 289h0"></path>
<rect x="1397.5" y="278" width="139" height="22" rx="10" ry="10"></rect>
<text x="1467" y="293">!"ParenRightW"</text>
</g>
</g>
<path d="M1536.5 289h10"></path>
<path d="M1546.5 289h10"></path>
<g>
<path d="M1556.5 289h0"></path>
<path d="M1818.5 289h0"></path>
<path d="M1586.5 289h10"></path>
<g>
<path d="M1596.5 289h0"></path>
<path d="M1788.5 289h0"></path>
<g>
<path d="M1596.5 289h0"></path>
<path d="M1707.5 289h0"></path>
<path d="M1596.5 289h20"></path>
<g class="terminal ">
<path d="M1616.5 289h0"></path>
<path d="M1687.5 289h0"></path>
<rect x="1616.5" y="278" width="71" height="22" rx="10" ry="10"></rect>
<text x="1652" y="293">"FROM"</text>
</g>
<path d="M1687.5 289h20"></path>
<path d="M1596.5 289a10 10 0 0 1 10 10v10a10 10 0 0 0 10 10"></path>
<g class="terminal ">
<path d="M1616.5 319h12.75"></path>
<path d="M1674.75 319h12.75"></path>
<rect x="1629.25" y="308" width="45.5" height="22" rx="10" ry="10"></rect>
<text x="1652" y="323">"="</text>
</g>
<path d="M1687.5 319a10 10 0 0 0 10 -10v-10a10 10 0 0 1 10 -10"></path>
</g>
<path d="M1707.5 289h10"></path>
<g class="non-terminal ">
<path d="M1717.5 289h0"></path>
<path d="M1788.5 289h0"></path>
<rect x="1717.5" y="278" width="71" height="22"></rect>
<a xlink:href="#/abap/expression/Source"><text x="1753" y="293">Source</text>
</a>
</g>
</g>
<path d="M1788.5 289h10"></path>
<path d="M1586.5 289v50a10 10 0 0 0 10 10"></path>
<g>
<path d="M1596.5 349h6.5"></path>
<path d="M1782 349h6.5"></path>
<g class="terminal ">
<path d="M1603 349h0"></path>
<path d="M1691 349h0"></path>
<rect x="1603" y="338" width="88" height="22" rx="10" ry="10"></rect>
<text x="1647" y="353">"CLIENT"</text>
</g>
<path d="M1691 349h10"></path>
<path d="M1701 349h10"></path>
<g class="non-terminal ">
<path d="M1711 349h0"></path>
<path d="M1782 349h0"></path>
<rect x="1711" y="338" width="71" height="22"></rect>
<a xlink:href="#/abap/expression/Source"><text x="1746.5" y="353">Source</text>
</a>
</g>
</g>
<path d="M1788.5 349a10 10 0 0 0 10 -10v-50"></path>
<path d="M1586.5 289v80a10 10 0 0 0 10 10"></path>
<g>
<path d="M1596.5 379h23.5"></path>
<path d="M1765 379h23.5"></path>
<g class="terminal ">
<path d="M1620 379h0"></path>
<path d="M1674 379h0"></path>
<rect x="1620" y="368" width="54" height="22" rx="10" ry="10"></rect>
<text x="1647" y="383">"ID"</text>
</g>
<path d="M1674 379h10"></path>
<path d="M1684 379h10"></path>
<g class="non-terminal ">
<path d="M1694 379h0"></path>
<path d="M1765 379h0"></path>
<rect x="1694" y="368" width="71" height="22"></rect>
<a xlink:href="#/abap/expression/Source"><text x="1729.5" y="383">Source</text>
</a>
</g>
</g>
<path d="M1788.5 379a10 10 0 0 0 10 -10v-80"></path>
<g class="diagram-text">
<title>take one or more branches, once each, in any order</title>
<path d="M 1586.5 279 h -26 a 4 4 0 0 0 -4 4 v 12 a 4 4 0 0 0 4 4 h 26 z" class="diagram-text"></path>
<text x="1571.5" y="293" class="diagram-text">1+</text>
<path d="M 1798.5 279 h 16 a 4 4 0 0 1 4 4 v 12 a 4 4 0 0 1 -4 4 h -16 z" class="diagram-text"></path>
<path d="M 1805.5 287 a 4 4 0 1 0 6 -1 m 2.75 -1 h -4 v 4 m 0 -3 h 2" style="stroke-width: 1.75"></path>
</g>
</g>
</g>
<path d="M1818.5 289a10 10 0 0 0 10 -10v-229a10 10 0 0 1 10 -10"></path>
</g>
<g>
<path d="M1838.5 40h0"></path>
<path d="M2121.5 40h0"></path>
<path d="M1838.5 40a10 10 0 0 0 10 -10v0a10 10 0 0 1 10 -10"></path>
<g>
<path d="M1858.5 20h243"></path>
</g>
<path d="M2101.5 20a10 10 0 0 1 10 10v0a10 10 0 0 0 10 10"></path>
<path d="M1838.5 40h20"></path>
<g>
<path d="M1858.5 40h0"></path>
<path d="M2101.5 40h0"></path>
<g class="terminal ">
<path d="M1858.5 40h0"></path>
<path d="M1989 40h0"></path>
<rect x="1858.5" y="29" width="130.5" height="22" rx="10" ry="10"></rect>
<text x="1923.75" y="44">"COMPRESSION"</text>
</g>
<path d="M1989 40h10"></path>
<g>
<path d="M1999 40h0"></path>
<path d="M2101.5 40h0"></path>
<path d="M1999 40h20"></path>
<g class="terminal ">
<path d="M2019 40h4.25"></path>
<path d="M2077.25 40h4.25"></path>
<rect x="2023.25" y="29" width="54" height="22" rx="10" ry="10"></rect>
<text x="2050.25" y="44">"ON"</text>
</g>
<path d="M2081.5 40h20"></path>
<path d="M1999 40a10 10 0 0 1 10 10v10a10 10 0 0 0 10 10"></path>
<g class="terminal ">
<path d="M2019 70h0"></path>
<path d="M2081.5 70h0"></path>
<rect x="2019" y="59" width="62.5" height="22" rx="10" ry="10"></rect>
<text x="2050.25" y="74">"OFF"</text>
</g>
<path d="M2081.5 70a10 10 0 0 0 10 -10v-10a10 10 0 0 1 10 -10"></path>
</g>
</g>
<path d="M2101.5 40h20"></path>
</g>
<g>
<path d="M2121.5 40h0"></path>
<path d="M2408.5 40h0"></path>
<path d="M2121.5 40a10 10 0 0 0 10 -10v0a10 10 0 0 1 10 -10"></path>
<g>
<path d="M2141.5 20h247"></path>
</g>
<path d="M2388.5 20a10 10 0 0 1 10 10v0a10 10 0 0 0 10 10"></path>
<path d="M2121.5 40h20"></path>
<g>
<path d="M2141.5 40h0"></path>
<path d="M2388.5 40h0"></path>
<g class="terminal ">
<path d="M2141.5 40h0"></path>
<path d="M2297.5 40h0"></path>
<rect x="2141.5" y="29" width="156" height="22" rx="10" ry="10"></rect>
<text x="2219.5" y="44">"CODE PAGE HINT"</text>
</g>
<path d="M2297.5 40h10"></path>
<path d="M2307.5 40h10"></path>
<g class="non-terminal ">
<path d="M2317.5 40h0"></path>
<path d="M2388.5 40h0"></path>
<rect x="2317.5" y="29" width="71" height="22"></rect>
<a xlink:href="#/abap/expression/Source"><text x="2353" y="44">Source</text>
</a>
</g>
</g>
<path d="M2388.5 40h20"></path>
</g>
</g>
<path d="M2408.5 40h10"></path>
<path d="M 2418.5 40 h 20 m -10 -10 v 20 m 10 -20 v 20"></path>
</g>
</svg>
