<svg xmlns="http://www.w3.org/2000/svg" xmlns:xlink="http://www.w3.org/1999/xlink" class="railroad-diagram" width="2825.5" height="393" viewBox="0 0 2825.5 393">
<defs>
<style type="text/css"><![CDATA[
path {
stroke-width: 3;
stroke: black;
fill: rgba(0,0,0,0);
}
text {
font: bold 14px monospace;
text-anchor: middle;
}
text.diagram-text {
font-size: 12px;
}
a {
fill: blue;
}
text.diagram-arrow {
font-size: 16px;
}
text.label {
text-anchor: start;
}
text.comment {
font: italic 12px monospace;
}
rect {
stroke-width: 3;
stroke: black;
fill: #BCBCBC;
}
path.diagram-text {
stroke-width: 3;
stroke: black;
fill: #BCBCBC;
cursor: help;
}
]]></style>
</defs>
<g transform="translate(.5 .5)">
<g>
<path d="M20 30v20m10 -20v20m-10 -10h20"></path>
</g>
<path d="M40 40h10"></path>
<g>
<path d="M50 40h0"></path>
<path d="M2775.5 40h0"></path>
<g>
<path d="M50 40h0"></path>
<path d="M88 40h0"></path>
<text x="69" y="45" class="comment">v754</text>
</g>
<path d="M88 40h10"></path>
<path d="M98 40h10"></path>
<g>
<path d="M108 40h0"></path>
<path d="M2775.5 40h0"></path>
<g class="terminal">
<path d="M108 40h0"></path>
<path d="M196 40h0"></path>
<rect x="108" y="29" width="88" height="22" rx="10" ry="10"></rect>
<text x="152" y="44">"MODIFY"</text>
</g>
<path d="M196 40h10"></path>
<g>
<path d="M206 40h0"></path>
<path d="M2775.5 40h0"></path>
<path d="M206 40h20"></path>
<g>
<path d="M226 40h0"></path>
<path d="M2755.5 40h0"></path>
<g>
<path d="M226 40h0"></path>
<path d="M388 40h0"></path>
<path d="M226 40a10 10 0 0 0 10 -10v0a10 10 0 0 1 10 -10"></path>
<g>
<path d="M246 20h122"></path>
</g>
<path d="M368 20a10 10 0 0 1 10 10v0a10 10 0 0 0 10 10"></path>
<path d="M226 40h20"></path>
<g class="terminal">
<path d="M246 40h0"></path>
<path d="M368 40h0"></path>
<rect x="246" y="29" width="122" height="22" rx="10" ry="10"></rect>
<text x="307" y="44">"AUGMENTING"</text>
</g>
<path d="M368 40h20"></path>
</g>
<path d="M388 40h10"></path>
<g class="terminal">
<path d="M398 40h0"></path>
<path d="M528.5 40h0"></path>
<rect x="398" y="29" width="130.5" height="22" rx="10" ry="10"></rect>
<text x="463.25" y="44">"ENTITIES OF"</text>
</g>
<path d="M528.5 40h10"></path>
<path d="M538.5 40h10"></path>
<g class="non-terminal">
<path d="M548.5 40h0"></path>
<path d="M730 40h0"></path>
<rect x="548.5" y="29" width="181.5" height="22"></rect>
<a xlink:href="#/abap/expression/NamespaceSimpleName"><text x="639.25" y="44">NamespaceSimpleName</text>
</a>
</g>
<path d="M730 40h10"></path>
<g>
<path d="M740 40h0"></path>
<path d="M927.5 40h0"></path>
<path d="M740 40a10 10 0 0 0 10 -10v0a10 10 0 0 1 10 -10"></path>
<g>
<path d="M760 20h147.5"></path>
</g>
<path d="M907.5 20a10 10 0 0 1 10 10v0a10 10 0 0 0 10 10"></path>
<path d="M740 40h20"></path>
<g class="terminal">
<path d="M760 40h0"></path>
<path d="M907.5 40h0"></path>
<rect x="760" y="29" width="147.5" height="22" rx="10" ry="10"></rect>
<text x="833.75" y="44">"IN LOCAL MODE"</text>
</g>
<path d="M907.5 40h20"></path>
</g>
<path d="M927.5 40h10"></path>
<g>
<path d="M937.5 40h0"></path>
<path d="M2439.5 40h0"></path>
<path d="M937.5 40h10"></path>
<g>
<path d="M947.5 40h0"></path>
<path d="M2429.5 40h0"></path>
<g class="terminal">
<path d="M947.5 40h0"></path>
<path d="M1035.5 40h0"></path>
<rect x="947.5" y="29" width="88" height="22" rx="10" ry="10"></rect>
<text x="991.5" y="44">"ENTITY"</text>
</g>
<path d="M1035.5 40h10"></path>
<path d="M1045.5 40h10"></path>
<g class="non-terminal">
<path d="M1055.5 40h0"></path>
<path d="M1160.5 40h0"></path>
<rect x="1055.5" y="29" width="105" height="22"></rect>
<a xlink:href="#/abap/expression/SimpleName"><text x="1108" y="44">SimpleName</text>
</a>
</g>
<path d="M1160.5 40h10"></path>
<path d="M1170.5 40h10"></path>
<g>
<path d="M1180.5 40h0"></path>
<path d="M2429.5 40h0"></path>
<path d="M1180.5 40h10"></path>
<g>
<path d="M1190.5 40h0"></path>
<path d="M2419.5 40h0"></path>
<path d="M1190.5 40h20"></path>
<g>
<path d="M1210.5 40h0"></path>
<path d="M1525.5 40h874"></path>
<g class="terminal">
<path d="M1210.5 40h0"></path>
<path d="M1434.5 40h0"></path>
<rect x="1210.5" y="29" width="224" height="22" rx="10" ry="10"></rect>
<text x="1322.5" y="44">"UPDATE SET FIELDS WITH"</text>
</g>
<path d="M1434.5 40h10"></path>
<path d="M1444.5 40h10"></path>
<g class="non-terminal">
<path d="M1454.5 40h0"></path>
<path d="M1525.5 40h0"></path>
<rect x="1454.5" y="29" width="71" height="22"></rect>
<a xlink:href="#/abap/expression/Source"><text x="1490" y="44">Source</text>
</a>
</g>
</g>
<path d="M2399.5 40h20"></path>
<path d="M1190.5 40a10 10 0 0 1 10 10v10a10 10 0 0 0 10 10"></path>
<g>
<path d="M1210.5 70h0"></path>
<path d="M1525.5 70h874"></path>
<g class="terminal">
<path d="M1210.5 70h0"></path>
<path d="M1434.5 70h0"></path>
<rect x="1210.5" y="59" width="224" height="22" rx="10" ry="10"></rect>
<text x="1322.5" y="74">"CREATE SET FIELDS WITH"</text>
</g>
<path d="M1434.5 70h10"></path>
<path d="M1444.5 70h10"></path>
<g class="non-terminal">
<path d="M1454.5 70h0"></path>
<path d="M1525.5 70h0"></path>
<rect x="1454.5" y="59" width="71" height="22"></rect>
<a xlink:href="#/abap/expression/Source"><text x="1490" y="74">Source</text>
</a>
</g>
</g>
<path d="M2399.5 70a10 10 0 0 0 10 -10v-10a10 10 0 0 1 10 -10"></path>
<path d="M1190.5 40a10 10 0 0 1 10 10v40a10 10 0 0 0 10 10"></path>
<g>
<path d="M1210.5 100h0"></path>
<path d="M1816 100h583.5"></path>
<g class="terminal">
<path d="M1210.5 100h0"></path>
<path d="M1298.5 100h0"></path>
<rect x="1210.5" y="89" width="88" height="22" rx="10" ry="10"></rect>
<text x="1254.5" y="104">"UPDATE"</text>
</g>
<path d="M1298.5 100h10"></path>
<path d="M1308.5 100h10"></path>
<g>
<path d="M1318.5 100h0"></path>
<path d="M1816 100h0"></path>
<g class="terminal">
<path d="M1318.5 100h0"></path>
<path d="M1423.5 100h0"></path>
<rect x="1318.5" y="89" width="105" height="22" rx="10" ry="10"></rect>
<text x="1371" y="104">"FIELDS ("</text>
</g>
<path d="M1423.5 100h10"></path>
<path d="M1433.5 100h10"></path>
<g>
<path d="M1443.5 100h0"></path>
<path d="M1568.5 100h0"></path>
<path d="M1443.5 100h10"></path>
<g class="non-terminal">
<path d="M1453.5 100h0"></path>
<path d="M1558.5 100h0"></path>
<rect x="1453.5" y="89" width="105" height="22"></rect>
<a xlink:href="#/abap/expression/SimpleName"><text x="1506" y="104">SimpleName</text>
</a>
</g>
<path d="M1558.5 100h10"></path>
<path d="M1453.5 100a10 10 0 0 0 -10 10v0a10 10 0 0 0 10 10"></path>
<g>
<path d="M1453.5 120h105"></path>
</g>
<path d="M1558.5 120a10 10 0 0 0 10 -10v0a10 10 0 0 0 -10 -10"></path>
</g>
<path d="M1568.5 100h10"></path>
<path d="M1578.5 100h10"></path>
<g class="terminal">
<path d="M1588.5 100h0"></path>
<path d="M1634 100h0"></path>
<rect x="1588.5" y="89" width="45.5" height="22" rx="10" ry="10"></rect>
<text x="1611.25" y="104">")"</text>
</g>
<path d="M1634 100h10"></path>
<path d="M1644 100h10"></path>
<g>
<path d="M1654 100h0"></path>
<path d="M1816 100h0"></path>
<g class="terminal">
<path d="M1654 100h0"></path>
<path d="M1725 100h0"></path>
<rect x="1654" y="89" width="71" height="22" rx="10" ry="10"></rect>
<text x="1689.5" y="104">"WITH"</text>
</g>
<path d="M1725 100h10"></path>
<path d="M1735 100h10"></path>
<g class="non-terminal">
<path d="M1745 100h0"></path>
<path d="M1816 100h0"></path>
<rect x="1745" y="89" width="71" height="22"></rect>
<a xlink:href="#/abap/expression/Source"><text x="1780.5" y="104">Source</text>
</a>
</g>
</g>
</g>
</g>
<path d="M2399.5 100a10 10 0 0 0 10 -10v-40a10 10 0 0 1 10 -10"></path>
<path d="M1190.5 40a10 10 0 0 1 10 10v79a10 10 0 0 0 10 10"></path>
<g>
<path d="M1210.5 139h0"></path>
<path d="M1432 139h967.5"></path>
<g class="terminal">
<path d="M1210.5 139h0"></path>
<path d="M1341 139h0"></path>
<rect x="1210.5" y="128" width="130.5" height="22" rx="10" ry="10"></rect>
<text x="1275.75" y="143">"DELETE FROM"</text>
</g>
<path d="M1341 139h10"></path>
<path d="M1351 139h10"></path>
<g class="non-terminal">
<path d="M1361 139h0"></path>
<path d="M1432 139h0"></path>
<rect x="1361" y="128" width="71" height="22"></rect>
<a xlink:href="#/abap/expression/Source"><text x="1396.5" y="143">Source</text>
</a>
</g>
</g>
<path d="M2399.5 139a10 10 0 0 0 10 -10v-79a10 10 0 0 1 10 -10"></path>
<path d="M1190.5 40a10 10 0 0 1 10 10v109a10 10 0 0 0 10 10"></path>
<g>
<path d="M1210.5 169h0"></path>
<path d="M2059.5 169h340"></path>
<g class="terminal">
<path d="M1210.5 169h0"></path>
<path d="M1341 169h0"></path>
<rect x="1210.5" y="158" width="130.5" height="22" rx="10" ry="10"></rect>
<text x="1275.75" y="173">"UPDATE FROM"</text>
</g>
<path d="M1341 169h10"></path>
<path d="M1351 169h10"></path>
<g class="non-terminal">
<path d="M1361 169h0"></path>
<path d="M1432 169h0"></path>
<rect x="1361" y="158" width="71" height="22"></rect>
<a xlink:href="#/abap/expression/Source"><text x="1396.5" y="173">Source</text>
</a>
</g>
<path d="M1432 169h10"></path>
<path d="M1442 169h10"></path>
<g>
<path d="M1452 169h0"></path>
<path d="M2059.5 169h0"></path>
<g class="terminal">
<path d="M1452 169h0"></path>
<path d="M1582.5 169h0"></path>
<rect x="1452" y="158" width="130.5" height="22" rx="10" ry="10"></rect>
<text x="1517.25" y="173">"RELATING TO"</text>
</g>
<path d="M1582.5 169h10"></path>
<path d="M1592.5 169h10"></path>
<g class="non-terminal">
<path d="M1602.5 169h0"></path>
<path d="M1784 169h0"></path>
<rect x="1602.5" y="158" width="181.5" height="22"></rect>
<a xlink:href="#/abap/expression/NamespaceSimpleName"><text x="1693.25" y="173">NamespaceSimpleName</text>
</a>
</g>
<path d="M1784 169h10"></path>
<path d="M1794 169h10"></path>
<g class="terminal">
<path d="M1804 169h0"></path>
<path d="M1858 169h0"></path>
<rect x="1804" y="158" width="54" height="22" rx="10" ry="10"></rect>
<text x="1831" y="173">"BY"</text>
</g>
<path d="M1858 169h10"></path>
<path d="M1868 169h10"></path>
<g class="non-terminal">
<path d="M1878 169h0"></path>
<path d="M2059.5 169h0"></path>
<rect x="1878" y="158" width="181.5" height="22"></rect>
<a xlink:href="#/abap/expression/NamespaceSimpleName"><text x="1968.75" y="173">NamespaceSimpleName</text>
</a>
</g>
</g>
</g>
<path d="M2399.5 169a10 10 0 0 0 10 -10v-109a10 10 0 0 1 10 -10"></path>
<path d="M1190.5 40a10 10 0 0 1 10 10v148a10 10 0 0 0 10 10"></path>
<g>
<path d="M1210.5 208h0"></path>
<path d="M2399.5 208h0"></path>
<g class="terminal">
<path d="M1210.5 208h0"></path>
<path d="M1298.5 208h0"></path>
<rect x="1210.5" y="197" width="88" height="22" rx="10" ry="10"></rect>
<text x="1254.5" y="212">"CREATE"</text>
</g>
<path d="M1298.5 208h10"></path>
<g>
<path d="M1308.5 208h0"></path>
<path d="M1570 208h0"></path>
<path d="M1308.5 208a10 10 0 0 0 10 -10v0a10 10 0 0 1 10 -10"></path>
<g>
<path d="M1328.5 188h221.5"></path>
</g>
<path d="M1550 188a10 10 0 0 1 10 10v0a10 10 0 0 0 10 10"></path>
<path d="M1308.5 208h20"></path>
<g>
<path d="M1328.5 208h0"></path>
<path d="M1550 208h0"></path>
<g class="terminal">
<path d="M1328.5 208h0"></path>
<path d="M1382.5 208h0"></path>
<rect x="1328.5" y="197" width="54" height="22" rx="10" ry="10"></rect>
<text x="1355.5" y="212">"BY"</text>
</g>
<path d="M1382.5 208h10"></path>
<path d="M1392.5 208h10"></path>
<g class="non-terminal">
<path d="M1402.5 208h0"></path>
<path d="M1550 208h0"></path>
<rect x="1402.5" y="197" width="147.5" height="22"></rect>
<a xlink:href="#/abap/expression/AssociationName"><text x="1476.25" y="212">AssociationName</text>
</a>
</g>
</g>
<path d="M1550 208h20"></path>
</g>
<path d="M1570 208h10"></path>
<g class="terminal">
<path d="M1580 208h0"></path>
<path d="M1651 208h0"></path>
<rect x="1580" y="197" width="71" height="22" rx="10" ry="10"></rect>
<text x="1615.5" y="212">"FROM"</text>
</g>
<path d="M1651 208h10"></path>
<path d="M1661 208h10"></path>
<g class="non-terminal">
<path d="M1671 208h0"></path>
<path d="M1742 208h0"></path>
<rect x="1671" y="197" width="71" height="22"></rect>
<a xlink:href="#/abap/expression/Source"><text x="1706.5" y="212">Source</text>
</a>
</g>
<path d="M1742 208h10"></path>
<g>
<path d="M1752 208h0"></path>
<path d="M2399.5 208h0"></path>
<path d="M1752 208a10 10 0 0 0 10 -10v0a10 10 0 0 1 10 -10"></path>
<g>
<path d="M1772 188h607.5"></path>
</g>
<path d="M2379.5 188a10 10 0 0 1 10 10v0a10 10 0 0 0 10 10"></path>
<path d="M1752 208h20"></path>
<g>
<path d="M1772 208h0"></path>
<path d="M2379.5 208h0"></path>
<g class="terminal">
<path d="M1772 208h0"></path>
<path d="M1902.5 208h0"></path>
<rect x="1772" y="197" width="130.5" height="22" rx="10" ry="10"></rect>
<text x="1837.25" y="212">"RELATING TO"</text>
</g>
<path d="M1902.5 208h10"></path>
<path d="M1912.5 208h10"></path>
<g class="non-terminal">
<path d="M1922.5 208h0"></path>
<path d="M2104 208h0"></path>
<rect x="1922.5" y="197" width="181.5" height="22"></rect>
<a xlink:href="#/abap/expression/NamespaceSimpleName"><text x="2013.25" y="212">NamespaceSimpleName</text>
</a>
</g>
<path d="M2104 208h10"></path>
<path d="M2114 208h10"></path>
<g class="terminal">
<path d="M2124 208h0"></path>
<path d="M2178 208h0"></path>
<rect x="2124" y="197" width="54" height="22" rx="10" ry="10"></rect>
<text x="2151" y="212">"BY"</text>
</g>
<path d="M2178 208h10"></path>
<path d="M2188 208h10"></path>
<g class="non-terminal">
<path d="M2198 208h0"></path>
<path d="M2379.5 208h0"></path>
<rect x="2198" y="197" width="181.5" height="22"></rect>
<a xlink:href="#/abap/expression/NamespaceSimpleName"><text x="2288.75" y="212">NamespaceSimpleName</text>
</a>
</g>
</g>
<path d="M2379.5 208h20"></path>
</g>
</g>
<path d="M2399.5 208a10 10 0 0 0 10 -10v-148a10 10 0 0 1 10 -10"></path>
<path d="M1190.5 40a10 10 0 0 1 10 10v178a10 10 0 0 0 10 10"></path>
<g>
<path d="M1210.5 238h0"></path>
<path d="M1614 238h785.5"></path>
<g class="terminal">
<path d="M1210.5 238h0"></path>
<path d="M1307 238h0"></path>
<rect x="1210.5" y="227" width="96.5" height="22" rx="10" ry="10"></rect>
<text x="1258.75" y="242">"EXECUTE"</text>
</g>
<path d="M1307 238h10"></path>
<path d="M1317 238h10"></path>
<g class="non-terminal">
<path d="M1327 238h0"></path>
<path d="M1432 238h0"></path>
<rect x="1327" y="227" width="105" height="22"></rect>
<a xlink:href="#/abap/expression/SimpleName"><text x="1379.5" y="242">SimpleName</text>
</a>
</g>
<path d="M1432 238h10"></path>
<path d="M1442 238h10"></path>
<g class="terminal">
<path d="M1452 238h0"></path>
<path d="M1523 238h0"></path>
<rect x="1452" y="227" width="71" height="22" rx="10" ry="10"></rect>
<text x="1487.5" y="242">"FROM"</text>
</g>
<path d="M1523 238h10"></path>
<path d="M1533 238h10"></path>
<g class="non-terminal">
<path d="M1543 238h0"></path>
<path d="M1614 238h0"></path>
<rect x="1543" y="227" width="71" height="22"></rect>
<a xlink:href="#/abap/expression/Source"><text x="1578.5" y="242">Source</text>
</a>
</g>
</g>
<path d="M2399.5 238a10 10 0 0 0 10 -10v-178a10 10 0 0 1 10 -10"></path>
<path d="M1190.5 40a10 10 0 0 1 10 10v217a10 10 0 0 0 10 10"></path>
<g>
<path d="M1210.5 277h0"></path>
<path d="M2295 277h104.5"></path>
<g class="terminal">
<path d="M1210.5 277h0"></path>
<path d="M1298.5 277h0"></path>
<rect x="1210.5" y="266" width="88" height="22" rx="10" ry="10"></rect>
<text x="1254.5" y="281">"CREATE"</text>
</g>
<path d="M1298.5 277h10"></path>
<g>
<path d="M1308.5 277h0"></path>
<path d="M1570 277h0"></path>
<path d="M1308.5 277a10 10 0 0 0 10 -10v0a10 10 0 0 1 10 -10"></path>
<g>
<path d="M1328.5 257h221.5"></path>
</g>
<path d="M1550 257a10 10 0 0 1 10 10v0a10 10 0 0 0 10 10"></path>
<path d="M1308.5 277h20"></path>
<g>
<path d="M1328.5 277h0"></path>
<path d="M1550 277h0"></path>
<g class="terminal">
<path d="M1328.5 277h0"></path>
<path d="M1382.5 277h0"></path>
<rect x="1328.5" y="266" width="54" height="22" rx="10" ry="10"></rect>
<text x="1355.5" y="281">"BY"</text>
</g>
<path d="M1382.5 277h10"></path>
<path d="M1392.5 277h10"></path>
<g class="non-terminal">
<path d="M1402.5 277h0"></path>
<path d="M1550 277h0"></path>
<rect x="1402.5" y="266" width="147.5" height="22"></rect>
<a xlink:href="#/abap/expression/AssociationName"><text x="1476.25" y="281">AssociationName</text>
</a>
</g>
</g>
<path d="M1550 277h20"></path>
</g>
<g>
<path d="M1570 277h0"></path>
<path d="M1757.5 277h0"></path>
<path d="M1570 277a10 10 0 0 0 10 -10v0a10 10 0 0 1 10 -10"></path>
<g>
<path d="M1590 257h147.5"></path>
</g>
<path d="M1737.5 257a10 10 0 0 1 10 10v0a10 10 0 0 0 10 10"></path>
<path d="M1570 277h20"></path>
<g class="terminal">
<path d="M1590 277h0"></path>
<path d="M1737.5 277h0"></path>
<rect x="1590" y="266" width="147.5" height="22" rx="10" ry="10"></rect>
<text x="1663.75" y="281">"AUTO FILL CID"</text>
</g>
<path d="M1737.5 277h20"></path>
</g>
<g>
<path d="M1757.5 277h0"></path>
<path d="M2295 277h0"></path>
<path d="M1757.5 277h20"></path>
<g>
<path d="M1777.5 277h0"></path>
<path d="M1939.5 277h335.5"></path>
<g class="terminal">
<path d="M1777.5 277h0"></path>
<path d="M1848.5 277h0"></path>
<rect x="1777.5" y="266" width="71" height="22" rx="10" ry="10"></rect>
<text x="1813" y="281">"WITH"</text>
</g>
<path d="M1848.5 277h10"></path>
<path d="M1858.5 277h10"></path>
<g class="non-terminal">
<path d="M1868.5 277h0"></path>
<path d="M1939.5 277h0"></path>
<rect x="1868.5" y="266" width="71" height="22"></rect>
<a xlink:href="#/abap/expression/Source"><text x="1904" y="281">Source</text>
</a>
</g>
</g>
<path d="M2275 277h20"></path>
<path d="M1757.5 277a10 10 0 0 1 10 10v10a10 10 0 0 0 10 10"></path>
<g>
<path d="M1777.5 307h0"></path>
<path d="M2275 307h0"></path>
<g class="terminal">
<path d="M1777.5 307h0"></path>
<path d="M1882.5 307h0"></path>
<rect x="1777.5" y="296" width="105" height="22" rx="10" ry="10"></rect>
<text x="1830" y="311">"FIELDS ("</text>
</g>
<path d="M1882.5 307h10"></path>
<path d="M1892.5 307h10"></path>
<g>
<path d="M1902.5 307h0"></path>
<path d="M2027.5 307h0"></path>
<path d="M1902.5 307h10"></path>
<g class="non-terminal">
<path d="M1912.5 307h0"></path>
<path d="M2017.5 307h0"></path>
<rect x="1912.5" y="296" width="105" height="22"></rect>
<a xlink:href="#/abap/expression/SimpleName"><text x="1965" y="311">SimpleName</text>
</a>
</g>
<path d="M2017.5 307h10"></path>
<path d="M1912.5 307a10 10 0 0 0 -10 10v0a10 10 0 0 0 10 10"></path>
<g>
<path d="M1912.5 327h105"></path>
</g>
<path d="M2017.5 327a10 10 0 0 0 10 -10v0a10 10 0 0 0 -10 -10"></path>
</g>
<path d="M2027.5 307h10"></path>
<path d="M2037.5 307h10"></path>
<g class="terminal">
<path d="M2047.5 307h0"></path>
<path d="M2093 307h0"></path>
<rect x="2047.5" y="296" width="45.5" height="22" rx="10" ry="10"></rect>
<text x="2070.25" y="311">")"</text>
</g>
<path d="M2093 307h10"></path>
<path d="M2103 307h10"></path>
<g>
<path d="M2113 307h0"></path>
<path d="M2275 307h0"></path>
<g class="terminal">
<path d="M2113 307h0"></path>
<path d="M2184 307h0"></path>
<rect x="2113" y="296" width="71" height="22" rx="10" ry="10"></rect>
<text x="2148.5" y="311">"WITH"</text>
</g>
<path d="M2184 307h10"></path>
<path d="M2194 307h10"></path>
<g class="non-terminal">
<path d="M2204 307h0"></path>
<path d="M2275 307h0"></path>
<rect x="2204" y="296" width="71" height="22"></rect>
<a xlink:href="#/abap/expression/Source"><text x="2239.5" y="311">Source</text>
</a>
</g>
</g>
</g>
<path d="M2275 307a10 10 0 0 0 10 -10v-10a10 10 0 0 1 10 -10"></path>
</g>
</g>
<path d="M2399.5 277a10 10 0 0 0 10 -10v-217a10 10 0 0 1 10 -10"></path>
</g>
<path d="M2419.5 40h10"></path>
<path d="M1190.5 40a10 10 0 0 0 -10 10v275a10 10 0 0 0 10 10"></path>
<g>
<path d="M1190.5 335h1229"></path>
</g>
<path d="M2419.5 335a10 10 0 0 0 10 -10v-275a10 10 0 0 0 -10 -10"></path>
</g>
</g>
<path d="M2429.5 40h10"></path>
<path d="M947.5 40a10 10 0 0 0 -10 10v283a10 10 0 0 0 10 10"></path>
<g>
<path d="M947.5 343h1482"></path>
</g>
<path d="M2429.5 343a10 10 0 0 0 10 -10v-283a10 10 0 0 0 -10 -10"></path>
</g>
<path d="M2439.5 40h10"></path>
<g>
<path d="M2449.5 40h0"></path>
<path d="M2755.5 40h0"></path>
<path d="M2449.5 40a10 10 0 0 0 10 -10v0a10 10 0 0 1 10 -10"></path>
<g>
<path d="M2469.5 20h266"></path>
</g>
<path d="M2735.5 20a10 10 0 0 1 10 10v0a10 10 0 0 0 10 10"></path>
<path d="M2449.5 40h20"></path>
<g>
<path d="M2469.5 40h0"></path>
<path d="M2735.5 40h0"></path>
<path d="M2499.5 40h10"></path>
<g>
<path d="M2509.5 40h0"></path>
<path d="M2688.5 40h17"></path>
<g class="terminal">
<path d="M2509.5 40h0"></path>
<path d="M2597.5 40h0"></path>
<rect x="2509.5" y="29" width="88" height="22" rx="10" ry="10"></rect>
<text x="2553.5" y="44">"FAILED"</text>
</g>
<path d="M2597.5 40h10"></path>
<path d="M2607.5 40h10"></path>
<g class="non-terminal">
<path d="M2617.5 40h0"></path>
<path d="M2688.5 40h0"></path>
<rect x="2617.5" y="29" width="71" height="22"></rect>
<a xlink:href="#/abap/expression/Target"><text x="2653" y="44">Target</text>
</a>
</g>
</g>
<path d="M2705.5 40h10"></path>
<path d="M2499.5 40v20a10 10 0 0 0 10 10"></path>
<g>
<path d="M2509.5 70h0"></path>
<path d="M2688.5 70h17"></path>
<g class="terminal">
<path d="M2509.5 70h0"></path>
<path d="M2597.5 70h0"></path>
<rect x="2509.5" y="59" width="88" height="22" rx="10" ry="10"></rect>
<text x="2553.5" y="74">"RESULT"</text>
</g>
<path d="M2597.5 70h10"></path>
<path d="M2607.5 70h10"></path>
<g class="non-terminal">
<path d="M2617.5 70h0"></path>
<path d="M2688.5 70h0"></path>
<rect x="2617.5" y="59" width="71" height="22"></rect>
<a xlink:href="#/abap/expression/Target"><text x="2653" y="74">Target</text>
</a>
</g>
</g>
<path d="M2705.5 70a10 10 0 0 0 10 -10v-20"></path>
<path d="M2499.5 40v50a10 10 0 0 0 10 10"></path>
<g>
<path d="M2509.5 100h0"></path>
<path d="M2688.5 100h17"></path>
<g class="terminal">
<path d="M2509.5 100h0"></path>
<path d="M2597.5 100h0"></path>
<rect x="2509.5" y="89" width="88" height="22" rx="10" ry="10"></rect>
<text x="2553.5" y="104">"MAPPED"</text>
</g>
<path d="M2597.5 100h10"></path>
<path d="M2607.5 100h10"></path>
<g class="non-terminal">
<path d="M2617.5 100h0"></path>
<path d="M2688.5 100h0"></path>
<rect x="2617.5" y="89" width="71" height="22"></rect>
<a xlink:href="#/abap/expression/Target"><text x="2653" y="104">Target</text>
</a>
</g>
</g>
<path d="M2705.5 100a10 10 0 0 0 10 -10v-50"></path>
<path d="M2499.5 40v80a10 10 0 0 0 10 10"></path>
<g>
<path d="M2509.5 130h0"></path>
<path d="M2705.5 130h0"></path>
<g class="terminal">
<path d="M2509.5 130h0"></path>
<path d="M2614.5 130h0"></path>
<rect x="2509.5" y="119" width="105" height="22" rx="10" ry="10"></rect>
<text x="2562" y="134">"REPORTED"</text>
</g>
<path d="M2614.5 130h10"></path>
<path d="M2624.5 130h10"></path>
<g class="non-terminal">
<path d="M2634.5 130h0"></path>
<path d="M2705.5 130h0"></path>
<rect x="2634.5" y="119" width="71" height="22"></rect>
<a xlink:href="#/abap/expression/Target"><text x="2670" y="134">Target</text>
</a>
</g>
</g>
<path d="M2705.5 130a10 10 0 0 0 10 -10v-80"></path>
<g class="diagram-text">
<title>take one or more branches, once each, in any order</title>
<path d="M 2499.5 30 h -26 a 4 4 0 0 0 -4 4 v 12 a 4 4 0 0 0 4 4 h 26 z" class="diagram-text"></path>
<text x="2484.5" y="44" class="diagram-text">1+</text>
<path d="M 2715.5 30 h 16 a 4 4 0 0 1 4 4 v 12 a 4 4 0 0 1 -4 4 h -16 z" class="diagram-text"></path>
<path d="M 2722.5 38 a 4 4 0 1 0 6 -1 m 2.75 -1 h -4 v 4 m 0 -3 h 2" style="stroke-width: 1.75"></path>
</g>
</g>
<path d="M2735.5 40h20"></path>
</g>
</g>
<path d="M2755.5 40h20"></path>
<path d="M206 40a10 10 0 0 1 10 10v302a10 10 0 0 0 10 10"></path>
<g>
<path d="M226 362h0"></path>
<path d="M1629.5 362h1126"></path>
<g class="terminal">
<path d="M226 362h0"></path>
<path d="M314 362h0"></path>
<rect x="226" y="351" width="88" height="22" rx="10" ry="10"></rect>
<text x="270" y="366">"ENTITY"</text>
</g>
<path d="M314 362h10"></path>
<path d="M324 362h10"></path>
<g class="non-terminal">
<path d="M334 362h0"></path>
<path d="M515.5 362h0"></path>
<rect x="334" y="351" width="181.5" height="22"></rect>
<a xlink:href="#/abap/expression/NamespaceSimpleName"><text x="424.75" y="366">NamespaceSimpleName</text>
</a>
</g>
<path d="M515.5 362h10"></path>
<path d="M525.5 362h10"></path>
<g>
<path d="M535.5 362h0"></path>
<path d="M833.5 362h0"></path>
<g class="terminal">
<path d="M535.5 362h0"></path>
<path d="M632 362h0"></path>
<rect x="535.5" y="351" width="96.5" height="22" rx="10" ry="10"></rect>
<text x="583.75" y="366">"EXECUTE"</text>
</g>
<path d="M632 362h10"></path>
<path d="M642 362h10"></path>
<g class="non-terminal">
<path d="M652 362h0"></path>
<path d="M833.5 362h0"></path>
<rect x="652" y="351" width="181.5" height="22"></rect>
<a xlink:href="#/abap/expression/NamespaceSimpleName"><text x="742.75" y="366">NamespaceSimpleName</text>
</a>
</g>
</g>
<path d="M833.5 362h10"></path>
<path d="M843.5 362h10"></path>
<g>
<path d="M853.5 362h0"></path>
<path d="M1015.5 362h0"></path>
<g class="terminal">
<path d="M853.5 362h0"></path>
<path d="M924.5 362h0"></path>
<rect x="853.5" y="351" width="71" height="22" rx="10" ry="10"></rect>
<text x="889" y="366">"FROM"</text>
</g>
<path d="M924.5 362h10"></path>
<path d="M934.5 362h10"></path>
<g class="non-terminal">
<path d="M944.5 362h0"></path>
<path d="M1015.5 362h0"></path>
<rect x="944.5" y="351" width="71" height="22"></rect>
<a xlink:href="#/abap/expression/Source"><text x="980" y="366">Source</text>
</a>
</g>
</g>
<path d="M1015.5 362h10"></path>
<path d="M1025.5 362h10"></path>
<g>
<path d="M1035.5 362h0"></path>
<path d="M1214.5 362h0"></path>
<g class="terminal">
<path d="M1035.5 362h0"></path>
<path d="M1123.5 362h0"></path>
<rect x="1035.5" y="351" width="88" height="22" rx="10" ry="10"></rect>
<text x="1079.5" y="366">"MAPPED"</text>
</g>
<path d="M1123.5 362h10"></path>
<path d="M1133.5 362h10"></path>
<g class="non-terminal">
<path d="M1143.5 362h0"></path>
<path d="M1214.5 362h0"></path>
<rect x="1143.5" y="351" width="71" height="22"></rect>
<a xlink:href="#/abap/expression/Target"><text x="1179" y="366">Target</text>
</a>
</g>
</g>
<path d="M1214.5 362h10"></path>
<path d="M1224.5 362h10"></path>
<g>
<path d="M1234.5 362h0"></path>
<path d="M1413.5 362h0"></path>
<g class="terminal">
<path d="M1234.5 362h0"></path>
<path d="M1322.5 362h0"></path>
<rect x="1234.5" y="351" width="88" height="22" rx="10" ry="10"></rect>
<text x="1278.5" y="366">"FAILED"</text>
</g>
<path d="M1322.5 362h10"></path>
<path d="M1332.5 362h10"></path>
<g class="non-terminal">
<path d="M1342.5 362h0"></path>
<path d="M1413.5 362h0"></path>
<rect x="1342.5" y="351" width="71" height="22"></rect>
<a xlink:href="#/abap/expression/Target"><text x="1378" y="366">Target</text>
</a>
</g>
</g>
<path d="M1413.5 362h10"></path>
<path d="M1423.5 362h10"></path>
<g>
<path d="M1433.5 362h0"></path>
<path d="M1629.5 362h0"></path>
<g class="terminal">
<path d="M1433.5 362h0"></path>
<path d="M1538.5 362h0"></path>
<rect x="1433.5" y="351" width="105" height="22" rx="10" ry="10"></rect>
<text x="1486" y="366">"REPORTED"</text>
</g>
<path d="M1538.5 362h10"></path>
<path d="M1548.5 362h10"></path>
<g class="non-terminal">
<path d="M1558.5 362h0"></path>
<path d="M1629.5 362h0"></path>
<rect x="1558.5" y="351" width="71" height="22"></rect>
<a xlink:href="#/abap/expression/Target"><text x="1594" y="366">Target</text>
</a>
</g>
</g>
</g>
<path d="M2755.5 362a10 10 0 0 0 10 -10v-302a10 10 0 0 1 10 -10"></path>
</g>
</g>
</g>
<path d="M2775.5 40h10"></path>
<path d="M 2785.5 40 h 20 m -10 -10 v 20 m 10 -20 v 20"></path>
</g>
</svg>
