<svg xmlns="http://www.w3.org/2000/svg" xmlns:xlink="http://www.w3.org/1999/xlink" class="railroad-diagram" width="2942" height="96" viewBox="0 0 2942 96">
<defs>
<style type="text/css"><![CDATA[
path {
stroke-width: 3;
stroke: black;
fill: rgba(0,0,0,0);
}
text {
font: bold 14px monospace;
text-anchor: middle;
}
text.diagram-text {
font-size: 12px;
}
a {
fill: blue;
}
text.diagram-arrow {
font-size: 16px;
}
text.label {
text-anchor: start;
}
text.comment {
font: italic 12px monospace;
}
rect {
stroke-width: 3;
stroke: black;
fill: #BCBCBC;
}
path.diagram-text {
stroke-width: 3;
stroke: black;
fill: #BCBCBC;
cursor: help;
}
]]></style>
</defs>
<g transform="translate(.5 .5)">
<g>
<path d="M20 30v20m10 -20v20m-10 -10h20"></path>
</g>
<path d="M40 40h10"></path>
<g>
<path d="M50 40h0"></path>
<path d="M2892 40h0"></path>
<g>
<path d="M50 40h0"></path>
<path d="M88 40h0"></path>
<text x="69" y="45" class="comment">v751</text>
</g>
<path d="M88 40h10"></path>
<path d="M98 40h10"></path>
<g>
<path d="M108 40h0"></path>
<path d="M2892 40h0"></path>
<g class="terminal">
<path d="M108 40h0"></path>
<path d="M187.5 40h0"></path>
<rect x="108" y="29" width="79.5" height="22" rx="10" ry="10"></rect>
<text x="147.75" y="44">"TYPES"</text>
</g>
<path d="M187.5 40h10"></path>
<path d="M197.5 40h10"></path>
<g class="non-terminal">
<path d="M207.5 40h0"></path>
<path d="M389 40h0"></path>
<rect x="207.5" y="29" width="181.5" height="22"></rect>
<a xlink:href="#/abap/expression/NamespaceSimpleName"><text x="298.25" y="44">NamespaceSimpleName</text>
</a>
</g>
<path d="M389 40h10"></path>
<path d="M399 40h10"></path>
<g class="terminal">
<path d="M409 40h0"></path>
<path d="M480 40h0"></path>
<rect x="409" y="29" width="71" height="22" rx="10" ry="10"></rect>
<text x="444.5" y="44">"TYPE"</text>
</g>
<path d="M480 40h10"></path>
<g>
<path d="M490 40h0"></path>
<path d="M618 40h0"></path>
<path d="M490 40a10 10 0 0 0 10 -10v0a10 10 0 0 1 10 -10"></path>
<g>
<path d="M510 20h88"></path>
</g>
<path d="M598 20a10 10 0 0 1 10 10v0a10 10 0 0 0 10 10"></path>
<path d="M490 40h20"></path>
<g class="terminal">
<path d="M510 40h0"></path>
<path d="M598 40h0"></path>
<rect x="510" y="29" width="88" height="22" rx="10" ry="10"></rect>
<text x="554" y="44">"REF TO"</text>
</g>
<path d="M598 40h20"></path>
</g>
<path d="M618 40h10"></path>
<g class="non-terminal">
<path d="M628 40h0"></path>
<path d="M716 40h0"></path>
<rect x="628" y="29" width="88" height="22"></rect>
<a xlink:href="#/abap/expression/TypeName"><text x="672" y="44">TypeName</text>
</a>
</g>
<path d="M716 40h10"></path>
<path d="M726 40h10"></path>
<g>
<path d="M736 40h0"></path>
<path d="M2527 40h0"></path>
<path d="M736 40h10"></path>
<g>
<path d="M746 40h0"></path>
<path d="M2517 40h0"></path>
<g class="terminal">
<path d="M746 40h0"></path>
<path d="M876.5 40h0"></path>
<rect x="746" y="29" width="130.5" height="22" rx="10" ry="10"></rect>
<text x="811.25" y="44">"ASSOCIATION"</text>
</g>
<path d="M876.5 40h10"></path>
<path d="M886.5 40h10"></path>
<g class="non-terminal">
<path d="M896.5 40h0"></path>
<path d="M1078 40h0"></path>
<rect x="896.5" y="29" width="181.5" height="22"></rect>
<a xlink:href="#/abap/expression/NamespaceSimpleName"><text x="987.25" y="44">NamespaceSimpleName</text>
</a>
</g>
<path d="M1078 40h10"></path>
<path d="M1088 40h10"></path>
<g class="terminal">
<path d="M1098 40h0"></path>
<path d="M1152 40h0"></path>
<rect x="1098" y="29" width="54" height="22" rx="10" ry="10"></rect>
<text x="1125" y="44">"TO"</text>
</g>
<path d="M1152 40h10"></path>
<path d="M1162 40h10"></path>
<g class="non-terminal">
<path d="M1172 40h0"></path>
<path d="M1353.5 40h0"></path>
<rect x="1172" y="29" width="181.5" height="22"></rect>
<a xlink:href="#/abap/expression/NamespaceSimpleName"><text x="1262.75" y="44">NamespaceSimpleName</text>
</a>
</g>
<path d="M1353.5 40h10"></path>
<path d="M1363.5 40h10"></path>
<g>
<path d="M1373.5 40h0"></path>
<path d="M2517 40h0"></path>
<path d="M1373.5 40h10"></path>
<g>
<path d="M1383.5 40h0"></path>
<path d="M2507 40h0"></path>
<g class="terminal">
<path d="M1383.5 40h0"></path>
<path d="M1437.5 40h0"></path>
<rect x="1383.5" y="29" width="54" height="22" rx="10" ry="10"></rect>
<text x="1410.5" y="44">"ON"</text>
</g>
<path d="M1437.5 40h10"></path>
<path d="M1447.5 40h10"></path>
<g class="non-terminal">
<path d="M1457.5 40h0"></path>
<path d="M1639 40h0"></path>
<rect x="1457.5" y="29" width="181.5" height="22"></rect>
<a xlink:href="#/abap/expression/NamespaceSimpleName"><text x="1548.25" y="44">NamespaceSimpleName</text>
</a>
</g>
<path d="M1639 40h10"></path>
<path d="M1649 40h10"></path>
<g class="terminal">
<path d="M1659 40h0"></path>
<path d="M1704.5 40h0"></path>
<rect x="1659" y="29" width="45.5" height="22" rx="10" ry="10"></rect>
<text x="1681.75" y="44">"="</text>
</g>
<path d="M1704.5 40h10"></path>
<path d="M1714.5 40h10"></path>
<g class="non-terminal">
<path d="M1724.5 40h0"></path>
<path d="M1906 40h0"></path>
<rect x="1724.5" y="29" width="181.5" height="22"></rect>
<a xlink:href="#/abap/expression/NamespaceSimpleName"><text x="1815.25" y="44">NamespaceSimpleName</text>
</a>
</g>
<path d="M1906 40h10"></path>
<g>
<path d="M1916 40h0"></path>
<path d="M2507 40h0"></path>
<path d="M1916 40a10 10 0 0 0 10 -10v0a10 10 0 0 1 10 -10"></path>
<g>
<path d="M1936 20h551"></path>
</g>
<path d="M2487 20a10 10 0 0 1 10 10v0a10 10 0 0 0 10 10"></path>
<path d="M1916 40h20"></path>
<g>
<path d="M1936 40h0"></path>
<path d="M2487 40h0"></path>
<path d="M1936 40h10"></path>
<g>
<path d="M1946 40h0"></path>
<path d="M2477 40h0"></path>
<g class="terminal">
<path d="M1946 40h0"></path>
<path d="M2008.5 40h0"></path>
<rect x="1946" y="29" width="62.5" height="22" rx="10" ry="10"></rect>
<text x="1977.25" y="44">"AND"</text>
</g>
<path d="M2008.5 40h10"></path>
<path d="M2018.5 40h10"></path>
<g class="non-terminal">
<path d="M2028.5 40h0"></path>
<path d="M2210 40h0"></path>
<rect x="2028.5" y="29" width="181.5" height="22"></rect>
<a xlink:href="#/abap/expression/NamespaceSimpleName"><text x="2119.25" y="44">NamespaceSimpleName</text>
</a>
</g>
<path d="M2210 40h10"></path>
<path d="M2220 40h10"></path>
<g class="terminal">
<path d="M2230 40h0"></path>
<path d="M2275.5 40h0"></path>
<rect x="2230" y="29" width="45.5" height="22" rx="10" ry="10"></rect>
<text x="2252.75" y="44">"="</text>
</g>
<path d="M2275.5 40h10"></path>
<path d="M2285.5 40h10"></path>
<g class="non-terminal">
<path d="M2295.5 40h0"></path>
<path d="M2477 40h0"></path>
<rect x="2295.5" y="29" width="181.5" height="22"></rect>
<a xlink:href="#/abap/expression/NamespaceSimpleName"><text x="2386.25" y="44">NamespaceSimpleName</text>
</a>
</g>
</g>
<path d="M2477 40h10"></path>
<path d="M1946 40a10 10 0 0 0 -10 10v0a10 10 0 0 0 10 10"></path>
<g>
<path d="M1946 60h531"></path>
</g>
<path d="M2477 60a10 10 0 0 0 10 -10v0a10 10 0 0 0 -10 -10"></path>
</g>
<path d="M2487 40h20"></path>
</g>
</g>
<path d="M2507 40h10"></path>
<path d="M1383.5 40a10 10 0 0 0 -10 10v8a10 10 0 0 0 10 10"></path>
<g>
<path d="M1383.5 68h1123.5"></path>
</g>
<path d="M2507 68a10 10 0 0 0 10 -10v-8a10 10 0 0 0 -10 -10"></path>
</g>
</g>
<path d="M2517 40h10"></path>
<path d="M746 40a10 10 0 0 0 -10 10v16a10 10 0 0 0 10 10"></path>
<g>
<path d="M746 76h1771"></path>
</g>
<path d="M2517 76a10 10 0 0 0 10 -10v-16a10 10 0 0 0 -10 -10"></path>
</g>
<path d="M2527 40h10"></path>
<g>
<path d="M2537 40h0"></path>
<path d="M2892 40h0"></path>
<path d="M2537 40a10 10 0 0 0 10 -10v0a10 10 0 0 1 10 -10"></path>
<g>
<path d="M2557 20h315"></path>
</g>
<path d="M2872 20a10 10 0 0 1 10 10v0a10 10 0 0 0 10 10"></path>
<path d="M2537 40h20"></path>
<g>
<path d="M2557 40h0"></path>
<path d="M2872 40h0"></path>
<g class="terminal">
<path d="M2557 40h0"></path>
<path d="M2670.5 40h0"></path>
<rect x="2557" y="29" width="113.5" height="22" rx="10" ry="10"></rect>
<text x="2613.75" y="44">"USING KEY"</text>
</g>
<path d="M2670.5 40h10"></path>
<path d="M2680.5 40h10"></path>
<g class="non-terminal">
<path d="M2690.5 40h0"></path>
<path d="M2872 40h0"></path>
<rect x="2690.5" y="29" width="181.5" height="22"></rect>
<a xlink:href="#/abap/expression/NamespaceSimpleName"><text x="2781.25" y="44">NamespaceSimpleName</text>
</a>
</g>
</g>
<path d="M2872 40h20"></path>
</g>
</g>
</g>
<path d="M2892 40h10"></path>
<path d="M 2902 40 h 20 m -10 -10 v 20 m 10 -20 v 20"></path>
</g>
</svg>
