<svg xmlns="http://www.w3.org/2000/svg" xmlns:xlink="http://www.w3.org/1999/xlink" class="railroad-diagram" width="2194.5" height="1196" viewBox="0 0 2194.5 1196">
<defs>
<style type="text/css"><![CDATA[
path {
stroke-width: 3;
stroke: black;
fill: rgba(0,0,0,0);
}
text {
font: bold 14px monospace;
text-anchor: middle;
}
text.diagram-text {
font-size: 12px;
}
a {
fill: blue;
}
text.diagram-arrow {
font-size: 16px;
}
text.label {
text-anchor: start;
}
text.comment {
font: italic 12px monospace;
}
rect {
stroke-width: 3;
stroke: black;
fill: #BCBCBC;
}
path.diagram-text {
stroke-width: 3;
stroke: black;
fill: #BCBCBC;
cursor: help;
}
]]></style>
</defs>
<g transform="translate(.5 .5)">
<g>
<path d="M20 38v20m10 -20v20m-10 -10h20"></path>
</g>
<path d="M40 48h10"></path>
<g>
<path d="M50 48h0"></path>
<path d="M2144.5 48h0"></path>
<g class="comment ">
<path d="M50 48h0"></path>
<path d="M179 48h0"></path>
<text x="114.5" y="53" class="comment">not langver=Cloud</text>
</g>
<path d="M179 48h10"></path>
<path d="M189 48h10"></path>
<g>
<path d="M199 48h0"></path>
<path d="M2144.5 48h0"></path>
<g class="terminal ">
<path d="M199 48h0"></path>
<path d="M372 48h0"></path>
<rect x="199" y="37" width="173" height="22" rx="10" ry="10"></rect>
<text x="285.5" y="52">"SELECTION-SCREEN"</text>
</g>
<path d="M372 48h10"></path>
<g>
<path d="M382 48h0"></path>
<path d="M2144.5 48h0"></path>
<path d="M382 48h20"></path>
<g>
<path d="M402 48h136.75"></path>
<path d="M1987.75 48h136.75"></path>
<g class="terminal ">
<path d="M538.75 48h0"></path>
<path d="M635.25 48h0"></path>
<rect x="538.75" y="37" width="96.5" height="22" rx="10" ry="10"></rect>
<text x="587" y="52">"COMMENT"</text>
</g>
<path d="M635.25 48h10"></path>
<path d="M645.25 48h10"></path>
<g>
<path d="M655.25 48h0"></path>
<path d="M1266.25 48h0"></path>
<g>
<path d="M655.25 48h0"></path>
<path d="M817.25 48h0"></path>
<path d="M655.25 48a10 10 0 0 0 10 -10v0a10 10 0 0 1 10 -10"></path>
<g>
<path d="M675.25 28h122"></path>
</g>
<path d="M797.25 28a10 10 0 0 1 10 10v0a10 10 0 0 0 10 10"></path>
<path d="M655.25 48h20"></path>
<g class="terminal ">
<path d="M675.25 48h0"></path>
<path d="M797.25 48h0"></path>
<rect x="675.25" y="37" width="122" height="22" rx="10" ry="10"></rect>
<text x="736.25" y="52">^\/?&#91;\d\w&#93;+$</text>
</g>
<path d="M797.25 48h20"></path>
</g>
<g>
<path d="M817.25 48h0"></path>
<path d="M987.75 48h0"></path>
<path d="M817.25 48h20"></path>
<g class="terminal ">
<path d="M837.25 48h4.25"></path>
<path d="M963.5 48h4.25"></path>
<rect x="841.5" y="37" width="122" height="22" rx="10" ry="10"></rect>
<text x="902.5" y="52">!"ParenLeft"</text>
</g>
<path d="M967.75 48h20"></path>
<path d="M817.25 48a10 10 0 0 1 10 10v10a10 10 0 0 0 10 10"></path>
<g class="terminal ">
<path d="M837.25 78h0"></path>
<path d="M967.75 78h0"></path>
<rect x="837.25" y="67" width="130.5" height="22" rx="10" ry="10"></rect>
<text x="902.5" y="82">!"WParenLeft"</text>
</g>
<path d="M967.75 78a10 10 0 0 0 10 -10v-10a10 10 0 0 1 10 -10"></path>
</g>
<path d="M987.75 48h10"></path>
<g class="non-terminal ">
<path d="M997.75 48h0"></path>
<path d="M1077.25 48h0"></path>
<rect x="997.75" y="37" width="79.5" height="22"></rect>
<a xlink:href="#/abap/expression/Integer"><text x="1037.5" y="52">Integer</text>
</a>
</g>
<path d="M1077.25 48h10"></path>
<g>
<path d="M1087.25 48h0"></path>
<path d="M1266.25 48h0"></path>
<path d="M1087.25 48h20"></path>
<g class="terminal ">
<path d="M1107.25 48h0"></path>
<path d="M1246.25 48h0"></path>
<rect x="1107.25" y="37" width="139" height="22" rx="10" ry="10"></rect>
<text x="1176.75" y="52">!"ParenRightW"</text>
</g>
<path d="M1246.25 48h20"></path>
<path d="M1087.25 48a10 10 0 0 1 10 10v10a10 10 0 0 0 10 10"></path>
<g class="terminal ">
<path d="M1107.25 78h4.25"></path>
<path d="M1242 78h4.25"></path>
<rect x="1111.5" y="67" width="130.5" height="22" rx="10" ry="10"></rect>
<text x="1176.75" y="82">!"ParenRight"</text>
</g>
<path d="M1246.25 78a10 10 0 0 0 10 -10v-10a10 10 0 0 1 10 -10"></path>
</g>
</g>
<path d="M1266.25 48h10"></path>
<g>
<path d="M1276.25 48h0"></path>
<path d="M1469.75 48h0"></path>
<path d="M1276.25 48a10 10 0 0 0 10 -10v0a10 10 0 0 1 10 -10"></path>
<g>
<path d="M1296.25 28h153.5"></path>
</g>
<path d="M1449.75 28a10 10 0 0 1 10 10v0a10 10 0 0 0 10 10"></path>
<path d="M1276.25 48h20"></path>
<g>
<path d="M1296.25 48h0"></path>
<path d="M1449.75 48h0"></path>
<path d="M1296.25 48h20"></path>
<g class="non-terminal ">
<path d="M1316.25 48h0"></path>
<path d="M1429.75 48h0"></path>
<rect x="1316.25" y="37" width="113.5" height="22"></rect>
<a xlink:href="#/abap/expression/TextElement"><text x="1373" y="52">TextElement</text>
</a>
</g>
<path d="M1429.75 48h20"></path>
<path d="M1296.25 48a10 10 0 0 1 10 10v10a10 10 0 0 0 10 10"></path>
<g class="non-terminal ">
<path d="M1316.25 78h0"></path>
<path d="M1429.75 78h0"></path>
<rect x="1316.25" y="67" width="113.5" height="22"></rect>
<a xlink:href="#/abap/expression/InlineField"><text x="1373" y="82">InlineField</text>
</a>
</g>
<path d="M1429.75 78a10 10 0 0 0 10 -10v-10a10 10 0 0 1 10 -10"></path>
</g>
<path d="M1449.75 48h20"></path>
</g>
<g>
<path d="M1469.75 48h0"></path>
<path d="M1987.75 48h0"></path>
<path d="M1469.75 48a10 10 0 0 0 10 -10v-8a10 10 0 0 1 10 -10"></path>
<g>
<path d="M1489.75 20h478"></path>
</g>
<path d="M1967.75 20a10 10 0 0 1 10 10v8a10 10 0 0 0 10 10"></path>
<path d="M1469.75 48h20"></path>
<g>
<path d="M1489.75 48h0"></path>
<path d="M1967.75 48h0"></path>
<path d="M1519.75 48h10"></path>
<g>
<path d="M1529.75 48h0"></path>
<path d="M1937.75 48h0"></path>
<g class="terminal ">
<path d="M1529.75 48h0"></path>
<path d="M1643.25 48h0"></path>
<rect x="1529.75" y="37" width="113.5" height="22" rx="10" ry="10"></rect>
<text x="1586.5" y="52">"FOR FIELD"</text>
</g>
<path d="M1643.25 48h10"></path>
<path d="M1653.25 48h10"></path>
<g class="non-terminal ">
<path d="M1663.25 48h0"></path>
<path d="M1751.25 48h0"></path>
<rect x="1663.25" y="37" width="88" height="22"></rect>
<a xlink:href="#/abap/expression/FieldSub"><text x="1707.25" y="52">FieldSub</text>
</a>
</g>
<path d="M1751.25 48h10"></path>
<g>
<path d="M1761.25 48h0"></path>
<path d="M1937.75 48h0"></path>
<path d="M1761.25 48a10 10 0 0 0 10 -10v0a10 10 0 0 1 10 -10"></path>
<g>
<path d="M1781.25 28h136.5"></path>
</g>
<path d="M1917.75 28a10 10 0 0 1 10 10v0a10 10 0 0 0 10 10"></path>
<path d="M1761.25 48h20"></path>
<g>
<path d="M1781.25 48h0"></path>
<path d="M1917.75 48h0"></path>
<g class="terminal ">
<path d="M1781.25 48h0"></path>
<path d="M1835.25 48h0"></path>
<rect x="1781.25" y="37" width="54" height="22" rx="10" ry="10"></rect>
<text x="1808.25" y="52">"ID"</text>
</g>
<path d="M1835.25 48h10"></path>
<path d="M1845.25 48h10"></path>
<g class="terminal ">
<path d="M1855.25 48h0"></path>
<path d="M1917.75 48h0"></path>
<rect x="1855.25" y="37" width="62.5" height="22" rx="10" ry="10"></rect>
<text x="1886.5" y="52">^\w+$</text>
</g>
</g>
<path d="M1917.75 48h20"></path>
</g>
</g>
<path d="M1937.75 48h10"></path>
<path d="M1519.75 48v20a10 10 0 0 0 10 10"></path>
<g>
<path d="M1529.75 78h110.25"></path>
<path d="M1827.5 78h110.25"></path>
<g class="terminal ">
<path d="M1640 78h0"></path>
<path d="M1745 78h0"></path>
<rect x="1640" y="67" width="105" height="22" rx="10" ry="10"></rect>
<text x="1692.5" y="82">"MODIF ID"</text>
</g>
<path d="M1745 78h10"></path>
<path d="M1755 78h10"></path>
<g class="non-terminal ">
<path d="M1765 78h0"></path>
<path d="M1827.5 78h0"></path>
<rect x="1765" y="67" width="62.5" height="22"></rect>
<a xlink:href="#/abap/expression/Modif"><text x="1796.25" y="82">Modif</text>
</a>
</g>
</g>
<path d="M1937.75 78a10 10 0 0 0 10 -10v-20"></path>
<path d="M1519.75 48v50a10 10 0 0 0 10 10"></path>
<g>
<path d="M1529.75 108h84.75"></path>
<path d="M1853 108h84.75"></path>
<g class="terminal ">
<path d="M1614.5 108h0"></path>
<path d="M1770.5 108h0"></path>
<rect x="1614.5" y="97" width="156" height="22" rx="10" ry="10"></rect>
<text x="1692.5" y="112">"VISIBLE LENGTH"</text>
</g>
<path d="M1770.5 108h10"></path>
<path d="M1780.5 108h10"></path>
<g class="terminal ">
<path d="M1790.5 108h0"></path>
<path d="M1853 108h0"></path>
<rect x="1790.5" y="97" width="62.5" height="22" rx="10" ry="10"></rect>
<text x="1821.75" y="112">^\d+$</text>
</g>
</g>
<path d="M1937.75 108a10 10 0 0 0 10 -10v-50"></path>
<g class="diagram-text">
<title>take one or more branches, once each, in any order</title>
<path d="M 1519.75 38 h -26 a 4 4 0 0 0 -4 4 v 12 a 4 4 0 0 0 4 4 h 26 z" class="diagram-text"></path>
<text x="1504.75" y="52" class="diagram-text">1+</text>
<path d="M 1947.75 38 h 16 a 4 4 0 0 1 4 4 v 12 a 4 4 0 0 1 -4 4 h -16 z" class="diagram-text"></path>
<path d="M 1954.75 46 a 4 4 0 1 0 6 -1 m 2.75 -1 h -4 v 4 m 0 -3 h 2" style="stroke-width: 1.75"></path>
</g>
</g>
<path d="M1967.75 48h20"></path>
</g>
</g>
<path d="M2124.5 48h20"></path>
<path d="M382 48a10 10 0 0 1 10 10v70a10 10 0 0 0 10 10"></path>
<g>
<path d="M402 138h742"></path>
<path d="M1382.5 138h742"></path>
<g class="terminal ">
<path d="M1144 138h0"></path>
<path d="M1283 138h0"></path>
<rect x="1144" y="127" width="139" height="22" rx="10" ry="10"></rect>
<text x="1213.5" y="142">"FUNCTION KEY"</text>
</g>
<path d="M1283 138h10"></path>
<path d="M1293 138h10"></path>
<g class="non-terminal ">
<path d="M1303 138h0"></path>
<path d="M1382.5 138h0"></path>
<rect x="1303" y="127" width="79.5" height="22"></rect>
<a xlink:href="#/abap/expression/Integer"><text x="1342.75" y="142">Integer</text>
</a>
</g>
</g>
<path d="M2124.5 138a10 10 0 0 0 10 -10v-70a10 10 0 0 1 10 -10"></path>
<path d="M382 48a10 10 0 0 1 10 10v109a10 10 0 0 0 10 10"></path>
<g>
<path d="M402 177h761"></path>
<path d="M1363.5 177h761"></path>
<g class="terminal ">
<path d="M1163 177h0"></path>
<path d="M1234 177h0"></path>
<rect x="1163" y="166" width="71" height="22" rx="10" ry="10"></rect>
<text x="1198.5" y="181">"SKIP"</text>
</g>
<path d="M1234 177h10"></path>
<g>
<path d="M1244 177h0"></path>
<path d="M1363.5 177h0"></path>
<path d="M1244 177a10 10 0 0 0 10 -10v0a10 10 0 0 1 10 -10"></path>
<g>
<path d="M1264 157h79.5"></path>
</g>
<path d="M1343.5 157a10 10 0 0 1 10 10v0a10 10 0 0 0 10 10"></path>
<path d="M1244 177h20"></path>
<g class="non-terminal ">
<path d="M1264 177h0"></path>
<path d="M1343.5 177h0"></path>
<rect x="1264" y="166" width="79.5" height="22"></rect>
<a xlink:href="#/abap/expression/Integer"><text x="1303.75" y="181">Integer</text>
</a>
</g>
<path d="M1343.5 177h20"></path>
</g>
</g>
<path d="M2124.5 177a10 10 0 0 0 10 -10v-109a10 10 0 0 1 10 -10"></path>
<path d="M382 48a10 10 0 0 1 10 10v148a10 10 0 0 0 10 10"></path>
<g>
<path d="M402 216h515.5"></path>
<path d="M1609 216h515.5"></path>
<g class="terminal ">
<path d="M917.5 216h0"></path>
<path d="M1022.5 216h0"></path>
<rect x="917.5" y="205" width="105" height="22" rx="10" ry="10"></rect>
<text x="970" y="220">"POSITION"</text>
</g>
<path d="M1022.5 216h10"></path>
<g>
<path d="M1032.5 216h0"></path>
<path d="M1373 216h0"></path>
<path d="M1032.5 216h20"></path>
<g class="terminal ">
<path d="M1052.5 216h0"></path>
<path d="M1353 216h0"></path>
<rect x="1052.5" y="205" width="300.5" height="22" rx="10" ry="10"></rect>
<text x="1202.75" y="220">^(0?&#91;1-9&#93;|&#91;1234567&#93;&#91;0-9&#93;|8&#91;0-3&#93;)$</text>
</g>
<path d="M1353 216h20"></path>
<path d="M1032.5 216a10 10 0 0 1 10 10v10a10 10 0 0 0 10 10"></path>
<g>
<path d="M1052.5 246h77.75"></path>
<path d="M1275.25 246h77.75"></path>
<path d="M1130.25 246h20"></path>
<g class="terminal ">
<path d="M1150.25 246h4.25"></path>
<path d="M1251 246h4.25"></path>
<rect x="1154.5" y="235" width="96.5" height="22" rx="10" ry="10"></rect>
<text x="1202.75" y="250">"POS&#95;LOW"</text>
</g>
<path d="M1255.25 246h20"></path>
<path d="M1130.25 246a10 10 0 0 1 10 10v10a10 10 0 0 0 10 10"></path>
<g class="terminal ">
<path d="M1150.25 276h0"></path>
<path d="M1255.25 276h0"></path>
<rect x="1150.25" y="265" width="105" height="22" rx="10" ry="10"></rect>
<text x="1202.75" y="280">"POS&#95;HIGH"</text>
</g>
<path d="M1255.25 276a10 10 0 0 0 10 -10v-10a10 10 0 0 1 10 -10"></path>
</g>
<path d="M1353 246a10 10 0 0 0 10 -10v-10a10 10 0 0 1 10 -10"></path>
</g>
<g>
<path d="M1373 216h0"></path>
<path d="M1609 216h0"></path>
<path d="M1373 216a10 10 0 0 0 10 -10v0a10 10 0 0 1 10 -10"></path>
<g>
<path d="M1393 196h196"></path>
</g>
<path d="M1589 196a10 10 0 0 1 10 10v0a10 10 0 0 0 10 10"></path>
<path d="M1373 216h20"></path>
<g>
<path d="M1393 216h0"></path>
<path d="M1589 216h0"></path>
<g class="terminal ">
<path d="M1393 216h0"></path>
<path d="M1506.5 216h0"></path>
<rect x="1393" y="205" width="113.5" height="22" rx="10" ry="10"></rect>
<text x="1449.75" y="220">"FOR TABLE"</text>
</g>
<path d="M1506.5 216h10"></path>
<path d="M1516.5 216h10"></path>
<g class="non-terminal ">
<path d="M1526.5 216h0"></path>
<path d="M1589 216h0"></path>
<rect x="1526.5" y="205" width="62.5" height="22"></rect>
<a xlink:href="#/abap/expression/Field"><text x="1557.75" y="220">Field</text>
</a>
</g>
</g>
<path d="M1589 216h20"></path>
</g>
</g>
<path d="M2124.5 216a10 10 0 0 0 10 -10v-148a10 10 0 0 1 10 -10"></path>
<path d="M382 48a10 10 0 0 1 10 10v238a10 10 0 0 0 10 10"></path>
<g>
<path d="M402 306h725"></path>
<path d="M1399.5 306h725"></path>
<g class="terminal ">
<path d="M1127 306h0"></path>
<path d="M1283 306h0"></path>
<rect x="1127" y="295" width="156" height="22" rx="10" ry="10"></rect>
<text x="1205" y="310">"INCLUDE BLOCKS"</text>
</g>
<path d="M1283 306h10"></path>
<path d="M1293 306h10"></path>
<g class="non-terminal ">
<path d="M1303 306h0"></path>
<path d="M1399.5 306h0"></path>
<rect x="1303" y="295" width="96.5" height="22"></rect>
<a xlink:href="#/abap/expression/BlockName"><text x="1351.25" y="310">BlockName</text>
</a>
</g>
</g>
<path d="M2124.5 306a10 10 0 0 0 10 -10v-238a10 10 0 0 1 10 -10"></path>
<path d="M382 48a10 10 0 0 1 10 10v268a10 10 0 0 0 10 10"></path>
<g>
<path d="M402 336h708"></path>
<path d="M1416.5 336h708"></path>
<g class="terminal ">
<path d="M1110 336h0"></path>
<path d="M1334 336h0"></path>
<rect x="1110" y="325" width="224" height="22" rx="10" ry="10"></rect>
<text x="1222" y="340">"INCLUDE SELECT-OPTIONS"</text>
</g>
<path d="M1334 336h10"></path>
<path d="M1344 336h10"></path>
<g class="non-terminal ">
<path d="M1354 336h0"></path>
<path d="M1416.5 336h0"></path>
<rect x="1354" y="325" width="62.5" height="22"></rect>
<a xlink:href="#/abap/expression/Field"><text x="1385.25" y="340">Field</text>
</a>
</g>
</g>
<path d="M2124.5 336a10 10 0 0 0 10 -10v-268a10 10 0 0 1 10 -10"></path>
<path d="M382 48a10 10 0 0 1 10 10v307a10 10 0 0 0 10 10"></path>
<g>
<path d="M402 375h1.5"></path>
<path d="M2123 375h1.5"></path>
<g class="terminal ">
<path d="M403.5 375h0"></path>
<path d="M525.5 375h0"></path>
<rect x="403.5" y="364" width="122" height="22" rx="10" ry="10"></rect>
<text x="464.5" y="379">"PUSHBUTTON"</text>
</g>
<path d="M525.5 375h10"></path>
<path d="M535.5 375h10"></path>
<g>
<path d="M545.5 375h0"></path>
<path d="M1156.5 375h0"></path>
<g>
<path d="M545.5 375h0"></path>
<path d="M707.5 375h0"></path>
<path d="M545.5 375a10 10 0 0 0 10 -10v0a10 10 0 0 1 10 -10"></path>
<g>
<path d="M565.5 355h122"></path>
</g>
<path d="M687.5 355a10 10 0 0 1 10 10v0a10 10 0 0 0 10 10"></path>
<path d="M545.5 375h20"></path>
<g class="terminal ">
<path d="M565.5 375h0"></path>
<path d="M687.5 375h0"></path>
<rect x="565.5" y="364" width="122" height="22" rx="10" ry="10"></rect>
<text x="626.5" y="379">^\/?&#91;\d\w&#93;+$</text>
</g>
<path d="M687.5 375h20"></path>
</g>
<g>
<path d="M707.5 375h0"></path>
<path d="M878 375h0"></path>
<path d="M707.5 375h20"></path>
<g class="terminal ">
<path d="M727.5 375h4.25"></path>
<path d="M853.75 375h4.25"></path>
<rect x="731.75" y="364" width="122" height="22" rx="10" ry="10"></rect>
<text x="792.75" y="379">!"ParenLeft"</text>
</g>
<path d="M858 375h20"></path>
<path d="M707.5 375a10 10 0 0 1 10 10v10a10 10 0 0 0 10 10"></path>
<g class="terminal ">
<path d="M727.5 405h0"></path>
<path d="M858 405h0"></path>
<rect x="727.5" y="394" width="130.5" height="22" rx="10" ry="10"></rect>
<text x="792.75" y="409">!"WParenLeft"</text>
</g>
<path d="M858 405a10 10 0 0 0 10 -10v-10a10 10 0 0 1 10 -10"></path>
</g>
<path d="M878 375h10"></path>
<g class="non-terminal ">
<path d="M888 375h0"></path>
<path d="M967.5 375h0"></path>
<rect x="888" y="364" width="79.5" height="22"></rect>
<a xlink:href="#/abap/expression/Integer"><text x="927.75" y="379">Integer</text>
</a>
</g>
<path d="M967.5 375h10"></path>
<g>
<path d="M977.5 375h0"></path>
<path d="M1156.5 375h0"></path>
<path d="M977.5 375h20"></path>
<g class="terminal ">
<path d="M997.5 375h0"></path>
<path d="M1136.5 375h0"></path>
<rect x="997.5" y="364" width="139" height="22" rx="10" ry="10"></rect>
<text x="1067" y="379">!"ParenRightW"</text>
</g>
<path d="M1136.5 375h20"></path>
<path d="M977.5 375a10 10 0 0 1 10 10v10a10 10 0 0 0 10 10"></path>
<g class="terminal ">
<path d="M997.5 405h4.25"></path>
<path d="M1132.25 405h4.25"></path>
<rect x="1001.75" y="394" width="130.5" height="22" rx="10" ry="10"></rect>
<text x="1067" y="409">!"ParenRight"</text>
</g>
<path d="M1136.5 405a10 10 0 0 0 10 -10v-10a10 10 0 0 1 10 -10"></path>
</g>
</g>
<path d="M1156.5 375h10"></path>
<g>
<path d="M1166.5 375h0"></path>
<path d="M1320 375h0"></path>
<path d="M1166.5 375h20"></path>
<g class="non-terminal ">
<path d="M1186.5 375h0"></path>
<path d="M1300 375h0"></path>
<rect x="1186.5" y="364" width="113.5" height="22"></rect>
<a xlink:href="#/abap/expression/TextElement"><text x="1243.25" y="379">TextElement</text>
</a>
</g>
<path d="M1300 375h20"></path>
<path d="M1166.5 375a10 10 0 0 1 10 10v10a10 10 0 0 0 10 10"></path>
<g class="non-terminal ">
<path d="M1186.5 405h0"></path>
<path d="M1300 405h0"></path>
<rect x="1186.5" y="394" width="113.5" height="22"></rect>
<a xlink:href="#/abap/expression/InlineField"><text x="1243.25" y="409">InlineField</text>
</a>
</g>
<path d="M1300 405a10 10 0 0 0 10 -10v-10a10 10 0 0 1 10 -10"></path>
</g>
<path d="M1320 375h10"></path>
<g>
<path d="M1330 375h0"></path>
<path d="M1607 375h0"></path>
<g class="terminal ">
<path d="M1330 375h0"></path>
<path d="M1469 375h0"></path>
<rect x="1330" y="364" width="139" height="22" rx="10" ry="10"></rect>
<text x="1399.5" y="379">"USER-COMMAND"</text>
</g>
<path d="M1469 375h10"></path>
<g>
<path d="M1479 375h0"></path>
<path d="M1607 375h0"></path>
<path d="M1479 375h20"></path>
<g class="non-terminal ">
<path d="M1499 375h12.75"></path>
<path d="M1574.25 375h12.75"></path>
<rect x="1511.75" y="364" width="62.5" height="22"></rect>
<a xlink:href="#/abap/expression/Field"><text x="1543" y="379">Field</text>
</a>
</g>
<path d="M1587 375h20"></path>
<path d="M1479 375a10 10 0 0 1 10 10v10a10 10 0 0 0 10 10"></path>
<g class="non-terminal ">
<path d="M1499 405h0"></path>
<path d="M1587 405h0"></path>
<rect x="1499" y="394" width="88" height="22"></rect>
<a xlink:href="#/abap/expression/Constant"><text x="1543" y="409">Constant</text>
</a>
</g>
<path d="M1587 405a10 10 0 0 0 10 -10v-10a10 10 0 0 1 10 -10"></path>
</g>
</g>
<path d="M1607 375h10"></path>
<g>
<path d="M1617 375h0"></path>
<path d="M1844.5 375h0"></path>
<path d="M1617 375a10 10 0 0 0 10 -10v0a10 10 0 0 1 10 -10"></path>
<g>
<path d="M1637 355h187.5"></path>
</g>
<path d="M1824.5 355a10 10 0 0 1 10 10v0a10 10 0 0 0 10 10"></path>
<path d="M1617 375h20"></path>
<g>
<path d="M1637 375h0"></path>
<path d="M1824.5 375h0"></path>
<g class="terminal ">
<path d="M1637 375h0"></path>
<path d="M1742 375h0"></path>
<rect x="1637" y="364" width="105" height="22" rx="10" ry="10"></rect>
<text x="1689.5" y="379">"MODIF ID"</text>
</g>
<path d="M1742 375h10"></path>
<path d="M1752 375h10"></path>
<g class="non-terminal ">
<path d="M1762 375h0"></path>
<path d="M1824.5 375h0"></path>
<rect x="1762" y="364" width="62.5" height="22"></rect>
<a xlink:href="#/abap/expression/Modif"><text x="1793.25" y="379">Modif</text>
</a>
</g>
</g>
<path d="M1824.5 375h20"></path>
</g>
<g>
<path d="M1844.5 375h0"></path>
<path d="M2123 375h0"></path>
<path d="M1844.5 375a10 10 0 0 0 10 -10v0a10 10 0 0 1 10 -10"></path>
<g>
<path d="M1864.5 355h238.5"></path>
</g>
<path d="M2103 355a10 10 0 0 1 10 10v0a10 10 0 0 0 10 10"></path>
<path d="M1844.5 375h20"></path>
<g>
<path d="M1864.5 375h0"></path>
<path d="M2103 375h0"></path>
<g class="terminal ">
<path d="M1864.5 375h0"></path>
<path d="M2020.5 375h0"></path>
<rect x="1864.5" y="364" width="156" height="22" rx="10" ry="10"></rect>
<text x="1942.5" y="379">"VISIBLE LENGTH"</text>
</g>
<path d="M2020.5 375h10"></path>
<path d="M2030.5 375h10"></path>
<g class="terminal ">
<path d="M2040.5 375h0"></path>
<path d="M2103 375h0"></path>
<rect x="2040.5" y="364" width="62.5" height="22" rx="10" ry="10"></rect>
<text x="2071.75" y="379">^\d+$</text>
</g>
</g>
<path d="M2103 375h20"></path>
</g>
</g>
<path d="M2124.5 375a10 10 0 0 0 10 -10v-307a10 10 0 0 1 10 -10"></path>
<path d="M382 48a10 10 0 0 1 10 10v384a10 10 0 0 0 10 10"></path>
<g>
<path d="M402 452h0"></path>
<path d="M2124.5 452h0"></path>
<g class="terminal ">
<path d="M402 452h0"></path>
<path d="M464.5 452h0"></path>
<rect x="402" y="441" width="62.5" height="22" rx="10" ry="10"></rect>
<text x="433.25" y="456">"TAB"</text>
</g>
<path d="M464.5 452h10"></path>
<path d="M474.5 452h10"></path>
<g class="terminal ">
<path d="M484.5 452h0"></path>
<path d="M615 452h0"></path>
<rect x="484.5" y="441" width="130.5" height="22" rx="10" ry="10"></rect>
<text x="549.75" y="456">!"WParenLeft"</text>
</g>
<path d="M615 452h10"></path>
<path d="M625 452h10"></path>
<g class="non-terminal ">
<path d="M635 452h0"></path>
<path d="M714.5 452h0"></path>
<rect x="635" y="441" width="79.5" height="22"></rect>
<a xlink:href="#/abap/expression/Integer"><text x="674.75" y="456">Integer</text>
</a>
</g>
<path d="M714.5 452h10"></path>
<path d="M724.5 452h10"></path>
<g class="terminal ">
<path d="M734.5 452h0"></path>
<path d="M873.5 452h0"></path>
<rect x="734.5" y="441" width="139" height="22" rx="10" ry="10"></rect>
<text x="804" y="456">!"ParenRightW"</text>
</g>
<path d="M873.5 452h10"></path>
<g>
<path d="M883.5 452h0"></path>
<path d="M1037 452h0"></path>
<path d="M883.5 452h20"></path>
<g class="non-terminal ">
<path d="M903.5 452h0"></path>
<path d="M1017 452h0"></path>
<rect x="903.5" y="441" width="113.5" height="22"></rect>
<a xlink:href="#/abap/expression/TextElement"><text x="960.25" y="456">TextElement</text>
</a>
</g>
<path d="M1017 452h20"></path>
<path d="M883.5 452a10 10 0 0 1 10 10v10a10 10 0 0 0 10 10"></path>
<g class="non-terminal ">
<path d="M903.5 482h0"></path>
<path d="M1017 482h0"></path>
<rect x="903.5" y="471" width="113.5" height="22"></rect>
<a xlink:href="#/abap/expression/InlineField"><text x="960.25" y="486">InlineField</text>
</a>
</g>
<path d="M1017 482a10 10 0 0 0 10 -10v-10a10 10 0 0 1 10 -10"></path>
</g>
<path d="M1037 452h10"></path>
<g>
<path d="M1047 452h0"></path>
<path d="M1324 452h0"></path>
<g class="terminal ">
<path d="M1047 452h0"></path>
<path d="M1186 452h0"></path>
<rect x="1047" y="441" width="139" height="22" rx="10" ry="10"></rect>
<text x="1116.5" y="456">"USER-COMMAND"</text>
</g>
<path d="M1186 452h10"></path>
<g>
<path d="M1196 452h0"></path>
<path d="M1324 452h0"></path>
<path d="M1196 452h20"></path>
<g class="non-terminal ">
<path d="M1216 452h12.75"></path>
<path d="M1291.25 452h12.75"></path>
<rect x="1228.75" y="441" width="62.5" height="22"></rect>
<a xlink:href="#/abap/expression/Field"><text x="1260" y="456">Field</text>
</a>
</g>
<path d="M1304 452h20"></path>
<path d="M1196 452a10 10 0 0 1 10 10v10a10 10 0 0 0 10 10"></path>
<g class="non-terminal ">
<path d="M1216 482h0"></path>
<path d="M1304 482h0"></path>
<rect x="1216" y="471" width="88" height="22"></rect>
<a xlink:href="#/abap/expression/Constant"><text x="1260" y="486">Constant</text>
</a>
</g>
<path d="M1304 482a10 10 0 0 0 10 -10v-10a10 10 0 0 1 10 -10"></path>
</g>
</g>
<path d="M1324 452h10"></path>
<g>
<path d="M1334 452h0"></path>
<path d="M1897 452h0"></path>
<path d="M1334 452a10 10 0 0 0 10 -10v-8a10 10 0 0 1 10 -10"></path>
<g>
<path d="M1354 424h523"></path>
</g>
<path d="M1877 424a10 10 0 0 1 10 10v8a10 10 0 0 0 10 10"></path>
<path d="M1334 452h20"></path>
<g>
<path d="M1354 452h0"></path>
<path d="M1877 452h0"></path>
<g class="terminal ">
<path d="M1354 452h0"></path>
<path d="M1450.5 452h0"></path>
<rect x="1354" y="441" width="96.5" height="22" rx="10" ry="10"></rect>
<text x="1402.25" y="456">"DEFAULT"</text>
</g>
<path d="M1450.5 452h10"></path>
<g>
<path d="M1460.5 452h0"></path>
<path d="M1679.5 452h0"></path>
<path d="M1460.5 452a10 10 0 0 0 10 -10v0a10 10 0 0 1 10 -10"></path>
<g>
<path d="M1480.5 432h179"></path>
</g>
<path d="M1659.5 432a10 10 0 0 1 10 10v0a10 10 0 0 0 10 10"></path>
<path d="M1460.5 452h20"></path>
<g>
<path d="M1480.5 452h0"></path>
<path d="M1659.5 452h0"></path>
<g class="terminal ">
<path d="M1480.5 452h0"></path>
<path d="M1577 452h0"></path>
<rect x="1480.5" y="441" width="96.5" height="22" rx="10" ry="10"></rect>
<text x="1528.75" y="456">"PROGRAM"</text>
</g>
<path d="M1577 452h10"></path>
<path d="M1587 452h10"></path>
<g class="non-terminal ">
<path d="M1597 452h0"></path>
<path d="M1659.5 452h0"></path>
<rect x="1597" y="441" width="62.5" height="22"></rect>
<a xlink:href="#/abap/expression/Field"><text x="1628.25" y="456">Field</text>
</a>
</g>
</g>
<path d="M1659.5 452h20"></path>
</g>
<path d="M1679.5 452h10"></path>
<g class="terminal ">
<path d="M1689.5 452h0"></path>
<path d="M1777.5 452h0"></path>
<rect x="1689.5" y="441" width="88" height="22" rx="10" ry="10"></rect>
<text x="1733.5" y="456">"SCREEN"</text>
</g>
<path d="M1777.5 452h10"></path>
<path d="M1787.5 452h10"></path>
<g class="non-terminal ">
<path d="M1797.5 452h0"></path>
<path d="M1877 452h0"></path>
<rect x="1797.5" y="441" width="79.5" height="22"></rect>
<a xlink:href="#/abap/expression/Integer"><text x="1837.25" y="456">Integer</text>
</a>
</g>
</g>
<path d="M1877 452h20"></path>
</g>
<g>
<path d="M1897 452h0"></path>
<path d="M2124.5 452h0"></path>
<path d="M1897 452a10 10 0 0 0 10 -10v0a10 10 0 0 1 10 -10"></path>
<g>
<path d="M1917 432h187.5"></path>
</g>
<path d="M2104.5 432a10 10 0 0 1 10 10v0a10 10 0 0 0 10 10"></path>
<path d="M1897 452h20"></path>
<g>
<path d="M1917 452h0"></path>
<path d="M2104.5 452h0"></path>
<g class="terminal ">
<path d="M1917 452h0"></path>
<path d="M2022 452h0"></path>
<rect x="1917" y="441" width="105" height="22" rx="10" ry="10"></rect>
<text x="1969.5" y="456">"MODIF ID"</text>
</g>
<path d="M2022 452h10"></path>
<path d="M2032 452h10"></path>
<g class="non-terminal ">
<path d="M2042 452h0"></path>
<path d="M2104.5 452h0"></path>
<rect x="2042" y="441" width="62.5" height="22"></rect>
<a xlink:href="#/abap/expression/Modif"><text x="2073.25" y="456">Modif</text>
</a>
</g>
</g>
<path d="M2104.5 452h20"></path>
</g>
</g>
<path d="M2124.5 452a10 10 0 0 0 10 -10v-384a10 10 0 0 1 10 -10"></path>
<path d="M382 48a10 10 0 0 1 10 10v461a10 10 0 0 0 10 10"></path>
<g>
<path d="M402 529h377.25"></path>
<path d="M1747.25 529h377.25"></path>
<g class="terminal ">
<path d="M779.25 529h0"></path>
<path d="M858.75 529h0"></path>
<rect x="779.25" y="518" width="79.5" height="22" rx="10" ry="10"></rect>
<text x="819" y="533">"ULINE"</text>
</g>
<path d="M858.75 529h10"></path>
<g>
<path d="M868.75 529h0"></path>
<path d="M1519.75 529h0"></path>
<path d="M868.75 529a10 10 0 0 0 10 -10v-8a10 10 0 0 1 10 -10"></path>
<g>
<path d="M888.75 501h611"></path>
</g>
<path d="M1499.75 501a10 10 0 0 1 10 10v8a10 10 0 0 0 10 10"></path>
<path d="M868.75 529h20"></path>
<g>
<path d="M888.75 529h0"></path>
<path d="M1499.75 529h0"></path>
<g>
<path d="M888.75 529h0"></path>
<path d="M1050.75 529h0"></path>
<path d="M888.75 529a10 10 0 0 0 10 -10v0a10 10 0 0 1 10 -10"></path>
<g>
<path d="M908.75 509h122"></path>
</g>
<path d="M1030.75 509a10 10 0 0 1 10 10v0a10 10 0 0 0 10 10"></path>
<path d="M888.75 529h20"></path>
<g class="terminal ">
<path d="M908.75 529h0"></path>
<path d="M1030.75 529h0"></path>
<rect x="908.75" y="518" width="122" height="22" rx="10" ry="10"></rect>
<text x="969.75" y="533">^\/?&#91;\d\w&#93;+$</text>
</g>
<path d="M1030.75 529h20"></path>
</g>
<g>
<path d="M1050.75 529h0"></path>
<path d="M1221.25 529h0"></path>
<path d="M1050.75 529h20"></path>
<g class="terminal ">
<path d="M1070.75 529h4.25"></path>
<path d="M1197 529h4.25"></path>
<rect x="1075" y="518" width="122" height="22" rx="10" ry="10"></rect>
<text x="1136" y="533">!"ParenLeft"</text>
</g>
<path d="M1201.25 529h20"></path>
<path d="M1050.75 529a10 10 0 0 1 10 10v10a10 10 0 0 0 10 10"></path>
<g class="terminal ">
<path d="M1070.75 559h0"></path>
<path d="M1201.25 559h0"></path>
<rect x="1070.75" y="548" width="130.5" height="22" rx="10" ry="10"></rect>
<text x="1136" y="563">!"WParenLeft"</text>
</g>
<path d="M1201.25 559a10 10 0 0 0 10 -10v-10a10 10 0 0 1 10 -10"></path>
</g>
<path d="M1221.25 529h10"></path>
<g class="non-terminal ">
<path d="M1231.25 529h0"></path>
<path d="M1310.75 529h0"></path>
<rect x="1231.25" y="518" width="79.5" height="22"></rect>
<a xlink:href="#/abap/expression/Integer"><text x="1271" y="533">Integer</text>
</a>
</g>
<path d="M1310.75 529h10"></path>
<g>
<path d="M1320.75 529h0"></path>
<path d="M1499.75 529h0"></path>
<path d="M1320.75 529h20"></path>
<g class="terminal ">
<path d="M1340.75 529h0"></path>
<path d="M1479.75 529h0"></path>
<rect x="1340.75" y="518" width="139" height="22" rx="10" ry="10"></rect>
<text x="1410.25" y="533">!"ParenRightW"</text>
</g>
<path d="M1479.75 529h20"></path>
<path d="M1320.75 529a10 10 0 0 1 10 10v10a10 10 0 0 0 10 10"></path>
<g class="terminal ">
<path d="M1340.75 559h4.25"></path>
<path d="M1475.5 559h4.25"></path>
<rect x="1345" y="548" width="130.5" height="22" rx="10" ry="10"></rect>
<text x="1410.25" y="563">!"ParenRight"</text>
</g>
<path d="M1479.75 559a10 10 0 0 0 10 -10v-10a10 10 0 0 1 10 -10"></path>
</g>
</g>
<path d="M1499.75 529h20"></path>
</g>
<g>
<path d="M1519.75 529h0"></path>
<path d="M1747.25 529h0"></path>
<path d="M1519.75 529a10 10 0 0 0 10 -10v0a10 10 0 0 1 10 -10"></path>
<g>
<path d="M1539.75 509h187.5"></path>
</g>
<path d="M1727.25 509a10 10 0 0 1 10 10v0a10 10 0 0 0 10 10"></path>
<path d="M1519.75 529h20"></path>
<g>
<path d="M1539.75 529h0"></path>
<path d="M1727.25 529h0"></path>
<g class="terminal ">
<path d="M1539.75 529h0"></path>
<path d="M1644.75 529h0"></path>
<rect x="1539.75" y="518" width="105" height="22" rx="10" ry="10"></rect>
<text x="1592.25" y="533">"MODIF ID"</text>
</g>
<path d="M1644.75 529h10"></path>
<path d="M1654.75 529h10"></path>
<g class="non-terminal ">
<path d="M1664.75 529h0"></path>
<path d="M1727.25 529h0"></path>
<rect x="1664.75" y="518" width="62.5" height="22"></rect>
<a xlink:href="#/abap/expression/Modif"><text x="1696" y="533">Modif</text>
</a>
</g>
</g>
<path d="M1727.25 529h20"></path>
</g>
</g>
<path d="M2124.5 529a10 10 0 0 0 10 -10v-461a10 10 0 0 1 10 -10"></path>
<path d="M382 48a10 10 0 0 1 10 10v530a10 10 0 0 0 10 10"></path>
<g>
<path d="M402 598h408"></path>
<path d="M1716.5 598h408"></path>
<g class="terminal ">
<path d="M810 598h0"></path>
<path d="M966 598h0"></path>
<rect x="810" y="587" width="156" height="22" rx="10" ry="10"></rect>
<text x="888" y="602">"BEGIN OF BLOCK"</text>
</g>
<path d="M966 598h10"></path>
<path d="M976 598h10"></path>
<g class="non-terminal ">
<path d="M986 598h0"></path>
<path d="M1082.5 598h0"></path>
<rect x="986" y="587" width="96.5" height="22"></rect>
<a xlink:href="#/abap/expression/BlockName"><text x="1034.25" y="602">BlockName</text>
</a>
</g>
<path d="M1082.5 598h10"></path>
<g>
<path d="M1092.5 598h0"></path>
<path d="M1254.5 598h0"></path>
<path d="M1092.5 598a10 10 0 0 0 10 -10v0a10 10 0 0 1 10 -10"></path>
<g>
<path d="M1112.5 578h122"></path>
</g>
<path d="M1234.5 578a10 10 0 0 1 10 10v0a10 10 0 0 0 10 10"></path>
<path d="M1092.5 598h20"></path>
<g class="terminal ">
<path d="M1112.5 598h0"></path>
<path d="M1234.5 598h0"></path>
<rect x="1112.5" y="587" width="122" height="22" rx="10" ry="10"></rect>
<text x="1173.5" y="602">"WITH FRAME"</text>
</g>
<path d="M1234.5 598h20"></path>
</g>
<g>
<path d="M1254.5 598h0"></path>
<path d="M1537.5 598h0"></path>
<path d="M1254.5 598a10 10 0 0 0 10 -10v0a10 10 0 0 1 10 -10"></path>
<g>
<path d="M1274.5 578h243"></path>
</g>
<path d="M1517.5 578a10 10 0 0 1 10 10v0a10 10 0 0 0 10 10"></path>
<path d="M1254.5 598h20"></path>
<g>
<path d="M1274.5 598h0"></path>
<path d="M1517.5 598h0"></path>
<g class="terminal ">
<path d="M1274.5 598h0"></path>
<path d="M1354 598h0"></path>
<rect x="1274.5" y="587" width="79.5" height="22" rx="10" ry="10"></rect>
<text x="1314.25" y="602">"TITLE"</text>
</g>
<path d="M1354 598h10"></path>
<g>
<path d="M1364 598h0"></path>
<path d="M1517.5 598h0"></path>
<path d="M1364 598h20"></path>
<g class="non-terminal ">
<path d="M1384 598h0"></path>
<path d="M1497.5 598h0"></path>
<rect x="1384" y="587" width="113.5" height="22"></rect>
<a xlink:href="#/abap/expression/TextElement"><text x="1440.75" y="602">TextElement</text>
</a>
</g>
<path d="M1497.5 598h20"></path>
<path d="M1364 598a10 10 0 0 1 10 10v10a10 10 0 0 0 10 10"></path>
<g class="non-terminal ">
<path d="M1384 628h0"></path>
<path d="M1497.5 628h0"></path>
<rect x="1384" y="617" width="113.5" height="22"></rect>
<a xlink:href="#/abap/expression/InlineField"><text x="1440.75" y="632">InlineField</text>
</a>
</g>
<path d="M1497.5 628a10 10 0 0 0 10 -10v-10a10 10 0 0 1 10 -10"></path>
</g>
</g>
<path d="M1517.5 598h20"></path>
</g>
<g>
<path d="M1537.5 598h0"></path>
<path d="M1716.5 598h0"></path>
<path d="M1537.5 598a10 10 0 0 0 10 -10v0a10 10 0 0 1 10 -10"></path>
<g>
<path d="M1557.5 578h139"></path>
</g>
<path d="M1696.5 578a10 10 0 0 1 10 10v0a10 10 0 0 0 10 10"></path>
<path d="M1537.5 598h20"></path>
<g class="terminal ">
<path d="M1557.5 598h0"></path>
<path d="M1696.5 598h0"></path>
<rect x="1557.5" y="587" width="139" height="22" rx="10" ry="10"></rect>
<text x="1627" y="602">"NO INTERVALS"</text>
</g>
<path d="M1696.5 598h20"></path>
</g>
</g>
<path d="M2124.5 598a10 10 0 0 0 10 -10v-530a10 10 0 0 1 10 -10"></path>
<path d="M382 48a10 10 0 0 1 10 10v599a10 10 0 0 0 10 10"></path>
<g>
<path d="M402 667h460"></path>
<path d="M1664.5 667h460"></path>
<g class="terminal ">
<path d="M862 667h0"></path>
<path d="M1077.5 667h0"></path>
<rect x="862" y="656" width="215.5" height="22" rx="10" ry="10"></rect>
<text x="969.75" y="671">"BEGIN OF TABBED BLOCK"</text>
</g>
<path d="M1077.5 667h10"></path>
<path d="M1087.5 667h10"></path>
<g class="non-terminal ">
<path d="M1097.5 667h0"></path>
<path d="M1194 667h0"></path>
<rect x="1097.5" y="656" width="96.5" height="22"></rect>
<a xlink:href="#/abap/expression/BlockName"><text x="1145.75" y="671">BlockName</text>
</a>
</g>
<path d="M1194 667h10"></path>
<path d="M1204 667h10"></path>
<g class="terminal ">
<path d="M1214 667h0"></path>
<path d="M1276.5 667h0"></path>
<rect x="1214" y="656" width="62.5" height="22" rx="10" ry="10"></rect>
<text x="1245.25" y="671">"FOR"</text>
</g>
<path d="M1276.5 667h10"></path>
<path d="M1286.5 667h10"></path>
<g class="non-terminal ">
<path d="M1296.5 667h0"></path>
<path d="M1376 667h0"></path>
<rect x="1296.5" y="656" width="79.5" height="22"></rect>
<a xlink:href="#/abap/expression/Integer"><text x="1336.25" y="671">Integer</text>
</a>
</g>
<path d="M1376 667h10"></path>
<path d="M1386 667h10"></path>
<g class="terminal ">
<path d="M1396 667h0"></path>
<path d="M1475.5 667h0"></path>
<rect x="1396" y="656" width="79.5" height="22" rx="10" ry="10"></rect>
<text x="1435.75" y="671">"LINES"</text>
</g>
<path d="M1475.5 667h10"></path>
<g>
<path d="M1485.5 667h0"></path>
<path d="M1664.5 667h0"></path>
<path d="M1485.5 667a10 10 0 0 0 10 -10v0a10 10 0 0 1 10 -10"></path>
<g>
<path d="M1505.5 647h139"></path>
</g>
<path d="M1644.5 647a10 10 0 0 1 10 10v0a10 10 0 0 0 10 10"></path>
<path d="M1485.5 667h20"></path>
<g class="terminal ">
<path d="M1505.5 667h0"></path>
<path d="M1644.5 667h0"></path>
<rect x="1505.5" y="656" width="139" height="22" rx="10" ry="10"></rect>
<text x="1575" y="671">"NO INTERVALS"</text>
</g>
<path d="M1644.5 667h20"></path>
</g>
</g>
<path d="M2124.5 667a10 10 0 0 0 10 -10v-599a10 10 0 0 1 10 -10"></path>
<path d="M382 48a10 10 0 0 1 10 10v629a10 10 0 0 0 10 10"></path>
<g>
<path d="M402 697h733.5"></path>
<path d="M1391 697h733.5"></path>
<g class="terminal ">
<path d="M1135.5 697h0"></path>
<path d="M1274.5 697h0"></path>
<rect x="1135.5" y="686" width="139" height="22" rx="10" ry="10"></rect>
<text x="1205" y="701">"END OF BLOCK"</text>
</g>
<path d="M1274.5 697h10"></path>
<path d="M1284.5 697h10"></path>
<g class="non-terminal ">
<path d="M1294.5 697h0"></path>
<path d="M1391 697h0"></path>
<rect x="1294.5" y="686" width="96.5" height="22"></rect>
<a xlink:href="#/abap/expression/BlockName"><text x="1342.75" y="701">BlockName</text>
</a>
</g>
</g>
<path d="M2124.5 697a10 10 0 0 0 10 -10v-629a10 10 0 0 1 10 -10"></path>
<path d="M382 48a10 10 0 0 1 10 10v659a10 10 0 0 0 10 10"></path>
<g class="terminal ">
<path d="M402 727h787.5"></path>
<path d="M1337 727h787.5"></path>
<rect x="1189.5" y="716" width="147.5" height="22" rx="10" ry="10"></rect>
<text x="1263.25" y="731">"BEGIN OF LINE"</text>
</g>
<path d="M2124.5 727a10 10 0 0 0 10 -10v-659a10 10 0 0 1 10 -10"></path>
<path d="M382 48a10 10 0 0 1 10 10v689a10 10 0 0 0 10 10"></path>
<g class="terminal ">
<path d="M402 757h796"></path>
<path d="M1328.5 757h796"></path>
<rect x="1198" y="746" width="130.5" height="22" rx="10" ry="10"></rect>
<text x="1263.25" y="761">"END OF LINE"</text>
</g>
<path d="M2124.5 757a10 10 0 0 0 10 -10v-689a10 10 0 0 1 10 -10"></path>
<path d="M382 48a10 10 0 0 1 10 10v719a10 10 0 0 0 10 10"></path>
<g>
<path d="M402 787h725"></path>
<path d="M1399.5 787h725"></path>
<g class="terminal ">
<path d="M1127 787h0"></path>
<path d="M1317 787h0"></path>
<rect x="1127" y="776" width="190" height="22" rx="10" ry="10"></rect>
<text x="1222" y="791">"INCLUDE PARAMETERS"</text>
</g>
<path d="M1317 787h10"></path>
<path d="M1327 787h10"></path>
<g class="non-terminal ">
<path d="M1337 787h0"></path>
<path d="M1399.5 787h0"></path>
<rect x="1337" y="776" width="62.5" height="22"></rect>
<a xlink:href="#/abap/expression/Field"><text x="1368.25" y="791">Field</text>
</a>
</g>
</g>
<path d="M2124.5 787a10 10 0 0 0 10 -10v-719a10 10 0 0 1 10 -10"></path>
<path d="M382 48a10 10 0 0 1 10 10v758a10 10 0 0 0 10 10"></path>
<g>
<path d="M402 826h547.75"></path>
<path d="M1576.75 826h547.75"></path>
<g class="terminal ">
<path d="M949.75 826h0"></path>
<path d="M1114.25 826h0"></path>
<rect x="949.75" y="815" width="164.5" height="22" rx="10" ry="10"></rect>
<text x="1032" y="830">"BEGIN OF SCREEN"</text>
</g>
<path d="M1114.25 826h10"></path>
<path d="M1124.25 826h10"></path>
<g class="non-terminal ">
<path d="M1134.25 826h0"></path>
<path d="M1213.75 826h0"></path>
<rect x="1134.25" y="815" width="79.5" height="22"></rect>
<a xlink:href="#/abap/expression/Integer"><text x="1174" y="830">Integer</text>
</a>
</g>
<path d="M1213.75 826h10"></path>
<g>
<path d="M1223.75 826h0"></path>
<path d="M1576.75 826h0"></path>
<path d="M1223.75 826a10 10 0 0 0 10 -10v0a10 10 0 0 1 10 -10"></path>
<g>
<path d="M1243.75 806h313"></path>
</g>
<path d="M1556.75 806a10 10 0 0 1 10 10v0a10 10 0 0 0 10 10"></path>
<path d="M1223.75 826h20"></path>
<g>
<path d="M1243.75 826h0"></path>
<path d="M1556.75 826h0"></path>
<path d="M1273.75 826h10"></path>
<g>
<path d="M1283.75 826h12.75"></path>
<path d="M1514 826h12.75"></path>
<g class="terminal ">
<path d="M1296.5 826h0"></path>
<path d="M1350.5 826h0"></path>
<rect x="1296.5" y="815" width="54" height="22" rx="10" ry="10"></rect>
<text x="1323.5" y="830">"AS"</text>
</g>
<path d="M1350.5 826h10"></path>
<g>
<path d="M1360.5 826h0"></path>
<path d="M1514 826h0"></path>
<path d="M1360.5 826h20"></path>
<g class="terminal ">
<path d="M1380.5 826h12.75"></path>
<path d="M1481.25 826h12.75"></path>
<rect x="1393.25" y="815" width="88" height="22" rx="10" ry="10"></rect>
<text x="1437.25" y="830">"WINDOW"</text>
</g>
<path d="M1494 826h20"></path>
<path d="M1360.5 826a10 10 0 0 1 10 10v10a10 10 0 0 0 10 10"></path>
<g class="terminal ">
<path d="M1380.5 856h0"></path>
<path d="M1494 856h0"></path>
<rect x="1380.5" y="845" width="113.5" height="22" rx="10" ry="10"></rect>
<text x="1437.25" y="860">"SUBSCREEN"</text>
</g>
<path d="M1494 856a10 10 0 0 0 10 -10v-10a10 10 0 0 1 10 -10"></path>
</g>
</g>
<path d="M1526.75 826h10"></path>
<path d="M1273.75 826v50a10 10 0 0 0 10 10"></path>
<g>
<path d="M1283.75 886h0"></path>
<path d="M1526.75 886h0"></path>
<g class="terminal ">
<path d="M1283.75 886h0"></path>
<path d="M1363.25 886h0"></path>
<rect x="1283.75" y="875" width="79.5" height="22" rx="10" ry="10"></rect>
<text x="1323.5" y="890">"TITLE"</text>
</g>
<path d="M1363.25 886h10"></path>
<g>
<path d="M1373.25 886h0"></path>
<path d="M1526.75 886h0"></path>
<path d="M1373.25 886h20"></path>
<g class="non-terminal ">
<path d="M1393.25 886h0"></path>
<path d="M1506.75 886h0"></path>
<rect x="1393.25" y="875" width="113.5" height="22"></rect>
<a xlink:href="#/abap/expression/TextElement"><text x="1450" y="890">TextElement</text>
</a>
</g>
<path d="M1506.75 886h20"></path>
<path d="M1373.25 886a10 10 0 0 1 10 10v10a10 10 0 0 0 10 10"></path>
<g class="non-terminal ">
<path d="M1393.25 916h0"></path>
<path d="M1506.75 916h0"></path>
<rect x="1393.25" y="905" width="113.5" height="22"></rect>
<a xlink:href="#/abap/expression/InlineField"><text x="1450" y="920">InlineField</text>
</a>
</g>
<path d="M1506.75 916a10 10 0 0 0 10 -10v-10a10 10 0 0 1 10 -10"></path>
</g>
</g>
<path d="M1526.75 886a10 10 0 0 0 10 -10v-50"></path>
<path d="M1273.75 826v110a10 10 0 0 0 10 10"></path>
<g class="terminal ">
<path d="M1283.75 946h52"></path>
<path d="M1474.75 946h52"></path>
<rect x="1335.75" y="935" width="139" height="22" rx="10" ry="10"></rect>
<text x="1405.25" y="950">"NO INTERVALS"</text>
</g>
<path d="M1526.75 946a10 10 0 0 0 10 -10v-110"></path>
<path d="M1273.75 826v140a10 10 0 0 0 10 10"></path>
<g>
<path d="M1283.75 976h2.25"></path>
<path d="M1524.5 976h2.25"></path>
<g class="terminal ">
<path d="M1286 976h0"></path>
<path d="M1433.5 976h0"></path>
<rect x="1286" y="965" width="147.5" height="22" rx="10" ry="10"></rect>
<text x="1359.75" y="980">"NESTING LEVEL"</text>
</g>
<path d="M1433.5 976h10"></path>
<path d="M1443.5 976h10"></path>
<g class="non-terminal ">
<path d="M1453.5 976h0"></path>
<path d="M1524.5 976h0"></path>
<rect x="1453.5" y="965" width="71" height="22"></rect>
<a xlink:href="#/abap/expression/Source"><text x="1489" y="980">Source</text>
</a>
</g>
</g>
<path d="M1526.75 976a10 10 0 0 0 10 -10v-140"></path>
<g class="diagram-text">
<title>take one or more branches, once each, in any order</title>
<path d="M 1273.75 816 h -26 a 4 4 0 0 0 -4 4 v 12 a 4 4 0 0 0 4 4 h 26 z" class="diagram-text"></path>
<text x="1258.75" y="830" class="diagram-text">1+</text>
<path d="M 1536.75 816 h 16 a 4 4 0 0 1 4 4 v 12 a 4 4 0 0 1 -4 4 h -16 z" class="diagram-text"></path>
<path d="M 1543.75 824 a 4 4 0 1 0 6 -1 m 2.75 -1 h -4 v 4 m 0 -3 h 2" style="stroke-width: 1.75"></path>
</g>
</g>
<path d="M1556.75 826h20"></path>
</g>
</g>
<path d="M2124.5 826a10 10 0 0 0 10 -10v-758a10 10 0 0 1 10 -10"></path>
<path d="M382 48a10 10 0 0 1 10 10v938a10 10 0 0 0 10 10"></path>
<g>
<path d="M402 1006h737.75"></path>
<path d="M1386.75 1006h737.75"></path>
<g class="terminal ">
<path d="M1139.75 1006h0"></path>
<path d="M1287.25 1006h0"></path>
<rect x="1139.75" y="995" width="147.5" height="22" rx="10" ry="10"></rect>
<text x="1213.5" y="1010">"END OF SCREEN"</text>
</g>
<path d="M1287.25 1006h10"></path>
<path d="M1297.25 1006h10"></path>
<g class="non-terminal ">
<path d="M1307.25 1006h0"></path>
<path d="M1386.75 1006h0"></path>
<rect x="1307.25" y="995" width="79.5" height="22"></rect>
<a xlink:href="#/abap/expression/Integer"><text x="1347" y="1010">Integer</text>
</a>
</g>
</g>
<path d="M2124.5 1006a10 10 0 0 0 10 -10v-938a10 10 0 0 1 10 -10"></path>
<path d="M382 48a10 10 0 0 1 10 10v968a10 10 0 0 0 10 10"></path>
<g>
<path d="M402 1036h690.75"></path>
<path d="M1433.75 1036h690.75"></path>
<g class="terminal ">
<path d="M1092.75 1036h0"></path>
<path d="M1189.25 1036h0"></path>
<rect x="1092.75" y="1025" width="96.5" height="22" rx="10" ry="10"></rect>
<text x="1141" y="1040">"EXCLUDE"</text>
</g>
<path d="M1189.25 1036h10"></path>
<g>
<path d="M1199.25 1036h0"></path>
<path d="M1361.25 1036h0"></path>
<path d="M1199.25 1036h20"></path>
<g class="terminal ">
<path d="M1219.25 1036h29.75"></path>
<path d="M1311.5 1036h29.75"></path>
<rect x="1249" y="1025" width="62.5" height="22" rx="10" ry="10"></rect>
<text x="1280.25" y="1040">"IDS"</text>
</g>
<path d="M1341.25 1036h20"></path>
<path d="M1199.25 1036a10 10 0 0 1 10 10v10a10 10 0 0 0 10 10"></path>
<g class="terminal ">
<path d="M1219.25 1066h0"></path>
<path d="M1341.25 1066h0"></path>
<rect x="1219.25" y="1055" width="122" height="22" rx="10" ry="10"></rect>
<text x="1280.25" y="1070">"PARAMETERS"</text>
</g>
<path d="M1341.25 1066a10 10 0 0 0 10 -10v-10a10 10 0 0 1 10 -10"></path>
</g>
<path d="M1361.25 1036h10"></path>
<g class="terminal ">
<path d="M1371.25 1036h0"></path>
<path d="M1433.75 1036h0"></path>
<rect x="1371.25" y="1025" width="62.5" height="22" rx="10" ry="10"></rect>
<text x="1402.5" y="1040">^\w+$</text>
</g>
</g>
<path d="M2124.5 1036a10 10 0 0 0 10 -10v-968a10 10 0 0 1 10 -10"></path>
<path d="M382 48a10 10 0 0 1 10 10v1028a10 10 0 0 0 10 10"></path>
<g>
<path d="M402 1096h666.75"></path>
<path d="M1457.75 1096h666.75"></path>
<g class="terminal ">
<path d="M1068.75 1096h0"></path>
<path d="M1241.75 1096h0"></path>
<rect x="1068.75" y="1085" width="173" height="22" rx="10" ry="10"></rect>
<text x="1155.25" y="1100">"BEGIN OF VERSION"</text>
</g>
<path d="M1241.75 1096h10"></path>
<path d="M1251.75 1096h10"></path>
<g class="terminal ">
<path d="M1261.75 1096h0"></path>
<path d="M1324.25 1096h0"></path>
<rect x="1261.75" y="1085" width="62.5" height="22" rx="10" ry="10"></rect>
<text x="1293" y="1100">^\w+$</text>
</g>
<path d="M1324.25 1096h10"></path>
<path d="M1334.25 1096h10"></path>
<g class="non-terminal ">
<path d="M1344.25 1096h0"></path>
<path d="M1457.75 1096h0"></path>
<rect x="1344.25" y="1085" width="113.5" height="22"></rect>
<a xlink:href="#/abap/expression/TextElement"><text x="1401" y="1100">TextElement</text>
</a>
</g>
</g>
<path d="M2124.5 1096a10 10 0 0 0 10 -10v-1028a10 10 0 0 1 10 -10"></path>
<path d="M382 48a10 10 0 0 1 10 10v1058a10 10 0 0 0 10 10"></path>
<g>
<path d="M402 1126h742"></path>
<path d="M1382.5 1126h742"></path>
<g class="terminal ">
<path d="M1144 1126h0"></path>
<path d="M1300 1126h0"></path>
<rect x="1144" y="1115" width="156" height="22" rx="10" ry="10"></rect>
<text x="1222" y="1130">"END OF VERSION"</text>
</g>
<path d="M1300 1126h10"></path>
<path d="M1310 1126h10"></path>
<g class="terminal ">
<path d="M1320 1126h0"></path>
<path d="M1382.5 1126h0"></path>
<rect x="1320" y="1115" width="62.5" height="22" rx="10" ry="10"></rect>
<text x="1351.25" y="1130">^\w+$</text>
</g>
</g>
<path d="M2124.5 1126a10 10 0 0 0 10 -10v-1058a10 10 0 0 1 10 -10"></path>
<path d="M382 48a10 10 0 0 1 10 10v1097a10 10 0 0 0 10 10"></path>
<g>
<path d="M402 1165h599.75"></path>
<path d="M1524.75 1165h599.75"></path>
<g class="terminal ">
<path d="M1001.75 1165h0"></path>
<path d="M1098.25 1165h0"></path>
<rect x="1001.75" y="1154" width="96.5" height="22" rx="10" ry="10"></rect>
<text x="1050" y="1169">"DEFAULT"</text>
</g>
<path d="M1098.25 1165h10"></path>
<g>
<path d="M1108.25 1165h0"></path>
<path d="M1327.25 1165h0"></path>
<path d="M1108.25 1165a10 10 0 0 0 10 -10v0a10 10 0 0 1 10 -10"></path>
<g>
<path d="M1128.25 1145h179"></path>
</g>
<path d="M1307.25 1145a10 10 0 0 1 10 10v0a10 10 0 0 0 10 10"></path>
<path d="M1108.25 1165h20"></path>
<g>
<path d="M1128.25 1165h0"></path>
<path d="M1307.25 1165h0"></path>
<g class="terminal ">
<path d="M1128.25 1165h0"></path>
<path d="M1224.75 1165h0"></path>
<rect x="1128.25" y="1154" width="96.5" height="22" rx="10" ry="10"></rect>
<text x="1176.5" y="1169">"PROGRAM"</text>
</g>
<path d="M1224.75 1165h10"></path>
<path d="M1234.75 1165h10"></path>
<g class="non-terminal ">
<path d="M1244.75 1165h0"></path>
<path d="M1307.25 1165h0"></path>
<rect x="1244.75" y="1154" width="62.5" height="22"></rect>
<a xlink:href="#/abap/expression/Field"><text x="1276" y="1169">Field</text>
</a>
</g>
</g>
<path d="M1307.25 1165h20"></path>
</g>
<path d="M1327.25 1165h10"></path>
<g class="terminal ">
<path d="M1337.25 1165h0"></path>
<path d="M1425.25 1165h0"></path>
<rect x="1337.25" y="1154" width="88" height="22" rx="10" ry="10"></rect>
<text x="1381.25" y="1169">"SCREEN"</text>
</g>
<path d="M1425.25 1165h10"></path>
<path d="M1435.25 1165h10"></path>
<g class="non-terminal ">
<path d="M1445.25 1165h0"></path>
<path d="M1524.75 1165h0"></path>
<rect x="1445.25" y="1154" width="79.5" height="22"></rect>
<a xlink:href="#/abap/expression/Integer"><text x="1485" y="1169">Integer</text>
</a>
</g>
</g>
<path d="M2124.5 1165a10 10 0 0 0 10 -10v-1097a10 10 0 0 1 10 -10"></path>
</g>
</g>
</g>
<path d="M2144.5 48h10"></path>
<path d="M 2154.5 48 h 20 m -10 -10 v 20 m 10 -20 v 20"></path>
</g>
</svg>
