<svg xmlns="http://www.w3.org/2000/svg" xmlns:xlink="http://www.w3.org/1999/xlink" class="railroad-diagram" width="669.5" height="71" viewBox="0 0 669.5 71">
<defs>
<style type="text/css"><![CDATA[
path {
stroke-width: 3;
stroke: black;
fill: rgba(0,0,0,0);
}
text {
font: bold 14px monospace;
text-anchor: middle;
}
text.diagram-text {
font-size: 12px;
}
a {
fill: blue;
}
text.diagram-arrow {
font-size: 16px;
}
text.label {
text-anchor: start;
}
text.comment {
font: italic 12px monospace;
}
rect {
stroke-width: 3;
stroke: black;
fill: #BCBCBC;
}
path.diagram-text {
stroke-width: 3;
stroke: black;
fill: #BCBCBC;
cursor: help;
}
]]></style>
</defs>
<g transform="translate(.5 .5)">
<g>
<path d="M20 30v20m10 -20v20m-10 -10h20"></path>
</g>
<path d="M40 40h10"></path>
<g>
<path d="M50 40h0"></path>
<path d="M619.5 40h0"></path>
<g class="terminal">
<path d="M50 40h0"></path>
<path d="M180.5 40h0"></path>
<rect x="50" y="29" width="130.5" height="22" rx="10" ry="10"></rect>
<text x="115.25" y="44">"RAISE EVENT"</text>
</g>
<path d="M180.5 40h10"></path>
<path d="M190.5 40h10"></path>
<g class="non-terminal">
<path d="M200.5 40h0"></path>
<path d="M297 40h0"></path>
<rect x="200.5" y="29" width="96.5" height="22"></rect>
<a xlink:href="#/abap/expression/EventName"><text x="248.75" y="44">EventName</text>
</a>
</g>
<path d="M297 40h10"></path>
<g>
<path d="M307 40h0"></path>
<path d="M619.5 40h0"></path>
<path d="M307 40a10 10 0 0 0 10 -10v0a10 10 0 0 1 10 -10"></path>
<g>
<path d="M327 20h272.5"></path>
</g>
<path d="M599.5 20a10 10 0 0 1 10 10v0a10 10 0 0 0 10 10"></path>
<path d="M307 40h20"></path>
<g>
<path d="M327 40h0"></path>
<path d="M599.5 40h0"></path>
<g class="terminal">
<path d="M327 40h0"></path>
<path d="M440.5 40h0"></path>
<rect x="327" y="29" width="113.5" height="22" rx="10" ry="10"></rect>
<text x="383.75" y="44">"EXPORTING"</text>
</g>
<path d="M440.5 40h10"></path>
<path d="M450.5 40h10"></path>
<g class="non-terminal">
<path d="M460.5 40h0"></path>
<path d="M599.5 40h0"></path>
<rect x="460.5" y="29" width="139" height="22"></rect>
<a xlink:href="#/abap/expression/ParameterListS"><text x="530" y="44">ParameterListS</text>
</a>
</g>
</g>
<path d="M599.5 40h20"></path>
</g>
</g>
<path d="M619.5 40h10"></path>
<path d="M 629.5 40 h 20 m -10 -10 v 20 m 10 -20 v 20"></path>
</g>
</svg>
