<svg xmlns="http://www.w3.org/2000/svg" xmlns:xlink="http://www.w3.org/1999/xlink" class="railroad-diagram" width="1366.5" height="1951" viewBox="0 0 1366.5 1951">
<defs>
<style type="text/css"><![CDATA[
path {
stroke-width: 3;
stroke: black;
fill: rgba(0,0,0,0);
}
text {
font: bold 14px monospace;
text-anchor: middle;
}
text.diagram-text {
font-size: 12px;
}
a {
fill: blue;
}
text.diagram-arrow {
font-size: 16px;
}
text.label {
text-anchor: start;
}
text.comment {
font: italic 12px monospace;
}
rect {
stroke-width: 3;
stroke: black;
fill: #BCBCBC;
}
path.diagram-text {
stroke-width: 3;
stroke: black;
fill: #BCBCBC;
cursor: help;
}
]]></style>
</defs>
<g transform="translate(.5 .5)">
<g>
<path d="M20 38v20m10 -20v20m-10 -10h20"></path>
</g>
<path d="M40 48h10"></path>
<g>
<path d="M50 48h0"></path>
<path d="M1316.5 48h0"></path>
<g class="comment ">
<path d="M50 48h0"></path>
<path d="M123 48h0"></path>
<text x="86.5" y="53" class="comment">not Cloud</text>
</g>
<path d="M123 48h10"></path>
<path d="M133 48h10"></path>
<g>
<path d="M143 48h0"></path>
<path d="M1316.5 48h0"></path>
<g class="terminal ">
<path d="M143 48h0"></path>
<path d="M231 48h0"></path>
<rect x="143" y="37" width="88" height="22" rx="10" ry="10"></rect>
<text x="187" y="52">"SUBMIT"</text>
</g>
<path d="M231 48h10"></path>
<g>
<path d="M241 48h0"></path>
<path d="M394.5 48h0"></path>
<path d="M241 48h20"></path>
<g class="non-terminal ">
<path d="M261 48h0"></path>
<path d="M374.5 48h0"></path>
<rect x="261" y="37" width="113.5" height="22"></rect>
<a xlink:href="#/abap/expression/IncludeName"><text x="317.75" y="52">IncludeName</text>
</a>
</g>
<path d="M374.5 48h20"></path>
<path d="M241 48a10 10 0 0 1 10 10v10a10 10 0 0 0 10 10"></path>
<g class="non-terminal ">
<path d="M261 78h17"></path>
<path d="M357.5 78h17"></path>
<rect x="278" y="67" width="79.5" height="22"></rect>
<a xlink:href="#/abap/expression/Dynamic"><text x="317.75" y="82">Dynamic</text>
</a>
</g>
<path d="M374.5 78a10 10 0 0 0 10 -10v-10a10 10 0 0 1 10 -10"></path>
</g>
<g>
<path d="M394.5 48h0"></path>
<path d="M1316.5 48h0"></path>
<path d="M394.5 48a10 10 0 0 0 10 -10v-8a10 10 0 0 1 10 -10"></path>
<g>
<path d="M414.5 20h882"></path>
</g>
<path d="M1296.5 20a10 10 0 0 1 10 10v8a10 10 0 0 0 10 10"></path>
<path d="M394.5 48h20"></path>
<g>
<path d="M414.5 48h0"></path>
<path d="M1296.5 48h0"></path>
<path d="M444.5 48h10"></path>
<g>
<path d="M454.5 48h0"></path>
<path d="M1266.5 48h0"></path>
<path d="M454.5 48h10"></path>
<g>
<path d="M464.5 48h0"></path>
<path d="M1256.5 48h0"></path>
<g class="terminal ">
<path d="M464.5 48h0"></path>
<path d="M535.5 48h0"></path>
<rect x="464.5" y="37" width="71" height="22" rx="10" ry="10"></rect>
<text x="500" y="52">"WITH"</text>
</g>
<path d="M535.5 48h10"></path>
<path d="M545.5 48h10"></path>
<g class="non-terminal ">
<path d="M555.5 48h0"></path>
<path d="M643.5 48h0"></path>
<rect x="555.5" y="37" width="88" height="22"></rect>
<a xlink:href="#/abap/expression/FieldSub"><text x="599.5" y="52">FieldSub</text>
</a>
</g>
<path d="M643.5 48h10"></path>
<g>
<path d="M653.5 48h0"></path>
<path d="M1054.5 48h0"></path>
<path d="M653.5 48h20"></path>
<g>
<path d="M673.5 48h84.5"></path>
<path d="M950 48h84.5"></path>
<g>
<path d="M758 48h0"></path>
<path d="M869 48h0"></path>
<path d="M758 48h20"></path>
<g class="terminal ">
<path d="M778 48h12.75"></path>
<path d="M836.25 48h12.75"></path>
<rect x="790.75" y="37" width="45.5" height="22" rx="10" ry="10"></rect>
<text x="813.5" y="52">"="</text>
</g>
<path d="M849 48h20"></path>
<path d="M758 48a10 10 0 0 1 10 10v10a10 10 0 0 0 10 10"></path>
<g class="terminal ">
<path d="M778 78h8.5"></path>
<path d="M840.5 78h8.5"></path>
<rect x="786.5" y="67" width="54" height="22" rx="10" ry="10"></rect>
<text x="813.5" y="82">"EQ"</text>
</g>
<path d="M849 78a10 10 0 0 0 10 -10v-10a10 10 0 0 1 10 -10"></path>
<path d="M758 48a10 10 0 0 1 10 10v40a10 10 0 0 0 10 10"></path>
<g class="terminal ">
<path d="M778 108h8.5"></path>
<path d="M840.5 108h8.5"></path>
<rect x="786.5" y="97" width="54" height="22" rx="10" ry="10"></rect>
<text x="813.5" y="112">"IN"</text>
</g>
<path d="M849 108a10 10 0 0 0 10 -10v-40a10 10 0 0 1 10 -10"></path>
<path d="M758 48a10 10 0 0 1 10 10v70a10 10 0 0 0 10 10"></path>
<g class="terminal ">
<path d="M778 138h8.5"></path>
<path d="M840.5 138h8.5"></path>
<rect x="786.5" y="127" width="54" height="22" rx="10" ry="10"></rect>
<text x="813.5" y="142">"NE"</text>
</g>
<path d="M849 138a10 10 0 0 0 10 -10v-70a10 10 0 0 1 10 -10"></path>
<path d="M758 48a10 10 0 0 1 10 10v100a10 10 0 0 0 10 10"></path>
<g class="terminal ">
<path d="M778 168h8.5"></path>
<path d="M840.5 168h8.5"></path>
<rect x="786.5" y="157" width="54" height="22" rx="10" ry="10"></rect>
<text x="813.5" y="172">"CP"</text>
</g>
<path d="M849 168a10 10 0 0 0 10 -10v-100a10 10 0 0 1 10 -10"></path>
<path d="M758 48a10 10 0 0 1 10 10v130a10 10 0 0 0 10 10"></path>
<g class="terminal ">
<path d="M778 198h8.5"></path>
<path d="M840.5 198h8.5"></path>
<rect x="786.5" y="187" width="54" height="22" rx="10" ry="10"></rect>
<text x="813.5" y="202">"GE"</text>
</g>
<path d="M849 198a10 10 0 0 0 10 -10v-130a10 10 0 0 1 10 -10"></path>
<path d="M758 48a10 10 0 0 1 10 10v160a10 10 0 0 0 10 10"></path>
<g class="terminal ">
<path d="M778 228h8.5"></path>
<path d="M840.5 228h8.5"></path>
<rect x="786.5" y="217" width="54" height="22" rx="10" ry="10"></rect>
<text x="813.5" y="232">"LE"</text>
</g>
<path d="M849 228a10 10 0 0 0 10 -10v-160a10 10 0 0 1 10 -10"></path>
<path d="M758 48a10 10 0 0 1 10 10v190a10 10 0 0 0 10 10"></path>
<g class="terminal ">
<path d="M778 258h0"></path>
<path d="M849 258h0"></path>
<rect x="778" y="247" width="71" height="22" rx="10" ry="10"></rect>
<text x="813.5" y="262">"INCL"</text>
</g>
<path d="M849 258a10 10 0 0 0 10 -10v-190a10 10 0 0 1 10 -10"></path>
<path d="M758 48a10 10 0 0 1 10 10v220a10 10 0 0 0 10 10"></path>
<g class="terminal ">
<path d="M778 288h8.5"></path>
<path d="M840.5 288h8.5"></path>
<rect x="786.5" y="277" width="54" height="22" rx="10" ry="10"></rect>
<text x="813.5" y="292">"GT"</text>
</g>
<path d="M849 288a10 10 0 0 0 10 -10v-220a10 10 0 0 1 10 -10"></path>
<path d="M758 48a10 10 0 0 1 10 10v250a10 10 0 0 0 10 10"></path>
<g class="terminal ">
<path d="M778 318h8.5"></path>
<path d="M840.5 318h8.5"></path>
<rect x="786.5" y="307" width="54" height="22" rx="10" ry="10"></rect>
<text x="813.5" y="322">"LT"</text>
</g>
<path d="M849 318a10 10 0 0 0 10 -10v-250a10 10 0 0 1 10 -10"></path>
</g>
<path d="M869 48h10"></path>
<g class="non-terminal ">
<path d="M879 48h0"></path>
<path d="M950 48h0"></path>
<rect x="879" y="37" width="71" height="22"></rect>
<a xlink:href="#/abap/expression/Source"><text x="914.5" y="52">Source</text>
</a>
</g>
</g>
<path d="M1034.5 48h20"></path>
<path d="M653.5 48a10 10 0 0 1 10 10v280a10 10 0 0 0 10 10"></path>
<g>
<path d="M673.5 348h0"></path>
<path d="M1034.5 348h0"></path>
<g class="terminal ">
<path d="M673.5 348h0"></path>
<path d="M770 348h0"></path>
<rect x="673.5" y="337" width="96.5" height="22" rx="10" ry="10"></rect>
<text x="721.75" y="352">"BETWEEN"</text>
</g>
<path d="M770 348h10"></path>
<path d="M780 348h10"></path>
<g class="non-terminal ">
<path d="M790 348h0"></path>
<path d="M861 348h0"></path>
<rect x="790" y="337" width="71" height="22"></rect>
<a xlink:href="#/abap/expression/Source"><text x="825.5" y="352">Source</text>
</a>
</g>
<path d="M861 348h10"></path>
<path d="M871 348h10"></path>
<g class="terminal ">
<path d="M881 348h0"></path>
<path d="M943.5 348h0"></path>
<rect x="881" y="337" width="62.5" height="22" rx="10" ry="10"></rect>
<text x="912.25" y="352">"AND"</text>
</g>
<path d="M943.5 348h10"></path>
<path d="M953.5 348h10"></path>
<g class="non-terminal ">
<path d="M963.5 348h0"></path>
<path d="M1034.5 348h0"></path>
<rect x="963.5" y="337" width="71" height="22"></rect>
<a xlink:href="#/abap/expression/Source"><text x="999" y="352">Source</text>
</a>
</g>
</g>
<path d="M1034.5 348a10 10 0 0 0 10 -10v-280a10 10 0 0 1 10 -10"></path>
</g>
<g>
<path d="M1054.5 48h0"></path>
<path d="M1256.5 48h0"></path>
<path d="M1054.5 48a10 10 0 0 0 10 -10v0a10 10 0 0 1 10 -10"></path>
<g>
<path d="M1074.5 28h162"></path>
</g>
<path d="M1236.5 28a10 10 0 0 1 10 10v0a10 10 0 0 0 10 10"></path>
<path d="M1054.5 48h20"></path>
<g>
<path d="M1074.5 48h0"></path>
<path d="M1236.5 48h0"></path>
<g class="terminal ">
<path d="M1074.5 48h0"></path>
<path d="M1145.5 48h0"></path>
<rect x="1074.5" y="37" width="71" height="22" rx="10" ry="10"></rect>
<text x="1110" y="52">"SIGN"</text>
</g>
<path d="M1145.5 48h10"></path>
<path d="M1155.5 48h10"></path>
<g class="non-terminal ">
<path d="M1165.5 48h0"></path>
<path d="M1236.5 48h0"></path>
<rect x="1165.5" y="37" width="71" height="22"></rect>
<a xlink:href="#/abap/expression/Source"><text x="1201" y="52">Source</text>
</a>
</g>
</g>
<path d="M1236.5 48h20"></path>
</g>
</g>
<path d="M1256.5 48h10"></path>
<path d="M464.5 48a10 10 0 0 0 -10 10v299a10 10 0 0 0 10 10"></path>
<g>
<path d="M464.5 367h792"></path>
</g>
<path d="M1256.5 367a10 10 0 0 0 10 -10v-299a10 10 0 0 0 -10 -10"></path>
</g>
<path d="M1266.5 48h10"></path>
<path d="M444.5 48v328a10 10 0 0 0 10 10"></path>
<g>
<path d="M454.5 386h257"></path>
<path d="M1009.5 386h257"></path>
<g class="terminal ">
<path d="M711.5 386h0"></path>
<path d="M918.5 386h0"></path>
<rect x="711.5" y="375" width="207" height="22" rx="10" ry="10"></rect>
<text x="815" y="390">"WITH SELECTION-TABLE"</text>
</g>
<path d="M918.5 386h10"></path>
<path d="M928.5 386h10"></path>
<g class="non-terminal ">
<path d="M938.5 386h0"></path>
<path d="M1009.5 386h0"></path>
<rect x="938.5" y="375" width="71" height="22"></rect>
<a xlink:href="#/abap/expression/Source"><text x="974" y="390">Source</text>
</a>
</g>
</g>
<path d="M1266.5 386a10 10 0 0 0 10 -10v-328"></path>
<path d="M444.5 48v367a10 10 0 0 0 10 10"></path>
<g>
<path d="M454.5 425h0"></path>
<path d="M1266.5 425h0"></path>
<path d="M454.5 425h10"></path>
<g>
<path d="M464.5 425h0"></path>
<path d="M1256.5 425h0"></path>
<g class="terminal ">
<path d="M464.5 425h0"></path>
<path d="M535.5 425h0"></path>
<rect x="464.5" y="414" width="71" height="22" rx="10" ry="10"></rect>
<text x="500" y="429">"WITH"</text>
</g>
<path d="M535.5 425h10"></path>
<path d="M545.5 425h10"></path>
<g class="non-terminal ">
<path d="M555.5 425h0"></path>
<path d="M643.5 425h0"></path>
<rect x="555.5" y="414" width="88" height="22"></rect>
<a xlink:href="#/abap/expression/FieldSub"><text x="599.5" y="429">FieldSub</text>
</a>
</g>
<path d="M643.5 425h10"></path>
<g>
<path d="M653.5 425h0"></path>
<path d="M1054.5 425h0"></path>
<path d="M653.5 425h20"></path>
<g>
<path d="M673.5 425h84.5"></path>
<path d="M950 425h84.5"></path>
<g>
<path d="M758 425h0"></path>
<path d="M869 425h0"></path>
<path d="M758 425h20"></path>
<g class="terminal ">
<path d="M778 425h12.75"></path>
<path d="M836.25 425h12.75"></path>
<rect x="790.75" y="414" width="45.5" height="22" rx="10" ry="10"></rect>
<text x="813.5" y="429">"="</text>
</g>
<path d="M849 425h20"></path>
<path d="M758 425a10 10 0 0 1 10 10v10a10 10 0 0 0 10 10"></path>
<g class="terminal ">
<path d="M778 455h8.5"></path>
<path d="M840.5 455h8.5"></path>
<rect x="786.5" y="444" width="54" height="22" rx="10" ry="10"></rect>
<text x="813.5" y="459">"EQ"</text>
</g>
<path d="M849 455a10 10 0 0 0 10 -10v-10a10 10 0 0 1 10 -10"></path>
<path d="M758 425a10 10 0 0 1 10 10v40a10 10 0 0 0 10 10"></path>
<g class="terminal ">
<path d="M778 485h8.5"></path>
<path d="M840.5 485h8.5"></path>
<rect x="786.5" y="474" width="54" height="22" rx="10" ry="10"></rect>
<text x="813.5" y="489">"IN"</text>
</g>
<path d="M849 485a10 10 0 0 0 10 -10v-40a10 10 0 0 1 10 -10"></path>
<path d="M758 425a10 10 0 0 1 10 10v70a10 10 0 0 0 10 10"></path>
<g class="terminal ">
<path d="M778 515h8.5"></path>
<path d="M840.5 515h8.5"></path>
<rect x="786.5" y="504" width="54" height="22" rx="10" ry="10"></rect>
<text x="813.5" y="519">"NE"</text>
</g>
<path d="M849 515a10 10 0 0 0 10 -10v-70a10 10 0 0 1 10 -10"></path>
<path d="M758 425a10 10 0 0 1 10 10v100a10 10 0 0 0 10 10"></path>
<g class="terminal ">
<path d="M778 545h8.5"></path>
<path d="M840.5 545h8.5"></path>
<rect x="786.5" y="534" width="54" height="22" rx="10" ry="10"></rect>
<text x="813.5" y="549">"CP"</text>
</g>
<path d="M849 545a10 10 0 0 0 10 -10v-100a10 10 0 0 1 10 -10"></path>
<path d="M758 425a10 10 0 0 1 10 10v130a10 10 0 0 0 10 10"></path>
<g class="terminal ">
<path d="M778 575h8.5"></path>
<path d="M840.5 575h8.5"></path>
<rect x="786.5" y="564" width="54" height="22" rx="10" ry="10"></rect>
<text x="813.5" y="579">"GE"</text>
</g>
<path d="M849 575a10 10 0 0 0 10 -10v-130a10 10 0 0 1 10 -10"></path>
<path d="M758 425a10 10 0 0 1 10 10v160a10 10 0 0 0 10 10"></path>
<g class="terminal ">
<path d="M778 605h8.5"></path>
<path d="M840.5 605h8.5"></path>
<rect x="786.5" y="594" width="54" height="22" rx="10" ry="10"></rect>
<text x="813.5" y="609">"LE"</text>
</g>
<path d="M849 605a10 10 0 0 0 10 -10v-160a10 10 0 0 1 10 -10"></path>
<path d="M758 425a10 10 0 0 1 10 10v190a10 10 0 0 0 10 10"></path>
<g class="terminal ">
<path d="M778 635h0"></path>
<path d="M849 635h0"></path>
<rect x="778" y="624" width="71" height="22" rx="10" ry="10"></rect>
<text x="813.5" y="639">"INCL"</text>
</g>
<path d="M849 635a10 10 0 0 0 10 -10v-190a10 10 0 0 1 10 -10"></path>
<path d="M758 425a10 10 0 0 1 10 10v220a10 10 0 0 0 10 10"></path>
<g class="terminal ">
<path d="M778 665h8.5"></path>
<path d="M840.5 665h8.5"></path>
<rect x="786.5" y="654" width="54" height="22" rx="10" ry="10"></rect>
<text x="813.5" y="669">"GT"</text>
</g>
<path d="M849 665a10 10 0 0 0 10 -10v-220a10 10 0 0 1 10 -10"></path>
<path d="M758 425a10 10 0 0 1 10 10v250a10 10 0 0 0 10 10"></path>
<g class="terminal ">
<path d="M778 695h8.5"></path>
<path d="M840.5 695h8.5"></path>
<rect x="786.5" y="684" width="54" height="22" rx="10" ry="10"></rect>
<text x="813.5" y="699">"LT"</text>
</g>
<path d="M849 695a10 10 0 0 0 10 -10v-250a10 10 0 0 1 10 -10"></path>
</g>
<path d="M869 425h10"></path>
<g class="non-terminal ">
<path d="M879 425h0"></path>
<path d="M950 425h0"></path>
<rect x="879" y="414" width="71" height="22"></rect>
<a xlink:href="#/abap/expression/Source"><text x="914.5" y="429">Source</text>
</a>
</g>
</g>
<path d="M1034.5 425h20"></path>
<path d="M653.5 425a10 10 0 0 1 10 10v280a10 10 0 0 0 10 10"></path>
<g>
<path d="M673.5 725h0"></path>
<path d="M1034.5 725h0"></path>
<g class="terminal ">
<path d="M673.5 725h0"></path>
<path d="M770 725h0"></path>
<rect x="673.5" y="714" width="96.5" height="22" rx="10" ry="10"></rect>
<text x="721.75" y="729">"BETWEEN"</text>
</g>
<path d="M770 725h10"></path>
<path d="M780 725h10"></path>
<g class="non-terminal ">
<path d="M790 725h0"></path>
<path d="M861 725h0"></path>
<rect x="790" y="714" width="71" height="22"></rect>
<a xlink:href="#/abap/expression/Source"><text x="825.5" y="729">Source</text>
</a>
</g>
<path d="M861 725h10"></path>
<path d="M871 725h10"></path>
<g class="terminal ">
<path d="M881 725h0"></path>
<path d="M943.5 725h0"></path>
<rect x="881" y="714" width="62.5" height="22" rx="10" ry="10"></rect>
<text x="912.25" y="729">"AND"</text>
</g>
<path d="M943.5 725h10"></path>
<path d="M953.5 725h10"></path>
<g class="non-terminal ">
<path d="M963.5 725h0"></path>
<path d="M1034.5 725h0"></path>
<rect x="963.5" y="714" width="71" height="22"></rect>
<a xlink:href="#/abap/expression/Source"><text x="999" y="729">Source</text>
</a>
</g>
</g>
<path d="M1034.5 725a10 10 0 0 0 10 -10v-280a10 10 0 0 1 10 -10"></path>
</g>
<g>
<path d="M1054.5 425h0"></path>
<path d="M1256.5 425h0"></path>
<path d="M1054.5 425a10 10 0 0 0 10 -10v0a10 10 0 0 1 10 -10"></path>
<g>
<path d="M1074.5 405h162"></path>
</g>
<path d="M1236.5 405a10 10 0 0 1 10 10v0a10 10 0 0 0 10 10"></path>
<path d="M1054.5 425h20"></path>
<g>
<path d="M1074.5 425h0"></path>
<path d="M1236.5 425h0"></path>
<g class="terminal ">
<path d="M1074.5 425h0"></path>
<path d="M1145.5 425h0"></path>
<rect x="1074.5" y="414" width="71" height="22" rx="10" ry="10"></rect>
<text x="1110" y="429">"SIGN"</text>
</g>
<path d="M1145.5 425h10"></path>
<path d="M1155.5 425h10"></path>
<g class="non-terminal ">
<path d="M1165.5 425h0"></path>
<path d="M1236.5 425h0"></path>
<rect x="1165.5" y="414" width="71" height="22"></rect>
<a xlink:href="#/abap/expression/Source"><text x="1201" y="429">Source</text>
</a>
</g>
</g>
<path d="M1236.5 425h20"></path>
</g>
</g>
<path d="M1256.5 425h10"></path>
<path d="M464.5 425a10 10 0 0 0 -10 10v299a10 10 0 0 0 10 10"></path>
<g>
<path d="M464.5 744h792"></path>
</g>
<path d="M1256.5 744a10 10 0 0 0 10 -10v-299a10 10 0 0 0 -10 -10"></path>
</g>
<path d="M1266.5 425a10 10 0 0 0 10 -10v-367"></path>
<path d="M444.5 48v714a10 10 0 0 0 10 10"></path>
<g>
<path d="M454.5 772h0"></path>
<path d="M1266.5 772h0"></path>
<path d="M454.5 772h10"></path>
<g>
<path d="M464.5 772h0"></path>
<path d="M1256.5 772h0"></path>
<g class="terminal ">
<path d="M464.5 772h0"></path>
<path d="M535.5 772h0"></path>
<rect x="464.5" y="761" width="71" height="22" rx="10" ry="10"></rect>
<text x="500" y="776">"WITH"</text>
</g>
<path d="M535.5 772h10"></path>
<path d="M545.5 772h10"></path>
<g class="non-terminal ">
<path d="M555.5 772h0"></path>
<path d="M643.5 772h0"></path>
<rect x="555.5" y="761" width="88" height="22"></rect>
<a xlink:href="#/abap/expression/FieldSub"><text x="599.5" y="776">FieldSub</text>
</a>
</g>
<path d="M643.5 772h10"></path>
<g>
<path d="M653.5 772h0"></path>
<path d="M1054.5 772h0"></path>
<path d="M653.5 772h20"></path>
<g>
<path d="M673.5 772h84.5"></path>
<path d="M950 772h84.5"></path>
<g>
<path d="M758 772h0"></path>
<path d="M869 772h0"></path>
<path d="M758 772h20"></path>
<g class="terminal ">
<path d="M778 772h12.75"></path>
<path d="M836.25 772h12.75"></path>
<rect x="790.75" y="761" width="45.5" height="22" rx="10" ry="10"></rect>
<text x="813.5" y="776">"="</text>
</g>
<path d="M849 772h20"></path>
<path d="M758 772a10 10 0 0 1 10 10v10a10 10 0 0 0 10 10"></path>
<g class="terminal ">
<path d="M778 802h8.5"></path>
<path d="M840.5 802h8.5"></path>
<rect x="786.5" y="791" width="54" height="22" rx="10" ry="10"></rect>
<text x="813.5" y="806">"EQ"</text>
</g>
<path d="M849 802a10 10 0 0 0 10 -10v-10a10 10 0 0 1 10 -10"></path>
<path d="M758 772a10 10 0 0 1 10 10v40a10 10 0 0 0 10 10"></path>
<g class="terminal ">
<path d="M778 832h8.5"></path>
<path d="M840.5 832h8.5"></path>
<rect x="786.5" y="821" width="54" height="22" rx="10" ry="10"></rect>
<text x="813.5" y="836">"IN"</text>
</g>
<path d="M849 832a10 10 0 0 0 10 -10v-40a10 10 0 0 1 10 -10"></path>
<path d="M758 772a10 10 0 0 1 10 10v70a10 10 0 0 0 10 10"></path>
<g class="terminal ">
<path d="M778 862h8.5"></path>
<path d="M840.5 862h8.5"></path>
<rect x="786.5" y="851" width="54" height="22" rx="10" ry="10"></rect>
<text x="813.5" y="866">"NE"</text>
</g>
<path d="M849 862a10 10 0 0 0 10 -10v-70a10 10 0 0 1 10 -10"></path>
<path d="M758 772a10 10 0 0 1 10 10v100a10 10 0 0 0 10 10"></path>
<g class="terminal ">
<path d="M778 892h8.5"></path>
<path d="M840.5 892h8.5"></path>
<rect x="786.5" y="881" width="54" height="22" rx="10" ry="10"></rect>
<text x="813.5" y="896">"CP"</text>
</g>
<path d="M849 892a10 10 0 0 0 10 -10v-100a10 10 0 0 1 10 -10"></path>
<path d="M758 772a10 10 0 0 1 10 10v130a10 10 0 0 0 10 10"></path>
<g class="terminal ">
<path d="M778 922h8.5"></path>
<path d="M840.5 922h8.5"></path>
<rect x="786.5" y="911" width="54" height="22" rx="10" ry="10"></rect>
<text x="813.5" y="926">"GE"</text>
</g>
<path d="M849 922a10 10 0 0 0 10 -10v-130a10 10 0 0 1 10 -10"></path>
<path d="M758 772a10 10 0 0 1 10 10v160a10 10 0 0 0 10 10"></path>
<g class="terminal ">
<path d="M778 952h8.5"></path>
<path d="M840.5 952h8.5"></path>
<rect x="786.5" y="941" width="54" height="22" rx="10" ry="10"></rect>
<text x="813.5" y="956">"LE"</text>
</g>
<path d="M849 952a10 10 0 0 0 10 -10v-160a10 10 0 0 1 10 -10"></path>
<path d="M758 772a10 10 0 0 1 10 10v190a10 10 0 0 0 10 10"></path>
<g class="terminal ">
<path d="M778 982h0"></path>
<path d="M849 982h0"></path>
<rect x="778" y="971" width="71" height="22" rx="10" ry="10"></rect>
<text x="813.5" y="986">"INCL"</text>
</g>
<path d="M849 982a10 10 0 0 0 10 -10v-190a10 10 0 0 1 10 -10"></path>
<path d="M758 772a10 10 0 0 1 10 10v220a10 10 0 0 0 10 10"></path>
<g class="terminal ">
<path d="M778 1012h8.5"></path>
<path d="M840.5 1012h8.5"></path>
<rect x="786.5" y="1001" width="54" height="22" rx="10" ry="10"></rect>
<text x="813.5" y="1016">"GT"</text>
</g>
<path d="M849 1012a10 10 0 0 0 10 -10v-220a10 10 0 0 1 10 -10"></path>
<path d="M758 772a10 10 0 0 1 10 10v250a10 10 0 0 0 10 10"></path>
<g class="terminal ">
<path d="M778 1042h8.5"></path>
<path d="M840.5 1042h8.5"></path>
<rect x="786.5" y="1031" width="54" height="22" rx="10" ry="10"></rect>
<text x="813.5" y="1046">"LT"</text>
</g>
<path d="M849 1042a10 10 0 0 0 10 -10v-250a10 10 0 0 1 10 -10"></path>
</g>
<path d="M869 772h10"></path>
<g class="non-terminal ">
<path d="M879 772h0"></path>
<path d="M950 772h0"></path>
<rect x="879" y="761" width="71" height="22"></rect>
<a xlink:href="#/abap/expression/Source"><text x="914.5" y="776">Source</text>
</a>
</g>
</g>
<path d="M1034.5 772h20"></path>
<path d="M653.5 772a10 10 0 0 1 10 10v280a10 10 0 0 0 10 10"></path>
<g>
<path d="M673.5 1072h0"></path>
<path d="M1034.5 1072h0"></path>
<g class="terminal ">
<path d="M673.5 1072h0"></path>
<path d="M770 1072h0"></path>
<rect x="673.5" y="1061" width="96.5" height="22" rx="10" ry="10"></rect>
<text x="721.75" y="1076">"BETWEEN"</text>
</g>
<path d="M770 1072h10"></path>
<path d="M780 1072h10"></path>
<g class="non-terminal ">
<path d="M790 1072h0"></path>
<path d="M861 1072h0"></path>
<rect x="790" y="1061" width="71" height="22"></rect>
<a xlink:href="#/abap/expression/Source"><text x="825.5" y="1076">Source</text>
</a>
</g>
<path d="M861 1072h10"></path>
<path d="M871 1072h10"></path>
<g class="terminal ">
<path d="M881 1072h0"></path>
<path d="M943.5 1072h0"></path>
<rect x="881" y="1061" width="62.5" height="22" rx="10" ry="10"></rect>
<text x="912.25" y="1076">"AND"</text>
</g>
<path d="M943.5 1072h10"></path>
<path d="M953.5 1072h10"></path>
<g class="non-terminal ">
<path d="M963.5 1072h0"></path>
<path d="M1034.5 1072h0"></path>
<rect x="963.5" y="1061" width="71" height="22"></rect>
<a xlink:href="#/abap/expression/Source"><text x="999" y="1076">Source</text>
</a>
</g>
</g>
<path d="M1034.5 1072a10 10 0 0 0 10 -10v-280a10 10 0 0 1 10 -10"></path>
</g>
<g>
<path d="M1054.5 772h0"></path>
<path d="M1256.5 772h0"></path>
<path d="M1054.5 772a10 10 0 0 0 10 -10v0a10 10 0 0 1 10 -10"></path>
<g>
<path d="M1074.5 752h162"></path>
</g>
<path d="M1236.5 752a10 10 0 0 1 10 10v0a10 10 0 0 0 10 10"></path>
<path d="M1054.5 772h20"></path>
<g>
<path d="M1074.5 772h0"></path>
<path d="M1236.5 772h0"></path>
<g class="terminal ">
<path d="M1074.5 772h0"></path>
<path d="M1145.5 772h0"></path>
<rect x="1074.5" y="761" width="71" height="22" rx="10" ry="10"></rect>
<text x="1110" y="776">"SIGN"</text>
</g>
<path d="M1145.5 772h10"></path>
<path d="M1155.5 772h10"></path>
<g class="non-terminal ">
<path d="M1165.5 772h0"></path>
<path d="M1236.5 772h0"></path>
<rect x="1165.5" y="761" width="71" height="22"></rect>
<a xlink:href="#/abap/expression/Source"><text x="1201" y="776">Source</text>
</a>
</g>
</g>
<path d="M1236.5 772h20"></path>
</g>
</g>
<path d="M1256.5 772h10"></path>
<path d="M464.5 772a10 10 0 0 0 -10 10v299a10 10 0 0 0 10 10"></path>
<g>
<path d="M464.5 1091h792"></path>
</g>
<path d="M1256.5 1091a10 10 0 0 0 10 -10v-299a10 10 0 0 0 -10 -10"></path>
</g>
<path d="M1266.5 772a10 10 0 0 0 10 -10v-714"></path>
<path d="M444.5 48v1052a10 10 0 0 0 10 10"></path>
<g>
<path d="M454.5 1110h274"></path>
<path d="M992.5 1110h274"></path>
<g class="terminal ">
<path d="M728.5 1110h0"></path>
<path d="M901.5 1110h0"></path>
<rect x="728.5" y="1099" width="173" height="22" rx="10" ry="10"></rect>
<text x="815" y="1114">"SPOOL PARAMETERS"</text>
</g>
<path d="M901.5 1110h10"></path>
<path d="M911.5 1110h10"></path>
<g class="non-terminal ">
<path d="M921.5 1110h0"></path>
<path d="M992.5 1110h0"></path>
<rect x="921.5" y="1099" width="71" height="22"></rect>
<a xlink:href="#/abap/expression/Source"><text x="957" y="1114">Source</text>
</a>
</g>
</g>
<path d="M1266.5 1110a10 10 0 0 0 10 -10v-1052"></path>
<path d="M444.5 48v1082a10 10 0 0 0 10 10"></path>
<g>
<path d="M454.5 1140h303.75"></path>
<path d="M962.75 1140h303.75"></path>
<g class="terminal ">
<path d="M758.25 1140h0"></path>
<path d="M871.75 1140h0"></path>
<rect x="758.25" y="1129" width="113.5" height="22" rx="10" ry="10"></rect>
<text x="815" y="1144">"LINE-SIZE"</text>
</g>
<path d="M871.75 1140h10"></path>
<path d="M881.75 1140h10"></path>
<g class="non-terminal ">
<path d="M891.75 1140h0"></path>
<path d="M962.75 1140h0"></path>
<rect x="891.75" y="1129" width="71" height="22"></rect>
<a xlink:href="#/abap/expression/Source"><text x="927.25" y="1144">Source</text>
</a>
</g>
</g>
<path d="M1266.5 1140a10 10 0 0 0 10 -10v-1082"></path>
<path d="M444.5 48v1112a10 10 0 0 0 10 10"></path>
<g>
<path d="M454.5 1170h299.5"></path>
<path d="M967 1170h299.5"></path>
<g class="terminal ">
<path d="M754 1170h0"></path>
<path d="M876 1170h0"></path>
<rect x="754" y="1159" width="122" height="22" rx="10" ry="10"></rect>
<text x="815" y="1174">"LINE-COUNT"</text>
</g>
<path d="M876 1170h10"></path>
<path d="M886 1170h10"></path>
<g class="non-terminal ">
<path d="M896 1170h0"></path>
<path d="M967 1170h0"></path>
<rect x="896" y="1159" width="71" height="22"></rect>
<a xlink:href="#/abap/expression/Source"><text x="931.5" y="1174">Source</text>
</a>
</g>
</g>
<path d="M1266.5 1170a10 10 0 0 0 10 -10v-1112"></path>
<path d="M444.5 48v1142a10 10 0 0 0 10 10"></path>
<g>
<path d="M454.5 1200h265.5"></path>
<path d="M1001 1200h265.5"></path>
<g class="terminal ">
<path d="M720 1200h0"></path>
<path d="M910 1200h0"></path>
<rect x="720" y="1189" width="190" height="22" rx="10" ry="10"></rect>
<text x="815" y="1204">"ARCHIVE PARAMETERS"</text>
</g>
<path d="M910 1200h10"></path>
<path d="M920 1200h10"></path>
<g class="non-terminal ">
<path d="M930 1200h0"></path>
<path d="M1001 1200h0"></path>
<rect x="930" y="1189" width="71" height="22"></rect>
<a xlink:href="#/abap/expression/Source"><text x="965.5" y="1204">Source</text>
</a>
</g>
</g>
<path d="M1266.5 1200a10 10 0 0 0 10 -10v-1142"></path>
<path d="M444.5 48v1172a10 10 0 0 0 10 10"></path>
<g>
<path d="M454.5 1230h291"></path>
<path d="M975.5 1230h291"></path>
<g class="terminal ">
<path d="M745.5 1230h0"></path>
<path d="M884.5 1230h0"></path>
<rect x="745.5" y="1219" width="139" height="22" rx="10" ry="10"></rect>
<text x="815" y="1234">"ARCHIVE MODE"</text>
</g>
<path d="M884.5 1230h10"></path>
<path d="M894.5 1230h10"></path>
<g class="non-terminal ">
<path d="M904.5 1230h0"></path>
<path d="M975.5 1230h0"></path>
<rect x="904.5" y="1219" width="71" height="22"></rect>
<a xlink:href="#/abap/expression/Source"><text x="940" y="1234">Source</text>
</a>
</g>
</g>
<path d="M1266.5 1230a10 10 0 0 0 10 -10v-1172"></path>
<path d="M444.5 48v1202a10 10 0 0 0 10 10"></path>
<g>
<path d="M454.5 1260h308"></path>
<path d="M958.5 1260h308"></path>
<g class="terminal ">
<path d="M762.5 1260h0"></path>
<path d="M867.5 1260h0"></path>
<rect x="762.5" y="1249" width="105" height="22" rx="10" ry="10"></rect>
<text x="815" y="1264">"RECEIVER"</text>
</g>
<path d="M867.5 1260h10"></path>
<path d="M877.5 1260h10"></path>
<g class="non-terminal ">
<path d="M887.5 1260h0"></path>
<path d="M958.5 1260h0"></path>
<rect x="887.5" y="1249" width="71" height="22"></rect>
<a xlink:href="#/abap/expression/Source"><text x="923" y="1264">Source</text>
</a>
</g>
</g>
<path d="M1266.5 1260a10 10 0 0 0 10 -10v-1202"></path>
<path d="M444.5 48v1232a10 10 0 0 0 10 10"></path>
<g>
<path d="M454.5 1290h325"></path>
<path d="M941.5 1290h325"></path>
<g class="terminal ">
<path d="M779.5 1290h0"></path>
<path d="M850.5 1290h0"></path>
<rect x="779.5" y="1279" width="71" height="22" rx="10" ry="10"></rect>
<text x="815" y="1294">"USER"</text>
</g>
<path d="M850.5 1290h10"></path>
<path d="M860.5 1290h10"></path>
<g class="non-terminal ">
<path d="M870.5 1290h0"></path>
<path d="M941.5 1290h0"></path>
<rect x="870.5" y="1279" width="71" height="22"></rect>
<a xlink:href="#/abap/expression/Source"><text x="906" y="1294">Source</text>
</a>
</g>
</g>
<path d="M1266.5 1290a10 10 0 0 0 10 -10v-1232"></path>
<path d="M444.5 48v1262a10 10 0 0 0 10 10"></path>
<g>
<path d="M454.5 1320h261.25"></path>
<path d="M1005.25 1320h261.25"></path>
<g class="terminal ">
<path d="M715.75 1320h0"></path>
<path d="M914.25 1320h0"></path>
<rect x="715.75" y="1309" width="198.5" height="22" rx="10" ry="10"></rect>
<text x="815" y="1324">"USING SELECTION-SET"</text>
</g>
<path d="M914.25 1320h10"></path>
<path d="M924.25 1320h10"></path>
<g class="non-terminal ">
<path d="M934.25 1320h0"></path>
<path d="M1005.25 1320h0"></path>
<rect x="934.25" y="1309" width="71" height="22"></rect>
<a xlink:href="#/abap/expression/Source"><text x="969.75" y="1324">Source</text>
</a>
</g>
</g>
<path d="M1266.5 1320a10 10 0 0 0 10 -10v-1262"></path>
<path d="M444.5 48v1292a10 10 0 0 0 10 10"></path>
<g>
<path d="M454.5 1350h210.25"></path>
<path d="M1056.25 1350h210.25"></path>
<g class="terminal ">
<path d="M664.75 1350h0"></path>
<path d="M965.25 1350h0"></path>
<rect x="664.75" y="1339" width="300.5" height="22" rx="10" ry="10"></rect>
<text x="815" y="1354">"USING SELECTION-SETS OF PROGRAM"</text>
</g>
<path d="M965.25 1350h10"></path>
<path d="M975.25 1350h10"></path>
<g class="non-terminal ">
<path d="M985.25 1350h0"></path>
<path d="M1056.25 1350h0"></path>
<rect x="985.25" y="1339" width="71" height="22"></rect>
<a xlink:href="#/abap/expression/Source"><text x="1020.75" y="1354">Source</text>
</a>
</g>
</g>
<path d="M1266.5 1350a10 10 0 0 0 10 -10v-1292"></path>
<path d="M444.5 48v1322a10 10 0 0 0 10 10"></path>
<g>
<path d="M454.5 1380h286.75"></path>
<path d="M979.75 1380h286.75"></path>
<g class="terminal ">
<path d="M741.25 1380h0"></path>
<path d="M888.75 1380h0"></path>
<rect x="741.25" y="1369" width="147.5" height="22" rx="10" ry="10"></rect>
<text x="815" y="1384">"KEEP IN SPOOL"</text>
</g>
<path d="M888.75 1380h10"></path>
<path d="M898.75 1380h10"></path>
<g class="non-terminal ">
<path d="M908.75 1380h0"></path>
<path d="M979.75 1380h0"></path>
<rect x="908.75" y="1369" width="71" height="22"></rect>
<a xlink:href="#/abap/expression/Source"><text x="944.25" y="1384">Source</text>
</a>
</g>
</g>
<path d="M1266.5 1380a10 10 0 0 0 10 -10v-1322"></path>
<path d="M444.5 48v1352a10 10 0 0 0 10 10"></path>
<g>
<path d="M454.5 1410h282.5"></path>
<path d="M984 1410h282.5"></path>
<g class="terminal ">
<path d="M737 1410h0"></path>
<path d="M893 1410h0"></path>
<rect x="737" y="1399" width="156" height="22" rx="10" ry="10"></rect>
<text x="815" y="1414">"SAP COVER PAGE"</text>
</g>
<path d="M893 1410h10"></path>
<path d="M903 1410h10"></path>
<g class="non-terminal ">
<path d="M913 1410h0"></path>
<path d="M984 1410h0"></path>
<rect x="913" y="1399" width="71" height="22"></rect>
<a xlink:href="#/abap/expression/Source"><text x="948.5" y="1414">Source</text>
</a>
</g>
</g>
<path d="M1266.5 1410a10 10 0 0 0 10 -10v-1352"></path>
<path d="M444.5 48v1382a10 10 0 0 0 10 10"></path>
<g>
<path d="M454.5 1440h295.25"></path>
<path d="M971.25 1440h295.25"></path>
<g class="terminal ">
<path d="M749.75 1440h0"></path>
<path d="M880.25 1440h0"></path>
<rect x="749.75" y="1429" width="130.5" height="22" rx="10" ry="10"></rect>
<text x="815" y="1444">"IMMEDIATELY"</text>
</g>
<path d="M880.25 1440h10"></path>
<path d="M890.25 1440h10"></path>
<g class="non-terminal ">
<path d="M900.25 1440h0"></path>
<path d="M971.25 1440h0"></path>
<rect x="900.25" y="1429" width="71" height="22"></rect>
<a xlink:href="#/abap/expression/Source"><text x="935.75" y="1444">Source</text>
</a>
</g>
</g>
<path d="M1266.5 1440a10 10 0 0 0 10 -10v-1382"></path>
<path d="M444.5 48v1412a10 10 0 0 0 10 10"></path>
<g>
<path d="M454.5 1470h316.5"></path>
<path d="M950 1470h316.5"></path>
<g class="terminal ">
<path d="M771 1470h0"></path>
<path d="M859 1470h0"></path>
<rect x="771" y="1459" width="88" height="22" rx="10" ry="10"></rect>
<text x="815" y="1474">"LAYOUT"</text>
</g>
<path d="M859 1470h10"></path>
<path d="M869 1470h10"></path>
<g class="non-terminal ">
<path d="M879 1470h0"></path>
<path d="M950 1470h0"></path>
<rect x="879" y="1459" width="71" height="22"></rect>
<a xlink:href="#/abap/expression/Source"><text x="914.5" y="1474">Source</text>
</a>
</g>
</g>
<path d="M1266.5 1470a10 10 0 0 0 10 -10v-1412"></path>
<path d="M444.5 48v1442a10 10 0 0 0 10 10"></path>
<g>
<path d="M454.5 1500h295.25"></path>
<path d="M971.25 1500h295.25"></path>
<g class="terminal ">
<path d="M749.75 1500h0"></path>
<path d="M880.25 1500h0"></path>
<rect x="749.75" y="1489" width="130.5" height="22" rx="10" ry="10"></rect>
<text x="815" y="1504">"DESTINATION"</text>
</g>
<path d="M880.25 1500h10"></path>
<path d="M890.25 1500h10"></path>
<g class="non-terminal ">
<path d="M900.25 1500h0"></path>
<path d="M971.25 1500h0"></path>
<rect x="900.25" y="1489" width="71" height="22"></rect>
<a xlink:href="#/abap/expression/Source"><text x="935.75" y="1504">Source</text>
</a>
</g>
</g>
<path d="M1266.5 1500a10 10 0 0 0 10 -10v-1442"></path>
<path d="M444.5 48v1472a10 10 0 0 0 10 10"></path>
<g>
<path d="M454.5 1530h299.5"></path>
<path d="M967 1530h299.5"></path>
<g class="terminal ">
<path d="M754 1530h0"></path>
<path d="M876 1530h0"></path>
<rect x="754" y="1519" width="122" height="22" rx="10" ry="10"></rect>
<text x="815" y="1534">"COVER TEXT"</text>
</g>
<path d="M876 1530h10"></path>
<path d="M886 1530h10"></path>
<g class="non-terminal ">
<path d="M896 1530h0"></path>
<path d="M967 1530h0"></path>
<rect x="896" y="1519" width="71" height="22"></rect>
<a xlink:href="#/abap/expression/Source"><text x="931.5" y="1534">Source</text>
</a>
</g>
</g>
<path d="M1266.5 1530a10 10 0 0 0 10 -10v-1472"></path>
<path d="M444.5 48v1502a10 10 0 0 0 10 10"></path>
<g>
<path d="M454.5 1560h303.75"></path>
<path d="M962.75 1560h303.75"></path>
<g class="terminal ">
<path d="M758.25 1560h0"></path>
<path d="M871.75 1560h0"></path>
<rect x="758.25" y="1549" width="113.5" height="22" rx="10" ry="10"></rect>
<text x="815" y="1564">"LIST NAME"</text>
</g>
<path d="M871.75 1560h10"></path>
<path d="M881.75 1560h10"></path>
<g class="non-terminal ">
<path d="M891.75 1560h0"></path>
<path d="M962.75 1560h0"></path>
<rect x="891.75" y="1549" width="71" height="22"></rect>
<a xlink:href="#/abap/expression/Source"><text x="927.25" y="1564">Source</text>
</a>
</g>
</g>
<path d="M1266.5 1560a10 10 0 0 0 10 -10v-1502"></path>
<path d="M444.5 48v1532a10 10 0 0 0 10 10"></path>
<g>
<path d="M454.5 1590h308"></path>
<path d="M958.5 1590h308"></path>
<g class="terminal ">
<path d="M762.5 1590h0"></path>
<path d="M867.5 1590h0"></path>
<rect x="762.5" y="1579" width="105" height="22" rx="10" ry="10"></rect>
<text x="815" y="1594">"LANGUAGE"</text>
</g>
<path d="M867.5 1590h10"></path>
<path d="M877.5 1590h10"></path>
<g class="non-terminal ">
<path d="M887.5 1590h0"></path>
<path d="M958.5 1590h0"></path>
<rect x="887.5" y="1579" width="71" height="22"></rect>
<a xlink:href="#/abap/expression/Source"><text x="923" y="1594">Source</text>
</a>
</g>
</g>
<path d="M1266.5 1590a10 10 0 0 0 10 -10v-1532"></path>
<path d="M444.5 48v1562a10 10 0 0 0 10 10"></path>
<g>
<path d="M454.5 1620h257"></path>
<path d="M1009.5 1620h257"></path>
<g class="terminal ">
<path d="M711.5 1620h0"></path>
<path d="M918.5 1620h0"></path>
<rect x="711.5" y="1609" width="207" height="22" rx="10" ry="10"></rect>
<text x="815" y="1624">"WITH FREE SELECTIONS"</text>
</g>
<path d="M918.5 1620h10"></path>
<path d="M928.5 1620h10"></path>
<g class="non-terminal ">
<path d="M938.5 1620h0"></path>
<path d="M1009.5 1620h0"></path>
<rect x="938.5" y="1609" width="71" height="22"></rect>
<a xlink:href="#/abap/expression/Source"><text x="974" y="1624">Source</text>
</a>
</g>
</g>
<path d="M1266.5 1620a10 10 0 0 0 10 -10v-1562"></path>
<path d="M444.5 48v1592a10 10 0 0 0 10 10"></path>
<g>
<path d="M454.5 1650h244.25"></path>
<path d="M1022.25 1650h244.25"></path>
<g class="terminal ">
<path d="M698.75 1650h0"></path>
<path d="M931.25 1650h0"></path>
<rect x="698.75" y="1639" width="232.5" height="22" rx="10" ry="10"></rect>
<text x="815" y="1654">"NEW LIST IDENTIFICATION"</text>
</g>
<path d="M931.25 1650h10"></path>
<path d="M941.25 1650h10"></path>
<g class="non-terminal ">
<path d="M951.25 1650h0"></path>
<path d="M1022.25 1650h0"></path>
<rect x="951.25" y="1639" width="71" height="22"></rect>
<a xlink:href="#/abap/expression/Source"><text x="986.75" y="1654">Source</text>
</a>
</g>
</g>
<path d="M1266.5 1650a10 10 0 0 0 10 -10v-1592"></path>
<path d="M444.5 48v1622a10 10 0 0 0 10 10"></path>
<g>
<path d="M454.5 1680h248.5"></path>
<path d="M1018 1680h248.5"></path>
<g class="terminal ">
<path d="M703 1680h0"></path>
<path d="M927 1680h0"></path>
<rect x="703" y="1669" width="224" height="22" rx="10" ry="10"></rect>
<text x="815" y="1684">"USING SELECTION-SCREEN"</text>
</g>
<path d="M927 1680h10"></path>
<path d="M937 1680h10"></path>
<g class="non-terminal ">
<path d="M947 1680h0"></path>
<path d="M1018 1680h0"></path>
<rect x="947" y="1669" width="71" height="22"></rect>
<a xlink:href="#/abap/expression/Source"><text x="982.5" y="1684">Source</text>
</a>
</g>
</g>
<path d="M1266.5 1680a10 10 0 0 0 10 -10v-1622"></path>
<path d="M444.5 48v1652a10 10 0 0 0 10 10"></path>
<g>
<path d="M454.5 1710h316.5"></path>
<path d="M950 1710h316.5"></path>
<g class="terminal ">
<path d="M771 1710h0"></path>
<path d="M859 1710h0"></path>
<rect x="771" y="1699" width="88" height="22" rx="10" ry="10"></rect>
<text x="815" y="1714">"COPIES"</text>
</g>
<path d="M859 1710h10"></path>
<path d="M869 1710h10"></path>
<g class="non-terminal ">
<path d="M879 1710h0"></path>
<path d="M950 1710h0"></path>
<rect x="879" y="1699" width="71" height="22"></rect>
<a xlink:href="#/abap/expression/Source"><text x="914.5" y="1714">Source</text>
</a>
</g>
</g>
<path d="M1266.5 1710a10 10 0 0 0 10 -10v-1652"></path>
<path d="M444.5 48v1682a10 10 0 0 0 10 10"></path>
<g>
<path d="M454.5 1740h265.5"></path>
<path d="M1001 1740h265.5"></path>
<g class="terminal ">
<path d="M720 1740h0"></path>
<path d="M910 1740h0"></path>
<rect x="720" y="1729" width="190" height="22" rx="10" ry="10"></rect>
<text x="815" y="1744">"DATASET EXPIRATION"</text>
</g>
<path d="M910 1740h10"></path>
<path d="M920 1740h10"></path>
<g class="non-terminal ">
<path d="M930 1740h0"></path>
<path d="M1001 1740h0"></path>
<rect x="930" y="1729" width="71" height="22"></rect>
<a xlink:href="#/abap/expression/Source"><text x="965.5" y="1744">Source</text>
</a>
</g>
</g>
<path d="M1266.5 1740a10 10 0 0 0 10 -10v-1682"></path>
<path d="M444.5 48v1712a10 10 0 0 0 10 10"></path>
<g class="terminal ">
<path d="M454.5 1770h336.5"></path>
<path d="M930 1770h336.5"></path>
<rect x="791" y="1759" width="139" height="22" rx="10" ry="10"></rect>
<text x="860.5" y="1774">"TO SAP-SPOOL"</text>
</g>
<path d="M1266.5 1770a10 10 0 0 0 10 -10v-1712"></path>
<path d="M444.5 48v1742a10 10 0 0 0 10 10"></path>
<g class="terminal ">
<path d="M454.5 1800h302.5"></path>
<path d="M964 1800h302.5"></path>
<rect x="757" y="1789" width="207" height="22" rx="10" ry="10"></rect>
<text x="860.5" y="1804">"WITHOUT SPOOL DYNPRO"</text>
</g>
<path d="M1266.5 1800a10 10 0 0 0 10 -10v-1742"></path>
<path d="M444.5 48v1772a10 10 0 0 0 10 10"></path>
<g class="terminal ">
<path d="M454.5 1830h302.5"></path>
<path d="M964 1830h302.5"></path>
<rect x="757" y="1819" width="207" height="22" rx="10" ry="10"></rect>
<text x="860.5" y="1834">"VIA SELECTION-SCREEN"</text>
</g>
<path d="M1266.5 1830a10 10 0 0 0 10 -10v-1772"></path>
<path d="M444.5 48v1802a10 10 0 0 0 10 10"></path>
<g class="terminal ">
<path d="M454.5 1860h285.5"></path>
<path d="M981 1860h285.5"></path>
<rect x="740" y="1849" width="241" height="22" rx="10" ry="10"></rect>
<text x="860.5" y="1864">"EXPORTING LIST TO MEMORY"</text>
</g>
<path d="M1266.5 1860a10 10 0 0 0 10 -10v-1802"></path>
<path d="M444.5 48v1832a10 10 0 0 0 10 10"></path>
<g class="non-terminal ">
<path d="M454.5 1890h357.75"></path>
<path d="M908.75 1890h357.75"></path>
<rect x="812.25" y="1879" width="96.5" height="22"></rect>
<a xlink:href="#/abap/expression/AndReturn"><text x="860.5" y="1894">AndReturn</text>
</a>
</g>
<path d="M1266.5 1890a10 10 0 0 0 10 -10v-1832"></path>
<path d="M444.5 48v1862a10 10 0 0 0 10 10"></path>
<g>
<path d="M454.5 1920h212.75"></path>
<path d="M1053.75 1920h212.75"></path>
<g class="terminal ">
<path d="M667.25 1920h0"></path>
<path d="M763.75 1920h0"></path>
<rect x="667.25" y="1909" width="96.5" height="22" rx="10" ry="10"></rect>
<text x="715.5" y="1924">"VIA JOB"</text>
</g>
<path d="M763.75 1920h10"></path>
<path d="M773.75 1920h10"></path>
<g class="non-terminal ">
<path d="M783.75 1920h0"></path>
<path d="M854.75 1920h0"></path>
<rect x="783.75" y="1909" width="71" height="22"></rect>
<a xlink:href="#/abap/expression/Source"><text x="819.25" y="1924">Source</text>
</a>
</g>
<path d="M854.75 1920h10"></path>
<path d="M864.75 1920h10"></path>
<g class="terminal ">
<path d="M874.75 1920h0"></path>
<path d="M962.75 1920h0"></path>
<rect x="874.75" y="1909" width="88" height="22" rx="10" ry="10"></rect>
<text x="918.75" y="1924">"NUMBER"</text>
</g>
<path d="M962.75 1920h10"></path>
<path d="M972.75 1920h10"></path>
<g class="non-terminal ">
<path d="M982.75 1920h0"></path>
<path d="M1053.75 1920h0"></path>
<rect x="982.75" y="1909" width="71" height="22"></rect>
<a xlink:href="#/abap/expression/Source"><text x="1018.25" y="1924">Source</text>
</a>
</g>
</g>
<path d="M1266.5 1920a10 10 0 0 0 10 -10v-1862"></path>
<g class="diagram-text">
<title>take one or more branches, once each, in any order</title>
<path d="M 444.5 38 h -26 a 4 4 0 0 0 -4 4 v 12 a 4 4 0 0 0 4 4 h 26 z" class="diagram-text"></path>
<text x="429.5" y="52" class="diagram-text">1+</text>
<path d="M 1276.5 38 h 16 a 4 4 0 0 1 4 4 v 12 a 4 4 0 0 1 -4 4 h -16 z" class="diagram-text"></path>
<path d="M 1283.5 46 a 4 4 0 1 0 6 -1 m 2.75 -1 h -4 v 4 m 0 -3 h 2" style="stroke-width: 1.75"></path>
</g>
</g>
<path d="M1296.5 48h20"></path>
</g>
</g>
</g>
<path d="M1316.5 48h10"></path>
<path d="M 1326.5 48 h 20 m -10 -10 v 20 m 10 -20 v 20"></path>
</g>
</svg>
