<svg xmlns="http://www.w3.org/2000/svg" xmlns:xlink="http://www.w3.org/1999/xlink" class="railroad-diagram" width="1397.5" height="109" viewBox="0 0 1397.5 109">
<defs>
<style type="text/css"><![CDATA[
path {
stroke-width: 3;
stroke: black;
fill: rgba(0,0,0,0);
}
text {
font: bold 14px monospace;
text-anchor: middle;
}
text.diagram-text {
font-size: 12px;
}
a {
fill: blue;
}
text.diagram-arrow {
font-size: 16px;
}
text.label {
text-anchor: start;
}
text.comment {
font: italic 12px monospace;
}
rect {
stroke-width: 3;
stroke: black;
fill: #BCBCBC;
}
path.diagram-text {
stroke-width: 3;
stroke: black;
fill: #BCBCBC;
cursor: help;
}
]]></style>
</defs>
<g transform="translate(.5 .5)">
<g>
<path d="M20 38v20m10 -20v20m-10 -10h20"></path>
</g>
<path d="M40 48h10"></path>
<g>
<path d="M50 48h0"></path>
<path d="M1347.5 48h0"></path>
<g>
<path d="M50 48h0"></path>
<path d="M123 48h0"></path>
<text x="86.5" y="53" class="comment">not Cloud</text>
</g>
<path d="M123 48h10"></path>
<path d="M133 48h10"></path>
<g>
<path d="M143 48h0"></path>
<path d="M1347.5 48h0"></path>
<g class="terminal">
<path d="M143 48h0"></path>
<path d="M273.5 48h0"></path>
<rect x="143" y="37" width="130.5" height="22" rx="10" ry="10"></rect>
<text x="208.25" y="52">"CALL DIALOG"</text>
</g>
<path d="M273.5 48h10"></path>
<g>
<path d="M283.5 48h0"></path>
<path d="M411.5 48h0"></path>
<path d="M283.5 48h20"></path>
<g class="non-terminal">
<path d="M303.5 48h0"></path>
<path d="M391.5 48h0"></path>
<rect x="303.5" y="37" width="88" height="22"></rect>
<a xlink:href="#/abap/expression/Constant"><text x="347.5" y="52">Constant</text>
</a>
</g>
<path d="M391.5 48h20"></path>
<path d="M283.5 48a10 10 0 0 1 10 10v10a10 10 0 0 0 10 10"></path>
<g class="non-terminal">
<path d="M303.5 78h0"></path>
<path d="M391.5 78h0"></path>
<rect x="303.5" y="67" width="88" height="22"></rect>
<a xlink:href="#/abap/expression/FieldSub"><text x="347.5" y="82">FieldSub</text>
</a>
</g>
<path d="M391.5 78a10 10 0 0 0 10 -10v-10a10 10 0 0 1 10 -10"></path>
</g>
<g>
<path d="M411.5 48h0"></path>
<path d="M905 48h0"></path>
<path d="M411.5 48a10 10 0 0 0 10 -10v-8a10 10 0 0 1 10 -10"></path>
<g>
<path d="M431.5 20h453.5"></path>
</g>
<path d="M885 20a10 10 0 0 1 10 10v8a10 10 0 0 0 10 10"></path>
<path d="M411.5 48h20"></path>
<g>
<path d="M431.5 48h0"></path>
<path d="M885 48h0"></path>
<g class="terminal">
<path d="M431.5 48h0"></path>
<path d="M545 48h0"></path>
<rect x="431.5" y="37" width="113.5" height="22" rx="10" ry="10"></rect>
<text x="488.25" y="52">"EXPORTING"</text>
</g>
<path d="M545 48h10"></path>
<path d="M555 48h10"></path>
<g>
<path d="M565 48h0"></path>
<path d="M885 48h0"></path>
<path d="M565 48h10"></path>
<g>
<path d="M575 48h0"></path>
<path d="M875 48h0"></path>
<g class="non-terminal">
<path d="M575 48h0"></path>
<path d="M663 48h0"></path>
<rect x="575" y="37" width="88" height="22"></rect>
<a xlink:href="#/abap/expression/FieldSub"><text x="619" y="52">FieldSub</text>
</a>
</g>
<path d="M663 48h10"></path>
<g>
<path d="M673 48h0"></path>
<path d="M875 48h0"></path>
<path d="M673 48a10 10 0 0 0 10 -10v0a10 10 0 0 1 10 -10"></path>
<g>
<path d="M693 28h162"></path>
</g>
<path d="M855 28a10 10 0 0 1 10 10v0a10 10 0 0 0 10 10"></path>
<path d="M673 48h20"></path>
<g>
<path d="M693 48h0"></path>
<path d="M855 48h0"></path>
<g class="terminal">
<path d="M693 48h0"></path>
<path d="M764 48h0"></path>
<rect x="693" y="37" width="71" height="22" rx="10" ry="10"></rect>
<text x="728.5" y="52">"FROM"</text>
</g>
<path d="M764 48h10"></path>
<path d="M774 48h10"></path>
<g class="non-terminal">
<path d="M784 48h0"></path>
<path d="M855 48h0"></path>
<rect x="784" y="37" width="71" height="22"></rect>
<a xlink:href="#/abap/expression/Source"><text x="819.5" y="52">Source</text>
</a>
</g>
</g>
<path d="M855 48h20"></path>
</g>
</g>
<path d="M875 48h10"></path>
<path d="M575 48a10 10 0 0 0 -10 10v0a10 10 0 0 0 10 10"></path>
<g>
<path d="M575 68h300"></path>
</g>
<path d="M875 68a10 10 0 0 0 10 -10v0a10 10 0 0 0 -10 -10"></path>
</g>
</g>
<path d="M885 48h20"></path>
</g>
<g>
<path d="M905 48h0"></path>
<path d="M1347.5 48h0"></path>
<path d="M905 48a10 10 0 0 0 10 -10v-8a10 10 0 0 1 10 -10"></path>
<g>
<path d="M925 20h402.5"></path>
</g>
<path d="M1327.5 20a10 10 0 0 1 10 10v8a10 10 0 0 0 10 10"></path>
<path d="M905 48h20"></path>
<g>
<path d="M925 48h0"></path>
<path d="M1327.5 48h0"></path>
<g class="terminal">
<path d="M925 48h0"></path>
<path d="M1038.5 48h0"></path>
<rect x="925" y="37" width="113.5" height="22" rx="10" ry="10"></rect>
<text x="981.75" y="52">"IMPORTING"</text>
</g>
<path d="M1038.5 48h10"></path>
<path d="M1048.5 48h10"></path>
<g>
<path d="M1058.5 48h0"></path>
<path d="M1327.5 48h0"></path>
<path d="M1058.5 48h10"></path>
<g>
<path d="M1068.5 48h0"></path>
<path d="M1317.5 48h0"></path>
<g class="non-terminal">
<path d="M1068.5 48h0"></path>
<path d="M1131 48h0"></path>
<rect x="1068.5" y="37" width="62.5" height="22"></rect>
<a xlink:href="#/abap/expression/Field"><text x="1099.75" y="52">Field</text>
</a>
</g>
<path d="M1131 48h10"></path>
<g>
<path d="M1141 48h0"></path>
<path d="M1317.5 48h0"></path>
<path d="M1141 48a10 10 0 0 0 10 -10v0a10 10 0 0 1 10 -10"></path>
<g>
<path d="M1161 28h136.5"></path>
</g>
<path d="M1297.5 28a10 10 0 0 1 10 10v0a10 10 0 0 0 10 10"></path>
<path d="M1141 48h20"></path>
<g>
<path d="M1161 48h0"></path>
<path d="M1297.5 48h0"></path>
<g class="terminal">
<path d="M1161 48h0"></path>
<path d="M1215 48h0"></path>
<rect x="1161" y="37" width="54" height="22" rx="10" ry="10"></rect>
<text x="1188" y="52">"TO"</text>
</g>
<path d="M1215 48h10"></path>
<path d="M1225 48h10"></path>
<g class="non-terminal">
<path d="M1235 48h0"></path>
<path d="M1297.5 48h0"></path>
<rect x="1235" y="37" width="62.5" height="22"></rect>
<a xlink:href="#/abap/expression/Field"><text x="1266.25" y="52">Field</text>
</a>
</g>
</g>
<path d="M1297.5 48h20"></path>
</g>
</g>
<path d="M1317.5 48h10"></path>
<path d="M1068.5 48a10 10 0 0 0 -10 10v0a10 10 0 0 0 10 10"></path>
<g>
<path d="M1068.5 68h249"></path>
</g>
<path d="M1317.5 68a10 10 0 0 0 10 -10v0a10 10 0 0 0 -10 -10"></path>
</g>
</g>
<path d="M1327.5 48h20"></path>
</g>
</g>
</g>
<path d="M1347.5 48h10"></path>
<path d="M 1357.5 48 h 20 m -10 -10 v 20 m 10 -20 v 20"></path>
</g>
</svg>
