<svg xmlns="http://www.w3.org/2000/svg" xmlns:xlink="http://www.w3.org/1999/xlink" class="railroad-diagram" width="425" height="62" viewBox="0 0 425 62">
<defs>
<style type="text/css"><![CDATA[
path {
stroke-width: 3;
stroke: black;
fill: rgba(0,0,0,0);
}
text {
font: bold 14px monospace;
text-anchor: middle;
}
text.diagram-text {
font-size: 12px;
}
a {
fill: blue;
}
text.diagram-arrow {
font-size: 16px;
}
text.label {
text-anchor: start;
}
text.comment {
font: italic 12px monospace;
}
rect {
stroke-width: 3;
stroke: black;
fill: #BCBCBC;
}
path.diagram-text {
stroke-width: 3;
stroke: black;
fill: #BCBCBC;
cursor: help;
}
]]></style>
</defs>
<g transform="translate(.5 .5)">
<g>
<path d="M20 21v20m10 -20v20m-10 -10h20"></path>
</g>
<path d="M40 31h10"></path>
<g>
<path d="M50 31h0"></path>
<path d="M375 31h0"></path>
<g class="comment ">
<path d="M50 31h0"></path>
<path d="M193 31h0"></path>
<text x="121.5" y="36" class="comment">not langver=KeyUser</text>
</g>
<path d="M193 31h10"></path>
<path d="M203 31h10"></path>
<g>
<path d="M213 31h0"></path>
<path d="M375 31h0"></path>
<g class="terminal ">
<path d="M213 31h0"></path>
<path d="M284 31h0"></path>
<rect x="213" y="20" width="71" height="22" rx="10" ry="10"></rect>
<text x="248.5" y="35">"FREE"</text>
</g>
<path d="M284 31h10"></path>
<path d="M294 31h10"></path>
<g class="non-terminal ">
<path d="M304 31h0"></path>
<path d="M375 31h0"></path>
<rect x="304" y="20" width="71" height="22"></rect>
<a xlink:href="#/abap/expression/Target"><text x="339.5" y="35">Target</text>
</a>
</g>
</g>
</g>
<path d="M375 31h10"></path>
<path d="M 385 31 h 20 m -10 -10 v 20 m 10 -20 v 20"></path>
</g>
</svg>
