<svg xmlns="http://www.w3.org/2000/svg" xmlns:xlink="http://www.w3.org/1999/xlink" class="railroad-diagram" width="1384.5" height="1064" viewBox="0 0 1384.5 1064">
<defs>
<style type="text/css"><![CDATA[
path {
stroke-width: 3;
stroke: black;
fill: rgba(0,0,0,0);
}
text {
font: bold 14px monospace;
text-anchor: middle;
}
text.diagram-text {
font-size: 12px;
}
a {
fill: blue;
}
text.diagram-arrow {
font-size: 16px;
}
text.label {
text-anchor: start;
}
text.comment {
font: italic 12px monospace;
}
rect {
stroke-width: 3;
stroke: black;
fill: #BCBCBC;
}
path.diagram-text {
stroke-width: 3;
stroke: black;
fill: #BCBCBC;
cursor: help;
}
]]></style>
</defs>
<g transform="translate(.5 .5)">
<g>
<path d="M20 30v20m10 -20v20m-10 -10h20"></path>
</g>
<path d="M40 40h10"></path>
<g>
<path d="M50 40h0"></path>
<path d="M1334.5 40h0"></path>
<g class="terminal">
<path d="M50 40h0"></path>
<path d="M172 40h0"></path>
<rect x="50" y="29" width="122" height="22" rx="10" ry="10"></rect>
<text x="111" y="44">"READ TABLE"</text>
</g>
<path d="M172 40h10"></path>
<g>
<path d="M182 40h0"></path>
<path d="M470 40h0"></path>
<path d="M182 40h20"></path>
<g class="non-terminal">
<path d="M202 40h0"></path>
<path d="M332.5 40h117.5"></path>
<rect x="202" y="29" width="130.5" height="22"></rect>
<a xlink:href="#/abap/expression/SimpleSource2"><text x="267.25" y="44">SimpleSource2</text>
</a>
</g>
<path d="M450 40h20"></path>
<path d="M182 40a10 10 0 0 1 10 10v10a10 10 0 0 0 10 10"></path>
<g>
<path d="M202 70h0"></path>
<path d="M450 70h0"></path>
<g>
<path d="M202 70h0"></path>
<path d="M359 70h0"></path>
<text x="280.5" y="75" class="comment">v740sp02 or open-abap</text>
</g>
<path d="M359 70h10"></path>
<path d="M369 70h10"></path>
<g class="non-terminal">
<path d="M379 70h0"></path>
<path d="M450 70h0"></path>
<rect x="379" y="59" width="71" height="22"></rect>
<a xlink:href="#/abap/expression/Source"><text x="414.5" y="74">Source</text>
</a>
</g>
</g>
<path d="M450 70a10 10 0 0 0 10 -10v-10a10 10 0 0 1 10 -10"></path>
</g>
<g>
<path d="M470 40h0"></path>
<path d="M1334.5 40h0"></path>
<path d="M470 40a10 10 0 0 0 10 -10v0a10 10 0 0 1 10 -10"></path>
<g>
<path d="M490 20h824.5"></path>
</g>
<path d="M1314.5 20a10 10 0 0 1 10 10v0a10 10 0 0 0 10 10"></path>
<path d="M470 40h20"></path>
<g>
<path d="M490 40h0"></path>
<path d="M1314.5 40h0"></path>
<path d="M490 40h20"></path>
<g>
<path d="M510 40h0"></path>
<path d="M942 40h352.5"></path>
<path d="M540 40h10"></path>
<g>
<path d="M550 40h0"></path>
<path d="M760.5 40h151.5"></path>
<path d="M550 40h20"></path>
<g>
<path d="M570 40h0"></path>
<path d="M740.5 40h0"></path>
<g class="terminal">
<path d="M570 40h0"></path>
<path d="M649.5 40h0"></path>
<rect x="570" y="29" width="79.5" height="22" rx="10" ry="10"></rect>
<text x="609.75" y="44">"INDEX"</text>
</g>
<path d="M649.5 40h10"></path>
<path d="M659.5 40h10"></path>
<g class="non-terminal">
<path d="M669.5 40h0"></path>
<path d="M740.5 40h0"></path>
<rect x="669.5" y="29" width="71" height="22"></rect>
<a xlink:href="#/abap/expression/Source"><text x="705" y="44">Source</text>
</a>
</g>
</g>
<path d="M740.5 40h20"></path>
<path d="M550 40a10 10 0 0 1 10 10v10a10 10 0 0 0 10 10"></path>
<g>
<path d="M570 70h0"></path>
<path d="M732 70h8.5"></path>
<g class="terminal">
<path d="M570 70h0"></path>
<path d="M641 70h0"></path>
<rect x="570" y="59" width="71" height="22" rx="10" ry="10"></rect>
<text x="605.5" y="74">"FROM"</text>
</g>
<path d="M641 70h10"></path>
<path d="M651 70h10"></path>
<g class="non-terminal">
<path d="M661 70h0"></path>
<path d="M732 70h0"></path>
<rect x="661" y="59" width="71" height="22"></rect>
<a xlink:href="#/abap/expression/Source"><text x="696.5" y="74">Source</text>
</a>
</g>
</g>
<path d="M740.5 70a10 10 0 0 0 10 -10v-10a10 10 0 0 1 10 -10"></path>
</g>
<path d="M912 40h10"></path>
<path d="M540 40v50a10 10 0 0 0 10 10"></path>
<g>
<path d="M550 100h0"></path>
<path d="M793 100h119"></path>
<g class="terminal">
<path d="M550 100h0"></path>
<path d="M663.5 100h0"></path>
<rect x="550" y="89" width="113.5" height="22" rx="10" ry="10"></rect>
<text x="606.75" y="104">"USING KEY"</text>
</g>
<path d="M663.5 100h10"></path>
<g>
<path d="M673.5 100h0"></path>
<path d="M793 100h0"></path>
<path d="M673.5 100h20"></path>
<g class="non-terminal">
<path d="M693.5 100h0"></path>
<path d="M756 100h17"></path>
<rect x="693.5" y="89" width="62.5" height="22"></rect>
<a xlink:href="#/abap/expression/Field"><text x="724.75" y="104">Field</text>
</a>
</g>
<path d="M773 100h20"></path>
<path d="M673.5 100a10 10 0 0 1 10 10v10a10 10 0 0 0 10 10"></path>
<g class="non-terminal">
<path d="M693.5 130h0"></path>
<path d="M773 130h0"></path>
<rect x="693.5" y="119" width="79.5" height="22"></rect>
<a xlink:href="#/abap/expression/Dynamic"><text x="733.25" y="134">Dynamic</text>
</a>
</g>
<path d="M773 130a10 10 0 0 0 10 -10v-10a10 10 0 0 1 10 -10"></path>
</g>
</g>
<path d="M912 100a10 10 0 0 0 10 -10v-50"></path>
<path d="M540 40v110a10 10 0 0 0 10 10"></path>
<g class="non-terminal">
<path d="M550 160h0"></path>
<path d="M697.5 160h214.5"></path>
<rect x="550" y="149" width="147.5" height="22"></rect>
<a xlink:href="#/abap/expression/ReadTableTarget"><text x="623.75" y="164">ReadTableTarget</text>
</a>
</g>
<path d="M912 160a10 10 0 0 0 10 -10v-110"></path>
<path d="M540 40v140a10 10 0 0 0 10 10"></path>
<g>
<path d="M550 190h0"></path>
<path d="M821.5 190h90.5"></path>
<g class="terminal">
<path d="M550 190h0"></path>
<path d="M663.5 190h0"></path>
<rect x="550" y="179" width="113.5" height="22" rx="10" ry="10"></rect>
<text x="606.75" y="194">"COMPARING"</text>
</g>
<path d="M663.5 190h10"></path>
<g>
<path d="M673.5 190h0"></path>
<path d="M821.5 190h0"></path>
<path d="M673.5 190h20"></path>
<g>
<path d="M693.5 190h0"></path>
<path d="M801.5 190h0"></path>
<path d="M693.5 190h10"></path>
<g class="non-terminal">
<path d="M703.5 190h0"></path>
<path d="M791.5 190h0"></path>
<rect x="703.5" y="179" width="88" height="22"></rect>
<a xlink:href="#/abap/expression/FieldSub"><text x="747.5" y="194">FieldSub</text>
</a>
</g>
<path d="M791.5 190h10"></path>
<path d="M703.5 190a10 10 0 0 0 -10 10v0a10 10 0 0 0 10 10"></path>
<g>
<path d="M703.5 210h88"></path>
</g>
<path d="M791.5 210a10 10 0 0 0 10 -10v0a10 10 0 0 0 -10 -10"></path>
</g>
<path d="M801.5 190h20"></path>
<path d="M673.5 190a10 10 0 0 1 10 10v19a10 10 0 0 0 10 10"></path>
<g>
<path d="M693.5 229h0"></path>
<path d="M793 229h8.5"></path>
<path d="M693.5 229h10"></path>
<g class="non-terminal">
<path d="M703.5 229h0"></path>
<path d="M783 229h0"></path>
<rect x="703.5" y="218" width="79.5" height="22"></rect>
<a xlink:href="#/abap/expression/Dynamic"><text x="743.25" y="233">Dynamic</text>
</a>
</g>
<path d="M783 229h10"></path>
<path d="M703.5 229a10 10 0 0 0 -10 10v0a10 10 0 0 0 10 10"></path>
<g>
<path d="M703.5 249h79.5"></path>
</g>
<path d="M783 249a10 10 0 0 0 10 -10v0a10 10 0 0 0 -10 -10"></path>
</g>
<path d="M801.5 229a10 10 0 0 0 10 -10v-19a10 10 0 0 1 10 -10"></path>
</g>
</g>
<path d="M912 190a10 10 0 0 0 10 -10v-140"></path>
<path d="M540 40v218a10 10 0 0 0 10 10"></path>
<g class="terminal">
<path d="M550 268h0"></path>
<path d="M646.5 268h265.5"></path>
<rect x="550" y="257" width="96.5" height="22" rx="10" ry="10"></rect>
<text x="598.25" y="272">"CASTING"</text>
</g>
<path d="M912 268a10 10 0 0 0 10 -10v-218"></path>
<path d="M540 40v248a10 10 0 0 0 10 10"></path>
<g>
<path d="M550 298h0"></path>
<path d="M912 298h0"></path>
<g class="terminal">
<path d="M550 298h0"></path>
<path d="M689 298h0"></path>
<rect x="550" y="287" width="139" height="22" rx="10" ry="10"></rect>
<text x="619.5" y="302">"TRANSPORTING"</text>
</g>
<path d="M689 298h10"></path>
<g>
<path d="M699 298h0"></path>
<path d="M912 298h0"></path>
<path d="M699 298h20"></path>
<g class="terminal">
<path d="M719 298h0"></path>
<path d="M841 298h51"></path>
<rect x="719" y="287" width="122" height="22" rx="10" ry="10"></rect>
<text x="780" y="302">"ALL FIELDS"</text>
</g>
<path d="M892 298h20"></path>
<path d="M699 298a10 10 0 0 1 10 10v10a10 10 0 0 0 10 10"></path>
<g class="terminal">
<path d="M719 328h0"></path>
<path d="M832.5 328h59.5"></path>
<rect x="719" y="317" width="113.5" height="22" rx="10" ry="10"></rect>
<text x="775.75" y="332">"NO FIELDS"</text>
</g>
<path d="M892 328a10 10 0 0 0 10 -10v-10a10 10 0 0 1 10 -10"></path>
<path d="M699 298a10 10 0 0 1 10 10v40a10 10 0 0 0 10 10"></path>
<g class="non-terminal">
<path d="M719 358h0"></path>
<path d="M892 358h0"></path>
<rect x="719" y="347" width="173" height="22"></rect>
<a xlink:href="#/abap/expression/TransportingFields"><text x="805.5" y="362">TransportingFields</text>
</a>
</g>
<path d="M892 358a10 10 0 0 0 10 -10v-40a10 10 0 0 1 10 -10"></path>
</g>
</g>
<path d="M912 298a10 10 0 0 0 10 -10v-248"></path>
<path d="M540 40v338a10 10 0 0 0 10 10"></path>
<g class="terminal">
<path d="M550 388h0"></path>
<path d="M697.5 388h214.5"></path>
<rect x="550" y="377" width="147.5" height="22" rx="10" ry="10"></rect>
<text x="623.75" y="392">"BINARY SEARCH"</text>
</g>
<path d="M912 388a10 10 0 0 0 10 -10v-338"></path>
<g class="diagram-text">
<title>take one or more branches, once each, in any order</title>
<path d="M 540 30 h -26 a 4 4 0 0 0 -4 4 v 12 a 4 4 0 0 0 4 4 h 26 z" class="diagram-text"></path>
<text x="525" y="44" class="diagram-text">1+</text>
<path d="M 922 30 h 16 a 4 4 0 0 1 4 4 v 12 a 4 4 0 0 1 -4 4 h -16 z" class="diagram-text"></path>
<path d="M 929 38 a 4 4 0 1 0 6 -1 m 2.75 -1 h -4 v 4 m 0 -3 h 2" style="stroke-width: 1.75"></path>
</g>
</g>
<path d="M1294.5 40h20"></path>
<path d="M490 40a10 10 0 0 1 10 10v358a10 10 0 0 0 10 10"></path>
<g>
<path d="M510 418h0"></path>
<path d="M1294.5 418h0"></path>
<path d="M540 418h10"></path>
<g>
<path d="M550 418h0"></path>
<path d="M1264.5 418h0"></path>
<g>
<path d="M550 418h0"></path>
<path d="M746 418h0"></path>
<path d="M550 418h20"></path>
<g class="terminal">
<path d="M570 418h0"></path>
<path d="M675 418h51"></path>
<rect x="570" y="407" width="105" height="22" rx="10" ry="10"></rect>
<text x="622.5" y="422">"WITH KEY"</text>
</g>
<path d="M726 418h20"></path>
<path d="M550 418a10 10 0 0 1 10 10v10a10 10 0 0 0 10 10"></path>
<g class="terminal">
<path d="M570 448h0"></path>
<path d="M726 448h0"></path>
<rect x="570" y="437" width="156" height="22" rx="10" ry="10"></rect>
<text x="648" y="452">"WITH TABLE KEY"</text>
</g>
<path d="M726 448a10 10 0 0 0 10 -10v-10a10 10 0 0 1 10 -10"></path>
</g>
<g>
<path d="M746 418h0"></path>
<path d="M1264.5 418h0"></path>
<path d="M746 418h20"></path>
<g class="non-terminal">
<path d="M766 418h0"></path>
<path d="M973 418h271.5"></path>
<rect x="766" y="407" width="207" height="22"></rect>
<a xlink:href="#/abap/expression/ComponentCompareSimple"><text x="869.5" y="422">ComponentCompareSimple</text>
</a>
</g>
<path d="M1244.5 418h20"></path>
<path d="M746 418a10 10 0 0 1 10 10v10a10 10 0 0 0 10 10"></path>
<g>
<path d="M766 448h0"></path>
<path d="M1244.5 448h0"></path>
<g>
<path d="M766 448h0"></path>
<path d="M885.5 448h0"></path>
<path d="M766 448h20"></path>
<g class="non-terminal">
<path d="M786 448h0"></path>
<path d="M848.5 448h17"></path>
<rect x="786" y="437" width="62.5" height="22"></rect>
<a xlink:href="#/abap/expression/Field"><text x="817.25" y="452">Field</text>
</a>
</g>
<path d="M865.5 448h20"></path>
<path d="M766 448a10 10 0 0 1 10 10v10a10 10 0 0 0 10 10"></path>
<g class="non-terminal">
<path d="M786 478h0"></path>
<path d="M865.5 478h0"></path>
<rect x="786" y="467" width="79.5" height="22"></rect>
<a xlink:href="#/abap/expression/Dynamic"><text x="825.75" y="482">Dynamic</text>
</a>
</g>
<path d="M865.5 478a10 10 0 0 0 10 -10v-10a10 10 0 0 1 10 -10"></path>
</g>
<path d="M885.5 448h10"></path>
<g class="terminal">
<path d="M895.5 448h0"></path>
<path d="M1017.5 448h0"></path>
<rect x="895.5" y="437" width="122" height="22" rx="10" ry="10"></rect>
<text x="956.5" y="452">"COMPONENTS"</text>
</g>
<path d="M1017.5 448h10"></path>
<path d="M1027.5 448h10"></path>
<g class="non-terminal">
<path d="M1037.5 448h0"></path>
<path d="M1244.5 448h0"></path>
<rect x="1037.5" y="437" width="207" height="22"></rect>
<a xlink:href="#/abap/expression/ComponentCompareSimple"><text x="1141" y="452">ComponentCompareSimple</text>
</a>
</g>
</g>
<path d="M1244.5 448a10 10 0 0 0 10 -10v-10a10 10 0 0 1 10 -10"></path>
<path d="M746 418a10 10 0 0 1 10 10v79a10 10 0 0 0 10 10"></path>
<g>
<path d="M766 517h0"></path>
<path d="M932.5 517h312"></path>
<g>
<path d="M766 517h0"></path>
<path d="M851.5 517h0"></path>
<path d="M766 517a10 10 0 0 0 10 -10v0a10 10 0 0 1 10 -10"></path>
<g>
<path d="M786 497h45.5"></path>
</g>
<path d="M831.5 497a10 10 0 0 1 10 10v0a10 10 0 0 0 10 10"></path>
<path d="M766 517h20"></path>
<g class="terminal">
<path d="M786 517h0"></path>
<path d="M831.5 517h0"></path>
<rect x="786" y="506" width="45.5" height="22" rx="10" ry="10"></rect>
<text x="808.75" y="521">"="</text>
</g>
<path d="M831.5 517h20"></path>
</g>
<path d="M851.5 517h10"></path>
<g class="non-terminal">
<path d="M861.5 517h0"></path>
<path d="M932.5 517h0"></path>
<rect x="861.5" y="506" width="71" height="22"></rect>
<a xlink:href="#/abap/expression/Source"><text x="897" y="521">Source</text>
</a>
</g>
</g>
<path d="M1244.5 517a10 10 0 0 0 10 -10v-79a10 10 0 0 1 10 -10"></path>
</g>
</g>
<path d="M1264.5 418h10"></path>
<path d="M540 418v119a10 10 0 0 0 10 10"></path>
<g class="non-terminal">
<path d="M550 547h0"></path>
<path d="M697.5 547h567"></path>
<rect x="550" y="536" width="147.5" height="22"></rect>
<a xlink:href="#/abap/expression/ReadTableTarget"><text x="623.75" y="551">ReadTableTarget</text>
</a>
</g>
<path d="M1264.5 547a10 10 0 0 0 10 -10v-119"></path>
<path d="M540 418v149a10 10 0 0 0 10 10"></path>
<g>
<path d="M550 577h0"></path>
<path d="M821.5 577h443"></path>
<g class="terminal">
<path d="M550 577h0"></path>
<path d="M663.5 577h0"></path>
<rect x="550" y="566" width="113.5" height="22" rx="10" ry="10"></rect>
<text x="606.75" y="581">"COMPARING"</text>
</g>
<path d="M663.5 577h10"></path>
<g>
<path d="M673.5 577h0"></path>
<path d="M821.5 577h0"></path>
<path d="M673.5 577h20"></path>
<g>
<path d="M693.5 577h0"></path>
<path d="M801.5 577h0"></path>
<path d="M693.5 577h10"></path>
<g class="non-terminal">
<path d="M703.5 577h0"></path>
<path d="M791.5 577h0"></path>
<rect x="703.5" y="566" width="88" height="22"></rect>
<a xlink:href="#/abap/expression/FieldSub"><text x="747.5" y="581">FieldSub</text>
</a>
</g>
<path d="M791.5 577h10"></path>
<path d="M703.5 577a10 10 0 0 0 -10 10v0a10 10 0 0 0 10 10"></path>
<g>
<path d="M703.5 597h88"></path>
</g>
<path d="M791.5 597a10 10 0 0 0 10 -10v0a10 10 0 0 0 -10 -10"></path>
</g>
<path d="M801.5 577h20"></path>
<path d="M673.5 577a10 10 0 0 1 10 10v19a10 10 0 0 0 10 10"></path>
<g>
<path d="M693.5 616h0"></path>
<path d="M793 616h8.5"></path>
<path d="M693.5 616h10"></path>
<g class="non-terminal">
<path d="M703.5 616h0"></path>
<path d="M783 616h0"></path>
<rect x="703.5" y="605" width="79.5" height="22"></rect>
<a xlink:href="#/abap/expression/Dynamic"><text x="743.25" y="620">Dynamic</text>
</a>
</g>
<path d="M783 616h10"></path>
<path d="M703.5 616a10 10 0 0 0 -10 10v0a10 10 0 0 0 10 10"></path>
<g>
<path d="M703.5 636h79.5"></path>
</g>
<path d="M783 636a10 10 0 0 0 10 -10v0a10 10 0 0 0 -10 -10"></path>
</g>
<path d="M801.5 616a10 10 0 0 0 10 -10v-19a10 10 0 0 1 10 -10"></path>
</g>
</g>
<path d="M1264.5 577a10 10 0 0 0 10 -10v-149"></path>
<path d="M540 418v227a10 10 0 0 0 10 10"></path>
<g class="terminal">
<path d="M550 655h0"></path>
<path d="M646.5 655h618"></path>
<rect x="550" y="644" width="96.5" height="22" rx="10" ry="10"></rect>
<text x="598.25" y="659">"CASTING"</text>
</g>
<path d="M1264.5 655a10 10 0 0 0 10 -10v-227"></path>
<path d="M540 418v257a10 10 0 0 0 10 10"></path>
<g>
<path d="M550 685h0"></path>
<path d="M912 685h352.5"></path>
<g class="terminal">
<path d="M550 685h0"></path>
<path d="M689 685h0"></path>
<rect x="550" y="674" width="139" height="22" rx="10" ry="10"></rect>
<text x="619.5" y="689">"TRANSPORTING"</text>
</g>
<path d="M689 685h10"></path>
<g>
<path d="M699 685h0"></path>
<path d="M912 685h0"></path>
<path d="M699 685h20"></path>
<g class="terminal">
<path d="M719 685h0"></path>
<path d="M841 685h51"></path>
<rect x="719" y="674" width="122" height="22" rx="10" ry="10"></rect>
<text x="780" y="689">"ALL FIELDS"</text>
</g>
<path d="M892 685h20"></path>
<path d="M699 685a10 10 0 0 1 10 10v10a10 10 0 0 0 10 10"></path>
<g class="terminal">
<path d="M719 715h0"></path>
<path d="M832.5 715h59.5"></path>
<rect x="719" y="704" width="113.5" height="22" rx="10" ry="10"></rect>
<text x="775.75" y="719">"NO FIELDS"</text>
</g>
<path d="M892 715a10 10 0 0 0 10 -10v-10a10 10 0 0 1 10 -10"></path>
<path d="M699 685a10 10 0 0 1 10 10v40a10 10 0 0 0 10 10"></path>
<g class="non-terminal">
<path d="M719 745h0"></path>
<path d="M892 745h0"></path>
<rect x="719" y="734" width="173" height="22"></rect>
<a xlink:href="#/abap/expression/TransportingFields"><text x="805.5" y="749">TransportingFields</text>
</a>
</g>
<path d="M892 745a10 10 0 0 0 10 -10v-40a10 10 0 0 1 10 -10"></path>
</g>
</g>
<path d="M1264.5 685a10 10 0 0 0 10 -10v-257"></path>
<path d="M540 418v347a10 10 0 0 0 10 10"></path>
<g class="terminal">
<path d="M550 775h0"></path>
<path d="M697.5 775h567"></path>
<rect x="550" y="764" width="147.5" height="22" rx="10" ry="10"></rect>
<text x="623.75" y="779">"BINARY SEARCH"</text>
</g>
<path d="M1264.5 775a10 10 0 0 0 10 -10v-347"></path>
<g class="diagram-text">
<title>take one or more branches, once each, in any order</title>
<path d="M 540 408 h -26 a 4 4 0 0 0 -4 4 v 12 a 4 4 0 0 0 4 4 h 26 z" class="diagram-text"></path>
<text x="525" y="422" class="diagram-text">1+</text>
<path d="M 1274.5 408 h 16 a 4 4 0 0 1 4 4 v 12 a 4 4 0 0 1 -4 4 h -16 z" class="diagram-text"></path>
<path d="M 1281.5 416 a 4 4 0 1 0 6 -1 m 2.75 -1 h -4 v 4 m 0 -3 h 2" style="stroke-width: 1.75"></path>
</g>
</g>
<path d="M1294.5 418a10 10 0 0 0 10 -10v-358a10 10 0 0 1 10 -10"></path>
<path d="M490 40a10 10 0 0 1 10 10v745a10 10 0 0 0 10 10"></path>
<g>
<path d="M510 805h0"></path>
<path d="M942 805h352.5"></path>
<path d="M540 805h10"></path>
<g class="non-terminal">
<path d="M550 805h0"></path>
<path d="M697.5 805h214.5"></path>
<rect x="550" y="794" width="147.5" height="22"></rect>
<a xlink:href="#/abap/expression/ReadTableTarget"><text x="623.75" y="809">ReadTableTarget</text>
</a>
</g>
<path d="M912 805h10"></path>
<path d="M540 805v20a10 10 0 0 0 10 10"></path>
<g>
<path d="M550 835h0"></path>
<path d="M821.5 835h90.5"></path>
<g class="terminal">
<path d="M550 835h0"></path>
<path d="M663.5 835h0"></path>
<rect x="550" y="824" width="113.5" height="22" rx="10" ry="10"></rect>
<text x="606.75" y="839">"COMPARING"</text>
</g>
<path d="M663.5 835h10"></path>
<g>
<path d="M673.5 835h0"></path>
<path d="M821.5 835h0"></path>
<path d="M673.5 835h20"></path>
<g>
<path d="M693.5 835h0"></path>
<path d="M801.5 835h0"></path>
<path d="M693.5 835h10"></path>
<g class="non-terminal">
<path d="M703.5 835h0"></path>
<path d="M791.5 835h0"></path>
<rect x="703.5" y="824" width="88" height="22"></rect>
<a xlink:href="#/abap/expression/FieldSub"><text x="747.5" y="839">FieldSub</text>
</a>
</g>
<path d="M791.5 835h10"></path>
<path d="M703.5 835a10 10 0 0 0 -10 10v0a10 10 0 0 0 10 10"></path>
<g>
<path d="M703.5 855h88"></path>
</g>
<path d="M791.5 855a10 10 0 0 0 10 -10v0a10 10 0 0 0 -10 -10"></path>
</g>
<path d="M801.5 835h20"></path>
<path d="M673.5 835a10 10 0 0 1 10 10v19a10 10 0 0 0 10 10"></path>
<g>
<path d="M693.5 874h0"></path>
<path d="M793 874h8.5"></path>
<path d="M693.5 874h10"></path>
<g class="non-terminal">
<path d="M703.5 874h0"></path>
<path d="M783 874h0"></path>
<rect x="703.5" y="863" width="79.5" height="22"></rect>
<a xlink:href="#/abap/expression/Dynamic"><text x="743.25" y="878">Dynamic</text>
</a>
</g>
<path d="M783 874h10"></path>
<path d="M703.5 874a10 10 0 0 0 -10 10v0a10 10 0 0 0 10 10"></path>
<g>
<path d="M703.5 894h79.5"></path>
</g>
<path d="M783 894a10 10 0 0 0 10 -10v0a10 10 0 0 0 -10 -10"></path>
</g>
<path d="M801.5 874a10 10 0 0 0 10 -10v-19a10 10 0 0 1 10 -10"></path>
</g>
</g>
<path d="M912 835a10 10 0 0 0 10 -10v-20"></path>
<path d="M540 805v98a10 10 0 0 0 10 10"></path>
<g class="terminal">
<path d="M550 913h0"></path>
<path d="M646.5 913h265.5"></path>
<rect x="550" y="902" width="96.5" height="22" rx="10" ry="10"></rect>
<text x="598.25" y="917">"CASTING"</text>
</g>
<path d="M912 913a10 10 0 0 0 10 -10v-98"></path>
<path d="M540 805v128a10 10 0 0 0 10 10"></path>
<g>
<path d="M550 943h0"></path>
<path d="M912 943h0"></path>
<g class="terminal">
<path d="M550 943h0"></path>
<path d="M689 943h0"></path>
<rect x="550" y="932" width="139" height="22" rx="10" ry="10"></rect>
<text x="619.5" y="947">"TRANSPORTING"</text>
</g>
<path d="M689 943h10"></path>
<g>
<path d="M699 943h0"></path>
<path d="M912 943h0"></path>
<path d="M699 943h20"></path>
<g class="terminal">
<path d="M719 943h0"></path>
<path d="M841 943h51"></path>
<rect x="719" y="932" width="122" height="22" rx="10" ry="10"></rect>
<text x="780" y="947">"ALL FIELDS"</text>
</g>
<path d="M892 943h20"></path>
<path d="M699 943a10 10 0 0 1 10 10v10a10 10 0 0 0 10 10"></path>
<g class="terminal">
<path d="M719 973h0"></path>
<path d="M832.5 973h59.5"></path>
<rect x="719" y="962" width="113.5" height="22" rx="10" ry="10"></rect>
<text x="775.75" y="977">"NO FIELDS"</text>
</g>
<path d="M892 973a10 10 0 0 0 10 -10v-10a10 10 0 0 1 10 -10"></path>
<path d="M699 943a10 10 0 0 1 10 10v40a10 10 0 0 0 10 10"></path>
<g class="non-terminal">
<path d="M719 1003h0"></path>
<path d="M892 1003h0"></path>
<rect x="719" y="992" width="173" height="22"></rect>
<a xlink:href="#/abap/expression/TransportingFields"><text x="805.5" y="1007">TransportingFields</text>
</a>
</g>
<path d="M892 1003a10 10 0 0 0 10 -10v-40a10 10 0 0 1 10 -10"></path>
</g>
</g>
<path d="M912 943a10 10 0 0 0 10 -10v-128"></path>
<path d="M540 805v218a10 10 0 0 0 10 10"></path>
<g class="terminal">
<path d="M550 1033h0"></path>
<path d="M697.5 1033h214.5"></path>
<rect x="550" y="1022" width="147.5" height="22" rx="10" ry="10"></rect>
<text x="623.75" y="1037">"BINARY SEARCH"</text>
</g>
<path d="M912 1033a10 10 0 0 0 10 -10v-218"></path>
<g class="diagram-text">
<title>take one or more branches, once each, in any order</title>
<path d="M 540 795 h -26 a 4 4 0 0 0 -4 4 v 12 a 4 4 0 0 0 4 4 h 26 z" class="diagram-text"></path>
<text x="525" y="809" class="diagram-text">1+</text>
<path d="M 922 795 h 16 a 4 4 0 0 1 4 4 v 12 a 4 4 0 0 1 -4 4 h -16 z" class="diagram-text"></path>
<path d="M 929 803 a 4 4 0 1 0 6 -1 m 2.75 -1 h -4 v 4 m 0 -3 h 2" style="stroke-width: 1.75"></path>
</g>
</g>
<path d="M1294.5 805a10 10 0 0 0 10 -10v-745a10 10 0 0 1 10 -10"></path>
</g>
<path d="M1314.5 40h20"></path>
</g>
</g>
<path d="M1334.5 40h10"></path>
<path d="M 1344.5 40 h 20 m -10 -10 v 20 m 10 -20 v 20"></path>
</g>
</svg>
