<svg xmlns="http://www.w3.org/2000/svg" xmlns:xlink="http://www.w3.org/1999/xlink" class="railroad-diagram" width="2252" height="487" viewBox="0 0 2252 487">
<defs>
<style type="text/css"><![CDATA[
path {
stroke-width: 3;
stroke: black;
fill: rgba(0,0,0,0);
}
text {
font: bold 14px monospace;
text-anchor: middle;
}
text.diagram-text {
font-size: 12px;
}
a {
fill: blue;
}
text.diagram-arrow {
font-size: 16px;
}
text.label {
text-anchor: start;
}
text.comment {
font: italic 12px monospace;
}
rect {
stroke-width: 3;
stroke: black;
fill: #BCBCBC;
}
path.diagram-text {
stroke-width: 3;
stroke: black;
fill: #BCBCBC;
cursor: help;
}
]]></style>
</defs>
<g transform="translate(.5 .5)">
<g>
<path d="M20 38v20m10 -20v20m-10 -10h20"></path>
</g>
<path d="M40 48h10"></path>
<g>
<path d="M50 48h0"></path>
<path d="M2202 48h0"></path>
<g class="comment ">
<path d="M50 48h0"></path>
<path d="M123 48h0"></path>
<text x="86.5" y="53" class="comment">not Cloud</text>
</g>
<path d="M123 48h10"></path>
<path d="M133 48h10"></path>
<g>
<path d="M143 48h0"></path>
<path d="M2202 48h0"></path>
<g class="terminal ">
<path d="M143 48h0"></path>
<path d="M222.5 48h0"></path>
<rect x="143" y="37" width="79.5" height="22" rx="10" ry="10"></rect>
<text x="182.75" y="52">"FIELD"</text>
</g>
<path d="M222.5 48h10"></path>
<path d="M232.5 48h10"></path>
<g class="non-terminal ">
<path d="M242.5 48h0"></path>
<path d="M347.5 48h0"></path>
<rect x="242.5" y="37" width="105" height="22"></rect>
<a xlink:href="#/abap/expression/FieldChain"><text x="295" y="52">FieldChain</text>
</a>
</g>
<path d="M347.5 48h10"></path>
<g>
<path d="M357.5 48h0"></path>
<path d="M2202 48h0"></path>
<path d="M357.5 48a10 10 0 0 0 10 -10v-8a10 10 0 0 1 10 -10"></path>
<g>
<path d="M377.5 20h1804.5"></path>
</g>
<path d="M2182 20a10 10 0 0 1 10 10v8a10 10 0 0 0 10 10"></path>
<path d="M357.5 48h20"></path>
<g>
<path d="M377.5 48h0"></path>
<path d="M2182 48h0"></path>
<path d="M377.5 48h20"></path>
<g>
<path d="M397.5 48h640"></path>
<path d="M1522 48h640"></path>
<g class="terminal ">
<path d="M1037.5 48h0"></path>
<path d="M1125.5 48h0"></path>
<rect x="1037.5" y="37" width="88" height="22" rx="10" ry="10"></rect>
<text x="1081.5" y="52">"MODULE"</text>
</g>
<path d="M1125.5 48h10"></path>
<path d="M1135.5 48h10"></path>
<g class="non-terminal ">
<path d="M1145.5 48h0"></path>
<path d="M1233.5 48h0"></path>
<rect x="1145.5" y="37" width="88" height="22"></rect>
<a xlink:href="#/abap/expression/FormName"><text x="1189.5" y="52">FormName</text>
</a>
</g>
<path d="M1233.5 48h10"></path>
<g>
<path d="M1243.5 48h0"></path>
<path d="M1522 48h0"></path>
<path d="M1243.5 48a10 10 0 0 0 10 -10v0a10 10 0 0 1 10 -10"></path>
<g>
<path d="M1263.5 28h238.5"></path>
</g>
<path d="M1502 28a10 10 0 0 1 10 10v0a10 10 0 0 0 10 10"></path>
<path d="M1243.5 48h20"></path>
<g>
<path d="M1263.5 48h0"></path>
<path d="M1502 48h0"></path>
<path d="M1263.5 48h20"></path>
<g class="terminal ">
<path d="M1283.5 48h46.75"></path>
<path d="M1435.25 48h46.75"></path>
<rect x="1330.25" y="37" width="105" height="22" rx="10" ry="10"></rect>
<text x="1382.75" y="52">"ON INPUT"</text>
</g>
<path d="M1482 48h20"></path>
<path d="M1263.5 48a10 10 0 0 1 10 10v10a10 10 0 0 0 10 10"></path>
<g class="terminal ">
<path d="M1283.5 78h38.25"></path>
<path d="M1443.75 78h38.25"></path>
<rect x="1321.75" y="67" width="122" height="22" rx="10" ry="10"></rect>
<text x="1382.75" y="82">"ON REQUEST"</text>
</g>
<path d="M1482 78a10 10 0 0 0 10 -10v-10a10 10 0 0 1 10 -10"></path>
<path d="M1263.5 48a10 10 0 0 1 10 10v40a10 10 0 0 0 10 10"></path>
<g class="terminal ">
<path d="M1283.5 108h12.75"></path>
<path d="M1469.25 108h12.75"></path>
<rect x="1296.25" y="97" width="173" height="22" rx="10" ry="10"></rect>
<text x="1382.75" y="112">"ON CHAIN-REQUEST"</text>
</g>
<path d="M1482 108a10 10 0 0 0 10 -10v-40a10 10 0 0 1 10 -10"></path>
<path d="M1263.5 48a10 10 0 0 1 10 10v70a10 10 0 0 0 10 10"></path>
<g class="terminal ">
<path d="M1283.5 138h21.25"></path>
<path d="M1460.75 138h21.25"></path>
<rect x="1304.75" y="127" width="156" height="22" rx="10" ry="10"></rect>
<text x="1382.75" y="142">"ON CHAIN-INPUT"</text>
</g>
<path d="M1482 138a10 10 0 0 0 10 -10v-70a10 10 0 0 1 10 -10"></path>
<path d="M1263.5 48a10 10 0 0 1 10 10v100a10 10 0 0 0 10 10"></path>
<g class="terminal ">
<path d="M1283.5 168h0"></path>
<path d="M1482 168h0"></path>
<rect x="1283.5" y="157" width="198.5" height="22" rx="10" ry="10"></rect>
<text x="1382.75" y="172">"AT CURSOR-SELECTION"</text>
</g>
<path d="M1482 168a10 10 0 0 0 10 -10v-100a10 10 0 0 1 10 -10"></path>
</g>
<path d="M1502 48h20"></path>
</g>
</g>
<path d="M2162 48h20"></path>
<path d="M377.5 48a10 10 0 0 1 10 10v130a10 10 0 0 0 10 10"></path>
<g>
<path d="M397.5 198h660"></path>
<path d="M1502 198h660"></path>
<g>
<path d="M1057.5 198h0"></path>
<path d="M1296 198h0"></path>
<path d="M1057.5 198h20"></path>
<g class="terminal ">
<path d="M1077.5 198h46.75"></path>
<path d="M1229.25 198h46.75"></path>
<rect x="1124.25" y="187" width="105" height="22" rx="10" ry="10"></rect>
<text x="1176.75" y="202">"ON INPUT"</text>
</g>
<path d="M1276 198h20"></path>
<path d="M1057.5 198a10 10 0 0 1 10 10v10a10 10 0 0 0 10 10"></path>
<g class="terminal ">
<path d="M1077.5 228h38.25"></path>
<path d="M1237.75 228h38.25"></path>
<rect x="1115.75" y="217" width="122" height="22" rx="10" ry="10"></rect>
<text x="1176.75" y="232">"ON REQUEST"</text>
</g>
<path d="M1276 228a10 10 0 0 0 10 -10v-10a10 10 0 0 1 10 -10"></path>
<path d="M1057.5 198a10 10 0 0 1 10 10v40a10 10 0 0 0 10 10"></path>
<g class="terminal ">
<path d="M1077.5 258h12.75"></path>
<path d="M1263.25 258h12.75"></path>
<rect x="1090.25" y="247" width="173" height="22" rx="10" ry="10"></rect>
<text x="1176.75" y="262">"ON CHAIN-REQUEST"</text>
</g>
<path d="M1276 258a10 10 0 0 0 10 -10v-40a10 10 0 0 1 10 -10"></path>
<path d="M1057.5 198a10 10 0 0 1 10 10v70a10 10 0 0 0 10 10"></path>
<g class="terminal ">
<path d="M1077.5 288h21.25"></path>
<path d="M1254.75 288h21.25"></path>
<rect x="1098.75" y="277" width="156" height="22" rx="10" ry="10"></rect>
<text x="1176.75" y="292">"ON CHAIN-INPUT"</text>
</g>
<path d="M1276 288a10 10 0 0 0 10 -10v-70a10 10 0 0 1 10 -10"></path>
<path d="M1057.5 198a10 10 0 0 1 10 10v100a10 10 0 0 0 10 10"></path>
<g class="terminal ">
<path d="M1077.5 318h0"></path>
<path d="M1276 318h0"></path>
<rect x="1077.5" y="307" width="198.5" height="22" rx="10" ry="10"></rect>
<text x="1176.75" y="322">"AT CURSOR-SELECTION"</text>
</g>
<path d="M1276 318a10 10 0 0 0 10 -10v-100a10 10 0 0 1 10 -10"></path>
</g>
<path d="M1296 198h10"></path>
<g class="terminal ">
<path d="M1306 198h0"></path>
<path d="M1394 198h0"></path>
<rect x="1306" y="187" width="88" height="22" rx="10" ry="10"></rect>
<text x="1350" y="202">"MODULE"</text>
</g>
<path d="M1394 198h10"></path>
<path d="M1404 198h10"></path>
<g class="non-terminal ">
<path d="M1414 198h0"></path>
<path d="M1502 198h0"></path>
<rect x="1414" y="187" width="88" height="22"></rect>
<a xlink:href="#/abap/expression/FormName"><text x="1458" y="202">FormName</text>
</a>
</g>
</g>
<path d="M2162 198a10 10 0 0 0 10 -10v-130a10 10 0 0 1 10 -10"></path>
<path d="M377.5 48a10 10 0 0 1 10 10v280a10 10 0 0 0 10 10"></path>
<g>
<path d="M397.5 348h476"></path>
<path d="M1686 348h476"></path>
<g class="terminal ">
<path d="M873.5 348h0"></path>
<path d="M961.5 348h0"></path>
<rect x="873.5" y="337" width="88" height="22" rx="10" ry="10"></rect>
<text x="917.5" y="352">"VALUES"</text>
</g>
<path d="M961.5 348h10"></path>
<path d="M971.5 348h10"></path>
<g class="terminal ">
<path d="M981.5 348h0"></path>
<path d="M1112 348h0"></path>
<rect x="981.5" y="337" width="130.5" height="22" rx="10" ry="10"></rect>
<text x="1046.75" y="352">!"WParenLeft"</text>
</g>
<path d="M1112 348h10"></path>
<path d="M1122 348h10"></path>
<g class="terminal ">
<path d="M1132 348h0"></path>
<path d="M1228.5 348h0"></path>
<rect x="1132" y="337" width="96.5" height="22" rx="10" ry="10"></rect>
<text x="1180.25" y="352">"BETWEEN"</text>
</g>
<path d="M1228.5 348h10"></path>
<path d="M1238.5 348h10"></path>
<g class="non-terminal ">
<path d="M1248.5 348h0"></path>
<path d="M1336.5 348h0"></path>
<rect x="1248.5" y="337" width="88" height="22"></rect>
<a xlink:href="#/abap/expression/Constant"><text x="1292.5" y="352">Constant</text>
</a>
</g>
<path d="M1336.5 348h10"></path>
<path d="M1346.5 348h10"></path>
<g class="terminal ">
<path d="M1356.5 348h0"></path>
<path d="M1419 348h0"></path>
<rect x="1356.5" y="337" width="62.5" height="22" rx="10" ry="10"></rect>
<text x="1387.75" y="352">"AND"</text>
</g>
<path d="M1419 348h10"></path>
<path d="M1429 348h10"></path>
<g class="non-terminal ">
<path d="M1439 348h0"></path>
<path d="M1527 348h0"></path>
<rect x="1439" y="337" width="88" height="22"></rect>
<a xlink:href="#/abap/expression/Constant"><text x="1483" y="352">Constant</text>
</a>
</g>
<path d="M1527 348h10"></path>
<path d="M1537 348h10"></path>
<g class="terminal ">
<path d="M1547 348h0"></path>
<path d="M1686 348h0"></path>
<rect x="1547" y="337" width="139" height="22" rx="10" ry="10"></rect>
<text x="1616.5" y="352">!"ParenRightW"</text>
</g>
</g>
<path d="M2162 348a10 10 0 0 0 10 -10v-280a10 10 0 0 1 10 -10"></path>
<path d="M377.5 48a10 10 0 0 1 10 10v310a10 10 0 0 0 10 10"></path>
<g>
<path d="M397.5 378h769.25"></path>
<path d="M1392.75 378h769.25"></path>
<g class="terminal ">
<path d="M1166.75 378h0"></path>
<path d="M1237.75 378h0"></path>
<rect x="1166.75" y="367" width="71" height="22" rx="10" ry="10"></rect>
<text x="1202.25" y="382">"WITH"</text>
</g>
<path d="M1237.75 378h10"></path>
<g>
<path d="M1247.75 378h0"></path>
<path d="M1392.75 378h0"></path>
<path d="M1247.75 378h20"></path>
<g class="non-terminal ">
<path d="M1267.75 378h0"></path>
<path d="M1372.75 378h0"></path>
<rect x="1267.75" y="367" width="105" height="22"></rect>
<a xlink:href="#/abap/expression/FieldChain"><text x="1320.25" y="382">FieldChain</text>
</a>
</g>
<path d="M1372.75 378h20"></path>
<path d="M1247.75 378a10 10 0 0 1 10 10v10a10 10 0 0 0 10 10"></path>
<g class="non-terminal ">
<path d="M1267.75 408h8.5"></path>
<path d="M1364.25 408h8.5"></path>
<rect x="1276.25" y="397" width="88" height="22"></rect>
<a xlink:href="#/abap/expression/Constant"><text x="1320.25" y="412">Constant</text>
</a>
</g>
<path d="M1372.75 408a10 10 0 0 0 10 -10v-10a10 10 0 0 1 10 -10"></path>
</g>
</g>
<path d="M2162 378a10 10 0 0 0 10 -10v-310a10 10 0 0 1 10 -10"></path>
<path d="M377.5 48a10 10 0 0 1 10 10v379a10 10 0 0 0 10 10"></path>
<g>
<path d="M397.5 447h0"></path>
<path d="M2162 447h0"></path>
<g class="terminal ">
<path d="M397.5 447h0"></path>
<path d="M545 447h0"></path>
<rect x="397.5" y="436" width="147.5" height="22" rx="10" ry="10"></rect>
<text x="471.25" y="451">"SELECT &#42; FROM"</text>
</g>
<path d="M545 447h10"></path>
<path d="M555 447h10"></path>
<g class="non-terminal ">
<path d="M565 447h0"></path>
<path d="M670 447h0"></path>
<rect x="565" y="436" width="105" height="22"></rect>
<a xlink:href="#/abap/expression/FieldChain"><text x="617.5" y="451">FieldChain</text>
</a>
</g>
<path d="M670 447h10"></path>
<path d="M680 447h10"></path>
<g class="terminal ">
<path d="M690 447h0"></path>
<path d="M769.5 447h0"></path>
<rect x="690" y="436" width="79.5" height="22" rx="10" ry="10"></rect>
<text x="729.75" y="451">"WHERE"</text>
</g>
<path d="M769.5 447h10"></path>
<path d="M779.5 447h10"></path>
<g>
<path d="M789.5 447h0"></path>
<path d="M1533 447h0"></path>
<g>
<path d="M789.5 447h0"></path>
<path d="M1085 447h0"></path>
<g class="non-terminal ">
<path d="M789.5 447h0"></path>
<path d="M894.5 447h0"></path>
<rect x="789.5" y="436" width="105" height="22"></rect>
<a xlink:href="#/abap/expression/FieldChain"><text x="842" y="451">FieldChain</text>
</a>
</g>
<path d="M894.5 447h10"></path>
<path d="M904.5 447h10"></path>
<g class="terminal ">
<path d="M914.5 447h0"></path>
<path d="M960 447h0"></path>
<rect x="914.5" y="436" width="45.5" height="22" rx="10" ry="10"></rect>
<text x="937.25" y="451">"="</text>
</g>
<path d="M960 447h10"></path>
<path d="M970 447h10"></path>
<g class="non-terminal ">
<path d="M980 447h0"></path>
<path d="M1085 447h0"></path>
<rect x="980" y="436" width="105" height="22"></rect>
<a xlink:href="#/abap/expression/FieldChain"><text x="1032.5" y="451">FieldChain</text>
</a>
</g>
</g>
<path d="M1085 447h10"></path>
<g>
<path d="M1095 447h0"></path>
<path d="M1533 447h0"></path>
<path d="M1095 447a10 10 0 0 0 10 -10v0a10 10 0 0 1 10 -10"></path>
<g>
<path d="M1115 427h398"></path>
</g>
<path d="M1513 427a10 10 0 0 1 10 10v0a10 10 0 0 0 10 10"></path>
<path d="M1095 447h20"></path>
<g>
<path d="M1115 447h0"></path>
<path d="M1513 447h0"></path>
<path d="M1115 447h10"></path>
<g>
<path d="M1125 447h0"></path>
<path d="M1503 447h0"></path>
<g class="terminal ">
<path d="M1125 447h0"></path>
<path d="M1187.5 447h0"></path>
<rect x="1125" y="436" width="62.5" height="22" rx="10" ry="10"></rect>
<text x="1156.25" y="451">"AND"</text>
</g>
<path d="M1187.5 447h10"></path>
<path d="M1197.5 447h10"></path>
<g>
<path d="M1207.5 447h0"></path>
<path d="M1503 447h0"></path>
<g class="non-terminal ">
<path d="M1207.5 447h0"></path>
<path d="M1312.5 447h0"></path>
<rect x="1207.5" y="436" width="105" height="22"></rect>
<a xlink:href="#/abap/expression/FieldChain"><text x="1260" y="451">FieldChain</text>
</a>
</g>
<path d="M1312.5 447h10"></path>
<path d="M1322.5 447h10"></path>
<g class="terminal ">
<path d="M1332.5 447h0"></path>
<path d="M1378 447h0"></path>
<rect x="1332.5" y="436" width="45.5" height="22" rx="10" ry="10"></rect>
<text x="1355.25" y="451">"="</text>
</g>
<path d="M1378 447h10"></path>
<path d="M1388 447h10"></path>
<g class="non-terminal ">
<path d="M1398 447h0"></path>
<path d="M1503 447h0"></path>
<rect x="1398" y="436" width="105" height="22"></rect>
<a xlink:href="#/abap/expression/FieldChain"><text x="1450.5" y="451">FieldChain</text>
</a>
</g>
</g>
</g>
<path d="M1503 447h10"></path>
<path d="M1125 447a10 10 0 0 0 -10 10v0a10 10 0 0 0 10 10"></path>
<g>
<path d="M1125 467h378"></path>
</g>
<path d="M1503 467a10 10 0 0 0 10 -10v0a10 10 0 0 0 -10 -10"></path>
</g>
<path d="M1513 447h20"></path>
</g>
</g>
<path d="M1533 447h10"></path>
<g>
<path d="M1543 447h0"></path>
<path d="M1779 447h0"></path>
<path d="M1543 447a10 10 0 0 0 10 -10v0a10 10 0 0 1 10 -10"></path>
<g>
<path d="M1563 427h196"></path>
</g>
<path d="M1759 427a10 10 0 0 1 10 10v0a10 10 0 0 0 10 10"></path>
<path d="M1543 447h20"></path>
<g>
<path d="M1563 447h0"></path>
<path d="M1759 447h0"></path>
<g class="terminal ">
<path d="M1563 447h0"></path>
<path d="M1634 447h0"></path>
<rect x="1563" y="436" width="71" height="22" rx="10" ry="10"></rect>
<text x="1598.5" y="451">"INTO"</text>
</g>
<path d="M1634 447h10"></path>
<path d="M1644 447h10"></path>
<g class="non-terminal ">
<path d="M1654 447h0"></path>
<path d="M1759 447h0"></path>
<rect x="1654" y="436" width="105" height="22"></rect>
<a xlink:href="#/abap/expression/FieldChain"><text x="1706.5" y="451">FieldChain</text>
</a>
</g>
</g>
<path d="M1759 447h20"></path>
</g>
<g>
<path d="M1779 447h0"></path>
<path d="M2162 447h0"></path>
<path d="M1779 447a10 10 0 0 0 10 -10v0a10 10 0 0 1 10 -10"></path>
<g>
<path d="M1799 427h343"></path>
</g>
<path d="M2142 427a10 10 0 0 1 10 10v0a10 10 0 0 0 10 10"></path>
<path d="M1779 447h20"></path>
<g class="terminal ">
<path d="M1799 447h0"></path>
<path d="M2142 447h0"></path>
<rect x="1799" y="436" width="343" height="22" rx="10" ry="10"></rect>
<text x="1970.5" y="451">"WHENEVER NOT FOUND SEND ERRORMESSAGE"</text>
</g>
<path d="M2142 447h20"></path>
</g>
</g>
<path d="M2162 447a10 10 0 0 0 10 -10v-379a10 10 0 0 1 10 -10"></path>
</g>
<path d="M2182 48h20"></path>
</g>
</g>
</g>
<path d="M2202 48h10"></path>
<path d="M 2212 48 h 20 m -10 -10 v 20 m 10 -20 v 20"></path>
</g>
</svg>
