<svg xmlns="http://www.w3.org/2000/svg" xmlns:xlink="http://www.w3.org/1999/xlink" class="railroad-diagram" width="2314" height="410" viewBox="0 0 2314 410">
<defs>
<style type="text/css"><![CDATA[
path {
stroke-width: 3;
stroke: black;
fill: rgba(0,0,0,0);
}
text {
font: bold 14px monospace;
text-anchor: middle;
}
text.diagram-text {
font-size: 12px;
}
a {
fill: blue;
}
text.diagram-arrow {
font-size: 16px;
}
text.label {
text-anchor: start;
}
text.comment {
font: italic 12px monospace;
}
rect {
stroke-width: 3;
stroke: black;
fill: #BCBCBC;
}
path.diagram-text {
stroke-width: 3;
stroke: black;
fill: #BCBCBC;
cursor: help;
}
]]></style>
</defs>
<g transform="translate(.5 .5)">
<g>
<path d="M20 30v20m10 -20v20m-10 -10h20"></path>
</g>
<path d="M40 40h10"></path>
<g>
<path d="M50 40h0"></path>
<path d="M2264 40h0"></path>
<g class="terminal">
<path d="M50 40h0"></path>
<path d="M138 40h0"></path>
<rect x="50" y="29" width="88" height="22" rx="10" ry="10"></rect>
<text x="94" y="44">"EXPORT"</text>
</g>
<path d="M138 40h10"></path>
<g>
<path d="M148 40h0"></path>
<path d="M603.5 40h0"></path>
<path d="M148 40h20"></path>
<g>
<path d="M168 40h0"></path>
<path d="M583.5 40h0"></path>
<path d="M168 40h10"></path>
<g>
<path d="M178 40h0"></path>
<path d="M573.5 40h0"></path>
<path d="M178 40h20"></path>
<g>
<path d="M198 40h0"></path>
<path d="M553.5 40h0"></path>
<g>
<path d="M198 40h0"></path>
<path d="M351.5 40h0"></path>
<path d="M198 40h20"></path>
<g class="non-terminal">
<path d="M218 40h0"></path>
<path d="M306 40h25.5"></path>
<rect x="218" y="29" width="88" height="22"></rect>
<a xlink:href="#/abap/expression/FieldSub"><text x="262" y="44">FieldSub</text>
</a>
</g>
<path d="M331.5 40h20"></path>
<path d="M198 40a10 10 0 0 1 10 10v10a10 10 0 0 0 10 10"></path>
<g class="non-terminal">
<path d="M218 70h0"></path>
<path d="M331.5 70h0"></path>
<rect x="218" y="59" width="113.5" height="22"></rect>
<a xlink:href="#/abap/expression/FieldSymbol"><text x="274.75" y="74">FieldSymbol</text>
</a>
</g>
<path d="M331.5 70a10 10 0 0 0 10 -10v-10a10 10 0 0 1 10 -10"></path>
</g>
<path d="M351.5 40h10"></path>
<g>
<path d="M361.5 40h0"></path>
<path d="M553.5 40h0"></path>
<g>
<path d="M361.5 40h0"></path>
<path d="M472.5 40h0"></path>
<path d="M361.5 40h20"></path>
<g class="terminal">
<path d="M381.5 40h0"></path>
<path d="M452.5 40h0"></path>
<rect x="381.5" y="29" width="71" height="22" rx="10" ry="10"></rect>
<text x="417" y="44">"FROM"</text>
</g>
<path d="M452.5 40h20"></path>
<path d="M361.5 40a10 10 0 0 1 10 10v10a10 10 0 0 0 10 10"></path>
<g class="terminal">
<path d="M381.5 70h0"></path>
<path d="M427 70h25.5"></path>
<rect x="381.5" y="59" width="45.5" height="22" rx="10" ry="10"></rect>
<text x="404.25" y="74">"="</text>
</g>
<path d="M452.5 70a10 10 0 0 0 10 -10v-10a10 10 0 0 1 10 -10"></path>
</g>
<path d="M472.5 40h10"></path>
<g class="non-terminal">
<path d="M482.5 40h0"></path>
<path d="M553.5 40h0"></path>
<rect x="482.5" y="29" width="71" height="22"></rect>
<a xlink:href="#/abap/expression/Source"><text x="518" y="44">Source</text>
</a>
</g>
</g>
</g>
<path d="M553.5 40h20"></path>
<path d="M178 40a10 10 0 0 1 10 10v40a10 10 0 0 0 10 10"></path>
<g>
<path d="M198 100h0"></path>
<path d="M351.5 100h202"></path>
<path d="M198 100h20"></path>
<g class="non-terminal">
<path d="M218 100h0"></path>
<path d="M306 100h25.5"></path>
<rect x="218" y="89" width="88" height="22"></rect>
<a xlink:href="#/abap/expression/FieldSub"><text x="262" y="104">FieldSub</text>
</a>
</g>
<path d="M331.5 100h20"></path>
<path d="M198 100a10 10 0 0 1 10 10v10a10 10 0 0 0 10 10"></path>
<g class="non-terminal">
<path d="M218 130h0"></path>
<path d="M331.5 130h0"></path>
<rect x="218" y="119" width="113.5" height="22"></rect>
<a xlink:href="#/abap/expression/FieldSymbol"><text x="274.75" y="134">FieldSymbol</text>
</a>
</g>
<path d="M331.5 130a10 10 0 0 0 10 -10v-10a10 10 0 0 1 10 -10"></path>
</g>
<path d="M553.5 100a10 10 0 0 0 10 -10v-40a10 10 0 0 1 10 -10"></path>
</g>
<path d="M573.5 40h10"></path>
<path d="M178 40a10 10 0 0 0 -10 10v89a10 10 0 0 0 10 10"></path>
<g>
<path d="M178 149h395.5"></path>
</g>
<path d="M573.5 149a10 10 0 0 0 10 -10v-89a10 10 0 0 0 -10 -10"></path>
</g>
<path d="M583.5 40h20"></path>
<path d="M148 40a10 10 0 0 1 10 10v108a10 10 0 0 0 10 10"></path>
<g class="non-terminal">
<path d="M168 168h0"></path>
<path d="M247.5 168h336"></path>
<rect x="168" y="157" width="79.5" height="22"></rect>
<a xlink:href="#/abap/expression/Dynamic"><text x="207.75" y="172">Dynamic</text>
</a>
</g>
<path d="M583.5 168a10 10 0 0 0 10 -10v-108a10 10 0 0 1 10 -10"></path>
<path d="M148 40a10 10 0 0 1 10 10v138a10 10 0 0 0 10 10"></path>
<g class="non-terminal">
<path d="M168 198h0"></path>
<path d="M256 198h327.5"></path>
<rect x="168" y="187" width="88" height="22"></rect>
<a xlink:href="#/abap/expression/Constant"><text x="212" y="202">Constant</text>
</a>
</g>
<path d="M583.5 198a10 10 0 0 0 10 -10v-138a10 10 0 0 1 10 -10"></path>
</g>
<path d="M603.5 40h10"></path>
<g class="terminal">
<path d="M613.5 40h0"></path>
<path d="M667.5 40h0"></path>
<rect x="613.5" y="29" width="54" height="22" rx="10" ry="10"></rect>
<text x="640.5" y="44">"TO"</text>
</g>
<path d="M667.5 40h10"></path>
<g>
<path d="M677.5 40h0"></path>
<path d="M1694 40h0"></path>
<path d="M677.5 40h20"></path>
<g>
<path d="M697.5 40h0"></path>
<path d="M919 40h755"></path>
<g class="terminal">
<path d="M697.5 40h0"></path>
<path d="M828 40h0"></path>
<rect x="697.5" y="29" width="130.5" height="22" rx="10" ry="10"></rect>
<text x="762.75" y="44">"DATA BUFFER"</text>
</g>
<path d="M828 40h10"></path>
<path d="M838 40h10"></path>
<g class="non-terminal">
<path d="M848 40h0"></path>
<path d="M919 40h0"></path>
<rect x="848" y="29" width="71" height="22"></rect>
<a xlink:href="#/abap/expression/Target"><text x="883.5" y="44">Target</text>
</a>
</g>
</g>
<path d="M1674 40h20"></path>
<path d="M677.5 40a10 10 0 0 1 10 10v19a10 10 0 0 0 10 10"></path>
<g>
<path d="M697.5 79h0"></path>
<path d="M980.5 79h693.5"></path>
<g class="terminal">
<path d="M697.5 79h0"></path>
<path d="M785.5 79h0"></path>
<rect x="697.5" y="68" width="88" height="22" rx="10" ry="10"></rect>
<text x="741.5" y="83">"MEMORY"</text>
</g>
<path d="M785.5 79h10"></path>
<g>
<path d="M795.5 79h0"></path>
<path d="M980.5 79h0"></path>
<path d="M795.5 79a10 10 0 0 0 10 -10v0a10 10 0 0 1 10 -10"></path>
<g>
<path d="M815.5 59h145"></path>
</g>
<path d="M960.5 59a10 10 0 0 1 10 10v0a10 10 0 0 0 10 10"></path>
<path d="M795.5 79h20"></path>
<g>
<path d="M815.5 79h0"></path>
<path d="M960.5 79h0"></path>
<g class="terminal">
<path d="M815.5 79h0"></path>
<path d="M869.5 79h0"></path>
<rect x="815.5" y="68" width="54" height="22" rx="10" ry="10"></rect>
<text x="842.5" y="83">"ID"</text>
</g>
<path d="M869.5 79h10"></path>
<path d="M879.5 79h10"></path>
<g class="non-terminal">
<path d="M889.5 79h0"></path>
<path d="M960.5 79h0"></path>
<rect x="889.5" y="68" width="71" height="22"></rect>
<a xlink:href="#/abap/expression/Source"><text x="925" y="83">Source</text>
</a>
</g>
</g>
<path d="M960.5 79h20"></path>
</g>
</g>
<path d="M1674 79a10 10 0 0 0 10 -10v-19a10 10 0 0 1 10 -10"></path>
<path d="M677.5 40a10 10 0 0 1 10 10v49a10 10 0 0 0 10 10"></path>
<g>
<path d="M697.5 109h0"></path>
<path d="M1601.5 109h72.5"></path>
<g class="terminal">
<path d="M697.5 109h0"></path>
<path d="M802.5 109h0"></path>
<rect x="697.5" y="98" width="105" height="22" rx="10" ry="10"></rect>
<text x="750" y="113">"DATABASE"</text>
</g>
<path d="M802.5 109h10"></path>
<path d="M812.5 109h10"></path>
<g>
<path d="M822.5 109h0"></path>
<path d="M1319.5 109h0"></path>
<g class="non-terminal">
<path d="M822.5 109h0"></path>
<path d="M1004 109h0"></path>
<rect x="822.5" y="98" width="181.5" height="22"></rect>
<a xlink:href="#/abap/expression/NamespaceSimpleName"><text x="913.25" y="113">NamespaceSimpleName</text>
</a>
</g>
<path d="M1004 109h10"></path>
<path d="M1014 109h10"></path>
<g class="terminal">
<path d="M1024 109h0"></path>
<path d="M1078 109h0"></path>
<rect x="1024" y="98" width="54" height="22" rx="10" ry="10"></rect>
<text x="1051" y="113">!"("</text>
</g>
<path d="M1078 109h10"></path>
<path d="M1088 109h10"></path>
<g class="terminal">
<path d="M1098 109h0"></path>
<path d="M1237 109h0"></path>
<rect x="1098" y="98" width="139" height="22" rx="10" ry="10"></rect>
<text x="1167.5" y="113">^&#91;\w$%\^~&#93;{2}$</text>
</g>
<path d="M1237 109h10"></path>
<path d="M1247 109h10"></path>
<g class="terminal">
<path d="M1257 109h0"></path>
<path d="M1319.5 109h0"></path>
<rect x="1257" y="98" width="62.5" height="22" rx="10" ry="10"></rect>
<text x="1288.25" y="113">!") "</text>
</g>
</g>
<path d="M1319.5 109h10"></path>
<path d="M1329.5 109h10"></path>
<g>
<path d="M1339.5 109h0"></path>
<path d="M1601.5 109h0"></path>
<path d="M1369.5 109h10"></path>
<g>
<path d="M1379.5 109h0"></path>
<path d="M1571.5 109h0"></path>
<g>
<path d="M1379.5 109h0"></path>
<path d="M1490.5 109h0"></path>
<path d="M1379.5 109h20"></path>
<g class="terminal">
<path d="M1399.5 109h0"></path>
<path d="M1470.5 109h0"></path>
<rect x="1399.5" y="98" width="71" height="22" rx="10" ry="10"></rect>
<text x="1435" y="113">"FROM"</text>
</g>
<path d="M1470.5 109h20"></path>
<path d="M1379.5 109a10 10 0 0 1 10 10v10a10 10 0 0 0 10 10"></path>
<g class="terminal">
<path d="M1399.5 139h0"></path>
<path d="M1445 139h25.5"></path>
<rect x="1399.5" y="128" width="45.5" height="22" rx="10" ry="10"></rect>
<text x="1422.25" y="143">"="</text>
</g>
<path d="M1470.5 139a10 10 0 0 0 10 -10v-10a10 10 0 0 1 10 -10"></path>
</g>
<path d="M1490.5 109h10"></path>
<g class="non-terminal">
<path d="M1500.5 109h0"></path>
<path d="M1571.5 109h0"></path>
<rect x="1500.5" y="98" width="71" height="22"></rect>
<a xlink:href="#/abap/expression/Source"><text x="1536" y="113">Source</text>
</a>
</g>
</g>
<path d="M1571.5 109h10"></path>
<path d="M1369.5 109v50a10 10 0 0 0 10 10"></path>
<g>
<path d="M1379.5 169h0"></path>
<path d="M1558.5 169h13"></path>
<g class="terminal">
<path d="M1379.5 169h0"></path>
<path d="M1467.5 169h0"></path>
<rect x="1379.5" y="158" width="88" height="22" rx="10" ry="10"></rect>
<text x="1423.5" y="173">"CLIENT"</text>
</g>
<path d="M1467.5 169h10"></path>
<path d="M1477.5 169h10"></path>
<g class="non-terminal">
<path d="M1487.5 169h0"></path>
<path d="M1558.5 169h0"></path>
<rect x="1487.5" y="158" width="71" height="22"></rect>
<a xlink:href="#/abap/expression/Source"><text x="1523" y="173">Source</text>
</a>
</g>
</g>
<path d="M1571.5 169a10 10 0 0 0 10 -10v-50"></path>
<path d="M1369.5 109v80a10 10 0 0 0 10 10"></path>
<g>
<path d="M1379.5 199h0"></path>
<path d="M1524.5 199h47"></path>
<g class="terminal">
<path d="M1379.5 199h0"></path>
<path d="M1433.5 199h0"></path>
<rect x="1379.5" y="188" width="54" height="22" rx="10" ry="10"></rect>
<text x="1406.5" y="203">"ID"</text>
</g>
<path d="M1433.5 199h10"></path>
<path d="M1443.5 199h10"></path>
<g class="non-terminal">
<path d="M1453.5 199h0"></path>
<path d="M1524.5 199h0"></path>
<rect x="1453.5" y="188" width="71" height="22"></rect>
<a xlink:href="#/abap/expression/Source"><text x="1489" y="203">Source</text>
</a>
</g>
</g>
<path d="M1571.5 199a10 10 0 0 0 10 -10v-80"></path>
<path d="M1369.5 109v110a10 10 0 0 0 10 10"></path>
<g>
<path d="M1379.5 229h0"></path>
<path d="M1550 229h21.5"></path>
<g class="terminal">
<path d="M1379.5 229h0"></path>
<path d="M1459 229h0"></path>
<rect x="1379.5" y="218" width="79.5" height="22" rx="10" ry="10"></rect>
<text x="1419.25" y="233">"USING"</text>
</g>
<path d="M1459 229h10"></path>
<path d="M1469 229h10"></path>
<g class="non-terminal">
<path d="M1479 229h0"></path>
<path d="M1550 229h0"></path>
<rect x="1479" y="218" width="71" height="22"></rect>
<a xlink:href="#/abap/expression/Source"><text x="1514.5" y="233">Source</text>
</a>
</g>
</g>
<path d="M1571.5 229a10 10 0 0 0 10 -10v-110"></path>
<g class="diagram-text">
<title>take one or more branches, once each, in any order</title>
<path d="M 1369.5 99 h -26 a 4 4 0 0 0 -4 4 v 12 a 4 4 0 0 0 4 4 h 26 z" class="diagram-text"></path>
<text x="1354.5" y="113" class="diagram-text">1+</text>
<path d="M 1581.5 99 h 16 a 4 4 0 0 1 4 4 v 12 a 4 4 0 0 1 -4 4 h -16 z" class="diagram-text"></path>
<path d="M 1588.5 107 a 4 4 0 1 0 6 -1 m 2.75 -1 h -4 v 4 m 0 -3 h 2" style="stroke-width: 1.75"></path>
</g>
</g>
</g>
<path d="M1674 109a10 10 0 0 0 10 -10v-49a10 10 0 0 1 10 -10"></path>
<path d="M677.5 40a10 10 0 0 1 10 10v199a10 10 0 0 0 10 10"></path>
<g>
<path d="M697.5 259h0"></path>
<path d="M944.5 259h729.5"></path>
<g class="terminal">
<path d="M697.5 259h0"></path>
<path d="M853.5 259h0"></path>
<rect x="697.5" y="248" width="156" height="22" rx="10" ry="10"></rect>
<text x="775.5" y="263">"INTERNAL TABLE"</text>
</g>
<path d="M853.5 259h10"></path>
<path d="M863.5 259h10"></path>
<g class="non-terminal">
<path d="M873.5 259h0"></path>
<path d="M944.5 259h0"></path>
<rect x="873.5" y="248" width="71" height="22"></rect>
<a xlink:href="#/abap/expression/Target"><text x="909" y="263">Target</text>
</a>
</g>
</g>
<path d="M1674 259a10 10 0 0 0 10 -10v-199a10 10 0 0 1 10 -10"></path>
<path d="M677.5 40a10 10 0 0 1 10 10v229a10 10 0 0 0 10 10"></path>
<g>
<path d="M697.5 289h0"></path>
<path d="M1674 289h0"></path>
<g>
<path d="M697.5 289h0"></path>
<path d="M885 289h0"></path>
<path d="M697.5 289h20"></path>
<g class="terminal">
<path d="M717.5 289h0"></path>
<path d="M865 289h0"></path>
<rect x="717.5" y="278" width="147.5" height="22" rx="10" ry="10"></rect>
<text x="791.25" y="293">"SHARED MEMORY"</text>
</g>
<path d="M865 289h20"></path>
<path d="M697.5 289a10 10 0 0 1 10 10v10a10 10 0 0 0 10 10"></path>
<g class="terminal">
<path d="M717.5 319h0"></path>
<path d="M865 319h0"></path>
<rect x="717.5" y="308" width="147.5" height="22" rx="10" ry="10"></rect>
<text x="791.25" y="323">"SHARED BUFFER"</text>
</g>
<path d="M865 319a10 10 0 0 0 10 -10v-10a10 10 0 0 1 10 -10"></path>
</g>
<path d="M885 289h10"></path>
<g>
<path d="M895 289h0"></path>
<path d="M1392 289h0"></path>
<g class="non-terminal">
<path d="M895 289h0"></path>
<path d="M1076.5 289h0"></path>
<rect x="895" y="278" width="181.5" height="22"></rect>
<a xlink:href="#/abap/expression/NamespaceSimpleName"><text x="985.75" y="293">NamespaceSimpleName</text>
</a>
</g>
<path d="M1076.5 289h10"></path>
<path d="M1086.5 289h10"></path>
<g class="terminal">
<path d="M1096.5 289h0"></path>
<path d="M1150.5 289h0"></path>
<rect x="1096.5" y="278" width="54" height="22" rx="10" ry="10"></rect>
<text x="1123.5" y="293">!"("</text>
</g>
<path d="M1150.5 289h10"></path>
<path d="M1160.5 289h10"></path>
<g class="terminal">
<path d="M1170.5 289h0"></path>
<path d="M1309.5 289h0"></path>
<rect x="1170.5" y="278" width="139" height="22" rx="10" ry="10"></rect>
<text x="1240" y="293">^&#91;\w$%\^~&#93;{2}$</text>
</g>
<path d="M1309.5 289h10"></path>
<path d="M1319.5 289h10"></path>
<g class="terminal">
<path d="M1329.5 289h0"></path>
<path d="M1392 289h0"></path>
<rect x="1329.5" y="278" width="62.5" height="22" rx="10" ry="10"></rect>
<text x="1360.75" y="293">!") "</text>
</g>
</g>
<path d="M1392 289h10"></path>
<path d="M1402 289h10"></path>
<g>
<path d="M1412 289h0"></path>
<path d="M1674 289h0"></path>
<path d="M1442 289h10"></path>
<g>
<path d="M1452 289h0"></path>
<path d="M1644 289h0"></path>
<g>
<path d="M1452 289h0"></path>
<path d="M1563 289h0"></path>
<path d="M1452 289h20"></path>
<g class="terminal">
<path d="M1472 289h0"></path>
<path d="M1543 289h0"></path>
<rect x="1472" y="278" width="71" height="22" rx="10" ry="10"></rect>
<text x="1507.5" y="293">"FROM"</text>
</g>
<path d="M1543 289h20"></path>
<path d="M1452 289a10 10 0 0 1 10 10v10a10 10 0 0 0 10 10"></path>
<g class="terminal">
<path d="M1472 319h0"></path>
<path d="M1517.5 319h25.5"></path>
<rect x="1472" y="308" width="45.5" height="22" rx="10" ry="10"></rect>
<text x="1494.75" y="323">"="</text>
</g>
<path d="M1543 319a10 10 0 0 0 10 -10v-10a10 10 0 0 1 10 -10"></path>
</g>
<path d="M1563 289h10"></path>
<g class="non-terminal">
<path d="M1573 289h0"></path>
<path d="M1644 289h0"></path>
<rect x="1573" y="278" width="71" height="22"></rect>
<a xlink:href="#/abap/expression/Source"><text x="1608.5" y="293">Source</text>
</a>
</g>
</g>
<path d="M1644 289h10"></path>
<path d="M1442 289v50a10 10 0 0 0 10 10"></path>
<g>
<path d="M1452 349h0"></path>
<path d="M1631 349h13"></path>
<g class="terminal">
<path d="M1452 349h0"></path>
<path d="M1540 349h0"></path>
<rect x="1452" y="338" width="88" height="22" rx="10" ry="10"></rect>
<text x="1496" y="353">"CLIENT"</text>
</g>
<path d="M1540 349h10"></path>
<path d="M1550 349h10"></path>
<g class="non-terminal">
<path d="M1560 349h0"></path>
<path d="M1631 349h0"></path>
<rect x="1560" y="338" width="71" height="22"></rect>
<a xlink:href="#/abap/expression/Source"><text x="1595.5" y="353">Source</text>
</a>
</g>
</g>
<path d="M1644 349a10 10 0 0 0 10 -10v-50"></path>
<path d="M1442 289v80a10 10 0 0 0 10 10"></path>
<g>
<path d="M1452 379h0"></path>
<path d="M1597 379h47"></path>
<g class="terminal">
<path d="M1452 379h0"></path>
<path d="M1506 379h0"></path>
<rect x="1452" y="368" width="54" height="22" rx="10" ry="10"></rect>
<text x="1479" y="383">"ID"</text>
</g>
<path d="M1506 379h10"></path>
<path d="M1516 379h10"></path>
<g class="non-terminal">
<path d="M1526 379h0"></path>
<path d="M1597 379h0"></path>
<rect x="1526" y="368" width="71" height="22"></rect>
<a xlink:href="#/abap/expression/Source"><text x="1561.5" y="383">Source</text>
</a>
</g>
</g>
<path d="M1644 379a10 10 0 0 0 10 -10v-80"></path>
<g class="diagram-text">
<title>take one or more branches, once each, in any order</title>
<path d="M 1442 279 h -26 a 4 4 0 0 0 -4 4 v 12 a 4 4 0 0 0 4 4 h 26 z" class="diagram-text"></path>
<text x="1427" y="293" class="diagram-text">1+</text>
<path d="M 1654 279 h 16 a 4 4 0 0 1 4 4 v 12 a 4 4 0 0 1 -4 4 h -16 z" class="diagram-text"></path>
<path d="M 1661 287 a 4 4 0 1 0 6 -1 m 2.75 -1 h -4 v 4 m 0 -3 h 2" style="stroke-width: 1.75"></path>
</g>
</g>
</g>
<path d="M1674 289a10 10 0 0 0 10 -10v-229a10 10 0 0 1 10 -10"></path>
</g>
<g>
<path d="M1694 40h0"></path>
<path d="M1977 40h0"></path>
<path d="M1694 40a10 10 0 0 0 10 -10v0a10 10 0 0 1 10 -10"></path>
<g>
<path d="M1714 20h243"></path>
</g>
<path d="M1957 20a10 10 0 0 1 10 10v0a10 10 0 0 0 10 10"></path>
<path d="M1694 40h20"></path>
<g>
<path d="M1714 40h0"></path>
<path d="M1957 40h0"></path>
<g class="terminal">
<path d="M1714 40h0"></path>
<path d="M1844.5 40h0"></path>
<rect x="1714" y="29" width="130.5" height="22" rx="10" ry="10"></rect>
<text x="1779.25" y="44">"COMPRESSION"</text>
</g>
<path d="M1844.5 40h10"></path>
<g>
<path d="M1854.5 40h0"></path>
<path d="M1957 40h0"></path>
<path d="M1854.5 40h20"></path>
<g class="terminal">
<path d="M1874.5 40h0"></path>
<path d="M1928.5 40h8.5"></path>
<rect x="1874.5" y="29" width="54" height="22" rx="10" ry="10"></rect>
<text x="1901.5" y="44">"ON"</text>
</g>
<path d="M1937 40h20"></path>
<path d="M1854.5 40a10 10 0 0 1 10 10v10a10 10 0 0 0 10 10"></path>
<g class="terminal">
<path d="M1874.5 70h0"></path>
<path d="M1937 70h0"></path>
<rect x="1874.5" y="59" width="62.5" height="22" rx="10" ry="10"></rect>
<text x="1905.75" y="74">"OFF"</text>
</g>
<path d="M1937 70a10 10 0 0 0 10 -10v-10a10 10 0 0 1 10 -10"></path>
</g>
</g>
<path d="M1957 40h20"></path>
</g>
<g>
<path d="M1977 40h0"></path>
<path d="M2264 40h0"></path>
<path d="M1977 40a10 10 0 0 0 10 -10v0a10 10 0 0 1 10 -10"></path>
<g>
<path d="M1997 20h247"></path>
</g>
<path d="M2244 20a10 10 0 0 1 10 10v0a10 10 0 0 0 10 10"></path>
<path d="M1977 40h20"></path>
<g>
<path d="M1997 40h0"></path>
<path d="M2244 40h0"></path>
<g class="terminal">
<path d="M1997 40h0"></path>
<path d="M2153 40h0"></path>
<rect x="1997" y="29" width="156" height="22" rx="10" ry="10"></rect>
<text x="2075" y="44">"CODE PAGE HINT"</text>
</g>
<path d="M2153 40h10"></path>
<path d="M2163 40h10"></path>
<g class="non-terminal">
<path d="M2173 40h0"></path>
<path d="M2244 40h0"></path>
<rect x="2173" y="29" width="71" height="22"></rect>
<a xlink:href="#/abap/expression/Source"><text x="2208.5" y="44">Source</text>
</a>
</g>
</g>
<path d="M2244 40h20"></path>
</g>
</g>
<path d="M2264 40h10"></path>
<path d="M 2274 40 h 20 m -10 -10 v 20 m 10 -20 v 20"></path>
</g>
</svg>
