<svg xmlns="http://www.w3.org/2000/svg" xmlns:xlink="http://www.w3.org/1999/xlink" class="railroad-diagram" width="1010" height="242" viewBox="0 0 1010 242">
<defs>
<style type="text/css"><![CDATA[
path {
stroke-width: 3;
stroke: black;
fill: rgba(0,0,0,0);
}
text {
font: bold 14px monospace;
text-anchor: middle;
}
text.diagram-text {
font-size: 12px;
}
a {
fill: blue;
}
text.diagram-arrow {
font-size: 16px;
}
text.label {
text-anchor: start;
}
text.comment {
font: italic 12px monospace;
}
rect {
stroke-width: 3;
stroke: black;
fill: #BCBCBC;
}
path.diagram-text {
stroke-width: 3;
stroke: black;
fill: #BCBCBC;
cursor: help;
}
]]></style>
</defs>
<g transform="translate(.5 .5)">
<g>
<path d="M20 21v20m10 -20v20m-10 -10h20"></path>
</g>
<path d="M40 31h10"></path>
<g>
<path d="M50 31h0"></path>
<path d="M960 31h0"></path>
<g class="terminal">
<path d="M50 31h0"></path>
<path d="M248.5 31h0"></path>
<rect x="50" y="20" width="198.5" height="22" rx="10" ry="10"></rect>
<text x="149.25" y="35">"CALL TRANSFORMATION"</text>
</g>
<path d="M248.5 31h10"></path>
<g>
<path d="M258.5 31h0"></path>
<path d="M480 31h0"></path>
<path d="M258.5 31h20"></path>
<g class="non-terminal">
<path d="M278.5 31h0"></path>
<path d="M460 31h0"></path>
<rect x="278.5" y="20" width="181.5" height="22"></rect>
<a xlink:href="#/abap/expression/NamespaceSimpleName"><text x="369.25" y="35">NamespaceSimpleName</text>
</a>
</g>
<path d="M460 31h20"></path>
<path d="M258.5 31a10 10 0 0 1 10 10v10a10 10 0 0 0 10 10"></path>
<g class="non-terminal">
<path d="M278.5 61h0"></path>
<path d="M358 61h102"></path>
<rect x="278.5" y="50" width="79.5" height="22"></rect>
<a xlink:href="#/abap/expression/Dynamic"><text x="318.25" y="65">Dynamic</text>
</a>
</g>
<path d="M460 61a10 10 0 0 0 10 -10v-10a10 10 0 0 1 10 -10"></path>
</g>
<path d="M480 31h10"></path>
<g>
<path d="M490 31h0"></path>
<path d="M960 31h0"></path>
<path d="M520 31h10"></path>
<g>
<path d="M530 31h0"></path>
<path d="M879 31h51"></path>
<g class="terminal">
<path d="M530 31h0"></path>
<path d="M626.5 31h0"></path>
<rect x="530" y="20" width="96.5" height="22" rx="10" ry="10"></rect>
<text x="578.25" y="35">"OPTIONS"</text>
</g>
<path d="M626.5 31h10"></path>
<path d="M636.5 31h10"></path>
<g class="non-terminal">
<path d="M646.5 31h0"></path>
<path d="M879 31h0"></path>
<rect x="646.5" y="20" width="232.5" height="22"></rect>
<a xlink:href="#/abap/expression/CallTransformationOptions"><text x="762.75" y="35">CallTransformationOptions</text>
</a>
</g>
</g>
<path d="M930 31h10"></path>
<path d="M520 31v20a10 10 0 0 0 10 10"></path>
<g>
<path d="M530 61h0"></path>
<path d="M930 61h0"></path>
<g class="terminal">
<path d="M530 61h0"></path>
<path d="M652 61h0"></path>
<rect x="530" y="50" width="122" height="22" rx="10" ry="10"></rect>
<text x="591" y="65">"PARAMETERS"</text>
</g>
<path d="M652 61h10"></path>
<path d="M662 61h10"></path>
<g class="non-terminal">
<path d="M672 61h0"></path>
<path d="M930 61h0"></path>
<rect x="672" y="50" width="258" height="22"></rect>
<a xlink:href="#/abap/expression/CallTransformationParameters"><text x="801" y="65">CallTransformationParameters</text>
</a>
</g>
</g>
<path d="M930 61a10 10 0 0 0 10 -10v-20"></path>
<path d="M520 31v50a10 10 0 0 0 10 10"></path>
<g>
<path d="M530 91h0"></path>
<path d="M904.5 91h25.5"></path>
<g class="terminal">
<path d="M530 91h0"></path>
<path d="M626.5 91h0"></path>
<rect x="530" y="80" width="96.5" height="22" rx="10" ry="10"></rect>
<text x="578.25" y="95">"OBJECTS"</text>
</g>
<path d="M626.5 91h10"></path>
<path d="M636.5 91h10"></path>
<g class="non-terminal">
<path d="M646.5 91h0"></path>
<path d="M904.5 91h0"></path>
<rect x="646.5" y="80" width="258" height="22"></rect>
<a xlink:href="#/abap/expression/CallTransformationParameters"><text x="775.5" y="95">CallTransformationParameters</text>
</a>
</g>
</g>
<path d="M930 91a10 10 0 0 0 10 -10v-50"></path>
<path d="M520 31v80a10 10 0 0 0 10 10"></path>
<g>
<path d="M530 121h0"></path>
<path d="M926 121h4"></path>
<g class="terminal">
<path d="M530 121h0"></path>
<path d="M618 121h0"></path>
<rect x="530" y="110" width="88" height="22" rx="10" ry="10"></rect>
<text x="574" y="125">"SOURCE"</text>
</g>
<path d="M618 121h10"></path>
<g>
<path d="M628 121h0"></path>
<path d="M926 121h0"></path>
<path d="M628 121h20"></path>
<g class="non-terminal">
<path d="M648 121h0"></path>
<path d="M906 121h0"></path>
<rect x="648" y="110" width="258" height="22"></rect>
<a xlink:href="#/abap/expression/CallTransformationParameters"><text x="777" y="125">CallTransformationParameters</text>
</a>
</g>
<path d="M906 121h20"></path>
<path d="M628 121a10 10 0 0 1 10 10v10a10 10 0 0 0 10 10"></path>
<g>
<path d="M648 151h0"></path>
<path d="M861 151h45"></path>
<g class="terminal">
<path d="M648 151h0"></path>
<path d="M710.5 151h0"></path>
<rect x="648" y="140" width="62.5" height="22" rx="10" ry="10"></rect>
<text x="679.25" y="155">"XML"</text>
</g>
<path d="M710.5 151h10"></path>
<path d="M720.5 151h10"></path>
<g class="non-terminal">
<path d="M730.5 151h0"></path>
<path d="M861 151h0"></path>
<rect x="730.5" y="140" width="130.5" height="22"></rect>
<a xlink:href="#/abap/expression/SimpleSource3"><text x="795.75" y="155">SimpleSource3</text>
</a>
</g>
</g>
<path d="M906 151a10 10 0 0 0 10 -10v-10a10 10 0 0 1 10 -10"></path>
</g>
</g>
<path d="M930 121a10 10 0 0 0 10 -10v-80"></path>
<path d="M520 31v140a10 10 0 0 0 10 10"></path>
<g>
<path d="M530 181h0"></path>
<path d="M926 181h4"></path>
<g class="terminal">
<path d="M530 181h0"></path>
<path d="M618 181h0"></path>
<rect x="530" y="170" width="88" height="22" rx="10" ry="10"></rect>
<text x="574" y="185">"RESULT"</text>
</g>
<path d="M618 181h10"></path>
<g>
<path d="M628 181h0"></path>
<path d="M926 181h0"></path>
<path d="M628 181h20"></path>
<g class="non-terminal">
<path d="M648 181h0"></path>
<path d="M906 181h0"></path>
<rect x="648" y="170" width="258" height="22"></rect>
<a xlink:href="#/abap/expression/CallTransformationParameters"><text x="777" y="185">CallTransformationParameters</text>
</a>
</g>
<path d="M906 181h20"></path>
<path d="M628 181a10 10 0 0 1 10 10v10a10 10 0 0 0 10 10"></path>
<g>
<path d="M648 211h0"></path>
<path d="M801.5 211h104.5"></path>
<g class="terminal">
<path d="M648 211h0"></path>
<path d="M710.5 211h0"></path>
<rect x="648" y="200" width="62.5" height="22" rx="10" ry="10"></rect>
<text x="679.25" y="215">"XML"</text>
</g>
<path d="M710.5 211h10"></path>
<path d="M720.5 211h10"></path>
<g class="non-terminal">
<path d="M730.5 211h0"></path>
<path d="M801.5 211h0"></path>
<rect x="730.5" y="200" width="71" height="22"></rect>
<a xlink:href="#/abap/expression/Target"><text x="766" y="215">Target</text>
</a>
</g>
</g>
<path d="M906 211a10 10 0 0 0 10 -10v-10a10 10 0 0 1 10 -10"></path>
</g>
</g>
<path d="M930 181a10 10 0 0 0 10 -10v-140"></path>
<g class="diagram-text">
<title>take one or more branches, once each, in any order</title>
<path d="M 520 21 h -26 a 4 4 0 0 0 -4 4 v 12 a 4 4 0 0 0 4 4 h 26 z" class="diagram-text"></path>
<text x="505" y="35" class="diagram-text">1+</text>
<path d="M 940 21 h 16 a 4 4 0 0 1 4 4 v 12 a 4 4 0 0 1 -4 4 h -16 z" class="diagram-text"></path>
<path d="M 947 29 a 4 4 0 1 0 6 -1 m 2.75 -1 h -4 v 4 m 0 -3 h 2" style="stroke-width: 1.75"></path>
</g>
</g>
</g>
<path d="M960 31h10"></path>
<path d="M 970 31 h 20 m -10 -10 v 20 m 10 -20 v 20"></path>
</g>
</svg>
