<svg xmlns="http://www.w3.org/2000/svg" xmlns:xlink="http://www.w3.org/1999/xlink" class="railroad-diagram" width="797.5" height="821" viewBox="0 0 797.5 821">
<defs>
<style type="text/css"><![CDATA[
path {
stroke-width: 3;
stroke: black;
fill: rgba(0,0,0,0);
}
text {
font: bold 14px monospace;
text-anchor: middle;
}
text.diagram-text {
font-size: 12px;
}
a {
fill: blue;
}
text.diagram-arrow {
font-size: 16px;
}
text.label {
text-anchor: start;
}
text.comment {
font: italic 12px monospace;
}
rect {
stroke-width: 3;
stroke: black;
fill: #BCBCBC;
}
path.diagram-text {
stroke-width: 3;
stroke: black;
fill: #BCBCBC;
cursor: help;
}
]]></style>
</defs>
<g transform="translate(.5 .5)">
<g>
<path d="M20 30v20m10 -20v20m-10 -10h20"></path>
</g>
<path d="M40 40h10"></path>
<g>
<path d="M50 40h0"></path>
<path d="M747.5 40h0"></path>
<g class="comment ">
<path d="M50 40h0"></path>
<path d="M179 40h0"></path>
<text x="114.5" y="45" class="comment">not langver=Cloud</text>
</g>
<path d="M179 40h10"></path>
<path d="M189 40h10"></path>
<g>
<path d="M199 40h0"></path>
<path d="M747.5 40h0"></path>
<g class="terminal ">
<path d="M199 40h0"></path>
<path d="M304 40h0"></path>
<rect x="199" y="29" width="105" height="22" rx="10" ry="10"></rect>
<text x="251.5" y="44">"NEW-PAGE"</text>
</g>
<path d="M304 40h10"></path>
<g>
<path d="M314 40h0"></path>
<path d="M747.5 40h0"></path>
<path d="M314 40a10 10 0 0 0 10 -10v0a10 10 0 0 1 10 -10"></path>
<g>
<path d="M334 20h393.5"></path>
</g>
<path d="M727.5 20a10 10 0 0 1 10 10v0a10 10 0 0 0 10 10"></path>
<path d="M314 40h20"></path>
<g>
<path d="M334 40h0"></path>
<path d="M727.5 40h0"></path>
<path d="M364 40h10"></path>
<g>
<path d="M374 40h65.75"></path>
<path d="M631.75 40h65.75"></path>
<g class="terminal ">
<path d="M439.75 40h0"></path>
<path d="M519.25 40h0"></path>
<rect x="439.75" y="29" width="79.5" height="22" rx="10" ry="10"></rect>
<text x="479.5" y="44">"PRINT"</text>
</g>
<path d="M519.25 40h10"></path>
<g>
<path d="M529.25 40h0"></path>
<path d="M631.75 40h0"></path>
<path d="M529.25 40h20"></path>
<g class="terminal ">
<path d="M549.25 40h0"></path>
<path d="M611.75 40h0"></path>
<rect x="549.25" y="29" width="62.5" height="22" rx="10" ry="10"></rect>
<text x="580.5" y="44">"OFF"</text>
</g>
<path d="M611.75 40h20"></path>
<path d="M529.25 40a10 10 0 0 1 10 10v10a10 10 0 0 0 10 10"></path>
<g class="terminal ">
<path d="M549.25 70h4.25"></path>
<path d="M607.5 70h4.25"></path>
<rect x="553.5" y="59" width="54" height="22" rx="10" ry="10"></rect>
<text x="580.5" y="74">"ON"</text>
</g>
<path d="M611.75 70a10 10 0 0 0 10 -10v-10a10 10 0 0 1 10 -10"></path>
</g>
</g>
<path d="M697.5 40h10"></path>
<path d="M364 40v50a10 10 0 0 0 10 10"></path>
<g>
<path d="M374 100h80.75"></path>
<path d="M616.75 100h80.75"></path>
<path d="M454.75 100h20"></path>
<g class="terminal ">
<path d="M474.75 100h8.5"></path>
<path d="M588.25 100h8.5"></path>
<rect x="483.25" y="89" width="105" height="22" rx="10" ry="10"></rect>
<text x="535.75" y="104">"NO-TITLE"</text>
</g>
<path d="M596.75 100h20"></path>
<path d="M454.75 100a10 10 0 0 1 10 10v10a10 10 0 0 0 10 10"></path>
<g class="terminal ">
<path d="M474.75 130h0"></path>
<path d="M596.75 130h0"></path>
<rect x="474.75" y="119" width="122" height="22" rx="10" ry="10"></rect>
<text x="535.75" y="134">"WITH-TITLE"</text>
</g>
<path d="M596.75 130a10 10 0 0 0 10 -10v-10a10 10 0 0 1 10 -10"></path>
</g>
<path d="M697.5 100a10 10 0 0 0 10 -10v-50"></path>
<path d="M364 40v110a10 10 0 0 0 10 10"></path>
<g>
<path d="M374 160h72.25"></path>
<path d="M625.25 160h72.25"></path>
<path d="M446.25 160h20"></path>
<g class="terminal ">
<path d="M466.25 160h8.5"></path>
<path d="M596.75 160h8.5"></path>
<rect x="474.75" y="149" width="122" height="22" rx="10" ry="10"></rect>
<text x="535.75" y="164">"NO-HEADING"</text>
</g>
<path d="M605.25 160h20"></path>
<path d="M446.25 160a10 10 0 0 1 10 10v10a10 10 0 0 0 10 10"></path>
<g class="terminal ">
<path d="M466.25 190h0"></path>
<path d="M605.25 190h0"></path>
<rect x="466.25" y="179" width="139" height="22" rx="10" ry="10"></rect>
<text x="535.75" y="194">"WITH-HEADING"</text>
</g>
<path d="M605.25 190a10 10 0 0 0 10 -10v-10a10 10 0 0 1 10 -10"></path>
</g>
<path d="M697.5 160a10 10 0 0 0 10 -10v-110"></path>
<path d="M364 40v170a10 10 0 0 0 10 10"></path>
<g class="terminal ">
<path d="M374 220h105"></path>
<path d="M592.5 220h105"></path>
<rect x="479" y="209" width="113.5" height="22" rx="10" ry="10"></rect>
<text x="535.75" y="224">"NO DIALOG"</text>
</g>
<path d="M697.5 220a10 10 0 0 0 10 -10v-170"></path>
<path d="M364 40v200a10 10 0 0 0 10 10"></path>
<g class="terminal ">
<path d="M374 250h92.25"></path>
<path d="M605.25 250h92.25"></path>
<rect x="466.25" y="239" width="139" height="22" rx="10" ry="10"></rect>
<text x="535.75" y="254">"NO-TOPOFPAGE"</text>
</g>
<path d="M697.5 250a10 10 0 0 0 10 -10v-200"></path>
<path d="M364 40v230a10 10 0 0 0 10 10"></path>
<g>
<path d="M374 280h55.25"></path>
<path d="M642.25 280h55.25"></path>
<g class="terminal ">
<path d="M429.25 280h0"></path>
<path d="M551.25 280h0"></path>
<rect x="429.25" y="269" width="122" height="22" rx="10" ry="10"></rect>
<text x="490.25" y="284">"PARAMETERS"</text>
</g>
<path d="M551.25 280h10"></path>
<path d="M561.25 280h10"></path>
<g class="non-terminal ">
<path d="M571.25 280h0"></path>
<path d="M642.25 280h0"></path>
<rect x="571.25" y="269" width="71" height="22"></rect>
<a xlink:href="#/abap/expression/Source"><text x="606.75" y="284">Source</text>
</a>
</g>
</g>
<path d="M697.5 280a10 10 0 0 0 10 -10v-230"></path>
<path d="M364 40v260a10 10 0 0 0 10 10"></path>
<g>
<path d="M374 310h38.25"></path>
<path d="M659.25 310h38.25"></path>
<g class="terminal ">
<path d="M412.25 310h0"></path>
<path d="M568.25 310h0"></path>
<rect x="412.25" y="299" width="156" height="22" rx="10" ry="10"></rect>
<text x="490.25" y="314">"LIST AUTHORITY"</text>
</g>
<path d="M568.25 310h10"></path>
<path d="M578.25 310h10"></path>
<g class="non-terminal ">
<path d="M588.25 310h0"></path>
<path d="M659.25 310h0"></path>
<rect x="588.25" y="299" width="71" height="22"></rect>
<a xlink:href="#/abap/expression/Source"><text x="623.75" y="314">Source</text>
</a>
</g>
</g>
<path d="M697.5 310a10 10 0 0 0 10 -10v-260"></path>
<path d="M364 40v290a10 10 0 0 0 10 10"></path>
<g>
<path d="M374 340h51"></path>
<path d="M646.5 340h51"></path>
<g class="terminal ">
<path d="M425 340h0"></path>
<path d="M555.5 340h0"></path>
<rect x="425" y="329" width="130.5" height="22" rx="10" ry="10"></rect>
<text x="490.25" y="344">"IMMEDIATELY"</text>
</g>
<path d="M555.5 340h10"></path>
<path d="M565.5 340h10"></path>
<g class="non-terminal ">
<path d="M575.5 340h0"></path>
<path d="M646.5 340h0"></path>
<rect x="575.5" y="329" width="71" height="22"></rect>
<a xlink:href="#/abap/expression/Source"><text x="611" y="344">Source</text>
</a>
</g>
</g>
<path d="M697.5 340a10 10 0 0 0 10 -10v-290"></path>
<path d="M364 40v320a10 10 0 0 0 10 10"></path>
<g>
<path d="M374 370h46.75"></path>
<path d="M650.75 370h46.75"></path>
<g class="terminal ">
<path d="M420.75 370h0"></path>
<path d="M559.75 370h0"></path>
<rect x="420.75" y="359" width="139" height="22" rx="10" ry="10"></rect>
<text x="490.25" y="374">"LIST DATASET"</text>
</g>
<path d="M559.75 370h10"></path>
<path d="M569.75 370h10"></path>
<g class="non-terminal ">
<path d="M579.75 370h0"></path>
<path d="M650.75 370h0"></path>
<rect x="579.75" y="359" width="71" height="22"></rect>
<a xlink:href="#/abap/expression/Source"><text x="615.25" y="374">Source</text>
</a>
</g>
</g>
<path d="M697.5 370a10 10 0 0 0 10 -10v-320"></path>
<path d="M364 40v350a10 10 0 0 0 10 10"></path>
<g>
<path d="M374 400h38.25"></path>
<path d="M659.25 400h38.25"></path>
<g class="terminal ">
<path d="M412.25 400h0"></path>
<path d="M568.25 400h0"></path>
<rect x="412.25" y="389" width="156" height="22" rx="10" ry="10"></rect>
<text x="490.25" y="404">"SAP COVER PAGE"</text>
</g>
<path d="M568.25 400h10"></path>
<path d="M578.25 400h10"></path>
<g class="non-terminal ">
<path d="M588.25 400h0"></path>
<path d="M659.25 400h0"></path>
<rect x="588.25" y="389" width="71" height="22"></rect>
<a xlink:href="#/abap/expression/Source"><text x="623.75" y="404">Source</text>
</a>
</g>
</g>
<path d="M697.5 400a10 10 0 0 0 10 -10v-350"></path>
<path d="M364 40v380a10 10 0 0 0 10 10"></path>
<g>
<path d="M374 430h0"></path>
<path d="M697.5 430h0"></path>
<g class="terminal ">
<path d="M374 430h0"></path>
<path d="M606.5 430h0"></path>
<rect x="374" y="419" width="232.5" height="22" rx="10" ry="10"></rect>
<text x="490.25" y="434">"NEW LIST IDENTIFICATION"</text>
</g>
<path d="M606.5 430h10"></path>
<path d="M616.5 430h10"></path>
<g class="non-terminal ">
<path d="M626.5 430h0"></path>
<path d="M697.5 430h0"></path>
<rect x="626.5" y="419" width="71" height="22"></rect>
<a xlink:href="#/abap/expression/Source"><text x="662" y="434">Source</text>
</a>
</g>
</g>
<path d="M697.5 430a10 10 0 0 0 10 -10v-380"></path>
<path d="M364 40v410a10 10 0 0 0 10 10"></path>
<g>
<path d="M374 460h42.5"></path>
<path d="M655 460h42.5"></path>
<g class="terminal ">
<path d="M416.5 460h0"></path>
<path d="M564 460h0"></path>
<rect x="416.5" y="449" width="147.5" height="22" rx="10" ry="10"></rect>
<text x="490.25" y="464">"KEEP IN SPOOL"</text>
</g>
<path d="M564 460h10"></path>
<path d="M574 460h10"></path>
<g class="non-terminal ">
<path d="M584 460h0"></path>
<path d="M655 460h0"></path>
<rect x="584" y="449" width="71" height="22"></rect>
<a xlink:href="#/abap/expression/Source"><text x="619.5" y="464">Source</text>
</a>
</g>
</g>
<path d="M697.5 460a10 10 0 0 0 10 -10v-410"></path>
<path d="M364 40v440a10 10 0 0 0 10 10"></path>
<g>
<path d="M374 490h55.25"></path>
<path d="M642.25 490h55.25"></path>
<g class="terminal ">
<path d="M429.25 490h0"></path>
<path d="M551.25 490h0"></path>
<rect x="429.25" y="479" width="122" height="22" rx="10" ry="10"></rect>
<text x="490.25" y="494">"DEPARTMENT"</text>
</g>
<path d="M551.25 490h10"></path>
<path d="M561.25 490h10"></path>
<g class="non-terminal ">
<path d="M571.25 490h0"></path>
<path d="M642.25 490h0"></path>
<rect x="571.25" y="479" width="71" height="22"></rect>
<a xlink:href="#/abap/expression/Source"><text x="606.75" y="494">Source</text>
</a>
</g>
</g>
<path d="M697.5 490a10 10 0 0 0 10 -10v-440"></path>
<path d="M364 40v470a10 10 0 0 0 10 10"></path>
<g>
<path d="M374 520h59.5"></path>
<path d="M638 520h59.5"></path>
<g class="terminal ">
<path d="M433.5 520h0"></path>
<path d="M547 520h0"></path>
<rect x="433.5" y="509" width="113.5" height="22" rx="10" ry="10"></rect>
<text x="490.25" y="524">"LIST NAME"</text>
</g>
<path d="M547 520h10"></path>
<path d="M557 520h10"></path>
<g class="non-terminal ">
<path d="M567 520h0"></path>
<path d="M638 520h0"></path>
<rect x="567" y="509" width="71" height="22"></rect>
<a xlink:href="#/abap/expression/Source"><text x="602.5" y="524">Source</text>
</a>
</g>
</g>
<path d="M697.5 520a10 10 0 0 0 10 -10v-470"></path>
<path d="M364 40v500a10 10 0 0 0 10 10"></path>
<g>
<path d="M374 550h72.25"></path>
<path d="M625.25 550h72.25"></path>
<g class="terminal ">
<path d="M446.25 550h0"></path>
<path d="M534.25 550h0"></path>
<rect x="446.25" y="539" width="88" height="22" rx="10" ry="10"></rect>
<text x="490.25" y="554">"LAYOUT"</text>
</g>
<path d="M534.25 550h10"></path>
<path d="M544.25 550h10"></path>
<g class="non-terminal ">
<path d="M554.25 550h0"></path>
<path d="M625.25 550h0"></path>
<rect x="554.25" y="539" width="71" height="22"></rect>
<a xlink:href="#/abap/expression/Source"><text x="589.75" y="554">Source</text>
</a>
</g>
</g>
<path d="M697.5 550a10 10 0 0 0 10 -10v-500"></path>
<path d="M364 40v530a10 10 0 0 0 10 10"></path>
<g>
<path d="M374 580h51"></path>
<path d="M646.5 580h51"></path>
<g class="terminal ">
<path d="M425 580h0"></path>
<path d="M555.5 580h0"></path>
<rect x="425" y="569" width="130.5" height="22" rx="10" ry="10"></rect>
<text x="490.25" y="584">"DESTINATION"</text>
</g>
<path d="M555.5 580h10"></path>
<path d="M565.5 580h10"></path>
<g class="non-terminal ">
<path d="M575.5 580h0"></path>
<path d="M646.5 580h0"></path>
<rect x="575.5" y="569" width="71" height="22"></rect>
<a xlink:href="#/abap/expression/Source"><text x="611" y="584">Source</text>
</a>
</g>
</g>
<path d="M697.5 580a10 10 0 0 0 10 -10v-530"></path>
<path d="M364 40v560a10 10 0 0 0 10 10"></path>
<g>
<path d="M374 610h63.75"></path>
<path d="M633.75 610h63.75"></path>
<g class="terminal ">
<path d="M437.75 610h0"></path>
<path d="M542.75 610h0"></path>
<rect x="437.75" y="599" width="105" height="22" rx="10" ry="10"></rect>
<text x="490.25" y="614">"RECEIVER"</text>
</g>
<path d="M542.75 610h10"></path>
<path d="M552.75 610h10"></path>
<g class="non-terminal ">
<path d="M562.75 610h0"></path>
<path d="M633.75 610h0"></path>
<rect x="562.75" y="599" width="71" height="22"></rect>
<a xlink:href="#/abap/expression/Source"><text x="598.25" y="614">Source</text>
</a>
</g>
</g>
<path d="M697.5 610a10 10 0 0 0 10 -10v-560"></path>
<path d="M364 40v590a10 10 0 0 0 10 10"></path>
<g>
<path d="M374 640h72.25"></path>
<path d="M625.25 640h72.25"></path>
<g class="terminal ">
<path d="M446.25 640h0"></path>
<path d="M534.25 640h0"></path>
<rect x="446.25" y="629" width="88" height="22" rx="10" ry="10"></rect>
<text x="490.25" y="644">"COPIES"</text>
</g>
<path d="M534.25 640h10"></path>
<path d="M544.25 640h10"></path>
<g class="non-terminal ">
<path d="M554.25 640h0"></path>
<path d="M625.25 640h0"></path>
<rect x="554.25" y="629" width="71" height="22"></rect>
<a xlink:href="#/abap/expression/Source"><text x="589.75" y="644">Source</text>
</a>
</g>
</g>
<path d="M697.5 640a10 10 0 0 0 10 -10v-590"></path>
<path d="M364 40v620a10 10 0 0 0 10 10"></path>
<g>
<path d="M374 670h55.25"></path>
<path d="M642.25 670h55.25"></path>
<g class="terminal ">
<path d="M429.25 670h0"></path>
<path d="M551.25 670h0"></path>
<rect x="429.25" y="659" width="122" height="22" rx="10" ry="10"></rect>
<text x="490.25" y="674">"COVER TEXT"</text>
</g>
<path d="M551.25 670h10"></path>
<path d="M561.25 670h10"></path>
<g class="non-terminal ">
<path d="M571.25 670h0"></path>
<path d="M642.25 670h0"></path>
<rect x="571.25" y="659" width="71" height="22"></rect>
<a xlink:href="#/abap/expression/Source"><text x="606.75" y="674">Source</text>
</a>
</g>
</g>
<path d="M697.5 670a10 10 0 0 0 10 -10v-620"></path>
<path d="M364 40v650a10 10 0 0 0 10 10"></path>
<g>
<path d="M374 700h21.25"></path>
<path d="M676.25 700h21.25"></path>
<g class="terminal ">
<path d="M395.25 700h0"></path>
<path d="M585.25 700h0"></path>
<rect x="395.25" y="689" width="190" height="22" rx="10" ry="10"></rect>
<text x="490.25" y="704">"ARCHIVE PARAMETERS"</text>
</g>
<path d="M585.25 700h10"></path>
<path d="M595.25 700h10"></path>
<g class="non-terminal ">
<path d="M605.25 700h0"></path>
<path d="M676.25 700h0"></path>
<rect x="605.25" y="689" width="71" height="22"></rect>
<a xlink:href="#/abap/expression/Source"><text x="640.75" y="704">Source</text>
</a>
</g>
</g>
<path d="M697.5 700a10 10 0 0 0 10 -10v-650"></path>
<path d="M364 40v680a10 10 0 0 0 10 10"></path>
<g class="terminal ">
<path d="M374 730h96.5"></path>
<path d="M601 730h96.5"></path>
<rect x="470.5" y="719" width="130.5" height="22" rx="10" ry="10"></rect>
<text x="535.75" y="734">"NEW-SECTION"</text>
</g>
<path d="M697.5 730a10 10 0 0 0 10 -10v-680"></path>
<path d="M364 40v710a10 10 0 0 0 10 10"></path>
<g>
<path d="M374 760h55.25"></path>
<path d="M642.25 760h55.25"></path>
<g class="terminal ">
<path d="M429.25 760h0"></path>
<path d="M551.25 760h0"></path>
<rect x="429.25" y="749" width="122" height="22" rx="10" ry="10"></rect>
<text x="490.25" y="764">"LINE-COUNT"</text>
</g>
<path d="M551.25 760h10"></path>
<path d="M561.25 760h10"></path>
<g class="non-terminal ">
<path d="M571.25 760h0"></path>
<path d="M642.25 760h0"></path>
<rect x="571.25" y="749" width="71" height="22"></rect>
<a xlink:href="#/abap/expression/Source"><text x="606.75" y="764">Source</text>
</a>
</g>
</g>
<path d="M697.5 760a10 10 0 0 0 10 -10v-710"></path>
<path d="M364 40v740a10 10 0 0 0 10 10"></path>
<g>
<path d="M374 790h59.5"></path>
<path d="M638 790h59.5"></path>
<g class="terminal ">
<path d="M433.5 790h0"></path>
<path d="M547 790h0"></path>
<rect x="433.5" y="779" width="113.5" height="22" rx="10" ry="10"></rect>
<text x="490.25" y="794">"LINE-SIZE"</text>
</g>
<path d="M547 790h10"></path>
<path d="M557 790h10"></path>
<g class="non-terminal ">
<path d="M567 790h0"></path>
<path d="M638 790h0"></path>
<rect x="567" y="779" width="71" height="22"></rect>
<a xlink:href="#/abap/expression/Source"><text x="602.5" y="794">Source</text>
</a>
</g>
</g>
<path d="M697.5 790a10 10 0 0 0 10 -10v-740"></path>
<g class="diagram-text">
<title>take one or more branches, once each, in any order</title>
<path d="M 364 30 h -26 a 4 4 0 0 0 -4 4 v 12 a 4 4 0 0 0 4 4 h 26 z" class="diagram-text"></path>
<text x="349" y="44" class="diagram-text">1+</text>
<path d="M 707.5 30 h 16 a 4 4 0 0 1 4 4 v 12 a 4 4 0 0 1 -4 4 h -16 z" class="diagram-text"></path>
<path d="M 714.5 38 a 4 4 0 1 0 6 -1 m 2.75 -1 h -4 v 4 m 0 -3 h 2" style="stroke-width: 1.75"></path>
</g>
</g>
<path d="M727.5 40h20"></path>
</g>
</g>
</g>
<path d="M747.5 40h10"></path>
<path d="M 757.5 40 h 20 m -10 -10 v 20 m 10 -20 v 20"></path>
</g>
</svg>
