<svg xmlns="http://www.w3.org/2000/svg" xmlns:xlink="http://www.w3.org/1999/xlink" class="railroad-diagram" width="583" height="71" viewBox="0 0 583 71">
<defs>
<style type="text/css"><![CDATA[
path {
stroke-width: 3;
stroke: black;
fill: rgba(0,0,0,0);
}
text {
font: bold 14px monospace;
text-anchor: middle;
}
text.diagram-text {
font-size: 12px;
}
a {
fill: blue;
}
text.diagram-arrow {
font-size: 16px;
}
text.label {
text-anchor: start;
}
text.comment {
font: italic 12px monospace;
}
rect {
stroke-width: 3;
stroke: black;
fill: #BCBCBC;
}
path.diagram-text {
stroke-width: 3;
stroke: black;
fill: #BCBCBC;
cursor: help;
}
]]></style>
</defs>
<g transform="translate(.5 .5)">
<g>
<path d="M20 30v20m10 -20v20m-10 -10h20"></path>
</g>
<path d="M40 40h10"></path>
<g>
<path d="M50 40h0"></path>
<path d="M533 40h0"></path>
<g class="comment ">
<path d="M50 40h0"></path>
<path d="M179 40h0"></path>
<text x="114.5" y="45" class="comment">not langver=Cloud</text>
</g>
<path d="M179 40h10"></path>
<path d="M189 40h10"></path>
<g>
<path d="M199 40h0"></path>
<path d="M533 40h0"></path>
<g class="terminal ">
<path d="M199 40h0"></path>
<path d="M278.5 40h0"></path>
<rect x="199" y="29" width="79.5" height="22" rx="10" ry="10"></rect>
<text x="238.75" y="44">"LOCAL"</text>
</g>
<path d="M278.5 40h10"></path>
<path d="M288.5 40h10"></path>
<g class="non-terminal ">
<path d="M298.5 40h0"></path>
<path d="M386.5 40h0"></path>
<rect x="298.5" y="29" width="88" height="22"></rect>
<a xlink:href="#/abap/expression/FieldSub"><text x="342.5" y="44">FieldSub</text>
</a>
</g>
<path d="M386.5 40h10"></path>
<g>
<path d="M396.5 40h0"></path>
<path d="M533 40h0"></path>
<path d="M396.5 40a10 10 0 0 0 10 -10v0a10 10 0 0 1 10 -10"></path>
<g>
<path d="M416.5 20h96.5"></path>
</g>
<path d="M513 20a10 10 0 0 1 10 10v0a10 10 0 0 0 10 10"></path>
<path d="M396.5 40h20"></path>
<g class="non-terminal ">
<path d="M416.5 40h0"></path>
<path d="M513 40h0"></path>
<rect x="416.5" y="29" width="96.5" height="22"></rect>
<a xlink:href="#/abap/expression/TableBody"><text x="464.75" y="44">TableBody</text>
</a>
</g>
<path d="M513 40h20"></path>
</g>
</g>
</g>
<path d="M533 40h10"></path>
<path d="M 543 40 h 20 m -10 -10 v 20 m 10 -20 v 20"></path>
</g>
</svg>
