<svg xmlns="http://www.w3.org/2000/svg" xmlns:xlink="http://www.w3.org/1999/xlink" class="railroad-diagram" width="617" height="71" viewBox="0 0 617 71">
<defs>
<style type="text/css"><![CDATA[
path {
stroke-width: 3;
stroke: black;
fill: rgba(0,0,0,0);
}
text {
font: bold 14px monospace;
text-anchor: middle;
}
text.diagram-text {
font-size: 12px;
}
a {
fill: blue;
}
text.diagram-arrow {
font-size: 16px;
}
text.label {
text-anchor: start;
}
text.comment {
font: italic 12px monospace;
}
rect {
stroke-width: 3;
stroke: black;
fill: #BCBCBC;
}
path.diagram-text {
stroke-width: 3;
stroke: black;
fill: #BCBCBC;
cursor: help;
}
]]></style>
</defs>
<g transform="translate(.5 .5)">
<g>
<path d="M20 30v20m10 -20v20m-10 -10h20"></path>
</g>
<path d="M40 40h10"></path>
<g>
<path d="M50 40h0"></path>
<path d="M567 40h0"></path>
<g class="comment ">
<path d="M50 40h0"></path>
<path d="M179 40h0"></path>
<text x="114.5" y="45" class="comment">not langver=Cloud</text>
</g>
<path d="M179 40h10"></path>
<path d="M189 40h10"></path>
<g>
<path d="M199 40h0"></path>
<path d="M567 40h0"></path>
<g class="terminal ">
<path d="M199 40h0"></path>
<path d="M355 40h0"></path>
<rect x="199" y="29" width="156" height="22" rx="10" ry="10"></rect>
<text x="277" y="44">"LOOP AT SCREEN"</text>
</g>
<path d="M355 40h10"></path>
<g>
<path d="M365 40h0"></path>
<path d="M567 40h0"></path>
<path d="M365 40a10 10 0 0 0 10 -10v0a10 10 0 0 1 10 -10"></path>
<g>
<path d="M385 20h162"></path>
</g>
<path d="M547 20a10 10 0 0 1 10 10v0a10 10 0 0 0 10 10"></path>
<path d="M365 40h20"></path>
<g>
<path d="M385 40h0"></path>
<path d="M547 40h0"></path>
<g class="terminal ">
<path d="M385 40h0"></path>
<path d="M456 40h0"></path>
<rect x="385" y="29" width="71" height="22" rx="10" ry="10"></rect>
<text x="420.5" y="44">"INTO"</text>
</g>
<path d="M456 40h10"></path>
<path d="M466 40h10"></path>
<g class="non-terminal ">
<path d="M476 40h0"></path>
<path d="M547 40h0"></path>
<rect x="476" y="29" width="71" height="22"></rect>
<a xlink:href="#/abap/expression/Target"><text x="511.5" y="44">Target</text>
</a>
</g>
</g>
<path d="M547 40h20"></path>
</g>
</g>
</g>
<path d="M567 40h10"></path>
<path d="M 577 40 h 20 m -10 -10 v 20 m 10 -20 v 20"></path>
</g>
</svg>
