<svg xmlns="http://www.w3.org/2000/svg" xmlns:xlink="http://www.w3.org/1999/xlink" class="railroad-diagram" width="2075.5" height="443" viewBox="0 0 2075.5 443">
<defs>
<style type="text/css"><![CDATA[
path {
stroke-width: 3;
stroke: black;
fill: rgba(0,0,0,0);
}
text {
font: bold 14px monospace;
text-anchor: middle;
}
text.diagram-text {
font-size: 12px;
}
a {
fill: blue;
}
text.diagram-arrow {
font-size: 16px;
}
text.label {
text-anchor: start;
}
text.comment {
font: italic 12px monospace;
}
rect {
stroke-width: 3;
stroke: black;
fill: #BCBCBC;
}
path.diagram-text {
stroke-width: 3;
stroke: black;
fill: #BCBCBC;
cursor: help;
}
]]></style>
</defs>
<g transform="translate(.5 .5)">
<g>
<path d="M20 30v20m10 -20v20m-10 -10h20"></path>
</g>
<g>
<path d="M40 40h0"></path>
<path d="M2035.5 40h0"></path>
<path d="M40 40h20"></path>
<g>
<path d="M60 40h0"></path>
<path d="M2015.5 40h0"></path>
<g class="terminal ">
<path d="M60 40h0"></path>
<path d="M148 40h0"></path>
<rect x="60" y="29" width="88" height="22" rx="10" ry="10"></rect>
<text x="104" y="44">"MODIFY"</text>
</g>
<path d="M148 40h10"></path>
<g>
<path d="M158 40h0"></path>
<path d="M277.5 40h0"></path>
<path d="M158 40a10 10 0 0 0 10 -10v0a10 10 0 0 1 10 -10"></path>
<g>
<path d="M178 20h79.5"></path>
</g>
<path d="M257.5 20a10 10 0 0 1 10 10v0a10 10 0 0 0 10 10"></path>
<path d="M158 40h20"></path>
<g class="terminal ">
<path d="M178 40h0"></path>
<path d="M257.5 40h0"></path>
<rect x="178" y="29" width="79.5" height="22" rx="10" ry="10"></rect>
<text x="217.75" y="44">"TABLE"</text>
</g>
<path d="M257.5 40h20"></path>
</g>
<g>
<path d="M277.5 40h0"></path>
<path d="M397 40h0"></path>
<path d="M277.5 40h20"></path>
<g class="non-terminal ">
<path d="M297.5 40h4.25"></path>
<path d="M372.75 40h4.25"></path>
<rect x="301.75" y="29" width="71" height="22"></rect>
<a xlink:href="#/abap/expression/Target"><text x="337.25" y="44">Target</text>
</a>
</g>
<path d="M377 40h20"></path>
<path d="M277.5 40a10 10 0 0 1 10 10v10a10 10 0 0 0 10 10"></path>
<g class="non-terminal ">
<path d="M297.5 70h0"></path>
<path d="M377 70h0"></path>
<rect x="297.5" y="59" width="79.5" height="22"></rect>
<a xlink:href="#/abap/expression/Dynamic"><text x="337.25" y="74">Dynamic</text>
</a>
</g>
<path d="M377 70a10 10 0 0 0 10 -10v-10a10 10 0 0 1 10 -10"></path>
</g>
<g>
<path d="M397 40h0"></path>
<path d="M1667 40h0"></path>
<path d="M397 40a10 10 0 0 0 10 -10v0a10 10 0 0 1 10 -10"></path>
<g>
<path d="M417 20h1230"></path>
</g>
<path d="M1647 20a10 10 0 0 1 10 10v0a10 10 0 0 0 10 10"></path>
<path d="M397 40h20"></path>
<g>
<path d="M417 40h0"></path>
<path d="M1647 40h0"></path>
<path d="M417 40h20"></path>
<g>
<path d="M437 40h355.5"></path>
<path d="M1271.5 40h355.5"></path>
<path d="M822.5 40h10"></path>
<g>
<path d="M832.5 40h119.25"></path>
<path d="M1122.25 40h119.25"></path>
<g class="terminal ">
<path d="M951.75 40h0"></path>
<path d="M1031.25 40h0"></path>
<rect x="951.75" y="29" width="79.5" height="22" rx="10" ry="10"></rect>
<text x="991.5" y="44">"INDEX"</text>
</g>
<path d="M1031.25 40h10"></path>
<path d="M1041.25 40h10"></path>
<g class="non-terminal ">
<path d="M1051.25 40h0"></path>
<path d="M1122.25 40h0"></path>
<rect x="1051.25" y="29" width="71" height="22"></rect>
<a xlink:href="#/abap/expression/Source"><text x="1086.75" y="44">Source</text>
</a>
</g>
</g>
<path d="M1241.5 40h10"></path>
<path d="M822.5 40v20a10 10 0 0 0 10 10"></path>
<g>
<path d="M832.5 70h0"></path>
<path d="M1241.5 70h0"></path>
<g class="terminal ">
<path d="M832.5 70h0"></path>
<path d="M971.5 70h0"></path>
<rect x="832.5" y="59" width="139" height="22" rx="10" ry="10"></rect>
<text x="902" y="74">"TRANSPORTING"</text>
</g>
<path d="M971.5 70h10"></path>
<path d="M981.5 70h10"></path>
<g>
<path d="M991.5 70h0"></path>
<path d="M1241.5 70h0"></path>
<path d="M991.5 70h10"></path>
<g>
<path d="M1001.5 70h0"></path>
<path d="M1231.5 70h0"></path>
<path d="M1001.5 70h20"></path>
<g class="non-terminal ">
<path d="M1021.5 70h0"></path>
<path d="M1211.5 70h0"></path>
<rect x="1021.5" y="59" width="190" height="22"></rect>
<a xlink:href="#/abap/expression/ComponentChainSimple"><text x="1116.5" y="74">ComponentChainSimple</text>
</a>
</g>
<path d="M1211.5 70h20"></path>
<path d="M1001.5 70a10 10 0 0 1 10 10v10a10 10 0 0 0 10 10"></path>
<g class="non-terminal ">
<path d="M1021.5 100h55.25"></path>
<path d="M1156.25 100h55.25"></path>
<rect x="1076.75" y="89" width="79.5" height="22"></rect>
<a xlink:href="#/abap/expression/Dynamic"><text x="1116.5" y="104">Dynamic</text>
</a>
</g>
<path d="M1211.5 100a10 10 0 0 0 10 -10v-10a10 10 0 0 1 10 -10"></path>
</g>
<path d="M1231.5 70h10"></path>
<path d="M1001.5 70a10 10 0 0 0 -10 10v29a10 10 0 0 0 10 10"></path>
<g>
<path d="M1001.5 119h230"></path>
</g>
<path d="M1231.5 119a10 10 0 0 0 10 -10v-29a10 10 0 0 0 -10 -10"></path>
</g>
</g>
<path d="M1241.5 70a10 10 0 0 0 10 -10v-20"></path>
<g class="diagram-text">
<title>take one or more branches, once each, in any order</title>
<path d="M 822.5 30 h -26 a 4 4 0 0 0 -4 4 v 12 a 4 4 0 0 0 4 4 h 26 z" class="diagram-text"></path>
<text x="807.5" y="44" class="diagram-text">1+</text>
<path d="M 1251.5 30 h 16 a 4 4 0 0 1 4 4 v 12 a 4 4 0 0 1 -4 4 h -16 z" class="diagram-text"></path>
<path d="M 1258.5 38 a 4 4 0 1 0 6 -1 m 2.75 -1 h -4 v 4 m 0 -3 h 2" style="stroke-width: 1.75"></path>
</g>
</g>
<path d="M1627 40h20"></path>
<path d="M417 40a10 10 0 0 1 10 10v87a10 10 0 0 0 10 10"></path>
<g>
<path d="M437 147h249.5"></path>
<path d="M1377.5 147h249.5"></path>
<g>
<path d="M686.5 147h0"></path>
<path d="M848.5 147h0"></path>
<g class="terminal ">
<path d="M686.5 147h0"></path>
<path d="M757.5 147h0"></path>
<rect x="686.5" y="136" width="71" height="22" rx="10" ry="10"></rect>
<text x="722" y="151">"FROM"</text>
</g>
<path d="M757.5 147h10"></path>
<path d="M767.5 147h10"></path>
<g class="non-terminal ">
<path d="M777.5 147h0"></path>
<path d="M848.5 147h0"></path>
<rect x="777.5" y="136" width="71" height="22"></rect>
<a xlink:href="#/abap/expression/Source"><text x="813" y="151">Source</text>
</a>
</g>
</g>
<path d="M848.5 147h10"></path>
<g>
<path d="M858.5 147h0"></path>
<path d="M1377.5 147h0"></path>
<path d="M858.5 147a10 10 0 0 0 10 -10v0a10 10 0 0 1 10 -10"></path>
<g>
<path d="M878.5 127h479"></path>
</g>
<path d="M1357.5 127a10 10 0 0 1 10 10v0a10 10 0 0 0 10 10"></path>
<path d="M858.5 147h20"></path>
<g>
<path d="M878.5 147h0"></path>
<path d="M1357.5 147h0"></path>
<path d="M908.5 147h10"></path>
<g>
<path d="M918.5 147h119.25"></path>
<path d="M1208.25 147h119.25"></path>
<g class="terminal ">
<path d="M1037.75 147h0"></path>
<path d="M1117.25 147h0"></path>
<rect x="1037.75" y="136" width="79.5" height="22" rx="10" ry="10"></rect>
<text x="1077.5" y="151">"INDEX"</text>
</g>
<path d="M1117.25 147h10"></path>
<path d="M1127.25 147h10"></path>
<g class="non-terminal ">
<path d="M1137.25 147h0"></path>
<path d="M1208.25 147h0"></path>
<rect x="1137.25" y="136" width="71" height="22"></rect>
<a xlink:href="#/abap/expression/Source"><text x="1172.75" y="151">Source</text>
</a>
</g>
</g>
<path d="M1327.5 147h10"></path>
<path d="M908.5 147v20a10 10 0 0 0 10 10"></path>
<g>
<path d="M918.5 177h0"></path>
<path d="M1327.5 177h0"></path>
<g class="terminal ">
<path d="M918.5 177h0"></path>
<path d="M1057.5 177h0"></path>
<rect x="918.5" y="166" width="139" height="22" rx="10" ry="10"></rect>
<text x="988" y="181">"TRANSPORTING"</text>
</g>
<path d="M1057.5 177h10"></path>
<path d="M1067.5 177h10"></path>
<g>
<path d="M1077.5 177h0"></path>
<path d="M1327.5 177h0"></path>
<path d="M1077.5 177h10"></path>
<g>
<path d="M1087.5 177h0"></path>
<path d="M1317.5 177h0"></path>
<path d="M1087.5 177h20"></path>
<g class="non-terminal ">
<path d="M1107.5 177h0"></path>
<path d="M1297.5 177h0"></path>
<rect x="1107.5" y="166" width="190" height="22"></rect>
<a xlink:href="#/abap/expression/ComponentChainSimple"><text x="1202.5" y="181">ComponentChainSimple</text>
</a>
</g>
<path d="M1297.5 177h20"></path>
<path d="M1087.5 177a10 10 0 0 1 10 10v10a10 10 0 0 0 10 10"></path>
<g class="non-terminal ">
<path d="M1107.5 207h55.25"></path>
<path d="M1242.25 207h55.25"></path>
<rect x="1162.75" y="196" width="79.5" height="22"></rect>
<a xlink:href="#/abap/expression/Dynamic"><text x="1202.5" y="211">Dynamic</text>
</a>
</g>
<path d="M1297.5 207a10 10 0 0 0 10 -10v-10a10 10 0 0 1 10 -10"></path>
</g>
<path d="M1317.5 177h10"></path>
<path d="M1087.5 177a10 10 0 0 0 -10 10v29a10 10 0 0 0 10 10"></path>
<g>
<path d="M1087.5 226h230"></path>
</g>
<path d="M1317.5 226a10 10 0 0 0 10 -10v-29a10 10 0 0 0 -10 -10"></path>
</g>
</g>
<path d="M1327.5 177a10 10 0 0 0 10 -10v-20"></path>
<path d="M908.5 147v88a10 10 0 0 0 10 10"></path>
<g>
<path d="M918.5 245h85.25"></path>
<path d="M1242.25 245h85.25"></path>
<g class="terminal ">
<path d="M1003.75 245h0"></path>
<path d="M1117.25 245h0"></path>
<rect x="1003.75" y="234" width="113.5" height="22" rx="10" ry="10"></rect>
<text x="1060.5" y="249">"USING KEY"</text>
</g>
<path d="M1117.25 245h10"></path>
<path d="M1127.25 245h10"></path>
<g class="non-terminal ">
<path d="M1137.25 245h0"></path>
<path d="M1242.25 245h0"></path>
<rect x="1137.25" y="234" width="105" height="22"></rect>
<a xlink:href="#/abap/expression/SimpleName"><text x="1189.75" y="249">SimpleName</text>
</a>
</g>
</g>
<path d="M1327.5 245a10 10 0 0 0 10 -10v-88"></path>
<g class="diagram-text">
<title>take one or more branches, once each, in any order</title>
<path d="M 908.5 137 h -26 a 4 4 0 0 0 -4 4 v 12 a 4 4 0 0 0 4 4 h 26 z" class="diagram-text"></path>
<text x="893.5" y="151" class="diagram-text">1+</text>
<path d="M 1337.5 137 h 16 a 4 4 0 0 1 4 4 v 12 a 4 4 0 0 1 -4 4 h -16 z" class="diagram-text"></path>
<path d="M 1344.5 145 a 4 4 0 1 0 6 -1 m 2.75 -1 h -4 v 4 m 0 -3 h 2" style="stroke-width: 1.75"></path>
</g>
</g>
<path d="M1357.5 147h20"></path>
</g>
</g>
<path d="M1627 147a10 10 0 0 0 10 -10v-87a10 10 0 0 1 10 -10"></path>
<path d="M417 40a10 10 0 0 1 10 10v224a10 10 0 0 0 10 10"></path>
<g>
<path d="M437 284h0"></path>
<path d="M1627 284h0"></path>
<g>
<path d="M437 284h0"></path>
<path d="M916 284h0"></path>
<path d="M467 284h10"></path>
<g>
<path d="M477 284h119.25"></path>
<path d="M766.75 284h119.25"></path>
<g class="terminal ">
<path d="M596.25 284h0"></path>
<path d="M675.75 284h0"></path>
<rect x="596.25" y="273" width="79.5" height="22" rx="10" ry="10"></rect>
<text x="636" y="288">"INDEX"</text>
</g>
<path d="M675.75 284h10"></path>
<path d="M685.75 284h10"></path>
<g class="non-terminal ">
<path d="M695.75 284h0"></path>
<path d="M766.75 284h0"></path>
<rect x="695.75" y="273" width="71" height="22"></rect>
<a xlink:href="#/abap/expression/Source"><text x="731.25" y="288">Source</text>
</a>
</g>
</g>
<path d="M886 284h10"></path>
<path d="M467 284v20a10 10 0 0 0 10 10"></path>
<g>
<path d="M477 314h0"></path>
<path d="M886 314h0"></path>
<g class="terminal ">
<path d="M477 314h0"></path>
<path d="M616 314h0"></path>
<rect x="477" y="303" width="139" height="22" rx="10" ry="10"></rect>
<text x="546.5" y="318">"TRANSPORTING"</text>
</g>
<path d="M616 314h10"></path>
<path d="M626 314h10"></path>
<g>
<path d="M636 314h0"></path>
<path d="M886 314h0"></path>
<path d="M636 314h10"></path>
<g>
<path d="M646 314h0"></path>
<path d="M876 314h0"></path>
<path d="M646 314h20"></path>
<g class="non-terminal ">
<path d="M666 314h0"></path>
<path d="M856 314h0"></path>
<rect x="666" y="303" width="190" height="22"></rect>
<a xlink:href="#/abap/expression/ComponentChainSimple"><text x="761" y="318">ComponentChainSimple</text>
</a>
</g>
<path d="M856 314h20"></path>
<path d="M646 314a10 10 0 0 1 10 10v10a10 10 0 0 0 10 10"></path>
<g class="non-terminal ">
<path d="M666 344h55.25"></path>
<path d="M800.75 344h55.25"></path>
<rect x="721.25" y="333" width="79.5" height="22"></rect>
<a xlink:href="#/abap/expression/Dynamic"><text x="761" y="348">Dynamic</text>
</a>
</g>
<path d="M856 344a10 10 0 0 0 10 -10v-10a10 10 0 0 1 10 -10"></path>
</g>
<path d="M876 314h10"></path>
<path d="M646 314a10 10 0 0 0 -10 10v29a10 10 0 0 0 10 10"></path>
<g>
<path d="M646 363h230"></path>
</g>
<path d="M876 363a10 10 0 0 0 10 -10v-29a10 10 0 0 0 -10 -10"></path>
</g>
</g>
<path d="M886 314a10 10 0 0 0 10 -10v-20"></path>
<g class="diagram-text">
<title>take one or more branches, once each, in any order</title>
<path d="M 467 274 h -26 a 4 4 0 0 0 -4 4 v 12 a 4 4 0 0 0 4 4 h 26 z" class="diagram-text"></path>
<text x="452" y="288" class="diagram-text">1+</text>
<path d="M 896 274 h 16 a 4 4 0 0 1 4 4 v 12 a 4 4 0 0 1 -4 4 h -16 z" class="diagram-text"></path>
<path d="M 903 282 a 4 4 0 1 0 6 -1 m 2.75 -1 h -4 v 4 m 0 -3 h 2" style="stroke-width: 1.75"></path>
</g>
</g>
<path d="M916 284h10"></path>
<path d="M926 284h10"></path>
<g>
<path d="M936 284h0"></path>
<path d="M1098 284h0"></path>
<g class="terminal ">
<path d="M936 284h0"></path>
<path d="M1007 284h0"></path>
<rect x="936" y="273" width="71" height="22" rx="10" ry="10"></rect>
<text x="971.5" y="288">"FROM"</text>
</g>
<path d="M1007 284h10"></path>
<path d="M1017 284h10"></path>
<g class="non-terminal ">
<path d="M1027 284h0"></path>
<path d="M1098 284h0"></path>
<rect x="1027" y="273" width="71" height="22"></rect>
<a xlink:href="#/abap/expression/Source"><text x="1062.5" y="288">Source</text>
</a>
</g>
</g>
<path d="M1098 284h10"></path>
<g>
<path d="M1108 284h0"></path>
<path d="M1627 284h0"></path>
<path d="M1108 284a10 10 0 0 0 10 -10v0a10 10 0 0 1 10 -10"></path>
<g>
<path d="M1128 264h479"></path>
</g>
<path d="M1607 264a10 10 0 0 1 10 10v0a10 10 0 0 0 10 10"></path>
<path d="M1108 284h20"></path>
<g>
<path d="M1128 284h0"></path>
<path d="M1607 284h0"></path>
<path d="M1158 284h10"></path>
<g>
<path d="M1168 284h119.25"></path>
<path d="M1457.75 284h119.25"></path>
<g class="terminal ">
<path d="M1287.25 284h0"></path>
<path d="M1366.75 284h0"></path>
<rect x="1287.25" y="273" width="79.5" height="22" rx="10" ry="10"></rect>
<text x="1327" y="288">"INDEX"</text>
</g>
<path d="M1366.75 284h10"></path>
<path d="M1376.75 284h10"></path>
<g class="non-terminal ">
<path d="M1386.75 284h0"></path>
<path d="M1457.75 284h0"></path>
<rect x="1386.75" y="273" width="71" height="22"></rect>
<a xlink:href="#/abap/expression/Source"><text x="1422.25" y="288">Source</text>
</a>
</g>
</g>
<path d="M1577 284h10"></path>
<path d="M1158 284v20a10 10 0 0 0 10 10"></path>
<g>
<path d="M1168 314h0"></path>
<path d="M1577 314h0"></path>
<g class="terminal ">
<path d="M1168 314h0"></path>
<path d="M1307 314h0"></path>
<rect x="1168" y="303" width="139" height="22" rx="10" ry="10"></rect>
<text x="1237.5" y="318">"TRANSPORTING"</text>
</g>
<path d="M1307 314h10"></path>
<path d="M1317 314h10"></path>
<g>
<path d="M1327 314h0"></path>
<path d="M1577 314h0"></path>
<path d="M1327 314h10"></path>
<g>
<path d="M1337 314h0"></path>
<path d="M1567 314h0"></path>
<path d="M1337 314h20"></path>
<g class="non-terminal ">
<path d="M1357 314h0"></path>
<path d="M1547 314h0"></path>
<rect x="1357" y="303" width="190" height="22"></rect>
<a xlink:href="#/abap/expression/ComponentChainSimple"><text x="1452" y="318">ComponentChainSimple</text>
</a>
</g>
<path d="M1547 314h20"></path>
<path d="M1337 314a10 10 0 0 1 10 10v10a10 10 0 0 0 10 10"></path>
<g class="non-terminal ">
<path d="M1357 344h55.25"></path>
<path d="M1491.75 344h55.25"></path>
<rect x="1412.25" y="333" width="79.5" height="22"></rect>
<a xlink:href="#/abap/expression/Dynamic"><text x="1452" y="348">Dynamic</text>
</a>
</g>
<path d="M1547 344a10 10 0 0 0 10 -10v-10a10 10 0 0 1 10 -10"></path>
</g>
<path d="M1567 314h10"></path>
<path d="M1337 314a10 10 0 0 0 -10 10v29a10 10 0 0 0 10 10"></path>
<g>
<path d="M1337 363h230"></path>
</g>
<path d="M1567 363a10 10 0 0 0 10 -10v-29a10 10 0 0 0 -10 -10"></path>
</g>
</g>
<path d="M1577 314a10 10 0 0 0 10 -10v-20"></path>
<g class="diagram-text">
<title>take one or more branches, once each, in any order</title>
<path d="M 1158 274 h -26 a 4 4 0 0 0 -4 4 v 12 a 4 4 0 0 0 4 4 h 26 z" class="diagram-text"></path>
<text x="1143" y="288" class="diagram-text">1+</text>
<path d="M 1587 274 h 16 a 4 4 0 0 1 4 4 v 12 a 4 4 0 0 1 -4 4 h -16 z" class="diagram-text"></path>
<path d="M 1594 282 a 4 4 0 1 0 6 -1 m 2.75 -1 h -4 v 4 m 0 -3 h 2" style="stroke-width: 1.75"></path>
</g>
</g>
<path d="M1607 284h20"></path>
</g>
</g>
<path d="M1627 284a10 10 0 0 0 10 -10v-224a10 10 0 0 1 10 -10"></path>
</g>
<path d="M1647 40h20"></path>
</g>
<g>
<path d="M1667 40h0"></path>
<path d="M2015.5 40h0"></path>
<path d="M1667 40a10 10 0 0 0 10 -10v0a10 10 0 0 1 10 -10"></path>
<g>
<path d="M1687 20h308.5"></path>
</g>
<path d="M1995.5 20a10 10 0 0 1 10 10v0a10 10 0 0 0 10 10"></path>
<path d="M1667 40h20"></path>
<g>
<path d="M1687 40h0"></path>
<path d="M1995.5 40h0"></path>
<path d="M1717 40h10"></path>
<g>
<path d="M1727 40h4.25"></path>
<path d="M1961.25 40h4.25"></path>
<g class="terminal ">
<path d="M1731.25 40h0"></path>
<path d="M1810.75 40h0"></path>
<rect x="1731.25" y="29" width="79.5" height="22" rx="10" ry="10"></rect>
<text x="1771" y="44">"WHERE"</text>
</g>
<path d="M1810.75 40h10"></path>
<path d="M1820.75 40h10"></path>
<g class="non-terminal ">
<path d="M1830.75 40h0"></path>
<path d="M1961.25 40h0"></path>
<rect x="1830.75" y="29" width="130.5" height="22"></rect>
<a xlink:href="#/abap/expression/ComponentCond"><text x="1896" y="44">ComponentCond</text>
</a>
</g>
</g>
<path d="M1965.5 40h10"></path>
<path d="M1717 40v20a10 10 0 0 0 10 10"></path>
<g>
<path d="M1727 70h8.5"></path>
<path d="M1957 70h8.5"></path>
<g class="terminal ">
<path d="M1735.5 70h0"></path>
<path d="M1849 70h0"></path>
<rect x="1735.5" y="59" width="113.5" height="22" rx="10" ry="10"></rect>
<text x="1792.25" y="74">"ASSIGNING"</text>
</g>
<path d="M1849 70h10"></path>
<path d="M1859 70h10"></path>
<g class="non-terminal ">
<path d="M1869 70h0"></path>
<path d="M1957 70h0"></path>
<rect x="1869" y="59" width="88" height="22"></rect>
<a xlink:href="#/abap/expression/FSTarget"><text x="1913" y="74">FSTarget</text>
</a>
</g>
</g>
<path d="M1965.5 70a10 10 0 0 0 10 -10v-20"></path>
<path d="M1717 40v50a10 10 0 0 0 10 10"></path>
<g>
<path d="M1727 100h0"></path>
<path d="M1965.5 100h0"></path>
<g class="terminal ">
<path d="M1727 100h0"></path>
<path d="M1840.5 100h0"></path>
<rect x="1727" y="89" width="113.5" height="22" rx="10" ry="10"></rect>
<text x="1783.75" y="104">"USING KEY"</text>
</g>
<path d="M1840.5 100h10"></path>
<path d="M1850.5 100h10"></path>
<g class="non-terminal ">
<path d="M1860.5 100h0"></path>
<path d="M1965.5 100h0"></path>
<rect x="1860.5" y="89" width="105" height="22"></rect>
<a xlink:href="#/abap/expression/SimpleName"><text x="1913" y="104">SimpleName</text>
</a>
</g>
</g>
<path d="M1965.5 100a10 10 0 0 0 10 -10v-50"></path>
<g class="diagram-text">
<title>take one or more branches, once each, in any order</title>
<path d="M 1717 30 h -26 a 4 4 0 0 0 -4 4 v 12 a 4 4 0 0 0 4 4 h 26 z" class="diagram-text"></path>
<text x="1702" y="44" class="diagram-text">1+</text>
<path d="M 1975.5 30 h 16 a 4 4 0 0 1 4 4 v 12 a 4 4 0 0 1 -4 4 h -16 z" class="diagram-text"></path>
<path d="M 1982.5 38 a 4 4 0 1 0 6 -1 m 2.75 -1 h -4 v 4 m 0 -3 h 2" style="stroke-width: 1.75"></path>
</g>
</g>
<path d="M1995.5 40h20"></path>
</g>
</g>
<path d="M2015.5 40h20"></path>
<path d="M40 40a10 10 0 0 1 10 10v322a10 10 0 0 0 10 10"></path>
<g>
<path d="M60 382h684.25"></path>
<path d="M1331.25 382h684.25"></path>
<g class="terminal ">
<path d="M744.25 382h0"></path>
<path d="M883.25 382h0"></path>
<rect x="744.25" y="371" width="139" height="22" rx="10" ry="10"></rect>
<text x="813.75" y="386">"MODIFY TABLE"</text>
</g>
<path d="M883.25 382h10"></path>
<g>
<path d="M893.25 382h0"></path>
<path d="M1012.75 382h0"></path>
<path d="M893.25 382h20"></path>
<g class="non-terminal ">
<path d="M913.25 382h4.25"></path>
<path d="M988.5 382h4.25"></path>
<rect x="917.5" y="371" width="71" height="22"></rect>
<a xlink:href="#/abap/expression/Target"><text x="953" y="386">Target</text>
</a>
</g>
<path d="M992.75 382h20"></path>
<path d="M893.25 382a10 10 0 0 1 10 10v10a10 10 0 0 0 10 10"></path>
<g class="non-terminal ">
<path d="M913.25 412h0"></path>
<path d="M992.75 412h0"></path>
<rect x="913.25" y="401" width="79.5" height="22"></rect>
<a xlink:href="#/abap/expression/Dynamic"><text x="953" y="416">Dynamic</text>
</a>
</g>
<path d="M992.75 412a10 10 0 0 0 10 -10v-10a10 10 0 0 1 10 -10"></path>
</g>
<path d="M1012.75 382h10"></path>
<g>
<path d="M1022.75 382h0"></path>
<path d="M1331.25 382h0"></path>
<path d="M1052.75 382h10"></path>
<g>
<path d="M1062.75 382h38.25"></path>
<path d="M1263 382h38.25"></path>
<g class="terminal ">
<path d="M1101 382h0"></path>
<path d="M1172 382h0"></path>
<rect x="1101" y="371" width="71" height="22" rx="10" ry="10"></rect>
<text x="1136.5" y="386">"FROM"</text>
</g>
<path d="M1172 382h10"></path>
<path d="M1182 382h10"></path>
<g class="non-terminal ">
<path d="M1192 382h0"></path>
<path d="M1263 382h0"></path>
<rect x="1192" y="371" width="71" height="22"></rect>
<a xlink:href="#/abap/expression/Source"><text x="1227.5" y="386">Source</text>
</a>
</g>
</g>
<path d="M1301.25 382h10"></path>
<path d="M1052.75 382v20a10 10 0 0 0 10 10"></path>
<g>
<path d="M1062.75 412h0"></path>
<path d="M1301.25 412h0"></path>
<g class="terminal ">
<path d="M1062.75 412h0"></path>
<path d="M1176.25 412h0"></path>
<rect x="1062.75" y="401" width="113.5" height="22" rx="10" ry="10"></rect>
<text x="1119.5" y="416">"USING KEY"</text>
</g>
<path d="M1176.25 412h10"></path>
<path d="M1186.25 412h10"></path>
<g class="non-terminal ">
<path d="M1196.25 412h0"></path>
<path d="M1301.25 412h0"></path>
<rect x="1196.25" y="401" width="105" height="22"></rect>
<a xlink:href="#/abap/expression/SimpleName"><text x="1248.75" y="416">SimpleName</text>
</a>
</g>
</g>
<path d="M1301.25 412a10 10 0 0 0 10 -10v-20"></path>
<g class="diagram-text">
<title>take one or more branches, once each, in any order</title>
<path d="M 1052.75 372 h -26 a 4 4 0 0 0 -4 4 v 12 a 4 4 0 0 0 4 4 h 26 z" class="diagram-text"></path>
<text x="1037.75" y="386" class="diagram-text">1+</text>
<path d="M 1311.25 372 h 16 a 4 4 0 0 1 4 4 v 12 a 4 4 0 0 1 -4 4 h -16 z" class="diagram-text"></path>
<path d="M 1318.25 380 a 4 4 0 1 0 6 -1 m 2.75 -1 h -4 v 4 m 0 -3 h 2" style="stroke-width: 1.75"></path>
</g>
</g>
</g>
<path d="M2015.5 382a10 10 0 0 0 10 -10v-322a10 10 0 0 1 10 -10"></path>
</g>
<path d="M 2035.5 40 h 20 m -10 -10 v 20 m 10 -20 v 20"></path>
</g>
</svg>
