<svg xmlns="http://www.w3.org/2000/svg" xmlns:xlink="http://www.w3.org/1999/xlink" class="railroad-diagram" width="741.5" height="821" viewBox="0 0 741.5 821">
<defs>
<style type="text/css"><![CDATA[
path {
stroke-width: 3;
stroke: black;
fill: rgba(0,0,0,0);
}
text {
font: bold 14px monospace;
text-anchor: middle;
}
text.diagram-text {
font-size: 12px;
}
a {
fill: blue;
}
text.diagram-arrow {
font-size: 16px;
}
text.label {
text-anchor: start;
}
text.comment {
font: italic 12px monospace;
}
rect {
stroke-width: 3;
stroke: black;
fill: #BCBCBC;
}
path.diagram-text {
stroke-width: 3;
stroke: black;
fill: #BCBCBC;
cursor: help;
}
]]></style>
</defs>
<g transform="translate(.5 .5)">
<g>
<path d="M20 30v20m10 -20v20m-10 -10h20"></path>
</g>
<path d="M40 40h10"></path>
<g>
<path d="M50 40h0"></path>
<path d="M691.5 40h0"></path>
<g class="comment ">
<path d="M50 40h0"></path>
<path d="M123 40h0"></path>
<text x="86.5" y="45" class="comment">not Cloud</text>
</g>
<path d="M123 40h10"></path>
<path d="M133 40h10"></path>
<g>
<path d="M143 40h0"></path>
<path d="M691.5 40h0"></path>
<g class="terminal ">
<path d="M143 40h0"></path>
<path d="M248 40h0"></path>
<rect x="143" y="29" width="105" height="22" rx="10" ry="10"></rect>
<text x="195.5" y="44">"NEW-PAGE"</text>
</g>
<path d="M248 40h10"></path>
<g>
<path d="M258 40h0"></path>
<path d="M691.5 40h0"></path>
<path d="M258 40a10 10 0 0 0 10 -10v0a10 10 0 0 1 10 -10"></path>
<g>
<path d="M278 20h393.5"></path>
</g>
<path d="M671.5 20a10 10 0 0 1 10 10v0a10 10 0 0 0 10 10"></path>
<path d="M258 40h20"></path>
<g>
<path d="M278 40h0"></path>
<path d="M671.5 40h0"></path>
<path d="M308 40h10"></path>
<g>
<path d="M318 40h65.75"></path>
<path d="M575.75 40h65.75"></path>
<g class="terminal ">
<path d="M383.75 40h0"></path>
<path d="M463.25 40h0"></path>
<rect x="383.75" y="29" width="79.5" height="22" rx="10" ry="10"></rect>
<text x="423.5" y="44">"PRINT"</text>
</g>
<path d="M463.25 40h10"></path>
<g>
<path d="M473.25 40h0"></path>
<path d="M575.75 40h0"></path>
<path d="M473.25 40h20"></path>
<g class="terminal ">
<path d="M493.25 40h0"></path>
<path d="M555.75 40h0"></path>
<rect x="493.25" y="29" width="62.5" height="22" rx="10" ry="10"></rect>
<text x="524.5" y="44">"OFF"</text>
</g>
<path d="M555.75 40h20"></path>
<path d="M473.25 40a10 10 0 0 1 10 10v10a10 10 0 0 0 10 10"></path>
<g class="terminal ">
<path d="M493.25 70h4.25"></path>
<path d="M551.5 70h4.25"></path>
<rect x="497.5" y="59" width="54" height="22" rx="10" ry="10"></rect>
<text x="524.5" y="74">"ON"</text>
</g>
<path d="M555.75 70a10 10 0 0 0 10 -10v-10a10 10 0 0 1 10 -10"></path>
</g>
</g>
<path d="M641.5 40h10"></path>
<path d="M308 40v50a10 10 0 0 0 10 10"></path>
<g>
<path d="M318 100h80.75"></path>
<path d="M560.75 100h80.75"></path>
<path d="M398.75 100h20"></path>
<g class="terminal ">
<path d="M418.75 100h8.5"></path>
<path d="M532.25 100h8.5"></path>
<rect x="427.25" y="89" width="105" height="22" rx="10" ry="10"></rect>
<text x="479.75" y="104">"NO-TITLE"</text>
</g>
<path d="M540.75 100h20"></path>
<path d="M398.75 100a10 10 0 0 1 10 10v10a10 10 0 0 0 10 10"></path>
<g class="terminal ">
<path d="M418.75 130h0"></path>
<path d="M540.75 130h0"></path>
<rect x="418.75" y="119" width="122" height="22" rx="10" ry="10"></rect>
<text x="479.75" y="134">"WITH-TITLE"</text>
</g>
<path d="M540.75 130a10 10 0 0 0 10 -10v-10a10 10 0 0 1 10 -10"></path>
</g>
<path d="M641.5 100a10 10 0 0 0 10 -10v-50"></path>
<path d="M308 40v110a10 10 0 0 0 10 10"></path>
<g>
<path d="M318 160h72.25"></path>
<path d="M569.25 160h72.25"></path>
<path d="M390.25 160h20"></path>
<g class="terminal ">
<path d="M410.25 160h8.5"></path>
<path d="M540.75 160h8.5"></path>
<rect x="418.75" y="149" width="122" height="22" rx="10" ry="10"></rect>
<text x="479.75" y="164">"NO-HEADING"</text>
</g>
<path d="M549.25 160h20"></path>
<path d="M390.25 160a10 10 0 0 1 10 10v10a10 10 0 0 0 10 10"></path>
<g class="terminal ">
<path d="M410.25 190h0"></path>
<path d="M549.25 190h0"></path>
<rect x="410.25" y="179" width="139" height="22" rx="10" ry="10"></rect>
<text x="479.75" y="194">"WITH-HEADING"</text>
</g>
<path d="M549.25 190a10 10 0 0 0 10 -10v-10a10 10 0 0 1 10 -10"></path>
</g>
<path d="M641.5 160a10 10 0 0 0 10 -10v-110"></path>
<path d="M308 40v170a10 10 0 0 0 10 10"></path>
<g class="terminal ">
<path d="M318 220h105"></path>
<path d="M536.5 220h105"></path>
<rect x="423" y="209" width="113.5" height="22" rx="10" ry="10"></rect>
<text x="479.75" y="224">"NO DIALOG"</text>
</g>
<path d="M641.5 220a10 10 0 0 0 10 -10v-170"></path>
<path d="M308 40v200a10 10 0 0 0 10 10"></path>
<g class="terminal ">
<path d="M318 250h92.25"></path>
<path d="M549.25 250h92.25"></path>
<rect x="410.25" y="239" width="139" height="22" rx="10" ry="10"></rect>
<text x="479.75" y="254">"NO-TOPOFPAGE"</text>
</g>
<path d="M641.5 250a10 10 0 0 0 10 -10v-200"></path>
<path d="M308 40v230a10 10 0 0 0 10 10"></path>
<g>
<path d="M318 280h55.25"></path>
<path d="M586.25 280h55.25"></path>
<g class="terminal ">
<path d="M373.25 280h0"></path>
<path d="M495.25 280h0"></path>
<rect x="373.25" y="269" width="122" height="22" rx="10" ry="10"></rect>
<text x="434.25" y="284">"PARAMETERS"</text>
</g>
<path d="M495.25 280h10"></path>
<path d="M505.25 280h10"></path>
<g class="non-terminal ">
<path d="M515.25 280h0"></path>
<path d="M586.25 280h0"></path>
<rect x="515.25" y="269" width="71" height="22"></rect>
<a xlink:href="#/abap/expression/Source"><text x="550.75" y="284">Source</text>
</a>
</g>
</g>
<path d="M641.5 280a10 10 0 0 0 10 -10v-230"></path>
<path d="M308 40v260a10 10 0 0 0 10 10"></path>
<g>
<path d="M318 310h38.25"></path>
<path d="M603.25 310h38.25"></path>
<g class="terminal ">
<path d="M356.25 310h0"></path>
<path d="M512.25 310h0"></path>
<rect x="356.25" y="299" width="156" height="22" rx="10" ry="10"></rect>
<text x="434.25" y="314">"LIST AUTHORITY"</text>
</g>
<path d="M512.25 310h10"></path>
<path d="M522.25 310h10"></path>
<g class="non-terminal ">
<path d="M532.25 310h0"></path>
<path d="M603.25 310h0"></path>
<rect x="532.25" y="299" width="71" height="22"></rect>
<a xlink:href="#/abap/expression/Source"><text x="567.75" y="314">Source</text>
</a>
</g>
</g>
<path d="M641.5 310a10 10 0 0 0 10 -10v-260"></path>
<path d="M308 40v290a10 10 0 0 0 10 10"></path>
<g>
<path d="M318 340h51"></path>
<path d="M590.5 340h51"></path>
<g class="terminal ">
<path d="M369 340h0"></path>
<path d="M499.5 340h0"></path>
<rect x="369" y="329" width="130.5" height="22" rx="10" ry="10"></rect>
<text x="434.25" y="344">"IMMEDIATELY"</text>
</g>
<path d="M499.5 340h10"></path>
<path d="M509.5 340h10"></path>
<g class="non-terminal ">
<path d="M519.5 340h0"></path>
<path d="M590.5 340h0"></path>
<rect x="519.5" y="329" width="71" height="22"></rect>
<a xlink:href="#/abap/expression/Source"><text x="555" y="344">Source</text>
</a>
</g>
</g>
<path d="M641.5 340a10 10 0 0 0 10 -10v-290"></path>
<path d="M308 40v320a10 10 0 0 0 10 10"></path>
<g>
<path d="M318 370h46.75"></path>
<path d="M594.75 370h46.75"></path>
<g class="terminal ">
<path d="M364.75 370h0"></path>
<path d="M503.75 370h0"></path>
<rect x="364.75" y="359" width="139" height="22" rx="10" ry="10"></rect>
<text x="434.25" y="374">"LIST DATASET"</text>
</g>
<path d="M503.75 370h10"></path>
<path d="M513.75 370h10"></path>
<g class="non-terminal ">
<path d="M523.75 370h0"></path>
<path d="M594.75 370h0"></path>
<rect x="523.75" y="359" width="71" height="22"></rect>
<a xlink:href="#/abap/expression/Source"><text x="559.25" y="374">Source</text>
</a>
</g>
</g>
<path d="M641.5 370a10 10 0 0 0 10 -10v-320"></path>
<path d="M308 40v350a10 10 0 0 0 10 10"></path>
<g>
<path d="M318 400h38.25"></path>
<path d="M603.25 400h38.25"></path>
<g class="terminal ">
<path d="M356.25 400h0"></path>
<path d="M512.25 400h0"></path>
<rect x="356.25" y="389" width="156" height="22" rx="10" ry="10"></rect>
<text x="434.25" y="404">"SAP COVER PAGE"</text>
</g>
<path d="M512.25 400h10"></path>
<path d="M522.25 400h10"></path>
<g class="non-terminal ">
<path d="M532.25 400h0"></path>
<path d="M603.25 400h0"></path>
<rect x="532.25" y="389" width="71" height="22"></rect>
<a xlink:href="#/abap/expression/Source"><text x="567.75" y="404">Source</text>
</a>
</g>
</g>
<path d="M641.5 400a10 10 0 0 0 10 -10v-350"></path>
<path d="M308 40v380a10 10 0 0 0 10 10"></path>
<g>
<path d="M318 430h0"></path>
<path d="M641.5 430h0"></path>
<g class="terminal ">
<path d="M318 430h0"></path>
<path d="M550.5 430h0"></path>
<rect x="318" y="419" width="232.5" height="22" rx="10" ry="10"></rect>
<text x="434.25" y="434">"NEW LIST IDENTIFICATION"</text>
</g>
<path d="M550.5 430h10"></path>
<path d="M560.5 430h10"></path>
<g class="non-terminal ">
<path d="M570.5 430h0"></path>
<path d="M641.5 430h0"></path>
<rect x="570.5" y="419" width="71" height="22"></rect>
<a xlink:href="#/abap/expression/Source"><text x="606" y="434">Source</text>
</a>
</g>
</g>
<path d="M641.5 430a10 10 0 0 0 10 -10v-380"></path>
<path d="M308 40v410a10 10 0 0 0 10 10"></path>
<g>
<path d="M318 460h42.5"></path>
<path d="M599 460h42.5"></path>
<g class="terminal ">
<path d="M360.5 460h0"></path>
<path d="M508 460h0"></path>
<rect x="360.5" y="449" width="147.5" height="22" rx="10" ry="10"></rect>
<text x="434.25" y="464">"KEEP IN SPOOL"</text>
</g>
<path d="M508 460h10"></path>
<path d="M518 460h10"></path>
<g class="non-terminal ">
<path d="M528 460h0"></path>
<path d="M599 460h0"></path>
<rect x="528" y="449" width="71" height="22"></rect>
<a xlink:href="#/abap/expression/Source"><text x="563.5" y="464">Source</text>
</a>
</g>
</g>
<path d="M641.5 460a10 10 0 0 0 10 -10v-410"></path>
<path d="M308 40v440a10 10 0 0 0 10 10"></path>
<g>
<path d="M318 490h55.25"></path>
<path d="M586.25 490h55.25"></path>
<g class="terminal ">
<path d="M373.25 490h0"></path>
<path d="M495.25 490h0"></path>
<rect x="373.25" y="479" width="122" height="22" rx="10" ry="10"></rect>
<text x="434.25" y="494">"DEPARTMENT"</text>
</g>
<path d="M495.25 490h10"></path>
<path d="M505.25 490h10"></path>
<g class="non-terminal ">
<path d="M515.25 490h0"></path>
<path d="M586.25 490h0"></path>
<rect x="515.25" y="479" width="71" height="22"></rect>
<a xlink:href="#/abap/expression/Source"><text x="550.75" y="494">Source</text>
</a>
</g>
</g>
<path d="M641.5 490a10 10 0 0 0 10 -10v-440"></path>
<path d="M308 40v470a10 10 0 0 0 10 10"></path>
<g>
<path d="M318 520h59.5"></path>
<path d="M582 520h59.5"></path>
<g class="terminal ">
<path d="M377.5 520h0"></path>
<path d="M491 520h0"></path>
<rect x="377.5" y="509" width="113.5" height="22" rx="10" ry="10"></rect>
<text x="434.25" y="524">"LIST NAME"</text>
</g>
<path d="M491 520h10"></path>
<path d="M501 520h10"></path>
<g class="non-terminal ">
<path d="M511 520h0"></path>
<path d="M582 520h0"></path>
<rect x="511" y="509" width="71" height="22"></rect>
<a xlink:href="#/abap/expression/Source"><text x="546.5" y="524">Source</text>
</a>
</g>
</g>
<path d="M641.5 520a10 10 0 0 0 10 -10v-470"></path>
<path d="M308 40v500a10 10 0 0 0 10 10"></path>
<g>
<path d="M318 550h72.25"></path>
<path d="M569.25 550h72.25"></path>
<g class="terminal ">
<path d="M390.25 550h0"></path>
<path d="M478.25 550h0"></path>
<rect x="390.25" y="539" width="88" height="22" rx="10" ry="10"></rect>
<text x="434.25" y="554">"LAYOUT"</text>
</g>
<path d="M478.25 550h10"></path>
<path d="M488.25 550h10"></path>
<g class="non-terminal ">
<path d="M498.25 550h0"></path>
<path d="M569.25 550h0"></path>
<rect x="498.25" y="539" width="71" height="22"></rect>
<a xlink:href="#/abap/expression/Source"><text x="533.75" y="554">Source</text>
</a>
</g>
</g>
<path d="M641.5 550a10 10 0 0 0 10 -10v-500"></path>
<path d="M308 40v530a10 10 0 0 0 10 10"></path>
<g>
<path d="M318 580h51"></path>
<path d="M590.5 580h51"></path>
<g class="terminal ">
<path d="M369 580h0"></path>
<path d="M499.5 580h0"></path>
<rect x="369" y="569" width="130.5" height="22" rx="10" ry="10"></rect>
<text x="434.25" y="584">"DESTINATION"</text>
</g>
<path d="M499.5 580h10"></path>
<path d="M509.5 580h10"></path>
<g class="non-terminal ">
<path d="M519.5 580h0"></path>
<path d="M590.5 580h0"></path>
<rect x="519.5" y="569" width="71" height="22"></rect>
<a xlink:href="#/abap/expression/Source"><text x="555" y="584">Source</text>
</a>
</g>
</g>
<path d="M641.5 580a10 10 0 0 0 10 -10v-530"></path>
<path d="M308 40v560a10 10 0 0 0 10 10"></path>
<g>
<path d="M318 610h63.75"></path>
<path d="M577.75 610h63.75"></path>
<g class="terminal ">
<path d="M381.75 610h0"></path>
<path d="M486.75 610h0"></path>
<rect x="381.75" y="599" width="105" height="22" rx="10" ry="10"></rect>
<text x="434.25" y="614">"RECEIVER"</text>
</g>
<path d="M486.75 610h10"></path>
<path d="M496.75 610h10"></path>
<g class="non-terminal ">
<path d="M506.75 610h0"></path>
<path d="M577.75 610h0"></path>
<rect x="506.75" y="599" width="71" height="22"></rect>
<a xlink:href="#/abap/expression/Source"><text x="542.25" y="614">Source</text>
</a>
</g>
</g>
<path d="M641.5 610a10 10 0 0 0 10 -10v-560"></path>
<path d="M308 40v590a10 10 0 0 0 10 10"></path>
<g>
<path d="M318 640h72.25"></path>
<path d="M569.25 640h72.25"></path>
<g class="terminal ">
<path d="M390.25 640h0"></path>
<path d="M478.25 640h0"></path>
<rect x="390.25" y="629" width="88" height="22" rx="10" ry="10"></rect>
<text x="434.25" y="644">"COPIES"</text>
</g>
<path d="M478.25 640h10"></path>
<path d="M488.25 640h10"></path>
<g class="non-terminal ">
<path d="M498.25 640h0"></path>
<path d="M569.25 640h0"></path>
<rect x="498.25" y="629" width="71" height="22"></rect>
<a xlink:href="#/abap/expression/Source"><text x="533.75" y="644">Source</text>
</a>
</g>
</g>
<path d="M641.5 640a10 10 0 0 0 10 -10v-590"></path>
<path d="M308 40v620a10 10 0 0 0 10 10"></path>
<g>
<path d="M318 670h55.25"></path>
<path d="M586.25 670h55.25"></path>
<g class="terminal ">
<path d="M373.25 670h0"></path>
<path d="M495.25 670h0"></path>
<rect x="373.25" y="659" width="122" height="22" rx="10" ry="10"></rect>
<text x="434.25" y="674">"COVER TEXT"</text>
</g>
<path d="M495.25 670h10"></path>
<path d="M505.25 670h10"></path>
<g class="non-terminal ">
<path d="M515.25 670h0"></path>
<path d="M586.25 670h0"></path>
<rect x="515.25" y="659" width="71" height="22"></rect>
<a xlink:href="#/abap/expression/Source"><text x="550.75" y="674">Source</text>
</a>
</g>
</g>
<path d="M641.5 670a10 10 0 0 0 10 -10v-620"></path>
<path d="M308 40v650a10 10 0 0 0 10 10"></path>
<g>
<path d="M318 700h21.25"></path>
<path d="M620.25 700h21.25"></path>
<g class="terminal ">
<path d="M339.25 700h0"></path>
<path d="M529.25 700h0"></path>
<rect x="339.25" y="689" width="190" height="22" rx="10" ry="10"></rect>
<text x="434.25" y="704">"ARCHIVE PARAMETERS"</text>
</g>
<path d="M529.25 700h10"></path>
<path d="M539.25 700h10"></path>
<g class="non-terminal ">
<path d="M549.25 700h0"></path>
<path d="M620.25 700h0"></path>
<rect x="549.25" y="689" width="71" height="22"></rect>
<a xlink:href="#/abap/expression/Source"><text x="584.75" y="704">Source</text>
</a>
</g>
</g>
<path d="M641.5 700a10 10 0 0 0 10 -10v-650"></path>
<path d="M308 40v680a10 10 0 0 0 10 10"></path>
<g class="terminal ">
<path d="M318 730h96.5"></path>
<path d="M545 730h96.5"></path>
<rect x="414.5" y="719" width="130.5" height="22" rx="10" ry="10"></rect>
<text x="479.75" y="734">"NEW-SECTION"</text>
</g>
<path d="M641.5 730a10 10 0 0 0 10 -10v-680"></path>
<path d="M308 40v710a10 10 0 0 0 10 10"></path>
<g>
<path d="M318 760h55.25"></path>
<path d="M586.25 760h55.25"></path>
<g class="terminal ">
<path d="M373.25 760h0"></path>
<path d="M495.25 760h0"></path>
<rect x="373.25" y="749" width="122" height="22" rx="10" ry="10"></rect>
<text x="434.25" y="764">"LINE-COUNT"</text>
</g>
<path d="M495.25 760h10"></path>
<path d="M505.25 760h10"></path>
<g class="non-terminal ">
<path d="M515.25 760h0"></path>
<path d="M586.25 760h0"></path>
<rect x="515.25" y="749" width="71" height="22"></rect>
<a xlink:href="#/abap/expression/Source"><text x="550.75" y="764">Source</text>
</a>
</g>
</g>
<path d="M641.5 760a10 10 0 0 0 10 -10v-710"></path>
<path d="M308 40v740a10 10 0 0 0 10 10"></path>
<g>
<path d="M318 790h59.5"></path>
<path d="M582 790h59.5"></path>
<g class="terminal ">
<path d="M377.5 790h0"></path>
<path d="M491 790h0"></path>
<rect x="377.5" y="779" width="113.5" height="22" rx="10" ry="10"></rect>
<text x="434.25" y="794">"LINE-SIZE"</text>
</g>
<path d="M491 790h10"></path>
<path d="M501 790h10"></path>
<g class="non-terminal ">
<path d="M511 790h0"></path>
<path d="M582 790h0"></path>
<rect x="511" y="779" width="71" height="22"></rect>
<a xlink:href="#/abap/expression/Source"><text x="546.5" y="794">Source</text>
</a>
</g>
</g>
<path d="M641.5 790a10 10 0 0 0 10 -10v-740"></path>
<g class="diagram-text">
<title>take one or more branches, once each, in any order</title>
<path d="M 308 30 h -26 a 4 4 0 0 0 -4 4 v 12 a 4 4 0 0 0 4 4 h 26 z" class="diagram-text"></path>
<text x="293" y="44" class="diagram-text">1+</text>
<path d="M 651.5 30 h 16 a 4 4 0 0 1 4 4 v 12 a 4 4 0 0 1 -4 4 h -16 z" class="diagram-text"></path>
<path d="M 658.5 38 a 4 4 0 1 0 6 -1 m 2.75 -1 h -4 v 4 m 0 -3 h 2" style="stroke-width: 1.75"></path>
</g>
</g>
<path d="M671.5 40h20"></path>
</g>
</g>
</g>
<path d="M691.5 40h10"></path>
<path d="M 701.5 40 h 20 m -10 -10 v 20 m 10 -20 v 20"></path>
</g>
</svg>
