<svg xmlns="http://www.w3.org/2000/svg" xmlns:xlink="http://www.w3.org/1999/xlink" class="railroad-diagram" width="1366.5" height="161" viewBox="0 0 1366.5 161">
<defs>
<style type="text/css"><![CDATA[
path {
stroke-width: 3;
stroke: black;
fill: rgba(0,0,0,0);
}
text {
font: bold 14px monospace;
text-anchor: middle;
}
text.diagram-text {
font-size: 12px;
}
a {
fill: blue;
}
text.diagram-arrow {
font-size: 16px;
}
text.label {
text-anchor: start;
}
text.comment {
font: italic 12px monospace;
}
rect {
stroke-width: 3;
stroke: black;
fill: #BCBCBC;
}
path.diagram-text {
stroke-width: 3;
stroke: black;
fill: #BCBCBC;
cursor: help;
}
]]></style>
</defs>
<g transform="translate(.5 .5)">
<g>
<path d="M20 30v20m10 -20v20m-10 -10h20"></path>
</g>
<path d="M40 40h10"></path>
<g>
<path d="M50 40h0"></path>
<path d="M1316.5 40h0"></path>
<g class="comment ">
<path d="M50 40h0"></path>
<path d="M193 40h0"></path>
<text x="121.5" y="45" class="comment">not langver=KeyUser</text>
</g>
<path d="M193 40h10"></path>
<path d="M203 40h10"></path>
<g>
<path d="M213 40h0"></path>
<path d="M1316.5 40h0"></path>
<g class="terminal ">
<path d="M213 40h0"></path>
<path d="M284 40h0"></path>
<rect x="213" y="29" width="71" height="22" rx="10" ry="10"></rect>
<text x="248.5" y="44">"WAIT"</text>
</g>
<path d="M284 40h10"></path>
<g>
<path d="M294 40h0"></path>
<path d="M1316.5 40h0"></path>
<path d="M294 40h20"></path>
<g>
<path d="M314 40h0"></path>
<path d="M1296.5 40h0"></path>
<g>
<path d="M314 40h0"></path>
<path d="M796 40h0"></path>
<path d="M314 40a10 10 0 0 0 10 -10v0a10 10 0 0 1 10 -10"></path>
<g>
<path d="M334 20h442"></path>
</g>
<path d="M776 20a10 10 0 0 1 10 10v0a10 10 0 0 0 10 10"></path>
<path d="M314 40h20"></path>
<g>
<path d="M334 40h0"></path>
<path d="M776 40h0"></path>
<g class="terminal ">
<path d="M334 40h0"></path>
<path d="M396.5 40h0"></path>
<rect x="334" y="29" width="62.5" height="22" rx="10" ry="10"></rect>
<text x="365.25" y="44">"FOR"</text>
</g>
<path d="M396.5 40h10"></path>
<path d="M406.5 40h10"></path>
<g>
<path d="M416.5 40h0"></path>
<path d="M776 40h0"></path>
<path d="M446.5 40h10"></path>
<g class="terminal ">
<path d="M456.5 40h49.75"></path>
<path d="M696.25 40h49.75"></path>
<rect x="506.25" y="29" width="190" height="22" rx="10" ry="10"></rect>
<text x="601.25" y="44">"MESSAGING CHANNELS"</text>
</g>
<path d="M746 40h10"></path>
<path d="M446.5 40v20a10 10 0 0 0 10 10"></path>
<g>
<path d="M456.5 70h0"></path>
<path d="M746 70h0"></path>
<g class="comment ">
<path d="M456.5 70h0"></path>
<path d="M578.5 70h0"></path>
<text x="517.5" y="75" class="comment">7.62 or OpenABAP</text>
</g>
<path d="M578.5 70h10"></path>
<path d="M588.5 70h10"></path>
<g class="terminal ">
<path d="M598.5 70h0"></path>
<path d="M746 70h0"></path>
<rect x="598.5" y="59" width="147.5" height="22" rx="10" ry="10"></rect>
<text x="672.25" y="74">"PUSH CHANNELS"</text>
</g>
</g>
<path d="M746 70a10 10 0 0 0 10 -10v-20"></path>
<path d="M446.5 40v50a10 10 0 0 0 10 10"></path>
<g class="terminal ">
<path d="M456.5 100h49.75"></path>
<path d="M696.25 100h49.75"></path>
<rect x="506.25" y="89" width="190" height="22" rx="10" ry="10"></rect>
<text x="601.25" y="104">"ASYNCHRONOUS TASKS"</text>
</g>
<path d="M746 100a10 10 0 0 0 10 -10v-50"></path>
<g class="diagram-text">
<title>take one or more branches, once each, in any order</title>
<path d="M 446.5 30 h -26 a 4 4 0 0 0 -4 4 v 12 a 4 4 0 0 0 4 4 h 26 z" class="diagram-text"></path>
<text x="431.5" y="44" class="diagram-text">1+</text>
<path d="M 756 30 h 16 a 4 4 0 0 1 4 4 v 12 a 4 4 0 0 1 -4 4 h -16 z" class="diagram-text"></path>
<path d="M 763 38 a 4 4 0 1 0 6 -1 m 2.75 -1 h -4 v 4 m 0 -3 h 2" style="stroke-width: 1.75"></path>
</g>
</g>
</g>
<path d="M776 40h20"></path>
</g>
<path d="M796 40h10"></path>
<g class="terminal ">
<path d="M806 40h0"></path>
<path d="M885.5 40h0"></path>
<rect x="806" y="29" width="79.5" height="22" rx="10" ry="10"></rect>
<text x="845.75" y="44">"UNTIL"</text>
</g>
<path d="M885.5 40h10"></path>
<path d="M895.5 40h10"></path>
<g class="non-terminal ">
<path d="M905.5 40h0"></path>
<path d="M959.5 40h0"></path>
<rect x="905.5" y="29" width="54" height="22"></rect>
<a xlink:href="#/abap/expression/Cond"><text x="932.5" y="44">Cond</text>
</a>
</g>
<path d="M959.5 40h10"></path>
<g>
<path d="M969.5 40h0"></path>
<path d="M1296.5 40h0"></path>
<path d="M969.5 40a10 10 0 0 0 10 -10v0a10 10 0 0 1 10 -10"></path>
<g>
<path d="M989.5 20h287"></path>
</g>
<path d="M1276.5 20a10 10 0 0 1 10 10v0a10 10 0 0 0 10 10"></path>
<path d="M969.5 40h20"></path>
<g>
<path d="M989.5 40h0"></path>
<path d="M1276.5 40h0"></path>
<g class="terminal ">
<path d="M989.5 40h0"></path>
<path d="M1069 40h0"></path>
<rect x="989.5" y="29" width="79.5" height="22" rx="10" ry="10"></rect>
<text x="1029.25" y="44">"UP TO"</text>
</g>
<path d="M1069 40h10"></path>
<path d="M1079 40h10"></path>
<g class="non-terminal ">
<path d="M1089 40h0"></path>
<path d="M1160 40h0"></path>
<rect x="1089" y="29" width="71" height="22"></rect>
<a xlink:href="#/abap/expression/Source"><text x="1124.5" y="44">Source</text>
</a>
</g>
<path d="M1160 40h10"></path>
<path d="M1170 40h10"></path>
<g class="terminal ">
<path d="M1180 40h0"></path>
<path d="M1276.5 40h0"></path>
<rect x="1180" y="29" width="96.5" height="22" rx="10" ry="10"></rect>
<text x="1228.25" y="44">"SECONDS"</text>
</g>
</g>
<path d="M1276.5 40h20"></path>
</g>
</g>
<path d="M1296.5 40h20"></path>
<path d="M294 40a10 10 0 0 1 10 10v70a10 10 0 0 0 10 10"></path>
<g>
<path d="M314 130h347.75"></path>
<path d="M948.75 130h347.75"></path>
<g class="terminal ">
<path d="M661.75 130h0"></path>
<path d="M741.25 130h0"></path>
<rect x="661.75" y="119" width="79.5" height="22" rx="10" ry="10"></rect>
<text x="701.5" y="134">"UP TO"</text>
</g>
<path d="M741.25 130h10"></path>
<path d="M751.25 130h10"></path>
<g class="non-terminal ">
<path d="M761.25 130h0"></path>
<path d="M832.25 130h0"></path>
<rect x="761.25" y="119" width="71" height="22"></rect>
<a xlink:href="#/abap/expression/Source"><text x="796.75" y="134">Source</text>
</a>
</g>
<path d="M832.25 130h10"></path>
<path d="M842.25 130h10"></path>
<g class="terminal ">
<path d="M852.25 130h0"></path>
<path d="M948.75 130h0"></path>
<rect x="852.25" y="119" width="96.5" height="22" rx="10" ry="10"></rect>
<text x="900.5" y="134">"SECONDS"</text>
</g>
</g>
<path d="M1296.5 130a10 10 0 0 0 10 -10v-70a10 10 0 0 1 10 -10"></path>
</g>
</g>
</g>
<path d="M1316.5 40h10"></path>
<path d="M 1326.5 40 h 20 m -10 -10 v 20 m 10 -20 v 20"></path>
</g>
</svg>
