<svg xmlns="http://www.w3.org/2000/svg" xmlns:xlink="http://www.w3.org/1999/xlink" class="railroad-diagram" width="1007" height="147" viewBox="0 0 1007 147">
<defs>
<style type="text/css"><![CDATA[
path {
stroke-width: 3;
stroke: black;
fill: rgba(0,0,0,0);
}
text {
font: bold 14px monospace;
text-anchor: middle;
}
text.diagram-text {
font-size: 12px;
}
a {
fill: blue;
}
text.diagram-arrow {
font-size: 16px;
}
text.label {
text-anchor: start;
}
text.comment {
font: italic 12px monospace;
}
rect {
stroke-width: 3;
stroke: black;
fill: #BCBCBC;
}
path.diagram-text {
stroke-width: 3;
stroke: black;
fill: #BCBCBC;
cursor: help;
}
]]></style>
</defs>
<g transform="translate(.5 .5)">
<g>
<path d="M20 38v20m10 -20v20m-10 -10h20"></path>
</g>
<path d="M40 48h10"></path>
<g>
<path d="M50 48h0"></path>
<path d="M957 48h0"></path>
<g class="comment ">
<path d="M50 48h0"></path>
<path d="M179 48h0"></path>
<text x="114.5" y="53" class="comment">not langver=Cloud</text>
</g>
<path d="M179 48h10"></path>
<path d="M189 48h10"></path>
<g>
<path d="M199 48h0"></path>
<path d="M957 48h0"></path>
<g class="terminal ">
<path d="M199 48h0"></path>
<path d="M270 48h0"></path>
<rect x="199" y="37" width="71" height="22" rx="10" ry="10"></rect>
<text x="234.5" y="52">"SORT"</text>
</g>
<path d="M270 48h10"></path>
<g>
<path d="M280 48h0"></path>
<path d="M416.5 48h0"></path>
<path d="M280 48a10 10 0 0 0 10 -10v0a10 10 0 0 1 10 -10"></path>
<g>
<path d="M300 28h96.5"></path>
</g>
<path d="M396.5 28a10 10 0 0 1 10 10v0a10 10 0 0 0 10 10"></path>
<path d="M280 48h20"></path>
<g class="terminal ">
<path d="M300 48h0"></path>
<path d="M396.5 48h0"></path>
<rect x="300" y="37" width="96.5" height="22" rx="10" ry="10"></rect>
<text x="348.25" y="52">"AS TEXT"</text>
</g>
<path d="M396.5 48h20"></path>
</g>
<g>
<path d="M416.5 48h0"></path>
<path d="M957 48h0"></path>
<path d="M416.5 48a10 10 0 0 0 10 -10v-8a10 10 0 0 1 10 -10"></path>
<g>
<path d="M436.5 20h500.5"></path>
</g>
<path d="M937 20a10 10 0 0 1 10 10v8a10 10 0 0 0 10 10"></path>
<path d="M416.5 48h20"></path>
<g>
<path d="M436.5 48h0"></path>
<path d="M937 48h0"></path>
<g class="terminal ">
<path d="M436.5 48h0"></path>
<path d="M490.5 48h0"></path>
<rect x="436.5" y="37" width="54" height="22" rx="10" ry="10"></rect>
<text x="463.5" y="52">"BY"</text>
</g>
<path d="M490.5 48h10"></path>
<path d="M500.5 48h10"></path>
<g>
<path d="M510.5 48h0"></path>
<path d="M937 48h0"></path>
<path d="M510.5 48h10"></path>
<g>
<path d="M520.5 48h0"></path>
<path d="M927 48h0"></path>
<g>
<path d="M520.5 48h0"></path>
<path d="M725 48h0"></path>
<path d="M520.5 48h20"></path>
<g class="non-terminal ">
<path d="M540.5 48h12.75"></path>
<path d="M692.25 48h12.75"></path>
<rect x="553.25" y="37" width="139" height="22"></rect>
<a xlink:href="#/abap/expression/ComponentChain"><text x="622.75" y="52">ComponentChain</text>
</a>
</g>
<path d="M705 48h20"></path>
<path d="M520.5 48a10 10 0 0 1 10 10v10a10 10 0 0 0 10 10"></path>
<g class="non-terminal ">
<path d="M540.5 78h0"></path>
<path d="M705 78h0"></path>
<rect x="540.5" y="67" width="164.5" height="22"></rect>
<a xlink:href="#/abap/expression/SourceFieldSymbol"><text x="622.75" y="82">SourceFieldSymbol</text>
</a>
</g>
<path d="M705 78a10 10 0 0 0 10 -10v-10a10 10 0 0 1 10 -10"></path>
<path d="M520.5 48a10 10 0 0 1 10 10v40a10 10 0 0 0 10 10"></path>
<g class="non-terminal ">
<path d="M540.5 108h42.5"></path>
<path d="M662.5 108h42.5"></path>
<rect x="583" y="97" width="79.5" height="22"></rect>
<a xlink:href="#/abap/expression/Dynamic"><text x="622.75" y="112">Dynamic</text>
</a>
</g>
<path d="M705 108a10 10 0 0 0 10 -10v-40a10 10 0 0 1 10 -10"></path>
</g>
<g>
<path d="M725 48h0"></path>
<path d="M927 48h0"></path>
<path d="M725 48a10 10 0 0 0 10 -10v0a10 10 0 0 1 10 -10"></path>
<g>
<path d="M745 28h162"></path>
</g>
<path d="M907 28a10 10 0 0 1 10 10v0a10 10 0 0 0 10 10"></path>
<path d="M725 48h20"></path>
<g>
<path d="M745 48h0"></path>
<path d="M907 48h0"></path>
<path d="M745 48h20"></path>
<g class="terminal ">
<path d="M765 48h4.25"></path>
<path d="M882.75 48h4.25"></path>
<rect x="769.25" y="37" width="113.5" height="22" rx="10" ry="10"></rect>
<text x="826" y="52">"ASCENDING"</text>
</g>
<path d="M887 48h20"></path>
<path d="M745 48a10 10 0 0 1 10 10v10a10 10 0 0 0 10 10"></path>
<g class="terminal ">
<path d="M765 78h0"></path>
<path d="M887 78h0"></path>
<rect x="765" y="67" width="122" height="22" rx="10" ry="10"></rect>
<text x="826" y="82">"DESCENDING"</text>
</g>
<path d="M887 78a10 10 0 0 0 10 -10v-10a10 10 0 0 1 10 -10"></path>
</g>
<path d="M907 48h20"></path>
</g>
</g>
<path d="M927 48h10"></path>
<path d="M520.5 48a10 10 0 0 0 -10 10v59a10 10 0 0 0 10 10"></path>
<g>
<path d="M520.5 127h406.5"></path>
</g>
<path d="M927 127a10 10 0 0 0 10 -10v-59a10 10 0 0 0 -10 -10"></path>
</g>
</g>
<path d="M937 48h20"></path>
</g>
</g>
</g>
<path d="M957 48h10"></path>
<path d="M 967 48 h 20 m -10 -10 v 20 m 10 -20 v 20"></path>
</g>
</svg>
