<svg xmlns="http://www.w3.org/2000/svg" xmlns:xlink="http://www.w3.org/1999/xlink" class="railroad-diagram" width="1384.5" height="1064" viewBox="0 0 1384.5 1064">
<defs>
<style type="text/css"><![CDATA[
path {
stroke-width: 3;
stroke: black;
fill: rgba(0,0,0,0);
}
text {
font: bold 14px monospace;
text-anchor: middle;
}
text.diagram-text {
font-size: 12px;
}
a {
fill: blue;
}
text.diagram-arrow {
font-size: 16px;
}
text.label {
text-anchor: start;
}
text.comment {
font: italic 12px monospace;
}
rect {
stroke-width: 3;
stroke: black;
fill: #BCBCBC;
}
path.diagram-text {
stroke-width: 3;
stroke: black;
fill: #BCBCBC;
cursor: help;
}
]]></style>
</defs>
<g transform="translate(.5 .5)">
<g>
<path d="M20 30v20m10 -20v20m-10 -10h20"></path>
</g>
<path d="M40 40h10"></path>
<g>
<path d="M50 40h0"></path>
<path d="M1334.5 40h0"></path>
<g class="terminal ">
<path d="M50 40h0"></path>
<path d="M172 40h0"></path>
<rect x="50" y="29" width="122" height="22" rx="10" ry="10"></rect>
<text x="111" y="44">"READ TABLE"</text>
</g>
<path d="M172 40h10"></path>
<g>
<path d="M182 40h0"></path>
<path d="M470 40h0"></path>
<path d="M182 40h20"></path>
<g class="non-terminal ">
<path d="M202 40h58.75"></path>
<path d="M391.25 40h58.75"></path>
<rect x="260.75" y="29" width="130.5" height="22"></rect>
<a xlink:href="#/abap/expression/SimpleSource2"><text x="326" y="44">SimpleSource2</text>
</a>
</g>
<path d="M450 40h20"></path>
<path d="M182 40a10 10 0 0 1 10 10v10a10 10 0 0 0 10 10"></path>
<g>
<path d="M202 70h0"></path>
<path d="M450 70h0"></path>
<g class="comment ">
<path d="M202 70h0"></path>
<path d="M359 70h0"></path>
<text x="280.5" y="75" class="comment">v740sp02 or open-abap</text>
</g>
<path d="M359 70h10"></path>
<path d="M369 70h10"></path>
<g class="non-terminal ">
<path d="M379 70h0"></path>
<path d="M450 70h0"></path>
<rect x="379" y="59" width="71" height="22"></rect>
<a xlink:href="#/abap/expression/Source"><text x="414.5" y="74">Source</text>
</a>
</g>
</g>
<path d="M450 70a10 10 0 0 0 10 -10v-10a10 10 0 0 1 10 -10"></path>
</g>
<g>
<path d="M470 40h0"></path>
<path d="M1334.5 40h0"></path>
<path d="M470 40a10 10 0 0 0 10 -10v0a10 10 0 0 1 10 -10"></path>
<g>
<path d="M490 20h824.5"></path>
</g>
<path d="M1314.5 20a10 10 0 0 1 10 10v0a10 10 0 0 0 10 10"></path>
<path d="M470 40h20"></path>
<g>
<path d="M490 40h0"></path>
<path d="M1314.5 40h0"></path>
<path d="M490 40h20"></path>
<g>
<path d="M510 40h176.25"></path>
<path d="M1118.25 40h176.25"></path>
<path d="M716.25 40h10"></path>
<g>
<path d="M726.25 40h75.75"></path>
<path d="M1012.5 40h75.75"></path>
<path d="M802 40h20"></path>
<g>
<path d="M822 40h0"></path>
<path d="M992.5 40h0"></path>
<g class="terminal ">
<path d="M822 40h0"></path>
<path d="M901.5 40h0"></path>
<rect x="822" y="29" width="79.5" height="22" rx="10" ry="10"></rect>
<text x="861.75" y="44">"INDEX"</text>
</g>
<path d="M901.5 40h10"></path>
<path d="M911.5 40h10"></path>
<g class="non-terminal ">
<path d="M921.5 40h0"></path>
<path d="M992.5 40h0"></path>
<rect x="921.5" y="29" width="71" height="22"></rect>
<a xlink:href="#/abap/expression/Source"><text x="957" y="44">Source</text>
</a>
</g>
</g>
<path d="M992.5 40h20"></path>
<path d="M802 40a10 10 0 0 1 10 10v10a10 10 0 0 0 10 10"></path>
<g>
<path d="M822 70h4.25"></path>
<path d="M988.25 70h4.25"></path>
<g class="terminal ">
<path d="M826.25 70h0"></path>
<path d="M897.25 70h0"></path>
<rect x="826.25" y="59" width="71" height="22" rx="10" ry="10"></rect>
<text x="861.75" y="74">"FROM"</text>
</g>
<path d="M897.25 70h10"></path>
<path d="M907.25 70h10"></path>
<g class="non-terminal ">
<path d="M917.25 70h0"></path>
<path d="M988.25 70h0"></path>
<rect x="917.25" y="59" width="71" height="22"></rect>
<a xlink:href="#/abap/expression/Source"><text x="952.75" y="74">Source</text>
</a>
</g>
</g>
<path d="M992.5 70a10 10 0 0 0 10 -10v-10a10 10 0 0 1 10 -10"></path>
</g>
<path d="M1088.25 40h10"></path>
<path d="M716.25 40v50a10 10 0 0 0 10 10"></path>
<g>
<path d="M726.25 100h59.5"></path>
<path d="M1028.75 100h59.5"></path>
<g class="terminal ">
<path d="M785.75 100h0"></path>
<path d="M899.25 100h0"></path>
<rect x="785.75" y="89" width="113.5" height="22" rx="10" ry="10"></rect>
<text x="842.5" y="104">"USING KEY"</text>
</g>
<path d="M899.25 100h10"></path>
<g>
<path d="M909.25 100h0"></path>
<path d="M1028.75 100h0"></path>
<path d="M909.25 100h20"></path>
<g class="non-terminal ">
<path d="M929.25 100h8.5"></path>
<path d="M1000.25 100h8.5"></path>
<rect x="937.75" y="89" width="62.5" height="22"></rect>
<a xlink:href="#/abap/expression/Field"><text x="969" y="104">Field</text>
</a>
</g>
<path d="M1008.75 100h20"></path>
<path d="M909.25 100a10 10 0 0 1 10 10v10a10 10 0 0 0 10 10"></path>
<g class="non-terminal ">
<path d="M929.25 130h0"></path>
<path d="M1008.75 130h0"></path>
<rect x="929.25" y="119" width="79.5" height="22"></rect>
<a xlink:href="#/abap/expression/Dynamic"><text x="969" y="134">Dynamic</text>
</a>
</g>
<path d="M1008.75 130a10 10 0 0 0 10 -10v-10a10 10 0 0 1 10 -10"></path>
</g>
</g>
<path d="M1088.25 100a10 10 0 0 0 10 -10v-50"></path>
<path d="M716.25 40v110a10 10 0 0 0 10 10"></path>
<g class="non-terminal ">
<path d="M726.25 160h107.25"></path>
<path d="M981 160h107.25"></path>
<rect x="833.5" y="149" width="147.5" height="22"></rect>
<a xlink:href="#/abap/expression/ReadTableTarget"><text x="907.25" y="164">ReadTableTarget</text>
</a>
</g>
<path d="M1088.25 160a10 10 0 0 0 10 -10v-110"></path>
<path d="M716.25 40v140a10 10 0 0 0 10 10"></path>
<g>
<path d="M726.25 190h45.25"></path>
<path d="M1043 190h45.25"></path>
<g class="terminal ">
<path d="M771.5 190h0"></path>
<path d="M885 190h0"></path>
<rect x="771.5" y="179" width="113.5" height="22" rx="10" ry="10"></rect>
<text x="828.25" y="194">"COMPARING"</text>
</g>
<path d="M885 190h10"></path>
<g>
<path d="M895 190h0"></path>
<path d="M1043 190h0"></path>
<path d="M895 190h20"></path>
<g>
<path d="M915 190h0"></path>
<path d="M1023 190h0"></path>
<path d="M915 190h10"></path>
<g class="non-terminal ">
<path d="M925 190h0"></path>
<path d="M1013 190h0"></path>
<rect x="925" y="179" width="88" height="22"></rect>
<a xlink:href="#/abap/expression/FieldSub"><text x="969" y="194">FieldSub</text>
</a>
</g>
<path d="M1013 190h10"></path>
<path d="M925 190a10 10 0 0 0 -10 10v0a10 10 0 0 0 10 10"></path>
<g>
<path d="M925 210h88"></path>
</g>
<path d="M1013 210a10 10 0 0 0 10 -10v0a10 10 0 0 0 -10 -10"></path>
</g>
<path d="M1023 190h20"></path>
<path d="M895 190a10 10 0 0 1 10 10v19a10 10 0 0 0 10 10"></path>
<g>
<path d="M915 229h4.25"></path>
<path d="M1018.75 229h4.25"></path>
<path d="M919.25 229h10"></path>
<g class="non-terminal ">
<path d="M929.25 229h0"></path>
<path d="M1008.75 229h0"></path>
<rect x="929.25" y="218" width="79.5" height="22"></rect>
<a xlink:href="#/abap/expression/Dynamic"><text x="969" y="233">Dynamic</text>
</a>
</g>
<path d="M1008.75 229h10"></path>
<path d="M929.25 229a10 10 0 0 0 -10 10v0a10 10 0 0 0 10 10"></path>
<g>
<path d="M929.25 249h79.5"></path>
</g>
<path d="M1008.75 249a10 10 0 0 0 10 -10v0a10 10 0 0 0 -10 -10"></path>
</g>
<path d="M1023 229a10 10 0 0 0 10 -10v-19a10 10 0 0 1 10 -10"></path>
</g>
</g>
<path d="M1088.25 190a10 10 0 0 0 10 -10v-140"></path>
<path d="M716.25 40v218a10 10 0 0 0 10 10"></path>
<g class="terminal ">
<path d="M726.25 268h132.75"></path>
<path d="M955.5 268h132.75"></path>
<rect x="859" y="257" width="96.5" height="22" rx="10" ry="10"></rect>
<text x="907.25" y="272">"CASTING"</text>
</g>
<path d="M1088.25 268a10 10 0 0 0 10 -10v-218"></path>
<path d="M716.25 40v248a10 10 0 0 0 10 10"></path>
<g>
<path d="M726.25 298h0"></path>
<path d="M1088.25 298h0"></path>
<g class="terminal ">
<path d="M726.25 298h0"></path>
<path d="M865.25 298h0"></path>
<rect x="726.25" y="287" width="139" height="22" rx="10" ry="10"></rect>
<text x="795.75" y="302">"TRANSPORTING"</text>
</g>
<path d="M865.25 298h10"></path>
<g>
<path d="M875.25 298h0"></path>
<path d="M1088.25 298h0"></path>
<path d="M875.25 298h20"></path>
<g class="terminal ">
<path d="M895.25 298h25.5"></path>
<path d="M1042.75 298h25.5"></path>
<rect x="920.75" y="287" width="122" height="22" rx="10" ry="10"></rect>
<text x="981.75" y="302">"ALL FIELDS"</text>
</g>
<path d="M1068.25 298h20"></path>
<path d="M875.25 298a10 10 0 0 1 10 10v10a10 10 0 0 0 10 10"></path>
<g class="terminal ">
<path d="M895.25 328h29.75"></path>
<path d="M1038.5 328h29.75"></path>
<rect x="925" y="317" width="113.5" height="22" rx="10" ry="10"></rect>
<text x="981.75" y="332">"NO FIELDS"</text>
</g>
<path d="M1068.25 328a10 10 0 0 0 10 -10v-10a10 10 0 0 1 10 -10"></path>
<path d="M875.25 298a10 10 0 0 1 10 10v40a10 10 0 0 0 10 10"></path>
<g class="non-terminal ">
<path d="M895.25 358h0"></path>
<path d="M1068.25 358h0"></path>
<rect x="895.25" y="347" width="173" height="22"></rect>
<a xlink:href="#/abap/expression/TransportingFields"><text x="981.75" y="362">TransportingFields</text>
</a>
</g>
<path d="M1068.25 358a10 10 0 0 0 10 -10v-40a10 10 0 0 1 10 -10"></path>
</g>
</g>
<path d="M1088.25 298a10 10 0 0 0 10 -10v-248"></path>
<path d="M716.25 40v338a10 10 0 0 0 10 10"></path>
<g class="terminal ">
<path d="M726.25 388h107.25"></path>
<path d="M981 388h107.25"></path>
<rect x="833.5" y="377" width="147.5" height="22" rx="10" ry="10"></rect>
<text x="907.25" y="392">"BINARY SEARCH"</text>
</g>
<path d="M1088.25 388a10 10 0 0 0 10 -10v-338"></path>
<g class="diagram-text">
<title>take one or more branches, once each, in any order</title>
<path d="M 716.25 30 h -26 a 4 4 0 0 0 -4 4 v 12 a 4 4 0 0 0 4 4 h 26 z" class="diagram-text"></path>
<text x="701.25" y="44" class="diagram-text">1+</text>
<path d="M 1098.25 30 h 16 a 4 4 0 0 1 4 4 v 12 a 4 4 0 0 1 -4 4 h -16 z" class="diagram-text"></path>
<path d="M 1105.25 38 a 4 4 0 1 0 6 -1 m 2.75 -1 h -4 v 4 m 0 -3 h 2" style="stroke-width: 1.75"></path>
</g>
</g>
<path d="M1294.5 40h20"></path>
<path d="M490 40a10 10 0 0 1 10 10v358a10 10 0 0 0 10 10"></path>
<g>
<path d="M510 418h0"></path>
<path d="M1294.5 418h0"></path>
<path d="M540 418h10"></path>
<g>
<path d="M550 418h0"></path>
<path d="M1264.5 418h0"></path>
<g>
<path d="M550 418h0"></path>
<path d="M746 418h0"></path>
<path d="M550 418h20"></path>
<g class="terminal ">
<path d="M570 418h25.5"></path>
<path d="M700.5 418h25.5"></path>
<rect x="595.5" y="407" width="105" height="22" rx="10" ry="10"></rect>
<text x="648" y="422">"WITH KEY"</text>
</g>
<path d="M726 418h20"></path>
<path d="M550 418a10 10 0 0 1 10 10v10a10 10 0 0 0 10 10"></path>
<g class="terminal ">
<path d="M570 448h0"></path>
<path d="M726 448h0"></path>
<rect x="570" y="437" width="156" height="22" rx="10" ry="10"></rect>
<text x="648" y="452">"WITH TABLE KEY"</text>
</g>
<path d="M726 448a10 10 0 0 0 10 -10v-10a10 10 0 0 1 10 -10"></path>
</g>
<g>
<path d="M746 418h0"></path>
<path d="M1264.5 418h0"></path>
<path d="M746 418h20"></path>
<g class="non-terminal ">
<path d="M766 418h135.75"></path>
<path d="M1108.75 418h135.75"></path>
<rect x="901.75" y="407" width="207" height="22"></rect>
<a xlink:href="#/abap/expression/ComponentCompareSimple"><text x="1005.25" y="422">ComponentCompareSimple</text>
</a>
</g>
<path d="M1244.5 418h20"></path>
<path d="M746 418a10 10 0 0 1 10 10v10a10 10 0 0 0 10 10"></path>
<g>
<path d="M766 448h0"></path>
<path d="M1244.5 448h0"></path>
<g>
<path d="M766 448h0"></path>
<path d="M885.5 448h0"></path>
<path d="M766 448h20"></path>
<g class="non-terminal ">
<path d="M786 448h8.5"></path>
<path d="M857 448h8.5"></path>
<rect x="794.5" y="437" width="62.5" height="22"></rect>
<a xlink:href="#/abap/expression/Field"><text x="825.75" y="452">Field</text>
</a>
</g>
<path d="M865.5 448h20"></path>
<path d="M766 448a10 10 0 0 1 10 10v10a10 10 0 0 0 10 10"></path>
<g class="non-terminal ">
<path d="M786 478h0"></path>
<path d="M865.5 478h0"></path>
<rect x="786" y="467" width="79.5" height="22"></rect>
<a xlink:href="#/abap/expression/Dynamic"><text x="825.75" y="482">Dynamic</text>
</a>
</g>
<path d="M865.5 478a10 10 0 0 0 10 -10v-10a10 10 0 0 1 10 -10"></path>
</g>
<path d="M885.5 448h10"></path>
<g class="terminal ">
<path d="M895.5 448h0"></path>
<path d="M1017.5 448h0"></path>
<rect x="895.5" y="437" width="122" height="22" rx="10" ry="10"></rect>
<text x="956.5" y="452">"COMPONENTS"</text>
</g>
<path d="M1017.5 448h10"></path>
<path d="M1027.5 448h10"></path>
<g class="non-terminal ">
<path d="M1037.5 448h0"></path>
<path d="M1244.5 448h0"></path>
<rect x="1037.5" y="437" width="207" height="22"></rect>
<a xlink:href="#/abap/expression/ComponentCompareSimple"><text x="1141" y="452">ComponentCompareSimple</text>
</a>
</g>
</g>
<path d="M1244.5 448a10 10 0 0 0 10 -10v-10a10 10 0 0 1 10 -10"></path>
<path d="M746 418a10 10 0 0 1 10 10v79a10 10 0 0 0 10 10"></path>
<g>
<path d="M766 517h156"></path>
<path d="M1088.5 517h156"></path>
<g>
<path d="M922 517h0"></path>
<path d="M1007.5 517h0"></path>
<path d="M922 517a10 10 0 0 0 10 -10v0a10 10 0 0 1 10 -10"></path>
<g>
<path d="M942 497h45.5"></path>
</g>
<path d="M987.5 497a10 10 0 0 1 10 10v0a10 10 0 0 0 10 10"></path>
<path d="M922 517h20"></path>
<g class="terminal ">
<path d="M942 517h0"></path>
<path d="M987.5 517h0"></path>
<rect x="942" y="506" width="45.5" height="22" rx="10" ry="10"></rect>
<text x="964.75" y="521">"="</text>
</g>
<path d="M987.5 517h20"></path>
</g>
<path d="M1007.5 517h10"></path>
<g class="non-terminal ">
<path d="M1017.5 517h0"></path>
<path d="M1088.5 517h0"></path>
<rect x="1017.5" y="506" width="71" height="22"></rect>
<a xlink:href="#/abap/expression/Source"><text x="1053" y="521">Source</text>
</a>
</g>
</g>
<path d="M1244.5 517a10 10 0 0 0 10 -10v-79a10 10 0 0 1 10 -10"></path>
</g>
</g>
<path d="M1264.5 418h10"></path>
<path d="M540 418v119a10 10 0 0 0 10 10"></path>
<g class="non-terminal ">
<path d="M550 547h283.5"></path>
<path d="M981 547h283.5"></path>
<rect x="833.5" y="536" width="147.5" height="22"></rect>
<a xlink:href="#/abap/expression/ReadTableTarget"><text x="907.25" y="551">ReadTableTarget</text>
</a>
</g>
<path d="M1264.5 547a10 10 0 0 0 10 -10v-119"></path>
<path d="M540 418v149a10 10 0 0 0 10 10"></path>
<g>
<path d="M550 577h221.5"></path>
<path d="M1043 577h221.5"></path>
<g class="terminal ">
<path d="M771.5 577h0"></path>
<path d="M885 577h0"></path>
<rect x="771.5" y="566" width="113.5" height="22" rx="10" ry="10"></rect>
<text x="828.25" y="581">"COMPARING"</text>
</g>
<path d="M885 577h10"></path>
<g>
<path d="M895 577h0"></path>
<path d="M1043 577h0"></path>
<path d="M895 577h20"></path>
<g>
<path d="M915 577h0"></path>
<path d="M1023 577h0"></path>
<path d="M915 577h10"></path>
<g class="non-terminal ">
<path d="M925 577h0"></path>
<path d="M1013 577h0"></path>
<rect x="925" y="566" width="88" height="22"></rect>
<a xlink:href="#/abap/expression/FieldSub"><text x="969" y="581">FieldSub</text>
</a>
</g>
<path d="M1013 577h10"></path>
<path d="M925 577a10 10 0 0 0 -10 10v0a10 10 0 0 0 10 10"></path>
<g>
<path d="M925 597h88"></path>
</g>
<path d="M1013 597a10 10 0 0 0 10 -10v0a10 10 0 0 0 -10 -10"></path>
</g>
<path d="M1023 577h20"></path>
<path d="M895 577a10 10 0 0 1 10 10v19a10 10 0 0 0 10 10"></path>
<g>
<path d="M915 616h4.25"></path>
<path d="M1018.75 616h4.25"></path>
<path d="M919.25 616h10"></path>
<g class="non-terminal ">
<path d="M929.25 616h0"></path>
<path d="M1008.75 616h0"></path>
<rect x="929.25" y="605" width="79.5" height="22"></rect>
<a xlink:href="#/abap/expression/Dynamic"><text x="969" y="620">Dynamic</text>
</a>
</g>
<path d="M1008.75 616h10"></path>
<path d="M929.25 616a10 10 0 0 0 -10 10v0a10 10 0 0 0 10 10"></path>
<g>
<path d="M929.25 636h79.5"></path>
</g>
<path d="M1008.75 636a10 10 0 0 0 10 -10v0a10 10 0 0 0 -10 -10"></path>
</g>
<path d="M1023 616a10 10 0 0 0 10 -10v-19a10 10 0 0 1 10 -10"></path>
</g>
</g>
<path d="M1264.5 577a10 10 0 0 0 10 -10v-149"></path>
<path d="M540 418v227a10 10 0 0 0 10 10"></path>
<g class="terminal ">
<path d="M550 655h309"></path>
<path d="M955.5 655h309"></path>
<rect x="859" y="644" width="96.5" height="22" rx="10" ry="10"></rect>
<text x="907.25" y="659">"CASTING"</text>
</g>
<path d="M1264.5 655a10 10 0 0 0 10 -10v-227"></path>
<path d="M540 418v257a10 10 0 0 0 10 10"></path>
<g>
<path d="M550 685h176.25"></path>
<path d="M1088.25 685h176.25"></path>
<g class="terminal ">
<path d="M726.25 685h0"></path>
<path d="M865.25 685h0"></path>
<rect x="726.25" y="674" width="139" height="22" rx="10" ry="10"></rect>
<text x="795.75" y="689">"TRANSPORTING"</text>
</g>
<path d="M865.25 685h10"></path>
<g>
<path d="M875.25 685h0"></path>
<path d="M1088.25 685h0"></path>
<path d="M875.25 685h20"></path>
<g class="terminal ">
<path d="M895.25 685h25.5"></path>
<path d="M1042.75 685h25.5"></path>
<rect x="920.75" y="674" width="122" height="22" rx="10" ry="10"></rect>
<text x="981.75" y="689">"ALL FIELDS"</text>
</g>
<path d="M1068.25 685h20"></path>
<path d="M875.25 685a10 10 0 0 1 10 10v10a10 10 0 0 0 10 10"></path>
<g class="terminal ">
<path d="M895.25 715h29.75"></path>
<path d="M1038.5 715h29.75"></path>
<rect x="925" y="704" width="113.5" height="22" rx="10" ry="10"></rect>
<text x="981.75" y="719">"NO FIELDS"</text>
</g>
<path d="M1068.25 715a10 10 0 0 0 10 -10v-10a10 10 0 0 1 10 -10"></path>
<path d="M875.25 685a10 10 0 0 1 10 10v40a10 10 0 0 0 10 10"></path>
<g class="non-terminal ">
<path d="M895.25 745h0"></path>
<path d="M1068.25 745h0"></path>
<rect x="895.25" y="734" width="173" height="22"></rect>
<a xlink:href="#/abap/expression/TransportingFields"><text x="981.75" y="749">TransportingFields</text>
</a>
</g>
<path d="M1068.25 745a10 10 0 0 0 10 -10v-40a10 10 0 0 1 10 -10"></path>
</g>
</g>
<path d="M1264.5 685a10 10 0 0 0 10 -10v-257"></path>
<path d="M540 418v347a10 10 0 0 0 10 10"></path>
<g class="terminal ">
<path d="M550 775h283.5"></path>
<path d="M981 775h283.5"></path>
<rect x="833.5" y="764" width="147.5" height="22" rx="10" ry="10"></rect>
<text x="907.25" y="779">"BINARY SEARCH"</text>
</g>
<path d="M1264.5 775a10 10 0 0 0 10 -10v-347"></path>
<g class="diagram-text">
<title>take one or more branches, once each, in any order</title>
<path d="M 540 408 h -26 a 4 4 0 0 0 -4 4 v 12 a 4 4 0 0 0 4 4 h 26 z" class="diagram-text"></path>
<text x="525" y="422" class="diagram-text">1+</text>
<path d="M 1274.5 408 h 16 a 4 4 0 0 1 4 4 v 12 a 4 4 0 0 1 -4 4 h -16 z" class="diagram-text"></path>
<path d="M 1281.5 416 a 4 4 0 1 0 6 -1 m 2.75 -1 h -4 v 4 m 0 -3 h 2" style="stroke-width: 1.75"></path>
</g>
</g>
<path d="M1294.5 418a10 10 0 0 0 10 -10v-358a10 10 0 0 1 10 -10"></path>
<path d="M490 40a10 10 0 0 1 10 10v745a10 10 0 0 0 10 10"></path>
<g>
<path d="M510 805h176.25"></path>
<path d="M1118.25 805h176.25"></path>
<path d="M716.25 805h10"></path>
<g class="non-terminal ">
<path d="M726.25 805h107.25"></path>
<path d="M981 805h107.25"></path>
<rect x="833.5" y="794" width="147.5" height="22"></rect>
<a xlink:href="#/abap/expression/ReadTableTarget"><text x="907.25" y="809">ReadTableTarget</text>
</a>
</g>
<path d="M1088.25 805h10"></path>
<path d="M716.25 805v20a10 10 0 0 0 10 10"></path>
<g>
<path d="M726.25 835h45.25"></path>
<path d="M1043 835h45.25"></path>
<g class="terminal ">
<path d="M771.5 835h0"></path>
<path d="M885 835h0"></path>
<rect x="771.5" y="824" width="113.5" height="22" rx="10" ry="10"></rect>
<text x="828.25" y="839">"COMPARING"</text>
</g>
<path d="M885 835h10"></path>
<g>
<path d="M895 835h0"></path>
<path d="M1043 835h0"></path>
<path d="M895 835h20"></path>
<g>
<path d="M915 835h0"></path>
<path d="M1023 835h0"></path>
<path d="M915 835h10"></path>
<g class="non-terminal ">
<path d="M925 835h0"></path>
<path d="M1013 835h0"></path>
<rect x="925" y="824" width="88" height="22"></rect>
<a xlink:href="#/abap/expression/FieldSub"><text x="969" y="839">FieldSub</text>
</a>
</g>
<path d="M1013 835h10"></path>
<path d="M925 835a10 10 0 0 0 -10 10v0a10 10 0 0 0 10 10"></path>
<g>
<path d="M925 855h88"></path>
</g>
<path d="M1013 855a10 10 0 0 0 10 -10v0a10 10 0 0 0 -10 -10"></path>
</g>
<path d="M1023 835h20"></path>
<path d="M895 835a10 10 0 0 1 10 10v19a10 10 0 0 0 10 10"></path>
<g>
<path d="M915 874h4.25"></path>
<path d="M1018.75 874h4.25"></path>
<path d="M919.25 874h10"></path>
<g class="non-terminal ">
<path d="M929.25 874h0"></path>
<path d="M1008.75 874h0"></path>
<rect x="929.25" y="863" width="79.5" height="22"></rect>
<a xlink:href="#/abap/expression/Dynamic"><text x="969" y="878">Dynamic</text>
</a>
</g>
<path d="M1008.75 874h10"></path>
<path d="M929.25 874a10 10 0 0 0 -10 10v0a10 10 0 0 0 10 10"></path>
<g>
<path d="M929.25 894h79.5"></path>
</g>
<path d="M1008.75 894a10 10 0 0 0 10 -10v0a10 10 0 0 0 -10 -10"></path>
</g>
<path d="M1023 874a10 10 0 0 0 10 -10v-19a10 10 0 0 1 10 -10"></path>
</g>
</g>
<path d="M1088.25 835a10 10 0 0 0 10 -10v-20"></path>
<path d="M716.25 805v98a10 10 0 0 0 10 10"></path>
<g class="terminal ">
<path d="M726.25 913h132.75"></path>
<path d="M955.5 913h132.75"></path>
<rect x="859" y="902" width="96.5" height="22" rx="10" ry="10"></rect>
<text x="907.25" y="917">"CASTING"</text>
</g>
<path d="M1088.25 913a10 10 0 0 0 10 -10v-98"></path>
<path d="M716.25 805v128a10 10 0 0 0 10 10"></path>
<g>
<path d="M726.25 943h0"></path>
<path d="M1088.25 943h0"></path>
<g class="terminal ">
<path d="M726.25 943h0"></path>
<path d="M865.25 943h0"></path>
<rect x="726.25" y="932" width="139" height="22" rx="10" ry="10"></rect>
<text x="795.75" y="947">"TRANSPORTING"</text>
</g>
<path d="M865.25 943h10"></path>
<g>
<path d="M875.25 943h0"></path>
<path d="M1088.25 943h0"></path>
<path d="M875.25 943h20"></path>
<g class="terminal ">
<path d="M895.25 943h25.5"></path>
<path d="M1042.75 943h25.5"></path>
<rect x="920.75" y="932" width="122" height="22" rx="10" ry="10"></rect>
<text x="981.75" y="947">"ALL FIELDS"</text>
</g>
<path d="M1068.25 943h20"></path>
<path d="M875.25 943a10 10 0 0 1 10 10v10a10 10 0 0 0 10 10"></path>
<g class="terminal ">
<path d="M895.25 973h29.75"></path>
<path d="M1038.5 973h29.75"></path>
<rect x="925" y="962" width="113.5" height="22" rx="10" ry="10"></rect>
<text x="981.75" y="977">"NO FIELDS"</text>
</g>
<path d="M1068.25 973a10 10 0 0 0 10 -10v-10a10 10 0 0 1 10 -10"></path>
<path d="M875.25 943a10 10 0 0 1 10 10v40a10 10 0 0 0 10 10"></path>
<g class="non-terminal ">
<path d="M895.25 1003h0"></path>
<path d="M1068.25 1003h0"></path>
<rect x="895.25" y="992" width="173" height="22"></rect>
<a xlink:href="#/abap/expression/TransportingFields"><text x="981.75" y="1007">TransportingFields</text>
</a>
</g>
<path d="M1068.25 1003a10 10 0 0 0 10 -10v-40a10 10 0 0 1 10 -10"></path>
</g>
</g>
<path d="M1088.25 943a10 10 0 0 0 10 -10v-128"></path>
<path d="M716.25 805v218a10 10 0 0 0 10 10"></path>
<g class="terminal ">
<path d="M726.25 1033h107.25"></path>
<path d="M981 1033h107.25"></path>
<rect x="833.5" y="1022" width="147.5" height="22" rx="10" ry="10"></rect>
<text x="907.25" y="1037">"BINARY SEARCH"</text>
</g>
<path d="M1088.25 1033a10 10 0 0 0 10 -10v-218"></path>
<g class="diagram-text">
<title>take one or more branches, once each, in any order</title>
<path d="M 716.25 795 h -26 a 4 4 0 0 0 -4 4 v 12 a 4 4 0 0 0 4 4 h 26 z" class="diagram-text"></path>
<text x="701.25" y="809" class="diagram-text">1+</text>
<path d="M 1098.25 795 h 16 a 4 4 0 0 1 4 4 v 12 a 4 4 0 0 1 -4 4 h -16 z" class="diagram-text"></path>
<path d="M 1105.25 803 a 4 4 0 1 0 6 -1 m 2.75 -1 h -4 v 4 m 0 -3 h 2" style="stroke-width: 1.75"></path>
</g>
</g>
<path d="M1294.5 805a10 10 0 0 0 10 -10v-745a10 10 0 0 1 10 -10"></path>
</g>
<path d="M1314.5 40h20"></path>
</g>
</g>
<path d="M1334.5 40h10"></path>
<path d="M 1344.5 40 h 20 m -10 -10 v 20 m 10 -20 v 20"></path>
</g>
</svg>
