<svg xmlns="http://www.w3.org/2000/svg" xmlns:xlink="http://www.w3.org/1999/xlink" class="railroad-diagram" width="1467.5" height="71" viewBox="0 0 1467.5 71">
<defs>
<style type="text/css"><![CDATA[
path {
stroke-width: 3;
stroke: black;
fill: rgba(0,0,0,0);
}
text {
font: bold 14px monospace;
text-anchor: middle;
}
text.diagram-text {
font-size: 12px;
}
a {
fill: blue;
}
text.diagram-arrow {
font-size: 16px;
}
text.label {
text-anchor: start;
}
text.comment {
font: italic 12px monospace;
}
rect {
stroke-width: 3;
stroke: black;
fill: #BCBCBC;
}
path.diagram-text {
stroke-width: 3;
stroke: black;
fill: #BCBCBC;
cursor: help;
}
]]></style>
</defs>
<g transform="translate(.5 .5)">
<g>
<path d="M20 30v20m10 -20v20m-10 -10h20"></path>
</g>
<path d="M40 40h10"></path>
<g>
<path d="M50 40h0"></path>
<path d="M1417.5 40h0"></path>
<g class="comment ">
<path d="M50 40h0"></path>
<path d="M179 40h0"></path>
<text x="114.5" y="45" class="comment">not langver=Cloud</text>
</g>
<path d="M179 40h10"></path>
<path d="M189 40h10"></path>
<g>
<path d="M199 40h0"></path>
<path d="M1417.5 40h0"></path>
<g class="terminal ">
<path d="M199 40h0"></path>
<path d="M406 40h0"></path>
<rect x="199" y="29" width="207" height="22" rx="10" ry="10"></rect>
<text x="302.5" y="44">"DELETE FROM DATABASE"</text>
</g>
<path d="M406 40h10"></path>
<path d="M416 40h10"></path>
<g class="non-terminal ">
<path d="M426 40h0"></path>
<path d="M607.5 40h0"></path>
<rect x="426" y="29" width="181.5" height="22"></rect>
<a xlink:href="#/abap/expression/NamespaceSimpleName"><text x="516.75" y="44">NamespaceSimpleName</text>
</a>
</g>
<path d="M607.5 40h10"></path>
<path d="M617.5 40h10"></path>
<g class="terminal ">
<path d="M627.5 40h0"></path>
<path d="M749.5 40h0"></path>
<rect x="627.5" y="29" width="122" height="22" rx="10" ry="10"></rect>
<text x="688.5" y="44">!"ParenLeft"</text>
</g>
<path d="M749.5 40h10"></path>
<path d="M759.5 40h10"></path>
<g class="non-terminal ">
<path d="M769.5 40h0"></path>
<path d="M874.5 40h0"></path>
<rect x="769.5" y="29" width="105" height="22"></rect>
<a xlink:href="#/abap/expression/SimpleName"><text x="822" y="44">SimpleName</text>
</a>
</g>
<path d="M874.5 40h10"></path>
<path d="M884.5 40h10"></path>
<g class="terminal ">
<path d="M894.5 40h0"></path>
<path d="M1033.5 40h0"></path>
<rect x="894.5" y="29" width="139" height="22" rx="10" ry="10"></rect>
<text x="964" y="44">!"ParenRightW"</text>
</g>
<path d="M1033.5 40h10"></path>
<g>
<path d="M1043.5 40h0"></path>
<path d="M1262.5 40h0"></path>
<path d="M1043.5 40a10 10 0 0 0 10 -10v0a10 10 0 0 1 10 -10"></path>
<g>
<path d="M1063.5 20h179"></path>
</g>
<path d="M1242.5 20a10 10 0 0 1 10 10v0a10 10 0 0 0 10 10"></path>
<path d="M1043.5 40h20"></path>
<g>
<path d="M1063.5 40h0"></path>
<path d="M1242.5 40h0"></path>
<g class="terminal ">
<path d="M1063.5 40h0"></path>
<path d="M1151.5 40h0"></path>
<rect x="1063.5" y="29" width="88" height="22" rx="10" ry="10"></rect>
<text x="1107.5" y="44">"CLIENT"</text>
</g>
<path d="M1151.5 40h10"></path>
<path d="M1161.5 40h10"></path>
<g class="non-terminal ">
<path d="M1171.5 40h0"></path>
<path d="M1242.5 40h0"></path>
<rect x="1171.5" y="29" width="71" height="22"></rect>
<a xlink:href="#/abap/expression/Source"><text x="1207" y="44">Source</text>
</a>
</g>
</g>
<path d="M1242.5 40h20"></path>
</g>
<path d="M1262.5 40h10"></path>
<g class="terminal ">
<path d="M1272.5 40h0"></path>
<path d="M1326.5 40h0"></path>
<rect x="1272.5" y="29" width="54" height="22" rx="10" ry="10"></rect>
<text x="1299.5" y="44">"ID"</text>
</g>
<path d="M1326.5 40h10"></path>
<path d="M1336.5 40h10"></path>
<g class="non-terminal ">
<path d="M1346.5 40h0"></path>
<path d="M1417.5 40h0"></path>
<rect x="1346.5" y="29" width="71" height="22"></rect>
<a xlink:href="#/abap/expression/Source"><text x="1382" y="44">Source</text>
</a>
</g>
</g>
</g>
<path d="M1417.5 40h10"></path>
<path d="M 1427.5 40 h 20 m -10 -10 v 20 m 10 -20 v 20"></path>
</g>
</svg>
