<svg xmlns="http://www.w3.org/2000/svg" xmlns:xlink="http://www.w3.org/1999/xlink" class="railroad-diagram" width="1366.5" height="1544" viewBox="0 0 1366.5 1544">
<defs>
<style type="text/css"><![CDATA[
path {
stroke-width: 3;
stroke: black;
fill: rgba(0,0,0,0);
}
text {
font: bold 14px monospace;
text-anchor: middle;
}
text.diagram-text {
font-size: 12px;
}
a {
fill: blue;
}
text.diagram-arrow {
font-size: 16px;
}
text.label {
text-anchor: start;
}
text.comment {
font: italic 12px monospace;
}
rect {
stroke-width: 3;
stroke: black;
fill: #BCBCBC;
}
path.diagram-text {
stroke-width: 3;
stroke: black;
fill: #BCBCBC;
cursor: help;
}
]]></style>
</defs>
<g transform="translate(.5 .5)">
<g>
<path d="M20 38v20m10 -20v20m-10 -10h20"></path>
</g>
<path d="M40 48h10"></path>
<g>
<path d="M50 48h0"></path>
<path d="M1316.5 48h0"></path>
<g>
<path d="M50 48h0"></path>
<path d="M123 48h0"></path>
<text x="86.5" y="53" class="comment">not Cloud</text>
</g>
<path d="M123 48h10"></path>
<path d="M133 48h10"></path>
<g>
<path d="M143 48h0"></path>
<path d="M1316.5 48h0"></path>
<g class="terminal">
<path d="M143 48h0"></path>
<path d="M231 48h0"></path>
<rect x="143" y="37" width="88" height="22" rx="10" ry="10"></rect>
<text x="187" y="52">"SUBMIT"</text>
</g>
<path d="M231 48h10"></path>
<g>
<path d="M241 48h0"></path>
<path d="M394.5 48h0"></path>
<path d="M241 48h20"></path>
<g class="non-terminal">
<path d="M261 48h0"></path>
<path d="M374.5 48h0"></path>
<rect x="261" y="37" width="113.5" height="22"></rect>
<a xlink:href="#/abap/expression/IncludeName"><text x="317.75" y="52">IncludeName</text>
</a>
</g>
<path d="M374.5 48h20"></path>
<path d="M241 48a10 10 0 0 1 10 10v10a10 10 0 0 0 10 10"></path>
<g class="non-terminal">
<path d="M261 78h0"></path>
<path d="M340.5 78h34"></path>
<rect x="261" y="67" width="79.5" height="22"></rect>
<a xlink:href="#/abap/expression/Dynamic"><text x="300.75" y="82">Dynamic</text>
</a>
</g>
<path d="M374.5 78a10 10 0 0 0 10 -10v-10a10 10 0 0 1 10 -10"></path>
</g>
<g>
<path d="M394.5 48h0"></path>
<path d="M1316.5 48h0"></path>
<path d="M394.5 48a10 10 0 0 0 10 -10v-8a10 10 0 0 1 10 -10"></path>
<g>
<path d="M414.5 20h882"></path>
</g>
<path d="M1296.5 20a10 10 0 0 1 10 10v8a10 10 0 0 0 10 10"></path>
<path d="M394.5 48h20"></path>
<g>
<path d="M414.5 48h0"></path>
<path d="M1296.5 48h0"></path>
<path d="M444.5 48h10"></path>
<g>
<path d="M454.5 48h0"></path>
<path d="M1266.5 48h0"></path>
<path d="M454.5 48h10"></path>
<g>
<path d="M464.5 48h0"></path>
<path d="M1256.5 48h0"></path>
<g class="terminal">
<path d="M464.5 48h0"></path>
<path d="M535.5 48h0"></path>
<rect x="464.5" y="37" width="71" height="22" rx="10" ry="10"></rect>
<text x="500" y="52">"WITH"</text>
</g>
<path d="M535.5 48h10"></path>
<path d="M545.5 48h10"></path>
<g class="non-terminal">
<path d="M555.5 48h0"></path>
<path d="M643.5 48h0"></path>
<rect x="555.5" y="37" width="88" height="22"></rect>
<a xlink:href="#/abap/expression/FieldSub"><text x="599.5" y="52">FieldSub</text>
</a>
</g>
<path d="M643.5 48h10"></path>
<g>
<path d="M653.5 48h0"></path>
<path d="M1054.5 48h0"></path>
<path d="M653.5 48h20"></path>
<g>
<path d="M673.5 48h0"></path>
<path d="M865.5 48h169"></path>
<g>
<path d="M673.5 48h0"></path>
<path d="M784.5 48h0"></path>
<path d="M673.5 48h20"></path>
<g class="terminal">
<path d="M693.5 48h0"></path>
<path d="M739 48h25.5"></path>
<rect x="693.5" y="37" width="45.5" height="22" rx="10" ry="10"></rect>
<text x="716.25" y="52">"="</text>
</g>
<path d="M764.5 48h20"></path>
<path d="M673.5 48a10 10 0 0 1 10 10v10a10 10 0 0 0 10 10"></path>
<g class="terminal">
<path d="M693.5 78h0"></path>
<path d="M747.5 78h17"></path>
<rect x="693.5" y="67" width="54" height="22" rx="10" ry="10"></rect>
<text x="720.5" y="82">"EQ"</text>
</g>
<path d="M764.5 78a10 10 0 0 0 10 -10v-10a10 10 0 0 1 10 -10"></path>
<path d="M673.5 48a10 10 0 0 1 10 10v40a10 10 0 0 0 10 10"></path>
<g class="terminal">
<path d="M693.5 108h0"></path>
<path d="M747.5 108h17"></path>
<rect x="693.5" y="97" width="54" height="22" rx="10" ry="10"></rect>
<text x="720.5" y="112">"IN"</text>
</g>
<path d="M764.5 108a10 10 0 0 0 10 -10v-40a10 10 0 0 1 10 -10"></path>
<path d="M673.5 48a10 10 0 0 1 10 10v70a10 10 0 0 0 10 10"></path>
<g class="terminal">
<path d="M693.5 138h0"></path>
<path d="M747.5 138h17"></path>
<rect x="693.5" y="127" width="54" height="22" rx="10" ry="10"></rect>
<text x="720.5" y="142">"NE"</text>
</g>
<path d="M764.5 138a10 10 0 0 0 10 -10v-70a10 10 0 0 1 10 -10"></path>
<path d="M673.5 48a10 10 0 0 1 10 10v100a10 10 0 0 0 10 10"></path>
<g class="terminal">
<path d="M693.5 168h0"></path>
<path d="M747.5 168h17"></path>
<rect x="693.5" y="157" width="54" height="22" rx="10" ry="10"></rect>
<text x="720.5" y="172">"CP"</text>
</g>
<path d="M764.5 168a10 10 0 0 0 10 -10v-100a10 10 0 0 1 10 -10"></path>
<path d="M673.5 48a10 10 0 0 1 10 10v130a10 10 0 0 0 10 10"></path>
<g class="terminal">
<path d="M693.5 198h0"></path>
<path d="M747.5 198h17"></path>
<rect x="693.5" y="187" width="54" height="22" rx="10" ry="10"></rect>
<text x="720.5" y="202">"GE"</text>
</g>
<path d="M764.5 198a10 10 0 0 0 10 -10v-130a10 10 0 0 1 10 -10"></path>
<path d="M673.5 48a10 10 0 0 1 10 10v160a10 10 0 0 0 10 10"></path>
<g class="terminal">
<path d="M693.5 228h0"></path>
<path d="M747.5 228h17"></path>
<rect x="693.5" y="217" width="54" height="22" rx="10" ry="10"></rect>
<text x="720.5" y="232">"LE"</text>
</g>
<path d="M764.5 228a10 10 0 0 0 10 -10v-160a10 10 0 0 1 10 -10"></path>
<path d="M673.5 48a10 10 0 0 1 10 10v190a10 10 0 0 0 10 10"></path>
<g class="terminal">
<path d="M693.5 258h0"></path>
<path d="M764.5 258h0"></path>
<rect x="693.5" y="247" width="71" height="22" rx="10" ry="10"></rect>
<text x="729" y="262">"INCL"</text>
</g>
<path d="M764.5 258a10 10 0 0 0 10 -10v-190a10 10 0 0 1 10 -10"></path>
<path d="M673.5 48a10 10 0 0 1 10 10v220a10 10 0 0 0 10 10"></path>
<g class="terminal">
<path d="M693.5 288h0"></path>
<path d="M747.5 288h17"></path>
<rect x="693.5" y="277" width="54" height="22" rx="10" ry="10"></rect>
<text x="720.5" y="292">"GT"</text>
</g>
<path d="M764.5 288a10 10 0 0 0 10 -10v-220a10 10 0 0 1 10 -10"></path>
<path d="M673.5 48a10 10 0 0 1 10 10v250a10 10 0 0 0 10 10"></path>
<g class="terminal">
<path d="M693.5 318h0"></path>
<path d="M747.5 318h17"></path>
<rect x="693.5" y="307" width="54" height="22" rx="10" ry="10"></rect>
<text x="720.5" y="322">"LT"</text>
</g>
<path d="M764.5 318a10 10 0 0 0 10 -10v-250a10 10 0 0 1 10 -10"></path>
</g>
<path d="M784.5 48h10"></path>
<g class="non-terminal">
<path d="M794.5 48h0"></path>
<path d="M865.5 48h0"></path>
<rect x="794.5" y="37" width="71" height="22"></rect>
<a xlink:href="#/abap/expression/Source"><text x="830" y="52">Source</text>
</a>
</g>
</g>
<path d="M1034.5 48h20"></path>
<path d="M653.5 48a10 10 0 0 1 10 10v280a10 10 0 0 0 10 10"></path>
<g>
<path d="M673.5 348h0"></path>
<path d="M1034.5 348h0"></path>
<g class="terminal">
<path d="M673.5 348h0"></path>
<path d="M770 348h0"></path>
<rect x="673.5" y="337" width="96.5" height="22" rx="10" ry="10"></rect>
<text x="721.75" y="352">"BETWEEN"</text>
</g>
<path d="M770 348h10"></path>
<path d="M780 348h10"></path>
<g class="non-terminal">
<path d="M790 348h0"></path>
<path d="M861 348h0"></path>
<rect x="790" y="337" width="71" height="22"></rect>
<a xlink:href="#/abap/expression/Source"><text x="825.5" y="352">Source</text>
</a>
</g>
<path d="M861 348h10"></path>
<path d="M871 348h10"></path>
<g class="terminal">
<path d="M881 348h0"></path>
<path d="M943.5 348h0"></path>
<rect x="881" y="337" width="62.5" height="22" rx="10" ry="10"></rect>
<text x="912.25" y="352">"AND"</text>
</g>
<path d="M943.5 348h10"></path>
<path d="M953.5 348h10"></path>
<g class="non-terminal">
<path d="M963.5 348h0"></path>
<path d="M1034.5 348h0"></path>
<rect x="963.5" y="337" width="71" height="22"></rect>
<a xlink:href="#/abap/expression/Source"><text x="999" y="352">Source</text>
</a>
</g>
</g>
<path d="M1034.5 348a10 10 0 0 0 10 -10v-280a10 10 0 0 1 10 -10"></path>
</g>
<g>
<path d="M1054.5 48h0"></path>
<path d="M1256.5 48h0"></path>
<path d="M1054.5 48a10 10 0 0 0 10 -10v0a10 10 0 0 1 10 -10"></path>
<g>
<path d="M1074.5 28h162"></path>
</g>
<path d="M1236.5 28a10 10 0 0 1 10 10v0a10 10 0 0 0 10 10"></path>
<path d="M1054.5 48h20"></path>
<g>
<path d="M1074.5 48h0"></path>
<path d="M1236.5 48h0"></path>
<g class="terminal">
<path d="M1074.5 48h0"></path>
<path d="M1145.5 48h0"></path>
<rect x="1074.5" y="37" width="71" height="22" rx="10" ry="10"></rect>
<text x="1110" y="52">"SIGN"</text>
</g>
<path d="M1145.5 48h10"></path>
<path d="M1155.5 48h10"></path>
<g class="non-terminal">
<path d="M1165.5 48h0"></path>
<path d="M1236.5 48h0"></path>
<rect x="1165.5" y="37" width="71" height="22"></rect>
<a xlink:href="#/abap/expression/Source"><text x="1201" y="52">Source</text>
</a>
</g>
</g>
<path d="M1236.5 48h20"></path>
</g>
</g>
<path d="M1256.5 48h10"></path>
<path d="M464.5 48a10 10 0 0 0 -10 10v299a10 10 0 0 0 10 10"></path>
<g>
<path d="M464.5 367h792"></path>
</g>
<path d="M1256.5 367a10 10 0 0 0 10 -10v-299a10 10 0 0 0 -10 -10"></path>
</g>
<path d="M1266.5 48h10"></path>
<path d="M444.5 48v328a10 10 0 0 0 10 10"></path>
<g>
<path d="M454.5 386h0"></path>
<path d="M752.5 386h514"></path>
<g class="terminal">
<path d="M454.5 386h0"></path>
<path d="M661.5 386h0"></path>
<rect x="454.5" y="375" width="207" height="22" rx="10" ry="10"></rect>
<text x="558" y="390">"WITH SELECTION-TABLE"</text>
</g>
<path d="M661.5 386h10"></path>
<path d="M671.5 386h10"></path>
<g class="non-terminal">
<path d="M681.5 386h0"></path>
<path d="M752.5 386h0"></path>
<rect x="681.5" y="375" width="71" height="22"></rect>
<a xlink:href="#/abap/expression/Source"><text x="717" y="390">Source</text>
</a>
</g>
</g>
<path d="M1266.5 386a10 10 0 0 0 10 -10v-328"></path>
<path d="M444.5 48v367a10 10 0 0 0 10 10"></path>
<g>
<path d="M454.5 425h0"></path>
<path d="M1266.5 425h0"></path>
<path d="M454.5 425h10"></path>
<g>
<path d="M464.5 425h0"></path>
<path d="M1256.5 425h0"></path>
<g class="terminal">
<path d="M464.5 425h0"></path>
<path d="M535.5 425h0"></path>
<rect x="464.5" y="414" width="71" height="22" rx="10" ry="10"></rect>
<text x="500" y="429">"WITH"</text>
</g>
<path d="M535.5 425h10"></path>
<path d="M545.5 425h10"></path>
<g class="non-terminal">
<path d="M555.5 425h0"></path>
<path d="M643.5 425h0"></path>
<rect x="555.5" y="414" width="88" height="22"></rect>
<a xlink:href="#/abap/expression/FieldSub"><text x="599.5" y="429">FieldSub</text>
</a>
</g>
<path d="M643.5 425h10"></path>
<g>
<path d="M653.5 425h0"></path>
<path d="M1054.5 425h0"></path>
<path d="M653.5 425h20"></path>
<g>
<path d="M673.5 425h0"></path>
<path d="M865.5 425h169"></path>
<g>
<path d="M673.5 425h0"></path>
<path d="M784.5 425h0"></path>
<path d="M673.5 425h20"></path>
<g class="terminal">
<path d="M693.5 425h0"></path>
<path d="M739 425h25.5"></path>
<rect x="693.5" y="414" width="45.5" height="22" rx="10" ry="10"></rect>
<text x="716.25" y="429">"="</text>
</g>
<path d="M764.5 425h20"></path>
<path d="M673.5 425a10 10 0 0 1 10 10v10a10 10 0 0 0 10 10"></path>
<g class="terminal">
<path d="M693.5 455h0"></path>
<path d="M747.5 455h17"></path>
<rect x="693.5" y="444" width="54" height="22" rx="10" ry="10"></rect>
<text x="720.5" y="459">"EQ"</text>
</g>
<path d="M764.5 455a10 10 0 0 0 10 -10v-10a10 10 0 0 1 10 -10"></path>
<path d="M673.5 425a10 10 0 0 1 10 10v40a10 10 0 0 0 10 10"></path>
<g class="terminal">
<path d="M693.5 485h0"></path>
<path d="M747.5 485h17"></path>
<rect x="693.5" y="474" width="54" height="22" rx="10" ry="10"></rect>
<text x="720.5" y="489">"IN"</text>
</g>
<path d="M764.5 485a10 10 0 0 0 10 -10v-40a10 10 0 0 1 10 -10"></path>
<path d="M673.5 425a10 10 0 0 1 10 10v70a10 10 0 0 0 10 10"></path>
<g class="terminal">
<path d="M693.5 515h0"></path>
<path d="M747.5 515h17"></path>
<rect x="693.5" y="504" width="54" height="22" rx="10" ry="10"></rect>
<text x="720.5" y="519">"NE"</text>
</g>
<path d="M764.5 515a10 10 0 0 0 10 -10v-70a10 10 0 0 1 10 -10"></path>
<path d="M673.5 425a10 10 0 0 1 10 10v100a10 10 0 0 0 10 10"></path>
<g class="terminal">
<path d="M693.5 545h0"></path>
<path d="M747.5 545h17"></path>
<rect x="693.5" y="534" width="54" height="22" rx="10" ry="10"></rect>
<text x="720.5" y="549">"CP"</text>
</g>
<path d="M764.5 545a10 10 0 0 0 10 -10v-100a10 10 0 0 1 10 -10"></path>
<path d="M673.5 425a10 10 0 0 1 10 10v130a10 10 0 0 0 10 10"></path>
<g class="terminal">
<path d="M693.5 575h0"></path>
<path d="M747.5 575h17"></path>
<rect x="693.5" y="564" width="54" height="22" rx="10" ry="10"></rect>
<text x="720.5" y="579">"GE"</text>
</g>
<path d="M764.5 575a10 10 0 0 0 10 -10v-130a10 10 0 0 1 10 -10"></path>
<path d="M673.5 425a10 10 0 0 1 10 10v160a10 10 0 0 0 10 10"></path>
<g class="terminal">
<path d="M693.5 605h0"></path>
<path d="M747.5 605h17"></path>
<rect x="693.5" y="594" width="54" height="22" rx="10" ry="10"></rect>
<text x="720.5" y="609">"LE"</text>
</g>
<path d="M764.5 605a10 10 0 0 0 10 -10v-160a10 10 0 0 1 10 -10"></path>
<path d="M673.5 425a10 10 0 0 1 10 10v190a10 10 0 0 0 10 10"></path>
<g class="terminal">
<path d="M693.5 635h0"></path>
<path d="M764.5 635h0"></path>
<rect x="693.5" y="624" width="71" height="22" rx="10" ry="10"></rect>
<text x="729" y="639">"INCL"</text>
</g>
<path d="M764.5 635a10 10 0 0 0 10 -10v-190a10 10 0 0 1 10 -10"></path>
<path d="M673.5 425a10 10 0 0 1 10 10v220a10 10 0 0 0 10 10"></path>
<g class="terminal">
<path d="M693.5 665h0"></path>
<path d="M747.5 665h17"></path>
<rect x="693.5" y="654" width="54" height="22" rx="10" ry="10"></rect>
<text x="720.5" y="669">"GT"</text>
</g>
<path d="M764.5 665a10 10 0 0 0 10 -10v-220a10 10 0 0 1 10 -10"></path>
<path d="M673.5 425a10 10 0 0 1 10 10v250a10 10 0 0 0 10 10"></path>
<g class="terminal">
<path d="M693.5 695h0"></path>
<path d="M747.5 695h17"></path>
<rect x="693.5" y="684" width="54" height="22" rx="10" ry="10"></rect>
<text x="720.5" y="699">"LT"</text>
</g>
<path d="M764.5 695a10 10 0 0 0 10 -10v-250a10 10 0 0 1 10 -10"></path>
</g>
<path d="M784.5 425h10"></path>
<g class="non-terminal">
<path d="M794.5 425h0"></path>
<path d="M865.5 425h0"></path>
<rect x="794.5" y="414" width="71" height="22"></rect>
<a xlink:href="#/abap/expression/Source"><text x="830" y="429">Source</text>
</a>
</g>
</g>
<path d="M1034.5 425h20"></path>
<path d="M653.5 425a10 10 0 0 1 10 10v280a10 10 0 0 0 10 10"></path>
<g>
<path d="M673.5 725h0"></path>
<path d="M1034.5 725h0"></path>
<g class="terminal">
<path d="M673.5 725h0"></path>
<path d="M770 725h0"></path>
<rect x="673.5" y="714" width="96.5" height="22" rx="10" ry="10"></rect>
<text x="721.75" y="729">"BETWEEN"</text>
</g>
<path d="M770 725h10"></path>
<path d="M780 725h10"></path>
<g class="non-terminal">
<path d="M790 725h0"></path>
<path d="M861 725h0"></path>
<rect x="790" y="714" width="71" height="22"></rect>
<a xlink:href="#/abap/expression/Source"><text x="825.5" y="729">Source</text>
</a>
</g>
<path d="M861 725h10"></path>
<path d="M871 725h10"></path>
<g class="terminal">
<path d="M881 725h0"></path>
<path d="M943.5 725h0"></path>
<rect x="881" y="714" width="62.5" height="22" rx="10" ry="10"></rect>
<text x="912.25" y="729">"AND"</text>
</g>
<path d="M943.5 725h10"></path>
<path d="M953.5 725h10"></path>
<g class="non-terminal">
<path d="M963.5 725h0"></path>
<path d="M1034.5 725h0"></path>
<rect x="963.5" y="714" width="71" height="22"></rect>
<a xlink:href="#/abap/expression/Source"><text x="999" y="729">Source</text>
</a>
</g>
</g>
<path d="M1034.5 725a10 10 0 0 0 10 -10v-280a10 10 0 0 1 10 -10"></path>
</g>
<g>
<path d="M1054.5 425h0"></path>
<path d="M1256.5 425h0"></path>
<path d="M1054.5 425a10 10 0 0 0 10 -10v0a10 10 0 0 1 10 -10"></path>
<g>
<path d="M1074.5 405h162"></path>
</g>
<path d="M1236.5 405a10 10 0 0 1 10 10v0a10 10 0 0 0 10 10"></path>
<path d="M1054.5 425h20"></path>
<g>
<path d="M1074.5 425h0"></path>
<path d="M1236.5 425h0"></path>
<g class="terminal">
<path d="M1074.5 425h0"></path>
<path d="M1145.5 425h0"></path>
<rect x="1074.5" y="414" width="71" height="22" rx="10" ry="10"></rect>
<text x="1110" y="429">"SIGN"</text>
</g>
<path d="M1145.5 425h10"></path>
<path d="M1155.5 425h10"></path>
<g class="non-terminal">
<path d="M1165.5 425h0"></path>
<path d="M1236.5 425h0"></path>
<rect x="1165.5" y="414" width="71" height="22"></rect>
<a xlink:href="#/abap/expression/Source"><text x="1201" y="429">Source</text>
</a>
</g>
</g>
<path d="M1236.5 425h20"></path>
</g>
</g>
<path d="M1256.5 425h10"></path>
<path d="M464.5 425a10 10 0 0 0 -10 10v299a10 10 0 0 0 10 10"></path>
<g>
<path d="M464.5 744h792"></path>
</g>
<path d="M1256.5 744a10 10 0 0 0 10 -10v-299a10 10 0 0 0 -10 -10"></path>
</g>
<path d="M1266.5 425a10 10 0 0 0 10 -10v-367"></path>
<path d="M444.5 48v705a10 10 0 0 0 10 10"></path>
<g>
<path d="M454.5 763h0"></path>
<path d="M718.5 763h548"></path>
<g class="terminal">
<path d="M454.5 763h0"></path>
<path d="M627.5 763h0"></path>
<rect x="454.5" y="752" width="173" height="22" rx="10" ry="10"></rect>
<text x="541" y="767">"SPOOL PARAMETERS"</text>
</g>
<path d="M627.5 763h10"></path>
<path d="M637.5 763h10"></path>
<g class="non-terminal">
<path d="M647.5 763h0"></path>
<path d="M718.5 763h0"></path>
<rect x="647.5" y="752" width="71" height="22"></rect>
<a xlink:href="#/abap/expression/Source"><text x="683" y="767">Source</text>
</a>
</g>
</g>
<path d="M1266.5 763a10 10 0 0 0 10 -10v-705"></path>
<path d="M444.5 48v735a10 10 0 0 0 10 10"></path>
<g>
<path d="M454.5 793h0"></path>
<path d="M659 793h607.5"></path>
<g class="terminal">
<path d="M454.5 793h0"></path>
<path d="M568 793h0"></path>
<rect x="454.5" y="782" width="113.5" height="22" rx="10" ry="10"></rect>
<text x="511.25" y="797">"LINE-SIZE"</text>
</g>
<path d="M568 793h10"></path>
<path d="M578 793h10"></path>
<g class="non-terminal">
<path d="M588 793h0"></path>
<path d="M659 793h0"></path>
<rect x="588" y="782" width="71" height="22"></rect>
<a xlink:href="#/abap/expression/Source"><text x="623.5" y="797">Source</text>
</a>
</g>
</g>
<path d="M1266.5 793a10 10 0 0 0 10 -10v-735"></path>
<path d="M444.5 48v765a10 10 0 0 0 10 10"></path>
<g>
<path d="M454.5 823h0"></path>
<path d="M667.5 823h599"></path>
<g class="terminal">
<path d="M454.5 823h0"></path>
<path d="M576.5 823h0"></path>
<rect x="454.5" y="812" width="122" height="22" rx="10" ry="10"></rect>
<text x="515.5" y="827">"LINE-COUNT"</text>
</g>
<path d="M576.5 823h10"></path>
<path d="M586.5 823h10"></path>
<g class="non-terminal">
<path d="M596.5 823h0"></path>
<path d="M667.5 823h0"></path>
<rect x="596.5" y="812" width="71" height="22"></rect>
<a xlink:href="#/abap/expression/Source"><text x="632" y="827">Source</text>
</a>
</g>
</g>
<path d="M1266.5 823a10 10 0 0 0 10 -10v-765"></path>
<path d="M444.5 48v795a10 10 0 0 0 10 10"></path>
<g>
<path d="M454.5 853h0"></path>
<path d="M735.5 853h531"></path>
<g class="terminal">
<path d="M454.5 853h0"></path>
<path d="M644.5 853h0"></path>
<rect x="454.5" y="842" width="190" height="22" rx="10" ry="10"></rect>
<text x="549.5" y="857">"ARCHIVE PARAMETERS"</text>
</g>
<path d="M644.5 853h10"></path>
<path d="M654.5 853h10"></path>
<g class="non-terminal">
<path d="M664.5 853h0"></path>
<path d="M735.5 853h0"></path>
<rect x="664.5" y="842" width="71" height="22"></rect>
<a xlink:href="#/abap/expression/Source"><text x="700" y="857">Source</text>
</a>
</g>
</g>
<path d="M1266.5 853a10 10 0 0 0 10 -10v-795"></path>
<path d="M444.5 48v825a10 10 0 0 0 10 10"></path>
<g>
<path d="M454.5 883h0"></path>
<path d="M616.5 883h650"></path>
<g class="terminal">
<path d="M454.5 883h0"></path>
<path d="M525.5 883h0"></path>
<rect x="454.5" y="872" width="71" height="22" rx="10" ry="10"></rect>
<text x="490" y="887">"USER"</text>
</g>
<path d="M525.5 883h10"></path>
<path d="M535.5 883h10"></path>
<g class="non-terminal">
<path d="M545.5 883h0"></path>
<path d="M616.5 883h0"></path>
<rect x="545.5" y="872" width="71" height="22"></rect>
<a xlink:href="#/abap/expression/Source"><text x="581" y="887">Source</text>
</a>
</g>
</g>
<path d="M1266.5 883a10 10 0 0 0 10 -10v-825"></path>
<path d="M444.5 48v855a10 10 0 0 0 10 10"></path>
<g>
<path d="M454.5 913h0"></path>
<path d="M744 913h522.5"></path>
<g class="terminal">
<path d="M454.5 913h0"></path>
<path d="M653 913h0"></path>
<rect x="454.5" y="902" width="198.5" height="22" rx="10" ry="10"></rect>
<text x="553.75" y="917">"USING SELECTION-SET"</text>
</g>
<path d="M653 913h10"></path>
<path d="M663 913h10"></path>
<g class="non-terminal">
<path d="M673 913h0"></path>
<path d="M744 913h0"></path>
<rect x="673" y="902" width="71" height="22"></rect>
<a xlink:href="#/abap/expression/Source"><text x="708.5" y="917">Source</text>
</a>
</g>
</g>
<path d="M1266.5 913a10 10 0 0 0 10 -10v-855"></path>
<path d="M444.5 48v885a10 10 0 0 0 10 10"></path>
<g>
<path d="M454.5 943h0"></path>
<path d="M846 943h420.5"></path>
<g class="terminal">
<path d="M454.5 943h0"></path>
<path d="M755 943h0"></path>
<rect x="454.5" y="932" width="300.5" height="22" rx="10" ry="10"></rect>
<text x="604.75" y="947">"USING SELECTION-SETS OF PROGRAM"</text>
</g>
<path d="M755 943h10"></path>
<path d="M765 943h10"></path>
<g class="non-terminal">
<path d="M775 943h0"></path>
<path d="M846 943h0"></path>
<rect x="775" y="932" width="71" height="22"></rect>
<a xlink:href="#/abap/expression/Source"><text x="810.5" y="947">Source</text>
</a>
</g>
</g>
<path d="M1266.5 943a10 10 0 0 0 10 -10v-885"></path>
<path d="M444.5 48v915a10 10 0 0 0 10 10"></path>
<g>
<path d="M454.5 973h0"></path>
<path d="M693 973h573.5"></path>
<g class="terminal">
<path d="M454.5 973h0"></path>
<path d="M602 973h0"></path>
<rect x="454.5" y="962" width="147.5" height="22" rx="10" ry="10"></rect>
<text x="528.25" y="977">"KEEP IN SPOOL"</text>
</g>
<path d="M602 973h10"></path>
<path d="M612 973h10"></path>
<g class="non-terminal">
<path d="M622 973h0"></path>
<path d="M693 973h0"></path>
<rect x="622" y="962" width="71" height="22"></rect>
<a xlink:href="#/abap/expression/Source"><text x="657.5" y="977">Source</text>
</a>
</g>
</g>
<path d="M1266.5 973a10 10 0 0 0 10 -10v-915"></path>
<path d="M444.5 48v945a10 10 0 0 0 10 10"></path>
<g>
<path d="M454.5 1003h0"></path>
<path d="M701.5 1003h565"></path>
<g class="terminal">
<path d="M454.5 1003h0"></path>
<path d="M610.5 1003h0"></path>
<rect x="454.5" y="992" width="156" height="22" rx="10" ry="10"></rect>
<text x="532.5" y="1007">"SAP COVER PAGE"</text>
</g>
<path d="M610.5 1003h10"></path>
<path d="M620.5 1003h10"></path>
<g class="non-terminal">
<path d="M630.5 1003h0"></path>
<path d="M701.5 1003h0"></path>
<rect x="630.5" y="992" width="71" height="22"></rect>
<a xlink:href="#/abap/expression/Source"><text x="666" y="1007">Source</text>
</a>
</g>
</g>
<path d="M1266.5 1003a10 10 0 0 0 10 -10v-945"></path>
<path d="M444.5 48v975a10 10 0 0 0 10 10"></path>
<g>
<path d="M454.5 1033h0"></path>
<path d="M676 1033h590.5"></path>
<g class="terminal">
<path d="M454.5 1033h0"></path>
<path d="M585 1033h0"></path>
<rect x="454.5" y="1022" width="130.5" height="22" rx="10" ry="10"></rect>
<text x="519.75" y="1037">"IMMEDIATELY"</text>
</g>
<path d="M585 1033h10"></path>
<path d="M595 1033h10"></path>
<g class="non-terminal">
<path d="M605 1033h0"></path>
<path d="M676 1033h0"></path>
<rect x="605" y="1022" width="71" height="22"></rect>
<a xlink:href="#/abap/expression/Source"><text x="640.5" y="1037">Source</text>
</a>
</g>
</g>
<path d="M1266.5 1033a10 10 0 0 0 10 -10v-975"></path>
<path d="M444.5 48v1005a10 10 0 0 0 10 10"></path>
<g>
<path d="M454.5 1063h0"></path>
<path d="M633.5 1063h633"></path>
<g class="terminal">
<path d="M454.5 1063h0"></path>
<path d="M542.5 1063h0"></path>
<rect x="454.5" y="1052" width="88" height="22" rx="10" ry="10"></rect>
<text x="498.5" y="1067">"LAYOUT"</text>
</g>
<path d="M542.5 1063h10"></path>
<path d="M552.5 1063h10"></path>
<g class="non-terminal">
<path d="M562.5 1063h0"></path>
<path d="M633.5 1063h0"></path>
<rect x="562.5" y="1052" width="71" height="22"></rect>
<a xlink:href="#/abap/expression/Source"><text x="598" y="1067">Source</text>
</a>
</g>
</g>
<path d="M1266.5 1063a10 10 0 0 0 10 -10v-1005"></path>
<path d="M444.5 48v1035a10 10 0 0 0 10 10"></path>
<g>
<path d="M454.5 1093h0"></path>
<path d="M676 1093h590.5"></path>
<g class="terminal">
<path d="M454.5 1093h0"></path>
<path d="M585 1093h0"></path>
<rect x="454.5" y="1082" width="130.5" height="22" rx="10" ry="10"></rect>
<text x="519.75" y="1097">"DESTINATION"</text>
</g>
<path d="M585 1093h10"></path>
<path d="M595 1093h10"></path>
<g class="non-terminal">
<path d="M605 1093h0"></path>
<path d="M676 1093h0"></path>
<rect x="605" y="1082" width="71" height="22"></rect>
<a xlink:href="#/abap/expression/Source"><text x="640.5" y="1097">Source</text>
</a>
</g>
</g>
<path d="M1266.5 1093a10 10 0 0 0 10 -10v-1035"></path>
<path d="M444.5 48v1065a10 10 0 0 0 10 10"></path>
<g>
<path d="M454.5 1123h0"></path>
<path d="M667.5 1123h599"></path>
<g class="terminal">
<path d="M454.5 1123h0"></path>
<path d="M576.5 1123h0"></path>
<rect x="454.5" y="1112" width="122" height="22" rx="10" ry="10"></rect>
<text x="515.5" y="1127">"COVER TEXT"</text>
</g>
<path d="M576.5 1123h10"></path>
<path d="M586.5 1123h10"></path>
<g class="non-terminal">
<path d="M596.5 1123h0"></path>
<path d="M667.5 1123h0"></path>
<rect x="596.5" y="1112" width="71" height="22"></rect>
<a xlink:href="#/abap/expression/Source"><text x="632" y="1127">Source</text>
</a>
</g>
</g>
<path d="M1266.5 1123a10 10 0 0 0 10 -10v-1065"></path>
<path d="M444.5 48v1095a10 10 0 0 0 10 10"></path>
<g>
<path d="M454.5 1153h0"></path>
<path d="M659 1153h607.5"></path>
<g class="terminal">
<path d="M454.5 1153h0"></path>
<path d="M568 1153h0"></path>
<rect x="454.5" y="1142" width="113.5" height="22" rx="10" ry="10"></rect>
<text x="511.25" y="1157">"LIST NAME"</text>
</g>
<path d="M568 1153h10"></path>
<path d="M578 1153h10"></path>
<g class="non-terminal">
<path d="M588 1153h0"></path>
<path d="M659 1153h0"></path>
<rect x="588" y="1142" width="71" height="22"></rect>
<a xlink:href="#/abap/expression/Source"><text x="623.5" y="1157">Source</text>
</a>
</g>
</g>
<path d="M1266.5 1153a10 10 0 0 0 10 -10v-1095"></path>
<path d="M444.5 48v1125a10 10 0 0 0 10 10"></path>
<g>
<path d="M454.5 1183h0"></path>
<path d="M650.5 1183h616"></path>
<g class="terminal">
<path d="M454.5 1183h0"></path>
<path d="M559.5 1183h0"></path>
<rect x="454.5" y="1172" width="105" height="22" rx="10" ry="10"></rect>
<text x="507" y="1187">"LANGUAGE"</text>
</g>
<path d="M559.5 1183h10"></path>
<path d="M569.5 1183h10"></path>
<g class="non-terminal">
<path d="M579.5 1183h0"></path>
<path d="M650.5 1183h0"></path>
<rect x="579.5" y="1172" width="71" height="22"></rect>
<a xlink:href="#/abap/expression/Source"><text x="615" y="1187">Source</text>
</a>
</g>
</g>
<path d="M1266.5 1183a10 10 0 0 0 10 -10v-1125"></path>
<path d="M444.5 48v1155a10 10 0 0 0 10 10"></path>
<g>
<path d="M454.5 1213h0"></path>
<path d="M752.5 1213h514"></path>
<g class="terminal">
<path d="M454.5 1213h0"></path>
<path d="M661.5 1213h0"></path>
<rect x="454.5" y="1202" width="207" height="22" rx="10" ry="10"></rect>
<text x="558" y="1217">"WITH FREE SELECTIONS"</text>
</g>
<path d="M661.5 1213h10"></path>
<path d="M671.5 1213h10"></path>
<g class="non-terminal">
<path d="M681.5 1213h0"></path>
<path d="M752.5 1213h0"></path>
<rect x="681.5" y="1202" width="71" height="22"></rect>
<a xlink:href="#/abap/expression/Source"><text x="717" y="1217">Source</text>
</a>
</g>
</g>
<path d="M1266.5 1213a10 10 0 0 0 10 -10v-1155"></path>
<path d="M444.5 48v1185a10 10 0 0 0 10 10"></path>
<g>
<path d="M454.5 1243h0"></path>
<path d="M778 1243h488.5"></path>
<g class="terminal">
<path d="M454.5 1243h0"></path>
<path d="M687 1243h0"></path>
<rect x="454.5" y="1232" width="232.5" height="22" rx="10" ry="10"></rect>
<text x="570.75" y="1247">"NEW LIST IDENTIFICATION"</text>
</g>
<path d="M687 1243h10"></path>
<path d="M697 1243h10"></path>
<g class="non-terminal">
<path d="M707 1243h0"></path>
<path d="M778 1243h0"></path>
<rect x="707" y="1232" width="71" height="22"></rect>
<a xlink:href="#/abap/expression/Source"><text x="742.5" y="1247">Source</text>
</a>
</g>
</g>
<path d="M1266.5 1243a10 10 0 0 0 10 -10v-1185"></path>
<path d="M444.5 48v1215a10 10 0 0 0 10 10"></path>
<g>
<path d="M454.5 1273h0"></path>
<path d="M769.5 1273h497"></path>
<g class="terminal">
<path d="M454.5 1273h0"></path>
<path d="M678.5 1273h0"></path>
<rect x="454.5" y="1262" width="224" height="22" rx="10" ry="10"></rect>
<text x="566.5" y="1277">"USING SELECTION-SCREEN"</text>
</g>
<path d="M678.5 1273h10"></path>
<path d="M688.5 1273h10"></path>
<g class="non-terminal">
<path d="M698.5 1273h0"></path>
<path d="M769.5 1273h0"></path>
<rect x="698.5" y="1262" width="71" height="22"></rect>
<a xlink:href="#/abap/expression/Source"><text x="734" y="1277">Source</text>
</a>
</g>
</g>
<path d="M1266.5 1273a10 10 0 0 0 10 -10v-1215"></path>
<path d="M444.5 48v1245a10 10 0 0 0 10 10"></path>
<g>
<path d="M454.5 1303h0"></path>
<path d="M633.5 1303h633"></path>
<g class="terminal">
<path d="M454.5 1303h0"></path>
<path d="M542.5 1303h0"></path>
<rect x="454.5" y="1292" width="88" height="22" rx="10" ry="10"></rect>
<text x="498.5" y="1307">"COPIES"</text>
</g>
<path d="M542.5 1303h10"></path>
<path d="M552.5 1303h10"></path>
<g class="non-terminal">
<path d="M562.5 1303h0"></path>
<path d="M633.5 1303h0"></path>
<rect x="562.5" y="1292" width="71" height="22"></rect>
<a xlink:href="#/abap/expression/Source"><text x="598" y="1307">Source</text>
</a>
</g>
</g>
<path d="M1266.5 1303a10 10 0 0 0 10 -10v-1245"></path>
<path d="M444.5 48v1275a10 10 0 0 0 10 10"></path>
<g>
<path d="M454.5 1333h0"></path>
<path d="M735.5 1333h531"></path>
<g class="terminal">
<path d="M454.5 1333h0"></path>
<path d="M644.5 1333h0"></path>
<rect x="454.5" y="1322" width="190" height="22" rx="10" ry="10"></rect>
<text x="549.5" y="1337">"DATASET EXPIRATION"</text>
</g>
<path d="M644.5 1333h10"></path>
<path d="M654.5 1333h10"></path>
<g class="non-terminal">
<path d="M664.5 1333h0"></path>
<path d="M735.5 1333h0"></path>
<rect x="664.5" y="1322" width="71" height="22"></rect>
<a xlink:href="#/abap/expression/Source"><text x="700" y="1337">Source</text>
</a>
</g>
</g>
<path d="M1266.5 1333a10 10 0 0 0 10 -10v-1275"></path>
<path d="M444.5 48v1305a10 10 0 0 0 10 10"></path>
<g class="terminal">
<path d="M454.5 1363h0"></path>
<path d="M593.5 1363h673"></path>
<rect x="454.5" y="1352" width="139" height="22" rx="10" ry="10"></rect>
<text x="524" y="1367">"TO SAP-SPOOL"</text>
</g>
<path d="M1266.5 1363a10 10 0 0 0 10 -10v-1305"></path>
<path d="M444.5 48v1335a10 10 0 0 0 10 10"></path>
<g class="terminal">
<path d="M454.5 1393h0"></path>
<path d="M661.5 1393h605"></path>
<rect x="454.5" y="1382" width="207" height="22" rx="10" ry="10"></rect>
<text x="558" y="1397">"WITHOUT SPOOL DYNPRO"</text>
</g>
<path d="M1266.5 1393a10 10 0 0 0 10 -10v-1335"></path>
<path d="M444.5 48v1365a10 10 0 0 0 10 10"></path>
<g class="terminal">
<path d="M454.5 1423h0"></path>
<path d="M661.5 1423h605"></path>
<rect x="454.5" y="1412" width="207" height="22" rx="10" ry="10"></rect>
<text x="558" y="1427">"VIA SELECTION-SCREEN"</text>
</g>
<path d="M1266.5 1423a10 10 0 0 0 10 -10v-1365"></path>
<path d="M444.5 48v1395a10 10 0 0 0 10 10"></path>
<g class="terminal">
<path d="M454.5 1453h0"></path>
<path d="M695.5 1453h571"></path>
<rect x="454.5" y="1442" width="241" height="22" rx="10" ry="10"></rect>
<text x="575" y="1457">"EXPORTING LIST TO MEMORY"</text>
</g>
<path d="M1266.5 1453a10 10 0 0 0 10 -10v-1395"></path>
<path d="M444.5 48v1425a10 10 0 0 0 10 10"></path>
<g class="non-terminal">
<path d="M454.5 1483h0"></path>
<path d="M551 1483h715.5"></path>
<rect x="454.5" y="1472" width="96.5" height="22"></rect>
<a xlink:href="#/abap/expression/AndReturn"><text x="502.75" y="1487">AndReturn</text>
</a>
</g>
<path d="M1266.5 1483a10 10 0 0 0 10 -10v-1425"></path>
<path d="M444.5 48v1455a10 10 0 0 0 10 10"></path>
<g>
<path d="M454.5 1513h0"></path>
<path d="M841 1513h425.5"></path>
<g class="terminal">
<path d="M454.5 1513h0"></path>
<path d="M551 1513h0"></path>
<rect x="454.5" y="1502" width="96.5" height="22" rx="10" ry="10"></rect>
<text x="502.75" y="1517">"VIA JOB"</text>
</g>
<path d="M551 1513h10"></path>
<path d="M561 1513h10"></path>
<g class="non-terminal">
<path d="M571 1513h0"></path>
<path d="M642 1513h0"></path>
<rect x="571" y="1502" width="71" height="22"></rect>
<a xlink:href="#/abap/expression/Source"><text x="606.5" y="1517">Source</text>
</a>
</g>
<path d="M642 1513h10"></path>
<path d="M652 1513h10"></path>
<g class="terminal">
<path d="M662 1513h0"></path>
<path d="M750 1513h0"></path>
<rect x="662" y="1502" width="88" height="22" rx="10" ry="10"></rect>
<text x="706" y="1517">"NUMBER"</text>
</g>
<path d="M750 1513h10"></path>
<path d="M760 1513h10"></path>
<g class="non-terminal">
<path d="M770 1513h0"></path>
<path d="M841 1513h0"></path>
<rect x="770" y="1502" width="71" height="22"></rect>
<a xlink:href="#/abap/expression/Source"><text x="805.5" y="1517">Source</text>
</a>
</g>
</g>
<path d="M1266.5 1513a10 10 0 0 0 10 -10v-1455"></path>
<g class="diagram-text">
<title>take one or more branches, once each, in any order</title>
<path d="M 444.5 38 h -26 a 4 4 0 0 0 -4 4 v 12 a 4 4 0 0 0 4 4 h 26 z" class="diagram-text"></path>
<text x="429.5" y="52" class="diagram-text">1+</text>
<path d="M 1276.5 38 h 16 a 4 4 0 0 1 4 4 v 12 a 4 4 0 0 1 -4 4 h -16 z" class="diagram-text"></path>
<path d="M 1283.5 46 a 4 4 0 1 0 6 -1 m 2.75 -1 h -4 v 4 m 0 -3 h 2" style="stroke-width: 1.75"></path>
</g>
</g>
<path d="M1296.5 48h20"></path>
</g>
</g>
</g>
<path d="M1316.5 48h10"></path>
<path d="M 1326.5 48 h 20 m -10 -10 v 20 m 10 -20 v 20"></path>
</g>
</svg>
