<svg xmlns="http://www.w3.org/2000/svg" xmlns:xlink="http://www.w3.org/1999/xlink" class="railroad-diagram" width="824" height="401" viewBox="0 0 824 401">
<defs>
<style type="text/css"><![CDATA[
path {
stroke-width: 3;
stroke: black;
fill: rgba(0,0,0,0);
}
text {
font: bold 14px monospace;
text-anchor: middle;
}
text.diagram-text {
font-size: 12px;
}
a {
fill: blue;
}
text.diagram-arrow {
font-size: 16px;
}
text.label {
text-anchor: start;
}
text.comment {
font: italic 12px monospace;
}
rect {
stroke-width: 3;
stroke: black;
fill: #BCBCBC;
}
path.diagram-text {
stroke-width: 3;
stroke: black;
fill: #BCBCBC;
cursor: help;
}
]]></style>
</defs>
<g transform="translate(.5 .5)">
<g>
<path d="M20 30v20m10 -20v20m-10 -10h20"></path>
</g>
<path d="M40 40h10"></path>
<g>
<path d="M50 40h0"></path>
<path d="M774 40h0"></path>
<g class="comment ">
<path d="M50 40h0"></path>
<path d="M123 40h0"></path>
<text x="86.5" y="45" class="comment">not Cloud</text>
</g>
<path d="M123 40h10"></path>
<path d="M133 40h10"></path>
<g>
<path d="M143 40h0"></path>
<path d="M774 40h0"></path>
<g class="terminal ">
<path d="M143 40h0"></path>
<path d="M307.5 40h0"></path>
<rect x="143" y="29" width="164.5" height="22" rx="10" ry="10"></rect>
<text x="225.25" y="44">"GENERATE REPORT"</text>
</g>
<path d="M307.5 40h10"></path>
<path d="M317.5 40h10"></path>
<g class="non-terminal ">
<path d="M327.5 40h0"></path>
<path d="M398.5 40h0"></path>
<rect x="327.5" y="29" width="71" height="22"></rect>
<a xlink:href="#/abap/expression/Source"><text x="363" y="44">Source</text>
</a>
</g>
<path d="M398.5 40h10"></path>
<g>
<path d="M408.5 40h0"></path>
<path d="M774 40h0"></path>
<path d="M408.5 40a10 10 0 0 0 10 -10v0a10 10 0 0 1 10 -10"></path>
<g>
<path d="M428.5 20h325.5"></path>
</g>
<path d="M754 20a10 10 0 0 1 10 10v0a10 10 0 0 0 10 10"></path>
<path d="M408.5 40h20"></path>
<g>
<path d="M428.5 40h0"></path>
<path d="M754 40h0"></path>
<path d="M458.5 40h10"></path>
<g class="terminal ">
<path d="M468.5 40h7.25"></path>
<path d="M716.75 40h7.25"></path>
<rect x="475.75" y="29" width="241" height="22" rx="10" ry="10"></rect>
<text x="596.25" y="44">"WITHOUT SELECTION-SCREEN"</text>
</g>
<path d="M724 40h10"></path>
<path d="M458.5 40v20a10 10 0 0 0 10 10"></path>
<g>
<path d="M468.5 70h34"></path>
<path d="M690 70h34"></path>
<g class="terminal ">
<path d="M502.5 70h0"></path>
<path d="M599 70h0"></path>
<rect x="502.5" y="59" width="96.5" height="22" rx="10" ry="10"></rect>
<text x="550.75" y="74">"MESSAGE"</text>
</g>
<path d="M599 70h10"></path>
<path d="M609 70h10"></path>
<g class="non-terminal ">
<path d="M619 70h0"></path>
<path d="M690 70h0"></path>
<rect x="619" y="59" width="71" height="22"></rect>
<a xlink:href="#/abap/expression/Target"><text x="654.5" y="74">Target</text>
</a>
</g>
</g>
<path d="M724 70a10 10 0 0 0 10 -10v-20"></path>
<path d="M458.5 40v50a10 10 0 0 0 10 10"></path>
<g>
<path d="M468.5 100h34"></path>
<path d="M690 100h34"></path>
<g class="terminal ">
<path d="M502.5 100h0"></path>
<path d="M599 100h0"></path>
<rect x="502.5" y="89" width="96.5" height="22" rx="10" ry="10"></rect>
<text x="550.75" y="104">"INCLUDE"</text>
</g>
<path d="M599 100h10"></path>
<path d="M609 100h10"></path>
<g class="non-terminal ">
<path d="M619 100h0"></path>
<path d="M690 100h0"></path>
<rect x="619" y="89" width="71" height="22"></rect>
<a xlink:href="#/abap/expression/Target"><text x="654.5" y="104">Target</text>
</a>
</g>
</g>
<path d="M724 100a10 10 0 0 0 10 -10v-50"></path>
<path d="M458.5 40v80a10 10 0 0 0 10 10"></path>
<g>
<path d="M468.5 130h21.25"></path>
<path d="M702.75 130h21.25"></path>
<g class="terminal ">
<path d="M489.75 130h0"></path>
<path d="M611.75 130h0"></path>
<rect x="489.75" y="119" width="122" height="22" rx="10" ry="10"></rect>
<text x="550.75" y="134">"TRACE-FILE"</text>
</g>
<path d="M611.75 130h10"></path>
<path d="M621.75 130h10"></path>
<g class="non-terminal ">
<path d="M631.75 130h0"></path>
<path d="M702.75 130h0"></path>
<rect x="631.75" y="119" width="71" height="22"></rect>
<a xlink:href="#/abap/expression/Target"><text x="667.25" y="134">Target</text>
</a>
</g>
</g>
<path d="M724 130a10 10 0 0 0 10 -10v-80"></path>
<path d="M458.5 40v110a10 10 0 0 0 10 10"></path>
<g>
<path d="M468.5 160h46.75"></path>
<path d="M677.25 160h46.75"></path>
<g class="terminal ">
<path d="M515.25 160h0"></path>
<path d="M586.25 160h0"></path>
<rect x="515.25" y="149" width="71" height="22" rx="10" ry="10"></rect>
<text x="550.75" y="164">"LINE"</text>
</g>
<path d="M586.25 160h10"></path>
<path d="M596.25 160h10"></path>
<g class="non-terminal ">
<path d="M606.25 160h0"></path>
<path d="M677.25 160h0"></path>
<rect x="606.25" y="149" width="71" height="22"></rect>
<a xlink:href="#/abap/expression/Target"><text x="641.75" y="164">Target</text>
</a>
</g>
</g>
<path d="M724 160a10 10 0 0 0 10 -10v-110"></path>
<path d="M458.5 40v140a10 10 0 0 0 10 10"></path>
<g>
<path d="M468.5 190h46.75"></path>
<path d="M677.25 190h46.75"></path>
<g class="terminal ">
<path d="M515.25 190h0"></path>
<path d="M586.25 190h0"></path>
<rect x="515.25" y="179" width="71" height="22" rx="10" ry="10"></rect>
<text x="550.75" y="194">"WORD"</text>
</g>
<path d="M586.25 190h10"></path>
<path d="M596.25 190h10"></path>
<g class="non-terminal ">
<path d="M606.25 190h0"></path>
<path d="M677.25 190h0"></path>
<rect x="606.25" y="179" width="71" height="22"></rect>
<a xlink:href="#/abap/expression/Target"><text x="641.75" y="194">Target</text>
</a>
</g>
</g>
<path d="M724 190a10 10 0 0 0 10 -10v-140"></path>
<path d="M458.5 40v170a10 10 0 0 0 10 10"></path>
<g>
<path d="M468.5 220h38.25"></path>
<path d="M685.75 220h38.25"></path>
<g class="terminal ">
<path d="M506.75 220h0"></path>
<path d="M594.75 220h0"></path>
<rect x="506.75" y="209" width="88" height="22" rx="10" ry="10"></rect>
<text x="550.75" y="224">"OFFSET"</text>
</g>
<path d="M594.75 220h10"></path>
<path d="M604.75 220h10"></path>
<g class="non-terminal ">
<path d="M614.75 220h0"></path>
<path d="M685.75 220h0"></path>
<rect x="614.75" y="209" width="71" height="22"></rect>
<a xlink:href="#/abap/expression/Target"><text x="650.25" y="224">Target</text>
</a>
</g>
</g>
<path d="M724 220a10 10 0 0 0 10 -10v-170"></path>
<path d="M458.5 40v200a10 10 0 0 0 10 10"></path>
<g class="terminal ">
<path d="M468.5 250h7.25"></path>
<path d="M716.75 250h7.25"></path>
<rect x="475.75" y="239" width="241" height="22" rx="10" ry="10"></rect>
<text x="596.25" y="254">"WITH PRECOMPILED HEADERS"</text>
</g>
<path d="M724 250a10 10 0 0 0 10 -10v-200"></path>
<path d="M458.5 40v230a10 10 0 0 0 10 10"></path>
<g class="terminal ">
<path d="M468.5 280h49.75"></path>
<path d="M674.25 280h49.75"></path>
<rect x="518.25" y="269" width="156" height="22" rx="10" ry="10"></rect>
<text x="596.25" y="284">"WITH TEST CODE"</text>
</g>
<path d="M724 280a10 10 0 0 0 10 -10v-230"></path>
<path d="M458.5 40v260a10 10 0 0 0 10 10"></path>
<g>
<path d="M468.5 310h21.25"></path>
<path d="M702.75 310h21.25"></path>
<g class="terminal ">
<path d="M489.75 310h0"></path>
<path d="M611.75 310h0"></path>
<rect x="489.75" y="299" width="122" height="22" rx="10" ry="10"></rect>
<text x="550.75" y="314">"MESSAGE-ID"</text>
</g>
<path d="M611.75 310h10"></path>
<path d="M621.75 310h10"></path>
<g class="non-terminal ">
<path d="M631.75 310h0"></path>
<path d="M702.75 310h0"></path>
<rect x="631.75" y="299" width="71" height="22"></rect>
<a xlink:href="#/abap/expression/Target"><text x="667.25" y="314">Target</text>
</a>
</g>
</g>
<path d="M724 310a10 10 0 0 0 10 -10v-260"></path>
<path d="M458.5 40v290a10 10 0 0 0 10 10"></path>
<g>
<path d="M468.5 340h12.75"></path>
<path d="M711.25 340h12.75"></path>
<g class="terminal ">
<path d="M481.25 340h0"></path>
<path d="M620.25 340h0"></path>
<rect x="481.25" y="329" width="139" height="22" rx="10" ry="10"></rect>
<text x="550.75" y="344">"SHORTDUMP-ID"</text>
</g>
<path d="M620.25 340h10"></path>
<path d="M630.25 340h10"></path>
<g class="non-terminal ">
<path d="M640.25 340h0"></path>
<path d="M711.25 340h0"></path>
<rect x="640.25" y="329" width="71" height="22"></rect>
<a xlink:href="#/abap/expression/Target"><text x="675.75" y="344">Target</text>
</a>
</g>
</g>
<path d="M724 340a10 10 0 0 0 10 -10v-290"></path>
<path d="M458.5 40v320a10 10 0 0 0 10 10"></path>
<g>
<path d="M468.5 370h0"></path>
<path d="M724 370h0"></path>
<g class="terminal ">
<path d="M468.5 370h0"></path>
<path d="M633 370h0"></path>
<rect x="468.5" y="359" width="164.5" height="22" rx="10" ry="10"></rect>
<text x="550.75" y="374">"DIRECTORY ENTRY"</text>
</g>
<path d="M633 370h10"></path>
<path d="M643 370h10"></path>
<g class="non-terminal ">
<path d="M653 370h0"></path>
<path d="M724 370h0"></path>
<rect x="653" y="359" width="71" height="22"></rect>
<a xlink:href="#/abap/expression/Target"><text x="688.5" y="374">Target</text>
</a>
</g>
</g>
<path d="M724 370a10 10 0 0 0 10 -10v-320"></path>
<g class="diagram-text">
<title>take one or more branches, once each, in any order</title>
<path d="M 458.5 30 h -26 a 4 4 0 0 0 -4 4 v 12 a 4 4 0 0 0 4 4 h 26 z" class="diagram-text"></path>
<text x="443.5" y="44" class="diagram-text">1+</text>
<path d="M 734 30 h 16 a 4 4 0 0 1 4 4 v 12 a 4 4 0 0 1 -4 4 h -16 z" class="diagram-text"></path>
<path d="M 741 38 a 4 4 0 1 0 6 -1 m 2.75 -1 h -4 v 4 m 0 -3 h 2" style="stroke-width: 1.75"></path>
</g>
</g>
<path d="M754 40h20"></path>
</g>
</g>
</g>
<path d="M774 40h10"></path>
<path d="M 784 40 h 20 m -10 -10 v 20 m 10 -20 v 20"></path>
</g>
</svg>
