<svg xmlns="http://www.w3.org/2000/svg" xmlns:xlink="http://www.w3.org/1999/xlink" class="railroad-diagram" width="747" height="260" viewBox="0 0 747 260">
<defs>
<style type="text/css"><![CDATA[
path {
stroke-width: 3;
stroke: black;
fill: rgba(0,0,0,0);
}
text {
font: bold 14px monospace;
text-anchor: middle;
}
text.diagram-text {
font-size: 12px;
}
a {
fill: blue;
}
text.diagram-arrow {
font-size: 16px;
}
text.label {
text-anchor: start;
}
text.comment {
font: italic 12px monospace;
}
rect {
stroke-width: 3;
stroke: black;
fill: #BCBCBC;
}
path.diagram-text {
stroke-width: 3;
stroke: black;
fill: #BCBCBC;
cursor: help;
}
]]></style>
</defs>
<g transform="translate(.5 .5)">
<g>
<path d="M20 30v20m10 -20v20m-10 -10h20"></path>
</g>
<path d="M40 40h10"></path>
<g>
<path d="M50 40h0"></path>
<path d="M697 40h0"></path>
<g class="terminal ">
<path d="M50 40h0"></path>
<path d="M104 40h0"></path>
<rect x="50" y="29" width="54" height="22" rx="10" ry="10"></rect>
<text x="77" y="44">"AT"</text>
</g>
<path d="M104 40h10"></path>
<g>
<path d="M114 40h0"></path>
<path d="M697 40h0"></path>
<path d="M114 40h20"></path>
<g>
<path d="M134 40h12.75"></path>
<path d="M664.25 40h12.75"></path>
<g class="terminal ">
<path d="M146.75 40h0"></path>
<path d="M209.25 40h0"></path>
<rect x="146.75" y="29" width="62.5" height="22" rx="10" ry="10"></rect>
<text x="178" y="44">"NEW"</text>
</g>
<path d="M209.25 40h10"></path>
<g>
<path d="M219.25 40h0"></path>
<path d="M664.25 40h0"></path>
<path d="M219.25 40h20"></path>
<g>
<path d="M239.25 40h0"></path>
<path d="M644.25 40h0"></path>
<g class="non-terminal ">
<path d="M239.25 40h0"></path>
<path d="M327.25 40h0"></path>
<rect x="239.25" y="29" width="88" height="22"></rect>
<a xlink:href="#/abap/expression/FieldSub"><text x="283.25" y="44">FieldSub</text>
</a>
</g>
<path d="M327.25 40h10"></path>
<g>
<path d="M337.25 40h0"></path>
<path d="M490.75 40h0"></path>
<path d="M337.25 40a10 10 0 0 0 10 -10v0a10 10 0 0 1 10 -10"></path>
<g>
<path d="M357.25 20h113.5"></path>
</g>
<path d="M470.75 20a10 10 0 0 1 10 10v0a10 10 0 0 0 10 10"></path>
<path d="M337.25 40h20"></path>
<g class="non-terminal ">
<path d="M357.25 40h0"></path>
<path d="M470.75 40h0"></path>
<rect x="357.25" y="29" width="113.5" height="22"></rect>
<a xlink:href="#/abap/expression/FieldOffset"><text x="414" y="44">FieldOffset</text>
</a>
</g>
<path d="M470.75 40h20"></path>
</g>
<g>
<path d="M490.75 40h0"></path>
<path d="M644.25 40h0"></path>
<path d="M490.75 40a10 10 0 0 0 10 -10v0a10 10 0 0 1 10 -10"></path>
<g>
<path d="M510.75 20h113.5"></path>
</g>
<path d="M624.25 20a10 10 0 0 1 10 10v0a10 10 0 0 0 10 10"></path>
<path d="M490.75 40h20"></path>
<g class="non-terminal ">
<path d="M510.75 40h0"></path>
<path d="M624.25 40h0"></path>
<rect x="510.75" y="29" width="113.5" height="22"></rect>
<a xlink:href="#/abap/expression/FieldLength"><text x="567.5" y="44">FieldLength</text>
</a>
</g>
<path d="M624.25 40h20"></path>
</g>
</g>
<path d="M644.25 40h20"></path>
<path d="M219.25 40a10 10 0 0 1 10 10v10a10 10 0 0 0 10 10"></path>
<g class="non-terminal ">
<path d="M239.25 70h162.75"></path>
<path d="M481.5 70h162.75"></path>
<rect x="402" y="59" width="79.5" height="22"></rect>
<a xlink:href="#/abap/expression/Dynamic"><text x="441.75" y="74">Dynamic</text>
</a>
</g>
<path d="M644.25 70a10 10 0 0 0 10 -10v-10a10 10 0 0 1 10 -10"></path>
<path d="M219.25 40a10 10 0 0 1 10 10v40a10 10 0 0 0 10 10"></path>
<g class="non-terminal ">
<path d="M239.25 100h120.25"></path>
<path d="M524 100h120.25"></path>
<rect x="359.5" y="89" width="164.5" height="22"></rect>
<a xlink:href="#/abap/expression/SourceFieldSymbol"><text x="441.75" y="104">SourceFieldSymbol</text>
</a>
</g>
<path d="M644.25 100a10 10 0 0 0 10 -10v-40a10 10 0 0 1 10 -10"></path>
</g>
</g>
<path d="M677 40h20"></path>
<path d="M114 40a10 10 0 0 1 10 10v79a10 10 0 0 0 10 10"></path>
<g>
<path d="M134 139h0"></path>
<path d="M677 139h0"></path>
<g class="terminal ">
<path d="M134 139h0"></path>
<path d="M222 139h0"></path>
<rect x="134" y="128" width="88" height="22" rx="10" ry="10"></rect>
<text x="178" y="143">"END OF"</text>
</g>
<path d="M222 139h10"></path>
<g>
<path d="M232 139h0"></path>
<path d="M677 139h0"></path>
<path d="M232 139h20"></path>
<g>
<path d="M252 139h0"></path>
<path d="M657 139h0"></path>
<g class="non-terminal ">
<path d="M252 139h0"></path>
<path d="M340 139h0"></path>
<rect x="252" y="128" width="88" height="22"></rect>
<a xlink:href="#/abap/expression/FieldSub"><text x="296" y="143">FieldSub</text>
</a>
</g>
<path d="M340 139h10"></path>
<g>
<path d="M350 139h0"></path>
<path d="M503.5 139h0"></path>
<path d="M350 139a10 10 0 0 0 10 -10v0a10 10 0 0 1 10 -10"></path>
<g>
<path d="M370 119h113.5"></path>
</g>
<path d="M483.5 119a10 10 0 0 1 10 10v0a10 10 0 0 0 10 10"></path>
<path d="M350 139h20"></path>
<g class="non-terminal ">
<path d="M370 139h0"></path>
<path d="M483.5 139h0"></path>
<rect x="370" y="128" width="113.5" height="22"></rect>
<a xlink:href="#/abap/expression/FieldOffset"><text x="426.75" y="143">FieldOffset</text>
</a>
</g>
<path d="M483.5 139h20"></path>
</g>
<g>
<path d="M503.5 139h0"></path>
<path d="M657 139h0"></path>
<path d="M503.5 139a10 10 0 0 0 10 -10v0a10 10 0 0 1 10 -10"></path>
<g>
<path d="M523.5 119h113.5"></path>
</g>
<path d="M637 119a10 10 0 0 1 10 10v0a10 10 0 0 0 10 10"></path>
<path d="M503.5 139h20"></path>
<g class="non-terminal ">
<path d="M523.5 139h0"></path>
<path d="M637 139h0"></path>
<rect x="523.5" y="128" width="113.5" height="22"></rect>
<a xlink:href="#/abap/expression/FieldLength"><text x="580.25" y="143">FieldLength</text>
</a>
</g>
<path d="M637 139h20"></path>
</g>
</g>
<path d="M657 139h20"></path>
<path d="M232 139a10 10 0 0 1 10 10v10a10 10 0 0 0 10 10"></path>
<g class="non-terminal ">
<path d="M252 169h162.75"></path>
<path d="M494.25 169h162.75"></path>
<rect x="414.75" y="158" width="79.5" height="22"></rect>
<a xlink:href="#/abap/expression/Dynamic"><text x="454.5" y="173">Dynamic</text>
</a>
</g>
<path d="M657 169a10 10 0 0 0 10 -10v-10a10 10 0 0 1 10 -10"></path>
<path d="M232 139a10 10 0 0 1 10 10v40a10 10 0 0 0 10 10"></path>
<g class="non-terminal ">
<path d="M252 199h120.25"></path>
<path d="M536.75 199h120.25"></path>
<rect x="372.25" y="188" width="164.5" height="22"></rect>
<a xlink:href="#/abap/expression/SourceFieldSymbol"><text x="454.5" y="203">SourceFieldSymbol</text>
</a>
</g>
<path d="M657 199a10 10 0 0 0 10 -10v-40a10 10 0 0 1 10 -10"></path>
</g>
</g>
<path d="M677 139a10 10 0 0 0 10 -10v-79a10 10 0 0 1 10 -10"></path>
<path d="M114 40a10 10 0 0 1 10 10v169a10 10 0 0 0 10 10"></path>
<g class="terminal ">
<path d="M134 229h227.5"></path>
<path d="M449.5 229h227.5"></path>
<rect x="361.5" y="218" width="88" height="22" rx="10" ry="10"></rect>
<text x="405.5" y="233">^&#91;%\w&#93;+$</text>
</g>
<path d="M677 229a10 10 0 0 0 10 -10v-169a10 10 0 0 1 10 -10"></path>
</g>
</g>
<path d="M697 40h10"></path>
<path d="M 707 40 h 20 m -10 -10 v 20 m 10 -20 v 20"></path>
</g>
</svg>
