<svg xmlns="http://www.w3.org/2000/svg" xmlns:xlink="http://www.w3.org/1999/xlink" class="railroad-diagram" width="989" height="452" viewBox="0 0 989 452">
<defs>
<style type="text/css"><![CDATA[
path {
stroke-width: 3;
stroke: black;
fill: rgba(0,0,0,0);
}
text {
font: bold 14px monospace;
text-anchor: middle;
}
text.diagram-text {
font-size: 12px;
}
a {
fill: blue;
}
text.diagram-arrow {
font-size: 16px;
}
text.label {
text-anchor: start;
}
text.comment {
font: italic 12px monospace;
}
rect {
stroke-width: 3;
stroke: black;
fill: #BCBCBC;
}
path.diagram-text {
stroke-width: 3;
stroke: black;
fill: #BCBCBC;
cursor: help;
}
]]></style>
</defs>
<g transform="translate(.5 .5)">
<g>
<path d="M20 21v20m10 -20v20m-10 -10h20"></path>
</g>
<path d="M40 31h10"></path>
<g>
<path d="M50 31h0"></path>
<path d="M939 31h0"></path>
<g class="terminal ">
<path d="M50 31h0"></path>
<path d="M146.5 31h0"></path>
<rect x="50" y="20" width="96.5" height="22" rx="10" ry="10"></rect>
<text x="98.25" y="35">"CONVERT"</text>
</g>
<path d="M146.5 31h10"></path>
<g>
<path d="M156.5 31h0"></path>
<path d="M939 31h0"></path>
<path d="M156.5 31h20"></path>
<g>
<path d="M176.5 31h58.25"></path>
<path d="M860.75 31h58.25"></path>
<g class="terminal ">
<path d="M234.75 31h0"></path>
<path d="M356.75 31h0"></path>
<rect x="234.75" y="20" width="122" height="22" rx="10" ry="10"></rect>
<text x="295.75" y="35">"TIME STAMP"</text>
</g>
<path d="M356.75 31h10"></path>
<path d="M366.75 31h10"></path>
<g class="non-terminal ">
<path d="M376.75 31h0"></path>
<path d="M447.75 31h0"></path>
<rect x="376.75" y="20" width="71" height="22"></rect>
<a xlink:href="#/abap/expression/Source"><text x="412.25" y="35">Source</text>
</a>
</g>
<path d="M447.75 31h10"></path>
<path d="M457.75 31h10"></path>
<g>
<path d="M467.75 31h0"></path>
<path d="M860.75 31h0"></path>
<path d="M497.75 31h10"></path>
<g>
<path d="M507.75 31h59.25"></path>
<path d="M771.5 31h59.25"></path>
<g class="terminal ">
<path d="M567 31h0"></path>
<path d="M680.5 31h0"></path>
<rect x="567" y="20" width="113.5" height="22" rx="10" ry="10"></rect>
<text x="623.75" y="35">"TIME ZONE"</text>
</g>
<path d="M680.5 31h10"></path>
<path d="M690.5 31h10"></path>
<g class="non-terminal ">
<path d="M700.5 31h0"></path>
<path d="M771.5 31h0"></path>
<rect x="700.5" y="20" width="71" height="22"></rect>
<a xlink:href="#/abap/expression/Source"><text x="736" y="35">Source</text>
</a>
</g>
</g>
<path d="M830.75 31h10"></path>
<path d="M497.75 31v20a10 10 0 0 0 10 10"></path>
<g>
<path d="M507.75 61h0"></path>
<path d="M830.75 61h0"></path>
<g class="terminal ">
<path d="M507.75 61h0"></path>
<path d="M578.75 61h0"></path>
<rect x="507.75" y="50" width="71" height="22" rx="10" ry="10"></rect>
<text x="543.25" y="65">"INTO"</text>
</g>
<path d="M578.75 61h10"></path>
<path d="M588.75 61h10"></path>
<g>
<path d="M598.75 61h0"></path>
<path d="M830.75 61h0"></path>
<path d="M628.75 61h10"></path>
<g>
<path d="M638.75 61h0"></path>
<path d="M800.75 61h0"></path>
<g class="terminal ">
<path d="M638.75 61h0"></path>
<path d="M709.75 61h0"></path>
<rect x="638.75" y="50" width="71" height="22" rx="10" ry="10"></rect>
<text x="674.25" y="65">"TIME"</text>
</g>
<path d="M709.75 61h10"></path>
<path d="M719.75 61h10"></path>
<g class="non-terminal ">
<path d="M729.75 61h0"></path>
<path d="M800.75 61h0"></path>
<rect x="729.75" y="50" width="71" height="22"></rect>
<a xlink:href="#/abap/expression/Target"><text x="765.25" y="65">Target</text>
</a>
</g>
</g>
<path d="M800.75 61h10"></path>
<path d="M628.75 61v20a10 10 0 0 0 10 10"></path>
<g>
<path d="M638.75 91h0"></path>
<path d="M800.75 91h0"></path>
<g class="terminal ">
<path d="M638.75 91h0"></path>
<path d="M709.75 91h0"></path>
<rect x="638.75" y="80" width="71" height="22" rx="10" ry="10"></rect>
<text x="674.25" y="95">"DATE"</text>
</g>
<path d="M709.75 91h10"></path>
<path d="M719.75 91h10"></path>
<g class="non-terminal ">
<path d="M729.75 91h0"></path>
<path d="M800.75 91h0"></path>
<rect x="729.75" y="80" width="71" height="22"></rect>
<a xlink:href="#/abap/expression/Target"><text x="765.25" y="95">Target</text>
</a>
</g>
</g>
<path d="M800.75 91a10 10 0 0 0 10 -10v-20"></path>
<g class="diagram-text">
<title>take one or more branches, once each, in any order</title>
<path d="M 628.75 51 h -26 a 4 4 0 0 0 -4 4 v 12 a 4 4 0 0 0 4 4 h 26 z" class="diagram-text"></path>
<text x="613.75" y="65" class="diagram-text">1+</text>
<path d="M 810.75 51 h 16 a 4 4 0 0 1 4 4 v 12 a 4 4 0 0 1 -4 4 h -16 z" class="diagram-text"></path>
<path d="M 817.75 59 a 4 4 0 1 0 6 -1 m 2.75 -1 h -4 v 4 m 0 -3 h 2" style="stroke-width: 1.75"></path>
</g>
</g>
</g>
<path d="M830.75 61a10 10 0 0 0 10 -10v-20"></path>
<path d="M497.75 31v80a10 10 0 0 0 10 10"></path>
<g>
<path d="M507.75 121h12.5"></path>
<path d="M818.25 121h12.5"></path>
<g class="terminal ">
<path d="M520.25 121h0"></path>
<path d="M727.25 121h0"></path>
<rect x="520.25" y="110" width="207" height="22" rx="10" ry="10"></rect>
<text x="623.75" y="125">"DAYLIGHT SAVING TIME"</text>
</g>
<path d="M727.25 121h10"></path>
<path d="M737.25 121h10"></path>
<g class="non-terminal ">
<path d="M747.25 121h0"></path>
<path d="M818.25 121h0"></path>
<rect x="747.25" y="110" width="71" height="22"></rect>
<a xlink:href="#/abap/expression/Target"><text x="782.75" y="125">Target</text>
</a>
</g>
</g>
<path d="M830.75 121a10 10 0 0 0 10 -10v-80"></path>
<g class="diagram-text">
<title>take one or more branches, once each, in any order</title>
<path d="M 497.75 21 h -26 a 4 4 0 0 0 -4 4 v 12 a 4 4 0 0 0 4 4 h 26 z" class="diagram-text"></path>
<text x="482.75" y="35" class="diagram-text">1+</text>
<path d="M 840.75 21 h 16 a 4 4 0 0 1 4 4 v 12 a 4 4 0 0 1 -4 4 h -16 z" class="diagram-text"></path>
<path d="M 847.75 29 a 4 4 0 1 0 6 -1 m 2.75 -1 h -4 v 4 m 0 -3 h 2" style="stroke-width: 1.75"></path>
</g>
</g>
</g>
<path d="M919 31h20"></path>
<path d="M156.5 31a10 10 0 0 1 10 10v100a10 10 0 0 0 10 10"></path>
<g>
<path d="M176.5 151h61.25"></path>
<path d="M857.75 151h61.25"></path>
<g>
<path d="M237.75 151h0"></path>
<path d="M469.75 151h0"></path>
<path d="M267.75 151h10"></path>
<g>
<path d="M277.75 151h0"></path>
<path d="M439.75 151h0"></path>
<g class="terminal ">
<path d="M277.75 151h0"></path>
<path d="M348.75 151h0"></path>
<rect x="277.75" y="140" width="71" height="22" rx="10" ry="10"></rect>
<text x="313.25" y="155">"DATE"</text>
</g>
<path d="M348.75 151h10"></path>
<path d="M358.75 151h10"></path>
<g class="non-terminal ">
<path d="M368.75 151h0"></path>
<path d="M439.75 151h0"></path>
<rect x="368.75" y="140" width="71" height="22"></rect>
<a xlink:href="#/abap/expression/Source"><text x="404.25" y="155">Source</text>
</a>
</g>
</g>
<path d="M439.75 151h10"></path>
<path d="M267.75 151v20a10 10 0 0 0 10 10"></path>
<g>
<path d="M277.75 181h0"></path>
<path d="M439.75 181h0"></path>
<g class="terminal ">
<path d="M277.75 181h0"></path>
<path d="M348.75 181h0"></path>
<rect x="277.75" y="170" width="71" height="22" rx="10" ry="10"></rect>
<text x="313.25" y="185">"TIME"</text>
</g>
<path d="M348.75 181h10"></path>
<path d="M358.75 181h10"></path>
<g class="non-terminal ">
<path d="M368.75 181h0"></path>
<path d="M439.75 181h0"></path>
<rect x="368.75" y="170" width="71" height="22"></rect>
<a xlink:href="#/abap/expression/Source"><text x="404.25" y="185">Source</text>
</a>
</g>
</g>
<path d="M439.75 181a10 10 0 0 0 10 -10v-20"></path>
<g class="diagram-text">
<title>take one or more branches, once each, in any order</title>
<path d="M 267.75 141 h -26 a 4 4 0 0 0 -4 4 v 12 a 4 4 0 0 0 4 4 h 26 z" class="diagram-text"></path>
<text x="252.75" y="155" class="diagram-text">1+</text>
<path d="M 449.75 141 h 16 a 4 4 0 0 1 4 4 v 12 a 4 4 0 0 1 -4 4 h -16 z" class="diagram-text"></path>
<path d="M 456.75 149 a 4 4 0 1 0 6 -1 m 2.75 -1 h -4 v 4 m 0 -3 h 2" style="stroke-width: 1.75"></path>
</g>
</g>
<path d="M469.75 151h10"></path>
<path d="M479.75 151h10"></path>
<g>
<path d="M489.75 151h0"></path>
<path d="M857.75 151h0"></path>
<path d="M519.75 151h10"></path>
<g>
<path d="M529.75 151h0"></path>
<path d="M827.75 151h0"></path>
<g class="terminal ">
<path d="M529.75 151h0"></path>
<path d="M736.75 151h0"></path>
<rect x="529.75" y="140" width="207" height="22" rx="10" ry="10"></rect>
<text x="633.25" y="155">"DAYLIGHT SAVING TIME"</text>
</g>
<path d="M736.75 151h10"></path>
<path d="M746.75 151h10"></path>
<g class="non-terminal ">
<path d="M756.75 151h0"></path>
<path d="M827.75 151h0"></path>
<rect x="756.75" y="140" width="71" height="22"></rect>
<a xlink:href="#/abap/expression/Source"><text x="792.25" y="155">Source</text>
</a>
</g>
</g>
<path d="M827.75 151h10"></path>
<path d="M519.75 151v20a10 10 0 0 0 10 10"></path>
<g>
<path d="M529.75 181h21.25"></path>
<path d="M806.5 181h21.25"></path>
<g class="terminal ">
<path d="M551 181h0"></path>
<path d="M715.5 181h0"></path>
<rect x="551" y="170" width="164.5" height="22" rx="10" ry="10"></rect>
<text x="633.25" y="185">"INTO TIME STAMP"</text>
</g>
<path d="M715.5 181h10"></path>
<path d="M725.5 181h10"></path>
<g class="non-terminal ">
<path d="M735.5 181h0"></path>
<path d="M806.5 181h0"></path>
<rect x="735.5" y="170" width="71" height="22"></rect>
<a xlink:href="#/abap/expression/Target"><text x="771" y="185">Target</text>
</a>
</g>
</g>
<path d="M827.75 181a10 10 0 0 0 10 -10v-20"></path>
<path d="M519.75 151v50a10 10 0 0 0 10 10"></path>
<g>
<path d="M529.75 211h46.75"></path>
<path d="M781 211h46.75"></path>
<g class="terminal ">
<path d="M576.5 211h0"></path>
<path d="M690 211h0"></path>
<rect x="576.5" y="200" width="113.5" height="22" rx="10" ry="10"></rect>
<text x="633.25" y="215">"TIME ZONE"</text>
</g>
<path d="M690 211h10"></path>
<path d="M700 211h10"></path>
<g class="non-terminal ">
<path d="M710 211h0"></path>
<path d="M781 211h0"></path>
<rect x="710" y="200" width="71" height="22"></rect>
<a xlink:href="#/abap/expression/Source"><text x="745.5" y="215">Source</text>
</a>
</g>
</g>
<path d="M827.75 211a10 10 0 0 0 10 -10v-50"></path>
<path d="M519.75 151v80a10 10 0 0 0 10 10"></path>
<g>
<path d="M529.75 241h8.5"></path>
<path d="M819.25 241h8.5"></path>
<g class="terminal ">
<path d="M538.25 241h0"></path>
<path d="M728.25 241h0"></path>
<rect x="538.25" y="230" width="190" height="22" rx="10" ry="10"></rect>
<text x="633.25" y="245">"INTO INVERTED-DATE"</text>
</g>
<path d="M728.25 241h10"></path>
<path d="M738.25 241h10"></path>
<g class="non-terminal ">
<path d="M748.25 241h0"></path>
<path d="M819.25 241h0"></path>
<rect x="748.25" y="230" width="71" height="22"></rect>
<a xlink:href="#/abap/expression/Target"><text x="783.75" y="245">Target</text>
</a>
</g>
</g>
<path d="M827.75 241a10 10 0 0 0 10 -10v-80"></path>
<path d="M519.75 151v110a10 10 0 0 0 10 10"></path>
<g>
<path d="M529.75 271h5"></path>
<path d="M822.75 271h5"></path>
<g class="comment ">
<path d="M534.75 271h0"></path>
<path d="M572.75 271h0"></path>
<text x="553.75" y="276" class="comment">7.77</text>
</g>
<path d="M572.75 271h10"></path>
<path d="M582.75 271h10"></path>
<g>
<path d="M592.75 271h0"></path>
<path d="M822.75 271h0"></path>
<g class="terminal ">
<path d="M592.75 271h0"></path>
<path d="M731.75 271h0"></path>
<rect x="592.75" y="260" width="139" height="22" rx="10" ry="10"></rect>
<text x="662.25" y="275">"INTO UTCLONG"</text>
</g>
<path d="M731.75 271h10"></path>
<path d="M741.75 271h10"></path>
<g class="non-terminal ">
<path d="M751.75 271h0"></path>
<path d="M822.75 271h0"></path>
<rect x="751.75" y="260" width="71" height="22"></rect>
<a xlink:href="#/abap/expression/Target"><text x="787.25" y="275">Target</text>
</a>
</g>
</g>
</g>
<path d="M827.75 271a10 10 0 0 0 10 -10v-110"></path>
<g class="diagram-text">
<title>take one or more branches, once each, in any order</title>
<path d="M 519.75 141 h -26 a 4 4 0 0 0 -4 4 v 12 a 4 4 0 0 0 4 4 h 26 z" class="diagram-text"></path>
<text x="504.75" y="155" class="diagram-text">1+</text>
<path d="M 837.75 141 h 16 a 4 4 0 0 1 4 4 v 12 a 4 4 0 0 1 -4 4 h -16 z" class="diagram-text"></path>
<path d="M 844.75 149 a 4 4 0 1 0 6 -1 m 2.75 -1 h -4 v 4 m 0 -3 h 2" style="stroke-width: 1.75"></path>
</g>
</g>
</g>
<path d="M919 151a10 10 0 0 0 10 -10v-100a10 10 0 0 1 10 -10"></path>
<path d="M156.5 31a10 10 0 0 1 10 10v250a10 10 0 0 0 10 10"></path>
<g>
<path d="M176.5 301h139.75"></path>
<path d="M779.25 301h139.75"></path>
<g class="terminal ">
<path d="M316.25 301h0"></path>
<path d="M463.75 301h0"></path>
<rect x="316.25" y="290" width="147.5" height="22" rx="10" ry="10"></rect>
<text x="390" y="305">"INVERTED-DATE"</text>
</g>
<path d="M463.75 301h10"></path>
<path d="M473.75 301h10"></path>
<g class="non-terminal ">
<path d="M483.75 301h0"></path>
<path d="M554.75 301h0"></path>
<rect x="483.75" y="290" width="71" height="22"></rect>
<a xlink:href="#/abap/expression/Source"><text x="519.25" y="305">Source</text>
</a>
</g>
<path d="M554.75 301h10"></path>
<path d="M564.75 301h10"></path>
<g class="terminal ">
<path d="M574.75 301h0"></path>
<path d="M688.25 301h0"></path>
<rect x="574.75" y="290" width="113.5" height="22" rx="10" ry="10"></rect>
<text x="631.5" y="305">"INTO DATE"</text>
</g>
<path d="M688.25 301h10"></path>
<path d="M698.25 301h10"></path>
<g class="non-terminal ">
<path d="M708.25 301h0"></path>
<path d="M779.25 301h0"></path>
<rect x="708.25" y="290" width="71" height="22"></rect>
<a xlink:href="#/abap/expression/Target"><text x="743.75" y="305">Target</text>
</a>
</g>
</g>
<path d="M919 301a10 10 0 0 0 10 -10v-250a10 10 0 0 1 10 -10"></path>
<path d="M156.5 31a10 10 0 0 1 10 10v280a10 10 0 0 0 10 10"></path>
<g>
<path d="M176.5 331h0"></path>
<path d="M919 331h0"></path>
<g class="comment ">
<path d="M176.5 331h0"></path>
<path d="M298.5 331h0"></path>
<text x="237.5" y="336" class="comment">7.77 or OpenABAP</text>
</g>
<path d="M298.5 331h10"></path>
<path d="M308.5 331h10"></path>
<g>
<path d="M318.5 331h0"></path>
<path d="M919 331h0"></path>
<g class="terminal ">
<path d="M318.5 331h0"></path>
<path d="M415 331h0"></path>
<rect x="318.5" y="320" width="96.5" height="22" rx="10" ry="10"></rect>
<text x="366.75" y="335">"UTCLONG"</text>
</g>
<path d="M415 331h10"></path>
<path d="M425 331h10"></path>
<g class="non-terminal ">
<path d="M435 331h0"></path>
<path d="M506 331h0"></path>
<rect x="435" y="320" width="71" height="22"></rect>
<a xlink:href="#/abap/expression/Source"><text x="470.5" y="335">Source</text>
</a>
</g>
<path d="M506 331h10"></path>
<path d="M516 331h10"></path>
<g>
<path d="M526 331h0"></path>
<path d="M919 331h0"></path>
<path d="M556 331h10"></path>
<g>
<path d="M566 331h59.25"></path>
<path d="M829.75 331h59.25"></path>
<g class="terminal ">
<path d="M625.25 331h0"></path>
<path d="M738.75 331h0"></path>
<rect x="625.25" y="320" width="113.5" height="22" rx="10" ry="10"></rect>
<text x="682" y="335">"TIME ZONE"</text>
</g>
<path d="M738.75 331h10"></path>
<path d="M748.75 331h10"></path>
<g class="non-terminal ">
<path d="M758.75 331h0"></path>
<path d="M829.75 331h0"></path>
<rect x="758.75" y="320" width="71" height="22"></rect>
<a xlink:href="#/abap/expression/Source"><text x="794.25" y="335">Source</text>
</a>
</g>
</g>
<path d="M889 331h10"></path>
<path d="M556 331v20a10 10 0 0 0 10 10"></path>
<g>
<path d="M566 361h0"></path>
<path d="M889 361h0"></path>
<g class="terminal ">
<path d="M566 361h0"></path>
<path d="M637 361h0"></path>
<rect x="566" y="350" width="71" height="22" rx="10" ry="10"></rect>
<text x="601.5" y="365">"INTO"</text>
</g>
<path d="M637 361h10"></path>
<path d="M647 361h10"></path>
<g>
<path d="M657 361h0"></path>
<path d="M889 361h0"></path>
<path d="M687 361h10"></path>
<g>
<path d="M697 361h0"></path>
<path d="M859 361h0"></path>
<g class="terminal ">
<path d="M697 361h0"></path>
<path d="M768 361h0"></path>
<rect x="697" y="350" width="71" height="22" rx="10" ry="10"></rect>
<text x="732.5" y="365">"TIME"</text>
</g>
<path d="M768 361h10"></path>
<path d="M778 361h10"></path>
<g class="non-terminal ">
<path d="M788 361h0"></path>
<path d="M859 361h0"></path>
<rect x="788" y="350" width="71" height="22"></rect>
<a xlink:href="#/abap/expression/Target"><text x="823.5" y="365">Target</text>
</a>
</g>
</g>
<path d="M859 361h10"></path>
<path d="M687 361v20a10 10 0 0 0 10 10"></path>
<g>
<path d="M697 391h0"></path>
<path d="M859 391h0"></path>
<g class="terminal ">
<path d="M697 391h0"></path>
<path d="M768 391h0"></path>
<rect x="697" y="380" width="71" height="22" rx="10" ry="10"></rect>
<text x="732.5" y="395">"DATE"</text>
</g>
<path d="M768 391h10"></path>
<path d="M778 391h10"></path>
<g class="non-terminal ">
<path d="M788 391h0"></path>
<path d="M859 391h0"></path>
<rect x="788" y="380" width="71" height="22"></rect>
<a xlink:href="#/abap/expression/Target"><text x="823.5" y="395">Target</text>
</a>
</g>
</g>
<path d="M859 391a10 10 0 0 0 10 -10v-20"></path>
<g class="diagram-text">
<title>take one or more branches, once each, in any order</title>
<path d="M 687 351 h -26 a 4 4 0 0 0 -4 4 v 12 a 4 4 0 0 0 4 4 h 26 z" class="diagram-text"></path>
<text x="672" y="365" class="diagram-text">1+</text>
<path d="M 869 351 h 16 a 4 4 0 0 1 4 4 v 12 a 4 4 0 0 1 -4 4 h -16 z" class="diagram-text"></path>
<path d="M 876 359 a 4 4 0 1 0 6 -1 m 2.75 -1 h -4 v 4 m 0 -3 h 2" style="stroke-width: 1.75"></path>
</g>
</g>
</g>
<path d="M889 361a10 10 0 0 0 10 -10v-20"></path>
<path d="M556 331v80a10 10 0 0 0 10 10"></path>
<g>
<path d="M566 421h12.5"></path>
<path d="M876.5 421h12.5"></path>
<g class="terminal ">
<path d="M578.5 421h0"></path>
<path d="M785.5 421h0"></path>
<rect x="578.5" y="410" width="207" height="22" rx="10" ry="10"></rect>
<text x="682" y="425">"DAYLIGHT SAVING TIME"</text>
</g>
<path d="M785.5 421h10"></path>
<path d="M795.5 421h10"></path>
<g class="non-terminal ">
<path d="M805.5 421h0"></path>
<path d="M876.5 421h0"></path>
<rect x="805.5" y="410" width="71" height="22"></rect>
<a xlink:href="#/abap/expression/Source"><text x="841" y="425">Source</text>
</a>
</g>
</g>
<path d="M889 421a10 10 0 0 0 10 -10v-80"></path>
<g class="diagram-text">
<title>take one or more branches, once each, in any order</title>
<path d="M 556 321 h -26 a 4 4 0 0 0 -4 4 v 12 a 4 4 0 0 0 4 4 h 26 z" class="diagram-text"></path>
<text x="541" y="335" class="diagram-text">1+</text>
<path d="M 899 321 h 16 a 4 4 0 0 1 4 4 v 12 a 4 4 0 0 1 -4 4 h -16 z" class="diagram-text"></path>
<path d="M 906 329 a 4 4 0 1 0 6 -1 m 2.75 -1 h -4 v 4 m 0 -3 h 2" style="stroke-width: 1.75"></path>
</g>
</g>
</g>
</g>
<path d="M919 331a10 10 0 0 0 10 -10v-280a10 10 0 0 1 10 -10"></path>
</g>
</g>
<path d="M939 31h10"></path>
<path d="M 949 31 h 20 m -10 -10 v 20 m 10 -20 v 20"></path>
</g>
</svg>
