<svg xmlns="http://www.w3.org/2000/svg" xmlns:xlink="http://www.w3.org/1999/xlink" class="railroad-diagram" width="1366.5" height="1077" viewBox="0 0 1366.5 1077">
<defs>
<style type="text/css"><![CDATA[
path {
stroke-width: 3;
stroke: black;
fill: rgba(0,0,0,0);
}
text {
font: bold 14px monospace;
text-anchor: middle;
}
text.diagram-text {
font-size: 12px;
}
a {
fill: blue;
}
text.diagram-arrow {
font-size: 16px;
}
text.label {
text-anchor: start;
}
text.comment {
font: italic 12px monospace;
}
rect {
stroke-width: 3;
stroke: black;
fill: #BCBCBC;
}
path.diagram-text {
stroke-width: 3;
stroke: black;
fill: #BCBCBC;
cursor: help;
}
]]></style>
</defs>
<g transform="translate(.5 .5)">
<g>
<path d="M20 38v20m10 -20v20m-10 -10h20"></path>
</g>
<path d="M40 48h10"></path>
<g>
<path d="M50 48h0"></path>
<path d="M1316.5 48h0"></path>
<g>
<path d="M50 48h0"></path>
<path d="M123 48h0"></path>
<text x="86.5" y="53" class="comment">not Cloud</text>
</g>
<path d="M123 48h10"></path>
<path d="M133 48h10"></path>
<g>
<path d="M143 48h0"></path>
<path d="M1316.5 48h0"></path>
<g class="terminal">
<path d="M143 48h0"></path>
<path d="M231 48h0"></path>
<rect x="143" y="37" width="88" height="22" rx="10" ry="10"></rect>
<text x="187" y="52">"SUBMIT"</text>
</g>
<path d="M231 48h10"></path>
<g>
<path d="M241 48h0"></path>
<path d="M394.5 48h0"></path>
<path d="M241 48h20"></path>
<g class="non-terminal">
<path d="M261 48h0"></path>
<path d="M374.5 48h0"></path>
<rect x="261" y="37" width="113.5" height="22"></rect>
<a xlink:href="#/abap/expression/IncludeName"><text x="317.75" y="52">IncludeName</text>
</a>
</g>
<path d="M374.5 48h20"></path>
<path d="M241 48a10 10 0 0 1 10 10v10a10 10 0 0 0 10 10"></path>
<g class="non-terminal">
<path d="M261 78h0"></path>
<path d="M340.5 78h34"></path>
<rect x="261" y="67" width="79.5" height="22"></rect>
<a xlink:href="#/abap/expression/Dynamic"><text x="300.75" y="82">Dynamic</text>
</a>
</g>
<path d="M374.5 78a10 10 0 0 0 10 -10v-10a10 10 0 0 1 10 -10"></path>
</g>
<g>
<path d="M394.5 48h0"></path>
<path d="M1316.5 48h0"></path>
<path d="M394.5 48a10 10 0 0 0 10 -10v-8a10 10 0 0 1 10 -10"></path>
<g>
<path d="M414.5 20h882"></path>
</g>
<path d="M1296.5 20a10 10 0 0 1 10 10v8a10 10 0 0 0 10 10"></path>
<path d="M394.5 48h20"></path>
<g>
<path d="M414.5 48h0"></path>
<path d="M1296.5 48h0"></path>
<path d="M444.5 48h10"></path>
<g>
<path d="M454.5 48h0"></path>
<path d="M1266.5 48h0"></path>
<path d="M454.5 48h10"></path>
<g>
<path d="M464.5 48h0"></path>
<path d="M1256.5 48h0"></path>
<g class="terminal">
<path d="M464.5 48h0"></path>
<path d="M535.5 48h0"></path>
<rect x="464.5" y="37" width="71" height="22" rx="10" ry="10"></rect>
<text x="500" y="52">"WITH"</text>
</g>
<path d="M535.5 48h10"></path>
<path d="M545.5 48h10"></path>
<g class="non-terminal">
<path d="M555.5 48h0"></path>
<path d="M643.5 48h0"></path>
<rect x="555.5" y="37" width="88" height="22"></rect>
<a xlink:href="#/abap/expression/FieldSub"><text x="599.5" y="52">FieldSub</text>
</a>
</g>
<path d="M643.5 48h10"></path>
<g>
<path d="M653.5 48h0"></path>
<path d="M1054.5 48h0"></path>
<path d="M653.5 48h20"></path>
<g>
<path d="M673.5 48h0"></path>
<path d="M865.5 48h169"></path>
<g>
<path d="M673.5 48h0"></path>
<path d="M784.5 48h0"></path>
<path d="M673.5 48h20"></path>
<g class="terminal">
<path d="M693.5 48h0"></path>
<path d="M739 48h25.5"></path>
<rect x="693.5" y="37" width="45.5" height="22" rx="10" ry="10"></rect>
<text x="716.25" y="52">"="</text>
</g>
<path d="M764.5 48h20"></path>
<path d="M673.5 48a10 10 0 0 1 10 10v10a10 10 0 0 0 10 10"></path>
<g class="terminal">
<path d="M693.5 78h0"></path>
<path d="M747.5 78h17"></path>
<rect x="693.5" y="67" width="54" height="22" rx="10" ry="10"></rect>
<text x="720.5" y="82">"EQ"</text>
</g>
<path d="M764.5 78a10 10 0 0 0 10 -10v-10a10 10 0 0 1 10 -10"></path>
<path d="M673.5 48a10 10 0 0 1 10 10v40a10 10 0 0 0 10 10"></path>
<g class="terminal">
<path d="M693.5 108h0"></path>
<path d="M747.5 108h17"></path>
<rect x="693.5" y="97" width="54" height="22" rx="10" ry="10"></rect>
<text x="720.5" y="112">"IN"</text>
</g>
<path d="M764.5 108a10 10 0 0 0 10 -10v-40a10 10 0 0 1 10 -10"></path>
<path d="M673.5 48a10 10 0 0 1 10 10v70a10 10 0 0 0 10 10"></path>
<g class="terminal">
<path d="M693.5 138h0"></path>
<path d="M747.5 138h17"></path>
<rect x="693.5" y="127" width="54" height="22" rx="10" ry="10"></rect>
<text x="720.5" y="142">"NE"</text>
</g>
<path d="M764.5 138a10 10 0 0 0 10 -10v-70a10 10 0 0 1 10 -10"></path>
<path d="M673.5 48a10 10 0 0 1 10 10v100a10 10 0 0 0 10 10"></path>
<g class="terminal">
<path d="M693.5 168h0"></path>
<path d="M747.5 168h17"></path>
<rect x="693.5" y="157" width="54" height="22" rx="10" ry="10"></rect>
<text x="720.5" y="172">"CP"</text>
</g>
<path d="M764.5 168a10 10 0 0 0 10 -10v-100a10 10 0 0 1 10 -10"></path>
<path d="M673.5 48a10 10 0 0 1 10 10v130a10 10 0 0 0 10 10"></path>
<g class="terminal">
<path d="M693.5 198h0"></path>
<path d="M747.5 198h17"></path>
<rect x="693.5" y="187" width="54" height="22" rx="10" ry="10"></rect>
<text x="720.5" y="202">"GE"</text>
</g>
<path d="M764.5 198a10 10 0 0 0 10 -10v-130a10 10 0 0 1 10 -10"></path>
<path d="M673.5 48a10 10 0 0 1 10 10v160a10 10 0 0 0 10 10"></path>
<g class="terminal">
<path d="M693.5 228h0"></path>
<path d="M747.5 228h17"></path>
<rect x="693.5" y="217" width="54" height="22" rx="10" ry="10"></rect>
<text x="720.5" y="232">"LE"</text>
</g>
<path d="M764.5 228a10 10 0 0 0 10 -10v-160a10 10 0 0 1 10 -10"></path>
<path d="M673.5 48a10 10 0 0 1 10 10v190a10 10 0 0 0 10 10"></path>
<g class="terminal">
<path d="M693.5 258h0"></path>
<path d="M764.5 258h0"></path>
<rect x="693.5" y="247" width="71" height="22" rx="10" ry="10"></rect>
<text x="729" y="262">"INCL"</text>
</g>
<path d="M764.5 258a10 10 0 0 0 10 -10v-190a10 10 0 0 1 10 -10"></path>
<path d="M673.5 48a10 10 0 0 1 10 10v220a10 10 0 0 0 10 10"></path>
<g class="terminal">
<path d="M693.5 288h0"></path>
<path d="M747.5 288h17"></path>
<rect x="693.5" y="277" width="54" height="22" rx="10" ry="10"></rect>
<text x="720.5" y="292">"GT"</text>
</g>
<path d="M764.5 288a10 10 0 0 0 10 -10v-220a10 10 0 0 1 10 -10"></path>
<path d="M673.5 48a10 10 0 0 1 10 10v250a10 10 0 0 0 10 10"></path>
<g class="terminal">
<path d="M693.5 318h0"></path>
<path d="M747.5 318h17"></path>
<rect x="693.5" y="307" width="54" height="22" rx="10" ry="10"></rect>
<text x="720.5" y="322">"LT"</text>
</g>
<path d="M764.5 318a10 10 0 0 0 10 -10v-250a10 10 0 0 1 10 -10"></path>
</g>
<path d="M784.5 48h10"></path>
<g class="non-terminal">
<path d="M794.5 48h0"></path>
<path d="M865.5 48h0"></path>
<rect x="794.5" y="37" width="71" height="22"></rect>
<a xlink:href="#/abap/expression/Source"><text x="830" y="52">Source</text>
</a>
</g>
</g>
<path d="M1034.5 48h20"></path>
<path d="M653.5 48a10 10 0 0 1 10 10v280a10 10 0 0 0 10 10"></path>
<g>
<path d="M673.5 348h0"></path>
<path d="M1034.5 348h0"></path>
<g class="terminal">
<path d="M673.5 348h0"></path>
<path d="M770 348h0"></path>
<rect x="673.5" y="337" width="96.5" height="22" rx="10" ry="10"></rect>
<text x="721.75" y="352">"BETWEEN"</text>
</g>
<path d="M770 348h10"></path>
<path d="M780 348h10"></path>
<g class="non-terminal">
<path d="M790 348h0"></path>
<path d="M861 348h0"></path>
<rect x="790" y="337" width="71" height="22"></rect>
<a xlink:href="#/abap/expression/Source"><text x="825.5" y="352">Source</text>
</a>
</g>
<path d="M861 348h10"></path>
<path d="M871 348h10"></path>
<g class="terminal">
<path d="M881 348h0"></path>
<path d="M943.5 348h0"></path>
<rect x="881" y="337" width="62.5" height="22" rx="10" ry="10"></rect>
<text x="912.25" y="352">"AND"</text>
</g>
<path d="M943.5 348h10"></path>
<path d="M953.5 348h10"></path>
<g class="non-terminal">
<path d="M963.5 348h0"></path>
<path d="M1034.5 348h0"></path>
<rect x="963.5" y="337" width="71" height="22"></rect>
<a xlink:href="#/abap/expression/Source"><text x="999" y="352">Source</text>
</a>
</g>
</g>
<path d="M1034.5 348a10 10 0 0 0 10 -10v-280a10 10 0 0 1 10 -10"></path>
</g>
<g>
<path d="M1054.5 48h0"></path>
<path d="M1256.5 48h0"></path>
<path d="M1054.5 48a10 10 0 0 0 10 -10v0a10 10 0 0 1 10 -10"></path>
<g>
<path d="M1074.5 28h162"></path>
</g>
<path d="M1236.5 28a10 10 0 0 1 10 10v0a10 10 0 0 0 10 10"></path>
<path d="M1054.5 48h20"></path>
<g>
<path d="M1074.5 48h0"></path>
<path d="M1236.5 48h0"></path>
<g class="terminal">
<path d="M1074.5 48h0"></path>
<path d="M1145.5 48h0"></path>
<rect x="1074.5" y="37" width="71" height="22" rx="10" ry="10"></rect>
<text x="1110" y="52">"SIGN"</text>
</g>
<path d="M1145.5 48h10"></path>
<path d="M1155.5 48h10"></path>
<g class="non-terminal">
<path d="M1165.5 48h0"></path>
<path d="M1236.5 48h0"></path>
<rect x="1165.5" y="37" width="71" height="22"></rect>
<a xlink:href="#/abap/expression/Source"><text x="1201" y="52">Source</text>
</a>
</g>
</g>
<path d="M1236.5 48h20"></path>
</g>
</g>
<path d="M1256.5 48h10"></path>
<path d="M464.5 48a10 10 0 0 0 -10 10v299a10 10 0 0 0 10 10"></path>
<g>
<path d="M464.5 367h792"></path>
</g>
<path d="M1256.5 367a10 10 0 0 0 10 -10v-299a10 10 0 0 0 -10 -10"></path>
</g>
<path d="M1266.5 48h10"></path>
<path d="M444.5 48v328a10 10 0 0 0 10 10"></path>
<g>
<path d="M454.5 386h0"></path>
<path d="M752.5 386h514"></path>
<g class="terminal">
<path d="M454.5 386h0"></path>
<path d="M661.5 386h0"></path>
<rect x="454.5" y="375" width="207" height="22" rx="10" ry="10"></rect>
<text x="558" y="390">"WITH SELECTION-TABLE"</text>
</g>
<path d="M661.5 386h10"></path>
<path d="M671.5 386h10"></path>
<g class="non-terminal">
<path d="M681.5 386h0"></path>
<path d="M752.5 386h0"></path>
<rect x="681.5" y="375" width="71" height="22"></rect>
<a xlink:href="#/abap/expression/Source"><text x="717" y="390">Source</text>
</a>
</g>
</g>
<path d="M1266.5 386a10 10 0 0 0 10 -10v-328"></path>
<path d="M444.5 48v358a10 10 0 0 0 10 10"></path>
<g>
<path d="M454.5 416h0"></path>
<path d="M718.5 416h548"></path>
<g class="terminal">
<path d="M454.5 416h0"></path>
<path d="M627.5 416h0"></path>
<rect x="454.5" y="405" width="173" height="22" rx="10" ry="10"></rect>
<text x="541" y="420">"SPOOL PARAMETERS"</text>
</g>
<path d="M627.5 416h10"></path>
<path d="M637.5 416h10"></path>
<g class="non-terminal">
<path d="M647.5 416h0"></path>
<path d="M718.5 416h0"></path>
<rect x="647.5" y="405" width="71" height="22"></rect>
<a xlink:href="#/abap/expression/Source"><text x="683" y="420">Source</text>
</a>
</g>
</g>
<path d="M1266.5 416a10 10 0 0 0 10 -10v-358"></path>
<path d="M444.5 48v388a10 10 0 0 0 10 10"></path>
<g>
<path d="M454.5 446h0"></path>
<path d="M659 446h607.5"></path>
<g class="terminal">
<path d="M454.5 446h0"></path>
<path d="M568 446h0"></path>
<rect x="454.5" y="435" width="113.5" height="22" rx="10" ry="10"></rect>
<text x="511.25" y="450">"LINE-SIZE"</text>
</g>
<path d="M568 446h10"></path>
<path d="M578 446h10"></path>
<g class="non-terminal">
<path d="M588 446h0"></path>
<path d="M659 446h0"></path>
<rect x="588" y="435" width="71" height="22"></rect>
<a xlink:href="#/abap/expression/Source"><text x="623.5" y="450">Source</text>
</a>
</g>
</g>
<path d="M1266.5 446a10 10 0 0 0 10 -10v-388"></path>
<path d="M444.5 48v418a10 10 0 0 0 10 10"></path>
<g>
<path d="M454.5 476h0"></path>
<path d="M667.5 476h599"></path>
<g class="terminal">
<path d="M454.5 476h0"></path>
<path d="M576.5 476h0"></path>
<rect x="454.5" y="465" width="122" height="22" rx="10" ry="10"></rect>
<text x="515.5" y="480">"LINE-COUNT"</text>
</g>
<path d="M576.5 476h10"></path>
<path d="M586.5 476h10"></path>
<g class="non-terminal">
<path d="M596.5 476h0"></path>
<path d="M667.5 476h0"></path>
<rect x="596.5" y="465" width="71" height="22"></rect>
<a xlink:href="#/abap/expression/Source"><text x="632" y="480">Source</text>
</a>
</g>
</g>
<path d="M1266.5 476a10 10 0 0 0 10 -10v-418"></path>
<path d="M444.5 48v448a10 10 0 0 0 10 10"></path>
<g>
<path d="M454.5 506h0"></path>
<path d="M735.5 506h531"></path>
<g class="terminal">
<path d="M454.5 506h0"></path>
<path d="M644.5 506h0"></path>
<rect x="454.5" y="495" width="190" height="22" rx="10" ry="10"></rect>
<text x="549.5" y="510">"ARCHIVE PARAMETERS"</text>
</g>
<path d="M644.5 506h10"></path>
<path d="M654.5 506h10"></path>
<g class="non-terminal">
<path d="M664.5 506h0"></path>
<path d="M735.5 506h0"></path>
<rect x="664.5" y="495" width="71" height="22"></rect>
<a xlink:href="#/abap/expression/Source"><text x="700" y="510">Source</text>
</a>
</g>
</g>
<path d="M1266.5 506a10 10 0 0 0 10 -10v-448"></path>
<path d="M444.5 48v478a10 10 0 0 0 10 10"></path>
<g>
<path d="M454.5 536h0"></path>
<path d="M616.5 536h650"></path>
<g class="terminal">
<path d="M454.5 536h0"></path>
<path d="M525.5 536h0"></path>
<rect x="454.5" y="525" width="71" height="22" rx="10" ry="10"></rect>
<text x="490" y="540">"USER"</text>
</g>
<path d="M525.5 536h10"></path>
<path d="M535.5 536h10"></path>
<g class="non-terminal">
<path d="M545.5 536h0"></path>
<path d="M616.5 536h0"></path>
<rect x="545.5" y="525" width="71" height="22"></rect>
<a xlink:href="#/abap/expression/Source"><text x="581" y="540">Source</text>
</a>
</g>
</g>
<path d="M1266.5 536a10 10 0 0 0 10 -10v-478"></path>
<path d="M444.5 48v508a10 10 0 0 0 10 10"></path>
<g>
<path d="M454.5 566h0"></path>
<path d="M744 566h522.5"></path>
<g class="terminal">
<path d="M454.5 566h0"></path>
<path d="M653 566h0"></path>
<rect x="454.5" y="555" width="198.5" height="22" rx="10" ry="10"></rect>
<text x="553.75" y="570">"USING SELECTION-SET"</text>
</g>
<path d="M653 566h10"></path>
<path d="M663 566h10"></path>
<g class="non-terminal">
<path d="M673 566h0"></path>
<path d="M744 566h0"></path>
<rect x="673" y="555" width="71" height="22"></rect>
<a xlink:href="#/abap/expression/Source"><text x="708.5" y="570">Source</text>
</a>
</g>
</g>
<path d="M1266.5 566a10 10 0 0 0 10 -10v-508"></path>
<path d="M444.5 48v538a10 10 0 0 0 10 10"></path>
<g>
<path d="M454.5 596h0"></path>
<path d="M846 596h420.5"></path>
<g class="terminal">
<path d="M454.5 596h0"></path>
<path d="M755 596h0"></path>
<rect x="454.5" y="585" width="300.5" height="22" rx="10" ry="10"></rect>
<text x="604.75" y="600">"USING SELECTION-SETS OF PROGRAM"</text>
</g>
<path d="M755 596h10"></path>
<path d="M765 596h10"></path>
<g class="non-terminal">
<path d="M775 596h0"></path>
<path d="M846 596h0"></path>
<rect x="775" y="585" width="71" height="22"></rect>
<a xlink:href="#/abap/expression/Source"><text x="810.5" y="600">Source</text>
</a>
</g>
</g>
<path d="M1266.5 596a10 10 0 0 0 10 -10v-538"></path>
<path d="M444.5 48v568a10 10 0 0 0 10 10"></path>
<g>
<path d="M454.5 626h0"></path>
<path d="M693 626h573.5"></path>
<g class="terminal">
<path d="M454.5 626h0"></path>
<path d="M602 626h0"></path>
<rect x="454.5" y="615" width="147.5" height="22" rx="10" ry="10"></rect>
<text x="528.25" y="630">"KEEP IN SPOOL"</text>
</g>
<path d="M602 626h10"></path>
<path d="M612 626h10"></path>
<g class="non-terminal">
<path d="M622 626h0"></path>
<path d="M693 626h0"></path>
<rect x="622" y="615" width="71" height="22"></rect>
<a xlink:href="#/abap/expression/Source"><text x="657.5" y="630">Source</text>
</a>
</g>
</g>
<path d="M1266.5 626a10 10 0 0 0 10 -10v-568"></path>
<path d="M444.5 48v598a10 10 0 0 0 10 10"></path>
<g>
<path d="M454.5 656h0"></path>
<path d="M701.5 656h565"></path>
<g class="terminal">
<path d="M454.5 656h0"></path>
<path d="M610.5 656h0"></path>
<rect x="454.5" y="645" width="156" height="22" rx="10" ry="10"></rect>
<text x="532.5" y="660">"SAP COVER PAGE"</text>
</g>
<path d="M610.5 656h10"></path>
<path d="M620.5 656h10"></path>
<g class="non-terminal">
<path d="M630.5 656h0"></path>
<path d="M701.5 656h0"></path>
<rect x="630.5" y="645" width="71" height="22"></rect>
<a xlink:href="#/abap/expression/Source"><text x="666" y="660">Source</text>
</a>
</g>
</g>
<path d="M1266.5 656a10 10 0 0 0 10 -10v-598"></path>
<path d="M444.5 48v628a10 10 0 0 0 10 10"></path>
<g>
<path d="M454.5 686h0"></path>
<path d="M676 686h590.5"></path>
<g class="terminal">
<path d="M454.5 686h0"></path>
<path d="M585 686h0"></path>
<rect x="454.5" y="675" width="130.5" height="22" rx="10" ry="10"></rect>
<text x="519.75" y="690">"IMMEDIATELY"</text>
</g>
<path d="M585 686h10"></path>
<path d="M595 686h10"></path>
<g class="non-terminal">
<path d="M605 686h0"></path>
<path d="M676 686h0"></path>
<rect x="605" y="675" width="71" height="22"></rect>
<a xlink:href="#/abap/expression/Source"><text x="640.5" y="690">Source</text>
</a>
</g>
</g>
<path d="M1266.5 686a10 10 0 0 0 10 -10v-628"></path>
<path d="M444.5 48v658a10 10 0 0 0 10 10"></path>
<g>
<path d="M454.5 716h0"></path>
<path d="M633.5 716h633"></path>
<g class="terminal">
<path d="M454.5 716h0"></path>
<path d="M542.5 716h0"></path>
<rect x="454.5" y="705" width="88" height="22" rx="10" ry="10"></rect>
<text x="498.5" y="720">"LAYOUT"</text>
</g>
<path d="M542.5 716h10"></path>
<path d="M552.5 716h10"></path>
<g class="non-terminal">
<path d="M562.5 716h0"></path>
<path d="M633.5 716h0"></path>
<rect x="562.5" y="705" width="71" height="22"></rect>
<a xlink:href="#/abap/expression/Source"><text x="598" y="720">Source</text>
</a>
</g>
</g>
<path d="M1266.5 716a10 10 0 0 0 10 -10v-658"></path>
<path d="M444.5 48v688a10 10 0 0 0 10 10"></path>
<g>
<path d="M454.5 746h0"></path>
<path d="M676 746h590.5"></path>
<g class="terminal">
<path d="M454.5 746h0"></path>
<path d="M585 746h0"></path>
<rect x="454.5" y="735" width="130.5" height="22" rx="10" ry="10"></rect>
<text x="519.75" y="750">"DESTINATION"</text>
</g>
<path d="M585 746h10"></path>
<path d="M595 746h10"></path>
<g class="non-terminal">
<path d="M605 746h0"></path>
<path d="M676 746h0"></path>
<rect x="605" y="735" width="71" height="22"></rect>
<a xlink:href="#/abap/expression/Source"><text x="640.5" y="750">Source</text>
</a>
</g>
</g>
<path d="M1266.5 746a10 10 0 0 0 10 -10v-688"></path>
<path d="M444.5 48v718a10 10 0 0 0 10 10"></path>
<g>
<path d="M454.5 776h0"></path>
<path d="M650.5 776h616"></path>
<g class="terminal">
<path d="M454.5 776h0"></path>
<path d="M559.5 776h0"></path>
<rect x="454.5" y="765" width="105" height="22" rx="10" ry="10"></rect>
<text x="507" y="780">"LANGUAGE"</text>
</g>
<path d="M559.5 776h10"></path>
<path d="M569.5 776h10"></path>
<g class="non-terminal">
<path d="M579.5 776h0"></path>
<path d="M650.5 776h0"></path>
<rect x="579.5" y="765" width="71" height="22"></rect>
<a xlink:href="#/abap/expression/Source"><text x="615" y="780">Source</text>
</a>
</g>
</g>
<path d="M1266.5 776a10 10 0 0 0 10 -10v-718"></path>
<path d="M444.5 48v748a10 10 0 0 0 10 10"></path>
<g>
<path d="M454.5 806h0"></path>
<path d="M752.5 806h514"></path>
<g class="terminal">
<path d="M454.5 806h0"></path>
<path d="M661.5 806h0"></path>
<rect x="454.5" y="795" width="207" height="22" rx="10" ry="10"></rect>
<text x="558" y="810">"WITH FREE SELECTIONS"</text>
</g>
<path d="M661.5 806h10"></path>
<path d="M671.5 806h10"></path>
<g class="non-terminal">
<path d="M681.5 806h0"></path>
<path d="M752.5 806h0"></path>
<rect x="681.5" y="795" width="71" height="22"></rect>
<a xlink:href="#/abap/expression/Source"><text x="717" y="810">Source</text>
</a>
</g>
</g>
<path d="M1266.5 806a10 10 0 0 0 10 -10v-748"></path>
<path d="M444.5 48v778a10 10 0 0 0 10 10"></path>
<g>
<path d="M454.5 836h0"></path>
<path d="M778 836h488.5"></path>
<g class="terminal">
<path d="M454.5 836h0"></path>
<path d="M687 836h0"></path>
<rect x="454.5" y="825" width="232.5" height="22" rx="10" ry="10"></rect>
<text x="570.75" y="840">"NEW LIST IDENTIFICATION"</text>
</g>
<path d="M687 836h10"></path>
<path d="M697 836h10"></path>
<g class="non-terminal">
<path d="M707 836h0"></path>
<path d="M778 836h0"></path>
<rect x="707" y="825" width="71" height="22"></rect>
<a xlink:href="#/abap/expression/Source"><text x="742.5" y="840">Source</text>
</a>
</g>
</g>
<path d="M1266.5 836a10 10 0 0 0 10 -10v-778"></path>
<path d="M444.5 48v808a10 10 0 0 0 10 10"></path>
<g>
<path d="M454.5 866h0"></path>
<path d="M769.5 866h497"></path>
<g class="terminal">
<path d="M454.5 866h0"></path>
<path d="M678.5 866h0"></path>
<rect x="454.5" y="855" width="224" height="22" rx="10" ry="10"></rect>
<text x="566.5" y="870">"USING SELECTION-SCREEN"</text>
</g>
<path d="M678.5 866h10"></path>
<path d="M688.5 866h10"></path>
<g class="non-terminal">
<path d="M698.5 866h0"></path>
<path d="M769.5 866h0"></path>
<rect x="698.5" y="855" width="71" height="22"></rect>
<a xlink:href="#/abap/expression/Source"><text x="734" y="870">Source</text>
</a>
</g>
</g>
<path d="M1266.5 866a10 10 0 0 0 10 -10v-808"></path>
<path d="M444.5 48v838a10 10 0 0 0 10 10"></path>
<g class="terminal">
<path d="M454.5 896h0"></path>
<path d="M593.5 896h673"></path>
<rect x="454.5" y="885" width="139" height="22" rx="10" ry="10"></rect>
<text x="524" y="900">"TO SAP-SPOOL"</text>
</g>
<path d="M1266.5 896a10 10 0 0 0 10 -10v-838"></path>
<path d="M444.5 48v868a10 10 0 0 0 10 10"></path>
<g class="terminal">
<path d="M454.5 926h0"></path>
<path d="M661.5 926h605"></path>
<rect x="454.5" y="915" width="207" height="22" rx="10" ry="10"></rect>
<text x="558" y="930">"WITHOUT SPOOL DYNPRO"</text>
</g>
<path d="M1266.5 926a10 10 0 0 0 10 -10v-868"></path>
<path d="M444.5 48v898a10 10 0 0 0 10 10"></path>
<g class="terminal">
<path d="M454.5 956h0"></path>
<path d="M661.5 956h605"></path>
<rect x="454.5" y="945" width="207" height="22" rx="10" ry="10"></rect>
<text x="558" y="960">"VIA SELECTION-SCREEN"</text>
</g>
<path d="M1266.5 956a10 10 0 0 0 10 -10v-898"></path>
<path d="M444.5 48v928a10 10 0 0 0 10 10"></path>
<g class="terminal">
<path d="M454.5 986h0"></path>
<path d="M695.5 986h571"></path>
<rect x="454.5" y="975" width="241" height="22" rx="10" ry="10"></rect>
<text x="575" y="990">"EXPORTING LIST TO MEMORY"</text>
</g>
<path d="M1266.5 986a10 10 0 0 0 10 -10v-928"></path>
<path d="M444.5 48v958a10 10 0 0 0 10 10"></path>
<g class="non-terminal">
<path d="M454.5 1016h0"></path>
<path d="M551 1016h715.5"></path>
<rect x="454.5" y="1005" width="96.5" height="22"></rect>
<a xlink:href="#/abap/expression/AndReturn"><text x="502.75" y="1020">AndReturn</text>
</a>
</g>
<path d="M1266.5 1016a10 10 0 0 0 10 -10v-958"></path>
<path d="M444.5 48v988a10 10 0 0 0 10 10"></path>
<g>
<path d="M454.5 1046h0"></path>
<path d="M841 1046h425.5"></path>
<g class="terminal">
<path d="M454.5 1046h0"></path>
<path d="M551 1046h0"></path>
<rect x="454.5" y="1035" width="96.5" height="22" rx="10" ry="10"></rect>
<text x="502.75" y="1050">"VIA JOB"</text>
</g>
<path d="M551 1046h10"></path>
<path d="M561 1046h10"></path>
<g class="non-terminal">
<path d="M571 1046h0"></path>
<path d="M642 1046h0"></path>
<rect x="571" y="1035" width="71" height="22"></rect>
<a xlink:href="#/abap/expression/Source"><text x="606.5" y="1050">Source</text>
</a>
</g>
<path d="M642 1046h10"></path>
<path d="M652 1046h10"></path>
<g class="terminal">
<path d="M662 1046h0"></path>
<path d="M750 1046h0"></path>
<rect x="662" y="1035" width="88" height="22" rx="10" ry="10"></rect>
<text x="706" y="1050">"NUMBER"</text>
</g>
<path d="M750 1046h10"></path>
<path d="M760 1046h10"></path>
<g class="non-terminal">
<path d="M770 1046h0"></path>
<path d="M841 1046h0"></path>
<rect x="770" y="1035" width="71" height="22"></rect>
<a xlink:href="#/abap/expression/Source"><text x="805.5" y="1050">Source</text>
</a>
</g>
</g>
<path d="M1266.5 1046a10 10 0 0 0 10 -10v-988"></path>
<g class="diagram-text">
<title>take one or more branches, once each, in any order</title>
<path d="M 444.5 38 h -26 a 4 4 0 0 0 -4 4 v 12 a 4 4 0 0 0 4 4 h 26 z" class="diagram-text"></path>
<text x="429.5" y="52" class="diagram-text">1+</text>
<path d="M 1276.5 38 h 16 a 4 4 0 0 1 4 4 v 12 a 4 4 0 0 1 -4 4 h -16 z" class="diagram-text"></path>
<path d="M 1283.5 46 a 4 4 0 1 0 6 -1 m 2.75 -1 h -4 v 4 m 0 -3 h 2" style="stroke-width: 1.75"></path>
</g>
</g>
<path d="M1296.5 48h20"></path>
</g>
</g>
</g>
<path d="M1316.5 48h10"></path>
<path d="M 1326.5 48 h 20 m -10 -10 v 20 m 10 -20 v 20"></path>
</g>
</svg>
