<svg xmlns="http://www.w3.org/2000/svg" xmlns:xlink="http://www.w3.org/1999/xlink" class="railroad-diagram" width="1055.5" height="71" viewBox="0 0 1055.5 71">
<defs>
<style type="text/css"><![CDATA[
path {
stroke-width: 3;
stroke: black;
fill: rgba(0,0,0,0);
}
text {
font: bold 14px monospace;
text-anchor: middle;
}
text.diagram-text {
font-size: 12px;
}
a {
fill: blue;
}
text.diagram-arrow {
font-size: 16px;
}
text.label {
text-anchor: start;
}
text.comment {
font: italic 12px monospace;
}
rect {
stroke-width: 3;
stroke: black;
fill: #BCBCBC;
}
path.diagram-text {
stroke-width: 3;
stroke: black;
fill: #BCBCBC;
cursor: help;
}
]]></style>
</defs>
<g transform="translate(.5 .5)">
<g>
<path d="M20 30v20m10 -20v20m-10 -10h20"></path>
</g>
<path d="M40 40h10"></path>
<g>
<path d="M50 40h0"></path>
<path d="M1005.5 40h0"></path>
<g>
<path d="M50 40h0"></path>
<path d="M123 40h0"></path>
<text x="86.5" y="45" class="comment">not Cloud</text>
</g>
<path d="M123 40h10"></path>
<path d="M133 40h10"></path>
<g>
<path d="M143 40h0"></path>
<path d="M1005.5 40h0"></path>
<g class="terminal">
<path d="M143 40h0"></path>
<path d="M231 40h0"></path>
<rect x="143" y="29" width="88" height="22" rx="10" ry="10"></rect>
<text x="187" y="44">"RANGES"</text>
</g>
<path d="M231 40h10"></path>
<path d="M241 40h10"></path>
<g class="non-terminal">
<path d="M251 40h0"></path>
<path d="M356 40h0"></path>
<rect x="251" y="29" width="105" height="22"></rect>
<a xlink:href="#/abap/expression/SimpleName"><text x="303.5" y="44">SimpleName</text>
</a>
</g>
<path d="M356 40h10"></path>
<path d="M366 40h10"></path>
<g class="terminal">
<path d="M376 40h0"></path>
<path d="M438.5 40h0"></path>
<rect x="376" y="29" width="62.5" height="22" rx="10" ry="10"></rect>
<text x="407.25" y="44">"FOR"</text>
</g>
<path d="M438.5 40h10"></path>
<path d="M448.5 40h10"></path>
<g class="non-terminal">
<path d="M458.5 40h0"></path>
<path d="M623 40h0"></path>
<rect x="458.5" y="29" width="164.5" height="22"></rect>
<a xlink:href="#/abap/expression/SimpleFieldChain2"><text x="540.75" y="44">SimpleFieldChain2</text>
</a>
</g>
<path d="M623 40h10"></path>
<g>
<path d="M633 40h0"></path>
<path d="M852 40h0"></path>
<path d="M633 40a10 10 0 0 0 10 -10v0a10 10 0 0 1 10 -10"></path>
<g>
<path d="M653 20h179"></path>
</g>
<path d="M832 20a10 10 0 0 1 10 10v0a10 10 0 0 0 10 10"></path>
<path d="M633 40h20"></path>
<g>
<path d="M653 40h0"></path>
<path d="M832 40h0"></path>
<g class="terminal">
<path d="M653 40h0"></path>
<path d="M741 40h0"></path>
<rect x="653" y="29" width="88" height="22" rx="10" ry="10"></rect>
<text x="697" y="44">"OCCURS"</text>
</g>
<path d="M741 40h10"></path>
<path d="M751 40h10"></path>
<g class="non-terminal">
<path d="M761 40h0"></path>
<path d="M832 40h0"></path>
<rect x="761" y="29" width="71" height="22"></rect>
<a xlink:href="#/abap/expression/Source"><text x="796.5" y="44">Source</text>
</a>
</g>
</g>
<path d="M832 40h20"></path>
</g>
<g>
<path d="M852 40h0"></path>
<path d="M1005.5 40h0"></path>
<path d="M852 40a10 10 0 0 0 10 -10v0a10 10 0 0 1 10 -10"></path>
<g>
<path d="M872 20h113.5"></path>
</g>
<path d="M985.5 20a10 10 0 0 1 10 10v0a10 10 0 0 0 10 10"></path>
<path d="M852 40h20"></path>
<g class="non-terminal">
<path d="M872 40h0"></path>
<path d="M985.5 40h0"></path>
<rect x="872" y="29" width="113.5" height="22"></rect>
<a xlink:href="#/abap/expression/FieldLength"><text x="928.75" y="44">FieldLength</text>
</a>
</g>
<path d="M985.5 40h20"></path>
</g>
</g>
</g>
<path d="M1005.5 40h10"></path>
<path d="M 1015.5 40 h 20 m -10 -10 v 20 m 10 -20 v 20"></path>
</g>
</svg>
