<svg xmlns="http://www.w3.org/2000/svg" xmlns:xlink="http://www.w3.org/1999/xlink" class="railroad-diagram" width="966.5" height="71" viewBox="0 0 966.5 71">
<defs>
<style type="text/css"><![CDATA[
path {
stroke-width: 3;
stroke: black;
fill: rgba(0,0,0,0);
}
text {
font: bold 14px monospace;
text-anchor: middle;
}
text.diagram-text {
font-size: 12px;
}
a {
fill: blue;
}
text.diagram-arrow {
font-size: 16px;
}
text.label {
text-anchor: start;
}
text.comment {
font: italic 12px monospace;
}
rect {
stroke-width: 3;
stroke: black;
fill: #BCBCBC;
}
path.diagram-text {
stroke-width: 3;
stroke: black;
fill: #BCBCBC;
cursor: help;
}
]]></style>
</defs>
<g transform="translate(.5 .5)">
<g>
<path d="M20 30v20m10 -20v20m-10 -10h20"></path>
</g>
<path d="M40 40h10"></path>
<g>
<path d="M50 40h0"></path>
<path d="M916.5 40h0"></path>
<g class="comment ">
<path d="M50 40h0"></path>
<path d="M179 40h0"></path>
<text x="114.5" y="45" class="comment">not langver=Cloud</text>
</g>
<path d="M179 40h10"></path>
<path d="M189 40h10"></path>
<g>
<path d="M199 40h0"></path>
<path d="M916.5 40h0"></path>
<g class="terminal ">
<path d="M199 40h0"></path>
<path d="M389 40h0"></path>
<rect x="199" y="29" width="190" height="22" rx="10" ry="10"></rect>
<text x="294" y="44">"WINDOW STARTING AT"</text>
</g>
<path d="M389 40h10"></path>
<path d="M399 40h10"></path>
<g class="non-terminal ">
<path d="M409 40h0"></path>
<path d="M480 40h0"></path>
<rect x="409" y="29" width="71" height="22"></rect>
<a xlink:href="#/abap/expression/Source"><text x="444.5" y="44">Source</text>
</a>
</g>
<path d="M480 40h10"></path>
<path d="M490 40h10"></path>
<g class="non-terminal ">
<path d="M500 40h0"></path>
<path d="M571 40h0"></path>
<rect x="500" y="29" width="71" height="22"></rect>
<a xlink:href="#/abap/expression/Source"><text x="535.5" y="44">Source</text>
</a>
</g>
<path d="M571 40h10"></path>
<g>
<path d="M581 40h0"></path>
<path d="M916.5 40h0"></path>
<path d="M581 40a10 10 0 0 0 10 -10v0a10 10 0 0 1 10 -10"></path>
<g>
<path d="M601 20h295.5"></path>
</g>
<path d="M896.5 20a10 10 0 0 1 10 10v0a10 10 0 0 0 10 10"></path>
<path d="M581 40h20"></path>
<g>
<path d="M601 40h0"></path>
<path d="M896.5 40h0"></path>
<g class="terminal ">
<path d="M601 40h0"></path>
<path d="M714.5 40h0"></path>
<rect x="601" y="29" width="113.5" height="22" rx="10" ry="10"></rect>
<text x="657.75" y="44">"ENDING AT"</text>
</g>
<path d="M714.5 40h10"></path>
<path d="M724.5 40h10"></path>
<g class="non-terminal ">
<path d="M734.5 40h0"></path>
<path d="M805.5 40h0"></path>
<rect x="734.5" y="29" width="71" height="22"></rect>
<a xlink:href="#/abap/expression/Source"><text x="770" y="44">Source</text>
</a>
</g>
<path d="M805.5 40h10"></path>
<path d="M815.5 40h10"></path>
<g class="non-terminal ">
<path d="M825.5 40h0"></path>
<path d="M896.5 40h0"></path>
<rect x="825.5" y="29" width="71" height="22"></rect>
<a xlink:href="#/abap/expression/Source"><text x="861" y="44">Source</text>
</a>
</g>
</g>
<path d="M896.5 40h20"></path>
</g>
</g>
</g>
<path d="M916.5 40h10"></path>
<path d="M 926.5 40 h 20 m -10 -10 v 20 m 10 -20 v 20"></path>
</g>
</svg>
