<svg xmlns="http://www.w3.org/2000/svg" xmlns:xlink="http://www.w3.org/1999/xlink" class="railroad-diagram" width="1235.5" height="650" viewBox="0 0 1235.5 650">
<defs>
<style type="text/css"><![CDATA[
path {
stroke-width: 3;
stroke: black;
fill: rgba(0,0,0,0);
}
text {
font: bold 14px monospace;
text-anchor: middle;
}
text.diagram-text {
font-size: 12px;
}
a {
fill: blue;
}
text.diagram-arrow {
font-size: 16px;
}
text.label {
text-anchor: start;
}
text.comment {
font: italic 12px monospace;
}
rect {
stroke-width: 3;
stroke: black;
fill: #BCBCBC;
}
path.diagram-text {
stroke-width: 3;
stroke: black;
fill: #BCBCBC;
cursor: help;
}
]]></style>
</defs>
<g transform="translate(.5 .5)">
<g>
<path d="M20 30v20m10 -20v20m-10 -10h20"></path>
</g>
<path d="M40 40h10"></path>
<g>
<path d="M50 40h0"></path>
<path d="M1185.5 40h0"></path>
<g class="comment ">
<path d="M50 40h0"></path>
<path d="M179 40h0"></path>
<text x="114.5" y="45" class="comment">not langver=Cloud</text>
</g>
<path d="M179 40h10"></path>
<path d="M189 40h10"></path>
<g>
<path d="M199 40h0"></path>
<path d="M1185.5 40h0"></path>
<g class="terminal ">
<path d="M199 40h0"></path>
<path d="M372 40h0"></path>
<rect x="199" y="29" width="173" height="22" rx="10" ry="10"></rect>
<text x="285.5" y="44">"SYNTAX-CHECK FOR"</text>
</g>
<path d="M372 40h10"></path>
<g>
<path d="M382 40h0"></path>
<path d="M1185.5 40h0"></path>
<path d="M382 40h20"></path>
<g>
<path d="M402 40h50.25"></path>
<path d="M1115.25 40h50.25"></path>
<g>
<path d="M452.25 40h0"></path>
<path d="M588.75 40h0"></path>
<path d="M452.25 40a10 10 0 0 0 10 -10v0a10 10 0 0 1 10 -10"></path>
<g>
<path d="M472.25 20h96.5"></path>
</g>
<path d="M568.75 20a10 10 0 0 1 10 10v0a10 10 0 0 0 10 10"></path>
<path d="M452.25 40h20"></path>
<g class="terminal ">
<path d="M472.25 40h0"></path>
<path d="M568.75 40h0"></path>
<rect x="472.25" y="29" width="96.5" height="22" rx="10" ry="10"></rect>
<text x="520.5" y="44">"PROGRAM"</text>
</g>
<path d="M568.75 40h20"></path>
</g>
<path d="M588.75 40h10"></path>
<g class="non-terminal ">
<path d="M598.75 40h0"></path>
<path d="M669.75 40h0"></path>
<rect x="598.75" y="29" width="71" height="22"></rect>
<a xlink:href="#/abap/expression/Source"><text x="634.25" y="44">Source</text>
</a>
</g>
<path d="M669.75 40h10"></path>
<path d="M679.75 40h10"></path>
<g>
<path d="M689.75 40h0"></path>
<path d="M1115.25 40h0"></path>
<path d="M719.75 40h10"></path>
<g>
<path d="M729.75 40h84"></path>
<path d="M1001.25 40h84"></path>
<g class="terminal ">
<path d="M813.75 40h0"></path>
<path d="M910.25 40h0"></path>
<rect x="813.75" y="29" width="96.5" height="22" rx="10" ry="10"></rect>
<text x="862" y="44">"MESSAGE"</text>
</g>
<path d="M910.25 40h10"></path>
<path d="M920.25 40h10"></path>
<g class="non-terminal ">
<path d="M930.25 40h0"></path>
<path d="M1001.25 40h0"></path>
<rect x="930.25" y="29" width="71" height="22"></rect>
<a xlink:href="#/abap/expression/Target"><text x="965.75" y="44">Target</text>
</a>
</g>
</g>
<path d="M1085.25 40h10"></path>
<path d="M719.75 40v20a10 10 0 0 0 10 10"></path>
<g>
<path d="M729.75 70h96.75"></path>
<path d="M988.5 70h96.75"></path>
<g class="terminal ">
<path d="M826.5 70h0"></path>
<path d="M897.5 70h0"></path>
<rect x="826.5" y="59" width="71" height="22" rx="10" ry="10"></rect>
<text x="862" y="74">"LINE"</text>
</g>
<path d="M897.5 70h10"></path>
<path d="M907.5 70h10"></path>
<g class="non-terminal ">
<path d="M917.5 70h0"></path>
<path d="M988.5 70h0"></path>
<rect x="917.5" y="59" width="71" height="22"></rect>
<a xlink:href="#/abap/expression/Target"><text x="953" y="74">Target</text>
</a>
</g>
</g>
<path d="M1085.25 70a10 10 0 0 0 10 -10v-20"></path>
<path d="M719.75 40v50a10 10 0 0 0 10 10"></path>
<g>
<path d="M729.75 100h96.75"></path>
<path d="M988.5 100h96.75"></path>
<g class="terminal ">
<path d="M826.5 100h0"></path>
<path d="M897.5 100h0"></path>
<rect x="826.5" y="89" width="71" height="22" rx="10" ry="10"></rect>
<text x="862" y="104">"WORD"</text>
</g>
<path d="M897.5 100h10"></path>
<path d="M907.5 100h10"></path>
<g class="non-terminal ">
<path d="M917.5 100h0"></path>
<path d="M988.5 100h0"></path>
<rect x="917.5" y="89" width="71" height="22"></rect>
<a xlink:href="#/abap/expression/Target"><text x="953" y="104">Target</text>
</a>
</g>
</g>
<path d="M1085.25 100a10 10 0 0 0 10 -10v-50"></path>
<path d="M719.75 40v80a10 10 0 0 0 10 10"></path>
<g>
<path d="M729.75 130h88.25"></path>
<path d="M997 130h88.25"></path>
<g class="terminal ">
<path d="M818 130h0"></path>
<path d="M906 130h0"></path>
<rect x="818" y="119" width="88" height="22" rx="10" ry="10"></rect>
<text x="862" y="134">"OFFSET"</text>
</g>
<path d="M906 130h10"></path>
<path d="M916 130h10"></path>
<g class="non-terminal ">
<path d="M926 130h0"></path>
<path d="M997 130h0"></path>
<rect x="926" y="119" width="71" height="22"></rect>
<a xlink:href="#/abap/expression/Target"><text x="961.5" y="134">Target</text>
</a>
</g>
</g>
<path d="M1085.25 130a10 10 0 0 0 10 -10v-80"></path>
<path d="M719.75 40v110a10 10 0 0 0 10 10"></path>
<g>
<path d="M729.75 160h84"></path>
<path d="M1001.25 160h84"></path>
<g class="terminal ">
<path d="M813.75 160h0"></path>
<path d="M910.25 160h0"></path>
<rect x="813.75" y="149" width="96.5" height="22" rx="10" ry="10"></rect>
<text x="862" y="164">"PROGRAM"</text>
</g>
<path d="M910.25 160h10"></path>
<path d="M920.25 160h10"></path>
<g class="non-terminal ">
<path d="M930.25 160h0"></path>
<path d="M1001.25 160h0"></path>
<rect x="930.25" y="149" width="71" height="22"></rect>
<a xlink:href="#/abap/expression/Source"><text x="965.75" y="164">Source</text>
</a>
</g>
</g>
<path d="M1085.25 160a10 10 0 0 0 10 -10v-110"></path>
<path d="M719.75 40v140a10 10 0 0 0 10 10"></path>
<g>
<path d="M729.75 190h75.5"></path>
<path d="M1009.75 190h75.5"></path>
<g class="terminal ">
<path d="M805.25 190h0"></path>
<path d="M918.75 190h0"></path>
<rect x="805.25" y="179" width="113.5" height="22" rx="10" ry="10"></rect>
<text x="862" y="194">"REPLACING"</text>
</g>
<path d="M918.75 190h10"></path>
<path d="M928.75 190h10"></path>
<g class="non-terminal ">
<path d="M938.75 190h0"></path>
<path d="M1009.75 190h0"></path>
<rect x="938.75" y="179" width="71" height="22"></rect>
<a xlink:href="#/abap/expression/Target"><text x="974.25" y="194">Target</text>
</a>
</g>
</g>
<path d="M1085.25 190a10 10 0 0 0 10 -10v-140"></path>
<path d="M719.75 40v170a10 10 0 0 0 10 10"></path>
<g>
<path d="M729.75 220h50"></path>
<path d="M1035.25 220h50"></path>
<g class="terminal ">
<path d="M779.75 220h0"></path>
<path d="M944.25 220h0"></path>
<rect x="779.75" y="209" width="164.5" height="22" rx="10" ry="10"></rect>
<text x="862" y="224">"DIRECTORY ENTRY"</text>
</g>
<path d="M944.25 220h10"></path>
<path d="M954.25 220h10"></path>
<g class="non-terminal ">
<path d="M964.25 220h0"></path>
<path d="M1035.25 220h0"></path>
<rect x="964.25" y="209" width="71" height="22"></rect>
<a xlink:href="#/abap/expression/Source"><text x="999.75" y="224">Source</text>
</a>
</g>
</g>
<path d="M1085.25 220a10 10 0 0 0 10 -10v-170"></path>
<path d="M719.75 40v200a10 10 0 0 0 10 10"></path>
<g>
<path d="M729.75 250h67"></path>
<path d="M1018.25 250h67"></path>
<g class="terminal ">
<path d="M796.75 250h0"></path>
<path d="M927.25 250h0"></path>
<rect x="796.75" y="239" width="130.5" height="22" rx="10" ry="10"></rect>
<text x="862" y="254">"FRAME ENTRY"</text>
</g>
<path d="M927.25 250h10"></path>
<path d="M937.25 250h10"></path>
<g class="non-terminal ">
<path d="M947.25 250h0"></path>
<path d="M1018.25 250h0"></path>
<rect x="947.25" y="239" width="71" height="22"></rect>
<a xlink:href="#/abap/expression/Target"><text x="982.75" y="254">Target</text>
</a>
</g>
</g>
<path d="M1085.25 250a10 10 0 0 0 10 -10v-200"></path>
<path d="M719.75 40v230a10 10 0 0 0 10 10"></path>
<g>
<path d="M729.75 280h84"></path>
<path d="M1001.25 280h84"></path>
<g class="terminal ">
<path d="M813.75 280h0"></path>
<path d="M910.25 280h0"></path>
<rect x="813.75" y="269" width="96.5" height="22" rx="10" ry="10"></rect>
<text x="862" y="284">"INCLUDE"</text>
</g>
<path d="M910.25 280h10"></path>
<path d="M920.25 280h10"></path>
<g class="non-terminal ">
<path d="M930.25 280h0"></path>
<path d="M1001.25 280h0"></path>
<rect x="930.25" y="269" width="71" height="22"></rect>
<a xlink:href="#/abap/expression/Target"><text x="965.75" y="284">Target</text>
</a>
</g>
</g>
<path d="M1085.25 280a10 10 0 0 0 10 -10v-230"></path>
<path d="M719.75 40v260a10 10 0 0 0 10 10"></path>
<g>
<path d="M729.75 310h71.25"></path>
<path d="M1014 310h71.25"></path>
<g class="terminal ">
<path d="M801 310h0"></path>
<path d="M923 310h0"></path>
<rect x="801" y="299" width="122" height="22" rx="10" ry="10"></rect>
<text x="862" y="314">"MESSAGE-ID"</text>
</g>
<path d="M923 310h10"></path>
<path d="M933 310h10"></path>
<g class="non-terminal ">
<path d="M943 310h0"></path>
<path d="M1014 310h0"></path>
<rect x="943" y="299" width="71" height="22"></rect>
<a xlink:href="#/abap/expression/Target"><text x="978.5" y="314">Target</text>
</a>
</g>
</g>
<path d="M1085.25 310a10 10 0 0 0 10 -10v-260"></path>
<path d="M719.75 40v290a10 10 0 0 0 10 10"></path>
<g>
<path d="M729.75 340h67"></path>
<path d="M1018.25 340h67"></path>
<g class="terminal ">
<path d="M796.75 340h0"></path>
<path d="M927.25 340h0"></path>
<rect x="796.75" y="329" width="130.5" height="22" rx="10" ry="10"></rect>
<text x="862" y="344">"TRACE-TABLE"</text>
</g>
<path d="M927.25 340h10"></path>
<path d="M937.25 340h10"></path>
<g class="non-terminal ">
<path d="M947.25 340h0"></path>
<path d="M1018.25 340h0"></path>
<rect x="947.25" y="329" width="71" height="22"></rect>
<a xlink:href="#/abap/expression/Target"><text x="982.75" y="344">Target</text>
</a>
</g>
</g>
<path d="M1085.25 340a10 10 0 0 0 10 -10v-290"></path>
<path d="M719.75 40v320a10 10 0 0 0 10 10"></path>
<g>
<path d="M729.75 370h62.75"></path>
<path d="M1022.5 370h62.75"></path>
<g class="terminal ">
<path d="M792.5 370h0"></path>
<path d="M931.5 370h0"></path>
<rect x="792.5" y="359" width="139" height="22" rx="10" ry="10"></rect>
<text x="862" y="374">"SHORTDUMP-ID"</text>
</g>
<path d="M931.5 370h10"></path>
<path d="M941.5 370h10"></path>
<g class="non-terminal ">
<path d="M951.5 370h0"></path>
<path d="M1022.5 370h0"></path>
<rect x="951.5" y="359" width="71" height="22"></rect>
<a xlink:href="#/abap/expression/Source"><text x="987" y="374">Source</text>
</a>
</g>
</g>
<path d="M1085.25 370a10 10 0 0 0 10 -10v-320"></path>
<path d="M719.75 40v350a10 10 0 0 0 10 10"></path>
<g>
<path d="M729.75 400h88.25"></path>
<path d="M997 400h88.25"></path>
<g class="terminal ">
<path d="M818 400h0"></path>
<path d="M906 400h0"></path>
<rect x="818" y="389" width="88" height="22" rx="10" ry="10"></rect>
<text x="862" y="404">"FILTER"</text>
</g>
<path d="M906 400h10"></path>
<path d="M916 400h10"></path>
<g class="non-terminal ">
<path d="M926 400h0"></path>
<path d="M997 400h0"></path>
<rect x="926" y="389" width="71" height="22"></rect>
<a xlink:href="#/abap/expression/Source"><text x="961.5" y="404">Source</text>
</a>
</g>
</g>
<path d="M1085.25 400a10 10 0 0 0 10 -10v-350"></path>
<path d="M719.75 40v380a10 10 0 0 0 10 10"></path>
<g>
<path d="M729.75 430h0"></path>
<path d="M1085.25 430h0"></path>
<path d="M729.75 430h10"></path>
<g>
<path d="M739.75 430h0"></path>
<path d="M1075.25 430h0"></path>
<g class="terminal ">
<path d="M739.75 430h0"></path>
<path d="M793.75 430h0"></path>
<rect x="739.75" y="419" width="54" height="22" rx="10" ry="10"></rect>
<text x="766.75" y="434">"ID"</text>
</g>
<path d="M793.75 430h10"></path>
<path d="M803.75 430h10"></path>
<g class="non-terminal ">
<path d="M813.75 430h0"></path>
<path d="M884.75 430h0"></path>
<rect x="813.75" y="419" width="71" height="22"></rect>
<a xlink:href="#/abap/expression/Source"><text x="849.25" y="434">Source</text>
</a>
</g>
<path d="M884.75 430h10"></path>
<path d="M894.75 430h10"></path>
<g class="terminal ">
<path d="M904.75 430h0"></path>
<path d="M984.25 430h0"></path>
<rect x="904.75" y="419" width="79.5" height="22" rx="10" ry="10"></rect>
<text x="944.5" y="434">"TABLE"</text>
</g>
<path d="M984.25 430h10"></path>
<path d="M994.25 430h10"></path>
<g class="non-terminal ">
<path d="M1004.25 430h0"></path>
<path d="M1075.25 430h0"></path>
<rect x="1004.25" y="419" width="71" height="22"></rect>
<a xlink:href="#/abap/expression/Target"><text x="1039.75" y="434">Target</text>
</a>
</g>
</g>
<path d="M1075.25 430h10"></path>
<path d="M739.75 430a10 10 0 0 0 -10 10v0a10 10 0 0 0 10 10"></path>
<g>
<path d="M739.75 450h335.5"></path>
</g>
<path d="M1075.25 450a10 10 0 0 0 10 -10v0a10 10 0 0 0 -10 -10"></path>
</g>
<path d="M1085.25 430a10 10 0 0 0 10 -10v-380"></path>
<g class="diagram-text">
<title>take one or more branches, once each, in any order</title>
<path d="M 719.75 30 h -26 a 4 4 0 0 0 -4 4 v 12 a 4 4 0 0 0 4 4 h 26 z" class="diagram-text"></path>
<text x="704.75" y="44" class="diagram-text">1+</text>
<path d="M 1095.25 30 h 16 a 4 4 0 0 1 4 4 v 12 a 4 4 0 0 1 -4 4 h -16 z" class="diagram-text"></path>
<path d="M 1102.25 38 a 4 4 0 1 0 6 -1 m 2.75 -1 h -4 v 4 m 0 -3 h 2" style="stroke-width: 1.75"></path>
</g>
</g>
</g>
<path d="M1165.5 40h20"></path>
<path d="M382 40a10 10 0 0 1 10 10v409a10 10 0 0 0 10 10"></path>
<g>
<path d="M402 469h0"></path>
<path d="M1165.5 469h0"></path>
<g class="terminal ">
<path d="M402 469h0"></path>
<path d="M490 469h0"></path>
<rect x="402" y="458" width="88" height="22" rx="10" ry="10"></rect>
<text x="446" y="473">"DYNPRO"</text>
</g>
<path d="M490 469h10"></path>
<path d="M500 469h10"></path>
<g class="non-terminal ">
<path d="M510 469h0"></path>
<path d="M581 469h0"></path>
<rect x="510" y="458" width="71" height="22"></rect>
<a xlink:href="#/abap/expression/Source"><text x="545.5" y="473">Source</text>
</a>
</g>
<path d="M581 469h10"></path>
<path d="M591 469h10"></path>
<g class="non-terminal ">
<path d="M601 469h0"></path>
<path d="M672 469h0"></path>
<rect x="601" y="458" width="71" height="22"></rect>
<a xlink:href="#/abap/expression/Source"><text x="636.5" y="473">Source</text>
</a>
</g>
<path d="M672 469h10"></path>
<path d="M682 469h10"></path>
<g class="non-terminal ">
<path d="M692 469h0"></path>
<path d="M763 469h0"></path>
<rect x="692" y="458" width="71" height="22"></rect>
<a xlink:href="#/abap/expression/Source"><text x="727.5" y="473">Source</text>
</a>
</g>
<path d="M763 469h10"></path>
<path d="M773 469h10"></path>
<g class="non-terminal ">
<path d="M783 469h0"></path>
<path d="M854 469h0"></path>
<rect x="783" y="458" width="71" height="22"></rect>
<a xlink:href="#/abap/expression/Source"><text x="818.5" y="473">Source</text>
</a>
</g>
<path d="M854 469h10"></path>
<path d="M864 469h10"></path>
<g>
<path d="M874 469h0"></path>
<path d="M1165.5 469h0"></path>
<path d="M904 469h10"></path>
<g>
<path d="M914 469h17"></path>
<path d="M1118.5 469h17"></path>
<g class="terminal ">
<path d="M931 469h0"></path>
<path d="M1027.5 469h0"></path>
<rect x="931" y="458" width="96.5" height="22" rx="10" ry="10"></rect>
<text x="979.25" y="473">"MESSAGE"</text>
</g>
<path d="M1027.5 469h10"></path>
<path d="M1037.5 469h10"></path>
<g class="non-terminal ">
<path d="M1047.5 469h0"></path>
<path d="M1118.5 469h0"></path>
<rect x="1047.5" y="458" width="71" height="22"></rect>
<a xlink:href="#/abap/expression/Target"><text x="1083" y="473">Target</text>
</a>
</g>
</g>
<path d="M1135.5 469h10"></path>
<path d="M904 469v20a10 10 0 0 0 10 10"></path>
<g>
<path d="M914 499h29.75"></path>
<path d="M1105.75 499h29.75"></path>
<g class="terminal ">
<path d="M943.75 499h0"></path>
<path d="M1014.75 499h0"></path>
<rect x="943.75" y="488" width="71" height="22" rx="10" ry="10"></rect>
<text x="979.25" y="503">"LINE"</text>
</g>
<path d="M1014.75 499h10"></path>
<path d="M1024.75 499h10"></path>
<g class="non-terminal ">
<path d="M1034.75 499h0"></path>
<path d="M1105.75 499h0"></path>
<rect x="1034.75" y="488" width="71" height="22"></rect>
<a xlink:href="#/abap/expression/Target"><text x="1070.25" y="503">Target</text>
</a>
</g>
</g>
<path d="M1135.5 499a10 10 0 0 0 10 -10v-20"></path>
<path d="M904 469v50a10 10 0 0 0 10 10"></path>
<g>
<path d="M914 529h29.75"></path>
<path d="M1105.75 529h29.75"></path>
<g class="terminal ">
<path d="M943.75 529h0"></path>
<path d="M1014.75 529h0"></path>
<rect x="943.75" y="518" width="71" height="22" rx="10" ry="10"></rect>
<text x="979.25" y="533">"WORD"</text>
</g>
<path d="M1014.75 529h10"></path>
<path d="M1024.75 529h10"></path>
<g class="non-terminal ">
<path d="M1034.75 529h0"></path>
<path d="M1105.75 529h0"></path>
<rect x="1034.75" y="518" width="71" height="22"></rect>
<a xlink:href="#/abap/expression/Target"><text x="1070.25" y="533">Target</text>
</a>
</g>
</g>
<path d="M1135.5 529a10 10 0 0 0 10 -10v-50"></path>
<path d="M904 469v80a10 10 0 0 0 10 10"></path>
<g>
<path d="M914 559h21.25"></path>
<path d="M1114.25 559h21.25"></path>
<g class="terminal ">
<path d="M935.25 559h0"></path>
<path d="M1023.25 559h0"></path>
<rect x="935.25" y="548" width="88" height="22" rx="10" ry="10"></rect>
<text x="979.25" y="563">"OFFSET"</text>
</g>
<path d="M1023.25 559h10"></path>
<path d="M1033.25 559h10"></path>
<g class="non-terminal ">
<path d="M1043.25 559h0"></path>
<path d="M1114.25 559h0"></path>
<rect x="1043.25" y="548" width="71" height="22"></rect>
<a xlink:href="#/abap/expression/Target"><text x="1078.75" y="563">Target</text>
</a>
</g>
</g>
<path d="M1135.5 559a10 10 0 0 0 10 -10v-80"></path>
<path d="M904 469v110a10 10 0 0 0 10 10"></path>
<g>
<path d="M914 589h4.25"></path>
<path d="M1131.25 589h4.25"></path>
<g class="terminal ">
<path d="M918.25 589h0"></path>
<path d="M1040.25 589h0"></path>
<rect x="918.25" y="578" width="122" height="22" rx="10" ry="10"></rect>
<text x="979.25" y="593">"MESSAGE-ID"</text>
</g>
<path d="M1040.25 589h10"></path>
<path d="M1050.25 589h10"></path>
<g class="non-terminal ">
<path d="M1060.25 589h0"></path>
<path d="M1131.25 589h0"></path>
<rect x="1060.25" y="578" width="71" height="22"></rect>
<a xlink:href="#/abap/expression/Target"><text x="1095.75" y="593">Target</text>
</a>
</g>
</g>
<path d="M1135.5 589a10 10 0 0 0 10 -10v-110"></path>
<path d="M904 469v140a10 10 0 0 0 10 10"></path>
<g>
<path d="M914 619h0"></path>
<path d="M1135.5 619h0"></path>
<g class="terminal ">
<path d="M914 619h0"></path>
<path d="M1044.5 619h0"></path>
<rect x="914" y="608" width="130.5" height="22" rx="10" ry="10"></rect>
<text x="979.25" y="623">"TRACE-TABLE"</text>
</g>
<path d="M1044.5 619h10"></path>
<path d="M1054.5 619h10"></path>
<g class="non-terminal ">
<path d="M1064.5 619h0"></path>
<path d="M1135.5 619h0"></path>
<rect x="1064.5" y="608" width="71" height="22"></rect>
<a xlink:href="#/abap/expression/Target"><text x="1100" y="623">Target</text>
</a>
</g>
</g>
<path d="M1135.5 619a10 10 0 0 0 10 -10v-140"></path>
<g class="diagram-text">
<title>take one or more branches, once each, in any order</title>
<path d="M 904 459 h -26 a 4 4 0 0 0 -4 4 v 12 a 4 4 0 0 0 4 4 h 26 z" class="diagram-text"></path>
<text x="889" y="473" class="diagram-text">1+</text>
<path d="M 1145.5 459 h 16 a 4 4 0 0 1 4 4 v 12 a 4 4 0 0 1 -4 4 h -16 z" class="diagram-text"></path>
<path d="M 1152.5 467 a 4 4 0 1 0 6 -1 m 2.75 -1 h -4 v 4 m 0 -3 h 2" style="stroke-width: 1.75"></path>
</g>
</g>
</g>
<path d="M1165.5 469a10 10 0 0 0 10 -10v-409a10 10 0 0 1 10 -10"></path>
</g>
</g>
</g>
<path d="M1185.5 40h10"></path>
<path d="M 1195.5 40 h 20 m -10 -10 v 20 m 10 -20 v 20"></path>
</g>
</svg>
