<svg xmlns="http://www.w3.org/2000/svg" xmlns:xlink="http://www.w3.org/1999/xlink" class="railroad-diagram" width="634.5" height="62" viewBox="0 0 634.5 62">
<defs>
<style type="text/css"><![CDATA[
path {
stroke-width: 3;
stroke: black;
fill: rgba(0,0,0,0);
}
text {
font: bold 14px monospace;
text-anchor: middle;
}
text.diagram-text {
font-size: 12px;
}
a {
fill: blue;
}
text.diagram-arrow {
font-size: 16px;
}
text.label {
text-anchor: start;
}
text.comment {
font: italic 12px monospace;
}
rect {
stroke-width: 3;
stroke: black;
fill: #BCBCBC;
}
path.diagram-text {
stroke-width: 3;
stroke: black;
fill: #BCBCBC;
cursor: help;
}
]]></style>
</defs>
<g transform="translate(.5 .5)">
<g>
<path d="M20 21v20m10 -20v20m-10 -10h20"></path>
</g>
<path d="M40 31h10"></path>
<g>
<path d="M50 31h0"></path>
<path d="M584.5 31h0"></path>
<g>
<path d="M50 31h0"></path>
<path d="M116 31h0"></path>
<text x="83" y="36" class="comment">v740sp05</text>
</g>
<path d="M116 31h10"></path>
<path d="M126 31h10"></path>
<g>
<path d="M136 31h0"></path>
<path d="M584.5 31h0"></path>
<g class="terminal">
<path d="M136 31h0"></path>
<path d="M215.5 31h0"></path>
<rect x="136" y="20" width="79.5" height="22" rx="10" ry="10"></rect>
<text x="175.75" y="35">"TYPES"</text>
</g>
<path d="M215.5 31h10"></path>
<path d="M225.5 31h10"></path>
<g class="terminal">
<path d="M235.5 31h0"></path>
<path d="M383 31h0"></path>
<rect x="235.5" y="20" width="147.5" height="22" rx="10" ry="10"></rect>
<text x="309.25" y="35">"BEGIN OF MESH"</text>
</g>
<path d="M383 31h10"></path>
<path d="M393 31h10"></path>
<g class="non-terminal">
<path d="M403 31h0"></path>
<path d="M584.5 31h0"></path>
<rect x="403" y="20" width="181.5" height="22"></rect>
<a xlink:href="#/abap/expression/NamespaceSimpleName"><text x="493.75" y="35">NamespaceSimpleName</text>
</a>
</g>
</g>
</g>
<path d="M584.5 31h10"></path>
<path d="M 594.5 31 h 20 m -10 -10 v 20 m 10 -20 v 20"></path>
</g>
</svg>
