<svg xmlns="http://www.w3.org/2000/svg" xmlns:xlink="http://www.w3.org/1999/xlink" class="railroad-diagram" width="1145.5" height="71" viewBox="0 0 1145.5 71">
<defs>
<style type="text/css"><![CDATA[
path {
stroke-width: 3;
stroke: black;
fill: rgba(0,0,0,0);
}
text {
font: bold 14px monospace;
text-anchor: middle;
}
text.diagram-text {
font-size: 12px;
}
a {
fill: blue;
}
text.diagram-arrow {
font-size: 16px;
}
text.label {
text-anchor: start;
}
text.comment {
font: italic 12px monospace;
}
rect {
stroke-width: 3;
stroke: black;
fill: #BCBCBC;
}
path.diagram-text {
stroke-width: 3;
stroke: black;
fill: #BCBCBC;
cursor: help;
}
]]></style>
</defs>
<g transform="translate(.5 .5)">
<g>
<path d="M20 30v20m10 -20v20m-10 -10h20"></path>
</g>
<path d="M40 40h10"></path>
<g>
<path d="M50 40h0"></path>
<path d="M1095.5 40h0"></path>
<g class="comment ">
<path d="M50 40h0"></path>
<path d="M179 40h0"></path>
<text x="114.5" y="45" class="comment">not langver=Cloud</text>
</g>
<path d="M179 40h10"></path>
<path d="M189 40h10"></path>
<g>
<path d="M199 40h0"></path>
<path d="M1095.5 40h0"></path>
<g class="terminal ">
<path d="M199 40h0"></path>
<path d="M287 40h0"></path>
<rect x="199" y="29" width="88" height="22" rx="10" ry="10"></rect>
<text x="243" y="44">"RANGES"</text>
</g>
<path d="M287 40h10"></path>
<path d="M297 40h10"></path>
<g class="non-terminal ">
<path d="M307 40h0"></path>
<path d="M446 40h0"></path>
<rect x="307" y="29" width="139" height="22"></rect>
<a xlink:href="#/abap/expression/DefinitionName"><text x="376.5" y="44">DefinitionName</text>
</a>
</g>
<path d="M446 40h10"></path>
<path d="M456 40h10"></path>
<g class="terminal ">
<path d="M466 40h0"></path>
<path d="M528.5 40h0"></path>
<rect x="466" y="29" width="62.5" height="22" rx="10" ry="10"></rect>
<text x="497.25" y="44">"FOR"</text>
</g>
<path d="M528.5 40h10"></path>
<path d="M538.5 40h10"></path>
<g class="non-terminal ">
<path d="M548.5 40h0"></path>
<path d="M713 40h0"></path>
<rect x="548.5" y="29" width="164.5" height="22"></rect>
<a xlink:href="#/abap/expression/SimpleFieldChain2"><text x="630.75" y="44">SimpleFieldChain2</text>
</a>
</g>
<path d="M713 40h10"></path>
<g>
<path d="M723 40h0"></path>
<path d="M942 40h0"></path>
<path d="M723 40a10 10 0 0 0 10 -10v0a10 10 0 0 1 10 -10"></path>
<g>
<path d="M743 20h179"></path>
</g>
<path d="M922 20a10 10 0 0 1 10 10v0a10 10 0 0 0 10 10"></path>
<path d="M723 40h20"></path>
<g>
<path d="M743 40h0"></path>
<path d="M922 40h0"></path>
<g class="terminal ">
<path d="M743 40h0"></path>
<path d="M831 40h0"></path>
<rect x="743" y="29" width="88" height="22" rx="10" ry="10"></rect>
<text x="787" y="44">"OCCURS"</text>
</g>
<path d="M831 40h10"></path>
<path d="M841 40h10"></path>
<g class="non-terminal ">
<path d="M851 40h0"></path>
<path d="M922 40h0"></path>
<rect x="851" y="29" width="71" height="22"></rect>
<a xlink:href="#/abap/expression/Source"><text x="886.5" y="44">Source</text>
</a>
</g>
</g>
<path d="M922 40h20"></path>
</g>
<g>
<path d="M942 40h0"></path>
<path d="M1095.5 40h0"></path>
<path d="M942 40a10 10 0 0 0 10 -10v0a10 10 0 0 1 10 -10"></path>
<g>
<path d="M962 20h113.5"></path>
</g>
<path d="M1075.5 20a10 10 0 0 1 10 10v0a10 10 0 0 0 10 10"></path>
<path d="M942 40h20"></path>
<g class="non-terminal ">
<path d="M962 40h0"></path>
<path d="M1075.5 40h0"></path>
<rect x="962" y="29" width="113.5" height="22"></rect>
<a xlink:href="#/abap/expression/FieldLength"><text x="1018.75" y="44">FieldLength</text>
</a>
</g>
<path d="M1075.5 40h20"></path>
</g>
</g>
</g>
<path d="M1095.5 40h10"></path>
<path d="M 1105.5 40 h 20 m -10 -10 v 20 m 10 -20 v 20"></path>
</g>
</svg>
