<svg xmlns="http://www.w3.org/2000/svg" xmlns:xlink="http://www.w3.org/1999/xlink" class="railroad-diagram" width="627" height="101" viewBox="0 0 627 101">
<defs>
<style type="text/css"><![CDATA[
path {
stroke-width: 3;
stroke: black;
fill: rgba(0,0,0,0);
}
text {
font: bold 14px monospace;
text-anchor: middle;
}
text.diagram-text {
font-size: 12px;
}
a {
fill: blue;
}
text.diagram-arrow {
font-size: 16px;
}
text.label {
text-anchor: start;
}
text.comment {
font: italic 12px monospace;
}
rect {
stroke-width: 3;
stroke: black;
fill: #BCBCBC;
}
path.diagram-text {
stroke-width: 3;
stroke: black;
fill: #BCBCBC;
cursor: help;
}
]]></style>
</defs>
<g transform="translate(.5 .5)">
<g>
<path d="M20 30v20m10 -20v20m-10 -10h20"></path>
</g>
<path d="M40 40h10"></path>
<g>
<path d="M50 40h0"></path>
<path d="M577 40h0"></path>
<g class="comment ">
<path d="M50 40h0"></path>
<path d="M193 40h0"></path>
<text x="121.5" y="45" class="comment">not langver=KeyUser</text>
</g>
<path d="M193 40h10"></path>
<path d="M203 40h10"></path>
<g>
<path d="M213 40h0"></path>
<path d="M577 40h0"></path>
<g class="terminal ">
<path d="M213 40h0"></path>
<path d="M301 40h0"></path>
<rect x="213" y="29" width="88" height="22" rx="10" ry="10"></rect>
<text x="257" y="44">"COMMIT"</text>
</g>
<path d="M301 40h10"></path>
<g>
<path d="M311 40h0"></path>
<path d="M577 40h0"></path>
<path d="M311 40h20"></path>
<g>
<path d="M331 40h0"></path>
<path d="M557 40h0"></path>
<g class="terminal ">
<path d="M331 40h0"></path>
<path d="M402 40h0"></path>
<rect x="331" y="29" width="71" height="22" rx="10" ry="10"></rect>
<text x="366.5" y="44">"WORK"</text>
</g>
<path d="M402 40h10"></path>
<g>
<path d="M412 40h0"></path>
<path d="M557 40h0"></path>
<path d="M412 40a10 10 0 0 0 10 -10v0a10 10 0 0 1 10 -10"></path>
<g>
<path d="M432 20h105"></path>
</g>
<path d="M537 20a10 10 0 0 1 10 10v0a10 10 0 0 0 10 10"></path>
<path d="M412 40h20"></path>
<g class="terminal ">
<path d="M432 40h0"></path>
<path d="M537 40h0"></path>
<rect x="432" y="29" width="105" height="22" rx="10" ry="10"></rect>
<text x="484.5" y="44">"AND WAIT"</text>
</g>
<path d="M537 40h20"></path>
</g>
</g>
<path d="M557 40h20"></path>
<path d="M311 40a10 10 0 0 1 10 10v10a10 10 0 0 0 10 10"></path>
<g class="non-terminal ">
<path d="M331 70h26.5"></path>
<path d="M530.5 70h26.5"></path>
<rect x="357.5" y="59" width="173" height="22"></rect>
<a xlink:href="#/abap/expression/DatabaseConnection"><text x="444" y="74">DatabaseConnection</text>
</a>
</g>
<path d="M557 70a10 10 0 0 0 10 -10v-10a10 10 0 0 1 10 -10"></path>
</g>
</g>
</g>
<path d="M577 40h10"></path>
<path d="M 587 40 h 20 m -10 -10 v 20 m 10 -20 v 20"></path>
</g>
</svg>
