<svg xmlns="http://www.w3.org/2000/svg" xmlns:xlink="http://www.w3.org/1999/xlink" class="railroad-diagram" width="1155.5" height="199" viewBox="0 0 1155.5 199">
<defs>
<style type="text/css"><![CDATA[
path {
stroke-width: 3;
stroke: black;
fill: rgba(0,0,0,0);
}
text {
font: bold 14px monospace;
text-anchor: middle;
}
text.diagram-text {
font-size: 12px;
}
a {
fill: blue;
}
text.diagram-arrow {
font-size: 16px;
}
text.label {
text-anchor: start;
}
text.comment {
font: italic 12px monospace;
}
rect {
stroke-width: 3;
stroke: black;
fill: #BCBCBC;
}
path.diagram-text {
stroke-width: 3;
stroke: black;
fill: #BCBCBC;
cursor: help;
}
]]></style>
</defs>
<g transform="translate(.5 .5)">
<g>
<path d="M20 38v20m10 -20v20m-10 -10h20"></path>
</g>
<path d="M40 48h10"></path>
<g>
<path d="M50 48h0"></path>
<path d="M1105.5 48h0"></path>
<g>
<path d="M50 48h0"></path>
<path d="M123 48h0"></path>
<text x="86.5" y="53" class="comment">not Cloud</text>
</g>
<path d="M123 48h10"></path>
<path d="M133 48h10"></path>
<g>
<path d="M143 48h0"></path>
<path d="M1105.5 48h0"></path>
<g class="terminal">
<path d="M143 48h0"></path>
<path d="M222.5 48h0"></path>
<rect x="143" y="37" width="79.5" height="22" rx="10" ry="10"></rect>
<text x="182.75" y="52">"FIELD"</text>
</g>
<path d="M222.5 48h10"></path>
<path d="M232.5 48h10"></path>
<g class="non-terminal">
<path d="M242.5 48h0"></path>
<path d="M347.5 48h0"></path>
<rect x="242.5" y="37" width="105" height="22"></rect>
<a xlink:href="#/abap/expression/FieldChain"><text x="295" y="52">FieldChain</text>
</a>
</g>
<path d="M347.5 48h10"></path>
<g>
<path d="M357.5 48h0"></path>
<path d="M1105.5 48h0"></path>
<path d="M357.5 48a10 10 0 0 0 10 -10v-8a10 10 0 0 1 10 -10"></path>
<g>
<path d="M377.5 20h708"></path>
</g>
<path d="M1085.5 20a10 10 0 0 1 10 10v8a10 10 0 0 0 10 10"></path>
<path d="M357.5 48h20"></path>
<g>
<path d="M377.5 48h0"></path>
<path d="M1085.5 48h0"></path>
<path d="M377.5 48h20"></path>
<g>
<path d="M397.5 48h0"></path>
<path d="M856.5 48h209"></path>
<g class="terminal">
<path d="M397.5 48h0"></path>
<path d="M485.5 48h0"></path>
<rect x="397.5" y="37" width="88" height="22" rx="10" ry="10"></rect>
<text x="441.5" y="52">"MODULE"</text>
</g>
<path d="M485.5 48h10"></path>
<path d="M495.5 48h10"></path>
<g class="non-terminal">
<path d="M505.5 48h0"></path>
<path d="M593.5 48h0"></path>
<rect x="505.5" y="37" width="88" height="22"></rect>
<a xlink:href="#/abap/expression/FormName"><text x="549.5" y="52">FormName</text>
</a>
</g>
<path d="M593.5 48h10"></path>
<g>
<path d="M603.5 48h0"></path>
<path d="M856.5 48h0"></path>
<path d="M603.5 48a10 10 0 0 0 10 -10v0a10 10 0 0 1 10 -10"></path>
<g>
<path d="M623.5 28h213"></path>
</g>
<path d="M836.5 28a10 10 0 0 1 10 10v0a10 10 0 0 0 10 10"></path>
<path d="M603.5 48h20"></path>
<g>
<path d="M623.5 48h0"></path>
<path d="M836.5 48h0"></path>
<path d="M623.5 48h20"></path>
<g class="terminal">
<path d="M643.5 48h0"></path>
<path d="M748.5 48h68"></path>
<rect x="643.5" y="37" width="105" height="22" rx="10" ry="10"></rect>
<text x="696" y="52">"ON INPUT"</text>
</g>
<path d="M816.5 48h20"></path>
<path d="M623.5 48a10 10 0 0 1 10 10v10a10 10 0 0 0 10 10"></path>
<g class="terminal">
<path d="M643.5 78h0"></path>
<path d="M765.5 78h51"></path>
<rect x="643.5" y="67" width="122" height="22" rx="10" ry="10"></rect>
<text x="704.5" y="82">"ON REQUEST"</text>
</g>
<path d="M816.5 78a10 10 0 0 0 10 -10v-10a10 10 0 0 1 10 -10"></path>
<path d="M623.5 48a10 10 0 0 1 10 10v40a10 10 0 0 0 10 10"></path>
<g class="terminal">
<path d="M643.5 108h0"></path>
<path d="M816.5 108h0"></path>
<rect x="643.5" y="97" width="173" height="22" rx="10" ry="10"></rect>
<text x="730" y="112">"ON CHAIN-REQUEST"</text>
</g>
<path d="M816.5 108a10 10 0 0 0 10 -10v-40a10 10 0 0 1 10 -10"></path>
</g>
<path d="M836.5 48h20"></path>
</g>
</g>
<path d="M1065.5 48h20"></path>
<path d="M377.5 48a10 10 0 0 1 10 10v70a10 10 0 0 0 10 10"></path>
<g>
<path d="M397.5 138h0"></path>
<path d="M1065.5 138h0"></path>
<g class="terminal">
<path d="M397.5 138h0"></path>
<path d="M485.5 138h0"></path>
<rect x="397.5" y="127" width="88" height="22" rx="10" ry="10"></rect>
<text x="441.5" y="142">"VALUES"</text>
</g>
<path d="M485.5 138h10"></path>
<path d="M495.5 138h10"></path>
<g class="terminal">
<path d="M505.5 138h0"></path>
<path d="M568 138h0"></path>
<rect x="505.5" y="127" width="62.5" height="22" rx="10" ry="10"></rect>
<text x="536.75" y="142">!" ("</text>
</g>
<path d="M568 138h10"></path>
<path d="M578 138h10"></path>
<g class="terminal">
<path d="M588 138h0"></path>
<path d="M684.5 138h0"></path>
<rect x="588" y="127" width="96.5" height="22" rx="10" ry="10"></rect>
<text x="636.25" y="142">"BETWEEN"</text>
</g>
<path d="M684.5 138h10"></path>
<path d="M694.5 138h10"></path>
<g class="non-terminal">
<path d="M704.5 138h0"></path>
<path d="M792.5 138h0"></path>
<rect x="704.5" y="127" width="88" height="22"></rect>
<a xlink:href="#/abap/expression/Constant"><text x="748.5" y="142">Constant</text>
</a>
</g>
<path d="M792.5 138h10"></path>
<path d="M802.5 138h10"></path>
<g class="terminal">
<path d="M812.5 138h0"></path>
<path d="M875 138h0"></path>
<rect x="812.5" y="127" width="62.5" height="22" rx="10" ry="10"></rect>
<text x="843.75" y="142">"AND"</text>
</g>
<path d="M875 138h10"></path>
<path d="M885 138h10"></path>
<g class="non-terminal">
<path d="M895 138h0"></path>
<path d="M983 138h0"></path>
<rect x="895" y="127" width="88" height="22"></rect>
<a xlink:href="#/abap/expression/Constant"><text x="939" y="142">Constant</text>
</a>
</g>
<path d="M983 138h10"></path>
<path d="M993 138h10"></path>
<g class="terminal">
<path d="M1003 138h0"></path>
<path d="M1065.5 138h0"></path>
<rect x="1003" y="127" width="62.5" height="22" rx="10" ry="10"></rect>
<text x="1034.25" y="142">!") "</text>
</g>
</g>
<path d="M1065.5 138a10 10 0 0 0 10 -10v-70a10 10 0 0 1 10 -10"></path>
<path d="M377.5 48a10 10 0 0 1 10 10v100a10 10 0 0 0 10 10"></path>
<g>
<path d="M397.5 168h0"></path>
<path d="M593.5 168h472"></path>
<g class="terminal">
<path d="M397.5 168h0"></path>
<path d="M468.5 168h0"></path>
<rect x="397.5" y="157" width="71" height="22" rx="10" ry="10"></rect>
<text x="433" y="172">"WITH"</text>
</g>
<path d="M468.5 168h10"></path>
<path d="M478.5 168h10"></path>
<g class="non-terminal">
<path d="M488.5 168h0"></path>
<path d="M593.5 168h0"></path>
<rect x="488.5" y="157" width="105" height="22"></rect>
<a xlink:href="#/abap/expression/FieldChain"><text x="541" y="172">FieldChain</text>
</a>
</g>
</g>
<path d="M1065.5 168a10 10 0 0 0 10 -10v-100a10 10 0 0 1 10 -10"></path>
</g>
<path d="M1085.5 48h20"></path>
</g>
</g>
</g>
<path d="M1105.5 48h10"></path>
<path d="M 1115.5 48 h 20 m -10 -10 v 20 m 10 -20 v 20"></path>
</g>
</svg>
