<svg xmlns="http://www.w3.org/2000/svg" xmlns:xlink="http://www.w3.org/1999/xlink" class="railroad-diagram" width="714.5" height="92" viewBox="0 0 714.5 92">
<defs>
<style type="text/css"><![CDATA[
path {
stroke-width: 3;
stroke: black;
fill: rgba(0,0,0,0);
}
text {
font: bold 14px monospace;
text-anchor: middle;
}
text.diagram-text {
font-size: 12px;
}
a {
fill: blue;
}
text.diagram-arrow {
font-size: 16px;
}
text.label {
text-anchor: start;
}
text.comment {
font: italic 12px monospace;
}
rect {
stroke-width: 3;
stroke: black;
fill: #BCBCBC;
}
path.diagram-text {
stroke-width: 3;
stroke: black;
fill: #BCBCBC;
cursor: help;
}
]]></style>
</defs>
<g transform="translate(.5 .5)">
<g>
<path d="M20 21v20m10 -20v20m-10 -10h20"></path>
</g>
<g>
<path d="M40 31h0"></path>
<path d="M674.5 31h0"></path>
<path d="M40 31h20"></path>
<g>
<path d="M60 31h0"></path>
<path d="M654.5 31h0"></path>
<g class="comment ">
<path d="M60 31h0"></path>
<path d="M203 31h0"></path>
<text x="131.5" y="36" class="comment">not langver=KeyUser</text>
</g>
<path d="M203 31h10"></path>
<path d="M213 31h10"></path>
<g>
<path d="M223 31h0"></path>
<path d="M654.5 31h0"></path>
<g class="terminal ">
<path d="M223 31h0"></path>
<path d="M353.5 31h0"></path>
<rect x="223" y="20" width="130.5" height="22" rx="10" ry="10"></rect>
<text x="288.25" y="35">"CALL METHOD"</text>
</g>
<path d="M353.5 31h10"></path>
<path d="M363.5 31h10"></path>
<g class="non-terminal ">
<path d="M373.5 31h0"></path>
<path d="M495.5 31h0"></path>
<rect x="373.5" y="20" width="122" height="22"></rect>
<a xlink:href="#/abap/expression/MethodSource"><text x="434.5" y="35">MethodSource</text>
</a>
</g>
<path d="M495.5 31h10"></path>
<path d="M505.5 31h10"></path>
<g class="non-terminal ">
<path d="M515.5 31h0"></path>
<path d="M654.5 31h0"></path>
<rect x="515.5" y="20" width="139" height="22"></rect>
<a xlink:href="#/abap/expression/MethodCallBody"><text x="585" y="35">MethodCallBody</text>
</a>
</g>
</g>
</g>
<path d="M654.5 31h20"></path>
<path d="M40 31a10 10 0 0 1 10 10v10a10 10 0 0 0 10 10"></path>
<g class="non-terminal ">
<path d="M60 61h223.5"></path>
<path d="M431 61h223.5"></path>
<rect x="283.5" y="50" width="147.5" height="22"></rect>
<a xlink:href="#/abap/expression/MethodCallChain"><text x="357.25" y="65">MethodCallChain</text>
</a>
</g>
<path d="M654.5 61a10 10 0 0 0 10 -10v-10a10 10 0 0 1 10 -10"></path>
</g>
<path d="M 674.5 31 h 20 m -10 -10 v 20 m 10 -20 v 20"></path>
</g>
</svg>
