<svg xmlns="http://www.w3.org/2000/svg" xmlns:xlink="http://www.w3.org/1999/xlink" class="railroad-diagram" width="1332" height="80" viewBox="0 0 1332 80">
<defs>
<style type="text/css"><![CDATA[
path {
stroke-width: 3;
stroke: black;
fill: rgba(0,0,0,0);
}
text {
font: bold 14px monospace;
text-anchor: middle;
}
text.diagram-text {
font-size: 12px;
}
a {
fill: blue;
}
text.diagram-arrow {
font-size: 16px;
}
text.label {
text-anchor: start;
}
text.comment {
font: italic 12px monospace;
}
rect {
stroke-width: 3;
stroke: black;
fill: #BCBCBC;
}
path.diagram-text {
stroke-width: 3;
stroke: black;
fill: #BCBCBC;
cursor: help;
}
]]></style>
</defs>
<g transform="translate(.5 .5)">
<g>
<path d="M20 30v20m10 -20v20m-10 -10h20"></path>
</g>
<path d="M40 40h10"></path>
<g>
<path d="M50 40h0"></path>
<path d="M1282 40h0"></path>
<g class="comment ">
<path d="M50 40h0"></path>
<path d="M193 40h0"></path>
<text x="121.5" y="45" class="comment">not langver=KeyUser</text>
</g>
<path d="M193 40h10"></path>
<path d="M203 40h10"></path>
<g>
<path d="M213 40h0"></path>
<path d="M1282 40h0"></path>
<g class="terminal ">
<path d="M213 40h0"></path>
<path d="M301 40h0"></path>
<rect x="213" y="29" width="88" height="22" rx="10" ry="10"></rect>
<text x="257" y="44">"ASSERT"</text>
</g>
<path d="M301 40h10"></path>
<g>
<path d="M311 40h0"></path>
<path d="M606.5 40h0"></path>
<path d="M311 40a10 10 0 0 0 10 -10v0a10 10 0 0 1 10 -10"></path>
<g>
<path d="M331 20h255.5"></path>
</g>
<path d="M586.5 20a10 10 0 0 1 10 10v0a10 10 0 0 0 10 10"></path>
<path d="M311 40h20"></path>
<g>
<path d="M331 40h0"></path>
<path d="M586.5 40h0"></path>
<g class="terminal ">
<path d="M331 40h0"></path>
<path d="M385 40h0"></path>
<rect x="331" y="29" width="54" height="22" rx="10" ry="10"></rect>
<text x="358" y="44">"ID"</text>
</g>
<path d="M385 40h10"></path>
<path d="M395 40h10"></path>
<g class="non-terminal ">
<path d="M405 40h0"></path>
<path d="M586.5 40h0"></path>
<rect x="405" y="29" width="181.5" height="22"></rect>
<a xlink:href="#/abap/expression/NamespaceSimpleName"><text x="495.75" y="44">NamespaceSimpleName</text>
</a>
</g>
</g>
<path d="M586.5 40h20"></path>
</g>
<g>
<path d="M606.5 40h0"></path>
<path d="M825.5 40h0"></path>
<path d="M606.5 40a10 10 0 0 0 10 -10v0a10 10 0 0 1 10 -10"></path>
<g>
<path d="M626.5 20h179"></path>
</g>
<path d="M805.5 20a10 10 0 0 1 10 10v0a10 10 0 0 0 10 10"></path>
<path d="M606.5 40h20"></path>
<g>
<path d="M626.5 40h0"></path>
<path d="M805.5 40h0"></path>
<g class="terminal ">
<path d="M626.5 40h0"></path>
<path d="M714.5 40h0"></path>
<rect x="626.5" y="29" width="88" height="22" rx="10" ry="10"></rect>
<text x="670.5" y="44">"SUBKEY"</text>
</g>
<path d="M714.5 40h10"></path>
<path d="M724.5 40h10"></path>
<g class="non-terminal ">
<path d="M734.5 40h0"></path>
<path d="M805.5 40h0"></path>
<rect x="734.5" y="29" width="71" height="22"></rect>
<a xlink:href="#/abap/expression/Source"><text x="770" y="44">Source</text>
</a>
</g>
</g>
<path d="M805.5 40h20"></path>
</g>
<g>
<path d="M825.5 40h0"></path>
<path d="M1064.5 40h0"></path>
<path d="M825.5 40a10 10 0 0 0 10 -10v0a10 10 0 0 1 10 -10"></path>
<g>
<path d="M845.5 20h199"></path>
</g>
<path d="M1044.5 20a10 10 0 0 1 10 10v0a10 10 0 0 0 10 10"></path>
<path d="M825.5 40h20"></path>
<g>
<path d="M845.5 40h0"></path>
<path d="M1044.5 40h0"></path>
<g class="terminal ">
<path d="M845.5 40h0"></path>
<path d="M933.5 40h0"></path>
<rect x="845.5" y="29" width="88" height="22" rx="10" ry="10"></rect>
<text x="889.5" y="44">"FIELDS"</text>
</g>
<path d="M933.5 40h10"></path>
<path d="M943.5 40h10"></path>
<g>
<path d="M953.5 40h0"></path>
<path d="M1044.5 40h0"></path>
<path d="M953.5 40h10"></path>
<g class="non-terminal ">
<path d="M963.5 40h0"></path>
<path d="M1034.5 40h0"></path>
<rect x="963.5" y="29" width="71" height="22"></rect>
<a xlink:href="#/abap/expression/Source"><text x="999" y="44">Source</text>
</a>
</g>
<path d="M1034.5 40h10"></path>
<path d="M963.5 40a10 10 0 0 0 -10 10v0a10 10 0 0 0 10 10"></path>
<g>
<path d="M963.5 60h71"></path>
</g>
<path d="M1034.5 60a10 10 0 0 0 10 -10v0a10 10 0 0 0 -10 -10"></path>
</g>
</g>
<path d="M1044.5 40h20"></path>
</g>
<g>
<path d="M1064.5 40h0"></path>
<path d="M1218 40h0"></path>
<path d="M1064.5 40a10 10 0 0 0 10 -10v0a10 10 0 0 1 10 -10"></path>
<g>
<path d="M1084.5 20h113.5"></path>
</g>
<path d="M1198 20a10 10 0 0 1 10 10v0a10 10 0 0 0 10 10"></path>
<path d="M1064.5 40h20"></path>
<g class="terminal ">
<path d="M1084.5 40h0"></path>
<path d="M1198 40h0"></path>
<rect x="1084.5" y="29" width="113.5" height="22" rx="10" ry="10"></rect>
<text x="1141.25" y="44">"CONDITION"</text>
</g>
<path d="M1198 40h20"></path>
</g>
<path d="M1218 40h10"></path>
<g class="non-terminal ">
<path d="M1228 40h0"></path>
<path d="M1282 40h0"></path>
<rect x="1228" y="29" width="54" height="22"></rect>
<a xlink:href="#/abap/expression/Cond"><text x="1255" y="44">Cond</text>
</a>
</g>
</g>
</g>
<path d="M1282 40h10"></path>
<path d="M 1292 40 h 20 m -10 -10 v 20 m 10 -20 v 20"></path>
</g>
</svg>
