<svg xmlns="http://www.w3.org/2000/svg" xmlns:xlink="http://www.w3.org/1999/xlink" class="railroad-diagram" width="643.5" height="272" viewBox="0 0 643.5 272">
<defs>
<style type="text/css"><![CDATA[
path {
stroke-width: 3;
stroke: black;
fill: rgba(0,0,0,0);
}
text {
font: bold 14px monospace;
text-anchor: middle;
}
text.diagram-text {
font-size: 12px;
}
a {
fill: blue;
}
text.diagram-arrow {
font-size: 16px;
}
text.label {
text-anchor: start;
}
text.comment {
font: italic 12px monospace;
}
rect {
stroke-width: 3;
stroke: black;
fill: #BCBCBC;
}
path.diagram-text {
stroke-width: 3;
stroke: black;
fill: #BCBCBC;
cursor: help;
}
]]></style>
</defs>
<g transform="translate(.5 .5)">
<g>
<path d="M20 21v20m10 -20v20m-10 -10h20"></path>
</g>
<path d="M40 31h10"></path>
<g>
<path d="M50 31h0"></path>
<path d="M593.5 31h0"></path>
<g>
<path d="M50 31h0"></path>
<path d="M123 31h0"></path>
<text x="86.5" y="36" class="comment">not Cloud</text>
</g>
<path d="M123 31h10"></path>
<path d="M133 31h10"></path>
<g>
<path d="M143 31h0"></path>
<path d="M593.5 31h0"></path>
<g class="terminal">
<path d="M143 31h0"></path>
<path d="M290.5 31h0"></path>
<rect x="143" y="20" width="147.5" height="22" rx="10" ry="10"></rect>
<text x="216.75" y="35">"PRINT-CONTROL"</text>
</g>
<path d="M290.5 31h10"></path>
<path d="M300.5 31h10"></path>
<g>
<path d="M310.5 31h0"></path>
<path d="M593.5 31h0"></path>
<path d="M340.5 31h10"></path>
<g>
<path d="M350.5 31h0"></path>
<path d="M563.5 31h0"></path>
<g class="terminal">
<path d="M350.5 31h0"></path>
<path d="M472.5 31h0"></path>
<rect x="350.5" y="20" width="122" height="22" rx="10" ry="10"></rect>
<text x="411.5" y="35">"INDEX-LINE"</text>
</g>
<path d="M472.5 31h10"></path>
<path d="M482.5 31h10"></path>
<g class="non-terminal">
<path d="M492.5 31h0"></path>
<path d="M563.5 31h0"></path>
<rect x="492.5" y="20" width="71" height="22"></rect>
<a xlink:href="#/abap/expression/Source"><text x="528" y="35">Source</text>
</a>
</g>
</g>
<path d="M563.5 31h10"></path>
<path d="M340.5 31v20a10 10 0 0 0 10 10"></path>
<g>
<path d="M350.5 61h0"></path>
<path d="M546.5 61h17"></path>
<g class="terminal">
<path d="M350.5 61h0"></path>
<path d="M455.5 61h0"></path>
<rect x="350.5" y="50" width="105" height="22" rx="10" ry="10"></rect>
<text x="403" y="65">"FUNCTION"</text>
</g>
<path d="M455.5 61h10"></path>
<path d="M465.5 61h10"></path>
<g class="non-terminal">
<path d="M475.5 61h0"></path>
<path d="M546.5 61h0"></path>
<rect x="475.5" y="50" width="71" height="22"></rect>
<a xlink:href="#/abap/expression/Source"><text x="511" y="65">Source</text>
</a>
</g>
</g>
<path d="M563.5 61a10 10 0 0 0 10 -10v-20"></path>
<path d="M340.5 31v50a10 10 0 0 0 10 10"></path>
<g>
<path d="M350.5 91h0"></path>
<path d="M512.5 91h51"></path>
<g class="terminal">
<path d="M350.5 91h0"></path>
<path d="M421.5 91h0"></path>
<rect x="350.5" y="80" width="71" height="22" rx="10" ry="10"></rect>
<text x="386" y="95">"LINE"</text>
</g>
<path d="M421.5 91h10"></path>
<path d="M431.5 91h10"></path>
<g class="non-terminal">
<path d="M441.5 91h0"></path>
<path d="M512.5 91h0"></path>
<rect x="441.5" y="80" width="71" height="22"></rect>
<a xlink:href="#/abap/expression/Source"><text x="477" y="95">Source</text>
</a>
</g>
</g>
<path d="M563.5 91a10 10 0 0 0 10 -10v-50"></path>
<path d="M340.5 31v80a10 10 0 0 0 10 10"></path>
<g>
<path d="M350.5 121h0"></path>
<path d="M546.5 121h17"></path>
<g class="terminal">
<path d="M350.5 121h0"></path>
<path d="M455.5 121h0"></path>
<rect x="350.5" y="110" width="105" height="22" rx="10" ry="10"></rect>
<text x="403" y="125">"POSITION"</text>
</g>
<path d="M455.5 121h10"></path>
<path d="M465.5 121h10"></path>
<g class="non-terminal">
<path d="M475.5 121h0"></path>
<path d="M546.5 121h0"></path>
<rect x="475.5" y="110" width="71" height="22"></rect>
<a xlink:href="#/abap/expression/Source"><text x="511" y="125">Source</text>
</a>
</g>
</g>
<path d="M563.5 121a10 10 0 0 0 10 -10v-80"></path>
<path d="M340.5 31v110a10 10 0 0 0 10 10"></path>
<g>
<path d="M350.5 151h0"></path>
<path d="M512.5 151h51"></path>
<g class="terminal">
<path d="M350.5 151h0"></path>
<path d="M421.5 151h0"></path>
<rect x="350.5" y="140" width="71" height="22" rx="10" ry="10"></rect>
<text x="386" y="155">"SIZE"</text>
</g>
<path d="M421.5 151h10"></path>
<path d="M431.5 151h10"></path>
<g class="non-terminal">
<path d="M441.5 151h0"></path>
<path d="M512.5 151h0"></path>
<rect x="441.5" y="140" width="71" height="22"></rect>
<a xlink:href="#/abap/expression/Source"><text x="477" y="155">Source</text>
</a>
</g>
</g>
<path d="M563.5 151a10 10 0 0 0 10 -10v-110"></path>
<path d="M340.5 31v140a10 10 0 0 0 10 10"></path>
<g>
<path d="M350.5 181h0"></path>
<path d="M504 181h59.5"></path>
<g class="terminal">
<path d="M350.5 181h0"></path>
<path d="M413 181h0"></path>
<rect x="350.5" y="170" width="62.5" height="22" rx="10" ry="10"></rect>
<text x="381.75" y="185">"CPI"</text>
</g>
<path d="M413 181h10"></path>
<path d="M423 181h10"></path>
<g class="non-terminal">
<path d="M433 181h0"></path>
<path d="M504 181h0"></path>
<rect x="433" y="170" width="71" height="22"></rect>
<a xlink:href="#/abap/expression/Source"><text x="468.5" y="185">Source</text>
</a>
</g>
</g>
<path d="M563.5 181a10 10 0 0 0 10 -10v-140"></path>
<path d="M340.5 31v170a10 10 0 0 0 10 10"></path>
<g>
<path d="M350.5 211h0"></path>
<path d="M504 211h59.5"></path>
<g class="terminal">
<path d="M350.5 211h0"></path>
<path d="M413 211h0"></path>
<rect x="350.5" y="200" width="62.5" height="22" rx="10" ry="10"></rect>
<text x="381.75" y="215">"LPI"</text>
</g>
<path d="M413 211h10"></path>
<path d="M423 211h10"></path>
<g class="non-terminal">
<path d="M433 211h0"></path>
<path d="M504 211h0"></path>
<rect x="433" y="200" width="71" height="22"></rect>
<a xlink:href="#/abap/expression/Source"><text x="468.5" y="215">Source</text>
</a>
</g>
</g>
<path d="M563.5 211a10 10 0 0 0 10 -10v-170"></path>
<path d="M340.5 31v200a10 10 0 0 0 10 10"></path>
<g>
<path d="M350.5 241h0"></path>
<path d="M512.5 241h51"></path>
<g class="terminal">
<path d="M350.5 241h0"></path>
<path d="M421.5 241h0"></path>
<rect x="350.5" y="230" width="71" height="22" rx="10" ry="10"></rect>
<text x="386" y="245">"FONT"</text>
</g>
<path d="M421.5 241h10"></path>
<path d="M431.5 241h10"></path>
<g class="non-terminal">
<path d="M441.5 241h0"></path>
<path d="M512.5 241h0"></path>
<rect x="441.5" y="230" width="71" height="22"></rect>
<a xlink:href="#/abap/expression/Source"><text x="477" y="245">Source</text>
</a>
</g>
</g>
<path d="M563.5 241a10 10 0 0 0 10 -10v-200"></path>
<g class="diagram-text">
<title>take one or more branches, once each, in any order</title>
<path d="M 340.5 21 h -26 a 4 4 0 0 0 -4 4 v 12 a 4 4 0 0 0 4 4 h 26 z" class="diagram-text"></path>
<text x="325.5" y="35" class="diagram-text">1+</text>
<path d="M 573.5 21 h 16 a 4 4 0 0 1 4 4 v 12 a 4 4 0 0 1 -4 4 h -16 z" class="diagram-text"></path>
<path d="M 580.5 29 a 4 4 0 1 0 6 -1 m 2.75 -1 h -4 v 4 m 0 -3 h 2" style="stroke-width: 1.75"></path>
</g>
</g>
</g>
</g>
<path d="M593.5 31h10"></path>
<path d="M 603.5 31 h 20 m -10 -10 v 20 m 10 -20 v 20"></path>
</g>
</svg>
