<svg xmlns="http://www.w3.org/2000/svg" xmlns:xlink="http://www.w3.org/1999/xlink" class="railroad-diagram" width="745.5" height="71" viewBox="0 0 745.5 71">
<defs>
<style type="text/css"><![CDATA[
path {
stroke-width: 3;
stroke: black;
fill: rgba(0,0,0,0);
}
text {
font: bold 14px monospace;
text-anchor: middle;
}
text.diagram-text {
font-size: 12px;
}
a {
fill: blue;
}
text.diagram-arrow {
font-size: 16px;
}
text.label {
text-anchor: start;
}
text.comment {
font: italic 12px monospace;
}
rect {
stroke-width: 3;
stroke: black;
fill: #BCBCBC;
}
path.diagram-text {
stroke-width: 3;
stroke: black;
fill: #BCBCBC;
cursor: help;
}
]]></style>
</defs>
<g transform="translate(.5 .5)">
<g>
<path d="M20 30v20m10 -20v20m-10 -10h20"></path>
</g>
<path d="M40 40h10"></path>
<g>
<path d="M50 40h0"></path>
<path d="M695.5 40h0"></path>
<g class="terminal">
<path d="M50 40h0"></path>
<path d="M129.5 40h0"></path>
<rect x="50" y="29" width="79.5" height="22" rx="10" ry="10"></rect>
<text x="89.75" y="44">"TYPES"</text>
</g>
<path d="M129.5 40h10"></path>
<path d="M139.5 40h10"></path>
<g class="terminal">
<path d="M149.5 40h0"></path>
<path d="M254.5 40h0"></path>
<rect x="149.5" y="29" width="105" height="22" rx="10" ry="10"></rect>
<text x="202" y="44">"BEGIN OF"</text>
</g>
<path d="M254.5 40h10"></path>
<path d="M264.5 40h10"></path>
<g class="non-terminal">
<path d="M274.5 40h0"></path>
<path d="M456 40h0"></path>
<rect x="274.5" y="29" width="181.5" height="22"></rect>
<a xlink:href="#/abap/expression/NamespaceSimpleName"><text x="365.25" y="44">NamespaceSimpleName</text>
</a>
</g>
<path d="M456 40h10"></path>
<g>
<path d="M466 40h0"></path>
<path d="M695.5 40h0"></path>
<path d="M466 40a10 10 0 0 0 10 -10v0a10 10 0 0 1 10 -10"></path>
<g>
<path d="M486 20h189.5"></path>
</g>
<path d="M675.5 20a10 10 0 0 1 10 10v0a10 10 0 0 0 10 10"></path>
<path d="M466 40h20"></path>
<g>
<path d="M486 40h0"></path>
<path d="M675.5 40h0"></path>
<g>
<path d="M486 40h0"></path>
<path d="M559 40h0"></path>
<text x="522.5" y="45" class="comment">not Cloud</text>
</g>
<path d="M559 40h10"></path>
<path d="M569 40h10"></path>
<g class="terminal">
<path d="M579 40h0"></path>
<path d="M675.5 40h0"></path>
<rect x="579" y="29" width="96.5" height="22" rx="10" ry="10"></rect>
<text x="627.25" y="44">"%&#95;FINAL"</text>
</g>
</g>
<path d="M675.5 40h20"></path>
</g>
</g>
<path d="M695.5 40h10"></path>
<path d="M 705.5 40 h 20 m -10 -10 v 20 m 10 -20 v 20"></path>
</g>
</svg>
