<svg xmlns="http://www.w3.org/2000/svg" xmlns:xlink="http://www.w3.org/1999/xlink" class="railroad-diagram" width="2460" height="380" viewBox="0 0 2460 380">
<defs>
<style type="text/css"><![CDATA[
path {
stroke-width: 3;
stroke: black;
fill: rgba(0,0,0,0);
}
text {
font: bold 14px monospace;
text-anchor: middle;
}
text.diagram-text {
font-size: 12px;
}
a {
fill: blue;
}
text.diagram-arrow {
font-size: 16px;
}
text.label {
text-anchor: start;
}
text.comment {
font: italic 12px monospace;
}
rect {
stroke-width: 3;
stroke: black;
fill: #BCBCBC;
}
path.diagram-text {
stroke-width: 3;
stroke: black;
fill: #BCBCBC;
cursor: help;
}
]]></style>
</defs>
<g transform="translate(.5 .5)">
<g>
<path d="M20 30v20m10 -20v20m-10 -10h20"></path>
</g>
<path d="M40 40h10"></path>
<g>
<path d="M50 40h0"></path>
<path d="M2410 40h0"></path>
<g class="terminal ">
<path d="M50 40h0"></path>
<path d="M138 40h0"></path>
<rect x="50" y="29" width="88" height="22" rx="10" ry="10"></rect>
<text x="94" y="44">"IMPORT"</text>
</g>
<path d="M138 40h10"></path>
<g>
<path d="M148 40h0"></path>
<path d="M600 40h0"></path>
<path d="M148 40h20"></path>
<g>
<path d="M168 40h7.75"></path>
<path d="M572.25 40h7.75"></path>
<path d="M175.75 40h10"></path>
<g>
<path d="M185.75 40h0"></path>
<path d="M562.25 40h0"></path>
<g>
<path d="M185.75 40h0"></path>
<path d="M415.75 40h0"></path>
<path d="M185.75 40h20"></path>
<g class="non-terminal ">
<path d="M205.75 40h0"></path>
<path d="M395.75 40h0"></path>
<rect x="205.75" y="29" width="190" height="22"></rect>
<a xlink:href="#/abap/expression/ComponentChainSimple"><text x="300.75" y="44">ComponentChainSimple</text>
</a>
</g>
<path d="M395.75 40h20"></path>
<path d="M185.75 40a10 10 0 0 1 10 10v10a10 10 0 0 0 10 10"></path>
<g class="non-terminal ">
<path d="M205.75 70h38.25"></path>
<path d="M357.5 70h38.25"></path>
<rect x="244" y="59" width="113.5" height="22"></rect>
<a xlink:href="#/abap/expression/FieldSymbol"><text x="300.75" y="74">FieldSymbol</text>
</a>
</g>
<path d="M395.75 70a10 10 0 0 0 10 -10v-10a10 10 0 0 1 10 -10"></path>
</g>
<path d="M415.75 40h10"></path>
<g class="terminal ">
<path d="M425.75 40h0"></path>
<path d="M471.25 40h0"></path>
<rect x="425.75" y="29" width="45.5" height="22" rx="10" ry="10"></rect>
<text x="448.5" y="44">"="</text>
</g>
<path d="M471.25 40h10"></path>
<path d="M481.25 40h10"></path>
<g class="non-terminal ">
<path d="M491.25 40h0"></path>
<path d="M562.25 40h0"></path>
<rect x="491.25" y="29" width="71" height="22"></rect>
<a xlink:href="#/abap/expression/Target"><text x="526.75" y="44">Target</text>
</a>
</g>
</g>
<path d="M562.25 40h10"></path>
<path d="M185.75 40a10 10 0 0 0 -10 10v29a10 10 0 0 0 10 10"></path>
<g>
<path d="M185.75 89h376.5"></path>
</g>
<path d="M562.25 89a10 10 0 0 0 10 -10v-29a10 10 0 0 0 -10 -10"></path>
</g>
<path d="M580 40h20"></path>
<path d="M148 40a10 10 0 0 1 10 10v48a10 10 0 0 0 10 10"></path>
<g>
<path d="M168 108h0"></path>
<path d="M580 108h0"></path>
<path d="M168 108h10"></path>
<g>
<path d="M178 108h0"></path>
<path d="M570 108h0"></path>
<g class="non-terminal ">
<path d="M178 108h0"></path>
<path d="M368 108h0"></path>
<rect x="178" y="97" width="190" height="22"></rect>
<a xlink:href="#/abap/expression/ComponentChainSimple"><text x="273" y="112">ComponentChainSimple</text>
</a>
</g>
<path d="M368 108h10"></path>
<g>
<path d="M378 108h0"></path>
<path d="M489 108h0"></path>
<path d="M378 108h20"></path>
<g class="terminal ">
<path d="M398 108h8.5"></path>
<path d="M460.5 108h8.5"></path>
<rect x="406.5" y="97" width="54" height="22" rx="10" ry="10"></rect>
<text x="433.5" y="112">"TO"</text>
</g>
<path d="M469 108h20"></path>
<path d="M378 108a10 10 0 0 1 10 10v10a10 10 0 0 0 10 10"></path>
<g class="terminal ">
<path d="M398 138h0"></path>
<path d="M469 138h0"></path>
<rect x="398" y="127" width="71" height="22" rx="10" ry="10"></rect>
<text x="433.5" y="142">"INTO"</text>
</g>
<path d="M469 138a10 10 0 0 0 10 -10v-10a10 10 0 0 1 10 -10"></path>
</g>
<path d="M489 108h10"></path>
<g class="non-terminal ">
<path d="M499 108h0"></path>
<path d="M570 108h0"></path>
<rect x="499" y="97" width="71" height="22"></rect>
<a xlink:href="#/abap/expression/Target"><text x="534.5" y="112">Target</text>
</a>
</g>
</g>
<path d="M570 108h10"></path>
<path d="M178 108a10 10 0 0 0 -10 10v29a10 10 0 0 0 10 10"></path>
<g>
<path d="M178 157h392"></path>
</g>
<path d="M570 157a10 10 0 0 0 10 -10v-29a10 10 0 0 0 -10 -10"></path>
</g>
<path d="M580 108a10 10 0 0 0 10 -10v-48a10 10 0 0 1 10 -10"></path>
<path d="M148 40a10 10 0 0 1 10 10v116a10 10 0 0 0 10 10"></path>
<g class="non-terminal ">
<path d="M168 176h166.25"></path>
<path d="M413.75 176h166.25"></path>
<rect x="334.25" y="165" width="79.5" height="22"></rect>
<a xlink:href="#/abap/expression/Dynamic"><text x="374" y="180">Dynamic</text>
</a>
</g>
<path d="M580 176a10 10 0 0 0 10 -10v-116a10 10 0 0 1 10 -10"></path>
<path d="M148 40a10 10 0 0 1 10 10v146a10 10 0 0 0 10 10"></path>
<g>
<path d="M168 206h160.5"></path>
<path d="M419.5 206h160.5"></path>
<path d="M328.5 206h10"></path>
<g class="non-terminal ">
<path d="M338.5 206h0"></path>
<path d="M409.5 206h0"></path>
<rect x="338.5" y="195" width="71" height="22"></rect>
<a xlink:href="#/abap/expression/Target"><text x="374" y="210">Target</text>
</a>
</g>
<path d="M409.5 206h10"></path>
<path d="M338.5 206a10 10 0 0 0 -10 10v0a10 10 0 0 0 10 10"></path>
<g>
<path d="M338.5 226h71"></path>
</g>
<path d="M409.5 226a10 10 0 0 0 10 -10v0a10 10 0 0 0 -10 -10"></path>
</g>
<path d="M580 206a10 10 0 0 0 10 -10v-146a10 10 0 0 1 10 -10"></path>
</g>
<path d="M600 40h10"></path>
<g class="terminal ">
<path d="M610 40h0"></path>
<path d="M681 40h0"></path>
<rect x="610" y="29" width="71" height="22" rx="10" ry="10"></rect>
<text x="645.5" y="44">"FROM"</text>
</g>
<path d="M681 40h10"></path>
<g>
<path d="M691 40h0"></path>
<path d="M1993.5 40h0"></path>
<path d="M691 40h20"></path>
<g>
<path d="M711 40h520.5"></path>
<path d="M1453 40h520.5"></path>
<g class="terminal ">
<path d="M1231.5 40h0"></path>
<path d="M1362 40h0"></path>
<rect x="1231.5" y="29" width="130.5" height="22" rx="10" ry="10"></rect>
<text x="1296.75" y="44">"DATA BUFFER"</text>
</g>
<path d="M1362 40h10"></path>
<path d="M1372 40h10"></path>
<g class="non-terminal ">
<path d="M1382 40h0"></path>
<path d="M1453 40h0"></path>
<rect x="1382" y="29" width="71" height="22"></rect>
<a xlink:href="#/abap/expression/Source"><text x="1417.5" y="44">Source</text>
</a>
</g>
</g>
<path d="M1973.5 40h20"></path>
<path d="M691 40a10 10 0 0 1 10 10v19a10 10 0 0 0 10 10"></path>
<g>
<path d="M711 79h408.25"></path>
<path d="M1565.25 79h408.25"></path>
<g class="comment ">
<path d="M1119.25 79h0"></path>
<path d="M1262.25 79h0"></path>
<text x="1190.75" y="84" class="comment">not langver=KeyUser</text>
</g>
<path d="M1262.25 79h10"></path>
<path d="M1272.25 79h10"></path>
<g>
<path d="M1282.25 79h0"></path>
<path d="M1565.25 79h0"></path>
<g class="terminal ">
<path d="M1282.25 79h0"></path>
<path d="M1370.25 79h0"></path>
<rect x="1282.25" y="68" width="88" height="22" rx="10" ry="10"></rect>
<text x="1326.25" y="83">"MEMORY"</text>
</g>
<path d="M1370.25 79h10"></path>
<g>
<path d="M1380.25 79h0"></path>
<path d="M1565.25 79h0"></path>
<path d="M1380.25 79a10 10 0 0 0 10 -10v0a10 10 0 0 1 10 -10"></path>
<g>
<path d="M1400.25 59h145"></path>
</g>
<path d="M1545.25 59a10 10 0 0 1 10 10v0a10 10 0 0 0 10 10"></path>
<path d="M1380.25 79h20"></path>
<g>
<path d="M1400.25 79h0"></path>
<path d="M1545.25 79h0"></path>
<g class="terminal ">
<path d="M1400.25 79h0"></path>
<path d="M1454.25 79h0"></path>
<rect x="1400.25" y="68" width="54" height="22" rx="10" ry="10"></rect>
<text x="1427.25" y="83">"ID"</text>
</g>
<path d="M1454.25 79h10"></path>
<path d="M1464.25 79h10"></path>
<g class="non-terminal ">
<path d="M1474.25 79h0"></path>
<path d="M1545.25 79h0"></path>
<rect x="1474.25" y="68" width="71" height="22"></rect>
<a xlink:href="#/abap/expression/Source"><text x="1509.75" y="83">Source</text>
</a>
</g>
</g>
<path d="M1545.25 79h20"></path>
</g>
</g>
</g>
<path d="M1973.5 79a10 10 0 0 0 10 -10v-19a10 10 0 0 1 10 -10"></path>
<path d="M691 40a10 10 0 0 1 10 10v49a10 10 0 0 0 10 10"></path>
<g>
<path d="M711 109h36.25"></path>
<path d="M1937.25 109h36.25"></path>
<g class="comment ">
<path d="M747.25 109h0"></path>
<path d="M890.25 109h0"></path>
<text x="818.75" y="114" class="comment">not langver=KeyUser</text>
</g>
<path d="M890.25 109h10"></path>
<path d="M900.25 109h10"></path>
<g>
<path d="M910.25 109h0"></path>
<path d="M1937.25 109h0"></path>
<g class="terminal ">
<path d="M910.25 109h0"></path>
<path d="M1015.25 109h0"></path>
<rect x="910.25" y="98" width="105" height="22" rx="10" ry="10"></rect>
<text x="962.75" y="113">"DATABASE"</text>
</g>
<path d="M1015.25 109h10"></path>
<path d="M1025.25 109h10"></path>
<g>
<path d="M1035.25 109h0"></path>
<path d="M1668.25 109h0"></path>
<g class="non-terminal ">
<path d="M1035.25 109h0"></path>
<path d="M1216.75 109h0"></path>
<rect x="1035.25" y="98" width="181.5" height="22"></rect>
<a xlink:href="#/abap/expression/NamespaceSimpleName"><text x="1126" y="113">NamespaceSimpleName</text>
</a>
</g>
<path d="M1216.75 109h10"></path>
<path d="M1226.75 109h10"></path>
<g class="terminal ">
<path d="M1236.75 109h0"></path>
<path d="M1358.75 109h0"></path>
<rect x="1236.75" y="98" width="122" height="22" rx="10" ry="10"></rect>
<text x="1297.75" y="113">!"ParenLeft"</text>
</g>
<path d="M1358.75 109h10"></path>
<path d="M1368.75 109h10"></path>
<g class="terminal ">
<path d="M1378.75 109h0"></path>
<path d="M1509.25 109h0"></path>
<rect x="1378.75" y="98" width="130.5" height="22" rx="10" ry="10"></rect>
<text x="1444" y="113">^&#91;\w$%\^&#93;{2}$</text>
</g>
<path d="M1509.25 109h10"></path>
<path d="M1519.25 109h10"></path>
<g class="terminal ">
<path d="M1529.25 109h0"></path>
<path d="M1668.25 109h0"></path>
<rect x="1529.25" y="98" width="139" height="22" rx="10" ry="10"></rect>
<text x="1598.75" y="113">!"ParenRightW"</text>
</g>
</g>
<path d="M1668.25 109h10"></path>
<path d="M1678.25 109h10"></path>
<g>
<path d="M1688.25 109h0"></path>
<path d="M1937.25 109h0"></path>
<path d="M1718.25 109h10"></path>
<g>
<path d="M1728.25 109h17"></path>
<path d="M1890.25 109h17"></path>
<g class="terminal ">
<path d="M1745.25 109h0"></path>
<path d="M1799.25 109h0"></path>
<rect x="1745.25" y="98" width="54" height="22" rx="10" ry="10"></rect>
<text x="1772.25" y="113">"TO"</text>
</g>
<path d="M1799.25 109h10"></path>
<path d="M1809.25 109h10"></path>
<g class="non-terminal ">
<path d="M1819.25 109h0"></path>
<path d="M1890.25 109h0"></path>
<rect x="1819.25" y="98" width="71" height="22"></rect>
<a xlink:href="#/abap/expression/Target"><text x="1854.75" y="113">Target</text>
</a>
</g>
</g>
<path d="M1907.25 109h10"></path>
<path d="M1718.25 109v20a10 10 0 0 0 10 10"></path>
<g>
<path d="M1728.25 139h0"></path>
<path d="M1907.25 139h0"></path>
<g class="terminal ">
<path d="M1728.25 139h0"></path>
<path d="M1816.25 139h0"></path>
<rect x="1728.25" y="128" width="88" height="22" rx="10" ry="10"></rect>
<text x="1772.25" y="143">"CLIENT"</text>
</g>
<path d="M1816.25 139h10"></path>
<path d="M1826.25 139h10"></path>
<g class="non-terminal ">
<path d="M1836.25 139h0"></path>
<path d="M1907.25 139h0"></path>
<rect x="1836.25" y="128" width="71" height="22"></rect>
<a xlink:href="#/abap/expression/Source"><text x="1871.75" y="143">Source</text>
</a>
</g>
</g>
<path d="M1907.25 139a10 10 0 0 0 10 -10v-20"></path>
<path d="M1718.25 109v50a10 10 0 0 0 10 10"></path>
<g>
<path d="M1728.25 169h17"></path>
<path d="M1890.25 169h17"></path>
<g class="terminal ">
<path d="M1745.25 169h0"></path>
<path d="M1799.25 169h0"></path>
<rect x="1745.25" y="158" width="54" height="22" rx="10" ry="10"></rect>
<text x="1772.25" y="173">"ID"</text>
</g>
<path d="M1799.25 169h10"></path>
<path d="M1809.25 169h10"></path>
<g class="non-terminal ">
<path d="M1819.25 169h0"></path>
<path d="M1890.25 169h0"></path>
<rect x="1819.25" y="158" width="71" height="22"></rect>
<a xlink:href="#/abap/expression/Source"><text x="1854.75" y="173">Source</text>
</a>
</g>
</g>
<path d="M1907.25 169a10 10 0 0 0 10 -10v-50"></path>
<path d="M1718.25 109v80a10 10 0 0 0 10 10"></path>
<g>
<path d="M1728.25 199h4.25"></path>
<path d="M1903 199h4.25"></path>
<g class="terminal ">
<path d="M1732.5 199h0"></path>
<path d="M1812 199h0"></path>
<rect x="1732.5" y="188" width="79.5" height="22" rx="10" ry="10"></rect>
<text x="1772.25" y="203">"USING"</text>
</g>
<path d="M1812 199h10"></path>
<path d="M1822 199h10"></path>
<g class="non-terminal ">
<path d="M1832 199h0"></path>
<path d="M1903 199h0"></path>
<rect x="1832" y="188" width="71" height="22"></rect>
<a xlink:href="#/abap/expression/Source"><text x="1867.5" y="203">Source</text>
</a>
</g>
</g>
<path d="M1907.25 199a10 10 0 0 0 10 -10v-80"></path>
<g class="diagram-text">
<title>take one or more branches, once each, in any order</title>
<path d="M 1718.25 99 h -26 a 4 4 0 0 0 -4 4 v 12 a 4 4 0 0 0 4 4 h 26 z" class="diagram-text"></path>
<text x="1703.25" y="113" class="diagram-text">1+</text>
<path d="M 1917.25 99 h 16 a 4 4 0 0 1 4 4 v 12 a 4 4 0 0 1 -4 4 h -16 z" class="diagram-text"></path>
<path d="M 1924.25 107 a 4 4 0 1 0 6 -1 m 2.75 -1 h -4 v 4 m 0 -3 h 2" style="stroke-width: 1.75"></path>
</g>
</g>
</g>
</g>
<path d="M1973.5 109a10 10 0 0 0 10 -10v-49a10 10 0 0 1 10 -10"></path>
<path d="M691 40a10 10 0 0 1 10 10v169a10 10 0 0 0 10 10"></path>
<g>
<path d="M711 229h507.75"></path>
<path d="M1465.75 229h507.75"></path>
<g class="terminal ">
<path d="M1218.75 229h0"></path>
<path d="M1374.75 229h0"></path>
<rect x="1218.75" y="218" width="156" height="22" rx="10" ry="10"></rect>
<text x="1296.75" y="233">"INTERNAL TABLE"</text>
</g>
<path d="M1374.75 229h10"></path>
<path d="M1384.75 229h10"></path>
<g class="non-terminal ">
<path d="M1394.75 229h0"></path>
<path d="M1465.75 229h0"></path>
<rect x="1394.75" y="218" width="71" height="22"></rect>
<a xlink:href="#/abap/expression/Source"><text x="1430.25" y="233">Source</text>
</a>
</g>
</g>
<path d="M1973.5 229a10 10 0 0 0 10 -10v-169a10 10 0 0 1 10 -10"></path>
<path d="M691 40a10 10 0 0 1 10 10v199a10 10 0 0 0 10 10"></path>
<g>
<path d="M711 259h0"></path>
<path d="M1973.5 259h0"></path>
<g class="comment ">
<path d="M711 259h0"></path>
<path d="M854 259h0"></path>
<text x="782.5" y="264" class="comment">not langver=KeyUser</text>
</g>
<path d="M854 259h10"></path>
<path d="M864 259h10"></path>
<g>
<path d="M874 259h0"></path>
<path d="M1973.5 259h0"></path>
<g>
<path d="M874 259h0"></path>
<path d="M1061.5 259h0"></path>
<path d="M874 259h20"></path>
<g class="terminal ">
<path d="M894 259h0"></path>
<path d="M1041.5 259h0"></path>
<rect x="894" y="248" width="147.5" height="22" rx="10" ry="10"></rect>
<text x="967.75" y="263">"SHARED MEMORY"</text>
</g>
<path d="M1041.5 259h20"></path>
<path d="M874 259a10 10 0 0 1 10 10v10a10 10 0 0 0 10 10"></path>
<g class="terminal ">
<path d="M894 289h0"></path>
<path d="M1041.5 289h0"></path>
<rect x="894" y="278" width="147.5" height="22" rx="10" ry="10"></rect>
<text x="967.75" y="293">"SHARED BUFFER"</text>
</g>
<path d="M1041.5 289a10 10 0 0 0 10 -10v-10a10 10 0 0 1 10 -10"></path>
</g>
<path d="M1061.5 259h10"></path>
<g>
<path d="M1071.5 259h0"></path>
<path d="M1704.5 259h0"></path>
<g class="non-terminal ">
<path d="M1071.5 259h0"></path>
<path d="M1253 259h0"></path>
<rect x="1071.5" y="248" width="181.5" height="22"></rect>
<a xlink:href="#/abap/expression/NamespaceSimpleName"><text x="1162.25" y="263">NamespaceSimpleName</text>
</a>
</g>
<path d="M1253 259h10"></path>
<path d="M1263 259h10"></path>
<g class="terminal ">
<path d="M1273 259h0"></path>
<path d="M1395 259h0"></path>
<rect x="1273" y="248" width="122" height="22" rx="10" ry="10"></rect>
<text x="1334" y="263">!"ParenLeft"</text>
</g>
<path d="M1395 259h10"></path>
<path d="M1405 259h10"></path>
<g class="terminal ">
<path d="M1415 259h0"></path>
<path d="M1545.5 259h0"></path>
<rect x="1415" y="248" width="130.5" height="22" rx="10" ry="10"></rect>
<text x="1480.25" y="263">^&#91;\w$%\^&#93;{2}$</text>
</g>
<path d="M1545.5 259h10"></path>
<path d="M1555.5 259h10"></path>
<g class="terminal ">
<path d="M1565.5 259h0"></path>
<path d="M1704.5 259h0"></path>
<rect x="1565.5" y="248" width="139" height="22" rx="10" ry="10"></rect>
<text x="1635" y="263">!"ParenRightW"</text>
</g>
</g>
<path d="M1704.5 259h10"></path>
<path d="M1714.5 259h10"></path>
<g>
<path d="M1724.5 259h0"></path>
<path d="M1973.5 259h0"></path>
<path d="M1754.5 259h10"></path>
<g>
<path d="M1764.5 259h17"></path>
<path d="M1926.5 259h17"></path>
<g class="terminal ">
<path d="M1781.5 259h0"></path>
<path d="M1835.5 259h0"></path>
<rect x="1781.5" y="248" width="54" height="22" rx="10" ry="10"></rect>
<text x="1808.5" y="263">"TO"</text>
</g>
<path d="M1835.5 259h10"></path>
<path d="M1845.5 259h10"></path>
<g class="non-terminal ">
<path d="M1855.5 259h0"></path>
<path d="M1926.5 259h0"></path>
<rect x="1855.5" y="248" width="71" height="22"></rect>
<a xlink:href="#/abap/expression/Target"><text x="1891" y="263">Target</text>
</a>
</g>
</g>
<path d="M1943.5 259h10"></path>
<path d="M1754.5 259v20a10 10 0 0 0 10 10"></path>
<g>
<path d="M1764.5 289h0"></path>
<path d="M1943.5 289h0"></path>
<g class="terminal ">
<path d="M1764.5 289h0"></path>
<path d="M1852.5 289h0"></path>
<rect x="1764.5" y="278" width="88" height="22" rx="10" ry="10"></rect>
<text x="1808.5" y="293">"CLIENT"</text>
</g>
<path d="M1852.5 289h10"></path>
<path d="M1862.5 289h10"></path>
<g class="non-terminal ">
<path d="M1872.5 289h0"></path>
<path d="M1943.5 289h0"></path>
<rect x="1872.5" y="278" width="71" height="22"></rect>
<a xlink:href="#/abap/expression/Source"><text x="1908" y="293">Source</text>
</a>
</g>
</g>
<path d="M1943.5 289a10 10 0 0 0 10 -10v-20"></path>
<path d="M1754.5 259v50a10 10 0 0 0 10 10"></path>
<g>
<path d="M1764.5 319h17"></path>
<path d="M1926.5 319h17"></path>
<g class="terminal ">
<path d="M1781.5 319h0"></path>
<path d="M1835.5 319h0"></path>
<rect x="1781.5" y="308" width="54" height="22" rx="10" ry="10"></rect>
<text x="1808.5" y="323">"ID"</text>
</g>
<path d="M1835.5 319h10"></path>
<path d="M1845.5 319h10"></path>
<g class="non-terminal ">
<path d="M1855.5 319h0"></path>
<path d="M1926.5 319h0"></path>
<rect x="1855.5" y="308" width="71" height="22"></rect>
<a xlink:href="#/abap/expression/Source"><text x="1891" y="323">Source</text>
</a>
</g>
</g>
<path d="M1943.5 319a10 10 0 0 0 10 -10v-50"></path>
<g class="diagram-text">
<title>take one or more branches, once each, in any order</title>
<path d="M 1754.5 249 h -26 a 4 4 0 0 0 -4 4 v 12 a 4 4 0 0 0 4 4 h 26 z" class="diagram-text"></path>
<text x="1739.5" y="263" class="diagram-text">1+</text>
<path d="M 1953.5 249 h 16 a 4 4 0 0 1 4 4 v 12 a 4 4 0 0 1 -4 4 h -16 z" class="diagram-text"></path>
<path d="M 1960.5 257 a 4 4 0 1 0 6 -1 m 2.75 -1 h -4 v 4 m 0 -3 h 2" style="stroke-width: 1.75"></path>
</g>
</g>
</g>
</g>
<path d="M1973.5 259a10 10 0 0 0 10 -10v-199a10 10 0 0 1 10 -10"></path>
<path d="M691 40a10 10 0 0 1 10 10v289a10 10 0 0 0 10 10"></path>
<g>
<path d="M711 349h443.25"></path>
<path d="M1530.25 349h443.25"></path>
<g class="comment ">
<path d="M1154.25 349h0"></path>
<path d="M1297.25 349h0"></path>
<text x="1225.75" y="354" class="comment">not langver=KeyUser</text>
</g>
<path d="M1297.25 349h10"></path>
<path d="M1307.25 349h10"></path>
<g>
<path d="M1317.25 349h0"></path>
<path d="M1530.25 349h0"></path>
<g class="terminal ">
<path d="M1317.25 349h0"></path>
<path d="M1439.25 349h0"></path>
<rect x="1317.25" y="338" width="122" height="22" rx="10" ry="10"></rect>
<text x="1378.25" y="353">"LOGFILE ID"</text>
</g>
<path d="M1439.25 349h10"></path>
<path d="M1449.25 349h10"></path>
<g class="non-terminal ">
<path d="M1459.25 349h0"></path>
<path d="M1530.25 349h0"></path>
<rect x="1459.25" y="338" width="71" height="22"></rect>
<a xlink:href="#/abap/expression/Source"><text x="1494.75" y="353">Source</text>
</a>
</g>
</g>
</g>
<path d="M1973.5 349a10 10 0 0 0 10 -10v-289a10 10 0 0 1 10 -10"></path>
</g>
<g>
<path d="M1993.5 40h0"></path>
<path d="M2410 40h0"></path>
<path d="M1993.5 40a10 10 0 0 0 10 -10v0a10 10 0 0 1 10 -10"></path>
<g>
<path d="M2013.5 20h376.5"></path>
</g>
<path d="M2390 20a10 10 0 0 1 10 10v0a10 10 0 0 0 10 10"></path>
<path d="M1993.5 40h20"></path>
<g>
<path d="M2013.5 40h0"></path>
<path d="M2390 40h0"></path>
<path d="M2043.5 40h10"></path>
<g class="terminal ">
<path d="M2053.5 40h62.5"></path>
<path d="M2297.5 40h62.5"></path>
<rect x="2116" y="29" width="181.5" height="22" rx="10" ry="10"></rect>
<text x="2206.75" y="44">"ACCEPTING PADDING"</text>
</g>
<path d="M2360 40h10"></path>
<path d="M2043.5 40v20a10 10 0 0 0 10 10"></path>
<g class="terminal ">
<path d="M2053.5 70h24.25"></path>
<path d="M2335.75 70h24.25"></path>
<rect x="2077.75" y="59" width="258" height="22" rx="10" ry="10"></rect>
<text x="2206.75" y="74">"IGNORING CONVERSION ERRORS"</text>
</g>
<path d="M2360 70a10 10 0 0 0 10 -10v-20"></path>
<path d="M2043.5 40v50a10 10 0 0 0 10 10"></path>
<g class="terminal ">
<path d="M2053.5 100h54"></path>
<path d="M2306 100h54"></path>
<rect x="2107.5" y="89" width="198.5" height="22" rx="10" ry="10"></rect>
<text x="2206.75" y="104">"IN CHAR-TO-HEX MODE"</text>
</g>
<path d="M2360 100a10 10 0 0 0 10 -10v-50"></path>
<path d="M2043.5 40v80a10 10 0 0 0 10 10"></path>
<g class="terminal ">
<path d="M2053.5 130h11.5"></path>
<path d="M2348.5 130h11.5"></path>
<rect x="2065" y="119" width="283.5" height="22" rx="10" ry="10"></rect>
<text x="2206.75" y="134">"IGNORING STRUCTURE BOUNDARIES"</text>
</g>
<path d="M2360 130a10 10 0 0 0 10 -10v-80"></path>
<path d="M2043.5 40v110a10 10 0 0 0 10 10"></path>
<g class="terminal ">
<path d="M2053.5 160h49.75"></path>
<path d="M2310.25 160h49.75"></path>
<rect x="2103.25" y="149" width="207" height="22" rx="10" ry="10"></rect>
<text x="2206.75" y="164">"ACCEPTING TRUNCATION"</text>
</g>
<path d="M2360 160a10 10 0 0 0 10 -10v-110"></path>
<path d="M2043.5 40v140a10 10 0 0 0 10 10"></path>
<g>
<path d="M2053.5 190h0"></path>
<path d="M2360 190h0"></path>
<g class="terminal ">
<path d="M2053.5 190h0"></path>
<path d="M2269 190h0"></path>
<rect x="2053.5" y="179" width="215.5" height="22" rx="10" ry="10"></rect>
<text x="2161.25" y="194">"REPLACEMENT CHARACTER"</text>
</g>
<path d="M2269 190h10"></path>
<path d="M2279 190h10"></path>
<g class="non-terminal ">
<path d="M2289 190h0"></path>
<path d="M2360 190h0"></path>
<rect x="2289" y="179" width="71" height="22"></rect>
<a xlink:href="#/abap/expression/Source"><text x="2324.5" y="194">Source</text>
</a>
</g>
</g>
<path d="M2360 190a10 10 0 0 0 10 -10v-140"></path>
<path d="M2043.5 40v170a10 10 0 0 0 10 10"></path>
<g>
<path d="M2053.5 220h29.75"></path>
<path d="M2330.25 220h29.75"></path>
<g class="terminal ">
<path d="M2083.25 220h0"></path>
<path d="M2239.25 220h0"></path>
<rect x="2083.25" y="209" width="156" height="22" rx="10" ry="10"></rect>
<text x="2161.25" y="224">"CODE PAGE INTO"</text>
</g>
<path d="M2239.25 220h10"></path>
<path d="M2249.25 220h10"></path>
<g class="non-terminal ">
<path d="M2259.25 220h0"></path>
<path d="M2330.25 220h0"></path>
<rect x="2259.25" y="209" width="71" height="22"></rect>
<a xlink:href="#/abap/expression/Source"><text x="2294.75" y="224">Source</text>
</a>
</g>
</g>
<path d="M2360 220a10 10 0 0 0 10 -10v-170"></path>
<path d="M2043.5 40v200a10 10 0 0 0 10 10"></path>
<g>
<path d="M2053.5 250h42.5"></path>
<path d="M2317.5 250h42.5"></path>
<g class="terminal ">
<path d="M2096 250h0"></path>
<path d="M2226.5 250h0"></path>
<rect x="2096" y="239" width="130.5" height="22" rx="10" ry="10"></rect>
<text x="2161.25" y="254">"ENDIAN INTO"</text>
</g>
<path d="M2226.5 250h10"></path>
<path d="M2236.5 250h10"></path>
<g class="non-terminal ">
<path d="M2246.5 250h0"></path>
<path d="M2317.5 250h0"></path>
<rect x="2246.5" y="239" width="71" height="22"></rect>
<a xlink:href="#/abap/expression/Source"><text x="2282" y="254">Source</text>
</a>
</g>
</g>
<path d="M2360 250a10 10 0 0 0 10 -10v-200"></path>
<g class="diagram-text">
<title>take one or more branches, once each, in any order</title>
<path d="M 2043.5 30 h -26 a 4 4 0 0 0 -4 4 v 12 a 4 4 0 0 0 4 4 h 26 z" class="diagram-text"></path>
<text x="2028.5" y="44" class="diagram-text">1+</text>
<path d="M 2370 30 h 16 a 4 4 0 0 1 4 4 v 12 a 4 4 0 0 1 -4 4 h -16 z" class="diagram-text"></path>
<path d="M 2377 38 a 4 4 0 1 0 6 -1 m 2.75 -1 h -4 v 4 m 0 -3 h 2" style="stroke-width: 1.75"></path>
</g>
</g>
<path d="M2390 40h20"></path>
</g>
</g>
<path d="M2410 40h10"></path>
<path d="M 2420 40 h 20 m -10 -10 v 20 m 10 -20 v 20"></path>
</g>
</svg>
