<svg xmlns="http://www.w3.org/2000/svg" xmlns:xlink="http://www.w3.org/1999/xlink" class="railroad-diagram" width="1292.5" height="71" viewBox="0 0 1292.5 71">
<defs>
<style type="text/css"><![CDATA[
path {
stroke-width: 3;
stroke: black;
fill: rgba(0,0,0,0);
}
text {
font: bold 14px monospace;
text-anchor: middle;
}
text.diagram-text {
font-size: 12px;
}
a {
fill: blue;
}
text.diagram-arrow {
font-size: 16px;
}
text.label {
text-anchor: start;
}
text.comment {
font: italic 12px monospace;
}
rect {
stroke-width: 3;
stroke: black;
fill: #BCBCBC;
}
path.diagram-text {
stroke-width: 3;
stroke: black;
fill: #BCBCBC;
cursor: help;
}
]]></style>
</defs>
<g transform="translate(.5 .5)">
<g>
<path d="M20 30v20m10 -20v20m-10 -10h20"></path>
</g>
<path d="M40 40h10"></path>
<g>
<path d="M50 40h0"></path>
<path d="M1242.5 40h0"></path>
<g class="comment ">
<path d="M50 40h0"></path>
<path d="M123 40h0"></path>
<text x="86.5" y="45" class="comment">not Cloud</text>
</g>
<path d="M123 40h10"></path>
<path d="M133 40h10"></path>
<g>
<path d="M143 40h0"></path>
<path d="M1242.5 40h0"></path>
<g class="terminal ">
<path d="M143 40h0"></path>
<path d="M273.5 40h0"></path>
<rect x="143" y="29" width="130.5" height="22" rx="10" ry="10"></rect>
<text x="208.25" y="44">"OPEN CURSOR"</text>
</g>
<path d="M273.5 40h10"></path>
<g>
<path d="M283.5 40h0"></path>
<path d="M437 40h0"></path>
<path d="M283.5 40a10 10 0 0 0 10 -10v0a10 10 0 0 1 10 -10"></path>
<g>
<path d="M303.5 20h113.5"></path>
</g>
<path d="M417 20a10 10 0 0 1 10 10v0a10 10 0 0 0 10 10"></path>
<path d="M283.5 40h20"></path>
<g class="terminal ">
<path d="M303.5 40h0"></path>
<path d="M417 40h0"></path>
<rect x="303.5" y="29" width="113.5" height="22" rx="10" ry="10"></rect>
<text x="360.25" y="44">"WITH HOLD"</text>
</g>
<path d="M417 40h20"></path>
</g>
<path d="M437 40h10"></path>
<g class="non-terminal ">
<path d="M447 40h0"></path>
<path d="M543.5 40h0"></path>
<rect x="447" y="29" width="96.5" height="22"></rect>
<a xlink:href="#/abap/expression/SQLTarget"><text x="495.25" y="44">SQLTarget</text>
</a>
</g>
<path d="M543.5 40h10"></path>
<path d="M553.5 40h10"></path>
<g class="terminal ">
<path d="M563.5 40h0"></path>
<path d="M626 40h0"></path>
<rect x="563.5" y="29" width="62.5" height="22" rx="10" ry="10"></rect>
<text x="594.75" y="44">"FOR"</text>
</g>
<path d="M626 40h10"></path>
<path d="M636 40h10"></path>
<g class="non-terminal ">
<path d="M646 40h0"></path>
<path d="M717 40h0"></path>
<rect x="646" y="29" width="71" height="22"></rect>
<a xlink:href="#/abap/expression/Select"><text x="681.5" y="44">Select</text>
</a>
</g>
<path d="M717 40h10"></path>
<g>
<path d="M727 40h0"></path>
<path d="M1097.5 40h0"></path>
<path d="M727 40a10 10 0 0 0 10 -10v0a10 10 0 0 1 10 -10"></path>
<g>
<path d="M747 20h330.5"></path>
</g>
<path d="M1077.5 20a10 10 0 0 1 10 10v0a10 10 0 0 0 10 10"></path>
<path d="M727 40h20"></path>
<g>
<path d="M747 40h0"></path>
<path d="M1077.5 40h0"></path>
<g class="comment ">
<path d="M747 40h0"></path>
<path d="M785 40h0"></path>
<text x="766" y="45" class="comment">v752</text>
</g>
<path d="M785 40h10"></path>
<path d="M795 40h10"></path>
<g>
<path d="M805 40h0"></path>
<path d="M1077.5 40h0"></path>
<g class="terminal ">
<path d="M805 40h0"></path>
<path d="M876 40h0"></path>
<rect x="805" y="29" width="71" height="22" rx="10" ry="10"></rect>
<text x="840.5" y="44">"WITH"</text>
</g>
<path d="M876 40h10"></path>
<path d="M886 40h10"></path>
<g class="non-terminal ">
<path d="M896 40h0"></path>
<path d="M1077.5 40h0"></path>
<rect x="896" y="29" width="181.5" height="22"></rect>
<a xlink:href="#/abap/expression/SQLPrivilegedAccess"><text x="986.75" y="44">SQLPrivilegedAccess</text>
</a>
</g>
</g>
</g>
<path d="M1077.5 40h20"></path>
</g>
<g>
<path d="M1097.5 40h0"></path>
<path d="M1242.5 40h0"></path>
<path d="M1097.5 40a10 10 0 0 0 10 -10v0a10 10 0 0 1 10 -10"></path>
<g>
<path d="M1117.5 20h105"></path>
</g>
<path d="M1222.5 20a10 10 0 0 1 10 10v0a10 10 0 0 0 10 10"></path>
<path d="M1097.5 40h20"></path>
<g class="non-terminal ">
<path d="M1117.5 40h0"></path>
<path d="M1222.5 40h0"></path>
<rect x="1117.5" y="29" width="105" height="22"></rect>
<a xlink:href="#/abap/expression/SQLOptions"><text x="1170" y="44">SQLOptions</text>
</a>
</g>
<path d="M1222.5 40h20"></path>
</g>
</g>
</g>
<path d="M1242.5 40h10"></path>
<path d="M 1252.5 40 h 20 m -10 -10 v 20 m 10 -20 v 20"></path>
</g>
</svg>
