<svg xmlns="http://www.w3.org/2000/svg" xmlns:xlink="http://www.w3.org/1999/xlink" class="railroad-diagram" width="1058" height="277" viewBox="0 0 1058 277">
<defs>
<style type="text/css"><![CDATA[
path {
stroke-width: 3;
stroke: black;
fill: rgba(0,0,0,0);
}
text {
font: bold 14px monospace;
text-anchor: middle;
}
text.diagram-text {
font-size: 12px;
}
a {
fill: blue;
}
text.diagram-arrow {
font-size: 16px;
}
text.label {
text-anchor: start;
}
text.comment {
font: italic 12px monospace;
}
rect {
stroke-width: 3;
stroke: black;
fill: #BCBCBC;
}
path.diagram-text {
stroke-width: 3;
stroke: black;
fill: #BCBCBC;
cursor: help;
}
]]></style>
</defs>
<g transform="translate(.5 .5)">
<g>
<path d="M20 38v20m10 -20v20m-10 -10h20"></path>
</g>
<path d="M40 48h10"></path>
<g>
<path d="M50 48h0"></path>
<path d="M1008 48h0"></path>
<g class="comment ">
<path d="M50 48h0"></path>
<path d="M179 48h0"></path>
<text x="114.5" y="53" class="comment">not langver=Cloud</text>
</g>
<path d="M179 48h10"></path>
<path d="M189 48h10"></path>
<g>
<path d="M199 48h0"></path>
<path d="M1008 48h0"></path>
<g class="terminal ">
<path d="M199 48h0"></path>
<path d="M278.5 48h0"></path>
<rect x="199" y="37" width="79.5" height="22" rx="10" ry="10"></rect>
<text x="238.75" y="52">"LEAVE"</text>
</g>
<path d="M278.5 48h10"></path>
<g>
<path d="M288.5 48h0"></path>
<path d="M1008 48h0"></path>
<path d="M288.5 48a10 10 0 0 0 10 -10v-8a10 10 0 0 1 10 -10"></path>
<g>
<path d="M308.5 20h679.5"></path>
</g>
<path d="M988 20a10 10 0 0 1 10 10v8a10 10 0 0 0 10 10"></path>
<path d="M288.5 48h20"></path>
<g>
<path d="M308.5 48h0"></path>
<path d="M988 48h0"></path>
<path d="M308.5 48h20"></path>
<g>
<path d="M328.5 48h75"></path>
<path d="M893 48h75"></path>
<g class="terminal ">
<path d="M403.5 48h0"></path>
<path d="M627.5 48h0"></path>
<rect x="403.5" y="37" width="224" height="22" rx="10" ry="10"></rect>
<text x="515.5" y="52">"TO CURRENT TRANSACTION"</text>
</g>
<path d="M627.5 48h10"></path>
<g>
<path d="M637.5 48h0"></path>
<path d="M893 48h0"></path>
<path d="M637.5 48a10 10 0 0 0 10 -10v0a10 10 0 0 1 10 -10"></path>
<g>
<path d="M657.5 28h215.5"></path>
</g>
<path d="M873 28a10 10 0 0 1 10 10v0a10 10 0 0 0 10 10"></path>
<path d="M637.5 48h20"></path>
<g class="terminal ">
<path d="M657.5 48h0"></path>
<path d="M873 48h0"></path>
<rect x="657.5" y="37" width="215.5" height="22" rx="10" ry="10"></rect>
<text x="765.25" y="52">"AND SKIP FIRST SCREEN"</text>
</g>
<path d="M873 48h20"></path>
</g>
</g>
<path d="M968 48h20"></path>
<path d="M308.5 48a10 10 0 0 1 10 10v19a10 10 0 0 0 10 10"></path>
<g>
<path d="M328.5 87h0"></path>
<path d="M968 87h0"></path>
<g>
<path d="M328.5 87h0"></path>
<path d="M422.5 87h0"></path>
<path d="M328.5 87a10 10 0 0 0 10 -10v0a10 10 0 0 1 10 -10"></path>
<g>
<path d="M348.5 67h54"></path>
</g>
<path d="M402.5 67a10 10 0 0 1 10 10v0a10 10 0 0 0 10 10"></path>
<path d="M328.5 87h20"></path>
<g class="terminal ">
<path d="M348.5 87h0"></path>
<path d="M402.5 87h0"></path>
<rect x="348.5" y="76" width="54" height="22" rx="10" ry="10"></rect>
<text x="375.5" y="91">"TO"</text>
</g>
<path d="M402.5 87h20"></path>
</g>
<path d="M422.5 87h10"></path>
<g class="terminal ">
<path d="M432.5 87h0"></path>
<path d="M597 87h0"></path>
<rect x="432.5" y="76" width="164.5" height="22" rx="10" ry="10"></rect>
<text x="514.75" y="91">"LIST-PROCESSING"</text>
</g>
<path d="M597 87h10"></path>
<g>
<path d="M607 87h0"></path>
<path d="M968 87h0"></path>
<path d="M607 87a10 10 0 0 0 10 -10v0a10 10 0 0 1 10 -10"></path>
<g>
<path d="M627 67h321"></path>
</g>
<path d="M948 67a10 10 0 0 1 10 10v0a10 10 0 0 0 10 10"></path>
<path d="M607 87h20"></path>
<g>
<path d="M627 87h0"></path>
<path d="M948 87h0"></path>
<g class="non-terminal ">
<path d="M627 87h0"></path>
<path d="M723.5 87h0"></path>
<rect x="627" y="76" width="96.5" height="22"></rect>
<a xlink:href="#/abap/expression/AndReturn"><text x="675.25" y="91">AndReturn</text>
</a>
</g>
<path d="M723.5 87h10"></path>
<path d="M733.5 87h10"></path>
<g class="terminal ">
<path d="M743.5 87h0"></path>
<path d="M857 87h0"></path>
<rect x="743.5" y="76" width="113.5" height="22" rx="10" ry="10"></rect>
<text x="800.25" y="91">"TO SCREEN"</text>
</g>
<path d="M857 87h10"></path>
<path d="M867 87h10"></path>
<g class="non-terminal ">
<path d="M877 87h0"></path>
<path d="M948 87h0"></path>
<rect x="877" y="76" width="71" height="22"></rect>
<a xlink:href="#/abap/expression/Source"><text x="912.5" y="91">Source</text>
</a>
</g>
</g>
<path d="M948 87h20"></path>
</g>
</g>
<path d="M968 87a10 10 0 0 0 10 -10v-19a10 10 0 0 1 10 -10"></path>
<path d="M308.5 48a10 10 0 0 1 10 10v49a10 10 0 0 0 10 10"></path>
<g class="terminal ">
<path d="M328.5 117h237.5"></path>
<path d="M730.5 117h237.5"></path>
<rect x="566" y="106" width="164.5" height="22" rx="10" ry="10"></rect>
<text x="648.25" y="121">"LIST-PROCESSING"</text>
</g>
<path d="M968 117a10 10 0 0 0 10 -10v-49a10 10 0 0 1 10 -10"></path>
<path d="M308.5 48a10 10 0 0 1 10 10v79a10 10 0 0 0 10 10"></path>
<g class="terminal ">
<path d="M328.5 147h275.75"></path>
<path d="M692.25 147h275.75"></path>
<rect x="604.25" y="136" width="88" height="22" rx="10" ry="10"></rect>
<text x="648.25" y="151">"SCREEN"</text>
</g>
<path d="M968 147a10 10 0 0 0 10 -10v-79a10 10 0 0 1 10 -10"></path>
<path d="M308.5 48a10 10 0 0 1 10 10v118a10 10 0 0 0 10 10"></path>
<g>
<path d="M328.5 186h63.5"></path>
<path d="M904.5 186h63.5"></path>
<g class="terminal ">
<path d="M392 186h0"></path>
<path d="M548 186h0"></path>
<rect x="392" y="175" width="156" height="22" rx="10" ry="10"></rect>
<text x="470" y="190">"TO TRANSACTION"</text>
</g>
<path d="M548 186h10"></path>
<path d="M558 186h10"></path>
<g class="non-terminal ">
<path d="M568 186h0"></path>
<path d="M639 186h0"></path>
<rect x="568" y="175" width="71" height="22"></rect>
<a xlink:href="#/abap/expression/Source"><text x="603.5" y="190">Source</text>
</a>
</g>
<path d="M639 186h10"></path>
<g>
<path d="M649 186h0"></path>
<path d="M904.5 186h0"></path>
<path d="M649 186a10 10 0 0 0 10 -10v0a10 10 0 0 1 10 -10"></path>
<g>
<path d="M669 166h215.5"></path>
</g>
<path d="M884.5 166a10 10 0 0 1 10 10v0a10 10 0 0 0 10 10"></path>
<path d="M649 186h20"></path>
<g class="terminal ">
<path d="M669 186h0"></path>
<path d="M884.5 186h0"></path>
<rect x="669" y="175" width="215.5" height="22" rx="10" ry="10"></rect>
<text x="776.75" y="190">"AND SKIP FIRST SCREEN"</text>
</g>
<path d="M884.5 186h20"></path>
</g>
</g>
<path d="M968 186a10 10 0 0 0 10 -10v-118a10 10 0 0 1 10 -10"></path>
<path d="M308.5 48a10 10 0 0 1 10 10v148a10 10 0 0 0 10 10"></path>
<g class="terminal ">
<path d="M328.5 216h271.5"></path>
<path d="M696.5 216h271.5"></path>
<rect x="600" y="205" width="96.5" height="22" rx="10" ry="10"></rect>
<text x="648.25" y="220">"PROGRAM"</text>
</g>
<path d="M968 216a10 10 0 0 0 10 -10v-148a10 10 0 0 1 10 -10"></path>
<path d="M308.5 48a10 10 0 0 1 10 10v178a10 10 0 0 0 10 10"></path>
<g>
<path d="M328.5 246h217.5"></path>
<path d="M750.5 246h217.5"></path>
<g class="terminal ">
<path d="M546 246h0"></path>
<path d="M659.5 246h0"></path>
<rect x="546" y="235" width="113.5" height="22" rx="10" ry="10"></rect>
<text x="602.75" y="250">"TO SCREEN"</text>
</g>
<path d="M659.5 246h10"></path>
<path d="M669.5 246h10"></path>
<g class="non-terminal ">
<path d="M679.5 246h0"></path>
<path d="M750.5 246h0"></path>
<rect x="679.5" y="235" width="71" height="22"></rect>
<a xlink:href="#/abap/expression/Source"><text x="715" y="250">Source</text>
</a>
</g>
</g>
<path d="M968 246a10 10 0 0 0 10 -10v-178a10 10 0 0 1 10 -10"></path>
</g>
<path d="M988 48h20"></path>
</g>
</g>
</g>
<path d="M1008 48h10"></path>
<path d="M 1018 48 h 20 m -10 -10 v 20 m 10 -20 v 20"></path>
</g>
</svg>
