<svg xmlns="http://www.w3.org/2000/svg" xmlns:xlink="http://www.w3.org/1999/xlink" class="railroad-diagram" width="1340.5" height="628" viewBox="0 0 1340.5 628">
<defs>
<style type="text/css"><![CDATA[
path {
stroke-width: 3;
stroke: black;
fill: rgba(0,0,0,0);
}
text {
font: bold 14px monospace;
text-anchor: middle;
}
text.diagram-text {
font-size: 12px;
}
a {
fill: blue;
}
text.diagram-arrow {
font-size: 16px;
}
text.label {
text-anchor: start;
}
text.comment {
font: italic 12px monospace;
}
rect {
stroke-width: 3;
stroke: black;
fill: #BCBCBC;
}
path.diagram-text {
stroke-width: 3;
stroke: black;
fill: #BCBCBC;
cursor: help;
}
]]></style>
</defs>
<g transform="translate(.5 .5)">
<g>
<path d="M20 38v20m10 -20v20m-10 -10h20"></path>
</g>
<path d="M40 48h10"></path>
<g>
<path d="M50 48h0"></path>
<path d="M1290.5 48h0"></path>
<g>
<path d="M50 48h0"></path>
<path d="M123 48h0"></path>
<text x="86.5" y="53" class="comment">not Cloud</text>
</g>
<path d="M123 48h10"></path>
<path d="M133 48h10"></path>
<g>
<path d="M143 48h0"></path>
<path d="M1290.5 48h0"></path>
<g>
<path d="M143 48h0"></path>
<path d="M305 48h0"></path>
<path d="M143 48h20"></path>
<g class="terminal">
<path d="M163 48h0"></path>
<path d="M276.5 48h8.5"></path>
<rect x="163" y="37" width="113.5" height="22" rx="10" ry="10"></rect>
<text x="219.75" y="52">"PARAMETER"</text>
</g>
<path d="M285 48h20"></path>
<path d="M143 48a10 10 0 0 1 10 10v10a10 10 0 0 0 10 10"></path>
<g class="terminal">
<path d="M163 78h0"></path>
<path d="M285 78h0"></path>
<rect x="163" y="67" width="122" height="22" rx="10" ry="10"></rect>
<text x="224" y="82">"PARAMETERS"</text>
</g>
<path d="M285 78a10 10 0 0 0 10 -10v-10a10 10 0 0 1 10 -10"></path>
</g>
<path d="M305 48h10"></path>
<g class="non-terminal">
<path d="M315 48h0"></path>
<path d="M403 48h0"></path>
<rect x="315" y="37" width="88" height="22"></rect>
<a xlink:href="#/abap/expression/FieldSub"><text x="359" y="52">FieldSub</text>
</a>
</g>
<path d="M403 48h10"></path>
<g>
<path d="M413 48h0"></path>
<path d="M634.5 48h0"></path>
<path d="M413 48a10 10 0 0 0 10 -10v0a10 10 0 0 1 10 -10"></path>
<g>
<path d="M433 28h181.5"></path>
</g>
<path d="M614.5 28a10 10 0 0 1 10 10v0a10 10 0 0 0 10 10"></path>
<path d="M413 48h20"></path>
<g class="non-terminal">
<path d="M433 48h0"></path>
<path d="M614.5 48h0"></path>
<rect x="433" y="37" width="181.5" height="22"></rect>
<a xlink:href="#/abap/expression/ConstantFieldLength"><text x="523.75" y="52">ConstantFieldLength</text>
</a>
</g>
<path d="M614.5 48h20"></path>
</g>
<g>
<path d="M634.5 48h0"></path>
<path d="M1290.5 48h0"></path>
<path d="M634.5 48a10 10 0 0 0 10 -10v-8a10 10 0 0 1 10 -10"></path>
<g>
<path d="M654.5 20h616"></path>
</g>
<path d="M1270.5 20a10 10 0 0 1 10 10v8a10 10 0 0 0 10 10"></path>
<path d="M634.5 48h20"></path>
<g>
<path d="M654.5 48h0"></path>
<path d="M1270.5 48h0"></path>
<path d="M684.5 48h10"></path>
<g>
<path d="M694.5 48h0"></path>
<path d="M1240.5 48h0"></path>
<g>
<path d="M694.5 48h0"></path>
<path d="M805.5 48h0"></path>
<path d="M694.5 48h20"></path>
<g class="terminal">
<path d="M714.5 48h0"></path>
<path d="M785.5 48h0"></path>
<rect x="714.5" y="37" width="71" height="22" rx="10" ry="10"></rect>
<text x="750" y="52">"TYPE"</text>
</g>
<path d="M785.5 48h20"></path>
<path d="M694.5 48a10 10 0 0 1 10 10v10a10 10 0 0 0 10 10"></path>
<g class="terminal">
<path d="M714.5 78h0"></path>
<path d="M785.5 78h0"></path>
<rect x="714.5" y="67" width="71" height="22" rx="10" ry="10"></rect>
<text x="750" y="82">"LIKE"</text>
</g>
<path d="M785.5 78a10 10 0 0 0 10 -10v-10a10 10 0 0 1 10 -10"></path>
</g>
<g>
<path d="M805.5 48h0"></path>
<path d="M933.5 48h0"></path>
<path d="M805.5 48h20"></path>
<g class="non-terminal">
<path d="M825.5 48h0"></path>
<path d="M913.5 48h0"></path>
<rect x="825.5" y="37" width="88" height="22"></rect>
<a xlink:href="#/abap/expression/TypeName"><text x="869.5" y="52">TypeName</text>
</a>
</g>
<path d="M913.5 48h20"></path>
<path d="M805.5 48a10 10 0 0 1 10 10v10a10 10 0 0 0 10 10"></path>
<g class="non-terminal">
<path d="M825.5 78h0"></path>
<path d="M905 78h8.5"></path>
<rect x="825.5" y="67" width="79.5" height="22"></rect>
<a xlink:href="#/abap/expression/Dynamic"><text x="865.25" y="82">Dynamic</text>
</a>
</g>
<path d="M913.5 78a10 10 0 0 0 10 -10v-10a10 10 0 0 1 10 -10"></path>
</g>
<g>
<path d="M933.5 48h0"></path>
<path d="M1087 48h0"></path>
<path d="M933.5 48a10 10 0 0 0 10 -10v0a10 10 0 0 1 10 -10"></path>
<g>
<path d="M953.5 28h113.5"></path>
</g>
<path d="M1067 28a10 10 0 0 1 10 10v0a10 10 0 0 0 10 10"></path>
<path d="M933.5 48h20"></path>
<g class="non-terminal">
<path d="M953.5 48h0"></path>
<path d="M1067 48h0"></path>
<rect x="953.5" y="37" width="113.5" height="22"></rect>
<a xlink:href="#/abap/expression/FieldOffset"><text x="1010.25" y="52">FieldOffset</text>
</a>
</g>
<path d="M1067 48h20"></path>
</g>
<g>
<path d="M1087 48h0"></path>
<path d="M1240.5 48h0"></path>
<path d="M1087 48a10 10 0 0 0 10 -10v0a10 10 0 0 1 10 -10"></path>
<g>
<path d="M1107 28h113.5"></path>
</g>
<path d="M1220.5 28a10 10 0 0 1 10 10v0a10 10 0 0 0 10 10"></path>
<path d="M1087 48h20"></path>
<g class="non-terminal">
<path d="M1107 48h0"></path>
<path d="M1220.5 48h0"></path>
<rect x="1107" y="37" width="113.5" height="22"></rect>
<a xlink:href="#/abap/expression/FieldLength"><text x="1163.75" y="52">FieldLength</text>
</a>
</g>
<path d="M1220.5 48h20"></path>
</g>
</g>
<path d="M1240.5 48h10"></path>
<path d="M684.5 48v50a10 10 0 0 0 10 10"></path>
<g>
<path d="M694.5 108h0"></path>
<path d="M946 108h294.5"></path>
<g class="terminal">
<path d="M694.5 108h0"></path>
<path d="M791 108h0"></path>
<rect x="694.5" y="97" width="96.5" height="22" rx="10" ry="10"></rect>
<text x="742.75" y="112">"DEFAULT"</text>
</g>
<path d="M791 108h10"></path>
<g>
<path d="M801 108h0"></path>
<path d="M946 108h0"></path>
<path d="M801 108h20"></path>
<g class="non-terminal">
<path d="M821 108h0"></path>
<path d="M909 108h17"></path>
<rect x="821" y="97" width="88" height="22"></rect>
<a xlink:href="#/abap/expression/Constant"><text x="865" y="112">Constant</text>
</a>
</g>
<path d="M926 108h20"></path>
<path d="M801 108a10 10 0 0 1 10 10v10a10 10 0 0 0 10 10"></path>
<g class="non-terminal">
<path d="M821 138h0"></path>
<path d="M926 138h0"></path>
<rect x="821" y="127" width="105" height="22"></rect>
<a xlink:href="#/abap/expression/FieldChain"><text x="873.5" y="142">FieldChain</text>
</a>
</g>
<path d="M926 138a10 10 0 0 0 10 -10v-10a10 10 0 0 1 10 -10"></path>
</g>
</g>
<path d="M1240.5 108a10 10 0 0 0 10 -10v-50"></path>
<path d="M684.5 48v110a10 10 0 0 0 10 10"></path>
<g class="terminal">
<path d="M694.5 168h0"></path>
<path d="M816.5 168h424"></path>
<rect x="694.5" y="157" width="122" height="22" rx="10" ry="10"></rect>
<text x="755.5" y="172">"OBLIGATORY"</text>
</g>
<path d="M1240.5 168a10 10 0 0 0 10 -10v-110"></path>
<path d="M684.5 48v140a10 10 0 0 0 10 10"></path>
<g>
<path d="M694.5 198h0"></path>
<path d="M950 198h290.5"></path>
<g class="terminal">
<path d="M694.5 198h0"></path>
<path d="M867.5 198h0"></path>
<rect x="694.5" y="187" width="173" height="22" rx="10" ry="10"></rect>
<text x="781" y="202">"MATCHCODE OBJECT"</text>
</g>
<path d="M867.5 198h10"></path>
<path d="M877.5 198h10"></path>
<g class="non-terminal">
<path d="M887.5 198h0"></path>
<path d="M950 198h0"></path>
<rect x="887.5" y="187" width="62.5" height="22"></rect>
<a xlink:href="#/abap/expression/Field"><text x="918.75" y="202">Field</text>
</a>
</g>
</g>
<path d="M1240.5 198a10 10 0 0 0 10 -10v-140"></path>
<path d="M684.5 48v170a10 10 0 0 0 10 10"></path>
<g>
<path d="M694.5 228h0"></path>
<path d="M967 228h273.5"></path>
<g class="terminal">
<path d="M694.5 228h0"></path>
<path d="M833.5 228h0"></path>
<rect x="694.5" y="217" width="139" height="22" rx="10" ry="10"></rect>
<text x="764" y="232">"USER-COMMAND"</text>
</g>
<path d="M833.5 228h10"></path>
<path d="M843.5 228h10"></path>
<g class="terminal">
<path d="M853.5 228h0"></path>
<path d="M967 228h0"></path>
<rect x="853.5" y="217" width="113.5" height="22" rx="10" ry="10"></rect>
<text x="910.25" y="232">^&#91;\w\?\/&#93;+$</text>
</g>
</g>
<path d="M1240.5 228a10 10 0 0 0 10 -10v-170"></path>
<path d="M684.5 48v200a10 10 0 0 0 10 10"></path>
<g>
<path d="M694.5 258h0"></path>
<path d="M890.5 258h350"></path>
<g class="terminal">
<path d="M694.5 258h0"></path>
<path d="M782.5 258h0"></path>
<rect x="694.5" y="247" width="88" height="22" rx="10" ry="10"></rect>
<text x="738.5" y="262">"LENGTH"</text>
</g>
<path d="M782.5 258h10"></path>
<path d="M792.5 258h10"></path>
<g class="non-terminal">
<path d="M802.5 258h0"></path>
<path d="M890.5 258h0"></path>
<rect x="802.5" y="247" width="88" height="22"></rect>
<a xlink:href="#/abap/expression/Constant"><text x="846.5" y="262">Constant</text>
</a>
</g>
</g>
<path d="M1240.5 258a10 10 0 0 0 10 -10v-200"></path>
<path d="M684.5 48v230a10 10 0 0 0 10 10"></path>
<g>
<path d="M694.5 288h0"></path>
<path d="M890.5 288h350"></path>
<g class="terminal">
<path d="M694.5 288h0"></path>
<path d="M799.5 288h0"></path>
<rect x="694.5" y="277" width="105" height="22" rx="10" ry="10"></rect>
<text x="747" y="292">"DECIMALS"</text>
</g>
<path d="M799.5 288h10"></path>
<path d="M809.5 288h10"></path>
<g class="non-terminal">
<path d="M819.5 288h0"></path>
<path d="M890.5 288h0"></path>
<rect x="819.5" y="277" width="71" height="22"></rect>
<a xlink:href="#/abap/expression/Source"><text x="855" y="292">Source</text>
</a>
</g>
</g>
<path d="M1240.5 288a10 10 0 0 0 10 -10v-230"></path>
<path d="M684.5 48v260a10 10 0 0 0 10 10"></path>
<g>
<path d="M694.5 318h0"></path>
<path d="M1035 318h205.5"></path>
<g class="terminal">
<path d="M694.5 318h0"></path>
<path d="M876 318h0"></path>
<rect x="694.5" y="307" width="181.5" height="22" rx="10" ry="10"></rect>
<text x="785.25" y="322">"RADIOBUTTON GROUP"</text>
</g>
<path d="M876 318h10"></path>
<path d="M886 318h10"></path>
<g class="non-terminal">
<path d="M896 318h0"></path>
<path d="M1035 318h0"></path>
<rect x="896" y="307" width="139" height="22"></rect>
<a xlink:href="#/abap/expression/RadioGroupName"><text x="965.5" y="322">RadioGroupName</text>
</a>
</g>
</g>
<path d="M1240.5 318a10 10 0 0 0 10 -10v-260"></path>
<path d="M684.5 48v290a10 10 0 0 0 10 10"></path>
<g>
<path d="M694.5 348h0"></path>
<path d="M958.5 348h282"></path>
<g class="terminal">
<path d="M694.5 348h0"></path>
<path d="M808 348h0"></path>
<rect x="694.5" y="337" width="113.5" height="22" rx="10" ry="10"></rect>
<text x="751.25" y="352">"MEMORY ID"</text>
</g>
<path d="M808 348h10"></path>
<path d="M818 348h10"></path>
<g class="non-terminal">
<path d="M828 348h0"></path>
<path d="M958.5 348h0"></path>
<rect x="828" y="337" width="130.5" height="22"></rect>
<a xlink:href="#/abap/expression/SimpleSource1"><text x="893.25" y="352">SimpleSource1</text>
</a>
</g>
</g>
<path d="M1240.5 348a10 10 0 0 0 10 -10v-290"></path>
<path d="M684.5 48v320a10 10 0 0 0 10 10"></path>
<g>
<path d="M694.5 378h0"></path>
<path d="M882 378h358.5"></path>
<g class="terminal">
<path d="M694.5 378h0"></path>
<path d="M799.5 378h0"></path>
<rect x="694.5" y="367" width="105" height="22" rx="10" ry="10"></rect>
<text x="747" y="382">"MODIF ID"</text>
</g>
<path d="M799.5 378h10"></path>
<path d="M809.5 378h10"></path>
<g class="non-terminal">
<path d="M819.5 378h0"></path>
<path d="M882 378h0"></path>
<rect x="819.5" y="367" width="62.5" height="22"></rect>
<a xlink:href="#/abap/expression/Modif"><text x="850.75" y="382">Modif</text>
</a>
</g>
</g>
<path d="M1240.5 378a10 10 0 0 0 10 -10v-320"></path>
<path d="M684.5 48v350a10 10 0 0 0 10 10"></path>
<g class="terminal">
<path d="M694.5 408h0"></path>
<path d="M816.5 408h424"></path>
<rect x="694.5" y="397" width="122" height="22" rx="10" ry="10"></rect>
<text x="755.5" y="412">"AS LISTBOX"</text>
</g>
<path d="M1240.5 408a10 10 0 0 0 10 -10v-350"></path>
<path d="M684.5 48v380a10 10 0 0 0 10 10"></path>
<g>
<path d="M694.5 438h0"></path>
<path d="M958.5 438h282"></path>
<g class="terminal">
<path d="M694.5 438h0"></path>
<path d="M850.5 438h0"></path>
<rect x="694.5" y="427" width="156" height="22" rx="10" ry="10"></rect>
<text x="772.5" y="442">"VISIBLE LENGTH"</text>
</g>
<path d="M850.5 438h10"></path>
<path d="M860.5 438h10"></path>
<g class="non-terminal">
<path d="M870.5 438h0"></path>
<path d="M958.5 438h0"></path>
<rect x="870.5" y="427" width="88" height="22"></rect>
<a xlink:href="#/abap/expression/Constant"><text x="914.5" y="442">Constant</text>
</a>
</g>
</g>
<path d="M1240.5 438a10 10 0 0 0 10 -10v-380"></path>
<path d="M684.5 48v419a10 10 0 0 0 10 10"></path>
<g>
<path d="M694.5 477h0"></path>
<path d="M1156 477h84.5"></path>
<g class="terminal">
<path d="M694.5 477h0"></path>
<path d="M808 477h0"></path>
<rect x="694.5" y="466" width="113.5" height="22" rx="10" ry="10"></rect>
<text x="751.25" y="481">"FOR TABLE"</text>
</g>
<path d="M808 477h10"></path>
<path d="M818 477h10"></path>
<g class="non-terminal">
<path d="M828 477h0"></path>
<path d="M958.5 477h0"></path>
<rect x="828" y="466" width="130.5" height="22"></rect>
<a xlink:href="#/abap/expression/DatabaseTable"><text x="893.25" y="481">DatabaseTable</text>
</a>
</g>
<path d="M958.5 477h10"></path>
<g>
<path d="M968.5 477h0"></path>
<path d="M1156 477h0"></path>
<path d="M968.5 477a10 10 0 0 0 10 -10v0a10 10 0 0 1 10 -10"></path>
<g>
<path d="M988.5 457h147.5"></path>
</g>
<path d="M1136 457a10 10 0 0 1 10 10v0a10 10 0 0 0 10 10"></path>
<path d="M968.5 477h20"></path>
<g class="terminal">
<path d="M988.5 477h0"></path>
<path d="M1136 477h0"></path>
<rect x="988.5" y="466" width="147.5" height="22" rx="10" ry="10"></rect>
<text x="1062.25" y="481">"VALUE-REQUEST"</text>
</g>
<path d="M1136 477h20"></path>
</g>
</g>
<path d="M1240.5 477a10 10 0 0 0 10 -10v-419"></path>
<path d="M684.5 48v449a10 10 0 0 0 10 10"></path>
<g class="terminal">
<path d="M694.5 507h0"></path>
<path d="M825 507h415.5"></path>
<rect x="694.5" y="496" width="130.5" height="22" rx="10" ry="10"></rect>
<text x="759.75" y="511">"VALUE CHECK"</text>
</g>
<path d="M1240.5 507a10 10 0 0 0 10 -10v-449"></path>
<path d="M684.5 48v479a10 10 0 0 0 10 10"></path>
<g class="terminal">
<path d="M694.5 537h0"></path>
<path d="M816.5 537h424"></path>
<rect x="694.5" y="526" width="122" height="22" rx="10" ry="10"></rect>
<text x="755.5" y="541">"NO-DISPLAY"</text>
</g>
<path d="M1240.5 537a10 10 0 0 0 10 -10v-479"></path>
<path d="M684.5 48v509a10 10 0 0 0 10 10"></path>
<g class="terminal">
<path d="M694.5 567h0"></path>
<path d="M825 567h415.5"></path>
<rect x="694.5" y="556" width="130.5" height="22" rx="10" ry="10"></rect>
<text x="759.75" y="571">"AS CHECKBOX"</text>
</g>
<path d="M1240.5 567a10 10 0 0 0 10 -10v-509"></path>
<path d="M684.5 48v539a10 10 0 0 0 10 10"></path>
<g class="terminal">
<path d="M694.5 597h0"></path>
<path d="M816.5 597h424"></path>
<rect x="694.5" y="586" width="122" height="22" rx="10" ry="10"></rect>
<text x="755.5" y="601">"LOWER CASE"</text>
</g>
<path d="M1240.5 597a10 10 0 0 0 10 -10v-539"></path>
<g class="diagram-text">
<title>take one or more branches, once each, in any order</title>
<path d="M 684.5 38 h -26 a 4 4 0 0 0 -4 4 v 12 a 4 4 0 0 0 4 4 h 26 z" class="diagram-text"></path>
<text x="669.5" y="52" class="diagram-text">1+</text>
<path d="M 1250.5 38 h 16 a 4 4 0 0 1 4 4 v 12 a 4 4 0 0 1 -4 4 h -16 z" class="diagram-text"></path>
<path d="M 1257.5 46 a 4 4 0 1 0 6 -1 m 2.75 -1 h -4 v 4 m 0 -3 h 2" style="stroke-width: 1.75"></path>
</g>
</g>
<path d="M1270.5 48h20"></path>
</g>
</g>
</g>
<path d="M1290.5 48h10"></path>
<path d="M 1300.5 48 h 20 m -10 -10 v 20 m 10 -20 v 20"></path>
</g>
</svg>
