<svg xmlns="http://www.w3.org/2000/svg" xmlns:xlink="http://www.w3.org/1999/xlink" class="railroad-diagram" width="669.5" height="350" viewBox="0 0 669.5 350">
<defs>
<style type="text/css"><![CDATA[
path {
stroke-width: 3;
stroke: black;
fill: rgba(0,0,0,0);
}
text {
font: bold 14px monospace;
text-anchor: middle;
}
text.diagram-text {
font-size: 12px;
}
a {
fill: blue;
}
text.diagram-arrow {
font-size: 16px;
}
text.label {
text-anchor: start;
}
text.comment {
font: italic 12px monospace;
}
rect {
stroke-width: 3;
stroke: black;
fill: #BCBCBC;
}
path.diagram-text {
stroke-width: 3;
stroke: black;
fill: #BCBCBC;
cursor: help;
}
]]></style>
</defs>
<g transform="translate(.5 .5)">
<g>
<path d="M20 21v20m10 -20v20m-10 -10h20"></path>
</g>
<g>
<path d="M40 31h0"></path>
<path d="M629.5 31h0"></path>
<path d="M40 31h20"></path>
<g>
<path d="M60 31h0"></path>
<path d="M609.5 31h0"></path>
<g>
<path d="M60 31h0"></path>
<path d="M224 31h0"></path>
<g>
<path d="M60 31h0"></path>
<path d="M133 31h0"></path>
<text x="96.5" y="36" class="comment">not Cloud</text>
</g>
<path d="M133 31h10"></path>
<path d="M143 31h10"></path>
<g class="terminal">
<path d="M153 31h0"></path>
<path d="M224 31h0"></path>
<rect x="153" y="20" width="71" height="22" rx="10" ry="10"></rect>
<text x="188.5" y="35">"MOVE"</text>
</g>
</g>
<path d="M224 31h10"></path>
<g>
<path d="M234 31h0"></path>
<path d="M609.5 31h0"></path>
<path d="M234 31h20"></path>
<g>
<path d="M254 31h0"></path>
<path d="M589.5 31h0"></path>
<g class="terminal">
<path d="M254 31h0"></path>
<path d="M333.5 31h0"></path>
<rect x="254" y="20" width="79.5" height="22" rx="10" ry="10"></rect>
<text x="293.75" y="35">"EXACT"</text>
</g>
<path d="M333.5 31h10"></path>
<path d="M343.5 31h10"></path>
<g class="non-terminal">
<path d="M353.5 31h0"></path>
<path d="M424.5 31h0"></path>
<rect x="353.5" y="20" width="71" height="22"></rect>
<a xlink:href="#/abap/expression/Source"><text x="389" y="35">Source</text>
</a>
</g>
<path d="M424.5 31h10"></path>
<path d="M434.5 31h10"></path>
<g class="terminal">
<path d="M444.5 31h0"></path>
<path d="M498.5 31h0"></path>
<rect x="444.5" y="20" width="54" height="22" rx="10" ry="10"></rect>
<text x="471.5" y="35">"TO"</text>
</g>
<path d="M498.5 31h10"></path>
<path d="M508.5 31h10"></path>
<g class="non-terminal">
<path d="M518.5 31h0"></path>
<path d="M589.5 31h0"></path>
<rect x="518.5" y="20" width="71" height="22"></rect>
<a xlink:href="#/abap/expression/Target"><text x="554" y="35">Target</text>
</a>
</g>
</g>
<path d="M589.5 31h20"></path>
<path d="M234 31a10 10 0 0 1 10 10v10a10 10 0 0 0 10 10"></path>
<g>
<path d="M254 61h0"></path>
<path d="M518.5 61h71"></path>
<g class="non-terminal">
<path d="M254 61h0"></path>
<path d="M325 61h0"></path>
<rect x="254" y="50" width="71" height="22"></rect>
<a xlink:href="#/abap/expression/Source"><text x="289.5" y="65">Source</text>
</a>
</g>
<path d="M325 61h10"></path>
<g>
<path d="M335 61h0"></path>
<path d="M437.5 61h0"></path>
<path d="M335 61h20"></path>
<g class="terminal">
<path d="M355 61h0"></path>
<path d="M417.5 61h0"></path>
<rect x="355" y="50" width="62.5" height="22" rx="10" ry="10"></rect>
<text x="386.25" y="65">"?TO"</text>
</g>
<path d="M417.5 61h20"></path>
<path d="M335 61a10 10 0 0 1 10 10v10a10 10 0 0 0 10 10"></path>
<g class="terminal">
<path d="M355 91h0"></path>
<path d="M409 91h8.5"></path>
<rect x="355" y="80" width="54" height="22" rx="10" ry="10"></rect>
<text x="382" y="95">"TO"</text>
</g>
<path d="M417.5 91a10 10 0 0 0 10 -10v-10a10 10 0 0 1 10 -10"></path>
</g>
<path d="M437.5 61h10"></path>
<g class="non-terminal">
<path d="M447.5 61h0"></path>
<path d="M518.5 61h0"></path>
<rect x="447.5" y="50" width="71" height="22"></rect>
<a xlink:href="#/abap/expression/Target"><text x="483" y="65">Target</text>
</a>
</g>
</g>
<path d="M589.5 61a10 10 0 0 0 10 -10v-10a10 10 0 0 1 10 -10"></path>
</g>
</g>
<path d="M609.5 31h20"></path>
<path d="M40 31a10 10 0 0 1 10 10v79a10 10 0 0 0 10 10"></path>
<g>
<path d="M60 130h0"></path>
<path d="M554 130h55.5"></path>
<g class="non-terminal">
<path d="M60 130h0"></path>
<path d="M131 130h0"></path>
<rect x="60" y="119" width="71" height="22"></rect>
<a xlink:href="#/abap/expression/Target"><text x="95.5" y="134">Target</text>
</a>
</g>
<path d="M131 130h10"></path>
<g>
<path d="M141 130h0"></path>
<path d="M473 130h0"></path>
<path d="M141 130h20"></path>
<g>
<path d="M161 130h0"></path>
<path d="M453 130h0"></path>
<path d="M161 130h20"></path>
<g>
<path d="M181 130h0"></path>
<path d="M433 130h0"></path>
<g class="terminal">
<path d="M181 130h0"></path>
<path d="M226.5 130h0"></path>
<rect x="181" y="119" width="45.5" height="22" rx="10" ry="10"></rect>
<text x="203.75" y="134">"="</text>
</g>
<path d="M226.5 130h10"></path>
<g>
<path d="M236.5 130h0"></path>
<path d="M433 130h0"></path>
<path d="M236.5 130a10 10 0 0 0 10 -10v0a10 10 0 0 1 10 -10"></path>
<g>
<path d="M256.5 110h156.5"></path>
</g>
<path d="M413 110a10 10 0 0 1 10 10v0a10 10 0 0 0 10 10"></path>
<path d="M236.5 130h20"></path>
<g>
<path d="M256.5 130h0"></path>
<path d="M413 130h0"></path>
<path d="M256.5 130h10"></path>
<g>
<path d="M266.5 130h0"></path>
<path d="M403 130h0"></path>
<g class="non-terminal">
<path d="M266.5 130h0"></path>
<path d="M337.5 130h0"></path>
<rect x="266.5" y="119" width="71" height="22"></rect>
<a xlink:href="#/abap/expression/Target"><text x="302" y="134">Target</text>
</a>
</g>
<path d="M337.5 130h10"></path>
<path d="M347.5 130h10"></path>
<g class="terminal">
<path d="M357.5 130h0"></path>
<path d="M403 130h0"></path>
<rect x="357.5" y="119" width="45.5" height="22" rx="10" ry="10"></rect>
<text x="380.25" y="134">"="</text>
</g>
</g>
<path d="M403 130h10"></path>
<path d="M266.5 130a10 10 0 0 0 -10 10v0a10 10 0 0 0 10 10"></path>
<g>
<path d="M266.5 150h136.5"></path>
</g>
<path d="M403 150a10 10 0 0 0 10 -10v0a10 10 0 0 0 -10 -10"></path>
</g>
<path d="M413 130h20"></path>
</g>
</g>
<path d="M433 130h20"></path>
<path d="M161 130a10 10 0 0 1 10 10v19a10 10 0 0 0 10 10"></path>
<g class="terminal">
<path d="M181 169h0"></path>
<path d="M235 169h198"></path>
<rect x="181" y="158" width="54" height="22" rx="10" ry="10"></rect>
<text x="208" y="173">"?="</text>
</g>
<path d="M433 169a10 10 0 0 0 10 -10v-19a10 10 0 0 1 10 -10"></path>
</g>
<path d="M453 130h20"></path>
<path d="M141 130a10 10 0 0 1 10 10v49a10 10 0 0 0 10 10"></path>
<g>
<path d="M161 199h0"></path>
<path d="M377 199h76"></path>
<g>
<path d="M161 199h0"></path>
<path d="M199 199h0"></path>
<text x="180" y="204" class="comment">v754</text>
</g>
<path d="M199 199h10"></path>
<g>
<path d="M209 199h0"></path>
<path d="M377 199h0"></path>
<path d="M209 199h20"></path>
<g>
<path d="M229 199h0"></path>
<path d="M357 199h0"></path>
<g class="terminal">
<path d="M229 199h0"></path>
<path d="M291.5 199h0"></path>
<rect x="229" y="188" width="62.5" height="22" rx="10" ry="10"></rect>
<text x="260.25" y="203">!" +"</text>
</g>
<path d="M291.5 199h10"></path>
<path d="M301.5 199h10"></path>
<g class="terminal">
<path d="M311.5 199h0"></path>
<path d="M357 199h0"></path>
<rect x="311.5" y="188" width="45.5" height="22" rx="10" ry="10"></rect>
<text x="334.25" y="203">"="</text>
</g>
</g>
<path d="M357 199h20"></path>
<path d="M209 199a10 10 0 0 1 10 10v10a10 10 0 0 0 10 10"></path>
<g>
<path d="M229 229h0"></path>
<path d="M357 229h0"></path>
<g class="terminal">
<path d="M229 229h0"></path>
<path d="M291.5 229h0"></path>
<rect x="229" y="218" width="62.5" height="22" rx="10" ry="10"></rect>
<text x="260.25" y="233">!" -"</text>
</g>
<path d="M291.5 229h10"></path>
<path d="M301.5 229h10"></path>
<g class="terminal">
<path d="M311.5 229h0"></path>
<path d="M357 229h0"></path>
<rect x="311.5" y="218" width="45.5" height="22" rx="10" ry="10"></rect>
<text x="334.25" y="233">"="</text>
</g>
</g>
<path d="M357 229a10 10 0 0 0 10 -10v-10a10 10 0 0 1 10 -10"></path>
<path d="M209 199a10 10 0 0 1 10 10v40a10 10 0 0 0 10 10"></path>
<g class="terminal">
<path d="M229 259h0"></path>
<path d="M283 259h74"></path>
<rect x="229" y="248" width="54" height="22" rx="10" ry="10"></rect>
<text x="256" y="263">"/="</text>
</g>
<path d="M357 259a10 10 0 0 0 10 -10v-40a10 10 0 0 1 10 -10"></path>
<path d="M209 199a10 10 0 0 1 10 10v70a10 10 0 0 0 10 10"></path>
<g class="terminal">
<path d="M229 289h0"></path>
<path d="M283 289h74"></path>
<rect x="229" y="278" width="54" height="22" rx="10" ry="10"></rect>
<text x="256" y="293">"&#42;="</text>
</g>
<path d="M357 289a10 10 0 0 0 10 -10v-70a10 10 0 0 1 10 -10"></path>
<path d="M209 199a10 10 0 0 1 10 10v100a10 10 0 0 0 10 10"></path>
<g class="terminal">
<path d="M229 319h0"></path>
<path d="M291.5 319h65.5"></path>
<rect x="229" y="308" width="62.5" height="22" rx="10" ry="10"></rect>
<text x="260.25" y="323">"&#38;&#38;="</text>
</g>
<path d="M357 319a10 10 0 0 0 10 -10v-100a10 10 0 0 1 10 -10"></path>
</g>
</g>
<path d="M453 199a10 10 0 0 0 10 -10v-49a10 10 0 0 1 10 -10"></path>
</g>
<path d="M473 130h10"></path>
<g class="non-terminal">
<path d="M483 130h0"></path>
<path d="M554 130h0"></path>
<rect x="483" y="119" width="71" height="22"></rect>
<a xlink:href="#/abap/expression/Source"><text x="518.5" y="134">Source</text>
</a>
</g>
</g>
<path d="M609.5 130a10 10 0 0 0 10 -10v-79a10 10 0 0 1 10 -10"></path>
</g>
<path d="M 629.5 31 h 20 m -10 -10 v 20 m 10 -20 v 20"></path>
</g>
</svg>
