<svg xmlns="http://www.w3.org/2000/svg" xmlns:xlink="http://www.w3.org/1999/xlink" class="railroad-diagram" width="583" height="101" viewBox="0 0 583 101">
<defs>
<style type="text/css"><![CDATA[
path {
stroke-width: 3;
stroke: black;
fill: rgba(0,0,0,0);
}
text {
font: bold 14px monospace;
text-anchor: middle;
}
text.diagram-text {
font-size: 12px;
}
a {
fill: blue;
}
text.diagram-arrow {
font-size: 16px;
}
text.label {
text-anchor: start;
}
text.comment {
font: italic 12px monospace;
}
rect {
stroke-width: 3;
stroke: black;
fill: #BCBCBC;
}
path.diagram-text {
stroke-width: 3;
stroke: black;
fill: #BCBCBC;
cursor: help;
}
]]></style>
</defs>
<g transform="translate(.5 .5)">
<g>
<path d="M20 30v20m10 -20v20m-10 -10h20"></path>
</g>
<path d="M40 40h10"></path>
<g>
<path d="M50 40h0"></path>
<path d="M533 40h0"></path>
<g class="comment ">
<path d="M50 40h0"></path>
<path d="M179 40h0"></path>
<text x="114.5" y="45" class="comment">not langver=Cloud</text>
</g>
<path d="M179 40h10"></path>
<path d="M189 40h10"></path>
<g>
<path d="M199 40h0"></path>
<path d="M533 40h0"></path>
<g class="terminal ">
<path d="M199 40h0"></path>
<path d="M304 40h0"></path>
<rect x="199" y="29" width="105" height="22" rx="10" ry="10"></rect>
<text x="251.5" y="44">"NEW-LINE"</text>
</g>
<path d="M304 40h10"></path>
<g>
<path d="M314 40h0"></path>
<path d="M533 40h0"></path>
<path d="M314 40a10 10 0 0 0 10 -10v0a10 10 0 0 1 10 -10"></path>
<g>
<path d="M334 20h179"></path>
</g>
<path d="M513 20a10 10 0 0 1 10 10v0a10 10 0 0 0 10 10"></path>
<path d="M314 40h20"></path>
<g>
<path d="M334 40h0"></path>
<path d="M513 40h0"></path>
<path d="M334 40h20"></path>
<g class="terminal ">
<path d="M354 40h12.75"></path>
<path d="M480.25 40h12.75"></path>
<rect x="366.75" y="29" width="113.5" height="22" rx="10" ry="10"></rect>
<text x="423.5" y="44">"SCROLLING"</text>
</g>
<path d="M493 40h20"></path>
<path d="M334 40a10 10 0 0 1 10 10v10a10 10 0 0 0 10 10"></path>
<g class="terminal ">
<path d="M354 70h0"></path>
<path d="M493 70h0"></path>
<rect x="354" y="59" width="139" height="22" rx="10" ry="10"></rect>
<text x="423.5" y="74">"NO-SCROLLING"</text>
</g>
<path d="M493 70a10 10 0 0 0 10 -10v-10a10 10 0 0 1 10 -10"></path>
</g>
<path d="M513 40h20"></path>
</g>
</g>
</g>
<path d="M533 40h10"></path>
<path d="M 543 40 h 20 m -10 -10 v 20 m 10 -20 v 20"></path>
</g>
</svg>
