<svg xmlns="http://www.w3.org/2000/svg" xmlns:xlink="http://www.w3.org/1999/xlink" class="railroad-diagram" width="964" height="80" viewBox="0 0 964 80">
<defs>
<style type="text/css"><![CDATA[
path {
stroke-width: 3;
stroke: black;
fill: rgba(0,0,0,0);
}
text {
font: bold 14px monospace;
text-anchor: middle;
}
text.diagram-text {
font-size: 12px;
}
a {
fill: blue;
}
text.diagram-arrow {
font-size: 16px;
}
text.label {
text-anchor: start;
}
text.comment {
font: italic 12px monospace;
}
rect {
stroke-width: 3;
stroke: black;
fill: #BCBCBC;
}
path.diagram-text {
stroke-width: 3;
stroke: black;
fill: #BCBCBC;
cursor: help;
}
]]></style>
</defs>
<g transform="translate(.5 .5)">
<g>
<path d="M20 30v20m10 -20v20m-10 -10h20"></path>
</g>
<path d="M40 40h10"></path>
<g>
<path d="M50 40h0"></path>
<path d="M914 40h0"></path>
<g class="comment ">
<path d="M50 40h0"></path>
<path d="M179 40h0"></path>
<text x="114.5" y="45" class="comment">not langver=Cloud</text>
</g>
<path d="M179 40h10"></path>
<path d="M189 40h10"></path>
<g>
<path d="M199 40h0"></path>
<path d="M914 40h0"></path>
<g class="terminal ">
<path d="M199 40h0"></path>
<path d="M338 40h0"></path>
<rect x="199" y="29" width="139" height="22" rx="10" ry="10"></rect>
<text x="268.5" y="44">"SET TITLEBAR"</text>
</g>
<path d="M338 40h10"></path>
<path d="M348 40h10"></path>
<g class="non-terminal ">
<path d="M358 40h0"></path>
<path d="M429 40h0"></path>
<rect x="358" y="29" width="71" height="22"></rect>
<a xlink:href="#/abap/expression/Source"><text x="393.5" y="44">Source</text>
</a>
</g>
<path d="M429 40h10"></path>
<g>
<path d="M439 40h0"></path>
<path d="M692 40h0"></path>
<path d="M439 40a10 10 0 0 0 10 -10v0a10 10 0 0 1 10 -10"></path>
<g>
<path d="M459 20h213"></path>
</g>
<path d="M672 20a10 10 0 0 1 10 10v0a10 10 0 0 0 10 10"></path>
<path d="M439 40h20"></path>
<g>
<path d="M459 40h0"></path>
<path d="M672 40h0"></path>
<g class="terminal ">
<path d="M459 40h0"></path>
<path d="M581 40h0"></path>
<rect x="459" y="29" width="122" height="22" rx="10" ry="10"></rect>
<text x="520" y="44">"OF PROGRAM"</text>
</g>
<path d="M581 40h10"></path>
<path d="M591 40h10"></path>
<g class="non-terminal ">
<path d="M601 40h0"></path>
<path d="M672 40h0"></path>
<rect x="601" y="29" width="71" height="22"></rect>
<a xlink:href="#/abap/expression/Source"><text x="636.5" y="44">Source</text>
</a>
</g>
</g>
<path d="M672 40h20"></path>
</g>
<g>
<path d="M692 40h0"></path>
<path d="M914 40h0"></path>
<path d="M692 40a10 10 0 0 0 10 -10v0a10 10 0 0 1 10 -10"></path>
<g>
<path d="M712 20h182"></path>
</g>
<path d="M894 20a10 10 0 0 1 10 10v0a10 10 0 0 0 10 10"></path>
<path d="M692 40h20"></path>
<g>
<path d="M712 40h0"></path>
<path d="M894 40h0"></path>
<g class="terminal ">
<path d="M712 40h0"></path>
<path d="M783 40h0"></path>
<rect x="712" y="29" width="71" height="22" rx="10" ry="10"></rect>
<text x="747.5" y="44">"WITH"</text>
</g>
<path d="M783 40h10"></path>
<path d="M793 40h10"></path>
<g>
<path d="M803 40h0"></path>
<path d="M894 40h0"></path>
<path d="M803 40h10"></path>
<g class="non-terminal ">
<path d="M813 40h0"></path>
<path d="M884 40h0"></path>
<rect x="813" y="29" width="71" height="22"></rect>
<a xlink:href="#/abap/expression/Source"><text x="848.5" y="44">Source</text>
</a>
</g>
<path d="M884 40h10"></path>
<path d="M813 40a10 10 0 0 0 -10 10v0a10 10 0 0 0 10 10"></path>
<g>
<path d="M813 60h71"></path>
</g>
<path d="M884 60a10 10 0 0 0 10 -10v0a10 10 0 0 0 -10 -10"></path>
</g>
</g>
<path d="M894 40h20"></path>
</g>
</g>
</g>
<path d="M914 40h10"></path>
<path d="M 924 40 h 20 m -10 -10 v 20 m 10 -20 v 20"></path>
</g>
</svg>
