<svg xmlns="http://www.w3.org/2000/svg" xmlns:xlink="http://www.w3.org/1999/xlink" class="railroad-diagram" width="1256" height="620" viewBox="0 0 1256 620">
<defs>
<style type="text/css"><![CDATA[
path {
stroke-width: 3;
stroke: black;
fill: rgba(0,0,0,0);
}
text {
font: bold 14px monospace;
text-anchor: middle;
}
text.diagram-text {
font-size: 12px;
}
a {
fill: blue;
}
text.diagram-arrow {
font-size: 16px;
}
text.label {
text-anchor: start;
}
text.comment {
font: italic 12px monospace;
}
rect {
stroke-width: 3;
stroke: black;
fill: #BCBCBC;
}
path.diagram-text {
stroke-width: 3;
stroke: black;
fill: #BCBCBC;
cursor: help;
}
]]></style>
</defs>
<g transform="translate(.5 .5)">
<g>
<path d="M20 30v20m10 -20v20m-10 -10h20"></path>
</g>
<path d="M40 40h10"></path>
<g>
<path d="M50 40h0"></path>
<path d="M1206 40h0"></path>
<g>
<path d="M50 40h0"></path>
<path d="M123 40h0"></path>
<text x="86.5" y="45" class="comment">not Cloud</text>
</g>
<path d="M123 40h10"></path>
<path d="M133 40h10"></path>
<g>
<path d="M143 40h0"></path>
<path d="M1206 40h0"></path>
<g>
<path d="M143 40h0"></path>
<path d="M305 40h0"></path>
<path d="M143 40h20"></path>
<g class="terminal">
<path d="M163 40h0"></path>
<path d="M276.5 40h8.5"></path>
<rect x="163" y="29" width="113.5" height="22" rx="10" ry="10"></rect>
<text x="219.75" y="44">"PARAMETER"</text>
</g>
<path d="M285 40h20"></path>
<path d="M143 40a10 10 0 0 1 10 10v10a10 10 0 0 0 10 10"></path>
<g class="terminal">
<path d="M163 70h0"></path>
<path d="M285 70h0"></path>
<rect x="163" y="59" width="122" height="22" rx="10" ry="10"></rect>
<text x="224" y="74">"PARAMETERS"</text>
</g>
<path d="M285 70a10 10 0 0 0 10 -10v-10a10 10 0 0 1 10 -10"></path>
</g>
<path d="M305 40h10"></path>
<g class="non-terminal">
<path d="M315 40h0"></path>
<path d="M403 40h0"></path>
<rect x="315" y="29" width="88" height="22"></rect>
<a xlink:href="#/abap/expression/FieldSub"><text x="359" y="44">FieldSub</text>
</a>
</g>
<path d="M403 40h10"></path>
<g>
<path d="M413 40h0"></path>
<path d="M634.5 40h0"></path>
<path d="M413 40a10 10 0 0 0 10 -10v0a10 10 0 0 1 10 -10"></path>
<g>
<path d="M433 20h181.5"></path>
</g>
<path d="M614.5 20a10 10 0 0 1 10 10v0a10 10 0 0 0 10 10"></path>
<path d="M413 40h20"></path>
<g class="non-terminal">
<path d="M433 40h0"></path>
<path d="M614.5 40h0"></path>
<rect x="433" y="29" width="181.5" height="22"></rect>
<a xlink:href="#/abap/expression/ConstantFieldLength"><text x="523.75" y="44">ConstantFieldLength</text>
</a>
</g>
<path d="M614.5 40h20"></path>
</g>
<g>
<path d="M634.5 40h0"></path>
<path d="M1206 40h0"></path>
<path d="M634.5 40a10 10 0 0 0 10 -10v0a10 10 0 0 1 10 -10"></path>
<g>
<path d="M654.5 20h531.5"></path>
</g>
<path d="M1186 20a10 10 0 0 1 10 10v0a10 10 0 0 0 10 10"></path>
<path d="M634.5 40h20"></path>
<g>
<path d="M654.5 40h0"></path>
<path d="M1186 40h0"></path>
<path d="M684.5 40h10"></path>
<g>
<path d="M694.5 40h0"></path>
<path d="M933.5 40h222.5"></path>
<g>
<path d="M694.5 40h0"></path>
<path d="M805.5 40h0"></path>
<path d="M694.5 40h20"></path>
<g class="terminal">
<path d="M714.5 40h0"></path>
<path d="M785.5 40h0"></path>
<rect x="714.5" y="29" width="71" height="22" rx="10" ry="10"></rect>
<text x="750" y="44">"TYPE"</text>
</g>
<path d="M785.5 40h20"></path>
<path d="M694.5 40a10 10 0 0 1 10 10v10a10 10 0 0 0 10 10"></path>
<g class="terminal">
<path d="M714.5 70h0"></path>
<path d="M785.5 70h0"></path>
<rect x="714.5" y="59" width="71" height="22" rx="10" ry="10"></rect>
<text x="750" y="74">"LIKE"</text>
</g>
<path d="M785.5 70a10 10 0 0 0 10 -10v-10a10 10 0 0 1 10 -10"></path>
</g>
<g>
<path d="M805.5 40h0"></path>
<path d="M933.5 40h0"></path>
<path d="M805.5 40h20"></path>
<g class="non-terminal">
<path d="M825.5 40h0"></path>
<path d="M913.5 40h0"></path>
<rect x="825.5" y="29" width="88" height="22"></rect>
<a xlink:href="#/abap/expression/TypeName"><text x="869.5" y="44">TypeName</text>
</a>
</g>
<path d="M913.5 40h20"></path>
<path d="M805.5 40a10 10 0 0 1 10 10v10a10 10 0 0 0 10 10"></path>
<g class="non-terminal">
<path d="M825.5 70h0"></path>
<path d="M905 70h8.5"></path>
<rect x="825.5" y="59" width="79.5" height="22"></rect>
<a xlink:href="#/abap/expression/Dynamic"><text x="865.25" y="74">Dynamic</text>
</a>
</g>
<path d="M913.5 70a10 10 0 0 0 10 -10v-10a10 10 0 0 1 10 -10"></path>
</g>
</g>
<path d="M1156 40h10"></path>
<path d="M684.5 40v50a10 10 0 0 0 10 10"></path>
<g>
<path d="M694.5 100h0"></path>
<path d="M946 100h210"></path>
<g class="terminal">
<path d="M694.5 100h0"></path>
<path d="M791 100h0"></path>
<rect x="694.5" y="89" width="96.5" height="22" rx="10" ry="10"></rect>
<text x="742.75" y="104">"DEFAULT"</text>
</g>
<path d="M791 100h10"></path>
<g>
<path d="M801 100h0"></path>
<path d="M946 100h0"></path>
<path d="M801 100h20"></path>
<g class="non-terminal">
<path d="M821 100h0"></path>
<path d="M909 100h17"></path>
<rect x="821" y="89" width="88" height="22"></rect>
<a xlink:href="#/abap/expression/Constant"><text x="865" y="104">Constant</text>
</a>
</g>
<path d="M926 100h20"></path>
<path d="M801 100a10 10 0 0 1 10 10v10a10 10 0 0 0 10 10"></path>
<g class="non-terminal">
<path d="M821 130h0"></path>
<path d="M926 130h0"></path>
<rect x="821" y="119" width="105" height="22"></rect>
<a xlink:href="#/abap/expression/FieldChain"><text x="873.5" y="134">FieldChain</text>
</a>
</g>
<path d="M926 130a10 10 0 0 0 10 -10v-10a10 10 0 0 1 10 -10"></path>
</g>
</g>
<path d="M1156 100a10 10 0 0 0 10 -10v-50"></path>
<path d="M684.5 40v110a10 10 0 0 0 10 10"></path>
<g class="terminal">
<path d="M694.5 160h0"></path>
<path d="M816.5 160h339.5"></path>
<rect x="694.5" y="149" width="122" height="22" rx="10" ry="10"></rect>
<text x="755.5" y="164">"OBLIGATORY"</text>
</g>
<path d="M1156 160a10 10 0 0 0 10 -10v-110"></path>
<path d="M684.5 40v140a10 10 0 0 0 10 10"></path>
<g>
<path d="M694.5 190h0"></path>
<path d="M950 190h206"></path>
<g class="terminal">
<path d="M694.5 190h0"></path>
<path d="M867.5 190h0"></path>
<rect x="694.5" y="179" width="173" height="22" rx="10" ry="10"></rect>
<text x="781" y="194">"MATCHCODE OBJECT"</text>
</g>
<path d="M867.5 190h10"></path>
<path d="M877.5 190h10"></path>
<g class="non-terminal">
<path d="M887.5 190h0"></path>
<path d="M950 190h0"></path>
<rect x="887.5" y="179" width="62.5" height="22"></rect>
<a xlink:href="#/abap/expression/Field"><text x="918.75" y="194">Field</text>
</a>
</g>
</g>
<path d="M1156 190a10 10 0 0 0 10 -10v-140"></path>
<path d="M684.5 40v170a10 10 0 0 0 10 10"></path>
<g>
<path d="M694.5 220h0"></path>
<path d="M916 220h240"></path>
<g class="terminal">
<path d="M694.5 220h0"></path>
<path d="M833.5 220h0"></path>
<rect x="694.5" y="209" width="139" height="22" rx="10" ry="10"></rect>
<text x="764" y="224">"USER-COMMAND"</text>
</g>
<path d="M833.5 220h10"></path>
<path d="M843.5 220h10"></path>
<g class="terminal">
<path d="M853.5 220h0"></path>
<path d="M916 220h0"></path>
<rect x="853.5" y="209" width="62.5" height="22" rx="10" ry="10"></rect>
<text x="884.75" y="224">^\w+$</text>
</g>
</g>
<path d="M1156 220a10 10 0 0 0 10 -10v-170"></path>
<path d="M684.5 40v200a10 10 0 0 0 10 10"></path>
<g>
<path d="M694.5 250h0"></path>
<path d="M890.5 250h265.5"></path>
<g class="terminal">
<path d="M694.5 250h0"></path>
<path d="M782.5 250h0"></path>
<rect x="694.5" y="239" width="88" height="22" rx="10" ry="10"></rect>
<text x="738.5" y="254">"LENGTH"</text>
</g>
<path d="M782.5 250h10"></path>
<path d="M792.5 250h10"></path>
<g class="non-terminal">
<path d="M802.5 250h0"></path>
<path d="M890.5 250h0"></path>
<rect x="802.5" y="239" width="88" height="22"></rect>
<a xlink:href="#/abap/expression/Constant"><text x="846.5" y="254">Constant</text>
</a>
</g>
</g>
<path d="M1156 250a10 10 0 0 0 10 -10v-200"></path>
<path d="M684.5 40v230a10 10 0 0 0 10 10"></path>
<g>
<path d="M694.5 280h0"></path>
<path d="M890.5 280h265.5"></path>
<g class="terminal">
<path d="M694.5 280h0"></path>
<path d="M799.5 280h0"></path>
<rect x="694.5" y="269" width="105" height="22" rx="10" ry="10"></rect>
<text x="747" y="284">"DECIMALS"</text>
</g>
<path d="M799.5 280h10"></path>
<path d="M809.5 280h10"></path>
<g class="non-terminal">
<path d="M819.5 280h0"></path>
<path d="M890.5 280h0"></path>
<rect x="819.5" y="269" width="71" height="22"></rect>
<a xlink:href="#/abap/expression/Source"><text x="855" y="284">Source</text>
</a>
</g>
</g>
<path d="M1156 280a10 10 0 0 0 10 -10v-230"></path>
<path d="M684.5 40v260a10 10 0 0 0 10 10"></path>
<g>
<path d="M694.5 310h0"></path>
<path d="M1035 310h121"></path>
<g class="terminal">
<path d="M694.5 310h0"></path>
<path d="M876 310h0"></path>
<rect x="694.5" y="299" width="181.5" height="22" rx="10" ry="10"></rect>
<text x="785.25" y="314">"RADIOBUTTON GROUP"</text>
</g>
<path d="M876 310h10"></path>
<path d="M886 310h10"></path>
<g class="non-terminal">
<path d="M896 310h0"></path>
<path d="M1035 310h0"></path>
<rect x="896" y="299" width="139" height="22"></rect>
<a xlink:href="#/abap/expression/RadioGroupName"><text x="965.5" y="314">RadioGroupName</text>
</a>
</g>
</g>
<path d="M1156 310a10 10 0 0 0 10 -10v-260"></path>
<path d="M684.5 40v290a10 10 0 0 0 10 10"></path>
<g>
<path d="M694.5 340h0"></path>
<path d="M958.5 340h197.5"></path>
<g class="terminal">
<path d="M694.5 340h0"></path>
<path d="M808 340h0"></path>
<rect x="694.5" y="329" width="113.5" height="22" rx="10" ry="10"></rect>
<text x="751.25" y="344">"MEMORY ID"</text>
</g>
<path d="M808 340h10"></path>
<path d="M818 340h10"></path>
<g class="non-terminal">
<path d="M828 340h0"></path>
<path d="M958.5 340h0"></path>
<rect x="828" y="329" width="130.5" height="22"></rect>
<a xlink:href="#/abap/expression/SimpleSource1"><text x="893.25" y="344">SimpleSource1</text>
</a>
</g>
</g>
<path d="M1156 340a10 10 0 0 0 10 -10v-290"></path>
<path d="M684.5 40v320a10 10 0 0 0 10 10"></path>
<g>
<path d="M694.5 370h0"></path>
<path d="M882 370h274"></path>
<g class="terminal">
<path d="M694.5 370h0"></path>
<path d="M799.5 370h0"></path>
<rect x="694.5" y="359" width="105" height="22" rx="10" ry="10"></rect>
<text x="747" y="374">"MODIF ID"</text>
</g>
<path d="M799.5 370h10"></path>
<path d="M809.5 370h10"></path>
<g class="non-terminal">
<path d="M819.5 370h0"></path>
<path d="M882 370h0"></path>
<rect x="819.5" y="359" width="62.5" height="22"></rect>
<a xlink:href="#/abap/expression/Modif"><text x="850.75" y="374">Modif</text>
</a>
</g>
</g>
<path d="M1156 370a10 10 0 0 0 10 -10v-320"></path>
<path d="M684.5 40v350a10 10 0 0 0 10 10"></path>
<g class="terminal">
<path d="M694.5 400h0"></path>
<path d="M816.5 400h339.5"></path>
<rect x="694.5" y="389" width="122" height="22" rx="10" ry="10"></rect>
<text x="755.5" y="404">"AS LISTBOX"</text>
</g>
<path d="M1156 400a10 10 0 0 0 10 -10v-350"></path>
<path d="M684.5 40v380a10 10 0 0 0 10 10"></path>
<g>
<path d="M694.5 430h0"></path>
<path d="M958.5 430h197.5"></path>
<g class="terminal">
<path d="M694.5 430h0"></path>
<path d="M850.5 430h0"></path>
<rect x="694.5" y="419" width="156" height="22" rx="10" ry="10"></rect>
<text x="772.5" y="434">"VISIBLE LENGTH"</text>
</g>
<path d="M850.5 430h10"></path>
<path d="M860.5 430h10"></path>
<g class="non-terminal">
<path d="M870.5 430h0"></path>
<path d="M958.5 430h0"></path>
<rect x="870.5" y="419" width="88" height="22"></rect>
<a xlink:href="#/abap/expression/Constant"><text x="914.5" y="434">Constant</text>
</a>
</g>
</g>
<path d="M1156 430a10 10 0 0 0 10 -10v-380"></path>
<path d="M684.5 40v419a10 10 0 0 0 10 10"></path>
<g>
<path d="M694.5 469h0"></path>
<path d="M1156 469h0"></path>
<g class="terminal">
<path d="M694.5 469h0"></path>
<path d="M808 469h0"></path>
<rect x="694.5" y="458" width="113.5" height="22" rx="10" ry="10"></rect>
<text x="751.25" y="473">"FOR TABLE"</text>
</g>
<path d="M808 469h10"></path>
<path d="M818 469h10"></path>
<g class="non-terminal">
<path d="M828 469h0"></path>
<path d="M958.5 469h0"></path>
<rect x="828" y="458" width="130.5" height="22"></rect>
<a xlink:href="#/abap/expression/DatabaseTable"><text x="893.25" y="473">DatabaseTable</text>
</a>
</g>
<path d="M958.5 469h10"></path>
<g>
<path d="M968.5 469h0"></path>
<path d="M1156 469h0"></path>
<path d="M968.5 469a10 10 0 0 0 10 -10v0a10 10 0 0 1 10 -10"></path>
<g>
<path d="M988.5 449h147.5"></path>
</g>
<path d="M1136 449a10 10 0 0 1 10 10v0a10 10 0 0 0 10 10"></path>
<path d="M968.5 469h20"></path>
<g class="terminal">
<path d="M988.5 469h0"></path>
<path d="M1136 469h0"></path>
<rect x="988.5" y="458" width="147.5" height="22" rx="10" ry="10"></rect>
<text x="1062.25" y="473">"VALUE-REQUEST"</text>
</g>
<path d="M1136 469h20"></path>
</g>
</g>
<path d="M1156 469a10 10 0 0 0 10 -10v-419"></path>
<path d="M684.5 40v449a10 10 0 0 0 10 10"></path>
<g class="terminal">
<path d="M694.5 499h0"></path>
<path d="M825 499h331"></path>
<rect x="694.5" y="488" width="130.5" height="22" rx="10" ry="10"></rect>
<text x="759.75" y="503">"VALUE CHECK"</text>
</g>
<path d="M1156 499a10 10 0 0 0 10 -10v-449"></path>
<path d="M684.5 40v479a10 10 0 0 0 10 10"></path>
<g class="terminal">
<path d="M694.5 529h0"></path>
<path d="M816.5 529h339.5"></path>
<rect x="694.5" y="518" width="122" height="22" rx="10" ry="10"></rect>
<text x="755.5" y="533">"NO-DISPLAY"</text>
</g>
<path d="M1156 529a10 10 0 0 0 10 -10v-479"></path>
<path d="M684.5 40v509a10 10 0 0 0 10 10"></path>
<g class="terminal">
<path d="M694.5 559h0"></path>
<path d="M825 559h331"></path>
<rect x="694.5" y="548" width="130.5" height="22" rx="10" ry="10"></rect>
<text x="759.75" y="563">"AS CHECKBOX"</text>
</g>
<path d="M1156 559a10 10 0 0 0 10 -10v-509"></path>
<path d="M684.5 40v539a10 10 0 0 0 10 10"></path>
<g class="terminal">
<path d="M694.5 589h0"></path>
<path d="M816.5 589h339.5"></path>
<rect x="694.5" y="578" width="122" height="22" rx="10" ry="10"></rect>
<text x="755.5" y="593">"LOWER CASE"</text>
</g>
<path d="M1156 589a10 10 0 0 0 10 -10v-539"></path>
<g class="diagram-text">
<title>take one or more branches, once each, in any order</title>
<path d="M 684.5 30 h -26 a 4 4 0 0 0 -4 4 v 12 a 4 4 0 0 0 4 4 h 26 z" class="diagram-text"></path>
<text x="669.5" y="44" class="diagram-text">1+</text>
<path d="M 1166 30 h 16 a 4 4 0 0 1 4 4 v 12 a 4 4 0 0 1 -4 4 h -16 z" class="diagram-text"></path>
<path d="M 1173 38 a 4 4 0 1 0 6 -1 m 2.75 -1 h -4 v 4 m 0 -3 h 2" style="stroke-width: 1.75"></path>
</g>
</g>
<path d="M1186 40h20"></path>
</g>
</g>
</g>
<path d="M1206 40h10"></path>
<path d="M 1216 40 h 20 m -10 -10 v 20 m 10 -20 v 20"></path>
</g>
</svg>
