<svg xmlns="http://www.w3.org/2000/svg" xmlns:xlink="http://www.w3.org/1999/xlink" class="railroad-diagram" width="961" height="71" viewBox="0 0 961 71">
<defs>
<style type="text/css"><![CDATA[
path {
stroke-width: 3;
stroke: black;
fill: rgba(0,0,0,0);
}
text {
font: bold 14px monospace;
text-anchor: middle;
}
text.diagram-text {
font-size: 12px;
}
a {
fill: blue;
}
text.diagram-arrow {
font-size: 16px;
}
text.label {
text-anchor: start;
}
text.comment {
font: italic 12px monospace;
}
rect {
stroke-width: 3;
stroke: black;
fill: #BCBCBC;
}
path.diagram-text {
stroke-width: 3;
stroke: black;
fill: #BCBCBC;
cursor: help;
}
]]></style>
</defs>
<g transform="translate(.5 .5)">
<g>
<path d="M20 30v20m10 -20v20m-10 -10h20"></path>
</g>
<path d="M40 40h10"></path>
<g>
<path d="M50 40h0"></path>
<path d="M911 40h0"></path>
<g class="comment ">
<path d="M50 40h0"></path>
<path d="M179 40h0"></path>
<text x="114.5" y="45" class="comment">not langver=Cloud</text>
</g>
<path d="M179 40h10"></path>
<path d="M189 40h10"></path>
<g>
<path d="M199 40h0"></path>
<path d="M911 40h0"></path>
<g class="terminal ">
<path d="M199 40h0"></path>
<path d="M363.5 40h0"></path>
<rect x="199" y="29" width="164.5" height="22" rx="10" ry="10"></rect>
<text x="281.25" y="44">"DELETE TEXTPOOL"</text>
</g>
<path d="M363.5 40h10"></path>
<path d="M373.5 40h10"></path>
<g class="non-terminal ">
<path d="M383.5 40h0"></path>
<path d="M454.5 40h0"></path>
<rect x="383.5" y="29" width="71" height="22"></rect>
<a xlink:href="#/abap/expression/Source"><text x="419" y="44">Source</text>
</a>
</g>
<path d="M454.5 40h10"></path>
<g>
<path d="M464.5 40h0"></path>
<path d="M700.5 40h0"></path>
<path d="M464.5 40a10 10 0 0 0 10 -10v0a10 10 0 0 1 10 -10"></path>
<g>
<path d="M484.5 20h196"></path>
</g>
<path d="M680.5 20a10 10 0 0 1 10 10v0a10 10 0 0 0 10 10"></path>
<path d="M464.5 40h20"></path>
<g>
<path d="M484.5 40h0"></path>
<path d="M680.5 40h0"></path>
<g class="terminal ">
<path d="M484.5 40h0"></path>
<path d="M589.5 40h0"></path>
<rect x="484.5" y="29" width="105" height="22" rx="10" ry="10"></rect>
<text x="537" y="44">"LANGUAGE"</text>
</g>
<path d="M589.5 40h10"></path>
<path d="M599.5 40h10"></path>
<g class="non-terminal ">
<path d="M609.5 40h0"></path>
<path d="M680.5 40h0"></path>
<rect x="609.5" y="29" width="71" height="22"></rect>
<a xlink:href="#/abap/expression/Source"><text x="645" y="44">Source</text>
</a>
</g>
</g>
<path d="M680.5 40h20"></path>
</g>
<g>
<path d="M700.5 40h0"></path>
<path d="M911 40h0"></path>
<path d="M700.5 40a10 10 0 0 0 10 -10v0a10 10 0 0 1 10 -10"></path>
<g>
<path d="M720.5 20h170.5"></path>
</g>
<path d="M891 20a10 10 0 0 1 10 10v0a10 10 0 0 0 10 10"></path>
<path d="M700.5 40h20"></path>
<g>
<path d="M720.5 40h0"></path>
<path d="M891 40h0"></path>
<g class="terminal ">
<path d="M720.5 40h0"></path>
<path d="M800 40h0"></path>
<rect x="720.5" y="29" width="79.5" height="22" rx="10" ry="10"></rect>
<text x="760.25" y="44">"STATE"</text>
</g>
<path d="M800 40h10"></path>
<path d="M810 40h10"></path>
<g class="non-terminal ">
<path d="M820 40h0"></path>
<path d="M891 40h0"></path>
<rect x="820" y="29" width="71" height="22"></rect>
<a xlink:href="#/abap/expression/Source"><text x="855.5" y="44">Source</text>
</a>
</g>
</g>
<path d="M891 40h20"></path>
</g>
</g>
</g>
<path d="M911 40h10"></path>
<path d="M 921 40 h 20 m -10 -10 v 20 m 10 -20 v 20"></path>
</g>
</svg>
