<svg xmlns="http://www.w3.org/2000/svg" xmlns:xlink="http://www.w3.org/1999/xlink" class="railroad-diagram" width="580" height="110" viewBox="0 0 580 110">
<defs>
<style type="text/css"><![CDATA[
path {
stroke-width: 3;
stroke: black;
fill: rgba(0,0,0,0);
}
text {
font: bold 14px monospace;
text-anchor: middle;
}
text.diagram-text {
font-size: 12px;
}
a {
fill: blue;
}
text.diagram-arrow {
font-size: 16px;
}
text.label {
text-anchor: start;
}
text.comment {
font: italic 12px monospace;
}
rect {
stroke-width: 3;
stroke: black;
fill: #BCBCBC;
}
path.diagram-text {
stroke-width: 3;
stroke: black;
fill: #BCBCBC;
cursor: help;
}
]]></style>
</defs>
<g transform="translate(.5 .5)">
<g>
<path d="M20 21v20m10 -20v20m-10 -10h20"></path>
</g>
<path d="M40 31h10"></path>
<g>
<path d="M50 31h0"></path>
<path d="M530 31h0"></path>
<g class="terminal ">
<path d="M50 31h0"></path>
<path d="M138 31h0"></path>
<rect x="50" y="20" width="88" height="22" rx="10" ry="10"></rect>
<text x="94" y="35">"INSERT"</text>
</g>
<path d="M138 31h10"></path>
<g>
<path d="M148 31h0"></path>
<path d="M358 31h0"></path>
<path d="M148 31h20"></path>
<g>
<path d="M168 31h0"></path>
<path d="M338 31h0"></path>
<g class="comment ">
<path d="M168 31h0"></path>
<path d="M227 31h0"></path>
<text x="197.5" y="36" class="comment">740SP02</text>
</g>
<path d="M227 31h10"></path>
<path d="M237 31h10"></path>
<g>
<path d="M247 31h0"></path>
<path d="M338 31h0"></path>
<path d="M247 31h10"></path>
<g class="non-terminal ">
<path d="M257 31h0"></path>
<path d="M328 31h0"></path>
<rect x="257" y="20" width="71" height="22"></rect>
<a xlink:href="#/abap/expression/Source"><text x="292.5" y="35">Source</text>
</a>
</g>
<path d="M328 31h10"></path>
<path d="M257 31a10 10 0 0 0 -10 10v0a10 10 0 0 0 10 10"></path>
<g>
<path d="M257 51h71"></path>
</g>
<path d="M328 51a10 10 0 0 0 10 -10v0a10 10 0 0 0 -10 -10"></path>
</g>
</g>
<path d="M338 31h20"></path>
<path d="M148 31a10 10 0 0 1 10 10v19a10 10 0 0 0 10 10"></path>
<g>
<path d="M168 70h9.75"></path>
<path d="M328.25 70h9.75"></path>
<path d="M177.75 70h10"></path>
<g class="non-terminal ">
<path d="M187.75 70h0"></path>
<path d="M318.25 70h0"></path>
<rect x="187.75" y="59" width="130.5" height="22"></rect>
<a xlink:href="#/abap/expression/SimpleSource1"><text x="253" y="74">SimpleSource1</text>
</a>
</g>
<path d="M318.25 70h10"></path>
<path d="M187.75 70a10 10 0 0 0 -10 10v0a10 10 0 0 0 10 10"></path>
<g>
<path d="M187.75 90h130.5"></path>
</g>
<path d="M318.25 90a10 10 0 0 0 10 -10v0a10 10 0 0 0 -10 -10"></path>
</g>
<path d="M338 70a10 10 0 0 0 10 -10v-19a10 10 0 0 1 10 -10"></path>
</g>
<path d="M358 31h10"></path>
<g>
<path d="M368 31h0"></path>
<path d="M530 31h0"></path>
<g class="terminal ">
<path d="M368 31h0"></path>
<path d="M439 31h0"></path>
<rect x="368" y="20" width="71" height="22" rx="10" ry="10"></rect>
<text x="403.5" y="35">"INTO"</text>
</g>
<path d="M439 31h10"></path>
<path d="M449 31h10"></path>
<g class="non-terminal ">
<path d="M459 31h0"></path>
<path d="M530 31h0"></path>
<rect x="459" y="20" width="71" height="22"></rect>
<a xlink:href="#/abap/expression/Target"><text x="494.5" y="35">Target</text>
</a>
</g>
</g>
</g>
<path d="M530 31h10"></path>
<path d="M 540 31 h 20 m -10 -10 v 20 m 10 -20 v 20"></path>
</g>
</svg>
