<svg xmlns="http://www.w3.org/2000/svg" xmlns:xlink="http://www.w3.org/1999/xlink" class="railroad-diagram" width="686.5" height="62" viewBox="0 0 686.5 62">
<defs>
<style type="text/css"><![CDATA[
path {
stroke-width: 3;
stroke: black;
fill: rgba(0,0,0,0);
}
text {
font: bold 14px monospace;
text-anchor: middle;
}
text.diagram-text {
font-size: 12px;
}
a {
fill: blue;
}
text.diagram-arrow {
font-size: 16px;
}
text.label {
text-anchor: start;
}
text.comment {
font: italic 12px monospace;
}
rect {
stroke-width: 3;
stroke: black;
fill: #BCBCBC;
}
path.diagram-text {
stroke-width: 3;
stroke: black;
fill: #BCBCBC;
cursor: help;
}
]]></style>
</defs>
<g transform="translate(.5 .5)">
<g>
<path d="M20 21v20m10 -20v20m-10 -10h20"></path>
</g>
<path d="M40 31h10"></path>
<g>
<path d="M50 31h0"></path>
<path d="M636.5 31h0"></path>
<g class="comment ">
<path d="M50 31h0"></path>
<path d="M179 31h0"></path>
<text x="114.5" y="36" class="comment">not langver=Cloud</text>
</g>
<path d="M179 31h10"></path>
<path d="M189 31h10"></path>
<g>
<path d="M199 31h0"></path>
<path d="M636.5 31h0"></path>
<g class="terminal ">
<path d="M199 31h0"></path>
<path d="M380.5 31h0"></path>
<rect x="199" y="20" width="181.5" height="22" rx="10" ry="10"></rect>
<text x="289.75" y="35">"ADD-CORRESPONDING"</text>
</g>
<path d="M380.5 31h10"></path>
<path d="M390.5 31h10"></path>
<g class="non-terminal ">
<path d="M400.5 31h0"></path>
<path d="M471.5 31h0"></path>
<rect x="400.5" y="20" width="71" height="22"></rect>
<a xlink:href="#/abap/expression/Source"><text x="436" y="35">Source</text>
</a>
</g>
<path d="M471.5 31h10"></path>
<path d="M481.5 31h10"></path>
<g class="terminal ">
<path d="M491.5 31h0"></path>
<path d="M545.5 31h0"></path>
<rect x="491.5" y="20" width="54" height="22" rx="10" ry="10"></rect>
<text x="518.5" y="35">"TO"</text>
</g>
<path d="M545.5 31h10"></path>
<path d="M555.5 31h10"></path>
<g class="non-terminal ">
<path d="M565.5 31h0"></path>
<path d="M636.5 31h0"></path>
<rect x="565.5" y="20" width="71" height="22"></rect>
<a xlink:href="#/abap/expression/Target"><text x="601" y="35">Target</text>
</a>
</g>
</g>
</g>
<path d="M636.5 31h10"></path>
<path d="M 646.5 31 h 20 m -10 -10 v 20 m 10 -20 v 20"></path>
</g>
</svg>
