<svg xmlns="http://www.w3.org/2000/svg" xmlns:xlink="http://www.w3.org/1999/xlink" class="railroad-diagram" width="2152.5" height="341" viewBox="0 0 2152.5 341">
<defs>
<style type="text/css"><![CDATA[
path {
stroke-width: 3;
stroke: black;
fill: rgba(0,0,0,0);
}
text {
font: bold 14px monospace;
text-anchor: middle;
}
text.diagram-text {
font-size: 12px;
}
a {
fill: blue;
}
text.diagram-arrow {
font-size: 16px;
}
text.label {
text-anchor: start;
}
text.comment {
font: italic 12px monospace;
}
rect {
stroke-width: 3;
stroke: black;
fill: #BCBCBC;
}
path.diagram-text {
stroke-width: 3;
stroke: black;
fill: #BCBCBC;
cursor: help;
}
]]></style>
</defs>
<g transform="translate(.5 .5)">
<g>
<path d="M20 30v20m10 -20v20m-10 -10h20"></path>
</g>
<path d="M40 40h10"></path>
<g>
<path d="M50 40h0"></path>
<path d="M2102.5 40h0"></path>
<g class="terminal">
<path d="M50 40h0"></path>
<path d="M138 40h0"></path>
<rect x="50" y="29" width="88" height="22" rx="10" ry="10"></rect>
<text x="94" y="44">"IMPORT"</text>
</g>
<path d="M138 40h10"></path>
<g>
<path d="M148 40h0"></path>
<path d="M600 40h0"></path>
<path d="M148 40h20"></path>
<g>
<path d="M168 40h0"></path>
<path d="M564.5 40h15.5"></path>
<path d="M168 40h10"></path>
<g>
<path d="M178 40h0"></path>
<path d="M554.5 40h0"></path>
<g>
<path d="M178 40h0"></path>
<path d="M408 40h0"></path>
<path d="M178 40h20"></path>
<g class="non-terminal">
<path d="M198 40h0"></path>
<path d="M388 40h0"></path>
<rect x="198" y="29" width="190" height="22"></rect>
<a xlink:href="#/abap/expression/ComponentChainSimple"><text x="293" y="44">ComponentChainSimple</text>
</a>
</g>
<path d="M388 40h20"></path>
<path d="M178 40a10 10 0 0 1 10 10v10a10 10 0 0 0 10 10"></path>
<g class="non-terminal">
<path d="M198 70h0"></path>
<path d="M311.5 70h76.5"></path>
<rect x="198" y="59" width="113.5" height="22"></rect>
<a xlink:href="#/abap/expression/FieldSymbol"><text x="254.75" y="74">FieldSymbol</text>
</a>
</g>
<path d="M388 70a10 10 0 0 0 10 -10v-10a10 10 0 0 1 10 -10"></path>
</g>
<path d="M408 40h10"></path>
<g class="terminal">
<path d="M418 40h0"></path>
<path d="M463.5 40h0"></path>
<rect x="418" y="29" width="45.5" height="22" rx="10" ry="10"></rect>
<text x="440.75" y="44">"="</text>
</g>
<path d="M463.5 40h10"></path>
<path d="M473.5 40h10"></path>
<g class="non-terminal">
<path d="M483.5 40h0"></path>
<path d="M554.5 40h0"></path>
<rect x="483.5" y="29" width="71" height="22"></rect>
<a xlink:href="#/abap/expression/Target"><text x="519" y="44">Target</text>
</a>
</g>
</g>
<path d="M554.5 40h10"></path>
<path d="M178 40a10 10 0 0 0 -10 10v29a10 10 0 0 0 10 10"></path>
<g>
<path d="M178 89h376.5"></path>
</g>
<path d="M554.5 89a10 10 0 0 0 10 -10v-29a10 10 0 0 0 -10 -10"></path>
</g>
<path d="M580 40h20"></path>
<path d="M148 40a10 10 0 0 1 10 10v48a10 10 0 0 0 10 10"></path>
<g>
<path d="M168 108h0"></path>
<path d="M580 108h0"></path>
<path d="M168 108h10"></path>
<g>
<path d="M178 108h0"></path>
<path d="M570 108h0"></path>
<g class="non-terminal">
<path d="M178 108h0"></path>
<path d="M368 108h0"></path>
<rect x="178" y="97" width="190" height="22"></rect>
<a xlink:href="#/abap/expression/ComponentChainSimple"><text x="273" y="112">ComponentChainSimple</text>
</a>
</g>
<path d="M368 108h10"></path>
<g>
<path d="M378 108h0"></path>
<path d="M489 108h0"></path>
<path d="M378 108h20"></path>
<g class="terminal">
<path d="M398 108h0"></path>
<path d="M452 108h17"></path>
<rect x="398" y="97" width="54" height="22" rx="10" ry="10"></rect>
<text x="425" y="112">"TO"</text>
</g>
<path d="M469 108h20"></path>
<path d="M378 108a10 10 0 0 1 10 10v10a10 10 0 0 0 10 10"></path>
<g class="terminal">
<path d="M398 138h0"></path>
<path d="M469 138h0"></path>
<rect x="398" y="127" width="71" height="22" rx="10" ry="10"></rect>
<text x="433.5" y="142">"INTO"</text>
</g>
<path d="M469 138a10 10 0 0 0 10 -10v-10a10 10 0 0 1 10 -10"></path>
</g>
<path d="M489 108h10"></path>
<g class="non-terminal">
<path d="M499 108h0"></path>
<path d="M570 108h0"></path>
<rect x="499" y="97" width="71" height="22"></rect>
<a xlink:href="#/abap/expression/Target"><text x="534.5" y="112">Target</text>
</a>
</g>
</g>
<path d="M570 108h10"></path>
<path d="M178 108a10 10 0 0 0 -10 10v29a10 10 0 0 0 10 10"></path>
<g>
<path d="M178 157h392"></path>
</g>
<path d="M570 157a10 10 0 0 0 10 -10v-29a10 10 0 0 0 -10 -10"></path>
</g>
<path d="M580 108a10 10 0 0 0 10 -10v-48a10 10 0 0 1 10 -10"></path>
<path d="M148 40a10 10 0 0 1 10 10v116a10 10 0 0 0 10 10"></path>
<g class="non-terminal">
<path d="M168 176h0"></path>
<path d="M247.5 176h332.5"></path>
<rect x="168" y="165" width="79.5" height="22"></rect>
<a xlink:href="#/abap/expression/Dynamic"><text x="207.75" y="180">Dynamic</text>
</a>
</g>
<path d="M580 176a10 10 0 0 0 10 -10v-116a10 10 0 0 1 10 -10"></path>
<path d="M148 40a10 10 0 0 1 10 10v146a10 10 0 0 0 10 10"></path>
<g>
<path d="M168 206h0"></path>
<path d="M259 206h321"></path>
<path d="M168 206h10"></path>
<g class="non-terminal">
<path d="M178 206h0"></path>
<path d="M249 206h0"></path>
<rect x="178" y="195" width="71" height="22"></rect>
<a xlink:href="#/abap/expression/Target"><text x="213.5" y="210">Target</text>
</a>
</g>
<path d="M249 206h10"></path>
<path d="M178 206a10 10 0 0 0 -10 10v0a10 10 0 0 0 10 10"></path>
<g>
<path d="M178 226h71"></path>
</g>
<path d="M249 226a10 10 0 0 0 10 -10v0a10 10 0 0 0 -10 -10"></path>
</g>
<path d="M580 206a10 10 0 0 0 10 -10v-146a10 10 0 0 1 10 -10"></path>
</g>
<path d="M600 40h10"></path>
<g class="terminal">
<path d="M610 40h0"></path>
<path d="M681 40h0"></path>
<rect x="610" y="29" width="71" height="22" rx="10" ry="10"></rect>
<text x="645.5" y="44">"FROM"</text>
</g>
<path d="M681 40h10"></path>
<g>
<path d="M691 40h0"></path>
<path d="M1686 40h0"></path>
<path d="M691 40h20"></path>
<g>
<path d="M711 40h0"></path>
<path d="M932.5 40h733.5"></path>
<g class="terminal">
<path d="M711 40h0"></path>
<path d="M841.5 40h0"></path>
<rect x="711" y="29" width="130.5" height="22" rx="10" ry="10"></rect>
<text x="776.25" y="44">"DATA BUFFER"</text>
</g>
<path d="M841.5 40h10"></path>
<path d="M851.5 40h10"></path>
<g class="non-terminal">
<path d="M861.5 40h0"></path>
<path d="M932.5 40h0"></path>
<rect x="861.5" y="29" width="71" height="22"></rect>
<a xlink:href="#/abap/expression/Source"><text x="897" y="44">Source</text>
</a>
</g>
</g>
<path d="M1666 40h20"></path>
<path d="M691 40a10 10 0 0 1 10 10v10a10 10 0 0 0 10 10"></path>
<g>
<path d="M711 70h0"></path>
<path d="M915.5 70h750.5"></path>
<g class="terminal">
<path d="M711 70h0"></path>
<path d="M824.5 70h0"></path>
<rect x="711" y="59" width="113.5" height="22" rx="10" ry="10"></rect>
<text x="767.75" y="74">"MEMORY ID"</text>
</g>
<path d="M824.5 70h10"></path>
<path d="M834.5 70h10"></path>
<g class="non-terminal">
<path d="M844.5 70h0"></path>
<path d="M915.5 70h0"></path>
<rect x="844.5" y="59" width="71" height="22"></rect>
<a xlink:href="#/abap/expression/Source"><text x="880" y="74">Source</text>
</a>
</g>
</g>
<path d="M1666 70a10 10 0 0 0 10 -10v-10a10 10 0 0 1 10 -10"></path>
<path d="M691 40a10 10 0 0 1 10 10v40a10 10 0 0 0 10 10"></path>
<g>
<path d="M711 100h0"></path>
<path d="M1593.5 100h72.5"></path>
<g class="terminal">
<path d="M711 100h0"></path>
<path d="M816 100h0"></path>
<rect x="711" y="89" width="105" height="22" rx="10" ry="10"></rect>
<text x="763.5" y="104">"DATABASE"</text>
</g>
<path d="M816 100h10"></path>
<path d="M826 100h10"></path>
<g>
<path d="M836 100h0"></path>
<path d="M1324.5 100h0"></path>
<g class="non-terminal">
<path d="M836 100h0"></path>
<path d="M1017.5 100h0"></path>
<rect x="836" y="89" width="181.5" height="22"></rect>
<a xlink:href="#/abap/expression/NamespaceSimpleName"><text x="926.75" y="104">NamespaceSimpleName</text>
</a>
</g>
<path d="M1017.5 100h10"></path>
<path d="M1027.5 100h10"></path>
<g class="terminal">
<path d="M1037.5 100h0"></path>
<path d="M1091.5 100h0"></path>
<rect x="1037.5" y="89" width="54" height="22" rx="10" ry="10"></rect>
<text x="1064.5" y="104">!"("</text>
</g>
<path d="M1091.5 100h10"></path>
<path d="M1101.5 100h10"></path>
<g class="terminal">
<path d="M1111.5 100h0"></path>
<path d="M1242 100h0"></path>
<rect x="1111.5" y="89" width="130.5" height="22" rx="10" ry="10"></rect>
<text x="1176.75" y="104">^&#91;\w$%\^&#93;{2}$</text>
</g>
<path d="M1242 100h10"></path>
<path d="M1252 100h10"></path>
<g class="terminal">
<path d="M1262 100h0"></path>
<path d="M1324.5 100h0"></path>
<rect x="1262" y="89" width="62.5" height="22" rx="10" ry="10"></rect>
<text x="1293.25" y="104">!") "</text>
</g>
</g>
<path d="M1324.5 100h10"></path>
<path d="M1334.5 100h10"></path>
<g>
<path d="M1344.5 100h0"></path>
<path d="M1593.5 100h0"></path>
<path d="M1374.5 100h10"></path>
<g>
<path d="M1384.5 100h0"></path>
<path d="M1529.5 100h34"></path>
<g class="terminal">
<path d="M1384.5 100h0"></path>
<path d="M1438.5 100h0"></path>
<rect x="1384.5" y="89" width="54" height="22" rx="10" ry="10"></rect>
<text x="1411.5" y="104">"TO"</text>
</g>
<path d="M1438.5 100h10"></path>
<path d="M1448.5 100h10"></path>
<g class="non-terminal">
<path d="M1458.5 100h0"></path>
<path d="M1529.5 100h0"></path>
<rect x="1458.5" y="89" width="71" height="22"></rect>
<a xlink:href="#/abap/expression/Target"><text x="1494" y="104">Target</text>
</a>
</g>
</g>
<path d="M1563.5 100h10"></path>
<path d="M1374.5 100v20a10 10 0 0 0 10 10"></path>
<g>
<path d="M1384.5 130h0"></path>
<path d="M1563.5 130h0"></path>
<g class="terminal">
<path d="M1384.5 130h0"></path>
<path d="M1472.5 130h0"></path>
<rect x="1384.5" y="119" width="88" height="22" rx="10" ry="10"></rect>
<text x="1428.5" y="134">"CLIENT"</text>
</g>
<path d="M1472.5 130h10"></path>
<path d="M1482.5 130h10"></path>
<g class="non-terminal">
<path d="M1492.5 130h0"></path>
<path d="M1563.5 130h0"></path>
<rect x="1492.5" y="119" width="71" height="22"></rect>
<a xlink:href="#/abap/expression/Source"><text x="1528" y="134">Source</text>
</a>
</g>
</g>
<path d="M1563.5 130a10 10 0 0 0 10 -10v-20"></path>
<path d="M1374.5 100v50a10 10 0 0 0 10 10"></path>
<g>
<path d="M1384.5 160h0"></path>
<path d="M1529.5 160h34"></path>
<g class="terminal">
<path d="M1384.5 160h0"></path>
<path d="M1438.5 160h0"></path>
<rect x="1384.5" y="149" width="54" height="22" rx="10" ry="10"></rect>
<text x="1411.5" y="164">"ID"</text>
</g>
<path d="M1438.5 160h10"></path>
<path d="M1448.5 160h10"></path>
<g class="non-terminal">
<path d="M1458.5 160h0"></path>
<path d="M1529.5 160h0"></path>
<rect x="1458.5" y="149" width="71" height="22"></rect>
<a xlink:href="#/abap/expression/Source"><text x="1494" y="164">Source</text>
</a>
</g>
</g>
<path d="M1563.5 160a10 10 0 0 0 10 -10v-50"></path>
<path d="M1374.5 100v80a10 10 0 0 0 10 10"></path>
<g>
<path d="M1384.5 190h0"></path>
<path d="M1555 190h8.5"></path>
<g class="terminal">
<path d="M1384.5 190h0"></path>
<path d="M1464 190h0"></path>
<rect x="1384.5" y="179" width="79.5" height="22" rx="10" ry="10"></rect>
<text x="1424.25" y="194">"USING"</text>
</g>
<path d="M1464 190h10"></path>
<path d="M1474 190h10"></path>
<g class="non-terminal">
<path d="M1484 190h0"></path>
<path d="M1555 190h0"></path>
<rect x="1484" y="179" width="71" height="22"></rect>
<a xlink:href="#/abap/expression/Source"><text x="1519.5" y="194">Source</text>
</a>
</g>
</g>
<path d="M1563.5 190a10 10 0 0 0 10 -10v-80"></path>
<g class="diagram-text">
<title>take one or more branches, once each, in any order</title>
<path d="M 1374.5 90 h -26 a 4 4 0 0 0 -4 4 v 12 a 4 4 0 0 0 4 4 h 26 z" class="diagram-text"></path>
<text x="1359.5" y="104" class="diagram-text">1+</text>
<path d="M 1573.5 90 h 16 a 4 4 0 0 1 4 4 v 12 a 4 4 0 0 1 -4 4 h -16 z" class="diagram-text"></path>
<path d="M 1580.5 98 a 4 4 0 1 0 6 -1 m 2.75 -1 h -4 v 4 m 0 -3 h 2" style="stroke-width: 1.75"></path>
</g>
</g>
</g>
<path d="M1666 100a10 10 0 0 0 10 -10v-40a10 10 0 0 1 10 -10"></path>
<path d="M691 40a10 10 0 0 1 10 10v160a10 10 0 0 0 10 10"></path>
<g>
<path d="M711 220h0"></path>
<path d="M958 220h708"></path>
<g class="terminal">
<path d="M711 220h0"></path>
<path d="M867 220h0"></path>
<rect x="711" y="209" width="156" height="22" rx="10" ry="10"></rect>
<text x="789" y="224">"INTERNAL TABLE"</text>
</g>
<path d="M867 220h10"></path>
<path d="M877 220h10"></path>
<g class="non-terminal">
<path d="M887 220h0"></path>
<path d="M958 220h0"></path>
<rect x="887" y="209" width="71" height="22"></rect>
<a xlink:href="#/abap/expression/Source"><text x="922.5" y="224">Source</text>
</a>
</g>
</g>
<path d="M1666 220a10 10 0 0 0 10 -10v-160a10 10 0 0 1 10 -10"></path>
<path d="M691 40a10 10 0 0 1 10 10v190a10 10 0 0 0 10 10"></path>
<g>
<path d="M711 250h0"></path>
<path d="M1666 250h0"></path>
<g>
<path d="M711 250h0"></path>
<path d="M898.5 250h0"></path>
<path d="M711 250h20"></path>
<g class="terminal">
<path d="M731 250h0"></path>
<path d="M878.5 250h0"></path>
<rect x="731" y="239" width="147.5" height="22" rx="10" ry="10"></rect>
<text x="804.75" y="254">"SHARED MEMORY"</text>
</g>
<path d="M878.5 250h20"></path>
<path d="M711 250a10 10 0 0 1 10 10v10a10 10 0 0 0 10 10"></path>
<g class="terminal">
<path d="M731 280h0"></path>
<path d="M878.5 280h0"></path>
<rect x="731" y="269" width="147.5" height="22" rx="10" ry="10"></rect>
<text x="804.75" y="284">"SHARED BUFFER"</text>
</g>
<path d="M878.5 280a10 10 0 0 0 10 -10v-10a10 10 0 0 1 10 -10"></path>
</g>
<path d="M898.5 250h10"></path>
<g>
<path d="M908.5 250h0"></path>
<path d="M1397 250h0"></path>
<g class="non-terminal">
<path d="M908.5 250h0"></path>
<path d="M1090 250h0"></path>
<rect x="908.5" y="239" width="181.5" height="22"></rect>
<a xlink:href="#/abap/expression/NamespaceSimpleName"><text x="999.25" y="254">NamespaceSimpleName</text>
</a>
</g>
<path d="M1090 250h10"></path>
<path d="M1100 250h10"></path>
<g class="terminal">
<path d="M1110 250h0"></path>
<path d="M1164 250h0"></path>
<rect x="1110" y="239" width="54" height="22" rx="10" ry="10"></rect>
<text x="1137" y="254">!"("</text>
</g>
<path d="M1164 250h10"></path>
<path d="M1174 250h10"></path>
<g class="terminal">
<path d="M1184 250h0"></path>
<path d="M1314.5 250h0"></path>
<rect x="1184" y="239" width="130.5" height="22" rx="10" ry="10"></rect>
<text x="1249.25" y="254">^&#91;\w$%\^&#93;{2}$</text>
</g>
<path d="M1314.5 250h10"></path>
<path d="M1324.5 250h10"></path>
<g class="terminal">
<path d="M1334.5 250h0"></path>
<path d="M1397 250h0"></path>
<rect x="1334.5" y="239" width="62.5" height="22" rx="10" ry="10"></rect>
<text x="1365.75" y="254">!") "</text>
</g>
</g>
<path d="M1397 250h10"></path>
<path d="M1407 250h10"></path>
<g>
<path d="M1417 250h0"></path>
<path d="M1666 250h0"></path>
<path d="M1447 250h10"></path>
<g>
<path d="M1457 250h0"></path>
<path d="M1602 250h34"></path>
<g class="terminal">
<path d="M1457 250h0"></path>
<path d="M1511 250h0"></path>
<rect x="1457" y="239" width="54" height="22" rx="10" ry="10"></rect>
<text x="1484" y="254">"TO"</text>
</g>
<path d="M1511 250h10"></path>
<path d="M1521 250h10"></path>
<g class="non-terminal">
<path d="M1531 250h0"></path>
<path d="M1602 250h0"></path>
<rect x="1531" y="239" width="71" height="22"></rect>
<a xlink:href="#/abap/expression/Target"><text x="1566.5" y="254">Target</text>
</a>
</g>
</g>
<path d="M1636 250h10"></path>
<path d="M1447 250v20a10 10 0 0 0 10 10"></path>
<g>
<path d="M1457 280h0"></path>
<path d="M1636 280h0"></path>
<g class="terminal">
<path d="M1457 280h0"></path>
<path d="M1545 280h0"></path>
<rect x="1457" y="269" width="88" height="22" rx="10" ry="10"></rect>
<text x="1501" y="284">"CLIENT"</text>
</g>
<path d="M1545 280h10"></path>
<path d="M1555 280h10"></path>
<g class="non-terminal">
<path d="M1565 280h0"></path>
<path d="M1636 280h0"></path>
<rect x="1565" y="269" width="71" height="22"></rect>
<a xlink:href="#/abap/expression/Source"><text x="1600.5" y="284">Source</text>
</a>
</g>
</g>
<path d="M1636 280a10 10 0 0 0 10 -10v-20"></path>
<path d="M1447 250v50a10 10 0 0 0 10 10"></path>
<g>
<path d="M1457 310h0"></path>
<path d="M1602 310h34"></path>
<g class="terminal">
<path d="M1457 310h0"></path>
<path d="M1511 310h0"></path>
<rect x="1457" y="299" width="54" height="22" rx="10" ry="10"></rect>
<text x="1484" y="314">"ID"</text>
</g>
<path d="M1511 310h10"></path>
<path d="M1521 310h10"></path>
<g class="non-terminal">
<path d="M1531 310h0"></path>
<path d="M1602 310h0"></path>
<rect x="1531" y="299" width="71" height="22"></rect>
<a xlink:href="#/abap/expression/Source"><text x="1566.5" y="314">Source</text>
</a>
</g>
</g>
<path d="M1636 310a10 10 0 0 0 10 -10v-50"></path>
<g class="diagram-text">
<title>take one or more branches, once each, in any order</title>
<path d="M 1447 240 h -26 a 4 4 0 0 0 -4 4 v 12 a 4 4 0 0 0 4 4 h 26 z" class="diagram-text"></path>
<text x="1432" y="254" class="diagram-text">1+</text>
<path d="M 1646 240 h 16 a 4 4 0 0 1 4 4 v 12 a 4 4 0 0 1 -4 4 h -16 z" class="diagram-text"></path>
<path d="M 1653 248 a 4 4 0 1 0 6 -1 m 2.75 -1 h -4 v 4 m 0 -3 h 2" style="stroke-width: 1.75"></path>
</g>
</g>
</g>
<path d="M1666 250a10 10 0 0 0 10 -10v-190a10 10 0 0 1 10 -10"></path>
</g>
<g>
<path d="M1686 40h0"></path>
<path d="M2102.5 40h0"></path>
<path d="M1686 40a10 10 0 0 0 10 -10v0a10 10 0 0 1 10 -10"></path>
<g>
<path d="M1706 20h376.5"></path>
</g>
<path d="M2082.5 20a10 10 0 0 1 10 10v0a10 10 0 0 0 10 10"></path>
<path d="M1686 40h20"></path>
<g>
<path d="M1706 40h0"></path>
<path d="M2082.5 40h0"></path>
<path d="M1736 40h10"></path>
<g class="terminal">
<path d="M1746 40h0"></path>
<path d="M1927.5 40h125"></path>
<rect x="1746" y="29" width="181.5" height="22" rx="10" ry="10"></rect>
<text x="1836.75" y="44">"ACCEPTING PADDING"</text>
</g>
<path d="M2052.5 40h10"></path>
<path d="M1736 40v20a10 10 0 0 0 10 10"></path>
<g class="terminal">
<path d="M1746 70h0"></path>
<path d="M2004 70h48.5"></path>
<rect x="1746" y="59" width="258" height="22" rx="10" ry="10"></rect>
<text x="1875" y="74">"IGNORING CONVERSION ERRORS"</text>
</g>
<path d="M2052.5 70a10 10 0 0 0 10 -10v-20"></path>
<path d="M1736 40v50a10 10 0 0 0 10 10"></path>
<g class="terminal">
<path d="M1746 100h0"></path>
<path d="M1944.5 100h108"></path>
<rect x="1746" y="89" width="198.5" height="22" rx="10" ry="10"></rect>
<text x="1845.25" y="104">"IN CHAR-TO-HEX MODE"</text>
</g>
<path d="M2052.5 100a10 10 0 0 0 10 -10v-50"></path>
<path d="M1736 40v80a10 10 0 0 0 10 10"></path>
<g class="terminal">
<path d="M1746 130h0"></path>
<path d="M2029.5 130h23"></path>
<rect x="1746" y="119" width="283.5" height="22" rx="10" ry="10"></rect>
<text x="1887.75" y="134">"IGNORING STRUCTURE BOUNDARIES"</text>
</g>
<path d="M2052.5 130a10 10 0 0 0 10 -10v-80"></path>
<path d="M1736 40v110a10 10 0 0 0 10 10"></path>
<g class="terminal">
<path d="M1746 160h0"></path>
<path d="M1953 160h99.5"></path>
<rect x="1746" y="149" width="207" height="22" rx="10" ry="10"></rect>
<text x="1849.5" y="164">"ACCEPTING TRUNCATION"</text>
</g>
<path d="M2052.5 160a10 10 0 0 0 10 -10v-110"></path>
<path d="M1736 40v140a10 10 0 0 0 10 10"></path>
<g>
<path d="M1746 190h0"></path>
<path d="M2052.5 190h0"></path>
<g class="terminal">
<path d="M1746 190h0"></path>
<path d="M1961.5 190h0"></path>
<rect x="1746" y="179" width="215.5" height="22" rx="10" ry="10"></rect>
<text x="1853.75" y="194">"REPLACEMENT CHARACTER"</text>
</g>
<path d="M1961.5 190h10"></path>
<path d="M1971.5 190h10"></path>
<g class="non-terminal">
<path d="M1981.5 190h0"></path>
<path d="M2052.5 190h0"></path>
<rect x="1981.5" y="179" width="71" height="22"></rect>
<a xlink:href="#/abap/expression/Source"><text x="2017" y="194">Source</text>
</a>
</g>
</g>
<path d="M2052.5 190a10 10 0 0 0 10 -10v-140"></path>
<path d="M1736 40v170a10 10 0 0 0 10 10"></path>
<g>
<path d="M1746 220h0"></path>
<path d="M1993 220h59.5"></path>
<g class="terminal">
<path d="M1746 220h0"></path>
<path d="M1902 220h0"></path>
<rect x="1746" y="209" width="156" height="22" rx="10" ry="10"></rect>
<text x="1824" y="224">"CODE PAGE INTO"</text>
</g>
<path d="M1902 220h10"></path>
<path d="M1912 220h10"></path>
<g class="non-terminal">
<path d="M1922 220h0"></path>
<path d="M1993 220h0"></path>
<rect x="1922" y="209" width="71" height="22"></rect>
<a xlink:href="#/abap/expression/Source"><text x="1957.5" y="224">Source</text>
</a>
</g>
</g>
<path d="M2052.5 220a10 10 0 0 0 10 -10v-170"></path>
<path d="M1736 40v200a10 10 0 0 0 10 10"></path>
<g>
<path d="M1746 250h0"></path>
<path d="M1967.5 250h85"></path>
<g class="terminal">
<path d="M1746 250h0"></path>
<path d="M1876.5 250h0"></path>
<rect x="1746" y="239" width="130.5" height="22" rx="10" ry="10"></rect>
<text x="1811.25" y="254">"ENDIAN INTO"</text>
</g>
<path d="M1876.5 250h10"></path>
<path d="M1886.5 250h10"></path>
<g class="non-terminal">
<path d="M1896.5 250h0"></path>
<path d="M1967.5 250h0"></path>
<rect x="1896.5" y="239" width="71" height="22"></rect>
<a xlink:href="#/abap/expression/Source"><text x="1932" y="254">Source</text>
</a>
</g>
</g>
<path d="M2052.5 250a10 10 0 0 0 10 -10v-200"></path>
<g class="diagram-text">
<title>take one or more branches, once each, in any order</title>
<path d="M 1736 30 h -26 a 4 4 0 0 0 -4 4 v 12 a 4 4 0 0 0 4 4 h 26 z" class="diagram-text"></path>
<text x="1721" y="44" class="diagram-text">1+</text>
<path d="M 2062.5 30 h 16 a 4 4 0 0 1 4 4 v 12 a 4 4 0 0 1 -4 4 h -16 z" class="diagram-text"></path>
<path d="M 2069.5 38 a 4 4 0 1 0 6 -1 m 2.75 -1 h -4 v 4 m 0 -3 h 2" style="stroke-width: 1.75"></path>
</g>
</g>
<path d="M2082.5 40h20"></path>
</g>
</g>
<path d="M2102.5 40h10"></path>
<path d="M 2112.5 40 h 20 m -10 -10 v 20 m 10 -20 v 20"></path>
</g>
</svg>
