<svg xmlns="http://www.w3.org/2000/svg" xmlns:xlink="http://www.w3.org/1999/xlink" class="railroad-diagram" width="1918" height="71" viewBox="0 0 1918 71">
<defs>
<style type="text/css"><![CDATA[
path {
stroke-width: 3;
stroke: black;
fill: rgba(0,0,0,0);
}
text {
font: bold 14px monospace;
text-anchor: middle;
}
text.diagram-text {
font-size: 12px;
}
a {
fill: blue;
}
text.diagram-arrow {
font-size: 16px;
}
text.label {
text-anchor: start;
}
text.comment {
font: italic 12px monospace;
}
rect {
stroke-width: 3;
stroke: black;
fill: #BCBCBC;
}
path.diagram-text {
stroke-width: 3;
stroke: black;
fill: #BCBCBC;
cursor: help;
}
]]></style>
</defs>
<g transform="translate(.5 .5)">
<g>
<path d="M20 30v20m10 -20v20m-10 -10h20"></path>
</g>
<path d="M40 40h10"></path>
<g>
<path d="M50 40h0"></path>
<path d="M1868 40h0"></path>
<g>
<path d="M50 40h0"></path>
<path d="M88 40h0"></path>
<text x="69" y="45" class="comment">v754</text>
</g>
<path d="M88 40h10"></path>
<path d="M98 40h10"></path>
<g>
<path d="M108 40h0"></path>
<path d="M1868 40h0"></path>
<g class="terminal">
<path d="M108 40h0"></path>
<path d="M272.5 40h0"></path>
<rect x="108" y="29" width="164.5" height="22" rx="10" ry="10"></rect>
<text x="190.25" y="44">"COMMIT ENTITIES"</text>
</g>
<path d="M272.5 40h10"></path>
<g>
<path d="M282.5 40h0"></path>
<path d="M512.5 40h0"></path>
<path d="M282.5 40a10 10 0 0 0 10 -10v0a10 10 0 0 1 10 -10"></path>
<g>
<path d="M302.5 20h190"></path>
</g>
<path d="M492.5 20a10 10 0 0 1 10 10v0a10 10 0 0 0 10 10"></path>
<path d="M282.5 40h20"></path>
<g class="terminal">
<path d="M302.5 40h0"></path>
<path d="M492.5 40h0"></path>
<rect x="302.5" y="29" width="190" height="22" rx="10" ry="10"></rect>
<text x="397.5" y="44">"IN SIMULATION MODE"</text>
</g>
<path d="M492.5 40h20"></path>
</g>
<g>
<path d="M512.5 40h0"></path>
<path d="M1081 40h0"></path>
<path d="M512.5 40a10 10 0 0 0 10 -10v0a10 10 0 0 1 10 -10"></path>
<g>
<path d="M532.5 20h528.5"></path>
</g>
<path d="M1061 20a10 10 0 0 1 10 10v0a10 10 0 0 0 10 10"></path>
<path d="M512.5 40h20"></path>
<g>
<path d="M532.5 40h0"></path>
<path d="M1061 40h0"></path>
<g class="terminal">
<path d="M532.5 40h0"></path>
<path d="M646 40h0"></path>
<rect x="532.5" y="29" width="113.5" height="22" rx="10" ry="10"></rect>
<text x="589.25" y="44">"RESPONSES"</text>
</g>
<path d="M646 40h10"></path>
<path d="M656 40h10"></path>
<g>
<path d="M666 40h0"></path>
<path d="M845 40h0"></path>
<g class="terminal">
<path d="M666 40h0"></path>
<path d="M754 40h0"></path>
<rect x="666" y="29" width="88" height="22" rx="10" ry="10"></rect>
<text x="710" y="44">"FAILED"</text>
</g>
<path d="M754 40h10"></path>
<path d="M764 40h10"></path>
<g class="non-terminal">
<path d="M774 40h0"></path>
<path d="M845 40h0"></path>
<rect x="774" y="29" width="71" height="22"></rect>
<a xlink:href="#/abap/expression/Target"><text x="809.5" y="44">Target</text>
</a>
</g>
</g>
<path d="M845 40h10"></path>
<path d="M855 40h10"></path>
<g>
<path d="M865 40h0"></path>
<path d="M1061 40h0"></path>
<g class="terminal">
<path d="M865 40h0"></path>
<path d="M970 40h0"></path>
<rect x="865" y="29" width="105" height="22" rx="10" ry="10"></rect>
<text x="917.5" y="44">"REPORTED"</text>
</g>
<path d="M970 40h10"></path>
<path d="M980 40h10"></path>
<g class="non-terminal">
<path d="M990 40h0"></path>
<path d="M1061 40h0"></path>
<rect x="990" y="29" width="71" height="22"></rect>
<a xlink:href="#/abap/expression/Target"><text x="1025.5" y="44">Target</text>
</a>
</g>
</g>
</g>
<path d="M1061 40h20"></path>
</g>
<g>
<path d="M1081 40h0"></path>
<path d="M1868 40h0"></path>
<path d="M1081 40a10 10 0 0 0 10 -10v0a10 10 0 0 1 10 -10"></path>
<g>
<path d="M1101 20h747"></path>
</g>
<path d="M1848 20a10 10 0 0 1 10 10v0a10 10 0 0 0 10 10"></path>
<path d="M1081 40h20"></path>
<g>
<path d="M1101 40h0"></path>
<path d="M1848 40h0"></path>
<g class="terminal">
<path d="M1101 40h0"></path>
<path d="M1231.5 40h0"></path>
<rect x="1101" y="29" width="130.5" height="22" rx="10" ry="10"></rect>
<text x="1166.25" y="44">"RESPONSE OF"</text>
</g>
<path d="M1231.5 40h10"></path>
<path d="M1241.5 40h10"></path>
<g class="non-terminal">
<path d="M1251.5 40h0"></path>
<path d="M1433 40h0"></path>
<rect x="1251.5" y="29" width="181.5" height="22"></rect>
<a xlink:href="#/abap/expression/NamespaceSimpleName"><text x="1342.25" y="44">NamespaceSimpleName</text>
</a>
</g>
<path d="M1433 40h10"></path>
<path d="M1443 40h10"></path>
<g>
<path d="M1453 40h0"></path>
<path d="M1632 40h0"></path>
<g class="terminal">
<path d="M1453 40h0"></path>
<path d="M1541 40h0"></path>
<rect x="1453" y="29" width="88" height="22" rx="10" ry="10"></rect>
<text x="1497" y="44">"FAILED"</text>
</g>
<path d="M1541 40h10"></path>
<path d="M1551 40h10"></path>
<g class="non-terminal">
<path d="M1561 40h0"></path>
<path d="M1632 40h0"></path>
<rect x="1561" y="29" width="71" height="22"></rect>
<a xlink:href="#/abap/expression/Target"><text x="1596.5" y="44">Target</text>
</a>
</g>
</g>
<path d="M1632 40h10"></path>
<path d="M1642 40h10"></path>
<g>
<path d="M1652 40h0"></path>
<path d="M1848 40h0"></path>
<g class="terminal">
<path d="M1652 40h0"></path>
<path d="M1757 40h0"></path>
<rect x="1652" y="29" width="105" height="22" rx="10" ry="10"></rect>
<text x="1704.5" y="44">"REPORTED"</text>
</g>
<path d="M1757 40h10"></path>
<path d="M1767 40h10"></path>
<g class="non-terminal">
<path d="M1777 40h0"></path>
<path d="M1848 40h0"></path>
<rect x="1777" y="29" width="71" height="22"></rect>
<a xlink:href="#/abap/expression/Target"><text x="1812.5" y="44">Target</text>
</a>
</g>
</g>
</g>
<path d="M1848 40h20"></path>
</g>
</g>
</g>
<path d="M1868 40h10"></path>
<path d="M 1878 40 h 20 m -10 -10 v 20 m 10 -20 v 20"></path>
</g>
</svg>
