<svg xmlns="http://www.w3.org/2000/svg" xmlns:xlink="http://www.w3.org/1999/xlink" class="railroad-diagram" width="1148" height="367" viewBox="0 0 1148 367">
<defs>
<style type="text/css"><![CDATA[
path {
stroke-width: 3;
stroke: black;
fill: rgba(0,0,0,0);
}
text {
font: bold 14px monospace;
text-anchor: middle;
}
text.diagram-text {
font-size: 12px;
}
a {
fill: blue;
}
text.diagram-arrow {
font-size: 16px;
}
text.label {
text-anchor: start;
}
text.comment {
font: italic 12px monospace;
}
rect {
stroke-width: 3;
stroke: black;
fill: #BCBCBC;
}
path.diagram-text {
stroke-width: 3;
stroke: black;
fill: #BCBCBC;
cursor: help;
}
]]></style>
</defs>
<g transform="translate(.5 .5)">
<g>
<path d="M20 38v20m10 -20v20m-10 -10h20"></path>
</g>
<g>
<path d="M40 48h0"></path>
<path d="M1108 48h0"></path>
<path d="M40 48h20"></path>
<g>
<path d="M60 48h0"></path>
<path d="M1088 48h0"></path>
<g>
<path d="M60 48h0"></path>
<path d="M280 48h0"></path>
<g class="comment ">
<path d="M60 48h0"></path>
<path d="M189 48h0"></path>
<text x="124.5" y="53" class="comment">not langver=Cloud</text>
</g>
<path d="M189 48h10"></path>
<path d="M199 48h10"></path>
<g class="terminal ">
<path d="M209 48h0"></path>
<path d="M280 48h0"></path>
<rect x="209" y="37" width="71" height="22" rx="10" ry="10"></rect>
<text x="244.5" y="52">"MOVE"</text>
</g>
</g>
<path d="M280 48h10"></path>
<g>
<path d="M290 48h0"></path>
<path d="M665.5 48h0"></path>
<path d="M290 48h20"></path>
<g>
<path d="M310 48h0"></path>
<path d="M645.5 48h0"></path>
<g class="terminal ">
<path d="M310 48h0"></path>
<path d="M389.5 48h0"></path>
<rect x="310" y="37" width="79.5" height="22" rx="10" ry="10"></rect>
<text x="349.75" y="52">"EXACT"</text>
</g>
<path d="M389.5 48h10"></path>
<path d="M399.5 48h10"></path>
<g class="non-terminal ">
<path d="M409.5 48h0"></path>
<path d="M480.5 48h0"></path>
<rect x="409.5" y="37" width="71" height="22"></rect>
<a xlink:href="#/abap/expression/Source"><text x="445" y="52">Source</text>
</a>
</g>
<path d="M480.5 48h10"></path>
<path d="M490.5 48h10"></path>
<g class="terminal ">
<path d="M500.5 48h0"></path>
<path d="M554.5 48h0"></path>
<rect x="500.5" y="37" width="54" height="22" rx="10" ry="10"></rect>
<text x="527.5" y="52">"TO"</text>
</g>
<path d="M554.5 48h10"></path>
<path d="M564.5 48h10"></path>
<g class="non-terminal ">
<path d="M574.5 48h0"></path>
<path d="M645.5 48h0"></path>
<rect x="574.5" y="37" width="71" height="22"></rect>
<a xlink:href="#/abap/expression/Target"><text x="610" y="52">Target</text>
</a>
</g>
</g>
<path d="M645.5 48h20"></path>
<path d="M290 48a10 10 0 0 1 10 10v10a10 10 0 0 0 10 10"></path>
<g>
<path d="M310 78h35.5"></path>
<path d="M610 78h35.5"></path>
<g class="non-terminal ">
<path d="M345.5 78h0"></path>
<path d="M416.5 78h0"></path>
<rect x="345.5" y="67" width="71" height="22"></rect>
<a xlink:href="#/abap/expression/Source"><text x="381" y="82">Source</text>
</a>
</g>
<path d="M416.5 78h10"></path>
<g>
<path d="M426.5 78h0"></path>
<path d="M529 78h0"></path>
<path d="M426.5 78h20"></path>
<g class="terminal ">
<path d="M446.5 78h0"></path>
<path d="M509 78h0"></path>
<rect x="446.5" y="67" width="62.5" height="22" rx="10" ry="10"></rect>
<text x="477.75" y="82">"?TO"</text>
</g>
<path d="M509 78h20"></path>
<path d="M426.5 78a10 10 0 0 1 10 10v10a10 10 0 0 0 10 10"></path>
<g class="terminal ">
<path d="M446.5 108h4.25"></path>
<path d="M504.75 108h4.25"></path>
<rect x="450.75" y="97" width="54" height="22" rx="10" ry="10"></rect>
<text x="477.75" y="112">"TO"</text>
</g>
<path d="M509 108a10 10 0 0 0 10 -10v-10a10 10 0 0 1 10 -10"></path>
</g>
<path d="M529 78h10"></path>
<g class="non-terminal ">
<path d="M539 78h0"></path>
<path d="M610 78h0"></path>
<rect x="539" y="67" width="71" height="22"></rect>
<a xlink:href="#/abap/expression/Target"><text x="574.5" y="82">Target</text>
</a>
</g>
</g>
<path d="M645.5 78a10 10 0 0 0 10 -10v-10a10 10 0 0 1 10 -10"></path>
</g>
<g>
<path d="M665.5 48h0"></path>
<path d="M1088 48h0"></path>
<path d="M665.5 48a10 10 0 0 0 10 -10v-8a10 10 0 0 1 10 -10"></path>
<g>
<path d="M685.5 20h382.5"></path>
</g>
<path d="M1068 20a10 10 0 0 1 10 10v8a10 10 0 0 0 10 10"></path>
<path d="M665.5 48h20"></path>
<g>
<path d="M685.5 48h0"></path>
<path d="M1068 48h0"></path>
<g class="terminal ">
<path d="M685.5 48h0"></path>
<path d="M807.5 48h0"></path>
<rect x="685.5" y="37" width="122" height="22" rx="10" ry="10"></rect>
<text x="746.5" y="52">"PERCENTAGE"</text>
</g>
<path d="M807.5 48h10"></path>
<path d="M817.5 48h10"></path>
<g class="non-terminal ">
<path d="M827.5 48h0"></path>
<path d="M898.5 48h0"></path>
<rect x="827.5" y="37" width="71" height="22"></rect>
<a xlink:href="#/abap/expression/Source"><text x="863" y="52">Source</text>
</a>
</g>
<path d="M898.5 48h10"></path>
<g>
<path d="M908.5 48h0"></path>
<path d="M1068 48h0"></path>
<path d="M908.5 48a10 10 0 0 0 10 -10v0a10 10 0 0 1 10 -10"></path>
<g>
<path d="M928.5 28h119.5"></path>
</g>
<path d="M1048 28a10 10 0 0 1 10 10v0a10 10 0 0 0 10 10"></path>
<path d="M908.5 48h20"></path>
<g>
<path d="M928.5 48h0"></path>
<path d="M1048 48h0"></path>
<path d="M928.5 48h20"></path>
<g class="terminal ">
<path d="M948.5 48h4.25"></path>
<path d="M1023.75 48h4.25"></path>
<rect x="952.75" y="37" width="71" height="22" rx="10" ry="10"></rect>
<text x="988.25" y="52">"LEFT"</text>
</g>
<path d="M1028 48h20"></path>
<path d="M928.5 48a10 10 0 0 1 10 10v10a10 10 0 0 0 10 10"></path>
<g class="terminal ">
<path d="M948.5 78h0"></path>
<path d="M1028 78h0"></path>
<rect x="948.5" y="67" width="79.5" height="22" rx="10" ry="10"></rect>
<text x="988.25" y="82">"RIGHT"</text>
</g>
<path d="M1028 78a10 10 0 0 0 10 -10v-10a10 10 0 0 1 10 -10"></path>
</g>
<path d="M1048 48h20"></path>
</g>
</g>
<path d="M1068 48h20"></path>
</g>
</g>
<path d="M1088 48h20"></path>
<path d="M40 48a10 10 0 0 1 10 10v79a10 10 0 0 0 10 10"></path>
<g>
<path d="M60 147h250.25"></path>
<path d="M837.75 147h250.25"></path>
<g class="non-terminal ">
<path d="M310.25 147h0"></path>
<path d="M381.25 147h0"></path>
<rect x="310.25" y="136" width="71" height="22"></rect>
<a xlink:href="#/abap/expression/Target"><text x="345.75" y="151">Target</text>
</a>
</g>
<path d="M381.25 147h10"></path>
<g>
<path d="M391.25 147h0"></path>
<path d="M756.75 147h0"></path>
<path d="M391.25 147h20"></path>
<g>
<path d="M411.25 147h16.75"></path>
<path d="M720 147h16.75"></path>
<path d="M428 147h20"></path>
<g>
<path d="M448 147h0"></path>
<path d="M700 147h0"></path>
<g class="terminal ">
<path d="M448 147h0"></path>
<path d="M493.5 147h0"></path>
<rect x="448" y="136" width="45.5" height="22" rx="10" ry="10"></rect>
<text x="470.75" y="151">"="</text>
</g>
<path d="M493.5 147h10"></path>
<g>
<path d="M503.5 147h0"></path>
<path d="M700 147h0"></path>
<path d="M503.5 147a10 10 0 0 0 10 -10v0a10 10 0 0 1 10 -10"></path>
<g>
<path d="M523.5 127h156.5"></path>
</g>
<path d="M680 127a10 10 0 0 1 10 10v0a10 10 0 0 0 10 10"></path>
<path d="M503.5 147h20"></path>
<g>
<path d="M523.5 147h0"></path>
<path d="M680 147h0"></path>
<path d="M523.5 147h10"></path>
<g>
<path d="M533.5 147h0"></path>
<path d="M670 147h0"></path>
<g class="non-terminal ">
<path d="M533.5 147h0"></path>
<path d="M604.5 147h0"></path>
<rect x="533.5" y="136" width="71" height="22"></rect>
<a xlink:href="#/abap/expression/Target"><text x="569" y="151">Target</text>
</a>
</g>
<path d="M604.5 147h10"></path>
<path d="M614.5 147h10"></path>
<g class="terminal ">
<path d="M624.5 147h0"></path>
<path d="M670 147h0"></path>
<rect x="624.5" y="136" width="45.5" height="22" rx="10" ry="10"></rect>
<text x="647.25" y="151">"="</text>
</g>
</g>
<path d="M670 147h10"></path>
<path d="M533.5 147a10 10 0 0 0 -10 10v0a10 10 0 0 0 10 10"></path>
<g>
<path d="M533.5 167h136.5"></path>
</g>
<path d="M670 167a10 10 0 0 0 10 -10v0a10 10 0 0 0 -10 -10"></path>
</g>
<path d="M680 147h20"></path>
</g>
</g>
<path d="M700 147h20"></path>
<path d="M428 147a10 10 0 0 1 10 10v19a10 10 0 0 0 10 10"></path>
<g class="terminal ">
<path d="M448 186h99"></path>
<path d="M601 186h99"></path>
<rect x="547" y="175" width="54" height="22" rx="10" ry="10"></rect>
<text x="574" y="190">"?="</text>
</g>
<path d="M700 186a10 10 0 0 0 10 -10v-19a10 10 0 0 1 10 -10"></path>
</g>
<path d="M736.75 147h20"></path>
<path d="M391.25 147a10 10 0 0 1 10 10v49a10 10 0 0 0 10 10"></path>
<g>
<path d="M411.25 216h0"></path>
<path d="M736.75 216h0"></path>
<g class="comment ">
<path d="M411.25 216h0"></path>
<path d="M533.25 216h0"></path>
<text x="472.25" y="221" class="comment">7.77 or OpenABAP</text>
</g>
<path d="M533.25 216h10"></path>
<g>
<path d="M543.25 216h0"></path>
<path d="M736.75 216h0"></path>
<path d="M543.25 216h20"></path>
<g>
<path d="M563.25 216h0"></path>
<path d="M716.75 216h0"></path>
<g class="terminal ">
<path d="M563.25 216h0"></path>
<path d="M651.25 216h0"></path>
<rect x="563.25" y="205" width="88" height="22" rx="10" ry="10"></rect>
<text x="607.25" y="220">!"WPlus"</text>
</g>
<path d="M651.25 216h10"></path>
<path d="M661.25 216h10"></path>
<g class="terminal ">
<path d="M671.25 216h0"></path>
<path d="M716.75 216h0"></path>
<rect x="671.25" y="205" width="45.5" height="22" rx="10" ry="10"></rect>
<text x="694" y="220">"="</text>
</g>
</g>
<path d="M716.75 216h20"></path>
<path d="M543.25 216a10 10 0 0 1 10 10v10a10 10 0 0 0 10 10"></path>
<g>
<path d="M563.25 246h0"></path>
<path d="M716.75 246h0"></path>
<g class="terminal ">
<path d="M563.25 246h0"></path>
<path d="M651.25 246h0"></path>
<rect x="563.25" y="235" width="88" height="22" rx="10" ry="10"></rect>
<text x="607.25" y="250">!"WDash"</text>
</g>
<path d="M651.25 246h10"></path>
<path d="M661.25 246h10"></path>
<g class="terminal ">
<path d="M671.25 246h0"></path>
<path d="M716.75 246h0"></path>
<rect x="671.25" y="235" width="45.5" height="22" rx="10" ry="10"></rect>
<text x="694" y="250">"="</text>
</g>
</g>
<path d="M716.75 246a10 10 0 0 0 10 -10v-10a10 10 0 0 1 10 -10"></path>
<path d="M543.25 216a10 10 0 0 1 10 10v40a10 10 0 0 0 10 10"></path>
<g class="terminal ">
<path d="M563.25 276h49.75"></path>
<path d="M667 276h49.75"></path>
<rect x="613" y="265" width="54" height="22" rx="10" ry="10"></rect>
<text x="640" y="280">"/="</text>
</g>
<path d="M716.75 276a10 10 0 0 0 10 -10v-40a10 10 0 0 1 10 -10"></path>
<path d="M543.25 216a10 10 0 0 1 10 10v70a10 10 0 0 0 10 10"></path>
<g class="terminal ">
<path d="M563.25 306h49.75"></path>
<path d="M667 306h49.75"></path>
<rect x="613" y="295" width="54" height="22" rx="10" ry="10"></rect>
<text x="640" y="310">"&#42;="</text>
</g>
<path d="M716.75 306a10 10 0 0 0 10 -10v-70a10 10 0 0 1 10 -10"></path>
<path d="M543.25 216a10 10 0 0 1 10 10v100a10 10 0 0 0 10 10"></path>
<g class="terminal ">
<path d="M563.25 336h45.5"></path>
<path d="M671.25 336h45.5"></path>
<rect x="608.75" y="325" width="62.5" height="22" rx="10" ry="10"></rect>
<text x="640" y="340">"&#38;&#38;="</text>
</g>
<path d="M716.75 336a10 10 0 0 0 10 -10v-100a10 10 0 0 1 10 -10"></path>
</g>
</g>
<path d="M736.75 216a10 10 0 0 0 10 -10v-49a10 10 0 0 1 10 -10"></path>
</g>
<path d="M756.75 147h10"></path>
<g class="non-terminal ">
<path d="M766.75 147h0"></path>
<path d="M837.75 147h0"></path>
<rect x="766.75" y="136" width="71" height="22"></rect>
<a xlink:href="#/abap/expression/Source"><text x="802.25" y="151">Source</text>
</a>
</g>
</g>
<path d="M1088 147a10 10 0 0 0 10 -10v-79a10 10 0 0 1 10 -10"></path>
</g>
<path d="M 1108 48 h 20 m -10 -10 v 20 m 10 -20 v 20"></path>
</g>
</svg>
