<svg xmlns="http://www.w3.org/2000/svg" xmlns:xlink="http://www.w3.org/1999/xlink" class="railroad-diagram" width="574.5" height="71" viewBox="0 0 574.5 71">
<defs>
<style type="text/css"><![CDATA[
path {
stroke-width: 3;
stroke: black;
fill: rgba(0,0,0,0);
}
text {
font: bold 14px monospace;
text-anchor: middle;
}
text.diagram-text {
font-size: 12px;
}
a {
fill: blue;
}
text.diagram-arrow {
font-size: 16px;
}
text.label {
text-anchor: start;
}
text.comment {
font: italic 12px monospace;
}
rect {
stroke-width: 3;
stroke: black;
fill: #BCBCBC;
}
path.diagram-text {
stroke-width: 3;
stroke: black;
fill: #BCBCBC;
cursor: help;
}
]]></style>
</defs>
<g transform="translate(.5 .5)">
<g>
<path d="M20 30v20m10 -20v20m-10 -10h20"></path>
</g>
<path d="M40 40h10"></path>
<g>
<path d="M50 40h0"></path>
<path d="M524.5 40h0"></path>
<g class="comment ">
<path d="M50 40h0"></path>
<path d="M179 40h0"></path>
<text x="114.5" y="45" class="comment">not langver=Cloud</text>
</g>
<path d="M179 40h10"></path>
<path d="M189 40h10"></path>
<g>
<path d="M199 40h0"></path>
<path d="M524.5 40h0"></path>
<g class="terminal ">
<path d="M199 40h0"></path>
<path d="M329.5 40h0"></path>
<rect x="199" y="29" width="130.5" height="22" rx="10" ry="10"></rect>
<text x="264.25" y="44">"FREE MEMORY"</text>
</g>
<path d="M329.5 40h10"></path>
<g>
<path d="M339.5 40h0"></path>
<path d="M524.5 40h0"></path>
<path d="M339.5 40a10 10 0 0 0 10 -10v0a10 10 0 0 1 10 -10"></path>
<g>
<path d="M359.5 20h145"></path>
</g>
<path d="M504.5 20a10 10 0 0 1 10 10v0a10 10 0 0 0 10 10"></path>
<path d="M339.5 40h20"></path>
<g>
<path d="M359.5 40h0"></path>
<path d="M504.5 40h0"></path>
<g class="terminal ">
<path d="M359.5 40h0"></path>
<path d="M413.5 40h0"></path>
<rect x="359.5" y="29" width="54" height="22" rx="10" ry="10"></rect>
<text x="386.5" y="44">"ID"</text>
</g>
<path d="M413.5 40h10"></path>
<path d="M423.5 40h10"></path>
<g class="non-terminal ">
<path d="M433.5 40h0"></path>
<path d="M504.5 40h0"></path>
<rect x="433.5" y="29" width="71" height="22"></rect>
<a xlink:href="#/abap/expression/Source"><text x="469" y="44">Source</text>
</a>
</g>
</g>
<path d="M504.5 40h20"></path>
</g>
</g>
</g>
<path d="M524.5 40h10"></path>
<path d="M 534.5 40 h 20 m -10 -10 v 20 m 10 -20 v 20"></path>
</g>
</svg>
