<svg xmlns="http://www.w3.org/2000/svg" xmlns:xlink="http://www.w3.org/1999/xlink" class="railroad-diagram" width="451" height="71" viewBox="0 0 451 71">
<defs>
<style type="text/css"><![CDATA[
path {
stroke-width: 3;
stroke: black;
fill: rgba(0,0,0,0);
}
text {
font: bold 14px monospace;
text-anchor: middle;
}
text.diagram-text {
font-size: 12px;
}
a {
fill: blue;
}
text.diagram-arrow {
font-size: 16px;
}
text.label {
text-anchor: start;
}
text.comment {
font: italic 12px monospace;
}
rect {
stroke-width: 3;
stroke: black;
fill: #BCBCBC;
}
path.diagram-text {
stroke-width: 3;
stroke: black;
fill: #BCBCBC;
cursor: help;
}
]]></style>
</defs>
<g transform="translate(.5 .5)">
<g>
<path d="M20 30v20m10 -20v20m-10 -10h20"></path>
</g>
<path d="M40 40h10"></path>
<g>
<path d="M50 40h0"></path>
<path d="M401 40h0"></path>
<g class="terminal ">
<path d="M50 40h0"></path>
<path d="M138 40h0"></path>
<rect x="50" y="29" width="88" height="22" rx="10" ry="10"></rect>
<text x="94" y="44">"RETURN"</text>
</g>
<path d="M138 40h10"></path>
<g>
<path d="M148 40h0"></path>
<path d="M401 40h0"></path>
<path d="M148 40a10 10 0 0 0 10 -10v0a10 10 0 0 1 10 -10"></path>
<g>
<path d="M168 20h213"></path>
</g>
<path d="M381 20a10 10 0 0 1 10 10v0a10 10 0 0 0 10 10"></path>
<path d="M148 40h20"></path>
<g>
<path d="M168 40h0"></path>
<path d="M381 40h0"></path>
<g class="comment ">
<path d="M168 40h0"></path>
<path d="M290 40h0"></path>
<text x="229" y="45" class="comment">7.93 or OpenABAP</text>
</g>
<path d="M290 40h10"></path>
<path d="M300 40h10"></path>
<g class="non-terminal ">
<path d="M310 40h0"></path>
<path d="M381 40h0"></path>
<rect x="310" y="29" width="71" height="22"></rect>
<a xlink:href="#/abap/expression/Source"><text x="345.5" y="44">Source</text>
</a>
</g>
</g>
<path d="M381 40h20"></path>
</g>
</g>
<path d="M401 40h10"></path>
<path d="M 411 40 h 20 m -10 -10 v 20 m 10 -20 v 20"></path>
</g>
</svg>
