<svg xmlns="http://www.w3.org/2000/svg" xmlns:xlink="http://www.w3.org/1999/xlink" class="railroad-diagram" width="905.5" height="710" viewBox="0 0 905.5 710">
<defs>
<style type="text/css"><![CDATA[
path {
stroke-width: 3;
stroke: black;
fill: rgba(0,0,0,0);
}
text {
font: bold 14px monospace;
text-anchor: middle;
}
text.diagram-text {
font-size: 12px;
}
a {
fill: blue;
}
text.diagram-arrow {
font-size: 16px;
}
text.label {
text-anchor: start;
}
text.comment {
font: italic 12px monospace;
}
rect {
stroke-width: 3;
stroke: black;
fill: #BCBCBC;
}
path.diagram-text {
stroke-width: 3;
stroke: black;
fill: #BCBCBC;
cursor: help;
}
]]></style>
</defs>
<g transform="translate(.5 .5)">
<g>
<path d="M20 30v20m10 -20v20m-10 -10h20"></path>
</g>
<path d="M40 40h10"></path>
<g>
<path d="M50 40h0"></path>
<path d="M855.5 40h0"></path>
<g class="comment ">
<path d="M50 40h0"></path>
<path d="M123 40h0"></path>
<text x="86.5" y="45" class="comment">not Cloud</text>
</g>
<path d="M123 40h10"></path>
<path d="M133 40h10"></path>
<g>
<path d="M143 40h0"></path>
<path d="M855.5 40h0"></path>
<g class="terminal ">
<path d="M143 40h0"></path>
<path d="M282 40h0"></path>
<rect x="143" y="29" width="139" height="22" rx="10" ry="10"></rect>
<text x="212.5" y="44">"OPEN DATASET"</text>
</g>
<path d="M282 40h10"></path>
<path d="M292 40h10"></path>
<g class="non-terminal ">
<path d="M302 40h0"></path>
<path d="M373 40h0"></path>
<rect x="302" y="29" width="71" height="22"></rect>
<a xlink:href="#/abap/expression/Source"><text x="337.5" y="44">Source</text>
</a>
</g>
<path d="M373 40h10"></path>
<g>
<path d="M383 40h0"></path>
<path d="M855.5 40h0"></path>
<path d="M383 40a10 10 0 0 0 10 -10v0a10 10 0 0 1 10 -10"></path>
<g>
<path d="M403 20h432.5"></path>
</g>
<path d="M835.5 20a10 10 0 0 1 10 10v0a10 10 0 0 0 10 10"></path>
<path d="M383 40h20"></path>
<g>
<path d="M403 40h0"></path>
<path d="M835.5 40h0"></path>
<path d="M433 40h10"></path>
<g>
<path d="M443 40h68.25"></path>
<path d="M737.25 40h68.25"></path>
<g class="terminal ">
<path d="M511.25 40h0"></path>
<path d="M573.75 40h0"></path>
<rect x="511.25" y="29" width="62.5" height="22" rx="10" ry="10"></rect>
<text x="542.5" y="44">"FOR"</text>
</g>
<path d="M573.75 40h10"></path>
<g>
<path d="M583.75 40h0"></path>
<path d="M737.25 40h0"></path>
<path d="M583.75 40h20"></path>
<g class="terminal ">
<path d="M603.75 40h12.75"></path>
<path d="M704.5 40h12.75"></path>
<rect x="616.5" y="29" width="88" height="22" rx="10" ry="10"></rect>
<text x="660.5" y="44">"OUTPUT"</text>
</g>
<path d="M717.25 40h20"></path>
<path d="M583.75 40a10 10 0 0 1 10 10v10a10 10 0 0 0 10 10"></path>
<g class="terminal ">
<path d="M603.75 70h17"></path>
<path d="M700.25 70h17"></path>
<rect x="620.75" y="59" width="79.5" height="22" rx="10" ry="10"></rect>
<text x="660.5" y="74">"INPUT"</text>
</g>
<path d="M717.25 70a10 10 0 0 0 10 -10v-10a10 10 0 0 1 10 -10"></path>
<path d="M583.75 40a10 10 0 0 1 10 10v40a10 10 0 0 0 10 10"></path>
<g class="terminal ">
<path d="M603.75 100h12.75"></path>
<path d="M704.5 100h12.75"></path>
<rect x="616.5" y="89" width="88" height="22" rx="10" ry="10"></rect>
<text x="660.5" y="104">"UPDATE"</text>
</g>
<path d="M717.25 100a10 10 0 0 0 10 -10v-40a10 10 0 0 1 10 -10"></path>
<path d="M583.75 40a10 10 0 0 1 10 10v70a10 10 0 0 0 10 10"></path>
<g class="terminal ">
<path d="M603.75 130h0"></path>
<path d="M717.25 130h0"></path>
<rect x="603.75" y="119" width="113.5" height="22" rx="10" ry="10"></rect>
<text x="660.5" y="134">"APPENDING"</text>
</g>
<path d="M717.25 130a10 10 0 0 0 10 -10v-70a10 10 0 0 1 10 -10"></path>
</g>
</g>
<path d="M805.5 40h10"></path>
<path d="M433 40v110a10 10 0 0 0 10 10"></path>
<g>
<path d="M443 160h100.25"></path>
<path d="M705.25 160h100.25"></path>
<g class="terminal ">
<path d="M543.25 160h0"></path>
<path d="M614.25 160h0"></path>
<rect x="543.25" y="149" width="71" height="22" rx="10" ry="10"></rect>
<text x="578.75" y="164">"TYPE"</text>
</g>
<path d="M614.25 160h10"></path>
<path d="M624.25 160h10"></path>
<g class="non-terminal ">
<path d="M634.25 160h0"></path>
<path d="M705.25 160h0"></path>
<rect x="634.25" y="149" width="71" height="22"></rect>
<a xlink:href="#/abap/expression/Source"><text x="669.75" y="164">Source</text>
</a>
</g>
</g>
<path d="M805.5 160a10 10 0 0 0 10 -10v-110"></path>
<path d="M433 40v149a10 10 0 0 0 10 10"></path>
<g>
<path d="M443 199h0"></path>
<path d="M805.5 199h0"></path>
<g class="terminal ">
<path d="M443 199h0"></path>
<path d="M497 199h0"></path>
<rect x="443" y="188" width="54" height="22" rx="10" ry="10"></rect>
<text x="470" y="203">"IN"</text>
</g>
<path d="M497 199h10"></path>
<g>
<path d="M507 199h0"></path>
<path d="M635 199h0"></path>
<path d="M507 199a10 10 0 0 0 10 -10v0a10 10 0 0 1 10 -10"></path>
<g>
<path d="M527 179h88"></path>
</g>
<path d="M615 179a10 10 0 0 1 10 10v0a10 10 0 0 0 10 10"></path>
<path d="M507 199h20"></path>
<g class="terminal ">
<path d="M527 199h0"></path>
<path d="M615 199h0"></path>
<rect x="527" y="188" width="88" height="22" rx="10" ry="10"></rect>
<text x="571" y="203">"LEGACY"</text>
</g>
<path d="M615 199h20"></path>
</g>
<g>
<path d="M635 199h0"></path>
<path d="M805.5 199h0"></path>
<path d="M635 199h20"></path>
<g class="terminal ">
<path d="M655 199h0"></path>
<path d="M785.5 199h0"></path>
<rect x="655" y="188" width="130.5" height="22" rx="10" ry="10"></rect>
<text x="720.25" y="203">"BINARY MODE"</text>
</g>
<path d="M785.5 199h20"></path>
<path d="M635 199a10 10 0 0 1 10 10v10a10 10 0 0 0 10 10"></path>
<g class="terminal ">
<path d="M655 229h8.5"></path>
<path d="M777 229h8.5"></path>
<rect x="663.5" y="218" width="113.5" height="22" rx="10" ry="10"></rect>
<text x="720.25" y="233">"TEXT MODE"</text>
</g>
<path d="M785.5 229a10 10 0 0 0 10 -10v-10a10 10 0 0 1 10 -10"></path>
</g>
</g>
<path d="M805.5 199a10 10 0 0 0 10 -10v-149"></path>
<path d="M433 40v209a10 10 0 0 0 10 10"></path>
<g class="terminal ">
<path d="M443 259h77.75"></path>
<path d="M727.75 259h77.75"></path>
<rect x="520.75" y="248" width="207" height="22" rx="10" ry="10"></rect>
<text x="624.25" y="263">"WITH BYTE-ORDER MARK"</text>
</g>
<path d="M805.5 259a10 10 0 0 0 10 -10v-209"></path>
<path d="M433 40v239a10 10 0 0 0 10 10"></path>
<g>
<path d="M443 289h28"></path>
<path d="M777.5 289h28"></path>
<g class="terminal ">
<path d="M471 289h0"></path>
<path d="M686.5 289h0"></path>
<rect x="471" y="278" width="215.5" height="22" rx="10" ry="10"></rect>
<text x="578.75" y="293">"REPLACEMENT CHARACTER"</text>
</g>
<path d="M686.5 289h10"></path>
<path d="M696.5 289h10"></path>
<g class="non-terminal ">
<path d="M706.5 289h0"></path>
<path d="M777.5 289h0"></path>
<rect x="706.5" y="278" width="71" height="22"></rect>
<a xlink:href="#/abap/expression/Source"><text x="742" y="293">Source</text>
</a>
</g>
</g>
<path d="M805.5 289a10 10 0 0 0 10 -10v-239"></path>
<path d="M433 40v269a10 10 0 0 0 10 10"></path>
<g>
<path d="M443 319h91.75"></path>
<path d="M713.75 319h91.75"></path>
<g class="terminal ">
<path d="M534.75 319h0"></path>
<path d="M622.75 319h0"></path>
<rect x="534.75" y="308" width="88" height="22" rx="10" ry="10"></rect>
<text x="578.75" y="323">"FILTER"</text>
</g>
<path d="M622.75 319h10"></path>
<path d="M632.75 319h10"></path>
<g class="non-terminal ">
<path d="M642.75 319h0"></path>
<path d="M713.75 319h0"></path>
<rect x="642.75" y="308" width="71" height="22"></rect>
<a xlink:href="#/abap/expression/Source"><text x="678.25" y="323">Source</text>
</a>
</g>
</g>
<path d="M805.5 319a10 10 0 0 0 10 -10v-269"></path>
<path d="M433 40v299a10 10 0 0 0 10 10"></path>
<g>
<path d="M443 349h38.5"></path>
<path d="M767 349h38.5"></path>
<g class="terminal ">
<path d="M481.5 349h0"></path>
<path d="M586.5 349h0"></path>
<rect x="481.5" y="338" width="105" height="22" rx="10" ry="10"></rect>
<text x="534" y="353">"ENCODING"</text>
</g>
<path d="M586.5 349h10"></path>
<g>
<path d="M596.5 349h0"></path>
<path d="M767 349h0"></path>
<path d="M596.5 349h20"></path>
<g class="terminal ">
<path d="M616.5 349h17"></path>
<path d="M730 349h17"></path>
<rect x="633.5" y="338" width="96.5" height="22" rx="10" ry="10"></rect>
<text x="681.75" y="353">"DEFAULT"</text>
</g>
<path d="M747 349h20"></path>
<path d="M596.5 349a10 10 0 0 1 10 10v10a10 10 0 0 0 10 10"></path>
<g class="terminal ">
<path d="M616.5 379h25.5"></path>
<path d="M721.5 379h25.5"></path>
<rect x="642" y="368" width="79.5" height="22" rx="10" ry="10"></rect>
<text x="681.75" y="383">"UTF-8"</text>
</g>
<path d="M747 379a10 10 0 0 0 10 -10v-10a10 10 0 0 1 10 -10"></path>
<path d="M596.5 349a10 10 0 0 1 10 10v40a10 10 0 0 0 10 10"></path>
<g class="terminal ">
<path d="M616.5 409h0"></path>
<path d="M747 409h0"></path>
<rect x="616.5" y="398" width="130.5" height="22" rx="10" ry="10"></rect>
<text x="681.75" y="413">"NON-UNICODE"</text>
</g>
<path d="M747 409a10 10 0 0 0 10 -10v-40a10 10 0 0 1 10 -10"></path>
</g>
</g>
<path d="M805.5 349a10 10 0 0 0 10 -10v-299"></path>
<path d="M433 40v389a10 10 0 0 0 10 10"></path>
<g>
<path d="M443 439h70.5"></path>
<path d="M735 439h70.5"></path>
<g class="terminal ">
<path d="M513.5 439h0"></path>
<path d="M644 439h0"></path>
<rect x="513.5" y="428" width="130.5" height="22" rx="10" ry="10"></rect>
<text x="578.75" y="443">"AT POSITION"</text>
</g>
<path d="M644 439h10"></path>
<path d="M654 439h10"></path>
<g class="non-terminal ">
<path d="M664 439h0"></path>
<path d="M735 439h0"></path>
<rect x="664" y="428" width="71" height="22"></rect>
<a xlink:href="#/abap/expression/Source"><text x="699.5" y="443">Source</text>
</a>
</g>
</g>
<path d="M805.5 439a10 10 0 0 0 10 -10v-389"></path>
<path d="M433 40v419a10 10 0 0 0 10 10"></path>
<g>
<path d="M443 469h87.5"></path>
<path d="M718 469h87.5"></path>
<g class="terminal ">
<path d="M530.5 469h0"></path>
<path d="M627 469h0"></path>
<rect x="530.5" y="458" width="96.5" height="22" rx="10" ry="10"></rect>
<text x="578.75" y="473">"MESSAGE"</text>
</g>
<path d="M627 469h10"></path>
<path d="M637 469h10"></path>
<g class="non-terminal ">
<path d="M647 469h0"></path>
<path d="M718 469h0"></path>
<rect x="647" y="458" width="71" height="22"></rect>
<a xlink:href="#/abap/expression/Target"><text x="682.5" y="473">Target</text>
</a>
</g>
</g>
<path d="M805.5 469a10 10 0 0 0 10 -10v-419"></path>
<path d="M433 40v449a10 10 0 0 0 10 10"></path>
<g class="terminal ">
<path d="M443 499h52.25"></path>
<path d="M753.25 499h52.25"></path>
<rect x="495.25" y="488" width="258" height="22" rx="10" ry="10"></rect>
<text x="624.25" y="503">"IGNORING CONVERSION ERRORS"</text>
</g>
<path d="M805.5 499a10 10 0 0 0 10 -10v-449"></path>
<path d="M433 40v479a10 10 0 0 0 10 10"></path>
<g class="terminal ">
<path d="M443 529h60.75"></path>
<path d="M744.75 529h60.75"></path>
<rect x="503.75" y="518" width="241" height="22" rx="10" ry="10"></rect>
<text x="624.25" y="533">"SKIPPING BYTE-ORDER MARK"</text>
</g>
<path d="M805.5 529a10 10 0 0 0 10 -10v-479"></path>
<path d="M433 40v509a10 10 0 0 0 10 10"></path>
<g>
<path d="M443 559h79"></path>
<path d="M726.5 559h79"></path>
<g class="terminal ">
<path d="M522 559h0"></path>
<path d="M635.5 559h0"></path>
<rect x="522" y="548" width="113.5" height="22" rx="10" ry="10"></rect>
<text x="578.75" y="563">"CODE PAGE"</text>
</g>
<path d="M635.5 559h10"></path>
<path d="M645.5 559h10"></path>
<g class="non-terminal ">
<path d="M655.5 559h0"></path>
<path d="M726.5 559h0"></path>
<rect x="655.5" y="548" width="71" height="22"></rect>
<a xlink:href="#/abap/expression/Source"><text x="691" y="563">Source</text>
</a>
</g>
</g>
<path d="M805.5 559a10 10 0 0 0 10 -10v-509"></path>
<path d="M433 40v539a10 10 0 0 0 10 10"></path>
<g>
<path d="M443 589h19.25"></path>
<path d="M786.25 589h19.25"></path>
<g class="terminal ">
<path d="M462.25 589h0"></path>
<path d="M533.25 589h0"></path>
<rect x="462.25" y="578" width="71" height="22" rx="10" ry="10"></rect>
<text x="497.75" y="593">"WITH"</text>
</g>
<path d="M533.25 589h10"></path>
<g>
<path d="M543.25 589h0"></path>
<path d="M671.25 589h0"></path>
<path d="M543.25 589h20"></path>
<g class="terminal ">
<path d="M563.25 589h4.25"></path>
<path d="M647 589h4.25"></path>
<rect x="567.5" y="578" width="79.5" height="22" rx="10" ry="10"></rect>
<text x="607.25" y="593">"SMART"</text>
</g>
<path d="M651.25 589h20"></path>
<path d="M543.25 589a10 10 0 0 1 10 10v10a10 10 0 0 0 10 10"></path>
<g class="terminal ">
<path d="M563.25 619h0"></path>
<path d="M651.25 619h0"></path>
<rect x="563.25" y="608" width="88" height="22" rx="10" ry="10"></rect>
<text x="607.25" y="623">"NATIVE"</text>
</g>
<path d="M651.25 619a10 10 0 0 0 10 -10v-10a10 10 0 0 1 10 -10"></path>
<path d="M543.25 589a10 10 0 0 1 10 10v40a10 10 0 0 0 10 10"></path>
<g class="terminal ">
<path d="M563.25 649h8.5"></path>
<path d="M642.75 649h8.5"></path>
<rect x="571.75" y="638" width="71" height="22" rx="10" ry="10"></rect>
<text x="607.25" y="653">"UNIX"</text>
</g>
<path d="M651.25 649a10 10 0 0 0 10 -10v-40a10 10 0 0 1 10 -10"></path>
</g>
<path d="M671.25 589h10"></path>
<g class="terminal ">
<path d="M681.25 589h0"></path>
<path d="M786.25 589h0"></path>
<rect x="681.25" y="578" width="105" height="22" rx="10" ry="10"></rect>
<text x="733.75" y="593">"LINEFEED"</text>
</g>
</g>
<path d="M805.5 589a10 10 0 0 0 10 -10v-539"></path>
<path d="M433 40v629a10 10 0 0 0 10 10"></path>
<g class="terminal ">
<path d="M443 679h73.5"></path>
<path d="M732 679h73.5"></path>
<rect x="516.5" y="668" width="215.5" height="22" rx="10" ry="10"></rect>
<text x="624.25" y="683">"WITH WINDOWS LINEFEED"</text>
</g>
<path d="M805.5 679a10 10 0 0 0 10 -10v-629"></path>
<g class="diagram-text">
<title>take one or more branches, once each, in any order</title>
<path d="M 433 30 h -26 a 4 4 0 0 0 -4 4 v 12 a 4 4 0 0 0 4 4 h 26 z" class="diagram-text"></path>
<text x="418" y="44" class="diagram-text">1+</text>
<path d="M 815.5 30 h 16 a 4 4 0 0 1 4 4 v 12 a 4 4 0 0 1 -4 4 h -16 z" class="diagram-text"></path>
<path d="M 822.5 38 a 4 4 0 1 0 6 -1 m 2.75 -1 h -4 v 4 m 0 -3 h 2" style="stroke-width: 1.75"></path>
</g>
</g>
<path d="M835.5 40h20"></path>
</g>
</g>
</g>
<path d="M855.5 40h10"></path>
<path d="M 865.5 40 h 20 m -10 -10 v 20 m 10 -20 v 20"></path>
</g>
</svg>
