<svg xmlns="http://www.w3.org/2000/svg" xmlns:xlink="http://www.w3.org/1999/xlink" class="railroad-diagram" width="1338.5" height="199" viewBox="0 0 1338.5 199">
<defs>
<style type="text/css"><![CDATA[
path {
stroke-width: 3;
stroke: black;
fill: rgba(0,0,0,0);
}
text {
font: bold 14px monospace;
text-anchor: middle;
}
text.diagram-text {
font-size: 12px;
}
a {
fill: blue;
}
text.diagram-arrow {
font-size: 16px;
}
text.label {
text-anchor: start;
}
text.comment {
font: italic 12px monospace;
}
rect {
stroke-width: 3;
stroke: black;
fill: #BCBCBC;
}
path.diagram-text {
stroke-width: 3;
stroke: black;
fill: #BCBCBC;
cursor: help;
}
]]></style>
</defs>
<g transform="translate(.5 .5)">
<g>
<path d="M20 38v20m10 -20v20m-10 -10h20"></path>
</g>
<path d="M40 48h10"></path>
<g>
<path d="M50 48h0"></path>
<path d="M1288.5 48h0"></path>
<g class="terminal ">
<path d="M50 48h0"></path>
<path d="M172 48h0"></path>
<rect x="50" y="37" width="122" height="22" rx="10" ry="10"></rect>
<text x="111" y="52">"INTERFACES"</text>
</g>
<path d="M172 48h10"></path>
<path d="M182 48h10"></path>
<g class="non-terminal ">
<path d="M192 48h0"></path>
<path d="M322.5 48h0"></path>
<rect x="192" y="37" width="130.5" height="22"></rect>
<a xlink:href="#/abap/expression/InterfaceName"><text x="257.25" y="52">InterfaceName</text>
</a>
</g>
<path d="M322.5 48h10"></path>
<g>
<path d="M332.5 48h0"></path>
<path d="M791 48h0"></path>
<path d="M332.5 48a10 10 0 0 0 10 -10v-8a10 10 0 0 1 10 -10"></path>
<g>
<path d="M352.5 20h418.5"></path>
</g>
<path d="M771 20a10 10 0 0 1 10 10v8a10 10 0 0 0 10 10"></path>
<path d="M332.5 48h20"></path>
<g>
<path d="M352.5 48h0"></path>
<path d="M771 48h0"></path>
<path d="M352.5 48h20"></path>
<g>
<path d="M372.5 48h29.5"></path>
<path d="M721.5 48h29.5"></path>
<g class="non-terminal ">
<path d="M402 48h0"></path>
<path d="M549.5 48h0"></path>
<rect x="402" y="37" width="147.5" height="22"></rect>
<a xlink:href="#/abap/expression/AbstractMethods"><text x="475.75" y="52">AbstractMethods</text>
</a>
</g>
<path d="M549.5 48h10"></path>
<g>
<path d="M559.5 48h0"></path>
<path d="M721.5 48h0"></path>
<path d="M559.5 48a10 10 0 0 0 10 -10v0a10 10 0 0 1 10 -10"></path>
<g>
<path d="M579.5 28h122"></path>
</g>
<path d="M701.5 28a10 10 0 0 1 10 10v0a10 10 0 0 0 10 10"></path>
<path d="M559.5 48h20"></path>
<g class="non-terminal ">
<path d="M579.5 48h0"></path>
<path d="M701.5 48h0"></path>
<rect x="579.5" y="37" width="122" height="22"></rect>
<a xlink:href="#/abap/expression/FinalMethods"><text x="640.5" y="52">FinalMethods</text>
</a>
</g>
<path d="M701.5 48h20"></path>
</g>
</g>
<path d="M751 48h20"></path>
<path d="M352.5 48a10 10 0 0 1 10 10v10a10 10 0 0 0 10 10"></path>
<g class="non-terminal ">
<path d="M372.5 78h128.25"></path>
<path d="M622.75 78h128.25"></path>
<rect x="500.75" y="67" width="122" height="22"></rect>
<a xlink:href="#/abap/expression/FinalMethods"><text x="561.75" y="82">FinalMethods</text>
</a>
</g>
<path d="M751 78a10 10 0 0 0 10 -10v-10a10 10 0 0 1 10 -10"></path>
<path d="M352.5 48a10 10 0 0 1 10 10v40a10 10 0 0 0 10 10"></path>
<g class="terminal ">
<path d="M372.5 108h85.75"></path>
<path d="M665.25 108h85.75"></path>
<rect x="458.25" y="97" width="207" height="22" rx="10" ry="10"></rect>
<text x="561.75" y="112">"ALL METHODS ABSTRACT"</text>
</g>
<path d="M751 108a10 10 0 0 0 10 -10v-40a10 10 0 0 1 10 -10"></path>
<path d="M352.5 48a10 10 0 0 1 10 10v70a10 10 0 0 0 10 10"></path>
<g class="terminal ">
<path d="M372.5 138h98.5"></path>
<path d="M652.5 138h98.5"></path>
<rect x="471" y="127" width="181.5" height="22" rx="10" ry="10"></rect>
<text x="561.75" y="142">"ALL METHODS FINAL"</text>
</g>
<path d="M751 138a10 10 0 0 0 10 -10v-70a10 10 0 0 1 10 -10"></path>
<path d="M352.5 48a10 10 0 0 1 10 10v100a10 10 0 0 0 10 10"></path>
<g>
<path d="M372.5 168h0"></path>
<path d="M751 168h0"></path>
<g class="comment ">
<path d="M372.5 168h0"></path>
<path d="M515.5 168h0"></path>
<text x="444" y="173" class="comment">740SP02 or OpenABAP</text>
</g>
<path d="M515.5 168h10"></path>
<path d="M525.5 168h10"></path>
<g class="terminal ">
<path d="M535.5 168h0"></path>
<path d="M751 168h0"></path>
<rect x="535.5" y="157" width="215.5" height="22" rx="10" ry="10"></rect>
<text x="643.25" y="172">"PARTIALLY IMPLEMENTED"</text>
</g>
</g>
<path d="M751 168a10 10 0 0 0 10 -10v-100a10 10 0 0 1 10 -10"></path>
</g>
<path d="M771 48h20"></path>
</g>
<g>
<path d="M791 48h0"></path>
<path d="M1288.5 48h0"></path>
<path d="M791 48a10 10 0 0 0 10 -10v0a10 10 0 0 1 10 -10"></path>
<g>
<path d="M811 28h457.5"></path>
</g>
<path d="M1268.5 28a10 10 0 0 1 10 10v0a10 10 0 0 0 10 10"></path>
<path d="M791 48h20"></path>
<g>
<path d="M811 48h0"></path>
<path d="M1268.5 48h0"></path>
<g class="terminal ">
<path d="M811 48h0"></path>
<path d="M941.5 48h0"></path>
<rect x="811" y="37" width="130.5" height="22" rx="10" ry="10"></rect>
<text x="876.25" y="52">"DATA VALUES"</text>
</g>
<path d="M941.5 48h10"></path>
<path d="M951.5 48h10"></path>
<g>
<path d="M961.5 48h0"></path>
<path d="M1268.5 48h0"></path>
<path d="M961.5 48h10"></path>
<g>
<path d="M971.5 48h0"></path>
<path d="M1258.5 48h0"></path>
<g class="non-terminal ">
<path d="M971.5 48h0"></path>
<path d="M1102 48h0"></path>
<rect x="971.5" y="37" width="130.5" height="22"></rect>
<a xlink:href="#/abap/expression/AttributeName"><text x="1036.75" y="52">AttributeName</text>
</a>
</g>
<path d="M1102 48h10"></path>
<path d="M1112 48h10"></path>
<g class="terminal ">
<path d="M1122 48h0"></path>
<path d="M1167.5 48h0"></path>
<rect x="1122" y="37" width="45.5" height="22" rx="10" ry="10"></rect>
<text x="1144.75" y="52">"="</text>
</g>
<path d="M1167.5 48h10"></path>
<path d="M1177.5 48h10"></path>
<g class="non-terminal ">
<path d="M1187.5 48h0"></path>
<path d="M1258.5 48h0"></path>
<rect x="1187.5" y="37" width="71" height="22"></rect>
<a xlink:href="#/abap/expression/Source"><text x="1223" y="52">Source</text>
</a>
</g>
</g>
<path d="M1258.5 48h10"></path>
<path d="M971.5 48a10 10 0 0 0 -10 10v0a10 10 0 0 0 10 10"></path>
<g>
<path d="M971.5 68h287"></path>
</g>
<path d="M1258.5 68a10 10 0 0 0 10 -10v0a10 10 0 0 0 -10 -10"></path>
</g>
</g>
<path d="M1268.5 48h20"></path>
</g>
</g>
<path d="M1288.5 48h10"></path>
<path d="M 1298.5 48 h 20 m -10 -10 v 20 m 10 -20 v 20"></path>
</g>
</svg>
