<svg xmlns="http://www.w3.org/2000/svg" xmlns:xlink="http://www.w3.org/1999/xlink" class="railroad-diagram" width="522" height="199" viewBox="0 0 522 199">
<defs>
<style type="text/css"><![CDATA[
path {
stroke-width: 3;
stroke: black;
fill: rgba(0,0,0,0);
}
text {
font: bold 14px monospace;
text-anchor: middle;
}
text.diagram-text {
font-size: 12px;
}
a {
fill: blue;
}
text.diagram-arrow {
font-size: 16px;
}
text.label {
text-anchor: start;
}
text.comment {
font: italic 12px monospace;
}
rect {
stroke-width: 3;
stroke: black;
fill: #BCBCBC;
}
path.diagram-text {
stroke-width: 3;
stroke: black;
fill: #BCBCBC;
cursor: help;
}
]]></style>
</defs>
<g transform="translate(.5 .5)">
<g>
<path d="M20 30v20m10 -20v20m-10 -10h20"></path>
</g>
<path d="M40 40h10"></path>
<g>
<path d="M50 40h0"></path>
<path d="M472 40h0"></path>
<g class="terminal">
<path d="M50 40h0"></path>
<path d="M231.5 40h0"></path>
<rect x="50" y="29" width="181.5" height="22" rx="10" ry="10"></rect>
<a xlink:href="#/abap/statement/ProcessBeforeOutput"><text x="140.75" y="44">ProcessBeforeOutput</text>
</a>
</g>
<path d="M231.5 40h10"></path>
<g>
<path d="M241.5 40h0"></path>
<path d="M472 40h0"></path>
<path d="M241.5 40a10 10 0 0 0 10 -10v0a10 10 0 0 1 10 -10"></path>
<g>
<path d="M261.5 20h190.5"></path>
</g>
<path d="M452 20a10 10 0 0 1 10 10v0a10 10 0 0 0 10 10"></path>
<path d="M241.5 40h20"></path>
<g>
<path d="M261.5 40h0"></path>
<path d="M452 40h0"></path>
<path d="M261.5 40h10"></path>
<g>
<path d="M271.5 40h0"></path>
<path d="M442 40h0"></path>
<path d="M271.5 40h20"></path>
<g class="terminal">
<path d="M291.5 40h0"></path>
<path d="M362.5 40h59.5"></path>
<rect x="291.5" y="29" width="71" height="22" rx="10" ry="10"></rect>
<a xlink:href="#/abap/statement/Module"><text x="327" y="44">Module</text>
</a>
</g>
<path d="M422 40h20"></path>
<path d="M271.5 40a10 10 0 0 1 10 10v10a10 10 0 0 0 10 10"></path>
<g class="terminal">
<path d="M291.5 70h0"></path>
<path d="M354 70h68"></path>
<rect x="291.5" y="59" width="62.5" height="22" rx="10" ry="10"></rect>
<a xlink:href="#/abap/statement/Field"><text x="322.75" y="74">Field</text>
</a>
</g>
<path d="M422 70a10 10 0 0 0 10 -10v-10a10 10 0 0 1 10 -10"></path>
<path d="M271.5 40a10 10 0 0 1 10 10v40a10 10 0 0 0 10 10"></path>
<g class="terminal">
<path d="M291.5 100h0"></path>
<path d="M422 100h0"></path>
<rect x="291.5" y="89" width="130.5" height="22" rx="10" ry="10"></rect>
<a xlink:href="#/abap/statement/CallSubscreen"><text x="356.75" y="104">CallSubscreen</text>
</a>
</g>
<path d="M422 100a10 10 0 0 0 10 -10v-40a10 10 0 0 1 10 -10"></path>
<path d="M271.5 40a10 10 0 0 1 10 10v70a10 10 0 0 0 10 10"></path>
<g class="non-terminal">
<path d="M291.5 130h0"></path>
<path d="M405 130h17"></path>
<rect x="291.5" y="119" width="113.5" height="22"></rect>
<a xlink:href="#/abap/structure/LoopExtract"><text x="348.25" y="134">LoopExtract</text>
</a>
</g>
<path d="M422 130a10 10 0 0 0 10 -10v-70a10 10 0 0 1 10 -10"></path>
<path d="M271.5 40a10 10 0 0 1 10 10v100a10 10 0 0 0 10 10"></path>
<g class="non-terminal">
<path d="M291.5 160h0"></path>
<path d="M396.5 160h25.5"></path>
<rect x="291.5" y="149" width="105" height="22"></rect>
<a xlink:href="#/abap/structure/DynproLoop"><text x="344" y="164">DynproLoop</text>
</a>
</g>
<path d="M422 160a10 10 0 0 0 10 -10v-100a10 10 0 0 1 10 -10"></path>
</g>
<path d="M442 40h10"></path>
<path d="M271.5 40a10 10 0 0 0 -10 10v119a10 10 0 0 0 10 10"></path>
<g>
<path d="M271.5 179h170.5"></path>
</g>
<path d="M442 179a10 10 0 0 0 10 -10v-119a10 10 0 0 0 -10 -10"></path>
</g>
<path d="M452 40h20"></path>
</g>
</g>
<path d="M472 40h10"></path>
<path d="M 482 40 h 20 m -10 -10 v 20 m 10 -20 v 20"></path>
</g>
</svg>
