<svg xmlns="http://www.w3.org/2000/svg" xmlns:xlink="http://www.w3.org/1999/xlink" class="railroad-diagram" width="441.5" height="109" viewBox="0 0 441.5 109">
<defs>
<style type="text/css"><![CDATA[
path {
stroke-width: 3;
stroke: black;
fill: rgba(0,0,0,0);
}
text {
font: bold 14px monospace;
text-anchor: middle;
}
text.diagram-text {
font-size: 12px;
}
a {
fill: blue;
}
text.diagram-arrow {
font-size: 16px;
}
text.label {
text-anchor: start;
}
text.comment {
font: italic 12px monospace;
}
rect {
stroke-width: 3;
stroke: black;
fill: #BCBCBC;
}
path.diagram-text {
stroke-width: 3;
stroke: black;
fill: #BCBCBC;
cursor: help;
}
]]></style>
</defs>
<g transform="translate(.5 .5)">
<g>
<path d="M20 30v20m10 -20v20m-10 -10h20"></path>
</g>
<path d="M40 40h10"></path>
<g>
<path d="M50 40h0"></path>
<path d="M391.5 40h0"></path>
<g class="terminal">
<path d="M50 40h0"></path>
<path d="M112.5 40h0"></path>
<rect x="50" y="29" width="62.5" height="22" rx="10" ry="10"></rect>
<a xlink:href="#/abap/statement/Chain"><text x="81.25" y="44">Chain</text>
</a>
</g>
<path d="M112.5 40h10"></path>
<g>
<path d="M122.5 40h0"></path>
<path d="M293.5 40h0"></path>
<path d="M122.5 40a10 10 0 0 0 10 -10v0a10 10 0 0 1 10 -10"></path>
<g>
<path d="M142.5 20h131"></path>
</g>
<path d="M273.5 20a10 10 0 0 1 10 10v0a10 10 0 0 0 10 10"></path>
<path d="M122.5 40h20"></path>
<g>
<path d="M142.5 40h0"></path>
<path d="M273.5 40h0"></path>
<path d="M142.5 40h10"></path>
<g>
<path d="M152.5 40h0"></path>
<path d="M263.5 40h0"></path>
<path d="M152.5 40h20"></path>
<g class="terminal">
<path d="M172.5 40h0"></path>
<path d="M235 40h8.5"></path>
<rect x="172.5" y="29" width="62.5" height="22" rx="10" ry="10"></rect>
<a xlink:href="#/abap/statement/Field"><text x="203.75" y="44">Field</text>
</a>
</g>
<path d="M243.5 40h20"></path>
<path d="M152.5 40a10 10 0 0 1 10 10v10a10 10 0 0 0 10 10"></path>
<g class="terminal">
<path d="M172.5 70h0"></path>
<path d="M243.5 70h0"></path>
<rect x="172.5" y="59" width="71" height="22" rx="10" ry="10"></rect>
<a xlink:href="#/abap/statement/Module"><text x="208" y="74">Module</text>
</a>
</g>
<path d="M243.5 70a10 10 0 0 0 10 -10v-10a10 10 0 0 1 10 -10"></path>
</g>
<path d="M263.5 40h10"></path>
<path d="M152.5 40a10 10 0 0 0 -10 10v29a10 10 0 0 0 10 10"></path>
<g>
<path d="M152.5 89h111"></path>
</g>
<path d="M263.5 89a10 10 0 0 0 10 -10v-29a10 10 0 0 0 -10 -10"></path>
</g>
<path d="M273.5 40h20"></path>
</g>
<path d="M293.5 40h10"></path>
<g class="terminal">
<path d="M303.5 40h0"></path>
<path d="M391.5 40h0"></path>
<rect x="303.5" y="29" width="88" height="22" rx="10" ry="10"></rect>
<a xlink:href="#/abap/statement/EndChain"><text x="347.5" y="44">EndChain</text>
</a>
</g>
</g>
<path d="M391.5 40h10"></path>
<path d="M 401.5 40 h 20 m -10 -10 v 20 m 10 -20 v 20"></path>
</g>
</svg>
