<svg xmlns="http://www.w3.org/2000/svg" xmlns:xlink="http://www.w3.org/1999/xlink" class="railroad-diagram" width="361.5" height="589" viewBox="0 0 361.5 589">
<defs>
<style type="text/css"><![CDATA[
path {
stroke-width: 3;
stroke: black;
fill: rgba(0,0,0,0);
}
text {
font: bold 14px monospace;
text-anchor: middle;
}
text.diagram-text {
font-size: 12px;
}
a {
fill: blue;
}
text.diagram-arrow {
font-size: 16px;
}
text.label {
text-anchor: start;
}
text.comment {
font: italic 12px monospace;
}
rect {
stroke-width: 3;
stroke: black;
fill: #BCBCBC;
}
path.diagram-text {
stroke-width: 3;
stroke: black;
fill: #BCBCBC;
cursor: help;
}
]]></style>
</defs>
<g transform="translate(.5 .5)">
<g>
<path d="M20 30v20m10 -20v20m-10 -10h20"></path>
</g>
<g>
<path d="M40 40h0"></path>
<path d="M321.5 40h0"></path>
<path d="M40 40a10 10 0 0 0 10 -10v0a10 10 0 0 1 10 -10"></path>
<g>
<path d="M60 20h241.5"></path>
</g>
<path d="M301.5 20a10 10 0 0 1 10 10v0a10 10 0 0 0 10 10"></path>
<path d="M40 40h20"></path>
<g>
<path d="M60 40h0"></path>
<path d="M301.5 40h0"></path>
<path d="M60 40h10"></path>
<g>
<path d="M70 40h0"></path>
<path d="M291.5 40h0"></path>
<path d="M70 40h20"></path>
<g class="terminal ">
<path d="M90 40h42.5"></path>
<path d="M229 40h42.5"></path>
<rect x="132.5" y="29" width="96.5" height="22" rx="10" ry="10"></rect>
<a xlink:href="#/abap/statement/MethodDef"><text x="180.75" y="44">MethodDef</text>
</a>
</g>
<path d="M271.5 40h20"></path>
<path d="M70 40a10 10 0 0 1 10 10v10a10 10 0 0 0 10 10"></path>
<g class="terminal ">
<path d="M90 70h29.75"></path>
<path d="M241.75 70h29.75"></path>
<rect x="119.75" y="59" width="122" height="22" rx="10" ry="10"></rect>
<a xlink:href="#/abap/statement/InterfaceDef"><text x="180.75" y="74">InterfaceDef</text>
</a>
</g>
<path d="M271.5 70a10 10 0 0 0 10 -10v-10a10 10 0 0 1 10 -10"></path>
<path d="M70 40a10 10 0 0 1 10 10v40a10 10 0 0 0 10 10"></path>
<g class="terminal ">
<path d="M90 100h63.75"></path>
<path d="M207.75 100h63.75"></path>
<rect x="153.75" y="89" width="54" height="22" rx="10" ry="10"></rect>
<a xlink:href="#/abap/statement/Data"><text x="180.75" y="104">Data</text>
</a>
</g>
<path d="M271.5 100a10 10 0 0 0 10 -10v-40a10 10 0 0 1 10 -10"></path>
<path d="M70 40a10 10 0 0 1 10 10v70a10 10 0 0 0 10 10"></path>
<g class="terminal ">
<path d="M90 130h42.5"></path>
<path d="M229 130h42.5"></path>
<rect x="132.5" y="119" width="96.5" height="22" rx="10" ry="10"></rect>
<a xlink:href="#/abap/statement/ClassData"><text x="180.75" y="134">ClassData</text>
</a>
</g>
<path d="M271.5 130a10 10 0 0 0 10 -10v-70a10 10 0 0 1 10 -10"></path>
<path d="M70 40a10 10 0 0 1 10 10v100a10 10 0 0 0 10 10"></path>
<g class="terminal ">
<path d="M90 160h55.25"></path>
<path d="M216.25 160h55.25"></path>
<rect x="145.25" y="149" width="71" height="22" rx="10" ry="10"></rect>
<a xlink:href="#/abap/statement/Events"><text x="180.75" y="164">Events</text>
</a>
</g>
<path d="M271.5 160a10 10 0 0 0 10 -10v-100a10 10 0 0 1 10 -10"></path>
<path d="M70 40a10 10 0 0 1 10 10v130a10 10 0 0 0 10 10"></path>
<g class="terminal ">
<path d="M90 190h46.75"></path>
<path d="M224.75 190h46.75"></path>
<rect x="136.75" y="179" width="88" height="22" rx="10" ry="10"></rect>
<a xlink:href="#/abap/statement/Constant"><text x="180.75" y="194">Constant</text>
</a>
</g>
<path d="M271.5 190a10 10 0 0 0 10 -10v-130a10 10 0 0 1 10 -10"></path>
<path d="M70 40a10 10 0 0 1 10 10v160a10 10 0 0 0 10 10"></path>
<g class="terminal ">
<path d="M90 220h51"></path>
<path d="M220.5 220h51"></path>
<rect x="141" y="209" width="79.5" height="22" rx="10" ry="10"></rect>
<a xlink:href="#/abap/statement/Aliases"><text x="180.75" y="224">Aliases</text>
</a>
</g>
<path d="M271.5 220a10 10 0 0 0 10 -10v-160a10 10 0 0 1 10 -10"></path>
<path d="M70 40a10 10 0 0 1 10 10v190a10 10 0 0 0 10 10"></path>
<g class="terminal ">
<path d="M90 250h42.5"></path>
<path d="M229 250h42.5"></path>
<rect x="132.5" y="239" width="96.5" height="22" rx="10" ry="10"></rect>
<a xlink:href="#/abap/statement/TypePools"><text x="180.75" y="254">TypePools</text>
</a>
</g>
<path d="M271.5 250a10 10 0 0 0 10 -10v-190a10 10 0 0 1 10 -10"></path>
<path d="M70 40a10 10 0 0 1 10 10v220a10 10 0 0 0 10 10"></path>
<g class="terminal ">
<path d="M90 280h25.5"></path>
<path d="M246 280h25.5"></path>
<rect x="115.5" y="269" width="130.5" height="22" rx="10" ry="10"></rect>
<a xlink:href="#/abap/statement/InterfaceLoad"><text x="180.75" y="284">InterfaceLoad</text>
</a>
</g>
<path d="M271.5 280a10 10 0 0 0 10 -10v-220a10 10 0 0 1 10 -10"></path>
<path d="M70 40a10 10 0 0 1 10 10v250a10 10 0 0 0 10 10"></path>
<g class="terminal ">
<path d="M90 310h0"></path>
<path d="M271.5 310h0"></path>
<rect x="90" y="299" width="181.5" height="22" rx="10" ry="10"></rect>
<a xlink:href="#/abap/statement/ClassDefinitionLoad"><text x="180.75" y="314">ClassDefinitionLoad</text>
</a>
</g>
<path d="M271.5 310a10 10 0 0 0 10 -10v-250a10 10 0 0 1 10 -10"></path>
<path d="M70 40a10 10 0 0 1 10 10v280a10 10 0 0 0 10 10"></path>
<g class="terminal ">
<path d="M90 340h51"></path>
<path d="M220.5 340h51"></path>
<rect x="141" y="329" width="79.5" height="22" rx="10" ry="10"></rect>
<a xlink:href="#/abap/statement/Include"><text x="180.75" y="344">Include</text>
</a>
</g>
<path d="M271.5 340a10 10 0 0 0 10 -10v-280a10 10 0 0 1 10 -10"></path>
<path d="M70 40a10 10 0 0 1 10 10v310a10 10 0 0 0 10 10"></path>
<g class="non-terminal ">
<path d="M90 370h59.5"></path>
<path d="M212 370h59.5"></path>
<rect x="149.5" y="359" width="62.5" height="22"></rect>
<a xlink:href="#/abap/structure/Types"><text x="180.75" y="374">Types</text>
</a>
</g>
<path d="M271.5 370a10 10 0 0 0 10 -10v-310a10 10 0 0 1 10 -10"></path>
<path d="M70 40a10 10 0 0 1 10 10v340a10 10 0 0 0 10 10"></path>
<g class="non-terminal ">
<path d="M90 400h42.5"></path>
<path d="M229 400h42.5"></path>
<rect x="132.5" y="389" width="96.5" height="22"></rect>
<a xlink:href="#/abap/structure/Constants"><text x="180.75" y="404">Constants</text>
</a>
</g>
<path d="M271.5 400a10 10 0 0 0 10 -10v-340a10 10 0 0 1 10 -10"></path>
<path d="M70 40a10 10 0 0 1 10 10v370a10 10 0 0 0 10 10"></path>
<g class="non-terminal ">
<path d="M90 430h46.75"></path>
<path d="M224.75 430h46.75"></path>
<rect x="136.75" y="419" width="88" height="22"></rect>
<a xlink:href="#/abap/structure/TypeEnum"><text x="180.75" y="434">TypeEnum</text>
</a>
</g>
<path d="M271.5 430a10 10 0 0 0 10 -10v-370a10 10 0 0 1 10 -10"></path>
<path d="M70 40a10 10 0 0 1 10 10v400a10 10 0 0 0 10 10"></path>
<g class="non-terminal ">
<path d="M90 460h46.75"></path>
<path d="M224.75 460h46.75"></path>
<rect x="136.75" y="449" width="88" height="22"></rect>
<a xlink:href="#/abap/structure/TypeMesh"><text x="180.75" y="464">TypeMesh</text>
</a>
</g>
<path d="M271.5 460a10 10 0 0 0 10 -10v-400a10 10 0 0 1 10 -10"></path>
<path d="M70 40a10 10 0 0 1 10 10v430a10 10 0 0 0 10 10"></path>
<g class="non-terminal ">
<path d="M90 490h63.75"></path>
<path d="M207.75 490h63.75"></path>
<rect x="153.75" y="479" width="54" height="22"></rect>
<a xlink:href="#/abap/structure/Data"><text x="180.75" y="494">Data</text>
</a>
</g>
<path d="M271.5 490a10 10 0 0 0 10 -10v-430a10 10 0 0 1 10 -10"></path>
<path d="M70 40a10 10 0 0 1 10 10v460a10 10 0 0 0 10 10"></path>
<g class="non-terminal ">
<path d="M90 520h42.5"></path>
<path d="M229 520h42.5"></path>
<rect x="132.5" y="509" width="96.5" height="22"></rect>
<a xlink:href="#/abap/structure/ClassData"><text x="180.75" y="524">ClassData</text>
</a>
</g>
<path d="M271.5 520a10 10 0 0 0 10 -10v-460a10 10 0 0 1 10 -10"></path>
<path d="M70 40a10 10 0 0 1 10 10v490a10 10 0 0 0 10 10"></path>
<g class="terminal ">
<path d="M90 550h63.75"></path>
<path d="M207.75 550h63.75"></path>
<rect x="153.75" y="539" width="54" height="22" rx="10" ry="10"></rect>
<a xlink:href="#/abap/statement/Type"><text x="180.75" y="554">Type</text>
</a>
</g>
<path d="M271.5 550a10 10 0 0 0 10 -10v-490a10 10 0 0 1 10 -10"></path>
</g>
<path d="M291.5 40h10"></path>
<path d="M70 40a10 10 0 0 0 -10 10v509a10 10 0 0 0 10 10"></path>
<g>
<path d="M70 569h221.5"></path>
</g>
<path d="M291.5 569a10 10 0 0 0 10 -10v-509a10 10 0 0 0 -10 -10"></path>
</g>
<path d="M301.5 40h20"></path>
</g>
<path d="M 321.5 40 h 20 m -10 -10 v 20 m 10 -20 v 20"></path>
</g>
</svg>
