<svg xmlns="http://www.w3.org/2000/svg" xmlns:xlink="http://www.w3.org/1999/xlink" class="railroad-diagram" width="1194.5" height="71" viewBox="0 0 1194.5 71">
<defs>
<style type="text/css"><![CDATA[
path {
stroke-width: 3;
stroke: black;
fill: rgba(0,0,0,0);
}
text {
font: bold 14px monospace;
text-anchor: middle;
}
text.diagram-text {
font-size: 12px;
}
a {
fill: blue;
}
text.diagram-arrow {
font-size: 16px;
}
text.label {
text-anchor: start;
}
text.comment {
font: italic 12px monospace;
}
rect {
stroke-width: 3;
stroke: black;
fill: #BCBCBC;
}
path.diagram-text {
stroke-width: 3;
stroke: black;
fill: #BCBCBC;
cursor: help;
}
]]></style>
</defs>
<g transform="translate(.5 .5)">
<g>
<path d="M20 30v20m10 -20v20m-10 -10h20"></path>
</g>
<path d="M40 40h10"></path>
<g>
<path d="M50 40h0"></path>
<path d="M1144.5 40h0"></path>
<g class="non-terminal">
<path d="M50 40h0"></path>
<path d="M231.5 40h0"></path>
<rect x="50" y="29" width="181.5" height="22"></rect>
<a xlink:href="#/abap/structure/ProcessBeforeOutput"><text x="140.75" y="44">ProcessBeforeOutput</text>
</a>
</g>
<path d="M231.5 40h10"></path>
<g>
<path d="M241.5 40h0"></path>
<path d="M446 40h0"></path>
<path d="M241.5 40a10 10 0 0 0 10 -10v0a10 10 0 0 1 10 -10"></path>
<g>
<path d="M261.5 20h164.5"></path>
</g>
<path d="M426 20a10 10 0 0 1 10 10v0a10 10 0 0 0 10 10"></path>
<path d="M241.5 40h20"></path>
<g class="non-terminal">
<path d="M261.5 40h0"></path>
<path d="M426 40h0"></path>
<rect x="261.5" y="29" width="164.5" height="22"></rect>
<a xlink:href="#/abap/structure/ProcessAfterInput"><text x="343.75" y="44">ProcessAfterInput</text>
</a>
</g>
<path d="M426 40h20"></path>
</g>
<g>
<path d="M446 40h0"></path>
<path d="M676 40h0"></path>
<path d="M446 40a10 10 0 0 0 10 -10v0a10 10 0 0 1 10 -10"></path>
<g>
<path d="M466 20h190"></path>
</g>
<path d="M656 20a10 10 0 0 1 10 10v0a10 10 0 0 0 10 10"></path>
<path d="M446 40h20"></path>
<g class="non-terminal">
<path d="M466 40h0"></path>
<path d="M656 40h0"></path>
<rect x="466" y="29" width="190" height="22"></rect>
<a xlink:href="#/abap/structure/ProcessOnHelpRequest"><text x="561" y="44">ProcessOnHelpRequest</text>
</a>
</g>
<path d="M656 40h20"></path>
</g>
<g>
<path d="M676 40h0"></path>
<path d="M914.5 40h0"></path>
<path d="M676 40a10 10 0 0 0 10 -10v0a10 10 0 0 1 10 -10"></path>
<g>
<path d="M696 20h198.5"></path>
</g>
<path d="M894.5 20a10 10 0 0 1 10 10v0a10 10 0 0 0 10 10"></path>
<path d="M676 40h20"></path>
<g class="non-terminal">
<path d="M696 40h0"></path>
<path d="M894.5 40h0"></path>
<rect x="696" y="29" width="198.5" height="22"></rect>
<a xlink:href="#/abap/structure/ProcessOnValueRequest"><text x="795.25" y="44">ProcessOnValueRequest</text>
</a>
</g>
<path d="M894.5 40h20"></path>
</g>
<g>
<path d="M914.5 40h0"></path>
<path d="M1144.5 40h0"></path>
<path d="M914.5 40a10 10 0 0 0 10 -10v0a10 10 0 0 1 10 -10"></path>
<g>
<path d="M934.5 20h190"></path>
</g>
<path d="M1124.5 20a10 10 0 0 1 10 10v0a10 10 0 0 0 10 10"></path>
<path d="M914.5 40h20"></path>
<g class="non-terminal">
<path d="M934.5 40h0"></path>
<path d="M1124.5 40h0"></path>
<rect x="934.5" y="29" width="190" height="22"></rect>
<a xlink:href="#/abap/structure/ProcessOnHelpRequest"><text x="1029.5" y="44">ProcessOnHelpRequest</text>
</a>
</g>
<path d="M1124.5 40h20"></path>
</g>
</g>
<path d="M1144.5 40h10"></path>
<path d="M 1154.5 40 h 20 m -10 -10 v 20 m 10 -20 v 20"></path>
</g>
</svg>
