<svg xmlns="http://www.w3.org/2000/svg" xmlns:xlink="http://www.w3.org/1999/xlink" class="railroad-diagram" width="478.5" height="71" viewBox="0 0 478.5 71">
<defs>
<style type="text/css"><![CDATA[
path {
stroke-width: 3;
stroke: black;
fill: rgba(0,0,0,0);
}
text {
font: bold 14px monospace;
text-anchor: middle;
}
text.diagram-text {
font-size: 12px;
}
a {
fill: blue;
}
text.diagram-arrow {
font-size: 16px;
}
text.label {
text-anchor: start;
}
text.comment {
font: italic 12px monospace;
}
rect {
stroke-width: 3;
stroke: black;
fill: #BCBCBC;
}
path.diagram-text {
stroke-width: 3;
stroke: black;
fill: #BCBCBC;
cursor: help;
}
]]></style>
</defs>
<g transform="translate(.5 .5)">
<g>
<path d="M20 30v20m10 -20v20m-10 -10h20"></path>
</g>
<path d="M40 40h10"></path>
<g>
<path d="M50 40h0"></path>
<path d="M428.5 40h0"></path>
<g class="terminal">
<path d="M50 40h0"></path>
<path d="M138 40h0"></path>
<rect x="50" y="29" width="88" height="22" rx="10" ry="10"></rect>
<a xlink:href="#/abap/statement/OnChange"><text x="94" y="44">OnChange</text>
</a>
</g>
<path d="M138 40h10"></path>
<path d="M148 40h10"></path>
<g>
<path d="M158 40h0"></path>
<path d="M346 40h0"></path>
<g>
<path d="M158 40h0"></path>
<path d="M252 40h0"></path>
<path d="M158 40a10 10 0 0 0 10 -10v0a10 10 0 0 1 10 -10"></path>
<g>
<path d="M178 20h54"></path>
</g>
<path d="M232 20a10 10 0 0 1 10 10v0a10 10 0 0 0 10 10"></path>
<path d="M158 40h20"></path>
<g class="non-terminal">
<path d="M178 40h0"></path>
<path d="M232 40h0"></path>
<rect x="178" y="29" width="54" height="22"></rect>
<a xlink:href="#/abap/structure/Body"><text x="205" y="44">Body</text>
</a>
</g>
<path d="M232 40h20"></path>
</g>
<g>
<path d="M252 40h0"></path>
<path d="M346 40h0"></path>
<path d="M252 40a10 10 0 0 0 10 -10v0a10 10 0 0 1 10 -10"></path>
<g>
<path d="M272 20h54"></path>
</g>
<path d="M326 20a10 10 0 0 1 10 10v0a10 10 0 0 0 10 10"></path>
<path d="M252 40h20"></path>
<g class="non-terminal">
<path d="M272 40h0"></path>
<path d="M326 40h0"></path>
<rect x="272" y="29" width="54" height="22"></rect>
<a xlink:href="#/abap/structure/Else"><text x="299" y="44">Else</text>
</a>
</g>
<path d="M326 40h20"></path>
</g>
</g>
<path d="M346 40h10"></path>
<path d="M356 40h10"></path>
<g class="terminal">
<path d="M366 40h0"></path>
<path d="M428.5 40h0"></path>
<rect x="366" y="29" width="62.5" height="22" rx="10" ry="10"></rect>
<a xlink:href="#/abap/statement/EndOn"><text x="397.25" y="44">EndOn</text>
</a>
</g>
</g>
<path d="M428.5 40h10"></path>
<path d="M 438.5 40 h 20 m -10 -10 v 20 m 10 -20 v 20"></path>
</g>
</svg>
