<svg xmlns="http://www.w3.org/2000/svg" xmlns:xlink="http://www.w3.org/1999/xlink" class="railroad-diagram" width="601" height="139" viewBox="0 0 601 139">
<defs>
<style type="text/css"><![CDATA[
path {
stroke-width: 3;
stroke: black;
fill: rgba(0,0,0,0);
}
text {
font: bold 14px monospace;
text-anchor: middle;
}
text.diagram-text {
font-size: 12px;
}
a {
fill: blue;
}
text.diagram-arrow {
font-size: 16px;
}
text.label {
text-anchor: start;
}
text.comment {
font: italic 12px monospace;
}
rect {
stroke-width: 3;
stroke: black;
fill: #BCBCBC;
}
path.diagram-text {
stroke-width: 3;
stroke: black;
fill: #BCBCBC;
cursor: help;
}
]]></style>
</defs>
<g transform="translate(.5 .5)">
<g>
<path d="M20 30v20m10 -20v20m-10 -10h20"></path>
</g>
<path d="M40 40h10"></path>
<g>
<path d="M50 40h0"></path>
<path d="M551 40h0"></path>
<g class="terminal">
<path d="M50 40h0"></path>
<path d="M104 40h0"></path>
<rect x="50" y="29" width="54" height="22" rx="10" ry="10"></rect>
<a xlink:href="#/abap/statement/Case"><text x="77" y="44">Case</text>
</a>
</g>
<path d="M104 40h10"></path>
<path d="M114 40h10"></path>
<g>
<path d="M124 40h0"></path>
<path d="M451.5 40h0"></path>
<g>
<path d="M124 40h0"></path>
<path d="M255 40h0"></path>
<path d="M124 40a10 10 0 0 0 10 -10v0a10 10 0 0 1 10 -10"></path>
<g>
<path d="M144 20h91"></path>
</g>
<path d="M235 20a10 10 0 0 1 10 10v0a10 10 0 0 0 10 10"></path>
<path d="M124 40h20"></path>
<g>
<path d="M144 40h0"></path>
<path d="M235 40h0"></path>
<path d="M144 40h10"></path>
<g class="non-terminal">
<path d="M154 40h0"></path>
<path d="M225 40h0"></path>
<rect x="154" y="29" width="71" height="22"></rect>
<a xlink:href="#/abap/structure/Normal"><text x="189.5" y="44">Normal</text>
</a>
</g>
<path d="M225 40h10"></path>
<path d="M154 40a10 10 0 0 0 -10 10v0a10 10 0 0 0 10 10"></path>
<g>
<path d="M154 60h71"></path>
</g>
<path d="M225 60a10 10 0 0 0 10 -10v0a10 10 0 0 0 -10 -10"></path>
</g>
<path d="M235 40h20"></path>
</g>
<g>
<path d="M255 40h0"></path>
<path d="M451.5 40h0"></path>
<path d="M255 40a10 10 0 0 0 10 -10v0a10 10 0 0 1 10 -10"></path>
<g>
<path d="M275 20h156.5"></path>
</g>
<path d="M431.5 20a10 10 0 0 1 10 10v0a10 10 0 0 0 10 10"></path>
<path d="M255 40h20"></path>
<g>
<path d="M275 40h0"></path>
<path d="M431.5 40h0"></path>
<path d="M275 40h10"></path>
<g>
<path d="M285 40h0"></path>
<path d="M421.5 40h0"></path>
<path d="M285 40h20"></path>
<g class="non-terminal">
<path d="M305 40h0"></path>
<path d="M359 40h42.5"></path>
<rect x="305" y="29" width="54" height="22"></rect>
<a xlink:href="#/abap/structure/When"><text x="332" y="44">When</text>
</a>
</g>
<path d="M401.5 40h20"></path>
<path d="M285 40a10 10 0 0 1 10 10v10a10 10 0 0 0 10 10"></path>
<g class="terminal">
<path d="M305 70h0"></path>
<path d="M401.5 70h0"></path>
<rect x="305" y="59" width="96.5" height="22" rx="10" ry="10"></rect>
<a xlink:href="#/abap/statement/MacroCall"><text x="353.25" y="74">MacroCall</text>
</a>
</g>
<path d="M401.5 70a10 10 0 0 0 10 -10v-10a10 10 0 0 1 10 -10"></path>
<path d="M285 40a10 10 0 0 1 10 10v40a10 10 0 0 0 10 10"></path>
<g class="terminal">
<path d="M305 100h0"></path>
<path d="M384.5 100h17"></path>
<rect x="305" y="89" width="79.5" height="22" rx="10" ry="10"></rect>
<a xlink:href="#/abap/statement/Include"><text x="344.75" y="104">Include</text>
</a>
</g>
<path d="M401.5 100a10 10 0 0 0 10 -10v-40a10 10 0 0 1 10 -10"></path>
</g>
<path d="M421.5 40h10"></path>
<path d="M285 40a10 10 0 0 0 -10 10v59a10 10 0 0 0 10 10"></path>
<g>
<path d="M285 119h136.5"></path>
</g>
<path d="M421.5 119a10 10 0 0 0 10 -10v-59a10 10 0 0 0 -10 -10"></path>
</g>
<path d="M431.5 40h20"></path>
</g>
</g>
<path d="M451.5 40h10"></path>
<path d="M461.5 40h10"></path>
<g class="terminal">
<path d="M471.5 40h0"></path>
<path d="M551 40h0"></path>
<rect x="471.5" y="29" width="79.5" height="22" rx="10" ry="10"></rect>
<a xlink:href="#/abap/statement/EndCase"><text x="511.25" y="44">EndCase</text>
</a>
</g>
</g>
<path d="M551 40h10"></path>
<path d="M 561 40 h 20 m -10 -10 v 20 m 10 -20 v 20"></path>
</g>
</svg>
