<svg xmlns="http://www.w3.org/2000/svg" xmlns:xlink="http://www.w3.org/1999/xlink" class="railroad-diagram" width="1161.5" height="79" viewBox="0 0 1161.5 79">
<defs>
<style type="text/css"><![CDATA[
path {
stroke-width: 3;
stroke: black;
fill: rgba(0,0,0,0);
}
text {
font: bold 14px monospace;
text-anchor: middle;
}
text.diagram-text {
font-size: 12px;
}
a {
fill: blue;
}
text.diagram-arrow {
font-size: 16px;
}
text.label {
text-anchor: start;
}
text.comment {
font: italic 12px monospace;
}
rect {
stroke-width: 3;
stroke: black;
fill: #BCBCBC;
}
path.diagram-text {
stroke-width: 3;
stroke: black;
fill: #BCBCBC;
cursor: help;
}
]]></style>
</defs>
<g transform="translate(.5 .5)">
<g>
<path d="M20 38v20m0 -10h20"></path>
</g>
<path d="M40 48h10"></path>
<g>
<path d="M50 48h0"></path>
<path d="M1111.5 48h0"></path>
<g>
<path d="M50 48h0"></path>
<path d="M1022 48h0"></path>
<path d="M50 48a10 10 0 0 0 10 -10v-8a10 10 0 0 1 10 -10"></path>
<g>
<path d="M70 20h932"></path>
</g>
<path d="M1002 20a10 10 0 0 1 10 10v8a10 10 0 0 0 10 10"></path>
<path d="M50 48h20"></path>
<g>
<path d="M70 48h0"></path>
<path d="M1002 48h0"></path>
<g class="terminal ">
<path d="M70 48h0"></path>
<path d="M115.5 48h0"></path>
<rect x="70" y="37" width="45.5" height="22" rx="10" ry="10"></rect>
<text x="92.75" y="52">"&#91;"</text>
</g>
<path d="M115.5 48h10"></path>
<path d="M125.5 48h10"></path>
<g class="non-terminal ">
<path d="M135.5 48h0"></path>
<path d="M317 48h0"></path>
<rect x="135.5" y="37" width="181.5" height="22"></rect>
<a xlink:href="#/ddl/expression/DDLCardinalityValue"><text x="226.25" y="52">DDLCardinalityValue</text>
</a>
</g>
<path d="M317 48h10"></path>
<path d="M327 48h10"></path>
<g class="terminal ">
<path d="M337 48h0"></path>
<path d="M382.5 48h0"></path>
<rect x="337" y="37" width="45.5" height="22" rx="10" ry="10"></rect>
<text x="359.75" y="52">"."</text>
</g>
<path d="M382.5 48h10"></path>
<path d="M392.5 48h10"></path>
<g class="terminal ">
<path d="M402.5 48h0"></path>
<path d="M448 48h0"></path>
<rect x="402.5" y="37" width="45.5" height="22" rx="10" ry="10"></rect>
<text x="425.25" y="52">"."</text>
</g>
<path d="M448 48h10"></path>
<path d="M458 48h10"></path>
<g class="non-terminal ">
<path d="M468 48h0"></path>
<path d="M649.5 48h0"></path>
<rect x="468" y="37" width="181.5" height="22"></rect>
<a xlink:href="#/ddl/expression/DDLCardinalityValue"><text x="558.75" y="52">DDLCardinalityValue</text>
</a>
</g>
<path d="M649.5 48h10"></path>
<g>
<path d="M659.5 48h0"></path>
<path d="M946.5 48h0"></path>
<path d="M659.5 48a10 10 0 0 0 10 -10v0a10 10 0 0 1 10 -10"></path>
<g>
<path d="M679.5 28h247"></path>
</g>
<path d="M926.5 28a10 10 0 0 1 10 10v0a10 10 0 0 0 10 10"></path>
<path d="M659.5 48h20"></path>
<g>
<path d="M679.5 48h0"></path>
<path d="M926.5 48h0"></path>
<g class="terminal ">
<path d="M679.5 48h0"></path>
<path d="M725 48h0"></path>
<rect x="679.5" y="37" width="45.5" height="22" rx="10" ry="10"></rect>
<text x="702.25" y="52">","</text>
</g>
<path d="M725 48h10"></path>
<path d="M735 48h10"></path>
<g class="non-terminal ">
<path d="M745 48h0"></path>
<path d="M926.5 48h0"></path>
<rect x="745" y="37" width="181.5" height="22"></rect>
<a xlink:href="#/ddl/expression/DDLCardinalityValue"><text x="835.75" y="52">DDLCardinalityValue</text>
</a>
</g>
</g>
<path d="M926.5 48h20"></path>
</g>
<path d="M946.5 48h10"></path>
<g class="terminal ">
<path d="M956.5 48h0"></path>
<path d="M1002 48h0"></path>
<rect x="956.5" y="37" width="45.5" height="22" rx="10" ry="10"></rect>
<text x="979.25" y="52">"&#93;"</text>
</g>
</g>
<path d="M1002 48h20"></path>
</g>
<path d="M1022 48h10"></path>
<g class="non-terminal ">
<path d="M1032 48h0"></path>
<path d="M1111.5 48h0"></path>
<rect x="1032" y="37" width="79.5" height="22"></rect>
<a xlink:href="#/ddl/expression/DDLName"><text x="1071.75" y="52">DDLName</text>
</a>
</g>
</g>
<path d="M1111.5 48h10"></path>
<path d="M 1121.5 48 h 20 m 0 -10 v 20"></path>
</g>
</svg>
