<svg xmlns="http://www.w3.org/2000/svg" xmlns:xlink="http://www.w3.org/1999/xlink" class="railroad-diagram" width="1358.5" height="109" viewBox="0 0 1358.5 109">
<defs>
<style type="text/css"><![CDATA[
path {
stroke-width: 3;
stroke: black;
fill: rgba(0,0,0,0);
}
text {
font: bold 14px monospace;
text-anchor: middle;
}
text.diagram-text {
font-size: 12px;
}
a {
fill: blue;
}
text.diagram-arrow {
font-size: 16px;
}
text.label {
text-anchor: start;
}
text.comment {
font: italic 12px monospace;
}
rect {
stroke-width: 3;
stroke: black;
fill: #BCBCBC;
}
path.diagram-text {
stroke-width: 3;
stroke: black;
fill: #BCBCBC;
cursor: help;
}
]]></style>
</defs>
<g transform="translate(.5 .5)">
<g>
<path d="M20 30v20m0 -10h20"></path>
</g>
<path d="M40 40h10"></path>
<g>
<path d="M50 40h0"></path>
<path d="M1308.5 40h0"></path>
<g>
<path d="M50 40h0"></path>
<path d="M240.5 40h0"></path>
<path d="M50 40a10 10 0 0 0 10 -10v0a10 10 0 0 1 10 -10"></path>
<g>
<path d="M70 20h150.5"></path>
</g>
<path d="M220.5 20a10 10 0 0 1 10 10v0a10 10 0 0 0 10 10"></path>
<path d="M50 40h20"></path>
<g>
<path d="M70 40h0"></path>
<path d="M220.5 40h0"></path>
<path d="M70 40h10"></path>
<g class="non-terminal ">
<path d="M80 40h0"></path>
<path d="M210.5 40h0"></path>
<rect x="80" y="29" width="130.5" height="22"></rect>
<a xlink:href="#/ddl/expression/CDSAnnotation"><text x="145.25" y="44">CDSAnnotation</text>
</a>
</g>
<path d="M210.5 40h10"></path>
<path d="M80 40a10 10 0 0 0 -10 10v0a10 10 0 0 0 10 10"></path>
<g>
<path d="M80 60h130.5"></path>
</g>
<path d="M210.5 60a10 10 0 0 0 10 -10v0a10 10 0 0 0 -10 -10"></path>
</g>
<path d="M220.5 40h20"></path>
</g>
<g>
<path d="M240.5 40h0"></path>
<path d="M343 40h0"></path>
<path d="M240.5 40a10 10 0 0 0 10 -10v0a10 10 0 0 1 10 -10"></path>
<g>
<path d="M260.5 20h62.5"></path>
</g>
<path d="M323 20a10 10 0 0 1 10 10v0a10 10 0 0 0 10 10"></path>
<path d="M240.5 40h20"></path>
<g class="terminal ">
<path d="M260.5 40h0"></path>
<path d="M323 40h0"></path>
<rect x="260.5" y="29" width="62.5" height="22" rx="10" ry="10"></rect>
<text x="291.75" y="44">"KEY"</text>
</g>
<path d="M323 40h20"></path>
</g>
<path d="M343 40h10"></path>
<g class="terminal ">
<path d="M353 40h0"></path>
<path d="M449.5 40h0"></path>
<rect x="353" y="29" width="96.5" height="22" rx="10" ry="10"></rect>
<text x="401.25" y="44">"INCLUDE"</text>
</g>
<path d="M449.5 40h10"></path>
<path d="M459.5 40h10"></path>
<g class="non-terminal ">
<path d="M469.5 40h0"></path>
<path d="M549 40h0"></path>
<rect x="469.5" y="29" width="79.5" height="22"></rect>
<a xlink:href="#/ddl/expression/DDLName"><text x="509.25" y="44">DDLName</text>
</a>
</g>
<path d="M549 40h10"></path>
<g>
<path d="M559 40h0"></path>
<path d="M877.5 40h0"></path>
<path d="M559 40a10 10 0 0 0 10 -10v0a10 10 0 0 1 10 -10"></path>
<g>
<path d="M579 20h278.5"></path>
</g>
<path d="M857.5 20a10 10 0 0 1 10 10v0a10 10 0 0 0 10 10"></path>
<path d="M559 40h20"></path>
<g>
<path d="M579 40h0"></path>
<path d="M857.5 40h0"></path>
<g class="terminal ">
<path d="M579 40h0"></path>
<path d="M650 40h0"></path>
<rect x="579" y="29" width="71" height="22" rx="10" ry="10"></rect>
<text x="614.5" y="44">"WITH"</text>
</g>
<path d="M650 40h10"></path>
<path d="M660 40h10"></path>
<g class="terminal ">
<path d="M670 40h0"></path>
<path d="M758 40h0"></path>
<rect x="670" y="29" width="88" height="22" rx="10" ry="10"></rect>
<text x="714" y="44">"SUFFIX"</text>
</g>
<path d="M758 40h10"></path>
<path d="M768 40h10"></path>
<g class="non-terminal ">
<path d="M778 40h0"></path>
<path d="M857.5 40h0"></path>
<rect x="778" y="29" width="79.5" height="22"></rect>
<a xlink:href="#/ddl/expression/DDLName"><text x="817.75" y="44">DDLName</text>
</a>
</g>
</g>
<path d="M857.5 40h20"></path>
</g>
<g>
<path d="M877.5 40h0"></path>
<path d="M1022.5 40h0"></path>
<path d="M877.5 40a10 10 0 0 0 10 -10v0a10 10 0 0 1 10 -10"></path>
<g>
<path d="M897.5 20h105"></path>
</g>
<path d="M1002.5 20a10 10 0 0 1 10 10v0a10 10 0 0 0 10 10"></path>
<path d="M877.5 40h20"></path>
<g class="terminal ">
<path d="M897.5 40h0"></path>
<path d="M1002.5 40h0"></path>
<rect x="897.5" y="29" width="105" height="22" rx="10" ry="10"></rect>
<text x="950" y="44">"NOT NULL"</text>
</g>
<path d="M1002.5 40h20"></path>
</g>
<g>
<path d="M1022.5 40h0"></path>
<path d="M1253 40h0"></path>
<path d="M1022.5 40a10 10 0 0 0 10 -10v0a10 10 0 0 1 10 -10"></path>
<g>
<path d="M1042.5 20h190.5"></path>
</g>
<path d="M1233 20a10 10 0 0 1 10 10v0a10 10 0 0 0 10 10"></path>
<path d="M1022.5 40h20"></path>
<g>
<path d="M1042.5 40h0"></path>
<path d="M1233 40h0"></path>
<path d="M1042.5 40h10"></path>
<g>
<path d="M1052.5 40h0"></path>
<path d="M1223 40h0"></path>
<path d="M1052.5 40h20"></path>
<g class="non-terminal ">
<path d="M1072.5 40h0"></path>
<path d="M1203 40h0"></path>
<rect x="1072.5" y="29" width="130.5" height="22"></rect>
<a xlink:href="#/ddl/expression/DDLForeignKey"><text x="1137.75" y="44">DDLForeignKey</text>
</a>
</g>
<path d="M1203 40h20"></path>
<path d="M1052.5 40a10 10 0 0 1 10 10v10a10 10 0 0 0 10 10"></path>
<g class="non-terminal ">
<path d="M1072.5 70h4.25"></path>
<path d="M1198.75 70h4.25"></path>
<rect x="1076.75" y="59" width="122" height="22"></rect>
<a xlink:href="#/ddl/expression/DDLValueHelp"><text x="1137.75" y="74">DDLValueHelp</text>
</a>
</g>
<path d="M1203 70a10 10 0 0 0 10 -10v-10a10 10 0 0 1 10 -10"></path>
</g>
<path d="M1223 40h10"></path>
<path d="M1052.5 40a10 10 0 0 0 -10 10v29a10 10 0 0 0 10 10"></path>
<g>
<path d="M1052.5 89h170.5"></path>
</g>
<path d="M1223 89a10 10 0 0 0 10 -10v-29a10 10 0 0 0 -10 -10"></path>
</g>
<path d="M1233 40h20"></path>
</g>
<path d="M1253 40h10"></path>
<g class="terminal ">
<path d="M1263 40h0"></path>
<path d="M1308.5 40h0"></path>
<rect x="1263" y="29" width="45.5" height="22" rx="10" ry="10"></rect>
<text x="1285.75" y="44">";"</text>
</g>
</g>
<path d="M1308.5 40h10"></path>
<path d="M 1318.5 40 h 20 m 0 -10 v 20"></path>
</g>
</svg>
