<svg xmlns="http://www.w3.org/2000/svg" xmlns:xlink="http://www.w3.org/1999/xlink" class="railroad-diagram" width="599" height="71" viewBox="0 0 599 71">
<defs>
<style type="text/css"><![CDATA[
path {
stroke-width: 3;
stroke: black;
fill: rgba(0,0,0,0);
}
text {
font: bold 14px monospace;
text-anchor: middle;
}
text.diagram-text {
font-size: 12px;
}
a {
fill: blue;
}
text.diagram-arrow {
font-size: 16px;
}
text.label {
text-anchor: start;
}
text.comment {
font: italic 12px monospace;
}
rect {
stroke-width: 3;
stroke: black;
fill: #BCBCBC;
}
path.diagram-text {
stroke-width: 3;
stroke: black;
fill: #BCBCBC;
cursor: help;
}
]]></style>
</defs>
<g transform="translate(.5 .5)">
<g>
<path d="M20 30v20m0 -10h20"></path>
</g>
<path d="M40 40h10"></path>
<g>
<path d="M50 40h0"></path>
<path d="M549 40h0"></path>
<g class="terminal ">
<path d="M50 40h0"></path>
<path d="M121 40h0"></path>
<rect x="50" y="29" width="71" height="22" rx="10" ry="10"></rect>
<text x="85.5" y="44">"WITH"</text>
</g>
<path d="M121 40h10"></path>
<path d="M131 40h10"></path>
<g class="terminal ">
<path d="M141 40h0"></path>
<path d="M220.5 40h0"></path>
<rect x="141" y="29" width="79.5" height="22" rx="10" ry="10"></rect>
<text x="180.75" y="44">"VALUE"</text>
</g>
<path d="M220.5 40h10"></path>
<path d="M230.5 40h10"></path>
<g class="terminal ">
<path d="M240.5 40h0"></path>
<path d="M311.5 40h0"></path>
<rect x="240.5" y="29" width="71" height="22" rx="10" ry="10"></rect>
<text x="276" y="44">"HELP"</text>
</g>
<path d="M311.5 40h10"></path>
<path d="M321.5 40h10"></path>
<g class="non-terminal ">
<path d="M331.5 40h0"></path>
<path d="M411 40h0"></path>
<rect x="331.5" y="29" width="79.5" height="22"></rect>
<a xlink:href="#/ddl/expression/DDLName"><text x="371.25" y="44">DDLName</text>
</a>
</g>
<path d="M411 40h10"></path>
<g>
<path d="M421 40h0"></path>
<path d="M549 40h0"></path>
<path d="M421 40a10 10 0 0 0 10 -10v0a10 10 0 0 1 10 -10"></path>
<g>
<path d="M441 20h88"></path>
</g>
<path d="M529 20a10 10 0 0 1 10 10v0a10 10 0 0 0 10 10"></path>
<path d="M421 40h20"></path>
<g class="non-terminal ">
<path d="M441 40h0"></path>
<path d="M529 40h0"></path>
<rect x="441" y="29" width="88" height="22"></rect>
<a xlink:href="#/ddl/expression/DDLWhere"><text x="485" y="44">DDLWhere</text>
</a>
</g>
<path d="M529 40h20"></path>
</g>
</g>
<path d="M549 40h10"></path>
<path d="M 559 40 h 20 m 0 -10 v 20"></path>
</g>
</svg>
