<svg xmlns="http://www.w3.org/2000/svg" xmlns:xlink="http://www.w3.org/1999/xlink" class="railroad-diagram" width="1088.5" height="109" viewBox="0 0 1088.5 109">
<defs>
<style type="text/css"><![CDATA[
path {
stroke-width: 3;
stroke: black;
fill: rgba(0,0,0,0);
}
text {
font: bold 14px monospace;
text-anchor: middle;
}
text.diagram-text {
font-size: 12px;
}
a {
fill: blue;
}
text.diagram-arrow {
font-size: 16px;
}
text.label {
text-anchor: start;
}
text.comment {
font: italic 12px monospace;
}
rect {
stroke-width: 3;
stroke: black;
fill: #BCBCBC;
}
path.diagram-text {
stroke-width: 3;
stroke: black;
fill: #BCBCBC;
cursor: help;
}
]]></style>
</defs>
<g transform="translate(.5 .5)">
<g>
<path d="M20 30v20m0 -10h20"></path>
</g>
<path d="M40 40h10"></path>
<g>
<path d="M50 40h0"></path>
<path d="M1038.5 40h0"></path>
<g>
<path d="M50 40h0"></path>
<path d="M240.5 40h0"></path>
<path d="M50 40a10 10 0 0 0 10 -10v0a10 10 0 0 1 10 -10"></path>
<g>
<path d="M70 20h150.5"></path>
</g>
<path d="M220.5 20a10 10 0 0 1 10 10v0a10 10 0 0 0 10 10"></path>
<path d="M50 40h20"></path>
<g>
<path d="M70 40h0"></path>
<path d="M220.5 40h0"></path>
<path d="M70 40h10"></path>
<g class="non-terminal ">
<path d="M80 40h0"></path>
<path d="M210.5 40h0"></path>
<rect x="80" y="29" width="130.5" height="22"></rect>
<a xlink:href="#/ddl/expression/CDSAnnotation"><text x="145.25" y="44">CDSAnnotation</text>
</a>
</g>
<path d="M210.5 40h10"></path>
<path d="M80 40a10 10 0 0 0 -10 10v0a10 10 0 0 0 10 10"></path>
<g>
<path d="M80 60h130.5"></path>
</g>
<path d="M210.5 60a10 10 0 0 0 10 -10v0a10 10 0 0 0 -10 -10"></path>
</g>
<path d="M220.5 40h20"></path>
</g>
<g>
<path d="M240.5 40h0"></path>
<path d="M343 40h0"></path>
<path d="M240.5 40a10 10 0 0 0 10 -10v0a10 10 0 0 1 10 -10"></path>
<g>
<path d="M260.5 20h62.5"></path>
</g>
<path d="M323 20a10 10 0 0 1 10 10v0a10 10 0 0 0 10 10"></path>
<path d="M240.5 40h20"></path>
<g class="terminal ">
<path d="M260.5 40h0"></path>
<path d="M323 40h0"></path>
<rect x="260.5" y="29" width="62.5" height="22" rx="10" ry="10"></rect>
<text x="291.75" y="44">"KEY"</text>
</g>
<path d="M323 40h20"></path>
</g>
<path d="M343 40h10"></path>
<g class="non-terminal ">
<path d="M353 40h0"></path>
<path d="M432.5 40h0"></path>
<rect x="353" y="29" width="79.5" height="22"></rect>
<a xlink:href="#/ddl/expression/DDLName"><text x="392.75" y="44">DDLName</text>
</a>
</g>
<path d="M432.5 40h10"></path>
<path d="M442.5 40h10"></path>
<g class="terminal ">
<path d="M452.5 40h0"></path>
<path d="M498 40h0"></path>
<rect x="452.5" y="29" width="45.5" height="22" rx="10" ry="10"></rect>
<text x="475.25" y="44">":"</text>
</g>
<path d="M498 40h10"></path>
<path d="M508 40h10"></path>
<g class="non-terminal ">
<path d="M518 40h0"></path>
<path d="M597.5 40h0"></path>
<rect x="518" y="29" width="79.5" height="22"></rect>
<a xlink:href="#/ddl/expression/DDLType"><text x="557.75" y="44">DDLType</text>
</a>
</g>
<path d="M597.5 40h10"></path>
<g>
<path d="M607.5 40h0"></path>
<path d="M752.5 40h0"></path>
<path d="M607.5 40a10 10 0 0 0 10 -10v0a10 10 0 0 1 10 -10"></path>
<g>
<path d="M627.5 20h105"></path>
</g>
<path d="M732.5 20a10 10 0 0 1 10 10v0a10 10 0 0 0 10 10"></path>
<path d="M607.5 40h20"></path>
<g class="terminal ">
<path d="M627.5 40h0"></path>
<path d="M732.5 40h0"></path>
<rect x="627.5" y="29" width="105" height="22" rx="10" ry="10"></rect>
<text x="680" y="44">"NOT NULL"</text>
</g>
<path d="M732.5 40h20"></path>
</g>
<g>
<path d="M752.5 40h0"></path>
<path d="M983 40h0"></path>
<path d="M752.5 40a10 10 0 0 0 10 -10v0a10 10 0 0 1 10 -10"></path>
<g>
<path d="M772.5 20h190.5"></path>
</g>
<path d="M963 20a10 10 0 0 1 10 10v0a10 10 0 0 0 10 10"></path>
<path d="M752.5 40h20"></path>
<g>
<path d="M772.5 40h0"></path>
<path d="M963 40h0"></path>
<path d="M772.5 40h10"></path>
<g>
<path d="M782.5 40h0"></path>
<path d="M953 40h0"></path>
<path d="M782.5 40h20"></path>
<g class="non-terminal ">
<path d="M802.5 40h0"></path>
<path d="M933 40h0"></path>
<rect x="802.5" y="29" width="130.5" height="22"></rect>
<a xlink:href="#/ddl/expression/DDLForeignKey"><text x="867.75" y="44">DDLForeignKey</text>
</a>
</g>
<path d="M933 40h20"></path>
<path d="M782.5 40a10 10 0 0 1 10 10v10a10 10 0 0 0 10 10"></path>
<g class="non-terminal ">
<path d="M802.5 70h4.25"></path>
<path d="M928.75 70h4.25"></path>
<rect x="806.75" y="59" width="122" height="22"></rect>
<a xlink:href="#/ddl/expression/DDLValueHelp"><text x="867.75" y="74">DDLValueHelp</text>
</a>
</g>
<path d="M933 70a10 10 0 0 0 10 -10v-10a10 10 0 0 1 10 -10"></path>
</g>
<path d="M953 40h10"></path>
<path d="M782.5 40a10 10 0 0 0 -10 10v29a10 10 0 0 0 10 10"></path>
<g>
<path d="M782.5 89h170.5"></path>
</g>
<path d="M953 89a10 10 0 0 0 10 -10v-29a10 10 0 0 0 -10 -10"></path>
</g>
<path d="M963 40h20"></path>
</g>
<path d="M983 40h10"></path>
<g class="terminal ">
<path d="M993 40h0"></path>
<path d="M1038.5 40h0"></path>
<rect x="993" y="29" width="45.5" height="22" rx="10" ry="10"></rect>
<text x="1015.75" y="44">";"</text>
</g>
</g>
<path d="M1038.5 40h10"></path>
<path d="M 1048.5 40 h 20 m 0 -10 v 20"></path>
</g>
</svg>
