<svg xmlns="http://www.w3.org/2000/svg" xmlns:xlink="http://www.w3.org/1999/xlink" class="railroad-diagram" width="829.5" height="109" viewBox="0 0 829.5 109">
<defs>
<style type="text/css"><![CDATA[
path {
stroke-width: 3;
stroke: black;
fill: rgba(0,0,0,0);
}
text {
font: bold 14px monospace;
text-anchor: middle;
}
text.diagram-text {
font-size: 12px;
}
a {
fill: blue;
}
text.diagram-arrow {
font-size: 16px;
}
text.label {
text-anchor: start;
}
text.comment {
font: italic 12px monospace;
}
rect {
stroke-width: 3;
stroke: black;
fill: #BCBCBC;
}
path.diagram-text {
stroke-width: 3;
stroke: black;
fill: #BCBCBC;
cursor: help;
}
]]></style>
</defs>
<g transform="translate(.5 .5)">
<g>
<path d="M20 30v20m0 -10h20"></path>
</g>
<path d="M40 40h10"></path>
<g>
<path d="M50 40h0"></path>
<path d="M779.5 40h0"></path>
<g>
<path d="M50 40h0"></path>
<path d="M240.5 40h0"></path>
<path d="M50 40a10 10 0 0 0 10 -10v0a10 10 0 0 1 10 -10"></path>
<g>
<path d="M70 20h150.5"></path>
</g>
<path d="M220.5 20a10 10 0 0 1 10 10v0a10 10 0 0 0 10 10"></path>
<path d="M50 40h20"></path>
<g>
<path d="M70 40h0"></path>
<path d="M220.5 40h0"></path>
<path d="M70 40h10"></path>
<g class="non-terminal ">
<path d="M80 40h0"></path>
<path d="M210.5 40h0"></path>
<rect x="80" y="29" width="130.5" height="22"></rect>
<a xlink:href="#/ddl/expression/CDSAnnotation"><text x="145.25" y="44">CDSAnnotation</text>
</a>
</g>
<path d="M210.5 40h10"></path>
<path d="M80 40a10 10 0 0 0 -10 10v0a10 10 0 0 0 10 10"></path>
<g>
<path d="M80 60h130.5"></path>
</g>
<path d="M210.5 60a10 10 0 0 0 10 -10v0a10 10 0 0 0 -10 -10"></path>
</g>
<path d="M220.5 40h20"></path>
</g>
<path d="M240.5 40h10"></path>
<g class="terminal ">
<path d="M250.5 40h0"></path>
<path d="M338.5 40h0"></path>
<rect x="250.5" y="29" width="88" height="22" rx="10" ry="10"></rect>
<text x="294.5" y="44">"EXTEND"</text>
</g>
<path d="M338.5 40h10"></path>
<path d="M348.5 40h10"></path>
<g class="non-terminal ">
<path d="M358.5 40h0"></path>
<path d="M438 40h0"></path>
<rect x="358.5" y="29" width="79.5" height="22"></rect>
<a xlink:href="#/ddl/expression/DDLName"><text x="398.25" y="44">DDLName</text>
</a>
</g>
<path d="M438 40h10"></path>
<path d="M448 40h10"></path>
<g class="terminal ">
<path d="M458 40h0"></path>
<path d="M503.5 40h0"></path>
<rect x="458" y="29" width="45.5" height="22" rx="10" ry="10"></rect>
<text x="480.75" y="44">":"</text>
</g>
<path d="M503.5 40h10"></path>
<path d="M513.5 40h10"></path>
<g>
<path d="M523.5 40h0"></path>
<path d="M714 40h0"></path>
<path d="M523.5 40h10"></path>
<g>
<path d="M533.5 40h0"></path>
<path d="M704 40h0"></path>
<path d="M533.5 40h20"></path>
<g class="non-terminal ">
<path d="M553.5 40h0"></path>
<path d="M684 40h0"></path>
<rect x="553.5" y="29" width="130.5" height="22"></rect>
<a xlink:href="#/ddl/expression/DDLForeignKey"><text x="618.75" y="44">DDLForeignKey</text>
</a>
</g>
<path d="M684 40h20"></path>
<path d="M533.5 40a10 10 0 0 1 10 10v10a10 10 0 0 0 10 10"></path>
<g class="non-terminal ">
<path d="M553.5 70h4.25"></path>
<path d="M679.75 70h4.25"></path>
<rect x="557.75" y="59" width="122" height="22"></rect>
<a xlink:href="#/ddl/expression/DDLValueHelp"><text x="618.75" y="74">DDLValueHelp</text>
</a>
</g>
<path d="M684 70a10 10 0 0 0 10 -10v-10a10 10 0 0 1 10 -10"></path>
</g>
<path d="M704 40h10"></path>
<path d="M533.5 40a10 10 0 0 0 -10 10v29a10 10 0 0 0 10 10"></path>
<g>
<path d="M533.5 89h170.5"></path>
</g>
<path d="M704 89a10 10 0 0 0 10 -10v-29a10 10 0 0 0 -10 -10"></path>
</g>
<path d="M714 40h10"></path>
<path d="M724 40h10"></path>
<g class="terminal ">
<path d="M734 40h0"></path>
<path d="M779.5 40h0"></path>
<rect x="734" y="29" width="45.5" height="22" rx="10" ry="10"></rect>
<text x="756.75" y="44">";"</text>
</g>
</g>
<path d="M779.5 40h10"></path>
<path d="M 789.5 40 h 20 m 0 -10 v 20"></path>
</g>
</svg>
